<?xml version="1.0" encoding="UTF-8"?>
<svg id="Layer_1" data-name="Layer 1" xmlns="http://www.w3.org/2000/svg" viewBox="0 0 342 396">
  <defs>
    <style>
      .cls-1 {
        fill: none;
      }

      .cls-2 {
        fill: #cce6fe;
      }

      .cls-3 {
        fill: #0082fc;
      }
    </style>
  </defs>
  <rect class="cls-3" x="33.51" y="22.19" width="273.3" height="351.61"/>
  <g>
    <g>
      <rect class="cls-2" x="49.13" y="35.45" width="242.19" height="38.29"/>
      <g>
        <rect class="cls-1" x="48.91" y="46.47" width="242.19" height="17.83"/>
        <path class="cls-3" d="M138.47,57.87h-4.74l-1.13,2.99h-1.58l4.26-10.71h1.71l4.26,10.71h-1.6l-1.16-2.99ZM134.26,56.49h3.68l-1.86-4.8-1.83,4.8Z"/>
        <path class="cls-3" d="M142.6,63.72v-10.13h1.37v1.13c.2-.36.51-.67.92-.92.41-.25.92-.38,1.51-.38.54,0,1.02.1,1.44.29s.76.47,1.04.81c.28.34.49.75.63,1.21.15.46.22.96.22,1.48s-.08,1.05-.23,1.51c-.15.46-.37.87-.67,1.22s-.65.62-1.06.82-.89.29-1.43.29c-.56,0-1.05-.12-1.45-.35-.4-.23-.71-.51-.91-.83v3.85h-1.4ZM148.29,57.22c0-.36-.05-.7-.15-1s-.24-.57-.42-.8c-.18-.23-.41-.41-.67-.54-.27-.13-.57-.2-.9-.2s-.62.07-.88.2-.5.31-.69.54c-.19.23-.34.49-.44.8s-.15.64-.15,1,.05.72.15,1.03c.1.32.25.59.44.82.19.23.42.4.69.53s.56.19.88.19.63-.06.89-.19.49-.3.67-.53c.19-.23.33-.5.43-.82.1-.32.15-.66.15-1.03Z"/>
        <path class="cls-3" d="M151.55,63.72v-10.13h1.37v1.13c.2-.36.51-.67.92-.92.41-.25.92-.38,1.51-.38.54,0,1.02.1,1.44.29s.76.47,1.04.81c.28.34.49.75.63,1.21.15.46.22.96.22,1.48s-.08,1.05-.23,1.51c-.15.46-.37.87-.67,1.22s-.65.62-1.06.82-.89.29-1.43.29c-.56,0-1.05-.12-1.45-.35-.4-.23-.71-.51-.91-.83v3.85h-1.4ZM157.24,57.22c0-.36-.05-.7-.15-1s-.24-.57-.42-.8c-.18-.23-.41-.41-.67-.54-.27-.13-.57-.2-.9-.2s-.62.07-.88.2-.5.31-.69.54c-.19.23-.34.49-.44.8s-.15.64-.15,1,.05.72.15,1.03c.1.32.25.59.44.82.19.23.42.4.69.53s.56.19.88.19.63-.06.89-.19.49-.3.67-.53c.19-.23.33-.5.43-.82.1-.32.15-.66.15-1.03Z"/>
        <path class="cls-3" d="M160.5,60.85v-10.93h1.42v10.93h-1.42Z"/>
        <path class="cls-3" d="M164.02,50.84c0-.29.1-.54.29-.73s.44-.29.72-.29.54.1.73.29.29.44.29.73-.1.52-.29.72-.44.29-.73.29-.52-.1-.72-.29-.29-.44-.29-.72ZM164.34,60.85v-7.26h1.4v7.26h-1.4Z"/>
        <path class="cls-3" d="M171.21,54.68c-.29,0-.57.05-.83.16-.26.11-.5.26-.7.48-.21.21-.37.48-.49.79-.12.32-.18.69-.18,1.11s.06.78.18,1.09c.12.32.28.58.48.8.2.22.44.38.71.49.27.11.55.17.85.17.34,0,.63-.05.87-.15.24-.1.43-.23.59-.38s.28-.31.37-.49c.09-.18.16-.33.2-.48l1.25.54c-.09.26-.22.53-.39.79s-.39.51-.66.73c-.27.22-.59.4-.96.54-.37.14-.79.2-1.26.2-.53,0-1.02-.1-1.47-.29s-.83-.47-1.16-.82-.58-.75-.76-1.22c-.19-.47-.28-.98-.28-1.53s.09-1.08.28-1.56c.19-.47.44-.88.77-1.22s.71-.6,1.16-.79c.45-.19.93-.29,1.44-.29.48,0,.91.07,1.28.2.37.14.68.31.95.54.27.22.48.47.64.75s.28.55.36.82l-1.28.54c-.05-.18-.12-.36-.21-.54-.09-.18-.21-.34-.37-.49-.16-.15-.35-.27-.57-.36-.22-.1-.49-.14-.8-.14Z"/>
        <path class="cls-3" d="M175.71,58.91c0-.32.06-.61.17-.87.11-.26.26-.48.46-.66.2-.18.43-.33.7-.44.27-.11.56-.19.88-.24l1.96-.29c.22-.03.37-.1.45-.2.08-.1.11-.22.11-.35,0-.35-.12-.66-.37-.91-.25-.26-.65-.38-1.2-.38-.5,0-.89.14-1.16.42s-.43.63-.48,1.05l-1.36-.32c.04-.34.14-.66.31-.95s.38-.54.64-.75c.26-.21.57-.37.91-.48.35-.12.72-.17,1.11-.17.54,0,1.01.07,1.39.22.38.15.69.34.94.58.24.24.42.52.53.85.11.32.17.66.17,1.01v3.64c0,.32,0,.58.03.77.02.19.04.33.06.42h-1.39c-.02-.09-.04-.21-.05-.36-.01-.15-.02-.36-.02-.62-.08.13-.19.27-.32.41s-.29.27-.48.39c-.19.12-.42.22-.67.29-.26.08-.55.11-.87.11-.37,0-.71-.06-1-.18-.3-.12-.55-.28-.76-.48-.21-.2-.38-.43-.49-.69-.12-.26-.17-.54-.17-.83ZM178.34,59.89c.29,0,.57-.04.82-.11s.48-.2.66-.36c.19-.17.33-.39.45-.66.11-.28.17-.61.17-1v-.33l-2.22.33c-.3.05-.55.16-.75.34-.2.18-.3.43-.3.75,0,.27.11.52.32.73.21.22.5.32.86.32Z"/>
        <path class="cls-3" d="M185.96,53.59h1.57v1.28h-1.57v3.77c0,.33.08.58.23.75s.41.25.79.25c.09,0,.19,0,.3-.02.11,0,.2-.02.26-.05v1.21c-.06.02-.18.05-.35.08-.17.04-.38.05-.62.05-.62,0-1.12-.18-1.48-.54s-.54-.87-.54-1.53v-3.99h-1.39v-1.28h.39c.39,0,.68-.11.85-.32.18-.21.26-.48.26-.8v-1.18h1.3v2.3Z"/>
        <path class="cls-3" d="M189.1,50.84c0-.29.1-.54.29-.73s.44-.29.72-.29.54.1.73.29.29.44.29.73-.1.52-.29.72-.44.29-.73.29-.52-.1-.72-.29-.29-.44-.29-.72ZM189.42,60.85v-7.26h1.4v7.26h-1.4Z"/>
        <path class="cls-3" d="M196.35,53.37c.54,0,1.04.1,1.5.29s.85.47,1.18.81c.33.34.59.75.77,1.22.18.47.27.98.27,1.53s-.09,1.07-.27,1.54c-.18.47-.44.88-.77,1.22-.33.34-.72.61-1.18.81s-.95.29-1.5.29-1.04-.1-1.5-.29c-.45-.2-.84-.47-1.18-.81-.33-.34-.59-.75-.77-1.22-.18-.47-.27-.99-.27-1.54s.09-1.06.27-1.53c.18-.47.44-.87.77-1.22.33-.34.73-.61,1.18-.81.45-.2.95-.29,1.5-.29ZM196.35,59.81c.3,0,.59-.06.86-.17.27-.11.51-.28.73-.5.21-.22.38-.49.5-.82s.18-.69.18-1.12-.06-.79-.18-1.11c-.12-.32-.29-.59-.5-.81-.21-.22-.45-.39-.73-.5-.27-.11-.56-.17-.86-.17s-.59.06-.86.17c-.27.11-.51.28-.72.5-.21.22-.38.49-.5.81-.12.32-.18.69-.18,1.11s.06.8.18,1.12c.12.32.29.59.5.82.21.22.45.39.72.5.27.11.56.17.86.17Z"/>
        <path class="cls-3" d="M203.3,60.85h-1.42v-7.26h1.39v1.04c.26-.45.59-.77,1-.97.4-.19.82-.29,1.24-.29s.81.07,1.14.22.6.35.82.6.38.56.48.91c.11.35.16.73.16,1.13v4.61h-1.42v-4.36c0-.25-.03-.49-.08-.71-.06-.22-.15-.42-.29-.58s-.31-.3-.53-.39c-.22-.1-.48-.14-.79-.14-.28,0-.53.05-.74.16s-.39.25-.53.43c-.14.18-.25.39-.32.63-.07.24-.11.5-.11.77v4.2Z"/>
      </g>
    </g>
    <g>
      <rect class="cls-2" x="49.13" y="83.25" width="242.19" height="38.29"/>
      <g>
        <rect class="cls-1" x="48.91" y="94.27" width="242.19" height="17.83"/>
        <path class="cls-3" d="M129.95,104.28v4.38h-1.48v-10.71h3.9c.49,0,.94.08,1.35.24.41.16.75.38,1.04.67.29.29.51.62.67,1,.16.38.24.8.24,1.25s-.08.87-.24,1.26c-.16.39-.39.72-.67,1-.29.28-.63.5-1.04.66-.41.16-.86.24-1.35.24h-2.42ZM132.09,102.95c.64,0,1.15-.16,1.52-.49.37-.33.55-.77.55-1.32s-.18-1.03-.55-1.36c-.37-.33-.87-.5-1.52-.5h-2.14v3.67h2.14Z"/>
        <path class="cls-3" d="M141.37,102.83c-.21-.03-.42-.04-.62-.04-.59,0-1.07.17-1.44.52-.37.35-.55.92-.55,1.71v3.64h-1.42v-7.26h1.39v1.27c.13-.28.29-.51.46-.69.18-.18.36-.32.55-.42.19-.11.39-.18.59-.22.2-.04.39-.06.57-.06.1,0,.19,0,.28.02.08.01.15.02.19.03v1.51Z"/>
        <path class="cls-3" d="M149.2,106.59c-.1.32-.25.62-.45.9-.2.28-.43.52-.71.73-.28.21-.59.37-.94.49-.35.12-.74.18-1.16.18-.48,0-.95-.09-1.39-.26-.44-.17-.83-.42-1.17-.75-.34-.33-.6-.74-.8-1.22-.2-.48-.29-1.03-.29-1.65,0-.57.1-1.09.29-1.56.19-.47.45-.87.76-1.21.32-.34.69-.6,1.11-.79.42-.19.86-.28,1.31-.28.55,0,1.05.09,1.49.28.44.19.8.45,1.09.78.29.33.52.73.67,1.2s.23.98.23,1.55c0,.09,0,.18,0,.26,0,.08-.01.15-.02.2h-5.47c0,.32.07.62.18.89.11.27.26.51.46.7s.43.35.69.45c.27.11.55.16.85.16.59,0,1.05-.14,1.36-.42.31-.28.54-.63.68-1.04l1.22.42ZM147.77,104.28c-.02-.52-.2-.96-.53-1.32-.33-.36-.82-.54-1.46-.54-.3,0-.57.05-.81.16-.24.11-.44.25-.6.42-.17.18-.3.38-.4.6-.1.22-.16.45-.17.68h3.97Z"/>
        <path class="cls-3" d="M151.66,106.32c.05.38.22.7.5.97.28.26.68.39,1.19.39.4,0,.71-.1.92-.29.21-.19.32-.42.32-.68,0-.23-.08-.43-.24-.59-.16-.16-.39-.28-.7-.35l-1.24-.27c-.57-.12-1.02-.36-1.34-.72-.32-.36-.48-.8-.48-1.31,0-.31.07-.61.2-.88s.32-.52.55-.73.51-.38.82-.5c.32-.12.65-.18,1-.18.49,0,.91.07,1.25.21.34.14.61.31.82.52.21.21.37.42.48.64.11.22.18.41.22.57l-1.25.47c-.02-.09-.05-.21-.11-.35-.05-.14-.13-.27-.24-.4-.11-.13-.26-.23-.45-.32-.19-.09-.43-.14-.71-.14-.36,0-.65.1-.88.29s-.33.42-.33.67c0,.46.28.75.83.88l1.18.26c.66.14,1.17.4,1.5.78s.51.84.51,1.38c0,.26-.06.52-.17.79-.11.26-.27.5-.49.73-.22.22-.49.4-.82.54-.33.14-.72.2-1.18.2-.5,0-.93-.07-1.29-.21-.36-.14-.65-.32-.89-.53-.24-.21-.42-.44-.54-.69s-.2-.48-.23-.69l1.28-.45Z"/>
        <path class="cls-3" d="M164.21,106.59c-.1.32-.25.62-.45.9-.2.28-.43.52-.71.73-.28.21-.59.37-.94.49-.35.12-.74.18-1.16.18-.48,0-.95-.09-1.39-.26-.44-.17-.83-.42-1.17-.75-.34-.33-.6-.74-.8-1.22-.2-.48-.29-1.03-.29-1.65,0-.57.1-1.09.29-1.56.19-.47.45-.87.76-1.21.32-.34.69-.6,1.11-.79.42-.19.86-.28,1.31-.28.55,0,1.05.09,1.49.28.44.19.8.45,1.09.78.29.33.52.73.67,1.2s.23.98.23,1.55c0,.09,0,.18,0,.26,0,.08-.01.15-.02.2h-5.47c0,.32.07.62.18.89.11.27.26.51.46.7s.43.35.69.45c.27.11.55.16.85.16.59,0,1.05-.14,1.36-.42.31-.28.54-.63.68-1.04l1.22.42ZM162.78,104.28c-.02-.52-.2-.96-.53-1.32-.33-.36-.82-.54-1.46-.54-.3,0-.57.05-.81.16-.24.11-.44.25-.6.42-.17.18-.3.38-.4.6-.1.22-.16.45-.17.68h3.97Z"/>
        <path class="cls-3" d="M167.49,108.66h-1.42v-7.26h1.39v1.04c.26-.45.59-.77,1-.97.4-.19.82-.29,1.24-.29s.81.07,1.14.22.6.35.82.6.38.56.48.91c.11.35.16.73.16,1.13v4.61h-1.42v-4.36c0-.25-.03-.49-.08-.71-.06-.22-.15-.42-.29-.58s-.31-.3-.53-.39c-.22-.1-.48-.14-.79-.14-.28,0-.53.05-.74.16s-.39.25-.53.43c-.14.18-.25.39-.32.63-.07.24-.11.5-.11.77v4.2Z"/>
        <path class="cls-3" d="M176.46,101.39h1.57v1.28h-1.57v3.77c0,.33.08.58.23.75s.41.25.79.25c.09,0,.19,0,.3-.02.11,0,.2-.02.26-.05v1.21c-.06.02-.18.05-.35.08-.17.04-.38.05-.62.05-.62,0-1.12-.18-1.48-.54s-.54-.87-.54-1.53v-3.99h-1.39v-1.28h.39c.39,0,.68-.11.85-.32.18-.21.26-.48.26-.8v-1.18h1.3v2.3Z"/>
        <path class="cls-3" d="M179.46,106.71c0-.32.06-.61.17-.87.11-.26.26-.48.46-.66.2-.18.43-.33.7-.44.27-.11.56-.19.88-.24l1.96-.29c.22-.03.37-.1.45-.2.08-.1.11-.22.11-.35,0-.35-.12-.66-.37-.91-.25-.26-.65-.38-1.2-.38-.5,0-.89.14-1.16.42s-.43.63-.48,1.05l-1.36-.32c.04-.34.14-.66.31-.95s.38-.54.64-.75c.26-.21.57-.37.91-.48.35-.12.72-.17,1.11-.17.54,0,1.01.07,1.39.22.38.15.69.34.94.58.24.24.42.52.53.85.11.32.17.66.17,1.01v3.64c0,.32,0,.58.03.77.02.19.04.33.06.42h-1.39c-.02-.09-.04-.21-.05-.36-.01-.15-.02-.36-.02-.62-.08.13-.19.27-.32.41s-.29.27-.48.39c-.19.12-.42.22-.67.29-.26.08-.55.11-.87.11-.37,0-.71-.06-1-.18-.3-.12-.55-.28-.76-.48-.21-.2-.38-.43-.49-.69-.12-.26-.17-.54-.17-.83ZM182.09,107.69c.29,0,.57-.04.82-.11s.48-.2.66-.36c.19-.17.33-.39.45-.66.11-.28.17-.61.17-1v-.33l-2.22.33c-.3.05-.55.16-.75.34-.2.18-.3.43-.3.75,0,.27.11.52.32.73.21.22.5.32.86.32Z"/>
        <path class="cls-3" d="M189.71,101.39h1.57v1.28h-1.57v3.77c0,.33.08.58.23.75s.41.25.79.25c.09,0,.19,0,.3-.02.11,0,.2-.02.26-.05v1.21c-.06.02-.18.05-.35.08-.17.04-.38.05-.62.05-.62,0-1.12-.18-1.48-.54s-.54-.87-.54-1.53v-3.99h-1.39v-1.28h.39c.39,0,.68-.11.85-.32.18-.21.26-.48.26-.8v-1.18h1.3v2.3Z"/>
        <path class="cls-3" d="M192.86,98.64c0-.29.1-.54.29-.73s.44-.29.72-.29.54.1.73.29.29.44.29.73-.1.52-.29.72-.44.29-.73.29-.52-.1-.72-.29-.29-.44-.29-.72ZM193.17,108.66v-7.26h1.4v7.26h-1.4Z"/>
        <path class="cls-3" d="M200.1,101.17c.54,0,1.04.1,1.5.29s.85.47,1.18.81c.33.34.59.75.77,1.22.18.47.27.98.27,1.53s-.09,1.07-.27,1.54c-.18.47-.44.88-.77,1.22-.33.34-.72.61-1.18.81s-.95.29-1.5.29-1.04-.1-1.5-.29c-.45-.2-.84-.47-1.18-.81-.33-.34-.59-.75-.77-1.22-.18-.47-.27-.99-.27-1.54s.09-1.06.27-1.53c.18-.47.44-.87.77-1.22.33-.34.73-.61,1.18-.81.45-.2.95-.29,1.5-.29ZM200.1,107.61c.3,0,.59-.06.86-.17.27-.11.51-.28.73-.5.21-.22.38-.49.5-.82s.18-.69.18-1.12-.06-.79-.18-1.11c-.12-.32-.29-.59-.5-.81-.21-.22-.45-.39-.73-.5-.27-.11-.56-.17-.86-.17s-.59.06-.86.17c-.27.11-.51.28-.72.5-.21.22-.38.49-.5.81-.12.32-.18.69-.18,1.11s.06.8.18,1.12c.12.32.29.59.5.82.21.22.45.39.72.5.27.11.56.17.86.17Z"/>
        <path class="cls-3" d="M207.05,108.66h-1.42v-7.26h1.39v1.04c.26-.45.59-.77,1-.97.4-.19.82-.29,1.24-.29s.81.07,1.14.22.6.35.82.6.38.56.48.91c.11.35.16.73.16,1.13v4.61h-1.42v-4.36c0-.25-.03-.49-.08-.71-.06-.22-.15-.42-.29-.58s-.31-.3-.53-.39c-.22-.1-.48-.14-.79-.14-.28,0-.53.05-.74.16s-.39.25-.53.43c-.14.18-.25.39-.32.63-.07.24-.11.5-.11.77v4.2Z"/>
      </g>
    </g>
    <g>
      <rect class="cls-2" x="49.13" y="178.86" width="242.19" height="38.29"/>
      <g>
        <rect class="cls-1" x="48.91" y="183.08" width="242.19" height="31.58"/>
        <path class="cls-3" d="M142.39,195v9.33h-1.48v-9.33h-3.58v-1.38h8.64v1.38h-3.58Z"/>
        <path class="cls-3" d="M150.46,198.5c-.21-.03-.42-.05-.62-.05-.59,0-1.07.17-1.44.52-.37.35-.55.92-.55,1.71v3.64h-1.42v-7.26h1.39v1.27c.13-.28.29-.51.46-.69.18-.18.36-.32.55-.42s.39-.18.59-.22c.2-.04.39-.06.57-.06.1,0,.19,0,.28.02.08,0,.15.02.19.03v1.51Z"/>
        <path class="cls-3" d="M151.51,202.38c0-.32.06-.61.17-.87s.26-.48.46-.66c.2-.18.43-.33.7-.44.27-.11.56-.19.88-.24l1.96-.29c.22-.03.37-.1.45-.2.08-.1.11-.22.11-.35,0-.35-.12-.66-.37-.91-.25-.26-.65-.38-1.2-.38-.5,0-.89.14-1.16.42-.27.28-.43.63-.48,1.05l-1.36-.32c.04-.34.14-.66.31-.95s.38-.54.64-.75c.26-.21.57-.37.91-.48.35-.12.72-.17,1.11-.17.54,0,1.01.07,1.39.22.38.15.69.34.94.58.24.24.42.52.53.85.11.32.17.66.17,1.01v3.64c0,.32,0,.58.03.77s.04.33.06.42h-1.39c-.02-.09-.04-.21-.05-.36-.01-.15-.02-.36-.02-.62-.08.13-.19.27-.32.41-.13.14-.29.27-.48.39-.19.12-.42.22-.67.29-.26.08-.55.11-.87.11-.37,0-.71-.06-1-.18-.3-.12-.55-.28-.76-.48-.21-.2-.38-.42-.49-.69-.12-.26-.17-.54-.17-.83ZM154.14,203.36c.29,0,.57-.04.82-.11.26-.08.48-.2.66-.36.19-.17.33-.39.45-.66.11-.28.17-.61.17-1v-.33l-2.22.33c-.3.05-.55.16-.75.34-.2.18-.3.42-.3.75,0,.27.11.52.32.73.21.22.5.32.86.32Z"/>
        <path class="cls-3" d="M161.28,204.33h-1.42v-7.26h1.39v1.04c.26-.45.59-.78,1-.97s.82-.29,1.24-.29.81.07,1.14.22c.33.15.6.35.82.6s.38.56.48.91c.11.35.16.73.16,1.13v4.61h-1.42v-4.36c0-.25-.03-.49-.08-.71-.06-.22-.15-.42-.29-.58-.14-.17-.31-.3-.53-.39-.22-.09-.48-.14-.79-.14-.28,0-.53.05-.74.16-.21.11-.39.25-.53.43-.14.18-.25.39-.32.63-.07.24-.11.5-.11.77v4.2Z"/>
        <path class="cls-3" d="M168.95,201.99c.05.38.22.71.5.97.28.26.68.39,1.19.39.4,0,.71-.1.92-.29.21-.19.32-.42.32-.68,0-.23-.08-.43-.24-.59-.16-.16-.39-.28-.7-.35l-1.24-.27c-.57-.12-1.02-.36-1.34-.72s-.48-.8-.48-1.31c0-.31.07-.61.2-.88.14-.28.32-.52.55-.73.23-.21.51-.38.82-.5.32-.12.65-.18,1-.18.49,0,.91.07,1.25.21.34.14.61.32.82.52.21.21.37.42.48.64.11.22.18.41.22.57l-1.25.47c-.02-.09-.05-.21-.11-.35-.05-.14-.13-.27-.24-.4-.11-.12-.26-.23-.45-.32-.19-.09-.43-.14-.71-.14-.36,0-.65.1-.88.29s-.33.42-.33.67c0,.46.28.75.83.88l1.18.26c.66.14,1.17.4,1.5.78.34.38.51.84.51,1.38,0,.26-.06.52-.17.79-.11.26-.27.5-.49.72-.22.22-.49.4-.82.54s-.72.2-1.18.2c-.5,0-.93-.07-1.29-.21-.36-.14-.65-.32-.89-.53-.24-.21-.42-.44-.54-.69-.13-.25-.2-.48-.23-.69l1.28-.45Z"/>
        <path class="cls-3" d="M175.17,207.2v-10.13h1.37v1.13c.2-.36.51-.67.92-.92.41-.25.92-.38,1.51-.38.54,0,1.02.1,1.44.29s.76.47,1.04.81c.28.34.49.75.63,1.21.15.46.22.96.22,1.48s-.08,1.05-.23,1.51c-.15.46-.37.87-.67,1.22-.29.35-.65.62-1.06.81-.42.2-.89.29-1.43.29-.56,0-1.05-.12-1.45-.35-.4-.23-.71-.51-.91-.83v3.85h-1.4ZM180.87,200.69c0-.36-.05-.7-.15-1-.1-.31-.24-.57-.42-.8-.18-.23-.41-.41-.67-.54-.27-.13-.57-.2-.9-.2s-.62.07-.88.2-.5.31-.69.54c-.19.23-.34.49-.44.8-.1.31-.15.64-.15,1s.05.72.15,1.03.25.59.44.82c.19.23.42.4.69.53s.56.19.88.19.63-.06.89-.19.49-.3.67-.53c.19-.23.33-.5.43-.82s.15-.66.15-1.03Z"/>
        <path class="cls-3" d="M187.24,196.84c.54,0,1.04.1,1.5.29s.85.47,1.18.81c.33.34.59.75.77,1.21.18.47.27.98.27,1.53s-.09,1.07-.27,1.54c-.18.47-.44.88-.77,1.22-.33.34-.72.61-1.18.81s-.95.29-1.5.29-1.04-.1-1.5-.29c-.45-.2-.84-.46-1.18-.81-.33-.34-.59-.75-.77-1.22-.18-.47-.27-.99-.27-1.54s.09-1.06.27-1.53c.18-.47.44-.87.77-1.21.33-.34.73-.61,1.18-.81.45-.2.95-.29,1.5-.29ZM187.24,203.29c.3,0,.59-.05.86-.17.27-.11.51-.28.73-.5.21-.22.38-.49.5-.82s.18-.69.18-1.12-.06-.79-.18-1.11c-.12-.32-.29-.59-.5-.81-.21-.22-.45-.39-.73-.5-.27-.11-.56-.17-.86-.17s-.59.05-.86.17c-.27.11-.51.28-.72.5-.21.22-.38.49-.5.81-.12.32-.18.69-.18,1.11s.06.79.18,1.12c.12.32.29.59.5.82.21.22.45.39.72.5.27.11.56.17.86.17Z"/>
        <path class="cls-3" d="M196.8,198.5c-.21-.03-.42-.05-.62-.05-.59,0-1.07.17-1.44.52-.37.35-.55.92-.55,1.71v3.64h-1.42v-7.26h1.39v1.27c.13-.28.29-.51.46-.69.18-.18.36-.32.55-.42s.39-.18.59-.22c.2-.04.39-.06.57-.06.1,0,.19,0,.28.02.08,0,.15.02.19.03v1.51Z"/>
        <path class="cls-3" d="M200.59,197.07h1.57v1.28h-1.57v3.78c0,.33.08.58.23.75s.41.25.79.25c.09,0,.19,0,.3-.01.11-.01.2-.03.26-.05v1.21c-.06.02-.18.05-.35.08-.17.04-.38.05-.62.05-.62,0-1.12-.18-1.48-.54-.36-.36-.54-.87-.54-1.53v-3.99h-1.39v-1.28h.39c.39,0,.68-.11.85-.32.18-.21.26-.48.26-.8v-1.18h1.3v2.29Z"/>
      </g>
    </g>
    <g>
      <rect class="cls-2" x="49.13" y="322.26" width="242.19" height="38.29"/>
      <g>
        <rect class="cls-1" x="48.91" y="333.28" width="242.19" height="17.83"/>
        <path class="cls-3" d="M144.96,343.28v4.38h-1.48v-10.71h3.9c.49,0,.94.08,1.35.24.41.16.75.38,1.04.67.29.29.51.62.67,1,.16.38.24.8.24,1.25s-.08.87-.24,1.26c-.16.39-.39.72-.67,1-.29.28-.63.5-1.04.66-.41.16-.86.24-1.35.24h-2.42ZM147.1,341.95c.64,0,1.15-.16,1.52-.49.37-.33.55-.77.55-1.32s-.18-1.03-.55-1.36c-.37-.33-.87-.5-1.52-.5h-2.14v3.67h2.14Z"/>
        <path class="cls-3" d="M153.76,347.66h-1.42v-10.93h1.42v4.51c.26-.38.59-.65.98-.82s.8-.24,1.22-.24.81.07,1.14.22c.33.15.6.35.82.6s.38.56.48.91c.11.35.16.73.16,1.13v4.61h-1.42v-4.36c0-.25-.03-.49-.08-.71-.06-.22-.15-.42-.29-.58-.14-.17-.31-.3-.53-.39-.22-.09-.48-.14-.79-.14-.27,0-.51.05-.72.15-.21.1-.38.24-.52.41s-.25.37-.32.6c-.08.23-.12.48-.13.75v4.27Z"/>
        <path class="cls-3" d="M161.09,350.69l1.81-3.83-3.12-6.46h1.63l2.26,5.01,2.17-5.01h1.53l-4.73,10.3h-1.55Z"/>
        <path class="cls-3" d="M169.33,345.32c.05.38.22.71.5.97.28.26.68.39,1.19.39.4,0,.71-.1.92-.29.21-.19.32-.42.32-.68,0-.23-.08-.43-.24-.59-.16-.16-.39-.28-.7-.35l-1.24-.27c-.57-.12-1.02-.36-1.34-.72s-.48-.8-.48-1.31c0-.31.07-.61.2-.88.14-.28.32-.52.55-.73.23-.21.51-.38.82-.5.32-.12.65-.18,1-.18.49,0,.91.07,1.25.21.34.14.61.32.82.52.21.21.37.42.48.64.11.22.18.41.22.57l-1.25.47c-.02-.09-.05-.21-.11-.35-.05-.14-.13-.27-.24-.4-.11-.12-.26-.23-.45-.32-.19-.09-.43-.14-.71-.14-.36,0-.65.1-.88.29s-.33.42-.33.67c0,.46.28.75.83.88l1.18.26c.66.14,1.17.4,1.5.78.34.38.51.84.51,1.38,0,.26-.06.52-.17.79-.11.26-.27.5-.49.72-.22.22-.49.4-.82.54s-.72.2-1.18.2c-.5,0-.93-.07-1.29-.21-.36-.14-.65-.32-.89-.53-.24-.21-.42-.44-.54-.69-.13-.25-.2-.48-.23-.69l1.28-.45Z"/>
        <path class="cls-3" d="M175.24,337.65c0-.29.1-.54.29-.73s.44-.29.72-.29.54.1.73.29.29.44.29.73-.1.52-.29.72-.44.29-.73.29-.52-.1-.72-.29-.29-.44-.29-.72ZM175.55,347.66v-7.26h1.4v7.26h-1.4Z"/>
        <path class="cls-3" d="M182.42,341.48c-.29,0-.57.05-.83.16-.26.11-.5.26-.7.48-.21.21-.37.48-.49.79-.12.32-.18.69-.18,1.11s.06.78.18,1.09c.12.32.28.58.48.8.2.22.44.38.71.49.27.11.55.17.85.17.34,0,.63-.05.87-.15.24-.1.43-.23.59-.38.16-.15.28-.31.37-.49.09-.18.16-.33.2-.48l1.25.54c-.09.26-.22.53-.39.79-.17.27-.39.51-.66.73-.27.22-.59.4-.96.54-.37.14-.79.2-1.26.2-.53,0-1.02-.1-1.47-.29s-.83-.47-1.16-.82c-.32-.35-.58-.75-.76-1.22-.19-.47-.28-.98-.28-1.53s.09-1.08.28-1.56c.19-.47.44-.88.77-1.22.33-.34.71-.6,1.16-.79.45-.19.93-.29,1.44-.29.48,0,.91.07,1.28.2.37.14.68.31.95.54.27.22.48.47.64.75s.28.55.36.82l-1.28.54c-.05-.18-.12-.36-.21-.54-.09-.18-.21-.34-.37-.49-.16-.15-.35-.27-.57-.36-.22-.1-.49-.14-.8-.14Z"/>
        <path class="cls-3" d="M186.92,345.71c0-.32.06-.61.17-.87s.26-.48.46-.66c.2-.18.43-.33.7-.44.27-.11.56-.19.88-.24l1.96-.29c.22-.03.37-.1.45-.2.08-.1.11-.22.11-.35,0-.35-.12-.66-.37-.91-.25-.26-.65-.38-1.2-.38-.5,0-.89.14-1.16.42-.27.28-.43.63-.48,1.05l-1.36-.32c.04-.34.14-.66.31-.95s.38-.54.64-.75c.26-.21.57-.37.91-.48.35-.12.72-.17,1.11-.17.54,0,1.01.07,1.39.22.38.15.69.34.94.58.24.24.42.52.53.85.11.32.17.66.17,1.01v3.64c0,.32,0,.58.03.77s.04.33.06.42h-1.39c-.02-.09-.04-.21-.05-.36-.01-.15-.02-.36-.02-.62-.08.13-.19.27-.32.41-.13.14-.29.27-.48.39-.19.12-.42.22-.67.29-.26.08-.55.11-.87.11-.37,0-.71-.06-1-.18-.3-.12-.55-.28-.76-.48-.21-.2-.38-.42-.49-.69-.12-.26-.17-.54-.17-.83ZM189.55,346.69c.29,0,.57-.04.82-.11.26-.08.48-.2.66-.36.19-.17.33-.39.45-.66.11-.28.17-.61.17-1v-.33l-2.22.33c-.3.05-.55.16-.75.34-.2.18-.3.42-.3.75,0,.27.11.52.32.73.21.22.5.32.86.32Z"/>
        <path class="cls-3" d="M195.27,347.66v-10.93h1.42v10.93h-1.42Z"/>
      </g>
    </g>
    <g>
      <rect class="cls-2" x="48.91" y="131.06" width="242.75" height="38.29"/>
      <g>
        <rect class="cls-1" x="48.91" y="135.84" width="242.19" height="30.07"/>
        <path class="cls-3" d="M151,148.54c-.03-.19-.1-.4-.2-.61s-.24-.42-.42-.6c-.18-.18-.41-.33-.68-.45s-.59-.17-.97-.17c-.3,0-.58.04-.83.14-.25.09-.47.22-.66.38-.19.16-.33.35-.43.57s-.15.45-.15.7c0,.38.12.71.35.99s.57.47,1.03.57l1.6.35c.9.2,1.58.56,2.06,1.09.48.52.72,1.16.72,1.92,0,.41-.09.81-.26,1.19-.17.38-.42.72-.74,1.01-.32.29-.71.53-1.16.7-.45.18-.97.26-1.54.26-.64,0-1.21-.1-1.68-.29-.48-.19-.88-.44-1.21-.74-.33-.3-.58-.64-.76-1.02-.18-.38-.3-.76-.35-1.14l1.42-.45c.03.3.1.59.22.87.12.28.28.52.5.73.22.21.48.38.79.51.31.13.66.19,1.07.19.73,0,1.29-.17,1.65-.5.37-.33.55-.73.55-1.21,0-.38-.13-.73-.39-1.03s-.66-.52-1.21-.63l-1.53-.33c-.76-.17-1.39-.5-1.88-.99s-.73-1.13-.73-1.94c0-.42.09-.83.27-1.21.18-.38.43-.72.75-1.01.32-.29.69-.53,1.12-.7.43-.18.9-.26,1.39-.26.6,0,1.12.08,1.55.25.43.17.79.38,1.07.64s.51.55.67.86c.16.31.27.61.33.91l-1.33.47Z"/>
        <path class="cls-3" d="M160.63,154.28c-.1.32-.25.62-.45.9-.2.28-.43.52-.71.73-.28.21-.59.37-.94.49-.35.12-.74.18-1.16.18-.48,0-.95-.09-1.39-.26-.44-.17-.83-.42-1.17-.75-.34-.33-.6-.74-.8-1.22-.2-.48-.29-1.03-.29-1.65,0-.57.1-1.09.29-1.56.19-.47.45-.87.76-1.21.32-.34.69-.6,1.11-.79.42-.19.86-.28,1.31-.28.55,0,1.05.09,1.49.28.44.19.8.45,1.09.78.29.33.52.73.67,1.2s.23.98.23,1.55c0,.09,0,.18,0,.26,0,.08-.01.15-.02.2h-5.47c0,.32.07.62.18.89.11.27.26.51.46.7s.43.35.69.45c.27.11.55.16.85.16.59,0,1.05-.14,1.36-.42.31-.28.54-.63.68-1.04l1.22.42ZM159.2,151.97c-.02-.52-.2-.96-.53-1.32-.33-.36-.82-.54-1.46-.54-.3,0-.57.05-.81.16-.24.11-.44.25-.6.42-.17.18-.3.38-.4.6-.1.22-.16.45-.17.68h3.97Z"/>
        <path class="cls-3" d="M163.09,154c.05.38.22.7.5.97.28.26.68.39,1.19.39.4,0,.71-.1.92-.29.21-.19.32-.42.32-.68,0-.23-.08-.43-.24-.59-.16-.16-.39-.28-.7-.35l-1.24-.27c-.57-.12-1.02-.36-1.34-.72-.32-.36-.48-.8-.48-1.31,0-.31.07-.61.2-.88s.32-.52.55-.73.51-.38.82-.5c.32-.12.65-.18,1-.18.49,0,.91.07,1.25.21.34.14.61.31.82.52.21.21.37.42.48.64.11.22.18.41.22.57l-1.25.47c-.02-.09-.05-.21-.11-.35-.05-.14-.13-.27-.24-.4-.11-.13-.26-.23-.45-.32-.19-.09-.43-.14-.71-.14-.36,0-.65.1-.88.29s-.33.42-.33.67c0,.46.28.75.83.88l1.18.26c.66.14,1.17.4,1.5.78s.51.84.51,1.38c0,.26-.06.52-.17.79-.11.26-.27.5-.49.73-.22.22-.49.4-.82.54-.33.14-.72.2-1.18.2-.5,0-.93-.07-1.29-.21-.36-.14-.65-.32-.89-.53-.24-.21-.42-.44-.54-.69s-.2-.48-.23-.69l1.28-.45Z"/>
        <path class="cls-3" d="M169.92,154c.05.38.22.7.5.97.28.26.68.39,1.19.39.4,0,.71-.1.92-.29.21-.19.32-.42.32-.68,0-.23-.08-.43-.24-.59-.16-.16-.39-.28-.7-.35l-1.24-.27c-.57-.12-1.02-.36-1.34-.72-.32-.36-.48-.8-.48-1.31,0-.31.07-.61.2-.88s.32-.52.55-.73.51-.38.82-.5c.32-.12.65-.18,1-.18.49,0,.91.07,1.25.21.34.14.61.31.82.52.21.21.37.42.48.64.11.22.18.41.22.57l-1.25.47c-.02-.09-.05-.21-.11-.35-.05-.14-.13-.27-.24-.4-.11-.13-.26-.23-.45-.32-.19-.09-.43-.14-.71-.14-.36,0-.65.1-.88.29s-.33.42-.33.67c0,.46.28.75.83.88l1.18.26c.66.14,1.17.4,1.5.78s.51.84.51,1.38c0,.26-.06.52-.17.79-.11.26-.27.5-.49.73-.22.22-.49.4-.82.54-.33.14-.72.2-1.18.2-.5,0-.93-.07-1.29-.21-.36-.14-.65-.32-.89-.53-.24-.21-.42-.44-.54-.69s-.2-.48-.23-.69l1.28-.45Z"/>
        <path class="cls-3" d="M175.82,146.33c0-.29.1-.54.29-.73s.44-.29.72-.29.54.1.73.29.29.44.29.73-.1.52-.29.72-.44.29-.73.29-.52-.1-.72-.29-.29-.44-.29-.72ZM176.14,156.35v-7.26h1.4v7.26h-1.4Z"/>
        <path class="cls-3" d="M183.07,148.86c.54,0,1.04.1,1.5.29s.85.47,1.18.81c.33.34.59.75.77,1.22.18.47.27.98.27,1.53s-.09,1.07-.27,1.54c-.18.47-.44.88-.77,1.22-.33.34-.72.61-1.18.81s-.95.29-1.5.29-1.04-.1-1.5-.29c-.45-.2-.84-.47-1.18-.81-.33-.34-.59-.75-.77-1.22-.18-.47-.27-.99-.27-1.54s.09-1.06.27-1.53c.18-.47.44-.87.77-1.22.33-.34.73-.61,1.18-.81.45-.2.95-.29,1.5-.29ZM183.07,155.3c.3,0,.59-.06.86-.17.27-.11.51-.28.73-.5.21-.22.38-.49.5-.82s.18-.69.18-1.12-.06-.79-.18-1.11c-.12-.32-.29-.59-.5-.81-.21-.22-.45-.39-.73-.5-.27-.11-.56-.17-.86-.17s-.59.06-.86.17c-.27.11-.51.28-.72.5-.21.22-.38.49-.5.81-.12.32-.18.69-.18,1.11s.06.8.18,1.12c.12.32.29.59.5.82.21.22.45.39.72.5.27.11.56.17.86.17Z"/>
        <path class="cls-3" d="M190.02,156.35h-1.42v-7.26h1.39v1.04c.26-.45.59-.77,1-.97.4-.19.82-.29,1.24-.29s.81.07,1.14.22.6.35.82.6.38.56.48.91c.11.35.16.73.16,1.13v4.61h-1.42v-4.36c0-.25-.03-.49-.08-.71-.06-.22-.15-.42-.29-.58s-.31-.3-.53-.39c-.22-.1-.48-.14-.79-.14-.28,0-.53.05-.74.16s-.39.25-.53.43c-.14.18-.25.39-.32.63-.07.24-.11.5-.11.77v4.2Z"/>
      </g>
    </g>
    <g>
      <rect class="cls-2" x="49.19" y="226.66" width="242.48" height="38.29"/>
      <g>
        <rect class="cls-1" x="48.91" y="238.47" width="242.19" height="17.83"/>
        <path class="cls-3" d="M149.06,252.85l-5.78-8.73v8.73h-1.48v-10.71h1.98l5.35,8.21v-8.21h1.48v10.71h-1.54Z"/>
        <path class="cls-3" d="M159.49,250.78c-.1.32-.25.62-.45.9-.2.28-.43.52-.71.72-.28.21-.59.37-.94.49-.35.12-.74.18-1.16.18-.48,0-.95-.09-1.39-.26-.44-.17-.83-.42-1.17-.75-.34-.33-.6-.74-.8-1.22-.2-.48-.29-1.03-.29-1.65,0-.57.1-1.09.29-1.56.19-.47.45-.87.76-1.21.32-.34.69-.6,1.11-.79s.86-.28,1.31-.28c.55,0,1.05.09,1.49.28.44.19.8.45,1.09.78s.52.73.67,1.2c.16.47.23.98.23,1.55,0,.09,0,.18,0,.26,0,.08-.01.15-.02.2h-5.47c0,.32.07.62.18.89.11.27.26.51.46.7s.43.35.69.45.55.16.85.16c.59,0,1.05-.14,1.36-.42.31-.28.54-.63.68-1.04l1.22.42ZM158.06,248.47c-.02-.52-.2-.96-.53-1.32-.33-.36-.82-.54-1.46-.54-.3,0-.57.05-.81.16-.24.11-.44.25-.6.42-.17.18-.3.38-.4.6-.1.22-.16.45-.17.68h3.97Z"/>
        <path class="cls-3" d="M163.25,245.59h1.57v1.28h-1.57v3.78c0,.33.08.58.23.75s.41.25.79.25c.09,0,.19,0,.3-.01.11-.01.2-.03.26-.05v1.21c-.06.02-.18.05-.35.08-.17.04-.38.05-.62.05-.62,0-1.12-.18-1.48-.54-.36-.36-.54-.87-.54-1.53v-3.99h-1.39v-1.28h.39c.39,0,.68-.11.85-.32.18-.21.26-.48.26-.8v-1.18h1.3v2.29Z"/>
        <path class="cls-3" d="M172.27,245.59l1.89,5.47,1.6-5.47h1.49l-2.36,7.26h-1.46l-1.93-5.53-1.89,5.53h-1.5l-2.39-7.26h1.56l1.63,5.47,1.89-5.47h1.46Z"/>
        <path class="cls-3" d="M181.79,245.36c.54,0,1.04.1,1.5.29s.85.47,1.18.81c.33.34.59.75.77,1.21.18.47.27.98.27,1.53s-.09,1.07-.27,1.54c-.18.47-.44.88-.77,1.22-.33.34-.72.61-1.18.81s-.95.29-1.5.29-1.04-.1-1.5-.29c-.45-.2-.84-.46-1.18-.81-.33-.34-.59-.75-.77-1.22-.18-.47-.27-.99-.27-1.54s.09-1.06.27-1.53c.18-.47.44-.87.77-1.21.33-.34.73-.61,1.18-.81.45-.2.95-.29,1.5-.29ZM181.79,251.81c.3,0,.59-.05.86-.17.27-.11.51-.28.73-.5.21-.22.38-.49.5-.82s.18-.69.18-1.12-.06-.79-.18-1.11c-.12-.32-.29-.59-.5-.81-.21-.22-.45-.39-.73-.5-.27-.11-.56-.17-.86-.17s-.59.05-.86.17c-.27.11-.51.28-.72.5-.21.22-.38.49-.5.81-.12.32-.18.69-.18,1.11s.06.79.18,1.12c.12.32.29.59.5.82.21.22.45.39.72.5.27.11.56.17.86.17Z"/>
        <path class="cls-3" d="M191.35,247.02c-.21-.03-.42-.05-.62-.05-.59,0-1.07.17-1.44.52-.37.35-.55.92-.55,1.71v3.64h-1.42v-7.26h1.39v1.27c.13-.28.29-.51.46-.69.18-.18.36-.32.55-.42s.39-.18.59-.22c.2-.04.39-.06.57-.06.1,0,.19,0,.28.02.08,0,.15.02.19.03v1.51Z"/>
        <path class="cls-3" d="M196.27,248.65l3.16,4.2h-1.78l-2.37-3.2-1.01,1.01v2.19h-1.4v-10.93h1.4v6.88l3.14-3.22h1.96l-3.1,3.07Z"/>
      </g>
    </g>
    <g>
      <rect class="cls-2" x="48.65" y="274.46" width="242.48" height="38.29"/>
      <g>
        <rect class="cls-1" x="49.17" y="286.27" width="241.93" height="17.83"/>
        <path class="cls-3" d="M139.34,300.65v-10.71h3.74c.67,0,1.32.12,1.94.35s1.16.57,1.62,1.03c.46.45.83,1.01,1.11,1.68.28.67.42,1.44.42,2.32s-.14,1.65-.42,2.31c-.28.66-.65,1.22-1.12,1.67-.47.45-1.02.79-1.64,1.01s-1.27.34-1.94.34h-3.71ZM143.01,299.34c.49,0,.96-.08,1.4-.25.44-.17.83-.42,1.16-.75.33-.33.59-.75.79-1.25.19-.5.29-1.09.29-1.77s-.1-1.27-.29-1.77c-.19-.51-.45-.93-.78-1.27-.33-.34-.71-.59-1.15-.76-.44-.17-.9-.26-1.4-.26h-2.22v8.08h2.19Z"/>
        <path class="cls-3" d="M149.61,298.7c0-.32.06-.61.17-.87s.26-.48.46-.66c.2-.18.43-.33.7-.44.27-.11.56-.19.88-.24l1.96-.29c.22-.03.37-.1.45-.2.08-.1.11-.22.11-.35,0-.35-.12-.66-.37-.91-.25-.26-.65-.38-1.2-.38-.5,0-.89.14-1.16.42-.27.28-.43.63-.48,1.05l-1.36-.32c.04-.34.14-.66.31-.95s.38-.54.64-.75c.26-.21.57-.37.91-.48.35-.12.72-.17,1.11-.17.54,0,1.01.07,1.39.22.38.15.69.34.94.58.24.24.42.52.53.85.11.32.17.66.17,1.01v3.64c0,.32,0,.58.03.77s.04.33.06.42h-1.39c-.02-.09-.04-.21-.05-.36-.01-.15-.02-.36-.02-.62-.08.13-.19.27-.32.41-.13.14-.29.27-.48.39-.19.12-.42.22-.67.29-.26.08-.55.11-.87.11-.37,0-.71-.06-1-.18-.3-.12-.55-.28-.76-.48-.21-.2-.38-.42-.49-.69-.12-.26-.17-.54-.17-.83ZM152.24,299.68c.29,0,.57-.04.82-.11.26-.08.48-.2.66-.36.19-.17.33-.39.45-.66.11-.28.17-.61.17-1v-.33l-2.22.33c-.3.05-.55.16-.75.34-.2.18-.3.42-.3.75,0,.27.11.52.32.73.21.22.5.32.86.32Z"/>
        <path class="cls-3" d="M159.86,293.39h1.57v1.28h-1.57v3.78c0,.33.08.58.23.75s.41.25.79.25c.09,0,.19,0,.3-.01.11-.01.2-.03.26-.05v1.21c-.06.02-.18.05-.35.08-.17.04-.38.05-.62.05-.62,0-1.12-.18-1.48-.54-.36-.36-.54-.87-.54-1.53v-3.99h-1.39v-1.28h.39c.39,0,.68-.11.85-.32.18-.21.26-.48.26-.8v-1.18h1.3v2.29Z"/>
        <path class="cls-3" d="M162.87,298.7c0-.32.06-.61.17-.87s.26-.48.46-.66c.2-.18.43-.33.7-.44.27-.11.56-.19.88-.24l1.96-.29c.22-.03.37-.1.45-.2.08-.1.11-.22.11-.35,0-.35-.12-.66-.37-.91-.25-.26-.65-.38-1.2-.38-.5,0-.89.14-1.16.42-.27.28-.43.63-.48,1.05l-1.36-.32c.04-.34.14-.66.31-.95s.38-.54.64-.75c.26-.21.57-.37.91-.48.35-.12.72-.17,1.11-.17.54,0,1.01.07,1.39.22.38.15.69.34.94.58.24.24.42.52.53.85.11.32.17.66.17,1.01v3.64c0,.32,0,.58.03.77s.04.33.06.42h-1.39c-.02-.09-.04-.21-.05-.36-.01-.15-.02-.36-.02-.62-.08.13-.19.27-.32.41-.13.14-.29.27-.48.39-.19.12-.42.22-.67.29-.26.08-.55.11-.87.11-.37,0-.71-.06-1-.18-.3-.12-.55-.28-.76-.48-.21-.2-.38-.42-.49-.69-.12-.26-.17-.54-.17-.83ZM165.5,299.68c.29,0,.57-.04.82-.11.26-.08.48-.2.66-.36.19-.17.33-.39.45-.66.11-.28.17-.61.17-1v-.33l-2.22.33c-.3.05-.55.16-.75.34-.2.18-.3.42-.3.75,0,.27.11.52.32.73.21.22.5.32.86.32Z"/>
        <path class="cls-3" d="M175.15,300.65v-10.71h1.48v9.32h5.06v1.39h-6.54Z"/>
        <path class="cls-3" d="M182.95,290.64c0-.29.1-.54.29-.73s.44-.29.72-.29.54.1.73.29.29.44.29.73-.1.52-.29.72-.44.29-.73.29-.52-.1-.72-.29-.29-.44-.29-.72ZM183.27,300.65v-7.26h1.4v7.26h-1.4Z"/>
        <path class="cls-3" d="M188.51,300.65h-1.42v-7.26h1.39v1.04c.26-.45.59-.78,1-.97s.82-.29,1.24-.29.81.07,1.14.22c.33.15.6.35.82.6s.38.56.48.91c.11.35.16.73.16,1.13v4.61h-1.42v-4.36c0-.25-.03-.49-.08-.71-.06-.22-.15-.42-.29-.58-.14-.17-.31-.3-.53-.39-.22-.09-.48-.14-.79-.14-.28,0-.53.05-.74.16-.21.11-.39.25-.53.43-.14.18-.25.39-.32.63-.07.24-.11.5-.11.77v4.2Z"/>
        <path class="cls-3" d="M198.99,296.45l3.16,4.2h-1.78l-2.37-3.2-1.01,1.01v2.19h-1.4v-10.93h1.4v6.88l3.14-3.22h1.96l-3.1,3.07Z"/>
      </g>
    </g>
  </g>
</svg>