<?xml version="1.0" encoding="UTF-8"?>
<svg id="Layer_1" data-name="Layer 1" xmlns="http://www.w3.org/2000/svg" viewBox="0 0 342 323.59">
  <defs>
    <style>
      .cls-1 {
        fill: #646569;
      }

      .cls-1, .cls-2 {
        fill-rule: evenodd;
      }

      .cls-3, .cls-4 {
        fill: #fff;
      }

      .cls-5 {
        fill: #383838;
      }

      .cls-4 {
        stroke: #000;
      }

      .cls-4, .cls-6, .cls-7 {
        stroke-miterlimit: 10;
      }

      .cls-8 {
        fill: #222;
      }

      .cls-9 {
        fill: #ffcb0f;
      }

      .cls-6 {
        stroke: #222;
        stroke-width: .99px;
      }

      .cls-6, .cls-7 {
        fill: none;
      }

      .cls-7 {
        stroke: #646569;
        stroke-dasharray: 1 3 1 3 1 3;
      }

      .cls-10 {
        fill: #0082fc;
      }
    </style>
  </defs>
  <g>
    <path d="M91.68,297.82c-.51,0-.99-.09-1.46-.27s-.88-.44-1.23-.79c-.36-.34-.64-.77-.86-1.28-.22-.51-.32-1.09-.32-1.74s.11-1.23.33-1.73.51-.93.87-1.27c.36-.34.78-.61,1.24-.79s.94-.27,1.42-.27c.45,0,.86.06,1.23.18s.71.28,1,.5c.29.21.54.47.74.78.2.31.35.65.46,1.02l-1,.35c-.15-.59-.43-1.05-.84-1.36-.41-.32-.94-.47-1.59-.47-.35,0-.7.06-1.03.19-.33.13-.63.32-.89.58-.26.26-.47.58-.62.96-.15.39-.23.83-.23,1.34s.08.95.23,1.34c.15.38.36.71.62.97.26.26.56.46.89.58.33.13.68.19,1.03.19.33,0,.63-.05.9-.14.27-.1.51-.23.72-.39s.38-.36.53-.59c.14-.23.25-.48.33-.74l.96.35c-.1.37-.26.7-.46,1.01-.21.31-.45.57-.74.79s-.62.39-1,.52c-.38.12-.79.19-1.24.19Z"/>
    <path d="M101.03,296.15c-.07.23-.18.45-.33.65-.14.2-.32.38-.52.53-.2.15-.43.27-.69.36-.26.09-.54.13-.85.13-.35,0-.69-.06-1.01-.19-.32-.12-.61-.31-.85-.55-.25-.24-.44-.54-.58-.89-.14-.35-.21-.75-.21-1.2,0-.42.07-.8.21-1.14.14-.34.32-.63.56-.88.23-.25.5-.44.81-.57.31-.14.63-.2.96-.2.4,0,.76.07,1.08.2s.58.32.8.57c.21.24.38.53.49.88.11.34.17.72.17,1.13,0,.07,0,.13,0,.19s0,.11-.02.14h-3.98c0,.24.05.45.13.65.08.2.19.37.33.51.14.14.31.25.51.33.19.08.4.12.62.12.43,0,.76-.1.99-.31.23-.21.39-.46.5-.76l.89.31ZM99.99,294.46c-.01-.38-.14-.7-.39-.96-.24-.26-.6-.39-1.07-.39-.22,0-.42.04-.59.12-.17.08-.32.18-.44.31-.12.13-.22.27-.29.43-.07.16-.11.33-.12.5h2.89Z"/>
    <path d="M103.4,297.65h-1.03v-5.29h1.01v.76c.19-.33.43-.56.73-.7.29-.14.59-.21.9-.21s.59.05.83.16c.24.11.44.25.59.44.16.19.28.41.35.67.08.26.12.53.12.83v3.36h-1.03v-3.18c0-.18-.02-.36-.06-.52s-.11-.3-.21-.42-.23-.22-.38-.29c-.16-.07-.35-.1-.58-.1-.21,0-.39.04-.54.12-.15.08-.28.18-.39.31s-.18.29-.23.46c-.05.18-.08.36-.08.56v3.06Z"/>
    <path d="M109.91,292.36h1.14v.93h-1.14v2.75c0,.24.06.42.17.54.11.12.3.18.57.18.07,0,.14,0,.22-.01.08,0,.14-.02.19-.03v.88s-.13.03-.25.06c-.12.03-.28.04-.45.04-.46,0-.81-.13-1.08-.39-.26-.26-.4-.63-.4-1.12v-2.9h-1.01v-.93h.29c.29,0,.49-.08.62-.23.13-.15.19-.35.19-.58v-.86h.95v1.67Z"/>
    <path d="M115.39,293.41c-.15-.02-.3-.03-.45-.03-.43,0-.78.13-1.05.38s-.4.67-.4,1.25v2.65h-1.03v-5.29h1.01v.92c.1-.21.21-.37.34-.5s.26-.23.4-.31.28-.13.43-.16c.15-.03.29-.04.42-.04.07,0,.14,0,.2.01s.11.01.14.02v1.1Z"/>
    <path d="M116.16,296.23c0-.24.04-.45.12-.63.08-.19.19-.35.34-.48.14-.13.31-.24.51-.32.2-.08.41-.14.64-.18l1.43-.21c.16-.02.27-.07.32-.14.06-.07.08-.16.08-.25,0-.26-.09-.48-.27-.67-.18-.19-.47-.28-.88-.28-.37,0-.65.1-.85.3-.2.2-.32.46-.35.76l-.99-.23c.03-.25.1-.48.23-.69.12-.21.28-.39.47-.54.19-.15.41-.27.67-.35.25-.08.52-.13.81-.13.4,0,.73.05,1.01.16s.51.25.68.42c.18.18.3.38.38.62.08.23.12.48.12.74v2.65c0,.23,0,.42.02.56.01.14.03.24.04.31h-1.01c-.01-.07-.03-.15-.04-.26-.01-.11-.02-.26-.02-.45-.06.09-.14.19-.23.3s-.21.2-.35.29c-.14.09-.3.16-.49.21-.19.06-.4.08-.63.08-.27,0-.52-.04-.73-.13-.22-.09-.4-.2-.56-.35-.15-.14-.27-.31-.36-.5-.08-.19-.13-.39-.13-.6ZM118.07,296.95c.21,0,.41-.03.6-.08.19-.05.35-.14.48-.26s.24-.28.32-.48c.08-.2.12-.45.12-.73v-.24l-1.62.24c-.22.04-.4.12-.55.25s-.22.31-.22.54c0,.2.08.38.23.53.15.16.36.24.63.24Z"/>
    <path d="M122.22,297.65v-7.96h1.03v7.96h-1.03Z"/>
  </g>
  <g>
    <line class="cls-4" x1="161.52" y1="123.32" x2="320.35" y2="123.32"/>
    <polygon class="cls-2" points="162.34 125.76 157.45 123.32 162.33 120.88 162.34 125.76 162.34 125.76"/>
    <g>
      <g>
        <path d="M235.95,82.39c-.51,0-.99-.09-1.46-.27s-.88-.44-1.23-.79c-.36-.34-.64-.77-.86-1.28-.22-.51-.32-1.09-.32-1.74s.11-1.23.33-1.73.51-.93.87-1.27c.36-.34.78-.61,1.24-.79s.94-.27,1.42-.27c.45,0,.86.06,1.23.18s.71.28,1,.5c.29.21.54.47.74.78.2.31.35.65.46,1.02l-1,.35c-.15-.59-.43-1.05-.84-1.36-.41-.32-.94-.47-1.59-.47-.35,0-.7.06-1.03.19-.33.13-.63.32-.89.58-.26.26-.47.58-.62.96-.15.39-.23.83-.23,1.34s.08.95.23,1.34c.15.38.36.71.62.97.26.26.56.46.89.58.33.13.68.19,1.03.19.33,0,.63-.05.9-.14.27-.1.51-.23.72-.39s.38-.36.53-.59c.14-.23.25-.48.33-.74l.96.35c-.1.37-.26.7-.46,1.01-.21.31-.45.57-.74.79s-.62.39-1,.52c-.38.12-.79.19-1.24.19Z"/>
        <path d="M242.96,76.77c.4,0,.76.07,1.09.21.33.14.62.34.86.59s.43.54.56.89.2.71.2,1.12-.07.78-.2,1.12-.32.64-.56.89c-.24.25-.53.45-.86.59s-.69.21-1.09.21-.76-.07-1.09-.21-.62-.34-.86-.59c-.24-.25-.43-.55-.56-.89s-.2-.72-.2-1.12.07-.78.2-1.12.32-.64.56-.89.53-.45.86-.59c.33-.14.69-.21,1.09-.21ZM242.96,81.47c.22,0,.43-.04.63-.12.2-.08.37-.2.53-.36.15-.16.28-.36.36-.59.09-.24.13-.51.13-.81s-.04-.58-.13-.81c-.09-.23-.21-.43-.36-.59-.15-.16-.33-.28-.53-.36-.2-.08-.41-.12-.63-.12s-.43.04-.63.12c-.2.08-.37.2-.53.36-.15.16-.28.36-.36.59-.09.23-.13.5-.13.81s.04.58.13.81c.09.23.21.43.36.59.15.16.33.28.53.36.2.08.41.12.63.12Z"/>
        <path d="M248,82.22h-1.03v-5.29h1.01v.76c.19-.33.43-.56.73-.7.29-.14.59-.21.9-.21s.59.05.83.16c.24.11.44.25.59.44.16.19.28.41.35.67.08.26.12.53.12.83v3.36h-1.03v-3.18c0-.18-.02-.36-.06-.52s-.11-.3-.21-.42-.23-.22-.38-.29c-.16-.07-.35-.1-.58-.1-.21,0-.39.04-.54.12-.15.08-.28.18-.39.31s-.18.29-.23.46c-.05.18-.08.36-.08.56v3.06Z"/>
        <path d="M254.16,82.22h-1.03v-5.29h1.01v.76c.19-.33.43-.56.73-.7.29-.14.59-.21.9-.21s.59.05.83.16c.24.11.44.25.59.44.16.19.28.41.35.67.08.26.12.53.12.83v3.36h-1.03v-3.18c0-.18-.02-.36-.06-.52s-.11-.3-.21-.42-.23-.22-.38-.29c-.16-.07-.35-.1-.58-.1-.21,0-.39.04-.54.12-.15.08-.28.18-.39.31s-.18.29-.23.46c-.05.18-.08.36-.08.56v3.06Z"/>
        <path d="M263.89,80.72c-.07.23-.18.45-.33.65-.14.2-.32.38-.52.53-.2.15-.43.27-.69.36-.26.09-.54.13-.85.13-.35,0-.69-.06-1.01-.19-.32-.12-.61-.31-.85-.55-.25-.24-.44-.54-.58-.89-.14-.35-.21-.75-.21-1.2,0-.42.07-.8.21-1.14.14-.34.32-.63.56-.88.23-.25.5-.44.81-.57.31-.14.63-.2.96-.2.4,0,.76.07,1.08.2s.58.32.8.57c.21.24.38.53.49.88.11.34.17.72.17,1.13,0,.07,0,.13,0,.19s0,.11-.02.14h-3.98c0,.24.05.45.13.65.08.2.19.37.33.51.14.14.31.25.51.33.19.08.4.12.62.12.43,0,.76-.1.99-.31.23-.21.39-.46.5-.76l.89.31ZM262.85,79.03c-.01-.38-.14-.7-.39-.96-.24-.26-.6-.39-1.07-.39-.22,0-.42.04-.59.12-.17.08-.32.18-.44.31-.12.13-.22.27-.29.43-.07.16-.11.33-.12.5h2.89Z"/>
        <path d="M267.44,77.73c-.21,0-.41.04-.6.12s-.36.19-.51.35-.27.35-.36.58c-.09.23-.13.5-.13.81s.04.57.13.8c.09.23.21.42.35.58.15.16.32.28.52.36s.4.12.62.12c.25,0,.46-.04.63-.11.17-.07.32-.17.43-.27.11-.11.2-.23.27-.36.07-.13.11-.24.14-.35l.91.4c-.07.19-.16.38-.29.58-.12.2-.29.37-.48.53-.2.16-.43.29-.7.39-.27.1-.57.15-.92.15-.39,0-.75-.07-1.07-.21-.33-.14-.61-.34-.84-.59-.24-.25-.42-.55-.56-.89-.14-.34-.2-.71-.2-1.12s.07-.79.2-1.13.32-.64.56-.89c.24-.25.52-.44.85-.58s.68-.21,1.05-.21c.35,0,.66.05.93.15.27.1.5.23.69.39s.35.34.47.54c.12.2.21.4.26.6l-.93.4c-.04-.13-.09-.26-.15-.4-.07-.13-.16-.25-.27-.36-.11-.11-.25-.19-.41-.26-.16-.07-.36-.1-.58-.1Z"/>
        <path d="M272.44,76.93h1.14v.93h-1.14v2.75c0,.24.06.42.17.54.11.12.3.18.57.18.07,0,.14,0,.22-.01.08,0,.14-.02.19-.03v.88s-.13.03-.25.06c-.12.03-.28.04-.45.04-.46,0-.81-.13-1.08-.39-.26-.26-.4-.63-.4-1.12v-2.9h-1.01v-.93h.29c.29,0,.49-.08.62-.23.13-.15.19-.35.19-.58v-.86h.95v1.67Z"/>
        <path d="M279.59,80.72c-.07.23-.18.45-.33.65-.14.2-.32.38-.52.53-.2.15-.43.27-.69.36-.26.09-.54.13-.85.13-.35,0-.69-.06-1.01-.19-.32-.12-.61-.31-.85-.55-.25-.24-.44-.54-.58-.89-.14-.35-.21-.75-.21-1.2,0-.42.07-.8.21-1.14.14-.34.32-.63.56-.88.23-.25.5-.44.81-.57.31-.14.63-.2.96-.2.4,0,.76.07,1.08.2s.58.32.8.57c.21.24.38.53.49.88.11.34.17.72.17,1.13,0,.07,0,.13,0,.19s0,.11-.02.14h-3.98c0,.24.05.45.13.65.08.2.19.37.33.51.14.14.31.25.51.33.19.08.4.12.62.12.43,0,.76-.1.99-.31.23-.21.39-.46.5-.76l.89.31ZM278.54,79.03c-.01-.38-.14-.7-.39-.96-.24-.26-.6-.39-1.07-.39-.22,0-.42.04-.59.12-.17.08-.32.18-.44.31-.12.13-.22.27-.29.43-.07.16-.11.33-.12.5h2.89Z"/>
        <path d="M284.63,81.42c-.12.26-.32.48-.6.67-.27.19-.62.28-1.04.28-.39,0-.74-.07-1.04-.21-.31-.14-.57-.34-.79-.59-.22-.25-.38-.55-.5-.89s-.18-.71-.18-1.11c0-.37.06-.73.18-1.06.12-.33.29-.63.51-.88s.48-.46.79-.61c.31-.15.65-.23,1.02-.23.23,0,.44.03.62.08.18.05.34.12.47.2.13.08.24.18.33.29.09.11.15.21.2.33v-3.42h1.02v6.98c0,.26,0,.47.02.65s.03.29.03.33h-1c-.01-.06-.03-.15-.04-.28-.01-.13-.02-.27-.02-.43v-.09ZM281.54,79.56c0,.27.03.52.1.75.07.23.17.43.3.6.13.17.29.3.48.4s.41.14.66.14c.23,0,.45-.05.64-.15.19-.1.35-.23.48-.4s.23-.37.3-.6c.07-.24.1-.49.1-.76,0-.55-.13-.99-.4-1.33-.27-.34-.64-.51-1.12-.51-.23,0-.45.05-.64.14s-.36.22-.49.38c-.14.17-.24.36-.31.59-.07.23-.11.48-.11.75Z"/>
      </g>
      <g>
        <g>
          <path d="M232.58,97.85v-7.8h1.1v7.8h-1.1Z"/>
          <path d="M236.01,96.15c.04.28.16.51.36.7.21.19.5.29.87.29.29,0,.52-.07.67-.21.15-.14.23-.3.23-.5,0-.17-.06-.31-.18-.43-.12-.12-.29-.2-.51-.25l-.9-.2c-.42-.09-.74-.26-.97-.53s-.35-.58-.35-.96c0-.23.05-.44.15-.64.1-.2.23-.38.4-.53.17-.15.37-.28.6-.36.23-.09.47-.13.73-.13.36,0,.66.05.91.15.25.1.45.23.6.38.15.15.27.31.35.47s.13.3.16.42l-.91.34c-.01-.07-.04-.15-.08-.25-.04-.1-.1-.2-.18-.29-.08-.09-.19-.17-.33-.24-.14-.07-.31-.1-.52-.1-.26,0-.48.07-.64.21-.16.14-.24.31-.24.49,0,.34.2.55.61.64l.86.19c.48.1.85.29,1.09.57.25.27.37.61.37,1.01,0,.19-.04.38-.12.57-.08.19-.2.37-.36.53-.16.16-.36.29-.6.39-.24.1-.53.15-.86.15-.37,0-.68-.05-.94-.15-.26-.1-.48-.23-.65-.38-.17-.15-.3-.32-.4-.5s-.15-.35-.17-.5l.94-.33Z"/>
          <path d="M242.81,92.4c.4,0,.76.07,1.09.21.33.14.62.34.86.59s.43.54.56.89.2.71.2,1.12-.07.78-.2,1.12-.32.64-.56.89c-.24.25-.53.45-.86.59s-.69.21-1.09.21-.76-.07-1.09-.21-.62-.34-.86-.59c-.24-.25-.43-.55-.56-.89s-.2-.72-.2-1.12.07-.78.2-1.12.32-.64.56-.89.53-.45.86-.59c.33-.14.69-.21,1.09-.21ZM242.81,97.09c.22,0,.43-.04.63-.12.2-.08.37-.2.53-.36.15-.16.28-.36.36-.59.09-.24.13-.51.13-.81s-.04-.58-.13-.81c-.09-.23-.21-.43-.36-.59-.15-.16-.33-.28-.53-.36-.2-.08-.41-.12-.63-.12s-.43.04-.63.12c-.2.08-.37.2-.53.36-.15.16-.28.36-.36.59-.09.23-.13.5-.13.81s.04.58.13.81c.09.23.21.43.36.59.15.16.33.28.53.36.2.08.41.12.63.12Z"/>
          <path d="M249.03,93.35c-.21,0-.41.04-.6.12s-.36.19-.51.35-.27.35-.36.58c-.09.23-.13.5-.13.81s.04.57.13.8c.09.23.21.42.35.58.15.16.32.28.52.36s.4.12.62.12c.25,0,.46-.04.63-.11.17-.07.32-.17.43-.27.11-.11.2-.23.27-.36.07-.13.11-.24.14-.35l.91.4c-.07.19-.16.38-.29.58-.12.2-.29.37-.48.53-.2.16-.43.29-.7.39-.27.1-.57.15-.92.15-.39,0-.75-.07-1.07-.21-.33-.14-.61-.34-.84-.59-.24-.25-.42-.55-.56-.89-.14-.34-.2-.71-.2-1.12s.07-.79.2-1.13.32-.64.56-.89c.24-.25.52-.44.85-.58s.68-.21,1.05-.21c.35,0,.66.05.93.15.27.1.5.23.69.39s.35.34.47.54c.12.2.21.4.26.6l-.93.4c-.04-.13-.09-.26-.15-.4-.07-.13-.16-.25-.27-.36-.11-.11-.25-.19-.41-.26-.16-.07-.36-.1-.58-.1Z"/>
          <path d="M253.67,97.85h-1.03v-7.96h1.03v3.29c.19-.28.43-.48.71-.59.29-.12.58-.18.89-.18s.59.05.83.16c.24.11.44.25.59.44.16.19.28.41.35.67.08.26.12.53.12.83v3.36h-1.03v-3.18c0-.18-.02-.36-.06-.52s-.11-.3-.21-.42-.23-.22-.38-.29c-.16-.07-.35-.1-.58-.1-.2,0-.37.04-.52.11s-.28.17-.38.3c-.1.12-.18.27-.24.44-.06.17-.09.35-.09.55v3.11Z"/>
          <path d="M261.74,93.61c-.15-.02-.3-.03-.45-.03-.43,0-.78.13-1.05.38s-.4.67-.4,1.25v2.65h-1.03v-5.29h1.01v.92c.1-.21.21-.37.34-.5s.26-.23.4-.31.28-.13.43-.16c.15-.03.29-.04.42-.04.07,0,.14,0,.2.01s.11.01.14.02v1.1Z"/>
          <path d="M265.1,92.4c.4,0,.76.07,1.09.21.33.14.62.34.86.59s.43.54.56.89.2.71.2,1.12-.07.78-.2,1.12-.32.64-.56.89c-.24.25-.53.45-.86.59s-.69.21-1.09.21-.76-.07-1.09-.21-.62-.34-.86-.59c-.24-.25-.43-.55-.56-.89s-.2-.72-.2-1.12.07-.78.2-1.12.32-.64.56-.89.53-.45.86-.59c.33-.14.69-.21,1.09-.21ZM265.1,97.09c.22,0,.43-.04.63-.12.2-.08.37-.2.53-.36.15-.16.28-.36.36-.59.09-.24.13-.51.13-.81s-.04-.58-.13-.81c-.09-.23-.21-.43-.36-.59-.15-.16-.33-.28-.53-.36-.2-.08-.41-.12-.63-.12s-.43.04-.63.12c-.2.08-.37.2-.53.36-.15.16-.28.36-.36.59-.09.23-.13.5-.13.81s.04.58.13.81c.09.23.21.43.36.59.15.16.33.28.53.36.2.08.41.12.63.12Z"/>
          <path d="M270.14,97.85h-1.03v-5.29h1.01v.76c.19-.33.43-.56.73-.7.29-.14.59-.21.9-.21s.59.05.83.16c.24.11.44.25.59.44.16.19.28.41.35.67.08.26.12.53.12.83v3.36h-1.03v-3.18c0-.18-.02-.36-.06-.52s-.11-.3-.21-.42-.23-.22-.38-.29c-.16-.07-.35-.1-.58-.1-.21,0-.39.04-.54.12-.15.08-.28.18-.39.31s-.18.29-.23.46c-.05.18-.08.36-.08.56v3.06Z"/>
          <path d="M277.53,92.4c.4,0,.76.07,1.09.21.33.14.62.34.86.59s.43.54.56.89.2.71.2,1.12-.07.78-.2,1.12-.32.64-.56.89c-.24.25-.53.45-.86.59s-.69.21-1.09.21-.76-.07-1.09-.21-.62-.34-.86-.59c-.24-.25-.43-.55-.56-.89s-.2-.72-.2-1.12.07-.78.2-1.12.32-.64.56-.89.53-.45.86-.59c.33-.14.69-.21,1.09-.21ZM277.53,97.09c.22,0,.43-.04.63-.12.2-.08.37-.2.53-.36.15-.16.28-.36.36-.59.09-.24.13-.51.13-.81s-.04-.58-.13-.81c-.09-.23-.21-.43-.36-.59-.15-.16-.33-.28-.53-.36-.2-.08-.41-.12-.63-.12s-.43.04-.63.12c-.2.08-.37.2-.53.36-.15.16-.28.36-.36.59-.09.23-.13.5-.13.81s.04.58.13.81c.09.23.21.43.36.59.15.16.33.28.53.36.2.08.41.12.63.12Z"/>
          <path d="M285.02,97.21c-.15.28-.37.48-.66.61-.29.13-.59.19-.9.19s-.58-.06-.83-.17c-.25-.11-.45-.26-.62-.45-.17-.19-.3-.41-.39-.67-.09-.26-.14-.54-.14-.84v-3.33h1.03v3.18c0,.18.02.36.07.52s.11.31.21.43c.1.12.22.22.37.3.15.07.33.11.55.11.42,0,.73-.12.94-.37s.31-.58.31-.98v-3.19h1.03v4.31c0,.21,0,.41.02.58.01.17.02.31.04.4h-.99c-.01-.06-.03-.15-.03-.28,0-.13-.01-.25-.01-.36Z"/>
          <path d="M288.18,96.15c.04.28.16.51.36.7.21.19.5.29.87.29.29,0,.52-.07.67-.21.15-.14.23-.3.23-.5,0-.17-.06-.31-.18-.43-.12-.12-.29-.2-.51-.25l-.9-.2c-.42-.09-.74-.26-.97-.53s-.35-.58-.35-.96c0-.23.05-.44.15-.64.1-.2.23-.38.4-.53.17-.15.37-.28.6-.36.23-.09.47-.13.73-.13.36,0,.66.05.91.15.25.1.45.23.6.38.15.15.27.31.35.47s.13.3.16.42l-.91.34c-.01-.07-.04-.15-.08-.25-.04-.1-.1-.2-.18-.29-.08-.09-.19-.17-.33-.24-.14-.07-.31-.1-.52-.1-.26,0-.48.07-.64.21-.16.14-.24.31-.24.49,0,.34.2.55.61.64l.86.19c.48.1.85.29,1.09.57.25.27.37.61.37,1.01,0,.19-.04.38-.12.57-.08.19-.2.37-.36.53-.16.16-.36.29-.6.39-.24.1-.53.15-.86.15-.37,0-.68-.05-.94-.15-.26-.1-.48-.23-.65-.38-.17-.15-.3-.32-.4-.5s-.15-.35-.17-.5l.94-.33Z"/>
        </g>
        <g>
          <g>
            <path d="M236.58,107.8c-.02-.14-.07-.29-.14-.45-.07-.16-.18-.3-.31-.43s-.3-.24-.5-.32-.43-.13-.7-.13c-.22,0-.42.03-.6.1-.18.07-.34.16-.48.27-.14.12-.24.25-.31.41-.07.16-.11.33-.11.51,0,.28.08.52.25.72.17.2.42.34.75.41l1.17.25c.65.15,1.15.41,1.5.79.35.38.52.85.52,1.4,0,.3-.06.59-.19.87-.12.28-.3.52-.54.74s-.52.38-.85.51c-.33.13-.7.19-1.12.19-.47,0-.88-.07-1.23-.21-.35-.14-.64-.32-.88-.54-.24-.22-.42-.47-.56-.74-.13-.27-.22-.55-.25-.83l1.03-.33c.02.22.08.43.16.63.08.2.21.38.36.53.16.15.35.28.57.37.22.09.48.14.78.14.54,0,.94-.12,1.2-.36.27-.24.4-.54.4-.88,0-.28-.09-.53-.29-.75-.19-.22-.48-.38-.88-.46l-1.11-.24c-.56-.12-1.01-.37-1.37-.72s-.53-.83-.53-1.41c0-.31.07-.6.2-.88.13-.28.31-.52.54-.74.23-.21.5-.38.82-.51.32-.13.65-.19,1.01-.19.44,0,.82.06,1.13.18.31.12.57.28.78.47.21.19.37.4.49.63.12.23.2.45.24.66l-.97.34Z"/>
            <path d="M240.37,108.19h1.14v.93h-1.14v2.75c0,.24.06.42.17.54.11.12.3.18.57.18.07,0,.14,0,.22-.01.08,0,.14-.02.19-.03v.88s-.13.03-.25.06c-.12.03-.28.04-.45.04-.46,0-.81-.13-1.08-.39-.26-.26-.4-.63-.4-1.12v-2.9h-1.01v-.93h.29c.29,0,.49-.08.62-.23.13-.15.19-.35.19-.58v-.86h.95v1.67Z"/>
            <path d="M245.85,109.24c-.15-.02-.3-.03-.45-.03-.43,0-.78.13-1.05.38s-.4.67-.4,1.25v2.65h-1.03v-5.29h1.01v.92c.1-.21.21-.37.34-.5s.26-.23.4-.31.28-.13.43-.16c.15-.03.29-.04.42-.04.07,0,.14,0,.2.01s.11.01.14.02v1.1Z"/>
            <path d="M251.56,111.98c-.07.23-.18.45-.33.65-.14.2-.32.38-.52.53-.2.15-.43.27-.69.36-.26.09-.54.13-.85.13-.35,0-.69-.06-1.01-.19-.32-.12-.61-.31-.85-.55-.25-.24-.44-.54-.58-.89-.14-.35-.21-.75-.21-1.2,0-.42.07-.8.21-1.14.14-.34.32-.63.56-.88.23-.25.5-.44.81-.57.31-.14.63-.2.96-.2.4,0,.76.07,1.08.2s.58.32.8.57c.21.24.38.53.49.88.11.34.17.72.17,1.13,0,.07,0,.13,0,.19s0,.11-.02.14h-3.98c0,.24.05.45.13.65.08.2.19.37.33.51.14.14.31.25.51.33.19.08.4.12.62.12.43,0,.76-.1.99-.31.23-.21.39-.46.5-.76l.89.31ZM250.52,110.29c-.01-.38-.14-.7-.39-.96-.24-.26-.6-.39-1.07-.39-.22,0-.42.04-.59.12-.17.08-.32.18-.44.31-.12.13-.22.27-.29.43-.07.16-.11.33-.12.5h2.89Z"/>
            <path d="M252.56,112.06c0-.24.04-.45.12-.63.08-.19.19-.35.34-.48.14-.13.31-.24.51-.32.2-.08.41-.14.64-.18l1.43-.21c.16-.02.27-.07.32-.14.06-.07.08-.16.08-.25,0-.26-.09-.48-.27-.67-.18-.19-.47-.28-.88-.28-.37,0-.65.1-.85.3-.2.2-.32.46-.35.76l-.99-.23c.03-.25.1-.48.23-.69.12-.21.28-.39.47-.54.19-.15.41-.27.67-.35.25-.08.52-.13.81-.13.4,0,.73.05,1.01.16s.51.25.68.42c.18.18.3.38.38.62.08.23.12.48.12.74v2.65c0,.23,0,.42.02.56.01.14.03.24.04.31h-1.01c-.01-.07-.03-.15-.04-.26-.01-.11-.02-.26-.02-.45-.06.09-.14.19-.23.3s-.21.2-.35.29c-.14.09-.3.16-.49.21-.19.06-.4.08-.63.08-.27,0-.52-.04-.73-.13-.22-.09-.4-.2-.56-.35-.15-.14-.27-.31-.36-.5-.08-.19-.13-.39-.13-.6ZM254.48,112.78c.21,0,.41-.03.6-.08.19-.05.35-.14.48-.26s.24-.28.32-.48c.08-.2.12-.45.12-.73v-.24l-1.62.24c-.22.04-.4.12-.55.25s-.22.31-.22.54c0,.2.08.38.23.53.15.16.36.24.63.24Z"/>
            <path d="M258.62,113.48v-5.29h.99v.7c.17-.29.4-.51.7-.65.3-.14.6-.21.91-.21.33,0,.64.08.93.24s.51.41.65.76c.21-.38.48-.64.79-.79.32-.14.64-.21.98-.21.23,0,.45.04.67.12s.42.2.59.37c.17.17.31.37.41.63s.15.55.15.9v3.43h-1.02v-3.32c0-.34-.09-.63-.27-.86-.18-.23-.46-.35-.85-.35-.37,0-.66.13-.88.38-.22.25-.34.57-.34.95v3.2h-1.03v-3.32c0-.34-.09-.63-.26-.86-.18-.23-.46-.35-.86-.35-.37,0-.67.12-.9.37s-.33.57-.33.97v3.19h-1.02Z"/>
            <path d="M268.49,111.78c.04.28.16.51.36.7.21.19.5.29.87.29.29,0,.52-.07.67-.21.15-.14.23-.3.23-.5,0-.17-.06-.31-.18-.43-.12-.12-.29-.2-.51-.25l-.9-.2c-.42-.09-.74-.26-.97-.53s-.35-.58-.35-.96c0-.23.05-.44.15-.64.1-.2.23-.38.4-.53.17-.15.37-.28.6-.36.23-.09.47-.13.73-.13.36,0,.66.05.91.15.25.1.45.23.6.38.15.15.27.31.35.47s.13.3.16.42l-.91.34c-.01-.07-.04-.15-.08-.25-.04-.1-.1-.2-.18-.29-.08-.09-.19-.17-.33-.24-.14-.07-.31-.1-.52-.1-.26,0-.48.07-.64.21-.16.14-.24.31-.24.49,0,.34.2.55.61.64l.86.19c.48.1.85.29,1.09.57.25.27.37.61.37,1.01,0,.19-.04.38-.12.57-.08.19-.2.37-.36.53-.16.16-.36.29-.6.39-.24.1-.53.15-.86.15-.37,0-.68-.05-.94-.15-.26-.1-.48-.23-.65-.38-.17-.15-.3-.32-.4-.5s-.15-.35-.17-.5l.94-.33Z"/>
            <path d="M275.52,110c0-.6.05-1.16.16-1.67s.25-.98.44-1.41c.19-.43.41-.82.67-1.18s.53-.69.83-.99l.63.55c-.57.63-1.01,1.33-1.34,2.1-.33.77-.49,1.63-.49,2.6s.16,1.84.49,2.61c.33.77.77,1.47,1.34,2.09l-.63.55c-.29-.3-.57-.63-.83-.99s-.48-.75-.67-1.18c-.19-.43-.33-.9-.44-1.41s-.16-1.07-.16-1.67Z"/>
            <path d="M282.6,113.65c-.51,0-.99-.09-1.46-.27s-.88-.44-1.23-.79c-.36-.34-.64-.77-.86-1.28-.22-.51-.32-1.09-.32-1.74s.11-1.23.33-1.73.51-.93.87-1.27c.36-.34.78-.61,1.24-.79s.94-.27,1.42-.27c.45,0,.86.06,1.23.18s.71.28,1,.5c.29.21.54.47.74.78.2.31.35.65.46,1.02l-1,.35c-.15-.59-.43-1.05-.84-1.36-.41-.32-.94-.47-1.59-.47-.35,0-.7.06-1.03.19-.33.13-.63.32-.89.58-.26.26-.47.58-.62.96-.15.39-.23.83-.23,1.34s.08.95.23,1.34c.15.38.36.71.62.97.26.26.56.46.89.58.33.13.68.19,1.03.19.33,0,.63-.05.9-.14.27-.1.51-.23.72-.39s.38-.36.53-.59c.14-.23.25-.48.33-.74l.96.35c-.1.37-.26.7-.46,1.01-.21.31-.45.57-.74.79s-.62.39-1,.52c-.38.12-.79.19-1.24.19Z"/>
            <path d="M287.45,113.48v-7.8h1.1v7.8h-1.1Z"/>
            <path d="M294.56,107.8c-.02-.14-.07-.29-.14-.45-.07-.16-.18-.3-.31-.43s-.3-.24-.5-.32-.43-.13-.7-.13c-.22,0-.42.03-.6.1-.18.07-.34.16-.48.27-.14.12-.24.25-.31.41-.07.16-.11.33-.11.51,0,.28.08.52.25.72.17.2.42.34.75.41l1.17.25c.65.15,1.15.41,1.5.79.35.38.52.85.52,1.4,0,.3-.06.59-.19.87-.12.28-.3.52-.54.74s-.52.38-.85.51c-.33.13-.7.19-1.12.19-.47,0-.88-.07-1.23-.21-.35-.14-.64-.32-.88-.54-.24-.22-.42-.47-.56-.74-.13-.27-.22-.55-.25-.83l1.03-.33c.02.22.08.43.16.63.08.2.21.38.36.53.16.15.35.28.57.37.22.09.48.14.78.14.54,0,.94-.12,1.2-.36.27-.24.4-.54.4-.88,0-.28-.09-.53-.29-.75-.19-.22-.48-.38-.88-.46l-1.11-.24c-.56-.12-1.01-.37-1.37-.72s-.53-.83-.53-1.41c0-.31.07-.6.2-.88.13-.28.31-.52.54-.74.23-.21.5-.38.82-.51.32-.13.65-.19,1.01-.19.44,0,.82.06,1.13.18.31.12.57.28.78.47.21.19.37.4.49.63.12.23.2.45.24.66l-.97.34Z"/>
            <path d="M298.8,110c0,.6-.05,1.16-.16,1.67s-.25.98-.44,1.41c-.19.43-.41.82-.67,1.18s-.53.69-.83.99l-.63-.55c.56-.62,1-1.32,1.33-2.09.33-.77.5-1.64.5-2.61,0-.48-.04-.94-.13-1.38-.08-.43-.21-.84-.36-1.23-.16-.39-.35-.75-.58-1.1s-.48-.67-.76-.99l.63-.55c.29.3.57.63.83.99s.48.75.67,1.18c.19.43.33.9.44,1.41s.16,1.06.16,1.67Z"/>
          </g>
          <g>
            <line class="cls-7" x1="202.19" y1="263.67" x2="319.82" y2="263.67"/>
            <polygon class="cls-1" points="203.09 266.39 197.66 263.67 203.09 260.96 203.09 266.39 203.09 266.39"/>
            <g>
              <g>
                <path d="M235.95,221.47c-.51,0-.99-.09-1.46-.27s-.88-.44-1.23-.79c-.36-.34-.64-.77-.86-1.28-.22-.51-.32-1.09-.32-1.74s.11-1.23.33-1.73.51-.93.87-1.27c.36-.34.78-.61,1.24-.79s.94-.27,1.42-.27c.45,0,.86.06,1.23.18s.71.28,1,.5c.29.21.54.47.74.78.2.31.35.65.46,1.02l-1,.35c-.15-.59-.43-1.05-.84-1.36-.41-.32-.94-.47-1.59-.47-.35,0-.7.06-1.03.19-.33.13-.63.32-.89.58-.26.26-.47.58-.62.96-.15.39-.23.83-.23,1.34s.08.95.23,1.34c.15.38.36.71.62.97.26.26.56.46.89.58.33.13.68.19,1.03.19.33,0,.63-.05.9-.14.27-.1.51-.23.72-.39s.38-.36.53-.59c.14-.23.25-.48.33-.74l.96.35c-.1.37-.26.7-.46,1.01-.21.31-.45.57-.74.79s-.62.39-1,.52c-.38.12-.79.19-1.24.19Z"/>
                <path d="M242.96,215.85c.4,0,.76.07,1.09.21.33.14.62.34.86.59s.43.54.56.89.2.71.2,1.12-.07.78-.2,1.12-.32.64-.56.89c-.24.25-.53.45-.86.59s-.69.21-1.09.21-.76-.07-1.09-.21-.62-.34-.86-.59c-.24-.25-.43-.55-.56-.89s-.2-.72-.2-1.12.07-.78.2-1.12.32-.64.56-.89.53-.45.86-.59c.33-.14.69-.21,1.09-.21ZM242.96,220.55c.22,0,.43-.04.63-.12.2-.08.37-.2.53-.36.15-.16.28-.36.36-.59.09-.24.13-.51.13-.81s-.04-.58-.13-.81c-.09-.23-.21-.43-.36-.59-.15-.16-.33-.28-.53-.36-.2-.08-.41-.12-.63-.12s-.43.04-.63.12c-.2.08-.37.2-.53.36-.15.16-.28.36-.36.59-.09.23-.13.5-.13.81s.04.58.13.81c.09.23.21.43.36.59.15.16.33.28.53.36.2.08.41.12.63.12Z"/>
                <path d="M248,221.31h-1.03v-5.29h1.01v.76c.19-.33.43-.56.73-.7.29-.14.59-.21.9-.21s.59.05.83.16c.24.11.44.25.59.44.16.19.28.41.35.67.08.26.12.53.12.83v3.36h-1.03v-3.18c0-.18-.02-.36-.06-.52s-.11-.3-.21-.42-.23-.22-.38-.29c-.16-.07-.35-.1-.58-.1-.21,0-.39.04-.54.12-.15.08-.28.18-.39.31s-.18.29-.23.46c-.05.18-.08.36-.08.56v3.06Z"/>
                <path d="M254.16,221.31h-1.03v-5.29h1.01v.76c.19-.33.43-.56.73-.7.29-.14.59-.21.9-.21s.59.05.83.16c.24.11.44.25.59.44.16.19.28.41.35.67.08.26.12.53.12.83v3.36h-1.03v-3.18c0-.18-.02-.36-.06-.52s-.11-.3-.21-.42-.23-.22-.38-.29c-.16-.07-.35-.1-.58-.1-.21,0-.39.04-.54.12-.15.08-.28.18-.39.31s-.18.29-.23.46c-.05.18-.08.36-.08.56v3.06Z"/>
                <path d="M263.89,219.8c-.07.23-.18.45-.33.65-.14.2-.32.38-.52.53-.2.15-.43.27-.69.36-.26.09-.54.13-.85.13-.35,0-.69-.06-1.01-.19-.32-.12-.61-.31-.85-.55-.25-.24-.44-.54-.58-.89-.14-.35-.21-.75-.21-1.2,0-.42.07-.8.21-1.14.14-.34.32-.63.56-.88.23-.25.5-.44.81-.57.31-.14.63-.2.96-.2.4,0,.76.07,1.08.2s.58.32.8.57c.21.24.38.53.49.88.11.34.17.72.17,1.13,0,.07,0,.13,0,.19s0,.11-.02.14h-3.98c0,.24.05.45.13.65.08.2.19.37.33.51.14.14.31.25.51.33.19.08.4.12.62.12.43,0,.76-.1.99-.31.23-.21.39-.46.5-.76l.89.31ZM262.85,218.12c-.01-.38-.14-.7-.39-.96-.24-.26-.6-.39-1.07-.39-.22,0-.42.04-.59.12-.17.08-.32.18-.44.31-.12.13-.22.27-.29.43-.07.16-.11.33-.12.5h2.89Z"/>
                <path d="M267.44,216.81c-.21,0-.41.04-.6.12s-.36.19-.51.35-.27.35-.36.58c-.09.23-.13.5-.13.81s.04.57.13.8c.09.23.21.42.35.58.15.16.32.28.52.36s.4.12.62.12c.25,0,.46-.04.63-.11.17-.07.32-.17.43-.27.11-.11.2-.23.27-.36.07-.13.11-.24.14-.35l.91.4c-.07.19-.16.38-.29.58-.12.2-.29.37-.48.53-.2.16-.43.29-.7.39-.27.1-.57.15-.92.15-.39,0-.75-.07-1.07-.21-.33-.14-.61-.34-.84-.59-.24-.25-.42-.55-.56-.89-.14-.34-.2-.71-.2-1.12s.07-.79.2-1.13.32-.64.56-.89c.24-.25.52-.44.85-.58s.68-.21,1.05-.21c.35,0,.66.05.93.15.27.1.5.23.69.39s.35.34.47.54c.12.2.21.4.26.6l-.93.4c-.04-.13-.09-.26-.15-.4-.07-.13-.16-.25-.27-.36-.11-.11-.25-.19-.41-.26-.16-.07-.36-.1-.58-.1Z"/>
                <path d="M272.44,216.02h1.14v.93h-1.14v2.75c0,.24.06.42.17.54.11.12.3.18.57.18.07,0,.14,0,.22-.01.08,0,.14-.02.19-.03v.88s-.13.03-.25.06c-.12.03-.28.04-.45.04-.46,0-.81-.13-1.08-.39-.26-.26-.4-.63-.4-1.12v-2.9h-1.01v-.93h.29c.29,0,.49-.08.62-.23.13-.15.19-.35.19-.58v-.86h.95v1.67Z"/>
                <path d="M279.59,219.8c-.07.23-.18.45-.33.65-.14.2-.32.38-.52.53-.2.15-.43.27-.69.36-.26.09-.54.13-.85.13-.35,0-.69-.06-1.01-.19-.32-.12-.61-.31-.85-.55-.25-.24-.44-.54-.58-.89-.14-.35-.21-.75-.21-1.2,0-.42.07-.8.21-1.14.14-.34.32-.63.56-.88.23-.25.5-.44.81-.57.31-.14.63-.2.96-.2.4,0,.76.07,1.08.2s.58.32.8.57c.21.24.38.53.49.88.11.34.17.72.17,1.13,0,.07,0,.13,0,.19s0,.11-.02.14h-3.98c0,.24.05.45.13.65.08.2.19.37.33.51.14.14.31.25.51.33.19.08.4.12.62.12.43,0,.76-.1.99-.31.23-.21.39-.46.5-.76l.89.31ZM278.54,218.12c-.01-.38-.14-.7-.39-.96-.24-.26-.6-.39-1.07-.39-.22,0-.42.04-.59.12-.17.08-.32.18-.44.31-.12.13-.22.27-.29.43-.07.16-.11.33-.12.5h2.89Z"/>
                <path d="M284.63,220.51c-.12.26-.32.48-.6.67-.27.19-.62.28-1.04.28-.39,0-.74-.07-1.04-.21-.31-.14-.57-.34-.79-.59-.22-.25-.38-.55-.5-.89s-.18-.71-.18-1.11c0-.37.06-.73.18-1.06.12-.33.29-.63.51-.88s.48-.46.79-.61c.31-.15.65-.23,1.02-.23.23,0,.44.03.62.08.18.05.34.12.47.2.13.08.24.18.33.29.09.11.15.21.2.33v-3.42h1.02v6.98c0,.26,0,.47.02.65s.03.29.03.33h-1c-.01-.06-.03-.15-.04-.28-.01-.13-.02-.27-.02-.43v-.09ZM281.54,218.65c0,.27.03.52.1.75.07.23.17.43.3.6.13.17.29.3.48.4s.41.14.66.14c.23,0,.45-.05.64-.15.19-.1.35-.23.48-.4s.23-.37.3-.6c.07-.24.1-.49.1-.76,0-.55-.13-.99-.4-1.33-.27-.34-.64-.51-1.12-.51-.23,0-.45.05-.64.14s-.36.22-.49.38c-.14.17-.24.36-.31.59-.07.23-.11.48-.11.75Z"/>
              </g>
              <g>
                <g>
                  <path d="M232.58,236.94v-7.8h1.1v7.8h-1.1Z"/>
                  <path d="M236.01,235.24c.04.28.16.51.36.7.21.19.5.29.87.29.29,0,.52-.07.67-.21.15-.14.23-.3.23-.5,0-.17-.06-.31-.18-.43-.12-.12-.29-.2-.51-.25l-.9-.2c-.42-.09-.74-.26-.97-.53s-.35-.58-.35-.96c0-.23.05-.44.15-.64.1-.2.23-.38.4-.53.17-.15.37-.28.6-.36.23-.09.47-.13.73-.13.36,0,.66.05.91.15.25.1.45.23.6.38.15.15.27.31.35.47s.13.3.16.42l-.91.34c-.01-.07-.04-.15-.08-.25-.04-.1-.1-.2-.18-.29-.08-.09-.19-.17-.33-.24-.14-.07-.31-.1-.52-.1-.26,0-.48.07-.64.21-.16.14-.24.31-.24.49,0,.34.2.55.61.64l.86.19c.48.1.85.29,1.09.57.25.27.37.61.37,1.01,0,.19-.04.38-.12.57-.08.19-.2.37-.36.53-.16.16-.36.29-.6.39-.24.1-.53.15-.86.15-.37,0-.68-.05-.94-.15-.26-.1-.48-.23-.65-.38-.17-.15-.3-.32-.4-.5s-.15-.35-.17-.5l.94-.33Z"/>
                  <path d="M242.81,231.49c.4,0,.76.07,1.09.21.33.14.62.34.86.59s.43.54.56.89.2.71.2,1.12-.07.78-.2,1.12-.32.64-.56.89c-.24.25-.53.45-.86.59s-.69.21-1.09.21-.76-.07-1.09-.21-.62-.34-.86-.59c-.24-.25-.43-.55-.56-.89s-.2-.72-.2-1.12.07-.78.2-1.12.32-.64.56-.89.53-.45.86-.59c.33-.14.69-.21,1.09-.21ZM242.81,236.19c.22,0,.43-.04.63-.12.2-.08.37-.2.53-.36.15-.16.28-.36.36-.59.09-.24.13-.51.13-.81s-.04-.58-.13-.81c-.09-.23-.21-.43-.36-.59-.15-.16-.33-.28-.53-.36-.2-.08-.41-.12-.63-.12s-.43.04-.63.12c-.2.08-.37.2-.53.36-.15.16-.28.36-.36.59-.09.23-.13.5-.13.81s.04.58.13.81c.09.23.21.43.36.59.15.16.33.28.53.36.2.08.41.12.63.12Z"/>
                  <path d="M249.03,232.45c-.21,0-.41.04-.6.12s-.36.19-.51.35-.27.35-.36.58c-.09.23-.13.5-.13.81s.04.57.13.8c.09.23.21.42.35.58.15.16.32.28.52.36s.4.12.62.12c.25,0,.46-.04.63-.11.17-.07.32-.17.43-.27.11-.11.2-.23.27-.36.07-.13.11-.24.14-.35l.91.4c-.07.19-.16.38-.29.58-.12.2-.29.37-.48.53-.2.16-.43.29-.7.39-.27.1-.57.15-.92.15-.39,0-.75-.07-1.07-.21-.33-.14-.61-.34-.84-.59-.24-.25-.42-.55-.56-.89-.14-.34-.2-.71-.2-1.12s.07-.79.2-1.13.32-.64.56-.89c.24-.25.52-.44.85-.58s.68-.21,1.05-.21c.35,0,.66.05.93.15.27.1.5.23.69.39s.35.34.47.54c.12.2.21.4.26.6l-.93.4c-.04-.13-.09-.26-.15-.4-.07-.13-.16-.25-.27-.36-.11-.11-.25-.19-.41-.26-.16-.07-.36-.1-.58-.1Z"/>
                  <path d="M253.67,236.94h-1.03v-7.96h1.03v3.29c.19-.28.43-.48.71-.59.29-.12.58-.18.89-.18s.59.05.83.16c.24.11.44.25.59.44.16.19.28.41.35.67.08.26.12.53.12.83v3.36h-1.03v-3.18c0-.18-.02-.36-.06-.52s-.11-.3-.21-.42-.23-.22-.38-.29c-.16-.07-.35-.1-.58-.1-.2,0-.37.04-.52.11s-.28.17-.38.3c-.1.12-.18.27-.24.44-.06.17-.09.35-.09.55v3.11Z"/>
                  <path d="M261.74,232.7c-.15-.02-.3-.03-.45-.03-.43,0-.78.13-1.05.38s-.4.67-.4,1.25v2.65h-1.03v-5.29h1.01v.92c.1-.21.21-.37.34-.5s.26-.23.4-.31.28-.13.43-.16c.15-.03.29-.04.42-.04.07,0,.14,0,.2.01s.11.01.14.02v1.1Z"/>
                  <path d="M265.1,231.49c.4,0,.76.07,1.09.21.33.14.62.34.86.59s.43.54.56.89.2.71.2,1.12-.07.78-.2,1.12-.32.64-.56.89c-.24.25-.53.45-.86.59s-.69.21-1.09.21-.76-.07-1.09-.21-.62-.34-.86-.59c-.24-.25-.43-.55-.56-.89s-.2-.72-.2-1.12.07-.78.2-1.12.32-.64.56-.89.53-.45.86-.59c.33-.14.69-.21,1.09-.21ZM265.1,236.19c.22,0,.43-.04.63-.12.2-.08.37-.2.53-.36.15-.16.28-.36.36-.59.09-.24.13-.51.13-.81s-.04-.58-.13-.81c-.09-.23-.21-.43-.36-.59-.15-.16-.33-.28-.53-.36-.2-.08-.41-.12-.63-.12s-.43.04-.63.12c-.2.08-.37.2-.53.36-.15.16-.28.36-.36.59-.09.23-.13.5-.13.81s.04.58.13.81c.09.23.21.43.36.59.15.16.33.28.53.36.2.08.41.12.63.12Z"/>
                  <path d="M270.14,236.94h-1.03v-5.29h1.01v.76c.19-.33.43-.56.73-.7.29-.14.59-.21.9-.21s.59.05.83.16c.24.11.44.25.59.44.16.19.28.41.35.67.08.26.12.53.12.83v3.36h-1.03v-3.18c0-.18-.02-.36-.06-.52s-.11-.3-.21-.42-.23-.22-.38-.29c-.16-.07-.35-.1-.58-.1-.21,0-.39.04-.54.12-.15.08-.28.18-.39.31s-.18.29-.23.46c-.05.18-.08.36-.08.56v3.06Z"/>
                  <path d="M277.53,231.49c.4,0,.76.07,1.09.21.33.14.62.34.86.59s.43.54.56.89.2.71.2,1.12-.07.78-.2,1.12-.32.64-.56.89c-.24.25-.53.45-.86.59s-.69.21-1.09.21-.76-.07-1.09-.21-.62-.34-.86-.59c-.24-.25-.43-.55-.56-.89s-.2-.72-.2-1.12.07-.78.2-1.12.32-.64.56-.89.53-.45.86-.59c.33-.14.69-.21,1.09-.21ZM277.53,236.19c.22,0,.43-.04.63-.12.2-.08.37-.2.53-.36.15-.16.28-.36.36-.59.09-.24.13-.51.13-.81s-.04-.58-.13-.81c-.09-.23-.21-.43-.36-.59-.15-.16-.33-.28-.53-.36-.2-.08-.41-.12-.63-.12s-.43.04-.63.12c-.2.08-.37.2-.53.36-.15.16-.28.36-.36.59-.09.23-.13.5-.13.81s.04.58.13.81c.09.23.21.43.36.59.15.16.33.28.53.36.2.08.41.12.63.12Z"/>
                  <path d="M285.02,236.31c-.15.28-.37.48-.66.61-.29.13-.59.19-.9.19s-.58-.06-.83-.17c-.25-.11-.45-.26-.62-.45-.17-.19-.3-.41-.39-.67-.09-.26-.14-.54-.14-.84v-3.33h1.03v3.18c0,.18.02.36.07.52s.11.31.21.43c.1.12.22.22.37.3.15.07.33.11.55.11.42,0,.73-.12.94-.37s.31-.58.31-.98v-3.19h1.03v4.31c0,.21,0,.41.02.58.01.17.02.31.04.4h-.99c-.01-.06-.03-.15-.03-.28,0-.13-.01-.25-.01-.36Z"/>
                  <path d="M288.18,235.24c.04.28.16.51.36.7.21.19.5.29.87.29.29,0,.52-.07.67-.21.15-.14.23-.3.23-.5,0-.17-.06-.31-.18-.43-.12-.12-.29-.2-.51-.25l-.9-.2c-.42-.09-.74-.26-.97-.53s-.35-.58-.35-.96c0-.23.05-.44.15-.64.1-.2.23-.38.4-.53.17-.15.37-.28.6-.36.23-.09.47-.13.73-.13.36,0,.66.05.91.15.25.1.45.23.6.38.15.15.27.31.35.47s.13.3.16.42l-.91.34c-.01-.07-.04-.15-.08-.25-.04-.1-.1-.2-.18-.29-.08-.09-.19-.17-.33-.24-.14-.07-.31-.1-.52-.1-.26,0-.48.07-.64.21-.16.14-.24.31-.24.49,0,.34.2.55.61.64l.86.19c.48.1.85.29,1.09.57.25.27.37.61.37,1.01,0,.19-.04.38-.12.57-.08.19-.2.37-.36.53-.16.16-.36.29-.6.39-.24.1-.53.15-.86.15-.37,0-.68-.05-.94-.15-.26-.1-.48-.23-.65-.38-.17-.15-.3-.32-.4-.5s-.15-.35-.17-.5l.94-.33Z"/>
                </g>
                <g>
                  <g>
                    <path d="M238.46,252.58l-.1-1.1c-.09.15-.21.31-.35.46s-.32.29-.53.41c-.21.12-.45.22-.71.29s-.57.11-.9.11c-.49,0-.96-.09-1.42-.26-.46-.18-.86-.44-1.21-.78-.35-.34-.63-.77-.84-1.28s-.31-1.09-.31-1.75.11-1.24.33-1.75.51-.93.87-1.27c.36-.34.78-.6,1.24-.78.46-.18.94-.26,1.42-.26.42,0,.82.06,1.19.17.37.11.7.27,1,.48.3.21.55.45.77.74.22.29.38.61.49.96l-.98.42c-.18-.56-.48-1-.91-1.31s-.95-.47-1.56-.47c-.35,0-.69.06-1.02.19s-.62.32-.88.57-.46.58-.62.96c-.16.38-.24.83-.24,1.35s.08.97.23,1.36.35.71.61.96.54.45.87.58c.33.13.67.19,1.02.19.43,0,.8-.07,1.1-.2s.55-.31.74-.51c.19-.21.33-.43.42-.67.09-.24.14-.46.15-.66h-2.71v-.97h3.73v3.82h-.87Z"/>
                    <path d="M243.84,248.33c-.15-.02-.3-.03-.45-.03-.43,0-.78.13-1.05.38s-.4.67-.4,1.25v2.65h-1.03v-5.29h1.01v.92c.1-.21.21-.37.34-.5s.26-.23.4-.31.28-.13.43-.16c.15-.03.29-.04.42-.04.07,0,.14,0,.2.01s.11.01.14.02v1.1Z"/>
                    <path d="M247.21,247.12c.4,0,.76.07,1.09.21.33.14.62.34.86.59s.43.54.56.89.2.71.2,1.12-.07.78-.2,1.12-.32.64-.56.89c-.24.25-.53.45-.86.59s-.69.21-1.09.21-.76-.07-1.09-.21-.62-.34-.86-.59c-.24-.25-.43-.55-.56-.89s-.2-.72-.2-1.12.07-.78.2-1.12.32-.64.56-.89.53-.45.86-.59c.33-.14.69-.21,1.09-.21ZM247.21,251.82c.22,0,.43-.04.63-.12.2-.08.37-.2.53-.36.15-.16.28-.36.36-.59.09-.24.13-.51.13-.81s-.04-.58-.13-.81c-.09-.23-.21-.43-.36-.59-.15-.16-.33-.28-.53-.36-.2-.08-.41-.12-.63-.12s-.43.04-.63.12c-.2.08-.37.2-.53.36-.15.16-.28.36-.36.59-.09.23-.13.5-.13.81s.04.58.13.81c.09.23.21.43.36.59.15.16.33.28.53.36.2.08.41.12.63.12Z"/>
                    <path d="M254.7,251.94c-.15.28-.37.48-.66.61-.29.13-.59.19-.9.19s-.58-.06-.83-.17c-.25-.11-.45-.26-.62-.45-.17-.19-.3-.41-.39-.67-.09-.26-.14-.54-.14-.84v-3.33h1.03v3.18c0,.18.02.36.07.52s.11.31.21.43c.1.12.22.22.37.3.15.07.33.11.55.11.42,0,.73-.12.94-.37s.31-.58.31-.98v-3.19h1.03v4.31c0,.21,0,.41.02.58.01.17.02.31.04.4h-.99c-.01-.06-.03-.15-.03-.28,0-.13-.01-.25-.01-.36Z"/>
                    <path d="M257.41,254.67v-7.38h1v.83c.15-.26.37-.49.67-.67.3-.18.67-.27,1.1-.27.4,0,.75.07,1.05.21.3.14.56.34.76.59.2.25.36.54.46.88.11.34.16.7.16,1.08s-.05.76-.17,1.1c-.11.34-.27.63-.48.88-.21.25-.47.45-.78.59-.3.14-.65.21-1.04.21-.41,0-.76-.08-1.06-.25-.29-.17-.51-.37-.66-.6v2.8h-1.02ZM261.56,249.93c0-.26-.04-.51-.11-.73s-.18-.42-.31-.58c-.13-.17-.3-.29-.49-.39-.19-.09-.41-.14-.65-.14s-.45.05-.64.14c-.19.1-.36.23-.5.39-.14.17-.25.36-.32.58s-.11.47-.11.73.04.52.11.75c.07.23.18.43.32.59.14.17.31.29.5.38s.41.14.64.14.46-.05.65-.14c.19-.09.35-.22.49-.38s.24-.36.31-.59c.07-.23.11-.48.11-.75Z"/>
                    <path d="M266.41,249.09c0-.6.05-1.16.16-1.67s.25-.98.44-1.41c.19-.43.41-.82.67-1.18s.53-.69.83-.99l.63.55c-.57.63-1.01,1.33-1.34,2.1-.33.77-.49,1.63-.49,2.6s.16,1.84.49,2.61c.33.77.77,1.47,1.34,2.09l-.63.55c-.29-.3-.57-.63-.83-.99s-.48-.75-.67-1.18c-.19-.43-.33-.9-.44-1.41s-.16-1.07-.16-1.67Z"/>
                    <path d="M273.49,252.74c-.51,0-.99-.09-1.46-.27s-.88-.44-1.23-.79c-.36-.34-.64-.77-.86-1.28-.22-.51-.32-1.09-.32-1.74s.11-1.23.33-1.73.51-.93.87-1.27c.36-.34.78-.61,1.24-.79s.94-.27,1.42-.27c.45,0,.86.06,1.23.18s.71.28,1,.5c.29.21.54.47.74.78.2.31.35.65.46,1.02l-1,.35c-.15-.59-.43-1.05-.84-1.36-.41-.32-.94-.47-1.59-.47-.35,0-.7.06-1.03.19-.33.13-.63.32-.89.58-.26.26-.47.58-.62.96-.15.39-.23.83-.23,1.34s.08.95.23,1.34c.15.38.36.71.62.97.26.26.56.46.89.58.33.13.68.19,1.03.19.33,0,.63-.05.9-.14.27-.1.51-.23.72-.39s.38-.36.53-.59c.14-.23.25-.48.33-.74l.96.35c-.1.37-.26.7-.46,1.01-.21.31-.45.57-.74.79s-.62.39-1,.52c-.38.12-.79.19-1.24.19Z"/>
                    <path d="M278.35,252.58v-7.8h1.1v7.8h-1.1Z"/>
                    <path d="M287.33,252.58l-.1-1.1c-.09.15-.21.31-.35.46s-.32.29-.53.41c-.21.12-.45.22-.71.29s-.57.11-.9.11c-.49,0-.96-.09-1.42-.26-.46-.18-.86-.44-1.21-.78-.35-.34-.63-.77-.84-1.28s-.31-1.09-.31-1.75.11-1.24.33-1.75.51-.93.87-1.27c.36-.34.78-.6,1.24-.78.46-.18.94-.26,1.42-.26.42,0,.82.06,1.19.17.37.11.7.27,1,.48.3.21.55.45.77.74.22.29.38.61.49.96l-.98.42c-.18-.56-.48-1-.91-1.31s-.95-.47-1.56-.47c-.35,0-.69.06-1.02.19s-.62.32-.88.57-.46.58-.62.96c-.16.38-.24.83-.24,1.35s.08.97.23,1.36.35.71.61.96.54.45.87.58c.33.13.67.19,1.02.19.43,0,.8-.07,1.1-.2s.55-.31.74-.51c.19-.21.33-.43.42-.67.09-.24.14-.46.15-.66h-2.71v-.97h3.73v3.82h-.87Z"/>
                    <path d="M291.61,249.09c0,.6-.05,1.16-.16,1.67s-.25.98-.44,1.41c-.19.43-.41.82-.67,1.18s-.53.69-.83.99l-.63-.55c.56-.62,1-1.32,1.33-2.09.33-.77.5-1.64.5-2.61,0-.48-.04-.94-.13-1.38-.08-.43-.21-.84-.36-1.23-.16-.39-.35-.75-.58-1.1s-.48-.67-.76-.99l.63-.55c.29.3.57.63.83.99s.48.75.67,1.18c.19.43.33.9.44,1.41s.16,1.06.16,1.67Z"/>
                  </g>
                  <g>
                    <line class="cls-4" x1="85.52" y1="135.83" x2="320.4" y2="135.83"/>
                    <polygon class="cls-2" points="86.34 138.27 81.45 135.83 86.34 133.38 86.34 138.27 86.34 138.27"/>
                    <g>
                      <g>
                        <path d="M80.96,59.68v3.19h-1.08v-7.8h2.84c.36,0,.69.06.98.18s.55.28.76.49.37.45.49.73c.12.28.18.58.18.91s-.06.64-.18.92-.28.52-.49.73c-.21.2-.46.36-.76.48s-.62.18-.98.18h-1.76ZM82.52,58.71c.47,0,.84-.12,1.11-.36s.4-.56.4-.96-.13-.75-.4-.99c-.27-.24-.64-.36-1.11-.36h-1.56v2.67h1.56Z"/>
                        <path d="M90.95,61.36c-.07.23-.18.45-.33.65-.14.2-.32.38-.52.53-.2.15-.43.27-.69.36-.26.09-.54.13-.85.13-.35,0-.69-.06-1.01-.19-.32-.12-.61-.31-.85-.55-.25-.24-.44-.54-.58-.89-.14-.35-.21-.75-.21-1.2,0-.42.07-.8.21-1.14.14-.34.32-.63.56-.88.23-.25.5-.44.81-.57.31-.14.63-.2.96-.2.4,0,.76.07,1.08.2s.58.32.8.57c.21.24.38.53.49.88.11.34.17.72.17,1.13,0,.07,0,.13,0,.19s0,.11-.02.14h-3.98c0,.24.05.45.13.65.08.2.19.37.33.51.14.14.31.25.51.33.19.08.4.12.62.12.43,0,.76-.1.99-.31.23-.21.39-.46.5-.76l.89.31ZM89.9,59.68c-.01-.38-.14-.7-.39-.96-.24-.26-.6-.39-1.07-.39-.22,0-.42.04-.59.12-.17.08-.32.18-.44.31-.12.13-.22.27-.29.43-.07.16-.11.33-.12.5h2.89Z"/>
                        <path d="M95.21,58.62c-.15-.02-.3-.03-.45-.03-.43,0-.78.13-1.05.38s-.4.67-.4,1.25v2.65h-1.03v-5.29h1.01v.92c.1-.21.21-.37.34-.5s.26-.23.4-.31.28-.13.43-.16c.15-.03.29-.04.42-.04.07,0,.14,0,.2.01s.11.01.14.02v1.1Z"/>
                        <path d="M96.08,55.58c0-.21.07-.39.21-.53.14-.14.32-.21.52-.21s.39.07.53.21c.14.14.21.32.21.53s-.07.38-.21.52c-.14.14-.32.21-.53.21s-.38-.07-.52-.21c-.14-.14-.21-.32-.21-.52ZM96.31,62.87v-5.29h1.02v5.29h-1.02Z"/>
                        <path d="M99.07,64.96v-7.38h1v.83c.15-.26.37-.49.67-.67.3-.18.67-.27,1.1-.27.4,0,.75.07,1.05.21.3.14.56.34.76.59.2.25.36.54.46.88.11.34.16.7.16,1.08s-.05.76-.17,1.1c-.11.34-.27.63-.48.88-.21.25-.47.45-.78.59-.3.14-.65.21-1.04.21-.41,0-.76-.08-1.06-.25-.29-.17-.51-.37-.66-.6v2.8h-1.02ZM103.22,60.22c0-.26-.04-.51-.11-.73s-.18-.42-.31-.58c-.13-.17-.3-.29-.49-.39-.19-.09-.41-.14-.65-.14s-.45.05-.64.14c-.19.1-.36.23-.5.39-.14.17-.25.36-.32.58s-.11.47-.11.73.04.52.11.75c.07.23.18.43.32.59.14.17.31.29.5.38s.41.14.64.14.46-.05.65-.14c.19-.09.35-.22.49-.38s.24-.36.31-.59c.07-.23.11-.48.11-.75Z"/>
                        <path d="M106.61,62.87h-1.03v-7.96h1.03v3.29c.19-.28.43-.48.71-.59.29-.12.58-.18.89-.18s.59.05.83.16c.24.11.44.25.59.44.16.19.28.41.35.67.08.26.12.53.12.83v3.36h-1.03v-3.18c0-.18-.02-.36-.06-.52s-.11-.3-.21-.42-.23-.22-.38-.29c-.16-.07-.35-.1-.58-.1-.2,0-.37.04-.52.11s-.28.17-.38.3c-.1.12-.18.27-.24.44-.06.17-.09.35-.09.55v3.11Z"/>
                        <path d="M116.34,61.36c-.07.23-.18.45-.33.65-.14.2-.32.38-.52.53-.2.15-.43.27-.69.36-.26.09-.54.13-.85.13-.35,0-.69-.06-1.01-.19-.32-.12-.61-.31-.85-.55-.25-.24-.44-.54-.58-.89-.14-.35-.21-.75-.21-1.2,0-.42.07-.8.21-1.14.14-.34.32-.63.56-.88.23-.25.5-.44.81-.57.31-.14.63-.2.96-.2.4,0,.76.07,1.08.2s.58.32.8.57c.21.24.38.53.49.88.11.34.17.72.17,1.13,0,.07,0,.13,0,.19s0,.11-.02.14h-3.98c0,.24.05.45.13.65.08.2.19.37.33.51.14.14.31.25.51.33.19.08.4.12.62.12.43,0,.76-.1.99-.31.23-.21.39-.46.5-.76l.89.31ZM115.3,59.68c-.01-.38-.14-.7-.39-.96-.24-.26-.6-.39-1.07-.39-.22,0-.42.04-.59.12-.17.08-.32.18-.44.31-.12.13-.22.27-.29.43-.07.16-.11.33-.12.5h2.89Z"/>
                        <path d="M120.61,58.62c-.15-.02-.3-.03-.45-.03-.43,0-.78.13-1.05.38s-.4.67-.4,1.25v2.65h-1.03v-5.29h1.01v.92c.1-.21.21-.37.34-.5s.26-.23.4-.31.28-.13.43-.16c.15-.03.29-.04.42-.04.07,0,.14,0,.2.01s.11.01.14.02v1.1Z"/>
                        <path d="M121.38,61.45c0-.24.04-.45.12-.63.08-.19.19-.35.34-.48.14-.13.31-.24.51-.32.2-.08.41-.14.64-.18l1.43-.21c.16-.02.27-.07.32-.14.06-.07.08-.16.08-.25,0-.26-.09-.48-.27-.67-.18-.19-.47-.28-.88-.28-.37,0-.65.1-.85.3-.2.2-.32.46-.35.76l-.99-.23c.03-.25.1-.48.23-.69.12-.21.28-.39.47-.54.19-.15.41-.27.67-.35.25-.08.52-.13.81-.13.4,0,.73.05,1.01.16s.51.25.68.42c.18.18.3.38.38.62.08.23.12.48.12.74v2.65c0,.23,0,.42.02.56.01.14.03.24.04.31h-1.01c-.01-.07-.03-.15-.04-.26-.01-.11-.02-.26-.02-.45-.06.09-.14.19-.23.3s-.21.2-.35.29c-.14.09-.3.16-.49.21-.19.06-.4.08-.63.08-.27,0-.52-.04-.73-.13-.22-.09-.4-.2-.56-.35-.15-.14-.27-.31-.36-.5-.08-.19-.13-.39-.13-.6ZM123.29,62.17c.21,0,.41-.03.6-.08.19-.05.35-.14.48-.26s.24-.28.32-.48c.08-.2.12-.45.12-.73v-.24l-1.62.24c-.22.04-.4.12-.55.25s-.22.31-.22.54c0,.2.08.38.23.53.15.16.36.24.63.24Z"/>
                        <path d="M127.44,62.87v-7.96h1.03v7.96h-1.03Z"/>
                        <path d="M130.65,61.16c.04.28.16.51.36.7.21.19.5.29.87.29.29,0,.52-.07.67-.21.15-.14.23-.3.23-.5,0-.17-.06-.31-.18-.43-.12-.12-.29-.2-.51-.25l-.9-.2c-.42-.09-.74-.26-.97-.53s-.35-.58-.35-.96c0-.23.05-.44.15-.64.1-.2.23-.38.4-.53.17-.15.37-.28.6-.36.23-.09.47-.13.73-.13.36,0,.66.05.91.15.25.1.45.23.6.38.15.15.27.31.35.47s.13.3.16.42l-.91.34c-.01-.07-.04-.15-.08-.25-.04-.1-.1-.2-.18-.29-.08-.09-.19-.17-.33-.24-.14-.07-.31-.1-.52-.1-.26,0-.48.07-.64.21-.16.14-.24.31-.24.49,0,.34.2.55.61.64l.86.19c.48.1.85.29,1.09.57.25.27.37.61.37,1.01,0,.19-.04.38-.12.57-.08.19-.2.37-.36.53-.16.16-.36.29-.6.39-.24.1-.53.15-.86.15-.37,0-.68-.05-.94-.15-.26-.1-.48-.23-.65-.38-.17-.15-.3-.32-.4-.5s-.15-.35-.17-.5l.94-.33Z"/>
                      </g>
                      <g>
                        <path class="cls-8" d="M45.28,64.89c-13.42,0-24.31-10.89-24.31-24.33s10.88-24.33,24.31-24.33,24.31,10.89,24.31,24.33c-.02,13.43-10.89,24.32-24.31,24.33h0Z"/>
                        <path class="cls-6" d="M45.28,64.89c-13.42,0-24.31-10.89-24.31-24.33s10.88-24.33,24.31-24.33,24.31,10.89,24.31,24.33c-.02,13.43-10.89,24.32-24.31,24.33h0Z"/>
                        <path class="cls-3" d="M65.27,40.55c0,11.05-8.95,20.02-19.99,20.02s-19.99-8.96-19.99-20.02,8.95-20.02,19.99-20.02,19.99,8.96,19.99,20.02h0Z"/>
                        <path class="cls-9" d="M45.28,17.66c-12.63,0-22.87,10.25-22.87,22.89s10.24,22.89,22.87,22.89,22.87-10.25,22.87-22.89-10.24-22.89-22.87-22.89h0ZM52.85,50.35h-12.28v-19.58h3.31v16.43h8.97v3.15h0Z"/>
                        <path class="cls-8" d="M166.94,65.13c-13.42,0-24.31-10.89-24.31-24.33,0-13.44,10.88-24.34,24.3-24.34,13.42,0,24.31,10.89,24.31,24.33h0c-.02,13.44-10.89,24.32-24.3,24.34h0Z"/>
                        <path class="cls-6" d="M166.94,65.13c-13.42,0-24.31-10.89-24.31-24.33,0-13.44,10.88-24.34,24.3-24.34,13.42,0,24.31,10.89,24.31,24.33h0c-.02,13.44-10.89,24.32-24.3,24.34h0Z"/>
                        <path class="cls-3" d="M186.89,40.8c0,11.05-8.95,20.02-19.99,20.02s-19.99-8.96-19.99-20.02,8.95-20.02,19.99-20.02,19.99,8.96,19.99,20.02h0Z"/>
                        <path d="M168.42,33.94h-3.56v6h3.56c.89.05,1.77-.25,2.46-.82.61-.55.94-1.34.91-2.16.03-.82-.31-1.61-.91-2.16-.68-.59-1.56-.9-2.46-.86h0Z"/>
                        <path d="M166.94,17.93c-12.63,0-22.87,10.24-22.88,22.89,0,12.64,10.23,22.9,22.86,22.9,12.63,0,22.87-10.24,22.88-22.89h0c0-12.65-10.23-22.9-22.85-22.9h0ZM175.16,50.6h-3.75l-4.11-7.73h-2.43v7.73h-3.34v-19.59h7.51c.87-.01,1.74.14,2.55.46.73.28,1.39.71,1.93,1.27.52.55.93,1.19,1.21,1.89.29.74.43,1.53.42,2.32.09,2.69-1.77,5.06-4.41,5.58l4.41,8.07Z"/>
                        <polygon class="cls-9" points="82.42 206.61 87.42 205.27 58.53 96.95 53.53 98.29 57.9 82.03 69.78 93.94 64.77 95.28 93.67 203.6 98.67 202.26 94.3 218.52 82.42 206.61 82.42 206.61 82.42 206.61"/>
                        <path class="cls-8" d="M58.26,83.41l10.13,10.16-4.5,1.2,29.27,109.71,4.49-1.2-3.72,13.86-10.13-10.15,4.5-1.2-29.27-109.71-4.5,1.2,3.72-13.86M57.54,80.63l-.65,2.4-3.72,13.86-.65,2.41,2.41-.65,3.1-.83,28.52,106.93-3.1.83-2.41.64,1.76,1.76,10.1,10.17,1.76,1.76.65-2.41,3.72-13.86.64-2.4-2.4.64-3.1.83-28.52-106.94,3.1-.83,2.41-.65-1.76-1.76-10.13-10.15-1.76-1.76h.02Z"/>
                        <polygon points="114.66 202.21 119.65 203.6 149.82 95.21 144.84 93.82 156.85 82.03 161.04 98.34 156.05 96.95 125.88 205.34 130.86 206.73 118.85 218.52 114.66 202.21 114.66 202.21 114.66 202.21"/>
                        <path class="cls-5" d="M156.46,83.41l3.59,13.9-4.48-1.25-30.58,109.79,4.48,1.24-10.24,10.07-3.59-13.89,4.48,1.25,30.56-109.78-4.46-1.26,10.23-10.07M157.23,80.64l-1.8,1.75-10.23,10.07-1.76,1.74,2.4.67,3.1.86-29.79,106.99-3.1-.86-2.4-.67.62,2.42,3.59,13.89.62,2.42,1.74-1.75,10.23-10.07,1.78-1.74-2.4-.67-3.1-.86,29.79-107.01,3.1.86,2.4.67-.62-2.41-3.59-13.9-.63-2.41.04.02h0Z"/>
                        <path class="cls-8" d="M105.93,268.51c-13.42,0-24.31-10.89-24.31-24.33s10.88-24.33,24.31-24.33,24.31,10.89,24.31,24.33h0c-.02,13.44-10.89,24.32-24.31,24.33h0Z"/>
                        <path class="cls-6" d="M105.93,268.51c-13.42,0-24.31-10.89-24.31-24.33s10.88-24.33,24.31-24.33,24.31,10.89,24.31,24.33h0c-.02,13.44-10.89,24.32-24.31,24.33h0Z"/>
                        <path class="cls-3" d="M125.93,244.18c0,11.05-8.95,20.02-19.99,20.02s-19.99-8.96-19.99-20.02,8.95-20.02,19.99-20.02,19.99,8.96,19.99,20.02h0Z"/>
                        <path class="cls-10" d="M105.93,221.29c-12.63,0-22.87,10.25-22.87,22.89s10.24,22.89,22.87,22.89,22.87-10.25,22.87-22.89-10.24-22.89-22.87-22.89h0ZM114.26,250.33c-.49.79-1.11,1.49-1.84,2.07-.78.62-1.66,1.1-2.6,1.44-1.08.38-2.22.57-3.37.55-1.29,0-2.57-.25-3.77-.72-1.17-.45-2.24-1.13-3.15-2-.93-.91-1.67-2-2.16-3.2-.56-1.37-.83-2.84-.8-4.32-.03-1.48.26-2.95.83-4.32.5-1.2,1.23-2.29,2.16-3.2.91-.87,1.98-1.56,3.15-2.01,1.17-.47,2.42-.72,3.68-.72,1.13-.02,2.26.15,3.34.51.94.31,1.81.78,2.59,1.38.72.56,1.34,1.25,1.82,2.03.47.75.82,1.57,1.05,2.43l-3.12,1.05c-.15-.59-.37-1.15-.68-1.67-.3-.52-.69-.99-1.16-1.37-.49-.4-1.06-.71-1.66-.91-1.49-.48-3.1-.44-4.56.11-.77.29-1.48.74-2.07,1.32-.63.64-1.12,1.4-1.44,2.23-.38.99-.57,2.05-.55,3.11-.02,1.03.16,2.06.54,3.02.63,1.62,1.91,2.91,3.53,3.54.77.3,1.59.45,2.41.45.75.01,1.5-.11,2.21-.36.61-.22,1.18-.55,1.68-.96.47-.4.88-.86,1.21-1.38.31-.5.55-1.04.72-1.6l3.04.99c-.22.88-.57,1.72-1.04,2.5h0Z"/>
                      </g>
                    </g>
                  </g>
                </g>
              </g>
            </g>
          </g>
        </g>
      </g>
    </g>
  </g>
  <rect class="cls-7" x="21.54" y="71.61" width="172.8" height="206.85"/>
</svg>