<?xml version="1.0" encoding="UTF-8"?>
<svg id="Layer_1" data-name="Layer 1" xmlns="http://www.w3.org/2000/svg" viewBox="0 0 342 276.5">
  <defs>
    <style>
      .cls-1 {
        fill: #646569;
      }

      .cls-1, .cls-2 {
        fill-rule: evenodd;
      }

      .cls-3, .cls-4 {
        fill: #fff;
      }

      .cls-4, .cls-5, .cls-6, .cls-7, .cls-8 {
        stroke-miterlimit: 10;
      }

      .cls-4, .cls-6 {
        stroke: #000;
      }

      .cls-5 {
        stroke: #222;
        stroke-width: .75px;
      }

      .cls-5, .cls-6, .cls-7, .cls-8 {
        fill: none;
      }

      .cls-9 {
        fill: #222;
      }

      .cls-10 {
        fill: #ffcb0f;
      }

      .cls-6, .cls-8 {
        stroke-width: 1.5px;
      }

      .cls-7 {
        stroke: #646569;
        stroke-dasharray: 1 3 1 3 1 3;
      }

      .cls-8 {
        stroke: #ffcc0f;
      }

      .cls-11 {
        fill: #0082fc;
      }
    </style>
  </defs>
  <g>
    <line class="cls-4" x1="174.5" y1="119.51" x2="321" y2="119.51"/>
    <polygon class="cls-2" points="175.31 121.96 170.42 119.51 175.31 117.07 175.31 121.96 175.31 121.96"/>
  </g>
  <g>
    <g>
      <path d="M110.33,257.9c-.51,0-.99-.09-1.46-.27-.47-.18-.88-.44-1.23-.79s-.64-.77-.86-1.28-.32-1.09-.32-1.74.11-1.23.33-1.73c.22-.5.51-.93.87-1.27.36-.34.78-.61,1.24-.79.46-.18.94-.27,1.42-.27.45,0,.86.06,1.23.18.37.12.71.28,1,.5.29.21.54.47.74.78.2.31.35.65.46,1.02l-1,.35c-.15-.59-.43-1.05-.84-1.36s-.94-.47-1.59-.47c-.35,0-.7.06-1.03.19-.33.13-.63.32-.89.58-.26.26-.47.58-.62.96-.15.39-.23.83-.23,1.34s.08.95.23,1.34c.15.38.36.71.62.97.26.26.56.46.89.58.33.13.68.19,1.03.19.33,0,.63-.05.9-.14.27-.1.51-.23.72-.39s.38-.36.53-.59c.14-.23.26-.48.34-.74l.96.35c-.1.37-.26.7-.46,1.01-.21.31-.45.57-.74.79-.29.22-.62.39-1,.52-.38.12-.79.19-1.24.19Z"/>
      <path d="M119.68,256.23c-.07.23-.18.45-.32.65-.14.2-.32.38-.52.53-.2.15-.43.27-.69.36-.26.09-.54.13-.85.13-.35,0-.69-.06-1.01-.19-.32-.12-.61-.31-.85-.55s-.44-.54-.58-.89c-.14-.35-.21-.75-.21-1.2,0-.42.07-.8.21-1.14.14-.34.32-.63.55-.88s.5-.44.81-.57.63-.2.96-.2c.4,0,.76.07,1.08.2.32.14.58.32.8.57s.38.53.49.88c.11.34.17.72.17,1.13,0,.07,0,.13,0,.19s0,.11-.02.14h-3.98c0,.24.05.45.13.65.08.2.19.37.33.51.14.14.31.25.51.33.2.08.4.12.62.12.43,0,.76-.1.99-.31.23-.21.39-.46.5-.76l.89.31ZM118.63,254.55c-.01-.38-.14-.7-.38-.96-.24-.26-.6-.39-1.07-.39-.22,0-.42.04-.59.12-.17.08-.32.18-.44.31-.12.13-.22.27-.29.43-.07.16-.11.33-.12.5h2.89Z"/>
      <path d="M122.04,257.74h-1.03v-5.29h1.01v.76c.19-.33.43-.56.73-.7.29-.14.59-.21.9-.21s.59.05.83.16c.24.11.44.25.59.44.16.19.28.41.35.67.08.26.12.53.12.83v3.36h-1.03v-3.18c0-.18-.02-.36-.06-.52-.04-.16-.11-.3-.21-.42-.1-.12-.23-.22-.38-.29-.16-.07-.35-.1-.58-.1-.21,0-.38.04-.54.12s-.28.18-.38.31c-.1.13-.18.29-.23.46-.05.18-.08.36-.08.56v3.06Z"/>
      <path d="M128.55,252.45h1.14v.93h-1.14v2.75c0,.24.05.42.16.54.11.12.3.18.57.18.07,0,.14,0,.22-.01.08,0,.14-.02.19-.03v.88s-.13.03-.25.06c-.12.03-.28.04-.45.04-.46,0-.81-.13-1.08-.39-.26-.26-.39-.63-.39-1.12v-2.9h-1.01v-.93h.29c.29,0,.49-.08.62-.23.13-.15.19-.35.19-.58v-.86h.95v1.67Z"/>
      <path d="M134.03,253.49c-.15-.02-.3-.03-.45-.03-.43,0-.78.13-1.05.38s-.4.67-.4,1.25v2.65h-1.04v-5.29h1.01v.92c.1-.21.21-.37.34-.5.13-.13.26-.23.4-.31.14-.08.28-.13.43-.16.15-.03.29-.04.42-.04.07,0,.14,0,.21.01s.11.01.14.02v1.1Z"/>
      <path d="M134.8,256.32c0-.24.04-.45.12-.63.08-.19.19-.35.34-.48s.31-.24.51-.32c.2-.08.41-.14.64-.18l1.43-.21c.16-.02.27-.07.32-.14s.08-.16.08-.25c0-.26-.09-.48-.27-.67-.18-.19-.47-.28-.88-.28-.37,0-.65.1-.85.3-.2.2-.32.46-.35.76l-.99-.23c.03-.25.1-.48.22-.69.12-.21.28-.39.47-.54.19-.15.41-.27.67-.35.25-.08.52-.13.81-.13.4,0,.73.05,1.01.16.28.11.51.25.68.42.18.18.3.38.38.62.08.23.12.48.12.74v2.65c0,.23,0,.42.02.56.01.14.03.24.04.31h-1.01c-.01-.07-.03-.15-.04-.26-.01-.11-.02-.26-.02-.45-.06.09-.13.19-.23.3s-.21.2-.35.29c-.14.09-.3.16-.49.21-.19.06-.4.08-.63.08-.27,0-.52-.04-.73-.13-.22-.09-.4-.2-.56-.35-.15-.14-.27-.31-.36-.5-.08-.19-.13-.39-.13-.6ZM136.71,257.03c.21,0,.41-.03.6-.08.19-.05.35-.14.48-.26.14-.12.24-.28.32-.48.08-.2.12-.45.12-.73v-.24l-1.62.24c-.22.04-.4.12-.55.25s-.22.31-.22.54c0,.2.08.38.23.53.15.16.36.24.63.24Z"/>
      <path d="M140.86,257.74v-7.96h1.04v7.96h-1.04Z"/>
    </g>
    <g>
      <path d="M103.77,22.42v3.19h-1.08v-7.8h2.84c.36,0,.69.06.98.18s.55.28.76.49.37.45.49.73c.12.28.18.58.18.91s-.06.64-.18.92-.28.52-.49.73c-.21.2-.46.36-.76.48s-.62.18-.98.18h-1.76ZM105.33,21.45c.47,0,.84-.12,1.11-.36s.4-.56.4-.96-.13-.75-.4-.99c-.27-.24-.64-.36-1.11-.36h-1.56v2.67h1.56Z"/>
      <path d="M113.31,24.1c-.07.23-.18.45-.33.65-.14.2-.32.38-.52.53-.2.15-.43.27-.69.36-.26.09-.54.13-.85.13-.35,0-.69-.06-1.01-.19-.32-.12-.61-.31-.85-.55-.25-.24-.44-.54-.58-.89-.14-.35-.21-.75-.21-1.2,0-.42.07-.8.21-1.14.14-.34.32-.63.56-.88.23-.25.5-.44.81-.57.31-.14.63-.2.96-.2.4,0,.76.07,1.08.2s.58.32.8.57c.21.24.38.53.49.88.11.34.17.72.17,1.13,0,.07,0,.13,0,.19s0,.11-.02.14h-3.98c0,.24.05.45.13.65.08.2.19.37.33.51.14.14.31.25.51.33.19.08.4.12.62.12.43,0,.76-.1.99-.31.23-.21.39-.46.5-.76l.89.31ZM112.27,22.42c-.01-.38-.14-.7-.39-.96-.24-.26-.6-.39-1.07-.39-.22,0-.42.04-.59.12-.17.08-.32.18-.44.31-.12.13-.22.27-.29.43-.07.16-.11.33-.12.5h2.89Z"/>
      <path d="M117.6,21.36c-.15-.02-.3-.03-.45-.03-.43,0-.78.13-1.05.38s-.4.67-.4,1.25v2.65h-1.03v-5.29h1.01v.92c.1-.21.21-.37.34-.5s.26-.23.4-.31.28-.13.43-.16c.15-.03.29-.04.42-.04.07,0,.14,0,.2.01s.11.01.14.02v1.1Z"/>
      <path d="M118.47,18.31c0-.21.07-.39.21-.53.14-.14.32-.21.52-.21s.39.07.53.21c.14.14.21.32.21.53s-.07.38-.21.52c-.14.14-.32.21-.53.21s-.38-.07-.52-.21c-.14-.14-.21-.32-.21-.52ZM118.7,25.61v-5.29h1.02v5.29h-1.02Z"/>
      <path d="M121.49,27.7v-7.38h1v.83c.15-.26.37-.49.67-.67.3-.18.67-.27,1.1-.27.4,0,.75.07,1.05.21.3.14.56.34.76.59.2.25.36.54.46.88.11.34.16.7.16,1.08s-.05.76-.17,1.1c-.11.34-.27.63-.48.88-.21.25-.47.45-.78.59-.3.14-.65.21-1.04.21-.41,0-.76-.08-1.06-.25-.29-.17-.51-.37-.66-.6v2.8h-1.02ZM125.63,22.96c0-.26-.04-.51-.11-.73s-.18-.42-.31-.58c-.13-.17-.3-.29-.49-.39-.19-.09-.41-.14-.65-.14s-.45.05-.64.14c-.19.1-.36.23-.5.39-.14.17-.25.36-.32.58s-.11.47-.11.73.04.52.11.75c.07.23.18.43.32.59.14.17.31.29.5.38s.41.14.64.14.46-.05.65-.14c.19-.09.35-.22.49-.38s.24-.36.31-.59c.07-.23.11-.48.11-.75Z"/>
      <path d="M129.04,25.61h-1.03v-7.96h1.03v3.29c.19-.28.43-.48.71-.59.29-.12.58-.18.89-.18s.59.05.83.16c.24.11.44.25.59.44.16.19.28.41.35.67.08.26.12.53.12.83v3.36h-1.03v-3.18c0-.18-.02-.36-.06-.52s-.11-.3-.21-.42-.23-.22-.38-.29c-.16-.07-.35-.1-.58-.1-.2,0-.37.04-.52.11s-.28.17-.38.3c-.1.12-.18.27-.24.44-.06.17-.09.35-.09.55v3.11Z"/>
      <path d="M138.8,24.1c-.07.23-.18.45-.33.65-.14.2-.32.38-.52.53-.2.15-.43.27-.69.36-.26.09-.54.13-.85.13-.35,0-.69-.06-1.01-.19-.32-.12-.61-.31-.85-.55-.25-.24-.44-.54-.58-.89-.14-.35-.21-.75-.21-1.2,0-.42.07-.8.21-1.14.14-.34.32-.63.56-.88.23-.25.5-.44.81-.57.31-.14.63-.2.96-.2.4,0,.76.07,1.08.2s.58.32.8.57c.21.24.38.53.49.88.11.34.17.72.17,1.13,0,.07,0,.13,0,.19s0,.11-.02.14h-3.98c0,.24.05.45.13.65.08.2.19.37.33.51.14.14.31.25.51.33.19.08.4.12.62.12.43,0,.76-.1.99-.31.23-.21.39-.46.5-.76l.89.31ZM137.76,22.42c-.01-.38-.14-.7-.39-.96-.24-.26-.6-.39-1.07-.39-.22,0-.42.04-.59.12-.17.08-.32.18-.44.31-.12.13-.22.27-.29.43-.07.16-.11.33-.12.5h2.89Z"/>
      <path d="M143.09,21.36c-.15-.02-.3-.03-.45-.03-.43,0-.78.13-1.05.38s-.4.67-.4,1.25v2.65h-1.03v-5.29h1.01v.92c.1-.21.21-.37.34-.5s.26-.23.4-.31.28-.13.43-.16c.15-.03.29-.04.42-.04.07,0,.14,0,.2.01s.11.01.14.02v1.1Z"/>
      <path d="M143.86,24.19c0-.24.04-.45.12-.63.08-.19.19-.35.34-.48.14-.13.31-.24.51-.32.2-.08.41-.14.64-.18l1.43-.21c.16-.02.27-.07.32-.14.06-.07.08-.16.08-.25,0-.26-.09-.48-.27-.67-.18-.19-.47-.28-.88-.28-.37,0-.65.1-.85.3-.2.2-.32.46-.35.76l-.99-.23c.03-.25.1-.48.23-.69.12-.21.28-.39.47-.54.19-.15.41-.27.67-.35.25-.08.52-.13.81-.13.4,0,.73.05,1.01.16s.51.25.68.42c.18.18.3.38.38.62.08.23.12.48.12.74v2.65c0,.23,0,.42.02.56.01.14.03.24.04.31h-1.01c-.01-.07-.03-.15-.04-.26-.01-.11-.02-.26-.02-.45-.06.09-.14.19-.23.3s-.21.2-.35.29c-.14.09-.3.16-.49.21-.19.06-.4.08-.63.08-.27,0-.52-.04-.73-.13-.22-.09-.4-.2-.56-.35-.15-.14-.27-.31-.36-.5-.08-.19-.13-.39-.13-.6ZM145.77,24.9c.21,0,.41-.03.6-.08.19-.05.35-.14.48-.26s.24-.28.32-.48c.08-.2.12-.45.12-.73v-.24l-1.62.24c-.22.04-.4.12-.55.25s-.22.31-.22.54c0,.2.08.38.23.53.15.16.36.24.63.24Z"/>
      <path d="M149.94,25.61v-7.96h1.03v7.96h-1.03Z"/>
      <path d="M153.18,23.9c.04.28.16.51.36.7.21.19.5.29.87.29.29,0,.52-.07.67-.21.15-.14.23-.3.23-.5,0-.17-.06-.31-.18-.43-.12-.12-.29-.2-.51-.25l-.9-.2c-.42-.09-.74-.26-.97-.53s-.35-.58-.35-.96c0-.23.05-.44.15-.64.1-.2.23-.38.4-.53.17-.15.37-.28.6-.36.23-.09.47-.13.73-.13.36,0,.66.05.91.15.25.1.45.23.6.38.15.15.27.31.35.47s.13.3.16.42l-.91.34c-.01-.07-.04-.15-.08-.25-.04-.1-.1-.2-.18-.29-.08-.09-.19-.17-.33-.24-.14-.07-.31-.1-.52-.1-.26,0-.48.07-.64.21-.16.14-.24.31-.24.49,0,.34.2.55.61.64l.86.19c.48.1.85.29,1.09.57.25.27.37.61.37,1.01,0,.19-.04.38-.12.57-.08.19-.2.37-.36.53-.16.16-.36.29-.6.39-.24.1-.53.15-.86.15-.37,0-.68-.05-.94-.15-.26-.1-.48-.23-.65-.38-.17-.15-.3-.32-.4-.5s-.15-.35-.17-.5l.94-.33Z"/>
    </g>
    <g>
      <g>
        <path d="M248.78,94.71v-7.8h1.1v7.8h-1.1Z"/>
        <path d="M252.21,93c.04.28.16.51.36.7.21.19.5.29.87.29.29,0,.52-.07.67-.21.15-.14.23-.3.23-.5,0-.17-.06-.31-.18-.43-.12-.12-.29-.2-.51-.25l-.9-.2c-.42-.09-.74-.26-.97-.53s-.35-.58-.35-.96c0-.23.05-.44.15-.64.1-.2.23-.38.4-.53.17-.15.37-.28.6-.36.23-.09.47-.13.73-.13.36,0,.66.05.91.15.25.1.45.23.6.38.15.15.27.31.35.47s.13.3.16.42l-.91.34c-.01-.07-.04-.15-.08-.25-.04-.1-.1-.2-.18-.29-.08-.09-.19-.17-.33-.24-.14-.07-.31-.1-.52-.1-.26,0-.48.07-.64.21-.16.14-.24.31-.24.49,0,.34.2.55.61.64l.86.19c.48.1.85.29,1.09.57.25.27.37.61.37,1.01,0,.19-.04.38-.12.57-.08.19-.2.37-.36.53-.16.16-.36.29-.6.39-.24.1-.53.15-.86.15-.37,0-.68-.05-.94-.15-.26-.1-.48-.23-.65-.38-.17-.15-.3-.32-.4-.5s-.15-.35-.17-.5l.94-.33Z"/>
        <path d="M259.01,89.25c.4,0,.76.07,1.09.21.33.14.62.34.86.59s.43.54.56.89.2.71.2,1.12-.07.78-.2,1.12-.32.64-.56.89c-.24.25-.53.45-.86.59s-.69.21-1.09.21-.76-.07-1.09-.21-.62-.34-.86-.59c-.24-.25-.43-.55-.56-.89s-.2-.72-.2-1.12.07-.78.2-1.12.32-.64.56-.89.53-.45.86-.59c.33-.14.69-.21,1.09-.21ZM259.01,93.95c.22,0,.43-.04.63-.12.2-.08.37-.2.53-.36.15-.16.28-.36.36-.59.09-.24.13-.51.13-.81s-.04-.58-.13-.81c-.09-.23-.21-.43-.36-.59-.15-.16-.33-.28-.53-.36-.2-.08-.41-.12-.63-.12s-.43.04-.63.12c-.2.08-.37.2-.53.36-.15.16-.28.36-.36.59-.09.23-.13.5-.13.81s.04.58.13.81c.09.23.21.43.36.59.15.16.33.28.53.36.2.08.41.12.63.12Z"/>
        <path d="M265.23,90.21c-.21,0-.41.04-.6.12s-.36.19-.51.35-.27.35-.36.58c-.09.23-.13.5-.13.81s.04.57.13.8c.09.23.21.42.35.58.15.16.32.28.52.36s.4.12.62.12c.25,0,.46-.04.63-.11.17-.07.32-.17.43-.27.11-.11.2-.23.27-.36.07-.13.11-.24.14-.35l.91.4c-.07.19-.16.38-.29.58-.12.2-.29.37-.48.53-.2.16-.43.29-.7.39-.27.1-.57.15-.92.15-.39,0-.75-.07-1.07-.21-.33-.14-.61-.34-.84-.59-.24-.25-.42-.55-.56-.89-.14-.34-.2-.71-.2-1.12s.07-.79.2-1.13.32-.64.56-.89c.24-.25.52-.44.85-.58s.68-.21,1.05-.21c.35,0,.66.05.93.15.27.1.5.23.69.39s.35.34.47.54c.12.2.21.4.26.6l-.93.4c-.04-.13-.09-.26-.15-.4-.07-.13-.16-.25-.27-.36-.11-.11-.25-.19-.41-.26-.16-.07-.36-.1-.58-.1Z"/>
        <path d="M269.87,94.71h-1.03v-7.96h1.03v3.29c.19-.28.43-.48.71-.59.29-.12.58-.18.89-.18s.59.05.83.16c.24.11.44.25.59.44.16.19.28.41.35.67.08.26.12.53.12.83v3.36h-1.03v-3.18c0-.18-.02-.36-.06-.52s-.11-.3-.21-.42-.23-.22-.38-.29c-.16-.07-.35-.1-.58-.1-.2,0-.37.04-.52.11s-.28.17-.38.3c-.1.12-.18.27-.24.44-.06.17-.09.35-.09.55v3.11Z"/>
        <path d="M277.94,90.46c-.15-.02-.3-.03-.45-.03-.43,0-.78.13-1.05.38s-.4.67-.4,1.25v2.65h-1.03v-5.29h1.01v.92c.1-.21.21-.37.34-.5s.26-.23.4-.31.28-.13.43-.16c.15-.03.29-.04.42-.04.07,0,.14,0,.2.01s.11.01.14.02v1.1Z"/>
        <path d="M281.3,89.25c.4,0,.76.07,1.09.21.33.14.62.34.86.59s.43.54.56.89.2.71.2,1.12-.07.78-.2,1.12-.32.64-.56.89c-.24.25-.53.45-.86.59s-.69.21-1.09.21-.76-.07-1.09-.21-.62-.34-.86-.59c-.24-.25-.43-.55-.56-.89s-.2-.72-.2-1.12.07-.78.2-1.12.32-.64.56-.89.53-.45.86-.59c.33-.14.69-.21,1.09-.21ZM281.3,93.95c.22,0,.43-.04.63-.12.2-.08.37-.2.53-.36.15-.16.28-.36.36-.59.09-.24.13-.51.13-.81s-.04-.58-.13-.81c-.09-.23-.21-.43-.36-.59-.15-.16-.33-.28-.53-.36-.2-.08-.41-.12-.63-.12s-.43.04-.63.12c-.2.08-.37.2-.53.36-.15.16-.28.36-.36.59-.09.23-.13.5-.13.81s.04.58.13.81c.09.23.21.43.36.59.15.16.33.28.53.36.2.08.41.12.63.12Z"/>
        <path d="M286.34,94.71h-1.03v-5.29h1.01v.76c.19-.33.43-.56.73-.7.29-.14.59-.21.9-.21s.59.05.83.16c.24.11.44.25.59.44.16.19.28.41.35.67.08.26.12.53.12.83v3.36h-1.03v-3.18c0-.18-.02-.36-.06-.52s-.11-.3-.21-.42-.23-.22-.38-.29c-.16-.07-.35-.1-.58-.1-.21,0-.39.04-.54.12-.15.08-.28.18-.39.31s-.18.29-.23.46c-.05.18-.08.36-.08.56v3.06Z"/>
        <path d="M293.73,89.25c.4,0,.76.07,1.09.21.33.14.62.34.86.59s.43.54.56.89.2.71.2,1.12-.07.78-.2,1.12-.32.64-.56.89c-.24.25-.53.45-.86.59s-.69.21-1.09.21-.76-.07-1.09-.21-.62-.34-.86-.59c-.24-.25-.43-.55-.56-.89s-.2-.72-.2-1.12.07-.78.2-1.12.32-.64.56-.89.53-.45.86-.59c.33-.14.69-.21,1.09-.21ZM293.73,93.95c.22,0,.43-.04.63-.12.2-.08.37-.2.53-.36.15-.16.28-.36.36-.59.09-.24.13-.51.13-.81s-.04-.58-.13-.81c-.09-.23-.21-.43-.36-.59-.15-.16-.33-.28-.53-.36-.2-.08-.41-.12-.63-.12s-.43.04-.63.12c-.2.08-.37.2-.53.36-.15.16-.28.36-.36.59-.09.23-.13.5-.13.81s.04.58.13.81c.09.23.21.43.36.59.15.16.33.28.53.36.2.08.41.12.63.12Z"/>
        <path d="M301.22,94.07c-.15.28-.37.48-.66.61-.29.13-.59.19-.9.19s-.58-.06-.83-.17c-.25-.11-.45-.26-.62-.45-.17-.19-.3-.41-.39-.67-.09-.26-.14-.54-.14-.84v-3.33h1.03v3.18c0,.18.02.36.07.52s.11.31.21.43c.1.12.22.22.37.3.15.07.33.11.55.11.42,0,.73-.12.94-.37s.31-.58.31-.98v-3.19h1.03v4.31c0,.21,0,.41.02.58.01.17.02.31.04.4h-.99c-.01-.06-.03-.15-.03-.28,0-.13-.01-.25-.01-.36Z"/>
        <path d="M304.38,93c.04.28.16.51.36.7.21.19.5.29.87.29.29,0,.52-.07.67-.21.15-.14.23-.3.23-.5,0-.17-.06-.31-.18-.43-.12-.12-.29-.2-.51-.25l-.9-.2c-.42-.09-.74-.26-.97-.53s-.35-.58-.35-.96c0-.23.05-.44.15-.64.1-.2.23-.38.4-.53.17-.15.37-.28.6-.36.23-.09.47-.13.73-.13.36,0,.66.05.91.15.25.1.45.23.6.38.15.15.27.31.35.47s.13.3.16.42l-.91.34c-.01-.07-.04-.15-.08-.25-.04-.1-.1-.2-.18-.29-.08-.09-.19-.17-.33-.24-.14-.07-.31-.1-.52-.1-.26,0-.48.07-.64.21-.16.14-.24.31-.24.49,0,.34.2.55.61.64l.86.19c.48.1.85.29,1.09.57.25.27.37.61.37,1.01,0,.19-.04.38-.12.57-.08.19-.2.37-.36.53-.16.16-.36.29-.6.39-.24.1-.53.15-.86.15-.37,0-.68-.05-.94-.15-.26-.1-.48-.23-.65-.38-.17-.15-.3-.32-.4-.5s-.15-.35-.17-.5l.94-.33Z"/>
      </g>
      <g>
        <g>
          <path d="M252.78,103.69c-.02-.14-.07-.29-.14-.45-.07-.16-.18-.3-.31-.43s-.3-.24-.5-.32-.43-.13-.7-.13c-.22,0-.42.03-.6.1-.18.07-.34.16-.48.27-.14.12-.24.25-.31.41-.07.16-.11.33-.11.51,0,.28.08.52.25.72.17.2.42.34.75.41l1.17.25c.65.15,1.15.41,1.5.79.35.38.52.85.52,1.4,0,.3-.06.59-.19.87-.12.28-.3.52-.54.74s-.52.38-.85.51c-.33.13-.7.19-1.12.19-.47,0-.88-.07-1.23-.21-.35-.14-.64-.32-.88-.54-.24-.22-.42-.47-.56-.74-.13-.27-.22-.55-.25-.83l1.03-.33c.02.22.08.43.16.63.08.2.21.38.36.53.16.15.35.28.57.37.22.09.48.14.78.14.54,0,.94-.12,1.2-.36.27-.24.4-.54.4-.88,0-.28-.09-.53-.29-.75-.19-.22-.48-.38-.88-.46l-1.11-.24c-.56-.12-1.01-.37-1.37-.72s-.53-.83-.53-1.41c0-.31.07-.6.2-.88.13-.28.31-.52.54-.74.23-.21.5-.38.82-.51.32-.13.65-.19,1.01-.19.44,0,.82.06,1.13.18.31.12.57.28.78.47.21.19.37.4.49.63.12.23.2.45.24.66l-.97.34Z"/>
          <path d="M256.57,104.09h1.14v.93h-1.14v2.75c0,.24.06.42.17.54.11.12.3.18.57.18.07,0,.14,0,.22-.01.08,0,.14-.02.19-.03v.88s-.13.03-.25.06c-.12.03-.28.04-.45.04-.46,0-.81-.13-1.08-.39-.26-.26-.4-.63-.4-1.12v-2.9h-1.01v-.93h.29c.29,0,.49-.08.62-.23.13-.15.19-.35.19-.58v-.86h.95v1.67Z"/>
          <path d="M262.05,105.13c-.15-.02-.3-.03-.45-.03-.43,0-.78.13-1.05.38s-.4.67-.4,1.25v2.65h-1.03v-5.29h1.01v.92c.1-.21.21-.37.34-.5s.26-.23.4-.31.28-.13.43-.16c.15-.03.29-.04.42-.04.07,0,.14,0,.2.01s.11.01.14.02v1.1Z"/>
          <path d="M267.76,107.87c-.07.23-.18.45-.33.65-.14.2-.32.38-.52.53-.2.15-.43.27-.69.36-.26.09-.54.13-.85.13-.35,0-.69-.06-1.01-.19-.32-.12-.61-.31-.85-.55-.25-.24-.44-.54-.58-.89-.14-.35-.21-.75-.21-1.2,0-.42.07-.8.21-1.14.14-.34.32-.63.56-.88.23-.25.5-.44.81-.57.31-.14.63-.2.96-.2.4,0,.76.07,1.08.2s.58.32.8.57c.21.24.38.53.49.88.11.34.17.72.17,1.13,0,.07,0,.13,0,.19s0,.11-.02.14h-3.98c0,.24.05.45.13.65.08.2.19.37.33.51.14.14.31.25.51.33.19.08.4.12.62.12.43,0,.76-.1.99-.31.23-.21.39-.46.5-.76l.89.31ZM266.72,106.19c-.01-.38-.14-.7-.39-.96-.24-.26-.6-.39-1.07-.39-.22,0-.42.04-.59.12-.17.08-.32.18-.44.31-.12.13-.22.27-.29.43-.07.16-.11.33-.12.5h2.89Z"/>
          <path d="M268.76,107.96c0-.24.04-.45.12-.63.08-.19.19-.35.34-.48.14-.13.31-.24.51-.32.2-.08.41-.14.64-.18l1.43-.21c.16-.02.27-.07.32-.14.06-.07.08-.16.08-.25,0-.26-.09-.48-.27-.67-.18-.19-.47-.28-.88-.28-.37,0-.65.1-.85.3-.2.2-.32.46-.35.76l-.99-.23c.03-.25.1-.48.23-.69.12-.21.28-.39.47-.54.19-.15.41-.27.67-.35.25-.08.52-.13.81-.13.4,0,.73.05,1.01.16s.51.25.68.42c.18.18.3.38.38.62.08.23.12.48.12.74v2.65c0,.23,0,.42.02.56.01.14.03.24.04.31h-1.01c-.01-.07-.03-.15-.04-.26-.01-.11-.02-.26-.02-.45-.06.09-.14.19-.23.3s-.21.2-.35.29c-.14.09-.3.16-.49.21-.19.06-.4.08-.63.08-.27,0-.52-.04-.73-.13-.22-.09-.4-.2-.56-.35-.15-.14-.27-.31-.36-.5-.08-.19-.13-.39-.13-.6ZM270.68,108.67c.21,0,.41-.03.6-.08.19-.05.35-.14.48-.26s.24-.28.32-.48c.08-.2.12-.45.12-.73v-.24l-1.62.24c-.22.04-.4.12-.55.25s-.22.31-.22.54c0,.2.08.38.23.53.15.16.36.24.63.24Z"/>
          <path d="M274.82,109.38v-5.29h.99v.7c.17-.29.4-.51.7-.65.3-.14.6-.21.91-.21.33,0,.64.08.93.24s.51.41.65.76c.21-.38.48-.64.79-.79.32-.14.64-.21.98-.21.23,0,.45.04.67.12s.42.2.59.37c.17.17.31.37.41.63s.15.55.15.9v3.43h-1.02v-3.32c0-.34-.09-.63-.27-.86-.18-.23-.46-.35-.85-.35-.37,0-.66.13-.88.38-.22.25-.34.57-.34.95v3.2h-1.03v-3.32c0-.34-.09-.63-.26-.86-.18-.23-.46-.35-.86-.35-.37,0-.67.12-.9.37s-.33.57-.33.97v3.19h-1.02Z"/>
          <path d="M284.69,107.67c.04.28.16.51.36.7.21.19.5.29.87.29.29,0,.52-.07.67-.21.15-.14.23-.3.23-.5,0-.17-.06-.31-.18-.43-.12-.12-.29-.2-.51-.25l-.9-.2c-.42-.09-.74-.26-.97-.53s-.35-.58-.35-.96c0-.23.05-.44.15-.64.1-.2.23-.38.4-.53.17-.15.37-.28.6-.36.23-.09.47-.13.73-.13.36,0,.66.05.91.15.25.1.45.23.6.38.15.15.27.31.35.47s.13.3.16.42l-.91.34c-.01-.07-.04-.15-.08-.25-.04-.1-.1-.2-.18-.29-.08-.09-.19-.17-.33-.24-.14-.07-.31-.1-.52-.1-.26,0-.48.07-.64.21-.16.14-.24.31-.24.49,0,.34.2.55.61.64l.86.19c.48.1.85.29,1.09.57.25.27.37.61.37,1.01,0,.19-.04.38-.12.57-.08.19-.2.37-.36.53-.16.16-.36.29-.6.39-.24.1-.53.15-.86.15-.37,0-.68-.05-.94-.15-.26-.1-.48-.23-.65-.38-.17-.15-.3-.32-.4-.5s-.15-.35-.17-.5l.94-.33Z"/>
          <path d="M291.72,105.89c0-.6.05-1.16.16-1.67s.25-.98.44-1.41c.19-.43.41-.82.67-1.18s.53-.69.83-.99l.63.55c-.57.63-1.01,1.33-1.34,2.1-.33.77-.49,1.63-.49,2.6s.16,1.84.49,2.61c.33.77.77,1.47,1.34,2.09l-.63.55c-.29-.3-.57-.63-.83-.99s-.48-.75-.67-1.18c-.19-.43-.33-.9-.44-1.41s-.16-1.07-.16-1.67Z"/>
          <path d="M297.97,101.58c.37,0,.71.05,1,.16s.54.25.74.44c.2.19.36.41.46.67s.16.54.16.85c0,.42-.11.77-.32,1.06-.22.29-.5.5-.84.62.22.06.42.15.59.27.18.12.32.26.45.43s.21.35.27.55c.06.2.09.41.09.63,0,.31-.06.59-.18.85-.12.26-.28.48-.5.67-.21.19-.47.33-.76.44-.29.11-.62.16-.98.16h-2.73v-7.8h2.54ZM297.85,104.99c.44,0,.78-.12,1.02-.35.24-.23.36-.53.36-.9s-.13-.67-.38-.89c-.25-.22-.6-.33-1.05-.33h-1.3v2.46h1.34ZM298,108.43c.44,0,.79-.11,1.06-.34.27-.22.4-.53.4-.91s-.12-.68-.35-.92-.59-.36-1.07-.36h-1.54v2.52h1.5Z"/>
          <path d="M302.05,109.38v-7.8h1.1v7.8h-1.1Z"/>
          <path d="M309.16,103.69c-.02-.14-.07-.29-.14-.45-.07-.16-.18-.3-.31-.43s-.3-.24-.5-.32-.43-.13-.7-.13c-.22,0-.42.03-.6.1-.18.07-.34.16-.48.27-.14.12-.24.25-.31.41-.07.16-.11.33-.11.51,0,.28.08.52.25.72.17.2.42.34.75.41l1.17.25c.65.15,1.15.41,1.5.79.35.38.52.85.52,1.4,0,.3-.06.59-.19.87-.12.28-.3.52-.54.74s-.52.38-.85.51c-.33.13-.7.19-1.12.19-.47,0-.88-.07-1.23-.21-.35-.14-.64-.32-.88-.54-.24-.22-.42-.47-.56-.74-.13-.27-.22-.55-.25-.83l1.03-.33c.02.22.08.43.16.63.08.2.21.38.36.53.16.15.35.28.57.37.22.09.48.14.78.14.54,0,.94-.12,1.2-.36.27-.24.4-.54.4-.88,0-.28-.09-.53-.29-.75-.19-.22-.48-.38-.88-.46l-1.11-.24c-.56-.12-1.01-.37-1.37-.72s-.53-.83-.53-1.41c0-.31.07-.6.2-.88.13-.28.31-.52.54-.74.23-.21.5-.38.82-.51.32-.13.65-.19,1.01-.19.44,0,.82.06,1.13.18.31.12.57.28.78.47.21.19.37.4.49.63.12.23.2.45.24.66l-.97.34Z"/>
          <path d="M313.4,105.89c0,.6-.05,1.16-.16,1.67s-.25.98-.44,1.41c-.19.43-.41.82-.67,1.18s-.53.69-.83.99l-.63-.55c.56-.62,1-1.32,1.33-2.09.33-.77.5-1.64.5-2.61,0-.48-.04-.94-.13-1.38-.08-.43-.21-.84-.36-1.23-.16-.39-.35-.75-.58-1.1s-.48-.67-.76-.99l.63-.55c.29.3.57.63.83.99s.48.75.67,1.18c.19.43.33.9.44,1.41s.16,1.06.16,1.67Z"/>
        </g>
        <g>
          <g>
            <path d="M254.94,180.55c.37,0,.71.05,1,.16.29.11.54.25.74.44.2.19.36.41.46.67.11.26.16.54.16.85,0,.42-.11.77-.32,1.06-.22.29-.5.5-.84.62.22.06.42.15.59.27.18.12.32.26.45.43s.21.35.27.55c.06.2.09.41.09.63,0,.31-.06.59-.18.85-.12.26-.28.48-.5.67-.21.19-.47.33-.76.44-.29.11-.62.16-.98.16h-2.73v-7.8h2.54ZM254.82,183.96c.44,0,.78-.12,1.02-.35.24-.23.36-.53.36-.9s-.13-.67-.38-.89c-.25-.22-.6-.33-1.05-.33h-1.3v2.46h1.34ZM254.97,187.4c.44,0,.79-.11,1.06-.34.27-.22.4-.53.4-.91s-.12-.68-.35-.92-.59-.36-1.07-.36h-1.54v2.52h1.5Z"/>
            <path d="M261.85,184.1c-.15-.02-.3-.03-.45-.03-.43,0-.78.13-1.05.38s-.4.67-.4,1.25v2.65h-1.03v-5.29h1.01v.92c.1-.21.21-.37.34-.5.13-.13.26-.23.4-.31.14-.08.28-.13.43-.16.15-.03.29-.04.42-.04.07,0,.14,0,.2.01.06,0,.11.02.14.02v1.1Z"/>
            <path d="M265.22,182.89c.4,0,.76.07,1.09.21s.62.34.86.59c.24.25.43.54.56.88.13.34.2.71.2,1.12s-.07.78-.2,1.12-.32.64-.56.89-.53.45-.86.59c-.33.14-.69.21-1.09.21s-.76-.07-1.09-.21c-.33-.14-.62-.34-.86-.59s-.43-.55-.56-.89-.2-.72-.2-1.12.07-.78.2-1.12c.13-.34.32-.64.56-.88.24-.25.53-.45.86-.59s.69-.21,1.09-.21ZM265.22,187.59c.22,0,.43-.04.63-.12.2-.08.37-.2.53-.36.15-.16.28-.36.36-.59.09-.23.13-.51.13-.81s-.04-.58-.13-.81c-.09-.23-.21-.43-.36-.59-.15-.16-.33-.28-.53-.36-.2-.08-.41-.12-.63-.12s-.43.04-.63.12c-.2.08-.37.2-.53.36-.15.16-.28.36-.36.59-.09.23-.13.5-.13.81s.04.58.13.81c.09.24.21.43.36.59.15.16.33.28.53.36.2.08.41.12.63.12Z"/>
            <path d="M268.89,186.93c0-.23.04-.45.12-.63.08-.19.19-.35.34-.48.14-.13.31-.24.51-.32.2-.08.41-.14.64-.18l1.43-.21c.16-.02.27-.07.32-.14.06-.07.08-.16.08-.25,0-.26-.09-.48-.27-.67-.18-.19-.47-.28-.88-.28-.37,0-.65.1-.85.3-.2.2-.32.46-.35.76l-.99-.23c.03-.25.1-.48.23-.69s.28-.39.47-.54c.19-.15.41-.27.67-.35s.52-.13.81-.13c.4,0,.73.05,1.01.16s.51.25.68.42c.18.18.3.38.38.62.08.23.12.48.12.74v2.65c0,.24,0,.42.02.56s.03.24.04.31h-1.01c-.01-.07-.03-.15-.04-.26-.01-.11-.02-.26-.02-.45-.06.1-.14.19-.23.3s-.21.2-.35.29c-.14.09-.3.16-.49.21-.19.05-.4.08-.63.08-.27,0-.52-.04-.73-.13-.22-.09-.4-.2-.56-.35-.15-.14-.27-.31-.36-.5-.08-.19-.13-.39-.13-.61ZM270.8,187.64c.21,0,.41-.03.6-.08.19-.05.35-.14.48-.26.14-.12.24-.28.32-.48.08-.2.12-.45.12-.73v-.24l-1.62.24c-.22.04-.4.12-.55.25-.15.13-.22.31-.22.54,0,.2.08.38.23.53.15.16.36.24.63.24Z"/>
            <path d="M278.66,187.54c-.12.26-.32.48-.6.67-.27.19-.62.28-1.04.28-.39,0-.74-.07-1.04-.21-.31-.14-.57-.34-.79-.59-.22-.25-.38-.55-.5-.89-.12-.34-.18-.71-.18-1.11,0-.37.06-.73.18-1.06.12-.33.29-.63.51-.88s.48-.45.79-.6c.31-.15.65-.23,1.02-.23.23,0,.44.03.62.08.18.05.34.12.47.2s.24.18.33.29.15.21.2.32v-3.42h1.02v6.99c0,.26,0,.47.02.65.01.18.03.29.03.33h-1c-.01-.06-.03-.15-.04-.28s-.02-.27-.02-.43v-.09ZM275.57,185.68c0,.27.03.52.1.75.07.23.17.43.3.6s.29.3.48.4c.19.1.41.14.66.14.23,0,.45-.05.64-.15.19-.1.35-.23.48-.4.13-.17.23-.37.3-.61.07-.23.1-.49.1-.76,0-.55-.13-.99-.4-1.33-.27-.34-.64-.51-1.12-.51-.23,0-.45.05-.64.14s-.36.22-.49.38c-.14.17-.24.36-.31.59-.07.23-.11.48-.11.75Z"/>
            <path d="M283.62,183.85c-.21,0-.41.04-.6.12-.19.08-.36.19-.51.35-.15.15-.27.35-.36.58-.09.23-.13.5-.13.81s.04.57.13.8c.09.23.21.43.35.58.15.16.32.28.52.36.2.08.4.12.62.12.25,0,.46-.04.63-.11.17-.07.32-.17.43-.28.11-.11.2-.23.27-.36.07-.13.11-.24.14-.35l.91.4c-.07.19-.16.38-.29.58s-.29.37-.48.53c-.2.16-.43.29-.7.39-.27.1-.57.15-.92.15-.39,0-.75-.07-1.07-.21-.33-.14-.61-.34-.84-.59-.24-.25-.42-.55-.56-.89s-.2-.71-.2-1.12.07-.79.2-1.13c.14-.34.32-.64.56-.88.24-.25.52-.44.85-.58.33-.14.68-.21,1.05-.21.35,0,.66.05.93.15.27.1.5.23.69.39.19.16.35.34.47.54.12.2.21.4.26.6l-.93.4c-.04-.13-.09-.26-.15-.4-.07-.13-.16-.25-.27-.36-.11-.11-.25-.19-.41-.26-.16-.07-.36-.1-.58-.1Z"/>
            <path d="M286.9,186.93c0-.23.04-.45.12-.63.08-.19.19-.35.34-.48.14-.13.31-.24.51-.32.2-.08.41-.14.64-.18l1.43-.21c.16-.02.27-.07.32-.14.06-.07.08-.16.08-.25,0-.26-.09-.48-.27-.67-.18-.19-.47-.28-.88-.28-.37,0-.65.1-.85.3-.2.2-.32.46-.35.76l-.99-.23c.03-.25.1-.48.23-.69s.28-.39.47-.54c.19-.15.41-.27.67-.35s.52-.13.81-.13c.4,0,.73.05,1.01.16s.51.25.68.42c.18.18.3.38.38.62.08.23.12.48.12.74v2.65c0,.24,0,.42.02.56s.03.24.04.31h-1.01c-.01-.07-.03-.15-.04-.26-.01-.11-.02-.26-.02-.45-.06.1-.14.19-.23.3s-.21.2-.35.29c-.14.09-.3.16-.49.21-.19.05-.4.08-.63.08-.27,0-.52-.04-.73-.13-.22-.09-.4-.2-.56-.35-.15-.14-.27-.31-.36-.5-.08-.19-.13-.39-.13-.61ZM288.81,187.64c.21,0,.41-.03.6-.08.19-.05.35-.14.48-.26.14-.12.24-.28.32-.48.08-.2.12-.45.12-.73v-.24l-1.62.24c-.22.04-.4.12-.55.25-.15.13-.22.31-.22.54,0,.2.08.38.23.53.15.16.36.24.63.24Z"/>
            <path d="M293.4,186.64c.04.28.16.51.36.7.21.19.5.29.87.29.29,0,.52-.07.67-.21.15-.14.23-.3.23-.5,0-.17-.06-.31-.18-.43-.12-.12-.29-.2-.51-.25l-.9-.2c-.42-.09-.74-.26-.97-.53-.23-.26-.35-.58-.35-.96,0-.23.05-.44.15-.64.1-.2.23-.38.4-.53.17-.15.37-.27.6-.36.23-.09.47-.13.73-.13.36,0,.66.05.91.15.25.1.45.23.6.38.15.15.27.31.35.47.08.16.13.3.16.42l-.91.34c-.01-.07-.04-.15-.08-.25-.04-.1-.1-.2-.18-.29-.08-.09-.19-.17-.33-.24-.14-.07-.31-.1-.52-.1-.26,0-.48.07-.64.21-.16.14-.24.31-.24.49,0,.34.2.55.61.64l.86.19c.48.1.85.29,1.09.57.25.28.37.61.37,1.01,0,.19-.04.38-.12.57-.08.19-.2.37-.36.53-.16.16-.36.29-.6.39-.24.1-.53.15-.86.15-.37,0-.68-.05-.94-.15-.26-.1-.48-.23-.65-.39-.17-.15-.3-.32-.4-.5s-.15-.35-.17-.5l.94-.33Z"/>
            <path d="M299.31,183.05h1.14v.94h-1.14v2.75c0,.24.06.42.17.54.11.12.3.18.57.18.07,0,.14,0,.22-.01.08,0,.14-.02.19-.03v.88s-.13.04-.25.06c-.12.03-.28.04-.45.04-.46,0-.81-.13-1.08-.39-.26-.26-.4-.63-.4-1.12v-2.9h-1.01v-.94h.29c.29,0,.49-.08.62-.23.13-.15.19-.35.19-.58v-.86h.95v1.67Z"/>
          </g>
          <g>
            <g>
              <path d="M252.4,203.01v-7.8h1.1v7.8h-1.1Z"/>
              <path d="M255.83,201.31c.04.28.16.51.36.7.21.19.5.29.87.29.29,0,.52-.07.67-.21.15-.14.23-.3.23-.5,0-.17-.06-.31-.18-.43-.12-.12-.29-.2-.51-.25l-.9-.2c-.42-.09-.74-.26-.97-.53s-.35-.58-.35-.96c0-.23.05-.44.15-.64.1-.2.23-.38.4-.53.17-.15.37-.28.6-.36.23-.09.47-.13.73-.13.36,0,.66.05.91.15.25.1.45.23.6.38.15.15.27.31.35.47s.13.3.16.42l-.91.34c-.01-.07-.04-.15-.08-.25-.04-.1-.1-.2-.18-.29-.08-.09-.19-.17-.33-.24-.14-.07-.31-.1-.52-.1-.26,0-.48.07-.64.21-.16.14-.24.31-.24.49,0,.34.2.55.61.64l.86.19c.48.1.85.29,1.09.57.25.27.37.61.37,1.01,0,.19-.04.38-.12.57-.08.19-.2.37-.36.53-.16.16-.36.29-.6.39-.24.1-.53.15-.86.15-.37,0-.68-.05-.94-.15-.26-.1-.48-.23-.65-.38-.17-.15-.3-.32-.4-.5s-.15-.35-.17-.5l.94-.33Z"/>
              <path d="M262.63,197.56c.4,0,.76.07,1.09.21.33.14.62.34.86.59s.43.54.56.89.2.71.2,1.12-.07.78-.2,1.12-.32.64-.56.89c-.24.25-.53.45-.86.59s-.69.21-1.09.21-.76-.07-1.09-.21-.62-.34-.86-.59c-.24-.25-.43-.55-.56-.89s-.2-.72-.2-1.12.07-.78.2-1.12.32-.64.56-.89.53-.45.86-.59c.33-.14.69-.21,1.09-.21ZM262.63,202.25c.22,0,.43-.04.63-.12.2-.08.37-.2.53-.36.15-.16.28-.36.36-.59.09-.24.13-.51.13-.81s-.04-.58-.13-.81c-.09-.23-.21-.43-.36-.59-.15-.16-.33-.28-.53-.36-.2-.08-.41-.12-.63-.12s-.43.04-.63.12c-.2.08-.37.2-.53.36-.15.16-.28.36-.36.59-.09.23-.13.5-.13.81s.04.58.13.81c.09.23.21.43.36.59.15.16.33.28.53.36.2.08.41.12.63.12Z"/>
              <path d="M268.86,198.51c-.21,0-.41.04-.6.12s-.36.19-.51.35-.27.35-.36.58c-.09.23-.13.5-.13.81s.04.57.13.8c.09.23.21.42.35.58.15.16.32.28.52.36s.4.12.62.12c.25,0,.46-.04.63-.11.17-.07.32-.17.43-.27.11-.11.2-.23.27-.36.07-.13.11-.24.14-.35l.91.4c-.07.19-.16.38-.29.58-.12.2-.29.37-.48.53-.2.16-.43.29-.7.39-.27.1-.57.15-.92.15-.39,0-.75-.07-1.07-.21-.33-.14-.61-.34-.84-.59-.24-.25-.42-.55-.56-.89-.14-.34-.2-.71-.2-1.12s.07-.79.2-1.13.32-.64.56-.89c.24-.25.52-.44.85-.58s.68-.21,1.05-.21c.35,0,.66.05.93.15.27.1.5.23.69.39s.35.34.47.54c.12.2.21.4.26.6l-.93.4c-.04-.13-.09-.26-.15-.4-.07-.13-.16-.25-.27-.36-.11-.11-.25-.19-.41-.26-.16-.07-.36-.1-.58-.1Z"/>
              <path d="M273.5,203.01h-1.03v-7.96h1.03v3.29c.19-.28.43-.48.71-.59.29-.12.58-.18.89-.18s.59.05.83.16c.24.11.44.25.59.44.16.19.28.41.35.67.08.26.12.53.12.83v3.36h-1.03v-3.18c0-.18-.02-.36-.06-.52s-.11-.3-.21-.42-.23-.22-.38-.29c-.16-.07-.35-.1-.58-.1-.2,0-.37.04-.52.11s-.28.17-.38.3c-.1.12-.18.27-.24.44-.06.17-.09.35-.09.55v3.11Z"/>
              <path d="M281.56,198.77c-.15-.02-.3-.03-.45-.03-.43,0-.78.13-1.05.38s-.4.67-.4,1.25v2.65h-1.03v-5.29h1.01v.92c.1-.21.21-.37.34-.5s.26-.23.4-.31.28-.13.43-.16c.15-.03.29-.04.42-.04.07,0,.14,0,.2.01s.11.01.14.02v1.1Z"/>
              <path d="M284.93,197.56c.4,0,.76.07,1.09.21.33.14.62.34.86.59s.43.54.56.89.2.71.2,1.12-.07.78-.2,1.12-.32.64-.56.89c-.24.25-.53.45-.86.59s-.69.21-1.09.21-.76-.07-1.09-.21-.62-.34-.86-.59c-.24-.25-.43-.55-.56-.89s-.2-.72-.2-1.12.07-.78.2-1.12.32-.64.56-.89.53-.45.86-.59c.33-.14.69-.21,1.09-.21ZM284.93,202.25c.22,0,.43-.04.63-.12.2-.08.37-.2.53-.36.15-.16.28-.36.36-.59.09-.24.13-.51.13-.81s-.04-.58-.13-.81c-.09-.23-.21-.43-.36-.59-.15-.16-.33-.28-.53-.36-.2-.08-.41-.12-.63-.12s-.43.04-.63.12c-.2.08-.37.2-.53.36-.15.16-.28.36-.36.59-.09.23-.13.5-.13.81s.04.58.13.81c.09.23.21.43.36.59.15.16.33.28.53.36.2.08.41.12.63.12Z"/>
              <path d="M289.96,203.01h-1.03v-5.29h1.01v.76c.19-.33.43-.56.73-.7.29-.14.59-.21.9-.21s.59.05.83.16c.24.11.44.25.59.44.16.19.28.41.35.67.08.26.12.53.12.83v3.36h-1.03v-3.18c0-.18-.02-.36-.06-.52s-.11-.3-.21-.42-.23-.22-.38-.29c-.16-.07-.35-.1-.58-.1-.21,0-.39.04-.54.12-.15.08-.28.18-.39.31s-.18.29-.23.46c-.05.18-.08.36-.08.56v3.06Z"/>
              <path d="M297.36,197.56c.4,0,.76.07,1.09.21.33.14.62.34.86.59s.43.54.56.89.2.71.2,1.12-.07.78-.2,1.12-.32.64-.56.89c-.24.25-.53.45-.86.59s-.69.21-1.09.21-.76-.07-1.09-.21-.62-.34-.86-.59c-.24-.25-.43-.55-.56-.89s-.2-.72-.2-1.12.07-.78.2-1.12.32-.64.56-.89.53-.45.86-.59c.33-.14.69-.21,1.09-.21ZM297.36,202.25c.22,0,.43-.04.63-.12.2-.08.37-.2.53-.36.15-.16.28-.36.36-.59.09-.24.13-.51.13-.81s-.04-.58-.13-.81c-.09-.23-.21-.43-.36-.59-.15-.16-.33-.28-.53-.36-.2-.08-.41-.12-.63-.12s-.43.04-.63.12c-.2.08-.37.2-.53.36-.15.16-.28.36-.36.59-.09.23-.13.5-.13.81s.04.58.13.81c.09.23.21.43.36.59.15.16.33.28.53.36.2.08.41.12.63.12Z"/>
              <path d="M304.85,202.38c-.15.28-.37.48-.66.61-.29.13-.59.19-.9.19s-.58-.06-.83-.17c-.25-.11-.45-.26-.62-.45-.17-.19-.3-.41-.39-.67-.09-.26-.14-.54-.14-.84v-3.33h1.03v3.18c0,.18.02.36.07.52s.11.31.21.43c.1.12.22.22.37.3.15.07.33.11.55.11.42,0,.73-.12.94-.37s.31-.58.31-.98v-3.19h1.03v4.31c0,.21,0,.41.02.58.01.17.02.31.04.4h-.99c-.01-.06-.03-.15-.03-.28,0-.13-.01-.25-.01-.36Z"/>
              <path d="M308,201.31c.04.28.16.51.36.7.21.19.5.29.87.29.29,0,.52-.07.67-.21.15-.14.23-.3.23-.5,0-.17-.06-.31-.18-.43-.12-.12-.29-.2-.51-.25l-.9-.2c-.42-.09-.74-.26-.97-.53s-.35-.58-.35-.96c0-.23.05-.44.15-.64.1-.2.23-.38.4-.53.17-.15.37-.28.6-.36.23-.09.47-.13.73-.13.36,0,.66.05.91.15.25.1.45.23.6.38.15.15.27.31.35.47s.13.3.16.42l-.91.34c-.01-.07-.04-.15-.08-.25-.04-.1-.1-.2-.18-.29-.08-.09-.19-.17-.33-.24-.14-.07-.31-.1-.52-.1-.26,0-.48.07-.64.21-.16.14-.24.31-.24.49,0,.34.2.55.61.64l.86.19c.48.1.85.29,1.09.57.25.27.37.61.37,1.01,0,.19-.04.38-.12.57-.08.19-.2.37-.36.53-.16.16-.36.29-.6.39-.24.1-.53.15-.86.15-.37,0-.68-.05-.94-.15-.26-.1-.48-.23-.65-.38-.17-.15-.3-.32-.4-.5s-.15-.35-.17-.5l.94-.33Z"/>
            </g>
            <g>
              <g>
                <path d="M258.29,217.68l-.1-1.1c-.09.15-.21.31-.35.46s-.32.29-.53.41c-.21.12-.45.22-.71.29s-.57.11-.9.11c-.49,0-.96-.09-1.42-.26-.46-.18-.86-.44-1.21-.78-.35-.34-.63-.77-.84-1.28s-.31-1.09-.31-1.75.11-1.24.33-1.75.51-.93.87-1.27c.36-.34.78-.6,1.24-.78.46-.18.94-.26,1.42-.26.42,0,.82.06,1.19.17.37.11.7.27,1,.48.3.21.55.45.77.74.22.29.38.61.49.96l-.98.42c-.18-.56-.48-1-.91-1.31s-.95-.47-1.56-.47c-.35,0-.69.06-1.02.19s-.62.32-.88.57-.46.58-.62.96c-.16.38-.24.83-.24,1.35s.08.97.23,1.36.35.71.61.96.54.45.87.58c.33.13.67.19,1.02.19.43,0,.8-.07,1.1-.2s.55-.31.74-.51c.19-.21.33-.43.42-.67.09-.24.14-.46.15-.66h-2.71v-.97h3.73v3.82h-.87Z"/>
                <path d="M263.67,213.44c-.15-.02-.3-.03-.45-.03-.43,0-.78.13-1.05.38s-.4.67-.4,1.25v2.65h-1.03v-5.29h1.01v.92c.1-.21.21-.37.34-.5s.26-.23.4-.31.28-.13.43-.16c.15-.03.29-.04.42-.04.07,0,.14,0,.2.01s.11.01.14.02v1.1Z"/>
                <path d="M267.03,212.23c.4,0,.76.07,1.09.21.33.14.62.34.86.59s.43.54.56.89.2.71.2,1.12-.07.78-.2,1.12-.32.64-.56.89c-.24.25-.53.45-.86.59s-.69.21-1.09.21-.76-.07-1.09-.21-.62-.34-.86-.59c-.24-.25-.43-.55-.56-.89s-.2-.72-.2-1.12.07-.78.2-1.12.32-.64.56-.89.53-.45.86-.59c.33-.14.69-.21,1.09-.21ZM267.03,216.92c.22,0,.43-.04.63-.12.2-.08.37-.2.53-.36.15-.16.28-.36.36-.59.09-.24.13-.51.13-.81s-.04-.58-.13-.81c-.09-.23-.21-.43-.36-.59-.15-.16-.33-.28-.53-.36-.2-.08-.41-.12-.63-.12s-.43.04-.63.12c-.2.08-.37.2-.53.36-.15.16-.28.36-.36.59-.09.23-.13.5-.13.81s.04.58.13.81c.09.23.21.43.36.59.15.16.33.28.53.36.2.08.41.12.63.12Z"/>
                <path d="M274.52,217.04c-.15.28-.37.48-.66.61-.29.13-.59.19-.9.19s-.58-.06-.83-.17c-.25-.11-.45-.26-.62-.45-.17-.19-.3-.41-.39-.67-.09-.26-.14-.54-.14-.84v-3.33h1.03v3.18c0,.18.02.36.07.52s.11.31.21.43c.1.12.22.22.37.3.15.07.33.11.55.11.42,0,.73-.12.94-.37s.31-.58.31-.98v-3.19h1.03v4.31c0,.21,0,.41.02.58.01.17.02.31.04.4h-.99c-.01-.06-.03-.15-.03-.28,0-.13-.01-.25-.01-.36Z"/>
                <path d="M277.24,219.77v-7.38h1v.83c.15-.26.37-.49.67-.67.3-.18.67-.27,1.1-.27.4,0,.75.07,1.05.21.3.14.56.34.76.59.2.25.36.54.46.88.11.34.16.7.16,1.08s-.05.76-.17,1.1c-.11.34-.27.63-.48.88-.21.25-.47.45-.78.59-.3.14-.65.21-1.04.21-.41,0-.76-.08-1.06-.25-.29-.17-.51-.37-.66-.6v2.8h-1.02ZM281.38,215.03c0-.26-.04-.51-.11-.73s-.18-.42-.31-.58c-.13-.17-.3-.29-.49-.39-.19-.09-.41-.14-.65-.14s-.45.05-.64.14c-.19.1-.36.23-.5.39-.14.17-.25.36-.32.58s-.11.47-.11.73.04.52.11.75c.07.23.18.43.32.59.14.17.31.29.5.38s.41.14.64.14.46-.05.65-.14c.19-.09.35-.22.49-.38s.24-.36.31-.59c.07-.23.11-.48.11-.75Z"/>
                <path d="M286.24,214.2c0-.6.05-1.16.16-1.67s.25-.98.44-1.41c.19-.43.41-.82.67-1.18s.53-.69.83-.99l.63.55c-.57.63-1.01,1.33-1.34,2.1-.33.77-.49,1.63-.49,2.6s.16,1.84.49,2.61c.33.77.77,1.47,1.34,2.09l-.63.55c-.29-.3-.57-.63-.83-.99s-.48-.75-.67-1.18c-.19-.43-.33-.9-.44-1.41s-.16-1.07-.16-1.67Z"/>
                <path d="M292.48,209.88c.37,0,.71.05,1,.16s.54.25.74.44c.2.19.36.41.46.67s.16.54.16.85c0,.42-.11.77-.32,1.06-.22.29-.5.5-.84.62.22.06.42.15.59.27.18.12.32.26.45.43s.21.35.27.55c.06.2.09.41.09.63,0,.31-.06.59-.18.85-.12.26-.28.48-.5.67-.21.19-.47.33-.76.44-.29.11-.62.16-.98.16h-2.73v-7.8h2.54ZM292.36,213.29c.44,0,.78-.12,1.02-.35.24-.23.36-.53.36-.9s-.13-.67-.38-.89c-.25-.22-.6-.33-1.05-.33h-1.3v2.46h1.34ZM292.52,216.74c.44,0,.79-.11,1.06-.34.27-.22.4-.53.4-.91s-.12-.68-.35-.92-.59-.36-1.07-.36h-1.54v2.52h1.5Z"/>
                <path d="M296.56,217.68v-7.8h1.1v7.8h-1.1Z"/>
                <path d="M305.55,217.68l-.1-1.1c-.09.15-.21.31-.35.46s-.32.29-.53.41c-.21.12-.45.22-.71.29s-.57.11-.9.11c-.49,0-.96-.09-1.42-.26-.46-.18-.86-.44-1.21-.78-.35-.34-.63-.77-.84-1.28s-.31-1.09-.31-1.75.11-1.24.33-1.75.51-.93.87-1.27c.36-.34.78-.6,1.24-.78.46-.18.94-.26,1.42-.26.42,0,.82.06,1.19.17.37.11.7.27,1,.48.3.21.55.45.77.74.22.29.38.61.49.96l-.98.42c-.18-.56-.48-1-.91-1.31s-.95-.47-1.56-.47c-.35,0-.69.06-1.02.19s-.62.32-.88.57-.46.58-.62.96c-.16.38-.24.83-.24,1.35s.08.97.23,1.36.35.71.61.96.54.45.87.58c.33.13.67.19,1.02.19.43,0,.8-.07,1.1-.2s.55-.31.74-.51c.19-.21.33-.43.42-.67.09-.24.14-.46.15-.66h-2.71v-.97h3.73v3.82h-.87Z"/>
                <path d="M309.83,214.2c0,.6-.05,1.16-.16,1.67s-.25.98-.44,1.41c-.19.43-.41.82-.67,1.18s-.53.69-.83.99l-.63-.55c.56-.62,1-1.32,1.33-2.09.33-.77.5-1.64.5-2.61,0-.48-.04-.94-.13-1.38-.08-.43-.21-.84-.36-1.23-.16-.39-.35-.75-.58-1.1s-.48-.67-.76-.99l.63-.55c.29.3.57.63.83.99s.48.75.67,1.18c.19.43.33.9.44,1.41s.16,1.06.16,1.67Z"/>
              </g>
              <g>
                <path class="cls-8" d="M143.15,173.78c0,9.61-7.79,17.4-17.4,17.4s-17.4-7.79-17.4-17.4,7.79-17.4,17.4-17.4,17.4,7.79,17.4,17.4h0Z"/>
                <path class="cls-6" d="M151.85,173.78c0,14.42-11.69,26.1-26.11,26.1s-26.11-11.69-26.11-26.1,11.69-26.1,26.11-26.1,26.11,11.69,26.11,26.1h0Z"/>
                <path class="cls-8" d="M159.69,173.78c0,18.74-15.19,33.93-33.94,33.93s-33.94-15.19-33.94-33.93,15.19-33.93,33.94-33.93,33.94,15.19,33.94,33.93h0Z"/>
                <path class="cls-6" d="M168.17,173.78c0,23.43-18.99,42.42-42.42,42.42s-42.42-18.99-42.42-42.42,18.99-42.42,42.42-42.42,42.42,18.99,42.42,42.42h0Z"/>
                <path class="cls-8" d="M176.66,173.78c0,28.11-22.79,50.9-50.91,50.9s-50.91-22.79-50.91-50.9,22.79-50.9,50.91-50.9,50.91,22.79,50.91,50.9h0Z"/>
                <path class="cls-6" d="M185.31,173.78c0,32.89-26.67,59.55-59.56,59.55s-59.56-26.66-59.56-59.55,26.67-59.55,59.56-59.55,59.56,26.66,59.56,59.55h0Z"/>
                <path class="cls-9" d="M34.93,94.47c-4.68,0-8.47-3.79-8.47-8.47s3.79-8.47,8.47-8.47,8.47,3.79,8.47,8.47c0,4.68-3.8,8.46-8.47,8.47h0Z"/>
                <path class="cls-5" d="M34.93,94.47c-4.68,0-8.47-3.79-8.47-8.47s3.79-8.47,8.47-8.47,8.47,3.79,8.47,8.47c0,4.68-3.8,8.46-8.47,8.47h0Z"/>
                <path class="cls-3" d="M41.9,86c0,3.85-3.12,6.97-6.97,6.97s-6.97-3.12-6.97-6.97,3.12-6.97,6.97-6.97,6.97,3.12,6.97,6.97h0Z"/>
                <path class="cls-10" d="M34.93,78.02c-4.4,0-7.97,3.57-7.97,7.97s3.57,7.97,7.97,7.97,7.97-3.57,7.97-7.97-3.57-7.97-7.97-7.97h0ZM37.57,89.41h-4.28v-6.82h1.15v5.75h3.13v1.07h0Z"/>
                <path class="cls-9" d="M53.74,94.47c-4.68,0-8.47-3.79-8.47-8.47s3.79-8.47,8.47-8.47,8.47,3.79,8.47,8.47c0,4.68-3.8,8.46-8.47,8.47h0Z"/>
                <path class="cls-5" d="M53.74,94.47c-4.68,0-8.47-3.79-8.47-8.47s3.79-8.47,8.47-8.47,8.47,3.79,8.47,8.47c0,4.68-3.8,8.46-8.47,8.47h0Z"/>
                <path class="cls-3" d="M60.71,86c0,3.85-3.12,6.97-6.97,6.97s-6.97-3.12-6.97-6.97,3.12-6.97,6.97-6.97,6.97,3.12,6.97,6.97h0Z"/>
                <path d="M54.27,83.61h-1.24v2.08h1.24c.31.02.62-.08.86-.28.21-.19.33-.47.32-.75,0-.29-.11-.57-.32-.77-.24-.2-.55-.3-.86-.28h0Z"/>
                <path d="M53.74,78.02c-4.4,0-7.97,3.57-7.97,7.97s3.57,7.97,7.97,7.97,7.97-3.57,7.97-7.97c0-4.4-3.56-7.97-7.96-7.97h-.01ZM56.62,89.41h-1.31l-1.43-2.69h-.85v2.69h-1.16v-6.82h2.62c.3,0,.61.05.89.16.25.1.48.25.67.44.18.19.33.41.43.66.1.26.15.53.15.81.04.93-.61,1.76-1.53,1.94l1.53,2.81Z"/>
                <path class="cls-11" d="M34.19,64.44l-.08-.25-1.57-5.27.26-.09,2.26-.67.2.11.03.11,1.56,5.23-.25.09-2.41.74h0ZM33.2,59.27l1.34,4.49,1.66-.51-1.34-4.49-1.66.51h0Z"/>
                <path class="cls-11" d="M32.47,59.49l-.08-.26-1.46-4.92c-1.51-5.05.92-8.47.92-8.5.69-1.14,1.78-1.98,3.05-2.37.28-.08.56-.14.85-.16h.06c.23,0,1.94-.11,3.12.65l.22.09,1.07,3.56c.12-.03.23-.06.35-.1l-1.4-4.7c-.08-.3.08-.6.37-.71l.68-.2c1.93-.64,4.03-.52,5.88.32h0l.19.09,1.59,5.35-.1.18c-1.09,1.71-2.77,2.96-4.73,3.49l-.68.2c-.31.09-.64-.09-.73-.4l-.26-.88c-.14-.04-.29-.06-.44-.05l-.07.04h-.08c-.52.93-1.3,1.69-2.24,2.18h0c-.16.07-.33.14-.51.19-.55.17-1.13.15-1.66-.07-.36-.15-.76-.19-1.13-.09-.36.1-.66.34-.83.67-.18.33-.22.71-.12,1.07l1.31,4.4-.25.09-2.85.85h0ZM36.14,43.8h-.39c-.25.02-.49.07-.73.14-1.14.36-2.1,1.13-2.72,2.16h0s-2.28,3.27-.86,8.04l1.37,4.71,2.07-.63-1.16-3.9c-.15-.49-.09-1.02.16-1.47.24-.44.65-.77,1.13-.9.48-.13.98-.09,1.44.1.43.18.91.2,1.35.06.15-.04.29-.1.43-.16h0c.85-.44,1.54-1.12,2.01-1.95.07-.15.22-.26.39-.28.3-.08.61-.07.9.05.12.04.21.13.25.25l.29.96s.03.05.06.04c0,0,0,0,.01,0l.68-.2c1.83-.49,3.41-1.64,4.43-3.23l-1.44-4.92c-1.73-.77-3.68-.87-5.47-.28l-.69.2-.03.03s0,.03,0,.05l1.44,4.86c.03.09.01.19-.04.26-.16.26-.81.36-.81.36-.25.03-.48-.12-.55-.36l-1.02-3.35-.08-.04c-.75-.41-1.6-.61-2.46-.58M40.9,50.17h0"/>
                <path class="cls-11" d="M54.49,75.15l-.26-.07-2.42-.72.08-.26,1.53-5.09.2-.11.11.03,2.41.72-.07.26-1.57,5.24h0ZM52.45,74l1.65.51,1.36-4.48-1.66-.51-1.35,4.48h0Z"/>
                <path class="cls-11" d="M56.21,70.23l-.26-.07-2.84-.84.07-.26,1.24-4.15c.1-.36.06-.74-.12-1.06-.17-.32-.46-.55-.81-.65-.38-.09-.78-.06-1.13.1-.53.21-1.12.24-1.66.07-.15-.05-.32-.11-.51-.18h0c-.95-.49-1.73-1.25-2.25-2.19h-.08l-.07-.04c-.15,0-.3,0-.44.05l-.26.88c-.09.31-.42.49-.73.4l-.69-.2c-1.96-.53-3.66-1.78-4.75-3.49l-.11-.18,1.6-5.35.19-.1c1.85-.84,3.95-.95,5.88-.33l.69.2c.31.09.49.42.4.73l-1.43,4.68c.11.04.23.08.35.1l1.07-3.56.23-.09c1.17-.76,2.88-.67,3.11-.65h.06c.29.02.57.07.85.15,1.26.4,2.33,1.25,3.01,2.38,0,.03,2.44,3.45.94,8.5l-1.52,5.16ZM53.75,68.95l2.1.62,1.39-4.67c1.42-4.77-.84-8.01-.86-8.04h0c-.62-1.02-1.58-1.79-2.72-2.16-.23-.07-.48-.12-.72-.13h-.06c-.07,0-1.73-.12-2.8.57-.02.02-.05.03-.08.04l-1.02,3.35c-.07.24-.3.39-.54.37,0,0-.65-.11-.82-.37-.05-.08-.07-.17-.04-.26l1.45-4.86s0-.06-.04-.07c0,0,0,0,0,0l-.68-.2c-1.8-.59-3.75-.49-5.48.28l-1.46,4.92c1.03,1.59,2.6,2.74,4.43,3.23l.69.2s.06-.01.07-.04l.28-.96c.04-.12.14-.21.26-.25.29-.11.6-.13.9-.05.17.02.32.13.4.29.47.84,1.18,1.51,2.03,1.95h0c.14.06.28.11.42.16.44.13.92.1,1.34-.09.46-.19.97-.22,1.44-.1.47.14.86.47,1.1.9.25.45.31.98.16,1.47l-1.14,3.9Z"/>
                <path class="cls-9" d="M143.56,94.31c-4.68,0-8.47-3.79-8.47-8.47s3.79-8.47,8.47-8.47,8.47,3.79,8.47,8.47c0,4.68-3.79,8.47-8.47,8.47h0Z"/>
                <path class="cls-5" d="M143.56,94.31c-4.68,0-8.47-3.79-8.47-8.47s3.79-8.47,8.47-8.47,8.47,3.79,8.47,8.47c0,4.68-3.79,8.47-8.47,8.47h0Z"/>
                <path class="cls-3" d="M150.53,85.84c0,3.85-3.12,6.97-6.97,6.97s-6.97-3.12-6.97-6.97,3.12-6.97,6.97-6.97,6.97,3.12,6.97,6.97h0Z"/>
                <path class="cls-10" d="M143.56,77.87c-4.4,0-7.97,3.57-7.97,7.97s3.57,7.97,7.97,7.97,7.97-3.57,7.97-7.97-3.57-7.97-7.97-7.97h0ZM146.2,89.25h-4.28v-6.82h1.15v5.73h3.13v1.1h0Z"/>
                <path class="cls-9" d="M162.37,94.31c-4.68,0-8.47-3.79-8.47-8.47s3.79-8.47,8.47-8.47,8.47,3.79,8.47,8.47c0,4.68-3.8,8.47-8.47,8.47h0Z"/>
                <path class="cls-5" d="M162.37,94.31c-4.68,0-8.47-3.79-8.47-8.47s3.79-8.47,8.47-8.47,8.47,3.79,8.47,8.47c0,4.68-3.8,8.47-8.47,8.47h0Z"/>
                <path class="cls-3" d="M169.34,85.84c0,3.85-3.12,6.97-6.97,6.97s-6.97-3.12-6.97-6.97,3.12-6.97,6.97-6.97,6.97,3.12,6.97,6.97h0Z"/>
                <path d="M162.91,83.45h-1.24v2.08h1.24c.31.02.61-.08.85-.28.42-.42.43-1.1,0-1.52,0,0,0,0,0,0-.24-.2-.54-.3-.85-.28h0Z"/>
                <path d="M162.37,77.87c-4.4,0-7.97,3.57-7.97,7.97s3.57,7.97,7.97,7.97,7.97-3.57,7.97-7.97h0c0-4.41-3.57-7.97-7.97-7.97h0ZM165.25,89.25h-1.31l-1.43-2.7h-.84v2.7h-1.15v-6.82h2.61c.3,0,.61.05.89.16.26.09.49.25.68.44.18.19.32.41.42.66.1.26.15.53.15.81.04.93-.61,1.76-1.53,1.94l1.51,2.81Z"/>
                <path class="cls-11" d="M142.83,64.25l-.09-.25-1.55-5.24.26-.08,2.26-.67.2.1.04.11,1.56,5.23-.25.09-2.42.72h0ZM141.81,59.11l1.34,4.49,1.66-.51-1.34-4.49-1.66.51h0Z"/>
                <path class="cls-11" d="M141.1,59.35l-.08-.26-1.46-4.92c-1.53-5.05.91-8.47.94-8.5.68-1.13,1.76-1.98,3.02-2.38.27-.09.56-.14.84-.15h.06c.23,0,1.94-.11,3.12.66l.22.08,1.06,3.56c.12-.02.23-.06.35-.1l-1.4-4.7c-.09-.31.09-.64.4-.73l.68-.2c1.93-.63,4.03-.51,5.88.33h0l.19.1,1.59,5.35-.1.18c-1.09,1.72-2.79,2.96-4.75,3.49l-.68.2c-.31.09-.64-.09-.73-.4l-.26-.88c-.14-.04-.29-.05-.44-.05l-.07.04h-.08c-.52.93-1.3,1.68-2.24,2.17h0c-.18.08-.35.14-.51.19-.55.17-1.13.15-1.66-.07-.36-.16-.76-.19-1.13-.1-.34.1-.63.33-.8.65-.18.33-.22.71-.12,1.07l1.31,4.4-.25.09-2.87.89h0ZM144.78,43.65h-.4c-.25.01-.49.06-.73.13-1.14.37-2.1,1.13-2.72,2.16h0s-2.28,3.27-.86,8.05l1.39,4.67,2.1-.62-1.16-3.9c-.14-.49-.08-1.02.16-1.47.24-.44.64-.76,1.12-.9.48-.13.99-.09,1.44.1.43.18.9.2,1.35.07.15-.05.29-.1.43-.16h0c.84-.44,1.54-1.11,2-1.94.07-.16.22-.27.4-.29.3-.08.61-.07.9.05.12.04.21.13.26.25l.28.96s.04.05.07.04l.68-.2c1.82-.49,3.4-1.63,4.43-3.22l-1.46-4.92c-1.73-.77-3.68-.87-5.48-.28l-.68.2s-.02,0-.04,0c0,.01,0,.03,0,.05l1.44,4.86c.03.09.02.19-.04.26-.17.26-.81.36-.82.36-.24.04-.48-.1-.56-.34l-1.02-3.35-.07-.04c-.76-.41-1.6-.61-2.46-.58M149.53,50.02h0"/>
                <path class="cls-11" d="M163.12,74.99l-.26-.07-2.41-.72.08-.26,1.53-5.09.2-.11.11.03,2.41.72-.07.26-1.57,5.23h0ZM161.08,73.84l1.66.51,1.34-4.49-1.66-.51-1.34,4.49h0Z"/>
                <path class="cls-11" d="M164.84,70.07l-.26-.07-2.85-.84.07-.26,1.26-4.15c.1-.36.06-.74-.12-1.07-.17-.31-.46-.55-.8-.65-.38-.1-.78-.06-1.13.09-.53.21-1.12.24-1.66.07-.17-.05-.34-.11-.51-.18h-.03c-.18-.1-1.67-.91-2.25-2.19h-.08l-.07-.04c-.15-.01-.3,0-.44.05l-.26.88c-.09.31-.42.49-.73.4l-.68-.2c-1.96-.53-3.66-1.77-4.75-3.49l-.1-.18,1.59-5.35.19-.1c1.85-.84,3.95-.96,5.88-.33l.68.2c.31.09.49.42.4.73l-1.4,4.71c.11.04.23.08.35.1l1.06-3.56.23-.09c1.17-.75,2.88-.67,3.11-.65h.06c.29.02.57.07.84.16,1.26.4,2.33,1.24,3.02,2.37.03.04,2.44,3.45.94,8.5l-1.55,5.13ZM162.38,68.8l2.1.63,1.39-4.67c1.42-4.77-.83-8.01-.86-8.04h0c-.61-1.02-1.58-1.79-2.72-2.16-.24-.07-.48-.12-.73-.13h-.06c-.07,0-1.73-.12-2.8.57-.02.01-.05.03-.07.04l-1.02,3.35c-.07.24-.3.4-.55.37,0,0-.65-.1-.82-.37-.05-.08-.07-.18-.04-.26l1.44-4.86s0-.06-.04-.07c0,0,0,0,0,0l-.67-.22c-1.8-.59-3.75-.49-5.48.28l-1.46,4.92c1.02,1.59,2.6,2.75,4.42,3.24l.68.2s.06,0,.07-.04c0,0,0,0,0,0l.28-.96c.04-.12.14-.21.26-.25.29-.11.6-.12.9-.04.17.02.32.13.4.28.47.84,1.18,1.52,2.03,1.95h0c.14.06.28.11.42.16.44.14.92.12,1.35-.06.46-.19.96-.23,1.44-.1.47.14.87.46,1.11.89.26.45.32.98.18,1.47l-1.18,3.9Z"/>
                <path class="cls-9" d="M197.88,94.31c-4.68,0-8.47-3.79-8.47-8.47s3.79-8.47,8.47-8.47,8.47,3.79,8.47,8.47c0,4.68-3.79,8.47-8.47,8.47h0Z"/>
                <path class="cls-5" d="M197.88,94.31c-4.68,0-8.47-3.79-8.47-8.47s3.79-8.47,8.47-8.47,8.47,3.79,8.47,8.47c0,4.68-3.79,8.47-8.47,8.47h0Z"/>
                <path class="cls-3" d="M204.85,85.84c0,3.85-3.12,6.97-6.97,6.97s-6.97-3.12-6.97-6.97,3.12-6.97,6.97-6.97,6.97,3.12,6.97,6.97h0Z"/>
                <path class="cls-10" d="M197.88,77.87c-4.4,0-7.97,3.57-7.97,7.97s3.57,7.97,7.97,7.97,7.97-3.57,7.97-7.97-3.57-7.97-7.97-7.97h0ZM200.52,89.25h-4.28v-6.82h1.15v5.73h3.13v1.1h0Z"/>
                <path class="cls-9" d="M216.69,94.31c-4.68,0-8.47-3.79-8.47-8.47s3.79-8.47,8.47-8.47,8.47,3.79,8.47,8.47c0,4.68-3.79,8.47-8.47,8.47h0Z"/>
                <path class="cls-5" d="M216.69,94.31c-4.68,0-8.47-3.79-8.47-8.47s3.79-8.47,8.47-8.47,8.47,3.79,8.47,8.47c0,4.68-3.79,8.47-8.47,8.47h0Z"/>
                <path class="cls-3" d="M223.66,85.84c0,3.85-3.12,6.97-6.97,6.97s-6.97-3.12-6.97-6.97,3.12-6.97,6.97-6.97,6.97,3.12,6.97,6.97h0Z"/>
                <path d="M217.22,83.45h-1.24v2.08h1.24c.31.02.61-.08.85-.28.42-.41.43-1.08.02-1.5,0,0-.02-.02-.02-.02-.24-.2-.54-.3-.85-.28h0Z"/>
                <path d="M216.69,77.87c-4.4,0-7.98,3.56-7.98,7.97,0,4.4,3.57,7.98,7.97,7.98,4.4,0,7.98-3.56,7.98-7.97h0c0-4.41-3.57-7.98-7.97-7.98h0ZM219.57,89.25h-1.31l-1.43-2.7h-.84v2.7h-1.16v-6.82h2.61c.3,0,.61.05.89.16.26.09.49.25.68.44.18.19.32.41.42.66.1.26.15.53.15.81.01.45-.13.89-.41,1.25-.29.35-.68.6-1.13.69l1.54,2.81Z"/>
                <path class="cls-11" d="M197.13,64.25l-.09-.25-1.56-5.24.26-.08,2.26-.67.2.1.04.11,1.56,5.23-.25.09-2.41.72h0ZM196.14,59.11l1.34,4.49,1.66-.51-1.34-4.49-1.66.51h0Z"/>
                <path class="cls-11" d="M195.42,59.35l-.08-.26-1.46-4.92c-1.5-5.05.92-8.47.94-8.5.68-1.13,1.76-1.98,3.02-2.38.27-.09.56-.14.84-.15h.06c.23,0,1.94-.11,3.12.66l.22.08,1.06,3.56c.12-.02.24-.06.35-.1l-1.4-4.7c-.09-.31.09-.64.4-.73l.68-.2c1.93-.63,4.03-.51,5.88.33h0l.19.1,1.59,5.35-.1.18c-1.09,1.72-2.79,2.96-4.75,3.49l-.68.2c-.31.09-.64-.09-.73-.4l-.26-.88c-.14-.04-.29-.05-.44-.05l-.07.04h-.08c-.52.93-1.3,1.68-2.24,2.17h-.03c-.18.08-.35.14-.51.19-.55.17-1.13.15-1.66-.07-.36-.16-.76-.19-1.14-.1-.34.1-.63.33-.8.65-.18.33-.22.71-.12,1.07l1.31,4.4-.25.09-2.84.89h0ZM199.1,43.65h-.4c-.25.01-.49.06-.72.13-1.14.37-2.1,1.13-2.72,2.16h0s-2.28,3.27-.86,8.05l1.39,4.67,2.1-.62-1.16-3.9c-.14-.49-.08-1.02.16-1.47.24-.44.64-.76,1.12-.9.48-.13.99-.09,1.44.1.43.18.9.2,1.35.07.15-.05.29-.1.43-.16h0c.84-.43,1.54-1.1,2-1.93.07-.16.22-.27.4-.29.3-.08.61-.07.9.05.12.04.22.13.26.25l.28.96s.04.05.07.04l.69-.2c1.83-.49,3.41-1.64,4.43-3.23l-1.46-4.92c-1.73-.77-3.68-.87-5.48-.28l-.68.2s-.02,0-.04,0c0,.01,0,.03,0,.05l1.45,4.86c.02.09.01.19-.04.26-.17.26-.81.36-.82.36-.25.03-.48-.12-.55-.36l-.99-3.35s-.05-.02-.08-.04c-.76-.41-1.6-.61-2.46-.58M203.88,49.99h0"/>
                <path class="cls-11" d="M217.44,74.99l-.26-.07-2.41-.72.08-.26,1.53-5.09.2-.11.11.03,2.4.72-.07.26-1.57,5.23h0ZM215.41,73.84l1.66.51,1.34-4.49-1.66-.51-1.34,4.49h0Z"/>
                <path class="cls-11" d="M219.15,70.07l-.26-.07-2.84-.84.07-.26,1.24-4.15c.1-.36.06-.74-.12-1.07-.16-.31-.44-.54-.78-.65-.38-.1-.78-.06-1.13.09-.53.21-1.12.24-1.66.07-.17-.05-.34-.11-.51-.18h-.03c-.18-.1-1.67-.91-2.25-2.19h-.08l-.07-.04c-.15-.01-.3,0-.44.05l-.26.88c-.09.31-.42.49-.73.4l-.68-.2c-1.96-.53-3.66-1.77-4.75-3.49l-.1-.18,1.59-5.35.19-.1c1.85-.84,3.95-.96,5.88-.33l.68.2c.31.09.49.42.4.73l-1.4,4.71c.11.04.23.08.35.1l1.06-3.56.23-.09c1.17-.75,2.88-.67,3.11-.65h.06c.29.02.57.07.84.16,1.26.4,2.33,1.24,3.02,2.37.03.04,2.44,3.45.94,8.5l-1.55,5.13ZM216.7,68.8l2.09.63,1.39-4.67c1.42-4.77-.83-8.01-.86-8.04h0c-.61-1.02-1.58-1.79-2.72-2.16-.24-.07-.48-.12-.73-.13h-.06c-.07,0-1.73-.12-2.8.57-.02.01-.05.03-.07.04l-1.02,3.35c-.07.24-.3.4-.55.37,0,0-.65-.1-.82-.37-.05-.08-.07-.18-.04-.26l1.44-4.86s0-.06-.04-.07c0,0,0,0,0,0l-.68-.2c-1.8-.59-3.75-.49-5.48.28l-1.46,4.92c1.03,1.58,2.61,2.73,4.43,3.21l.68.2s.06,0,.07-.04c0,0,0,0,0,0l.28-.96c.04-.12.14-.21.26-.25.29-.11.6-.12.9-.04.17.02.32.13.39.28.47.84,1.18,1.51,2.03,1.95h0c.14.06.28.11.43.16.44.14.92.12,1.34-.06.46-.19.96-.23,1.44-.1.47.14.87.46,1.11.89.25.45.31.98.16,1.47l-1.16,3.91Z"/>
                <path class="cls-9" d="M89.24,94.31c-4.68,0-8.47-3.79-8.47-8.47s3.79-8.47,8.47-8.47,8.47,3.79,8.47,8.47c0,4.68-3.8,8.47-8.47,8.47h0Z"/>
                <path class="cls-5" d="M89.24,94.31c-4.68,0-8.47-3.79-8.47-8.47s3.79-8.47,8.47-8.47,8.47,3.79,8.47,8.47c0,4.68-3.8,8.47-8.47,8.47h0Z"/>
                <path class="cls-3" d="M96.22,85.84c0,3.85-3.12,6.97-6.97,6.97s-6.97-3.12-6.97-6.97,3.12-6.97,6.97-6.97,6.97,3.12,6.97,6.97h0Z"/>
                <path class="cls-10" d="M89.24,77.87c-4.4,0-7.97,3.57-7.96,7.97,0,4.4,3.57,7.97,7.97,7.96,4.4,0,7.96-3.57,7.96-7.97s-3.57-7.97-7.97-7.97h0ZM91.89,89.25h-4.28v-6.82h1.15v5.73h3.13v1.1h0Z"/>
                <path class="cls-9" d="M108.06,94.31c-4.68,0-8.47-3.79-8.47-8.47s3.79-8.47,8.47-8.47,8.47,3.79,8.47,8.47c0,4.68-3.8,8.47-8.47,8.47h0Z"/>
                <path class="cls-5" d="M108.06,94.31c-4.68,0-8.47-3.79-8.47-8.47s3.79-8.47,8.47-8.47,8.47,3.79,8.47,8.47c0,4.68-3.8,8.47-8.47,8.47h0Z"/>
                <path class="cls-3" d="M115.03,85.84c0,3.85-3.12,6.97-6.97,6.97s-6.97-3.12-6.97-6.97,3.12-6.97,6.97-6.97,6.97,3.12,6.97,6.97h0Z"/>
                <path d="M108.59,83.45h-1.25v2.08h1.25c.31.02.61-.08.85-.28.42-.42.43-1.1,0-1.52,0,0,0,0,0,0-.24-.2-.54-.3-.85-.28h0Z"/>
                <path d="M108.06,77.87c-4.4,0-7.97,3.57-7.97,7.97s3.57,7.97,7.97,7.97,7.97-3.57,7.97-7.97h0c0-4.41-3.57-7.97-7.97-7.97h0ZM110.93,89.25h-1.31l-1.43-2.7h-.85v2.7h-1.16v-6.82h2.61c.3,0,.61.05.89.16.26.1.49.25.68.44.18.19.32.41.42.66.1.26.15.53.15.81.04.93-.61,1.76-1.53,1.94l1.53,2.81Z"/>
                <path class="cls-11" d="M88.51,64.25l-.09-.25-1.56-5.24.26-.08,2.26-.67.2.1.04.11,1.56,5.23-.25.09-2.41.72h0ZM87.52,59.11l1.34,4.49,1.66-.51-1.34-4.49-1.66.51h0Z"/>
                <path class="cls-11" d="M86.77,59.35l-.08-.26-1.44-4.94c-1.53-5.05.91-8.47.94-8.5.68-1.13,1.76-1.98,3.02-2.38.27-.09.56-.14.84-.15h.06c.23,0,1.94-.11,3.12.66l.22.08,1.06,3.56c.12-.02.23-.06.35-.1l-1.4-4.7c-.09-.31.09-.64.4-.73l.68-.2c1.93-.63,4.03-.51,5.88.33h0l.19.1,1.59,5.35-.1.18c-1.09,1.72-2.79,2.96-4.75,3.49l-.68.2c-.31.09-.64-.09-.73-.4l-.26-.88c-.14-.04-.29-.05-.44-.05l-.07.04h-.08c-.52.93-1.3,1.7-2.25,2.19h0c-.18.08-.35.14-.51.19-.55.17-1.13.15-1.66-.07-.36-.16-.76-.19-1.13-.1-.34.1-.63.33-.8.65-.18.33-.22.71-.12,1.07l1.31,4.4-.25.09-2.88.89h0ZM90.44,43.65h-.39c-.25.01-.49.06-.73.13-1.14.37-2.1,1.13-2.72,2.16h0s-2.28,3.27-.86,8.05l1.39,4.67,2.1-.62-1.16-3.9c-.14-.49-.08-1.02.16-1.47.24-.44.64-.76,1.12-.9.48-.13.98-.09,1.44.1.43.18.9.2,1.35.07.15-.05.29-.1.43-.16h0c.85-.44,1.54-1.11,2.01-1.94.07-.16.22-.27.39-.29.3-.08.61-.07.9.05.12.04.21.13.26.25l.28.96s.04.05.07.04l.68-.2c1.83-.49,3.41-1.64,4.43-3.23l-1.46-4.92c-1.73-.77-3.68-.87-5.48-.28l-.68.2s-.02,0-.04,0c0,.01,0,.03,0,.05l1.46,4.9c.03.09.02.19-.04.26-.17.26-.81.36-.82.36-.25.03-.48-.12-.55-.36l-1.02-3.35-.07-.04c-.76-.41-1.61-.61-2.47-.58M95.23,50.02h0"/>
                <path class="cls-11" d="M108.8,74.99l-.26-.07-2.41-.72.07-.26,1.53-5.09.2-.11.11.03,2.41.72-.07.26-1.57,5.23h0ZM106.77,73.84l1.66.51,1.34-4.49-1.66-.51-1.34,4.49h0Z"/>
                <path class="cls-11" d="M110.52,70.07l-.26-.07-2.85-.84.07-.26,1.24-4.15c.1-.36.06-.74-.12-1.07-.17-.31-.46-.55-.8-.65-.38-.1-.78-.06-1.14.09-.53.21-1.11.24-1.66.07-.17-.05-.34-.11-.51-.18h0c-.18-.1-1.67-.91-2.25-2.19h-.08l-.07-.04c-.15-.01-.3,0-.44.05l-.26.88c-.09.31-.42.49-.73.4l-.67-.21c-1.96-.53-3.66-1.77-4.75-3.49l-.1-.18,1.59-5.35.19-.1c1.85-.84,3.95-.96,5.88-.33l.68.2c.31.09.49.42.4.73l-1.4,4.71c.11.04.23.08.35.1l1.06-3.56.23-.09c1.17-.75,2.88-.67,3.11-.65h.06c.29.02.57.07.84.16,1.26.4,2.33,1.24,3.02,2.37,0,.04,2.44,3.45.94,8.5l-1.57,5.14ZM108.07,68.8l2.1.63,1.39-4.67c1.42-4.77-.83-8.01-.86-8.04h0c-.61-1.03-1.58-1.79-2.72-2.16-.23-.07-.48-.12-.72-.13h-.06c-.97-.08-1.94.12-2.8.57-.02.02-.05.03-.08.04l-1.01,3.32c-.07.24-.3.4-.55.37,0,0-.65-.1-.82-.37-.05-.08-.07-.17-.04-.26l1.45-4.86s0-.06-.04-.07c0,0,0,0,0,0l-.68-.2c-1.8-.59-3.75-.49-5.48.28l-1.46,4.92c1.02,1.6,2.6,2.75,4.43,3.25l.69.2s.06,0,.07-.04c0,0,0,0,0,0l.28-.96c.04-.12.14-.21.26-.25.29-.11.6-.12.9-.04.17.02.32.13.4.28.47.84,1.18,1.52,2.03,1.95h0c.14.06.28.11.42.16.44.14.92.12,1.35-.06.46-.19.96-.23,1.44-.1.47.14.87.46,1.11.89.25.45.31.98.16,1.47l-1.16,3.91Z"/>
                <path class="cls-9" d="M125.75,182.42c-4.77,0-8.65-3.87-8.65-8.65s3.87-8.65,8.65-8.65,8.65,3.87,8.65,8.65-3.87,8.65-8.65,8.65h0Z"/>
                <path class="cls-5" d="M125.75,182.42c-4.77,0-8.65-3.87-8.65-8.65s3.87-8.65,8.65-8.65,8.65,3.87,8.65,8.65-3.87,8.65-8.65,8.65h0Z"/>
                <path class="cls-3" d="M132.84,173.78c0,3.92-3.18,7.09-7.09,7.09s-7.09-3.18-7.09-7.09,3.18-7.09,7.09-7.09,7.09,3.18,7.09,7.09h0Z"/>
                <path class="cls-11" d="M125.75,165.67c-4.48.01-8.1,3.66-8.09,8.14.01,4.48,3.66,8.1,8.14,8.09,4.47-.01,8.09-3.64,8.09-8.11s-3.63-8.11-8.11-8.11h-.03ZM128.7,175.95c-.17.28-.39.53-.65.74-.28.22-.59.39-.93.51-.38.13-.79.2-1.2.19-.46,0-.91-.08-1.34-.24-.85-.33-1.53-1-1.88-1.85-.38-.98-.38-2.07,0-3.05.18-.43.45-.81.78-1.13.32-.31.7-.55,1.11-.71.42-.17.86-.25,1.31-.25.4,0,.8.06,1.18.18.33.12.64.29.92.51.26.2.47.45.65.72.17.27.29.56.37.86l-1.1.37c-.05-.21-.14-.41-.24-.59-.11-.18-.24-.35-.41-.48-.18-.14-.38-.25-.59-.33-.25-.08-.51-.12-.78-.12-.29,0-.58.05-.84.16-.27.1-.52.26-.73.47-.22.23-.39.49-.51.79-.26.7-.26,1.47,0,2.18.11.29.29.56.51.78.21.21.46.37.74.47.27.11.57.16.86.16.27,0,.53-.04.78-.13.22-.08.42-.2.6-.35.17-.14.31-.32.43-.51.11-.18.2-.37.26-.57l1.08.36c-.08.3-.21.6-.38.86h0Z"/>
              </g>
            </g>
          </g>
        </g>
      </g>
    </g>
  </g>
  <rect class="cls-7" x="20.88" y="105.64" width="213.25" height="136.2"/>
  <rect class="cls-7" x="20.88" y="32.46" width="47.07" height="68.12"/>
  <rect class="cls-7" x="77.3" y="32.46" width="47.07" height="68.12"/>
  <rect class="cls-7" x="132.18" y="32.46" width="47.07" height="68.12"/>
  <rect class="cls-7" x="187.06" y="32.46" width="47.07" height="68.12"/>
  <g>
    <line class="cls-7" x1="239.97" y1="225.79" x2="321" y2="225.79"/>
    <polygon class="cls-1" points="240.88 228.5 235.45 225.79 240.88 223.07 240.88 228.5 240.88 228.5"/>
  </g>
</svg>