<?xml version="1.0" encoding="UTF-8"?>
<svg id="Layer_1" data-name="Layer 1" xmlns="http://www.w3.org/2000/svg" viewBox="0 0 422.74 303.54">
  <defs>
    <style>
      .cls-1 {
        fill: #fff;
      }

      .cls-2 {
        fill: none;
      }

      .cls-3 {
        fill: #999;
      }

      .cls-4 {
        fill: #3e434a;
      }

      .cls-5 {
        fill: #0082fc;
      }
    </style>
  </defs>
  <rect class="cls-5" x="-2.55" y="-2.81" width="427.53" height="262.32"/>
  <rect class="cls-5" x="-2.55" y="266.41" width="427.53" height="39.39"/>
  <g>
    <rect class="cls-4" x="-1" y="40.2" width="179.22" height="220.31"/>
    <path class="cls-1" d="M177.22,41.2v218.31H0V41.2h177.22M179.22,39.2H-2v222.31h181.22V39.2h0Z"/>
  </g>
  <rect class="cls-3" x="36.8" y="78.05" width="135.09" height="25"/>
  <rect class="cls-3" x="36.8" y="108.38" width="135.09" height="25"/>
  <rect class="cls-3" x="36.8" y="138.71" width="135.09" height="25"/>
  <rect class="cls-3" x="36.8" y="169.05" width="135.09" height="25"/>
  <rect class="cls-3" x="36.8" y="199.38" width="135.09" height="25"/>
  <rect class="cls-3" x="36.8" y="229.71" width="135.09" height="25"/>
  <g>
    <rect class="cls-2" x="-2.55" y="13.03" width="425.29" height="14.88"/>
    <path class="cls-1" d="M164.37,23.85v-10.83h1.47l3.02,7.43c.11.27.24.62.38,1.04.14.42.28.83.4,1.23.13-.39.26-.79.41-1.21.15-.42.27-.77.38-1.05l3-7.43h1.47v10.83h-1.02v-6.87c0-.38,0-.83.01-1.33s.01-1,.02-1.49c-.17.53-.35,1.05-.54,1.56s-.35.93-.48,1.26l-2.81,6.87h-.91l-2.83-6.87c-.13-.32-.29-.73-.46-1.23s-.37-1.03-.56-1.58c0,.46.02.95.03,1.46s.01.96.01,1.35v6.87h-.99Z"/>
    <path class="cls-1" d="M180.88,24.03c-.76,0-1.42-.18-1.97-.53-.55-.36-.98-.85-1.29-1.48-.3-.63-.45-1.35-.45-2.17s.15-1.55.45-2.18c.3-.63.71-1.13,1.25-1.5s1.16-.54,1.86-.54c.59,0,1.15.15,1.68.44.53.29.96.73,1.29,1.33.33.6.49,1.35.49,2.27v.43h-6.02c.02.93.27,1.67.76,2.22s1.14.83,1.96.83c.57,0,1.03-.13,1.4-.39s.62-.57.77-.93l.94.3c-.18.51-.54.95-1.08,1.34-.54.38-1.21.57-2.03.57ZM178.16,19.24h5.03c-.05-.79-.3-1.44-.73-1.96s-1.01-.77-1.74-.77c-.49,0-.92.12-1.29.37-.37.25-.67.58-.89.99-.22.41-.35.87-.38,1.37Z"/>
    <path class="cls-1" d="M188.8,24.03c-.8,0-1.46-.18-1.98-.54-.52-.36-.85-.88-1-1.57l.94-.23c.12.49.35.85.69,1.09.35.24.79.36,1.33.36.61,0,1.11-.14,1.48-.41.37-.28.56-.62.56-1.03,0-.66-.44-1.09-1.32-1.31l-1.32-.32c-1.39-.33-2.09-1.05-2.09-2.16,0-.46.12-.85.37-1.2.24-.34.58-.61,1.01-.81s.92-.29,1.46-.29c.77,0,1.37.17,1.82.52.45.35.77.81.96,1.4l-.9.23c-.13-.37-.34-.68-.63-.93s-.71-.37-1.24-.37-.98.13-1.33.39-.52.59-.52.99c0,.67.48,1.12,1.45,1.35l1.24.3c1.37.33,2.06,1.04,2.06,2.14,0,.47-.13.88-.39,1.24s-.61.64-1.07.84c-.46.2-.98.31-1.58.31Z"/>
    <path class="cls-1" d="M194.88,18.79v5.06h-.99v-10.83h.99v4.13c.25-.54.6-.93,1.04-1.17s.93-.37,1.47-.37c.82,0,1.49.26,2.01.77.52.51.77,1.25.77,2.21v5.25h-.99v-5.18c0-.66-.19-1.19-.56-1.57s-.87-.58-1.5-.58-1.17.2-1.6.61c-.43.41-.64.96-.64,1.66Z"/>
    <path class="cls-1" d="M207.03,23.85v-10.83h3.53c.77,0,1.41.15,1.93.44.52.3.91.7,1.17,1.2.26.51.4,1.07.4,1.7s-.13,1.21-.4,1.72c-.26.51-.66.91-1.17,1.2-.52.3-1.16.44-1.92.44h-2.51v4.11h-1.03ZM208.06,18.82h2.46c.84,0,1.47-.23,1.88-.69.42-.46.62-1.04.62-1.75s-.21-1.28-.62-1.74c-.42-.46-1.05-.69-1.89-.69h-2.46v4.87Z"/>
    <path class="cls-1" d="M216.18,23.85v-8.12h.96v1.26h.07c.16-.42.44-.75.85-1,.4-.25.86-.37,1.36-.37.08,0,.16,0,.26,0,.1,0,.18,0,.24.01v.99s-.11-.01-.22-.03c-.11-.01-.23-.02-.36-.02-.63,0-1.15.2-1.56.58-.41.39-.61.89-.61,1.49v5.21h-.99Z"/>
    <path class="cls-1" d="M224.45,24.03c-.71,0-1.33-.18-1.87-.53-.54-.36-.96-.85-1.26-1.48-.31-.63-.46-1.36-.46-2.18s.15-1.57.46-2.2.73-1.13,1.26-1.48c.54-.36,1.16-.53,1.87-.53s1.32.18,1.86.53c.54.36.96.85,1.27,1.48s.46,1.36.46,2.2-.15,1.55-.46,2.18c-.31.63-.73,1.12-1.27,1.48-.54.36-1.16.53-1.86.53ZM224.45,23.13c.56,0,1.03-.15,1.41-.45.39-.3.68-.7.88-1.2.2-.5.31-1.05.31-1.65s-.1-1.16-.31-1.66c-.2-.5-.5-.9-.89-1.21-.39-.3-.86-.45-1.41-.45s-1.02.15-1.41.45c-.38.3-.68.71-.88,1.21-.2.5-.31,1.06-.31,1.66s.1,1.15.3,1.65c.2.5.5.9.88,1.2s.86.45,1.41.45Z"/>
    <path class="cls-1" d="M233.48,15.73v.86h-1.92v7.27h-.98v-7.27h-1.59v-.86h1.59v-1.16c0-.44.1-.81.3-1.12s.46-.53.78-.69c.32-.16.67-.24,1.04-.24.26,0,.47.02.65.06s.32.08.42.13l-.28.85c-.08-.02-.17-.05-.28-.08-.11-.03-.25-.04-.41-.04-.4,0-.71.11-.92.34-.21.23-.32.55-.32.97v.97h1.92Z"/>
    <path class="cls-1" d="M235.74,14.23c-.2,0-.37-.07-.51-.2-.14-.14-.21-.3-.21-.49s.07-.35.21-.49c.14-.14.31-.2.51-.2s.37.07.51.2.21.3.21.49-.07.35-.21.49-.31.2-.51.2ZM235.23,23.85v-8.12h.99v8.12h-.99Z"/>
    <path class="cls-1" d="M239.7,13.03v10.83h-.99v-10.83h.99Z"/>
    <path class="cls-1" d="M245.47,24.03c-.76,0-1.42-.18-1.97-.53-.55-.36-.98-.85-1.29-1.48-.3-.63-.45-1.35-.45-2.17s.15-1.55.45-2.18c.3-.63.71-1.13,1.25-1.5s1.16-.54,1.86-.54c.59,0,1.15.15,1.68.44.53.29.96.73,1.29,1.33.33.6.49,1.35.49,2.27v.43h-6.02c.02.93.27,1.67.76,2.22s1.14.83,1.96.83c.57,0,1.03-.13,1.4-.39s.62-.57.77-.93l.94.3c-.18.51-.54.95-1.08,1.34-.54.38-1.21.57-2.03.57ZM242.75,19.24h5.03c-.05-.79-.3-1.44-.73-1.96s-1.01-.77-1.74-.77c-.49,0-.92.12-1.29.37-.37.25-.67.58-.89.99-.22.41-.35.87-.38,1.37Z"/>
    <path class="cls-1" d="M253.39,24.03c-.8,0-1.46-.18-1.98-.54-.52-.36-.85-.88-1-1.57l.94-.23c.12.49.35.85.69,1.09.35.24.79.36,1.33.36.61,0,1.11-.14,1.48-.41.37-.28.56-.62.56-1.03,0-.66-.44-1.09-1.32-1.31l-1.32-.32c-1.39-.33-2.09-1.05-2.09-2.16,0-.46.12-.85.37-1.2.24-.34.58-.61,1.01-.81s.92-.29,1.46-.29c.77,0,1.37.17,1.82.52.45.35.77.81.96,1.4l-.9.23c-.13-.37-.34-.68-.63-.93s-.71-.37-1.24-.37-.98.13-1.33.39-.52.59-.52.99c0,.67.48,1.12,1.45,1.35l1.24.3c1.37.33,2.06,1.04,2.06,2.14,0,.47-.13.88-.39,1.24s-.61.64-1.07.84c-.46.2-.98.31-1.58.31Z"/>
  </g>
  <g>
    <rect class="cls-2" x="2.37" y="281.62" width="420.37" height="14.88"/>
    <path class="cls-1" d="M64.33,292.45v-10.83h3.68c1.06,0,1.85.27,2.38.81.53.54.8,1.21.8,2.02,0,.68-.17,1.21-.5,1.6-.33.39-.74.64-1.23.77v.09c.34.02.68.15,1.01.37.33.22.6.53.82.92.22.39.32.86.32,1.41,0,.82-.28,1.5-.83,2.04s-1.41.81-2.57.81h-3.89ZM65.36,286.51h2.72c.63,0,1.15-.19,1.53-.58s.58-.88.58-1.46-.19-1.03-.56-1.39-.92-.54-1.65-.54h-2.63v3.97ZM65.36,291.53h2.83c.82,0,1.43-.18,1.83-.55.4-.37.6-.83.6-1.38,0-.41-.1-.78-.3-1.11-.2-.33-.48-.6-.83-.79-.36-.2-.77-.29-1.25-.29h-2.88v4.13Z"/>
    <path class="cls-1" d="M74.79,281.62v10.83h-.99v-10.83h.99Z"/>
    <path class="cls-1" d="M80.06,292.56c-.82,0-1.49-.26-2.01-.77-.52-.51-.77-1.25-.77-2.21v-5.25h.99v5.18c0,.66.19,1.19.56,1.57.37.39.87.58,1.5.58s1.17-.2,1.6-.61.64-.96.64-1.66v-5.07h.99v8.12h-.96v-1.5c-.25.57-.6.98-1.05,1.24-.45.25-.94.38-1.49.38Z"/>
    <path class="cls-1" d="M89.33,292.63c-.76,0-1.42-.18-1.97-.53-.55-.36-.98-.85-1.29-1.48-.3-.63-.45-1.35-.45-2.17s.15-1.54.45-2.18.71-1.13,1.25-1.5,1.16-.54,1.86-.54c.59,0,1.15.15,1.68.44.53.29.96.73,1.29,1.33.33.6.49,1.35.49,2.27v.43h-6.02c.02.92.27,1.67.76,2.22s1.14.83,1.96.83c.57,0,1.03-.13,1.4-.39s.62-.57.77-.93l.94.3c-.18.51-.54.95-1.08,1.34s-1.21.57-2.03.57ZM86.61,287.84h5.03c-.05-.79-.3-1.44-.73-1.96s-1.01-.77-1.74-.77c-.49,0-.92.12-1.29.37-.37.25-.67.58-.89.99s-.35.87-.38,1.37Z"/>
    <path class="cls-1" d="M97.41,284.33v.86h-1.67v5.35c0,.81.36,1.18,1.09,1.11.07,0,.15,0,.25-.03.1-.02.19-.04.28-.05l.2.85c-.21.07-.46.11-.74.12-.64.04-1.15-.11-1.52-.46-.37-.35-.55-.84-.55-1.47v-5.41h-1.21v-.86h1.21v-1.93h.99v1.93h1.67Z"/>
    <path class="cls-1" d="M102.15,292.63c-.71,0-1.33-.18-1.87-.53-.54-.36-.96-.85-1.26-1.48-.31-.63-.46-1.36-.46-2.18s.15-1.57.46-2.2c.31-.63.73-1.13,1.26-1.48.54-.36,1.16-.53,1.87-.53s1.32.18,1.86.53c.54.36.96.85,1.27,1.48.31.63.46,1.36.46,2.2s-.15,1.55-.46,2.18c-.31.63-.73,1.12-1.27,1.48-.54.36-1.16.53-1.86.53ZM102.15,291.73c.56,0,1.03-.15,1.41-.45.39-.3.68-.7.88-1.2.2-.5.31-1.05.31-1.65s-.1-1.16-.31-1.66c-.2-.5-.5-.9-.89-1.21-.39-.3-.86-.45-1.41-.45s-1.02.15-1.41.45c-.38.3-.68.71-.88,1.21-.2.5-.31,1.05-.31,1.66s.1,1.15.3,1.65c.2.5.5.9.88,1.2.39.3.86.45,1.41.45Z"/>
    <path class="cls-1" d="M110.97,292.63c-.71,0-1.33-.18-1.87-.53-.54-.36-.96-.85-1.26-1.48-.31-.63-.46-1.36-.46-2.18s.15-1.57.46-2.2c.31-.63.73-1.13,1.26-1.48.54-.36,1.16-.53,1.87-.53s1.32.18,1.86.53c.54.36.96.85,1.27,1.48.31.63.46,1.36.46,2.2s-.15,1.55-.46,2.18c-.31.63-.73,1.12-1.27,1.48-.54.36-1.16.53-1.86.53ZM110.97,291.73c.56,0,1.03-.15,1.41-.45.39-.3.68-.7.88-1.2.2-.5.31-1.05.31-1.65s-.1-1.16-.31-1.66c-.2-.5-.5-.9-.89-1.21-.39-.3-.86-.45-1.41-.45s-1.02.15-1.41.45c-.38.3-.68.71-.88,1.21-.2.5-.31,1.05-.31,1.66s.1,1.15.3,1.65c.2.5.5.9.88,1.2.39.3.86.45,1.41.45Z"/>
    <path class="cls-1" d="M119.37,284.33v.86h-1.67v5.35c0,.81.36,1.18,1.09,1.11.07,0,.15,0,.25-.03.1-.02.19-.04.28-.05l.2.85c-.21.07-.46.11-.74.12-.64.04-1.15-.11-1.52-.46-.37-.35-.55-.84-.55-1.47v-5.41h-1.21v-.86h1.21v-1.93h.99v1.93h1.67Z"/>
    <path class="cls-1" d="M122.05,287.39v5.06h-.99v-10.83h.99v4.13c.25-.54.6-.93,1.04-1.17.44-.25.93-.37,1.47-.37.82,0,1.49.26,2.01.77.52.51.77,1.25.77,2.21v5.25h-.99v-5.18c0-.66-.19-1.19-.56-1.57s-.87-.58-1.5-.58-1.17.2-1.6.61c-.43.41-.64.96-.64,1.66Z"/>
    <path class="cls-1" d="M138.41,292.6c-.91,0-1.72-.23-2.43-.68-.71-.46-1.26-1.1-1.66-1.93-.4-.83-.6-1.81-.6-2.94s.2-2.12.6-2.95c.4-.83.96-1.48,1.66-1.93.71-.46,1.52-.68,2.43-.68.77,0,1.46.16,2.06.47.6.31,1.1.74,1.48,1.27.39.54.64,1.14.75,1.81h-1.03c-.1-.49-.3-.94-.6-1.33s-.68-.7-1.13-.92c-.45-.22-.96-.33-1.53-.33-.68,0-1.3.18-1.86.53-.56.35-1.01.87-1.34,1.56-.33.68-.5,1.52-.5,2.51s.17,1.83.5,2.51c.33.68.78,1.2,1.34,1.55.56.35,1.17.52,1.85.52.57,0,1.08-.11,1.53-.34.45-.22.83-.53,1.13-.92.3-.39.5-.83.6-1.32h1.03c-.11.66-.36,1.26-.74,1.79s-.88.96-1.48,1.28c-.6.32-1.29.48-2.07.48Z"/>
    <path class="cls-1" d="M148.01,292.63c-.71,0-1.33-.18-1.87-.53-.54-.36-.96-.85-1.26-1.48-.31-.63-.46-1.36-.46-2.18s.15-1.57.46-2.2c.31-.63.73-1.13,1.26-1.48.54-.36,1.16-.53,1.87-.53s1.32.18,1.86.53c.54.36.96.85,1.27,1.48.31.63.46,1.36.46,2.2s-.15,1.55-.46,2.18c-.31.63-.73,1.12-1.27,1.48-.54.36-1.16.53-1.86.53ZM148.01,291.73c.56,0,1.03-.15,1.41-.45.39-.3.68-.7.88-1.2.2-.5.31-1.05.31-1.65s-.1-1.16-.31-1.66c-.2-.5-.5-.9-.89-1.21-.39-.3-.86-.45-1.41-.45s-1.02.15-1.41.45c-.38.3-.68.71-.88,1.21-.2.5-.31,1.05-.31,1.66s.1,1.15.3,1.65c.2.5.5.9.88,1.2.39.3.86.45,1.41.45Z"/>
    <path class="cls-1" d="M153.67,292.45v-8.12h.96v1.26h.07c.16-.42.44-.75.85-1,.4-.25.86-.37,1.36-.37.08,0,.16,0,.26,0,.1,0,.18,0,.24.01v.99s-.11-.01-.22-.03-.23-.02-.36-.02c-.63,0-1.15.19-1.56.58-.41.39-.61.89-.61,1.49v5.21h-.99Z"/>
    <path class="cls-1" d="M162.06,292.63c-.76,0-1.42-.18-1.97-.53-.55-.36-.98-.85-1.29-1.48-.3-.63-.45-1.35-.45-2.17s.15-1.54.45-2.18.71-1.13,1.25-1.5,1.16-.54,1.86-.54c.59,0,1.15.15,1.68.44.53.29.96.73,1.29,1.33.33.6.49,1.35.49,2.27v.43h-6.02c.02.92.27,1.67.76,2.22s1.14.83,1.96.83c.57,0,1.03-.13,1.4-.39s.62-.57.77-.93l.94.3c-.18.51-.54.95-1.08,1.34s-1.21.57-2.03.57ZM159.34,287.84h5.03c-.05-.79-.3-1.44-.73-1.96s-1.01-.77-1.74-.77c-.49,0-.92.12-1.29.37-.37.25-.67.58-.89.99s-.35.87-.38,1.37Z"/>
    <path class="cls-1" d="M175.02,292.63c-1.11,0-2-.27-2.66-.81-.66-.54-1.02-1.24-1.08-2.11h1.05c.05.64.34,1.14.85,1.47.51.34,1.12.51,1.84.51.54,0,1.01-.09,1.43-.27.41-.18.74-.43.98-.75.24-.32.36-.69.36-1.13,0-.54-.21-.96-.62-1.24s-.96-.53-1.63-.73l-1.28-.37c-.86-.25-1.53-.6-1.99-1.06-.47-.45-.7-1.02-.7-1.71,0-.59.16-1.1.47-1.55.31-.45.74-.79,1.27-1.04.54-.25,1.14-.37,1.81-.37s1.28.13,1.81.38c.52.25.93.59,1.24,1.02.3.43.47.92.49,1.48h-1.01c-.06-.6-.33-1.08-.79-1.42-.47-.35-1.05-.52-1.76-.52s-1.35.19-1.81.56c-.47.38-.7.85-.7,1.43,0,.37.11.68.32.93.21.25.48.45.81.61.33.16.66.29,1.01.39l1.13.33c.46.13.92.31,1.38.54.45.23.83.53,1.13.91.3.38.45.86.45,1.46s-.15,1.11-.45,1.57c-.3.46-.73.83-1.3,1.09-.56.27-1.24.4-2.02.4Z"/>
    <path class="cls-1" d="M180.98,295.49v-11.16h.96v1.56h.11c.11-.25.26-.5.46-.76.2-.26.46-.47.79-.65.33-.18.74-.26,1.24-.26.66,0,1.24.18,1.74.53.5.35.89.84,1.17,1.47.28.63.42,1.36.42,2.2s-.14,1.58-.42,2.21c-.28.63-.67,1.12-1.17,1.47-.5.35-1.08.53-1.75.53-.49,0-.9-.09-1.23-.27-.33-.18-.6-.4-.8-.66-.2-.26-.36-.52-.47-.77h-.08v4.56h-.99ZM184.41,291.73c.53,0,.98-.15,1.34-.44.37-.3.65-.69.84-1.2.19-.5.29-1.07.29-1.69s-.09-1.18-.28-1.67c-.19-.5-.47-.89-.84-1.18-.37-.29-.82-.44-1.35-.44s-.97.14-1.33.42c-.37.28-.64.67-.84,1.16-.19.49-.29,1.06-.29,1.71s.1,1.22.29,1.72c.19.5.47.9.84,1.18.37.29.81.43,1.33.43Z"/>
    <path class="cls-1" d="M193.23,292.63c-.76,0-1.42-.18-1.97-.53-.55-.36-.98-.85-1.29-1.48-.3-.63-.45-1.35-.45-2.17s.15-1.54.45-2.18.71-1.13,1.25-1.5,1.16-.54,1.86-.54c.59,0,1.15.15,1.68.44.53.29.96.73,1.29,1.33.33.6.49,1.35.49,2.27v.43h-6.02c.02.92.27,1.67.76,2.22s1.14.83,1.96.83c.57,0,1.03-.13,1.4-.39s.62-.57.77-.93l.94.3c-.18.51-.54.95-1.08,1.34s-1.21.57-2.03.57ZM190.51,287.84h5.03c-.05-.79-.3-1.44-.73-1.96s-1.01-.77-1.74-.77c-.49,0-.92.12-1.29.37-.37.25-.67.58-.89.99s-.35.87-.38,1.37Z"/>
    <path class="cls-1" d="M201.73,292.6c-.71,0-1.33-.18-1.87-.53-.54-.35-.96-.84-1.26-1.47-.31-.63-.46-1.35-.46-2.18s.15-1.56.46-2.19.73-1.12,1.26-1.48c.54-.36,1.16-.53,1.87-.53.55,0,1.03.1,1.46.31s.78.47,1.06.78c.28.32.47.64.58.97l-.94.29c-.06-.2-.19-.42-.37-.65s-.42-.42-.73-.58c-.3-.16-.66-.24-1.07-.24-.55,0-1.02.15-1.41.45-.38.3-.68.7-.88,1.2-.2.5-.31,1.06-.31,1.67s.1,1.15.31,1.65c.2.5.5.9.88,1.2.39.3.85.45,1.41.45.42,0,.78-.08,1.09-.25.31-.17.55-.37.74-.6.19-.24.31-.46.37-.67l.93.29c-.1.33-.29.66-.58.99-.28.33-.64.59-1.08.8-.43.21-.93.32-1.48.32Z"/>
    <path class="cls-1" d="M207.38,282.82c-.2,0-.37-.07-.51-.2-.14-.14-.21-.3-.21-.49s.07-.35.21-.49c.14-.14.31-.2.51-.2s.37.07.51.2.21.3.21.49-.07.35-.21.49-.31.2-.51.2ZM206.88,292.45v-8.12h.99v8.12h-.99Z"/>
    <path class="cls-1" d="M213.73,284.33v.86h-1.92v7.27h-.98v-7.27h-1.59v-.86h1.59v-1.16c0-.44.1-.81.3-1.12s.46-.53.78-.69c.32-.16.67-.24,1.04-.24.26,0,.47.02.65.06.18.04.32.08.42.13l-.28.85c-.08-.02-.17-.05-.28-.08-.11-.03-.25-.04-.41-.04-.4,0-.71.11-.92.34-.21.23-.32.55-.32.97v.97h1.92Z"/>
    <path class="cls-1" d="M215.99,282.82c-.2,0-.37-.07-.51-.2-.14-.14-.21-.3-.21-.49s.07-.35.21-.49c.14-.14.31-.2.51-.2s.37.07.51.2.21.3.21.49-.07.35-.21.49-.31.2-.51.2ZM215.49,292.45v-8.12h.99v8.12h-.99Z"/>
    <path class="cls-1" d="M222.13,292.6c-.71,0-1.33-.18-1.87-.53-.54-.35-.96-.84-1.26-1.47-.31-.63-.46-1.35-.46-2.18s.15-1.56.46-2.19.73-1.12,1.26-1.48c.54-.36,1.16-.53,1.87-.53.55,0,1.03.1,1.46.31s.78.47,1.06.78c.28.32.47.64.58.97l-.94.29c-.06-.2-.19-.42-.37-.65s-.42-.42-.73-.58c-.3-.16-.66-.24-1.07-.24-.55,0-1.02.15-1.41.45-.38.3-.68.7-.88,1.2-.2.5-.31,1.06-.31,1.67s.1,1.15.31,1.65c.2.5.5.9.88,1.2.39.3.85.45,1.41.45.42,0,.78-.08,1.09-.25.31-.17.55-.37.74-.6.19-.24.31-.46.37-.67l.93.29c-.1.33-.29.66-.58.99-.28.33-.64.59-1.08.8-.43.21-.93.32-1.48.32Z"/>
    <path class="cls-1" d="M229.56,292.63c-.49,0-.94-.1-1.35-.29-.4-.19-.73-.47-.97-.83s-.36-.81-.36-1.34.13-.96.4-1.28c.27-.32.63-.56,1.1-.72.47-.16,1.01-.28,1.62-.35.67-.08,1.2-.16,1.57-.23.37-.07.56-.26.56-.57v-.19c0-.54-.17-.97-.49-1.28-.33-.31-.8-.47-1.41-.47s-1.05.13-1.41.38c-.36.25-.61.55-.75.89l-.94-.32c.18-.44.43-.79.76-1.06.32-.27.69-.46,1.09-.58.4-.12.82-.19,1.24-.19.32,0,.65.04.99.13.34.08.65.23.94.43.29.2.53.48.7.83.18.35.27.8.27,1.33v5.51h-.97v-1.29h-.07c-.18.37-.48.71-.9,1.01s-.96.45-1.62.45ZM229.71,291.75c.49,0,.92-.11,1.29-.33s.64-.51.84-.88c.2-.37.3-.77.3-1.21v-1.16c-.09.09-.27.16-.52.23s-.53.12-.83.16-.55.08-.76.11c-.68.08-1.21.24-1.58.48-.37.24-.56.59-.56,1.07s.17.86.52,1.13c.35.27.78.4,1.31.4Z"/>
    <path class="cls-1" d="M238.35,284.33v.86h-1.67v5.35c0,.81.36,1.18,1.09,1.11.07,0,.15,0,.25-.03.1-.02.19-.04.28-.05l.2.85c-.21.07-.46.11-.74.12-.64.04-1.15-.11-1.52-.46-.37-.35-.55-.84-.55-1.47v-5.41h-1.21v-.86h1.21v-1.93h.99v1.93h1.67Z"/>
    <path class="cls-1" d="M240.54,282.82c-.2,0-.37-.07-.51-.2-.14-.14-.21-.3-.21-.49s.07-.35.21-.49c.14-.14.31-.2.51-.2s.37.07.51.2.21.3.21.49-.07.35-.21.49-.31.2-.51.2ZM240.04,292.45v-8.12h.99v8.12h-.99Z"/>
    <path class="cls-1" d="M246.68,292.63c-.71,0-1.33-.18-1.87-.53-.54-.36-.96-.85-1.26-1.48-.31-.63-.46-1.36-.46-2.18s.15-1.57.46-2.2c.31-.63.73-1.13,1.26-1.48.54-.36,1.16-.53,1.87-.53s1.32.18,1.86.53c.54.36.96.85,1.27,1.48.31.63.46,1.36.46,2.2s-.15,1.55-.46,2.18c-.31.63-.73,1.12-1.27,1.48-.54.36-1.16.53-1.86.53ZM246.68,291.73c.56,0,1.03-.15,1.41-.45.39-.3.68-.7.88-1.2.2-.5.31-1.05.31-1.65s-.1-1.16-.31-1.66c-.2-.5-.5-.9-.89-1.21-.39-.3-.86-.45-1.41-.45s-1.02.15-1.41.45c-.38.3-.68.71-.88,1.21-.2.5-.31,1.05-.31,1.66s.1,1.15.3,1.65c.2.5.5.9.88,1.2.39.3.86.45,1.41.45Z"/>
    <path class="cls-1" d="M253.32,287.39v5.06h-.99v-8.12h.95v1.5c.25-.56.6-.97,1.05-1.22.45-.25.94-.38,1.5-.38.82,0,1.49.26,2.01.77.51.51.77,1.25.77,2.21v5.25h-.98v-5.18c0-.66-.19-1.19-.56-1.57s-.87-.58-1.5-.58-1.17.2-1.6.61c-.43.41-.64.96-.64,1.66Z"/>
    <path class="cls-1" d="M265.67,287.26c0-.78.07-1.58.22-2.42s.35-1.64.62-2.43.58-1.5.93-2.13h.97c-.55,1.13-.98,2.3-1.28,3.52-.3,1.22-.45,2.37-.45,3.46,0,1.02.14,2.06.42,3.12.28,1.06.72,2.2,1.31,3.42h-.97c-1.18-2.16-1.77-4.34-1.77-6.54Z"/>
    <path class="cls-1" d="M270.64,292.45v-10.83h1.04v9.9h5.14v.92h-6.18Z"/>
    <path class="cls-1" d="M279.04,292.45v-10.83h6.32v.92h-5.29v4h4.96v.92h-4.96v4.06h5.39v.92h-6.42Z"/>
    <path class="cls-1" d="M291.44,282.55v-.92h7.89v.92h-3.42v9.9h-1.03v-9.9h-3.44Z"/>
    <path class="cls-1" d="M300.51,292.45v-8.12h.96v1.26h.07c.16-.42.44-.75.85-1,.4-.25.86-.37,1.36-.37.08,0,.16,0,.26,0,.1,0,.18,0,.24.01v.99s-.11-.01-.22-.03-.23-.02-.36-.02c-.63,0-1.15.19-1.56.58-.41.39-.61.89-.61,1.49v5.21h-.99Z"/>
    <path class="cls-1" d="M308,292.63c-.49,0-.94-.1-1.35-.29-.4-.19-.73-.47-.97-.83s-.36-.81-.36-1.34.13-.96.4-1.28c.27-.32.63-.56,1.1-.72.47-.16,1.01-.28,1.62-.35.67-.08,1.2-.16,1.57-.23.37-.07.56-.26.56-.57v-.19c0-.54-.17-.97-.49-1.28-.33-.31-.8-.47-1.41-.47s-1.05.13-1.41.38c-.36.25-.61.55-.75.89l-.94-.32c.18-.44.43-.79.76-1.06.32-.27.69-.46,1.09-.58.4-.12.82-.19,1.24-.19.32,0,.65.04.99.13.34.08.65.23.94.43.29.2.53.48.7.83.18.35.27.8.27,1.33v5.51h-.97v-1.29h-.07c-.18.37-.48.71-.9,1.01s-.96.45-1.62.45ZM308.14,291.75c.49,0,.92-.11,1.29-.33s.64-.51.84-.88c.2-.37.3-.77.3-1.21v-1.16c-.09.09-.27.16-.52.23s-.53.12-.83.16-.55.08-.76.11c-.68.08-1.21.24-1.58.48-.37.24-.56.59-.56,1.07s.17.86.52,1.13c.35.27.78.4,1.31.4Z"/>
    <path class="cls-1" d="M315.03,287.39v5.06h-.99v-8.12h.95v1.5c.25-.56.6-.97,1.05-1.22.45-.25.94-.38,1.5-.38.82,0,1.49.26,2.01.77.51.51.77,1.25.77,2.21v5.25h-.98v-5.18c0-.66-.19-1.19-.56-1.57s-.87-.58-1.5-.58-1.17.2-1.6.61c-.43.41-.64.96-.64,1.66Z"/>
    <path class="cls-1" d="M325.38,292.63c-.8,0-1.46-.18-1.98-.54-.52-.36-.85-.88-1-1.57l.94-.23c.12.49.35.85.69,1.09.35.24.79.36,1.33.36.61,0,1.11-.14,1.48-.41s.56-.62.56-1.03c0-.66-.44-1.09-1.32-1.31l-1.32-.32c-1.39-.33-2.09-1.05-2.09-2.16,0-.46.12-.85.37-1.2.24-.34.58-.61,1.01-.81.43-.19.92-.29,1.46-.29.77,0,1.37.17,1.82.52.45.35.77.81.96,1.4l-.9.23c-.13-.37-.34-.68-.63-.93-.29-.25-.71-.37-1.24-.37s-.98.13-1.33.39-.52.59-.52.99c0,.67.48,1.12,1.45,1.35l1.24.3c1.37.33,2.06,1.04,2.06,2.14,0,.46-.13.88-.39,1.24s-.61.64-1.07.84c-.46.2-.98.31-1.58.31Z"/>
    <path class="cls-1" d="M330.47,295.49v-11.16h.96v1.56h.11c.11-.25.26-.5.46-.76.2-.26.46-.47.79-.65.33-.18.74-.26,1.24-.26.66,0,1.24.18,1.74.53.5.35.89.84,1.17,1.47.28.63.42,1.36.42,2.2s-.14,1.58-.42,2.21c-.28.63-.67,1.12-1.17,1.47-.5.35-1.08.53-1.75.53-.49,0-.9-.09-1.23-.27-.33-.18-.6-.4-.8-.66-.2-.26-.36-.52-.47-.77h-.08v4.56h-.99ZM333.9,291.73c.53,0,.98-.15,1.34-.44.37-.3.65-.69.84-1.2.19-.5.29-1.07.29-1.69s-.09-1.18-.28-1.67c-.19-.5-.47-.89-.84-1.18-.37-.29-.82-.44-1.35-.44s-.97.14-1.33.42c-.37.28-.64.67-.84,1.16-.19.49-.29,1.06-.29,1.71s.1,1.22.29,1.72c.19.5.47.9.84,1.18.37.29.81.43,1.33.43Z"/>
    <path class="cls-1" d="M342.6,292.63c-.71,0-1.33-.18-1.87-.53-.54-.36-.96-.85-1.26-1.48-.31-.63-.46-1.36-.46-2.18s.15-1.57.46-2.2c.31-.63.73-1.13,1.26-1.48.54-.36,1.16-.53,1.87-.53s1.32.18,1.86.53c.54.36.96.85,1.27,1.48.31.63.46,1.36.46,2.2s-.15,1.55-.46,2.18c-.31.63-.73,1.12-1.27,1.48-.54.36-1.16.53-1.86.53ZM342.6,291.73c.56,0,1.03-.15,1.41-.45.39-.3.68-.7.88-1.2.2-.5.31-1.05.31-1.65s-.1-1.16-.31-1.66c-.2-.5-.5-.9-.89-1.21-.39-.3-.86-.45-1.41-.45s-1.02.15-1.41.45c-.38.3-.68.71-.88,1.21-.2.5-.31,1.05-.31,1.66s.1,1.15.3,1.65c.2.5.5.9.88,1.2.39.3.86.45,1.41.45Z"/>
    <path class="cls-1" d="M348.25,292.45v-8.12h.96v1.26h.07c.16-.42.44-.75.85-1,.4-.25.86-.37,1.36-.37.08,0,.16,0,.26,0,.1,0,.18,0,.24.01v.99s-.11-.01-.22-.03-.23-.02-.36-.02c-.63,0-1.15.19-1.56.58-.41.39-.61.89-.61,1.49v5.21h-.99Z"/>
    <path class="cls-1" d="M356.58,284.33v.86h-1.67v5.35c0,.81.36,1.18,1.09,1.11.07,0,.15,0,.25-.03.1-.02.19-.04.28-.05l.2.85c-.21.07-.46.11-.74.12-.64.04-1.15-.11-1.52-.46-.37-.35-.55-.84-.55-1.47v-5.41h-1.21v-.86h1.21v-1.93h.99v1.93h1.67Z"/>
    <path class="cls-1" d="M357.84,294.48c.61-1.25,1.05-2.4,1.33-3.46.28-1.06.42-2.09.42-3.09,0-1.08-.15-2.24-.46-3.46s-.73-2.39-1.29-3.52h.97c.35.64.66,1.35.93,2.14.27.78.47,1.59.62,2.43s.22,1.64.22,2.41c0,1.1-.15,2.2-.46,3.31-.31,1.11-.74,2.19-1.31,3.24h-.97Z"/>
  </g>
  <rect class="cls-5" x="36.8" y="47.71" width="135.09" height="25"/>
  <g>
    <rect class="cls-2" x="36.8" y="55.03" width="135.09" height="13.18"/>
    <path class="cls-1" d="M73.26,63.15v-8.12h1.1l2.27,5.57c.08.2.18.46.29.78.11.32.21.62.3.92.09-.29.2-.59.31-.91.11-.32.21-.58.29-.79l2.25-5.57h1.1v8.12h-.76v-5.16c0-.29,0-.62,0-1s.01-.75.01-1.12c-.13.4-.27.79-.41,1.17-.14.38-.26.7-.36.94l-2.11,5.16h-.68l-2.13-5.16c-.1-.24-.21-.55-.35-.93s-.27-.77-.42-1.18c0,.35.01.71.02,1.09,0,.38,0,.72,0,1.02v5.16h-.74Z"/>
    <path class="cls-1" d="M85.55,63.28c-.53,0-1-.13-1.4-.4-.4-.27-.72-.64-.95-1.11-.23-.47-.34-1.02-.34-1.63s.11-1.17.34-1.65c.23-.47.54-.84.95-1.11.4-.27.87-.4,1.4-.4s.99.13,1.4.4c.41.27.72.64.95,1.11.23.47.34,1.02.34,1.65s-.11,1.16-.34,1.63c-.23.47-.55.84-.95,1.11-.4.27-.87.4-1.4.4ZM85.55,62.61c.42,0,.77-.11,1.06-.34.29-.23.51-.53.66-.9.15-.37.23-.79.23-1.24s-.08-.87-.23-1.25c-.15-.38-.37-.68-.66-.9-.29-.23-.64-.34-1.06-.34s-.77.11-1.05.34c-.29.23-.51.53-.66.9-.15.38-.23.79-.23,1.25s.08.86.23,1.24c.15.37.37.67.66.9.29.22.64.34,1.06.34Z"/>
    <path class="cls-1" d="M91.96,63.28c-.5,0-.93-.13-1.31-.4-.37-.26-.67-.63-.87-1.11-.21-.47-.31-1.03-.31-1.66s.11-1.18.32-1.65c.21-.47.5-.84.88-1.1s.81-.4,1.31-.4c.37,0,.68.07.93.2s.45.29.6.49c.15.19.27.38.35.57h.06v-3.2h.74v8.12h-.71v-1.14h-.08c-.08.19-.2.38-.35.58-.15.2-.35.36-.6.49-.25.13-.56.2-.92.2ZM92.06,62.61c.39,0,.73-.11,1-.32.27-.21.48-.51.63-.89.14-.38.22-.8.22-1.29s-.07-.91-.22-1.28c-.14-.37-.35-.66-.63-.87-.27-.21-.61-.32-1-.32s-.74.11-1.01.33c-.27.22-.48.51-.62.88-.14.37-.21.79-.21,1.26s.07.89.22,1.27.35.67.63.9c.27.22.61.33,1.01.33Z"/>
    <path class="cls-1" d="M98.97,63.28c-.57,0-1.06-.13-1.48-.4-.42-.27-.74-.64-.96-1.11-.23-.47-.34-1.02-.34-1.63s.11-1.16.34-1.64c.22-.48.54-.85.94-1.12s.87-.41,1.4-.41c.44,0,.86.11,1.26.33s.72.55.96,1c.25.45.37,1.02.37,1.71v.32h-4.52c.01.69.21,1.25.57,1.67s.86.62,1.47.62c.42,0,.77-.1,1.05-.29s.47-.43.58-.7l.7.22c-.14.38-.41.72-.81,1s-.91.43-1.52.43ZM96.93,59.69h3.77c-.04-.59-.22-1.08-.55-1.47-.32-.39-.76-.58-1.3-.58-.37,0-.69.09-.97.28s-.5.43-.67.74c-.17.31-.26.65-.28,1.03Z"/>
    <path class="cls-1" d="M103.71,55.03v8.12h-.74v-8.12h.74Z"/>
    <path class="cls-1" d="M108.86,63.15v-8.12h.78v7.43h3.86v.69h-4.64Z"/>
    <path class="cls-1" d="M116.62,63.28c-.37,0-.71-.07-1.01-.22-.3-.14-.54-.35-.72-.62s-.27-.61-.27-1,.1-.72.3-.96c.2-.24.48-.42.83-.54.35-.12.76-.21,1.22-.26.5-.06.9-.12,1.17-.17s.42-.19.42-.42v-.14c0-.41-.12-.73-.37-.96-.25-.23-.6-.35-1.06-.35s-.79.09-1.06.29c-.27.19-.46.41-.56.67l-.71-.24c.13-.33.32-.6.57-.8.24-.2.52-.35.82-.44s.61-.14.93-.14c.24,0,.49.03.74.1s.49.17.71.32c.22.15.39.36.53.62.13.26.2.6.2,1v4.14h-.72v-.96h-.05c-.13.28-.36.53-.67.76-.31.23-.72.34-1.21.34ZM116.73,62.62c.37,0,.69-.08.96-.25.27-.17.48-.38.63-.66s.22-.58.22-.91v-.87c-.07.07-.2.12-.39.17-.19.05-.4.09-.62.12-.22.03-.41.06-.57.08-.51.06-.91.18-1.19.36-.28.18-.42.44-.42.8s.13.65.39.85c.26.2.59.3.98.3Z"/>
    <path class="cls-1" d="M120.79,65.34l.2-.64.09.03c.32.1.6.09.84-.03.24-.12.44-.4.59-.84l.24-.67-2.34-6.14h.81l1.41,3.83c.1.27.19.54.27.81.08.27.16.54.23.8.08-.27.16-.53.24-.8.08-.27.17-.54.28-.81l1.41-3.83h.8l-2.7,7.08c-.34.89-.9,1.33-1.67,1.33-.15,0-.29-.01-.41-.04s-.22-.05-.29-.09Z"/>
    <path class="cls-1" d="M129.43,63.28c-.57,0-1.06-.13-1.48-.4-.42-.27-.74-.64-.96-1.11-.23-.47-.34-1.02-.34-1.63s.11-1.16.34-1.64c.22-.48.54-.85.94-1.12s.87-.41,1.4-.41c.44,0,.86.11,1.26.33s.72.55.96,1c.25.45.37,1.02.37,1.71v.32h-4.52c.01.69.21,1.25.57,1.67s.86.62,1.47.62c.42,0,.77-.1,1.05-.29s.47-.43.58-.7l.7.22c-.14.38-.41.72-.81,1s-.91.43-1.52.43ZM127.39,59.69h3.77c-.04-.59-.22-1.08-.55-1.47-.32-.39-.76-.58-1.3-.58-.37,0-.69.09-.97.28s-.5.43-.67.74c-.17.31-.26.65-.28,1.03Z"/>
    <path class="cls-1" d="M133.43,63.15v-6.09h.72v.95h.05c.12-.31.33-.56.64-.75.3-.19.64-.28,1.02-.28.06,0,.12,0,.2,0s.13,0,.18,0v.74s-.08-.01-.16-.02c-.08-.01-.17-.02-.27-.02-.47,0-.86.15-1.17.44-.31.29-.46.66-.46,1.11v3.91h-.74Z"/>
  </g>
  <g>
    <rect class="cls-2" x="36.8" y="83.96" width="135.09" height="13.18"/>
    <path class="cls-1" d="M42.77,92.08v-8.12h4.72v.69h-3.95v3.08h3.57v.69h-3.57v3.65h-.77Z"/>
    <path class="cls-1" d="M51.13,92.21c-.53,0-1-.13-1.4-.4-.4-.27-.72-.64-.95-1.11-.23-.47-.34-1.02-.34-1.63s.11-1.17.34-1.65c.23-.47.54-.84.95-1.11.4-.27.87-.4,1.4-.4s.99.13,1.4.4c.41.27.72.64.95,1.11.23.47.34,1.02.34,1.65s-.11,1.16-.34,1.63c-.23.47-.55.84-.95,1.11-.4.27-.87.4-1.4.4ZM51.13,91.54c.42,0,.77-.11,1.06-.34.29-.23.51-.53.66-.9.15-.37.23-.79.23-1.24s-.08-.87-.23-1.25c-.15-.38-.37-.68-.66-.9-.29-.23-.64-.34-1.06-.34s-.77.11-1.05.34c-.29.23-.51.53-.66.9-.15.38-.23.79-.23,1.25s.08.86.23,1.24c.15.37.37.67.66.9.29.22.64.34,1.06.34Z"/>
    <path class="cls-1" d="M57.46,92.16c-.62,0-1.12-.19-1.51-.58-.39-.38-.58-.94-.58-1.66v-3.94h.74v3.89c0,.5.14.89.42,1.18s.65.43,1.12.43.88-.15,1.2-.46c.32-.31.48-.72.48-1.24v-3.8h.74v6.09h-.72v-1.13c-.19.43-.45.74-.78.93-.33.19-.71.28-1.12.28Z"/>
    <path class="cls-1" d="M62.68,88.28v3.8h-.74v-6.09h.71v1.12c.19-.42.45-.73.78-.92.33-.19.71-.29,1.12-.29.62,0,1.12.19,1.5.58.39.38.58.94.58,1.66v3.94h-.74v-3.89c0-.5-.14-.89-.42-1.18s-.65-.43-1.12-.43-.88.15-1.2.46c-.32.31-.48.72-.48,1.24Z"/>
    <path class="cls-1" d="M70.69,92.21c-.5,0-.93-.13-1.31-.4-.37-.26-.67-.63-.87-1.11-.21-.47-.31-1.03-.31-1.66s.11-1.18.32-1.65c.21-.47.5-.84.88-1.1s.81-.4,1.31-.4c.37,0,.68.07.93.2s.45.29.6.49c.15.19.27.38.35.57h.06v-3.2h.74v8.12h-.71v-1.14h-.08c-.08.19-.2.38-.35.58-.15.2-.35.36-.6.49-.25.13-.56.2-.92.2ZM70.79,91.54c.39,0,.73-.11,1-.32.27-.21.48-.51.63-.89.14-.38.22-.8.22-1.29s-.07-.91-.22-1.28c-.14-.37-.35-.66-.63-.87-.27-.21-.61-.32-1-.32s-.74.11-1.01.33c-.27.22-.48.51-.62.88-.14.37-.21.79-.21,1.26s.07.89.22,1.27.35.67.63.9c.27.22.61.33,1.01.33Z"/>
    <path class="cls-1" d="M76.83,92.21c-.37,0-.71-.07-1.01-.22-.3-.14-.54-.35-.72-.62s-.27-.61-.27-1,.1-.72.3-.96c.2-.24.48-.42.83-.54.35-.12.76-.21,1.22-.26.5-.06.9-.12,1.17-.17s.42-.19.42-.42v-.14c0-.41-.12-.73-.37-.96-.25-.23-.6-.35-1.06-.35s-.79.09-1.06.29c-.27.19-.46.41-.56.67l-.71-.24c.13-.33.32-.6.57-.8.24-.2.52-.35.82-.44s.61-.14.93-.14c.24,0,.49.03.74.1s.49.17.71.32c.22.15.39.36.53.62.13.26.2.6.2,1v4.14h-.72v-.96h-.05c-.13.28-.36.53-.67.76-.31.23-.72.34-1.21.34ZM76.94,91.55c.37,0,.69-.08.96-.25.27-.17.48-.38.63-.66s.22-.58.22-.91v-.87c-.07.07-.2.12-.39.17-.19.05-.4.09-.62.12-.22.03-.41.06-.57.08-.51.06-.91.18-1.19.36-.28.18-.42.44-.42.8s.13.65.39.85c.26.2.59.3.98.3Z"/>
    <path class="cls-1" d="M83.42,85.98v.64h-1.25v4.01c0,.61.27.89.82.83.05,0,.11,0,.19-.02.07-.01.14-.03.21-.04l.15.64c-.16.05-.34.08-.56.09-.48.03-.86-.08-1.14-.35-.28-.26-.41-.63-.41-1.1v-4.06h-.9v-.64h.9v-1.45h.74v1.45h1.25Z"/>
    <path class="cls-1" d="M85.06,84.86c-.15,0-.28-.05-.38-.15s-.16-.22-.16-.37.05-.26.16-.37.23-.15.38-.15.28.05.38.15.16.22.16.37-.05.26-.16.37-.23.15-.38.15ZM84.69,92.08v-6.09h.74v6.09h-.74Z"/>
    <path class="cls-1" d="M89.67,92.21c-.53,0-1-.13-1.4-.4-.4-.27-.72-.64-.95-1.11-.23-.47-.34-1.02-.34-1.63s.11-1.17.34-1.65c.23-.47.54-.84.95-1.11.4-.27.87-.4,1.4-.4s.99.13,1.4.4c.41.27.72.64.95,1.11.23.47.34,1.02.34,1.65s-.11,1.16-.34,1.63c-.23.47-.55.84-.95,1.11-.4.27-.87.4-1.4.4ZM89.67,91.54c.42,0,.77-.11,1.06-.34.29-.23.51-.53.66-.9.15-.37.23-.79.23-1.24s-.08-.87-.23-1.25c-.15-.38-.37-.68-.66-.9-.29-.23-.64-.34-1.06-.34s-.77.11-1.05.34c-.29.23-.51.53-.66.9-.15.38-.23.79-.23,1.25s.08.86.23,1.24c.15.37.37.67.66.9.29.22.64.34,1.06.34Z"/>
    <path class="cls-1" d="M94.65,88.28v3.8h-.74v-6.09h.71v1.12c.19-.42.45-.73.78-.92.33-.19.71-.29,1.12-.29.62,0,1.12.19,1.5.58.39.38.58.94.58,1.66v3.94h-.74v-3.89c0-.5-.14-.89-.42-1.18s-.65-.43-1.12-.43-.88.15-1.2.46c-.32.31-.48.72-.48,1.24Z"/>
    <path class="cls-1" d="M103.76,92.08v-8.12h1.1l2.27,5.57c.08.2.18.46.29.78.11.32.21.62.3.92.09-.29.2-.59.31-.91.11-.32.21-.58.29-.79l2.25-5.57h1.1v8.12h-.76v-5.16c0-.29,0-.62,0-1s.01-.75.01-1.12c-.13.4-.27.79-.41,1.17-.14.38-.26.7-.36.94l-2.11,5.16h-.68l-2.13-5.16c-.1-.24-.21-.55-.35-.93s-.27-.77-.42-1.18c0,.35.01.71.02,1.09,0,.38,0,.72,0,1.02v5.16h-.74Z"/>
    <path class="cls-1" d="M116.04,92.21c-.53,0-1-.13-1.4-.4-.4-.27-.72-.64-.95-1.11-.23-.47-.34-1.02-.34-1.63s.11-1.17.34-1.65c.23-.47.54-.84.95-1.11.4-.27.87-.4,1.4-.4s.99.13,1.4.4c.41.27.72.64.95,1.11.23.47.34,1.02.34,1.65s-.11,1.16-.34,1.63c-.23.47-.55.84-.95,1.11-.4.27-.87.4-1.4.4ZM116.04,91.54c.42,0,.77-.11,1.06-.34.29-.23.51-.53.66-.9.15-.37.23-.79.23-1.24s-.08-.87-.23-1.25c-.15-.38-.37-.68-.66-.9-.29-.23-.64-.34-1.06-.34s-.77.11-1.05.34c-.29.23-.51.53-.66.9-.15.38-.23.79-.23,1.25s.08.86.23,1.24c.15.37.37.67.66.9.29.22.64.34,1.06.34Z"/>
    <path class="cls-1" d="M122.46,92.21c-.5,0-.93-.13-1.31-.4-.37-.26-.67-.63-.87-1.11-.21-.47-.31-1.03-.31-1.66s.11-1.18.32-1.65c.21-.47.5-.84.88-1.1s.81-.4,1.31-.4c.37,0,.68.07.93.2s.45.29.6.49c.15.19.27.38.35.57h.06v-3.2h.74v8.12h-.71v-1.14h-.08c-.08.19-.2.38-.35.58-.15.2-.35.36-.6.49-.25.13-.56.2-.92.2ZM122.56,91.54c.39,0,.73-.11,1-.32.27-.21.48-.51.63-.89.14-.38.22-.8.22-1.29s-.07-.91-.22-1.28c-.14-.37-.35-.66-.63-.87-.27-.21-.61-.32-1-.32s-.74.11-1.01.33c-.27.22-.48.51-.62.88-.14.37-.21.79-.21,1.26s.07.89.22,1.27.35.67.63.9c.27.22.61.33,1.01.33Z"/>
    <path class="cls-1" d="M129.47,92.21c-.57,0-1.06-.13-1.48-.4-.42-.27-.74-.64-.96-1.11-.23-.47-.34-1.02-.34-1.63s.11-1.16.34-1.64c.22-.48.54-.85.94-1.12s.87-.41,1.4-.41c.44,0,.86.11,1.26.33s.72.55.96,1c.25.45.37,1.02.37,1.71v.32h-4.52c.01.69.21,1.25.57,1.67s.86.62,1.47.62c.42,0,.77-.1,1.05-.29s.47-.43.58-.7l.7.22c-.14.38-.41.72-.81,1s-.91.43-1.52.43ZM127.43,88.62h3.77c-.04-.59-.22-1.08-.55-1.47-.32-.39-.76-.58-1.3-.58-.37,0-.69.09-.97.28s-.5.43-.67.74c-.17.31-.26.65-.28,1.03Z"/>
    <path class="cls-1" d="M134.21,83.96v8.12h-.74v-8.12h.74Z"/>
    <path class="cls-1" d="M139.35,92.08v-8.12h.78v7.43h3.86v.69h-4.64Z"/>
    <path class="cls-1" d="M147.11,92.21c-.37,0-.71-.07-1.01-.22-.3-.14-.54-.35-.72-.62s-.27-.61-.27-1,.1-.72.3-.96c.2-.24.48-.42.83-.54.35-.12.76-.21,1.22-.26.5-.06.9-.12,1.17-.17s.42-.19.42-.42v-.14c0-.41-.12-.73-.37-.96-.25-.23-.6-.35-1.06-.35s-.79.09-1.06.29c-.27.19-.46.41-.56.67l-.71-.24c.13-.33.32-.6.57-.8.24-.2.52-.35.82-.44s.61-.14.93-.14c.24,0,.49.03.74.1s.49.17.71.32c.22.15.39.36.53.62.13.26.2.6.2,1v4.14h-.72v-.96h-.05c-.13.28-.36.53-.67.76-.31.23-.72.34-1.21.34ZM147.22,91.55c.37,0,.69-.08.96-.25.27-.17.48-.38.63-.66s.22-.58.22-.91v-.87c-.07.07-.2.12-.39.17-.19.05-.4.09-.62.12-.22.03-.41.06-.57.08-.51.06-.91.18-1.19.36-.28.18-.42.44-.42.8s.13.65.39.85c.26.2.59.3.98.3Z"/>
    <path class="cls-1" d="M151.28,94.27l.2-.64.09.03c.32.1.6.09.84-.03.24-.12.44-.4.59-.84l.24-.67-2.34-6.14h.81l1.41,3.83c.1.27.19.54.27.81.08.27.16.54.23.8.08-.27.16-.53.24-.8.08-.27.17-.54.28-.81l1.41-3.83h.8l-2.7,7.08c-.34.89-.9,1.33-1.67,1.33-.15,0-.29-.01-.41-.04s-.22-.05-.29-.09Z"/>
    <path class="cls-1" d="M159.92,92.21c-.57,0-1.06-.13-1.48-.4-.42-.27-.74-.64-.96-1.11-.23-.47-.34-1.02-.34-1.63s.11-1.16.34-1.64c.22-.48.54-.85.94-1.12s.87-.41,1.4-.41c.44,0,.86.11,1.26.33s.72.55.96,1c.25.45.37,1.02.37,1.71v.32h-4.52c.01.69.21,1.25.57,1.67s.86.62,1.47.62c.42,0,.77-.1,1.05-.29s.47-.43.58-.7l.7.22c-.14.38-.41.72-.81,1s-.91.43-1.52.43ZM157.88,88.62h3.77c-.04-.59-.22-1.08-.55-1.47-.32-.39-.76-.58-1.3-.58-.37,0-.69.09-.97.28s-.5.43-.67.74c-.17.31-.26.65-.28,1.03Z"/>
    <path class="cls-1" d="M163.92,92.08v-6.09h.72v.95h.05c.12-.31.33-.56.64-.75.3-.19.64-.28,1.02-.28.06,0,.12,0,.2,0s.13,0,.18,0v.74s-.08-.01-.16-.02c-.08-.01-.17-.02-.27-.02-.47,0-.86.15-1.17.44-.31.29-.46.66-.46,1.11v3.91h-.74Z"/>
  </g>
  <g>
    <rect class="cls-2" x="36.8" y="114.29" width="135.09" height="13.18"/>
    <path class="cls-1" d="M69.76,122.41l2.98-8.12h.92l3,8.12h-.82l-.88-2.41h-3.52l-.86,2.41h-.82ZM71.69,119.31h3.02l-.8-2.21c-.1-.27-.21-.58-.32-.93-.12-.35-.25-.77-.4-1.25-.15.49-.28.91-.4,1.26-.12.36-.22.66-.31.92l-.79,2.21Z"/>
    <path class="cls-1" d="M80.22,122.52c-.53,0-1-.13-1.4-.4-.4-.27-.72-.63-.95-1.1-.23-.47-.34-1.01-.34-1.63s.11-1.17.34-1.65c.23-.47.54-.84.95-1.11.4-.27.87-.4,1.4-.4.41,0,.78.08,1.1.23s.58.35.8.59c.21.24.36.48.44.73l-.7.22c-.05-.15-.14-.31-.28-.49-.14-.17-.32-.32-.54-.44s-.5-.18-.8-.18c-.41,0-.77.11-1.05.33s-.51.52-.66.9c-.15.38-.23.79-.23,1.25s.08.86.23,1.24c.15.37.37.67.66.9s.64.33,1.05.33c.32,0,.59-.06.82-.18.23-.12.41-.27.56-.45.14-.18.23-.34.28-.5l.7.22c-.08.25-.22.5-.43.74-.21.24-.48.44-.81.6-.33.16-.69.24-1.11.24Z"/>
    <path class="cls-1" d="M86.46,122.52c-.53,0-1-.13-1.4-.4-.4-.27-.72-.63-.95-1.1-.23-.47-.34-1.01-.34-1.63s.11-1.17.34-1.65c.23-.47.54-.84.95-1.11.4-.27.87-.4,1.4-.4.41,0,.78.08,1.1.23s.58.35.8.59c.21.24.36.48.44.73l-.7.22c-.05-.15-.14-.31-.28-.49-.14-.17-.32-.32-.54-.44s-.5-.18-.8-.18c-.41,0-.77.11-1.05.33s-.51.52-.66.9c-.15.38-.23.79-.23,1.25s.08.86.23,1.24c.15.37.37.67.66.9s.64.33,1.05.33c.32,0,.59-.06.82-.18.23-.12.41-.27.56-.45.14-.18.23-.34.28-.5l.7.22c-.08.25-.22.5-.43.74-.21.24-.48.44-.81.6-.33.16-.69.24-1.11.24Z"/>
    <path class="cls-1" d="M92.79,122.54c-.57,0-1.06-.13-1.48-.4-.42-.27-.74-.64-.96-1.11-.23-.47-.34-1.02-.34-1.63s.11-1.16.34-1.64c.22-.48.54-.85.94-1.12s.87-.41,1.4-.41c.44,0,.86.11,1.26.33s.72.55.96,1c.25.45.37,1.02.37,1.71v.32h-4.52c.01.69.21,1.25.57,1.67s.86.62,1.47.62c.42,0,.77-.1,1.05-.29s.47-.43.58-.7l.7.22c-.14.38-.41.72-.81,1s-.91.43-1.52.43ZM90.75,118.95h3.77c-.04-.59-.22-1.08-.55-1.47-.32-.39-.76-.58-1.3-.58-.37,0-.69.09-.97.28s-.5.43-.67.74c-.17.31-.26.65-.28,1.03Z"/>
    <path class="cls-1" d="M98.73,122.54c-.6,0-1.09-.14-1.49-.41-.39-.27-.64-.66-.75-1.17l.71-.17c.09.37.26.64.52.82.26.18.59.27.99.27.46,0,.83-.1,1.11-.31.28-.21.42-.47.42-.77,0-.49-.33-.82-.99-.98l-.99-.24c-1.04-.25-1.56-.79-1.56-1.62,0-.34.09-.64.27-.9.18-.26.44-.46.76-.6.32-.15.69-.22,1.1-.22.57,0,1.03.13,1.36.39.34.26.58.61.72,1.05l-.68.17c-.09-.28-.25-.51-.47-.69-.22-.18-.53-.28-.93-.28s-.74.1-1,.29c-.26.19-.39.44-.39.74,0,.5.36.84,1.09,1.01l.93.22c1.03.25,1.54.78,1.54,1.6,0,.35-.1.66-.29.93-.19.27-.46.48-.8.63-.34.15-.74.23-1.19.23Z"/>
    <path class="cls-1" d="M104.49,122.54c-.6,0-1.09-.14-1.49-.41-.39-.27-.64-.66-.75-1.17l.71-.17c.09.37.26.64.52.82.26.18.59.27.99.27.46,0,.83-.1,1.11-.31.28-.21.42-.47.42-.77,0-.49-.33-.82-.99-.98l-.99-.24c-1.04-.25-1.56-.79-1.56-1.62,0-.34.09-.64.27-.9.18-.26.44-.46.76-.6.32-.15.69-.22,1.1-.22.57,0,1.03.13,1.36.39.34.26.58.61.72,1.05l-.68.17c-.09-.28-.25-.51-.47-.69-.22-.18-.53-.28-.93-.28s-.74.1-1,.29c-.26.19-.39.44-.39.74,0,.5.36.84,1.09,1.01l.93.22c1.03.25,1.54.78,1.54,1.6,0,.35-.1.66-.29.93-.19.27-.46.48-.8.63-.34.15-.74.23-1.19.23Z"/>
    <path class="cls-1" d="M111.59,122.41v-8.12h.78v7.43h3.86v.69h-4.64Z"/>
    <path class="cls-1" d="M119.35,122.55c-.37,0-.71-.07-1.01-.22-.3-.14-.54-.35-.72-.62s-.27-.61-.27-1,.1-.72.3-.96c.2-.24.48-.42.83-.54.35-.12.76-.21,1.22-.26.5-.06.9-.12,1.17-.17s.42-.19.42-.42v-.14c0-.41-.12-.73-.37-.96-.25-.23-.6-.35-1.06-.35s-.79.09-1.06.29c-.27.19-.46.41-.56.67l-.71-.24c.13-.33.32-.6.57-.8.24-.2.52-.35.82-.44s.61-.14.93-.14c.24,0,.49.03.74.1s.49.17.71.32c.22.15.39.36.53.62.13.26.2.6.2,1v4.14h-.72v-.96h-.05c-.13.28-.36.53-.67.76-.31.23-.72.34-1.21.34ZM119.46,121.89c.37,0,.69-.08.96-.25.27-.17.48-.38.63-.66s.22-.58.22-.91v-.87c-.07.07-.2.12-.39.17-.19.05-.4.09-.62.12-.22.03-.41.06-.57.08-.51.06-.91.18-1.19.36-.28.18-.42.44-.42.8s.13.65.39.85c.26.2.59.3.98.3Z"/>
    <path class="cls-1" d="M123.52,124.61l.2-.64.09.03c.32.1.6.09.84-.03.24-.12.44-.4.59-.84l.24-.67-2.34-6.14h.81l1.41,3.83c.1.27.19.54.27.81.08.27.16.54.23.8.08-.27.16-.53.24-.8.08-.27.17-.54.28-.81l1.41-3.83h.8l-2.7,7.08c-.34.89-.9,1.33-1.67,1.33-.15,0-.29-.01-.41-.04s-.22-.05-.29-.09Z"/>
    <path class="cls-1" d="M132.16,122.54c-.57,0-1.06-.13-1.48-.4-.42-.27-.74-.64-.96-1.11-.23-.47-.34-1.02-.34-1.63s.11-1.16.34-1.64c.22-.48.54-.85.94-1.12s.87-.41,1.4-.41c.44,0,.86.11,1.26.33s.72.55.96,1c.25.45.37,1.02.37,1.71v.32h-4.52c.01.69.21,1.25.57,1.67s.86.62,1.47.62c.42,0,.77-.1,1.05-.29s.47-.43.58-.7l.7.22c-.14.38-.41.72-.81,1s-.91.43-1.52.43ZM130.12,118.95h3.77c-.04-.59-.22-1.08-.55-1.47-.32-.39-.76-.58-1.3-.58-.37,0-.69.09-.97.28s-.5.43-.67.74c-.17.31-.26.65-.28,1.03Z"/>
    <path class="cls-1" d="M136.16,122.41v-6.09h.72v.95h.05c.12-.31.33-.56.64-.75.3-.19.64-.28,1.02-.28.06,0,.12,0,.2,0s.13,0,.18,0v.74s-.08-.01-.16-.02c-.08-.01-.17-.02-.27-.02-.47,0-.86.15-1.17.44-.31.29-.46.66-.46,1.11v3.91h-.74Z"/>
  </g>
  <g>
    <rect class="cls-2" x="36.8" y="144.62" width="135.09" height="13.18"/>
    <path class="cls-1" d="M50,152.87c-.61,0-1.15-.12-1.61-.37-.47-.25-.83-.59-1.09-1.02s-.39-.93-.39-1.49v-5.36h.77v5.31c0,.43.1.81.29,1.14.19.33.46.6.81.79.35.19.75.29,1.22.29s.87-.1,1.22-.29c.35-.19.62-.46.81-.79.19-.33.29-.71.29-1.14v-5.31h.77v5.36c0,.56-.13,1.05-.39,1.49s-.62.78-1.08,1.02c-.46.25-1,.37-1.61.37Z"/>
    <path class="cls-1" d="M55.04,155.02v-8.37h.72v1.17h.08c.08-.19.19-.37.34-.57.15-.19.35-.35.59-.49s.56-.2.93-.2c.49,0,.93.13,1.31.4s.67.63.88,1.1c.21.47.32,1.02.32,1.65s-.1,1.19-.31,1.66c-.21.47-.5.84-.88,1.11-.38.26-.81.4-1.31.4-.37,0-.67-.07-.92-.2s-.45-.3-.6-.49c-.15-.2-.27-.39-.35-.58h-.06v3.42h-.74ZM57.61,152.21c.4,0,.73-.11,1.01-.33.28-.22.49-.52.63-.9s.22-.8.22-1.27-.07-.88-.21-1.26c-.14-.37-.35-.67-.63-.88-.28-.22-.61-.33-1.01-.33s-.73.11-1,.32c-.27.21-.48.5-.63.87-.14.37-.22.8-.22,1.28s.07.91.22,1.29c.15.38.35.67.63.89.27.21.61.32.99.32Z"/>
    <path class="cls-1" d="M61.75,155.02v-8.37h.72v1.17h.08c.08-.19.19-.37.34-.57.15-.19.35-.35.59-.49s.56-.2.93-.2c.49,0,.93.13,1.31.4s.67.63.88,1.1c.21.47.32,1.02.32,1.65s-.1,1.19-.31,1.66c-.21.47-.5.84-.88,1.11-.38.26-.81.4-1.31.4-.37,0-.67-.07-.92-.2s-.45-.3-.6-.49c-.15-.2-.27-.39-.35-.58h-.06v3.42h-.74ZM64.33,152.21c.4,0,.73-.11,1.01-.33.28-.22.49-.52.63-.9s.22-.8.22-1.27-.07-.88-.21-1.26c-.14-.37-.35-.67-.63-.88-.28-.22-.61-.33-1.01-.33s-.73.11-1,.32c-.27.21-.48.5-.63.87-.14.37-.22.8-.22,1.28s.07.91.22,1.29c.15.38.35.67.63.89.27.21.61.32.99.32Z"/>
    <path class="cls-1" d="M70.94,152.88c-.57,0-1.06-.13-1.48-.4-.42-.27-.74-.64-.96-1.11-.23-.47-.34-1.02-.34-1.63s.11-1.16.34-1.64c.22-.48.54-.85.94-1.12s.87-.41,1.4-.41c.44,0,.86.11,1.26.33s.72.55.96,1c.25.45.37,1.02.37,1.71v.32h-4.52c.01.69.21,1.25.57,1.67s.86.62,1.47.62c.42,0,.77-.1,1.05-.29s.47-.43.58-.7l.7.22c-.14.38-.41.72-.81,1s-.91.43-1.52.43ZM68.9,149.28h3.77c-.04-.59-.22-1.08-.55-1.47-.32-.39-.76-.58-1.3-.58-.37,0-.69.09-.97.28s-.5.43-.67.74c-.17.31-.26.65-.28,1.03Z"/>
    <path class="cls-1" d="M74.94,152.74v-6.09h.72v.95h.05c.12-.31.33-.56.64-.75.3-.19.64-.28,1.02-.28.06,0,.12,0,.2,0s.13,0,.18,0v.74s-.08-.01-.16-.02c-.08-.01-.17-.02-.27-.02-.47,0-.86.15-1.17.44-.31.29-.46.66-.46,1.11v3.91h-.74Z"/>
    <path class="cls-1" d="M81.75,145.32v-.69h5.92v.69h-2.57v7.43h-.77v-7.43h-2.58Z"/>
    <path class="cls-1" d="M88.56,152.74v-6.09h.72v.95h.05c.12-.31.33-.56.64-.75.3-.19.64-.28,1.02-.28.06,0,.12,0,.2,0s.13,0,.18,0v.74s-.08-.01-.16-.02c-.08-.01-.17-.02-.27-.02-.47,0-.86.15-1.17.44-.31.29-.46.66-.46,1.11v3.91h-.74Z"/>
    <path class="cls-1" d="M94.17,152.88c-.37,0-.71-.07-1.01-.22-.3-.14-.54-.35-.72-.62s-.27-.61-.27-1,.1-.72.3-.96c.2-.24.48-.42.83-.54.35-.12.76-.21,1.22-.26.5-.06.9-.12,1.17-.17s.42-.19.42-.42v-.14c0-.41-.12-.73-.37-.96-.25-.23-.6-.35-1.06-.35s-.79.09-1.06.29c-.27.19-.46.41-.56.67l-.71-.24c.13-.33.32-.6.57-.8.24-.2.52-.35.82-.44s.61-.14.93-.14c.24,0,.49.03.74.1s.49.17.71.32c.22.15.39.36.53.62.13.26.2.6.2,1v4.14h-.72v-.96h-.05c-.13.28-.36.53-.67.76-.31.23-.72.34-1.21.34ZM94.28,152.22c.37,0,.69-.08.96-.25.27-.17.48-.38.63-.66s.22-.58.22-.91v-.87c-.07.07-.2.12-.39.17-.19.05-.4.09-.62.12-.22.03-.41.06-.57.08-.51.06-.91.18-1.19.36-.28.18-.42.44-.42.8s.13.65.39.85c.26.2.59.3.98.3Z"/>
    <path class="cls-1" d="M99.44,148.95v3.8h-.74v-6.09h.71v1.12c.19-.42.45-.73.78-.92.33-.19.71-.29,1.12-.29.62,0,1.12.19,1.5.58.39.38.58.94.58,1.66v3.94h-.74v-3.89c0-.5-.14-.89-.42-1.18s-.65-.43-1.12-.43-.88.15-1.2.46c-.32.31-.48.72-.48,1.24Z"/>
    <path class="cls-1" d="M107.2,152.88c-.6,0-1.09-.14-1.49-.41-.39-.27-.64-.66-.75-1.17l.71-.17c.09.37.26.64.52.82.26.18.59.27.99.27.46,0,.83-.1,1.11-.31.28-.21.42-.47.42-.77,0-.49-.33-.82-.99-.98l-.99-.24c-1.04-.25-1.56-.79-1.56-1.62,0-.34.09-.64.27-.9.18-.26.44-.46.76-.6.32-.15.69-.22,1.1-.22.57,0,1.03.13,1.36.39.34.26.58.61.72,1.05l-.68.17c-.09-.28-.25-.51-.47-.69-.22-.18-.53-.28-.93-.28s-.74.1-1,.29c-.26.19-.39.44-.39.74,0,.5.36.84,1.09,1.01l.93.22c1.03.25,1.54.78,1.54,1.6,0,.35-.1.66-.29.93-.19.27-.46.48-.8.63-.34.15-.74.23-1.19.23Z"/>
    <path class="cls-1" d="M111.02,155.02v-8.37h.72v1.17h.08c.08-.19.19-.37.34-.57.15-.19.35-.35.59-.49s.56-.2.93-.2c.49,0,.93.13,1.31.4s.67.63.88,1.1c.21.47.32,1.02.32,1.65s-.1,1.19-.31,1.66c-.21.47-.5.84-.88,1.11-.38.26-.81.4-1.31.4-.37,0-.67-.07-.92-.2s-.45-.3-.6-.49c-.15-.2-.27-.39-.35-.58h-.06v3.42h-.74ZM113.6,152.21c.4,0,.73-.11,1.01-.33.28-.22.49-.52.63-.9s.22-.8.22-1.27-.07-.88-.21-1.26c-.14-.37-.35-.67-.63-.88-.28-.22-.61-.33-1.01-.33s-.73.11-1,.32c-.27.21-.48.5-.63.87-.14.37-.22.8-.22,1.28s.07.91.22,1.29c.15.38.35.67.63.89.27.21.61.32.99.32Z"/>
    <path class="cls-1" d="M120.12,152.88c-.53,0-1-.13-1.4-.4-.4-.27-.72-.64-.95-1.11-.23-.47-.34-1.02-.34-1.63s.11-1.17.34-1.65c.23-.47.54-.84.95-1.11.4-.27.87-.4,1.4-.4s.99.13,1.4.4c.41.27.72.64.95,1.11.23.47.34,1.02.34,1.65s-.11,1.16-.34,1.63c-.23.47-.55.84-.95,1.11-.4.27-.87.4-1.4.4ZM120.12,152.21c.42,0,.77-.11,1.06-.34.29-.23.51-.53.66-.9.15-.37.23-.79.23-1.24s-.08-.87-.23-1.25c-.15-.38-.37-.68-.66-.9-.29-.23-.64-.34-1.06-.34s-.77.11-1.05.34c-.29.23-.51.53-.66.9-.15.38-.23.79-.23,1.25s.08.86.23,1.24c.15.37.37.67.66.9.29.22.64.34,1.06.34Z"/>
    <path class="cls-1" d="M124.36,152.74v-6.09h.72v.95h.05c.12-.31.33-.56.64-.75.3-.19.64-.28,1.02-.28.06,0,.12,0,.2,0s.13,0,.18,0v.74s-.08-.01-.16-.02c-.08-.01-.17-.02-.27-.02-.47,0-.86.15-1.17.44-.31.29-.46.66-.46,1.11v3.91h-.74Z"/>
    <path class="cls-1" d="M130.6,146.65v.64h-1.25v4.01c0,.61.27.89.82.83.05,0,.11,0,.19-.02.07-.01.14-.03.21-.04l.15.64c-.16.05-.34.08-.56.09-.48.03-.86-.08-1.14-.35-.28-.26-.41-.63-.41-1.1v-4.06h-.9v-.64h.9v-1.45h.74v1.45h1.25Z"/>
    <path class="cls-1" d="M135.15,152.74v-8.12h.78v7.43h3.86v.69h-4.64Z"/>
    <path class="cls-1" d="M142.92,152.88c-.37,0-.71-.07-1.01-.22-.3-.14-.54-.35-.72-.62s-.27-.61-.27-1,.1-.72.3-.96c.2-.24.48-.42.83-.54.35-.12.76-.21,1.22-.26.5-.06.9-.12,1.17-.17s.42-.19.42-.42v-.14c0-.41-.12-.73-.37-.96-.25-.23-.6-.35-1.06-.35s-.79.09-1.06.29c-.27.19-.46.41-.56.67l-.71-.24c.13-.33.32-.6.57-.8.24-.2.52-.35.82-.44s.61-.14.93-.14c.24,0,.49.03.74.1s.49.17.71.32c.22.15.39.36.53.62.13.26.2.6.2,1v4.14h-.72v-.96h-.05c-.13.28-.36.53-.67.76-.31.23-.72.34-1.21.34ZM143.02,152.22c.37,0,.69-.08.96-.25.27-.17.48-.38.63-.66s.22-.58.22-.91v-.87c-.07.07-.2.12-.39.17-.19.05-.4.09-.62.12-.22.03-.41.06-.57.08-.51.06-.91.18-1.19.36-.28.18-.42.44-.42.8s.13.65.39.85c.26.2.59.3.98.3Z"/>
    <path class="cls-1" d="M147.08,154.94l.2-.64.09.03c.32.1.6.09.84-.03.24-.12.44-.4.59-.84l.24-.67-2.34-6.14h.81l1.41,3.83c.1.27.19.54.27.81.08.27.16.54.23.8.08-.27.16-.53.24-.8.08-.27.17-.54.28-.81l1.41-3.83h.8l-2.7,7.08c-.34.89-.9,1.33-1.67,1.33-.15,0-.29-.01-.41-.04s-.22-.05-.29-.09Z"/>
    <path class="cls-1" d="M155.72,152.88c-.57,0-1.06-.13-1.48-.4-.42-.27-.74-.64-.96-1.11-.23-.47-.34-1.02-.34-1.63s.11-1.16.34-1.64c.22-.48.54-.85.94-1.12s.87-.41,1.4-.41c.44,0,.86.11,1.26.33s.72.55.96,1c.25.45.37,1.02.37,1.71v.32h-4.52c.01.69.21,1.25.57,1.67s.86.62,1.47.62c.42,0,.77-.1,1.05-.29s.47-.43.58-.7l.7.22c-.14.38-.41.72-.81,1s-.91.43-1.52.43ZM153.68,149.28h3.77c-.04-.59-.22-1.08-.55-1.47-.32-.39-.76-.58-1.3-.58-.37,0-.69.09-.97.28s-.5.43-.67.74c-.17.31-.26.65-.28,1.03Z"/>
    <path class="cls-1" d="M159.72,152.74v-6.09h.72v.95h.05c.12-.31.33-.56.64-.75.3-.19.64-.28,1.02-.28.06,0,.12,0,.2,0s.13,0,.18,0v.74s-.08-.01-.16-.02c-.08-.01-.17-.02-.27-.02-.47,0-.86.15-1.17.44-.31.29-.46.66-.46,1.11v3.91h-.74Z"/>
  </g>
  <g>
    <rect class="cls-2" x="36.8" y="174.96" width="135.09" height="13.18"/>
    <path class="cls-1" d="M46.99,183.08v-8.12h.78v7.43h3.86v.69h-4.64Z"/>
    <path class="cls-1" d="M55.52,183.21c-.53,0-1-.13-1.4-.4-.4-.27-.72-.64-.95-1.11-.23-.47-.34-1.02-.34-1.63s.11-1.17.34-1.65c.23-.47.54-.84.95-1.11.4-.27.87-.4,1.4-.4s.99.13,1.4.4c.41.27.72.64.95,1.11.23.47.34,1.02.34,1.65s-.11,1.16-.34,1.63c-.23.47-.55.84-.95,1.11-.4.27-.87.4-1.4.4ZM55.52,182.54c.42,0,.77-.11,1.06-.34.29-.23.51-.53.66-.9.15-.37.23-.79.23-1.24s-.08-.87-.23-1.25c-.15-.38-.37-.68-.66-.9-.29-.23-.64-.34-1.06-.34s-.77.11-1.05.34c-.29.23-.51.53-.66.9-.15.38-.23.79-.23,1.25s.08.86.23,1.24c.15.37.37.67.66.9.29.22.64.34,1.06.34Z"/>
    <path class="cls-1" d="M60.87,183.08l-1.83-6.09h.78l.94,3.28c.08.29.16.6.25.94.09.34.17.7.26,1.1.09-.39.18-.75.27-1.09.09-.34.17-.66.26-.96l.98-3.28h.81l.98,3.28c.08.29.17.61.26.94.09.33.17.7.26,1.1.09-.39.17-.76.26-1.09.09-.33.17-.65.26-.95l.93-3.28h.78l-1.83,6.09h-.76l-1.04-3.41c-.09-.3-.17-.6-.26-.91-.08-.31-.17-.62-.25-.95-.08.32-.17.64-.25.95s-.17.61-.25.91l-1.04,3.41h-.77Z"/>
    <path class="cls-1" d="M70.92,183.21c-.57,0-1.06-.13-1.48-.4-.42-.27-.74-.64-.96-1.11-.23-.47-.34-1.02-.34-1.63s.11-1.16.34-1.64c.22-.48.54-.85.94-1.12s.87-.41,1.4-.41c.44,0,.86.11,1.26.33s.72.55.96,1c.25.45.37,1.02.37,1.71v.32h-4.52c.01.69.21,1.25.57,1.67s.86.62,1.47.62c.42,0,.77-.1,1.05-.29s.47-.43.58-.7l.7.22c-.14.38-.41.72-.81,1s-.91.43-1.52.43ZM68.88,179.62h3.77c-.04-.59-.22-1.08-.55-1.47-.32-.39-.76-.58-1.3-.58-.37,0-.69.09-.97.28s-.5.43-.67.74c-.17.31-.26.65-.28,1.03Z"/>
    <path class="cls-1" d="M74.92,183.08v-6.09h.72v.95h.05c.12-.31.33-.56.64-.75.3-.19.64-.28,1.02-.28.06,0,.12,0,.2,0s.13,0,.18,0v.74s-.08-.01-.16-.02c-.08-.01-.17-.02-.27-.02-.47,0-.86.15-1.17.44-.31.29-.46.66-.46,1.11v3.91h-.74Z"/>
    <path class="cls-1" d="M81.73,175.65v-.69h5.92v.69h-2.57v7.43h-.77v-7.43h-2.58Z"/>
    <path class="cls-1" d="M88.53,183.08v-6.09h.72v.95h.05c.12-.31.33-.56.64-.75.3-.19.64-.28,1.02-.28.06,0,.12,0,.2,0s.13,0,.18,0v.74s-.08-.01-.16-.02c-.08-.01-.17-.02-.27-.02-.47,0-.86.15-1.17.44-.31.29-.46.66-.46,1.11v3.91h-.74Z"/>
    <path class="cls-1" d="M94.15,183.21c-.37,0-.71-.07-1.01-.22-.3-.14-.54-.35-.72-.62s-.27-.61-.27-1,.1-.72.3-.96c.2-.24.48-.42.83-.54.35-.12.76-.21,1.22-.26.5-.06.9-.12,1.17-.17s.42-.19.42-.42v-.14c0-.41-.12-.73-.37-.96-.25-.23-.6-.35-1.06-.35s-.79.09-1.06.29c-.27.19-.46.41-.56.67l-.71-.24c.13-.33.32-.6.57-.8.24-.2.52-.35.82-.44s.61-.14.93-.14c.24,0,.49.03.74.1s.49.17.71.32c.22.15.39.36.53.62.13.26.2.6.2,1v4.14h-.72v-.96h-.05c-.13.28-.36.53-.67.76-.31.23-.72.34-1.21.34ZM94.26,182.55c.37,0,.69-.08.96-.25.27-.17.48-.38.63-.66s.22-.58.22-.91v-.87c-.07.07-.2.12-.39.17-.19.05-.4.09-.62.12-.22.03-.41.06-.57.08-.51.06-.91.18-1.19.36-.28.18-.42.44-.42.8s.13.65.39.85c.26.2.59.3.98.3Z"/>
    <path class="cls-1" d="M99.42,179.28v3.8h-.74v-6.09h.71v1.12c.19-.42.45-.73.78-.92.33-.19.71-.29,1.12-.29.62,0,1.12.19,1.5.58.39.38.58.94.58,1.66v3.94h-.74v-3.89c0-.5-.14-.89-.42-1.18s-.65-.43-1.12-.43-.88.15-1.2.46c-.32.31-.48.72-.48,1.24Z"/>
    <path class="cls-1" d="M107.18,183.21c-.6,0-1.09-.14-1.49-.41-.39-.27-.64-.66-.75-1.17l.71-.17c.09.37.26.64.52.82.26.18.59.27.99.27.46,0,.83-.1,1.11-.31.28-.21.42-.47.42-.77,0-.49-.33-.82-.99-.98l-.99-.24c-1.04-.25-1.56-.79-1.56-1.62,0-.34.09-.64.27-.9.18-.26.44-.46.76-.6.32-.15.69-.22,1.1-.22.57,0,1.03.13,1.36.39.34.26.58.61.72,1.05l-.68.17c-.09-.28-.25-.51-.47-.69-.22-.18-.53-.28-.93-.28s-.74.1-1,.29c-.26.19-.39.44-.39.74,0,.5.36.84,1.09,1.01l.93.22c1.03.25,1.54.78,1.54,1.6,0,.35-.1.66-.29.93-.19.27-.46.48-.8.63-.34.15-.74.23-1.19.23Z"/>
    <path class="cls-1" d="M111,185.36v-8.37h.72v1.17h.08c.08-.19.19-.37.34-.57.15-.19.35-.35.59-.49s.56-.2.93-.2c.49,0,.93.13,1.31.4s.67.63.88,1.1c.21.47.32,1.02.32,1.65s-.1,1.19-.31,1.66c-.21.47-.5.84-.88,1.11-.38.26-.81.4-1.31.4-.37,0-.67-.07-.92-.2s-.45-.3-.6-.49c-.15-.2-.27-.39-.35-.58h-.06v3.42h-.74ZM113.57,182.54c.4,0,.73-.11,1.01-.33.28-.22.49-.52.63-.9s.22-.8.22-1.27-.07-.88-.21-1.26c-.14-.37-.35-.67-.63-.88-.28-.22-.61-.33-1.01-.33s-.73.11-1,.32c-.27.21-.48.5-.63.87-.14.37-.22.8-.22,1.28s.07.91.22,1.29c.15.38.35.67.63.89.27.21.61.32.99.32Z"/>
    <path class="cls-1" d="M120.1,183.21c-.53,0-1-.13-1.4-.4-.4-.27-.72-.64-.95-1.11-.23-.47-.34-1.02-.34-1.63s.11-1.17.34-1.65c.23-.47.54-.84.95-1.11.4-.27.87-.4,1.4-.4s.99.13,1.4.4c.41.27.72.64.95,1.11.23.47.34,1.02.34,1.65s-.11,1.16-.34,1.63c-.23.47-.55.84-.95,1.11-.4.27-.87.4-1.4.4ZM120.1,182.54c.42,0,.77-.11,1.06-.34.29-.23.51-.53.66-.9.15-.37.23-.79.23-1.24s-.08-.87-.23-1.25c-.15-.38-.37-.68-.66-.9-.29-.23-.64-.34-1.06-.34s-.77.11-1.05.34c-.29.23-.51.53-.66.9-.15.38-.23.79-.23,1.25s.08.86.23,1.24c.15.37.37.67.66.9.29.22.64.34,1.06.34Z"/>
    <path class="cls-1" d="M124.34,183.08v-6.09h.72v.95h.05c.12-.31.33-.56.64-.75.3-.19.64-.28,1.02-.28.06,0,.12,0,.2,0s.13,0,.18,0v.74s-.08-.01-.16-.02c-.08-.01-.17-.02-.27-.02-.47,0-.86.15-1.17.44-.31.29-.46.66-.46,1.11v3.91h-.74Z"/>
    <path class="cls-1" d="M130.58,176.98v.64h-1.25v4.01c0,.61.27.89.82.83.05,0,.11,0,.19-.02.07-.01.14-.03.21-.04l.15.64c-.16.05-.34.08-.56.09-.48.03-.86-.08-1.14-.35-.28-.26-.41-.63-.41-1.1v-4.06h-.9v-.64h.9v-1.45h.74v1.45h1.25Z"/>
    <path class="cls-1" d="M135.13,183.08v-8.12h.78v7.43h3.86v.69h-4.64Z"/>
    <path class="cls-1" d="M142.89,183.21c-.37,0-.71-.07-1.01-.22-.3-.14-.54-.35-.72-.62s-.27-.61-.27-1,.1-.72.3-.96c.2-.24.48-.42.83-.54.35-.12.76-.21,1.22-.26.5-.06.9-.12,1.17-.17s.42-.19.42-.42v-.14c0-.41-.12-.73-.37-.96-.25-.23-.6-.35-1.06-.35s-.79.09-1.06.29c-.27.19-.46.41-.56.67l-.71-.24c.13-.33.32-.6.57-.8.24-.2.52-.35.82-.44s.61-.14.93-.14c.24,0,.49.03.74.1s.49.17.71.32c.22.15.39.36.53.62.13.26.2.6.2,1v4.14h-.72v-.96h-.05c-.13.28-.36.53-.67.76-.31.23-.72.34-1.21.34ZM143,182.55c.37,0,.69-.08.96-.25.27-.17.48-.38.63-.66s.22-.58.22-.91v-.87c-.07.07-.2.12-.39.17-.19.05-.4.09-.62.12-.22.03-.41.06-.57.08-.51.06-.91.18-1.19.36-.28.18-.42.44-.42.8s.13.65.39.85c.26.2.59.3.98.3Z"/>
    <path class="cls-1" d="M147.06,185.27l.2-.64.09.03c.32.1.6.09.84-.03.24-.12.44-.4.59-.84l.24-.67-2.34-6.14h.81l1.41,3.83c.1.27.19.54.27.81.08.27.16.54.23.8.08-.27.16-.53.24-.8.08-.27.17-.54.28-.81l1.41-3.83h.8l-2.7,7.08c-.34.89-.9,1.33-1.67,1.33-.15,0-.29-.01-.41-.04s-.22-.05-.29-.09Z"/>
    <path class="cls-1" d="M155.7,183.21c-.57,0-1.06-.13-1.48-.4-.42-.27-.74-.64-.96-1.11-.23-.47-.34-1.02-.34-1.63s.11-1.16.34-1.64c.22-.48.54-.85.94-1.12s.87-.41,1.4-.41c.44,0,.86.11,1.26.33s.72.55.96,1c.25.45.37,1.02.37,1.71v.32h-4.52c.01.69.21,1.25.57,1.67s.86.62,1.47.62c.42,0,.77-.1,1.05-.29s.47-.43.58-.7l.7.22c-.14.38-.41.72-.81,1s-.91.43-1.52.43ZM153.66,179.62h3.77c-.04-.59-.22-1.08-.55-1.47-.32-.39-.76-.58-1.3-.58-.37,0-.69.09-.97.28s-.5.43-.67.74c-.17.31-.26.65-.28,1.03Z"/>
    <path class="cls-1" d="M159.7,183.08v-6.09h.72v.95h.05c.12-.31.33-.56.64-.75.3-.19.64-.28,1.02-.28.06,0,.12,0,.2,0s.13,0,.18,0v.74s-.08-.01-.16-.02c-.08-.01-.17-.02-.27-.02-.47,0-.86.15-1.17.44-.31.29-.46.66-.46,1.11v3.91h-.74Z"/>
  </g>
  <g>
    <rect class="cls-2" x="36.8" y="205.29" width="135.09" height="13.18"/>
    <path class="cls-1" d="M67.48,213.41v-8.12h.89l3.7,5.52c.13.2.29.45.47.74.18.29.36.6.54.95-.02-.36-.04-.69-.04-1s-.01-.59-.01-.82v-5.37h.77v8.12h-.9l-3.46-5.13c-.19-.28-.38-.57-.56-.88-.19-.31-.42-.69-.7-1.16.02.44.03.83.05,1.18.01.35.02.63.02.85v5.14h-.78Z"/>
    <path class="cls-1" d="M78.28,213.54c-.57,0-1.06-.13-1.48-.4-.42-.27-.74-.64-.96-1.11-.23-.47-.34-1.02-.34-1.63s.11-1.16.34-1.64c.22-.48.54-.85.94-1.12s.87-.41,1.4-.41c.44,0,.86.11,1.26.33s.72.55.96,1c.25.45.37,1.02.37,1.71v.32h-4.52c.01.69.21,1.25.57,1.67s.86.62,1.47.62c.42,0,.77-.1,1.05-.29s.47-.43.58-.7l.7.22c-.14.38-.41.72-.81,1s-.91.43-1.52.43ZM76.24,209.95h3.77c-.04-.59-.22-1.08-.55-1.47-.32-.39-.76-.58-1.3-.58-.37,0-.69.09-.97.28s-.5.43-.67.74c-.17.31-.26.65-.28,1.03Z"/>
    <path class="cls-1" d="M84.34,207.32v.64h-1.25v4.01c0,.61.27.89.82.83.05,0,.11,0,.19-.02.07-.01.14-.03.21-.04l.15.64c-.16.05-.34.08-.56.09-.48.03-.86-.08-1.14-.35-.28-.26-.41-.63-.41-1.1v-4.06h-.9v-.64h.9v-1.45h.74v1.45h1.25Z"/>
    <path class="cls-1" d="M87.14,213.41l-1.83-6.09h.78l.94,3.28c.08.29.16.6.25.94.09.34.17.7.26,1.1.09-.39.18-.75.27-1.09.09-.34.17-.66.26-.96l.98-3.28h.81l.98,3.28c.08.29.17.61.26.94.09.33.17.7.26,1.1.09-.39.17-.76.26-1.09.09-.33.17-.65.26-.95l.93-3.28h.78l-1.83,6.09h-.76l-1.04-3.41c-.09-.3-.17-.6-.26-.91-.08-.31-.17-.62-.25-.95-.08.32-.17.64-.25.95s-.17.61-.25.91l-1.04,3.41h-.77Z"/>
    <path class="cls-1" d="M97.1,213.54c-.53,0-1-.13-1.4-.4-.4-.27-.72-.64-.95-1.11-.23-.47-.34-1.02-.34-1.63s.11-1.17.34-1.65c.23-.47.54-.84.95-1.11.4-.27.87-.4,1.4-.4s.99.13,1.4.4c.41.27.72.64.95,1.11.23.47.34,1.02.34,1.65s-.11,1.16-.34,1.63c-.23.47-.55.84-.95,1.11-.4.27-.87.4-1.4.4ZM97.1,212.87c.42,0,.77-.11,1.06-.34.29-.23.51-.53.66-.9.15-.37.23-.79.23-1.24s-.08-.87-.23-1.25c-.15-.38-.37-.68-.66-.9-.29-.23-.64-.34-1.06-.34s-.77.11-1.05.34c-.29.23-.51.53-.66.9-.15.38-.23.79-.23,1.25s.08.86.23,1.24c.15.37.37.67.66.9.29.22.64.34,1.06.34Z"/>
    <path class="cls-1" d="M101.34,213.41v-6.09h.72v.95h.05c.12-.31.33-.56.64-.75.3-.19.64-.28,1.02-.28.06,0,.12,0,.2,0s.13,0,.18,0v.74s-.08-.01-.16-.02c-.08-.01-.17-.02-.27-.02-.47,0-.86.15-1.17.44-.31.29-.46.66-.46,1.11v3.91h-.74Z"/>
    <path class="cls-1" d="M105.46,213.41v-8.12h.74v4.88h.09l2.82-2.86h.93l-2.59,2.62,2.75,3.47h-.95l-2.35-2.99-.69.65v2.34h-.74Z"/>
    <path class="cls-1" d="M114.64,213.41v-8.12h.78v7.43h3.86v.69h-4.64Z"/>
    <path class="cls-1" d="M122.4,213.55c-.37,0-.71-.07-1.01-.22-.3-.14-.54-.35-.72-.62s-.27-.61-.27-1,.1-.72.3-.96c.2-.24.48-.42.83-.54.35-.12.76-.21,1.22-.26.5-.06.9-.12,1.17-.17s.42-.19.42-.42v-.14c0-.41-.12-.73-.37-.96-.25-.23-.6-.35-1.06-.35s-.79.09-1.06.29c-.27.19-.46.41-.56.67l-.71-.24c.13-.33.32-.6.57-.8.24-.2.52-.35.82-.44s.61-.14.93-.14c.24,0,.49.03.74.1s.49.17.71.32c.22.15.39.36.53.62.13.26.2.6.2,1v4.14h-.72v-.96h-.05c-.13.28-.36.53-.67.76-.31.23-.72.34-1.21.34ZM122.51,212.89c.37,0,.69-.08.96-.25.27-.17.48-.38.63-.66s.22-.58.22-.91v-.87c-.07.07-.2.12-.39.17-.19.05-.4.09-.62.12-.22.03-.41.06-.57.08-.51.06-.91.18-1.19.36-.28.18-.42.44-.42.8s.13.65.39.85c.26.2.59.3.98.3Z"/>
    <path class="cls-1" d="M126.57,215.61l.2-.64.09.03c.32.1.6.09.84-.03.24-.12.44-.4.59-.84l.24-.67-2.34-6.14h.81l1.41,3.83c.1.27.19.54.27.81.08.27.16.54.23.8.08-.27.16-.53.24-.8.08-.27.17-.54.28-.81l1.41-3.83h.8l-2.7,7.08c-.34.89-.9,1.33-1.67,1.33-.15,0-.29-.01-.41-.04s-.22-.05-.29-.09Z"/>
    <path class="cls-1" d="M135.21,213.54c-.57,0-1.06-.13-1.48-.4-.42-.27-.74-.64-.96-1.11-.23-.47-.34-1.02-.34-1.63s.11-1.16.34-1.64c.22-.48.54-.85.94-1.12s.87-.41,1.4-.41c.44,0,.86.11,1.26.33s.72.55.96,1c.25.45.37,1.02.37,1.71v.32h-4.52c.01.69.21,1.25.57,1.67s.86.62,1.47.62c.42,0,.77-.1,1.05-.29s.47-.43.58-.7l.7.22c-.14.38-.41.72-.81,1s-.91.43-1.52.43ZM133.17,209.95h3.77c-.04-.59-.22-1.08-.55-1.47-.32-.39-.76-.58-1.3-.58-.37,0-.69.09-.97.28s-.5.43-.67.74c-.17.31-.26.65-.28,1.03Z"/>
    <path class="cls-1" d="M139.21,213.41v-6.09h.72v.95h.05c.12-.31.33-.56.64-.75.3-.19.64-.28,1.02-.28.06,0,.12,0,.2,0s.13,0,.18,0v.74s-.08-.01-.16-.02c-.08-.01-.17-.02-.27-.02-.47,0-.86.15-1.17.44-.31.29-.46.66-.46,1.11v3.91h-.74Z"/>
  </g>
  <g>
    <rect class="cls-2" x="36.8" y="235.62" width="135.09" height="13.18"/>
    <path class="cls-1" d="M72.36,243.74v-8.12h2.76c.79,0,1.39.2,1.79.61.4.4.6.91.6,1.51,0,.51-.12.91-.37,1.2-.25.29-.56.48-.92.58v.07c.26.02.51.11.76.28s.45.4.61.69c.16.3.24.65.24,1.05,0,.62-.21,1.13-.62,1.53-.41.4-1.06.6-1.93.6h-2.92ZM73.13,239.29h2.04c.48,0,.86-.15,1.15-.44.29-.29.44-.66.44-1.09s-.14-.77-.42-1.04-.69-.4-1.24-.4h-1.97v2.98ZM73.13,243.05h2.12c.62,0,1.08-.14,1.37-.41s.45-.62.45-1.04c0-.31-.07-.58-.22-.83s-.36-.45-.62-.59c-.27-.15-.58-.22-.94-.22h-2.16v3.09Z"/>
    <path class="cls-1" d="M81.93,243.88c-.57,0-1.06-.13-1.48-.4-.42-.27-.74-.64-.96-1.11-.23-.47-.34-1.02-.34-1.63s.11-1.16.34-1.64c.22-.48.54-.85.94-1.12s.87-.41,1.4-.41c.44,0,.86.11,1.26.33s.72.55.96,1c.25.45.37,1.02.37,1.71v.32h-4.52c.01.69.21,1.25.57,1.67s.86.62,1.47.62c.42,0,.77-.1,1.05-.29s.47-.43.58-.7l.7.22c-.14.38-.41.72-.81,1s-.91.43-1.52.43ZM79.9,240.28h3.77c-.04-.59-.22-1.08-.55-1.47-.32-.39-.76-.58-1.3-.58-.37,0-.69.09-.97.28s-.5.43-.67.74c-.17.31-.26.65-.28,1.03Z"/>
    <path class="cls-1" d="M87.65,243.88c-.37,0-.71-.07-1.01-.22-.3-.14-.54-.35-.72-.62s-.27-.61-.27-1,.1-.72.3-.96c.2-.24.48-.42.83-.54.35-.12.76-.21,1.22-.26.5-.06.9-.12,1.17-.17s.42-.19.42-.42v-.14c0-.41-.12-.73-.37-.96-.25-.23-.6-.35-1.06-.35s-.79.09-1.06.29c-.27.19-.46.41-.56.67l-.71-.24c.13-.33.32-.6.57-.8.24-.2.52-.35.82-.44s.61-.14.93-.14c.24,0,.49.03.74.1s.49.17.71.32c.22.15.39.36.53.62.13.26.2.6.2,1v4.14h-.72v-.96h-.05c-.13.28-.36.53-.67.76-.31.23-.72.34-1.21.34ZM87.75,243.22c.37,0,.69-.08.96-.25.27-.17.48-.38.63-.66s.22-.58.22-.91v-.87c-.07.07-.2.12-.39.17-.19.05-.4.09-.62.12-.22.03-.41.06-.57.08-.51.06-.91.18-1.19.36-.28.18-.42.44-.42.8s.13.65.39.85c.26.2.59.3.98.3Z"/>
    <path class="cls-1" d="M92.17,243.74v-6.09h.72v.95h.05c.12-.31.33-.56.64-.75.3-.19.64-.28,1.02-.28.06,0,.12,0,.2,0s.13,0,.18,0v.74s-.08-.01-.16-.02c-.08-.01-.17-.02-.27-.02-.47,0-.86.15-1.17.44-.31.29-.46.66-.46,1.11v3.91h-.74Z"/>
    <path class="cls-1" d="M98.47,243.88c-.57,0-1.06-.13-1.48-.4-.42-.27-.74-.64-.96-1.11-.23-.47-.34-1.02-.34-1.63s.11-1.16.34-1.64c.22-.48.54-.85.94-1.12s.87-.41,1.4-.41c.44,0,.86.11,1.26.33s.72.55.96,1c.25.45.37,1.02.37,1.71v.32h-4.52c.01.69.21,1.25.57,1.67s.86.62,1.47.62c.42,0,.77-.1,1.05-.29s.47-.43.58-.7l.7.22c-.14.38-.41.72-.81,1s-.91.43-1.52.43ZM96.43,240.28h3.77c-.04-.59-.22-1.08-.55-1.47-.32-.39-.76-.58-1.3-.58-.37,0-.69.09-.97.28s-.5.43-.67.74c-.17.31-.26.65-.28,1.03Z"/>
    <path class="cls-1" d="M102.47,243.74v-6.09h.72v.95h.05c.12-.31.33-.56.64-.75.3-.19.64-.28,1.02-.28.06,0,.12,0,.2,0s.13,0,.18,0v.74s-.08-.01-.16-.02c-.08-.01-.17-.02-.27-.02-.47,0-.86.15-1.17.44-.31.29-.46.66-.46,1.11v3.91h-.74Z"/>
    <path class="cls-1" d="M109.76,243.74v-8.12h.78v7.43h3.86v.69h-4.64Z"/>
    <path class="cls-1" d="M117.52,243.88c-.37,0-.71-.07-1.01-.22-.3-.14-.54-.35-.72-.62s-.27-.61-.27-1,.1-.72.3-.96c.2-.24.48-.42.83-.54.35-.12.76-.21,1.22-.26.5-.06.9-.12,1.17-.17s.42-.19.42-.42v-.14c0-.41-.12-.73-.37-.96-.25-.23-.6-.35-1.06-.35s-.79.09-1.06.29c-.27.19-.46.41-.56.67l-.71-.24c.13-.33.32-.6.57-.8.24-.2.52-.35.82-.44s.61-.14.93-.14c.24,0,.49.03.74.1s.49.17.71.32c.22.15.39.36.53.62.13.26.2.6.2,1v4.14h-.72v-.96h-.05c-.13.28-.36.53-.67.76-.31.23-.72.34-1.21.34ZM117.63,243.22c.37,0,.69-.08.96-.25.27-.17.48-.38.63-.66s.22-.58.22-.91v-.87c-.07.07-.2.12-.39.17-.19.05-.4.09-.62.12-.22.03-.41.06-.57.08-.51.06-.91.18-1.19.36-.28.18-.42.44-.42.8s.13.65.39.85c.26.2.59.3.98.3Z"/>
    <path class="cls-1" d="M121.69,245.94l.2-.64.09.03c.32.1.6.09.84-.03.24-.12.44-.4.59-.84l.24-.67-2.34-6.14h.81l1.41,3.83c.1.27.19.54.27.81.08.27.16.54.23.8.08-.27.16-.53.24-.8.08-.27.17-.54.28-.81l1.41-3.83h.8l-2.7,7.08c-.34.89-.9,1.33-1.67,1.33-.15,0-.29-.01-.41-.04s-.22-.05-.29-.09Z"/>
    <path class="cls-1" d="M130.33,243.88c-.57,0-1.06-.13-1.48-.4-.42-.27-.74-.64-.96-1.11-.23-.47-.34-1.02-.34-1.63s.11-1.16.34-1.64c.22-.48.54-.85.94-1.12s.87-.41,1.4-.41c.44,0,.86.11,1.26.33s.72.55.96,1c.25.45.37,1.02.37,1.71v.32h-4.52c.01.69.21,1.25.57,1.67s.86.62,1.47.62c.42,0,.77-.1,1.05-.29s.47-.43.58-.7l.7.22c-.14.38-.41.72-.81,1s-.91.43-1.52.43ZM128.29,240.28h3.77c-.04-.59-.22-1.08-.55-1.47-.32-.39-.76-.58-1.3-.58-.37,0-.69.09-.97.28s-.5.43-.67.74c-.17.31-.26.65-.28,1.03Z"/>
    <path class="cls-1" d="M134.33,243.74v-6.09h.72v.95h.05c.12-.31.33-.56.64-.75.3-.19.64-.28,1.02-.28.06,0,.12,0,.2,0s.13,0,.18,0v.74s-.08-.01-.16-.02c-.08-.01-.17-.02-.27-.02-.47,0-.86.15-1.17.44-.31.29-.46.66-.46,1.11v3.91h-.74Z"/>
  </g>
  <g>
    <path class="cls-1" d="M24.71,231.43h-10.83v-1.47l7.43-3.02c.27-.11.62-.24,1.04-.38.42-.14.83-.28,1.23-.4-.39-.13-.79-.26-1.21-.41-.42-.14-.77-.27-1.05-.38l-7.43-3v-1.47h10.83v1.02h-6.87c-.38,0-.83,0-1.33-.01s-1-.01-1.49-.02c.53.17,1.05.36,1.56.54.51.19.93.35,1.26.48l6.87,2.81v.91l-6.87,2.83c-.32.13-.73.29-1.24.46-.5.18-1.03.37-1.58.56.46,0,.95-.02,1.46-.03.51,0,.96,0,1.35,0h6.87v.99Z"/>
    <path class="cls-1" d="M24.89,214.93c0,.76-.18,1.42-.53,1.97-.36.55-.85.98-1.48,1.29-.63.3-1.35.46-2.17.46s-1.54-.15-2.18-.45-1.13-.71-1.5-1.25-.54-1.16-.54-1.86c0-.59.15-1.15.44-1.68.29-.53.73-.96,1.33-1.29.6-.33,1.35-.49,2.27-.49h.43v6.02c.92-.02,1.67-.27,2.22-.76s.83-1.14.83-1.96c0-.57-.13-1.03-.39-1.39s-.57-.62-.93-.77l.3-.94c.51.18.95.54,1.34,1.08s.57,1.21.57,2.03ZM20.1,217.65v-5.03c-.79.05-1.44.29-1.96.73-.52.43-.77,1.01-.77,1.74,0,.49.12.92.37,1.29s.58.67.99.89.87.35,1.37.38Z"/>
    <path class="cls-1" d="M24.89,207.01c0,.8-.18,1.46-.54,1.98-.36.52-.88.85-1.57,1l-.23-.95c.49-.12.85-.35,1.09-.69.24-.35.36-.79.36-1.33,0-.62-.14-1.11-.41-1.48s-.62-.56-1.03-.56c-.66,0-1.09.44-1.31,1.32l-.32,1.32c-.33,1.39-1.05,2.08-2.16,2.08-.46,0-.85-.12-1.2-.37-.34-.25-.61-.58-.81-1.01-.19-.43-.29-.92-.29-1.46,0-.77.17-1.37.52-1.82.35-.45.81-.77,1.4-.96l.23.9c-.37.13-.68.34-.93.63-.25.29-.37.71-.37,1.24s.13.98.39,1.33c.26.35.59.52.99.52.67,0,1.12-.48,1.35-1.45l.3-1.24c.33-1.37,1.04-2.06,2.14-2.06.46,0,.88.13,1.24.39.36.26.64.61.84,1.07s.31.98.31,1.58Z"/>
    <path class="cls-1" d="M19.65,200.93h5.06v.99h-10.83v-.99h4.13c-.54-.25-.93-.6-1.17-1.04-.25-.44-.37-.93-.37-1.47,0-.82.26-1.49.77-2.01.51-.52,1.25-.77,2.21-.77h5.25v.99h-5.18c-.66,0-1.19.19-1.57.56s-.58.87-.58,1.5.2,1.17.61,1.6c.41.43.96.64,1.66.64Z"/>
    <path class="cls-1" d="M24.71,188.78h-10.83v-1.19l7.35-4.93c.27-.18.6-.39.99-.62.38-.24.8-.48,1.26-.73-.48.03-.92.05-1.34.06-.42,0-.78.01-1.1.01h-7.16v-1.03h10.83v1.2l-6.84,4.61c-.37.25-.76.5-1.17.75s-.92.56-1.55.93c.58-.02,1.11-.04,1.57-.06s.85-.03,1.14-.03h6.85v1.04Z"/>
    <path class="cls-1" d="M24.89,174.38c0,.76-.18,1.42-.53,1.97-.36.55-.85.98-1.48,1.29-.63.3-1.35.46-2.17.46s-1.54-.15-2.18-.45-1.13-.71-1.5-1.25-.54-1.16-.54-1.86c0-.59.15-1.15.44-1.68.29-.53.73-.96,1.33-1.29.6-.33,1.35-.49,2.27-.49h.43v6.02c.92-.02,1.67-.27,2.22-.76s.83-1.14.83-1.96c0-.57-.13-1.03-.39-1.39s-.57-.62-.93-.77l.3-.94c.51.18.95.54,1.34,1.08s.57,1.21.57,2.03ZM20.1,177.1v-5.03c-.79.05-1.44.29-1.96.73-.52.43-.77,1.01-.77,1.74,0,.49.12.92.37,1.29s.58.67.99.89.87.35,1.37.38Z"/>
    <path class="cls-1" d="M16.59,166.3h.86v1.67h5.35c.81,0,1.18-.36,1.11-1.09,0-.07,0-.15-.03-.25s-.04-.19-.05-.28l.85-.2c.07.21.11.46.12.74.04.64-.11,1.15-.46,1.52-.35.37-.84.55-1.47.55h-5.41v1.21h-.86v-1.21h-1.93v-.99h1.93v-1.67Z"/>
    <path class="cls-1" d="M24.71,162.57l-8.12,2.43v-1.04l4.38-1.25c.39-.11.8-.22,1.25-.33.45-.12.94-.23,1.47-.35-.52-.12-1-.24-1.45-.36-.45-.12-.87-.23-1.27-.35l-4.38-1.31v-1.08l4.38-1.3c.39-.11.81-.22,1.26-.34.45-.12.93-.23,1.46-.35-.52-.12-1.01-.23-1.45-.35-.45-.12-.87-.23-1.26-.34l-4.38-1.24v-1.04l8.12,2.43v1.02l-4.54,1.39c-.4.12-.8.23-1.21.34-.41.11-.83.22-1.26.33.43.11.85.22,1.27.33s.82.22,1.21.33l4.54,1.39v1.02Z"/>
    <path class="cls-1" d="M24.89,149.29c0,.71-.18,1.33-.53,1.87-.36.54-.85.96-1.48,1.26-.63.31-1.36.46-2.18.46s-1.57-.15-2.2-.46c-.63-.3-1.13-.73-1.48-1.26-.36-.54-.53-1.16-.53-1.87s.18-1.32.53-1.86c.36-.54.85-.96,1.48-1.27.63-.3,1.36-.46,2.2-.46s1.55.15,2.18.46c.63.31,1.12.73,1.48,1.27.36.54.53,1.16.53,1.86ZM23.99,149.29c0-.56-.15-1.03-.45-1.41-.3-.38-.7-.68-1.2-.88-.5-.2-1.05-.3-1.65-.3s-1.16.1-1.66.3c-.5.2-.9.5-1.21.89-.3.39-.45.86-.45,1.41s.15,1.02.45,1.41c.3.38.71.68,1.21.88.5.2,1.05.3,1.66.3s1.15-.1,1.65-.3c.5-.2.9-.5,1.2-.88.3-.39.45-.86.45-1.41Z"/>
    <path class="cls-1" d="M24.71,143.64h-8.12v-.96h1.26v-.07c-.42-.16-.75-.44-1-.85-.25-.41-.37-.86-.37-1.36,0-.08,0-.16,0-.26,0-.1,0-.18.01-.24h.99s-.01.11-.03.22-.02.23-.02.36c0,.63.19,1.15.58,1.56.39.41.89.61,1.49.61h5.21v.99Z"/>
    <path class="cls-1" d="M24.71,138.14h-10.83v-.99h6.51v-.12l-3.81-3.76v-1.24l3.5,3.45,4.63-3.66v1.26l-3.99,3.14.87.92h3.12v.99Z"/>
    <path class="cls-1" d="M15.09,129.77c0,.2-.07.37-.2.51-.14.14-.3.21-.49.21s-.35-.07-.49-.21c-.14-.14-.2-.31-.2-.51s.07-.37.2-.51.3-.21.49-.21.35.07.49.21.2.31.2.51ZM24.71,130.28h-8.12v-.99h8.12v.99Z"/>
    <path class="cls-1" d="M19.65,125.81h5.06v.99h-8.12v-.95h1.5c-.56-.25-.97-.6-1.22-1.05-.25-.45-.38-.94-.38-1.5,0-.82.26-1.49.77-2.01.51-.51,1.25-.77,2.21-.77h5.25v.98h-5.18c-.66,0-1.19.19-1.57.56s-.58.87-.58,1.5.2,1.17.61,1.6c.41.43.96.64,1.66.64Z"/>
    <path class="cls-1" d="M27.93,114.94c0,.83-.16,1.51-.46,2.04-.31.53-.71.91-1.18,1.14l-.49-.81c.31-.17.61-.44.87-.81.27-.36.4-.88.4-1.56,0-.72-.18-1.29-.53-1.73-.36-.44-.91-.65-1.65-.65h-1.82v.09c.25.11.5.26.74.47.25.21.45.47.6.8s.24.74.24,1.22c0,.64-.16,1.22-.48,1.72-.32.5-.77.9-1.37,1.18-.6.29-1.31.43-2.14.43s-1.55-.14-2.18-.42c-.62-.28-1.11-.67-1.46-1.18-.35-.5-.52-1.09-.52-1.75,0-.49.09-.91.26-1.24.18-.33.39-.59.65-.8s.51-.35.76-.46v-.1h-1.56v-.96h8.32c.69,0,1.25.15,1.7.44.45.29.78.69.99,1.2.21.51.32,1.08.32,1.73ZM23.74,114.99c0-.77-.28-1.38-.83-1.81s-1.32-.65-2.29-.65c-.62,0-1.18.1-1.67.29s-.87.47-1.15.83-.42.81-.42,1.34.14.98.43,1.36.68.65,1.17.84,1.04.28,1.64.28c.92,0,1.68-.21,2.26-.64s.87-1.04.87-1.83Z"/>
    <path class="cls-1" d="M24.9,101.45c0,1.11-.27,2-.81,2.66-.54.66-1.24,1.02-2.11,1.08v-1.05c.64-.05,1.14-.34,1.47-.85.34-.51.51-1.12.51-1.84,0-.54-.09-1.01-.27-1.43-.18-.41-.43-.74-.75-.98-.32-.24-.69-.36-1.13-.36-.54,0-.96.21-1.24.62s-.53.96-.73,1.63l-.37,1.28c-.25.86-.6,1.53-1.06,1.99-.45.47-1.02.7-1.71.7-.59,0-1.1-.16-1.55-.47-.45-.31-.79-.74-1.04-1.27-.25-.54-.37-1.14-.37-1.81s.13-1.28.38-1.81c.25-.52.59-.93,1.02-1.24.43-.3.92-.47,1.48-.49v1.01c-.6.06-1.08.33-1.42.79-.35.47-.52,1.05-.52,1.76s.19,1.35.56,1.81c.38.47.85.7,1.43.7.37,0,.68-.11.93-.32.25-.21.45-.48.61-.81.16-.33.29-.66.39-1.01l.33-1.13c.13-.46.31-.92.54-1.38.23-.45.53-.83.91-1.13.38-.3.86-.45,1.46-.45s1.11.15,1.57.45c.46.3.83.73,1.09,1.3.27.56.4,1.24.4,2.02Z"/>
    <path class="cls-1" d="M16.59,92.74h.86v1.67h5.35c.81,0,1.18-.36,1.11-1.09,0-.07,0-.15-.03-.25-.02-.1-.04-.19-.05-.28l.85-.2c.07.21.11.46.12.74.04.64-.11,1.15-.46,1.52-.35.37-.84.55-1.47.55h-5.41v1.21h-.86v-1.21h-1.93v-.99h1.93v-1.67Z"/>
    <path class="cls-1" d="M24.9,88.82c0,.49-.1.94-.29,1.35-.19.4-.47.73-.83.97s-.81.36-1.34.36-.96-.13-1.28-.4c-.32-.27-.56-.63-.72-1.1-.16-.47-.28-1.01-.35-1.62-.08-.67-.16-1.2-.23-1.57-.07-.37-.26-.56-.57-.56h-.19c-.54,0-.97.17-1.28.49-.31.33-.47.8-.47,1.41s.13,1.05.38,1.41c.25.36.55.61.89.75l-.32.94c-.44-.18-.79-.43-1.06-.76-.27-.32-.46-.69-.58-1.09-.12-.4-.19-.82-.19-1.24,0-.32.04-.65.13-.99.08-.34.23-.65.43-.94.2-.29.48-.53.83-.7.35-.18.8-.27,1.33-.27h5.51v.97h-1.29v.07c.37.18.71.48,1.01.9s.45.96.45,1.62ZM24.02,88.68c0-.49-.11-.92-.33-1.29s-.51-.64-.88-.84c-.37-.2-.77-.3-1.21-.3h-1.16c.09.09.16.27.23.52s.12.53.16.83.08.55.11.76c.08.68.24,1.21.48,1.58.24.37.59.56,1.07.56s.86-.17,1.13-.52c.27-.35.4-.78.4-1.31Z"/>
    <path class="cls-1" d="M24.87,79.61c0,.71-.18,1.33-.53,1.87-.35.54-.84.96-1.47,1.26-.63.31-1.35.46-2.18.46s-1.56-.15-2.19-.46-1.12-.73-1.48-1.26c-.36-.54-.53-1.16-.53-1.87,0-.55.1-1.03.31-1.46s.47-.78.78-1.06c.32-.28.64-.47.97-.58l.29.94c-.2.06-.42.19-.65.37s-.42.42-.58.73c-.16.3-.24.66-.24,1.07,0,.55.15,1.02.45,1.41.3.38.7.68,1.2.88.5.2,1.06.31,1.67.31s1.15-.1,1.65-.31c.5-.2.9-.5,1.2-.88.3-.39.45-.85.45-1.41,0-.42-.08-.78-.25-1.09-.17-.31-.37-.55-.6-.74-.24-.19-.46-.31-.67-.37l.29-.93c.33.1.66.29.99.58.33.28.59.64.8,1.08.21.43.32.93.32,1.48Z"/>
    <path class="cls-1" d="M24.71,74.46h-10.83v-.99h6.51v-.12l-3.81-3.76v-1.24l3.5,3.45,4.63-3.66v1.26l-3.99,3.14.87.92h3.12v.99Z"/>
  </g>
  <g>
    <rect class="cls-4" x="243.15" y="40.2" width="180.59" height="220.31"/>
    <path class="cls-1" d="M422.74,41.2v218.31h-178.59V41.2h178.59M424.74,39.2h-182.59v222.31h182.59V39.2h0Z"/>
  </g>
  <rect class="cls-3" x="279" y="47.71" width="135.09" height="64.67"/>
  <rect class="cls-3" x="279" y="118.88" width="135.09" height="64.67"/>
  <rect class="cls-3" x="279" y="190.05" width="135.09" height="64.67"/>
  <g>
    <rect class="cls-2" x="279" y="73.46" width="135.09" height="13.18"/>
    <path class="cls-1" d="M292.92,81.58v-8.12h2.65c.57,0,1.06.11,1.44.33.39.22.68.52.88.9.2.38.3.81.3,1.28s-.1.91-.3,1.29c-.2.38-.49.68-.88.9-.39.22-.87.33-1.44.33h-1.88v3.08h-.77ZM293.7,77.8h1.85c.63,0,1.1-.17,1.41-.52.31-.35.47-.78.47-1.31s-.16-.96-.47-1.3-.78-.52-1.42-.52h-1.84v3.65Z"/>
    <path class="cls-1" d="M299.79,81.58v-6.09h.72v.95h.05c.12-.31.33-.56.64-.75.3-.19.64-.28,1.02-.28.06,0,.12,0,.2,0s.13,0,.18,0v.74s-.08-.01-.16-.02c-.08-.01-.17-.02-.27-.02-.47,0-.86.15-1.17.44-.31.29-.46.66-.46,1.11v3.91h-.74Z"/>
    <path class="cls-1" d="M305.99,81.71c-.53,0-1-.13-1.4-.4-.4-.27-.72-.64-.95-1.11-.23-.47-.34-1.02-.34-1.63s.11-1.17.34-1.65c.23-.47.54-.84.95-1.11.4-.27.87-.4,1.4-.4s.99.13,1.4.4c.41.27.72.64.95,1.11.23.47.34,1.02.34,1.65s-.11,1.16-.34,1.63c-.23.47-.55.84-.95,1.11-.4.27-.87.4-1.4.4ZM305.99,81.04c.42,0,.77-.11,1.06-.34.29-.23.51-.53.66-.9.15-.37.23-.79.23-1.24s-.08-.87-.23-1.25c-.15-.38-.37-.68-.66-.9-.29-.23-.64-.34-1.06-.34s-.77.11-1.05.34c-.29.23-.51.53-.66.9-.15.38-.23.79-.23,1.25s.08.86.23,1.24c.15.37.37.67.66.9.29.22.64.34,1.06.34Z"/>
    <path class="cls-1" d="M311.78,81.58l-2.33-6.09h.81l1.41,3.83c.1.27.19.54.27.81.08.27.16.54.25.8.08-.27.16-.53.24-.8.08-.27.17-.54.27-.81l1.41-3.83h.8l-2.33,6.09h-.8Z"/>
    <path class="cls-1" d="M316.59,74.35c-.15,0-.28-.05-.38-.15s-.16-.22-.16-.37.05-.26.16-.37.23-.15.38-.15.28.05.38.15.16.22.16.37-.05.26-.16.37-.23.15-.38.15ZM316.22,81.58v-6.09h.74v6.09h-.74Z"/>
    <path class="cls-1" d="M320.76,81.71c-.6,0-1.09-.14-1.49-.41-.39-.27-.64-.66-.75-1.17l.71-.17c.09.37.26.64.52.82.26.18.59.27.99.27.46,0,.83-.1,1.11-.31.28-.21.42-.47.42-.77,0-.49-.33-.82-.99-.98l-.99-.24c-1.04-.25-1.56-.79-1.56-1.62,0-.34.09-.64.27-.9.18-.26.44-.46.76-.6.32-.15.69-.22,1.1-.22.57,0,1.03.13,1.36.39.34.26.58.61.72,1.05l-.68.17c-.09-.28-.25-.51-.47-.69-.22-.18-.53-.28-.93-.28s-.74.1-1,.29c-.26.19-.39.44-.39.74,0,.5.36.84,1.09,1.01l.93.22c1.03.25,1.54.78,1.54,1.6,0,.35-.1.66-.29.93-.19.27-.46.48-.8.63-.34.15-.74.23-1.19.23Z"/>
    <path class="cls-1" d="M324.96,74.35c-.15,0-.28-.05-.38-.15s-.16-.22-.16-.37.05-.26.16-.37.23-.15.38-.15.28.05.38.15.16.22.16.37-.05.26-.16.37-.23.15-.38.15ZM324.58,81.58v-6.09h.74v6.09h-.74Z"/>
    <path class="cls-1" d="M329.56,81.71c-.53,0-1-.13-1.4-.4-.4-.27-.72-.64-.95-1.11-.23-.47-.34-1.02-.34-1.63s.11-1.17.34-1.65c.23-.47.54-.84.95-1.11.4-.27.87-.4,1.4-.4s.99.13,1.4.4c.41.27.72.64.95,1.11.23.47.34,1.02.34,1.65s-.11,1.16-.34,1.63c-.23.47-.55.84-.95,1.11-.4.27-.87.4-1.4.4ZM329.56,81.04c.42,0,.77-.11,1.06-.34.29-.23.51-.53.66-.9.15-.37.23-.79.23-1.24s-.08-.87-.23-1.25c-.15-.38-.37-.68-.66-.9-.29-.23-.64-.34-1.06-.34s-.77.11-1.05.34c-.29.23-.51.53-.66.9-.15.38-.23.79-.23,1.25s.08.86.23,1.24c.15.37.37.67.66.9.29.22.64.34,1.06.34Z"/>
    <path class="cls-1" d="M334.54,77.78v3.8h-.74v-6.09h.71v1.12c.19-.42.45-.73.78-.92.33-.19.71-.29,1.12-.29.62,0,1.12.19,1.5.58.39.38.58.94.58,1.66v3.94h-.74v-3.89c0-.5-.14-.89-.42-1.18s-.65-.43-1.12-.43-.88.15-1.2.46c-.32.31-.48.72-.48,1.24Z"/>
    <path class="cls-1" d="M340.75,74.35c-.15,0-.28-.05-.38-.15s-.16-.22-.16-.37.05-.26.16-.37.23-.15.38-.15.28.05.38.15.16.22.16.37-.05.26-.16.37-.23.15-.38.15ZM340.37,81.58v-6.09h.74v6.09h-.74Z"/>
    <path class="cls-1" d="M343.72,77.78v3.8h-.74v-6.09h.71v1.12c.19-.42.45-.73.78-.92.33-.19.71-.29,1.12-.29.62,0,1.12.19,1.5.58.39.38.58.94.58,1.66v3.94h-.74v-3.89c0-.5-.14-.89-.42-1.18s-.65-.43-1.12-.43-.88.15-1.2.46c-.32.31-.48.72-.48,1.24Z"/>
    <path class="cls-1" d="M351.88,83.98c-.62,0-1.13-.12-1.53-.35-.4-.23-.68-.53-.86-.89l.61-.37c.13.24.33.45.6.65s.66.3,1.17.3c.54,0,.97-.13,1.3-.4.33-.27.49-.68.49-1.24v-1.37h-.07c-.08.19-.2.38-.35.56-.15.18-.35.33-.6.45s-.55.18-.92.18c-.48,0-.91-.12-1.29-.36-.38-.24-.67-.58-.89-1.03-.21-.45-.32-.98-.32-1.61s.11-1.17.32-1.63c.21-.47.5-.83.88-1.09.38-.26.82-.39,1.31-.39.37,0,.68.07.93.2s.45.29.6.49c.15.19.27.38.35.57h.08v-1.17h.72v6.24c0,.52-.11.94-.33,1.27-.22.33-.52.58-.9.74-.38.16-.81.24-1.3.24ZM351.83,80.85c.58,0,1.03-.21,1.36-.62s.48-.99.48-1.72c0-.47-.07-.89-.21-1.25-.14-.37-.35-.65-.62-.86s-.61-.31-1-.31-.74.11-1.02.32c-.28.22-.49.51-.63.87-.14.37-.21.78-.21,1.23,0,.69.16,1.26.48,1.69.32.43.78.65,1.38.65Z"/>
    <path class="cls-1" d="M359.55,81.58v-8.12h2.65c.57,0,1.06.11,1.44.33.39.22.68.52.88.9.2.38.3.81.3,1.28s-.1.91-.3,1.29c-.2.38-.49.68-.88.9-.39.22-.87.33-1.44.33h-1.88v3.08h-.77ZM360.32,77.8h1.85c.63,0,1.1-.17,1.41-.52.31-.35.47-.78.47-1.31s-.16-.96-.47-1.3-.78-.52-1.42-.52h-1.84v3.65Z"/>
    <path class="cls-1" d="M366.42,81.58v-6.09h.72v.95h.05c.12-.31.33-.56.64-.75.3-.19.64-.28,1.02-.28.06,0,.12,0,.2,0s.13,0,.18,0v.74s-.08-.01-.16-.02c-.08-.01-.17-.02-.27-.02-.47,0-.86.15-1.17.44-.31.29-.46.66-.46,1.11v3.91h-.74Z"/>
    <path class="cls-1" d="M372.62,81.71c-.53,0-1-.13-1.4-.4-.4-.27-.72-.64-.95-1.11-.23-.47-.34-1.02-.34-1.63s.11-1.17.34-1.65c.23-.47.54-.84.95-1.11.4-.27.87-.4,1.4-.4s.99.13,1.4.4c.41.27.72.64.95,1.11.23.47.34,1.02.34,1.65s-.11,1.16-.34,1.63c-.23.47-.55.84-.95,1.11-.4.27-.87.4-1.4.4ZM372.62,81.04c.42,0,.77-.11,1.06-.34.29-.23.51-.53.66-.9.15-.37.23-.79.23-1.24s-.08-.87-.23-1.25c-.15-.38-.37-.68-.66-.9-.29-.23-.64-.34-1.06-.34s-.77.11-1.05.34c-.29.23-.51.53-.66.9-.15.38-.23.79-.23,1.25s.08.86.23,1.24c.15.37.37.67.66.9.29.22.64.34,1.06.34Z"/>
    <path class="cls-1" d="M378.92,75.48v.64h-1.25v4.01c0,.61.27.89.82.83.05,0,.11,0,.19-.02.07-.01.14-.03.21-.04l.15.64c-.16.05-.34.08-.56.09-.48.03-.86-.08-1.14-.35-.28-.26-.41-.63-.41-1.1v-4.06h-.9v-.64h.9v-1.45h.74v1.45h1.25Z"/>
    <path class="cls-1" d="M382.47,81.71c-.53,0-1-.13-1.4-.4-.4-.27-.72-.64-.95-1.11-.23-.47-.34-1.02-.34-1.63s.11-1.17.34-1.65c.23-.47.54-.84.95-1.11.4-.27.87-.4,1.4-.4s.99.13,1.4.4c.41.27.72.64.95,1.11.23.47.34,1.02.34,1.65s-.11,1.16-.34,1.63c-.23.47-.55.84-.95,1.11-.4.27-.87.4-1.4.4ZM382.47,81.04c.42,0,.77-.11,1.06-.34.29-.23.51-.53.66-.9.15-.37.23-.79.23-1.24s-.08-.87-.23-1.25c-.15-.38-.37-.68-.66-.9-.29-.23-.64-.34-1.06-.34s-.77.11-1.05.34c-.29.23-.51.53-.66.9-.15.38-.23.79-.23,1.25s.08.86.23,1.24c.15.37.37.67.66.9.29.22.64.34,1.06.34Z"/>
    <path class="cls-1" d="M389.08,81.69c-.53,0-1-.13-1.4-.4-.4-.27-.72-.63-.95-1.1-.23-.47-.34-1.01-.34-1.63s.11-1.17.34-1.65c.23-.47.54-.84.95-1.11.4-.27.87-.4,1.4-.4.41,0,.78.08,1.1.23s.58.35.8.59c.21.24.36.48.44.73l-.7.22c-.05-.15-.14-.31-.28-.49-.14-.17-.32-.32-.54-.44s-.5-.18-.8-.18c-.41,0-.77.11-1.05.33s-.51.52-.66.9c-.15.38-.23.79-.23,1.25s.08.86.23,1.24c.15.37.37.67.66.9s.64.33,1.05.33c.32,0,.59-.06.82-.18.23-.12.41-.27.56-.45.14-.18.23-.34.28-.5l.7.22c-.08.25-.22.5-.43.74-.21.24-.48.44-.81.6-.33.16-.69.24-1.11.24Z"/>
    <path class="cls-1" d="M395.32,81.71c-.53,0-1-.13-1.4-.4-.4-.27-.72-.64-.95-1.11-.23-.47-.34-1.02-.34-1.63s.11-1.17.34-1.65c.23-.47.54-.84.95-1.11.4-.27.87-.4,1.4-.4s.99.13,1.4.4c.41.27.72.64.95,1.11.23.47.34,1.02.34,1.65s-.11,1.16-.34,1.63c-.23.47-.55.84-.95,1.11-.4.27-.87.4-1.4.4ZM395.32,81.04c.42,0,.77-.11,1.06-.34.29-.23.51-.53.66-.9.15-.37.23-.79.23-1.24s-.08-.87-.23-1.25c-.15-.38-.37-.68-.66-.9-.29-.23-.64-.34-1.06-.34s-.77.11-1.05.34c-.29.23-.51.53-.66.9-.15.38-.23.79-.23,1.25s.08.86.23,1.24c.15.37.37.67.66.9.29.22.64.34,1.06.34Z"/>
    <path class="cls-1" d="M400.31,73.46v8.12h-.74v-8.12h.74Z"/>
  </g>
  <g>
    <rect class="cls-2" x="279" y="144.62" width="135.09" height="13.18"/>
    <path class="cls-1" d="M289.41,152.74v-8.12h2.65c.57,0,1.06.11,1.44.33.39.22.68.52.88.9.2.38.3.81.3,1.28s-.1.91-.3,1.29c-.2.38-.49.68-.88.9-.39.22-.87.33-1.44.33h-1.88v3.08h-.77ZM290.19,148.97h1.85c.63,0,1.1-.17,1.41-.52.31-.35.47-.78.47-1.31s-.16-.96-.47-1.3-.78-.52-1.42-.52h-1.84v3.65Z"/>
    <path class="cls-1" d="M296.28,152.74v-6.09h.72v.95h.05c.12-.31.33-.56.64-.75.3-.19.64-.28,1.02-.28.06,0,.12,0,.2,0s.13,0,.18,0v.74s-.08-.01-.16-.02c-.08-.01-.17-.02-.27-.02-.47,0-.86.15-1.17.44-.31.29-.46.66-.46,1.11v3.91h-.74Z"/>
    <path class="cls-1" d="M302.48,152.88c-.53,0-1-.13-1.4-.4-.4-.27-.72-.64-.95-1.11-.23-.47-.34-1.02-.34-1.63s.11-1.17.34-1.65c.23-.47.54-.84.95-1.11.4-.27.87-.4,1.4-.4s.99.13,1.4.4c.41.27.72.64.95,1.11.23.47.34,1.02.34,1.65s-.11,1.16-.34,1.63c-.23.47-.55.84-.95,1.11-.4.27-.87.4-1.4.4ZM302.48,152.21c.42,0,.77-.11,1.06-.34.29-.23.51-.53.66-.9.15-.37.23-.79.23-1.24s-.08-.87-.23-1.25c-.15-.38-.37-.68-.66-.9-.29-.23-.64-.34-1.06-.34s-.77.11-1.05.34c-.29.23-.51.53-.66.9-.15.38-.23.79-.23,1.25s.08.86.23,1.24c.15.37.37.67.66.9.29.22.64.34,1.06.34Z"/>
    <path class="cls-1" d="M308.27,152.74l-2.33-6.09h.81l1.41,3.83c.1.27.19.54.27.81.08.27.16.54.25.8.08-.27.16-.53.24-.8.08-.27.17-.54.27-.81l1.41-3.83h.8l-2.33,6.09h-.8Z"/>
    <path class="cls-1" d="M313.08,145.52c-.15,0-.28-.05-.38-.15s-.16-.22-.16-.37.05-.26.16-.37.23-.15.38-.15.28.05.38.15.16.22.16.37-.05.26-.16.37-.23.15-.38.15ZM312.71,152.74v-6.09h.74v6.09h-.74Z"/>
    <path class="cls-1" d="M317.25,152.88c-.6,0-1.09-.14-1.49-.41-.39-.27-.64-.66-.75-1.17l.71-.17c.09.37.26.64.52.82.26.18.59.27.99.27.46,0,.83-.1,1.11-.31.28-.21.42-.47.42-.77,0-.49-.33-.82-.99-.98l-.99-.24c-1.04-.25-1.56-.79-1.56-1.62,0-.34.09-.64.27-.9.18-.26.44-.46.76-.6.32-.15.69-.22,1.1-.22.57,0,1.03.13,1.36.39.34.26.58.61.72,1.05l-.68.17c-.09-.28-.25-.51-.47-.69-.22-.18-.53-.28-.93-.28s-.74.1-1,.29c-.26.19-.39.44-.39.74,0,.5.36.84,1.09,1.01l.93.22c1.03.25,1.54.78,1.54,1.6,0,.35-.1.66-.29.93-.19.27-.46.48-.8.63-.34.15-.74.23-1.19.23Z"/>
    <path class="cls-1" d="M321.45,145.52c-.15,0-.28-.05-.38-.15s-.16-.22-.16-.37.05-.26.16-.37.23-.15.38-.15.28.05.38.15.16.22.16.37-.05.26-.16.37-.23.15-.38.15ZM321.07,152.74v-6.09h.74v6.09h-.74Z"/>
    <path class="cls-1" d="M326.05,152.88c-.53,0-1-.13-1.4-.4-.4-.27-.72-.64-.95-1.11-.23-.47-.34-1.02-.34-1.63s.11-1.17.34-1.65c.23-.47.54-.84.95-1.11.4-.27.87-.4,1.4-.4s.99.13,1.4.4c.41.27.72.64.95,1.11.23.47.34,1.02.34,1.65s-.11,1.16-.34,1.63c-.23.47-.55.84-.95,1.11-.4.27-.87.4-1.4.4ZM326.05,152.21c.42,0,.77-.11,1.06-.34.29-.23.51-.53.66-.9.15-.37.23-.79.23-1.24s-.08-.87-.23-1.25c-.15-.38-.37-.68-.66-.9-.29-.23-.64-.34-1.06-.34s-.77.11-1.05.34c-.29.23-.51.53-.66.9-.15.38-.23.79-.23,1.25s.08.86.23,1.24c.15.37.37.67.66.9.29.22.64.34,1.06.34Z"/>
    <path class="cls-1" d="M331.04,148.95v3.8h-.74v-6.09h.71v1.12c.19-.42.45-.73.78-.92.33-.19.71-.29,1.12-.29.62,0,1.12.19,1.5.58.39.38.58.94.58,1.66v3.94h-.74v-3.89c0-.5-.14-.89-.42-1.18s-.65-.43-1.12-.43-.88.15-1.2.46c-.32.31-.48.72-.48,1.24Z"/>
    <path class="cls-1" d="M337.24,145.52c-.15,0-.28-.05-.38-.15s-.16-.22-.16-.37.05-.26.16-.37.23-.15.38-.15.28.05.38.15.16.22.16.37-.05.26-.16.37-.23.15-.38.15ZM336.86,152.74v-6.09h.74v6.09h-.74Z"/>
    <path class="cls-1" d="M340.21,148.95v3.8h-.74v-6.09h.71v1.12c.19-.42.45-.73.78-.92.33-.19.71-.29,1.12-.29.62,0,1.12.19,1.5.58.39.38.58.94.58,1.66v3.94h-.74v-3.89c0-.5-.14-.89-.42-1.18s-.65-.43-1.12-.43-.88.15-1.2.46c-.32.31-.48.72-.48,1.24Z"/>
    <path class="cls-1" d="M348.37,155.15c-.62,0-1.13-.12-1.53-.35-.4-.23-.68-.53-.86-.89l.61-.37c.13.24.33.45.6.65s.66.3,1.17.3c.54,0,.97-.13,1.3-.4.33-.27.49-.68.49-1.24v-1.37h-.07c-.08.19-.2.38-.35.56-.15.18-.35.33-.6.45s-.55.18-.92.18c-.48,0-.91-.12-1.29-.36-.38-.24-.67-.58-.89-1.03-.21-.45-.32-.98-.32-1.61s.11-1.17.32-1.63c.21-.47.5-.83.88-1.09.38-.26.82-.39,1.31-.39.37,0,.68.07.93.2s.45.29.6.49c.15.19.27.38.35.57h.08v-1.17h.72v6.24c0,.52-.11.94-.33,1.27-.22.33-.52.58-.9.74-.38.16-.81.24-1.3.24ZM348.32,152.01c.58,0,1.03-.21,1.36-.62s.48-.99.48-1.72c0-.47-.07-.89-.21-1.25-.14-.37-.35-.65-.62-.86s-.61-.31-1-.31-.74.11-1.02.32c-.28.22-.49.51-.63.87-.14.37-.21.78-.21,1.23,0,.69.16,1.26.48,1.69.32.43.78.65,1.38.65Z"/>
    <path class="cls-1" d="M355.55,145.32v-.69h5.92v.69h-2.57v7.43h-.77v-7.43h-2.58Z"/>
    <path class="cls-1" d="M362.36,152.74v-6.09h.72v.95h.05c.12-.31.33-.56.64-.75.3-.19.64-.28,1.02-.28.06,0,.12,0,.2,0s.13,0,.18,0v.74s-.08-.01-.16-.02c-.08-.01-.17-.02-.27-.02-.47,0-.86.15-1.17.44-.31.29-.46.66-.46,1.11v3.91h-.74Z"/>
    <path class="cls-1" d="M367.97,152.88c-.37,0-.71-.07-1.01-.22-.3-.14-.54-.35-.72-.62s-.27-.61-.27-1,.1-.72.3-.96c.2-.24.48-.42.83-.54.35-.12.76-.21,1.22-.26.5-.06.9-.12,1.17-.17s.42-.19.42-.42v-.14c0-.41-.12-.73-.37-.96-.25-.23-.6-.35-1.06-.35s-.79.09-1.06.29c-.27.19-.46.41-.56.67l-.71-.24c.13-.33.32-.6.57-.8.24-.2.52-.35.82-.44s.61-.14.93-.14c.24,0,.49.03.74.1s.49.17.71.32c.22.15.39.36.53.62.13.26.2.6.2,1v4.14h-.72v-.96h-.05c-.13.28-.36.53-.67.76-.31.23-.72.34-1.21.34ZM368.08,152.22c.37,0,.69-.08.96-.25.27-.17.48-.38.63-.66s.22-.58.22-.91v-.87c-.07.07-.2.12-.39.17-.19.05-.4.09-.62.12-.22.03-.41.06-.57.08-.51.06-.91.18-1.19.36-.28.18-.42.44-.42.8s.13.65.39.85c.26.2.59.3.98.3Z"/>
    <path class="cls-1" d="M373.24,148.95v3.8h-.74v-6.09h.71v1.12c.19-.42.45-.73.78-.92.33-.19.71-.29,1.12-.29.62,0,1.12.19,1.5.58.39.38.58.94.58,1.66v3.94h-.74v-3.89c0-.5-.14-.89-.42-1.18s-.65-.43-1.12-.43-.88.15-1.2.46c-.32.31-.48.72-.48,1.24Z"/>
    <path class="cls-1" d="M381.01,152.88c-.6,0-1.09-.14-1.49-.41-.39-.27-.64-.66-.75-1.17l.71-.17c.09.37.26.64.52.82.26.18.59.27.99.27.46,0,.83-.1,1.11-.31.28-.21.42-.47.42-.77,0-.49-.33-.82-.99-.98l-.99-.24c-1.04-.25-1.56-.79-1.56-1.62,0-.34.09-.64.27-.9.18-.26.44-.46.76-.6.32-.15.69-.22,1.1-.22.57,0,1.03.13,1.36.39.34.26.58.61.72,1.05l-.68.17c-.09-.28-.25-.51-.47-.69-.22-.18-.53-.28-.93-.28s-.74.1-1,.29c-.26.19-.39.44-.39.74,0,.5.36.84,1.09,1.01l.93.22c1.03.25,1.54.78,1.54,1.6,0,.35-.1.66-.29.93-.19.27-.46.48-.8.63-.34.15-.74.23-1.19.23Z"/>
    <path class="cls-1" d="M384.83,155.02v-8.37h.72v1.17h.08c.08-.19.19-.37.34-.57.15-.19.35-.35.59-.49s.56-.2.93-.2c.49,0,.93.13,1.31.4s.67.63.88,1.1c.21.47.32,1.02.32,1.65s-.1,1.19-.31,1.66c-.21.47-.5.84-.88,1.11-.38.26-.81.4-1.31.4-.37,0-.67-.07-.92-.2s-.45-.3-.6-.49c-.15-.2-.27-.39-.35-.58h-.06v3.42h-.74ZM387.4,152.21c.4,0,.73-.11,1.01-.33.28-.22.49-.52.63-.9s.22-.8.22-1.27-.07-.88-.21-1.26c-.14-.37-.35-.67-.63-.88-.28-.22-.61-.33-1.01-.33s-.73.11-1,.32c-.27.21-.48.5-.63.87-.14.37-.22.8-.22,1.28s.07.91.22,1.29c.15.38.35.67.63.89.27.21.61.32.99.32Z"/>
    <path class="cls-1" d="M393.92,152.88c-.53,0-1-.13-1.4-.4-.4-.27-.72-.64-.95-1.11-.23-.47-.34-1.02-.34-1.63s.11-1.17.34-1.65c.23-.47.54-.84.95-1.11.4-.27.87-.4,1.4-.4s.99.13,1.4.4c.41.27.72.64.95,1.11.23.47.34,1.02.34,1.65s-.11,1.16-.34,1.63c-.23.47-.55.84-.95,1.11-.4.27-.87.4-1.4.4ZM393.92,152.21c.42,0,.77-.11,1.06-.34.29-.23.51-.53.66-.9.15-.37.23-.79.23-1.24s-.08-.87-.23-1.25c-.15-.38-.37-.68-.66-.9-.29-.23-.64-.34-1.06-.34s-.77.11-1.05.34c-.29.23-.51.53-.66.9-.15.38-.23.79-.23,1.25s.08.86.23,1.24c.15.37.37.67.66.9.29.22.64.34,1.06.34Z"/>
    <path class="cls-1" d="M398.16,152.74v-6.09h.72v.95h.05c.12-.31.33-.56.64-.75.3-.19.64-.28,1.02-.28.06,0,.12,0,.2,0s.13,0,.18,0v.74s-.08-.01-.16-.02c-.08-.01-.17-.02-.27-.02-.47,0-.86.15-1.17.44-.31.29-.46.66-.46,1.11v3.91h-.74Z"/>
    <path class="cls-1" d="M404.41,146.65v.64h-1.25v4.01c0,.61.27.89.82.83.05,0,.11,0,.19-.02.07-.01.14-.03.21-.04l.15.64c-.16.05-.34.08-.56.09-.48.03-.86-.08-1.14-.35-.28-.26-.41-.63-.41-1.1v-4.06h-.9v-.64h.9v-1.45h.74v1.45h1.25Z"/>
  </g>
  <g>
    <rect class="cls-2" x="279" y="215.79" width="135.09" height="13.18"/>
    <path class="cls-1" d="M281.02,223.91v-8.12h2.65c.57,0,1.06.11,1.44.33.39.22.68.52.88.9.2.38.3.81.3,1.28s-.1.91-.3,1.29c-.2.38-.49.68-.88.9-.39.22-.87.33-1.44.33h-1.88v3.08h-.77ZM281.79,220.14h1.85c.63,0,1.1-.17,1.41-.52.31-.35.47-.78.47-1.31s-.16-.96-.47-1.3-.78-.52-1.42-.52h-1.84v3.65Z"/>
    <path class="cls-1" d="M287.88,223.91v-6.09h.72v.95h.05c.12-.31.33-.56.64-.75.3-.19.64-.28,1.02-.28.06,0,.12,0,.2,0s.13,0,.18,0v.74s-.08-.01-.16-.02c-.08-.01-.17-.02-.27-.02-.47,0-.86.15-1.17.44-.31.29-.46.66-.46,1.11v3.91h-.74Z"/>
    <path class="cls-1" d="M294.08,224.04c-.53,0-1-.13-1.4-.4-.4-.27-.72-.64-.95-1.11-.23-.47-.34-1.02-.34-1.63s.11-1.17.34-1.65c.23-.47.54-.84.95-1.11.4-.27.87-.4,1.4-.4s.99.13,1.4.4c.41.27.72.64.95,1.11.23.47.34,1.02.34,1.65s-.11,1.16-.34,1.63c-.23.47-.55.84-.95,1.11-.4.27-.87.4-1.4.4ZM294.08,223.37c.42,0,.77-.11,1.06-.34.29-.23.51-.53.66-.9.15-.37.23-.79.23-1.24s-.08-.87-.23-1.25c-.15-.38-.37-.68-.66-.9-.29-.23-.64-.34-1.06-.34s-.77.11-1.05.34c-.29.23-.51.53-.66.9-.15.38-.23.79-.23,1.25s.08.86.23,1.24c.15.37.37.67.66.9.29.22.64.34,1.06.34Z"/>
    <path class="cls-1" d="M299.88,223.91l-2.33-6.09h.81l1.41,3.83c.1.27.19.54.27.81.08.27.16.54.25.8.08-.27.16-.53.24-.8.08-.27.17-.54.27-.81l1.41-3.83h.8l-2.33,6.09h-.8Z"/>
    <path class="cls-1" d="M304.69,216.69c-.15,0-.28-.05-.38-.15s-.16-.22-.16-.37.05-.26.16-.37.23-.15.38-.15.28.05.38.15.16.22.16.37-.05.26-.16.37-.23.15-.38.15ZM304.31,223.91v-6.09h.74v6.09h-.74Z"/>
    <path class="cls-1" d="M308.86,224.04c-.6,0-1.09-.14-1.49-.41-.39-.27-.64-.66-.75-1.17l.71-.17c.09.37.26.64.52.82.26.18.59.27.99.27.46,0,.83-.1,1.11-.31.28-.21.42-.47.42-.77,0-.49-.33-.82-.99-.98l-.99-.24c-1.04-.25-1.56-.79-1.56-1.62,0-.34.09-.64.27-.9.18-.26.44-.46.76-.6.32-.15.69-.22,1.1-.22.57,0,1.03.13,1.36.39.34.26.58.61.72,1.05l-.68.17c-.09-.28-.25-.51-.47-.69-.22-.18-.53-.28-.93-.28s-.74.1-1,.29c-.26.19-.39.44-.39.74,0,.5.36.84,1.09,1.01l.93.22c1.03.25,1.54.78,1.54,1.6,0,.35-.1.66-.29.93-.19.27-.46.48-.8.63-.34.15-.74.23-1.19.23Z"/>
    <path class="cls-1" d="M313.05,216.69c-.15,0-.28-.05-.38-.15s-.16-.22-.16-.37.05-.26.16-.37.23-.15.38-.15.28.05.38.15.16.22.16.37-.05.26-.16.37-.23.15-.38.15ZM312.68,223.91v-6.09h.74v6.09h-.74Z"/>
    <path class="cls-1" d="M317.66,224.04c-.53,0-1-.13-1.4-.4-.4-.27-.72-.64-.95-1.11-.23-.47-.34-1.02-.34-1.63s.11-1.17.34-1.65c.23-.47.54-.84.95-1.11.4-.27.87-.4,1.4-.4s.99.13,1.4.4c.41.27.72.64.95,1.11.23.47.34,1.02.34,1.65s-.11,1.16-.34,1.63c-.23.47-.55.84-.95,1.11-.4.27-.87.4-1.4.4ZM317.66,223.37c.42,0,.77-.11,1.06-.34.29-.23.51-.53.66-.9.15-.37.23-.79.23-1.24s-.08-.87-.23-1.25c-.15-.38-.37-.68-.66-.9-.29-.23-.64-.34-1.06-.34s-.77.11-1.05.34c-.29.23-.51.53-.66.9-.15.38-.23.79-.23,1.25s.08.86.23,1.24c.15.37.37.67.66.9.29.22.64.34,1.06.34Z"/>
    <path class="cls-1" d="M322.64,220.11v3.8h-.74v-6.09h.71v1.12c.19-.42.45-.73.78-.92.33-.19.71-.29,1.12-.29.62,0,1.12.19,1.5.58.39.38.58.94.58,1.66v3.94h-.74v-3.89c0-.5-.14-.89-.42-1.18s-.65-.43-1.12-.43-.88.15-1.2.46c-.32.31-.48.72-.48,1.24Z"/>
    <path class="cls-1" d="M328.84,216.69c-.15,0-.28-.05-.38-.15s-.16-.22-.16-.37.05-.26.16-.37.23-.15.38-.15.28.05.38.15.16.22.16.37-.05.26-.16.37-.23.15-.38.15ZM328.47,223.91v-6.09h.74v6.09h-.74Z"/>
    <path class="cls-1" d="M331.81,220.11v3.8h-.74v-6.09h.71v1.12c.19-.42.45-.73.78-.92.33-.19.71-.29,1.12-.29.62,0,1.12.19,1.5.58.39.38.58.94.58,1.66v3.94h-.74v-3.89c0-.5-.14-.89-.42-1.18s-.65-.43-1.12-.43-.88.15-1.2.46c-.32.31-.48.72-.48,1.24Z"/>
    <path class="cls-1" d="M339.97,226.32c-.62,0-1.13-.12-1.53-.35-.4-.23-.68-.53-.86-.89l.61-.37c.13.24.33.45.6.65s.66.3,1.17.3c.54,0,.97-.13,1.3-.4.33-.27.49-.68.49-1.24v-1.37h-.07c-.08.19-.2.38-.35.56-.15.18-.35.33-.6.45s-.55.18-.92.18c-.48,0-.91-.12-1.29-.36-.38-.24-.67-.58-.89-1.03-.21-.45-.32-.98-.32-1.61s.11-1.17.32-1.63c.21-.47.5-.83.88-1.09.38-.26.82-.39,1.31-.39.37,0,.68.07.93.2s.45.29.6.49c.15.19.27.38.35.57h.08v-1.17h.72v6.24c0,.52-.11.94-.33,1.27-.22.33-.52.58-.9.74-.38.16-.81.24-1.3.24ZM339.93,223.18c.58,0,1.03-.21,1.36-.62s.48-.99.48-1.72c0-.47-.07-.89-.21-1.25-.14-.37-.35-.65-.62-.86s-.61-.31-1-.31-.74.11-1.02.32c-.28.22-.49.51-.63.87-.14.37-.21.78-.21,1.23,0,.69.16,1.26.48,1.69.32.43.78.65,1.38.65Z"/>
    <path class="cls-1" d="M347.64,223.91v-8.12h2.76c.79,0,1.39.2,1.79.61.4.4.6.91.6,1.51,0,.51-.12.91-.37,1.2-.25.29-.56.48-.92.58v.07c.26.02.51.11.76.28s.45.4.61.69c.16.3.24.65.24,1.05,0,.62-.21,1.13-.62,1.53-.41.4-1.06.6-1.93.6h-2.92ZM348.42,219.46h2.04c.48,0,.86-.15,1.15-.44.29-.29.44-.66.44-1.09s-.14-.77-.42-1.04-.69-.4-1.24-.4h-1.97v2.98ZM348.42,223.22h2.12c.62,0,1.08-.14,1.37-.41s.45-.62.45-1.04c0-.31-.07-.58-.22-.83s-.36-.45-.62-.59c-.27-.15-.58-.22-.94-.22h-2.16v3.09Z"/>
    <path class="cls-1" d="M356.35,224.05c-.37,0-.71-.07-1.01-.22-.3-.14-.54-.35-.72-.62s-.27-.61-.27-1,.1-.72.3-.96c.2-.24.48-.42.83-.54.35-.12.76-.21,1.22-.26.5-.06.9-.12,1.17-.17s.42-.19.42-.42v-.14c0-.41-.12-.73-.37-.96-.25-.23-.6-.35-1.06-.35s-.79.09-1.06.29c-.27.19-.46.41-.56.67l-.71-.24c.13-.33.32-.6.57-.8.24-.2.52-.35.82-.44s.61-.14.93-.14c.24,0,.49.03.74.1s.49.17.71.32c.22.15.39.36.53.62.13.26.2.6.2,1v4.14h-.72v-.96h-.05c-.13.28-.36.53-.67.76-.31.23-.72.34-1.21.34ZM356.46,223.39c.37,0,.69-.08.96-.25.27-.17.48-.38.63-.66s.22-.58.22-.91v-.87c-.07.07-.2.12-.39.17-.19.05-.4.09-.62.12-.22.03-.41.06-.57.08-.51.06-.91.18-1.19.36-.28.18-.42.44-.42.8s.13.65.39.85c.26.2.59.3.98.3Z"/>
    <path class="cls-1" d="M360.88,223.91v-6.09h.72v.95h.05c.12-.31.33-.56.64-.75.3-.19.64-.28,1.02-.28.06,0,.12,0,.2,0s.13,0,.18,0v.74s-.08-.01-.16-.02c-.08-.01-.17-.02-.27-.02-.47,0-.86.15-1.17.44-.31.29-.46.66-.46,1.11v3.91h-.74Z"/>
    <path class="cls-1" d="M365.01,223.91v-6.09h.72v.95h.05c.12-.31.33-.56.64-.75.3-.19.64-.28,1.02-.28.06,0,.12,0,.2,0s.13,0,.18,0v.74s-.08-.01-.16-.02c-.08-.01-.17-.02-.27-.02-.47,0-.86.15-1.17.44-.31.29-.46.66-.46,1.11v3.91h-.74Z"/>
    <path class="cls-1" d="M369.51,216.69c-.15,0-.28-.05-.38-.15s-.16-.22-.16-.37.05-.26.16-.37.23-.15.38-.15.28.05.38.15.16.22.16.37-.05.26-.16.37-.23.15-.38.15ZM369.13,223.91v-6.09h.74v6.09h-.74Z"/>
    <path class="cls-1" d="M374.21,224.04c-.57,0-1.06-.13-1.48-.4-.42-.27-.74-.64-.96-1.11-.23-.47-.34-1.02-.34-1.63s.11-1.16.34-1.64c.22-.48.54-.85.94-1.12s.87-.41,1.4-.41c.44,0,.86.11,1.26.33s.72.55.96,1c.25.45.37,1.02.37,1.71v.32h-4.52c.01.69.21,1.25.57,1.67s.86.62,1.47.62c.42,0,.77-.1,1.05-.29s.47-.43.58-.7l.7.22c-.14.38-.41.72-.81,1s-.91.43-1.52.43ZM372.17,220.45h3.77c-.04-.59-.22-1.08-.55-1.47-.32-.39-.76-.58-1.3-.58-.37,0-.69.09-.97.28s-.5.43-.67.74c-.17.31-.26.65-.28,1.03Z"/>
    <path class="cls-1" d="M378.21,223.91v-6.09h.72v.95h.05c.12-.31.33-.56.64-.75.3-.19.64-.28,1.02-.28.06,0,.12,0,.2,0s.13,0,.18,0v.74s-.08-.01-.16-.02c-.08-.01-.17-.02-.27-.02-.47,0-.86.15-1.17.44-.31.29-.46.66-.46,1.11v3.91h-.74Z"/>
    <path class="cls-1" d="M385.5,223.91v-8.12h.78v7.43h3.86v.69h-4.64Z"/>
    <path class="cls-1" d="M393.26,224.05c-.37,0-.71-.07-1.01-.22-.3-.14-.54-.35-.72-.62s-.27-.61-.27-1,.1-.72.3-.96c.2-.24.48-.42.83-.54.35-.12.76-.21,1.22-.26.5-.06.9-.12,1.17-.17s.42-.19.42-.42v-.14c0-.41-.12-.73-.37-.96-.25-.23-.6-.35-1.06-.35s-.79.09-1.06.29c-.27.19-.46.41-.56.67l-.71-.24c.13-.33.32-.6.57-.8.24-.2.52-.35.82-.44s.61-.14.93-.14c.24,0,.49.03.74.1s.49.17.71.32c.22.15.39.36.53.62.13.26.2.6.2,1v4.14h-.72v-.96h-.05c-.13.28-.36.53-.67.76-.31.23-.72.34-1.21.34ZM393.37,223.39c.37,0,.69-.08.96-.25.27-.17.48-.38.63-.66s.22-.58.22-.91v-.87c-.07.07-.2.12-.39.17-.19.05-.4.09-.62.12-.22.03-.41.06-.57.08-.51.06-.91.18-1.19.36-.28.18-.42.44-.42.8s.13.65.39.85c.26.2.59.3.98.3Z"/>
    <path class="cls-1" d="M397.43,226.11l.2-.64.09.03c.32.1.6.09.84-.03.24-.12.44-.4.59-.84l.24-.67-2.34-6.14h.81l1.41,3.83c.1.27.19.54.27.81.08.27.16.54.23.8.08-.27.16-.53.24-.8.08-.27.17-.54.28-.81l1.41-3.83h.8l-2.7,7.08c-.34.89-.9,1.33-1.67,1.33-.15,0-.29-.01-.41-.04s-.22-.05-.29-.09Z"/>
    <path class="cls-1" d="M406.06,224.04c-.57,0-1.06-.13-1.48-.4-.42-.27-.74-.64-.96-1.11-.23-.47-.34-1.02-.34-1.63s.11-1.16.34-1.64c.22-.48.54-.85.94-1.12s.87-.41,1.4-.41c.44,0,.86.11,1.26.33s.72.55.96,1c.25.45.37,1.02.37,1.71v.32h-4.52c.01.69.21,1.25.57,1.67s.86.62,1.47.62c.42,0,.77-.1,1.05-.29s.47-.43.58-.7l.7.22c-.14.38-.41.72-.81,1s-.91.43-1.52.43ZM404.03,220.45h3.77c-.04-.59-.22-1.08-.55-1.47-.32-.39-.76-.58-1.3-.58-.37,0-.69.09-.97.28s-.5.43-.67.74c-.17.31-.26.65-.28,1.03Z"/>
    <path class="cls-1" d="M410.06,223.91v-6.09h.72v.95h.05c.12-.31.33-.56.64-.75.3-.19.64-.28,1.02-.28.06,0,.12,0,.2,0s.13,0,.18,0v.74s-.08-.01-.16-.02c-.08-.01-.17-.02-.27-.02-.47,0-.86.15-1.17.44-.31.29-.46.66-.46,1.11v3.91h-.74Z"/>
  </g>
  <g>
    <path class="cls-1" d="M266.91,231.43h-10.83v-1.47l7.43-3.02c.27-.11.62-.24,1.04-.38.42-.14.83-.28,1.23-.4-.39-.13-.79-.26-1.21-.41-.42-.14-.77-.27-1.05-.38l-7.43-3v-1.47h10.83v1.02h-6.87c-.38,0-.83,0-1.33-.01s-1-.01-1.49-.02c.53.17,1.05.36,1.56.54.51.19.93.35,1.26.48l6.87,2.81v.91l-6.87,2.83c-.32.13-.73.29-1.24.46-.5.18-1.03.37-1.58.56.46,0,.95-.02,1.46-.03.51,0,.96,0,1.35,0h6.87v.99Z"/>
    <path class="cls-1" d="M267.08,214.93c0,.76-.18,1.42-.53,1.97-.36.55-.85.98-1.48,1.29-.63.3-1.35.46-2.17.46s-1.54-.15-2.18-.45-1.13-.71-1.5-1.25-.54-1.16-.54-1.86c0-.59.15-1.15.44-1.68.29-.53.73-.96,1.33-1.29.6-.33,1.35-.49,2.27-.49h.43v6.02c.92-.02,1.67-.27,2.22-.76s.83-1.14.83-1.96c0-.57-.13-1.03-.39-1.39s-.57-.62-.93-.77l.3-.94c.51.18.95.54,1.34,1.08s.57,1.21.57,2.03ZM262.3,217.65v-5.03c-.79.05-1.44.29-1.96.73-.52.43-.77,1.01-.77,1.74,0,.49.12.92.37,1.29s.58.67.99.89.87.35,1.37.38Z"/>
    <path class="cls-1" d="M267.08,207.01c0,.8-.18,1.46-.54,1.98-.36.52-.88.85-1.57,1l-.23-.95c.49-.12.85-.35,1.09-.69.24-.35.36-.79.36-1.33,0-.62-.14-1.11-.41-1.48s-.62-.56-1.03-.56c-.66,0-1.09.44-1.31,1.32l-.32,1.32c-.33,1.39-1.05,2.08-2.16,2.08-.46,0-.85-.12-1.2-.37-.34-.25-.61-.58-.81-1.01-.19-.43-.29-.92-.29-1.46,0-.77.17-1.37.52-1.82.35-.45.81-.77,1.4-.96l.23.9c-.37.13-.68.34-.93.63-.25.29-.37.71-.37,1.24s.13.98.39,1.33c.26.35.59.52.99.52.67,0,1.12-.48,1.35-1.45l.3-1.24c.33-1.37,1.04-2.06,2.14-2.06.46,0,.88.13,1.24.39.36.26.64.61.84,1.07s.31.98.31,1.58Z"/>
    <path class="cls-1" d="M261.85,200.93h5.06v.99h-10.83v-.99h4.13c-.54-.25-.93-.6-1.17-1.04-.25-.44-.37-.93-.37-1.47,0-.82.26-1.49.77-2.01.51-.52,1.25-.77,2.21-.77h5.25v.99h-5.18c-.66,0-1.19.19-1.57.56s-.58.87-.58,1.5.2,1.17.61,1.6c.41.43.96.64,1.66.64Z"/>
    <path class="cls-1" d="M266.91,188.78h-10.83v-1.19l7.35-4.93c.27-.18.6-.39.99-.62.38-.24.8-.48,1.26-.73-.48.03-.92.05-1.34.06-.42,0-.78.01-1.1.01h-7.16v-1.03h10.83v1.2l-6.84,4.61c-.37.25-.76.5-1.17.75s-.92.56-1.55.93c.58-.02,1.11-.04,1.57-.06s.85-.03,1.14-.03h6.85v1.04Z"/>
    <path class="cls-1" d="M267.08,174.38c0,.76-.18,1.42-.53,1.97-.36.55-.85.98-1.48,1.29-.63.3-1.35.46-2.17.46s-1.54-.15-2.18-.45-1.13-.71-1.5-1.25-.54-1.16-.54-1.86c0-.59.15-1.15.44-1.68.29-.53.73-.96,1.33-1.29.6-.33,1.35-.49,2.27-.49h.43v6.02c.92-.02,1.67-.27,2.22-.76s.83-1.14.83-1.96c0-.57-.13-1.03-.39-1.39s-.57-.62-.93-.77l.3-.94c.51.18.95.54,1.34,1.08s.57,1.21.57,2.03ZM262.3,177.1v-5.03c-.79.05-1.44.29-1.96.73-.52.43-.77,1.01-.77,1.74,0,.49.12.92.37,1.29s.58.67.99.89.87.35,1.37.38Z"/>
    <path class="cls-1" d="M258.79,166.3h.86v1.67h5.35c.81,0,1.18-.36,1.11-1.09,0-.07,0-.15-.03-.25s-.04-.19-.05-.28l.85-.2c.07.21.11.46.12.74.04.64-.11,1.15-.46,1.52-.35.37-.84.55-1.47.55h-5.41v1.21h-.86v-1.21h-1.93v-.99h1.93v-1.67Z"/>
    <path class="cls-1" d="M266.91,162.57l-8.12,2.43v-1.04l4.38-1.25c.39-.11.8-.22,1.25-.33.45-.12.94-.23,1.47-.35-.52-.12-1-.24-1.45-.36-.45-.12-.87-.23-1.27-.35l-4.38-1.31v-1.08l4.38-1.3c.39-.11.81-.22,1.26-.34.45-.12.93-.23,1.46-.35-.52-.12-1.01-.23-1.45-.35-.45-.12-.87-.23-1.26-.34l-4.38-1.24v-1.04l8.12,2.43v1.02l-4.54,1.39c-.4.12-.8.23-1.21.34-.41.11-.83.22-1.26.33.43.11.85.22,1.27.33s.82.22,1.21.33l4.54,1.39v1.02Z"/>
    <path class="cls-1" d="M267.08,149.29c0,.71-.18,1.33-.53,1.87-.36.54-.85.96-1.48,1.26-.63.31-1.36.46-2.18.46s-1.57-.15-2.2-.46c-.63-.3-1.13-.73-1.48-1.26-.36-.54-.53-1.16-.53-1.87s.18-1.32.53-1.86c.36-.54.85-.96,1.48-1.27.63-.3,1.36-.46,2.2-.46s1.55.15,2.18.46c.63.31,1.12.73,1.48,1.27.36.54.53,1.16.53,1.86ZM266.19,149.29c0-.56-.15-1.03-.45-1.41-.3-.38-.7-.68-1.2-.88-.5-.2-1.05-.3-1.65-.3s-1.16.1-1.66.3c-.5.2-.9.5-1.21.89-.3.39-.45.86-.45,1.41s.15,1.02.45,1.41c.3.38.71.68,1.21.88.5.2,1.05.3,1.66.3s1.15-.1,1.65-.3c.5-.2.9-.5,1.2-.88.3-.39.45-.86.45-1.41Z"/>
    <path class="cls-1" d="M266.91,143.64h-8.12v-.96h1.26v-.07c-.42-.16-.75-.44-1-.85-.25-.41-.37-.86-.37-1.36,0-.08,0-.16,0-.26,0-.1,0-.18.01-.24h.99s-.01.11-.03.22-.02.23-.02.36c0,.63.19,1.15.58,1.56.39.41.89.61,1.49.61h5.21v.99Z"/>
    <path class="cls-1" d="M266.91,138.14h-10.83v-.99h6.51v-.12l-3.81-3.76v-1.24l3.5,3.45,4.63-3.66v1.26l-3.99,3.14.87.92h3.12v.99Z"/>
    <path class="cls-1" d="M257.28,129.77c0,.2-.07.37-.2.51-.14.14-.3.21-.49.21s-.35-.07-.49-.21c-.14-.14-.2-.31-.2-.51s.07-.37.2-.51.3-.21.49-.21.35.07.49.21.2.31.2.51ZM266.91,130.28h-8.12v-.99h8.12v.99Z"/>
    <path class="cls-1" d="M261.85,125.81h5.06v.99h-8.12v-.95h1.5c-.56-.25-.97-.6-1.22-1.05-.25-.45-.38-.94-.38-1.5,0-.82.26-1.49.77-2.01.51-.51,1.25-.77,2.21-.77h5.25v.98h-5.18c-.66,0-1.19.19-1.57.56s-.58.87-.58,1.5.2,1.17.61,1.6c.41.43.96.64,1.66.64Z"/>
    <path class="cls-1" d="M270.12,114.94c0,.83-.16,1.51-.46,2.04-.31.53-.71.91-1.18,1.14l-.49-.81c.31-.17.61-.44.87-.81.27-.36.4-.88.4-1.56,0-.72-.18-1.29-.53-1.73-.36-.44-.91-.65-1.65-.65h-1.82v.09c.25.11.5.26.74.47.25.21.45.47.6.8s.24.74.24,1.22c0,.64-.16,1.22-.48,1.72-.32.5-.77.9-1.37,1.18-.6.29-1.31.43-2.14.43s-1.55-.14-2.18-.42c-.62-.28-1.11-.67-1.46-1.18-.35-.5-.52-1.09-.52-1.75,0-.49.09-.91.26-1.24.18-.33.39-.59.65-.8s.51-.35.76-.46v-.1h-1.56v-.96h8.32c.69,0,1.25.15,1.7.44.45.29.78.69.99,1.2.21.51.32,1.08.32,1.73ZM265.94,114.99c0-.77-.28-1.38-.83-1.81s-1.32-.65-2.29-.65c-.62,0-1.18.1-1.67.29s-.87.47-1.15.83-.42.81-.42,1.34.14.98.43,1.36.68.65,1.17.84,1.04.28,1.64.28c.92,0,1.68-.21,2.26-.64s.87-1.04.87-1.83Z"/>
    <path class="cls-1" d="M267.09,101.45c0,1.11-.27,2-.81,2.66-.54.66-1.24,1.02-2.11,1.08v-1.05c.64-.05,1.14-.34,1.47-.85.34-.51.51-1.12.51-1.84,0-.54-.09-1.01-.27-1.43-.18-.41-.43-.74-.75-.98-.32-.24-.69-.36-1.13-.36-.54,0-.96.21-1.24.62s-.53.96-.73,1.63l-.37,1.28c-.25.86-.6,1.53-1.06,1.99-.45.47-1.02.7-1.71.7-.59,0-1.1-.16-1.55-.47-.45-.31-.79-.74-1.04-1.27-.25-.54-.37-1.14-.37-1.81s.13-1.28.38-1.81c.25-.52.59-.93,1.02-1.24.43-.3.92-.47,1.48-.49v1.01c-.6.06-1.08.33-1.42.79-.35.47-.52,1.05-.52,1.76s.19,1.35.56,1.81c.38.47.85.7,1.43.7.37,0,.68-.11.93-.32.25-.21.45-.48.61-.81.16-.33.29-.66.39-1.01l.33-1.13c.13-.46.31-.92.54-1.38.23-.45.53-.83.91-1.13.38-.3.86-.45,1.46-.45s1.11.15,1.57.45c.46.3.83.73,1.09,1.3.27.56.4,1.24.4,2.02Z"/>
    <path class="cls-1" d="M258.79,92.74h.86v1.67h5.35c.81,0,1.18-.36,1.11-1.09,0-.07,0-.15-.03-.25-.02-.1-.04-.19-.05-.28l.85-.2c.07.21.11.46.12.74.04.64-.11,1.15-.46,1.52-.35.37-.84.55-1.47.55h-5.41v1.21h-.86v-1.21h-1.93v-.99h1.93v-1.67Z"/>
    <path class="cls-1" d="M267.09,88.82c0,.49-.1.94-.29,1.35-.19.4-.47.73-.83.97s-.81.36-1.34.36-.96-.13-1.28-.4c-.32-.27-.56-.63-.72-1.1-.16-.47-.28-1.01-.35-1.62-.08-.67-.16-1.2-.23-1.57-.07-.37-.26-.56-.57-.56h-.19c-.54,0-.97.17-1.28.49-.31.33-.47.8-.47,1.41s.13,1.05.38,1.41c.25.36.55.61.89.75l-.32.94c-.44-.18-.79-.43-1.06-.76-.27-.32-.46-.69-.58-1.09-.12-.4-.19-.82-.19-1.24,0-.32.04-.65.13-.99.08-.34.23-.65.43-.94.2-.29.48-.53.83-.7.35-.18.8-.27,1.33-.27h5.51v.97h-1.29v.07c.37.18.71.48,1.01.9s.45.96.45,1.62ZM266.21,88.68c0-.49-.11-.92-.33-1.29s-.51-.64-.88-.84c-.37-.2-.77-.3-1.21-.3h-1.16c.09.09.16.27.23.52s.12.53.16.83.08.55.11.76c.08.68.24,1.21.48,1.58.24.37.59.56,1.07.56s.86-.17,1.13-.52c.27-.35.4-.78.4-1.31Z"/>
    <path class="cls-1" d="M267.06,79.61c0,.71-.18,1.33-.53,1.87-.35.54-.84.96-1.47,1.26-.63.31-1.35.46-2.18.46s-1.56-.15-2.19-.46-1.12-.73-1.48-1.26c-.36-.54-.53-1.16-.53-1.87,0-.55.1-1.03.31-1.46s.47-.78.78-1.06c.32-.28.64-.47.97-.58l.29.94c-.2.06-.42.19-.65.37s-.42.42-.58.73c-.16.3-.24.66-.24,1.07,0,.55.15,1.02.45,1.41.3.38.7.68,1.2.88.5.2,1.06.31,1.67.31s1.15-.1,1.65-.31c.5-.2.9-.5,1.2-.88.3-.39.45-.85.45-1.41,0-.42-.08-.78-.25-1.09-.17-.31-.37-.55-.6-.74-.24-.19-.46-.31-.67-.37l.29-.93c.33.1.66.29.99.58.33.28.59.64.8,1.08.21.43.32.93.32,1.48Z"/>
    <path class="cls-1" d="M266.91,74.46h-10.83v-.99h6.51v-.12l-3.81-3.76v-1.24l3.5,3.45,4.63-3.66v1.26l-3.99,3.14.87.92h3.12v.99Z"/>
  </g>
</svg>