<?xml version="1.0" encoding="UTF-8"?>
<svg id="Layer_1" data-name="Layer 1" xmlns="http://www.w3.org/2000/svg" viewBox="0 0 684 396">
  <defs>
    <style>
      .cls-1 {
        stroke: #000;
        stroke-width: .75px;
      }

      .cls-1, .cls-2, .cls-3, .cls-4 {
        fill: none;
        stroke-miterlimit: 10;
      }

      .cls-2 {
        stroke: #80c1fe;
      }

      .cls-2, .cls-3, .cls-4 {
        stroke-dasharray: 1 3 1 3 1 3;
      }

      .cls-5 {
        fill: #fff;
      }

      .cls-6 {
        fill: #ffcb0f;
      }

      .cls-3 {
        stroke: #d90000;
      }

      .cls-7 {
        fill: #7fb842;
      }

      .cls-8 {
        fill: #d90000;
      }

      .cls-4 {
        stroke: #646569;
      }

      .cls-9 {
        fill: #0082fc;
      }
    </style>
  </defs>
  <g>
    <line class="cls-1" x1="48.88" y1="49.56" x2="339.31" y2="49.56"/>
    <polygon points="49.43 51.43 46.19 49.56 49.43 47.69 49.43 51.43"/>
    <polygon points="338.76 51.43 342 49.56 338.76 47.69 338.76 51.43"/>
  </g>
  <g>
    <line class="cls-1" x1="50.41" y1="215.09" x2="79.84" y2="215.09"/>
    <polygon points="50.95 216.96 47.71 215.09 50.95 213.22 50.95 216.96"/>
    <polygon points="79.3 216.96 82.54 215.09 79.3 213.22 79.3 216.96"/>
  </g>
  <g>
    <line class="cls-1" x1="84.52" y1="215.09" x2="115.49" y2="215.09"/>
    <polygon points="85.07 216.96 81.83 215.09 85.07 213.22 85.07 216.96"/>
    <polygon points="114.94 216.96 118.18 215.09 114.94 213.22 114.94 216.96"/>
  </g>
  <line class="cls-4" x1="45.82" y1="360.85" x2="45.82" y2="35.15"/>
  <line class="cls-3" x1="192.25" y1="360.85" x2="192.25" y2="121.23"/>
  <line class="cls-3" x1="493.64" y1="360.85" x2="493.64" y2="121.23"/>
  <line class="cls-2" x1="154.53" y1="218.55" x2="154.53" y2="144.86"/>
  <line class="cls-2" x1="118.18" y1="218.55" x2="118.18" y2="144.86"/>
  <line class="cls-2" x1="81.83" y1="218.55" x2="81.83" y2="144.86"/>
  <line class="cls-4" x1="638.18" y1="35.15" x2="638.18" y2="360.85"/>
  <rect class="cls-9" x="47.71" y="63.08" width="292.55" height="14.54"/>
  <rect class="cls-7" x="47.71" y="128.86" width="142.65" height="14.54"/>
  <rect class="cls-9" x="344.33" y="63.08" width="292.55" height="14.54"/>
  <line class="cls-4" x1="342" y1="35.15" x2="342" y2="360.85"/>
  <g>
    <rect class="cls-5" x="164.41" y="40.66" width="59.36" height="17.63"/>
    <g>
      <path d="M169.25,52.6v-6.95h.98v6.95h-.98Z"/>
      <path d="M175.64,47.53c-.02-.12-.06-.26-.13-.4-.07-.14-.16-.27-.27-.39s-.26-.21-.44-.29-.39-.11-.63-.11c-.2,0-.38.03-.54.09-.16.06-.31.14-.43.24-.12.11-.21.23-.28.37-.07.14-.1.29-.1.46,0,.25.08.46.23.64s.37.3.67.37l1.04.22c.58.13,1.03.37,1.34.71s.47.75.47,1.25c0,.27-.06.53-.17.77s-.27.47-.48.66c-.21.19-.46.34-.75.46s-.63.17-1,.17c-.42,0-.78-.06-1.09-.19s-.57-.28-.78-.48c-.21-.2-.38-.42-.5-.66-.12-.25-.19-.49-.23-.74l.92-.29c.02.2.07.38.14.56.07.18.18.34.32.48.14.14.31.25.51.33s.43.12.69.12c.48,0,.83-.11,1.07-.32.24-.22.36-.48.36-.78,0-.25-.08-.47-.25-.67s-.43-.33-.78-.41l-.99-.22c-.5-.11-.9-.33-1.22-.64-.32-.32-.47-.74-.47-1.26,0-.27.06-.54.18-.78.12-.25.28-.47.49-.66.21-.19.45-.34.73-.46s.58-.17.9-.17c.39,0,.73.05,1,.16.28.11.51.25.7.42s.33.36.44.56c.1.2.18.4.21.59l-.86.3Z"/>
      <path d="M177.52,49.12c0-.58.1-1.1.3-1.54s.46-.83.79-1.13c.33-.31.7-.54,1.12-.7s.85-.24,1.28-.24.87.08,1.28.24.79.39,1.12.7c.33.31.59.68.79,1.13s.3.96.3,1.54-.1,1.1-.3,1.55-.46.83-.79,1.14c-.33.31-.7.54-1.12.7s-.85.24-1.28.24-.87-.08-1.28-.24-.79-.39-1.12-.7c-.33-.31-.59-.69-.79-1.14s-.3-.97-.3-1.55ZM178.5,49.12c0,.45.07.85.21,1.19.14.34.33.63.56.86.23.23.5.41.8.52.3.11.61.17.94.17s.63-.06.94-.17.57-.29.8-.52c.23-.23.42-.52.56-.86.14-.34.21-.74.21-1.19s-.07-.85-.21-1.19c-.14-.34-.33-.63-.56-.86-.23-.23-.5-.4-.8-.51s-.62-.17-.94-.17-.64.06-.94.17c-.3.11-.57.29-.8.51-.23.23-.42.51-.56.86-.14.34-.21.74-.21,1.19Z"/>
      <path d="M188.28,52.6v-6.95h.98v6.95h-.98Z"/>
      <path d="M191.84,52.6h-.92v-4.71h.9v.68c.17-.29.39-.5.65-.63.26-.12.53-.19.8-.19s.53.05.74.14c.21.09.39.23.53.39.14.17.25.36.31.59s.1.47.1.74v2.99h-.92v-2.83c0-.16-.02-.32-.05-.46-.04-.14-.1-.27-.19-.38-.09-.11-.2-.19-.34-.25-.14-.06-.31-.09-.51-.09-.18,0-.34.03-.48.1-.14.07-.25.16-.34.28-.09.12-.16.25-.21.41-.05.16-.07.32-.07.5v2.72Z"/>
      <path d="M197.66,47.89h1.02v.83h-1.02v2.45c0,.22.05.38.15.49.1.11.27.16.51.16.06,0,.12,0,.2,0,.07,0,.13-.02.17-.03v.78s-.11.03-.23.05c-.11.02-.25.03-.4.03-.41,0-.73-.12-.96-.35-.24-.23-.35-.56-.35-1v-2.59h-.9v-.83h.25c.25,0,.44-.07.55-.21.11-.14.17-.31.17-.52v-.76h.84v1.49Z"/>
      <path d="M203.91,51.26c-.07.21-.16.4-.29.58-.13.18-.28.34-.46.47s-.38.24-.61.32c-.23.08-.48.12-.75.12-.31,0-.61-.06-.9-.17-.29-.11-.54-.27-.76-.49s-.39-.48-.52-.79c-.13-.31-.19-.67-.19-1.07,0-.37.06-.71.19-1.01s.29-.57.5-.78.45-.39.72-.51c.27-.12.56-.18.85-.18.36,0,.68.06.97.18.28.12.52.29.71.5.19.22.33.48.44.78.1.3.15.64.15,1,0,.06,0,.11,0,.17,0,.05,0,.09-.01.13h-3.55c0,.21.05.4.12.58.07.18.17.33.3.46.13.13.28.23.45.29.17.07.36.1.55.1.38,0,.68-.09.88-.27.2-.18.35-.41.44-.68l.79.27ZM202.97,49.76c-.01-.34-.13-.62-.34-.86-.22-.23-.53-.35-.95-.35-.2,0-.37.03-.52.1s-.28.16-.39.27c-.11.11-.19.24-.26.39s-.1.29-.11.44h2.58Z"/>
      <path d="M207.76,48.82c-.14-.02-.27-.03-.4-.03-.39,0-.7.11-.94.34s-.36.6-.36,1.11v2.36h-.92v-4.71h.9v.82c.08-.18.18-.33.3-.45.11-.11.23-.21.36-.27.12-.07.25-.12.38-.14.13-.03.25-.04.37-.04.07,0,.13,0,.18,0,.05,0,.1.01.12.02v.98Z"/>
      <path d="M211.22,52.6h-.93l-1.91-4.71h1.04l1.34,3.64,1.35-3.64h.99l-1.88,4.71Z"/>
      <path d="M213.63,51.34c0-.21.04-.4.11-.56.07-.17.17-.31.3-.43.13-.12.28-.21.46-.29.18-.07.37-.12.57-.16l1.27-.19c.14-.02.24-.06.29-.13.05-.07.07-.14.07-.23,0-.23-.08-.43-.24-.59-.16-.17-.42-.25-.78-.25-.33,0-.58.09-.75.27s-.28.41-.31.68l-.88-.21c.03-.22.09-.43.2-.62s.25-.35.42-.49.37-.24.59-.31.47-.11.72-.11c.35,0,.65.05.9.14s.45.22.61.38c.16.16.27.34.34.55.07.21.11.43.11.66v2.36c0,.21,0,.38.02.5.01.12.03.22.04.27h-.9c-.01-.06-.02-.14-.03-.24,0-.1-.01-.23-.01-.4-.05.08-.12.17-.21.26s-.19.18-.31.25c-.12.08-.27.14-.44.19-.17.05-.35.07-.56.07-.24,0-.46-.04-.65-.12-.19-.08-.36-.18-.49-.31-.14-.13-.24-.28-.32-.45-.08-.17-.11-.35-.11-.54ZM215.34,51.97c.19,0,.37-.02.53-.07.17-.05.31-.13.43-.24.12-.11.22-.25.29-.43.07-.18.11-.4.11-.65v-.21l-1.44.21c-.2.03-.36.11-.49.22s-.2.28-.2.49c0,.18.07.33.21.48.14.14.32.21.56.21Z"/>
      <path d="M219.05,52.6v-7.1h.92v7.1h-.92Z"/>
    </g>
  </g>
  <g>
    <line class="cls-1" x1="48.88" y1="115.51" x2="339.31" y2="115.51"/>
    <polygon points="49.43 117.38 46.19 115.51 49.43 113.64 49.43 117.38"/>
    <polygon points="338.76 117.38 342 115.51 338.76 113.64 338.76 117.38"/>
  </g>
  <g>
    <rect class="cls-5" x="164.41" y="106.61" width="59.36" height="17.63"/>
    <g>
      <path d="M169.25,118.55v-6.95h.98v6.95h-.98Z"/>
      <path d="M175.64,113.48c-.02-.12-.06-.26-.13-.4-.07-.14-.16-.27-.27-.39s-.26-.21-.44-.29-.39-.11-.63-.11c-.2,0-.38.03-.54.09-.16.06-.31.14-.43.24-.12.11-.21.23-.28.37-.07.14-.1.29-.1.46,0,.25.08.46.23.64s.37.3.67.37l1.04.22c.58.13,1.03.37,1.34.71s.47.75.47,1.25c0,.27-.06.53-.17.77s-.27.47-.48.66c-.21.19-.46.34-.75.46s-.63.17-1,.17c-.42,0-.78-.06-1.09-.19s-.57-.28-.78-.48c-.21-.2-.38-.42-.5-.66-.12-.25-.19-.49-.23-.74l.92-.29c.02.2.07.38.14.56.07.18.18.34.32.48.14.14.31.25.51.33s.43.12.69.12c.48,0,.83-.11,1.07-.32.24-.22.36-.48.36-.78,0-.25-.08-.47-.25-.67s-.43-.33-.78-.41l-.99-.22c-.5-.11-.9-.33-1.22-.64-.32-.32-.47-.74-.47-1.26,0-.27.06-.54.18-.78.12-.25.28-.47.49-.66.21-.19.45-.34.73-.46s.58-.17.9-.17c.39,0,.73.05,1,.16.28.11.51.25.7.42s.33.36.44.56c.1.2.18.4.21.59l-.86.3Z"/>
      <path d="M177.52,115.07c0-.58.1-1.1.3-1.54s.46-.83.79-1.13c.33-.31.7-.54,1.12-.7s.85-.24,1.28-.24.87.08,1.28.24.79.39,1.12.7c.33.31.59.68.79,1.13s.3.96.3,1.54-.1,1.1-.3,1.55-.46.83-.79,1.14c-.33.31-.7.54-1.12.7s-.85.24-1.28.24-.87-.08-1.28-.24-.79-.39-1.12-.7c-.33-.31-.59-.69-.79-1.14s-.3-.97-.3-1.55ZM178.5,115.07c0,.45.07.85.21,1.19.14.34.33.63.56.86.23.23.5.41.8.52.3.11.61.17.94.17s.63-.06.94-.17.57-.29.8-.52c.23-.23.42-.52.56-.86.14-.34.21-.74.21-1.19s-.07-.85-.21-1.19c-.14-.34-.33-.63-.56-.86-.23-.23-.5-.4-.8-.51s-.62-.17-.94-.17-.64.06-.94.17c-.3.11-.57.29-.8.51-.23.23-.42.51-.56.86-.14.34-.21.74-.21,1.19Z"/>
      <path d="M188.28,118.55v-6.95h.98v6.95h-.98Z"/>
      <path d="M191.84,118.55h-.92v-4.71h.9v.68c.17-.29.39-.5.65-.63.26-.12.53-.19.8-.19s.53.05.74.14c.21.09.39.23.53.39.14.17.25.36.31.59s.1.47.1.74v2.99h-.92v-2.83c0-.16-.02-.32-.05-.46-.04-.14-.1-.27-.19-.38-.09-.11-.2-.19-.34-.25-.14-.06-.31-.09-.51-.09-.18,0-.34.03-.48.1-.14.07-.25.16-.34.28-.09.12-.16.25-.21.41-.05.16-.07.32-.07.5v2.72Z"/>
      <path d="M197.66,113.83h1.02v.83h-1.02v2.45c0,.22.05.38.15.49.1.11.27.16.51.16.06,0,.12,0,.2,0,.07,0,.13-.02.17-.03v.78s-.11.03-.23.05c-.11.02-.25.03-.4.03-.41,0-.73-.12-.96-.35-.24-.23-.35-.56-.35-1v-2.59h-.9v-.83h.25c.25,0,.44-.07.55-.21.11-.14.17-.31.17-.52v-.76h.84v1.49Z"/>
      <path d="M203.91,117.21c-.07.21-.16.4-.29.58-.13.18-.28.34-.46.47s-.38.24-.61.32c-.23.08-.48.12-.75.12-.31,0-.61-.06-.9-.17-.29-.11-.54-.27-.76-.49s-.39-.48-.52-.79c-.13-.31-.19-.67-.19-1.07,0-.37.06-.71.19-1.01s.29-.57.5-.78.45-.39.72-.51c.27-.12.56-.18.85-.18.36,0,.68.06.97.18.28.12.52.29.71.5.19.22.33.48.44.78.1.3.15.64.15,1,0,.06,0,.11,0,.17,0,.05,0,.09-.01.13h-3.55c0,.21.05.4.12.58.07.18.17.33.3.46.13.13.28.23.45.29.17.07.36.1.55.1.38,0,.68-.09.88-.27.2-.18.35-.41.44-.68l.79.27ZM202.97,115.71c-.01-.34-.13-.62-.34-.86-.22-.23-.53-.35-.95-.35-.2,0-.37.03-.52.1s-.28.16-.39.27c-.11.11-.19.24-.26.39s-.1.29-.11.44h2.58Z"/>
      <path d="M207.76,114.77c-.14-.02-.27-.03-.4-.03-.39,0-.7.11-.94.34s-.36.6-.36,1.11v2.36h-.92v-4.71h.9v.82c.08-.18.18-.33.3-.45.11-.11.23-.21.36-.27.12-.07.25-.12.38-.14.13-.03.25-.04.37-.04.07,0,.13,0,.18,0,.05,0,.1.01.12.02v.98Z"/>
      <path d="M211.22,118.55h-.93l-1.91-4.71h1.04l1.34,3.64,1.35-3.64h.99l-1.88,4.71Z"/>
      <path d="M213.63,117.28c0-.21.04-.4.11-.56.07-.17.17-.31.3-.43.13-.12.28-.21.46-.29.18-.07.37-.12.57-.16l1.27-.19c.14-.02.24-.06.29-.13.05-.07.07-.14.07-.23,0-.23-.08-.43-.24-.59-.16-.17-.42-.25-.78-.25-.33,0-.58.09-.75.27s-.28.41-.31.68l-.88-.21c.03-.22.09-.43.2-.62s.25-.35.42-.49.37-.24.59-.31.47-.11.72-.11c.35,0,.65.05.9.14s.45.22.61.38c.16.16.27.34.34.55.07.21.11.43.11.66v2.36c0,.21,0,.38.02.5.01.12.03.22.04.27h-.9c-.01-.06-.02-.14-.03-.24,0-.1-.01-.23-.01-.4-.05.08-.12.17-.21.26s-.19.18-.31.25c-.12.08-.27.14-.44.19-.17.05-.35.07-.56.07-.24,0-.46-.04-.65-.12-.19-.08-.36-.18-.49-.31-.14-.13-.24-.28-.32-.45-.08-.17-.11-.35-.11-.54ZM215.34,117.92c.19,0,.37-.02.53-.07.17-.05.31-.13.43-.24.12-.11.22-.25.29-.43.07-.18.11-.4.11-.65v-.21l-1.44.21c-.2.03-.36.11-.49.22s-.2.28-.2.49c0,.18.07.33.21.48.14.14.32.21.56.21Z"/>
      <path d="M219.05,118.55v-7.1h.92v7.1h-.92Z"/>
    </g>
  </g>
  <g>
    <line class="cls-1" x1="196.78" y1="242.22" x2="488.75" y2="242.22"/>
    <polygon points="197.33 244.09 194.09 242.22 197.33 240.35 197.33 244.09"/>
    <polygon points="488.21 244.09 491.44 242.22 488.21 240.35 488.21 244.09"/>
  </g>
  <g>
    <rect class="cls-5" x="312.32" y="233.32" width="59.36" height="17.63"/>
    <g>
      <path d="M317.16,245.25v-6.95h.98v6.95h-.98Z"/>
      <path d="M323.55,240.19c-.02-.12-.06-.26-.13-.4-.07-.14-.16-.27-.27-.39s-.26-.21-.44-.29-.39-.11-.63-.11c-.2,0-.38.03-.54.09-.16.06-.31.14-.43.24-.12.11-.21.23-.28.37-.07.14-.1.29-.1.46,0,.25.08.46.23.64s.37.3.67.37l1.04.22c.58.13,1.03.37,1.34.71s.47.75.47,1.25c0,.27-.06.53-.17.77s-.27.47-.48.66c-.21.19-.46.34-.75.46s-.63.17-1,.17c-.42,0-.78-.06-1.09-.19s-.57-.28-.78-.48c-.21-.2-.38-.42-.5-.66-.12-.25-.19-.49-.23-.74l.92-.29c.02.2.07.38.14.56.07.18.18.34.32.48.14.14.31.25.51.33s.43.12.69.12c.48,0,.83-.11,1.07-.32.24-.22.36-.48.36-.78,0-.25-.08-.47-.25-.67s-.43-.33-.78-.41l-.99-.22c-.5-.11-.9-.33-1.22-.64-.32-.32-.47-.74-.47-1.26,0-.27.06-.54.18-.78.12-.25.28-.47.49-.66.21-.19.45-.34.73-.46s.58-.17.9-.17c.39,0,.73.05,1,.16.28.11.51.25.7.42s.33.36.44.56c.1.2.18.4.21.59l-.86.3Z"/>
      <path d="M325.43,241.77c0-.58.1-1.1.3-1.54s.46-.83.79-1.13c.33-.31.7-.54,1.12-.7s.85-.24,1.28-.24.87.08,1.28.24.79.39,1.12.7c.33.31.59.68.79,1.13s.3.96.3,1.54-.1,1.1-.3,1.55-.46.83-.79,1.14c-.33.31-.7.54-1.12.7s-.85.24-1.28.24-.87-.08-1.28-.24-.79-.39-1.12-.7c-.33-.31-.59-.69-.79-1.14s-.3-.97-.3-1.55ZM326.41,241.77c0,.45.07.85.21,1.19.14.34.33.63.56.86.23.23.5.41.8.52.3.11.61.17.94.17s.63-.06.94-.17.57-.29.8-.52c.23-.23.42-.52.56-.86.14-.34.21-.74.21-1.19s-.07-.85-.21-1.19c-.14-.34-.33-.63-.56-.86-.23-.23-.5-.4-.8-.51s-.62-.17-.94-.17-.64.06-.94.17c-.3.11-.57.29-.8.51-.23.23-.42.51-.56.86-.14.34-.21.74-.21,1.19Z"/>
      <path d="M336.18,245.25v-6.95h.98v6.95h-.98Z"/>
      <path d="M339.74,245.25h-.92v-4.71h.9v.68c.17-.29.39-.5.65-.63.26-.12.53-.19.8-.19s.53.05.74.14c.21.09.39.23.53.39.14.17.25.36.31.59s.1.47.1.74v2.99h-.92v-2.83c0-.16-.02-.32-.05-.46-.04-.14-.1-.27-.19-.38-.09-.11-.2-.19-.34-.25-.14-.06-.31-.09-.51-.09-.18,0-.34.03-.48.1-.14.07-.25.16-.34.28-.09.12-.16.25-.21.41-.05.16-.07.32-.07.5v2.72Z"/>
      <path d="M345.57,240.54h1.02v.83h-1.02v2.45c0,.22.05.38.15.49.1.11.27.16.51.16.06,0,.12,0,.2,0,.07,0,.13-.02.17-.03v.78s-.11.03-.23.05c-.11.02-.25.03-.4.03-.41,0-.73-.12-.96-.35-.24-.23-.35-.56-.35-1v-2.59h-.9v-.83h.25c.25,0,.44-.07.55-.21.11-.14.17-.31.17-.52v-.76h.84v1.49Z"/>
      <path d="M351.81,243.91c-.07.21-.16.4-.29.58-.13.18-.28.34-.46.47s-.38.24-.61.32c-.23.08-.48.12-.75.12-.31,0-.61-.06-.9-.17-.29-.11-.54-.27-.76-.49s-.39-.48-.52-.79c-.13-.31-.19-.67-.19-1.07,0-.37.06-.71.19-1.01s.29-.57.5-.78.45-.39.72-.51c.27-.12.56-.18.85-.18.36,0,.68.06.97.18.28.12.52.29.71.5.19.22.33.48.44.78.1.3.15.64.15,1,0,.06,0,.11,0,.17,0,.05,0,.09-.01.13h-3.55c0,.21.05.4.12.58.07.18.17.33.3.46.13.13.28.23.45.29.17.07.36.1.55.1.38,0,.68-.09.88-.27.2-.18.35-.41.44-.68l.79.27ZM350.88,242.41c-.01-.34-.13-.62-.34-.86-.22-.23-.53-.35-.95-.35-.2,0-.37.03-.52.1s-.28.16-.39.27c-.11.11-.19.24-.26.39s-.1.29-.11.44h2.58Z"/>
      <path d="M355.66,241.47c-.14-.02-.27-.03-.4-.03-.39,0-.7.11-.94.34s-.36.6-.36,1.11v2.36h-.92v-4.71h.9v.82c.08-.18.18-.33.3-.45.11-.11.23-.21.36-.27.12-.07.25-.12.38-.14.13-.03.25-.04.37-.04.07,0,.13,0,.18,0,.05,0,.1.01.12.02v.98Z"/>
      <path d="M359.13,245.25h-.93l-1.91-4.71h1.04l1.34,3.64,1.35-3.64h.99l-1.88,4.71Z"/>
      <path d="M361.54,243.99c0-.21.04-.4.11-.56.07-.17.17-.31.3-.43.13-.12.28-.21.46-.29.18-.07.37-.12.57-.16l1.27-.19c.14-.02.24-.06.29-.13.05-.07.07-.14.07-.23,0-.23-.08-.43-.24-.59-.16-.17-.42-.25-.78-.25-.33,0-.58.09-.75.27s-.28.41-.31.68l-.88-.21c.03-.22.09-.43.2-.62s.25-.35.42-.49.37-.24.59-.31.47-.11.72-.11c.35,0,.65.05.9.14s.45.22.61.38c.16.16.27.34.34.55.07.21.11.43.11.66v2.36c0,.21,0,.38.02.5.01.12.03.22.04.27h-.9c-.01-.06-.02-.14-.03-.24,0-.1-.01-.23-.01-.4-.05.08-.12.17-.21.26s-.19.18-.31.25c-.12.08-.27.14-.44.19-.17.05-.35.07-.56.07-.24,0-.46-.04-.65-.12-.19-.08-.36-.18-.49-.31-.14-.13-.24-.28-.32-.45-.08-.17-.11-.35-.11-.54ZM363.25,244.63c.19,0,.37-.02.53-.07.17-.05.31-.13.43-.24.12-.11.22-.25.29-.43.07-.18.11-.4.11-.65v-.21l-1.44.21c-.2.03-.36.11-.49.22s-.2.28-.2.49c0,.18.07.33.21.48.14.14.32.21.56.21Z"/>
      <path d="M366.96,245.25v-7.1h.92v7.1h-.92Z"/>
    </g>
  </g>
  <g>
    <line class="cls-1" x1="345.39" y1="49.56" x2="635.82" y2="49.56"/>
    <polygon points="345.94 51.43 342.7 49.56 345.94 47.69 345.94 51.43"/>
    <polygon points="635.28 51.43 638.51 49.56 635.28 47.69 635.28 51.43"/>
  </g>
  <g>
    <rect class="cls-5" x="460.93" y="40.66" width="59.36" height="17.63"/>
    <g>
      <path d="M465.77,52.6v-6.95h.98v6.95h-.98Z"/>
      <path d="M472.16,47.53c-.02-.12-.06-.26-.13-.4s-.16-.27-.27-.39c-.12-.12-.27-.21-.44-.29-.18-.08-.39-.11-.63-.11-.2,0-.38.03-.54.09-.16.06-.3.14-.43.24-.12.11-.21.23-.28.37s-.1.29-.1.46c0,.25.07.46.22.64s.37.3.67.37l1.04.22c.58.13,1.03.37,1.34.71s.46.75.46,1.25c0,.27-.05.53-.17.77s-.27.47-.48.66c-.21.19-.46.34-.76.46-.29.11-.63.17-1,.17-.42,0-.78-.06-1.09-.19s-.57-.28-.79-.48c-.21-.2-.38-.42-.49-.66s-.19-.49-.23-.74l.92-.29c.02.2.07.38.14.56s.18.34.32.48c.14.14.31.25.51.33s.43.12.69.12c.48,0,.84-.11,1.07-.32s.36-.48.36-.78c0-.25-.08-.47-.25-.67s-.43-.33-.79-.41l-.99-.22c-.5-.11-.9-.33-1.22-.64-.32-.32-.47-.74-.47-1.26,0-.27.06-.54.18-.78.12-.25.28-.47.49-.66.21-.19.45-.34.73-.46s.58-.17.9-.17c.39,0,.73.05,1.01.16.28.11.51.25.7.42.19.17.33.36.44.56.1.2.18.4.21.59l-.86.3Z"/>
      <path d="M474.04,49.12c0-.58.1-1.1.3-1.54s.46-.83.79-1.13c.33-.31.7-.54,1.12-.7s.85-.24,1.29-.24.87.08,1.28.24.79.39,1.12.7c.33.31.59.68.79,1.13s.3.96.3,1.54-.1,1.1-.3,1.55-.46.83-.79,1.14c-.33.31-.7.54-1.12.7s-.85.24-1.28.24-.87-.08-1.29-.24-.79-.39-1.12-.7c-.33-.31-.59-.69-.79-1.14s-.3-.97-.3-1.55ZM475.02,49.12c0,.45.07.85.21,1.19.14.34.33.63.56.86.23.23.5.41.8.52s.61.17.94.17.63-.06.94-.17c.3-.11.57-.29.8-.52.23-.23.42-.52.56-.86.14-.34.21-.74.21-1.19s-.07-.85-.21-1.19c-.14-.34-.33-.63-.56-.86-.23-.23-.5-.4-.8-.51-.3-.11-.62-.17-.94-.17s-.64.06-.94.17-.57.29-.8.51-.42.51-.56.86c-.14.34-.21.74-.21,1.19Z"/>
      <path d="M484.79,52.6v-6.95h.98v6.95h-.98Z"/>
      <path d="M488.35,52.6h-.92v-4.71h.9v.68c.17-.29.38-.5.65-.63.26-.12.53-.19.8-.19s.53.05.74.14c.21.09.39.23.53.39.14.17.24.36.31.59s.1.47.1.74v2.99h-.92v-2.83c0-.16-.02-.32-.05-.46-.04-.14-.1-.27-.19-.38-.09-.11-.2-.19-.34-.25-.14-.06-.31-.09-.52-.09-.18,0-.34.03-.48.1s-.25.16-.34.28c-.09.12-.16.25-.21.41-.04.16-.07.32-.07.5v2.72Z"/>
      <path d="M494.17,47.89h1.02v.83h-1.02v2.45c0,.22.05.38.15.49.1.11.27.16.51.16.06,0,.12,0,.2,0,.07,0,.13-.02.17-.03v.78s-.11.03-.22.05c-.11.02-.25.03-.4.03-.41,0-.73-.12-.96-.35-.23-.23-.35-.56-.35-1v-2.59h-.9v-.83h.25c.26,0,.44-.07.55-.21.11-.14.17-.31.17-.52v-.76h.84v1.49Z"/>
      <path d="M500.42,51.26c-.07.21-.16.4-.29.58-.13.18-.28.34-.46.47s-.38.24-.61.32c-.23.08-.48.12-.75.12-.31,0-.62-.06-.9-.17s-.54-.27-.76-.49-.39-.48-.52-.79-.19-.67-.19-1.07c0-.37.06-.71.19-1.01.12-.3.29-.57.5-.78.21-.22.45-.39.72-.51.27-.12.56-.18.85-.18.36,0,.68.06.97.18.28.12.52.29.71.5.19.22.33.48.44.78s.15.64.15,1c0,.06,0,.11,0,.17,0,.05,0,.09-.01.13h-3.55c0,.21.04.4.12.58.07.18.17.33.3.46.13.13.28.23.45.29.17.07.36.1.55.1.38,0,.68-.09.88-.27.2-.18.35-.41.44-.68l.79.27ZM499.49,49.76c-.01-.34-.13-.62-.34-.86-.21-.23-.53-.35-.95-.35-.2,0-.37.03-.52.1-.15.07-.29.16-.39.27s-.19.24-.26.39c-.06.14-.1.29-.11.44h2.58Z"/>
      <path d="M504.27,48.82c-.14-.02-.27-.03-.4-.03-.39,0-.7.11-.94.34s-.36.6-.36,1.11v2.36h-.92v-4.71h.9v.82c.08-.18.18-.33.3-.45s.23-.21.36-.27c.12-.07.25-.12.38-.14s.25-.04.37-.04c.06,0,.12,0,.18,0,.05,0,.1.01.12.02v.98Z"/>
      <path d="M507.73,52.6h-.93l-1.91-4.71h1.04l1.34,3.64,1.35-3.64h.99l-1.88,4.71Z"/>
      <path d="M510.15,51.34c0-.21.04-.4.11-.56.07-.17.17-.31.3-.43.13-.12.28-.21.46-.29.18-.07.37-.12.57-.16l1.27-.19c.14-.02.24-.06.29-.13.05-.07.07-.14.07-.23,0-.23-.08-.43-.24-.59-.16-.17-.42-.25-.78-.25-.33,0-.58.09-.75.27-.18.18-.28.41-.31.68l-.88-.21c.03-.22.09-.43.2-.62s.25-.35.42-.49.37-.24.59-.31c.23-.08.47-.11.72-.11.35,0,.65.05.9.14s.45.22.61.38c.16.16.27.34.34.55.07.21.11.43.11.66v2.36c0,.21,0,.38.02.5s.03.22.04.27h-.9c-.01-.06-.02-.14-.03-.24,0-.1-.02-.23-.02-.4-.05.08-.12.17-.21.26-.09.09-.19.18-.31.25-.12.08-.27.14-.44.19-.17.05-.36.07-.56.07-.24,0-.46-.04-.65-.12-.19-.08-.36-.18-.49-.31-.14-.13-.24-.28-.32-.45-.08-.17-.11-.35-.11-.54ZM511.85,51.97c.19,0,.37-.02.54-.07.17-.05.31-.13.43-.24.12-.11.22-.25.29-.43s.11-.4.11-.65v-.21l-1.44.21c-.2.03-.36.11-.49.22s-.2.28-.2.49c0,.18.07.33.21.48.14.14.32.21.56.21Z"/>
      <path d="M515.57,52.6v-7.1h.92v7.1h-.92Z"/>
    </g>
  </g>
  <g>
    <path d="M89.06,221.45c0-.06-.03-.12-.06-.19-.03-.07-.07-.13-.13-.18-.05-.06-.12-.1-.21-.14-.08-.04-.18-.05-.29-.05-.09,0-.18.01-.25.04-.08.03-.14.07-.2.12-.06.05-.1.11-.13.17-.03.07-.05.14-.05.21,0,.12.04.22.11.3.07.08.17.14.31.17l.49.11c.27.06.48.17.63.33.14.16.22.36.22.59,0,.13-.03.25-.08.36-.05.12-.13.22-.23.31s-.22.16-.36.21c-.14.05-.29.08-.47.08-.2,0-.37-.03-.52-.09-.14-.06-.27-.13-.37-.23-.1-.09-.18-.2-.23-.31-.05-.12-.09-.23-.11-.35l.43-.14c0,.09.03.18.07.27.04.08.09.16.15.22s.15.12.24.15.2.06.32.06c.22,0,.39-.05.51-.15.11-.1.17-.22.17-.37,0-.12-.04-.22-.12-.32-.08-.09-.2-.16-.37-.19l-.47-.1c-.23-.05-.42-.15-.57-.3-.15-.15-.22-.35-.22-.59,0-.13.03-.25.08-.37.06-.12.13-.22.23-.31.1-.09.21-.16.34-.21s.27-.08.42-.08c.19,0,.34.03.47.08s.24.12.33.2c.09.08.16.17.21.26.05.09.08.19.1.28l-.41.14Z"/>
    <path d="M91.42,223.57c-.06.12-.15.2-.28.26s-.25.08-.38.08-.24-.02-.35-.07-.19-.11-.26-.19c-.07-.08-.13-.17-.16-.28-.04-.11-.06-.22-.06-.35v-1.4h.43v1.33c0,.08,0,.15.03.22.02.07.05.13.09.18.04.05.09.09.15.12.06.03.14.05.23.05.17,0,.31-.05.39-.16.09-.1.13-.24.13-.41v-1.34h.43v1.81c0,.09,0,.17,0,.24s0,.13.02.17h-.41s-.01-.06-.01-.12c0-.05,0-.1,0-.15Z"/>
    <path d="M92.57,223.84v-3.34h.43v1.43c.05-.1.14-.19.27-.26.12-.08.28-.12.46-.12.17,0,.32.03.44.09.12.06.23.14.32.25.09.11.15.23.19.37.04.14.06.29.06.45s-.02.32-.07.46c-.04.14-.11.27-.2.37-.09.11-.2.19-.32.25-.13.06-.27.09-.44.09s-.31-.03-.43-.1-.22-.16-.29-.28v.32h-.43ZM94.31,222.72c0-.24-.06-.43-.18-.57-.12-.14-.28-.21-.48-.21-.1,0-.18.02-.27.06-.08.04-.15.09-.21.15s-.1.15-.14.24c-.03.1-.05.21-.05.33s.02.23.05.33c.03.1.08.18.14.25.06.07.13.12.21.16.08.04.17.06.27.06.2,0,.36-.07.48-.22.12-.14.18-.34.18-.58Z"/>
    <path d="M95,224.2v-.36h2.36v.36h-2.36Z"/>
    <path d="M97.85,223.84v-3.27h.46v3.27h-.46Z"/>
    <path d="M99.53,223.84h-.43v-2.22h.42v.32c.08-.14.18-.24.3-.29s.25-.09.38-.09.25.02.35.07c.1.04.18.11.25.18.07.08.12.17.15.28.03.11.05.22.05.35v1.41h-.43v-1.33c0-.08,0-.15-.03-.22-.02-.07-.04-.13-.09-.18-.04-.05-.09-.09-.16-.12s-.15-.04-.24-.04c-.09,0-.16.02-.23.05s-.12.08-.16.13c-.04.05-.08.12-.1.19-.02.07-.03.15-.03.24v1.28Z"/>
    <path d="M102.27,221.62h.48v.39h-.48v1.15c0,.1.02.18.07.23s.12.08.24.08c.03,0,.06,0,.09,0s.06,0,.08-.01v.37s-.05.01-.11.03-.12.02-.19.02c-.19,0-.34-.05-.45-.16-.11-.11-.17-.26-.17-.47v-1.22h-.43v-.39h.12c.12,0,.21-.03.26-.1.05-.06.08-.15.08-.24v-.36h.4v.7Z"/>
    <path d="M105.25,223.2c-.03.1-.08.19-.13.27-.06.08-.13.16-.22.22-.09.06-.18.11-.29.15-.11.04-.23.06-.36.06-.15,0-.29-.03-.42-.08-.13-.05-.25-.13-.36-.23s-.18-.23-.24-.37-.09-.31-.09-.5c0-.18.03-.33.09-.48s.14-.27.23-.37c.1-.1.21-.18.34-.24s.26-.09.4-.09c.17,0,.32.03.46.09.13.06.24.14.33.24.09.1.16.22.21.37.05.14.07.3.07.47,0,.03,0,.05,0,.08,0,.02,0,.04,0,.06h-1.67c0,.1.02.19.05.27.04.08.08.16.14.21.06.06.13.11.21.14s.17.05.26.05c.18,0,.32-.04.42-.13s.16-.19.21-.32l.37.13ZM104.81,222.5c0-.16-.06-.29-.16-.4s-.25-.16-.45-.16c-.09,0-.17.02-.25.05s-.13.08-.18.13-.09.11-.12.18c-.03.07-.05.14-.05.21h1.21Z"/>
    <path d="M107.05,222.06c-.06,0-.13-.01-.19-.01-.18,0-.33.05-.44.16-.11.11-.17.28-.17.52v1.11h-.43v-2.22h.42v.39c.04-.09.09-.16.14-.21.05-.05.11-.1.17-.13s.12-.05.18-.07c.06-.01.12-.02.18-.02.03,0,.06,0,.08,0,.03,0,.05,0,.06,0v.46Z"/>
    <path d="M108.53,223.84h-.44l-.9-2.22h.49l.63,1.71.63-1.71h.47l-.89,2.22Z"/>
    <path d="M109.69,223.24c0-.1.02-.19.05-.26.04-.08.08-.15.14-.2.06-.05.13-.1.21-.13.08-.03.17-.06.27-.07l.6-.09c.07,0,.11-.03.13-.06.02-.03.04-.07.04-.11,0-.11-.04-.2-.11-.28-.07-.08-.2-.12-.37-.12-.15,0-.27.04-.36.13-.08.08-.13.19-.15.32l-.41-.1c.01-.1.04-.2.09-.29.05-.09.12-.17.2-.23.08-.06.17-.11.28-.15.11-.04.22-.05.34-.05.17,0,.31.02.42.07s.21.1.29.18c.07.07.13.16.16.26s.05.2.05.31v1.11c0,.1,0,.18,0,.24s.01.1.02.13h-.42s-.01-.06-.02-.11c0-.05,0-.11,0-.19-.02.04-.06.08-.1.12-.04.04-.09.08-.15.12-.06.04-.13.07-.21.09-.08.02-.17.03-.27.03-.11,0-.21-.02-.31-.06-.09-.04-.17-.08-.23-.14-.06-.06-.11-.13-.15-.21-.04-.08-.05-.16-.05-.25ZM110.49,223.54c.09,0,.17-.01.25-.03.08-.02.14-.06.2-.11.06-.05.1-.12.13-.2.04-.08.05-.19.05-.31v-.1l-.68.1c-.09.01-.17.05-.23.1-.06.05-.09.13-.09.23,0,.08.03.16.1.22.07.07.15.1.26.1Z"/>
    <path d="M112.24,223.84v-3.34h.43v3.34h-.43Z"/>
  </g>
  <g>
    <path d="M64.54,185.86c-.12.02-.22.07-.3.15-.08.09-.12.21-.12.36,0,.12.03.22.09.28s.13.1.21.1c.07,0,.13-.03.18-.07s.08-.12.11-.21l.08-.38c.04-.18.11-.31.22-.41.11-.1.24-.14.4-.14.09,0,.18.02.27.06.08.04.16.1.22.17s.12.15.15.25c.04.1.06.2.06.31,0,.15-.02.28-.07.38s-.1.19-.16.25-.13.11-.2.14c-.07.03-.13.05-.17.07l-.14-.38s.06-.02.11-.03.08-.04.12-.07c.04-.03.07-.08.1-.14.03-.06.04-.13.04-.22,0-.11-.03-.2-.09-.27-.06-.07-.13-.1-.21-.1-.14,0-.23.08-.27.25l-.08.36c-.04.2-.12.36-.24.46-.12.1-.26.16-.42.16-.08,0-.16-.02-.24-.05-.08-.04-.15-.08-.22-.15-.07-.07-.12-.15-.16-.25s-.06-.22-.06-.36c0-.15.02-.29.06-.39s.1-.2.16-.27.13-.13.21-.17c.08-.04.15-.06.21-.07l.14.39Z"/>
    <path d="M64.09,189.22c-.12-.06-.2-.15-.26-.28s-.08-.25-.08-.38.02-.25.07-.35c.05-.1.11-.19.19-.26s.17-.12.28-.16c.11-.04.22-.06.35-.06h1.4v.43h-1.33c-.08,0-.15,0-.22.03-.07.02-.13.05-.18.09-.05.04-.09.09-.12.15-.03.06-.05.14-.05.23,0,.18.05.31.16.39.11.09.24.13.41.13h1.34v.43h-1.81c-.09,0-.17,0-.24,0-.07,0-.13,0-.17.02v-.42s.06,0,.12-.01c.05,0,.1,0,.15,0Z"/>
    <path d="M63.83,190.37h3.34v.43h-1.43c.1.05.19.14.26.27.08.13.12.28.12.46,0,.17-.03.32-.09.44-.06.13-.14.23-.25.32s-.23.15-.37.19-.29.06-.45.06-.32-.02-.46-.07c-.14-.05-.27-.11-.37-.2-.11-.09-.19-.2-.25-.32s-.09-.28-.09-.44.03-.31.1-.43c.07-.12.16-.22.28-.29h-.32v-.43ZM64.95,192.11c.24,0,.43-.06.57-.18.14-.12.21-.28.21-.48,0-.09-.02-.18-.05-.26-.04-.08-.09-.15-.15-.21-.07-.06-.15-.1-.25-.13-.1-.03-.21-.05-.33-.05s-.23.02-.33.05c-.1.03-.18.08-.25.13-.07.06-.12.13-.16.21-.04.08-.06.17-.06.26,0,.2.07.36.22.48.14.12.34.18.58.18Z"/>
    <path d="M64.46,195.04c-.1-.03-.19-.08-.27-.14s-.16-.13-.22-.22c-.06-.08-.11-.18-.15-.29-.04-.11-.06-.23-.06-.36,0-.15.03-.29.08-.42.05-.14.13-.26.23-.36.1-.1.23-.19.37-.24.15-.06.32-.09.5-.09.17,0,.33.03.48.09s.27.14.37.23c.1.1.18.21.24.34.06.13.08.26.08.4,0,.17-.03.32-.08.46-.06.13-.14.25-.24.33-.1.09-.22.16-.37.21-.14.05-.3.07-.47.07-.03,0-.05,0-.08,0-.02,0-.04,0-.06,0v-1.67c-.1,0-.19.02-.27.05s-.16.08-.21.14c-.06.06-.11.13-.14.21-.03.08-.05.17-.05.26,0,.18.04.32.13.41s.19.16.32.21l-.13.37ZM65.16,194.6c.16,0,.29-.06.4-.16.11-.1.16-.25.16-.45,0-.09-.02-.17-.05-.25-.03-.07-.08-.13-.13-.19s-.11-.09-.18-.12c-.07-.03-.14-.05-.21-.05v1.21Z"/>
    <path d="M63.83,196.62v-.44l2.22-.9v.49l-1.71.63,1.71.63v.47l-2.22-.89Z"/>
    <path d="M64.46,199.85c-.1-.03-.19-.08-.27-.13-.08-.06-.16-.13-.22-.22-.06-.09-.11-.18-.15-.29-.04-.11-.06-.23-.06-.36,0-.15.03-.29.08-.42.05-.13.13-.25.23-.36s.23-.18.37-.24.32-.09.5-.09c.17,0,.33.03.48.09s.27.14.37.23c.1.1.18.21.24.34.06.13.08.26.08.4,0,.17-.03.32-.08.46-.06.13-.14.24-.24.33-.1.09-.22.16-.37.21-.14.05-.3.07-.47.07-.03,0-.05,0-.08,0-.02,0-.04,0-.06,0v-1.67c-.1,0-.19.02-.27.05-.08.04-.16.08-.21.14s-.11.13-.14.21c-.03.08-.05.17-.05.26,0,.18.04.32.13.42s.19.16.32.21l-.13.37ZM65.16,199.41c.16,0,.29-.06.4-.16.11-.1.16-.25.16-.45,0-.09-.02-.17-.05-.25-.03-.07-.08-.13-.13-.18s-.11-.09-.18-.12c-.07-.03-.14-.05-.21-.05v1.21Z"/>
    <path d="M63.83,200.85v-.43h2.22v.42h-.32c.14.08.24.18.29.3s.09.25.09.38-.02.25-.07.35c-.04.1-.11.18-.18.25-.08.07-.17.12-.28.15-.11.03-.22.05-.35.05h-1.41v-.43h1.33c.08,0,.15,0,.22-.03.07-.02.13-.04.18-.09.05-.04.09-.09.12-.16s.04-.15.04-.24c0-.09-.02-.16-.05-.23s-.08-.12-.13-.16c-.05-.04-.12-.08-.19-.1-.07-.02-.15-.03-.23-.03h-1.28Z"/>
    <path d="M66.04,203.59v.48h-.39v-.48h-1.15c-.1,0-.18.02-.23.07s-.08.12-.08.24c0,.03,0,.06,0,.09,0,.03,0,.06.01.08h-.37s-.01-.05-.03-.11-.02-.12-.02-.19c0-.19.05-.34.16-.45.11-.11.26-.17.47-.17h1.22v-.43h.39v.12c0,.12.03.21.1.26.06.05.15.08.25.08h.36v.4h-.7Z"/>
    <path d="M63.83,206.27h2.11v-.72h.32c0,.21.06.38.16.52.1.13.24.22.4.25v.4h-2.99v-.44Z"/>
  </g>
  <g>
    <path d="M99.09,185.05c-.12.01-.22.06-.3.15-.08.09-.12.21-.12.37,0,.12.03.22.09.28s.13.1.21.1c.07,0,.13-.03.18-.07s.08-.12.11-.21l.08-.38c.04-.18.11-.31.22-.41.11-.1.24-.15.4-.15.09,0,.18.02.27.06.08.04.16.1.22.17.06.07.12.15.15.25s.06.2.06.31c0,.15-.02.28-.07.38-.04.1-.1.19-.16.25s-.13.11-.2.15c-.07.03-.13.05-.17.07l-.14-.38s.06-.02.11-.03c.04-.02.08-.04.12-.07.04-.04.07-.08.1-.14.03-.06.04-.13.04-.22,0-.11-.03-.2-.09-.27s-.13-.1-.21-.1c-.14,0-.23.08-.27.25l-.08.36c-.04.2-.12.36-.24.46s-.26.15-.42.15c-.08,0-.16-.02-.24-.05s-.15-.08-.22-.15c-.07-.07-.12-.15-.16-.25s-.06-.22-.06-.36c0-.15.02-.29.06-.39s.1-.2.16-.27.13-.13.21-.17c.08-.04.15-.06.21-.07l.14.39Z"/>
    <path d="M98.64,188.41c-.12-.06-.2-.15-.26-.28s-.08-.25-.08-.38.02-.24.07-.35.11-.19.19-.26c.08-.07.17-.13.28-.16.11-.04.22-.06.35-.06h1.4v.43h-1.33c-.08,0-.15,0-.22.03-.07.02-.13.05-.18.09-.05.04-.09.09-.12.15-.03.06-.05.14-.05.23,0,.17.05.31.16.39.11.09.24.13.41.13h1.34v.43h-1.81c-.09,0-.17,0-.24,0-.07,0-.13,0-.17.02v-.41s.06-.01.12-.01c.05,0,.1,0,.15,0Z"/>
    <path d="M98.38,189.56h3.34v.43h-1.43c.1.05.19.14.26.27.08.12.12.28.12.46,0,.17-.03.32-.09.44-.06.12-.14.23-.25.32-.11.09-.23.15-.37.19s-.29.06-.45.06-.32-.02-.46-.07c-.14-.04-.27-.11-.37-.2-.11-.09-.19-.2-.25-.32-.06-.13-.09-.27-.09-.44s.03-.31.1-.43c.07-.12.16-.22.28-.29h-.32v-.43ZM99.5,191.3c.24,0,.43-.06.57-.18.14-.12.21-.28.21-.48,0-.1-.02-.18-.05-.27s-.09-.15-.15-.21c-.07-.06-.15-.1-.25-.14-.1-.03-.21-.05-.33-.05s-.23.02-.33.05c-.1.03-.18.08-.25.14-.07.06-.12.13-.16.21-.04.08-.06.17-.06.27,0,.2.07.36.22.48.14.12.34.18.58.18Z"/>
    <path d="M99.01,194.23c-.1-.03-.19-.08-.27-.13-.08-.06-.16-.13-.22-.22-.06-.09-.11-.18-.15-.29-.04-.11-.06-.23-.06-.36,0-.15.03-.29.08-.42.05-.13.13-.25.23-.36s.23-.18.37-.24.32-.09.5-.09c.17,0,.33.03.48.09s.27.14.37.23c.1.1.18.21.24.34.06.13.08.26.08.4,0,.17-.03.32-.08.46-.06.13-.14.24-.24.33-.1.09-.22.16-.37.21-.14.05-.3.07-.47.07-.03,0-.05,0-.08,0-.02,0-.04,0-.06,0v-1.67c-.1,0-.19.02-.27.05-.08.04-.16.08-.21.14s-.11.13-.14.21c-.03.08-.05.17-.05.26,0,.18.04.32.13.42s.19.16.32.21l-.13.37ZM99.71,193.79c.16,0,.29-.06.4-.16.11-.1.16-.25.16-.45,0-.09-.02-.17-.05-.25-.03-.07-.08-.13-.13-.18s-.11-.09-.18-.12c-.07-.03-.14-.05-.21-.05v1.21Z"/>
    <path d="M98.38,195.81v-.44l2.22-.9v.49l-1.71.63,1.71.64v.46l-2.22-.88Z"/>
    <path d="M99.01,199.04c-.1-.03-.19-.08-.27-.14s-.16-.13-.22-.22c-.06-.08-.11-.18-.15-.29-.04-.11-.06-.23-.06-.36,0-.15.03-.29.08-.42.05-.14.13-.26.23-.36.1-.1.23-.19.37-.24.15-.06.32-.09.5-.09.17,0,.33.03.48.09s.27.14.37.23c.1.1.18.21.24.34.06.13.08.26.08.4,0,.17-.03.32-.08.46-.06.13-.14.25-.24.33-.1.09-.22.16-.37.21-.14.05-.3.07-.47.07-.03,0-.05,0-.08,0-.02,0-.04,0-.06,0v-1.67c-.1,0-.19.02-.27.05s-.16.08-.21.14c-.06.06-.11.13-.14.21-.03.08-.05.17-.05.26,0,.18.04.32.13.41s.19.16.32.21l-.13.37ZM99.71,198.6c.16,0,.29-.06.4-.16.11-.1.16-.25.16-.45,0-.09-.02-.17-.05-.25-.03-.07-.08-.13-.13-.19s-.11-.09-.18-.12c-.07-.03-.14-.05-.21-.05v1.21Z"/>
    <path d="M98.38,200.04v-.43h2.22v.42h-.32c.14.08.24.18.29.3s.09.25.09.38-.02.25-.07.35c-.04.1-.11.18-.18.25-.08.07-.17.12-.28.15-.11.03-.22.05-.35.05h-1.41v-.43h1.33c.08,0,.15,0,.22-.03.07-.02.13-.05.18-.09s.09-.1.12-.16.04-.15.04-.24c0-.09-.02-.16-.05-.22s-.08-.12-.13-.16c-.05-.04-.12-.07-.19-.1-.07-.02-.15-.03-.23-.03h-1.28Z"/>
    <path d="M100.59,202.78v.48h-.39v-.48h-1.15c-.1,0-.18.02-.23.07-.05.05-.08.13-.08.24,0,.03,0,.06,0,.09,0,.04,0,.06.01.08h-.37s-.01-.05-.03-.11-.02-.12-.02-.19c0-.19.05-.34.16-.45.11-.11.26-.17.47-.17h1.22v-.42h.39v.12c0,.12.03.21.1.26.06.05.15.08.25.08h.36v.4h-.7Z"/>
    <path d="M100.34,204.82s.04,0,.06,0h.06c.13,0,.25.02.37.07.12.05.22.11.31.2.09.09.16.2.21.32.05.13.08.28.08.44s-.03.3-.07.43c-.05.13-.12.23-.2.32-.08.09-.18.15-.29.2-.11.04-.23.07-.35.07-.2,0-.37-.05-.53-.15s-.29-.24-.39-.41l-.38-.59c-.05-.09-.12-.16-.18-.23-.07-.07-.15-.11-.24-.13v1.54h-.42v-2.09c.12,0,.24.02.35.04.11.03.21.07.31.12.1.06.19.13.28.22.09.09.17.2.26.32l.32.5c.09.14.19.24.29.31s.22.1.33.1c.07,0,.13-.01.2-.04.06-.02.12-.06.17-.1.05-.04.09-.1.12-.18.03-.07.04-.15.04-.25s-.02-.18-.05-.26c-.03-.07-.08-.13-.13-.18-.06-.05-.12-.08-.19-.11-.07-.02-.15-.04-.24-.04-.02,0-.04,0-.07,0s-.04,0-.07,0l.06-.45Z"/>
  </g>
  <g>
    <path d="M135.44,184.94c-.12.01-.22.06-.3.15-.08.09-.12.21-.12.37,0,.12.03.22.09.28s.13.1.21.1c.07,0,.13-.03.18-.07s.08-.12.11-.21l.08-.38c.04-.18.11-.31.22-.41.11-.1.24-.15.4-.15.09,0,.18.02.27.06.08.04.16.1.22.17.06.07.12.15.15.25s.06.2.06.31c0,.15-.02.28-.07.38-.04.1-.1.19-.16.25s-.13.11-.2.15c-.07.03-.13.05-.17.07l-.14-.38s.06-.02.11-.03c.04-.02.08-.04.12-.07.04-.04.07-.08.1-.14.03-.06.04-.13.04-.22,0-.11-.03-.2-.09-.27s-.13-.1-.21-.1c-.14,0-.23.08-.27.25l-.08.36c-.04.2-.12.36-.24.46s-.26.15-.42.15c-.08,0-.16-.02-.24-.05s-.15-.08-.22-.15c-.07-.07-.12-.15-.16-.25s-.06-.22-.06-.36c0-.15.02-.29.06-.39s.1-.2.16-.27.13-.13.21-.17c.08-.04.15-.06.21-.07l.14.39Z"/>
    <path d="M134.99,188.3c-.12-.06-.2-.15-.26-.28s-.08-.25-.08-.38.02-.24.07-.35.11-.19.19-.26c.08-.07.17-.13.28-.16.11-.04.22-.06.35-.06h1.4v.43h-1.33c-.08,0-.15,0-.22.03-.07.02-.13.05-.18.09-.05.04-.09.09-.12.15-.03.06-.05.14-.05.23,0,.17.05.31.16.39.11.09.24.13.41.13h1.34v.43h-1.81c-.09,0-.17,0-.24,0-.07,0-.13,0-.17.02v-.41s.06-.01.12-.01c.05,0,.1,0,.15,0Z"/>
    <path d="M134.72,189.45h3.34v.43h-1.43c.1.05.19.14.26.27.08.12.12.28.12.46,0,.17-.03.32-.09.44-.06.12-.14.23-.25.32-.11.09-.23.15-.37.19s-.29.06-.45.06-.32-.02-.46-.07c-.14-.04-.27-.11-.37-.2-.11-.09-.19-.2-.25-.32-.06-.13-.09-.27-.09-.44s.03-.31.1-.43c.07-.12.16-.22.28-.29h-.32v-.43ZM135.84,191.19c.24,0,.43-.06.57-.18.14-.12.21-.28.21-.48,0-.1-.02-.18-.05-.27s-.09-.15-.15-.21c-.07-.06-.15-.1-.25-.14-.1-.03-.21-.05-.33-.05s-.23.02-.33.05c-.1.03-.18.08-.25.14-.07.06-.12.13-.16.21-.04.08-.06.17-.06.27,0,.2.07.36.22.48.14.12.34.18.58.18Z"/>
    <path d="M135.36,194.12c-.1-.03-.19-.08-.27-.13-.08-.06-.16-.13-.22-.22-.06-.09-.11-.18-.15-.29-.04-.11-.06-.23-.06-.36,0-.15.03-.29.08-.42.05-.13.13-.25.23-.36s.23-.18.37-.24.32-.09.5-.09c.17,0,.33.03.48.09s.27.14.37.23c.1.1.18.21.24.34.06.13.08.26.08.4,0,.17-.03.32-.08.46-.06.13-.14.24-.24.33-.1.09-.22.16-.37.21-.14.05-.3.07-.47.07-.03,0-.05,0-.08,0-.02,0-.04,0-.06,0v-1.67c-.1,0-.19.02-.27.05-.08.04-.16.08-.21.14s-.11.13-.14.21c-.03.08-.05.17-.05.26,0,.18.04.32.13.42s.19.16.32.21l-.13.37ZM136.06,193.68c.16,0,.29-.06.4-.16.11-.1.16-.25.16-.45,0-.09-.02-.17-.05-.25-.03-.07-.08-.13-.13-.18s-.11-.09-.18-.12c-.07-.03-.14-.05-.21-.05v1.21Z"/>
    <path d="M134.72,195.7v-.44l2.22-.9v.49l-1.71.63,1.71.64v.46l-2.22-.88Z"/>
    <path d="M135.36,198.93c-.1-.03-.19-.08-.27-.14s-.16-.13-.22-.22c-.06-.08-.11-.18-.15-.29-.04-.11-.06-.23-.06-.36,0-.15.03-.29.08-.42.05-.14.13-.26.23-.36.1-.1.23-.19.37-.24.15-.06.32-.09.5-.09.17,0,.33.03.48.09s.27.14.37.23c.1.1.18.21.24.34.06.13.08.26.08.4,0,.17-.03.32-.08.46-.06.13-.14.25-.24.33-.1.09-.22.16-.37.21-.14.05-.3.07-.47.07-.03,0-.05,0-.08,0-.02,0-.04,0-.06,0v-1.67c-.1,0-.19.02-.27.05s-.16.08-.21.14c-.06.06-.11.13-.14.21-.03.08-.05.17-.05.26,0,.18.04.32.13.41s.19.16.32.21l-.13.37ZM136.06,198.49c.16,0,.29-.06.4-.16.11-.1.16-.25.16-.45,0-.09-.02-.17-.05-.25-.03-.07-.08-.13-.13-.19s-.11-.09-.18-.12c-.07-.03-.14-.05-.21-.05v1.21Z"/>
    <path d="M134.72,199.93v-.43h2.22v.42h-.32c.14.08.24.18.29.3s.09.25.09.38-.02.25-.07.35c-.04.1-.11.18-.18.25-.08.07-.17.12-.28.15-.11.03-.22.05-.35.05h-1.41v-.43h1.33c.08,0,.15,0,.22-.03.07-.02.13-.05.18-.09s.09-.1.12-.16.04-.15.04-.24c0-.09-.02-.16-.05-.22s-.08-.12-.13-.16c-.05-.04-.12-.07-.19-.1-.07-.02-.15-.03-.23-.03h-1.28Z"/>
    <path d="M136.94,202.67v.48h-.39v-.48h-1.15c-.1,0-.18.02-.23.07-.05.05-.08.13-.08.24,0,.03,0,.06,0,.09,0,.04,0,.06.01.08h-.37s-.01-.05-.03-.11-.02-.12-.02-.19c0-.19.05-.34.16-.45.11-.11.26-.17.47-.17h1.22v-.42h.39v.12c0,.12.03.21.1.26.06.05.15.08.25.08h.36v.4h-.7Z"/>
    <path d="M136.48,205.32l.81.88v-1.43h.41v2.03h-.41l-.79-.85c0,.11-.02.22-.06.33-.04.11-.09.21-.17.3-.07.09-.17.16-.28.21-.11.06-.25.08-.4.08-.13,0-.25-.02-.36-.07-.12-.05-.22-.12-.31-.21s-.16-.21-.21-.34c-.05-.13-.08-.29-.08-.46s.03-.33.08-.46c.05-.13.12-.25.21-.34.09-.09.19-.17.3-.22.11-.05.23-.08.35-.09l.1.44c-.1,0-.19.02-.27.06-.08.04-.15.09-.2.15-.06.06-.1.13-.13.21-.03.08-.04.16-.04.25,0,.1.01.19.04.27s.07.15.12.2c.05.05.11.09.18.12s.14.04.21.04c.1,0,.18-.02.25-.05s.13-.08.17-.14c.04-.06.08-.12.1-.2s.03-.15.03-.22c0-.09-.02-.18-.05-.26l.37-.22Z"/>
  </g>
  <rect class="cls-7" x="47.71" y="151.49" width="14.54" height="14.54"/>
  <rect class="cls-7" x="83.83" y="151.49" width="14.54" height="14.54"/>
  <rect class="cls-7" x="120.18" y="151.49" width="14.54" height="14.54"/>
  <rect class="cls-7" x="342.95" y="128.86" width="142.65" height="14.54"/>
  <rect class="cls-7" x="342.95" y="151.49" width="14.54" height="14.54"/>
  <rect class="cls-7" x="379.06" y="151.49" width="14.54" height="14.54"/>
  <rect class="cls-7" x="415.41" y="151.49" width="14.54" height="14.54"/>
  <rect x="196.05" y="269.14" width="142.65" height="14.54"/>
  <rect x="196.05" y="291.77" width="14.54" height="14.54"/>
  <rect x="232.17" y="291.77" width="14.54" height="14.54"/>
  <rect x="268.52" y="291.77" width="14.54" height="14.54"/>
  <rect x="494.53" y="269.16" width="142.65" height="14.54"/>
  <rect x="494.49" y="291.8" width="14.54" height="14.54"/>
  <rect x="530.98" y="291.8" width="14.54" height="14.54"/>
  <rect x="567.32" y="291.8" width="14.54" height="14.54"/>
  <g>
    <line class="cls-1" x1="50.41" y1="269.14" x2="188.24" y2="269.14"/>
    <polygon points="50.95 271.01 47.71 269.14 50.95 267.27 50.95 271.01"/>
    <polygon points="187.69 271.01 190.93 269.14 187.69 267.27 187.69 271.01"/>
  </g>
  <g>
    <rect class="cls-5" x="86.92" y="260.29" width="64.24" height="17.63"/>
    <g>
      <path class="cls-8" d="M93.19,265.28c.33,0,.63.05.89.14.26.09.48.22.66.39.18.17.32.36.41.59.09.23.14.48.14.76,0,.37-.1.69-.29.95s-.44.44-.75.55c.2.05.37.13.53.24.16.11.29.24.4.38.11.15.19.31.25.49.05.18.08.37.08.56,0,.27-.05.53-.16.76s-.25.43-.44.6-.42.3-.68.39c-.26.09-.55.14-.87.14h-2.43v-6.95h2.26ZM93.08,268.32c.39,0,.7-.1.91-.31.22-.21.32-.47.32-.8s-.11-.6-.34-.79c-.23-.2-.54-.29-.94-.29h-1.16v2.2h1.2ZM93.22,271.38c.39,0,.71-.1.95-.3.24-.2.36-.47.36-.81s-.1-.61-.31-.82c-.21-.21-.53-.32-.95-.32h-1.37v2.25h1.33Z"/>
      <path class="cls-8" d="M96.94,272.23v-6.95h.98v6.95h-.98Z"/>
      <path class="cls-8" d="M103.33,267.16c-.02-.12-.06-.26-.13-.4-.07-.14-.16-.27-.27-.39-.12-.12-.26-.21-.44-.29-.18-.07-.39-.11-.63-.11-.2,0-.38.03-.54.09-.16.06-.31.14-.43.24-.12.11-.21.23-.28.37-.07.14-.1.29-.1.46,0,.25.08.46.23.64s.37.3.67.37l1.04.22c.58.13,1.03.37,1.34.71s.47.75.47,1.25c0,.27-.06.53-.17.77-.11.25-.27.47-.48.66-.21.19-.46.34-.75.46s-.63.17-1,.17c-.42,0-.78-.06-1.09-.19s-.57-.28-.78-.48c-.21-.2-.38-.42-.5-.66-.12-.25-.19-.49-.23-.74l.92-.29c.02.2.07.38.14.56.07.18.18.34.32.47.14.14.31.25.51.33.2.08.43.12.69.12.48,0,.83-.11,1.07-.32.24-.22.36-.48.36-.78,0-.25-.08-.47-.25-.67s-.43-.33-.78-.41l-.99-.22c-.5-.11-.9-.33-1.22-.64-.32-.32-.47-.74-.47-1.26,0-.28.06-.54.18-.79.12-.25.28-.47.49-.66s.45-.34.73-.46c.28-.12.58-.17.9-.17.39,0,.73.05,1,.16.28.11.51.25.7.42s.33.36.44.56c.1.2.18.4.21.59l-.86.3Z"/>
      <path class="cls-8" d="M111.59,267.16c-.02-.12-.06-.26-.13-.4-.07-.14-.16-.27-.27-.39-.12-.12-.26-.21-.44-.29-.18-.07-.39-.11-.63-.11-.2,0-.38.03-.54.09-.16.06-.31.14-.43.24-.12.11-.21.23-.28.37-.07.14-.1.29-.1.46,0,.25.08.46.23.64s.37.3.67.37l1.04.22c.58.13,1.03.37,1.34.71s.47.75.47,1.25c0,.27-.06.53-.17.77-.11.25-.27.47-.48.66-.21.19-.46.34-.75.46s-.63.17-1,.17c-.42,0-.78-.06-1.09-.19s-.57-.28-.78-.48c-.21-.2-.38-.42-.5-.66-.12-.25-.19-.49-.23-.74l.92-.29c.02.2.07.38.14.56.07.18.18.34.32.47.14.14.31.25.51.33.2.08.43.12.69.12.48,0,.83-.11,1.07-.32.24-.22.36-.48.36-.78,0-.25-.08-.47-.25-.67s-.43-.33-.78-.41l-.99-.22c-.5-.11-.9-.33-1.22-.64-.32-.32-.47-.74-.47-1.26,0-.28.06-.54.18-.79.12-.25.28-.47.49-.66s.45-.34.73-.46c.28-.12.58-.17.9-.17.39,0,.73.05,1,.16.28.11.51.25.7.42s.33.36.44.56c.1.2.18.4.21.59l-.86.3Z"/>
      <path class="cls-8" d="M115.82,268.22c-.19,0-.37.03-.54.1-.17.07-.32.17-.46.31s-.24.31-.32.51c-.08.21-.12.45-.12.72s.04.5.12.71c.08.21.18.38.31.52s.28.25.46.32c.18.07.36.11.55.11.22,0,.41-.03.56-.1s.28-.15.38-.25.18-.2.24-.32c.06-.11.1-.22.13-.31l.81.35c-.06.17-.14.34-.25.51s-.25.33-.43.48c-.18.14-.38.26-.62.35-.24.09-.51.13-.82.13-.35,0-.67-.06-.96-.19s-.54-.3-.75-.53c-.21-.23-.37-.49-.5-.79-.12-.3-.18-.63-.18-.99s.06-.7.18-1.01.29-.57.5-.79c.21-.22.46-.39.75-.51s.6-.19.94-.19c.31,0,.59.04.83.13.24.09.44.2.62.35.17.14.31.31.42.49s.18.36.24.53l-.83.35c-.03-.12-.08-.24-.14-.35s-.14-.22-.24-.32-.22-.17-.37-.24c-.14-.06-.32-.09-.52-.09Z"/>
      <path class="cls-8" d="M118.83,270.96c0-.21.04-.4.11-.56.07-.17.17-.31.3-.43.13-.12.28-.21.46-.28.18-.07.37-.12.57-.16l1.27-.19c.14-.02.24-.06.29-.13.05-.07.07-.14.07-.23,0-.23-.08-.43-.24-.59-.16-.17-.42-.25-.78-.25-.33,0-.58.09-.75.27s-.28.41-.31.68l-.88-.21c.03-.22.09-.43.2-.62s.25-.35.42-.49.37-.24.59-.31c.23-.08.47-.11.72-.11.35,0,.65.05.9.14s.45.22.61.38.27.34.34.55c.07.21.11.43.11.66v2.36c0,.21,0,.38.02.5.01.12.03.22.04.27h-.9c-.01-.06-.02-.14-.03-.24s-.01-.23-.01-.4c-.05.09-.12.17-.21.27s-.19.18-.31.25c-.12.08-.27.14-.44.19s-.35.07-.56.07c-.24,0-.46-.04-.65-.12-.19-.08-.36-.18-.49-.31-.14-.13-.24-.28-.32-.45s-.11-.35-.11-.54ZM120.54,271.6c.19,0,.37-.02.53-.07.17-.05.31-.13.43-.24.12-.11.22-.25.29-.43.07-.18.11-.4.11-.65v-.22l-1.44.22c-.2.03-.36.11-.49.22s-.2.28-.2.49c0,.18.07.33.21.48.14.14.32.21.56.21Z"/>
      <path class="cls-8" d="M125.17,272.23h-.92v-4.71h.9v.68c.17-.29.39-.5.65-.63s.53-.19.8-.19.53.05.74.14c.21.09.39.23.53.39.14.17.25.36.31.59.07.23.1.47.1.74v2.99h-.92v-2.83c0-.16-.02-.32-.05-.46-.04-.14-.1-.27-.19-.38s-.2-.19-.34-.25-.31-.09-.51-.09c-.18,0-.34.03-.48.1-.14.07-.25.16-.34.28-.09.12-.16.25-.21.41-.05.16-.07.32-.07.5v2.73Z"/>
      <path class="cls-8" d="M130.66,272.23h-.92v-4.71h.9v.68c.17-.29.39-.5.65-.63s.53-.19.8-.19.53.05.74.14c.21.09.39.23.53.39.14.17.25.36.31.59.07.23.1.47.1.74v2.99h-.92v-2.83c0-.16-.02-.32-.05-.46-.04-.14-.1-.27-.19-.38s-.2-.19-.34-.25-.31-.09-.51-.09c-.18,0-.34.03-.48.1-.14.07-.25.16-.34.28-.09.12-.16.25-.21.41-.05.16-.07.32-.07.5v2.73Z"/>
      <path class="cls-8" d="M135.01,265.73c0-.19.06-.35.19-.48.13-.13.28-.19.47-.19s.35.06.48.19c.13.13.19.29.19.48s-.06.34-.19.47c-.13.13-.29.19-.48.19s-.34-.06-.47-.19c-.13-.13-.19-.28-.19-.47ZM135.21,272.23v-4.71h.91v4.71h-.91Z"/>
      <path class="cls-8" d="M138.56,272.23h-.92v-4.71h.9v.68c.17-.29.39-.5.65-.63s.53-.19.8-.19.53.05.74.14c.21.09.39.23.53.39.14.17.25.36.31.59.07.23.1.47.1.74v2.99h-.92v-2.83c0-.16-.02-.32-.05-.46-.04-.14-.1-.27-.19-.38s-.2-.19-.34-.25-.31-.09-.51-.09c-.18,0-.34.03-.48.1-.14.07-.25.16-.34.28-.09.12-.16.25-.21.41-.05.16-.07.32-.07.5v2.73Z"/>
      <path class="cls-8" d="M143.7,272.28c.03.33.17.61.4.83.23.22.53.33.89.33.5,0,.86-.13,1.09-.38.23-.25.35-.64.35-1.15v-.68c-.11.22-.29.4-.54.55-.25.15-.55.22-.9.22-.31,0-.6-.06-.87-.17-.26-.11-.49-.27-.69-.47-.19-.2-.34-.44-.45-.72-.11-.28-.16-.59-.16-.92s.05-.62.16-.9.25-.52.44-.73c.19-.21.42-.37.68-.49s.56-.18.89-.18c.37,0,.67.07.91.2.24.13.42.31.54.55v-.66h.91v4.36c0,.3-.04.59-.12.88-.08.28-.21.54-.4.75-.19.22-.43.4-.73.53s-.67.2-1.12.2c-.29,0-.57-.04-.82-.13-.25-.09-.47-.21-.67-.37-.19-.16-.35-.34-.47-.55-.12-.21-.2-.45-.22-.7l.89-.21ZM145.12,271.23c.4,0,.72-.14.97-.41.25-.28.37-.64.37-1.1s-.12-.82-.37-1.1c-.25-.27-.57-.41-.97-.41s-.74.14-.99.41c-.25.27-.37.64-.37,1.1s.12.83.37,1.1c.25.27.58.41,1,.41Z"/>
    </g>
  </g>
  <rect class="cls-6" x="305.26" y="291.77" width="14.54" height="14.54"/>
  <g>
    <line class="cls-1" x1="120.87" y1="215.09" x2="151.84" y2="215.09"/>
    <polygon points="121.42 216.96 118.18 215.09 121.42 213.22 121.42 216.96"/>
    <polygon points="151.29 216.96 154.53 215.09 151.29 213.22 151.29 216.96"/>
  </g>
  <g>
    <line class="cls-1" x1="50.41" y1="269.14" x2="188.24" y2="269.14"/>
    <polygon points="50.95 271.01 47.71 269.14 50.95 267.27 50.95 271.01"/>
    <polygon points="187.69 271.01 190.93 269.14 187.69 267.27 187.69 271.01"/>
  </g>
  <g>
    <rect class="cls-5" x="86.92" y="260.29" width="64.24" height="17.63"/>
    <g>
      <path class="cls-8" d="M95.8,265.28c.33,0,.63.05.89.14.26.09.48.22.66.39.18.17.32.36.41.59.09.23.14.48.14.76,0,.37-.1.69-.29.95s-.44.44-.75.55c.2.05.37.13.53.24.16.11.29.24.4.38.11.15.19.31.25.49.05.18.08.37.08.56,0,.27-.05.53-.16.76s-.25.43-.44.6-.42.3-.68.39c-.26.09-.55.14-.87.14h-2.43v-6.95h2.26ZM95.69,268.32c.39,0,.7-.1.91-.31.22-.21.32-.47.32-.8s-.11-.6-.34-.79c-.23-.2-.54-.29-.94-.29h-1.16v2.2h1.2ZM95.83,271.38c.39,0,.71-.1.95-.3.24-.2.36-.47.36-.81s-.1-.61-.31-.82c-.21-.21-.53-.32-.95-.32h-1.37v2.25h1.33Z"/>
      <path class="cls-8" d="M99.55,272.23v-6.95h.98v6.95h-.98Z"/>
      <path class="cls-8" d="M105.94,267.16c-.02-.12-.06-.26-.13-.4-.07-.14-.16-.27-.27-.39-.12-.12-.26-.21-.44-.29-.18-.07-.39-.11-.63-.11-.2,0-.38.03-.54.09-.16.06-.31.14-.43.24-.12.11-.21.23-.28.37-.07.14-.1.29-.1.46,0,.25.08.46.23.64s.37.3.67.37l1.04.22c.58.13,1.03.37,1.34.71s.47.75.47,1.25c0,.27-.06.53-.17.77-.11.25-.27.47-.48.66-.21.19-.46.34-.75.46s-.63.17-1,.17c-.42,0-.78-.06-1.09-.19s-.57-.28-.78-.48c-.21-.2-.38-.42-.5-.66-.12-.25-.19-.49-.23-.74l.92-.29c.02.2.07.38.14.56.07.18.18.34.32.47.14.14.31.25.51.33.2.08.43.12.69.12.48,0,.83-.11,1.07-.32.24-.22.36-.48.36-.78,0-.25-.08-.47-.25-.67s-.43-.33-.78-.41l-.99-.22c-.5-.11-.9-.33-1.22-.64-.32-.32-.47-.74-.47-1.26,0-.28.06-.54.18-.79.12-.25.28-.47.49-.66s.45-.34.73-.46c.28-.12.58-.17.9-.17.39,0,.73.05,1,.16.28.11.51.25.7.42s.33.36.44.56c.1.2.18.4.21.59l-.86.3Z"/>
      <path class="cls-8" d="M114.2,267.16c-.02-.12-.06-.26-.13-.4-.07-.14-.16-.27-.27-.39-.12-.12-.26-.21-.44-.29-.18-.07-.39-.11-.63-.11-.2,0-.38.03-.54.09-.16.06-.31.14-.43.24-.12.11-.21.23-.28.37-.07.14-.1.29-.1.46,0,.25.08.46.23.64s.37.3.67.37l1.04.22c.58.13,1.03.37,1.34.71s.47.75.47,1.25c0,.27-.06.53-.17.77-.11.25-.27.47-.48.66-.21.19-.46.34-.75.46s-.63.17-1,.17c-.42,0-.78-.06-1.09-.19s-.57-.28-.78-.48c-.21-.2-.38-.42-.5-.66-.12-.25-.19-.49-.23-.74l.92-.29c.02.2.07.38.14.56.07.18.18.34.32.47.14.14.31.25.51.33.2.08.43.12.69.12.48,0,.83-.11,1.07-.32.24-.22.36-.48.36-.78,0-.25-.08-.47-.25-.67s-.43-.33-.78-.41l-.99-.22c-.5-.11-.9-.33-1.22-.64-.32-.32-.47-.74-.47-1.26,0-.28.06-.54.18-.79.12-.25.28-.47.49-.66s.45-.34.73-.46c.28-.12.58-.17.9-.17.39,0,.73.05,1,.16.28.11.51.25.7.42s.33.36.44.56c.1.2.18.4.21.59l-.86.3Z"/>
      <path class="cls-8" d="M116.39,274.09v-6.58h.89v.74c.13-.24.33-.44.6-.6.27-.16.59-.25.98-.25.35,0,.66.06.94.19s.5.3.68.52c.18.22.32.48.41.78s.14.62.14.96-.05.68-.15.98c-.1.3-.24.56-.43.79-.19.22-.42.4-.69.53s-.58.19-.93.19c-.37,0-.68-.08-.94-.23-.26-.15-.46-.33-.59-.54v2.5h-.91ZM120.08,269.87c0-.24-.03-.45-.1-.65s-.16-.37-.27-.52c-.12-.15-.26-.26-.44-.35s-.37-.13-.58-.13-.4.04-.57.13c-.17.08-.32.2-.45.35-.12.15-.22.32-.28.52s-.1.42-.1.65.03.46.1.67c.07.21.16.38.28.53.12.15.27.26.45.34.17.08.36.12.57.12s.41-.04.58-.12.32-.2.44-.34c.12-.15.21-.32.28-.53.07-.21.1-.43.1-.67Z"/>
      <path class="cls-8" d="M121.93,270.96c0-.21.04-.4.11-.56.07-.17.17-.31.3-.43.13-.12.28-.21.46-.28.18-.07.37-.12.57-.16l1.27-.19c.14-.02.24-.06.29-.13.05-.07.07-.14.07-.23,0-.23-.08-.43-.24-.59-.16-.17-.42-.25-.78-.25-.33,0-.58.09-.75.27s-.28.41-.31.68l-.88-.21c.03-.22.09-.43.2-.62s.25-.35.42-.49.37-.24.59-.31c.23-.08.47-.11.72-.11.35,0,.65.05.9.14s.45.22.61.38.27.34.34.55c.07.21.11.43.11.66v2.36c0,.21,0,.38.02.5.01.12.03.22.04.27h-.9c-.01-.06-.02-.14-.03-.24s-.01-.23-.01-.4c-.05.09-.12.17-.21.27s-.19.18-.31.25c-.12.08-.27.14-.44.19s-.35.07-.56.07c-.24,0-.46-.04-.65-.12-.19-.08-.36-.18-.49-.31-.14-.13-.24-.28-.32-.45s-.11-.35-.11-.54ZM123.64,271.6c.19,0,.37-.02.53-.07.17-.05.31-.13.43-.24.12-.11.22-.25.29-.43.07-.18.11-.4.11-.65v-.22l-1.44.22c-.2.03-.36.11-.49.22s-.2.28-.2.49c0,.18.07.33.21.48.14.14.32.21.56.21Z"/>
      <path class="cls-8" d="M129.39,268.22c-.19,0-.37.03-.54.1-.17.07-.32.17-.46.31s-.24.31-.32.51c-.08.21-.12.45-.12.72s.04.5.12.71c.08.21.18.38.31.52s.28.25.46.32c.18.07.36.11.55.11.22,0,.41-.03.56-.1s.28-.15.38-.25.18-.2.24-.32c.06-.11.1-.22.13-.31l.81.35c-.06.17-.14.34-.25.51s-.25.33-.43.48c-.18.14-.38.26-.62.35-.24.09-.51.13-.82.13-.35,0-.67-.06-.96-.19s-.54-.3-.75-.53c-.21-.23-.37-.49-.5-.79-.12-.3-.18-.63-.18-.99s.06-.7.18-1.01.29-.57.5-.79c.21-.22.46-.39.75-.51s.6-.19.94-.19c.31,0,.59.04.83.13.24.09.44.2.62.35.17.14.31.31.42.49s.18.36.24.53l-.83.35c-.03-.12-.08-.24-.14-.35s-.14-.22-.24-.32-.22-.17-.37-.24c-.14-.06-.32-.09-.52-.09Z"/>
      <path class="cls-8" d="M132.4,265.73c0-.19.06-.35.19-.48.13-.13.28-.19.47-.19s.35.06.48.19c.13.13.19.29.19.48s-.06.34-.19.47c-.13.13-.29.19-.48.19s-.34-.06-.47-.19c-.13-.13-.19-.28-.19-.47ZM132.6,272.23v-4.71h.91v4.71h-.91Z"/>
      <path class="cls-8" d="M135.95,272.23h-.92v-4.71h.9v.68c.17-.29.39-.5.65-.63s.53-.19.8-.19.53.05.74.14c.21.09.39.23.53.39.14.17.25.36.31.59.07.23.1.47.1.74v2.99h-.92v-2.83c0-.16-.02-.32-.05-.46-.04-.14-.1-.27-.19-.38s-.2-.19-.34-.25-.31-.09-.51-.09c-.18,0-.34.03-.48.1-.14.07-.25.16-.34.28-.09.12-.16.25-.21.41-.05.16-.07.32-.07.5v2.73Z"/>
      <path class="cls-8" d="M141.09,272.28c.03.33.17.61.4.83.23.22.53.33.89.33.5,0,.86-.13,1.09-.38.23-.25.35-.64.35-1.15v-.68c-.11.22-.29.4-.54.55-.25.15-.55.22-.9.22-.31,0-.6-.06-.87-.17-.26-.11-.49-.27-.69-.47-.19-.2-.34-.44-.45-.72-.11-.28-.16-.59-.16-.92s.05-.62.16-.9.25-.52.44-.73c.19-.21.42-.37.68-.49s.56-.18.89-.18c.37,0,.67.07.91.2.24.13.42.31.54.55v-.66h.91v4.36c0,.3-.04.59-.12.88-.08.28-.21.54-.4.75-.19.22-.43.4-.73.53s-.67.2-1.12.2c-.29,0-.57-.04-.82-.13-.25-.09-.47-.21-.67-.37-.19-.16-.35-.34-.47-.55-.12-.21-.2-.45-.22-.7l.89-.21ZM142.51,271.23c.4,0,.72-.14.97-.41.25-.28.37-.64.37-1.1s-.12-.82-.37-1.1c-.25-.27-.57-.41-.97-.41s-.74.14-.99.41c-.25.27-.37.64-.37,1.1s.12.83.37,1.1c.25.27.58.41,1,.41Z"/>
    </g>
  </g>
  <g>
    <line class="cls-1" x1="347.05" y1="269.14" x2="488.75" y2="269.14"/>
    <polygon points="347.6 271.01 344.36 269.14 347.6 267.27 347.6 271.01"/>
    <polygon points="488.21 271.01 491.44 269.14 488.21 267.27 488.21 271.01"/>
  </g>
  <g>
    <rect class="cls-5" x="385.78" y="260.29" width="64.24" height="17.63"/>
    <g>
      <path class="cls-8" d="M394.66,265.28c.33,0,.63.05.89.14s.48.22.66.39c.18.17.32.36.41.59.1.23.14.48.14.76,0,.37-.1.69-.29.95-.19.26-.44.44-.75.55.2.05.37.13.53.24.16.11.29.24.4.38.11.15.19.31.25.49.05.18.08.37.08.56,0,.27-.05.53-.16.76-.11.23-.25.43-.44.6s-.41.3-.68.39c-.26.09-.55.14-.87.14h-2.43v-6.95h2.27ZM394.55,268.32c.39,0,.7-.1.91-.31.22-.21.32-.47.32-.8s-.11-.6-.34-.79c-.23-.2-.54-.29-.94-.29h-1.16v2.2h1.2ZM394.69,271.38c.39,0,.71-.1.95-.3s.36-.47.36-.81-.1-.61-.31-.82c-.21-.21-.53-.32-.95-.32h-1.37v2.25h1.33Z"/>
      <path class="cls-8" d="M398.41,272.23v-6.95h.98v6.95h-.98Z"/>
      <path class="cls-8" d="M404.8,267.16c-.02-.12-.06-.26-.13-.4s-.16-.27-.27-.39c-.12-.12-.27-.21-.44-.29-.18-.07-.39-.11-.63-.11-.2,0-.38.03-.54.09-.16.06-.3.14-.43.24-.12.11-.21.23-.28.37-.06.14-.1.29-.1.46,0,.25.07.46.22.64s.37.3.67.37l1.04.22c.58.13,1.03.37,1.34.71s.46.75.46,1.25c0,.27-.05.53-.17.77-.11.25-.27.47-.48.66-.21.19-.46.34-.76.46-.29.11-.63.17-1,.17-.42,0-.78-.06-1.09-.19s-.57-.28-.79-.48c-.21-.2-.38-.42-.49-.66-.12-.25-.19-.49-.23-.74l.92-.29c.02.2.07.38.14.56s.18.34.32.47c.14.14.31.25.51.33.2.08.43.12.69.12.48,0,.84-.11,1.07-.32s.36-.48.36-.78c0-.25-.08-.47-.25-.67s-.43-.33-.79-.41l-.99-.22c-.5-.11-.9-.33-1.22-.64-.32-.32-.47-.74-.47-1.26,0-.28.06-.54.18-.79.12-.25.28-.47.49-.66.21-.19.45-.34.73-.46.28-.12.58-.17.9-.17.39,0,.73.05,1.01.16.28.11.51.25.7.42.19.17.33.36.44.56.1.2.18.4.21.59l-.86.3Z"/>
      <path class="cls-8" d="M413.07,267.16c-.02-.12-.06-.26-.13-.4-.07-.14-.16-.27-.28-.39-.12-.12-.26-.21-.44-.29-.18-.07-.38-.11-.63-.11-.2,0-.38.03-.54.09-.16.06-.31.14-.43.24-.12.11-.21.23-.28.37-.07.14-.1.29-.1.46,0,.25.08.46.23.64s.37.3.67.37l1.04.22c.58.13,1.03.37,1.34.71s.47.75.47,1.25c0,.27-.06.53-.17.77-.11.25-.27.47-.48.66-.21.19-.46.34-.75.46-.29.11-.63.17-1,.17-.42,0-.78-.06-1.09-.19s-.57-.28-.78-.48-.38-.42-.5-.66c-.12-.25-.19-.49-.22-.74l.92-.29c.02.2.07.38.14.56.07.18.18.34.32.47.14.14.31.25.51.33.2.08.43.12.69.12.48,0,.83-.11,1.07-.32.24-.22.36-.48.36-.78,0-.25-.09-.47-.26-.67s-.43-.33-.78-.41l-.99-.22c-.5-.11-.9-.33-1.22-.64-.32-.32-.47-.74-.47-1.26,0-.28.06-.54.18-.79.12-.25.28-.47.48-.66.21-.19.45-.34.73-.46.28-.12.58-.17.9-.17.39,0,.73.05,1,.16.28.11.51.25.7.42.19.17.33.36.44.56s.18.4.21.59l-.86.3Z"/>
      <path class="cls-8" d="M415.25,274.09v-6.58h.89v.74c.13-.24.33-.44.6-.6.27-.16.59-.25.98-.25.35,0,.66.06.94.19s.5.3.68.52c.18.22.32.48.41.78.09.3.14.62.14.96s-.05.68-.15.98c-.1.3-.24.56-.43.79-.19.22-.42.4-.69.53s-.58.19-.93.19c-.37,0-.68-.08-.94-.23-.26-.15-.46-.33-.59-.54v2.5h-.91ZM418.95,269.87c0-.24-.03-.45-.1-.65-.07-.2-.16-.37-.28-.52-.12-.15-.26-.26-.44-.35-.17-.08-.37-.13-.58-.13s-.4.04-.57.13c-.17.08-.32.2-.45.35-.12.15-.22.32-.28.52-.07.2-.1.42-.1.65s.03.46.1.67c.06.21.16.38.28.53.12.15.27.26.45.34.17.08.36.12.57.12s.41-.04.58-.12.32-.2.44-.34c.12-.15.21-.32.28-.53.06-.21.1-.43.1-.67Z"/>
      <path class="cls-8" d="M420.79,270.96c0-.21.04-.4.11-.56s.17-.31.3-.43c.13-.12.28-.21.46-.28.18-.07.37-.12.57-.16l1.28-.19c.14-.02.24-.06.29-.13.05-.07.07-.14.07-.23,0-.23-.08-.43-.24-.59-.16-.17-.42-.25-.78-.25-.33,0-.58.09-.76.27-.18.18-.28.41-.31.68l-.88-.21c.03-.22.09-.43.2-.62s.25-.35.42-.49.37-.24.59-.31c.22-.08.46-.11.72-.11.35,0,.65.05.9.14s.45.22.61.38c.16.16.27.34.34.55s.11.43.11.66v2.36c0,.21,0,.38.02.5.01.12.03.22.04.27h-.9c-.01-.06-.03-.14-.04-.24s-.01-.23-.01-.4c-.05.09-.12.17-.21.27-.08.09-.19.18-.31.25-.12.08-.27.14-.44.19-.17.05-.35.07-.56.07-.24,0-.46-.04-.65-.12-.19-.08-.36-.18-.49-.31-.14-.13-.24-.28-.32-.45-.07-.17-.11-.35-.11-.54ZM422.5,271.6c.19,0,.37-.02.53-.07.17-.05.31-.13.43-.24.12-.11.22-.25.29-.43.07-.18.11-.4.11-.65v-.22l-1.44.22c-.2.03-.36.11-.49.22s-.2.28-.2.49c0,.18.07.33.21.48s.32.21.56.21Z"/>
      <path class="cls-8" d="M428.25,268.22c-.19,0-.37.03-.54.1-.17.07-.32.17-.46.31-.13.14-.24.31-.32.51-.08.21-.12.45-.12.72s.04.5.12.71c.08.21.18.38.31.52s.28.25.46.32c.18.07.36.11.55.11.22,0,.41-.03.56-.1.15-.07.28-.15.38-.25s.18-.2.24-.32c.06-.11.1-.22.13-.31l.81.35c-.06.17-.14.34-.26.51s-.25.33-.43.48c-.18.14-.38.26-.62.35-.24.09-.51.13-.82.13-.35,0-.67-.06-.96-.19s-.54-.3-.75-.53c-.21-.23-.37-.49-.49-.79-.12-.3-.18-.63-.18-.99s.06-.7.18-1.01.29-.57.5-.79.46-.39.75-.51.6-.19.94-.19c.31,0,.59.04.83.13.24.09.44.2.62.35.17.14.31.31.42.49.11.18.18.36.24.53l-.83.35c-.03-.12-.08-.24-.14-.35s-.14-.22-.24-.32-.22-.17-.37-.24c-.14-.06-.32-.09-.52-.09Z"/>
      <path class="cls-8" d="M431.26,265.73c0-.19.06-.35.19-.48s.28-.19.47-.19.35.06.47.19.19.29.19.48-.06.34-.19.47-.29.19-.47.19-.34-.06-.47-.19-.19-.28-.19-.47ZM431.47,272.23v-4.71h.91v4.71h-.91Z"/>
      <path class="cls-8" d="M434.82,272.23h-.92v-4.71h.9v.68c.17-.29.39-.5.65-.63s.53-.19.8-.19.53.05.74.14.39.23.53.39c.14.17.25.36.31.59.07.23.1.47.1.74v2.99h-.92v-2.83c0-.16-.02-.32-.05-.46-.04-.14-.1-.27-.19-.38s-.2-.19-.34-.25-.31-.09-.51-.09c-.18,0-.34.03-.48.1-.14.07-.25.16-.34.28s-.16.25-.21.41c-.05.16-.07.32-.07.5v2.73Z"/>
      <path class="cls-8" d="M439.95,272.28c.03.33.17.61.4.83.23.22.53.33.89.33.5,0,.86-.13,1.09-.38.23-.25.35-.64.35-1.15v-.68c-.11.22-.29.4-.54.55-.25.15-.55.22-.9.22-.31,0-.6-.06-.87-.17-.27-.11-.49-.27-.69-.47-.19-.2-.34-.44-.45-.72-.11-.28-.16-.59-.16-.92s.05-.62.16-.9c.1-.28.25-.52.44-.73.19-.21.42-.37.68-.49.26-.12.56-.18.89-.18.37,0,.67.07.91.2.24.13.42.31.54.55v-.66h.91v4.36c0,.3-.04.59-.12.88s-.21.54-.4.75c-.19.22-.43.4-.73.53s-.67.2-1.12.2c-.29,0-.57-.04-.82-.13-.25-.09-.47-.21-.67-.37-.19-.16-.35-.34-.47-.55-.12-.21-.2-.45-.22-.7l.89-.21ZM441.38,271.23c.4,0,.72-.14.97-.41.25-.28.37-.64.37-1.1s-.12-.82-.37-1.1-.57-.41-.97-.41-.74.14-.99.41-.37.64-.37,1.1.12.83.37,1.1c.24.27.58.41.99.41Z"/>
    </g>
  </g>
  <g>
    <path class="cls-5" d="M172.56,66.45c.33,0,.63.05.89.14s.48.22.66.39.32.36.41.59c.1.23.14.48.14.75,0,.37-.1.69-.29.95-.19.26-.44.44-.75.55.2.05.37.13.53.24s.29.24.4.38c.11.15.19.31.25.49.05.18.08.37.08.56,0,.28-.05.53-.16.76-.11.23-.25.43-.44.6-.19.17-.41.3-.68.39s-.55.14-.87.14h-2.43v-6.95h2.27ZM172.45,69.49c.39,0,.7-.1.91-.31.22-.21.32-.47.32-.8s-.11-.6-.34-.79c-.23-.2-.54-.29-.94-.29h-1.16v2.2h1.2ZM172.59,72.56c.39,0,.71-.1.95-.3.24-.2.36-.47.36-.81s-.1-.61-.31-.82c-.21-.21-.53-.32-.95-.32h-1.37v2.25h1.33Z"/>
    <path class="cls-5" d="M176.31,73.4v-6.95h.98v6.95h-.98Z"/>
    <path class="cls-5" d="M184.4,73.4l-.09-.98c-.08.14-.18.27-.31.41-.13.13-.29.25-.47.36-.19.11-.4.19-.64.26-.24.07-.51.1-.8.1-.44,0-.86-.08-1.27-.24-.4-.16-.76-.39-1.08-.7-.31-.31-.56-.69-.75-1.14-.19-.45-.28-.97-.28-1.56s.1-1.11.29-1.56c.2-.45.46-.83.78-1.13.32-.3.69-.53,1.1-.69.41-.16.83-.24,1.27-.24.38,0,.73.05,1.06.15s.63.24.89.43c.26.18.49.4.69.66.19.26.34.54.44.86l-.87.37c-.16-.5-.43-.89-.81-1.17-.38-.28-.85-.42-1.39-.42-.31,0-.62.06-.91.17-.29.11-.55.28-.79.51-.23.23-.41.51-.55.86-.14.34-.21.74-.21,1.2s.07.87.2,1.21c.13.34.31.63.54.86.22.23.48.4.77.51s.59.17.91.17c.38,0,.71-.06.98-.18.27-.12.49-.27.66-.46.17-.18.29-.38.37-.59.08-.21.12-.41.14-.58h-2.41v-.86h3.32v3.4h-.78Z"/>
    <path class="cls-5" d="M193.11,72.06c-.07.21-.16.4-.29.58-.13.18-.28.34-.46.47s-.38.24-.61.32-.48.12-.75.12c-.31,0-.62-.06-.9-.17-.29-.11-.54-.27-.76-.49s-.39-.48-.52-.79-.19-.67-.19-1.07c0-.37.06-.71.19-1.01.12-.3.29-.57.5-.78.21-.22.45-.39.72-.51.27-.12.56-.18.85-.18.36,0,.68.06.97.18.28.12.52.29.71.5.19.22.33.48.44.78s.15.64.15,1c0,.06,0,.11,0,.17,0,.05,0,.09-.01.13h-3.55c0,.21.04.4.12.58s.17.33.3.46c.13.13.28.23.45.29s.36.1.55.1c.38,0,.68-.09.88-.27.2-.18.35-.41.44-.68l.79.27ZM192.18,70.56c-.01-.34-.13-.63-.34-.86-.21-.23-.53-.35-.95-.35-.2,0-.37.03-.52.1-.15.07-.29.16-.39.27s-.19.24-.26.39c-.06.14-.1.29-.11.44h2.58Z"/>
    <path class="cls-5" d="M196.42,73.4h-.93l-1.91-4.71h1.04l1.34,3.64,1.35-3.64h.99l-1.88,4.71Z"/>
    <path class="cls-5" d="M203.22,72.06c-.06.21-.16.4-.29.58s-.28.34-.46.47-.38.24-.61.32c-.23.08-.48.12-.76.12-.31,0-.61-.06-.9-.17-.29-.11-.54-.27-.76-.49s-.39-.48-.52-.79c-.13-.31-.19-.67-.19-1.07,0-.37.06-.71.19-1.01.12-.3.29-.57.49-.78.21-.22.45-.39.72-.51.28-.12.56-.18.85-.18.36,0,.68.06.96.18.29.12.52.29.71.5s.34.48.44.78c.1.3.15.64.15,1,0,.06,0,.11,0,.17,0,.05,0,.09-.02.13h-3.55c0,.21.05.4.12.58.07.18.17.33.3.46.13.13.28.23.45.29.17.07.36.1.55.1.38,0,.68-.09.88-.27.2-.18.35-.41.44-.68l.79.27ZM202.29,70.56c-.01-.34-.13-.63-.34-.86-.22-.23-.53-.35-.95-.35-.2,0-.37.03-.53.1-.15.07-.28.16-.39.27-.11.11-.2.24-.26.39-.07.14-.1.29-.11.44h2.58Z"/>
    <path class="cls-5" d="M205.37,73.4h-.92v-4.71h.9v.68c.17-.29.39-.5.65-.63s.53-.19.8-.19.53.05.74.14.39.23.53.39c.14.17.25.36.31.59.07.23.1.47.1.74v2.99h-.92v-2.83c0-.16-.02-.32-.05-.46s-.1-.27-.19-.38c-.09-.11-.2-.19-.34-.25-.14-.06-.31-.09-.51-.09-.18,0-.34.03-.48.1-.14.07-.25.16-.34.28-.09.12-.16.25-.21.41-.05.16-.07.32-.07.5v2.73Z"/>
    <path class="cls-5" d="M211.2,68.69h1.02v.83h-1.02v2.45c0,.22.05.38.15.49.1.11.27.16.51.16.06,0,.12,0,.2,0,.07,0,.13-.02.17-.03v.78s-.12.03-.23.05c-.11.02-.24.03-.4.03-.4,0-.72-.12-.96-.35-.24-.23-.35-.56-.35-1v-2.59h-.9v-.83h.26c.25,0,.44-.07.55-.21.12-.14.17-.31.17-.52v-.76h.84v1.49Z"/>
    <path class="cls-5" d="M216.89,73.4v-4.48h-1.54v-.68c.45-.01.81-.13,1.1-.35.29-.22.47-.5.54-.85h.84v6.35h-.94Z"/>
  </g>
  <g>
    <path class="cls-5" d="M471.35,66.45c.33,0,.63.05.89.14s.48.22.66.39.32.36.41.59c.1.23.14.48.14.75,0,.37-.1.69-.29.95-.19.26-.44.44-.75.55.2.05.37.13.53.24s.29.24.4.38c.11.15.19.31.25.49.05.18.08.37.08.56,0,.28-.05.53-.16.76-.11.23-.25.43-.44.6-.19.17-.41.3-.68.39s-.55.14-.87.14h-2.43v-6.95h2.27ZM471.24,69.49c.39,0,.7-.1.91-.31.22-.21.32-.47.32-.8s-.11-.6-.34-.79c-.23-.2-.54-.29-.94-.29h-1.16v2.2h1.2ZM471.38,72.56c.39,0,.71-.1.95-.3.24-.2.36-.47.36-.81s-.1-.61-.31-.82c-.21-.21-.53-.32-.95-.32h-1.37v2.25h1.33Z"/>
    <path class="cls-5" d="M475.1,73.4v-6.95h.98v6.95h-.98Z"/>
    <path class="cls-5" d="M483.19,73.4l-.09-.98c-.08.14-.18.27-.31.41-.13.13-.29.25-.47.36-.19.11-.4.19-.64.26-.24.07-.51.1-.8.1-.44,0-.86-.08-1.27-.24-.4-.16-.76-.39-1.08-.7-.31-.31-.56-.69-.75-1.14-.19-.45-.28-.97-.28-1.56s.1-1.11.29-1.56c.2-.45.46-.83.78-1.13.32-.3.69-.53,1.1-.69.41-.16.83-.24,1.27-.24.38,0,.73.05,1.06.15s.63.24.89.43c.26.18.49.4.69.66.19.26.34.54.44.86l-.87.37c-.16-.5-.43-.89-.81-1.17-.38-.28-.85-.42-1.39-.42-.31,0-.62.06-.91.17-.29.11-.55.28-.79.51-.23.23-.41.51-.55.86-.14.34-.21.74-.21,1.2s.07.87.2,1.21c.13.34.31.63.54.86.22.23.48.4.77.51s.59.17.91.17c.38,0,.71-.06.98-.18.27-.12.49-.27.66-.46.17-.18.29-.38.37-.59.08-.21.12-.41.14-.58h-2.41v-.86h3.32v3.4h-.78Z"/>
    <path class="cls-5" d="M491.9,72.06c-.07.21-.16.4-.29.58-.13.18-.28.34-.46.47s-.38.24-.61.32-.48.12-.75.12c-.31,0-.62-.06-.9-.17-.29-.11-.54-.27-.76-.49s-.39-.48-.52-.79-.19-.67-.19-1.07c0-.37.06-.71.19-1.01.12-.3.29-.57.5-.78.21-.22.45-.39.72-.51.27-.12.56-.18.85-.18.36,0,.68.06.97.18.28.12.52.29.71.5.19.22.33.48.44.78s.15.64.15,1c0,.06,0,.11,0,.17,0,.05,0,.09-.01.13h-3.55c0,.21.04.4.12.58s.17.33.3.46c.13.13.28.23.45.29s.36.1.55.1c.38,0,.68-.09.88-.27.2-.18.35-.41.44-.68l.79.27ZM490.97,70.56c-.01-.34-.13-.63-.34-.86-.21-.23-.53-.35-.95-.35-.2,0-.37.03-.52.1-.15.07-.29.16-.39.27s-.19.24-.26.39c-.06.14-.1.29-.11.44h2.58Z"/>
    <path class="cls-5" d="M495.21,73.4h-.93l-1.91-4.71h1.04l1.34,3.64,1.35-3.64h.99l-1.88,4.71Z"/>
    <path class="cls-5" d="M502.01,72.06c-.06.21-.16.4-.29.58s-.28.34-.46.47-.38.24-.61.32c-.23.08-.48.12-.76.12-.31,0-.61-.06-.9-.17-.29-.11-.54-.27-.76-.49s-.39-.48-.52-.79c-.13-.31-.19-.67-.19-1.07,0-.37.06-.71.19-1.01.12-.3.29-.57.49-.78.21-.22.45-.39.72-.51.28-.12.56-.18.85-.18.36,0,.68.06.96.18.29.12.52.29.71.5s.34.48.44.78c.1.3.15.64.15,1,0,.06,0,.11,0,.17,0,.05,0,.09-.02.13h-3.55c0,.21.05.4.12.58.07.18.17.33.3.46.13.13.28.23.45.29.17.07.36.1.55.1.38,0,.68-.09.88-.27.2-.18.35-.41.44-.68l.79.27ZM501.07,70.56c-.01-.34-.13-.63-.34-.86-.22-.23-.53-.35-.95-.35-.2,0-.37.03-.53.1-.15.07-.28.16-.39.27-.11.11-.2.24-.26.39-.07.14-.1.29-.11.44h2.58Z"/>
    <path class="cls-5" d="M504.16,73.4h-.92v-4.71h.9v.68c.17-.29.39-.5.65-.63s.53-.19.8-.19.53.05.74.14.39.23.53.39c.14.17.25.36.31.59.07.23.1.47.1.74v2.99h-.92v-2.83c0-.16-.02-.32-.05-.46s-.1-.27-.19-.38c-.09-.11-.2-.19-.34-.25-.14-.06-.31-.09-.51-.09-.18,0-.34.03-.48.1-.14.07-.25.16-.34.28-.09.12-.16.25-.21.41-.05.16-.07.32-.07.5v2.73Z"/>
    <path class="cls-5" d="M509.98,68.69h1.02v.83h-1.02v2.45c0,.22.05.38.15.49.1.11.27.16.51.16.06,0,.12,0,.2,0,.07,0,.13-.02.17-.03v.78s-.12.03-.23.05c-.11.02-.24.03-.4.03-.4,0-.72-.12-.96-.35-.24-.23-.35-.56-.35-1v-2.59h-.9v-.83h.26c.25,0,.44-.07.55-.21.12-.14.17-.31.17-.52v-.76h.84v1.49Z"/>
    <path class="cls-5" d="M514.32,69.21s0-.09,0-.13v-.12c0-.27.05-.54.15-.78.1-.25.24-.47.43-.66.19-.19.42-.34.69-.45.28-.11.58-.17.93-.17s.64.05.91.16c.27.1.49.25.68.42.18.18.32.38.42.62.1.24.14.49.14.75,0,.42-.11.79-.32,1.12-.21.33-.51.61-.87.84l-1.26.8c-.18.12-.35.25-.49.39-.14.14-.24.31-.28.5h3.26v.89h-4.45c0-.26.04-.51.09-.74s.14-.45.27-.66c.12-.21.28-.41.46-.59s.42-.37.69-.54l1.06-.69c.3-.19.52-.39.66-.62.14-.22.21-.46.21-.71,0-.14-.03-.28-.07-.42s-.12-.25-.22-.36c-.1-.1-.22-.19-.37-.25-.15-.06-.33-.09-.53-.09s-.39.03-.54.1c-.15.07-.28.16-.38.28-.1.12-.18.25-.22.41s-.07.33-.07.51c0,.05,0,.09,0,.14,0,.04,0,.09.01.15l-.96-.12Z"/>
  </g>
  <g>
    <path class="cls-5" d="M94.76,132.23c.33,0,.63.05.89.14.26.09.48.22.66.39s.32.36.41.59c.09.23.14.48.14.75,0,.37-.1.69-.29.95s-.44.44-.75.55c.2.05.37.13.53.24.16.11.29.24.4.38.11.15.19.31.25.49.05.18.08.37.08.56,0,.28-.05.53-.16.76-.1.23-.25.43-.44.6-.19.17-.42.3-.68.39s-.55.14-.87.14h-2.43v-6.95h2.26ZM94.65,135.27c.39,0,.7-.1.91-.31.22-.21.32-.47.32-.8s-.11-.6-.34-.79c-.23-.2-.54-.29-.94-.29h-1.16v2.2h1.2ZM94.79,138.34c.39,0,.71-.1.95-.3.24-.2.36-.47.36-.81s-.1-.61-.31-.82c-.21-.21-.53-.32-.95-.32h-1.37v2.25h1.33Z"/>
    <path class="cls-5" d="M98.51,139.18v-6.95h.98v6.95h-.98Z"/>
    <path class="cls-5" d="M104.9,134.11c-.02-.12-.06-.26-.13-.4-.07-.14-.16-.27-.27-.39-.12-.12-.26-.21-.44-.29s-.39-.11-.63-.11c-.2,0-.38.03-.54.09-.16.06-.31.14-.43.25-.12.1-.21.23-.28.37-.07.14-.1.29-.1.46,0,.25.08.46.23.64s.37.3.67.37l1.04.23c.58.13,1.03.37,1.34.71s.47.75.47,1.24c0,.27-.06.53-.17.77-.11.25-.27.47-.48.66s-.46.34-.75.46-.63.17-1,.17c-.42,0-.78-.06-1.09-.19s-.57-.28-.78-.48c-.21-.2-.38-.42-.5-.66-.12-.25-.19-.49-.23-.74l.92-.29c.02.2.07.38.14.56.07.18.18.34.32.48.14.14.31.25.51.33.2.08.43.12.69.12.48,0,.83-.11,1.07-.32.24-.22.36-.48.36-.78,0-.25-.08-.47-.25-.67s-.43-.33-.78-.41l-.99-.22c-.5-.11-.9-.33-1.22-.64s-.47-.74-.47-1.26c0-.27.06-.54.18-.78.12-.25.28-.47.49-.66s.45-.34.73-.46.58-.17.9-.17c.39,0,.73.05,1,.16.28.11.51.25.7.42s.33.36.44.56c.1.2.18.4.21.59l-.86.3Z"/>
    <path class="cls-5" d="M109.69,134.47h1.41l.35-1.64h.82l-.35,1.64h1.39l.35-1.64h.82l-.35,1.64h1.32v.74h-1.48l-.33,1.57h1.33v.74h-1.5l-.35,1.66h-.82l.35-1.66h-1.39l-.35,1.66h-.82l.35-1.66h-1.24v-.74h1.4l.33-1.57h-1.25v-.74ZM111.43,136.78h1.39l.33-1.57h-1.39l-.33,1.57Z"/>
    <path class="cls-5" d="M117.9,139.18v-4.48h-1.54v-.68c.44-.01.81-.13,1.1-.35.29-.22.47-.5.54-.85h.84v6.35h-.94Z"/>
    <path class="cls-5" d="M126.92,137.84c-.07.21-.16.4-.29.58-.13.18-.28.34-.46.47s-.38.24-.61.32c-.23.08-.48.12-.75.12-.31,0-.61-.06-.9-.17-.29-.11-.54-.27-.76-.49s-.39-.48-.52-.79c-.13-.31-.19-.67-.19-1.07,0-.37.06-.71.19-1.01s.29-.57.5-.78.45-.39.72-.51.56-.18.85-.18c.36,0,.68.06.97.18s.52.29.71.5c.19.22.33.48.44.78.1.3.15.64.15,1,0,.06,0,.11,0,.17,0,.05,0,.09-.01.13h-3.55c0,.21.05.4.12.58.07.18.17.33.3.46s.28.23.45.29c.17.07.36.1.55.1.38,0,.68-.09.88-.27.2-.18.35-.41.44-.68l.79.27ZM125.98,136.34c-.01-.34-.13-.63-.34-.86-.22-.23-.53-.35-.95-.35-.2,0-.37.03-.52.1-.15.07-.28.16-.39.27-.11.11-.19.24-.26.39s-.1.29-.11.44h2.58Z"/>
    <path class="cls-5" d="M130.22,139.18h-.93l-1.91-4.71h1.04l1.34,3.64,1.35-3.64h.99l-1.88,4.71Z"/>
    <path class="cls-5" d="M137.02,137.84c-.07.21-.16.4-.29.58-.13.18-.28.34-.46.47s-.38.24-.61.32c-.23.08-.48.12-.75.12-.31,0-.61-.06-.9-.17-.29-.11-.54-.27-.76-.49s-.39-.48-.52-.79c-.13-.31-.19-.67-.19-1.07,0-.37.06-.71.19-1.01s.29-.57.5-.78.45-.39.72-.51.56-.18.85-.18c.36,0,.68.06.97.18s.52.29.71.5c.19.22.33.48.44.78.1.3.15.64.15,1,0,.06,0,.11,0,.17,0,.05,0,.09-.01.13h-3.55c0,.21.05.4.12.58.07.18.17.33.3.46s.28.23.45.29c.17.07.36.1.55.1.38,0,.68-.09.88-.27.2-.18.35-.41.44-.68l.79.27ZM136.09,136.34c-.01-.34-.13-.63-.34-.86-.22-.23-.53-.35-.95-.35-.2,0-.37.03-.52.1-.15.07-.28.16-.39.27-.11.11-.19.24-.26.39s-.1.29-.11.44h2.58Z"/>
    <path class="cls-5" d="M139.18,139.18h-.92v-4.71h.9v.68c.17-.29.39-.5.65-.63s.53-.19.8-.19.53.05.74.14c.21.09.39.23.53.39.14.17.25.36.31.59.07.23.1.47.1.74v2.99h-.92v-2.83c0-.16-.02-.32-.05-.46-.04-.14-.1-.27-.19-.38-.09-.11-.2-.19-.34-.25-.14-.06-.31-.09-.51-.09-.18,0-.34.03-.48.1-.14.07-.25.16-.34.28-.09.12-.16.25-.21.41-.05.16-.07.32-.07.5v2.73Z"/>
    <path class="cls-5" d="M145,134.47h1.02v.83h-1.02v2.45c0,.22.05.38.15.49.1.11.27.16.51.16.06,0,.12,0,.2,0,.07,0,.13-.02.17-.03v.78s-.11.03-.23.05c-.11.02-.25.03-.4.03-.41,0-.73-.12-.96-.35-.24-.23-.35-.56-.35-1v-2.59h-.9v-.83h.25c.25,0,.44-.07.55-.21.11-.14.17-.31.17-.52v-.76h.84v1.49Z"/>
  </g>
  <g>
    <path class="cls-5" d="M389.99,132.23c.33,0,.63.05.89.14s.48.22.66.39.32.36.41.59c.1.23.14.48.14.75,0,.37-.1.69-.29.95-.19.26-.44.44-.75.55.2.05.37.13.53.24s.29.24.4.38c.11.15.19.31.25.49.05.18.08.37.08.56,0,.28-.05.53-.16.76-.11.23-.25.43-.44.6-.19.17-.41.3-.68.39s-.55.14-.87.14h-2.43v-6.95h2.27ZM389.88,135.27c.39,0,.7-.1.91-.31.22-.21.32-.47.32-.8s-.11-.6-.34-.79c-.23-.2-.54-.29-.94-.29h-1.16v2.2h1.2ZM390.02,138.34c.39,0,.71-.1.95-.3.24-.2.36-.47.36-.81s-.1-.61-.31-.82c-.21-.21-.53-.32-.95-.32h-1.37v2.25h1.33Z"/>
    <path class="cls-5" d="M393.74,139.18v-6.95h.98v6.95h-.98Z"/>
    <path class="cls-5" d="M400.13,134.11c-.02-.12-.06-.26-.13-.4s-.16-.27-.27-.39c-.12-.12-.27-.21-.44-.29-.18-.08-.39-.11-.63-.11-.2,0-.38.03-.54.09-.16.06-.3.14-.43.25s-.21.23-.28.37c-.06.14-.1.29-.1.46,0,.25.07.46.22.64s.37.3.67.37l1.04.23c.58.13,1.03.37,1.34.71s.46.75.46,1.24c0,.27-.05.53-.17.77-.11.25-.27.47-.48.66s-.46.34-.76.46c-.29.11-.63.17-1,.17-.42,0-.78-.06-1.09-.19s-.57-.28-.79-.48c-.21-.2-.38-.42-.49-.66s-.19-.49-.23-.74l.92-.29c.02.2.07.38.14.56.07.18.18.34.32.48.14.14.31.25.51.33.2.08.43.12.69.12.48,0,.84-.11,1.07-.32s.36-.48.36-.78c0-.25-.08-.47-.25-.67s-.43-.33-.79-.41l-.99-.22c-.5-.11-.9-.33-1.22-.64-.32-.32-.47-.74-.47-1.26,0-.27.06-.54.18-.78.12-.25.28-.47.49-.66.21-.19.45-.34.73-.46s.58-.17.9-.17c.39,0,.73.05,1.01.16s.51.25.7.42c.19.17.33.36.44.56.1.2.18.4.21.59l-.86.3Z"/>
    <path class="cls-5" d="M404.92,134.47h1.41l.35-1.64h.82l-.35,1.64h1.39l.35-1.64h.82l-.35,1.64h1.32v.74h-1.48l-.33,1.57h1.33v.74h-1.5l-.35,1.66h-.82l.35-1.66h-1.39l-.35,1.66h-.82l.35-1.66h-1.24v-.74h1.4l.33-1.57h-1.26v-.74ZM406.66,136.78h1.39l.33-1.57h-1.39l-.33,1.57Z"/>
    <path class="cls-5" d="M413.13,139.18v-4.48h-1.54v-.68c.44-.01.81-.13,1.1-.35.29-.22.47-.5.54-.85h.84v6.35h-.94Z"/>
    <path class="cls-5" d="M422.15,137.84c-.07.21-.16.4-.29.58-.13.18-.28.34-.46.47s-.38.24-.61.32-.48.12-.75.12c-.31,0-.62-.06-.9-.17-.29-.11-.54-.27-.76-.49s-.39-.48-.52-.79-.19-.67-.19-1.07c0-.37.06-.71.19-1.01.12-.3.29-.57.5-.78.21-.22.45-.39.72-.51.27-.12.56-.18.85-.18.36,0,.68.06.97.18.28.12.52.29.71.5.19.22.33.48.44.78s.15.64.15,1c0,.06,0,.11,0,.17,0,.05,0,.09-.01.13h-3.55c0,.21.04.4.12.58s.17.33.3.46c.13.13.28.23.45.29s.36.1.55.1c.38,0,.68-.09.88-.27.2-.18.35-.41.44-.68l.79.27ZM421.21,136.34c-.01-.34-.13-.63-.34-.86-.21-.23-.53-.35-.95-.35-.2,0-.37.03-.52.1-.15.07-.29.16-.39.27s-.19.24-.26.39c-.06.14-.1.29-.11.44h2.58Z"/>
    <path class="cls-5" d="M425.46,139.18h-.93l-1.91-4.71h1.04l1.34,3.64,1.35-3.64h.99l-1.88,4.71Z"/>
    <path class="cls-5" d="M432.25,137.84c-.07.21-.16.4-.29.58-.13.18-.28.34-.46.47s-.38.24-.61.32-.48.12-.75.12c-.31,0-.62-.06-.9-.17-.29-.11-.54-.27-.76-.49s-.39-.48-.52-.79-.19-.67-.19-1.07c0-.37.06-.71.19-1.01.12-.3.29-.57.5-.78.21-.22.45-.39.72-.51.27-.12.56-.18.85-.18.36,0,.68.06.97.18.28.12.52.29.71.5.19.22.33.48.44.78s.15.64.15,1c0,.06,0,.11,0,.17,0,.05,0,.09-.01.13h-3.55c0,.21.04.4.12.58s.17.33.3.46c.13.13.28.23.45.29s.36.1.55.1c.38,0,.68-.09.88-.27.2-.18.35-.41.44-.68l.79.27ZM431.32,136.34c-.01-.34-.13-.63-.34-.86-.21-.23-.53-.35-.95-.35-.2,0-.37.03-.52.1-.15.07-.29.16-.39.27s-.19.24-.26.39c-.06.14-.1.29-.11.44h2.58Z"/>
    <path class="cls-5" d="M434.41,139.18h-.92v-4.71h.9v.68c.17-.29.38-.5.65-.63s.53-.19.8-.19.53.05.74.14c.21.09.39.23.53.39.14.17.24.36.31.59.07.23.1.47.1.74v2.99h-.92v-2.83c0-.16-.02-.32-.05-.46-.04-.14-.1-.27-.19-.38-.09-.11-.2-.19-.34-.25-.14-.06-.31-.09-.52-.09-.18,0-.34.03-.48.1-.14.07-.25.16-.34.28-.09.12-.16.25-.21.41-.04.16-.07.32-.07.5v2.73Z"/>
    <path class="cls-5" d="M440.23,134.47h1.02v.83h-1.02v2.45c0,.22.05.38.15.49.1.11.27.16.51.16.06,0,.12,0,.2,0,.07,0,.13-.02.17-.03v.78s-.11.03-.22.05c-.11.02-.25.03-.4.03-.41,0-.73-.12-.96-.35-.23-.23-.35-.56-.35-1v-2.59h-.9v-.83h.25c.26,0,.44-.07.55-.21.11-.14.17-.31.17-.52v-.76h.84v1.49Z"/>
  </g>
  <g>
    <path class="cls-5" d="M242.28,272.51c.33,0,.63.05.89.14.26.09.48.23.66.39.18.17.32.36.41.59s.14.48.14.75c0,.37-.1.69-.29.95-.19.26-.44.44-.75.55.2.05.37.13.53.24.16.11.29.24.4.38.11.15.19.31.25.49.05.18.08.37.08.56,0,.27-.05.53-.16.76s-.25.43-.44.6c-.19.17-.42.3-.68.39s-.55.14-.87.14h-2.43v-6.95h2.26ZM242.17,275.55c.39,0,.7-.1.91-.31s.32-.47.32-.8-.11-.6-.34-.79-.54-.29-.94-.29h-1.16v2.2h1.2ZM242.31,278.62c.39,0,.71-.1.95-.3.24-.2.36-.47.36-.81s-.1-.61-.31-.82c-.21-.21-.53-.32-.95-.32h-1.37v2.25h1.33Z"/>
    <path class="cls-5" d="M246.03,279.46v-6.95h.98v6.95h-.98Z"/>
    <path class="cls-5" d="M252.42,274.39c-.02-.12-.06-.26-.13-.4-.07-.14-.16-.27-.27-.39s-.26-.21-.44-.29-.39-.11-.63-.11c-.2,0-.38.03-.54.09-.16.06-.31.14-.43.24-.12.11-.21.23-.28.37-.07.14-.1.29-.1.46,0,.25.08.46.23.64s.37.3.67.37l1.04.22c.58.13,1.03.37,1.34.71s.47.75.47,1.25c0,.27-.06.53-.17.77s-.27.47-.48.66c-.21.19-.46.34-.75.46s-.63.17-1,.17c-.42,0-.78-.06-1.09-.19s-.57-.28-.78-.48c-.21-.2-.38-.42-.5-.66-.12-.25-.19-.49-.23-.74l.92-.29c.02.2.07.38.14.56.07.18.18.34.32.48.14.14.31.25.51.33s.43.12.69.12c.48,0,.83-.11,1.07-.32.24-.22.36-.48.36-.78,0-.25-.08-.47-.25-.67s-.43-.33-.78-.41l-.99-.22c-.5-.11-.9-.33-1.22-.64-.32-.32-.47-.74-.47-1.26,0-.27.06-.54.18-.78.12-.25.28-.47.49-.66.21-.19.45-.34.73-.46s.58-.17.9-.17c.39,0,.73.05,1,.16.28.11.51.25.7.42s.33.36.44.56c.1.2.18.4.21.59l-.86.3Z"/>
    <path class="cls-5" d="M257.2,274.75h1.41l.35-1.64h.82l-.35,1.64h1.39l.35-1.64h.82l-.35,1.64h1.32v.75h-1.48l-.33,1.57h1.33v.75h-1.5l-.35,1.66h-.82l.35-1.66h-1.39l-.35,1.66h-.82l.35-1.66h-1.24v-.75h1.4l.33-1.57h-1.25v-.75ZM258.95,277.06h1.39l.33-1.57h-1.39l-.33,1.57Z"/>
    <path class="cls-5" d="M263.97,275.27s0-.09,0-.13v-.12c0-.27.05-.54.15-.78.1-.25.24-.47.43-.66s.42-.34.69-.45c.28-.11.58-.17.93-.17s.64.05.91.16c.27.1.49.25.68.42.18.18.32.38.42.62s.14.49.14.75c0,.42-.11.79-.32,1.12s-.51.61-.87.84l-1.25.8c-.18.12-.35.25-.49.39s-.24.31-.28.5h3.26v.89h-4.45c0-.26.04-.51.09-.74.05-.23.14-.45.26-.66.12-.21.28-.41.46-.59.19-.19.42-.37.69-.54l1.06-.69c.3-.19.52-.4.66-.62.14-.22.21-.46.21-.71,0-.14-.03-.28-.07-.42s-.12-.25-.22-.36c-.1-.1-.22-.19-.37-.25s-.33-.09-.53-.09-.39.04-.54.1-.28.16-.38.28c-.1.12-.18.25-.22.41-.05.16-.07.33-.07.51,0,.04,0,.09,0,.14,0,.05,0,.09.01.15l-.96-.12Z"/>
    <path class="cls-5" d="M276.08,278.12c-.07.21-.16.4-.29.58-.13.18-.28.34-.46.47s-.38.24-.61.32c-.23.08-.48.12-.75.12-.31,0-.61-.06-.9-.17-.29-.11-.54-.27-.76-.49s-.39-.48-.52-.79c-.13-.31-.19-.67-.19-1.07,0-.37.06-.71.19-1.01s.29-.57.5-.78.45-.39.72-.51c.27-.12.56-.18.85-.18.36,0,.68.06.97.18.28.12.52.29.71.5.19.22.33.48.44.78.1.3.15.64.15,1,0,.06,0,.11,0,.17,0,.05,0,.09-.01.13h-3.55c0,.21.05.4.12.58.07.18.17.33.3.46.13.13.28.23.45.29.17.07.36.1.55.1.38,0,.68-.09.88-.27.2-.18.35-.41.44-.68l.79.27ZM275.15,276.62c-.01-.34-.13-.62-.34-.86-.22-.23-.53-.35-.95-.35-.2,0-.37.03-.52.1s-.28.16-.39.27c-.11.11-.19.24-.26.39s-.1.29-.11.44h2.58Z"/>
    <path class="cls-5" d="M279.39,279.46h-.93l-1.91-4.71h1.04l1.34,3.64,1.35-3.64h.99l-1.88,4.71Z"/>
    <path class="cls-5" d="M286.18,278.12c-.07.21-.16.4-.29.58-.13.18-.28.34-.46.47s-.38.24-.61.32c-.23.08-.48.12-.75.12-.31,0-.61-.06-.9-.17-.29-.11-.54-.27-.76-.49s-.39-.48-.52-.79c-.13-.31-.19-.67-.19-1.07,0-.37.06-.71.19-1.01s.29-.57.5-.78.45-.39.72-.51c.27-.12.56-.18.85-.18.36,0,.68.06.97.18.28.12.52.29.71.5.19.22.33.48.44.78.1.3.15.64.15,1,0,.06,0,.11,0,.17,0,.05,0,.09-.01.13h-3.55c0,.21.05.4.12.58.07.18.17.33.3.46.13.13.28.23.45.29.17.07.36.1.55.1.38,0,.68-.09.88-.27.2-.18.35-.41.44-.68l.79.27ZM285.25,276.62c-.01-.34-.13-.62-.34-.86-.22-.23-.53-.35-.95-.35-.2,0-.37.03-.52.1s-.28.16-.39.27c-.11.11-.19.24-.26.39s-.1.29-.11.44h2.58Z"/>
    <path class="cls-5" d="M288.34,279.46h-.92v-4.71h.9v.68c.17-.29.39-.5.65-.63.26-.12.53-.19.8-.19s.53.05.74.14c.21.09.39.23.53.39.14.17.25.36.31.59s.1.47.1.74v2.99h-.92v-2.83c0-.16-.02-.32-.05-.46-.04-.14-.1-.27-.19-.38-.09-.11-.2-.19-.34-.25-.14-.06-.31-.09-.51-.09-.18,0-.34.03-.48.1-.14.07-.25.16-.34.28-.09.12-.16.25-.21.41-.05.16-.07.32-.07.5v2.72Z"/>
    <path class="cls-5" d="M294.16,274.75h1.02v.83h-1.02v2.45c0,.22.05.38.15.49.1.11.27.16.51.16.06,0,.12,0,.2,0,.07,0,.13-.02.17-.03v.78s-.11.03-.23.05c-.11.02-.25.03-.4.03-.41,0-.73-.12-.96-.35-.24-.23-.35-.56-.35-1v-2.59h-.9v-.83h.25c.25,0,.44-.07.55-.21.11-.14.17-.31.17-.52v-.76h.84v1.49Z"/>
  </g>
  <g>
    <path class="cls-5" d="M542.22,272.51c.33,0,.63.05.89.14.26.09.48.23.66.39.18.17.32.36.41.59.09.23.14.48.14.75,0,.37-.1.69-.29.95-.19.26-.44.44-.75.55.2.05.37.13.53.24.16.11.29.24.4.38.11.15.19.31.24.49s.08.37.08.56c0,.27-.05.53-.16.76-.1.23-.25.43-.44.6-.19.17-.42.3-.68.39s-.55.14-.87.14h-2.43v-6.95h2.26ZM542.12,275.55c.39,0,.7-.1.91-.31.21-.21.32-.47.32-.8s-.11-.6-.34-.79c-.22-.2-.54-.29-.94-.29h-1.16v2.2h1.2ZM542.25,278.62c.39,0,.71-.1.95-.3.24-.2.36-.47.36-.81s-.11-.61-.31-.82c-.21-.21-.53-.32-.95-.32h-1.37v2.25h1.33Z"/>
    <path class="cls-5" d="M545.98,279.46v-6.95h.98v6.95h-.98Z"/>
    <path class="cls-5" d="M552.37,274.39c-.02-.12-.06-.26-.13-.4-.07-.14-.16-.27-.28-.39-.12-.12-.26-.21-.44-.29-.18-.08-.38-.11-.63-.11-.2,0-.38.03-.54.09-.16.06-.31.14-.43.24-.12.11-.21.23-.28.37-.07.14-.1.29-.1.46,0,.25.08.46.23.64s.37.3.67.37l1.04.22c.58.13,1.03.37,1.34.71s.47.75.47,1.25c0,.27-.06.53-.17.77s-.27.47-.48.66c-.21.19-.46.34-.75.46-.29.11-.63.17-1,.17-.42,0-.78-.06-1.09-.19s-.57-.28-.78-.48-.38-.42-.5-.66c-.12-.25-.19-.49-.22-.74l.92-.29c.02.2.07.38.14.56.07.18.18.34.32.48.14.14.31.25.51.33s.43.12.69.12c.48,0,.83-.11,1.07-.32.24-.22.36-.48.36-.78,0-.25-.09-.47-.26-.67s-.43-.33-.78-.41l-.99-.22c-.5-.11-.9-.33-1.22-.64-.32-.32-.47-.74-.47-1.26,0-.27.06-.54.18-.78s.28-.47.48-.66c.21-.19.45-.34.73-.46s.58-.17.9-.17c.39,0,.73.05,1,.16.28.11.51.25.7.42.19.17.33.36.44.56.11.2.18.4.21.59l-.86.3Z"/>
    <path class="cls-5" d="M557.15,274.75h1.41l.35-1.64h.82l-.35,1.64h1.39l.35-1.64h.82l-.35,1.64h1.32v.75h-1.48l-.33,1.57h1.33v.75h-1.5l-.35,1.66h-.82l.35-1.66h-1.39l-.35,1.66h-.82l.35-1.66h-1.23v-.75h1.4l.33-1.57h-1.25v-.75ZM558.89,277.06h1.39l.33-1.57h-1.39l-.33,1.57Z"/>
    <path class="cls-5" d="M563.92,275.27s0-.09,0-.13v-.12c0-.27.05-.54.15-.78.1-.25.24-.47.43-.66.19-.19.42-.34.69-.45s.58-.17.93-.17.64.05.91.16c.27.1.49.25.68.42.18.18.32.38.42.62.1.24.14.49.14.75,0,.42-.11.79-.32,1.12-.21.33-.51.61-.87.84l-1.26.8c-.18.12-.35.25-.49.39-.14.14-.24.31-.28.5h3.26v.89h-4.45c0-.26.04-.51.09-.74.05-.23.14-.45.27-.66.12-.21.28-.41.46-.59.19-.19.42-.37.69-.54l1.06-.69c.3-.19.52-.4.66-.62.14-.22.21-.46.21-.71,0-.14-.03-.28-.07-.42s-.12-.25-.22-.36c-.1-.1-.22-.19-.37-.25s-.33-.09-.53-.09-.39.04-.54.1c-.15.07-.28.16-.38.28-.1.12-.18.25-.22.41-.05.16-.07.33-.07.51,0,.04,0,.09,0,.14s0,.09.01.15l-.96-.12Z"/>
    <path class="cls-5" d="M576.03,278.12c-.07.21-.16.4-.29.58-.13.18-.28.34-.46.47s-.38.24-.61.32c-.23.08-.48.12-.75.12-.31,0-.62-.06-.9-.17s-.54-.27-.76-.49-.39-.48-.52-.79-.19-.67-.19-1.07c0-.37.06-.71.19-1.01.12-.3.29-.57.5-.78.21-.22.45-.39.72-.51.27-.12.56-.18.85-.18.36,0,.68.06.97.18.28.12.52.29.71.5.19.22.33.48.44.78s.15.64.15,1c0,.06,0,.11,0,.17,0,.05,0,.09-.01.13h-3.55c0,.21.04.4.12.58.07.18.17.33.3.46.13.13.28.23.45.29.17.07.36.1.55.1.38,0,.68-.09.88-.27.2-.18.35-.41.44-.68l.79.27ZM575.09,276.62c-.01-.34-.13-.62-.34-.86-.21-.23-.53-.35-.95-.35-.2,0-.37.03-.52.1-.15.07-.29.16-.39.27s-.19.24-.26.39c-.06.14-.1.29-.11.44h2.58Z"/>
    <path class="cls-5" d="M579.33,279.46h-.93l-1.91-4.71h1.04l1.34,3.64,1.35-3.64h.99l-1.88,4.71Z"/>
    <path class="cls-5" d="M586.13,278.12c-.07.21-.16.4-.29.58-.13.18-.28.34-.46.47s-.38.24-.61.32c-.23.08-.48.12-.75.12-.31,0-.62-.06-.9-.17s-.54-.27-.76-.49-.39-.48-.52-.79-.19-.67-.19-1.07c0-.37.06-.71.19-1.01.12-.3.29-.57.5-.78.21-.22.45-.39.72-.51.27-.12.56-.18.85-.18.36,0,.68.06.97.18.28.12.52.29.71.5.19.22.33.48.44.78s.15.64.15,1c0,.06,0,.11,0,.17,0,.05,0,.09-.01.13h-3.55c0,.21.04.4.12.58.07.18.17.33.3.46.13.13.28.23.45.29.17.07.36.1.55.1.38,0,.68-.09.88-.27.2-.18.35-.41.44-.68l.79.27ZM585.2,276.62c-.01-.34-.13-.62-.34-.86-.21-.23-.53-.35-.95-.35-.2,0-.37.03-.52.1-.15.07-.29.16-.39.27s-.19.24-.26.39c-.06.14-.1.29-.11.44h2.58Z"/>
    <path class="cls-5" d="M588.29,279.46h-.92v-4.71h.9v.68c.17-.29.38-.5.65-.63.26-.12.53-.19.8-.19s.53.05.74.14c.21.09.39.23.53.39.14.17.24.36.31.59s.1.47.1.74v2.99h-.92v-2.83c0-.16-.02-.32-.05-.46-.04-.14-.1-.27-.19-.38-.09-.11-.2-.19-.34-.25-.14-.06-.31-.09-.52-.09-.18,0-.34.03-.48.1s-.25.16-.34.28c-.09.12-.16.25-.21.41-.04.16-.07.32-.07.5v2.72Z"/>
    <path class="cls-5" d="M594.11,274.75h1.02v.83h-1.02v2.45c0,.22.05.38.15.49.1.11.27.16.51.16.06,0,.12,0,.2,0,.07,0,.13-.02.17-.03v.78s-.11.03-.22.05c-.11.02-.25.03-.4.03-.41,0-.73-.12-.96-.35-.23-.23-.35-.56-.35-1v-2.59h-.9v-.83h.25c.26,0,.44-.07.55-.21.11-.14.17-.31.17-.52v-.76h.84v1.49Z"/>
  </g>
  <path class="cls-5" d="M55.47,155.76v6.06h-.96v-6.06h-2.32v-.89h5.61v.89h-2.32Z"/>
  <path class="cls-5" d="M91.58,155.76v6.06h-.96v-6.06h-2.32v-.89h5.61v.89h-2.32Z"/>
  <path class="cls-5" d="M127.93,155.76v6.06h-.96v-6.06h-2.32v-.89h5.61v.89h-2.32Z"/>
  <path class="cls-5" d="M203.81,296.48v6.06h-.96v-6.06h-2.32v-.89h5.61v.89h-2.32Z"/>
  <path class="cls-5" d="M239.92,296.48v6.06h-.96v-6.06h-2.32v-.89h5.61v.89h-2.32Z"/>
  <path class="cls-5" d="M276.27,296.48v6.06h-.96v-6.06h-2.32v-.89h5.61v.89h-2.32Z"/>
  <g>
    <path class="cls-5" d="M311.78,296.48v6.06h-.96v-6.06h-2.32v-.89h5.61v.89h-2.32Z"/>
    <path class="cls-5" d="M315.25,300.47c-.11,0-.21.02-.31.06-.1.04-.19.1-.27.18s-.14.18-.19.3-.07.26-.07.42.02.29.07.42.11.22.18.3.17.14.27.19c.1.04.21.06.32.06.13,0,.24-.02.33-.06.09-.04.16-.09.22-.14.06-.06.11-.12.14-.19.03-.07.06-.13.07-.18l.47.21c-.03.1-.08.2-.15.3-.07.1-.15.19-.25.28-.1.08-.22.15-.36.2-.14.05-.3.08-.48.08-.2,0-.39-.04-.56-.11-.17-.07-.32-.18-.44-.31-.12-.13-.22-.29-.29-.46-.07-.18-.11-.37-.11-.58s.04-.41.11-.59c.07-.18.17-.33.29-.46.12-.13.27-.23.44-.3.17-.07.35-.11.55-.11.18,0,.34.03.48.08.14.05.26.12.36.2.1.08.18.18.24.28.06.1.11.21.14.31l-.49.21c-.02-.07-.05-.14-.08-.21-.03-.07-.08-.13-.14-.19-.06-.05-.13-.1-.21-.14-.08-.04-.18-.05-.3-.05Z"/>
  </g>
  <path class="cls-5" d="M350.7,155.75v6.06h-.96v-6.06h-2.32v-.89h5.61v.89h-2.32Z"/>
  <path class="cls-5" d="M386.26,155.75v6.06h-.96v-6.06h-2.32v-.89h5.61v.89h-2.32Z"/>
  <path class="cls-5" d="M423.16,155.75v6.06h-.96v-6.06h-2.32v-.89h5.61v.89h-2.32Z"/>
  <path class="cls-5" d="M502.24,296.48v6.06h-.96v-6.06h-2.32v-.89h5.61v.89h-2.32Z"/>
  <path class="cls-5" d="M538.73,296.48v6.06h-.96v-6.06h-2.32v-.89h5.61v.89h-2.32Z"/>
  <path class="cls-5" d="M575.08,296.48v6.06h-.96v-6.06h-2.32v-.89h5.61v.89h-2.32Z"/>
</svg>