<?xml version="1.0" encoding="UTF-8"?>
<svg id="Layer_1" data-name="Layer 1" xmlns="http://www.w3.org/2000/svg" viewBox="0 0 342 215.35">
  <defs>
    <style>
      .cls-1 {
        fill: #02439e;
      }

      .cls-2 {
        fill: #fff;
      }

      .cls-3 {
        stroke-width: .5px;
      }

      .cls-3, .cls-4, .cls-5 {
        fill: none;
      }

      .cls-3, .cls-5 {
        stroke: #fff;
        stroke-miterlimit: 10;
      }

      .cls-6 {
        fill: #666;
      }

      .cls-7 {
        fill: #0082fc;
      }

      .cls-5 {
        stroke-width: .25px;
      }
    </style>
  </defs>
  <g>
    <rect class="cls-1" x="45.92" y="21.23" width="239.79" height="19.88"/>
    <rect class="cls-1" x="45.92" y="69.65" width="239.79" height="75.11"/>
    <rect class="cls-1" x="45.92" y="173.6" width="239.79" height="19.66"/>
  </g>
  <g>
    <line class="cls-3" x1="163.1" y1="81.96" x2="163.1" y2="132.02"/>
    <line class="cls-2" x1="163.1" y1="81.96" x2="163.1" y2="132.02"/>
  </g>
  <g>
    <rect class="cls-7" x="94.36" y="77.05" width="136.02" height="10.63"/>
    <rect class="cls-7" x="94.36" y="93.78" width="136.02" height="10.63"/>
    <rect class="cls-7" x="94.36" y="110.52" width="136.02" height="10.63"/>
    <rect class="cls-7" x="94.36" y="127.25" width="136.02" height="10.63"/>
  </g>
  <rect class="cls-7" x="245.08" y="77.05" width="36.26" height="60.84"/>
  <path class="cls-6" d="M163.1,42.48l6.55,6.55h-4.58v13.1h4.58l-6.55,6.55-6.55-6.55h4.58v-13.1h-4.58l6.55-6.55M163.1,41.77l-7.76,7.75h5.29v12.1h-5.29l7.76,7.75,7.75-7.75h-5.29v-12.1h5.29l-7.75-7.75h0Z"/>
  <path class="cls-6" d="M264.02,42.48l6.55,6.55h-4.58v13.1h4.58l-6.55,6.55-6.55-6.55h4.58v-13.1h-4.58l6.55-6.55M264.02,41.77l-7.76,7.75h5.29v12.1h-5.29l7.76,7.75,7.75-7.75h-5.29v-12.1h5.29l-7.75-7.75h0Z"/>
  <path class="cls-6" d="M163.1,146.31l6.55,6.55h-4.58v13.1h4.58l-6.55,6.55-6.55-6.55h4.58v-13.1h-4.58l6.55-6.55M163.1,145.6l-7.76,7.75h5.29v12.1h-5.29l7.76,7.75,7.75-7.75h-5.29v-12.1h5.29l-7.75-7.75h0Z"/>
  <path class="cls-6" d="M264.02,146.31l6.55,6.55h-4.58v13.1h4.58l-6.55,6.55-6.55-6.55h4.58v-13.1h-4.58l6.55-6.55M264.02,145.6l-7.76,7.75h5.29v12.1h-5.29l7.76,7.75,7.75-7.75h-5.29v-12.1h5.29l-7.75-7.75h0Z"/>
  <g>
    <g>
      <line class="cls-5" x1="232.68" y1="115.83" x2="242.55" y2="115.83"/>
      <polygon class="cls-2" points="233.04 117.08 230.88 115.83 233.04 114.59 233.04 117.08"/>
      <polygon class="cls-2" points="242.19 117.08 244.35 115.83 242.19 114.59 242.19 117.08"/>
    </g>
    <line class="cls-2" x1="230.88" y1="115.83" x2="244.35" y2="115.83"/>
  </g>
  <g>
    <rect class="cls-4" x="53.07" y="26.26" width="82.35" height="12.37"/>
    <path class="cls-2" d="M56.49,33.8c-.37,0-.71-.06-1.02-.17-.32-.11-.59-.28-.83-.5s-.42-.5-.55-.82c-.13-.33-.2-.7-.2-1.13v-4.76h.99v4.73c0,.55.14.98.42,1.27s.68.45,1.19.45.9-.15,1.18-.45c.28-.3.42-.72.42-1.27v-4.73h1v4.76c0,.43-.07.81-.2,1.13s-.32.6-.55.82c-.23.22-.51.39-.83.5s-.66.17-1.02.17Z"/>
    <path class="cls-2" d="M60.72,35.58v-6.84h.93v.76c.14-.24.34-.45.62-.62.28-.17.62-.25,1.02-.25.37,0,.69.07.97.2.28.13.52.31.7.55.19.23.33.5.43.82s.15.65.15,1-.05.71-.15,1.02c-.1.31-.25.59-.45.82-.2.23-.44.42-.72.55-.28.13-.6.2-.96.2-.38,0-.71-.08-.98-.23s-.48-.34-.61-.56v2.6h-.95ZM64.56,31.19c0-.25-.03-.47-.1-.68-.07-.21-.16-.39-.29-.54-.12-.15-.27-.27-.45-.36-.18-.09-.38-.13-.61-.13s-.42.04-.6.13c-.18.09-.33.21-.46.36-.13.15-.23.33-.3.54-.07.21-.1.43-.1.68s.03.48.1.7c.07.21.17.4.3.55.13.15.28.27.46.36.18.08.38.13.6.13s.42-.04.6-.13.33-.2.45-.36c.12-.15.22-.34.29-.55.07-.21.1-.45.1-.7Z"/>
    <path class="cls-2" d="M66.76,35.58v-6.84h.93v.76c.14-.24.34-.45.62-.62.28-.17.62-.25,1.02-.25.37,0,.69.07.97.2.28.13.52.31.7.55.19.23.33.5.43.82s.15.65.15,1-.05.71-.15,1.02c-.1.31-.25.59-.45.82-.2.23-.44.42-.72.55-.28.13-.6.2-.96.2-.38,0-.71-.08-.98-.23s-.48-.34-.61-.56v2.6h-.95ZM70.6,31.19c0-.25-.03-.47-.1-.68-.07-.21-.16-.39-.29-.54-.12-.15-.27-.27-.45-.36-.18-.09-.38-.13-.61-.13s-.42.04-.6.13c-.18.09-.33.21-.46.36-.13.15-.23.33-.3.54-.07.21-.1.43-.1.68s.03.48.1.7c.07.21.17.4.3.55.13.15.28.27.46.36.18.08.38.13.6.13s.42-.04.6-.13.33-.2.45-.36c.12-.15.22-.34.29-.55.07-.21.1-.45.1-.7Z"/>
    <path class="cls-2" d="M77.08,32.25c-.07.22-.17.42-.3.61-.13.19-.29.35-.48.49-.19.14-.4.25-.64.33-.24.08-.5.12-.79.12-.33,0-.64-.06-.94-.17-.3-.12-.56-.29-.79-.51s-.41-.5-.54-.83c-.13-.33-.2-.7-.2-1.11,0-.39.06-.74.19-1.05s.3-.59.51-.82c.21-.23.46-.4.75-.53.29-.12.58-.19.89-.19.37,0,.71.06,1,.19.3.13.54.3.74.53s.35.49.45.81c.11.32.16.66.16,1.04,0,.06,0,.12,0,.17,0,.05,0,.1-.02.13h-3.69c0,.22.05.42.12.6.07.18.18.34.31.47s.29.23.47.31c.18.07.37.11.58.11.4,0,.71-.09.92-.29.21-.19.36-.42.46-.7l.83.29ZM76.11,30.69c-.01-.35-.13-.65-.36-.89-.22-.24-.55-.36-.99-.36-.2,0-.39.04-.54.11-.16.07-.3.17-.41.29-.11.12-.2.25-.27.4-.07.15-.11.3-.11.46h2.68Z"/>
    <path class="cls-2" d="M81.05,29.71c-.14-.02-.28-.03-.42-.03-.4,0-.73.12-.97.35s-.37.62-.37,1.16v2.46h-.96v-4.9h.94v.86c.09-.19.19-.34.31-.46.12-.12.24-.21.37-.29s.26-.12.4-.15.26-.04.39-.04c.07,0,.13,0,.19,0,.06,0,.1.01.13.02v1.02Z"/>
    <path class="cls-2" d="M84.72,33.64v-7.23h1v6.29h3.42v.94h-4.41Z"/>
    <path class="cls-2" d="M89.9,32.33c0-.22.04-.41.11-.59.07-.17.18-.32.31-.44.13-.12.29-.22.47-.3.18-.08.38-.13.59-.16l1.33-.19c.15-.02.25-.06.3-.13s.08-.15.08-.23c0-.24-.08-.44-.25-.62-.17-.17-.44-.26-.81-.26-.34,0-.6.09-.79.28s-.29.42-.33.71l-.92-.21c.03-.23.1-.45.21-.64s.26-.37.43-.5.38-.25.62-.33c.24-.08.48-.12.75-.12.37,0,.68.05.94.15.26.1.47.23.63.39.16.16.28.35.36.57.07.22.11.44.11.68v2.46c0,.22,0,.39.02.52s.03.22.04.29h-.94c-.01-.06-.03-.14-.04-.24,0-.1-.02-.24-.02-.42-.05.09-.12.18-.21.28-.09.1-.2.18-.33.26s-.28.15-.45.2c-.17.05-.37.08-.59.08-.25,0-.48-.04-.68-.12-.2-.08-.37-.19-.51-.32s-.25-.29-.33-.46-.12-.36-.12-.56ZM91.68,32.99c.2,0,.38-.03.56-.08.17-.05.32-.13.45-.24.13-.11.23-.26.3-.45.08-.19.11-.41.11-.68v-.22l-1.5.22c-.2.03-.37.11-.51.23-.14.12-.2.29-.2.5,0,.18.07.35.21.49s.34.22.58.22Z"/>
    <path class="cls-2" d="M95.71,35.69l1.22-2.59-2.11-4.36h1.1l1.53,3.38,1.47-3.38h1.03l-3.19,6.95h-1.05Z"/>
    <path class="cls-2" d="M104.94,32.25c-.07.22-.17.42-.3.61-.13.19-.29.35-.48.49-.19.14-.4.25-.64.33-.24.08-.5.12-.79.12-.33,0-.64-.06-.94-.17-.3-.12-.56-.29-.79-.51s-.41-.5-.54-.83c-.13-.33-.2-.7-.2-1.11,0-.39.06-.74.19-1.05s.3-.59.51-.82c.21-.23.46-.4.75-.53.29-.12.58-.19.89-.19.37,0,.71.06,1,.19.3.13.54.3.74.53s.35.49.45.81c.11.32.16.66.16,1.04,0,.06,0,.12,0,.17,0,.05,0,.1-.02.13h-3.69c0,.22.05.42.12.6.07.18.18.34.31.47s.29.23.47.31c.18.07.37.11.58.11.4,0,.71-.09.92-.29.21-.19.36-.42.46-.7l.83.29ZM103.97,30.69c-.01-.35-.13-.65-.36-.89-.22-.24-.55-.36-.99-.36-.2,0-.39.04-.54.11-.16.07-.3.17-.41.29-.11.12-.2.25-.27.4-.07.15-.11.3-.11.46h2.68Z"/>
    <path class="cls-2" d="M108.91,29.71c-.14-.02-.28-.03-.42-.03-.4,0-.73.12-.97.35s-.37.62-.37,1.16v2.46h-.96v-4.9h.94v.86c.09-.19.19-.34.31-.46.12-.12.24-.21.37-.29s.26-.12.4-.15.26-.04.39-.04c.07,0,.13,0,.19,0,.06,0,.1.01.13.02v1.02Z"/>
  </g>
  <g>
    <rect class="cls-4" x="53.07" y="102.72" width="82.35" height="12.37"/>
    <path class="cls-2" d="M53.99,110.1v-7.23h1v6.29h3.42v.94h-4.41Z"/>
    <path class="cls-2" d="M59.1,105.75s-.01-.09-.01-.14v-.13c0-.29.05-.56.15-.82s.25-.49.44-.68.43-.35.72-.47.61-.17.97-.17.67.05.95.16c.28.11.51.25.7.44.19.18.33.4.43.65s.15.51.15.78c0,.44-.11.82-.34,1.17-.22.34-.53.63-.91.87l-1.3.84c-.19.12-.36.26-.51.4s-.25.32-.3.53h3.39v.93h-4.63c0-.27.04-.53.1-.77.06-.24.15-.46.27-.68.13-.22.29-.42.48-.62s.43-.38.71-.57l1.1-.71c.31-.2.54-.41.69-.64.15-.23.22-.48.22-.73,0-.15-.03-.29-.08-.43s-.13-.26-.23-.37c-.1-.11-.23-.2-.39-.26s-.34-.1-.55-.1-.41.04-.57.11c-.16.07-.29.17-.4.29-.11.12-.18.26-.23.43s-.08.34-.08.53c0,.05,0,.09,0,.14,0,.05,0,.1.02.15l-1-.12Z"/>
    <path class="cls-2" d="M68.1,110.25c-.47,0-.92-.08-1.35-.25-.43-.17-.81-.41-1.14-.73-.33-.32-.59-.71-.79-1.18-.2-.47-.3-1-.3-1.61s.1-1.14.31-1.61c.2-.47.47-.86.81-1.18.34-.32.72-.56,1.15-.73s.87-.25,1.32-.25c.41,0,.79.05,1.14.16s.66.26.93.46c.27.2.5.44.69.72.19.29.33.6.42.95l-.93.33c-.14-.55-.4-.97-.78-1.26-.38-.29-.88-.44-1.47-.44-.33,0-.64.06-.95.18s-.58.3-.83.54c-.24.24-.43.54-.58.89-.14.36-.21.77-.21,1.24s.07.88.21,1.24c.14.36.33.66.58.9.24.24.52.42.83.54s.63.18.95.18c.31,0,.58-.04.84-.13s.47-.21.67-.36c.19-.15.36-.34.49-.55.13-.21.24-.44.31-.69l.89.33c-.09.34-.24.65-.43.94s-.42.53-.69.73-.58.36-.93.48c-.35.12-.73.17-1.15.17Z"/>
    <path class="cls-2" d="M76.63,108.08h-3.2l-.76,2.02h-1.07l2.88-7.23h1.15l2.87,7.23h-1.08l-.79-2.02ZM73.79,107.15h2.49l-1.25-3.24-1.23,3.24Z"/>
    <path class="cls-2" d="M80.51,107.14v2.96h-1v-7.23h2.63c.33,0,.64.05.91.16.28.11.51.26.7.45s.34.42.45.68c.11.26.16.54.16.85s-.05.59-.16.85c-.11.26-.26.49-.45.67s-.43.33-.7.44c-.28.11-.58.16-.91.16h-1.63ZM81.96,106.25c.43,0,.78-.11,1.02-.33s.37-.52.37-.89-.12-.69-.37-.92-.59-.34-1.02-.34h-1.45v2.48h1.45Z"/>
  </g>
  <g>
    <rect class="cls-4" x="53.07" y="179.17" width="82.35" height="12.37"/>
    <path class="cls-2" d="M53.99,186.55v-7.23h1v6.29h3.42v.94h-4.41Z"/>
    <path class="cls-2" d="M61.57,181.5c.37,0,.7.07,1.01.2.31.13.57.31.79.55s.4.5.52.82c.12.32.18.66.18,1.03s-.06.72-.18,1.04c-.12.32-.29.59-.52.83s-.49.41-.79.55c-.31.13-.64.2-1.01.2s-.7-.07-1.01-.2c-.31-.13-.57-.31-.79-.55-.22-.23-.4-.51-.52-.83-.12-.32-.18-.67-.18-1.04s.06-.72.18-1.03c.12-.32.3-.59.52-.82.22-.23.49-.41.79-.55.31-.13.64-.2,1.01-.2ZM61.57,185.85c.2,0,.4-.04.58-.11.18-.08.35-.19.49-.34.14-.15.25-.33.34-.55.08-.22.12-.47.12-.75s-.04-.54-.12-.75c-.08-.21-.19-.4-.34-.55-.14-.15-.31-.26-.49-.34-.18-.07-.38-.11-.58-.11s-.4.04-.58.11c-.18.08-.35.19-.49.34-.14.15-.25.33-.34.55-.08.21-.12.46-.12.75s.04.54.12.75c.08.22.19.4.34.55.14.15.31.26.49.34.18.07.38.11.58.11Z"/>
    <path class="cls-2" d="M69.05,181.65l1.27,3.69,1.08-3.69h1.01l-1.59,4.9h-.99l-1.3-3.73-1.27,3.73h-1.01l-1.61-4.9h1.05l1.1,3.69,1.27-3.69h.99Z"/>
    <path class="cls-2" d="M77.66,185.16c-.07.22-.17.42-.3.61-.13.19-.29.35-.48.49-.19.14-.4.25-.64.33-.24.08-.5.12-.79.12-.33,0-.64-.06-.94-.17-.3-.12-.56-.29-.79-.51s-.41-.5-.54-.83c-.13-.33-.2-.7-.2-1.11,0-.39.06-.74.19-1.05s.3-.59.51-.82c.21-.23.46-.4.75-.53.29-.12.58-.19.89-.19.37,0,.71.06,1,.19.3.13.54.3.74.53s.35.49.45.81c.11.32.16.66.16,1.04,0,.06,0,.12,0,.17,0,.05,0,.1-.02.13h-3.69c0,.22.05.42.12.6.07.18.18.34.31.47s.29.23.47.31c.18.07.37.11.58.11.4,0,.71-.09.92-.29.21-.19.36-.42.46-.7l.83.29ZM76.69,183.6c-.01-.35-.13-.65-.36-.89-.22-.24-.55-.36-.99-.36-.2,0-.39.04-.54.11-.16.07-.3.17-.41.29-.11.12-.2.25-.27.4-.07.15-.11.3-.11.46h2.68Z"/>
    <path class="cls-2" d="M81.63,182.62c-.14-.02-.28-.03-.42-.03-.4,0-.73.12-.97.35s-.37.62-.37,1.16v2.46h-.96v-4.9h.94v.86c.09-.19.19-.34.31-.46.12-.12.24-.21.37-.29s.26-.12.4-.15.26-.04.39-.04c.07,0,.13,0,.19,0,.06,0,.1.01.13.02v1.02Z"/>
    <path class="cls-2" d="M85.3,186.55v-7.23h1v6.29h3.42v.94h-4.41Z"/>
    <path class="cls-2" d="M90.48,185.24c0-.22.04-.41.11-.59.07-.17.18-.32.31-.44.13-.12.29-.22.47-.3.18-.08.38-.13.59-.16l1.33-.19c.15-.02.25-.06.3-.13s.08-.15.08-.23c0-.24-.08-.44-.25-.62-.17-.17-.44-.26-.81-.26-.34,0-.6.09-.79.28s-.29.42-.33.71l-.92-.21c.03-.23.1-.45.21-.64s.26-.37.43-.5.38-.25.62-.33c.24-.08.48-.12.75-.12.37,0,.68.05.94.15.26.1.47.23.63.39.16.16.28.35.36.57.07.22.11.44.11.68v2.46c0,.22,0,.39.02.52s.03.22.04.29h-.94c-.01-.06-.03-.14-.04-.24,0-.1-.02-.24-.02-.42-.05.09-.12.18-.21.28-.09.1-.2.18-.33.26s-.28.15-.45.2c-.17.05-.37.08-.59.08-.25,0-.48-.04-.68-.12-.2-.08-.37-.19-.51-.32s-.25-.29-.33-.46-.12-.36-.12-.56ZM92.26,185.9c.2,0,.38-.03.56-.08.17-.05.32-.13.45-.24.13-.11.23-.26.3-.45.08-.19.11-.41.11-.68v-.22l-1.5.22c-.2.03-.37.11-.51.23-.14.12-.2.29-.2.5,0,.18.07.35.21.49s.34.22.58.22Z"/>
    <path class="cls-2" d="M96.29,188.6l1.22-2.59-2.11-4.36h1.1l1.53,3.38,1.47-3.38h1.03l-3.19,6.95h-1.05Z"/>
    <path class="cls-2" d="M105.52,185.16c-.07.22-.17.42-.3.61-.13.19-.29.35-.48.49-.19.14-.4.25-.64.33-.24.08-.5.12-.79.12-.33,0-.64-.06-.94-.17-.3-.12-.56-.29-.79-.51s-.41-.5-.54-.83c-.13-.33-.2-.7-.2-1.11,0-.39.06-.74.19-1.05s.3-.59.51-.82c.21-.23.46-.4.75-.53.29-.12.58-.19.89-.19.37,0,.71.06,1,.19.3.13.54.3.74.53s.35.49.45.81c.11.32.16.66.16,1.04,0,.06,0,.12,0,.17,0,.05,0,.1-.02.13h-3.69c0,.22.05.42.12.6.07.18.18.34.31.47s.29.23.47.31c.18.07.37.11.58.11.4,0,.71-.09.92-.29.21-.19.36-.42.46-.7l.83.29ZM104.55,183.6c-.01-.35-.13-.65-.36-.89-.22-.24-.55-.36-.99-.36-.2,0-.39.04-.54.11-.16.07-.3.17-.41.29-.11.12-.2.25-.27.4-.07.15-.11.3-.11.46h2.68Z"/>
    <path class="cls-2" d="M109.49,182.62c-.14-.02-.28-.03-.42-.03-.4,0-.73.12-.97.35s-.37.62-.37,1.16v2.46h-.96v-4.9h.94v.86c.09-.19.19-.34.31-.46.12-.12.24-.21.37-.29s.26-.12.4-.15.26-.04.39-.04c.07,0,.13,0,.19,0,.06,0,.1.01.13.02v1.02Z"/>
  </g>
  <g>
    <rect class="cls-4" x="94.36" y="79.16" width="136.02" height="8.4"/>
    <path class="cls-2" d="M113.07,80.74c-.01-.1-.05-.2-.1-.31-.05-.11-.12-.21-.21-.3s-.21-.17-.34-.23-.3-.09-.49-.09c-.15,0-.29.02-.42.07-.13.05-.24.11-.33.19-.09.08-.17.18-.22.29-.05.11-.08.23-.08.36,0,.19.06.36.18.5s.29.24.52.29l.81.18c.45.1.8.29,1.04.55.24.27.36.59.36.97,0,.21-.04.41-.13.6s-.21.36-.37.51c-.16.15-.36.27-.59.36-.23.09-.49.13-.78.13-.33,0-.61-.05-.85-.14-.24-.1-.45-.22-.61-.38-.17-.15-.29-.32-.39-.52s-.15-.38-.18-.58l.72-.23c.02.15.05.3.11.44s.14.26.25.37c.11.11.24.19.4.26.16.06.34.1.54.1.37,0,.65-.08.84-.25.19-.17.28-.37.28-.61,0-.19-.07-.37-.2-.52-.13-.15-.34-.26-.61-.32l-.77-.17c-.39-.09-.71-.25-.95-.5s-.37-.58-.37-.98c0-.21.05-.42.14-.61.09-.19.22-.36.38-.51.16-.15.35-.27.57-.36s.45-.13.7-.13c.31,0,.57.04.78.13s.4.19.54.33c.14.13.26.28.34.44.08.16.14.31.17.46l-.67.24Z"/>
    <path class="cls-2" d="M117.95,83.65c-.05.16-.13.32-.23.46-.1.14-.22.26-.36.37-.14.1-.3.19-.48.25-.18.06-.37.09-.59.09-.25,0-.48-.04-.7-.13-.22-.09-.42-.21-.59-.38-.17-.17-.31-.38-.41-.62-.1-.25-.15-.52-.15-.83,0-.29.05-.55.15-.79.1-.24.23-.44.39-.61.16-.17.35-.3.56-.4.21-.09.44-.14.67-.14.28,0,.53.05.75.14.22.1.41.23.55.39.15.17.26.37.34.61.08.24.12.5.12.78,0,.05,0,.09,0,.13s0,.07-.01.1h-2.77c0,.16.04.31.09.45.06.14.13.26.23.36s.22.18.35.23c.13.05.28.08.43.08.3,0,.53-.07.69-.21s.27-.32.34-.53l.62.21ZM117.22,82.48c-.01-.26-.1-.49-.27-.67-.17-.18-.42-.27-.74-.27-.15,0-.29.03-.41.08-.12.05-.22.12-.31.21-.08.09-.15.19-.2.3-.05.11-.08.23-.08.34h2.01Z"/>
    <path class="cls-2" d="M119.32,84.73c.03.26.13.48.31.65.18.17.41.26.69.26.39,0,.67-.1.85-.3.18-.2.27-.5.27-.89v-.53c-.09.17-.23.31-.42.43-.19.12-.43.18-.7.18-.24,0-.47-.04-.68-.13-.21-.09-.38-.21-.54-.37-.15-.16-.27-.34-.35-.56-.08-.22-.13-.46-.13-.72s.04-.48.12-.7c.08-.22.2-.4.34-.57.15-.16.32-.29.53-.38.21-.09.44-.14.69-.14.29,0,.52.05.71.15.19.1.33.24.42.43v-.51h.71v3.4c0,.24-.03.46-.09.68s-.16.42-.31.59c-.15.17-.33.31-.57.41-.23.1-.53.16-.87.16-.23,0-.44-.04-.64-.1-.2-.07-.37-.16-.52-.29-.15-.12-.27-.27-.37-.43-.09-.17-.15-.35-.17-.55l.7-.16ZM120.42,83.91c.31,0,.56-.11.76-.32.19-.21.29-.5.29-.86s-.1-.64-.29-.86-.45-.32-.76-.32-.58.11-.77.32-.29.5-.29.86.1.65.29.86c.19.21.45.32.78.32Z"/>
    <path class="cls-2" d="M123.31,84.69v-3.68h.69v.49c.12-.2.28-.35.49-.45.21-.1.42-.14.63-.14.23,0,.44.06.65.17.2.11.35.29.46.53.15-.26.33-.45.55-.55.22-.1.45-.15.68-.15.16,0,.31.03.47.08.15.06.29.14.41.26s.22.26.29.44.11.38.11.62v2.39h-.71v-2.31c0-.24-.06-.44-.19-.6s-.32-.24-.59-.24c-.25,0-.46.09-.62.26-.16.18-.23.4-.23.66v2.22h-.72v-2.31c0-.24-.06-.44-.18-.6s-.32-.24-.6-.24c-.26,0-.47.09-.62.26-.16.17-.23.4-.23.67v2.22h-.71Z"/>
    <path class="cls-2" d="M133.06,83.65c-.05.16-.13.32-.23.46-.1.14-.22.26-.36.37-.14.1-.3.19-.48.25-.18.06-.37.09-.59.09-.25,0-.48-.04-.7-.13-.22-.09-.42-.21-.59-.38-.17-.17-.31-.38-.41-.62-.1-.25-.15-.52-.15-.83,0-.29.05-.55.15-.79.1-.24.23-.44.39-.61.16-.17.35-.3.56-.4.21-.09.44-.14.67-.14.28,0,.53.05.75.14.22.1.41.23.55.39.15.17.26.37.34.61.08.24.12.5.12.78,0,.05,0,.09,0,.13s0,.07-.01.1h-2.77c0,.16.04.31.09.45.06.14.13.26.23.36s.22.18.35.23c.13.05.28.08.43.08.3,0,.53-.07.69-.21s.27-.32.34-.53l.62.21ZM132.33,82.48c-.01-.26-.1-.49-.27-.67-.17-.18-.42-.27-.74-.27-.15,0-.29.03-.41.08-.12.05-.22.12-.31.21-.08.09-.15.19-.2.3-.05.11-.08.23-.08.34h2.01Z"/>
    <path class="cls-2" d="M134.72,84.69h-.72v-3.68h.7v.53c.13-.23.3-.39.5-.49.2-.1.41-.14.63-.14s.41.04.58.11c.17.07.3.18.41.31.11.13.19.29.25.46.05.18.08.37.08.57v2.33h-.72v-2.21c0-.13-.01-.25-.04-.36-.03-.11-.08-.21-.15-.29-.07-.08-.16-.15-.27-.2-.11-.05-.24-.07-.4-.07-.14,0-.27.03-.38.08-.11.05-.2.12-.27.22s-.12.2-.16.32c-.04.12-.05.25-.05.39v2.13Z"/>
    <path class="cls-2" d="M139.26,81.02h.79v.65h-.79v1.91c0,.17.04.29.11.38s.21.12.4.12c.05,0,.1,0,.15,0,.06,0,.1-.01.13-.02v.61s-.09.02-.18.04c-.09.02-.19.03-.31.03-.32,0-.57-.09-.75-.27-.18-.18-.28-.44-.28-.78v-2.02h-.7v-.65h.2c.2,0,.34-.05.43-.16.09-.11.13-.24.13-.41v-.6h.66v1.16Z"/>
    <path class="cls-2" d="M140.78,83.71c0-.16.03-.31.08-.44.06-.13.13-.24.23-.33.1-.09.22-.17.36-.22.14-.06.29-.1.44-.12l.99-.14c.11-.02.19-.05.23-.1s.06-.11.06-.18c0-.18-.06-.33-.19-.46-.12-.13-.33-.2-.61-.2-.25,0-.45.07-.59.21-.14.14-.22.32-.25.53l-.69-.16c.02-.17.07-.33.16-.48s.19-.27.33-.38c.13-.1.29-.19.46-.24s.36-.09.56-.09c.28,0,.51.04.7.11.19.07.35.17.47.29.12.12.21.26.27.43.06.16.08.33.08.51v1.84c0,.16,0,.29.01.39.01.1.02.17.03.21h-.7s-.02-.11-.03-.18c0-.08-.01-.18-.01-.31-.04.07-.09.13-.16.21-.07.07-.15.14-.25.2-.1.06-.21.11-.34.15-.13.04-.28.06-.44.06-.19,0-.36-.03-.51-.09-.15-.06-.28-.14-.39-.24s-.19-.21-.25-.35-.09-.27-.09-.42ZM142.11,84.2c.15,0,.29-.02.42-.06s.24-.1.34-.18c.09-.08.17-.2.23-.34.06-.14.08-.31.08-.51v-.17l-1.12.17c-.15.03-.28.08-.38.17-.1.09-.15.22-.15.38,0,.14.05.26.16.37.11.11.25.16.44.16Z"/>
    <path class="cls-2" d="M145.97,81.02h.79v.65h-.79v1.91c0,.17.04.29.11.38s.21.12.4.12c.05,0,.1,0,.15,0,.06,0,.1-.01.13-.02v.61s-.09.02-.18.04c-.09.02-.19.03-.31.03-.32,0-.57-.09-.75-.27-.18-.18-.28-.44-.28-.78v-2.02h-.7v-.65h.2c.2,0,.34-.05.43-.16.09-.11.13-.24.13-.41v-.6h.66v1.16Z"/>
    <path class="cls-2" d="M147.56,79.62c0-.15.05-.27.15-.37.1-.1.22-.15.36-.15s.27.05.37.15c.1.1.15.22.15.37s-.05.26-.15.36-.22.15-.37.15-.26-.05-.36-.15c-.1-.1-.15-.22-.15-.36ZM147.72,84.69v-3.68h.71v3.68h-.71Z"/>
    <path class="cls-2" d="M151.23,80.9c.28,0,.53.05.76.15.23.1.43.24.6.41.17.17.3.38.39.62.09.24.14.5.14.78s-.05.54-.14.78-.22.45-.39.62-.37.31-.6.41-.48.15-.76.15-.53-.05-.76-.15-.43-.24-.6-.41c-.17-.17-.3-.38-.39-.62s-.14-.5-.14-.78.05-.54.14-.78c.09-.24.22-.44.39-.62.17-.17.37-.31.6-.41.23-.1.48-.15.76-.15ZM151.23,84.17c.15,0,.3-.03.44-.08.14-.05.26-.14.37-.25.11-.11.19-.25.25-.41.06-.16.09-.35.09-.57s-.03-.4-.09-.56c-.06-.16-.14-.3-.25-.41s-.23-.2-.37-.25c-.14-.06-.28-.08-.44-.08s-.3.03-.44.08c-.14.06-.26.14-.37.25s-.19.25-.25.41c-.06.16-.09.35-.09.56s.03.4.09.57c.06.16.14.3.25.41.11.11.23.2.37.25.14.06.28.08.44.08Z"/>
    <path class="cls-2" d="M154.75,84.69h-.72v-3.68h.7v.53c.13-.23.3-.39.5-.49.2-.1.41-.14.63-.14s.41.04.58.11c.17.07.3.18.41.31.11.13.19.29.25.46.05.18.08.37.08.57v2.33h-.72v-2.21c0-.13-.01-.25-.04-.36-.03-.11-.08-.21-.15-.29-.07-.08-.16-.15-.27-.2-.11-.05-.24-.07-.4-.07-.14,0-.27.03-.38.08-.11.05-.2.12-.27.22s-.12.2-.16.32c-.04.12-.05.25-.05.39v2.13Z"/>
    <path class="cls-2" d="M160.01,83.71c0-.16.03-.31.08-.44.06-.13.13-.24.23-.33.1-.09.22-.17.36-.22.14-.06.29-.1.44-.12l.99-.14c.11-.02.19-.05.23-.1s.06-.11.06-.18c0-.18-.06-.33-.19-.46-.12-.13-.33-.2-.61-.2-.25,0-.45.07-.59.21-.14.14-.22.32-.25.53l-.69-.16c.02-.17.07-.33.16-.48s.19-.27.33-.38c.13-.1.29-.19.46-.24s.36-.09.56-.09c.28,0,.51.04.7.11.19.07.35.17.47.29.12.12.21.26.27.43.06.16.08.33.08.51v1.84c0,.16,0,.29.01.39.01.1.02.17.03.21h-.7s-.02-.11-.03-.18c0-.08-.01-.18-.01-.31-.04.07-.09.13-.16.21-.07.07-.15.14-.25.2-.1.06-.21.11-.34.15-.13.04-.28.06-.44.06-.19,0-.36-.03-.51-.09-.15-.06-.28-.14-.39-.24s-.19-.21-.25-.35-.09-.27-.09-.42ZM161.34,84.2c.15,0,.29-.02.42-.06s.24-.1.34-.18c.09-.08.17-.2.23-.34.06-.14.08-.31.08-.51v-.17l-1.12.17c-.15.03-.28.08-.38.17-.1.09-.15.22-.15.38,0,.14.05.26.16.37.11.11.25.16.44.16Z"/>
    <path class="cls-2" d="M164.96,84.69h-.72v-3.68h.7v.53c.13-.23.3-.39.5-.49.2-.1.41-.14.63-.14s.41.04.58.11c.17.07.3.18.41.31.11.13.19.29.25.46.05.18.08.37.08.57v2.33h-.72v-2.21c0-.13-.01-.25-.04-.36-.03-.11-.08-.21-.15-.29-.07-.08-.16-.15-.27-.2-.11-.05-.24-.07-.4-.07-.14,0-.27.03-.38.08-.11.05-.2.12-.27.22s-.12.2-.16.32c-.04.12-.05.25-.05.39v2.13Z"/>
    <path class="cls-2" d="M171.11,84.14c-.09.18-.23.33-.42.46s-.43.2-.72.2c-.27,0-.51-.05-.73-.15-.21-.1-.4-.24-.55-.41s-.27-.38-.35-.62c-.08-.24-.12-.49-.12-.77,0-.26.04-.51.13-.74s.2-.44.36-.61c.15-.18.34-.32.55-.42s.45-.16.71-.16c.16,0,.31.02.43.05.12.04.23.08.33.14s.17.12.23.2c.06.07.11.15.14.23v-2.38h.71v4.85c0,.18,0,.33.02.45,0,.12.02.2.02.23h-.7s-.02-.11-.03-.19c0-.09-.01-.19-.01-.3v-.06ZM168.96,82.84c0,.19.02.36.07.52.05.16.12.3.21.42s.2.21.34.27c.13.07.29.1.46.1.16,0,.31-.03.44-.1.13-.07.24-.16.34-.28s.16-.26.21-.42c.05-.16.07-.34.07-.53,0-.38-.09-.69-.28-.92s-.44-.35-.78-.35c-.16,0-.31.03-.45.09-.13.06-.25.15-.34.27-.09.11-.17.25-.22.41s-.08.33-.08.52Z"/>
    <path class="cls-2" d="M176.58,82.48h-.81v2.22h-.76v-5.42h2.04c.25,0,.49.04.69.13.21.08.38.2.52.34.14.14.25.32.33.51.08.2.12.41.12.63,0,.39-.12.73-.35,1.01-.23.28-.55.46-.97.53l1.29,2.27h-.87l-1.24-2.22ZM176.92,81.8c.31,0,.55-.08.74-.25.19-.17.28-.39.28-.67s-.09-.52-.28-.69-.44-.25-.74-.25h-1.15v1.86h1.15Z"/>
    <path class="cls-2" d="M182.72,83.65c-.05.16-.13.32-.23.46-.1.14-.22.26-.36.37-.14.1-.3.19-.48.25-.18.06-.37.09-.59.09-.25,0-.48-.04-.7-.13-.22-.09-.42-.21-.59-.38-.17-.17-.31-.38-.41-.62-.1-.25-.15-.52-.15-.83,0-.29.05-.55.15-.79.1-.24.23-.44.39-.61.16-.17.35-.3.56-.4.21-.09.44-.14.67-.14.28,0,.53.05.75.14.22.1.41.23.55.39.15.17.26.37.34.61.08.24.12.5.12.78,0,.05,0,.09,0,.13s0,.07-.01.1h-2.77c0,.16.04.31.09.45.06.14.13.26.23.36s.22.18.35.23c.13.05.28.08.43.08.3,0,.53-.07.69-.21s.27-.32.34-.53l.62.21ZM182,82.48c-.01-.26-.1-.49-.27-.67-.17-.18-.42-.27-.74-.27-.15,0-.29.03-.41.08-.12.05-.22.12-.31.21-.08.09-.15.19-.2.3-.05.11-.08.23-.08.34h2.01Z"/>
    <path class="cls-2" d="M183.43,83.71c0-.16.03-.31.08-.44.06-.13.13-.24.23-.33.1-.09.22-.17.36-.22.14-.06.29-.1.44-.12l.99-.14c.11-.02.19-.05.23-.1s.06-.11.06-.18c0-.18-.06-.33-.19-.46-.12-.13-.33-.2-.61-.2-.25,0-.45.07-.59.21-.14.14-.22.32-.25.53l-.69-.16c.02-.17.07-.33.16-.48s.19-.27.33-.38c.13-.1.29-.19.46-.24s.36-.09.56-.09c.28,0,.51.04.7.11.19.07.35.17.47.29.12.12.21.26.27.43.06.16.08.33.08.51v1.84c0,.16,0,.29.01.39.01.1.02.17.03.21h-.7s-.02-.11-.03-.18c0-.08-.01-.18-.01-.31-.04.07-.09.13-.16.21-.07.07-.15.14-.25.2-.1.06-.21.11-.34.15-.13.04-.28.06-.44.06-.19,0-.36-.03-.51-.09-.15-.06-.28-.14-.39-.24s-.19-.21-.25-.35-.09-.27-.09-.42ZM184.77,84.2c.15,0,.29-.02.42-.06s.24-.1.34-.18c.09-.08.17-.2.23-.34.06-.14.08-.31.08-.51v-.17l-1.12.17c-.15.03-.28.08-.38.17-.1.09-.15.22-.15.38,0,.14.05.26.16.37.11.11.25.16.44.16Z"/>
    <path class="cls-2" d="M187.97,83.51c.03.19.11.36.25.49.14.13.34.2.6.2.2,0,.36-.05.47-.14.11-.1.16-.21.16-.34,0-.12-.04-.22-.12-.3-.08-.08-.2-.14-.35-.18l-.63-.14c-.29-.06-.52-.18-.68-.37s-.24-.41-.24-.67c0-.16.04-.31.1-.45.07-.14.16-.26.28-.37s.26-.19.42-.25c.16-.06.33-.09.51-.09.25,0,.46.04.63.11.17.07.31.16.42.26.11.1.19.21.24.32.05.11.09.21.11.29l-.63.24s-.03-.1-.05-.18c-.03-.07-.07-.14-.12-.2s-.13-.12-.23-.17c-.1-.04-.22-.07-.36-.07-.18,0-.33.05-.44.15-.11.1-.17.21-.17.34,0,.24.14.38.42.44l.6.13c.34.07.59.2.76.39s.26.42.26.7c0,.13-.03.27-.08.4-.06.13-.14.25-.25.37-.11.11-.25.2-.42.27-.17.07-.37.1-.6.1-.25,0-.47-.04-.65-.11s-.33-.16-.45-.27c-.12-.11-.21-.22-.28-.35-.06-.12-.1-.24-.12-.35l.65-.23Z"/>
    <path class="cls-2" d="M191.42,83.51c.03.19.11.36.25.49.14.13.34.2.6.2.2,0,.36-.05.47-.14.11-.1.16-.21.16-.34,0-.12-.04-.22-.12-.3-.08-.08-.2-.14-.35-.18l-.63-.14c-.29-.06-.52-.18-.68-.37s-.24-.41-.24-.67c0-.16.04-.31.1-.45.07-.14.16-.26.28-.37s.26-.19.42-.25c.16-.06.33-.09.51-.09.25,0,.46.04.63.11.17.07.31.16.42.26.11.1.19.21.24.32.05.11.09.21.11.29l-.63.24s-.03-.1-.05-.18c-.03-.07-.07-.14-.12-.2s-.13-.12-.23-.17c-.1-.04-.22-.07-.36-.07-.18,0-.33.05-.44.15-.11.1-.17.21-.17.34,0,.24.14.38.42.44l.6.13c.34.07.59.2.76.39s.26.42.26.7c0,.13-.03.27-.08.4-.06.13-.14.25-.25.37-.11.11-.25.2-.42.27-.17.07-.37.1-.6.1-.25,0-.47-.04-.65-.11s-.33-.16-.45-.27c-.12-.11-.21-.22-.28-.35-.06-.12-.1-.24-.12-.35l.65-.23Z"/>
    <path class="cls-2" d="M197.78,83.65c-.05.16-.13.32-.23.46-.1.14-.22.26-.36.37-.14.1-.3.19-.48.25-.18.06-.37.09-.59.09-.25,0-.48-.04-.7-.13-.22-.09-.42-.21-.59-.38-.17-.17-.31-.38-.41-.62-.1-.25-.15-.52-.15-.83,0-.29.05-.55.15-.79.1-.24.23-.44.39-.61.16-.17.35-.3.56-.4.21-.09.44-.14.67-.14.28,0,.53.05.75.14.22.1.41.23.55.39.15.17.26.37.34.61.08.24.12.5.12.78,0,.05,0,.09,0,.13s0,.07-.01.1h-2.77c0,.16.04.31.09.45.06.14.13.26.23.36s.22.18.35.23c.13.05.28.08.43.08.3,0,.53-.07.69-.21s.27-.32.34-.53l.62.21ZM197.05,82.48c-.01-.26-.1-.49-.27-.67-.17-.18-.42-.27-.74-.27-.15,0-.29.03-.41.08-.12.05-.22.12-.31.21-.08.09-.15.19-.2.3-.05.11-.08.23-.08.34h2.01Z"/>
    <path class="cls-2" d="M198.72,84.69v-3.68h.69v.49c.12-.2.28-.35.49-.45.21-.1.42-.14.63-.14.23,0,.44.06.65.17.2.11.35.29.46.53.15-.26.33-.45.55-.55.22-.1.45-.15.68-.15.16,0,.31.03.47.08.15.06.29.14.41.26s.22.26.29.44.11.38.11.62v2.39h-.71v-2.31c0-.24-.06-.44-.19-.6s-.32-.24-.59-.24c-.25,0-.46.09-.62.26-.16.18-.23.4-.23.66v2.22h-.72v-2.31c0-.24-.06-.44-.18-.6s-.32-.24-.6-.24c-.26,0-.47.09-.62.26-.16.17-.23.4-.23.67v2.22h-.71Z"/>
    <path class="cls-2" d="M205.27,84.69v-5.54h.71v2.38c.09-.16.23-.31.44-.44.21-.13.47-.19.77-.19.28,0,.53.05.73.15s.38.24.53.41.25.38.32.62.11.48.11.75-.04.53-.11.77c-.08.24-.19.44-.33.62-.14.18-.32.31-.54.42-.21.1-.45.15-.73.15s-.51-.06-.71-.17c-.2-.11-.36-.27-.48-.47v.54h-.71ZM208.15,82.83c0-.4-.1-.71-.29-.94-.19-.23-.46-.35-.79-.35-.16,0-.3.03-.44.09-.13.06-.25.15-.35.26s-.17.24-.23.4c-.05.16-.08.34-.08.54s.03.38.08.54c.05.16.13.3.23.42s.21.2.35.26.28.09.44.09c.33,0,.59-.12.79-.36s.29-.56.29-.96Z"/>
    <path class="cls-2" d="M209.8,84.69v-5.54h.72v5.54h-.72Z"/>
    <path class="cls-2" d="M211.88,86.23l.92-1.94-1.58-3.27h.83l1.15,2.54,1.1-2.54h.77l-2.39,5.21h-.79Z"/>
  </g>
  <g>
    <rect class="cls-4" x="94.36" y="95.72" width="136.02" height="8.4"/>
    <path class="cls-2" d="M108.02,99.04h-.81v2.22h-.76v-5.42h2.04c.25,0,.49.04.69.12.21.08.38.2.52.34s.25.32.33.51c.08.2.12.41.12.63,0,.39-.12.73-.35,1-.23.28-.55.46-.97.53l1.29,2.27h-.87l-1.24-2.22ZM108.36,98.37c.31,0,.55-.08.74-.25s.28-.39.28-.67-.09-.52-.28-.69c-.19-.17-.44-.25-.74-.25h-1.15v1.86h1.15Z"/>
    <path class="cls-2" d="M114.16,100.21c-.05.16-.13.31-.23.46-.1.14-.22.26-.36.37-.14.1-.3.19-.48.25-.18.06-.37.09-.59.09-.25,0-.48-.04-.7-.13-.22-.09-.42-.21-.59-.38-.17-.17-.31-.37-.41-.62-.1-.25-.15-.52-.15-.83,0-.29.05-.55.15-.79s.23-.44.39-.61.35-.3.56-.4c.21-.09.44-.14.67-.14.28,0,.53.05.75.14.22.09.41.22.55.39.15.17.26.37.34.61.08.24.12.5.12.78,0,.04,0,.09,0,.13,0,.04,0,.07-.01.1h-2.77c0,.16.04.31.09.45.06.14.13.26.23.36.1.1.22.18.35.23.13.05.28.08.43.08.3,0,.53-.07.69-.21s.27-.32.34-.53l.62.21ZM113.44,99.04c-.01-.27-.1-.49-.27-.67-.17-.18-.42-.27-.74-.27-.15,0-.29.03-.41.08-.12.05-.22.12-.31.21-.08.09-.15.19-.2.3-.05.11-.08.23-.08.34h2.01Z"/>
    <path class="cls-2" d="M116.07,97.58h.79v.65h-.79v1.91c0,.17.04.29.11.38s.21.13.4.13c.05,0,.1,0,.15,0,.06,0,.1-.01.13-.02v.61s-.09.03-.18.04-.19.03-.31.03c-.32,0-.57-.09-.75-.27s-.28-.44-.28-.78v-2.02h-.7v-.65h.2c.2,0,.34-.05.43-.16.09-.11.13-.24.13-.41v-.6h.66v1.16Z"/>
    <path class="cls-2" d="M119.86,98.31c-.11-.02-.21-.02-.31-.02-.3,0-.54.09-.73.26-.19.18-.28.47-.28.87v1.84h-.72v-3.68h.7v.64c.07-.14.14-.26.23-.35s.18-.16.28-.21c.1-.05.2-.09.3-.11.1-.02.2-.03.29-.03.05,0,.1,0,.14,0,.04,0,.08,0,.1.01v.76Z"/>
    <path class="cls-2" d="M120.39,100.27c0-.16.03-.31.08-.44.06-.13.13-.24.23-.33.1-.09.22-.17.36-.22.14-.06.29-.1.44-.12l.99-.15c.11-.02.19-.05.23-.1.04-.05.06-.11.06-.18,0-.18-.06-.33-.19-.46s-.33-.2-.61-.2c-.25,0-.45.07-.59.21-.14.14-.22.32-.25.53l-.69-.16c.02-.17.07-.33.16-.48s.19-.27.33-.38c.13-.11.29-.19.46-.25s.36-.09.56-.09c.28,0,.51.04.7.11.19.07.35.17.47.29s.21.27.27.43c.06.16.08.33.08.51v1.84c0,.16,0,.29.01.39.01.1.02.17.03.21h-.7s-.02-.11-.03-.18-.01-.18-.01-.31c-.04.07-.09.14-.16.21-.07.07-.15.14-.25.2-.1.06-.21.11-.34.15-.13.04-.28.06-.44.06-.19,0-.36-.03-.51-.09-.15-.06-.28-.14-.39-.24-.11-.1-.19-.22-.25-.35-.06-.13-.09-.27-.09-.42ZM121.72,100.77c.15,0,.29-.02.42-.06.13-.04.24-.1.34-.18.09-.08.17-.2.23-.34.06-.14.08-.31.08-.51v-.17l-1.12.17c-.15.03-.28.08-.38.17-.1.09-.15.21-.15.38,0,.14.05.26.16.37.11.11.25.17.44.17Z"/>
    <path class="cls-2" d="M125.34,101.26h-.72v-3.68h.7v.53c.13-.23.3-.39.5-.49.2-.1.41-.15.63-.15s.41.04.58.11c.17.07.3.18.41.31.11.13.19.28.25.46.05.18.08.37.08.57v2.33h-.72v-2.21c0-.13-.01-.25-.04-.36-.03-.11-.08-.21-.15-.29-.07-.08-.16-.15-.27-.2-.11-.05-.24-.07-.4-.07-.14,0-.27.03-.38.08-.11.05-.2.13-.27.22s-.12.2-.16.32c-.04.12-.05.25-.05.39v2.12Z"/>
    <path class="cls-2" d="M129.22,100.07c.03.19.11.36.25.49s.34.2.6.2c.2,0,.36-.05.47-.15.11-.1.16-.21.16-.34,0-.12-.04-.22-.12-.3-.08-.08-.2-.14-.35-.18l-.63-.14c-.29-.06-.52-.18-.68-.37s-.24-.41-.24-.67c0-.16.04-.31.1-.45.07-.14.16-.26.28-.37.12-.11.26-.19.42-.25.16-.06.33-.09.51-.09.25,0,.46.04.63.11.17.07.31.16.42.26.11.11.19.21.24.33.05.11.09.21.11.29l-.63.24s-.03-.11-.05-.18c-.03-.07-.07-.14-.12-.2-.06-.06-.13-.12-.23-.16-.1-.05-.22-.07-.36-.07-.18,0-.33.05-.44.15s-.17.21-.17.34c0,.23.14.38.42.44l.6.13c.34.07.59.2.76.39.17.19.26.42.26.7,0,.13-.03.26-.08.4-.06.13-.14.25-.25.37-.11.11-.25.2-.42.27s-.37.1-.6.1c-.25,0-.47-.04-.65-.11s-.33-.16-.45-.27c-.12-.11-.21-.22-.28-.35-.06-.12-.1-.24-.12-.35l.65-.23Z"/>
    <path class="cls-2" d="M132.37,101.26v-3.68h.69v.49c.12-.21.28-.36.49-.45.21-.1.42-.15.63-.15.23,0,.44.06.65.17.2.11.35.29.46.53.15-.26.33-.45.55-.55.22-.1.45-.15.68-.15.16,0,.31.03.47.08.15.06.29.14.41.26s.22.26.29.44.11.38.11.62v2.38h-.71v-2.31c0-.24-.06-.44-.19-.6s-.32-.24-.59-.24c-.25,0-.46.09-.62.26-.16.18-.23.4-.23.66v2.22h-.72v-2.31c0-.24-.06-.44-.18-.6s-.32-.24-.6-.24c-.26,0-.47.09-.62.26-.16.17-.23.4-.23.67v2.22h-.71Z"/>
    <path class="cls-2" d="M138.76,96.19c0-.15.05-.27.15-.37.1-.1.22-.15.36-.15s.27.05.37.15.15.22.15.37-.05.26-.15.36c-.1.1-.22.15-.37.15s-.26-.05-.36-.15-.15-.22-.15-.36ZM138.92,101.26v-3.68h.71v3.68h-.71Z"/>
    <path class="cls-2" d="M141.17,100.07c.03.19.11.36.25.49s.34.2.6.2c.2,0,.36-.05.47-.15.11-.1.16-.21.16-.34,0-.12-.04-.22-.12-.3-.08-.08-.2-.14-.35-.18l-.63-.14c-.29-.06-.52-.18-.68-.37s-.24-.41-.24-.67c0-.16.04-.31.1-.45.07-.14.16-.26.28-.37.12-.11.26-.19.42-.25.16-.06.33-.09.51-.09.25,0,.46.04.63.11.17.07.31.16.42.26.11.11.19.21.24.33.05.11.09.21.11.29l-.63.24s-.03-.11-.05-.18c-.03-.07-.07-.14-.12-.2-.06-.06-.13-.12-.23-.16-.1-.05-.22-.07-.36-.07-.18,0-.33.05-.44.15s-.17.21-.17.34c0,.23.14.38.42.44l.6.13c.34.07.59.2.76.39.17.19.26.42.26.7,0,.13-.03.26-.08.4-.06.13-.14.25-.25.37-.11.11-.25.2-.42.27s-.37.1-.6.1c-.25,0-.47-.04-.65-.11s-.33-.16-.45-.27c-.12-.11-.21-.22-.28-.35-.06-.12-.1-.24-.12-.35l.65-.23Z"/>
    <path class="cls-2" d="M144.62,100.07c.03.19.11.36.25.49s.34.2.6.2c.2,0,.36-.05.47-.15.11-.1.16-.21.16-.34,0-.12-.04-.22-.12-.3-.08-.08-.2-.14-.35-.18l-.63-.14c-.29-.06-.52-.18-.68-.37s-.24-.41-.24-.67c0-.16.04-.31.1-.45.07-.14.16-.26.28-.37.12-.11.26-.19.42-.25.16-.06.33-.09.51-.09.25,0,.46.04.63.11.17.07.31.16.42.26.11.11.19.21.24.33.05.11.09.21.11.29l-.63.24s-.03-.11-.05-.18c-.03-.07-.07-.14-.12-.2-.06-.06-.13-.12-.23-.16-.1-.05-.22-.07-.36-.07-.18,0-.33.05-.44.15s-.17.21-.17.34c0,.23.14.38.42.44l.6.13c.34.07.59.2.76.39.17.19.26.42.26.7,0,.13-.03.26-.08.4-.06.13-.14.25-.25.37-.11.11-.25.2-.42.27s-.37.1-.6.1c-.25,0-.47-.04-.65-.11s-.33-.16-.45-.27c-.12-.11-.21-.22-.28-.35-.06-.12-.1-.24-.12-.35l.65-.23Z"/>
    <path class="cls-2" d="M147.61,96.19c0-.15.05-.27.15-.37.1-.1.22-.15.36-.15s.27.05.37.15.15.22.15.37-.05.26-.15.36c-.1.1-.22.15-.37.15s-.26-.05-.36-.15-.15-.22-.15-.36ZM147.77,101.26v-3.68h.71v3.68h-.71Z"/>
    <path class="cls-2" d="M151.28,97.47c.28,0,.53.05.76.15s.43.24.6.41c.17.17.3.38.39.62.09.24.14.5.14.78s-.05.54-.14.78c-.09.24-.22.45-.39.62s-.37.31-.6.41c-.23.1-.48.15-.76.15s-.53-.05-.76-.15c-.23-.1-.43-.24-.6-.41-.17-.17-.3-.38-.39-.62-.09-.24-.14-.5-.14-.78s.05-.54.14-.78c.09-.24.22-.44.39-.62.17-.17.37-.31.6-.41s.48-.15.76-.15ZM151.28,100.73c.15,0,.3-.03.44-.08.14-.06.26-.14.37-.25.11-.11.19-.25.25-.41.06-.16.09-.35.09-.57s-.03-.4-.09-.56c-.06-.16-.14-.3-.25-.41s-.23-.2-.37-.25c-.14-.05-.28-.08-.44-.08s-.3.03-.44.08c-.14.06-.26.14-.37.25s-.19.25-.25.41c-.06.16-.09.35-.09.56s.03.4.09.57c.06.16.14.3.25.41.11.11.23.2.37.25.14.06.28.08.44.08Z"/>
    <path class="cls-2" d="M154.8,101.26h-.72v-3.68h.7v.53c.13-.23.3-.39.5-.49.2-.1.41-.15.63-.15s.41.04.58.11c.17.07.3.18.41.31.11.13.19.28.25.46.05.18.08.37.08.57v2.33h-.72v-2.21c0-.13-.01-.25-.04-.36-.03-.11-.08-.21-.15-.29-.07-.08-.16-.15-.27-.2-.11-.05-.24-.07-.4-.07-.14,0-.27.03-.38.08-.11.05-.2.13-.27.22s-.12.2-.16.32c-.04.12-.05.25-.05.39v2.12Z"/>
    <path class="cls-2" d="M160.06,100.27c0-.16.03-.31.08-.44.06-.13.13-.24.23-.33.1-.09.22-.17.36-.22.14-.06.29-.1.44-.12l.99-.15c.11-.02.19-.05.23-.1.04-.05.06-.11.06-.18,0-.18-.06-.33-.19-.46s-.33-.2-.61-.2c-.25,0-.45.07-.59.21-.14.14-.22.32-.25.53l-.69-.16c.02-.17.07-.33.16-.48s.19-.27.33-.38c.13-.11.29-.19.46-.25s.36-.09.56-.09c.28,0,.51.04.7.11.19.07.35.17.47.29s.21.27.27.43c.06.16.08.33.08.51v1.84c0,.16,0,.29.01.39.01.1.02.17.03.21h-.7s-.02-.11-.03-.18-.01-.18-.01-.31c-.04.07-.09.14-.16.21-.07.07-.15.14-.25.2-.1.06-.21.11-.34.15-.13.04-.28.06-.44.06-.19,0-.36-.03-.51-.09-.15-.06-.28-.14-.39-.24-.11-.1-.19-.22-.25-.35-.06-.13-.09-.27-.09-.42ZM161.39,100.77c.15,0,.29-.02.42-.06.13-.04.24-.1.34-.18.09-.08.17-.2.23-.34.06-.14.08-.31.08-.51v-.17l-1.12.17c-.15.03-.28.08-.38.17-.1.09-.15.21-.15.38,0,.14.05.26.16.37.11.11.25.17.44.17Z"/>
    <path class="cls-2" d="M165,101.26h-.72v-3.68h.7v.53c.13-.23.3-.39.5-.49.2-.1.41-.15.63-.15s.41.04.58.11c.17.07.3.18.41.31.11.13.19.28.25.46.05.18.08.37.08.57v2.33h-.72v-2.21c0-.13-.01-.25-.04-.36-.03-.11-.08-.21-.15-.29-.07-.08-.16-.15-.27-.2-.11-.05-.24-.07-.4-.07-.14,0-.27.03-.38.08-.11.05-.2.13-.27.22s-.12.2-.16.32c-.04.12-.05.25-.05.39v2.12Z"/>
    <path class="cls-2" d="M171.16,100.7c-.09.18-.23.33-.42.46s-.43.2-.72.2c-.27,0-.51-.05-.73-.15-.21-.1-.4-.24-.55-.41s-.27-.38-.35-.62c-.08-.24-.12-.49-.12-.77,0-.26.04-.51.13-.74s.2-.44.36-.61c.15-.18.34-.32.55-.42s.45-.16.71-.16c.16,0,.31.02.43.05.12.04.23.08.33.14s.17.12.23.2.11.15.14.22v-2.38h.71v4.85c0,.18,0,.33.02.45,0,.12.02.2.02.23h-.7s-.02-.11-.03-.2c0-.09-.01-.19-.01-.3v-.06ZM169.01,99.41c0,.19.02.36.07.52s.12.3.21.42.2.21.34.28.29.1.46.1c.16,0,.31-.04.44-.1.13-.07.24-.16.34-.28s.16-.26.21-.42c.05-.16.07-.34.07-.53,0-.38-.09-.69-.28-.93s-.44-.35-.78-.35c-.16,0-.31.03-.45.1-.13.06-.25.15-.34.27-.09.12-.17.25-.22.41-.05.16-.08.33-.08.52Z"/>
    <path class="cls-2" d="M175.07,101.26v-5.42h3.29v.7h-2.55v1.74h2.31v.7h-2.31v2.28h-.75Z"/>
    <path class="cls-2" d="M179.2,101.26v-5.54h.72v5.54h-.72Z"/>
    <path class="cls-2" d="M182.72,97.47c.28,0,.53.05.76.15s.43.24.6.41c.17.17.3.38.39.62.09.24.14.5.14.78s-.05.54-.14.78c-.09.24-.22.45-.39.62s-.37.31-.6.41c-.23.1-.48.15-.76.15s-.53-.05-.76-.15c-.23-.1-.43-.24-.6-.41-.17-.17-.3-.38-.39-.62-.09-.24-.14-.5-.14-.78s.05-.54.14-.78c.09-.24.22-.44.39-.62.17-.17.37-.31.6-.41s.48-.15.76-.15ZM182.72,100.73c.15,0,.3-.03.44-.08.14-.06.26-.14.37-.25.11-.11.19-.25.25-.41.06-.16.09-.35.09-.57s-.03-.4-.09-.56c-.06-.16-.14-.3-.25-.41s-.23-.2-.37-.25c-.14-.05-.28-.08-.44-.08s-.3.03-.44.08c-.14.06-.26.14-.37.25s-.19.25-.25.41c-.06.16-.09.35-.09.56s.03.4.09.57c.06.16.14.3.25.41.11.11.23.2.37.25.14.06.28.08.44.08Z"/>
    <path class="cls-2" d="M188.33,97.58l.96,2.77.81-2.77h.76l-1.19,3.68h-.74l-.98-2.8-.96,2.8h-.76l-1.21-3.68h.79l.83,2.77.96-2.77h.74Z"/>
    <path class="cls-2" d="M195.91,101.37c-.35,0-.69-.06-1.01-.19-.32-.12-.61-.31-.86-.55-.25-.24-.45-.54-.6-.89s-.23-.75-.23-1.21.08-.85.23-1.2c.15-.35.36-.64.61-.88.25-.24.54-.42.86-.55.32-.12.65-.19.99-.19.31,0,.6.04.86.12s.49.2.7.34c.2.15.38.33.52.54.14.21.25.45.32.71l-.7.24c-.1-.41-.3-.73-.58-.95-.29-.22-.66-.33-1.1-.33-.24,0-.48.04-.71.13-.23.09-.44.22-.62.4-.18.18-.33.4-.43.67-.11.27-.16.58-.16.93s.05.66.16.93c.11.27.25.49.43.67s.39.32.62.41c.23.09.47.13.71.13.23,0,.44-.03.63-.1.19-.07.36-.16.5-.27s.27-.25.37-.41c.1-.16.18-.33.23-.52l.67.24c-.07.26-.18.49-.32.7-.14.21-.32.4-.52.55-.2.15-.43.27-.7.36-.26.09-.55.13-.86.13Z"/>
    <path class="cls-2" d="M200.65,97.47c.28,0,.53.05.76.15s.43.24.6.41c.17.17.3.38.39.62.09.24.14.5.14.78s-.05.54-.14.78c-.09.24-.22.45-.39.62s-.37.31-.6.41c-.23.1-.48.15-.76.15s-.53-.05-.76-.15c-.23-.1-.43-.24-.6-.41-.17-.17-.3-.38-.39-.62-.09-.24-.14-.5-.14-.78s.05-.54.14-.78c.09-.24.22-.44.39-.62.17-.17.37-.31.6-.41s.48-.15.76-.15ZM200.65,100.73c.15,0,.3-.03.44-.08.14-.06.26-.14.37-.25.11-.11.19-.25.25-.41.06-.16.09-.35.09-.57s-.03-.4-.09-.56c-.06-.16-.14-.3-.25-.41s-.23-.2-.37-.25c-.14-.05-.28-.08-.44-.08s-.3.03-.44.08c-.14.06-.26.14-.37.25s-.19.25-.25.41c-.06.16-.09.35-.09.56s.03.4.09.57c.06.16.14.3.25.41.11.11.23.2.37.25.14.06.28.08.44.08Z"/>
    <path class="cls-2" d="M204.16,101.26h-.72v-3.68h.7v.53c.13-.23.3-.39.5-.49.2-.1.41-.15.63-.15s.41.04.58.11c.17.07.3.18.41.31.11.13.19.28.25.46.05.18.08.37.08.57v2.33h-.72v-2.21c0-.13-.01-.25-.04-.36-.03-.11-.08-.21-.15-.29-.07-.08-.16-.15-.27-.2-.11-.05-.24-.07-.4-.07-.14,0-.27.03-.38.08-.11.05-.2.13-.27.22s-.12.2-.16.32c-.04.12-.05.25-.05.39v2.12Z"/>
    <path class="cls-2" d="M208.71,97.58h.79v.65h-.79v1.91c0,.17.04.29.11.38s.21.13.4.13c.05,0,.1,0,.15,0,.06,0,.1-.01.13-.02v.61s-.09.03-.18.04-.19.03-.31.03c-.32,0-.57-.09-.75-.27s-.28-.44-.28-.78v-2.02h-.7v-.65h.2c.2,0,.34-.05.43-.16.09-.11.13-.24.13-.41v-.6h.66v1.16Z"/>
    <path class="cls-2" d="M212.5,98.31c-.11-.02-.21-.02-.31-.02-.3,0-.54.09-.73.26-.19.18-.28.47-.28.87v1.84h-.72v-3.68h.7v.64c.07-.14.14-.26.23-.35s.18-.16.28-.21c.1-.05.2-.09.3-.11.1-.02.2-.03.29-.03.05,0,.1,0,.14,0,.04,0,.08,0,.1.01v.76Z"/>
    <path class="cls-2" d="M214.84,97.47c.28,0,.53.05.76.15s.43.24.6.41c.17.17.3.38.39.62.09.24.14.5.14.78s-.05.54-.14.78c-.09.24-.22.45-.39.62s-.37.31-.6.41c-.23.1-.48.15-.76.15s-.53-.05-.76-.15c-.23-.1-.43-.24-.6-.41-.17-.17-.3-.38-.39-.62-.09-.24-.14-.5-.14-.78s.05-.54.14-.78c.09-.24.22-.44.39-.62.17-.17.37-.31.6-.41s.48-.15.76-.15ZM214.84,100.73c.15,0,.3-.03.44-.08.14-.06.26-.14.37-.25.11-.11.19-.25.25-.41.06-.16.09-.35.09-.57s-.03-.4-.09-.56c-.06-.16-.14-.3-.25-.41s-.23-.2-.37-.25c-.14-.05-.28-.08-.44-.08s-.3.03-.44.08c-.14.06-.26.14-.37.25s-.19.25-.25.41c-.06.16-.09.35-.09.56s.03.4.09.57c.06.16.14.3.25.41.11.11.23.2.37.25.14.06.28.08.44.08Z"/>
    <path class="cls-2" d="M217.63,101.26v-5.54h.72v5.54h-.72Z"/>
  </g>
  <g>
    <rect class="cls-4" x="94.36" y="112.29" width="136.02" height="8.4"/>
    <path class="cls-2" d="M111.35,117.82v-5.42h3.29v.7h-2.55v1.67h2.31v.7h-2.31v1.66h2.55v.7h-3.29Z"/>
    <path class="cls-2" d="M116.43,117.82h-.72v-3.68h.7v.53c.13-.23.3-.39.5-.49.2-.1.41-.14.63-.14s.41.04.58.11c.17.07.3.18.41.31.11.13.19.29.25.46.05.18.08.37.08.57v2.33h-.72v-2.21c0-.13-.01-.25-.04-.36-.03-.11-.08-.21-.15-.29-.07-.08-.16-.15-.27-.2-.11-.05-.24-.07-.4-.07-.14,0-.27.03-.38.08-.11.05-.2.12-.27.22s-.12.2-.16.32c-.04.12-.05.25-.05.39v2.13Z"/>
    <path class="cls-2" d="M121.55,114.7c-.15,0-.29.03-.42.08s-.25.13-.36.24-.19.24-.25.4c-.06.16-.09.35-.09.56s.03.39.09.55c.06.16.14.29.24.41.1.11.22.19.36.25s.28.08.43.08c.17,0,.32-.03.44-.08.12-.05.22-.11.3-.19.08-.08.14-.16.19-.25s.08-.17.1-.24l.63.28c-.05.13-.11.27-.2.4-.09.14-.2.26-.34.37s-.3.2-.49.27c-.19.07-.4.1-.64.1-.27,0-.52-.05-.75-.15s-.42-.24-.58-.41-.29-.38-.39-.62-.14-.5-.14-.78.05-.55.14-.79.22-.45.39-.62c.17-.17.36-.3.59-.4.23-.1.47-.14.73-.14.24,0,.46.03.65.1.19.07.35.16.48.27.14.11.24.24.33.38.08.14.14.28.18.42l-.65.28c-.03-.09-.06-.18-.11-.28s-.11-.17-.19-.25c-.08-.07-.17-.14-.29-.18-.11-.05-.25-.07-.41-.07Z"/>
    <path class="cls-2" d="M123.83,116.84c0-.16.03-.31.08-.44.06-.13.13-.24.23-.33.1-.09.22-.17.36-.22.14-.06.29-.1.44-.12l.99-.14c.11-.02.19-.05.23-.1s.06-.11.06-.18c0-.18-.06-.33-.19-.46-.12-.13-.33-.2-.61-.2-.25,0-.45.07-.59.21-.14.14-.22.32-.25.53l-.69-.16c.02-.17.07-.33.16-.48s.19-.27.33-.38c.13-.1.29-.19.46-.24s.36-.09.56-.09c.28,0,.51.04.7.11.19.07.35.17.47.29.12.12.21.26.27.43.06.16.08.33.08.51v1.84c0,.16,0,.29.01.39.01.1.02.17.03.21h-.7s-.02-.11-.03-.18c0-.08-.01-.18-.01-.31-.04.07-.09.13-.16.21-.07.07-.15.14-.25.2-.1.06-.21.11-.34.15-.13.04-.28.06-.44.06-.19,0-.36-.03-.51-.09-.15-.06-.28-.14-.39-.24s-.19-.21-.25-.35-.09-.27-.09-.42ZM125.16,117.33c.15,0,.29-.02.42-.06s.24-.1.34-.18c.09-.08.17-.2.23-.34.06-.14.08-.31.08-.51v-.17l-1.12.17c-.15.03-.28.08-.38.17-.1.09-.15.22-.15.38,0,.14.05.26.16.37.11.11.25.16.44.16Z"/>
    <path class="cls-2" d="M128.06,119.28v-5.13h.7v.57c.1-.18.26-.34.47-.47s.46-.19.76-.19c.28,0,.52.05.73.15.21.1.39.24.53.41.14.17.25.38.32.61.07.23.11.48.11.75s-.04.53-.11.76c-.08.24-.19.44-.34.62-.15.18-.33.31-.54.41-.21.1-.45.15-.72.15-.29,0-.53-.06-.73-.18s-.36-.26-.46-.42v1.95h-.71ZM130.94,115.98c0-.18-.03-.35-.08-.51-.05-.16-.12-.29-.21-.41-.09-.11-.21-.21-.34-.27-.13-.07-.29-.1-.46-.1s-.31.03-.45.1c-.13.07-.25.16-.35.27-.1.12-.17.25-.22.41-.05.16-.08.32-.08.51s.03.36.08.52c.05.16.12.3.22.41.1.11.21.2.35.27.13.06.28.09.45.09s.32-.03.45-.09c.13-.06.25-.15.34-.27.09-.12.17-.25.22-.41.05-.16.08-.33.08-.52Z"/>
    <path class="cls-2" d="M132.9,116.64c.03.19.11.36.25.49.14.13.34.2.6.2.2,0,.36-.05.47-.14.11-.1.16-.21.16-.34,0-.12-.04-.22-.12-.3-.08-.08-.2-.14-.35-.18l-.63-.14c-.29-.06-.52-.18-.68-.37s-.24-.41-.24-.67c0-.16.04-.31.1-.45.07-.14.16-.26.28-.37s.26-.19.42-.25c.16-.06.33-.09.51-.09.25,0,.46.04.63.11.17.07.31.16.42.26.11.1.19.21.24.32.05.11.09.21.11.29l-.63.24s-.03-.1-.05-.18c-.03-.07-.07-.14-.12-.2s-.13-.12-.23-.17c-.1-.04-.22-.07-.36-.07-.18,0-.33.05-.44.15-.11.1-.17.21-.17.34,0,.24.14.38.42.44l.6.13c.34.07.59.2.76.39s.26.42.26.7c0,.13-.03.27-.08.4-.06.13-.14.25-.25.37-.11.11-.25.2-.42.27-.17.07-.37.1-.6.1-.25,0-.47-.04-.65-.11s-.33-.16-.45-.27c-.12-.11-.21-.22-.28-.35-.06-.12-.1-.24-.12-.35l.65-.23Z"/>
    <path class="cls-2" d="M138.47,117.38c-.1.19-.25.33-.46.42-.2.09-.41.13-.63.13s-.41-.04-.58-.11-.31-.18-.43-.31-.21-.29-.27-.47c-.06-.18-.1-.37-.1-.58v-2.32h.72v2.21c0,.13.02.25.05.36.03.11.08.21.15.3s.15.16.26.21.23.08.39.08c.29,0,.51-.09.65-.26.15-.17.22-.4.22-.68v-2.22h.72v3c0,.15,0,.28.01.4,0,.12.02.21.03.28h-.69s-.02-.11-.02-.19c0-.09,0-.17,0-.25Z"/>
    <path class="cls-2" d="M140.37,117.82v-5.54h.72v5.54h-.72Z"/>
    <path class="cls-2" d="M142.09,116.84c0-.16.03-.31.08-.44.06-.13.13-.24.23-.33.1-.09.22-.17.36-.22.14-.06.29-.1.44-.12l.99-.14c.11-.02.19-.05.23-.1s.06-.11.06-.18c0-.18-.06-.33-.19-.46-.12-.13-.33-.2-.61-.2-.25,0-.45.07-.59.21-.14.14-.22.32-.25.53l-.69-.16c.02-.17.07-.33.16-.48s.19-.27.33-.38c.13-.1.29-.19.46-.24s.36-.09.56-.09c.28,0,.51.04.7.11.19.07.35.17.47.29.12.12.21.26.27.43.06.16.08.33.08.51v1.84c0,.16,0,.29.01.39.01.1.02.17.03.21h-.7s-.02-.11-.03-.18c0-.08-.01-.18-.01-.31-.04.07-.09.13-.16.21-.07.07-.15.14-.25.2-.1.06-.21.11-.34.15-.13.04-.28.06-.44.06-.19,0-.36-.03-.51-.09-.15-.06-.28-.14-.39-.24s-.19-.21-.25-.35-.09-.27-.09-.42ZM143.42,117.33c.15,0,.29-.02.42-.06s.24-.1.34-.18c.09-.08.17-.2.23-.34.06-.14.08-.31.08-.51v-.17l-1.12.17c-.15.03-.28.08-.38.17-.1.09-.15.22-.15.38,0,.14.05.26.16.37.11.11.25.16.44.16Z"/>
    <path class="cls-2" d="M147.28,114.15h.79v.65h-.79v1.91c0,.17.04.29.11.38s.21.12.4.12c.05,0,.1,0,.15,0,.06,0,.1-.01.13-.02v.61s-.09.02-.18.04c-.09.02-.19.03-.31.03-.32,0-.57-.09-.75-.27-.18-.18-.28-.44-.28-.78v-2.02h-.7v-.65h.2c.2,0,.34-.05.43-.16.09-.11.13-.24.13-.41v-.6h.66v1.16Z"/>
    <path class="cls-2" d="M148.87,112.75c0-.15.05-.27.15-.37.1-.1.22-.15.36-.15s.27.05.37.15c.1.1.15.22.15.37s-.05.26-.15.36-.22.15-.37.15-.26-.05-.36-.15c-.1-.1-.15-.22-.15-.36ZM149.03,117.82v-3.68h.71v3.68h-.71Z"/>
    <path class="cls-2" d="M152.54,114.03c.28,0,.53.05.76.15.23.1.43.24.6.41.17.17.3.38.39.62.09.24.14.5.14.78s-.05.54-.14.78-.22.45-.39.62-.37.31-.6.41-.48.15-.76.15-.53-.05-.76-.15-.43-.24-.6-.41c-.17-.17-.3-.38-.39-.62s-.14-.5-.14-.78.05-.54.14-.78c.09-.24.22-.44.39-.62.17-.17.37-.31.6-.41.23-.1.48-.15.76-.15ZM152.54,117.3c.15,0,.3-.03.44-.08.14-.05.26-.14.37-.25.11-.11.19-.25.25-.41.06-.16.09-.35.09-.57s-.03-.4-.09-.56c-.06-.16-.14-.3-.25-.41s-.23-.2-.37-.25c-.14-.06-.28-.08-.44-.08s-.3.03-.44.08c-.14.06-.26.14-.37.25s-.19.25-.25.41c-.06.16-.09.35-.09.56s.03.4.09.57c.06.16.14.3.25.41.11.11.23.2.37.25.14.06.28.08.44.08Z"/>
    <path class="cls-2" d="M156.05,117.82h-.72v-3.68h.7v.53c.13-.23.3-.39.5-.49.2-.1.41-.14.63-.14s.41.04.58.11c.17.07.3.18.41.31.11.13.19.29.25.46.05.18.08.37.08.57v2.33h-.72v-2.21c0-.13-.01-.25-.04-.36-.03-.11-.08-.21-.15-.29-.07-.08-.16-.15-.27-.2-.11-.05-.24-.07-.4-.07-.14,0-.27.03-.38.08-.11.05-.2.12-.27.22s-.12.2-.16.32c-.04.12-.05.25-.05.39v2.13Z"/>
    <path class="cls-2" d="M161.31,116.84c0-.16.03-.31.08-.44.06-.13.13-.24.23-.33.1-.09.22-.17.36-.22.14-.06.29-.1.44-.12l.99-.14c.11-.02.19-.05.23-.1s.06-.11.06-.18c0-.18-.06-.33-.19-.46-.12-.13-.33-.2-.61-.2-.25,0-.45.07-.59.21-.14.14-.22.32-.25.53l-.69-.16c.02-.17.07-.33.16-.48s.19-.27.33-.38c.13-.1.29-.19.46-.24s.36-.09.56-.09c.28,0,.51.04.7.11.19.07.35.17.47.29.12.12.21.26.27.43.06.16.08.33.08.51v1.84c0,.16,0,.29.01.39.01.1.02.17.03.21h-.7s-.02-.11-.03-.18c0-.08-.01-.18-.01-.31-.04.07-.09.13-.16.21-.07.07-.15.14-.25.2-.1.06-.21.11-.34.15-.13.04-.28.06-.44.06-.19,0-.36-.03-.51-.09-.15-.06-.28-.14-.39-.24s-.19-.21-.25-.35-.09-.27-.09-.42ZM162.65,117.33c.15,0,.29-.02.42-.06s.24-.1.34-.18c.09-.08.17-.2.23-.34.06-.14.08-.31.08-.51v-.17l-1.12.17c-.15.03-.28.08-.38.17-.1.09-.15.22-.15.38,0,.14.05.26.16.37.11.11.25.16.44.16Z"/>
    <path class="cls-2" d="M166.26,117.82h-.72v-3.68h.7v.53c.13-.23.3-.39.5-.49.2-.1.41-.14.63-.14s.41.04.58.11c.17.07.3.18.41.31.11.13.19.29.25.46.05.18.08.37.08.57v2.33h-.72v-2.21c0-.13-.01-.25-.04-.36-.03-.11-.08-.21-.15-.29-.07-.08-.16-.15-.27-.2-.11-.05-.24-.07-.4-.07-.14,0-.27.03-.38.08-.11.05-.2.12-.27.22s-.12.2-.16.32c-.04.12-.05.25-.05.39v2.13Z"/>
    <path class="cls-2" d="M172.42,117.27c-.09.18-.23.33-.42.46s-.43.2-.72.2c-.27,0-.51-.05-.73-.15-.21-.1-.4-.24-.55-.41s-.27-.38-.35-.62c-.08-.24-.12-.49-.12-.77,0-.26.04-.51.13-.74s.2-.44.36-.61c.15-.18.34-.32.55-.42s.45-.16.71-.16c.16,0,.31.02.43.05.12.04.23.08.33.14s.17.12.23.2c.06.07.11.15.14.23v-2.38h.71v4.85c0,.18,0,.33.02.45,0,.12.02.2.02.23h-.7s-.02-.11-.03-.19c0-.09-.01-.19-.01-.3v-.06ZM170.27,115.97c0,.19.02.36.07.52.05.16.12.3.21.42s.2.21.34.27c.13.07.29.1.46.1.16,0,.31-.03.44-.1.13-.07.24-.16.34-.28s.16-.26.21-.42c.05-.16.07-.34.07-.53,0-.38-.09-.69-.28-.92s-.44-.35-.78-.35c-.16,0-.31.03-.45.09-.13.06-.25.15-.34.27-.09.11-.17.25-.22.41s-.08.33-.08.52Z"/>
    <path class="cls-2" d="M179.1,113.87c-.01-.1-.05-.2-.1-.31-.05-.11-.12-.21-.21-.3s-.21-.17-.34-.23-.3-.09-.49-.09c-.15,0-.29.02-.42.07-.13.05-.24.11-.33.19-.09.08-.17.18-.22.29-.05.11-.08.23-.08.36,0,.19.06.36.18.5s.29.24.52.29l.81.18c.45.1.8.29,1.04.55.24.27.36.59.36.97,0,.21-.04.41-.13.6s-.21.36-.37.51c-.16.15-.36.27-.59.36-.23.09-.49.13-.78.13-.33,0-.61-.05-.85-.14-.24-.1-.45-.22-.61-.38-.17-.15-.29-.32-.39-.52s-.15-.38-.18-.58l.72-.23c.02.15.05.3.11.44s.14.26.25.37c.11.11.24.19.4.26.16.06.34.1.54.1.37,0,.65-.08.84-.25.19-.17.28-.37.28-.61,0-.19-.07-.37-.2-.52-.13-.15-.34-.26-.61-.32l-.77-.17c-.39-.09-.71-.25-.95-.5s-.37-.58-.37-.98c0-.21.05-.42.14-.61.09-.19.22-.36.38-.51.16-.15.35-.27.57-.36s.45-.13.7-.13c.31,0,.57.04.78.13s.4.19.54.33c.14.13.26.28.34.44.08.16.14.31.17.46l-.67.24Z"/>
    <path class="cls-2" d="M182.32,114.7c-.15,0-.29.03-.42.08s-.25.13-.36.24-.19.24-.25.4c-.06.16-.09.35-.09.56s.03.39.09.55c.06.16.14.29.24.41.1.11.22.19.36.25s.28.08.43.08c.17,0,.32-.03.44-.08.12-.05.22-.11.3-.19.08-.08.14-.16.19-.25s.08-.17.1-.24l.63.28c-.05.13-.11.27-.2.4-.09.14-.2.26-.34.37s-.3.2-.49.27c-.19.07-.4.1-.64.1-.27,0-.52-.05-.75-.15s-.42-.24-.58-.41-.29-.38-.39-.62-.14-.5-.14-.78.05-.55.14-.79.22-.45.39-.62c.17-.17.36-.3.59-.4.23-.1.47-.14.73-.14.24,0,.46.03.65.1.19.07.35.16.48.27.14.11.24.24.33.38.08.14.14.28.18.42l-.65.28c-.03-.09-.06-.18-.11-.28s-.11-.17-.19-.25c-.08-.07-.17-.14-.29-.18-.11-.05-.25-.07-.41-.07Z"/>
    <path class="cls-2" d="M185.55,117.82h-.72v-5.54h.72v2.29c.13-.19.3-.33.5-.41.2-.08.41-.12.62-.12s.41.04.58.11c.17.07.3.18.41.31.11.13.19.29.25.46.05.18.08.37.08.57v2.33h-.72v-2.21c0-.13-.01-.25-.04-.36-.03-.11-.08-.21-.15-.29-.07-.08-.16-.15-.27-.2-.11-.05-.24-.07-.4-.07-.14,0-.26.03-.36.08s-.19.12-.26.21-.13.19-.16.31-.06.24-.07.38v2.16Z"/>
    <path class="cls-2" d="M192.33,116.78c-.05.16-.13.32-.23.46-.1.14-.22.26-.36.37-.14.1-.3.19-.48.25-.18.06-.37.09-.59.09-.25,0-.48-.04-.7-.13-.22-.09-.42-.21-.59-.38-.17-.17-.31-.38-.41-.62-.1-.25-.15-.52-.15-.83,0-.29.05-.55.15-.79.1-.24.23-.44.39-.61.16-.17.35-.3.56-.4.21-.09.44-.14.67-.14.28,0,.53.05.75.14.22.1.41.23.55.39.15.17.26.37.34.61.08.24.12.5.12.78,0,.05,0,.09,0,.13s0,.07-.01.1h-2.77c0,.16.04.31.09.45.06.14.13.26.23.36s.22.18.35.23c.13.05.28.08.43.08.3,0,.53-.07.69-.21s.27-.32.34-.53l.62.21ZM191.6,115.61c-.01-.26-.1-.49-.27-.67-.17-.18-.42-.27-.74-.27-.15,0-.29.03-.41.08-.12.05-.22.12-.31.21-.08.09-.15.19-.2.3-.05.11-.08.23-.08.34h2.01Z"/>
    <path class="cls-2" d="M195.85,117.27c-.09.18-.23.33-.42.46s-.43.2-.72.2c-.27,0-.51-.05-.73-.15-.21-.1-.4-.24-.55-.41s-.27-.38-.35-.62c-.08-.24-.12-.49-.12-.77,0-.26.04-.51.13-.74s.2-.44.36-.61c.15-.18.34-.32.55-.42s.45-.16.71-.16c.16,0,.31.02.43.05.12.04.23.08.33.14s.17.12.23.2c.06.07.11.15.14.23v-2.38h.71v4.85c0,.18,0,.33.02.45,0,.12.02.2.02.23h-.7s-.02-.11-.03-.19c0-.09-.01-.19-.01-.3v-.06ZM193.7,115.97c0,.19.02.36.07.52.05.16.12.3.21.42s.2.21.34.27c.13.07.29.1.46.1.16,0,.31-.03.44-.1.13-.07.24-.16.34-.28s.16-.26.21-.42c.05-.16.07-.34.07-.53,0-.38-.09-.69-.28-.92s-.44-.35-.78-.35c-.16,0-.31.03-.45.09-.13.06-.25.15-.34.27-.09.11-.17.25-.22.41s-.08.33-.08.52Z"/>
    <path class="cls-2" d="M200.19,117.38c-.1.19-.25.33-.46.42-.2.09-.41.13-.63.13s-.41-.04-.58-.11-.31-.18-.43-.31-.21-.29-.27-.47c-.06-.18-.1-.37-.1-.58v-2.32h.72v2.21c0,.13.02.25.05.36.03.11.08.21.15.3s.15.16.26.21.23.08.39.08c.29,0,.51-.09.65-.26.15-.17.22-.4.22-.68v-2.22h.72v3c0,.15,0,.28.01.4,0,.12.02.21.03.28h-.69s-.02-.11-.02-.19c0-.09,0-.17,0-.25Z"/>
    <path class="cls-2" d="M202.09,117.82v-5.54h.72v5.54h-.72Z"/>
    <path class="cls-2" d="M203.88,112.75c0-.15.05-.27.15-.37.1-.1.22-.15.36-.15s.27.05.37.15c.1.1.15.22.15.37s-.05.26-.15.36-.22.15-.37.15-.26-.05-.36-.15c-.1-.1-.15-.22-.15-.36ZM204.04,117.82v-3.68h.71v3.68h-.71Z"/>
    <path class="cls-2" d="M206.69,117.82h-.72v-3.68h.7v.53c.13-.23.3-.39.5-.49.2-.1.41-.14.63-.14s.41.04.58.11c.17.07.3.18.41.31.11.13.19.29.25.46.05.18.08.37.08.57v2.33h-.72v-2.21c0-.13-.01-.25-.04-.36-.03-.11-.08-.21-.15-.29-.07-.08-.16-.15-.27-.2-.11-.05-.24-.07-.4-.07-.14,0-.27.03-.38.08-.11.05-.2.12-.27.22s-.12.2-.16.32c-.04.12-.05.25-.05.39v2.13Z"/>
    <path class="cls-2" d="M210.7,117.86c.03.26.13.48.31.65.18.17.41.26.69.26.39,0,.67-.1.85-.3.18-.2.27-.5.27-.89v-.53c-.09.17-.23.31-.42.43-.19.12-.43.18-.7.18-.24,0-.47-.04-.68-.13-.21-.09-.38-.21-.54-.37-.15-.16-.27-.34-.35-.56-.08-.22-.13-.46-.13-.72s.04-.48.12-.7c.08-.22.2-.4.34-.57.15-.16.32-.29.53-.38.21-.09.44-.14.69-.14.29,0,.52.05.71.15.19.1.33.24.42.43v-.51h.71v3.4c0,.24-.03.46-.09.68s-.16.42-.31.59c-.15.17-.33.31-.57.41-.23.1-.53.16-.87.16-.23,0-.44-.04-.64-.1-.2-.07-.37-.16-.52-.29-.15-.12-.27-.27-.37-.43-.09-.17-.15-.35-.17-.55l.7-.16ZM211.8,117.04c.31,0,.56-.11.76-.32.19-.21.29-.5.29-.86s-.1-.64-.29-.86-.45-.32-.76-.32-.58.11-.77.32-.29.5-.29.86.1.65.29.86c.19.21.45.32.78.32Z"/>
  </g>
  <g>
    <rect class="cls-4" x="94.36" y="129.48" width="136.02" height="8.4"/>
    <path class="cls-2" d="M103.72,135.02v-5.42h3.29v.7h-2.55v1.74h2.31v.7h-2.31v2.28h-.75Z"/>
    <path class="cls-2" d="M109.71,132.07c-.11-.01-.21-.02-.31-.02-.3,0-.54.09-.73.26-.19.18-.28.46-.28.87v1.84h-.72v-3.68h.7v.64c.07-.14.14-.26.23-.35.09-.09.18-.16.28-.21.1-.05.2-.09.3-.11.1-.02.2-.03.29-.03.05,0,.1,0,.14,0,.04,0,.08.01.1.02v.76Z"/>
    <path class="cls-2" d="M110.24,134.03c0-.16.03-.31.08-.44.06-.13.13-.24.23-.33.1-.09.22-.17.36-.22.14-.06.29-.1.44-.12l.99-.14c.11-.02.19-.05.23-.1s.06-.11.06-.18c0-.18-.06-.33-.19-.46-.12-.13-.33-.2-.61-.2-.25,0-.45.07-.59.21-.14.14-.22.32-.25.53l-.69-.16c.02-.17.07-.33.16-.48s.19-.27.33-.38c.13-.1.29-.19.46-.24s.36-.09.56-.09c.28,0,.51.04.7.11.19.07.35.17.47.29.12.12.21.26.27.43.06.16.08.33.08.51v1.84c0,.16,0,.29.01.39.01.1.02.17.03.21h-.7s-.02-.11-.03-.18c0-.08-.01-.18-.01-.31-.04.07-.09.13-.16.21-.07.07-.15.14-.25.2-.1.06-.21.11-.34.15-.13.04-.28.06-.44.06-.19,0-.36-.03-.51-.09-.15-.06-.28-.14-.39-.24s-.19-.21-.25-.35-.09-.27-.09-.42ZM111.58,134.53c.15,0,.29-.02.42-.06s.24-.1.34-.18c.09-.08.17-.2.23-.34.06-.14.08-.31.08-.51v-.17l-1.12.17c-.15.03-.28.08-.38.17-.1.09-.15.22-.15.38,0,.14.05.26.16.37.11.11.25.16.44.16Z"/>
    <path class="cls-2" d="M114.9,135.06c.03.26.13.48.31.65.18.17.41.26.69.26.39,0,.67-.1.85-.3.18-.2.27-.5.27-.89v-.53c-.09.17-.23.31-.42.43-.19.12-.43.18-.7.18-.24,0-.47-.04-.68-.13-.21-.09-.38-.21-.54-.37-.15-.16-.27-.34-.35-.56-.08-.22-.13-.46-.13-.72s.04-.48.12-.7c.08-.22.2-.4.34-.57.15-.16.32-.29.53-.38.21-.09.44-.14.69-.14.29,0,.52.05.71.15.19.1.33.24.42.43v-.51h.71v3.4c0,.24-.03.46-.09.68s-.16.42-.31.59c-.15.17-.33.31-.57.41-.23.1-.53.16-.87.16-.23,0-.44-.04-.64-.1-.2-.07-.37-.16-.52-.29-.15-.12-.27-.27-.37-.43-.09-.17-.15-.35-.17-.55l.7-.16ZM116.01,134.24c.31,0,.56-.11.76-.32.19-.21.29-.5.29-.86s-.1-.64-.29-.86-.45-.32-.76-.32-.58.11-.77.32-.29.5-.29.86.1.65.29.86c.19.21.45.32.78.32Z"/>
    <path class="cls-2" d="M118.89,135.02v-3.68h.69v.49c.12-.2.28-.35.49-.45.21-.1.42-.14.63-.14.23,0,.44.06.65.17.2.11.35.29.46.53.15-.26.33-.45.55-.55.22-.1.45-.15.68-.15.16,0,.31.03.47.08.15.06.29.14.41.26s.22.26.29.44.11.38.11.62v2.39h-.71v-2.31c0-.24-.06-.44-.19-.6s-.32-.24-.59-.24c-.25,0-.46.09-.62.26-.16.18-.23.4-.23.66v2.22h-.72v-2.31c0-.24-.06-.44-.18-.6s-.32-.24-.6-.24c-.26,0-.47.09-.62.26-.16.17-.23.4-.23.67v2.22h-.71Z"/>
    <path class="cls-2" d="M128.65,133.97c-.05.16-.13.32-.23.46-.1.14-.22.26-.36.37-.14.1-.3.19-.48.25-.18.06-.37.09-.59.09-.25,0-.48-.04-.7-.13-.22-.09-.42-.21-.59-.38-.17-.17-.31-.38-.41-.62-.1-.25-.15-.52-.15-.83,0-.29.05-.55.15-.79.1-.24.23-.44.39-.61.16-.17.35-.3.56-.4.21-.09.44-.14.67-.14.28,0,.53.05.75.14.22.1.41.23.55.39.15.17.26.37.34.61.08.24.12.5.12.78,0,.05,0,.09,0,.13s0,.07-.01.1h-2.77c0,.16.04.31.09.45.06.14.13.26.23.36s.22.18.35.23c.13.05.28.08.43.08.3,0,.53-.07.69-.21s.27-.32.34-.53l.62.21ZM127.92,132.8c-.01-.26-.1-.49-.27-.67-.17-.18-.42-.27-.74-.27-.15,0-.29.03-.41.08-.12.05-.22.12-.31.21-.08.09-.15.19-.2.3-.05.11-.08.23-.08.34h2.01Z"/>
    <path class="cls-2" d="M130.3,135.02h-.72v-3.68h.7v.53c.13-.23.3-.39.5-.49.2-.1.41-.14.63-.14s.41.04.58.11c.17.07.3.18.41.31.11.13.19.29.25.46.05.18.08.37.08.57v2.33h-.72v-2.21c0-.13-.01-.25-.04-.36-.03-.11-.08-.21-.15-.29-.07-.08-.16-.15-.27-.2-.11-.05-.24-.07-.4-.07-.14,0-.27.03-.38.08-.11.05-.2.12-.27.22s-.12.2-.16.32c-.04.12-.05.25-.05.39v2.13Z"/>
    <path class="cls-2" d="M134.85,131.34h.79v.65h-.79v1.91c0,.17.04.29.11.38s.21.12.4.12c.05,0,.1,0,.15,0,.06,0,.1-.01.13-.02v.61s-.09.02-.18.04c-.09.02-.19.03-.31.03-.32,0-.57-.09-.75-.27-.18-.18-.28-.44-.28-.78v-2.02h-.7v-.65h.2c.2,0,.34-.05.43-.16.09-.11.13-.24.13-.41v-.6h.66v1.16Z"/>
    <path class="cls-2" d="M136.37,134.03c0-.16.03-.31.08-.44.06-.13.13-.24.23-.33.1-.09.22-.17.36-.22.14-.06.29-.1.44-.12l.99-.14c.11-.02.19-.05.23-.1s.06-.11.06-.18c0-.18-.06-.33-.19-.46-.12-.13-.33-.2-.61-.2-.25,0-.45.07-.59.21-.14.14-.22.32-.25.53l-.69-.16c.02-.17.07-.33.16-.48s.19-.27.33-.38c.13-.1.29-.19.46-.24s.36-.09.56-.09c.28,0,.51.04.7.11.19.07.35.17.47.29.12.12.21.26.27.43.06.16.08.33.08.51v1.84c0,.16,0,.29.01.39.01.1.02.17.03.21h-.7s-.02-.11-.03-.18c0-.08-.01-.18-.01-.31-.04.07-.09.13-.16.21-.07.07-.15.14-.25.2-.1.06-.21.11-.34.15-.13.04-.28.06-.44.06-.19,0-.36-.03-.51-.09-.15-.06-.28-.14-.39-.24s-.19-.21-.25-.35-.09-.27-.09-.42ZM137.7,134.53c.15,0,.29-.02.42-.06s.24-.1.34-.18c.09-.08.17-.2.23-.34.06-.14.08-.31.08-.51v-.17l-1.12.17c-.15.03-.28.08-.38.17-.1.09-.15.22-.15.38,0,.14.05.26.16.37.11.11.25.16.44.16Z"/>
    <path class="cls-2" d="M141.56,131.34h.79v.65h-.79v1.91c0,.17.04.29.11.38s.21.12.4.12c.05,0,.1,0,.15,0,.06,0,.1-.01.13-.02v.61s-.09.02-.18.04c-.09.02-.19.03-.31.03-.32,0-.57-.09-.75-.27-.18-.18-.28-.44-.28-.78v-2.02h-.7v-.65h.2c.2,0,.34-.05.43-.16.09-.11.13-.24.13-.41v-.6h.66v1.16Z"/>
    <path class="cls-2" d="M143.15,129.95c0-.15.05-.27.15-.37.1-.1.22-.15.36-.15s.27.05.37.15c.1.1.15.22.15.37s-.05.26-.15.36-.22.15-.37.15-.26-.05-.36-.15c-.1-.1-.15-.22-.15-.36ZM143.31,135.02v-3.68h.71v3.68h-.71Z"/>
    <path class="cls-2" d="M146.82,131.23c.28,0,.53.05.76.15.23.1.43.24.6.41.17.17.3.38.39.62.09.24.14.5.14.78s-.05.54-.14.78-.22.45-.39.62-.37.31-.6.41-.48.15-.76.15-.53-.05-.76-.15-.43-.24-.6-.41c-.17-.17-.3-.38-.39-.62s-.14-.5-.14-.78.05-.54.14-.78c.09-.24.22-.44.39-.62.17-.17.37-.31.6-.41.23-.1.48-.15.76-.15ZM146.82,134.49c.15,0,.3-.03.44-.08.14-.05.26-.14.37-.25.11-.11.19-.25.25-.41.06-.16.09-.35.09-.57s-.03-.4-.09-.56c-.06-.16-.14-.3-.25-.41s-.23-.2-.37-.25c-.14-.06-.28-.08-.44-.08s-.3.03-.44.08c-.14.06-.26.14-.37.25s-.19.25-.25.41c-.06.16-.09.35-.09.56s.03.4.09.57c.06.16.14.3.25.41.11.11.23.2.37.25.14.06.28.08.44.08Z"/>
    <path class="cls-2" d="M150.33,135.02h-.72v-3.68h.7v.53c.13-.23.3-.39.5-.49.2-.1.41-.14.63-.14s.41.04.58.11c.17.07.3.18.41.31.11.13.19.29.25.46.05.18.08.37.08.57v2.33h-.72v-2.21c0-.13-.01-.25-.04-.36-.03-.11-.08-.21-.15-.29-.07-.08-.16-.15-.27-.2-.11-.05-.24-.07-.4-.07-.14,0-.27.03-.38.08-.11.05-.2.12-.27.22s-.12.2-.16.32c-.04.12-.05.25-.05.39v2.13Z"/>
    <path class="cls-2" d="M155.59,134.03c0-.16.03-.31.08-.44.06-.13.13-.24.23-.33.1-.09.22-.17.36-.22.14-.06.29-.1.44-.12l.99-.14c.11-.02.19-.05.23-.1s.06-.11.06-.18c0-.18-.06-.33-.19-.46-.12-.13-.33-.2-.61-.2-.25,0-.45.07-.59.21-.14.14-.22.32-.25.53l-.69-.16c.02-.17.07-.33.16-.48s.19-.27.33-.38c.13-.1.29-.19.46-.24s.36-.09.56-.09c.28,0,.51.04.7.11.19.07.35.17.47.29.12.12.21.26.27.43.06.16.08.33.08.51v1.84c0,.16,0,.29.01.39.01.1.02.17.03.21h-.7s-.02-.11-.03-.18c0-.08-.01-.18-.01-.31-.04.07-.09.13-.16.21-.07.07-.15.14-.25.2-.1.06-.21.11-.34.15-.13.04-.28.06-.44.06-.19,0-.36-.03-.51-.09-.15-.06-.28-.14-.39-.24s-.19-.21-.25-.35-.09-.27-.09-.42ZM156.93,134.53c.15,0,.29-.02.42-.06s.24-.1.34-.18c.09-.08.17-.2.23-.34.06-.14.08-.31.08-.51v-.17l-1.12.17c-.15.03-.28.08-.38.17-.1.09-.15.22-.15.38,0,.14.05.26.16.37.11.11.25.16.44.16Z"/>
    <path class="cls-2" d="M160.54,135.02h-.72v-3.68h.7v.53c.13-.23.3-.39.5-.49.2-.1.41-.14.63-.14s.41.04.58.11c.17.07.3.18.41.31.11.13.19.29.25.46.05.18.08.37.08.57v2.33h-.72v-2.21c0-.13-.01-.25-.04-.36-.03-.11-.08-.21-.15-.29-.07-.08-.16-.15-.27-.2-.11-.05-.24-.07-.4-.07-.14,0-.27.03-.38.08-.11.05-.2.12-.27.22s-.12.2-.16.32c-.04.12-.05.25-.05.39v2.13Z"/>
    <path class="cls-2" d="M166.7,134.46c-.09.18-.23.33-.42.46s-.43.2-.72.2c-.27,0-.51-.05-.73-.15-.21-.1-.4-.24-.55-.41s-.27-.38-.35-.62c-.08-.24-.12-.49-.12-.77,0-.26.04-.51.13-.74s.2-.44.36-.61c.15-.18.34-.32.55-.42s.45-.16.71-.16c.16,0,.31.02.43.05.12.04.23.08.33.14s.17.12.23.2c.06.07.11.15.14.23v-2.38h.71v4.85c0,.18,0,.33.02.45,0,.12.02.2.02.23h-.7s-.02-.11-.03-.19c0-.09-.01-.19-.01-.3v-.06ZM164.55,133.17c0,.19.02.36.07.52.05.16.12.3.21.42s.2.21.34.27c.13.07.29.1.46.1.16,0,.31-.03.44-.1.13-.07.24-.16.34-.28s.16-.26.21-.42c.05-.16.07-.34.07-.53,0-.38-.09-.69-.28-.92s-.44-.35-.78-.35c-.16,0-.31.03-.45.09-.13.06-.25.15-.34.27-.09.11-.17.25-.22.41s-.08.33-.08.52Z"/>
    <path class="cls-2" d="M172.17,132.8h-.81v2.22h-.76v-5.42h2.04c.25,0,.49.04.69.13.21.08.38.2.52.34.14.14.25.32.33.51.08.2.12.41.12.63,0,.39-.12.73-.35,1.01-.23.28-.55.46-.97.53l1.29,2.27h-.87l-1.24-2.22ZM172.51,132.13c.31,0,.55-.08.74-.25.19-.17.28-.39.28-.67s-.09-.52-.28-.69-.44-.25-.74-.25h-1.15v1.86h1.15Z"/>
    <path class="cls-2" d="M178.31,133.97c-.05.16-.13.32-.23.46-.1.14-.22.26-.36.37-.14.1-.3.19-.48.25-.18.06-.37.09-.59.09-.25,0-.48-.04-.7-.13-.22-.09-.42-.21-.59-.38-.17-.17-.31-.38-.41-.62-.1-.25-.15-.52-.15-.83,0-.29.05-.55.15-.79.1-.24.23-.44.39-.61.16-.17.35-.3.56-.4.21-.09.44-.14.67-.14.28,0,.53.05.75.14.22.1.41.23.55.39.15.17.26.37.34.61.08.24.12.5.12.78,0,.05,0,.09,0,.13s0,.07-.01.1h-2.77c0,.16.04.31.09.45.06.14.13.26.23.36s.22.18.35.23c.13.05.28.08.43.08.3,0,.53-.07.69-.21s.27-.32.34-.53l.62.21ZM177.58,132.8c-.01-.26-.1-.49-.27-.67-.17-.18-.42-.27-.74-.27-.15,0-.29.03-.41.08-.12.05-.22.12-.31.21-.08.09-.15.19-.2.3-.05.11-.08.23-.08.34h2.01Z"/>
    <path class="cls-2" d="M180.79,131.89c-.15,0-.29.03-.42.08s-.25.13-.36.24-.19.24-.25.4c-.06.16-.09.35-.09.56s.03.39.09.55c.06.16.14.29.24.41.1.11.22.19.36.25s.28.08.43.08c.17,0,.32-.03.44-.08.12-.05.22-.11.3-.19.08-.08.14-.16.19-.25s.08-.17.1-.24l.63.28c-.05.13-.11.27-.2.4-.09.14-.2.26-.34.37s-.3.2-.49.27c-.19.07-.4.1-.64.1-.27,0-.52-.05-.75-.15s-.42-.24-.58-.41-.29-.38-.39-.62-.14-.5-.14-.78.05-.55.14-.79.22-.45.39-.62c.17-.17.36-.3.59-.4.23-.1.47-.14.73-.14.24,0,.46.03.65.1.19.07.35.16.48.27.14.11.24.24.33.38.08.14.14.28.18.42l-.65.28c-.03-.09-.06-.18-.11-.28s-.11-.17-.19-.25c-.08-.07-.17-.14-.29-.18-.11-.05-.25-.07-.41-.07Z"/>
    <path class="cls-2" d="M184.88,131.23c.28,0,.53.05.76.15.23.1.43.24.6.41.17.17.3.38.39.62.09.24.14.5.14.78s-.05.54-.14.78-.22.45-.39.62-.37.31-.6.41-.48.15-.76.15-.53-.05-.76-.15-.43-.24-.6-.41c-.17-.17-.3-.38-.39-.62s-.14-.5-.14-.78.05-.54.14-.78c.09-.24.22-.44.39-.62.17-.17.37-.31.6-.41.23-.1.48-.15.76-.15ZM184.88,134.49c.15,0,.3-.03.44-.08.14-.05.26-.14.37-.25.11-.11.19-.25.25-.41.06-.16.09-.35.09-.57s-.03-.4-.09-.56c-.06-.16-.14-.3-.25-.41s-.23-.2-.37-.25c-.14-.06-.28-.08-.44-.08s-.3.03-.44.08c-.14.06-.26.14-.37.25s-.19.25-.25.41c-.06.16-.09.35-.09.56s.03.4.09.57c.06.16.14.3.25.41.11.11.23.2.37.25.14.06.28.08.44.08Z"/>
    <path class="cls-2" d="M187.67,135.02v-3.68h.69v.49c.12-.2.28-.35.49-.45.21-.1.42-.14.63-.14.23,0,.44.06.65.17.2.11.35.29.46.53.15-.26.33-.45.55-.55.22-.1.45-.15.68-.15.16,0,.31.03.47.08.15.06.29.14.41.26s.22.26.29.44.11.38.11.62v2.39h-.71v-2.31c0-.24-.06-.44-.19-.6s-.32-.24-.59-.24c-.25,0-.46.09-.62.26-.16.18-.23.4-.23.66v2.22h-.72v-2.31c0-.24-.06-.44-.18-.6s-.32-.24-.6-.24c-.26,0-.47.09-.62.26-.16.17-.23.4-.23.67v2.22h-.71Z"/>
    <path class="cls-2" d="M194.23,135.02v-5.54h.71v2.38c.09-.16.23-.31.44-.44.21-.13.47-.19.77-.19.28,0,.53.05.73.15s.38.24.53.41.25.38.32.62.11.48.11.75-.04.53-.11.77c-.08.24-.19.44-.33.62-.14.18-.32.31-.54.42-.21.1-.45.15-.73.15s-.51-.06-.71-.17c-.2-.11-.36-.27-.48-.47v.54h-.71ZM197.11,133.16c0-.4-.1-.71-.29-.94-.19-.23-.46-.35-.79-.35-.16,0-.3.03-.44.09-.13.06-.25.15-.35.26s-.17.24-.23.4c-.05.16-.08.34-.08.54s.03.38.08.54c.05.16.13.3.23.42s.21.2.35.26.28.09.44.09c.33,0,.59-.12.79-.36s.29-.56.29-.96Z"/>
    <path class="cls-2" d="M198.6,129.95c0-.15.05-.27.15-.37.1-.1.22-.15.36-.15s.27.05.37.15c.1.1.15.22.15.37s-.05.26-.15.36-.22.15-.37.15-.26-.05-.36-.15c-.1-.1-.15-.22-.15-.36ZM198.76,135.02v-3.68h.71v3.68h-.71Z"/>
    <path class="cls-2" d="M201.41,135.02h-.72v-3.68h.7v.53c.13-.23.3-.39.5-.49.2-.1.41-.14.63-.14s.41.04.58.11c.17.07.3.18.41.31.11.13.19.29.25.46.05.18.08.37.08.57v2.33h-.72v-2.21c0-.13-.01-.25-.04-.36-.03-.11-.08-.21-.15-.29-.07-.08-.16-.15-.27-.2-.11-.05-.24-.07-.4-.07-.14,0-.27.03-.38.08-.11.05-.2.12-.27.22s-.12.2-.16.32c-.04.12-.05.25-.05.39v2.13Z"/>
    <path class="cls-2" d="M204.76,134.03c0-.16.03-.31.08-.44.06-.13.13-.24.23-.33.1-.09.22-.17.36-.22.14-.06.29-.1.44-.12l.99-.14c.11-.02.19-.05.23-.1s.06-.11.06-.18c0-.18-.06-.33-.19-.46-.12-.13-.33-.2-.61-.2-.25,0-.45.07-.59.21-.14.14-.22.32-.25.53l-.69-.16c.02-.17.07-.33.16-.48s.19-.27.33-.38c.13-.1.29-.19.46-.24s.36-.09.56-.09c.28,0,.51.04.7.11.19.07.35.17.47.29.12.12.21.26.27.43.06.16.08.33.08.51v1.84c0,.16,0,.29.01.39.01.1.02.17.03.21h-.7s-.02-.11-.03-.18c0-.08-.01-.18-.01-.31-.04.07-.09.13-.16.21-.07.07-.15.14-.25.2-.1.06-.21.11-.34.15-.13.04-.28.06-.44.06-.19,0-.36-.03-.51-.09-.15-.06-.28-.14-.39-.24s-.19-.21-.25-.35-.09-.27-.09-.42ZM206.09,134.53c.15,0,.29-.02.42-.06s.24-.1.34-.18c.09-.08.17-.2.23-.34.06-.14.08-.31.08-.51v-.17l-1.12.17c-.15.03-.28.08-.38.17-.1.09-.15.22-.15.38,0,.14.05.26.16.37.11.11.25.16.44.16Z"/>
    <path class="cls-2" d="M209.95,131.34h.79v.65h-.79v1.91c0,.17.04.29.11.38s.21.12.4.12c.05,0,.1,0,.15,0,.06,0,.1-.01.13-.02v.61s-.09.02-.18.04c-.09.02-.19.03-.31.03-.32,0-.57-.09-.75-.27-.18-.18-.28-.44-.28-.78v-2.02h-.7v-.65h.2c.2,0,.34-.05.43-.16.09-.11.13-.24.13-.41v-.6h.66v1.16Z"/>
    <path class="cls-2" d="M211.54,129.95c0-.15.05-.27.15-.37.1-.1.22-.15.36-.15s.27.05.37.15c.1.1.15.22.15.37s-.05.26-.15.36-.22.15-.37.15-.26-.05-.36-.15c-.1-.1-.15-.22-.15-.36ZM211.7,135.02v-3.68h.71v3.68h-.71Z"/>
    <path class="cls-2" d="M215.21,131.23c.28,0,.53.05.76.15.23.1.43.24.6.41.17.17.3.38.39.62.09.24.14.5.14.78s-.05.54-.14.78-.22.45-.39.62-.37.31-.6.41-.48.15-.76.15-.53-.05-.76-.15-.43-.24-.6-.41c-.17-.17-.3-.38-.39-.62s-.14-.5-.14-.78.05-.54.14-.78c.09-.24.22-.44.39-.62.17-.17.37-.31.6-.41.23-.1.48-.15.76-.15ZM215.21,134.49c.15,0,.3-.03.44-.08.14-.05.26-.14.37-.25.11-.11.19-.25.25-.41.06-.16.09-.35.09-.57s-.03-.4-.09-.56c-.06-.16-.14-.3-.25-.41s-.23-.2-.37-.25c-.14-.06-.28-.08-.44-.08s-.3.03-.44.08c-.14.06-.26.14-.37.25s-.19.25-.25.41c-.06.16-.09.35-.09.56s.03.4.09.57c.06.16.14.3.25.41.11.11.23.2.37.25.14.06.28.08.44.08Z"/>
    <path class="cls-2" d="M218.73,135.02h-.72v-3.68h.7v.53c.13-.23.3-.39.5-.49.2-.1.41-.14.63-.14s.41.04.58.11c.17.07.3.18.41.31.11.13.19.29.25.46.05.18.08.37.08.57v2.33h-.72v-2.21c0-.13-.01-.25-.04-.36-.03-.11-.08-.21-.15-.29-.07-.08-.16-.15-.27-.2-.11-.05-.24-.07-.4-.07-.14,0-.27.03-.38.08-.11.05-.2.12-.27.22s-.12.2-.16.32c-.04.12-.05.25-.05.39v2.13Z"/>
  </g>
  <g>
    <rect class="cls-4" x="246.39" y="99.5" width="33.42" height="24.26"/>
    <path class="cls-2" d="M251.78,105.15c-.35,0-.69-.06-1.01-.19-.32-.12-.61-.31-.86-.55s-.45-.54-.6-.89c-.15-.35-.23-.75-.23-1.21s.08-.86.23-1.21c.15-.35.36-.64.61-.88.25-.24.54-.42.86-.55.32-.12.65-.19.99-.19.31,0,.6.04.86.12s.49.2.7.34c.2.15.38.33.52.54.14.21.25.45.32.71l-.7.25c-.1-.41-.3-.73-.58-.95s-.66-.33-1.1-.33c-.24,0-.48.04-.71.13-.23.09-.44.22-.62.4-.18.18-.33.4-.43.67-.11.27-.16.58-.16.93s.05.66.16.93c.11.27.25.49.43.67.18.18.39.32.62.41s.47.13.71.13c.23,0,.44-.03.63-.1s.36-.16.5-.27.27-.25.37-.41c.1-.16.18-.33.23-.52l.67.25c-.07.25-.18.49-.32.7-.14.21-.32.4-.52.55-.2.15-.43.27-.7.36-.26.09-.55.13-.86.13Z"/>
    <path class="cls-2" d="M255.81,105.03h-.72v-5.54h.72v2.29c.13-.19.3-.33.5-.41.2-.08.41-.12.62-.12s.41.04.58.11c.17.07.3.18.41.31.11.13.19.29.25.46.05.18.08.37.08.57v2.33h-.72v-2.21c0-.13-.01-.25-.04-.36-.03-.11-.08-.21-.15-.29-.07-.08-.16-.15-.27-.2-.11-.05-.24-.07-.4-.07-.14,0-.26.03-.36.08s-.19.12-.26.21-.13.19-.16.31-.06.24-.07.38v2.16Z"/>
    <path class="cls-2" d="M259.16,104.05c0-.16.03-.31.08-.44.06-.13.13-.24.23-.33.1-.09.22-.17.36-.22.14-.06.29-.1.44-.12l.99-.14c.11-.02.19-.05.23-.1s.06-.11.06-.18c0-.18-.06-.33-.19-.46-.12-.13-.33-.2-.61-.2-.25,0-.45.07-.59.21-.14.14-.22.32-.25.53l-.69-.16c.02-.17.07-.33.16-.48s.19-.27.33-.38c.13-.1.29-.19.46-.24s.36-.09.56-.09c.28,0,.51.04.7.11.19.07.35.17.47.29.12.12.21.26.27.43.06.16.08.33.08.51v1.84c0,.16,0,.29.01.39.01.1.02.17.03.21h-.7s-.02-.11-.03-.18c0-.08-.01-.18-.01-.31-.04.07-.09.13-.16.21-.07.07-.15.14-.25.2-.1.06-.21.11-.34.15-.13.04-.28.06-.44.06-.19,0-.36-.03-.51-.09-.15-.06-.28-.14-.39-.24s-.19-.21-.25-.35-.09-.27-.09-.42ZM260.49,104.54c.15,0,.29-.02.42-.06s.24-.1.34-.18c.09-.08.17-.2.23-.34.06-.14.08-.31.08-.51v-.17l-1.12.17c-.15.03-.28.08-.38.17-.1.09-.15.22-.15.38,0,.14.05.26.16.37.11.11.25.16.44.16Z"/>
    <path class="cls-2" d="M264.11,105.03h-.72v-3.68h.7v.53c.13-.23.3-.39.5-.49.2-.1.41-.14.63-.14s.41.04.58.11c.17.07.3.18.41.31.11.13.19.29.25.46.05.18.08.37.08.57v2.33h-.72v-2.21c0-.13-.01-.25-.04-.36-.03-.11-.08-.21-.15-.29-.07-.08-.16-.15-.27-.2-.11-.05-.24-.07-.4-.07-.14,0-.27.03-.38.08-.11.05-.2.12-.27.22s-.12.2-.16.32c-.04.12-.05.25-.05.39v2.13Z"/>
    <path class="cls-2" d="M268.4,105.03h-.72v-3.68h.7v.53c.13-.23.3-.39.5-.49.2-.1.41-.14.63-.14s.41.04.58.11c.17.07.3.18.41.31.11.13.19.29.25.46.05.18.08.37.08.57v2.33h-.72v-2.21c0-.13-.01-.25-.04-.36-.03-.11-.08-.21-.15-.29-.07-.08-.16-.15-.27-.2-.11-.05-.24-.07-.4-.07-.14,0-.27.03-.38.08-.11.05-.2.12-.27.22s-.12.2-.16.32c-.04.12-.05.25-.05.39v2.13Z"/>
    <path class="cls-2" d="M275.19,103.99c-.05.16-.13.32-.23.46-.1.14-.22.26-.36.37-.14.1-.3.19-.48.25-.18.06-.37.09-.59.09-.25,0-.48-.04-.7-.13-.22-.09-.42-.21-.59-.38-.17-.17-.31-.38-.41-.62-.1-.25-.15-.52-.15-.83,0-.29.05-.55.15-.79.1-.24.23-.44.39-.61.16-.17.35-.3.56-.4.21-.09.44-.14.67-.14.28,0,.53.05.75.14.22.1.41.23.55.39.15.17.26.37.34.61.08.24.12.5.12.78,0,.05,0,.09,0,.13s0,.07-.01.1h-2.77c0,.16.04.31.09.45.06.14.13.26.23.36s.22.18.35.23c.13.05.28.08.43.08.3,0,.53-.07.69-.21s.27-.32.34-.53l.62.21ZM274.46,102.82c-.01-.26-.1-.49-.27-.67-.17-.18-.42-.27-.74-.27-.15,0-.29.03-.41.08-.12.05-.22.12-.31.21-.08.09-.15.19-.2.3-.05.11-.08.23-.08.34h2.01Z"/>
    <path class="cls-2" d="M276.13,105.03v-5.54h.72v5.54h-.72Z"/>
    <path class="cls-2" d="M253.46,114.21v-4.22l-1.85,4.22h-.69l-1.83-4.22v4.22h-.74v-5.42h1.02l1.91,4.41,1.93-4.41h1v5.42h-.74Z"/>
    <path class="cls-2" d="M255.27,113.22c0-.16.03-.31.08-.44.06-.13.13-.24.23-.33.1-.09.22-.17.36-.22s.29-.1.44-.12l.99-.14c.11-.02.19-.05.23-.1s.06-.11.06-.18c0-.18-.06-.33-.19-.46-.12-.13-.33-.2-.61-.2-.25,0-.45.07-.59.21s-.22.32-.25.53l-.69-.16c.02-.17.07-.33.16-.48.08-.15.19-.27.33-.38s.29-.19.46-.25.36-.09.56-.09c.28,0,.51.04.7.11.19.07.35.17.47.29.12.12.21.26.27.43.06.16.08.33.08.51v1.84c0,.16,0,.29.01.39.01.1.02.17.03.21h-.7s-.02-.11-.03-.18-.01-.18-.01-.31c-.04.07-.09.14-.16.21s-.15.14-.25.2c-.1.06-.21.11-.34.15-.13.04-.28.06-.44.06-.19,0-.36-.03-.51-.09s-.28-.14-.39-.24-.19-.21-.25-.35-.09-.27-.09-.42ZM256.6,113.72c.15,0,.29-.02.42-.06.13-.04.24-.1.34-.18.09-.08.17-.2.23-.34.06-.14.08-.31.08-.51v-.17l-1.12.17c-.15.03-.28.08-.38.17-.1.09-.15.22-.15.38,0,.14.05.26.16.37.11.11.25.16.44.16Z"/>
    <path class="cls-2" d="M260.22,114.21h-.72v-3.68h.7v.53c.13-.23.3-.39.5-.49s.41-.15.63-.15.41.04.58.11c.17.07.3.18.41.31s.19.28.25.46c.05.18.08.37.08.57v2.33h-.72v-2.21c0-.13-.01-.25-.04-.36-.03-.11-.08-.21-.15-.29-.07-.08-.16-.15-.27-.2s-.24-.07-.4-.07c-.14,0-.27.03-.38.08-.11.05-.2.13-.27.22s-.12.2-.16.32c-.04.12-.05.25-.05.39v2.13Z"/>
    <path class="cls-2" d="M263.56,113.22c0-.16.03-.31.08-.44.06-.13.13-.24.23-.33.1-.09.22-.17.36-.22s.29-.1.44-.12l.99-.14c.11-.02.19-.05.23-.1s.06-.11.06-.18c0-.18-.06-.33-.19-.46-.12-.13-.33-.2-.61-.2-.25,0-.45.07-.59.21s-.22.32-.25.53l-.69-.16c.02-.17.07-.33.16-.48.08-.15.19-.27.33-.38s.29-.19.46-.25.36-.09.56-.09c.28,0,.51.04.7.11.19.07.35.17.47.29.12.12.21.26.27.43.06.16.08.33.08.51v1.84c0,.16,0,.29.01.39.01.1.02.17.03.21h-.7s-.02-.11-.03-.18-.01-.18-.01-.31c-.04.07-.09.14-.16.21s-.15.14-.25.2c-.1.06-.21.11-.34.15-.13.04-.28.06-.44.06-.19,0-.36-.03-.51-.09s-.28-.14-.39-.24-.19-.21-.25-.35-.09-.27-.09-.42ZM264.9,113.72c.15,0,.29-.02.42-.06.13-.04.24-.1.34-.18.09-.08.17-.2.23-.34.06-.14.08-.31.08-.51v-.17l-1.12.17c-.15.03-.28.08-.38.17-.1.09-.15.22-.15.38,0,.14.05.26.16.37.11.11.25.16.44.16Z"/>
    <path class="cls-2" d="M268.22,114.25c.03.26.13.48.31.65.18.17.41.26.69.26.39,0,.67-.1.85-.3s.27-.5.27-.89v-.53c-.09.17-.23.31-.42.43-.19.12-.43.18-.7.18-.24,0-.47-.04-.68-.13-.21-.09-.38-.21-.54-.37-.15-.15-.27-.34-.35-.56-.08-.22-.13-.46-.13-.72s.04-.48.12-.7c.08-.22.2-.41.34-.57.15-.16.32-.29.53-.38.21-.09.44-.14.69-.14.29,0,.52.05.71.15s.33.24.42.43v-.51h.71v3.4c0,.23-.03.46-.09.68-.06.22-.16.42-.31.59s-.33.31-.57.41-.53.16-.87.16c-.23,0-.44-.03-.64-.1-.2-.07-.37-.16-.52-.29s-.27-.27-.37-.43c-.09-.17-.15-.35-.17-.55l.7-.16ZM269.33,113.43c.31,0,.56-.11.76-.32.19-.21.29-.5.29-.86s-.1-.64-.29-.86c-.19-.21-.45-.32-.76-.32s-.58.11-.77.32c-.19.21-.29.5-.29.86s.1.65.29.86c.19.21.45.32.78.32Z"/>
    <path class="cls-2" d="M275.42,113.16c-.05.16-.13.32-.23.46-.1.14-.22.26-.36.37-.14.11-.3.19-.48.25-.18.06-.37.09-.59.09-.25,0-.48-.04-.7-.13-.22-.09-.42-.21-.59-.38-.17-.17-.31-.37-.41-.62-.1-.24-.15-.52-.15-.83,0-.29.05-.55.15-.79.1-.24.23-.44.39-.61.16-.17.35-.3.56-.4.21-.09.44-.14.67-.14.28,0,.53.05.75.14s.41.23.55.39c.15.17.26.37.34.61s.12.5.12.78c0,.04,0,.09,0,.13s0,.07-.01.1h-2.77c0,.16.04.31.09.45.06.14.13.26.23.36s.22.18.35.23.28.08.43.08c.3,0,.53-.07.69-.21s.27-.32.34-.53l.62.21ZM274.69,111.99c-.01-.26-.1-.49-.27-.67-.17-.18-.42-.27-.74-.27-.15,0-.29.03-.41.08-.12.05-.22.12-.31.21-.08.09-.15.19-.2.3s-.08.23-.08.34h2.01Z"/>
    <path class="cls-2" d="M278.4,111.26c-.11-.02-.21-.02-.31-.02-.3,0-.54.09-.73.26-.19.18-.28.46-.28.87v1.84h-.72v-3.68h.7v.64c.07-.14.14-.26.23-.35.09-.09.18-.16.28-.21s.2-.09.3-.11c.1-.02.2-.03.29-.03.05,0,.1,0,.14,0,.04,0,.08.01.1.01v.77Z"/>
  </g>
  <g>
    <rect class="cls-4" x="170.48" y="52.65" width="27.56" height="8.4"/>
    <path class="cls-6" d="M173.96,54.23c-.01-.1-.05-.2-.1-.31-.05-.11-.12-.21-.21-.3s-.21-.17-.34-.23-.3-.09-.49-.09c-.15,0-.29.02-.42.07-.13.05-.24.11-.33.19-.09.08-.17.18-.22.29-.05.11-.08.23-.08.36,0,.19.06.36.18.5s.29.24.52.29l.81.18c.45.1.8.29,1.04.55.24.27.36.59.36.97,0,.21-.04.41-.13.6s-.21.36-.37.51c-.16.15-.36.27-.59.36-.23.09-.49.13-.78.13-.33,0-.61-.05-.85-.14-.24-.1-.45-.22-.61-.38-.17-.15-.29-.32-.39-.52s-.15-.38-.18-.58l.72-.23c.02.15.05.3.11.44s.14.26.25.37c.11.11.24.19.4.26.16.06.34.1.54.1.37,0,.65-.08.84-.25.19-.17.28-.37.28-.61,0-.19-.07-.37-.2-.52-.13-.15-.34-.26-.61-.32l-.77-.17c-.39-.09-.71-.25-.95-.5s-.37-.58-.37-.98c0-.21.05-.42.14-.61.09-.19.22-.36.38-.51.16-.15.35-.27.57-.36s.45-.13.7-.13c.31,0,.57.04.78.13s.4.19.54.33c.14.13.26.28.34.44.08.16.14.31.17.46l-.67.24Z"/>
    <path class="cls-6" d="M175.71,58.18v-5.42h1.9c.34,0,.67.06.98.18s.59.29.82.52.42.51.56.85c.14.34.21.73.21,1.17s-.07.83-.21,1.17c-.14.34-.33.62-.57.84s-.52.4-.83.51c-.31.11-.64.17-.98.17h-1.88ZM177.56,57.52c.25,0,.49-.04.71-.13.22-.08.42-.21.59-.38.17-.17.3-.38.4-.63.1-.26.15-.55.15-.89s-.05-.64-.15-.9c-.1-.26-.23-.47-.39-.64-.17-.17-.36-.3-.58-.39-.22-.09-.46-.13-.71-.13h-1.12v4.09h1.11Z"/>
    <path class="cls-6" d="M183.08,58.3c-.28,0-.53-.04-.77-.12-.24-.08-.44-.21-.62-.38s-.31-.37-.41-.62c-.1-.25-.15-.53-.15-.85v-3.57h.74v3.55c0,.41.11.73.32.96.21.22.51.34.89.34s.68-.11.89-.34.31-.54.31-.96v-3.55h.75v3.57c0,.32-.05.6-.15.85-.1.24-.24.45-.41.62s-.38.29-.62.38c-.24.08-.49.12-.77.12Z"/>
    <path class="cls-6" d="M186.56,57c.03.19.11.36.25.49.14.13.34.2.6.2.2,0,.36-.05.47-.14.11-.1.16-.21.16-.34,0-.12-.04-.22-.12-.3-.08-.08-.2-.14-.35-.18l-.63-.14c-.29-.06-.52-.18-.68-.37s-.24-.41-.24-.67c0-.16.04-.31.1-.45.07-.14.16-.26.28-.37s.26-.19.42-.25c.16-.06.33-.09.51-.09.25,0,.46.04.63.11.17.07.31.16.42.26.11.1.19.21.24.32.05.11.09.21.11.29l-.63.24s-.03-.1-.05-.18c-.03-.07-.07-.14-.12-.2s-.13-.12-.23-.17c-.1-.04-.22-.07-.36-.07-.18,0-.33.05-.44.15-.11.1-.17.21-.17.34,0,.24.14.38.42.44l.6.13c.34.07.59.2.76.39s.26.42.26.7c0,.13-.03.27-.08.4-.06.13-.14.25-.25.37-.11.11-.25.2-.42.27-.17.07-.37.1-.6.1-.25,0-.47-.04-.65-.11s-.33-.16-.45-.27c-.12-.11-.21-.22-.28-.35-.06-.12-.1-.24-.12-.35l.65-.23Z"/>
  </g>
  <g>
    <rect class="cls-4" x="170.48" y="157.14" width="27.56" height="8.4"/>
    <path class="cls-6" d="M171.92,160.45v2.22h-.75v-5.42h1.97c.25,0,.48.04.68.12.21.08.38.2.53.34.15.15.26.32.34.51.08.19.12.4.12.63s-.04.44-.12.64c-.08.2-.2.36-.34.5-.14.14-.32.25-.53.33-.21.08-.43.12-.68.12h-1.22ZM173.01,159.78c.33,0,.58-.08.77-.25.19-.17.28-.39.28-.67s-.09-.52-.28-.69c-.19-.17-.44-.25-.77-.25h-1.09v1.86h1.09Z"/>
    <path class="cls-6" d="M175.74,162.67v-5.42h1.9c.34,0,.67.06.98.18s.59.29.82.52c.23.23.42.51.56.85.14.34.21.73.21,1.17s-.07.83-.21,1.17c-.14.34-.33.62-.57.85-.24.23-.52.4-.83.51-.31.12-.64.17-.98.17h-1.88ZM177.6,162.01c.25,0,.49-.04.71-.13s.42-.21.59-.38.3-.38.4-.63c.1-.25.15-.55.15-.89s-.05-.64-.15-.9c-.1-.26-.23-.47-.39-.64-.17-.17-.36-.3-.58-.39-.22-.09-.46-.13-.71-.13h-1.12v4.09h1.11Z"/>
    <path class="cls-6" d="M183.12,162.79c-.28,0-.53-.04-.77-.13s-.44-.21-.62-.38c-.18-.17-.31-.37-.41-.62-.1-.24-.15-.53-.15-.85v-3.57h.74v3.55c0,.41.11.73.32.96.21.22.51.34.89.34s.68-.11.89-.34c.21-.22.31-.54.31-.96v-3.55h.75v3.57c0,.32-.05.6-.15.85-.1.25-.24.45-.41.62-.18.17-.38.29-.62.38-.24.08-.49.13-.77.13Z"/>
    <path class="cls-6" d="M186.59,161.49c.03.19.11.36.25.49s.34.2.6.2c.2,0,.36-.05.47-.15.11-.1.16-.21.16-.34,0-.12-.04-.22-.12-.3-.08-.08-.2-.14-.35-.18l-.63-.14c-.29-.06-.52-.18-.68-.37s-.24-.41-.24-.67c0-.16.04-.31.1-.45.07-.14.16-.26.28-.37.12-.11.26-.19.42-.25.16-.06.33-.09.51-.09.25,0,.46.04.63.11.17.07.31.16.42.26.11.11.19.21.24.33.05.11.09.21.11.29l-.63.24s-.03-.11-.05-.18c-.03-.07-.07-.14-.12-.2-.06-.06-.13-.12-.23-.16-.1-.05-.22-.07-.36-.07-.18,0-.33.05-.44.15s-.17.21-.17.34c0,.23.14.38.42.44l.6.13c.34.07.59.2.76.39.17.19.26.42.26.7,0,.13-.03.26-.08.4-.06.13-.14.25-.25.37-.11.11-.25.2-.42.27s-.37.1-.6.1c-.25,0-.47-.04-.65-.11s-.33-.16-.45-.27c-.12-.11-.21-.22-.28-.35-.06-.12-.1-.24-.12-.35l.65-.23Z"/>
  </g>
  <g>
    <rect class="cls-4" x="272.42" y="52.65" width="27.56" height="8.4"/>
    <path class="cls-6" d="M274.58,55.06c-.15,0-.29.03-.42.08s-.25.13-.36.24-.19.24-.25.4c-.06.16-.09.35-.09.56s.03.39.09.55c.06.16.14.29.24.41.1.11.22.19.36.25s.28.08.43.08c.17,0,.32-.03.44-.08.12-.05.22-.11.3-.19.08-.08.14-.16.19-.25s.08-.17.1-.24l.63.28c-.05.13-.11.27-.2.4-.09.14-.2.26-.34.37s-.3.2-.49.27c-.19.07-.4.1-.64.1-.27,0-.52-.05-.75-.15s-.42-.24-.58-.41-.29-.38-.39-.62-.14-.5-.14-.78.05-.55.14-.79.22-.45.39-.62c.17-.17.36-.3.59-.4.23-.1.47-.14.73-.14.24,0,.46.03.65.1.19.07.35.16.48.27.14.11.24.24.33.38.08.14.14.28.18.42l-.65.28c-.03-.09-.06-.18-.11-.28s-.11-.17-.19-.25c-.08-.07-.17-.14-.29-.18-.11-.05-.25-.07-.41-.07Z"/>
    <path class="cls-6" d="M278.66,54.39c.28,0,.53.05.76.15.23.1.43.24.6.41.17.17.3.38.39.62.09.24.14.5.14.78s-.05.54-.14.78-.22.45-.39.62-.37.31-.6.41-.48.15-.76.15-.53-.05-.76-.15-.43-.24-.6-.41c-.17-.17-.3-.38-.39-.62s-.14-.5-.14-.78.05-.54.14-.78c.09-.24.22-.44.39-.62.17-.17.37-.31.6-.41.23-.1.48-.15.76-.15ZM278.66,57.66c.15,0,.3-.03.44-.08.14-.05.26-.14.37-.25.11-.11.19-.25.25-.41.06-.16.09-.35.09-.57s-.03-.4-.09-.56c-.06-.16-.14-.3-.25-.41s-.23-.2-.37-.25c-.14-.06-.28-.08-.44-.08s-.3.03-.44.08c-.14.06-.26.14-.37.25s-.19.25-.25.41c-.06.16-.09.35-.09.56s.03.4.09.57c.06.16.14.3.25.41.11.11.23.2.37.25.14.06.28.08.44.08Z"/>
    <path class="cls-6" d="M282.18,58.18h-.72v-3.68h.7v.53c.13-.23.3-.39.5-.49.2-.1.41-.14.63-.14s.41.04.58.11c.17.07.3.18.41.31.11.13.19.29.25.46.05.18.08.37.08.57v2.33h-.72v-2.21c0-.13-.01-.25-.04-.36-.03-.11-.08-.21-.15-.29-.07-.08-.16-.15-.27-.2-.11-.05-.24-.07-.4-.07-.14,0-.27.03-.38.08-.11.05-.2.12-.27.22s-.12.2-.16.32c-.04.12-.05.25-.05.39v2.13Z"/>
    <path class="cls-6" d="M286.72,54.51h.79v.65h-.79v1.91c0,.17.04.29.11.38s.21.12.4.12c.05,0,.1,0,.15,0,.06,0,.1-.01.13-.02v.61s-.09.02-.18.04c-.09.02-.19.03-.31.03-.32,0-.57-.09-.75-.27-.18-.18-.28-.44-.28-.78v-2.02h-.7v-.65h.2c.2,0,.34-.05.43-.16.09-.11.13-.24.13-.41v-.6h.66v1.16Z"/>
    <path class="cls-6" d="M290.51,55.23c-.11-.01-.21-.02-.31-.02-.3,0-.54.09-.73.26-.19.18-.28.46-.28.87v1.84h-.72v-3.68h.7v.64c.07-.14.14-.26.23-.35.09-.09.18-.16.28-.21.1-.05.2-.09.3-.11.1-.02.2-.03.29-.03.05,0,.1,0,.14,0,.04,0,.08.01.1.02v.76Z"/>
    <path class="cls-6" d="M292.85,54.39c.28,0,.53.05.76.15.23.1.43.24.6.41.17.17.3.38.39.62.09.24.14.5.14.78s-.05.54-.14.78-.22.45-.39.62-.37.31-.6.41-.48.15-.76.15-.53-.05-.76-.15-.43-.24-.6-.41c-.17-.17-.3-.38-.39-.62s-.14-.5-.14-.78.05-.54.14-.78c.09-.24.22-.44.39-.62.17-.17.37-.31.6-.41.23-.1.48-.15.76-.15ZM292.85,57.66c.15,0,.3-.03.44-.08.14-.05.26-.14.37-.25.11-.11.19-.25.25-.41.06-.16.09-.35.09-.57s-.03-.4-.09-.56c-.06-.16-.14-.3-.25-.41s-.23-.2-.37-.25c-.14-.06-.28-.08-.44-.08s-.3.03-.44.08c-.14.06-.26.14-.37.25s-.19.25-.25.41c-.06.16-.09.35-.09.56s.03.4.09.57c.06.16.14.3.25.41.11.11.23.2.37.25.14.06.28.08.44.08Z"/>
    <path class="cls-6" d="M295.65,58.18v-5.54h.72v5.54h-.72Z"/>
  </g>
  <g>
    <rect class="cls-4" x="272.42" y="157.14" width="27.56" height="8.4"/>
    <path class="cls-6" d="M274.58,159.54c-.15,0-.29.03-.42.08-.13.05-.25.13-.36.24-.1.11-.19.24-.25.4-.06.16-.09.35-.09.56s.03.39.09.55c.06.16.14.3.24.41.1.11.22.19.36.25.14.06.28.08.43.08.17,0,.32-.03.44-.08.12-.05.22-.12.3-.19s.14-.16.19-.25.08-.17.1-.24l.63.27c-.05.13-.11.27-.2.4s-.2.26-.34.37c-.14.11-.3.2-.49.27-.19.07-.4.1-.64.1-.27,0-.52-.05-.75-.15-.23-.1-.42-.24-.58-.41s-.29-.38-.39-.62c-.09-.24-.14-.5-.14-.78s.05-.55.14-.79.22-.44.39-.62c.17-.17.36-.3.59-.4.23-.1.47-.15.73-.15.24,0,.46.03.65.1.19.07.35.16.48.27.14.11.24.24.33.38.08.14.14.28.18.42l-.65.28c-.03-.09-.06-.18-.11-.28-.05-.09-.11-.17-.19-.25s-.17-.13-.29-.18c-.11-.05-.25-.07-.41-.07Z"/>
    <path class="cls-6" d="M278.66,158.88c.28,0,.53.05.76.15s.43.24.6.41c.17.17.3.38.39.62.09.24.14.5.14.78s-.05.54-.14.78c-.09.24-.22.45-.39.62s-.37.31-.6.41c-.23.1-.48.15-.76.15s-.53-.05-.76-.15c-.23-.1-.43-.24-.6-.41-.17-.17-.3-.38-.39-.62-.09-.24-.14-.5-.14-.78s.05-.54.14-.78c.09-.24.22-.44.39-.62.17-.17.37-.31.6-.41s.48-.15.76-.15ZM278.66,162.14c.15,0,.3-.03.44-.08.14-.06.26-.14.37-.25.11-.11.19-.25.25-.41.06-.16.09-.35.09-.57s-.03-.4-.09-.56c-.06-.16-.14-.3-.25-.41s-.23-.2-.37-.25c-.14-.05-.28-.08-.44-.08s-.3.03-.44.08c-.14.06-.26.14-.37.25s-.19.25-.25.41c-.06.16-.09.35-.09.56s.03.4.09.57c.06.16.14.3.25.41.11.11.23.2.37.25.14.06.28.08.44.08Z"/>
    <path class="cls-6" d="M282.18,162.67h-.72v-3.68h.7v.53c.13-.23.3-.39.5-.49.2-.1.41-.15.63-.15s.41.04.58.11c.17.07.3.18.41.31.11.13.19.28.25.46.05.18.08.37.08.57v2.33h-.72v-2.21c0-.13-.01-.25-.04-.36-.03-.11-.08-.21-.15-.29-.07-.08-.16-.15-.27-.2-.11-.05-.24-.07-.4-.07-.14,0-.27.03-.38.08-.11.05-.2.13-.27.22s-.12.2-.16.32c-.04.12-.05.25-.05.39v2.12Z"/>
    <path class="cls-6" d="M286.72,158.99h.79v.65h-.79v1.91c0,.17.04.29.11.38s.21.13.4.13c.05,0,.1,0,.15,0,.06,0,.1-.01.13-.02v.61s-.09.03-.18.04-.19.03-.31.03c-.32,0-.57-.09-.75-.27s-.28-.44-.28-.78v-2.02h-.7v-.65h.2c.2,0,.34-.05.43-.16.09-.11.13-.24.13-.41v-.6h.66v1.16Z"/>
    <path class="cls-6" d="M290.51,159.72c-.11-.02-.21-.02-.31-.02-.3,0-.54.09-.73.26-.19.18-.28.47-.28.87v1.84h-.72v-3.68h.7v.64c.07-.14.14-.26.23-.35s.18-.16.28-.21c.1-.05.2-.09.3-.11.1-.02.2-.03.29-.03.05,0,.1,0,.14,0,.04,0,.08,0,.1.01v.76Z"/>
    <path class="cls-6" d="M292.85,158.88c.28,0,.53.05.76.15s.43.24.6.41c.17.17.3.38.39.62.09.24.14.5.14.78s-.05.54-.14.78c-.09.24-.22.45-.39.62s-.37.31-.6.41c-.23.1-.48.15-.76.15s-.53-.05-.76-.15c-.23-.1-.43-.24-.6-.41-.17-.17-.3-.38-.39-.62-.09-.24-.14-.5-.14-.78s.05-.54.14-.78c.09-.24.22-.44.39-.62.17-.17.37-.31.6-.41s.48-.15.76-.15ZM292.85,162.14c.15,0,.3-.03.44-.08.14-.06.26-.14.37-.25.11-.11.19-.25.25-.41.06-.16.09-.35.09-.57s-.03-.4-.09-.56c-.06-.16-.14-.3-.25-.41s-.23-.2-.37-.25c-.14-.05-.28-.08-.44-.08s-.3.03-.44.08c-.14.06-.26.14-.37.25s-.19.25-.25.41c-.06.16-.09.35-.09.56s.03.4.09.57c.06.16.14.3.25.41.11.11.23.2.37.25.14.06.28.08.44.08Z"/>
    <path class="cls-6" d="M295.65,162.67v-5.54h.72v5.54h-.72Z"/>
  </g>
</svg>