<?xml version="1.0" encoding="UTF-8"?>
<svg id="Layer_1" data-name="Layer 1" xmlns="http://www.w3.org/2000/svg" viewBox="0 0 342 253.91">
  <defs>
    <style>
      .cls-1, .cls-2 {
        fill: none;
      }

      .cls-1, .cls-2, .cls-3 {
        stroke: #000;
        stroke-miterlimit: 10;
      }

      .cls-2 {
        stroke-width: .75px;
      }

      .cls-3 {
        fill: #fff;
      }
    </style>
  </defs>
  <g>
    <g>
      <path d="M100.96,90.55v-4.96h.69v4.32h2.34v.64h-3.03Z"/>
      <path d="M104.79,90.55v-4.96h3.02v.64h-2.33v1.53h2.11v.64h-2.11v1.52h2.33v.64h-3.02Z"/>
      <path d="M113.16,86.93c-.01-.09-.04-.18-.09-.28s-.11-.19-.2-.28-.19-.15-.31-.21c-.13-.05-.28-.08-.45-.08-.14,0-.27.02-.38.06-.12.04-.22.1-.3.17-.09.07-.15.16-.2.26-.05.1-.07.21-.07.33,0,.18.05.33.16.46.11.13.27.22.48.26l.74.16c.42.09.73.26.96.5.22.24.33.54.33.89,0,.19-.04.38-.12.55-.08.18-.19.33-.34.47s-.33.24-.54.33c-.21.08-.45.12-.71.12-.3,0-.56-.04-.78-.13-.22-.09-.41-.2-.56-.34-.15-.14-.27-.3-.35-.47-.08-.18-.14-.35-.16-.53l.66-.21c.01.14.05.27.1.4.05.13.13.24.23.34.1.1.22.18.36.23.14.06.31.09.49.09.34,0,.6-.08.77-.23.17-.15.25-.34.25-.56,0-.18-.06-.34-.18-.48s-.31-.24-.56-.29l-.71-.15c-.35-.08-.64-.23-.87-.46s-.34-.53-.34-.9c0-.2.04-.38.13-.56.08-.18.2-.33.35-.47.15-.13.32-.24.52-.33.2-.08.42-.12.64-.12.28,0,.52.04.72.12.2.08.36.18.5.3.13.12.24.25.31.4.08.14.13.29.15.42l-.62.22Z"/>
      <path d="M117.63,89.59c-.05.15-.12.29-.21.42-.09.13-.2.24-.33.34-.13.1-.27.17-.44.23-.16.06-.34.08-.54.08-.22,0-.44-.04-.64-.12s-.39-.2-.54-.35c-.16-.15-.28-.34-.37-.57-.09-.22-.14-.48-.14-.76,0-.27.04-.51.13-.72.09-.22.21-.4.35-.56.15-.16.32-.28.51-.36.2-.09.4-.13.61-.13.26,0,.49.04.69.13.2.09.37.21.51.36.14.15.24.34.31.56.07.22.11.46.11.72,0,.04,0,.08,0,.12,0,.04,0,.07-.01.09h-2.53c0,.15.03.29.08.41.05.13.12.23.21.33.09.09.2.16.32.21.12.05.25.07.4.07.27,0,.48-.07.63-.2.14-.13.25-.29.31-.48l.57.2ZM116.96,88.52c0-.24-.09-.45-.25-.61-.15-.17-.38-.25-.68-.25-.14,0-.27.02-.38.07s-.2.11-.28.2c-.08.08-.14.17-.18.28-.05.1-.07.21-.08.32h1.84Z"/>
      <path d="M119.37,87.18h.73v.6h-.73v1.75c0,.15.03.27.1.35.07.08.19.12.36.12.04,0,.09,0,.14,0,.05,0,.09-.01.12-.02v.56s-.08.02-.16.04-.17.02-.29.02c-.29,0-.52-.08-.69-.25-.17-.17-.25-.4-.25-.71v-1.85h-.64v-.6h.18c.18,0,.31-.05.4-.15.08-.1.12-.22.12-.37v-.55h.6v1.06Z"/>
      <path d="M123.48,88.52v2.03h-.69v-4.96h1.81c.23,0,.44.04.63.11.19.07.35.18.48.31.13.13.24.29.31.46.07.18.11.37.11.58s-.04.41-.11.58c-.08.18-.18.33-.31.46-.13.13-.29.23-.48.3-.19.07-.4.11-.63.11h-1.12ZM124.47,87.91c.3,0,.53-.08.7-.23.17-.15.25-.36.25-.61s-.08-.48-.25-.63c-.17-.15-.41-.23-.7-.23h-.99v1.7h.99Z"/>
      <path d="M126.48,89.65c0-.15.03-.28.08-.4.05-.12.12-.22.21-.3s.2-.15.33-.2c.13-.05.26-.09.41-.11l.91-.13c.1-.01.17-.04.21-.09.04-.05.05-.1.05-.16,0-.16-.06-.3-.17-.42s-.3-.18-.56-.18c-.23,0-.41.06-.54.19-.13.13-.2.29-.22.49l-.63-.15c.02-.16.07-.31.14-.44.08-.14.18-.25.3-.35.12-.1.26-.17.42-.22s.33-.08.51-.08c.25,0,.47.03.64.1.18.07.32.16.43.27s.19.24.25.39c.05.15.08.31.08.47v1.69c0,.15,0,.27.01.36,0,.09.02.15.03.2h-.64s-.02-.1-.02-.17c0-.07-.01-.17-.01-.29-.04.06-.09.12-.15.19s-.14.13-.22.18c-.09.06-.19.1-.31.14-.12.04-.25.05-.4.05-.17,0-.33-.03-.46-.08-.14-.06-.26-.13-.35-.22-.1-.09-.17-.2-.23-.32s-.08-.25-.08-.38ZM127.7,90.1c.13,0,.26-.02.38-.05s.22-.09.31-.17c.09-.08.15-.18.21-.31.05-.13.08-.28.08-.46v-.15l-1.03.15c-.14.02-.26.08-.35.16-.09.08-.14.2-.14.35,0,.13.05.24.15.34.1.1.23.15.4.15Z"/>
      <path d="M131.24,87.18h.73v.6h-.73v1.75c0,.15.03.27.1.35.07.08.19.12.36.12.04,0,.09,0,.14,0,.05,0,.09-.01.12-.02v.56s-.08.02-.16.04-.17.02-.29.02c-.29,0-.52-.08-.69-.25-.17-.17-.25-.4-.25-.71v-1.85h-.64v-.6h.18c.18,0,.31-.05.4-.15.08-.1.12-.22.12-.37v-.55h.6v1.06Z"/>
      <path d="M133.5,90.55h-.66v-5.07h.66v2.09c.12-.18.27-.3.46-.38.18-.08.37-.11.57-.11s.38.03.53.1.28.16.38.28.17.26.22.42c.05.16.07.34.07.53v2.13h-.66v-2.02c0-.12-.01-.23-.04-.33-.03-.1-.07-.19-.13-.27-.06-.08-.14-.14-.25-.18-.1-.04-.22-.07-.37-.07-.13,0-.24.02-.33.07-.1.05-.18.11-.24.19-.07.08-.12.17-.15.28s-.05.22-.06.35v1.98Z"/>
      <path d="M138.59,90.55v-4.96h.69v4.32h2.34v.64h-3.03Z"/>
      <path d="M143.8,87.08c.25,0,.48.05.69.14s.39.22.55.37c.15.16.27.35.36.56s.13.45.13.71-.04.49-.13.71-.2.41-.36.57c-.15.16-.34.28-.55.37s-.44.14-.69.14-.48-.05-.69-.14-.39-.22-.55-.37c-.15-.16-.27-.35-.36-.57s-.13-.46-.13-.71.04-.49.13-.71.2-.4.36-.56c.15-.16.34-.28.55-.37s.44-.14.69-.14ZM143.8,90.07c.14,0,.27-.03.4-.08.13-.05.24-.13.34-.23.1-.1.17-.23.23-.38.06-.15.08-.32.08-.52s-.03-.37-.08-.51c-.06-.15-.13-.27-.23-.38-.1-.1-.21-.18-.34-.23s-.26-.08-.4-.08-.27.03-.4.08-.24.13-.34.23c-.1.1-.17.23-.23.38-.06.15-.08.32-.08.51s.03.37.08.52.13.28.23.38c.1.1.21.18.34.23.13.05.26.08.4.08Z"/>
      <path d="M146.64,89.47c.02.18.1.33.23.45.13.12.31.18.55.18.19,0,.33-.04.43-.13.1-.09.15-.19.15-.31,0-.11-.04-.2-.11-.27-.07-.07-.18-.13-.32-.16l-.57-.13c-.27-.06-.47-.17-.62-.34-.15-.17-.22-.37-.22-.61,0-.14.03-.28.09-.41.06-.13.15-.24.26-.34.11-.1.23-.17.38-.23.15-.06.3-.08.47-.08.23,0,.42.03.58.1.16.07.28.15.38.24s.17.19.22.3.08.19.1.27l-.58.22s-.03-.1-.05-.16-.06-.13-.11-.19-.12-.11-.21-.15-.2-.06-.33-.06c-.17,0-.3.05-.41.14s-.15.2-.15.31c0,.21.13.35.38.41l.55.12c.31.07.54.19.7.36s.23.39.23.64c0,.12-.03.24-.08.36-.05.12-.13.23-.23.34-.1.1-.23.18-.38.25s-.34.09-.55.09c-.23,0-.43-.03-.6-.1-.17-.06-.3-.15-.41-.24-.11-.1-.19-.2-.25-.32-.06-.11-.09-.22-.11-.32l.59-.21Z"/>
      <path d="M149.81,89.47c.02.18.1.33.23.45.13.12.31.18.55.18.19,0,.33-.04.43-.13.1-.09.15-.19.15-.31,0-.11-.04-.2-.11-.27-.07-.07-.18-.13-.32-.16l-.57-.13c-.27-.06-.47-.17-.62-.34-.15-.17-.22-.37-.22-.61,0-.14.03-.28.09-.41.06-.13.15-.24.26-.34.11-.1.23-.17.38-.23.15-.06.3-.08.47-.08.23,0,.42.03.58.1.16.07.28.15.38.24s.17.19.22.3.08.19.1.27l-.58.22s-.03-.1-.05-.16-.06-.13-.11-.19-.12-.11-.21-.15-.2-.06-.33-.06c-.17,0-.3.05-.41.14s-.15.2-.15.31c0,.21.13.35.38.41l.55.12c.31.07.54.19.7.36s.23.39.23.64c0,.12-.03.24-.08.36-.05.12-.13.23-.23.34-.1.1-.23.18-.38.25s-.34.09-.55.09c-.23,0-.43-.03-.6-.1-.17-.06-.3-.15-.41-.24-.11-.1-.19-.2-.25-.32-.06-.11-.09-.22-.11-.32l.59-.21Z"/>
      <path d="M155.95,88.52h-.74v2.03h-.69v-4.96h1.87c.23,0,.44.04.63.12.19.08.35.18.48.32.13.13.23.29.3.47s.1.37.1.58c0,.36-.11.67-.32.92-.21.25-.51.42-.88.49l1.18,2.08h-.8l-1.13-2.03ZM156.25,87.91c.28,0,.51-.08.68-.23s.26-.36.26-.61-.09-.48-.26-.63c-.17-.15-.4-.23-.68-.23h-1.05v1.7h1.05Z"/>
      <path d="M161.57,89.59c-.05.15-.12.29-.21.42-.09.13-.2.24-.33.34-.13.1-.27.17-.44.23-.16.06-.34.08-.54.08-.22,0-.44-.04-.64-.12s-.39-.2-.54-.35c-.16-.15-.28-.34-.37-.57-.09-.22-.14-.48-.14-.76,0-.27.04-.51.13-.72.09-.22.21-.4.35-.56.15-.16.32-.28.51-.36.2-.09.4-.13.61-.13.26,0,.49.04.69.13.2.09.37.21.51.36.14.15.24.34.31.56.07.22.11.46.11.72,0,.04,0,.08,0,.12,0,.04,0,.07-.01.09h-2.53c0,.15.03.29.08.41.05.13.12.23.21.33.09.09.2.16.32.21.12.05.25.07.4.07.27,0,.48-.07.63-.2.14-.13.25-.29.31-.48l.57.2ZM160.9,88.52c0-.24-.09-.45-.25-.61-.15-.17-.38-.25-.68-.25-.14,0-.27.02-.38.07s-.2.11-.28.2c-.08.08-.14.17-.18.28-.05.1-.07.21-.08.32h1.84Z"/>
      <path d="M162.43,91.88v-4.7h.64v.53c.09-.17.24-.31.43-.43.19-.12.42-.17.7-.17.25,0,.47.04.67.14.19.09.35.22.48.38.13.16.23.35.29.56.07.21.1.44.1.69s-.04.49-.11.7c-.07.21-.17.4-.31.56-.14.16-.3.29-.49.38-.19.09-.41.14-.66.14-.26,0-.49-.05-.67-.16-.19-.11-.33-.24-.42-.39v1.79h-.65ZM165.07,88.87c0-.17-.02-.32-.07-.47s-.11-.27-.2-.37c-.08-.1-.19-.19-.31-.25-.12-.06-.26-.09-.42-.09s-.29.03-.41.09c-.12.06-.23.14-.32.25-.09.11-.16.23-.2.37-.05.14-.07.3-.07.47s.02.33.07.48c.05.15.11.27.2.38.09.1.2.19.32.25.12.06.26.09.41.09s.29-.03.41-.09.22-.14.31-.25c.09-.11.15-.23.2-.38.05-.15.07-.31.07-.48Z"/>
      <path d="M168.02,87.08c.25,0,.48.05.69.14s.39.22.55.37c.15.16.27.35.36.56s.13.45.13.71-.04.49-.13.71-.2.41-.36.57c-.15.16-.34.28-.55.37s-.44.14-.69.14-.48-.05-.69-.14-.39-.22-.55-.37c-.15-.16-.27-.35-.36-.57s-.13-.46-.13-.71.04-.49.13-.71.2-.4.36-.56c.15-.16.34-.28.55-.37s.44-.14.69-.14ZM168.02,90.07c.14,0,.27-.03.4-.08.13-.05.24-.13.34-.23.1-.1.17-.23.23-.38.06-.15.08-.32.08-.52s-.03-.37-.08-.51c-.06-.15-.13-.27-.23-.38-.1-.1-.21-.18-.34-.23s-.26-.08-.4-.08-.27.03-.4.08-.24.13-.34.23c-.1.1-.17.23-.23.38-.06.15-.08.32-.08.51s.03.37.08.52.13.28.23.38c.1.1.21.18.34.23.13.05.26.08.4.08Z"/>
      <path d="M172.45,87.85c-.1-.01-.19-.02-.29-.02-.28,0-.5.08-.67.24-.17.16-.26.43-.26.79v1.69h-.66v-3.37h.64v.59c.06-.13.13-.24.21-.32s.17-.15.25-.2.18-.08.27-.1c.09-.02.18-.03.27-.03.05,0,.09,0,.13,0,.04,0,.07,0,.09.01v.7Z"/>
      <path d="M174.21,87.18h.73v.6h-.73v1.75c0,.15.03.27.1.35.07.08.19.12.36.12.04,0,.09,0,.14,0,.05,0,.09-.01.12-.02v.56s-.08.02-.16.04-.17.02-.29.02c-.29,0-.52-.08-.69-.25-.17-.17-.25-.4-.25-.71v-1.85h-.64v-.6h.18c.18,0,.31-.05.4-.15.08-.1.12-.22.12-.37v-.55h.6v1.06Z"/>
      <path d="M175.67,85.91c0-.14.05-.25.14-.34s.2-.14.33-.14.25.05.34.14.14.2.14.34-.05.24-.14.33c-.09.09-.2.14-.34.14s-.24-.04-.33-.14c-.09-.09-.14-.2-.14-.33ZM175.81,90.55v-3.37h.65v3.37h-.65Z"/>
      <path d="M178.24,90.55h-.66v-3.37h.64v.48c.12-.21.28-.36.46-.45.19-.09.38-.13.57-.13s.38.03.53.1.28.16.38.28.17.26.22.42c.05.16.07.34.07.53v2.13h-.66v-2.02c0-.12-.01-.23-.04-.33-.03-.1-.07-.19-.13-.27-.06-.08-.14-.14-.25-.18-.1-.04-.22-.07-.37-.07-.13,0-.25.02-.34.07-.1.05-.18.12-.25.2s-.11.18-.15.29c-.03.11-.05.23-.05.36v1.95Z"/>
      <path d="M181.91,90.59c.02.24.12.44.28.59s.38.23.63.23c.35,0,.61-.09.78-.27.17-.18.25-.46.25-.82v-.48c-.08.15-.21.29-.39.39-.18.11-.39.16-.64.16-.22,0-.43-.04-.62-.12-.19-.08-.35-.19-.49-.34s-.25-.31-.32-.51c-.08-.2-.12-.42-.12-.66s.04-.44.11-.64c.08-.2.18-.37.32-.52.14-.15.3-.26.49-.35.19-.09.4-.13.63-.13.26,0,.48.05.65.14.17.09.3.22.39.39v-.47h.65v3.12c0,.21-.03.42-.08.63-.06.2-.15.38-.28.54s-.31.28-.52.38-.48.14-.8.14c-.21,0-.41-.03-.58-.09-.18-.06-.34-.15-.48-.26s-.25-.24-.34-.4c-.09-.15-.14-.32-.16-.5l.64-.15ZM182.92,89.84c.29,0,.52-.1.69-.29.18-.2.27-.46.27-.78s-.09-.59-.27-.78c-.18-.2-.41-.29-.69-.29s-.53.1-.71.29c-.18.2-.27.46-.27.78s.09.59.26.79c.17.19.41.29.71.29Z"/>
      <path d="M187.38,90.55v-4.96h3.02v.64h-2.33v1.53h2.11v.64h-2.11v1.52h2.33v.64h-3.02Z"/>
      <path d="M192.04,90.55h-.66v-3.37h.64v.48c.12-.21.28-.36.46-.45.19-.09.38-.13.57-.13s.38.03.53.1.28.16.38.28.17.26.22.42c.05.16.07.34.07.53v2.13h-.66v-2.02c0-.12-.01-.23-.04-.33-.03-.1-.07-.19-.13-.27-.06-.08-.14-.14-.25-.18-.1-.04-.22-.07-.37-.07-.13,0-.25.02-.34.07-.1.05-.18.12-.25.2s-.11.18-.15.29c-.03.11-.05.23-.05.36v1.95Z"/>
      <path d="M195.1,89.65c0-.15.03-.28.08-.4.05-.12.12-.22.21-.3s.2-.15.33-.2c.13-.05.26-.09.41-.11l.91-.13c.1-.01.17-.04.21-.09.04-.05.05-.1.05-.16,0-.16-.06-.3-.17-.42s-.3-.18-.56-.18c-.23,0-.41.06-.54.19-.13.13-.2.29-.22.49l-.63-.15c.02-.16.07-.31.14-.44.08-.14.18-.25.3-.35.12-.1.26-.17.42-.22s.33-.08.51-.08c.25,0,.47.03.64.1.18.07.32.16.43.27s.19.24.25.39c.05.15.08.31.08.47v1.69c0,.15,0,.27.01.36,0,.09.02.15.03.2h-.64s-.02-.1-.02-.17c0-.07-.01-.17-.01-.29-.04.06-.09.12-.15.19s-.14.13-.22.18c-.09.06-.19.1-.31.14-.12.04-.25.05-.4.05-.17,0-.33-.03-.46-.08-.14-.06-.26-.13-.35-.22-.1-.09-.17-.2-.23-.32s-.08-.25-.08-.38ZM196.32,90.1c.13,0,.26-.02.38-.05s.22-.09.31-.17c.09-.08.15-.18.21-.31.05-.13.08-.28.08-.46v-.15l-1.03.15c-.14.02-.26.08-.35.16-.09.08-.14.2-.14.35,0,.13.05.24.15.34.1.1.23.15.4.15Z"/>
      <path d="M198.97,90.55v-5.07h.65v2.18c.08-.15.21-.28.41-.4.19-.12.43-.17.71-.17.26,0,.48.05.67.14s.35.22.48.38c.13.16.23.35.29.56.06.21.1.44.1.69s-.04.49-.11.7c-.07.22-.17.41-.3.57-.13.16-.3.29-.49.38-.19.09-.42.14-.67.14s-.47-.05-.65-.15-.33-.25-.44-.43v.49h-.65ZM201.61,88.85c0-.36-.09-.65-.27-.86-.18-.21-.42-.32-.73-.32-.14,0-.28.03-.4.08-.12.06-.23.13-.32.23-.09.1-.16.22-.21.37-.05.15-.07.31-.07.49s.02.35.07.5.12.28.21.38c.09.11.19.19.32.24.12.06.26.08.4.08.3,0,.54-.11.72-.33.18-.22.27-.51.27-.88Z"/>
      <path d="M203.12,90.55v-5.07h.66v5.07h-.66Z"/>
      <path d="M207.84,89.59c-.05.15-.12.29-.21.42-.09.13-.2.24-.33.34-.13.1-.27.17-.44.23-.16.06-.34.08-.54.08-.22,0-.44-.04-.64-.12s-.39-.2-.54-.35c-.16-.15-.28-.34-.37-.57-.09-.22-.14-.48-.14-.76,0-.27.04-.51.13-.72.09-.22.21-.4.35-.56.15-.16.32-.28.51-.36.2-.09.4-.13.61-.13.26,0,.49.04.69.13.2.09.37.21.51.36.14.15.24.34.31.56.07.22.11.46.11.72,0,.04,0,.08,0,.12,0,.04,0,.07-.01.09h-2.53c0,.15.03.29.08.41.05.13.12.23.21.33.09.09.2.16.32.21.12.05.25.07.4.07.27,0,.48-.07.63-.2.14-.13.25-.29.31-.48l.57.2ZM207.17,88.52c0-.24-.09-.45-.25-.61-.15-.17-.38-.25-.68-.25-.14,0-.27.02-.38.07s-.2.11-.28.2c-.08.08-.14.17-.18.28-.05.1-.07.21-.08.32h1.84Z"/>
      <path d="M211.86,87.69c-.13,0-.26.02-.38.07s-.23.12-.33.22c-.1.1-.17.22-.23.37-.06.15-.08.32-.08.51s.03.36.08.51c.06.15.13.27.22.37.09.1.2.18.33.23.13.05.26.08.39.08.16,0,.29-.02.4-.07.11-.05.2-.1.27-.17.07-.07.13-.15.17-.23.04-.08.07-.16.09-.22l.58.25c-.04.12-.1.24-.18.37-.08.12-.18.24-.31.34-.13.1-.27.18-.44.25s-.37.09-.58.09c-.25,0-.48-.05-.68-.14-.21-.09-.39-.22-.54-.38s-.27-.35-.35-.57c-.09-.22-.13-.45-.13-.71s.04-.5.13-.72c.09-.22.21-.41.36-.56.15-.16.33-.28.54-.37.21-.09.43-.13.67-.13.22,0,.42.03.59.09.17.06.32.15.44.25.12.1.22.22.3.35.08.13.13.26.17.38l-.59.25c-.02-.08-.06-.17-.1-.25s-.1-.16-.17-.23c-.07-.07-.16-.12-.26-.17-.1-.04-.23-.07-.37-.07Z"/>
      <path d="M215.6,87.08c.25,0,.48.05.69.14s.39.22.55.37c.15.16.27.35.36.56s.13.45.13.71-.04.49-.13.71-.2.41-.36.57c-.15.16-.34.28-.55.37s-.44.14-.69.14-.48-.05-.69-.14-.39-.22-.55-.37c-.15-.16-.27-.35-.36-.57s-.13-.46-.13-.71.04-.49.13-.71.2-.4.36-.56c.15-.16.34-.28.55-.37s.44-.14.69-.14ZM215.6,90.07c.14,0,.27-.03.4-.08.13-.05.24-.13.34-.23.1-.1.17-.23.23-.38.06-.15.08-.32.08-.52s-.03-.37-.08-.51c-.06-.15-.13-.27-.23-.38-.1-.1-.21-.18-.34-.23s-.26-.08-.4-.08-.27.03-.4.08-.24.13-.34.23c-.1.1-.17.23-.23.38-.06.15-.08.32-.08.51s.03.37.08.52.13.28.23.38c.1.1.21.18.34.23.13.05.26.08.4.08Z"/>
      <path d="M218.16,90.55v-3.37h.63v.45c.11-.19.25-.32.44-.41.19-.09.38-.13.58-.13.21,0,.41.05.59.15s.32.26.42.48c.14-.24.3-.41.5-.5.2-.09.41-.14.62-.14.14,0,.29.03.43.08.14.05.26.13.37.23.11.11.2.24.26.4s.1.35.1.57v2.18h-.65v-2.11c0-.22-.06-.4-.17-.55-.11-.15-.29-.22-.54-.22-.23,0-.42.08-.56.24-.14.16-.21.36-.21.61v2.04h-.66v-2.11c0-.22-.06-.4-.17-.55-.11-.15-.29-.22-.55-.22-.24,0-.43.08-.57.24-.14.16-.21.36-.21.62v2.03h-.65Z"/>
      <path d="M224.16,90.55v-3.37h.63v.45c.11-.19.25-.32.44-.41.19-.09.38-.13.58-.13.21,0,.41.05.59.15s.32.26.42.48c.14-.24.3-.41.5-.5.2-.09.41-.14.62-.14.14,0,.29.03.43.08.14.05.26.13.37.23.11.11.2.24.26.4s.1.35.1.57v2.18h-.65v-2.11c0-.22-.06-.4-.17-.55-.11-.15-.29-.22-.54-.22-.23,0-.42.08-.56.24-.14.16-.21.36-.21.61v2.04h-.66v-2.11c0-.22-.06-.4-.17-.55-.11-.15-.29-.22-.55-.22-.24,0-.43.08-.57.24-.14.16-.21.36-.21.62v2.03h-.65Z"/>
      <path d="M229.95,89.65c0-.15.03-.28.08-.4.05-.12.12-.22.21-.3s.2-.15.33-.2c.13-.05.26-.09.41-.11l.91-.13c.1-.01.17-.04.21-.09.04-.05.05-.1.05-.16,0-.16-.06-.3-.17-.42s-.3-.18-.56-.18c-.23,0-.41.06-.54.19-.13.13-.2.29-.22.49l-.63-.15c.02-.16.07-.31.14-.44.08-.14.18-.25.3-.35.12-.1.26-.17.42-.22s.33-.08.51-.08c.25,0,.47.03.64.1.18.07.32.16.43.27s.19.24.25.39c.05.15.08.31.08.47v1.69c0,.15,0,.27.01.36,0,.09.02.15.03.2h-.64s-.02-.1-.02-.17c0-.07-.01-.17-.01-.29-.04.06-.09.12-.15.19s-.14.13-.22.18c-.09.06-.19.1-.31.14-.12.04-.25.05-.4.05-.17,0-.33-.03-.46-.08-.14-.06-.26-.13-.35-.22-.1-.09-.17-.2-.23-.32s-.08-.25-.08-.38ZM231.17,90.1c.13,0,.26-.02.38-.05s.22-.09.31-.17c.09-.08.15-.18.21-.31.05-.13.08-.28.08-.46v-.15l-1.03.15c-.14.02-.26.08-.35.16-.09.08-.14.2-.14.35,0,.13.05.24.15.34.1.1.23.15.4.15Z"/>
      <path d="M234.48,90.55h-.66v-3.37h.64v.48c.12-.21.28-.36.46-.45.19-.09.38-.13.57-.13s.38.03.53.1.28.16.38.28.17.26.22.42c.05.16.07.34.07.53v2.13h-.66v-2.02c0-.12-.01-.23-.04-.33-.03-.1-.07-.19-.13-.27-.06-.08-.14-.14-.25-.18-.1-.04-.22-.07-.37-.07-.13,0-.25.02-.34.07-.1.05-.18.12-.25.2s-.11.18-.15.29c-.03.11-.05.23-.05.36v1.95Z"/>
      <path d="M240.11,90.04c-.08.16-.21.3-.38.42-.17.12-.4.18-.66.18-.25,0-.47-.04-.67-.14-.2-.09-.36-.22-.5-.38-.14-.16-.24-.35-.32-.57-.07-.22-.11-.45-.11-.7,0-.24.04-.46.12-.68.08-.21.19-.4.33-.56.14-.16.31-.29.5-.38.2-.1.41-.14.65-.14.15,0,.28.02.4.05.11.03.21.08.3.13s.15.11.21.18c.06.07.1.14.13.21v-2.18h.65v4.44c0,.16,0,.3.01.41,0,.11.02.18.02.21h-.64s-.02-.1-.02-.18c0-.08-.01-.17-.01-.28v-.06ZM238.15,88.86c0,.17.02.33.07.48.04.15.11.27.19.38s.19.19.31.25c.12.06.26.09.42.09.15,0,.28-.03.41-.09.12-.06.22-.15.31-.26s.15-.24.19-.38c.04-.15.07-.31.07-.48,0-.35-.08-.63-.26-.85-.17-.21-.41-.32-.71-.32-.15,0-.29.03-.41.09-.12.06-.23.14-.31.25-.09.1-.15.23-.2.37-.05.14-.07.3-.07.48Z"/>
    </g>
    <g>
      <line class="cls-2" x1="290.69" y1="95.55" x2="46.91" y2="95.55"/>
      <polygon points="289.87 92.75 294.72 95.55 289.87 98.36 289.87 92.75"/>
    </g>
  </g>
  <g>
    <g>
      <path d="M125.41,111.51v-4.96h.69v4.32h2.34v.64h-3.03Z"/>
      <path d="M129.25,111.51v-4.96h3.02v.64h-2.33v1.53h2.11v.64h-2.11v1.52h2.33v.64h-3.02Z"/>
      <path d="M135.75,109.48v2.03h-.69v-4.96h1.81c.23,0,.44.04.63.11.19.08.35.18.48.31.13.13.24.29.31.47.07.18.11.37.11.58s-.04.41-.11.58c-.08.18-.18.33-.31.46-.13.13-.29.23-.48.3-.19.08-.4.11-.63.11h-1.12ZM136.74,108.86c.3,0,.53-.08.7-.23.17-.15.25-.36.25-.61s-.08-.48-.25-.63c-.17-.15-.41-.23-.7-.23h-.99v1.7h.99Z"/>
      <path d="M138.75,110.6c0-.15.03-.28.08-.4.05-.12.12-.22.21-.3s.2-.15.33-.2c.13-.05.26-.09.41-.11l.91-.13c.1-.01.17-.04.21-.09s.05-.1.05-.16c0-.16-.06-.3-.17-.42s-.3-.18-.56-.18c-.23,0-.41.06-.54.19s-.2.29-.22.49l-.63-.15c.02-.16.07-.31.14-.44.08-.13.18-.25.3-.35.12-.1.26-.17.42-.22s.33-.08.51-.08c.25,0,.47.03.64.1.18.07.32.16.43.27.11.11.19.24.25.39.05.15.08.31.08.47v1.69c0,.15,0,.27.01.36s.02.15.03.2h-.64s-.02-.1-.02-.17c0-.07-.01-.17-.01-.29-.04.06-.09.12-.15.19-.06.07-.14.13-.22.18-.09.06-.19.1-.31.14-.12.03-.25.05-.4.05-.17,0-.33-.03-.46-.08-.14-.06-.26-.13-.35-.22-.1-.09-.17-.2-.23-.32-.05-.12-.08-.25-.08-.38ZM139.97,111.06c.13,0,.26-.02.38-.05s.22-.09.31-.17c.09-.08.15-.18.21-.31.05-.13.08-.28.08-.47v-.15l-1.03.15c-.14.02-.26.08-.35.16-.09.08-.14.2-.14.35,0,.13.05.24.15.34s.23.15.4.15Z"/>
      <path d="M143.5,108.14h.73v.59h-.73v1.75c0,.15.03.27.1.35s.19.12.36.12c.04,0,.09,0,.14,0,.05,0,.09-.01.12-.02v.56s-.08.02-.16.04c-.08.02-.17.02-.29.02-.29,0-.52-.08-.69-.25-.17-.17-.25-.4-.25-.71v-1.85h-.64v-.59h.18c.18,0,.31-.05.4-.15.08-.1.12-.22.12-.37v-.55h.6v1.06Z"/>
      <path d="M145.77,111.51h-.66v-5.07h.66v2.09c.12-.18.27-.3.46-.38.18-.07.37-.11.57-.11s.38.03.53.1c.15.07.28.16.38.28s.17.26.22.42c.05.16.07.34.07.53v2.13h-.66v-2.02c0-.12-.01-.23-.04-.33-.03-.1-.07-.19-.13-.27-.06-.08-.14-.14-.25-.18-.1-.04-.22-.07-.37-.07-.13,0-.24.02-.33.07-.1.05-.18.11-.24.19s-.12.17-.15.28-.05.22-.06.35v1.98Z"/>
      <path d="M150.86,111.51v-4.96h.69v4.32h2.34v.64h-3.03Z"/>
      <path d="M156.07,108.03c.25,0,.48.05.69.14s.39.22.55.38c.15.16.27.35.36.56s.13.45.13.71-.04.5-.13.71c-.08.22-.2.41-.36.57-.15.16-.34.28-.55.37-.21.09-.44.14-.69.14s-.48-.04-.69-.14c-.21-.09-.39-.21-.55-.37-.15-.16-.27-.35-.36-.57-.08-.22-.13-.46-.13-.71s.04-.49.13-.71.2-.41.36-.56c.15-.16.34-.28.55-.38s.44-.14.69-.14ZM156.07,111.02c.14,0,.27-.03.4-.08.13-.05.24-.13.34-.23.1-.1.17-.23.23-.38.06-.15.08-.32.08-.52s-.03-.37-.08-.51c-.06-.15-.13-.27-.23-.37-.1-.1-.21-.18-.34-.23-.13-.05-.26-.08-.4-.08s-.27.03-.4.08c-.13.05-.24.13-.34.23-.1.1-.17.23-.23.37-.06.15-.08.32-.08.51s.03.37.08.52.13.28.23.38c.1.1.21.18.34.23.13.05.26.08.4.08Z"/>
      <path d="M158.91,110.42c.02.18.1.33.23.45.13.12.31.18.55.18.19,0,.33-.04.43-.13.1-.09.15-.19.15-.32,0-.11-.04-.2-.11-.27-.07-.08-.18-.13-.32-.16l-.57-.13c-.27-.06-.47-.17-.62-.34-.15-.17-.22-.37-.22-.61,0-.14.03-.28.09-.41.06-.13.15-.24.26-.34s.23-.17.38-.23c.15-.06.3-.08.47-.08.23,0,.42.03.58.1.16.07.28.15.38.24s.17.2.22.3.08.19.1.27l-.58.22s-.03-.1-.05-.16c-.02-.06-.06-.13-.11-.19-.05-.06-.12-.11-.21-.15s-.2-.06-.33-.06c-.17,0-.3.04-.41.14-.1.09-.15.19-.15.31,0,.21.13.35.38.41l.55.12c.31.07.54.19.7.36.16.18.23.39.23.64,0,.12-.03.24-.08.36-.05.12-.13.23-.23.34-.1.1-.23.19-.38.25-.15.06-.34.09-.55.09-.23,0-.43-.03-.6-.1s-.3-.15-.41-.25-.19-.2-.25-.32-.09-.22-.11-.32l.59-.21Z"/>
      <path d="M162.08,110.42c.02.18.1.33.23.45.13.12.31.18.55.18.19,0,.33-.04.43-.13.1-.09.15-.19.15-.32,0-.11-.04-.2-.11-.27-.07-.08-.18-.13-.32-.16l-.57-.13c-.27-.06-.47-.17-.62-.34-.15-.17-.22-.37-.22-.61,0-.14.03-.28.09-.41.06-.13.15-.24.26-.34s.23-.17.38-.23c.15-.06.3-.08.47-.08.23,0,.42.03.58.1.16.07.28.15.38.24s.17.2.22.3.08.19.1.27l-.58.22s-.03-.1-.05-.16c-.02-.06-.06-.13-.11-.19-.05-.06-.12-.11-.21-.15s-.2-.06-.33-.06c-.17,0-.3.04-.41.14-.1.09-.15.19-.15.31,0,.21.13.35.38.41l.55.12c.31.07.54.19.7.36.16.18.23.39.23.64,0,.12-.03.24-.08.36-.05.12-.13.23-.23.34-.1.1-.23.19-.38.25-.15.06-.34.09-.55.09-.23,0-.43-.03-.6-.1s-.3-.15-.41-.25-.19-.2-.25-.32-.09-.22-.11-.32l.59-.21Z"/>
      <path d="M168.56,107.18v4.33h-.69v-4.33h-1.66v-.64h4v.64h-1.66Z"/>
      <path d="M171.51,111.51h-.66v-5.07h.66v2.09c.12-.18.27-.3.46-.38.18-.07.37-.11.57-.11s.38.03.53.1c.15.07.28.16.38.28s.17.26.22.42c.05.16.07.34.07.53v2.13h-.66v-2.02c0-.12-.01-.23-.04-.33-.03-.1-.07-.19-.13-.27-.06-.08-.14-.14-.25-.18-.1-.04-.22-.07-.37-.07-.13,0-.24.02-.33.07-.1.05-.18.11-.24.19s-.12.17-.15.28-.05.22-.06.35v1.98Z"/>
      <path d="M176.66,108.8c-.1-.01-.19-.02-.29-.02-.28,0-.5.08-.67.24-.17.16-.26.43-.26.79v1.69h-.66v-3.37h.64v.59c.06-.13.13-.24.21-.32.08-.08.17-.15.25-.2s.18-.08.27-.1c.09-.02.18-.03.27-.03.05,0,.09,0,.13,0,.04,0,.07,0,.09.01v.7Z"/>
      <path d="M180.29,110.55c-.05.15-.12.29-.21.42-.09.13-.2.24-.33.34-.13.1-.27.17-.44.23-.16.06-.34.08-.54.08-.22,0-.44-.04-.64-.12-.21-.08-.39-.2-.54-.35-.16-.15-.28-.34-.37-.57-.09-.22-.14-.48-.14-.76,0-.27.04-.51.13-.72s.21-.4.35-.56c.15-.16.32-.28.51-.36.2-.09.4-.13.61-.13.26,0,.49.04.69.13.2.09.37.21.51.36.14.15.24.34.31.56s.11.46.11.72c0,.04,0,.08,0,.12,0,.04,0,.07-.01.09h-2.53c0,.15.03.29.08.41.05.13.12.23.21.33s.2.16.32.21c.12.05.25.07.4.07.27,0,.48-.07.63-.2.14-.13.25-.29.31-.48l.57.2ZM179.62,109.48c0-.24-.09-.45-.25-.61s-.38-.25-.68-.25c-.14,0-.27.02-.38.07-.11.05-.2.11-.28.2-.08.08-.14.17-.18.28-.05.1-.07.21-.08.32h1.84Z"/>
      <path d="M181.43,110.42c.02.18.1.33.23.45.13.12.31.18.55.18.19,0,.33-.04.43-.13.1-.09.15-.19.15-.32,0-.11-.04-.2-.11-.27-.07-.08-.18-.13-.32-.16l-.57-.13c-.27-.06-.47-.17-.62-.34-.15-.17-.22-.37-.22-.61,0-.14.03-.28.09-.41.06-.13.15-.24.26-.34s.23-.17.38-.23c.15-.06.3-.08.47-.08.23,0,.42.03.58.1.16.07.28.15.38.24s.17.2.22.3.08.19.1.27l-.58.22s-.03-.1-.05-.16c-.02-.06-.06-.13-.11-.19-.05-.06-.12-.11-.21-.15s-.2-.06-.33-.06c-.17,0-.3.04-.41.14-.1.09-.15.19-.15.31,0,.21.13.35.38.41l.55.12c.31.07.54.19.7.36.16.18.23.39.23.64,0,.12-.03.24-.08.36-.05.12-.13.23-.23.34-.1.1-.23.19-.38.25-.15.06-.34.09-.55.09-.23,0-.43-.03-.6-.1s-.3-.15-.41-.25-.19-.2-.25-.32-.09-.22-.11-.32l.59-.21Z"/>
      <path d="M184.97,111.51h-.66v-5.07h.66v2.09c.12-.18.27-.3.46-.38.18-.07.37-.11.57-.11s.38.03.53.1c.15.07.28.16.38.28s.17.26.22.42c.05.16.07.34.07.53v2.13h-.66v-2.02c0-.12-.01-.23-.04-.33-.03-.1-.07-.19-.13-.27-.06-.08-.14-.14-.25-.18-.1-.04-.22-.07-.37-.07-.13,0-.24.02-.33.07-.1.05-.18.11-.24.19s-.12.17-.15.28-.05.22-.06.35v1.98Z"/>
      <path d="M189.69,108.03c.25,0,.48.05.69.14s.39.22.55.38c.15.16.27.35.36.56s.13.45.13.71-.04.5-.13.71c-.08.22-.2.41-.36.57-.15.16-.34.28-.55.37-.21.09-.44.14-.69.14s-.48-.04-.69-.14c-.21-.09-.39-.21-.55-.37-.15-.16-.27-.35-.36-.57-.08-.22-.13-.46-.13-.71s.04-.49.13-.71.2-.41.36-.56c.15-.16.34-.28.55-.38s.44-.14.69-.14ZM189.69,111.02c.14,0,.27-.03.4-.08.13-.05.24-.13.34-.23.1-.1.17-.23.23-.38.06-.15.08-.32.08-.52s-.03-.37-.08-.51c-.06-.15-.13-.27-.23-.37-.1-.1-.21-.18-.34-.23-.13-.05-.26-.08-.4-.08s-.27.03-.4.08c-.13.05-.24.13-.34.23-.1.1-.17.23-.23.37-.06.15-.08.32-.08.51s.03.37.08.52.13.28.23.38c.1.1.21.18.34.23.13.05.26.08.4.08Z"/>
      <path d="M192.25,111.51v-5.07h.66v5.07h-.66Z"/>
      <path d="M196.39,110.99c-.08.16-.21.3-.38.42-.17.12-.4.18-.66.18-.25,0-.47-.05-.67-.14s-.36-.22-.5-.38c-.14-.16-.24-.35-.32-.57-.07-.22-.11-.45-.11-.7,0-.24.04-.46.12-.68.08-.21.19-.4.33-.56.14-.16.31-.29.5-.38.2-.1.41-.14.65-.14.15,0,.28.02.4.05s.21.08.3.13.15.11.21.18c.06.07.1.14.13.21v-2.18h.65v4.45c0,.16,0,.3.01.41,0,.11.02.18.02.21h-.64s-.02-.1-.02-.18-.01-.17-.01-.28v-.06ZM194.42,109.81c0,.17.02.33.07.48.04.15.11.27.19.38s.19.19.31.25c.12.06.26.09.42.09.15,0,.28-.03.41-.09.12-.06.22-.15.31-.25s.15-.24.19-.39c.04-.15.07-.31.07-.48,0-.35-.08-.63-.26-.85-.17-.21-.41-.32-.71-.32-.15,0-.29.03-.41.09-.12.06-.23.14-.31.25-.09.11-.15.23-.2.38-.05.14-.07.3-.07.48Z"/>
      <path d="M202.83,110.55c-.05.15-.12.29-.21.42-.09.13-.2.24-.33.34-.13.1-.27.17-.44.23-.16.06-.34.08-.54.08-.22,0-.44-.04-.64-.12-.21-.08-.39-.2-.54-.35-.16-.15-.28-.34-.37-.57-.09-.22-.14-.48-.14-.76,0-.27.04-.51.13-.72s.21-.4.35-.56c.15-.16.32-.28.51-.36.2-.09.4-.13.61-.13.26,0,.49.04.69.13.2.09.37.21.51.36.14.15.24.34.31.56s.11.46.11.72c0,.04,0,.08,0,.12,0,.04,0,.07-.01.09h-2.53c0,.15.03.29.08.41.05.13.12.23.21.33s.2.16.32.21c.12.05.25.07.4.07.27,0,.48-.07.63-.2.14-.13.25-.29.31-.48l.57.2ZM202.16,109.48c0-.24-.09-.45-.25-.61s-.38-.25-.68-.25c-.14,0-.27.02-.38.07-.11.05-.2.11-.28.2-.08.08-.14.17-.18.28-.05.1-.07.21-.08.32h1.84Z"/>
      <path d="M205.23,111.51h-.67l-1.36-3.37h.74l.96,2.6.97-2.6h.71l-1.34,3.37Z"/>
      <path d="M210.14,110.55c-.05.15-.12.29-.21.42-.09.13-.2.24-.33.34-.13.1-.27.17-.44.23-.16.06-.34.08-.54.08-.22,0-.44-.04-.64-.12-.21-.08-.39-.2-.54-.35-.16-.15-.28-.34-.37-.57-.09-.22-.14-.48-.14-.76,0-.27.04-.51.13-.72s.21-.4.35-.56c.15-.16.32-.28.51-.36.2-.09.4-.13.61-.13.26,0,.49.04.69.13.2.09.37.21.51.36.14.15.24.34.31.56s.11.46.11.72c0,.04,0,.08,0,.12,0,.04,0,.07-.01.09h-2.53c0,.15.03.29.08.41.05.13.12.23.21.33s.2.16.32.21c.12.05.25.07.4.07.27,0,.48-.07.63-.2.14-.13.25-.29.31-.48l.57.2ZM209.47,109.48c0-.24-.09-.45-.25-.61s-.38-.25-.68-.25c-.14,0-.27.02-.38.07-.11.05-.2.11-.28.2-.08.08-.14.17-.18.28-.05.1-.07.21-.08.32h1.84Z"/>
      <path d="M211.66,111.51h-.66v-3.37h.64v.48c.12-.21.28-.36.46-.45s.38-.13.57-.13.38.03.53.1c.15.07.28.16.38.28s.17.26.22.42c.05.16.07.34.07.53v2.13h-.66v-2.02c0-.12-.01-.23-.04-.33-.03-.1-.07-.19-.13-.27-.06-.08-.14-.14-.25-.18-.1-.04-.22-.07-.37-.07-.13,0-.25.02-.34.07-.1.05-.18.12-.25.2s-.11.18-.15.29c-.03.11-.05.23-.05.36v1.95Z"/>
      <path d="M215.81,108.14h.73v.59h-.73v1.75c0,.15.03.27.1.35s.19.12.36.12c.04,0,.09,0,.14,0,.05,0,.09-.01.12-.02v.56s-.08.02-.16.04c-.08.02-.17.02-.29.02-.29,0-.52-.08-.69-.25-.17-.17-.25-.4-.25-.71v-1.85h-.64v-.59h.18c.18,0,.31-.05.4-.15.08-.1.12-.22.12-.37v-.55h.6v1.06Z"/>
    </g>
    <g>
      <line class="cls-2" x1="294.72" y1="116.51" x2="50.95" y2="116.51"/>
      <polygon points="51.77 113.7 46.91 116.51 51.77 119.31 51.77 113.7"/>
    </g>
  </g>
  <g>
    <g>
      <path d="M125.41,132.46v-4.96h.69v4.32h2.34v.64h-3.03Z"/>
      <path d="M129.25,132.46v-4.96h3.02v.64h-2.33v1.53h2.11v.64h-2.11v1.52h2.33v.64h-3.02Z"/>
      <path d="M135.75,130.43v2.03h-.69v-4.96h1.81c.23,0,.44.04.63.11.19.08.35.18.48.31.13.13.24.29.31.47.07.18.11.37.11.58s-.04.41-.11.58c-.08.18-.18.33-.31.46-.13.13-.29.23-.48.3-.19.08-.4.11-.63.11h-1.12ZM136.74,129.81c.3,0,.53-.08.7-.23.17-.15.25-.36.25-.61s-.08-.48-.25-.63c-.17-.15-.41-.23-.7-.23h-.99v1.7h.99Z"/>
      <path d="M138.75,131.56c0-.15.03-.28.08-.4.05-.12.12-.22.21-.3s.2-.15.33-.2c.13-.05.26-.09.41-.11l.91-.13c.1-.01.17-.04.21-.09s.05-.1.05-.16c0-.16-.06-.3-.17-.42s-.3-.18-.56-.18c-.23,0-.41.06-.54.19s-.2.29-.22.49l-.63-.15c.02-.16.07-.31.14-.44.08-.13.18-.25.3-.35.12-.1.26-.17.42-.22s.33-.08.51-.08c.25,0,.47.03.64.1.18.07.32.16.43.27.11.11.19.24.25.39.05.15.08.31.08.47v1.69c0,.15,0,.27.01.36s.02.15.03.2h-.64s-.02-.1-.02-.17c0-.07-.01-.17-.01-.29-.04.06-.09.12-.15.19-.06.07-.14.13-.22.18-.09.06-.19.1-.31.14-.12.03-.25.05-.4.05-.17,0-.33-.03-.46-.08-.14-.06-.26-.13-.35-.22-.1-.09-.17-.2-.23-.32-.05-.12-.08-.25-.08-.38ZM139.97,132.01c.13,0,.26-.02.38-.05s.22-.09.31-.17c.09-.08.15-.18.21-.31.05-.13.08-.28.08-.47v-.15l-1.03.15c-.14.02-.26.08-.35.16-.09.08-.14.2-.14.35,0,.13.05.24.15.34s.23.15.4.15Z"/>
      <path d="M143.51,129.09h.73v.59h-.73v1.75c0,.15.03.27.1.35s.19.12.36.12c.04,0,.09,0,.14,0,.05,0,.09-.01.12-.02v.56s-.08.02-.16.04c-.08.02-.17.02-.29.02-.29,0-.52-.08-.69-.25-.17-.17-.25-.4-.25-.71v-1.85h-.64v-.59h.18c.18,0,.31-.05.4-.15.08-.1.12-.22.12-.37v-.55h.6v1.06Z"/>
      <path d="M145.77,132.46h-.66v-5.07h.66v2.09c.12-.18.27-.3.46-.38.18-.07.37-.11.57-.11s.38.03.53.1c.15.07.28.16.38.28s.17.26.22.42c.05.16.07.34.07.53v2.13h-.66v-2.02c0-.12-.01-.23-.04-.33-.03-.1-.07-.19-.13-.27-.06-.08-.14-.14-.25-.18-.1-.04-.22-.07-.37-.07-.13,0-.24.02-.33.07-.1.05-.18.11-.24.19s-.12.17-.15.28-.05.22-.06.35v1.98Z"/>
      <path d="M150.86,132.46v-4.96h.69v4.32h2.34v.64h-3.03Z"/>
      <path d="M156.07,128.99c.25,0,.48.05.69.14s.39.22.55.38c.15.16.27.35.36.56s.13.45.13.71-.04.5-.13.71c-.08.22-.2.41-.36.57-.15.16-.34.28-.55.37-.21.09-.44.14-.69.14s-.48-.04-.69-.14c-.21-.09-.39-.21-.55-.37-.15-.16-.27-.35-.36-.57-.08-.22-.13-.46-.13-.71s.04-.49.13-.71.2-.41.36-.56c.15-.16.34-.28.55-.38s.44-.14.69-.14ZM156.07,131.98c.14,0,.27-.03.4-.08.13-.05.24-.13.34-.23.1-.1.17-.23.23-.38.06-.15.08-.32.08-.52s-.03-.37-.08-.51c-.06-.15-.13-.27-.23-.37-.1-.1-.21-.18-.34-.23-.13-.05-.26-.08-.4-.08s-.27.03-.4.08c-.13.05-.24.13-.34.23-.1.1-.17.23-.23.37-.06.15-.08.32-.08.51s.03.37.08.52.13.28.23.38c.1.1.21.18.34.23.13.05.26.08.4.08Z"/>
      <path d="M158.91,131.38c.02.18.1.33.23.45.13.12.31.18.55.18.19,0,.33-.04.43-.13.1-.09.15-.19.15-.32,0-.11-.04-.2-.11-.27-.07-.08-.18-.13-.32-.16l-.57-.13c-.27-.06-.47-.17-.62-.34-.15-.17-.22-.37-.22-.61,0-.14.03-.28.09-.41.06-.13.15-.24.26-.34s.23-.17.38-.23c.15-.06.3-.08.47-.08.23,0,.42.03.58.1.16.07.28.15.38.24s.17.2.22.3.08.19.1.27l-.58.22s-.03-.1-.05-.16c-.02-.06-.06-.13-.11-.19-.05-.06-.12-.11-.21-.15s-.2-.06-.33-.06c-.17,0-.3.04-.41.14-.1.09-.15.19-.15.31,0,.21.13.35.38.41l.55.12c.31.07.54.19.7.36.16.18.23.39.23.64,0,.12-.03.24-.08.36-.05.12-.13.23-.23.34-.1.1-.23.19-.38.25-.15.06-.34.09-.55.09-.23,0-.43-.03-.6-.1s-.3-.15-.41-.25-.19-.2-.25-.32-.09-.22-.11-.32l.59-.21Z"/>
      <path d="M162.08,131.38c.02.18.1.33.23.45.13.12.31.18.55.18.19,0,.33-.04.43-.13.1-.09.15-.19.15-.32,0-.11-.04-.2-.11-.27-.07-.08-.18-.13-.32-.16l-.57-.13c-.27-.06-.47-.17-.62-.34-.15-.17-.22-.37-.22-.61,0-.14.03-.28.09-.41.06-.13.15-.24.26-.34s.23-.17.38-.23c.15-.06.3-.08.47-.08.23,0,.42.03.58.1.16.07.28.15.38.24s.17.2.22.3.08.19.1.27l-.58.22s-.03-.1-.05-.16c-.02-.06-.06-.13-.11-.19-.05-.06-.12-.11-.21-.15s-.2-.06-.33-.06c-.17,0-.3.04-.41.14-.1.09-.15.19-.15.31,0,.21.13.35.38.41l.55.12c.31.07.54.19.7.36.16.18.23.39.23.64,0,.12-.03.24-.08.36-.05.12-.13.23-.23.34-.1.1-.23.19-.38.25-.15.06-.34.09-.55.09-.23,0-.43-.03-.6-.1s-.3-.15-.41-.25-.19-.2-.25-.32-.09-.22-.11-.32l.59-.21Z"/>
      <path d="M168.57,128.13v4.33h-.69v-4.33h-1.66v-.64h4v.64h-1.66Z"/>
      <path d="M171.51,132.46h-.66v-5.07h.66v2.09c.12-.18.27-.3.46-.38.18-.07.37-.11.57-.11s.38.03.53.1c.15.07.28.16.38.28s.17.26.22.42c.05.16.07.34.07.53v2.13h-.66v-2.02c0-.12-.01-.23-.04-.33-.03-.1-.07-.19-.13-.27-.06-.08-.14-.14-.25-.18-.1-.04-.22-.07-.37-.07-.13,0-.24.02-.33.07-.1.05-.18.11-.24.19s-.12.17-.15.28-.05.22-.06.35v1.98Z"/>
      <path d="M176.66,129.76c-.1-.01-.19-.02-.29-.02-.28,0-.5.08-.67.24-.17.16-.26.43-.26.79v1.69h-.66v-3.37h.64v.59c.06-.13.13-.24.21-.32.08-.08.17-.15.25-.2s.18-.08.27-.1c.09-.02.18-.03.27-.03.05,0,.09,0,.13,0,.04,0,.07,0,.09.01v.7Z"/>
      <path d="M180.29,131.5c-.05.15-.12.29-.21.42-.09.13-.2.24-.33.34-.13.1-.27.17-.44.23-.16.06-.34.08-.54.08-.22,0-.44-.04-.64-.12-.21-.08-.39-.2-.54-.35-.16-.15-.28-.34-.37-.57-.09-.22-.14-.48-.14-.76,0-.27.04-.51.13-.72s.21-.4.35-.56c.15-.16.32-.28.51-.36.2-.09.4-.13.61-.13.26,0,.49.04.69.13.2.09.37.21.51.36.14.15.24.34.31.56s.11.46.11.72c0,.04,0,.08,0,.12,0,.04,0,.07-.01.09h-2.53c0,.15.03.29.08.41.05.13.12.23.21.33s.2.16.32.21c.12.05.25.07.4.07.27,0,.48-.07.63-.2.14-.13.25-.29.31-.48l.57.2ZM179.62,130.43c0-.24-.09-.45-.25-.61s-.38-.25-.68-.25c-.14,0-.27.02-.38.07-.11.05-.2.11-.28.2-.08.08-.14.17-.18.28-.05.1-.07.21-.08.32h1.84Z"/>
      <path d="M181.43,131.38c.02.18.1.33.23.45.13.12.31.18.55.18.19,0,.33-.04.43-.13.1-.09.15-.19.15-.32,0-.11-.04-.2-.11-.27-.07-.08-.18-.13-.32-.16l-.57-.13c-.27-.06-.47-.17-.62-.34-.15-.17-.22-.37-.22-.61,0-.14.03-.28.09-.41.06-.13.15-.24.26-.34s.23-.17.38-.23c.15-.06.3-.08.47-.08.23,0,.42.03.58.1.16.07.28.15.38.24s.17.2.22.3.08.19.1.27l-.58.22s-.03-.1-.05-.16c-.02-.06-.06-.13-.11-.19-.05-.06-.12-.11-.21-.15s-.2-.06-.33-.06c-.17,0-.3.04-.41.14-.1.09-.15.19-.15.31,0,.21.13.35.38.41l.55.12c.31.07.54.19.7.36.16.18.23.39.23.64,0,.12-.03.24-.08.36-.05.12-.13.23-.23.34-.1.1-.23.19-.38.25-.15.06-.34.09-.55.09-.23,0-.43-.03-.6-.1s-.3-.15-.41-.25-.19-.2-.25-.32-.09-.22-.11-.32l.59-.21Z"/>
      <path d="M184.97,132.46h-.66v-5.07h.66v2.09c.12-.18.27-.3.46-.38.18-.07.37-.11.57-.11s.38.03.53.1c.15.07.28.16.38.28s.17.26.22.42c.05.16.07.34.07.53v2.13h-.66v-2.02c0-.12-.01-.23-.04-.33-.03-.1-.07-.19-.13-.27-.06-.08-.14-.14-.25-.18-.1-.04-.22-.07-.37-.07-.13,0-.24.02-.33.07-.1.05-.18.11-.24.19s-.12.17-.15.28-.05.22-.06.35v1.98Z"/>
      <path d="M189.69,128.99c.25,0,.48.05.69.14s.39.22.55.38c.15.16.27.35.36.56s.13.45.13.71-.04.5-.13.71c-.08.22-.2.41-.36.57-.15.16-.34.28-.55.37-.21.09-.44.14-.69.14s-.48-.04-.69-.14c-.21-.09-.39-.21-.55-.37-.15-.16-.27-.35-.36-.57-.08-.22-.13-.46-.13-.71s.04-.49.13-.71.2-.41.36-.56c.15-.16.34-.28.55-.38s.44-.14.69-.14ZM189.69,131.98c.14,0,.27-.03.4-.08.13-.05.24-.13.34-.23.1-.1.17-.23.23-.38.06-.15.08-.32.08-.52s-.03-.37-.08-.51c-.06-.15-.13-.27-.23-.37-.1-.1-.21-.18-.34-.23-.13-.05-.26-.08-.4-.08s-.27.03-.4.08c-.13.05-.24.13-.34.23-.1.1-.17.23-.23.37-.06.15-.08.32-.08.51s.03.37.08.52.13.28.23.38c.1.1.21.18.34.23.13.05.26.08.4.08Z"/>
      <path d="M192.25,132.46v-5.07h.66v5.07h-.66Z"/>
      <path d="M196.39,131.95c-.08.16-.21.3-.38.42-.17.12-.4.18-.66.18-.25,0-.47-.05-.67-.14s-.36-.22-.5-.38c-.14-.16-.24-.35-.32-.57-.07-.22-.11-.45-.11-.7,0-.24.04-.46.12-.68.08-.21.19-.4.33-.56.14-.16.31-.29.5-.38.2-.1.41-.14.65-.14.15,0,.28.02.4.05s.21.08.3.13.15.11.21.18c.06.07.1.14.13.21v-2.18h.65v4.45c0,.16,0,.3.01.41,0,.11.02.18.02.21h-.64s-.02-.1-.02-.18-.01-.17-.01-.28v-.06ZM194.42,130.77c0,.17.02.33.07.48.04.15.11.27.19.38s.19.19.31.25c.12.06.26.09.42.09.15,0,.28-.03.41-.09.12-.06.22-.15.31-.25s.15-.24.19-.39c.04-.15.07-.31.07-.48,0-.35-.08-.63-.26-.85-.17-.21-.41-.32-.71-.32-.15,0-.29.03-.41.09-.12.06-.23.14-.31.25-.09.11-.15.23-.2.38-.05.14-.07.3-.07.48Z"/>
      <path d="M202.83,131.5c-.05.15-.12.29-.21.42-.09.13-.2.24-.33.34-.13.1-.27.17-.44.23-.16.06-.34.08-.54.08-.22,0-.44-.04-.64-.12-.21-.08-.39-.2-.54-.35-.16-.15-.28-.34-.37-.57-.09-.22-.14-.48-.14-.76,0-.27.04-.51.13-.72s.21-.4.35-.56c.15-.16.32-.28.51-.36.2-.09.4-.13.61-.13.26,0,.49.04.69.13.2.09.37.21.51.36.14.15.24.34.31.56s.11.46.11.72c0,.04,0,.08,0,.12,0,.04,0,.07-.01.09h-2.53c0,.15.03.29.08.41.05.13.12.23.21.33s.2.16.32.21c.12.05.25.07.4.07.27,0,.48-.07.63-.2.14-.13.25-.29.31-.48l.57.2ZM202.17,130.43c0-.24-.09-.45-.25-.61s-.38-.25-.68-.25c-.14,0-.27.02-.38.07-.11.05-.2.11-.28.2-.08.08-.14.17-.18.28-.05.1-.07.21-.08.32h1.84Z"/>
      <path d="M205.23,132.46h-.67l-1.36-3.37h.74l.96,2.6.97-2.6h.71l-1.34,3.37Z"/>
      <path d="M210.14,131.5c-.05.15-.12.29-.21.42-.09.13-.2.24-.33.34-.13.1-.27.17-.44.23-.16.06-.34.08-.54.08-.22,0-.44-.04-.64-.12-.21-.08-.39-.2-.54-.35-.16-.15-.28-.34-.37-.57-.09-.22-.14-.48-.14-.76,0-.27.04-.51.13-.72s.21-.4.35-.56c.15-.16.32-.28.51-.36.2-.09.4-.13.61-.13.26,0,.49.04.69.13.2.09.37.21.51.36.14.15.24.34.31.56s.11.46.11.72c0,.04,0,.08,0,.12,0,.04,0,.07-.01.09h-2.53c0,.15.03.29.08.41.05.13.12.23.21.33s.2.16.32.21c.12.05.25.07.4.07.27,0,.48-.07.63-.2.14-.13.25-.29.31-.48l.57.2ZM209.47,130.43c0-.24-.09-.45-.25-.61s-.38-.25-.68-.25c-.14,0-.27.02-.38.07-.11.05-.2.11-.28.2-.08.08-.14.17-.18.28-.05.1-.07.21-.08.32h1.84Z"/>
      <path d="M211.66,132.46h-.66v-3.37h.64v.48c.12-.21.28-.36.46-.45s.38-.13.57-.13.38.03.53.1c.15.07.28.16.38.28s.17.26.22.42c.05.16.07.34.07.53v2.13h-.66v-2.02c0-.12-.01-.23-.04-.33-.03-.1-.07-.19-.13-.27-.06-.08-.14-.14-.25-.18-.1-.04-.22-.07-.37-.07-.13,0-.25.02-.34.07-.1.05-.18.12-.25.2s-.11.18-.15.29c-.03.11-.05.23-.05.36v1.95Z"/>
      <path d="M215.81,129.09h.73v.59h-.73v1.75c0,.15.03.27.1.35s.19.12.36.12c.04,0,.09,0,.14,0,.05,0,.09-.01.12-.02v.56s-.08.02-.16.04c-.08.02-.17.02-.29.02-.29,0-.52-.08-.69-.25-.17-.17-.25-.4-.25-.71v-1.85h-.64v-.59h.18c.18,0,.31-.05.4-.15.08-.1.12-.22.12-.37v-.55h.6v1.06Z"/>
    </g>
    <g>
      <line class="cls-2" x1="50.95" y1="137.46" x2="294.72" y2="137.46"/>
      <polygon points="51.77 140.26 46.91 137.46 51.77 134.65 51.77 140.26"/>
    </g>
  </g>
  <g>
    <g>
      <path d="M125.41,153.41v-4.96h.69v4.32h2.34v.64h-3.03Z"/>
      <path d="M129.25,153.41v-4.96h3.02v.64h-2.33v1.53h2.11v.64h-2.11v1.52h2.33v.64h-3.02Z"/>
      <path d="M135.75,151.38v2.03h-.69v-4.96h1.81c.23,0,.44.04.63.11s.35.18.48.31c.13.13.24.29.31.47.07.18.11.37.11.58s-.04.41-.11.58c-.08.18-.18.33-.31.46-.13.13-.29.23-.48.3s-.4.11-.63.11h-1.12ZM136.74,150.77c.3,0,.53-.08.7-.23.17-.15.25-.36.25-.61s-.08-.48-.25-.63c-.17-.15-.41-.23-.7-.23h-.99v1.7h.99Z"/>
      <path d="M138.75,152.51c0-.15.03-.28.08-.4.05-.12.12-.22.21-.3s.2-.15.33-.2.26-.09.41-.11l.91-.13c.1-.01.17-.04.21-.09.04-.05.05-.1.05-.16,0-.16-.06-.3-.17-.42s-.3-.18-.56-.18c-.23,0-.41.06-.54.19-.13.13-.2.29-.22.49l-.63-.15c.02-.16.07-.3.14-.44s.18-.25.3-.35c.12-.1.26-.17.42-.22.16-.05.33-.08.51-.08.25,0,.47.03.64.1.18.07.32.16.43.27.11.11.19.24.25.39.05.15.08.3.08.47v1.69c0,.15,0,.27.01.36s.02.15.03.2h-.64s-.02-.1-.02-.17c0-.07-.01-.17-.01-.29-.04.06-.09.12-.15.19s-.14.13-.22.18c-.09.06-.19.1-.31.14-.12.03-.25.05-.4.05-.17,0-.33-.03-.46-.08s-.26-.13-.35-.22c-.1-.09-.17-.2-.23-.32-.05-.12-.08-.25-.08-.38ZM139.97,152.96c.13,0,.26-.02.38-.05s.22-.09.31-.17c.09-.08.15-.18.21-.31.05-.13.08-.28.08-.47v-.15l-1.03.15c-.14.02-.26.08-.35.16-.09.08-.14.2-.14.35,0,.13.05.24.15.34.1.1.23.15.4.15Z"/>
      <path d="M143.5,150.05h.73v.59h-.73v1.75c0,.15.03.27.1.35.07.08.19.12.36.12.04,0,.09,0,.14,0,.05,0,.09-.01.12-.02v.56s-.08.02-.16.04c-.08.02-.17.03-.29.03-.29,0-.52-.08-.69-.25s-.25-.4-.25-.71v-1.85h-.64v-.59h.18c.18,0,.31-.05.4-.15.08-.1.12-.22.12-.37v-.55h.6v1.06Z"/>
      <path d="M145.77,153.41h-.66v-5.07h.66v2.09c.12-.18.27-.3.46-.38.18-.07.37-.11.57-.11s.38.03.53.1c.15.07.28.16.38.28s.17.26.22.42c.05.16.07.34.07.53v2.13h-.66v-2.02c0-.12-.01-.23-.04-.33-.03-.1-.07-.19-.13-.27-.06-.08-.14-.14-.25-.18-.1-.04-.22-.07-.37-.07-.13,0-.24.02-.33.07-.1.05-.18.11-.24.19-.07.08-.12.17-.15.28s-.05.22-.06.35v1.98Z"/>
      <path d="M150.86,153.41v-4.96h.69v4.32h2.34v.64h-3.03Z"/>
      <path d="M156.07,149.94c.25,0,.48.05.69.14s.39.22.55.38c.15.16.27.35.36.56s.13.46.13.71-.04.49-.13.71-.2.41-.36.57c-.15.16-.34.28-.55.37s-.44.14-.69.14-.48-.05-.69-.14-.39-.22-.55-.37c-.15-.16-.27-.35-.36-.57s-.13-.46-.13-.71.04-.49.13-.71.2-.4.36-.56c.15-.16.34-.28.55-.38s.44-.14.69-.14ZM156.07,152.93c.14,0,.27-.03.4-.08s.24-.13.34-.23c.1-.1.17-.23.23-.38.06-.15.08-.32.08-.52s-.03-.37-.08-.51c-.06-.15-.13-.27-.23-.37-.1-.1-.21-.18-.34-.23s-.26-.08-.4-.08-.27.03-.4.08-.24.13-.34.23c-.1.1-.17.23-.23.37s-.08.32-.08.51.03.37.08.52c.06.15.13.28.23.38.1.1.21.18.34.23s.26.08.4.08Z"/>
      <path d="M158.91,152.33c.02.18.1.33.23.45.13.12.31.18.55.18.19,0,.33-.04.43-.13.1-.09.15-.19.15-.32,0-.11-.04-.2-.11-.27-.07-.08-.18-.13-.32-.16l-.57-.12c-.27-.06-.47-.17-.62-.34-.15-.17-.22-.37-.22-.61,0-.14.03-.28.09-.41.06-.13.15-.24.26-.34.11-.1.23-.17.38-.23.15-.06.3-.08.47-.08.23,0,.42.03.58.1.16.07.28.15.38.24s.17.2.22.3c.05.1.08.19.1.27l-.58.22s-.03-.1-.05-.16c-.02-.06-.06-.13-.11-.19s-.12-.11-.21-.15-.2-.06-.33-.06c-.17,0-.3.04-.41.14-.1.09-.15.19-.15.31,0,.21.13.35.38.41l.55.12c.31.07.54.19.7.36s.23.39.23.64c0,.12-.03.24-.08.36-.05.12-.13.23-.23.34-.1.1-.23.19-.38.25-.15.06-.34.09-.55.09-.23,0-.43-.03-.6-.1-.17-.06-.3-.15-.41-.24s-.19-.2-.25-.32c-.06-.12-.09-.22-.11-.32l.59-.21Z"/>
      <path d="M162.08,152.33c.02.18.1.33.23.45.13.12.31.18.55.18.19,0,.33-.04.43-.13.1-.09.15-.19.15-.32,0-.11-.04-.2-.11-.27-.07-.08-.18-.13-.32-.16l-.57-.12c-.27-.06-.47-.17-.62-.34-.15-.17-.22-.37-.22-.61,0-.14.03-.28.09-.41.06-.13.15-.24.26-.34.11-.1.23-.17.38-.23.15-.06.3-.08.47-.08.23,0,.42.03.58.1.16.07.28.15.38.24s.17.2.22.3c.05.1.08.19.1.27l-.58.22s-.03-.1-.05-.16c-.02-.06-.06-.13-.11-.19s-.12-.11-.21-.15-.2-.06-.33-.06c-.17,0-.3.04-.41.14-.1.09-.15.19-.15.31,0,.21.13.35.38.41l.55.12c.31.07.54.19.7.36s.23.39.23.64c0,.12-.03.24-.08.36-.05.12-.13.23-.23.34-.1.1-.23.19-.38.25-.15.06-.34.09-.55.09-.23,0-.43-.03-.6-.1-.17-.06-.3-.15-.41-.24s-.19-.2-.25-.32c-.06-.12-.09-.22-.11-.32l.59-.21Z"/>
      <path d="M168.56,149.09v4.33h-.69v-4.33h-1.66v-.64h4v.64h-1.66Z"/>
      <path d="M171.51,153.41h-.66v-5.07h.66v2.09c.12-.18.27-.3.46-.38.18-.07.37-.11.57-.11s.38.03.53.1c.15.07.28.16.38.28s.17.26.22.42c.05.16.07.34.07.53v2.13h-.66v-2.02c0-.12-.01-.23-.04-.33-.03-.1-.07-.19-.13-.27-.06-.08-.14-.14-.25-.18-.1-.04-.22-.07-.37-.07-.13,0-.24.02-.33.07-.1.05-.18.11-.24.19-.07.08-.12.17-.15.28s-.05.22-.06.35v1.98Z"/>
      <path d="M176.66,150.71c-.1-.01-.19-.02-.29-.02-.28,0-.5.08-.67.24-.17.16-.26.43-.26.79v1.69h-.66v-3.37h.64v.59c.06-.13.13-.24.21-.32.08-.08.17-.15.25-.2s.18-.08.27-.1c.09-.02.18-.03.27-.03.05,0,.09,0,.13,0,.04,0,.07,0,.09.01v.7Z"/>
      <path d="M180.29,152.46c-.05.15-.12.29-.21.42-.09.13-.2.24-.33.34-.13.1-.27.17-.44.23-.16.06-.34.08-.54.08-.22,0-.44-.04-.64-.12s-.39-.2-.54-.35c-.16-.15-.28-.34-.37-.57-.09-.22-.14-.48-.14-.76,0-.27.04-.51.13-.72.09-.22.21-.4.35-.56.15-.16.32-.28.51-.36s.4-.13.61-.13c.26,0,.49.04.69.13.2.09.37.21.51.36.14.15.24.34.31.56s.11.46.11.72c0,.04,0,.08,0,.12,0,.04,0,.07-.01.09h-2.53c0,.15.03.29.08.41.05.13.12.23.21.33.09.09.2.16.32.21.12.05.25.07.4.07.27,0,.48-.07.63-.2.14-.13.25-.29.31-.48l.57.2ZM179.62,151.38c0-.24-.09-.45-.25-.61s-.38-.25-.68-.25c-.14,0-.27.02-.38.07s-.2.12-.28.2c-.08.08-.14.17-.18.28-.05.1-.07.21-.08.32h1.84Z"/>
      <path d="M181.43,152.33c.02.18.1.33.23.45.13.12.31.18.55.18.19,0,.33-.04.43-.13.1-.09.15-.19.15-.32,0-.11-.04-.2-.11-.27-.07-.08-.18-.13-.32-.16l-.57-.12c-.27-.06-.47-.17-.62-.34-.15-.17-.22-.37-.22-.61,0-.14.03-.28.09-.41.06-.13.15-.24.26-.34.11-.1.23-.17.38-.23.15-.06.3-.08.47-.08.23,0,.42.03.58.1.16.07.28.15.38.24s.17.2.22.3c.05.1.08.19.1.27l-.58.22s-.03-.1-.05-.16c-.02-.06-.06-.13-.11-.19s-.12-.11-.21-.15-.2-.06-.33-.06c-.17,0-.3.04-.41.14-.1.09-.15.19-.15.31,0,.21.13.35.38.41l.55.12c.31.07.54.19.7.36s.23.39.23.64c0,.12-.03.24-.08.36-.05.12-.13.23-.23.34-.1.1-.23.19-.38.25-.15.06-.34.09-.55.09-.23,0-.43-.03-.6-.1-.17-.06-.3-.15-.41-.24s-.19-.2-.25-.32c-.06-.12-.09-.22-.11-.32l.59-.21Z"/>
      <path d="M184.97,153.41h-.66v-5.07h.66v2.09c.12-.18.27-.3.46-.38.18-.07.37-.11.57-.11s.38.03.53.1c.15.07.28.16.38.28s.17.26.22.42c.05.16.07.34.07.53v2.13h-.66v-2.02c0-.12-.01-.23-.04-.33-.03-.1-.07-.19-.13-.27-.06-.08-.14-.14-.25-.18-.1-.04-.22-.07-.37-.07-.13,0-.24.02-.33.07-.1.05-.18.11-.24.19-.07.08-.12.17-.15.28s-.05.22-.06.35v1.98Z"/>
      <path d="M189.69,149.94c.25,0,.48.05.69.14s.39.22.55.38c.15.16.27.35.36.56s.13.46.13.71-.04.49-.13.71-.2.41-.36.57c-.15.16-.34.28-.55.37s-.44.14-.69.14-.48-.05-.69-.14-.39-.22-.55-.37c-.15-.16-.27-.35-.36-.57s-.13-.46-.13-.71.04-.49.13-.71.2-.4.36-.56c.15-.16.34-.28.55-.38s.44-.14.69-.14ZM189.69,152.93c.14,0,.27-.03.4-.08s.24-.13.34-.23c.1-.1.17-.23.23-.38.06-.15.08-.32.08-.52s-.03-.37-.08-.51c-.06-.15-.13-.27-.23-.37-.1-.1-.21-.18-.34-.23s-.26-.08-.4-.08-.27.03-.4.08-.24.13-.34.23c-.1.1-.17.23-.23.37s-.08.32-.08.51.03.37.08.52c.06.15.13.28.23.38.1.1.21.18.34.23s.26.08.4.08Z"/>
      <path d="M192.25,153.41v-5.07h.66v5.07h-.66Z"/>
      <path d="M196.39,152.9c-.08.16-.21.3-.38.42-.17.12-.4.18-.66.18-.25,0-.47-.04-.67-.14s-.36-.22-.5-.38c-.14-.16-.24-.35-.32-.57-.07-.22-.11-.45-.11-.7,0-.24.04-.46.12-.68s.19-.4.33-.56c.14-.16.31-.29.5-.38.2-.1.41-.14.65-.14.15,0,.28.02.4.05.11.03.21.08.3.13.08.05.15.11.21.18.06.07.1.14.13.21v-2.18h.65v4.45c0,.16,0,.3.01.41,0,.11.02.18.02.21h-.64s-.02-.1-.02-.18c0-.08-.01-.17-.01-.28v-.06ZM194.42,151.72c0,.17.02.33.07.48.04.15.11.27.19.38s.19.19.31.25c.12.06.26.09.42.09.15,0,.28-.03.41-.09s.22-.15.31-.25.15-.24.19-.39c.04-.15.07-.31.07-.48,0-.35-.08-.63-.26-.85-.17-.21-.41-.32-.71-.32-.15,0-.29.03-.41.09-.12.06-.23.14-.31.25-.09.11-.15.23-.2.38-.05.14-.07.3-.07.48Z"/>
      <path d="M202.83,152.46c-.05.15-.12.29-.21.42-.09.13-.2.24-.33.34-.13.1-.27.17-.44.23-.16.06-.34.08-.54.08-.22,0-.44-.04-.64-.12s-.39-.2-.54-.35c-.16-.15-.28-.34-.37-.57-.09-.22-.14-.48-.14-.76,0-.27.04-.51.13-.72.09-.22.21-.4.35-.56.15-.16.32-.28.51-.36s.4-.13.61-.13c.26,0,.49.04.69.13.2.09.37.21.51.36.14.15.24.34.31.56s.11.46.11.72c0,.04,0,.08,0,.12,0,.04,0,.07-.01.09h-2.53c0,.15.03.29.08.41.05.13.12.23.21.33.09.09.2.16.32.21.12.05.25.07.4.07.27,0,.48-.07.63-.2.14-.13.25-.29.31-.48l.57.2ZM202.16,151.38c0-.24-.09-.45-.25-.61s-.38-.25-.68-.25c-.14,0-.27.02-.38.07s-.2.12-.28.2c-.08.08-.14.17-.18.28-.05.1-.07.21-.08.32h1.84Z"/>
      <path d="M205.23,153.41h-.67l-1.36-3.37h.74l.96,2.6.97-2.6h.71l-1.34,3.37Z"/>
      <path d="M210.14,152.46c-.05.15-.12.29-.21.42-.09.13-.2.24-.33.34-.13.1-.27.17-.44.23-.16.06-.34.08-.54.08-.22,0-.44-.04-.64-.12s-.39-.2-.54-.35c-.16-.15-.28-.34-.37-.57-.09-.22-.14-.48-.14-.76,0-.27.04-.51.13-.72.09-.22.21-.4.35-.56.15-.16.32-.28.51-.36s.4-.13.61-.13c.26,0,.49.04.69.13.2.09.37.21.51.36.14.15.24.34.31.56s.11.46.11.72c0,.04,0,.08,0,.12,0,.04,0,.07-.01.09h-2.53c0,.15.03.29.08.41.05.13.12.23.21.33.09.09.2.16.32.21.12.05.25.07.4.07.27,0,.48-.07.63-.2.14-.13.25-.29.31-.48l.57.2ZM209.47,151.38c0-.24-.09-.45-.25-.61s-.38-.25-.68-.25c-.14,0-.27.02-.38.07s-.2.12-.28.2c-.08.08-.14.17-.18.28-.05.1-.07.21-.08.32h1.84Z"/>
      <path d="M211.66,153.41h-.66v-3.37h.64v.48c.12-.21.28-.36.46-.45.19-.09.38-.13.57-.13s.38.03.53.1c.15.07.28.16.38.28s.17.26.22.42c.05.16.07.34.07.53v2.13h-.66v-2.02c0-.12-.01-.23-.04-.33-.03-.1-.07-.19-.13-.27-.06-.08-.14-.14-.25-.18-.1-.04-.22-.07-.37-.07-.13,0-.25.03-.34.07-.1.05-.18.12-.25.2s-.11.18-.15.29c-.03.11-.05.23-.05.36v1.95Z"/>
      <path d="M215.81,150.05h.73v.59h-.73v1.75c0,.15.03.27.1.35.07.08.19.12.36.12.04,0,.09,0,.14,0,.05,0,.09-.01.12-.02v.56s-.08.02-.16.04c-.08.02-.17.03-.29.03-.29,0-.52-.08-.69-.25s-.25-.4-.25-.71v-1.85h-.64v-.59h.18c.18,0,.31-.05.4-.15.08-.1.12-.22.12-.37v-.55h.6v1.06Z"/>
    </g>
    <g>
      <line class="cls-2" x1="294.72" y1="158.41" x2="50.95" y2="158.41"/>
      <polygon points="51.77 155.61 46.91 158.41 51.77 161.22 51.77 155.61"/>
    </g>
  </g>
  <g>
    <g>
      <path d="M125.41,174.37v-4.96h.69v4.32h2.34v.64h-3.03Z"/>
      <path d="M129.25,174.37v-4.96h3.02v.64h-2.33v1.53h2.11v.64h-2.11v1.52h2.33v.64h-3.02Z"/>
      <path d="M135.75,172.34v2.03h-.69v-4.96h1.81c.23,0,.44.04.63.11.19.07.35.18.48.31.13.13.24.29.31.46.07.18.11.37.11.58s-.04.41-.11.58c-.08.18-.18.33-.31.46-.13.13-.29.23-.48.3-.19.07-.4.11-.63.11h-1.12ZM136.74,171.72c.3,0,.53-.08.7-.23.17-.15.25-.36.25-.61s-.08-.48-.25-.63c-.17-.15-.41-.23-.7-.23h-.99v1.7h.99Z"/>
      <path d="M138.75,173.46c0-.15.03-.28.08-.4.05-.12.12-.22.21-.3s.2-.15.33-.2c.13-.05.26-.09.41-.11l.91-.13c.1-.01.17-.04.21-.09.04-.05.05-.1.05-.16,0-.16-.06-.3-.17-.42s-.3-.18-.56-.18c-.23,0-.41.06-.54.19-.13.13-.2.29-.22.49l-.63-.15c.02-.16.07-.31.14-.44.08-.14.18-.25.3-.35.12-.1.26-.17.42-.22s.33-.08.51-.08c.25,0,.47.03.64.1.18.07.32.16.43.27s.19.24.25.39c.05.15.08.31.08.47v1.69c0,.15,0,.27.01.36,0,.09.02.15.03.2h-.64s-.02-.1-.02-.17c0-.07-.01-.17-.01-.29-.04.06-.09.12-.15.19s-.14.13-.22.18c-.09.06-.19.1-.31.14-.12.04-.25.05-.4.05-.17,0-.33-.03-.46-.08-.14-.06-.26-.13-.35-.22-.1-.09-.17-.2-.23-.32s-.08-.25-.08-.38ZM139.97,173.92c.13,0,.26-.02.38-.05s.22-.09.31-.17c.09-.08.15-.18.21-.31.05-.13.08-.28.08-.46v-.15l-1.03.15c-.14.02-.26.08-.35.16-.09.08-.14.2-.14.35,0,.13.05.24.15.34.1.1.23.15.4.15Z"/>
      <path d="M143.51,171h.73v.6h-.73v1.75c0,.15.03.27.1.35.07.08.19.12.36.12.04,0,.09,0,.14,0,.05,0,.09-.01.12-.02v.56s-.08.02-.16.04-.17.02-.29.02c-.29,0-.52-.08-.69-.25-.17-.17-.25-.4-.25-.71v-1.85h-.64v-.6h.18c.18,0,.31-.05.4-.15.08-.1.12-.22.12-.37v-.55h.6v1.06Z"/>
      <path d="M145.77,174.37h-.66v-5.07h.66v2.09c.12-.18.27-.3.46-.38.18-.08.37-.11.57-.11s.38.03.53.1.28.16.38.28.17.26.22.42c.05.16.07.34.07.53v2.13h-.66v-2.02c0-.12-.01-.23-.04-.33-.03-.1-.07-.19-.13-.27-.06-.08-.14-.14-.25-.18-.1-.04-.22-.07-.37-.07-.13,0-.24.02-.33.07-.1.05-.18.11-.24.19-.07.08-.12.17-.15.28s-.05.22-.06.35v1.98Z"/>
      <path d="M150.86,174.37v-4.96h.69v4.32h2.34v.64h-3.03Z"/>
      <path d="M156.07,170.9c.25,0,.48.05.69.14s.39.22.55.37c.15.16.27.35.36.56s.13.45.13.71-.04.49-.13.71-.2.41-.36.57c-.15.16-.34.28-.55.37s-.44.14-.69.14-.48-.05-.69-.14-.39-.22-.55-.37c-.15-.16-.27-.35-.36-.57s-.13-.46-.13-.71.04-.49.13-.71.2-.4.36-.56c.15-.16.34-.28.55-.37s.44-.14.69-.14ZM156.07,173.88c.14,0,.27-.03.4-.08.13-.05.24-.13.34-.23.1-.1.17-.23.23-.38.06-.15.08-.32.08-.52s-.03-.37-.08-.51c-.06-.15-.13-.27-.23-.38-.1-.1-.21-.18-.34-.23s-.26-.08-.4-.08-.27.03-.4.08-.24.13-.34.23c-.1.1-.17.23-.23.38-.06.15-.08.32-.08.51s.03.37.08.52.13.28.23.38c.1.1.21.18.34.23.13.05.26.08.4.08Z"/>
      <path d="M158.91,173.28c.02.18.1.33.23.45.13.12.31.18.55.18.19,0,.33-.04.43-.13.1-.09.15-.19.15-.31,0-.11-.04-.2-.11-.27-.07-.07-.18-.13-.32-.16l-.57-.13c-.27-.06-.47-.17-.62-.34-.15-.17-.22-.37-.22-.61,0-.14.03-.28.09-.41.06-.13.15-.24.26-.34.11-.1.23-.17.38-.23.15-.06.3-.08.47-.08.23,0,.42.03.58.1.16.07.28.15.38.24s.17.19.22.3.08.19.1.27l-.58.22s-.03-.1-.05-.16-.06-.13-.11-.19-.12-.11-.21-.15-.2-.06-.33-.06c-.17,0-.3.05-.41.14s-.15.2-.15.31c0,.21.13.35.38.41l.55.12c.31.07.54.19.7.36s.23.39.23.64c0,.12-.03.24-.08.36-.05.12-.13.23-.23.34-.1.1-.23.18-.38.25s-.34.09-.55.09c-.23,0-.43-.03-.6-.1-.17-.06-.3-.15-.41-.24-.11-.1-.19-.2-.25-.32-.06-.11-.09-.22-.11-.32l.59-.21Z"/>
      <path d="M162.08,173.28c.02.18.1.33.23.45.13.12.31.18.55.18.19,0,.33-.04.43-.13.1-.09.15-.19.15-.31,0-.11-.04-.2-.11-.27-.07-.07-.18-.13-.32-.16l-.57-.13c-.27-.06-.47-.17-.62-.34-.15-.17-.22-.37-.22-.61,0-.14.03-.28.09-.41.06-.13.15-.24.26-.34.11-.1.23-.17.38-.23.15-.06.3-.08.47-.08.23,0,.42.03.58.1.16.07.28.15.38.24s.17.19.22.3.08.19.1.27l-.58.22s-.03-.1-.05-.16-.06-.13-.11-.19-.12-.11-.21-.15-.2-.06-.33-.06c-.17,0-.3.05-.41.14s-.15.2-.15.31c0,.21.13.35.38.41l.55.12c.31.07.54.19.7.36s.23.39.23.64c0,.12-.03.24-.08.36-.05.12-.13.23-.23.34-.1.1-.23.18-.38.25s-.34.09-.55.09c-.23,0-.43-.03-.6-.1-.17-.06-.3-.15-.41-.24-.11-.1-.19-.2-.25-.32-.06-.11-.09-.22-.11-.32l.59-.21Z"/>
      <path d="M168.57,170.04v4.33h-.69v-4.33h-1.66v-.64h4v.64h-1.66Z"/>
      <path d="M171.51,174.37h-.66v-5.07h.66v2.09c.12-.18.27-.3.46-.38.18-.08.37-.11.57-.11s.38.03.53.1.28.16.38.28.17.26.22.42c.05.16.07.34.07.53v2.13h-.66v-2.02c0-.12-.01-.23-.04-.33-.03-.1-.07-.19-.13-.27-.06-.08-.14-.14-.25-.18-.1-.04-.22-.07-.37-.07-.13,0-.24.02-.33.07-.1.05-.18.11-.24.19-.07.08-.12.17-.15.28s-.05.22-.06.35v1.98Z"/>
      <path d="M176.66,171.67c-.1-.01-.19-.02-.29-.02-.28,0-.5.08-.67.24-.17.16-.26.43-.26.79v1.69h-.66v-3.37h.64v.59c.06-.13.13-.24.21-.32s.17-.15.25-.2.18-.08.27-.1c.09-.02.18-.03.27-.03.05,0,.09,0,.13,0,.04,0,.07,0,.09.01v.7Z"/>
      <path d="M180.29,173.41c-.05.15-.12.29-.21.42-.09.13-.2.24-.33.34-.13.1-.27.17-.44.23-.16.06-.34.08-.54.08-.22,0-.44-.04-.64-.12s-.39-.2-.54-.35c-.16-.15-.28-.34-.37-.57-.09-.22-.14-.48-.14-.76,0-.27.04-.51.13-.72.09-.22.21-.4.35-.56.15-.16.32-.28.51-.36.2-.09.4-.13.61-.13.26,0,.49.04.69.13.2.09.37.21.51.36.14.15.24.34.31.56.07.22.11.46.11.72,0,.04,0,.08,0,.12,0,.04,0,.07-.01.09h-2.53c0,.15.03.29.08.41.05.13.12.23.21.33.09.09.2.16.32.21.12.05.25.07.4.07.27,0,.48-.07.63-.2.14-.13.25-.29.31-.48l.57.2ZM179.62,172.34c0-.24-.09-.45-.25-.61-.15-.17-.38-.25-.68-.25-.14,0-.27.02-.38.07s-.2.11-.28.2c-.08.08-.14.17-.18.28-.05.1-.07.21-.08.32h1.84Z"/>
      <path d="M181.43,173.28c.02.18.1.33.23.45.13.12.31.18.55.18.19,0,.33-.04.43-.13.1-.09.15-.19.15-.31,0-.11-.04-.2-.11-.27-.07-.07-.18-.13-.32-.16l-.57-.13c-.27-.06-.47-.17-.62-.34-.15-.17-.22-.37-.22-.61,0-.14.03-.28.09-.41.06-.13.15-.24.26-.34.11-.1.23-.17.38-.23.15-.06.3-.08.47-.08.23,0,.42.03.58.1.16.07.28.15.38.24s.17.19.22.3.08.19.1.27l-.58.22s-.03-.1-.05-.16-.06-.13-.11-.19-.12-.11-.21-.15-.2-.06-.33-.06c-.17,0-.3.05-.41.14s-.15.2-.15.31c0,.21.13.35.38.41l.55.12c.31.07.54.19.7.36s.23.39.23.64c0,.12-.03.24-.08.36-.05.12-.13.23-.23.34-.1.1-.23.18-.38.25s-.34.09-.55.09c-.23,0-.43-.03-.6-.1-.17-.06-.3-.15-.41-.24-.11-.1-.19-.2-.25-.32-.06-.11-.09-.22-.11-.32l.59-.21Z"/>
      <path d="M184.97,174.37h-.66v-5.07h.66v2.09c.12-.18.27-.3.46-.38.18-.08.37-.11.57-.11s.38.03.53.1.28.16.38.28.17.26.22.42c.05.16.07.34.07.53v2.13h-.66v-2.02c0-.12-.01-.23-.04-.33-.03-.1-.07-.19-.13-.27-.06-.08-.14-.14-.25-.18-.1-.04-.22-.07-.37-.07-.13,0-.24.02-.33.07-.1.05-.18.11-.24.19-.07.08-.12.17-.15.28s-.05.22-.06.35v1.98Z"/>
      <path d="M189.69,170.9c.25,0,.48.05.69.14s.39.22.55.37c.15.16.27.35.36.56s.13.45.13.71-.04.49-.13.71-.2.41-.36.57c-.15.16-.34.28-.55.37s-.44.14-.69.14-.48-.05-.69-.14-.39-.22-.55-.37c-.15-.16-.27-.35-.36-.57s-.13-.46-.13-.71.04-.49.13-.71.2-.4.36-.56c.15-.16.34-.28.55-.37s.44-.14.69-.14ZM189.69,173.88c.14,0,.27-.03.4-.08.13-.05.24-.13.34-.23.1-.1.17-.23.23-.38.06-.15.08-.32.08-.52s-.03-.37-.08-.51c-.06-.15-.13-.27-.23-.38-.1-.1-.21-.18-.34-.23s-.26-.08-.4-.08-.27.03-.4.08-.24.13-.34.23c-.1.1-.17.23-.23.38-.06.15-.08.32-.08.51s.03.37.08.52.13.28.23.38c.1.1.21.18.34.23.13.05.26.08.4.08Z"/>
      <path d="M192.25,174.37v-5.07h.66v5.07h-.66Z"/>
      <path d="M196.39,173.86c-.08.16-.21.3-.38.42-.17.12-.4.18-.66.18-.25,0-.47-.04-.67-.14-.2-.09-.36-.22-.5-.38-.14-.16-.24-.35-.32-.57-.07-.22-.11-.45-.11-.7,0-.24.04-.46.12-.68.08-.21.19-.4.33-.56.14-.16.31-.29.5-.38.2-.1.41-.14.65-.14.15,0,.28.02.4.05.11.03.21.08.3.13s.15.11.21.18c.06.07.1.14.13.21v-2.18h.65v4.44c0,.16,0,.3.01.41,0,.11.02.18.02.21h-.64s-.02-.1-.02-.18c0-.08-.01-.17-.01-.28v-.06ZM194.42,172.67c0,.17.02.33.07.48.04.15.11.27.19.38s.19.19.31.25c.12.06.26.09.42.09.15,0,.28-.03.41-.09.12-.06.22-.15.31-.26s.15-.24.19-.38c.04-.15.07-.31.07-.48,0-.35-.08-.63-.26-.85-.17-.21-.41-.32-.71-.32-.15,0-.29.03-.41.09-.12.06-.23.14-.31.25-.09.1-.15.23-.2.37-.05.14-.07.3-.07.48Z"/>
      <path d="M202.83,173.41c-.05.15-.12.29-.21.42-.09.13-.2.24-.33.34-.13.1-.27.17-.44.23-.16.06-.34.08-.54.08-.22,0-.44-.04-.64-.12s-.39-.2-.54-.35c-.16-.15-.28-.34-.37-.57-.09-.22-.14-.48-.14-.76,0-.27.04-.51.13-.72.09-.22.21-.4.35-.56.15-.16.32-.28.51-.36.2-.09.4-.13.61-.13.26,0,.49.04.69.13.2.09.37.21.51.36.14.15.24.34.31.56.07.22.11.46.11.72,0,.04,0,.08,0,.12,0,.04,0,.07-.01.09h-2.53c0,.15.03.29.08.41.05.13.12.23.21.33.09.09.2.16.32.21.12.05.25.07.4.07.27,0,.48-.07.63-.2.14-.13.25-.29.31-.48l.57.2ZM202.17,172.34c0-.24-.09-.45-.25-.61-.15-.17-.38-.25-.68-.25-.14,0-.27.02-.38.07s-.2.11-.28.2c-.08.08-.14.17-.18.28-.05.1-.07.21-.08.32h1.84Z"/>
      <path d="M205.23,174.37h-.67l-1.36-3.37h.74l.96,2.6.97-2.6h.71l-1.34,3.37Z"/>
      <path d="M210.14,173.41c-.05.15-.12.29-.21.42-.09.13-.2.24-.33.34-.13.1-.27.17-.44.23-.16.06-.34.08-.54.08-.22,0-.44-.04-.64-.12s-.39-.2-.54-.35c-.16-.15-.28-.34-.37-.57-.09-.22-.14-.48-.14-.76,0-.27.04-.51.13-.72.09-.22.21-.4.35-.56.15-.16.32-.28.51-.36.2-.09.4-.13.61-.13.26,0,.49.04.69.13.2.09.37.21.51.36.14.15.24.34.31.56.07.22.11.46.11.72,0,.04,0,.08,0,.12,0,.04,0,.07-.01.09h-2.53c0,.15.03.29.08.41.05.13.12.23.21.33.09.09.2.16.32.21.12.05.25.07.4.07.27,0,.48-.07.63-.2.14-.13.25-.29.31-.48l.57.2ZM209.47,172.34c0-.24-.09-.45-.25-.61-.15-.17-.38-.25-.68-.25-.14,0-.27.02-.38.07s-.2.11-.28.2c-.08.08-.14.17-.18.28-.05.1-.07.21-.08.32h1.84Z"/>
      <path d="M211.66,174.37h-.66v-3.37h.64v.48c.12-.21.28-.36.46-.45.19-.09.38-.13.57-.13s.38.03.53.1.28.16.38.28.17.26.22.42c.05.16.07.34.07.53v2.13h-.66v-2.02c0-.12-.01-.23-.04-.33-.03-.1-.07-.19-.13-.27-.06-.08-.14-.14-.25-.18-.1-.04-.22-.07-.37-.07-.13,0-.25.02-.34.07-.1.05-.18.12-.25.2s-.11.18-.15.29c-.03.11-.05.23-.05.36v1.95Z"/>
      <path d="M215.81,171h.73v.6h-.73v1.75c0,.15.03.27.1.35.07.08.19.12.36.12.04,0,.09,0,.14,0,.05,0,.09-.01.12-.02v.56s-.08.02-.16.04-.17.02-.29.02c-.29,0-.52-.08-.69-.25-.17-.17-.25-.4-.25-.71v-1.85h-.64v-.6h.18c.18,0,.31-.05.4-.15.08-.1.12-.22.12-.37v-.55h.6v1.06Z"/>
    </g>
    <g>
      <line class="cls-2" x1="50.95" y1="179.37" x2="294.72" y2="179.37"/>
      <polygon points="51.77 182.17 46.91 179.37 51.77 176.56 51.77 182.17"/>
    </g>
  </g>
  <g>
    <g>
      <path d="M93.82,69.6v-4.96h.69v4.32h2.34v.64h-3.03Z"/>
      <path d="M97.65,69.6v-4.96h3.02v.64h-2.33v1.53h2.11v.64h-2.11v1.52h2.33v.64h-3.02Z"/>
      <path d="M106.02,65.98c-.01-.09-.04-.18-.09-.28-.05-.1-.11-.19-.2-.28s-.19-.15-.31-.21-.28-.08-.45-.08c-.14,0-.27.02-.38.06-.12.04-.22.1-.3.17-.09.08-.15.16-.2.26-.05.1-.07.21-.07.33,0,.18.05.33.16.46s.27.22.48.26l.74.16c.42.09.73.26.96.5.22.24.33.54.33.89,0,.19-.04.38-.12.55-.08.18-.19.33-.34.47-.15.13-.33.24-.54.33-.21.08-.45.12-.71.12-.3,0-.56-.04-.78-.13s-.41-.2-.56-.34c-.15-.14-.27-.3-.35-.47s-.14-.35-.16-.53l.66-.21c.01.14.05.27.1.4s.13.24.23.34c.1.1.22.18.36.23.14.06.31.09.49.09.34,0,.6-.08.77-.23.17-.15.25-.34.25-.56,0-.18-.06-.34-.18-.48-.12-.14-.31-.24-.56-.29l-.71-.15c-.35-.08-.64-.23-.87-.46-.23-.23-.34-.53-.34-.9,0-.2.04-.38.13-.56.08-.18.2-.33.35-.47.15-.14.32-.24.52-.33.2-.08.42-.12.64-.12.28,0,.52.04.72.12.2.08.36.18.5.3.13.12.24.25.31.4.08.14.13.28.15.42l-.62.22Z"/>
      <path d="M110.49,68.64c-.05.15-.12.29-.21.42-.09.13-.2.24-.33.34-.13.1-.27.17-.44.23-.16.06-.34.08-.54.08-.22,0-.44-.04-.64-.12-.21-.08-.39-.2-.54-.35-.16-.15-.28-.34-.37-.57-.09-.22-.14-.48-.14-.76,0-.27.04-.51.13-.72s.21-.4.35-.56c.15-.16.32-.28.51-.36.2-.09.4-.13.61-.13.26,0,.49.04.69.13.2.09.37.21.51.36.14.15.24.34.31.56s.11.46.11.72c0,.04,0,.08,0,.12,0,.04,0,.07-.01.09h-2.53c0,.15.03.29.08.41.05.13.12.23.21.33s.2.16.32.21c.12.05.25.07.4.07.27,0,.48-.07.63-.2.14-.13.25-.29.31-.48l.57.2ZM109.82,67.57c0-.24-.09-.45-.25-.61s-.38-.25-.68-.25c-.14,0-.27.02-.38.07-.11.05-.2.11-.28.2-.08.08-.14.17-.18.28-.05.1-.07.21-.08.32h1.84Z"/>
      <path d="M112.23,66.23h.73v.59h-.73v1.75c0,.15.03.27.1.35s.19.12.36.12c.04,0,.09,0,.14,0,.05,0,.09-.01.12-.02v.56s-.08.02-.16.04c-.08.02-.17.02-.29.02-.29,0-.52-.08-.69-.25-.17-.17-.25-.4-.25-.71v-1.85h-.64v-.59h.18c.18,0,.31-.05.4-.15.08-.1.12-.22.12-.37v-.55h.6v1.06Z"/>
      <path d="M116.34,67.57v2.03h-.69v-4.96h1.81c.23,0,.44.04.63.11.19.08.35.18.48.31.13.13.24.29.31.47.07.18.11.37.11.58s-.04.41-.11.58c-.08.18-.18.33-.31.46-.13.13-.29.23-.48.3-.19.08-.4.11-.63.11h-1.12ZM117.33,66.95c.3,0,.53-.08.7-.23.17-.15.25-.36.25-.61s-.08-.48-.25-.63c-.17-.15-.41-.23-.7-.23h-.99v1.7h.99Z"/>
      <path d="M119.34,68.7c0-.15.03-.28.08-.4.05-.12.12-.22.21-.3s.2-.15.33-.2c.13-.05.26-.09.41-.11l.91-.13c.1-.01.17-.04.21-.09s.05-.1.05-.16c0-.16-.06-.3-.17-.42s-.3-.18-.56-.18c-.23,0-.41.06-.54.19s-.2.29-.22.49l-.63-.15c.02-.16.07-.31.14-.44.08-.13.18-.25.3-.35.12-.1.26-.17.42-.22s.33-.08.51-.08c.25,0,.47.03.64.1.18.07.32.16.43.27.11.11.19.24.25.39.05.15.08.31.08.47v1.69c0,.15,0,.27.01.36s.02.15.03.2h-.64s-.02-.1-.02-.17c0-.07-.01-.17-.01-.29-.04.06-.09.12-.15.19-.06.07-.14.13-.22.18-.09.06-.19.1-.31.14-.12.03-.25.05-.4.05-.17,0-.33-.03-.46-.08-.14-.06-.26-.13-.35-.22-.1-.09-.17-.2-.23-.32-.05-.12-.08-.25-.08-.38ZM120.56,69.15c.13,0,.26-.02.38-.05s.22-.09.31-.17c.09-.08.15-.18.21-.31.05-.13.08-.28.08-.47v-.15l-1.03.15c-.14.02-.26.08-.35.16-.09.08-.14.2-.14.35,0,.13.05.24.15.34s.23.15.4.15Z"/>
      <path d="M124.09,66.23h.73v.59h-.73v1.75c0,.15.03.27.1.35s.19.12.36.12c.04,0,.09,0,.14,0,.05,0,.09-.01.12-.02v.56s-.08.02-.16.04c-.08.02-.17.02-.29.02-.29,0-.52-.08-.69-.25-.17-.17-.25-.4-.25-.71v-1.85h-.64v-.59h.18c.18,0,.31-.05.4-.15.08-.1.12-.22.12-.37v-.55h.6v1.06Z"/>
      <path d="M126.36,69.6h-.66v-5.07h.66v2.09c.12-.18.27-.3.46-.38.18-.07.37-.11.57-.11s.38.03.53.1c.15.07.28.16.38.28s.17.26.22.42c.05.16.07.34.07.53v2.13h-.66v-2.02c0-.12-.01-.23-.04-.33-.03-.1-.07-.19-.13-.27-.06-.08-.14-.14-.25-.18-.1-.04-.22-.07-.37-.07-.13,0-.24.02-.33.07-.1.05-.18.11-.24.19s-.12.17-.15.28-.05.22-.06.35v1.98Z"/>
      <path d="M131.45,69.6v-4.96h.69v4.32h2.34v.64h-3.03Z"/>
      <path d="M136.66,66.13c.25,0,.48.05.69.14s.39.22.55.38c.15.16.27.35.36.56s.13.45.13.71-.04.5-.13.71c-.08.22-.2.41-.36.57-.15.16-.34.28-.55.37-.21.09-.44.14-.69.14s-.48-.04-.69-.14c-.21-.09-.39-.21-.55-.37-.15-.16-.27-.35-.36-.57-.08-.22-.13-.46-.13-.71s.04-.49.13-.71.2-.41.36-.56c.15-.16.34-.28.55-.38s.44-.14.69-.14ZM136.66,69.12c.14,0,.27-.03.4-.08.13-.05.24-.13.34-.23.1-.1.17-.23.23-.38.06-.15.08-.32.08-.52s-.03-.37-.08-.51c-.06-.15-.13-.27-.23-.37-.1-.1-.21-.18-.34-.23-.13-.05-.26-.08-.4-.08s-.27.03-.4.08c-.13.05-.24.13-.34.23-.1.1-.17.23-.23.37-.06.15-.08.32-.08.51s.03.37.08.52.13.28.23.38c.1.1.21.18.34.23.13.05.26.08.4.08Z"/>
      <path d="M139.5,68.51c.02.18.1.33.23.45.13.12.31.18.55.18.19,0,.33-.04.43-.13.1-.09.15-.19.15-.32,0-.11-.04-.2-.11-.27-.07-.08-.18-.13-.32-.16l-.57-.13c-.27-.06-.47-.17-.62-.34-.15-.17-.22-.37-.22-.61,0-.14.03-.28.09-.41.06-.13.15-.24.26-.34s.23-.17.38-.23c.15-.06.3-.08.47-.08.23,0,.42.03.58.1.16.07.28.15.38.24s.17.2.22.3.08.19.1.27l-.58.22s-.03-.1-.05-.16c-.02-.06-.06-.13-.11-.19-.05-.06-.12-.11-.21-.15s-.2-.06-.33-.06c-.17,0-.3.04-.41.14-.1.09-.15.19-.15.31,0,.21.13.35.38.41l.55.12c.31.07.54.19.7.36.16.18.23.39.23.64,0,.12-.03.24-.08.36-.05.12-.13.23-.23.34-.1.1-.23.19-.38.25-.15.06-.34.09-.55.09-.23,0-.43-.03-.6-.1s-.3-.15-.41-.25-.19-.2-.25-.32-.09-.22-.11-.32l.59-.21Z"/>
      <path d="M142.67,68.51c.02.18.1.33.23.45.13.12.31.18.55.18.19,0,.33-.04.43-.13.1-.09.15-.19.15-.32,0-.11-.04-.2-.11-.27-.07-.08-.18-.13-.32-.16l-.57-.13c-.27-.06-.47-.17-.62-.34-.15-.17-.22-.37-.22-.61,0-.14.03-.28.09-.41.06-.13.15-.24.26-.34s.23-.17.38-.23c.15-.06.3-.08.47-.08.23,0,.42.03.58.1.16.07.28.15.38.24s.17.2.22.3.08.19.1.27l-.58.22s-.03-.1-.05-.16c-.02-.06-.06-.13-.11-.19-.05-.06-.12-.11-.21-.15s-.2-.06-.33-.06c-.17,0-.3.04-.41.14-.1.09-.15.19-.15.31,0,.21.13.35.38.41l.55.12c.31.07.54.19.7.36.16.18.23.39.23.64,0,.12-.03.24-.08.36-.05.12-.13.23-.23.34-.1.1-.23.19-.38.25-.15.06-.34.09-.55.09-.23,0-.43-.03-.6-.1s-.3-.15-.41-.25-.19-.2-.25-.32-.09-.22-.11-.32l.59-.21Z"/>
      <path d="M148.8,67.57h-.74v2.03h-.69v-4.96h1.87c.23,0,.44.04.63.12.19.08.35.18.48.31.13.13.23.29.3.47s.1.37.1.58c0,.36-.11.67-.32.92-.21.25-.51.42-.88.49l1.18,2.08h-.8l-1.13-2.03ZM149.11,66.95c.28,0,.51-.08.68-.23.17-.15.26-.36.26-.61s-.09-.48-.26-.63-.4-.23-.68-.23h-1.05v1.7h1.05Z"/>
      <path d="M154.43,68.64c-.05.15-.12.29-.21.42-.09.13-.2.24-.33.34-.13.1-.27.17-.44.23-.16.06-.34.08-.54.08-.22,0-.44-.04-.64-.12-.21-.08-.39-.2-.54-.35-.16-.15-.28-.34-.37-.57-.09-.22-.14-.48-.14-.76,0-.27.04-.51.13-.72s.21-.4.35-.56c.15-.16.32-.28.51-.36.2-.09.4-.13.61-.13.26,0,.49.04.69.13.2.09.37.21.51.36.14.15.24.34.31.56s.11.46.11.72c0,.04,0,.08,0,.12,0,.04,0,.07-.01.09h-2.53c0,.15.03.29.08.41.05.13.12.23.21.33s.2.16.32.21c.12.05.25.07.4.07.27,0,.48-.07.63-.2.14-.13.25-.29.31-.48l.57.2ZM153.76,67.57c0-.24-.09-.45-.25-.61s-.38-.25-.68-.25c-.14,0-.27.02-.38.07-.11.05-.2.11-.28.2-.08.08-.14.17-.18.28-.05.1-.07.21-.08.32h1.84Z"/>
      <path d="M155.29,70.93v-4.7h.64v.53c.09-.17.24-.31.43-.43.19-.12.42-.17.7-.17.25,0,.47.05.67.14.19.09.35.22.48.37.13.16.23.35.29.56s.1.44.1.69-.04.49-.11.7c-.07.21-.17.4-.31.56s-.3.29-.49.38c-.19.09-.41.14-.66.14-.26,0-.49-.05-.67-.16s-.33-.24-.42-.38v1.79h-.65ZM157.93,67.91c0-.17-.02-.32-.07-.46-.05-.14-.11-.27-.2-.37-.08-.11-.19-.19-.31-.25-.12-.06-.26-.09-.42-.09s-.29.03-.41.09c-.12.06-.23.14-.32.25-.09.1-.16.23-.2.37-.05.14-.07.3-.07.46s.02.33.07.48c.05.15.11.27.2.38.09.11.2.19.32.25.12.06.26.09.41.09s.29-.03.41-.09c.12-.06.22-.14.31-.25.09-.1.15-.23.2-.38.05-.15.07-.31.07-.48Z"/>
      <path d="M160.88,66.13c.25,0,.48.05.69.14s.39.22.55.38c.15.16.27.35.36.56s.13.45.13.71-.04.5-.13.71c-.08.22-.2.41-.36.57-.15.16-.34.28-.55.37-.21.09-.44.14-.69.14s-.48-.04-.69-.14c-.21-.09-.39-.21-.55-.37-.15-.16-.27-.35-.36-.57-.08-.22-.13-.46-.13-.71s.04-.49.13-.71.2-.41.36-.56c.15-.16.34-.28.55-.38s.44-.14.69-.14ZM160.88,69.12c.14,0,.27-.03.4-.08.13-.05.24-.13.34-.23.1-.1.17-.23.23-.38.06-.15.08-.32.08-.52s-.03-.37-.08-.51c-.06-.15-.13-.27-.23-.37-.1-.1-.21-.18-.34-.23-.13-.05-.26-.08-.4-.08s-.27.03-.4.08c-.13.05-.24.13-.34.23-.1.1-.17.23-.23.37-.06.15-.08.32-.08.51s.03.37.08.52.13.28.23.38c.1.1.21.18.34.23.13.05.26.08.4.08Z"/>
      <path d="M165.31,66.9c-.1-.01-.19-.02-.29-.02-.28,0-.5.08-.67.24-.17.16-.26.43-.26.79v1.69h-.66v-3.37h.64v.59c.06-.13.13-.24.21-.32.08-.08.17-.15.25-.2s.18-.08.27-.1c.09-.02.18-.03.27-.03.05,0,.09,0,.13,0,.04,0,.07,0,.09.01v.7Z"/>
      <path d="M167.07,66.23h.73v.59h-.73v1.75c0,.15.03.27.1.35s.19.12.36.12c.04,0,.09,0,.14,0,.05,0,.09-.01.12-.02v.56s-.08.02-.16.04c-.08.02-.17.02-.29.02-.29,0-.52-.08-.69-.25-.17-.17-.25-.4-.25-.71v-1.85h-.64v-.59h.18c.18,0,.31-.05.4-.15.08-.1.12-.22.12-.37v-.55h.6v1.06Z"/>
      <path d="M168.52,64.96c0-.13.05-.25.14-.34s.2-.14.33-.14.25.05.34.14.14.2.14.34-.05.24-.14.33-.2.14-.34.14-.24-.05-.33-.14-.14-.2-.14-.33ZM168.67,69.6v-3.37h.65v3.37h-.65Z"/>
      <path d="M171.1,69.6h-.66v-3.37h.64v.48c.12-.21.28-.36.46-.45s.38-.13.57-.13.38.03.53.1c.15.07.28.16.38.28s.17.26.22.42c.05.16.07.34.07.53v2.13h-.66v-2.02c0-.12-.01-.23-.04-.33-.03-.1-.07-.19-.13-.27-.06-.08-.14-.14-.25-.18-.1-.04-.22-.07-.37-.07-.13,0-.25.02-.34.07-.1.05-.18.12-.25.2s-.11.18-.15.29c-.03.11-.05.23-.05.36v1.95Z"/>
      <path d="M174.77,69.63c.02.24.12.43.28.59s.38.23.63.23c.35,0,.61-.09.78-.27.17-.18.25-.46.25-.82v-.48c-.08.15-.21.28-.39.39-.18.11-.39.16-.64.16-.22,0-.43-.04-.62-.12-.19-.08-.35-.19-.49-.34-.14-.14-.25-.31-.32-.51-.08-.2-.12-.42-.12-.66s.04-.44.11-.64c.08-.2.18-.37.32-.52.14-.15.3-.26.49-.35.19-.09.4-.13.63-.13.26,0,.48.05.65.14.17.09.3.22.39.39v-.47h.65v3.12c0,.21-.03.42-.08.63-.06.2-.15.38-.28.54s-.31.28-.52.38-.48.14-.8.14c-.21,0-.41-.03-.58-.09-.18-.06-.34-.15-.48-.26-.14-.11-.25-.24-.34-.4-.09-.15-.14-.32-.16-.5l.64-.15ZM175.78,68.88c.29,0,.52-.1.69-.29.18-.2.27-.46.27-.78s-.09-.59-.27-.78c-.18-.2-.41-.29-.69-.29s-.53.1-.71.29c-.18.2-.27.46-.27.78s.09.59.26.79c.17.19.41.29.71.29Z"/>
      <path d="M180.93,67.57v2.03h-.69v-4.96h1.81c.23,0,.44.04.63.11.19.08.35.18.48.31.13.13.24.29.31.47.07.18.11.37.11.58s-.04.41-.11.58c-.08.18-.18.33-.31.46-.13.13-.29.23-.48.3-.19.08-.4.11-.63.11h-1.12ZM181.92,66.95c.3,0,.53-.08.7-.23.17-.15.25-.36.25-.61s-.08-.48-.25-.63c-.17-.15-.41-.23-.7-.23h-.99v1.7h.99Z"/>
      <path d="M183.93,68.7c0-.15.03-.28.08-.4.05-.12.12-.22.21-.3s.2-.15.33-.2c.13-.05.26-.09.41-.11l.91-.13c.1-.01.17-.04.21-.09s.05-.1.05-.16c0-.16-.06-.3-.17-.42s-.3-.18-.56-.18c-.23,0-.41.06-.54.19s-.2.29-.22.49l-.63-.15c.02-.16.07-.31.14-.44.08-.13.18-.25.3-.35.12-.1.26-.17.42-.22s.33-.08.51-.08c.25,0,.47.03.64.1.18.07.32.16.43.27.11.11.19.24.25.39.05.15.08.31.08.47v1.69c0,.15,0,.27.01.36s.02.15.03.2h-.64s-.02-.1-.02-.17c0-.07-.01-.17-.01-.29-.04.06-.09.12-.15.19-.06.07-.14.13-.22.18-.09.06-.19.1-.31.14-.12.03-.25.05-.4.05-.17,0-.33-.03-.46-.08-.14-.06-.26-.13-.35-.22-.1-.09-.17-.2-.23-.32-.05-.12-.08-.25-.08-.38ZM185.15,69.15c.13,0,.26-.02.38-.05s.22-.09.31-.17c.09-.08.15-.18.21-.31.05-.13.08-.28.08-.47v-.15l-1.03.15c-.14.02-.26.08-.35.16-.09.08-.14.2-.14.35,0,.13.05.24.15.34s.23.15.4.15Z"/>
      <path d="M189.67,66.9c-.1-.01-.19-.02-.29-.02-.28,0-.5.08-.67.24-.17.16-.26.43-.26.79v1.69h-.66v-3.37h.64v.59c.06-.13.13-.24.21-.32.08-.08.17-.15.25-.2s.18-.08.27-.1c.09-.02.18-.03.27-.03.05,0,.09,0,.13,0,.04,0,.07,0,.09.01v.7Z"/>
      <path d="M190.16,68.7c0-.15.03-.28.08-.4.05-.12.12-.22.21-.3s.2-.15.33-.2c.13-.05.26-.09.41-.11l.91-.13c.1-.01.17-.04.21-.09s.05-.1.05-.16c0-.16-.06-.3-.17-.42s-.3-.18-.56-.18c-.23,0-.41.06-.54.19s-.2.29-.22.49l-.63-.15c.02-.16.07-.31.14-.44.08-.13.18-.25.3-.35.12-.1.26-.17.42-.22s.33-.08.51-.08c.25,0,.47.03.64.1.18.07.32.16.43.27.11.11.19.24.25.39.05.15.08.31.08.47v1.69c0,.15,0,.27.01.36s.02.15.03.2h-.64s-.02-.1-.02-.17c0-.07-.01-.17-.01-.29-.04.06-.09.12-.15.19-.06.07-.14.13-.22.18-.09.06-.19.1-.31.14-.12.03-.25.05-.4.05-.17,0-.33-.03-.46-.08-.14-.06-.26-.13-.35-.22-.1-.09-.17-.2-.23-.32-.05-.12-.08-.25-.08-.38ZM191.38,69.15c.13,0,.26-.02.38-.05s.22-.09.31-.17c.09-.08.15-.18.21-.31.05-.13.08-.28.08-.47v-.15l-1.03.15c-.14.02-.26.08-.35.16-.09.08-.14.2-.14.35,0,.13.05.24.15.34s.23.15.4.15Z"/>
      <path d="M194.03,69.6v-3.37h.63v.45c.11-.19.25-.32.44-.41.19-.09.38-.13.58-.13.21,0,.41.05.59.15s.32.26.42.48c.14-.24.3-.41.5-.5.2-.09.41-.14.62-.14.14,0,.29.03.43.08.14.05.26.13.37.24.11.1.2.24.26.4s.1.35.1.57v2.18h-.65v-2.11c0-.22-.06-.4-.17-.55-.11-.15-.29-.22-.54-.22-.23,0-.42.08-.56.24-.14.16-.21.36-.21.61v2.04h-.66v-2.11c0-.22-.06-.4-.17-.55-.11-.15-.29-.22-.55-.22-.24,0-.43.08-.57.24-.14.16-.21.36-.21.62v2.03h-.65Z"/>
      <path d="M202.96,68.64c-.05.15-.12.29-.21.42-.09.13-.2.24-.33.34-.13.1-.27.17-.44.23-.16.06-.34.08-.54.08-.22,0-.44-.04-.64-.12-.21-.08-.39-.2-.54-.35-.16-.15-.28-.34-.37-.57-.09-.22-.14-.48-.14-.76,0-.27.04-.51.13-.72s.21-.4.35-.56c.15-.16.32-.28.51-.36.2-.09.4-.13.61-.13.26,0,.49.04.69.13.2.09.37.21.51.36.14.15.24.34.31.56s.11.46.11.72c0,.04,0,.08,0,.12,0,.04,0,.07-.01.09h-2.53c0,.15.03.29.08.41.05.13.12.23.21.33s.2.16.32.21c.12.05.25.07.4.07.27,0,.48-.07.63-.2.14-.13.25-.29.31-.48l.57.2ZM202.3,67.57c0-.24-.09-.45-.25-.61s-.38-.25-.68-.25c-.14,0-.27.02-.38.07-.11.05-.2.11-.28.2-.08.08-.14.17-.18.28-.05.1-.07.21-.08.32h1.84Z"/>
      <path d="M204.71,66.23h.73v.59h-.73v1.75c0,.15.03.27.1.35s.19.12.36.12c.04,0,.09,0,.14,0,.05,0,.09-.01.12-.02v.56s-.08.02-.16.04c-.08.02-.17.02-.29.02-.29,0-.52-.08-.69-.25-.17-.17-.25-.4-.25-.71v-1.85h-.64v-.59h.18c.18,0,.31-.05.4-.15.08-.1.12-.22.12-.37v-.55h.6v1.06Z"/>
      <path d="M209.24,68.64c-.05.15-.12.29-.21.42-.09.13-.2.24-.33.34-.13.1-.27.17-.44.23-.16.06-.34.08-.54.08-.22,0-.44-.04-.64-.12-.21-.08-.39-.2-.54-.35-.16-.15-.28-.34-.37-.57-.09-.22-.14-.48-.14-.76,0-.27.04-.51.13-.72s.21-.4.35-.56c.15-.16.32-.28.51-.36.2-.09.4-.13.61-.13.26,0,.49.04.69.13.2.09.37.21.51.36.14.15.24.34.31.56s.11.46.11.72c0,.04,0,.08,0,.12,0,.04,0,.07-.01.09h-2.53c0,.15.03.29.08.41.05.13.12.23.21.33s.2.16.32.21c.12.05.25.07.4.07.27,0,.48-.07.63-.2.14-.13.25-.29.31-.48l.57.2ZM208.58,67.57c0-.24-.09-.45-.25-.61s-.38-.25-.68-.25c-.14,0-.27.02-.38.07-.11.05-.2.11-.28.2-.08.08-.14.17-.18.28-.05.1-.07.21-.08.32h1.84Z"/>
      <path d="M211.97,66.9c-.1-.01-.19-.02-.29-.02-.28,0-.5.08-.67.24-.17.16-.26.43-.26.79v1.69h-.66v-3.37h.64v.59c.06-.13.13-.24.21-.32.08-.08.17-.15.25-.2s.18-.08.27-.1c.09-.02.18-.03.27-.03.05,0,.09,0,.13,0,.04,0,.07,0,.09.01v.7Z"/>
      <path d="M212.95,68.51c.02.18.1.33.23.45.13.12.31.18.55.18.19,0,.33-.04.43-.13.1-.09.15-.19.15-.32,0-.11-.04-.2-.11-.27-.07-.08-.18-.13-.32-.16l-.57-.13c-.27-.06-.47-.17-.62-.34-.15-.17-.22-.37-.22-.61,0-.14.03-.28.09-.41.06-.13.15-.24.26-.34s.23-.17.38-.23c.15-.06.3-.08.47-.08.23,0,.42.03.58.1.16.07.28.15.38.24s.17.2.22.3.08.19.1.27l-.58.22s-.03-.1-.05-.16c-.02-.06-.06-.13-.11-.19-.05-.06-.12-.11-.21-.15s-.2-.06-.33-.06c-.17,0-.3.04-.41.14-.1.09-.15.19-.15.31,0,.21.13.35.38.41l.55.12c.31.07.54.19.7.36.16.18.23.39.23.64,0,.12-.03.24-.08.36-.05.12-.13.23-.23.34-.1.1-.23.19-.38.25-.15.06-.34.09-.55.09-.23,0-.43-.03-.6-.1s-.3-.15-.41-.25-.19-.2-.25-.32-.09-.22-.11-.32l.59-.21Z"/>
      <path d="M219,66.74c-.13,0-.26.02-.38.07s-.23.12-.33.22-.17.22-.23.37c-.06.15-.08.32-.08.51s.03.36.08.51c.06.15.13.27.22.37.09.1.2.18.33.23.13.05.26.08.39.08.16,0,.29-.02.4-.07.11-.05.2-.11.27-.17.07-.07.13-.15.17-.23.04-.08.07-.16.09-.22l.58.25c-.04.12-.1.24-.18.37-.08.12-.18.24-.31.34s-.27.19-.44.25c-.17.06-.37.09-.58.09-.25,0-.48-.04-.68-.14-.21-.09-.39-.22-.54-.38-.15-.16-.27-.35-.35-.57-.09-.22-.13-.45-.13-.71s.04-.5.13-.72c.09-.22.21-.41.36-.56s.33-.28.54-.37c.21-.09.43-.13.67-.13.22,0,.42.03.59.09.17.06.32.15.44.25.12.1.22.22.3.35.08.13.13.26.17.38l-.59.25c-.02-.08-.06-.17-.1-.25s-.1-.16-.17-.23-.16-.12-.26-.17c-.1-.04-.23-.07-.37-.07Z"/>
      <path d="M222.74,66.13c.25,0,.48.05.69.14s.39.22.55.38c.15.16.27.35.36.56s.13.45.13.71-.04.5-.13.71c-.08.22-.2.41-.36.57-.15.16-.34.28-.55.37-.21.09-.44.14-.69.14s-.48-.04-.69-.14c-.21-.09-.39-.21-.55-.37-.15-.16-.27-.35-.36-.57-.08-.22-.13-.46-.13-.71s.04-.49.13-.71.2-.41.36-.56c.15-.16.34-.28.55-.38s.44-.14.69-.14ZM222.74,69.12c.14,0,.27-.03.4-.08.13-.05.24-.13.34-.23.1-.1.17-.23.23-.38.06-.15.08-.32.08-.52s-.03-.37-.08-.51c-.06-.15-.13-.27-.23-.37-.1-.1-.21-.18-.34-.23-.13-.05-.26-.08-.4-.08s-.27.03-.4.08c-.13.05-.24.13-.34.23-.1.1-.17.23-.23.37-.06.15-.08.32-.08.51s.03.37.08.52.13.28.23.38c.1.1.21.18.34.23.13.05.26.08.4.08Z"/>
      <path d="M225.3,69.6v-3.37h.63v.45c.11-.19.25-.32.44-.41.19-.09.38-.13.58-.13.21,0,.41.05.59.15s.32.26.42.48c.14-.24.3-.41.5-.5.2-.09.41-.14.62-.14.14,0,.29.03.43.08.14.05.26.13.37.24.11.1.2.24.26.4s.1.35.1.57v2.18h-.65v-2.11c0-.22-.06-.4-.17-.55-.11-.15-.29-.22-.54-.22-.23,0-.42.08-.56.24-.14.16-.21.36-.21.61v2.04h-.66v-2.11c0-.22-.06-.4-.17-.55-.11-.15-.29-.22-.55-.22-.24,0-.43.08-.57.24-.14.16-.21.36-.21.62v2.03h-.65Z"/>
      <path d="M231.3,69.6v-3.37h.63v.45c.11-.19.25-.32.44-.41.19-.09.38-.13.58-.13.21,0,.41.05.59.15s.32.26.42.48c.14-.24.3-.41.5-.5.2-.09.41-.14.62-.14.14,0,.29.03.43.08.14.05.26.13.37.24.11.1.2.24.26.4s.1.35.1.57v2.18h-.65v-2.11c0-.22-.06-.4-.17-.55-.11-.15-.29-.22-.54-.22-.23,0-.42.08-.56.24-.14.16-.21.36-.21.61v2.04h-.66v-2.11c0-.22-.06-.4-.17-.55-.11-.15-.29-.22-.55-.22-.24,0-.43.08-.57.24-.14.16-.21.36-.21.62v2.03h-.65Z"/>
      <path d="M237.09,68.7c0-.15.03-.28.08-.4.05-.12.12-.22.21-.3s.2-.15.33-.2c.13-.05.26-.09.41-.11l.91-.13c.1-.01.17-.04.21-.09s.05-.1.05-.16c0-.16-.06-.3-.17-.42s-.3-.18-.56-.18c-.23,0-.41.06-.54.19s-.2.29-.22.49l-.63-.15c.02-.16.07-.31.14-.44.08-.13.18-.25.3-.35.12-.1.26-.17.42-.22s.33-.08.51-.08c.25,0,.47.03.64.1.18.07.32.16.43.27.11.11.19.24.25.39.05.15.08.31.08.47v1.69c0,.15,0,.27.01.36s.02.15.03.2h-.64s-.02-.1-.02-.17c0-.07-.01-.17-.01-.29-.04.06-.09.12-.15.19-.06.07-.14.13-.22.18-.09.06-.19.1-.31.14-.12.03-.25.05-.4.05-.17,0-.33-.03-.46-.08-.14-.06-.26-.13-.35-.22-.1-.09-.17-.2-.23-.32-.05-.12-.08-.25-.08-.38ZM238.31,69.15c.13,0,.26-.02.38-.05s.22-.09.31-.17c.09-.08.15-.18.21-.31.05-.13.08-.28.08-.47v-.15l-1.03.15c-.14.02-.26.08-.35.16-.09.08-.14.2-.14.35,0,.13.05.24.15.34s.23.15.4.15Z"/>
      <path d="M241.62,69.6h-.66v-3.37h.64v.48c.12-.21.28-.36.46-.45s.38-.13.57-.13.38.03.53.1c.15.07.28.16.38.28s.17.26.22.42c.05.16.07.34.07.53v2.13h-.66v-2.02c0-.12-.01-.23-.04-.33-.03-.1-.07-.19-.13-.27-.06-.08-.14-.14-.25-.18-.1-.04-.22-.07-.37-.07-.13,0-.25.02-.34.07-.1.05-.18.12-.25.2s-.11.18-.15.29c-.03.11-.05.23-.05.36v1.95Z"/>
      <path d="M247.25,69.09c-.08.16-.21.3-.38.42-.17.12-.4.18-.66.18-.25,0-.47-.05-.67-.14s-.36-.22-.5-.38c-.14-.16-.24-.35-.32-.57-.07-.22-.11-.45-.11-.7,0-.24.04-.46.12-.68.08-.21.19-.4.33-.56.14-.16.31-.29.5-.38.2-.1.41-.14.65-.14.15,0,.28.02.4.05s.21.08.3.13.15.11.21.18c.06.07.1.14.13.21v-2.18h.65v4.45c0,.16,0,.3.01.41,0,.11.02.18.02.21h-.64s-.02-.1-.02-.18-.01-.17-.01-.28v-.06ZM245.29,67.9c0,.17.02.33.07.48.04.15.11.27.19.38s.19.19.31.25c.12.06.26.09.42.09.15,0,.28-.03.41-.09.12-.06.22-.15.31-.25s.15-.24.19-.39c.04-.15.07-.31.07-.48,0-.35-.08-.63-.26-.85-.17-.21-.41-.32-.71-.32-.15,0-.29.03-.41.09-.12.06-.23.14-.31.25-.09.11-.15.23-.2.38-.05.14-.07.3-.07.48Z"/>
    </g>
    <g>
      <line class="cls-2" x1="46.91" y1="74.6" x2="290.69" y2="74.6"/>
      <polygon points="289.87 77.4 294.72 74.6 289.87 71.79 289.87 77.4"/>
    </g>
  </g>
  <line class="cls-1" x1="46.91" y1="203.99" x2="46.91" y2="52.6"/>
  <line class="cls-1" x1="295.09" y1="52.6" x2="295.09" y2="203.99"/>
  <g>
    <rect class="cls-3" x="17.23" y="24.88" width="59.36" height="28.71"/>
    <g>
      <path d="M41.81,42.36v-3.09h-3.55v3.09h-.96v-6.95h.96v2.97h3.55v-2.97h.96v6.95h-.96Z"/>
      <path d="M46.51,37.5c.35,0,.68.06.97.19.29.13.55.3.76.52.22.22.38.49.5.79.12.3.18.64.18,1s-.06.69-.18,1c-.12.31-.28.57-.5.79-.21.22-.47.4-.76.52-.29.13-.62.19-.97.19s-.68-.06-.97-.19c-.29-.13-.55-.3-.76-.52-.22-.22-.38-.49-.5-.79-.12-.31-.18-.64-.18-1s.06-.69.18-1c.12-.3.28-.57.5-.79.22-.22.47-.4.76-.52.29-.13.62-.19.97-.19ZM46.51,41.69c.2,0,.38-.04.56-.11.18-.07.33-.18.47-.32.14-.14.25-.32.32-.53s.12-.45.12-.73-.04-.51-.12-.72c-.08-.21-.19-.38-.32-.52-.14-.14-.29-.25-.47-.32-.18-.07-.36-.11-.56-.11s-.38.04-.56.11c-.18.07-.33.18-.47.32-.14.14-.25.32-.32.52-.08.21-.12.45-.12.72s.04.52.12.73c.08.21.19.39.32.53.14.14.29.25.47.32.18.07.36.11.56.11Z"/>
      <path d="M50.54,40.84c.03.25.14.46.32.63.18.17.44.25.77.25.26,0,.46-.06.6-.19.14-.12.21-.27.21-.44,0-.15-.05-.28-.16-.38s-.25-.18-.45-.23l-.8-.18c-.37-.08-.66-.24-.87-.47-.21-.24-.31-.52-.31-.85,0-.2.04-.39.13-.57.09-.18.21-.34.36-.48.15-.14.33-.25.53-.32s.42-.12.65-.12c.32,0,.59.04.81.14.22.09.4.2.53.34.14.13.24.27.31.42.07.14.12.27.14.37l-.81.3c-.01-.06-.04-.13-.07-.23-.03-.09-.08-.18-.16-.26-.07-.08-.17-.15-.29-.21s-.28-.09-.46-.09c-.24,0-.42.06-.57.19-.14.13-.22.27-.22.44,0,.3.18.49.54.57l.76.17c.43.09.76.26.98.5s.33.54.33.9c0,.17-.04.34-.11.51-.07.17-.18.33-.32.47s-.32.26-.53.35c-.22.09-.47.13-.76.13-.33,0-.61-.05-.84-.14-.23-.09-.42-.21-.58-.34-.15-.14-.27-.29-.35-.45-.08-.16-.13-.31-.15-.45l.83-.29Z"/>
      <path d="M55.95,37.65h1.02v.83h-1.02v2.45c0,.22.05.38.15.49.1.11.27.16.51.16.06,0,.12,0,.2,0,.07,0,.13-.02.17-.03v.78s-.11.03-.23.05c-.11.02-.25.03-.4.03-.41,0-.73-.12-.96-.35-.24-.23-.35-.56-.35-1v-2.59h-.9v-.83h.25c.25,0,.44-.07.55-.21.11-.14.17-.31.17-.52v-.76h.84v1.49Z"/>
    </g>
  </g>
  <g>
    <rect class="cls-3" x="17.23" y="24.88" width="59.36" height="28.71"/>
    <g>
      <path d="M41.81,42.36v-3.09h-3.55v3.09h-.96v-6.95h.96v2.97h3.55v-2.97h.96v6.95h-.96Z"/>
      <path d="M46.51,37.5c.35,0,.68.06.97.19.29.13.55.3.76.52.22.22.38.49.5.79.12.3.18.64.18,1s-.06.69-.18,1c-.12.31-.28.57-.5.79-.21.22-.47.4-.76.52-.29.13-.62.19-.97.19s-.68-.06-.97-.19c-.29-.13-.55-.3-.76-.52-.22-.22-.38-.49-.5-.79-.12-.31-.18-.64-.18-1s.06-.69.18-1c.12-.3.28-.57.5-.79.22-.22.47-.4.76-.52.29-.13.62-.19.97-.19ZM46.51,41.69c.2,0,.38-.04.56-.11.18-.07.33-.18.47-.32.14-.14.25-.32.32-.53s.12-.45.12-.73-.04-.51-.12-.72c-.08-.21-.19-.38-.32-.52-.14-.14-.29-.25-.47-.32-.18-.07-.36-.11-.56-.11s-.38.04-.56.11c-.18.07-.33.18-.47.32-.14.14-.25.32-.32.52-.08.21-.12.45-.12.72s.04.52.12.73c.08.21.19.39.32.53.14.14.29.25.47.32.18.07.36.11.56.11Z"/>
      <path d="M50.54,40.84c.03.25.14.46.32.63.18.17.44.25.77.25.26,0,.46-.06.6-.19.14-.12.21-.27.21-.44,0-.15-.05-.28-.16-.38s-.25-.18-.45-.23l-.8-.18c-.37-.08-.66-.24-.87-.47-.21-.24-.31-.52-.31-.85,0-.2.04-.39.13-.57.09-.18.21-.34.36-.48.15-.14.33-.25.53-.32s.42-.12.65-.12c.32,0,.59.04.81.14.22.09.4.2.53.34.14.13.24.27.31.42.07.14.12.27.14.37l-.81.3c-.01-.06-.04-.13-.07-.23-.03-.09-.08-.18-.16-.26-.07-.08-.17-.15-.29-.21s-.28-.09-.46-.09c-.24,0-.42.06-.57.19-.14.13-.22.27-.22.44,0,.3.18.49.54.57l.76.17c.43.09.76.26.98.5s.33.54.33.9c0,.17-.04.34-.11.51-.07.17-.18.33-.32.47s-.32.26-.53.35c-.22.09-.47.13-.76.13-.33,0-.61-.05-.84-.14-.23-.09-.42-.21-.58-.34-.15-.14-.27-.29-.35-.45-.08-.16-.13-.31-.15-.45l.83-.29Z"/>
      <path d="M55.95,37.65h1.02v.83h-1.02v2.45c0,.22.05.38.15.49.1.11.27.16.51.16.06,0,.12,0,.2,0,.07,0,.13-.02.17-.03v.78s-.11.03-.23.05c-.11.02-.25.03-.4.03-.41,0-.73-.12-.96-.35-.24-.23-.35-.56-.35-1v-2.59h-.9v-.83h.25c.25,0,.44-.07.55-.21.11-.14.17-.31.17-.52v-.76h.84v1.49Z"/>
    </g>
  </g>
  <g>
    <rect class="cls-3" x="265.41" y="24.88" width="59.36" height="28.71"/>
    <g>
      <path d="M276.39,42.51c-.45,0-.88-.08-1.3-.24s-.78-.39-1.1-.7c-.32-.31-.57-.69-.76-1.14-.19-.45-.29-.97-.29-1.55s.1-1.1.29-1.54.46-.83.78-1.13c.32-.31.69-.54,1.11-.7s.84-.24,1.27-.24c.4,0,.76.05,1.1.16s.63.25.89.44c.26.19.48.42.66.7s.32.58.41.91l-.89.31c-.13-.53-.38-.93-.75-1.22s-.84-.42-1.42-.42c-.31,0-.62.06-.92.17-.3.11-.56.29-.79.51-.23.23-.42.51-.55.86-.14.34-.21.74-.21,1.19s.07.85.21,1.19c.14.34.32.63.55.86.23.23.5.41.79.52.3.11.6.17.92.17.29,0,.56-.04.8-.13s.46-.2.64-.35c.19-.15.34-.32.47-.53.13-.21.23-.43.3-.66l.85.31c-.09.33-.23.63-.41.9s-.4.51-.66.71c-.26.2-.56.35-.89.46s-.7.17-1.1.17Z"/>
      <path d="M282.78,37.5c.35,0,.68.06.97.19.29.13.55.3.76.52.22.22.38.49.5.79.12.3.18.64.18,1s-.06.69-.18,1c-.12.31-.28.57-.5.79-.21.22-.47.4-.76.52-.29.13-.62.19-.97.19s-.68-.06-.97-.19c-.29-.13-.55-.3-.76-.52-.22-.22-.38-.49-.5-.79-.12-.31-.18-.64-.18-1s.06-.69.18-1c.12-.3.28-.57.5-.79.22-.22.47-.4.76-.52.29-.13.62-.19.97-.19ZM282.78,41.69c.2,0,.38-.04.56-.11.18-.07.33-.18.47-.32.14-.14.25-.32.32-.53s.12-.45.12-.73-.04-.51-.12-.72c-.08-.21-.19-.38-.32-.52-.14-.14-.29-.25-.47-.32-.18-.07-.36-.11-.56-.11s-.38.04-.56.11c-.18.07-.33.18-.47.32-.14.14-.25.32-.32.52-.08.21-.12.45-.12.72s.04.52.12.73c.08.21.19.39.32.53.14.14.29.25.47.32.18.07.36.11.56.11Z"/>
      <path d="M287.29,42.36h-.92v-4.71h.9v.68c.17-.29.39-.5.65-.63.26-.12.53-.19.8-.19s.53.05.74.14c.21.09.39.23.53.39.14.17.25.36.31.59s.1.47.1.74v2.99h-.92v-2.83c0-.16-.02-.32-.05-.46-.04-.14-.1-.27-.19-.38-.09-.11-.2-.19-.34-.25-.14-.06-.31-.09-.51-.09-.18,0-.34.03-.48.1-.14.07-.25.16-.34.28-.09.12-.16.25-.21.41-.05.16-.07.32-.07.5v2.72Z"/>
      <path d="M293.12,37.65h1.02v.83h-1.02v2.45c0,.22.05.38.15.49.1.11.27.16.51.16.06,0,.12,0,.2,0,.07,0,.13-.02.17-.03v.78s-.11.03-.23.05c-.11.02-.25.03-.4.03-.41,0-.73-.12-.96-.35-.24-.23-.35-.56-.35-1v-2.59h-.9v-.83h.25c.25,0,.44-.07.55-.21.11-.14.17-.31.17-.52v-.76h.84v1.49Z"/>
      <path d="M297.91,38.58c-.14-.02-.27-.03-.4-.03-.39,0-.7.11-.94.34s-.36.6-.36,1.11v2.36h-.92v-4.71h.9v.82c.08-.18.18-.33.3-.45.11-.11.23-.21.36-.27.12-.07.25-.12.38-.14.13-.03.25-.04.37-.04.07,0,.13,0,.18,0,.05,0,.1.01.12.02v.98Z"/>
      <path d="M300.95,37.5c.35,0,.68.06.97.19.29.13.55.3.76.52.22.22.38.49.5.79.12.3.18.64.18,1s-.06.69-.18,1c-.12.31-.28.57-.5.79-.21.22-.47.4-.76.52-.29.13-.62.19-.97.19s-.68-.06-.97-.19c-.29-.13-.55-.3-.76-.52-.22-.22-.38-.49-.5-.79-.12-.31-.18-.64-.18-1s.06-.69.18-1c.12-.3.28-.57.5-.79.22-.22.47-.4.76-.52.29-.13.62-.19.97-.19ZM300.95,41.69c.2,0,.38-.04.56-.11.18-.07.33-.18.47-.32.14-.14.25-.32.32-.53s.12-.45.12-.73-.04-.51-.12-.72c-.08-.21-.19-.38-.32-.52-.14-.14-.29-.25-.47-.32-.18-.07-.36-.11-.56-.11s-.38.04-.56.11c-.18.07-.33.18-.47.32-.14.14-.25.32-.32.52-.08.21-.12.45-.12.72s.04.52.12.73c.08.21.19.39.32.53.14.14.29.25.47.32.18.07.36.11.56.11Z"/>
      <path d="M304.56,42.36v-7.1h.92v7.1h-.92Z"/>
      <path d="M306.99,42.36v-7.1h.92v7.1h-.92Z"/>
      <path d="M313.62,41.02c-.07.21-.16.4-.29.58-.13.18-.28.34-.46.47s-.38.24-.61.32c-.23.08-.48.12-.75.12-.31,0-.61-.06-.9-.17-.29-.11-.54-.27-.76-.49s-.39-.48-.52-.79c-.13-.31-.19-.67-.19-1.07,0-.37.06-.71.19-1.01s.29-.57.5-.78.45-.39.72-.51c.27-.12.56-.18.85-.18.36,0,.68.06.97.18.28.12.52.29.71.5.19.22.33.48.44.78.1.3.15.64.15,1,0,.06,0,.11,0,.17,0,.05,0,.09-.01.13h-3.55c0,.21.05.4.12.58.07.18.17.33.3.46.13.13.28.23.45.29.17.07.36.1.55.1.38,0,.68-.09.88-.27.2-.18.35-.41.44-.68l.79.27ZM312.69,39.52c-.01-.34-.13-.62-.34-.86-.22-.23-.53-.35-.95-.35-.2,0-.37.03-.52.1s-.28.16-.39.27c-.11.11-.19.24-.26.39s-.1.29-.11.44h2.58Z"/>
      <path d="M317.48,38.58c-.14-.02-.27-.03-.4-.03-.39,0-.7.11-.94.34s-.36.6-.36,1.11v2.36h-.92v-4.71h.9v.82c.08-.18.18-.33.3-.45.11-.11.23-.21.36-.27.12-.07.25-.12.38-.14.13-.03.25-.04.37-.04.07,0,.13,0,.18,0,.05,0,.1.01.12.02v.98Z"/>
    </g>
  </g>
  <line class="cls-2" x1="33.79" y1="203.99" x2="60.3" y2="203.99"/>
  <line class="cls-2" x1="281.83" y1="203.99" x2="308.35" y2="203.99"/>
  <g>
    <rect class="cls-3" x="17.23" y="200.32" width="59.36" height="28.71"/>
    <g>
      <path d="M41.81,217.8v-3.09h-3.55v3.09h-.96v-6.95h.96v2.97h3.55v-2.97h.96v6.95h-.96Z"/>
      <path d="M46.51,212.93c.35,0,.68.06.97.19.29.13.55.3.76.52.22.22.38.49.5.79.12.3.18.64.18,1s-.06.69-.18,1c-.12.31-.28.57-.5.79-.21.22-.47.4-.76.52-.29.13-.62.19-.97.19s-.68-.06-.97-.19c-.29-.13-.55-.3-.76-.52-.22-.22-.38-.49-.5-.79-.12-.31-.18-.64-.18-1s.06-.69.18-1c.12-.3.28-.57.5-.79.22-.22.47-.4.76-.52.29-.13.62-.19.97-.19ZM46.51,217.12c.2,0,.38-.04.56-.11.18-.07.33-.18.47-.32.14-.14.25-.32.32-.53.08-.21.12-.45.12-.72s-.04-.51-.12-.72-.19-.38-.32-.52c-.14-.14-.29-.25-.47-.32-.18-.07-.36-.11-.56-.11s-.38.04-.56.11c-.18.07-.33.18-.47.32-.14.14-.25.32-.32.52-.08.21-.12.45-.12.72s.04.52.12.72c.08.21.19.39.32.53.14.14.29.25.47.32.18.07.36.11.56.11Z"/>
      <path d="M50.54,216.28c.03.25.14.46.32.63.18.17.44.25.77.25.26,0,.46-.06.6-.19.14-.12.21-.27.21-.44,0-.15-.05-.28-.16-.38-.1-.1-.25-.18-.45-.22l-.8-.18c-.37-.08-.66-.24-.87-.47s-.31-.52-.31-.85c0-.2.04-.39.13-.57.09-.18.21-.34.36-.48.15-.14.33-.25.53-.32.21-.08.42-.12.65-.12.32,0,.59.05.81.14.22.09.4.2.53.34.14.13.24.27.31.42.07.14.12.27.14.37l-.81.3c-.01-.06-.04-.13-.07-.23-.03-.09-.08-.18-.16-.26-.07-.08-.17-.15-.29-.21-.12-.06-.28-.09-.46-.09-.24,0-.42.06-.57.19-.14.13-.22.27-.22.44,0,.3.18.49.54.57l.76.17c.43.09.76.26.98.5s.33.54.33.9c0,.17-.04.34-.11.51-.07.17-.18.33-.32.47-.14.14-.32.26-.53.35-.22.09-.47.13-.76.13-.33,0-.61-.05-.84-.14-.23-.09-.42-.21-.58-.34-.15-.14-.27-.29-.35-.45-.08-.16-.13-.31-.15-.45l.83-.29Z"/>
      <path d="M55.95,213.08h1.02v.83h-1.02v2.45c0,.22.05.38.15.49.1.11.27.16.51.16.06,0,.12,0,.2,0,.07,0,.13-.02.17-.03v.78s-.11.03-.23.05c-.11.02-.25.03-.4.03-.41,0-.73-.12-.96-.35-.24-.23-.35-.56-.35-1v-2.59h-.9v-.83h.25c.25,0,.44-.07.55-.21.11-.14.17-.31.17-.52v-.76h.84v1.49Z"/>
    </g>
  </g>
  <g>
    <rect class="cls-3" x="17.23" y="200.32" width="59.36" height="28.71"/>
    <g>
      <path d="M41.81,217.8v-3.09h-3.55v3.09h-.96v-6.95h.96v2.97h3.55v-2.97h.96v6.95h-.96Z"/>
      <path d="M46.51,212.93c.35,0,.68.06.97.19.29.13.55.3.76.52.22.22.38.49.5.79.12.3.18.64.18,1s-.06.69-.18,1c-.12.31-.28.57-.5.79-.21.22-.47.4-.76.52-.29.13-.62.19-.97.19s-.68-.06-.97-.19c-.29-.13-.55-.3-.76-.52-.22-.22-.38-.49-.5-.79-.12-.31-.18-.64-.18-1s.06-.69.18-1c.12-.3.28-.57.5-.79.22-.22.47-.4.76-.52.29-.13.62-.19.97-.19ZM46.51,217.12c.2,0,.38-.04.56-.11.18-.07.33-.18.47-.32.14-.14.25-.32.32-.53.08-.21.12-.45.12-.72s-.04-.51-.12-.72-.19-.38-.32-.52c-.14-.14-.29-.25-.47-.32-.18-.07-.36-.11-.56-.11s-.38.04-.56.11c-.18.07-.33.18-.47.32-.14.14-.25.32-.32.52-.08.21-.12.45-.12.72s.04.52.12.72c.08.21.19.39.32.53.14.14.29.25.47.32.18.07.36.11.56.11Z"/>
      <path d="M50.54,216.28c.03.25.14.46.32.63.18.17.44.25.77.25.26,0,.46-.06.6-.19.14-.12.21-.27.21-.44,0-.15-.05-.28-.16-.38-.1-.1-.25-.18-.45-.22l-.8-.18c-.37-.08-.66-.24-.87-.47s-.31-.52-.31-.85c0-.2.04-.39.13-.57.09-.18.21-.34.36-.48.15-.14.33-.25.53-.32.21-.08.42-.12.65-.12.32,0,.59.05.81.14.22.09.4.2.53.34.14.13.24.27.31.42.07.14.12.27.14.37l-.81.3c-.01-.06-.04-.13-.07-.23-.03-.09-.08-.18-.16-.26-.07-.08-.17-.15-.29-.21-.12-.06-.28-.09-.46-.09-.24,0-.42.06-.57.19-.14.13-.22.27-.22.44,0,.3.18.49.54.57l.76.17c.43.09.76.26.98.5s.33.54.33.9c0,.17-.04.34-.11.51-.07.17-.18.33-.32.47-.14.14-.32.26-.53.35-.22.09-.47.13-.76.13-.33,0-.61-.05-.84-.14-.23-.09-.42-.21-.58-.34-.15-.14-.27-.29-.35-.45-.08-.16-.13-.31-.15-.45l.83-.29Z"/>
      <path d="M55.95,213.08h1.02v.83h-1.02v2.45c0,.22.05.38.15.49.1.11.27.16.51.16.06,0,.12,0,.2,0,.07,0,.13-.02.17-.03v.78s-.11.03-.23.05c-.11.02-.25.03-.4.03-.41,0-.73-.12-.96-.35-.24-.23-.35-.56-.35-1v-2.59h-.9v-.83h.25c.25,0,.44-.07.55-.21.11-.14.17-.31.17-.52v-.76h.84v1.49Z"/>
    </g>
  </g>
  <g>
    <rect class="cls-3" x="265.41" y="200.32" width="59.36" height="28.71"/>
    <g>
      <path d="M276.39,217.94c-.45,0-.88-.08-1.3-.24s-.78-.39-1.1-.7c-.32-.31-.57-.69-.76-1.14-.19-.45-.29-.97-.29-1.55s.1-1.1.29-1.54c.2-.45.46-.82.78-1.13.32-.31.69-.54,1.11-.7s.84-.24,1.27-.24c.4,0,.76.05,1.1.16s.63.25.89.44c.26.19.48.42.66.7s.32.58.41.91l-.89.31c-.13-.53-.38-.93-.75-1.22-.37-.28-.84-.42-1.42-.42-.31,0-.62.06-.92.17-.3.11-.56.29-.79.51-.23.23-.42.51-.55.86-.14.34-.21.74-.21,1.19s.07.85.21,1.19c.14.34.32.63.55.86s.5.41.79.52c.3.11.6.17.92.17.29,0,.56-.04.8-.13.24-.08.46-.2.64-.35.19-.15.34-.32.47-.53.13-.21.23-.43.3-.66l.85.31c-.09.33-.23.63-.41.9s-.4.51-.66.71c-.26.2-.56.35-.89.46-.34.11-.7.17-1.1.17Z"/>
      <path d="M282.78,212.93c.35,0,.68.06.97.19.29.13.55.3.76.52.22.22.38.49.5.79.12.3.18.64.18,1s-.06.69-.18,1c-.12.31-.28.57-.5.79-.21.22-.47.4-.76.52-.29.13-.62.19-.97.19s-.68-.06-.97-.19c-.29-.13-.55-.3-.76-.52-.22-.22-.38-.49-.5-.79-.12-.31-.18-.64-.18-1s.06-.69.18-1c.12-.3.28-.57.5-.79.22-.22.47-.4.76-.52.29-.13.62-.19.97-.19ZM282.78,217.12c.2,0,.38-.04.56-.11.18-.07.33-.18.47-.32.14-.14.25-.32.32-.53.08-.21.12-.45.12-.72s-.04-.51-.12-.72-.19-.38-.32-.52c-.14-.14-.29-.25-.47-.32-.18-.07-.36-.11-.56-.11s-.38.04-.56.11c-.18.07-.33.18-.47.32-.14.14-.25.32-.32.52-.08.21-.12.45-.12.72s.04.52.12.72c.08.21.19.39.32.53.14.14.29.25.47.32.18.07.36.11.56.11Z"/>
      <path d="M287.29,217.8h-.92v-4.71h.9v.68c.17-.29.39-.5.65-.63s.53-.19.8-.19.53.05.74.14c.21.09.39.23.53.39.14.17.25.36.31.59.07.23.1.47.1.74v2.99h-.92v-2.83c0-.16-.02-.32-.05-.46-.04-.14-.1-.27-.19-.38-.09-.11-.2-.19-.34-.25-.14-.06-.31-.09-.51-.09-.18,0-.34.03-.48.1-.14.07-.25.16-.34.28-.09.12-.16.25-.21.41-.05.16-.07.32-.07.5v2.73Z"/>
      <path d="M293.12,213.08h1.02v.83h-1.02v2.45c0,.22.05.38.15.49.1.11.27.16.51.16.06,0,.12,0,.2,0,.07,0,.13-.02.17-.03v.78s-.11.03-.23.05c-.11.02-.25.03-.4.03-.41,0-.73-.12-.96-.35-.24-.23-.35-.56-.35-1v-2.59h-.9v-.83h.25c.25,0,.44-.07.55-.21.11-.14.17-.31.17-.52v-.76h.84v1.49Z"/>
      <path d="M297.91,214.01c-.14-.02-.27-.03-.4-.03-.39,0-.7.11-.94.34-.24.23-.36.6-.36,1.11v2.36h-.92v-4.71h.9v.82c.08-.18.18-.33.3-.45.11-.11.23-.21.36-.27s.25-.12.38-.14c.13-.03.25-.04.37-.04.07,0,.13,0,.18,0,.05,0,.1.01.12.02v.98Z"/>
      <path d="M300.95,212.93c.35,0,.68.06.97.19.29.13.55.3.76.52.22.22.38.49.5.79.12.3.18.64.18,1s-.06.69-.18,1c-.12.31-.28.57-.5.79-.21.22-.47.4-.76.52-.29.13-.62.19-.97.19s-.68-.06-.97-.19c-.29-.13-.55-.3-.76-.52-.22-.22-.38-.49-.5-.79-.12-.31-.18-.64-.18-1s.06-.69.18-1c.12-.3.28-.57.5-.79.22-.22.47-.4.76-.52.29-.13.62-.19.97-.19ZM300.95,217.12c.2,0,.38-.04.56-.11.18-.07.33-.18.47-.32.14-.14.25-.32.32-.53.08-.21.12-.45.12-.72s-.04-.51-.12-.72-.19-.38-.32-.52c-.14-.14-.29-.25-.47-.32-.18-.07-.36-.11-.56-.11s-.38.04-.56.11c-.18.07-.33.18-.47.32-.14.14-.25.32-.32.52-.08.21-.12.45-.12.72s.04.52.12.72c.08.21.19.39.32.53.14.14.29.25.47.32.18.07.36.11.56.11Z"/>
      <path d="M304.56,217.8v-7.1h.92v7.1h-.92Z"/>
      <path d="M306.99,217.8v-7.1h.92v7.1h-.92Z"/>
      <path d="M313.62,216.45c-.07.21-.16.4-.29.58-.13.18-.28.34-.46.47s-.38.24-.61.32c-.23.08-.48.12-.75.12-.31,0-.61-.06-.9-.17-.29-.11-.54-.27-.76-.49s-.39-.48-.52-.79c-.13-.31-.19-.67-.19-1.07,0-.37.06-.71.19-1.01s.29-.57.5-.78.45-.39.72-.51.56-.18.85-.18c.36,0,.68.06.97.18s.52.29.71.5c.19.22.33.48.44.78.1.3.15.64.15,1,0,.06,0,.11,0,.17,0,.05,0,.09-.01.13h-3.55c0,.21.05.4.12.58.07.18.17.33.3.46s.28.23.45.29c.17.07.36.1.55.1.38,0,.68-.09.88-.27.2-.18.35-.41.44-.68l.79.27ZM312.69,214.95c-.01-.34-.13-.63-.34-.86-.22-.23-.53-.35-.95-.35-.2,0-.37.03-.52.1-.15.07-.28.16-.39.27-.11.11-.19.24-.26.39s-.1.29-.11.44h2.58Z"/>
      <path d="M317.48,214.01c-.14-.02-.27-.03-.4-.03-.39,0-.7.11-.94.34-.24.23-.36.6-.36,1.11v2.36h-.92v-4.71h.9v.82c.08-.18.18-.33.3-.45.11-.11.23-.21.36-.27s.25-.12.38-.14c.13-.03.25-.04.37-.04.07,0,.13,0,.18,0,.05,0,.1.01.12.02v.98Z"/>
    </g>
  </g>
</svg>