<?xml version="1.0" encoding="UTF-8"?>
<svg id="Layer_1" data-name="Layer 1" xmlns="http://www.w3.org/2000/svg" viewBox="0 0 938.52 243.93">
  <defs>
    <style>
      .cls-1 {
        fill: none;
        stroke: #000;
        stroke-dasharray: 3 6 3 6 3 6;
      }

      .cls-1, .cls-2, .cls-3, .cls-4, .cls-5 {
        stroke-miterlimit: 10;
      }

      .cls-2 {
        fill: #cce6fe;
        stroke: #80c1fe;
      }

      .cls-3 {
        fill: #333;
        opacity: .59;
        stroke-linecap: square;
      }

      .cls-3, .cls-6 {
        stroke: #333;
      }

      .cls-4 {
        stroke: #0082fc;
      }

      .cls-4, .cls-5 {
        opacity: .5;
      }

      .cls-4, .cls-7 {
        fill: #0082fc;
      }

      .cls-5 {
        fill: #999;
        stroke: #999;
      }

      .cls-6 {
        fill: #d2d0cd;
      }
    </style>
  </defs>
  <line class="cls-5" x1="124.45" y1="236.55" x2="124.45" y2="21.98"/>
  <line class="cls-5" x1="351.48" y1="236.55" x2="351.48" y2="21.98"/>
  <line class="cls-5" x1="420.94" y1="236.55" x2="420.94" y2="21.98"/>
  <line class="cls-5" x1="466.63" y1="236.55" x2="466.63" y2="21.98"/>
  <line class="cls-5" x1="693.66" y1="236.55" x2="693.66" y2="21.98"/>
  <line class="cls-3" x1="124.45" y1="56.33" x2="761.93" y2="56.33"/>
  <g>
    <line class="cls-1" x1="926.64" y1="21.98" x2="2.51" y2="21.98"/>
    <polygon points="925.18 17 933.82 21.98 925.18 26.97 925.18 17"/>
  </g>
  <rect class="cls-2" x="124.45" y="84.06" width="227.03" height="28.62"/>
  <g>
    <path d="M174.7,101.3c-.41,0-.81-.07-1.19-.22s-.72-.36-1.01-.64c-.29-.28-.53-.63-.7-1.04s-.27-.89-.27-1.42.09-1.01.27-1.42c.18-.41.42-.76.72-1.04.3-.28.64-.5,1.02-.64.38-.15.77-.22,1.17-.22.37,0,.7.05,1.01.14.31.1.58.23.82.41.24.17.44.39.61.64s.29.53.37.84l-.82.29c-.12-.49-.35-.86-.69-1.12-.34-.26-.77-.39-1.3-.39-.29,0-.57.05-.84.16s-.52.26-.73.47c-.21.21-.38.47-.51.79s-.19.68-.19,1.09.06.78.19,1.09.3.58.51.79.46.37.73.48.55.16.84.16c.27,0,.52-.04.74-.12.22-.08.42-.18.59-.32.17-.14.31-.3.43-.49s.21-.39.27-.61l.78.29c-.08.3-.21.58-.38.83-.17.25-.37.47-.61.65-.24.18-.51.32-.82.42s-.65.15-1.01.15Z"/>
    <path d="M181.96,96.51c-.02-.11-.06-.24-.12-.36-.06-.13-.14-.25-.25-.36-.11-.11-.24-.2-.4-.27-.16-.07-.35-.1-.58-.1-.18,0-.34.03-.49.08-.15.05-.28.13-.39.23-.11.1-.2.21-.26.34-.06.13-.09.27-.09.42,0,.23.07.42.21.59s.34.28.61.34l.95.21c.53.12.94.34,1.23.65s.43.69.43,1.14c0,.25-.05.48-.15.71s-.25.43-.44.6-.42.31-.69.42-.58.16-.92.16c-.38,0-.72-.06-1-.17-.29-.11-.53-.26-.72-.44s-.35-.38-.45-.61c-.11-.23-.18-.45-.21-.68l.85-.27c.02.18.06.35.13.52s.17.31.3.44c.13.13.28.23.47.3.18.07.39.11.63.11.44,0,.77-.1.99-.3.22-.2.33-.44.33-.72,0-.23-.08-.43-.23-.62-.16-.18-.4-.31-.72-.37l-.91-.2c-.46-.1-.83-.3-1.12-.59s-.44-.68-.44-1.16c0-.25.05-.49.16-.72s.26-.43.45-.6c.19-.17.41-.31.67-.42.26-.1.53-.16.83-.16.36,0,.67.05.92.15.25.1.47.23.64.38.17.16.3.33.4.51.1.19.16.37.2.54l-.79.28Z"/>
    <path d="M183.35,101.88v-.71h4.61v.71h-4.61Z"/>
    <path d="M192.18,96.51c-.02-.11-.06-.24-.12-.36-.06-.13-.14-.25-.25-.36-.11-.11-.24-.2-.4-.27-.16-.07-.35-.1-.58-.1-.18,0-.34.03-.49.08-.15.05-.28.13-.39.23-.11.1-.2.21-.26.34-.06.13-.09.27-.09.42,0,.23.07.42.21.59s.34.28.61.34l.95.21c.53.12.94.34,1.23.65s.43.69.43,1.14c0,.25-.05.48-.15.71s-.25.43-.44.6-.42.31-.69.42-.58.16-.92.16c-.38,0-.72-.06-1-.17-.29-.11-.53-.26-.72-.44s-.35-.38-.45-.61c-.11-.23-.18-.45-.21-.68l.85-.27c.02.18.06.35.13.52s.17.31.3.44c.13.13.28.23.47.3.18.07.39.11.63.11.44,0,.77-.1.99-.3.22-.2.33-.44.33-.72,0-.23-.08-.43-.23-.62-.16-.18-.4-.31-.72-.37l-.91-.2c-.46-.1-.83-.3-1.12-.59s-.44-.68-.44-1.16c0-.25.05-.49.16-.72s.26-.43.45-.6c.19-.17.41-.31.67-.42.26-.1.53-.16.83-.16.36,0,.67.05.92.15.25.1.47.23.64.38.17.16.3.33.4.51.1.19.16.37.2.54l-.79.28Z"/>
    <path d="M193.52,94.79h1.06l1.66,2.84,1.66-2.84h1.01l-2.25,3.65v2.73h-.88v-2.73l-2.25-3.65Z"/>
    <path d="M204.13,101.17l-3.45-5.2v5.2h-.88v-6.38h1.18l3.19,4.9v-4.9h.88v6.38h-.92Z"/>
    <path d="M209.43,101.3c-.41,0-.81-.07-1.19-.22s-.72-.36-1.01-.64c-.29-.28-.53-.63-.7-1.04s-.27-.89-.27-1.42.09-1.01.27-1.42c.18-.41.42-.76.72-1.04.3-.28.64-.5,1.02-.64.38-.15.77-.22,1.17-.22.37,0,.7.05,1.01.14.31.1.58.23.82.41.24.17.44.39.61.64s.29.53.37.84l-.82.29c-.12-.49-.35-.86-.69-1.12-.34-.26-.77-.39-1.3-.39-.29,0-.57.05-.84.16s-.52.26-.73.47c-.21.21-.38.47-.51.79s-.19.68-.19,1.09.06.78.19,1.09.3.58.51.79.46.37.73.48.55.16.84.16c.27,0,.52-.04.74-.12.22-.08.42-.18.59-.32.17-.14.31-.3.43-.49s.21-.39.27-.61l.78.29c-.08.3-.21.58-.38.83-.17.25-.37.47-.61.65-.24.18-.51.32-.82.42s-.65.15-1.01.15Z"/>
    <path d="M215.67,101.17v-6.38h3.88v.82h-3v2.05h2.72v.83h-2.72v2.68h-.88Z"/>
    <path d="M222.08,96.7c.32,0,.62.06.89.18.27.12.5.28.7.48.2.2.35.45.46.72s.16.58.16.91-.05.64-.16.92c-.11.28-.26.52-.46.73-.2.2-.43.36-.7.48s-.57.18-.89.18-.62-.06-.89-.18-.5-.28-.7-.48c-.2-.2-.35-.45-.46-.73-.11-.28-.16-.59-.16-.92s.05-.63.16-.91.26-.52.46-.72c.2-.2.43-.36.7-.48.27-.12.57-.18.89-.18ZM222.08,100.55c.18,0,.35-.03.51-.1.16-.07.31-.16.43-.3.13-.13.23-.29.3-.49.07-.19.11-.41.11-.67s-.04-.47-.11-.66c-.07-.19-.17-.35-.3-.48s-.27-.23-.43-.3-.33-.1-.51-.1-.35.03-.51.1-.31.17-.43.3-.23.29-.3.48c-.07.19-.11.41-.11.66s.04.47.11.67c.07.19.17.35.3.49.13.13.27.23.43.3.16.07.33.1.51.1Z"/>
    <path d="M225.37,101.17v-6.52h.85v6.52h-.85Z"/>
    <path d="M227.66,101.17v-6.52h.85v6.52h-.85Z"/>
    <path d="M231.8,96.7c.32,0,.62.06.89.18.27.12.5.28.7.48.2.2.35.45.46.72s.16.58.16.91-.05.64-.16.92c-.11.28-.26.52-.46.73-.2.2-.43.36-.7.48s-.57.18-.89.18-.62-.06-.89-.18-.5-.28-.7-.48c-.2-.2-.35-.45-.46-.73-.11-.28-.16-.59-.16-.92s.05-.63.16-.91.26-.52.46-.72c.2-.2.43-.36.7-.48.27-.12.57-.18.89-.18ZM231.8,100.55c.18,0,.35-.03.51-.1.16-.07.31-.16.43-.3.13-.13.23-.29.3-.49.07-.19.11-.41.11-.67s-.04-.47-.11-.66c-.07-.19-.17-.35-.3-.48s-.27-.23-.43-.3-.33-.1-.51-.1-.35.03-.51.1-.31.17-.43.3-.23.29-.3.48c-.07.19-.11.41-.11.66s.04.47.11.67c.07.19.17.35.3.49.13.13.27.23.43.3.16.07.33.1.51.1Z"/>
    <path d="M238.4,96.84l1.12,3.26.95-3.26h.89l-1.4,4.33h-.87l-1.15-3.29-1.12,3.29h-.89l-1.42-4.33h.93l.97,3.26,1.12-3.26h.87Z"/>
    <path d="M246,99.93c-.06.19-.15.37-.27.54-.12.17-.26.31-.42.43-.17.12-.35.22-.56.29-.21.07-.44.11-.69.11-.29,0-.56-.05-.83-.15-.26-.1-.5-.25-.7-.45-.2-.2-.36-.44-.48-.73-.12-.29-.18-.62-.18-.98,0-.34.06-.65.17-.93.11-.28.27-.52.45-.72.19-.2.41-.36.66-.47.25-.11.51-.17.78-.17.33,0,.63.06.89.17.26.11.48.27.65.46.17.2.31.44.4.72.09.28.14.59.14.92,0,.05,0,.1,0,.15,0,.05,0,.09-.01.12h-3.26c0,.19.04.37.11.53.07.16.16.3.27.42.12.12.25.21.41.27.16.06.33.09.51.09.35,0,.62-.08.81-.25s.32-.38.41-.62l.73.25ZM245.14,98.56c-.01-.31-.12-.57-.32-.79-.2-.21-.49-.32-.87-.32-.18,0-.34.03-.48.09-.14.06-.26.15-.36.25s-.18.22-.24.36c-.06.13-.09.27-.1.41h2.37Z"/>
    <path d="M250.14,100.51c-.1.21-.27.39-.49.54-.23.15-.51.23-.85.23-.32,0-.6-.06-.85-.18-.25-.12-.47-.28-.64-.49-.18-.21-.31-.45-.41-.73-.1-.28-.14-.58-.14-.9,0-.31.05-.6.15-.87.1-.27.24-.51.42-.72.18-.21.4-.37.65-.5.25-.12.53-.18.84-.18.19,0,.36.02.51.06s.27.1.38.17c.11.07.2.15.27.23.07.09.13.18.16.27v-2.8h.84v5.72c0,.21,0,.39.02.53.01.14.02.23.03.27h-.82s-.02-.12-.03-.23c0-.1-.01-.22-.01-.36v-.07ZM247.61,98.99c0,.22.03.43.09.62.06.19.14.35.25.49.11.14.24.25.4.32.16.08.34.12.54.12.19,0,.37-.04.52-.12.16-.08.29-.19.4-.33.11-.14.19-.3.25-.5.06-.19.09-.4.09-.62,0-.45-.11-.81-.33-1.09-.22-.28-.52-.41-.91-.41-.19,0-.37.04-.53.11-.16.08-.29.18-.41.31-.11.13-.2.3-.26.48s-.09.39-.09.61Z"/>
    <path d="M254.65,101.17v-6.52h.84v2.8c.1-.19.28-.36.52-.51s.55-.23.91-.23c.33,0,.62.06.86.18.25.12.45.28.62.49s.29.45.38.72.13.57.13.88-.04.63-.14.9c-.09.28-.22.52-.39.73-.17.21-.38.37-.63.49s-.54.18-.86.18-.6-.07-.84-.2c-.24-.13-.42-.31-.56-.55v.63h-.84ZM258.04,98.98c0-.47-.11-.84-.34-1.11s-.54-.41-.94-.41c-.19,0-.36.04-.52.11-.16.07-.3.17-.41.3-.11.13-.2.29-.27.48-.06.19-.09.4-.09.63s.03.45.09.64.15.36.27.49c.11.14.25.24.41.31.16.07.33.11.52.11.39,0,.7-.14.93-.42.23-.28.35-.66.35-1.12Z"/>
    <path d="M259.96,102.98l1.08-2.29-1.86-3.85h.97l1.35,2.99,1.3-2.99h.91l-2.82,6.14h-.93Z"/>
    <path d="M269.61,101.3c-.41,0-.81-.07-1.19-.22s-.72-.36-1.01-.64c-.29-.28-.53-.63-.7-1.04s-.27-.89-.27-1.42.09-1.01.27-1.42c.18-.41.42-.76.72-1.04.3-.28.64-.5,1.02-.64.38-.15.77-.22,1.17-.22.37,0,.7.05,1.01.14.31.1.58.23.82.41.24.17.44.39.61.64s.29.53.37.84l-.82.29c-.12-.49-.35-.86-.69-1.12-.34-.26-.77-.39-1.3-.39-.29,0-.57.05-.84.16s-.52.26-.73.47c-.21.21-.38.47-.51.79s-.19.68-.19,1.09.06.78.19,1.09.3.58.51.79.46.37.73.48.55.16.84.16c.27,0,.52-.04.74-.12.22-.08.42-.18.59-.32.17-.14.31-.3.43-.49s.21-.39.27-.61l.78.29c-.08.3-.21.58-.38.83-.17.25-.37.47-.61.65-.24.18-.51.32-.82.42s-.65.15-1.01.15Z"/>
    <path d="M276.88,96.51c-.02-.11-.06-.24-.12-.36-.06-.13-.14-.25-.25-.36-.11-.11-.24-.2-.4-.27-.16-.07-.35-.1-.58-.1-.18,0-.34.03-.49.08-.15.05-.28.13-.39.23-.11.1-.2.21-.26.34-.06.13-.09.27-.09.42,0,.23.07.42.21.59s.34.28.61.34l.95.21c.53.12.94.34,1.23.65s.43.69.43,1.14c0,.25-.05.48-.15.71s-.25.43-.44.6-.42.31-.69.42-.58.16-.92.16c-.38,0-.72-.06-1-.17-.29-.11-.53-.26-.72-.44s-.35-.38-.45-.61c-.11-.23-.18-.45-.21-.68l.85-.27c.02.18.06.35.13.52s.17.31.3.44c.13.13.28.23.47.3.18.07.39.11.63.11.44,0,.77-.1.99-.3.22-.2.33-.44.33-.72,0-.23-.08-.43-.23-.62-.16-.18-.4-.31-.72-.37l-.91-.2c-.46-.1-.83-.3-1.12-.59s-.44-.68-.44-1.16c0-.25.05-.49.16-.72s.26-.43.45-.6c.19-.17.41-.31.67-.42.26-.1.53-.16.83-.16.36,0,.67.05.92.15.25.1.47.23.64.38.17.16.3.33.4.51.1.19.16.37.2.54l-.79.28Z"/>
    <path d="M283.48,95.61v5.56h-.88v-5.56h-2.13v-.82h5.15v.82h-2.13Z"/>
    <path d="M285.89,97.97c0-.53.09-1.01.27-1.42.18-.41.42-.76.72-1.04.3-.28.64-.5,1.03-.64.38-.15.78-.22,1.18-.22s.79.07,1.18.22c.38.15.73.36,1.03.64.3.28.54.63.72,1.04.18.41.27.88.27,1.42s-.09,1.01-.27,1.42-.42.76-.72,1.04c-.3.28-.64.5-1.03.64-.38.15-.78.22-1.18.22s-.79-.07-1.18-.22c-.38-.15-.73-.36-1.03-.64-.3-.28-.54-.63-.72-1.04-.18-.41-.27-.89-.27-1.42ZM286.79,97.97c0,.41.06.78.19,1.09s.3.58.51.79c.21.21.46.37.73.48.28.1.56.16.86.16s.58-.05.86-.16c.28-.1.53-.26.74-.48s.38-.48.51-.79c.13-.31.19-.68.19-1.09s-.06-.78-.19-1.09c-.13-.31-.3-.58-.51-.79-.21-.21-.46-.37-.74-.47-.28-.1-.57-.16-.86-.16s-.59.05-.86.16c-.28.1-.52.26-.73.47-.21.21-.38.47-.51.79s-.19.68-.19,1.09Z"/>
    <path d="M297.84,101.17l-3.45-5.2v5.2h-.88v-6.38h1.18l3.19,4.9v-4.9h.88v6.38h-.92Z"/>
    <path d="M300.38,101.17v-6.38h3.88v.82h-3v1.96h2.72v.83h-2.72v1.95h3v.82h-3.88Z"/>
  </g>
  <g>
    <path d="M363.88,98.52h-1.13l-.56,2.65h-.88l1.35-6.38h2.07c.28,0,.52.04.74.12.22.08.4.19.55.34s.26.31.34.51c.08.2.12.41.12.65,0,.27-.04.52-.13.75s-.2.43-.36.61c-.15.18-.33.32-.54.44-.21.12-.44.2-.69.26l1.04,2.71h-.94l-1-2.65ZM364.15,97.74c.42,0,.76-.11,1.03-.33.27-.22.4-.54.4-.94,0-.27-.08-.49-.25-.65s-.42-.24-.76-.24h-1.21l-.47,2.17h1.25Z"/>
    <path d="M371.35,96.84l-.67,3.2c-.05.23-.08.43-.09.59,0,.17-.01.3-.01.39v.05s0,.05,0,.09h-.8c-.01-.06-.02-.14-.02-.25v-.12c0-.05,0-.11.02-.18-.15.18-.33.33-.55.45-.22.12-.46.18-.73.18s-.53-.05-.74-.15c-.21-.1-.39-.23-.54-.4s-.25-.37-.32-.6c-.07-.23-.11-.48-.11-.74,0-.35.06-.68.17-1,.11-.32.27-.6.46-.85.2-.24.43-.44.71-.58.28-.14.58-.22.92-.22.37,0,.66.07.88.21.22.14.38.29.47.47l.12-.55h.84ZM369.1,97.44c-.23,0-.44.06-.63.18-.18.12-.33.27-.45.45s-.21.39-.27.62-.09.45-.09.67c0,.34.08.62.25.85.17.22.43.33.77.33.2,0,.39-.05.57-.15.18-.1.33-.24.45-.41.13-.17.23-.38.3-.62.07-.24.11-.5.11-.78,0-.31-.08-.58-.24-.79-.16-.22-.42-.32-.77-.32Z"/>
    <path d="M374.47,101.17l.58-2.72s.02-.1.03-.14c0-.05,0-.1,0-.14,0-.2-.06-.37-.18-.51-.12-.13-.31-.2-.57-.2-.31,0-.55.1-.72.31-.18.21-.3.47-.36.8l-.56,2.61h-.84l.76-3.56c.04-.18.07-.35.09-.5.01-.15.02-.24.02-.27h.83s0,.06,0,.15c0,.09-.02.19-.04.3.16-.19.33-.34.53-.43.2-.1.44-.14.72-.14.26,0,.49.06.68.19.19.13.32.29.4.5.22-.28.46-.47.72-.56.26-.09.51-.14.77-.14.17,0,.33.03.48.08.15.05.29.13.4.24.11.11.21.23.27.39.07.15.1.33.1.54,0,.07,0,.13-.01.2,0,.07-.02.14-.03.21l-.6,2.81h-.84l.58-2.72s.02-.1.03-.15c0-.05,0-.1,0-.15,0-.19-.06-.36-.18-.49-.12-.14-.31-.21-.57-.21-.3,0-.54.1-.72.31-.18.21-.3.47-.36.78l-.56,2.62h-.85Z"/>
    <path d="M380.81,97.33c.16-.2.36-.36.61-.46s.5-.15.77-.15.53.05.73.14c.21.1.38.23.51.4.13.17.24.36.3.59s.1.47.1.72c0,.38-.05.74-.16,1.07s-.26.62-.46.86c-.2.24-.44.43-.72.57-.28.14-.59.21-.93.21-.3,0-.58-.07-.84-.21-.26-.14-.45-.33-.58-.58l-.5,2.38h-.84l1.12-5.27c.04-.19.07-.36.09-.5.01-.14.02-.23.02-.27h.83s0,.09,0,.19c0,.1-.02.2-.04.31ZM381.88,97.49c-.19,0-.36.04-.54.12s-.32.2-.46.36c-.14.16-.24.35-.32.58-.08.23-.12.49-.12.78,0,.38.1.68.29.89.19.21.46.31.79.31.18,0,.36-.04.54-.13.18-.08.33-.2.47-.36.13-.16.24-.35.33-.58s.13-.49.13-.79c0-.38-.09-.68-.28-.88s-.46-.31-.81-.31Z"/>
    <path d="M386.83,101.17l1.35-6.38h1.74c.41,0,.78.06,1.11.18.33.12.61.29.84.51.23.22.41.49.54.81s.19.66.19,1.05c0,.63-.1,1.18-.3,1.66-.2.48-.46.88-.77,1.2-.32.32-.68.57-1.09.73-.41.16-.83.24-1.25.24h-2.35ZM389.17,100.38c.29,0,.59-.06.9-.19.3-.13.57-.31.81-.57.24-.25.44-.56.59-.94.15-.37.23-.81.23-1.3,0-.6-.18-1.05-.53-1.36-.35-.31-.83-.46-1.43-.46h-.85l-1.03,4.81h1.3Z"/>
    <path d="M397.51,98.69c0,.37-.06.71-.18,1.03-.12.32-.28.59-.49.83-.21.23-.46.42-.75.55-.29.13-.6.2-.94.2-.31,0-.58-.05-.82-.16-.24-.1-.44-.25-.6-.43-.16-.18-.29-.4-.37-.64-.09-.24-.13-.5-.13-.77,0-.37.06-.72.18-1.04s.28-.59.5-.82c.21-.23.46-.41.75-.54.29-.13.6-.2.94-.2.31,0,.59.05.83.16.24.1.44.25.6.43.16.18.28.39.36.63.08.24.12.5.12.77ZM395.54,97.46c-.19,0-.37.04-.54.12-.17.08-.33.2-.46.35-.13.15-.24.34-.32.57s-.12.49-.12.78c0,.38.1.69.3.92.2.23.46.34.8.34.19,0,.37-.04.54-.12.18-.08.33-.2.47-.36.14-.16.24-.35.32-.58s.12-.49.12-.78c0-.38-.1-.68-.29-.91-.19-.23-.47-.34-.81-.34Z"/>
    <path d="M402.04,96.84l.41,3.23,1.63-3.23h.93l-2.29,4.33h-.87l-.43-3.28-1.71,3.28h-.89l-.44-4.33h.81l.28,3.22,1.69-3.22h.89Z"/>
    <path d="M407.75,101.17l.56-2.62s.02-.1.03-.15,0-.11,0-.18c0-.24-.07-.43-.2-.56-.13-.13-.33-.2-.59-.2-.17,0-.33.03-.46.1-.13.07-.25.16-.35.27-.1.11-.18.24-.25.38-.07.14-.11.29-.14.43l-.54,2.52h-.85l.76-3.56c.05-.2.08-.38.09-.53.01-.15.02-.23.02-.24h.83s0,.08-.01.18c0,.1-.02.2-.04.3.17-.23.37-.39.6-.47.23-.09.48-.13.74-.13.38,0,.69.12.93.35.24.23.36.55.36.94,0,.07,0,.13-.01.2,0,.07-.02.14-.03.21l-.58,2.75h-.85Z"/>
  </g>
  <line class="cls-4" x1="933.82" y1="236.55" x2="2.51" y2="236.55"/>
  <line class="cls-5" x1="761.93" y1="236.55" x2="761.93" y2="21.98"/>
  <rect class="cls-6" x="466.63" y="166.16" width="227.03" height="28.62"/>
  <g>
    <path d="M516.89,183.41c-.41,0-.81-.07-1.19-.22s-.72-.36-1.01-.64c-.29-.28-.53-.63-.7-1.04s-.27-.89-.27-1.42.09-1.01.27-1.42c.18-.41.42-.76.72-1.04.3-.28.64-.5,1.02-.64.38-.15.77-.22,1.17-.22.37,0,.7.05,1.01.14.31.1.58.23.82.41.24.17.44.39.61.64s.29.53.37.84l-.82.29c-.12-.49-.35-.86-.69-1.12-.34-.26-.77-.39-1.3-.39-.29,0-.57.05-.84.16s-.52.26-.73.47c-.21.21-.38.47-.51.79s-.19.68-.19,1.09.06.78.19,1.09.3.58.51.79.46.37.73.48.55.16.84.16c.27,0,.52-.04.74-.12.22-.08.42-.18.59-.32.17-.14.31-.3.43-.49s.21-.39.27-.61l.78.29c-.08.3-.21.58-.38.83-.17.25-.37.47-.61.65-.24.18-.51.32-.82.42s-.65.15-1.01.15Z"/>
    <path d="M524.15,178.62c-.02-.11-.06-.24-.12-.36-.06-.13-.14-.25-.25-.36-.11-.11-.24-.2-.4-.27-.16-.07-.35-.1-.58-.1-.18,0-.34.03-.49.08-.15.05-.28.13-.39.23-.11.1-.2.21-.26.34-.06.13-.09.27-.09.42,0,.23.07.42.21.59s.34.28.61.34l.95.21c.53.12.94.34,1.23.65s.43.69.43,1.14c0,.25-.05.48-.15.71s-.25.43-.44.6-.42.31-.69.42-.58.16-.92.16c-.38,0-.72-.06-1-.17-.29-.11-.53-.26-.72-.44s-.35-.38-.45-.61c-.11-.23-.18-.45-.21-.68l.85-.27c.02.18.06.35.13.52s.17.31.3.44c.13.13.28.23.47.3.18.07.39.11.63.11.44,0,.77-.1.99-.3.22-.2.33-.44.33-.72,0-.23-.08-.43-.23-.62-.16-.18-.4-.31-.72-.37l-.91-.2c-.46-.1-.83-.3-1.12-.59s-.44-.68-.44-1.16c0-.25.05-.49.16-.72s.26-.43.45-.6c.19-.17.41-.31.67-.42.26-.1.53-.16.83-.16.36,0,.67.05.92.15.25.1.47.23.64.38.17.16.3.33.4.51.1.19.16.37.2.54l-.79.28Z"/>
    <path d="M525.54,183.98v-.71h4.61v.71h-4.61Z"/>
    <path d="M534.36,178.62c-.02-.11-.06-.24-.12-.36-.06-.13-.14-.25-.25-.36-.11-.11-.24-.2-.4-.27-.16-.07-.35-.1-.58-.1-.18,0-.34.03-.49.08-.15.05-.28.13-.39.23-.11.1-.2.21-.26.34-.06.13-.09.27-.09.42,0,.23.07.42.21.59s.34.28.61.34l.95.21c.53.12.94.34,1.23.65s.43.69.43,1.14c0,.25-.05.48-.15.71s-.25.43-.44.6-.42.31-.69.42-.58.16-.92.16c-.38,0-.72-.06-1-.17-.29-.11-.53-.26-.72-.44s-.35-.38-.45-.61c-.11-.23-.18-.45-.21-.68l.85-.27c.02.18.06.35.13.52s.17.31.3.44c.13.13.28.23.47.3.18.07.39.11.63.11.44,0,.77-.1.99-.3.22-.2.33-.44.33-.72,0-.23-.08-.43-.23-.62-.16-.18-.4-.31-.72-.37l-.91-.2c-.46-.1-.83-.3-1.12-.59s-.44-.68-.44-1.16c0-.25.05-.49.16-.72s.26-.43.45-.6c.19-.17.41-.31.67-.42.26-.1.53-.16.83-.16.36,0,.67.05.92.15.25.1.47.23.64.38.17.16.3.33.4.51.1.19.16.37.2.54l-.79.28Z"/>
    <path d="M535.71,176.89h1.06l1.66,2.84,1.66-2.84h1.01l-2.25,3.65v2.73h-.88v-2.73l-2.25-3.65Z"/>
    <path d="M546.32,183.27l-3.45-5.2v5.2h-.88v-6.38h1.18l3.19,4.9v-4.9h.88v6.38h-.92Z"/>
    <path d="M551.62,183.41c-.41,0-.81-.07-1.19-.22s-.72-.36-1.01-.64c-.29-.28-.53-.63-.7-1.04s-.27-.89-.27-1.42.09-1.01.27-1.42c.18-.41.42-.76.72-1.04.3-.28.64-.5,1.02-.64.38-.15.77-.22,1.17-.22.37,0,.7.05,1.01.14.31.1.58.23.82.41.24.17.44.39.61.64s.29.53.37.84l-.82.29c-.12-.49-.35-.86-.69-1.12-.34-.26-.77-.39-1.3-.39-.29,0-.57.05-.84.16s-.52.26-.73.47c-.21.21-.38.47-.51.79s-.19.68-.19,1.09.06.78.19,1.09.3.58.51.79.46.37.73.48.55.16.84.16c.27,0,.52-.04.74-.12.22-.08.42-.18.59-.32.17-.14.31-.3.43-.49s.21-.39.27-.61l.78.29c-.08.3-.21.58-.38.83-.17.25-.37.47-.61.65-.24.18-.51.32-.82.42s-.65.15-1.01.15Z"/>
    <path d="M557.85,183.27v-6.38h3.88v.82h-3v2.05h2.72v.83h-2.72v2.68h-.88Z"/>
    <path d="M564.26,178.81c.32,0,.62.06.89.18.27.12.5.28.7.48.2.2.35.45.46.72s.16.58.16.91-.05.64-.16.92c-.11.28-.26.52-.46.73-.2.2-.43.36-.7.48s-.57.18-.89.18-.62-.06-.89-.18-.5-.28-.7-.48c-.2-.2-.35-.45-.46-.73-.11-.28-.16-.59-.16-.92s.05-.63.16-.91.26-.52.46-.72c.2-.2.43-.36.7-.48.27-.12.57-.18.89-.18ZM564.26,182.65c.18,0,.35-.03.51-.1.16-.07.31-.16.43-.3.13-.13.23-.29.3-.49.07-.19.11-.41.11-.67s-.04-.47-.11-.66c-.07-.19-.17-.35-.3-.48s-.27-.23-.43-.3-.33-.1-.51-.1-.35.03-.51.1-.31.17-.43.3-.23.29-.3.48c-.07.19-.11.41-.11.66s.04.47.11.67c.07.19.17.35.3.49.13.13.27.23.43.3.16.07.33.1.51.1Z"/>
    <path d="M567.56,183.27v-6.52h.85v6.52h-.85Z"/>
    <path d="M569.84,183.27v-6.52h.85v6.52h-.85Z"/>
    <path d="M573.98,178.81c.32,0,.62.06.89.18.27.12.5.28.7.48.2.2.35.45.46.72s.16.58.16.91-.05.64-.16.92c-.11.28-.26.52-.46.73-.2.2-.43.36-.7.48s-.57.18-.89.18-.62-.06-.89-.18-.5-.28-.7-.48c-.2-.2-.35-.45-.46-.73-.11-.28-.16-.59-.16-.92s.05-.63.16-.91.26-.52.46-.72c.2-.2.43-.36.7-.48.27-.12.57-.18.89-.18ZM573.98,182.65c.18,0,.35-.03.51-.1.16-.07.31-.16.43-.3.13-.13.23-.29.3-.49.07-.19.11-.41.11-.67s-.04-.47-.11-.66c-.07-.19-.17-.35-.3-.48s-.27-.23-.43-.3-.33-.1-.51-.1-.35.03-.51.1-.31.17-.43.3-.23.29-.3.48c-.07.19-.11.41-.11.66s.04.47.11.67c.07.19.17.35.3.49.13.13.27.23.43.3.16.07.33.1.51.1Z"/>
    <path d="M580.59,178.94l1.12,3.26.95-3.26h.89l-1.4,4.33h-.87l-1.15-3.29-1.12,3.29h-.89l-1.42-4.33h.93l.97,3.26,1.12-3.26h.87Z"/>
    <path d="M588.18,182.04c-.06.19-.15.37-.27.54-.12.17-.26.31-.42.43-.17.12-.35.22-.56.29-.21.07-.44.11-.69.11-.29,0-.56-.05-.83-.15-.26-.1-.5-.25-.7-.45-.2-.2-.36-.44-.48-.73-.12-.29-.18-.62-.18-.98,0-.34.06-.65.17-.93.11-.28.27-.52.45-.72.19-.2.41-.36.66-.47.25-.11.51-.17.78-.17.33,0,.63.06.89.17.26.11.48.27.65.46.17.2.31.44.4.72.09.28.14.59.14.92,0,.05,0,.1,0,.15,0,.05,0,.09-.01.12h-3.26c0,.19.04.37.11.53.07.16.16.3.27.42.12.12.25.21.41.27.16.06.33.09.51.09.35,0,.62-.08.81-.25s.32-.38.41-.62l.73.25ZM587.33,180.66c-.01-.31-.12-.57-.32-.79-.2-.21-.49-.32-.87-.32-.18,0-.34.03-.48.09-.14.06-.26.15-.36.25s-.18.22-.24.36c-.06.13-.09.27-.1.41h2.37Z"/>
    <path d="M592.32,182.62c-.1.21-.27.39-.49.54-.23.15-.51.23-.85.23-.32,0-.6-.06-.86-.18-.25-.12-.47-.28-.64-.49s-.31-.45-.41-.73c-.1-.28-.14-.58-.14-.9,0-.31.05-.6.15-.87.1-.27.24-.51.42-.72s.4-.37.65-.5c.25-.12.53-.18.84-.18.19,0,.36.02.51.06.15.04.27.1.38.17.11.07.2.15.27.23.07.09.13.18.16.27v-2.8h.84v5.72c0,.21,0,.39.02.53s.02.23.03.27h-.82s-.02-.12-.03-.23c0-.1-.01-.22-.01-.36v-.07ZM589.79,181.1c0,.22.03.43.09.62.06.19.14.35.25.49.11.14.24.25.4.32.16.08.34.12.54.12.19,0,.37-.04.52-.12s.29-.19.4-.33c.11-.14.19-.3.25-.5.06-.19.09-.4.09-.62,0-.45-.11-.81-.33-1.09-.22-.28-.52-.41-.91-.41-.19,0-.37.04-.53.11-.16.08-.29.18-.41.31-.11.13-.2.3-.26.48-.06.19-.09.39-.09.61Z"/>
    <path d="M596.83,183.27v-6.52h.84v2.8c.1-.19.28-.36.52-.51s.55-.23.91-.23c.33,0,.62.06.86.18.25.12.45.28.62.49s.29.45.38.72.13.57.13.88-.04.63-.13.9c-.09.28-.22.52-.39.73s-.38.37-.63.49-.54.18-.86.18-.6-.07-.84-.2-.42-.31-.56-.55v.63h-.84ZM600.23,181.09c0-.47-.11-.84-.34-1.11-.23-.27-.54-.41-.94-.41-.19,0-.36.04-.52.11-.16.07-.3.17-.41.3-.11.13-.2.29-.27.48-.06.19-.09.4-.09.63s.03.45.09.64c.06.19.15.36.27.49.11.14.25.24.41.31.16.07.33.11.52.11.39,0,.7-.14.93-.42.23-.28.35-.66.35-1.12Z"/>
    <path d="M602.14,185.08l1.08-2.29-1.86-3.85h.97l1.35,2.99,1.3-2.99h.91l-2.82,6.14h-.93Z"/>
    <path d="M611.8,183.41c-.41,0-.81-.07-1.19-.22s-.72-.36-1.01-.64c-.29-.28-.53-.63-.7-1.04s-.27-.89-.27-1.42.09-1.01.27-1.42c.18-.41.42-.76.72-1.04.3-.28.64-.5,1.02-.64.38-.15.77-.22,1.17-.22.37,0,.7.05,1.01.14.31.1.58.23.82.41.24.17.44.39.61.64s.29.53.37.84l-.82.29c-.12-.49-.35-.86-.69-1.12-.34-.26-.77-.39-1.3-.39-.29,0-.57.05-.84.16-.27.1-.52.26-.73.47-.21.21-.38.47-.51.79s-.19.68-.19,1.09.06.78.19,1.09.3.58.51.79.46.37.73.48c.27.1.55.16.84.16.27,0,.52-.04.74-.12.22-.08.42-.18.59-.32.17-.14.32-.3.43-.49s.21-.39.27-.61l.78.29c-.08.3-.21.58-.38.83-.17.25-.37.47-.61.65-.24.18-.51.32-.82.42-.31.1-.65.15-1.01.15Z"/>
    <path d="M619.06,178.62c-.02-.11-.06-.24-.12-.36-.06-.13-.14-.25-.25-.36-.11-.11-.24-.2-.4-.27-.16-.07-.35-.1-.58-.1-.18,0-.34.03-.5.08-.15.05-.28.13-.39.23-.11.1-.2.21-.26.34-.06.13-.09.27-.09.42,0,.23.07.42.21.59.14.17.34.28.61.34l.95.21c.53.12.94.34,1.23.65s.43.69.43,1.14c0,.25-.05.48-.15.71-.1.23-.25.43-.44.6-.19.17-.42.31-.69.42-.27.1-.58.16-.92.16-.38,0-.72-.06-1-.17-.29-.11-.53-.26-.72-.44-.2-.18-.35-.38-.46-.61-.11-.23-.18-.45-.21-.68l.85-.27c.02.18.06.35.13.52.07.17.17.31.3.44.13.13.28.23.47.3.18.07.39.11.63.11.44,0,.77-.1.99-.3.22-.2.33-.44.33-.72,0-.23-.08-.43-.23-.62-.16-.18-.4-.31-.72-.37l-.91-.2c-.46-.1-.83-.3-1.12-.59s-.44-.68-.44-1.16c0-.25.05-.49.16-.72.11-.23.26-.43.45-.6s.41-.31.67-.42c.26-.1.53-.16.83-.16.36,0,.67.05.92.15.25.1.47.23.64.38.17.16.3.33.4.51.1.19.16.37.2.54l-.79.28Z"/>
    <path d="M625.67,177.71v5.56h-.88v-5.56h-2.13v-.82h5.15v.82h-2.13Z"/>
    <path d="M628.07,180.08c0-.53.09-1.01.28-1.42.18-.41.42-.76.72-1.04.3-.28.64-.5,1.03-.64s.78-.22,1.18-.22.79.07,1.18.22c.38.15.73.36,1.03.64.3.28.54.63.72,1.04.18.41.27.88.27,1.42s-.09,1.01-.27,1.42c-.18.41-.42.76-.72,1.04-.3.28-.64.5-1.03.64-.38.15-.78.22-1.18.22s-.79-.07-1.18-.22-.73-.36-1.03-.64c-.3-.28-.54-.63-.72-1.04-.18-.41-.28-.89-.28-1.42ZM628.97,180.08c0,.41.06.78.19,1.09s.3.58.51.79c.21.21.46.37.73.48.28.1.56.16.86.16s.58-.05.86-.16c.28-.1.53-.26.74-.48s.38-.48.51-.79c.13-.31.19-.68.19-1.09s-.06-.78-.19-1.09c-.13-.31-.3-.58-.51-.79-.21-.21-.46-.37-.74-.47-.28-.1-.57-.16-.86-.16s-.59.05-.86.16c-.28.1-.52.26-.73.47-.21.21-.38.47-.51.79s-.19.68-.19,1.09Z"/>
    <path d="M640.02,183.27l-3.45-5.2v5.2h-.88v-6.38h1.18l3.19,4.9v-4.9h.88v6.38h-.92Z"/>
    <path d="M642.56,183.27v-6.38h3.88v.82h-3v1.96h2.72v.83h-2.72v1.95h3v.82h-3.88Z"/>
  </g>
  <g>
    <path d="M706.14,181.37h-1.13l-.56,2.65h-.88l1.35-6.38h2.07c.28,0,.52.04.74.12.22.08.4.19.55.34.15.14.26.31.34.51.08.2.12.41.12.65,0,.27-.04.52-.13.75s-.2.43-.36.61c-.15.18-.33.32-.54.44-.21.12-.44.2-.69.26l1.04,2.71h-.94l-1-2.65ZM706.41,180.59c.42,0,.76-.11,1.03-.33.27-.22.4-.54.4-.94,0-.27-.08-.49-.25-.65s-.42-.24-.76-.24h-1.21l-.47,2.17h1.25Z"/>
    <path d="M713.61,179.69l-.67,3.2c-.05.23-.08.43-.08.59,0,.17-.01.3-.01.39v.05s0,.05,0,.09h-.8c-.01-.06-.02-.14-.02-.25v-.12c0-.05,0-.11.02-.18-.15.18-.33.33-.55.45-.22.12-.46.18-.73.18s-.53-.05-.74-.15c-.21-.1-.39-.23-.54-.4-.14-.17-.25-.37-.32-.6-.07-.23-.11-.48-.11-.74,0-.35.06-.68.17-1,.11-.32.27-.6.46-.85.2-.24.43-.44.71-.58.28-.14.58-.22.92-.22.37,0,.66.07.88.21.22.14.38.29.47.47l.12-.55h.84ZM711.35,180.29c-.23,0-.44.06-.62.18-.18.12-.33.27-.46.45s-.21.39-.27.62c-.06.23-.09.45-.09.67,0,.34.08.62.25.85.17.22.43.33.77.33.2,0,.39-.05.57-.15s.33-.24.46-.41c.13-.17.22-.38.3-.62.07-.24.11-.5.11-.78,0-.31-.08-.58-.24-.79-.16-.22-.42-.32-.77-.32Z"/>
    <path d="M716.73,184.01l.58-2.72s.02-.1.03-.14c0-.05,0-.1,0-.14,0-.2-.06-.37-.17-.51-.12-.13-.31-.2-.57-.2-.31,0-.55.1-.72.31-.18.21-.3.47-.37.8l-.56,2.61h-.84l.76-3.56c.04-.18.07-.35.09-.5.01-.15.02-.24.02-.27h.83s0,.06,0,.15c0,.09-.02.19-.04.3.16-.19.33-.34.53-.43.2-.1.44-.14.72-.14.26,0,.49.06.68.19.19.13.32.29.4.5.22-.28.46-.47.72-.56.25-.09.51-.14.77-.14.17,0,.33.03.48.08s.29.13.4.24c.11.11.21.23.27.39s.1.33.1.54c0,.07,0,.13-.01.2,0,.07-.02.14-.03.21l-.6,2.81h-.84l.58-2.72s.02-.1.03-.15c0-.05,0-.1,0-.15,0-.19-.06-.36-.17-.49-.12-.14-.31-.21-.57-.21-.3,0-.54.1-.71.31-.18.21-.3.47-.37.78l-.56,2.62h-.85Z"/>
    <path d="M723.07,180.18c.16-.2.36-.36.61-.46s.5-.15.77-.15.53.05.73.14c.21.1.38.23.51.4.13.17.24.36.3.59.07.23.1.47.1.72,0,.38-.05.74-.16,1.07-.11.33-.26.62-.46.86-.2.24-.44.43-.72.57-.28.14-.59.21-.93.21-.3,0-.58-.07-.84-.21-.26-.14-.46-.33-.58-.58l-.5,2.38h-.84l1.12-5.27c.04-.19.07-.36.09-.5.01-.14.02-.23.02-.27h.83s0,.09,0,.19c0,.1-.02.2-.04.31ZM724.14,180.33c-.19,0-.37.04-.54.12s-.32.2-.46.36c-.13.16-.24.35-.32.58-.08.23-.12.49-.12.78,0,.38.1.68.29.89s.46.31.79.31c.18,0,.36-.04.54-.13.18-.08.33-.2.47-.36.13-.16.24-.35.33-.58s.13-.49.13-.79c0-.38-.09-.68-.28-.88-.19-.2-.46-.31-.81-.31Z"/>
    <path d="M729.08,184.01l1.35-6.38h1.74c.41,0,.78.06,1.11.18.33.12.61.29.84.51.23.22.41.49.54.81s.19.66.19,1.05c0,.63-.1,1.18-.3,1.66s-.46.88-.77,1.2c-.32.32-.68.57-1.09.73-.41.16-.83.24-1.25.24h-2.35ZM731.43,183.23c.29,0,.59-.06.9-.19.3-.13.58-.31.81-.57.24-.25.44-.56.59-.94s.23-.81.23-1.3c0-.6-.18-1.05-.53-1.36-.35-.31-.83-.46-1.43-.46h-.85l-1.03,4.81h1.3Z"/>
    <path d="M739.77,181.54c0,.37-.06.71-.18,1.03-.12.32-.29.59-.5.83s-.46.42-.75.55c-.29.13-.6.2-.94.2-.31,0-.58-.05-.82-.16s-.44-.25-.6-.43c-.16-.18-.29-.4-.37-.64-.09-.24-.13-.5-.13-.77,0-.37.06-.72.18-1.04s.28-.59.5-.82c.21-.23.46-.41.75-.54.29-.13.6-.2.94-.2.31,0,.59.05.83.16s.44.25.6.43c.16.18.28.39.36.63.08.24.12.5.12.77ZM737.8,180.31c-.19,0-.37.04-.54.12s-.33.2-.46.35c-.13.15-.24.34-.32.57s-.12.49-.12.78c0,.38.1.69.3.92.2.23.46.34.8.34.19,0,.37-.04.54-.12s.33-.2.47-.36c.14-.16.24-.35.32-.58s.12-.49.12-.78c0-.38-.1-.68-.29-.91-.2-.23-.47-.34-.81-.34Z"/>
    <path d="M744.29,179.69l.41,3.23,1.63-3.23h.93l-2.29,4.33h-.87l-.43-3.28-1.71,3.28h-.89l-.44-4.33h.81l.28,3.22,1.69-3.22h.89Z"/>
    <path d="M750.01,184.01l.56-2.62s.02-.1.03-.15,0-.11,0-.18c0-.24-.07-.43-.2-.56-.13-.13-.33-.2-.59-.2-.17,0-.33.03-.46.1-.13.07-.25.16-.35.27s-.18.24-.25.38c-.07.14-.11.29-.14.43l-.54,2.52h-.85l.76-3.56c.05-.2.08-.38.09-.53s.02-.23.02-.24h.83s0,.08-.01.18c0,.1-.02.2-.04.3.17-.23.37-.39.6-.47.23-.09.48-.13.74-.13.38,0,.69.12.93.35.24.23.36.55.36.94,0,.07,0,.13-.01.2,0,.07-.02.14-.03.21l-.58,2.75h-.85Z"/>
  </g>
  <rect class="cls-6" x="11.75" y="84.06" width="103.48" height="28.62" rx=".28" ry=".28"/>
  <rect class="cls-6" x="11.75" y="166.16" width="103.48" height="28.62" rx=".28" ry=".28"/>
  <g>
    <path class="cls-7" d="M47.59,101.17v-6.38h1.26v6.38h-1.26Z"/>
    <path class="cls-7" d="M51.41,101.17h-1.2v-4.43h1.16v.55c.14-.23.33-.4.56-.5.24-.11.48-.16.72-.16.28,0,.51.05.72.14.2.09.37.22.5.37.13.16.23.34.29.56.06.22.09.44.09.68v2.79h-1.2v-2.58c0-.25-.06-.46-.19-.63s-.34-.25-.63-.25c-.26,0-.47.09-.61.27-.14.18-.22.4-.22.65v2.55Z"/>
    <path class="cls-7" d="M55.33,95.29c0-.21.07-.39.22-.53.14-.14.32-.22.52-.22s.39.07.53.22c.14.14.21.32.21.53,0,.2-.07.37-.21.51-.14.14-.32.22-.53.22s-.38-.07-.52-.22c-.14-.14-.22-.32-.22-.51ZM55.47,101.17v-4.43h1.2v4.43h-1.2Z"/>
    <path class="cls-7" d="M59.42,96.74h.89v1.06h-.89v1.85c0,.19.04.33.13.4.09.07.22.11.39.11.07,0,.14,0,.22,0,.07,0,.12-.02.15-.03v.99c-.05.02-.14.05-.25.07-.11.02-.25.04-.43.04-.43,0-.77-.12-1.03-.36-.25-.24-.38-.58-.38-1.01v-2.06h-.8v-1.06h.23c.23,0,.41-.07.52-.2.11-.14.17-.3.17-.5v-.62h1.08v1.32Z"/>
    <path class="cls-7" d="M61.16,95.29c0-.21.07-.39.22-.53.14-.14.32-.22.52-.22s.39.07.53.22c.14.14.21.32.21.53,0,.2-.07.37-.21.51-.14.14-.32.22-.53.22s-.38-.07-.52-.22c-.14-.14-.22-.32-.22-.51ZM61.3,101.17v-4.43h1.2v4.43h-1.2Z"/>
    <path class="cls-7" d="M63.51,99.96c0-.2.03-.37.1-.53.07-.15.16-.29.28-.4.12-.11.26-.2.42-.27.16-.07.33-.11.52-.14l1.09-.16c.13-.02.21-.06.26-.11.05-.06.07-.12.07-.2,0-.16-.06-.29-.18-.41-.12-.11-.31-.17-.56-.17s-.47.07-.61.22c-.14.14-.22.31-.24.5l-1.06-.23c.02-.17.07-.35.16-.52.09-.17.21-.33.37-.47.16-.14.35-.25.58-.34.23-.09.49-.13.79-.13.35,0,.65.05.89.14.25.09.45.22.6.37.15.15.26.33.33.54.07.2.1.42.1.64v2.18c0,.12,0,.25.02.38.01.13.02.24.04.32h-1.1c-.01-.06-.02-.14-.03-.25s-.01-.2-.01-.28c-.11.17-.28.33-.49.46-.21.13-.48.2-.81.2-.23,0-.45-.04-.63-.11-.19-.08-.35-.17-.48-.3-.13-.12-.23-.26-.3-.42-.07-.16-.1-.33-.1-.5ZM65.28,100.4c.13,0,.25-.02.36-.05.12-.03.22-.09.31-.17.09-.08.16-.19.22-.31.05-.13.08-.29.08-.49v-.2l-1,.15c-.16.02-.29.08-.39.17s-.16.22-.16.39c0,.13.05.25.14.36.1.1.24.16.43.16Z"/>
    <path class="cls-7" d="M70.11,96.74h.89v1.06h-.89v1.85c0,.19.04.33.13.4.09.07.22.11.39.11.07,0,.14,0,.22,0,.07,0,.12-.02.15-.03v.99c-.05.02-.14.05-.25.07-.11.02-.25.04-.43.04-.43,0-.77-.12-1.03-.36-.25-.24-.38-.58-.38-1.01v-2.06h-.8v-1.06h.23c.23,0,.41-.07.52-.2.11-.14.17-.3.17-.5v-.62h1.08v1.32Z"/>
    <path class="cls-7" d="M73.98,96.6c.33,0,.64.06.92.18.29.12.53.28.74.49s.37.45.49.74c.12.29.18.6.18.95s-.06.66-.18.94c-.12.29-.28.53-.49.74s-.45.37-.74.49c-.28.12-.59.18-.92.18s-.64-.06-.92-.18c-.29-.12-.53-.28-.74-.49-.21-.21-.37-.46-.49-.74s-.18-.6-.18-.94.06-.66.18-.95c.12-.29.28-.54.49-.74.21-.21.45-.37.74-.49.28-.12.59-.18.92-.18ZM73.98,100.21c.14,0,.29-.03.42-.08.14-.05.26-.13.36-.24s.18-.24.25-.39c.06-.16.09-.34.09-.55s-.03-.39-.09-.55c-.06-.16-.15-.29-.25-.39s-.22-.18-.36-.24c-.14-.05-.28-.08-.42-.08s-.29.03-.42.08c-.14.05-.26.13-.36.24-.1.1-.18.24-.25.39-.06.16-.09.34-.09.55s.03.39.09.55c.06.16.15.29.25.39.1.1.22.18.36.24.14.05.28.08.42.08Z"/>
    <path class="cls-7" d="M79.94,97.93c-.12-.02-.24-.04-.36-.04-.16,0-.3.02-.44.06-.14.04-.26.11-.36.21-.1.1-.18.22-.25.38-.06.16-.09.36-.09.6v2.02h-1.2v-4.43h1.16v.66c.07-.14.15-.26.26-.36.1-.09.22-.16.33-.21.12-.05.23-.08.35-.1.12-.02.22-.03.32-.03.05,0,.09,0,.14,0,.04,0,.09,0,.14.01v1.21Z"/>
  </g>
  <g>
    <path d="M46.95,180.39h-.65v2.46h-1.25v-6.38h2.49c.31,0,.59.05.84.15s.46.24.64.41c.18.17.31.38.41.62.1.24.14.5.14.77,0,.45-.12.83-.36,1.15-.24.32-.57.54-.99.66l1.37,2.61h-1.39l-1.25-2.46ZM47.31,179.32c.32,0,.56-.08.74-.24.17-.16.26-.38.26-.64s-.09-.49-.26-.65c-.17-.16-.42-.24-.74-.24h-1.01v1.77h1.01Z"/>
    <path d="M54.56,181.58c-.05.19-.14.37-.26.54-.12.17-.26.32-.43.45s-.36.23-.59.3c-.23.08-.47.11-.74.11-.31,0-.6-.05-.87-.16-.28-.1-.52-.26-.73-.46-.21-.2-.38-.45-.5-.75-.12-.29-.18-.63-.18-1s.06-.68.18-.96c.12-.29.28-.53.48-.73.2-.2.43-.36.7-.47.26-.11.54-.17.82-.17.69,0,1.23.2,1.61.61.38.41.58.97.58,1.68,0,.08,0,.16,0,.24,0,.07,0,.12,0,.13h-3.17c0,.14.04.28.1.4s.14.23.24.32c.1.09.21.16.35.21.13.05.27.08.42.08.28,0,.5-.06.66-.19.16-.13.27-.29.35-.49l1,.3ZM53.44,180.13c0-.11-.03-.21-.07-.32s-.1-.2-.18-.28-.18-.15-.31-.2c-.12-.05-.27-.08-.44-.08-.16,0-.29.03-.41.08-.12.05-.22.12-.31.21s-.15.18-.19.28-.07.2-.08.31h1.98Z"/>
    <path d="M57.62,177.32c-.07,0-.13,0-.21.03-.07.02-.14.05-.2.09-.06.04-.11.11-.15.18-.04.08-.06.18-.06.31v.49h1.76v-2.09h1.2v6.52h-1.2v-3.4h-1.76v3.4h-1.21v-3.4h-.74v-1.03h.74v-.5c0-.25.04-.48.11-.68.07-.2.18-.37.32-.52.14-.14.31-.25.51-.33.2-.08.42-.12.67-.12.13,0,.24,0,.36.03.11.02.19.04.24.06v1.01s-.07-.02-.13-.03c-.06,0-.14-.01-.24-.01Z"/>
    <path d="M65.21,181.58c-.05.19-.14.37-.26.54-.12.17-.26.32-.43.45s-.36.23-.59.3c-.23.08-.47.11-.74.11-.31,0-.6-.05-.87-.16-.28-.1-.52-.26-.73-.46-.21-.2-.38-.45-.5-.75-.12-.29-.18-.63-.18-1s.06-.68.18-.96c.12-.29.28-.53.48-.73.2-.2.43-.36.7-.47.26-.11.54-.17.82-.17.69,0,1.23.2,1.61.61.38.41.58.97.58,1.68,0,.08,0,.16,0,.24,0,.07,0,.12,0,.13h-3.17c0,.14.04.28.1.4s.14.23.24.32c.1.09.21.16.35.21.13.05.27.08.42.08.28,0,.5-.06.66-.19.16-.13.27-.29.35-.49l1,.3ZM64.09,180.13c0-.11-.03-.21-.07-.32s-.1-.2-.18-.28-.18-.15-.31-.2c-.12-.05-.27-.08-.44-.08-.16,0-.29.03-.41.08-.12.05-.22.12-.31.21s-.15.18-.19.28-.07.2-.08.31h1.98Z"/>
    <path d="M68.2,179.39c-.16,0-.3.03-.44.08-.13.05-.25.13-.36.24-.1.11-.18.24-.24.39-.06.16-.09.33-.09.53s.03.38.09.53c.06.16.14.29.25.4s.23.19.36.24c.13.05.28.08.44.08s.28-.02.4-.07c.12-.05.22-.1.3-.18.08-.07.15-.15.2-.24.05-.09.09-.18.11-.26l1.05.35c-.05.19-.13.37-.24.54-.11.18-.25.34-.43.48-.17.14-.38.25-.61.34-.23.09-.5.13-.79.13-.32,0-.63-.06-.91-.18-.29-.12-.53-.28-.74-.49s-.38-.46-.5-.74-.18-.6-.18-.94.06-.66.18-.95c.12-.29.28-.54.49-.74.21-.21.45-.37.73-.49.28-.12.58-.18.9-.18.3,0,.57.04.81.13.24.09.44.2.62.34.17.14.31.3.42.48.11.18.19.36.23.55l-1.07.36c-.05-.19-.16-.36-.31-.51-.15-.16-.38-.23-.67-.23Z"/>
    <path d="M72.64,178.42h.89v1.06h-.89v1.85c0,.19.04.33.13.4.09.07.22.11.39.11.07,0,.14,0,.22,0,.07,0,.12-.02.15-.03v.99c-.05.02-.14.05-.25.07-.11.02-.25.04-.43.04-.43,0-.77-.12-1.03-.36-.25-.24-.38-.58-.38-1.01v-2.06h-.8v-1.06h.23c.23,0,.41-.07.52-.2.11-.14.17-.3.17-.5v-.62h1.08v1.32Z"/>
    <path d="M76.51,178.28c.33,0,.64.06.92.18.29.12.53.28.74.49s.37.45.49.74c.12.29.18.6.18.95s-.06.66-.18.94c-.12.29-.28.53-.49.74s-.45.37-.74.49c-.28.12-.59.18-.92.18s-.64-.06-.92-.18c-.29-.12-.53-.28-.74-.49-.21-.21-.37-.46-.49-.74s-.18-.6-.18-.94.06-.66.18-.95c.12-.29.28-.54.49-.74.21-.21.45-.37.74-.49.28-.12.59-.18.92-.18ZM76.51,181.89c.14,0,.29-.03.42-.08.14-.05.26-.13.36-.24s.18-.24.25-.39c.06-.16.09-.34.09-.55s-.03-.39-.09-.55c-.06-.16-.15-.29-.25-.39s-.22-.18-.36-.24c-.14-.05-.28-.08-.42-.08s-.29.03-.42.08c-.14.05-.26.13-.36.24-.1.1-.18.24-.25.39-.06.16-.09.34-.09.55s.03.39.09.55c.06.16.15.29.25.39.1.1.22.18.36.24.14.05.28.08.42.08Z"/>
    <path d="M82.48,179.61c-.12-.02-.24-.04-.36-.04-.16,0-.3.02-.44.06-.14.04-.26.11-.36.21-.1.1-.18.22-.25.38-.06.16-.09.36-.09.6v2.02h-1.2v-4.43h1.16v.66c.07-.14.15-.26.26-.36.1-.09.22-.16.33-.21.12-.05.23-.08.35-.1.12-.02.22-.03.32-.03.05,0,.09,0,.14,0,.04,0,.09,0,.14.01v1.21Z"/>
  </g>
  <g>
    <path class="cls-7" d="M129.89,36.83v6.97h-1.68v-6.97h-2.7v-1.58h7.08v1.58h-2.7Z"/>
    <path class="cls-7" d="M132.2,45.12v-1.31h6.17v1.31h-6.17Z"/>
    <path class="cls-7" d="M143.02,37.75c-.02-.12-.07-.25-.13-.39-.06-.14-.15-.27-.27-.39s-.28-.22-.46-.3c-.19-.08-.42-.12-.69-.12-.2,0-.38.03-.55.09-.17.06-.31.14-.42.24s-.21.22-.27.34c-.06.13-.1.27-.1.41,0,.23.08.44.23.61s.39.29.7.36l1.19.23c.39.07.73.19,1.03.35.3.16.55.35.75.57s.35.47.46.74.16.56.16.86c0,.33-.07.65-.21.97-.14.32-.34.6-.6.84-.26.25-.58.44-.96.6-.38.15-.82.23-1.32.23-.57,0-1.06-.08-1.47-.25-.41-.16-.75-.38-1.03-.63s-.49-.54-.63-.86c-.15-.32-.23-.63-.27-.94l1.54-.41c.02.21.07.41.15.6.08.19.2.36.36.51.15.15.34.27.57.36s.49.13.8.13c.45,0,.79-.1,1.03-.3.24-.2.36-.45.36-.75,0-.25-.09-.46-.27-.65-.18-.18-.43-.3-.77-.37l-1.19-.24c-.68-.14-1.23-.42-1.63-.84s-.61-.96-.61-1.61c0-.38.08-.73.24-1.06s.37-.61.65-.85.59-.43.95-.57.74-.21,1.15-.21c.51,0,.96.07,1.32.21.37.14.67.32.91.54.24.22.43.46.56.72.13.26.22.51.27.75l-1.5.46Z"/>
    <path class="cls-7" d="M144.31,35.25h1.95l1.92,3.39,1.92-3.39h1.87l-3.02,4.96v3.6h-1.67v-3.6l-2.98-4.96Z"/>
    <path class="cls-7" d="M156.64,39.6v-2.35h1.35v2.35h2.29v1.31h-2.29v2.36h-1.35v-2.36h-2.28v-1.31h2.28Z"/>
    <path class="cls-7" d="M167.13,36.83v6.97h-1.68v-6.97h-2.7v-1.58h7.08v1.58h-2.7Z"/>
    <path class="cls-7" d="M169.44,45.12v-1.31h6.17v1.31h-6.17Z"/>
    <path class="cls-7" d="M182.4,43.81l-.11-.98c-.1.14-.22.29-.37.43-.15.14-.34.27-.55.37-.21.11-.45.19-.72.26-.27.06-.56.1-.88.1-.58,0-1.13-.1-1.64-.31s-.97-.5-1.36-.88-.7-.85-.93-1.4c-.23-.55-.34-1.17-.34-1.86s.12-1.31.36-1.86c.24-.55.56-1.02.96-1.41s.87-.68,1.4-.89,1.08-.31,1.66-.31,1.06.07,1.5.22.82.35,1.14.6c.32.25.59.53.8.84.21.31.37.64.47.96l-1.59.57c-.06-.19-.14-.39-.26-.58-.12-.19-.27-.37-.46-.52s-.42-.29-.68-.39c-.27-.1-.57-.15-.92-.15-.32,0-.64.06-.97.17-.32.11-.61.29-.86.52-.25.24-.46.54-.62.9-.16.37-.24.8-.24,1.31s.07.91.22,1.27c.15.37.35.67.59.92s.53.43.86.55c.33.12.67.19,1.03.19.39,0,.73-.06,1.01-.17s.51-.26.69-.43.32-.35.41-.54c.09-.19.15-.37.17-.52h-2.7v-1.45h4.27v4.45h-1.35Z"/>
    <path class="cls-7" d="M184.78,43.81v-8.55h3.06c.61,0,1.17.1,1.69.29.51.19.96.47,1.33.84s.67.81.88,1.35c.21.53.32,1.13.32,1.81s-.11,1.28-.32,1.81c-.21.53-.51.98-.89,1.34-.38.36-.82.64-1.34.83s-1.08.29-1.69.29h-3.05ZM187.77,42.26c.35,0,.68-.05.99-.16.31-.11.59-.28.82-.5.23-.23.42-.51.56-.85.14-.34.21-.75.21-1.21s-.07-.87-.21-1.21-.32-.63-.55-.85c-.23-.23-.5-.39-.81-.51-.31-.11-.64-.17-.99-.17h-1.34v5.47h1.33Z"/>
    <path class="cls-7" d="M197.08,39.6v-2.35h1.35v2.35h2.29v1.31h-2.29v2.36h-1.35v-2.36h-2.28v-1.31h2.28Z"/>
    <path class="cls-7" d="M203.52,39.92c0-.69.07-1.33.2-1.91s.31-1.11.54-1.6c.23-.49.5-.94.8-1.35s.64-.79.99-1.13l.93.86c-.32.35-.61.71-.88,1.08-.26.37-.48.77-.66,1.19-.18.42-.32.87-.42,1.35-.1.48-.15.98-.15,1.52,0,1.09.19,2.04.57,2.88.38.83.89,1.59,1.54,2.27l-.93.84c-.35-.35-.68-.72-.99-1.13-.31-.41-.57-.85-.8-1.35-.23-.49-.41-1.03-.54-1.61-.13-.58-.2-1.22-.2-1.91Z"/>
    <path class="cls-7" d="M210.9,36.83v6.97h-1.68v-6.97h-2.7v-1.58h7.08v1.58h-2.7Z"/>
    <path class="cls-7" d="M213.21,45.12v-1.31h6.17v1.31h-6.17Z"/>
    <path class="cls-7" d="M224.04,37.75c-.02-.12-.07-.25-.13-.39-.06-.14-.15-.27-.27-.39s-.28-.22-.46-.3c-.19-.08-.42-.12-.69-.12-.2,0-.38.03-.55.09-.17.06-.31.14-.42.24s-.21.22-.27.34c-.06.13-.1.27-.1.41,0,.23.08.44.23.61s.39.29.7.36l1.19.23c.39.07.73.19,1.03.35.3.16.55.35.75.57s.35.47.46.74.16.56.16.86c0,.33-.07.65-.21.97-.14.32-.34.6-.6.84-.26.25-.58.44-.96.6-.38.15-.82.23-1.32.23-.57,0-1.06-.08-1.47-.25-.41-.16-.75-.38-1.03-.63s-.49-.54-.63-.86c-.15-.32-.23-.63-.27-.94l1.54-.41c.02.21.07.41.15.6.08.19.2.36.36.51.15.15.34.27.57.36s.49.13.8.13c.45,0,.79-.1,1.03-.3.24-.2.36-.45.36-.75,0-.25-.09-.46-.27-.65-.18-.18-.43-.3-.77-.37l-1.19-.24c-.68-.14-1.23-.42-1.63-.84s-.61-.96-.61-1.61c0-.38.08-.73.24-1.06s.37-.61.65-.85.59-.43.95-.57.74-.21,1.15-.21c.51,0,.96.07,1.32.21.37.14.67.32.91.54.24.22.43.46.56.72.13.26.22.51.27.75l-1.5.46Z"/>
    <path class="cls-7" d="M235.98,35.25h1.7l-2.36,8.55h-1.71l-1.95-6.09-1.95,6.09h-1.74l-2.38-8.55h1.76l1.57,5.89,1.89-5.89h1.73l1.91,5.91,1.54-5.91Z"/>
    <path class="cls-7" d="M242.38,39.6v-2.35h1.35v2.35h2.29v1.31h-2.29v2.36h-1.35v-2.36h-2.28v-1.31h2.28Z"/>
    <path class="cls-7" d="M252.86,36.83v6.97h-1.68v-6.97h-2.7v-1.58h7.08v1.58h-2.7Z"/>
    <path class="cls-7" d="M255.18,45.12v-1.31h6.17v1.31h-6.17Z"/>
    <path class="cls-7" d="M263.4,40.59v3.22h-1.67v-8.55h3.2c.42,0,.8.07,1.15.2.35.13.64.32.89.56.25.24.44.52.57.84.13.33.2.68.2,1.07s-.07.74-.2,1.07c-.13.33-.32.61-.57.84-.25.23-.55.42-.89.55-.35.13-.73.2-1.15.2h-1.53ZM264.73,39.15c.42,0,.75-.11.98-.33s.36-.52.36-.89-.12-.69-.36-.9c-.24-.22-.57-.33-.98-.33h-1.31v2.45h1.31Z"/>
    <path class="cls-7" d="M276.3,43.81v-6l-2.46,6h-1.39l-2.46-5.95v5.95h-1.59v-8.55h2.2l2.57,6.18,2.51-6.18h2.27v8.55h-1.64Z"/>
    <path class="cls-7" d="M284.06,39.92c0,.69-.07,1.33-.2,1.91-.13.58-.31,1.12-.54,1.61-.23.49-.5.94-.8,1.35-.31.41-.64.78-.99,1.13l-.93-.84c.64-.68,1.16-1.44,1.54-2.27.38-.83.57-1.79.57-2.88,0-.54-.05-1.05-.15-1.52-.1-.47-.24-.92-.42-1.35-.18-.42-.4-.82-.66-1.19s-.55-.73-.87-1.08l.93-.86c.35.35.68.72.99,1.13.31.41.57.86.8,1.35.23.49.41,1.03.54,1.6s.2,1.21.2,1.91Z"/>
    <path class="cls-7" d="M289.64,36.78l1.4-.47.4,1.18-1.42.46.89,1.21-1,.74-.92-1.22-.89,1.22-1-.75.88-1.19-1.42-.46.39-1.18,1.41.47v-1.53h1.29v1.53Z"/>
    <path class="cls-7" d="M293.94,39.92c0-.69.07-1.33.2-1.91s.31-1.11.54-1.6c.23-.49.5-.94.8-1.35s.64-.79.99-1.13l.93.86c-.32.35-.61.71-.88,1.08-.26.37-.48.77-.66,1.19-.18.42-.32.87-.42,1.35-.1.48-.15.98-.15,1.52,0,1.09.19,2.04.57,2.88.38.83.89,1.59,1.54,2.27l-.93.84c-.35-.35-.68-.72-.99-1.13-.31-.41-.57-.85-.8-1.35-.23-.49-.41-1.03-.54-1.61-.13-.58-.2-1.22-.2-1.91Z"/>
    <path class="cls-7" d="M303.28,43.81l-3.88-6.07v6.07h-1.67v-8.55h2.08l3.56,5.66v-5.66h1.67v8.55h-1.75Z"/>
    <path class="cls-7" d="M305.42,45.12v-1.31h6.17v1.31h-6.17Z"/>
    <path class="cls-7" d="M317.08,41.85h-3.47l-.71,1.95h-1.76l3.28-8.55h1.93l3.26,8.55h-1.81l-.71-1.95ZM314.16,40.33h2.36l-1.18-3.23-1.18,3.23Z"/>
    <path class="cls-7" d="M321.71,40.59v3.22h-1.67v-8.55h3.2c.42,0,.8.07,1.15.2.35.13.64.32.89.56.25.24.44.52.57.84.13.33.2.68.2,1.07s-.07.74-.2,1.07c-.13.33-.32.61-.57.84-.25.23-.55.42-.89.55-.35.13-.73.2-1.15.2h-1.53ZM323.04,39.15c.42,0,.75-.11.98-.33s.36-.52.36-.89-.12-.69-.36-.9c-.24-.22-.57-.33-.98-.33h-1.31v2.45h1.31Z"/>
    <path class="cls-7" d="M330.93,39.6v-2.35h1.35v2.35h2.29v1.31h-2.29v2.36h-1.35v-2.36h-2.28v-1.31h2.28Z"/>
    <path class="cls-7" d="M339.1,43.81v-5.24h-1.88v-1.12c.57,0,1.04-.15,1.42-.43.37-.28.6-.63.68-1.04h1.44v7.83h-1.65Z"/>
    <path class="cls-7" d="M344.43,39.92c0,.69-.07,1.33-.2,1.91-.13.58-.31,1.12-.54,1.61-.23.49-.5.94-.8,1.35-.31.41-.64.78-.99,1.13l-.93-.84c.64-.68,1.16-1.44,1.54-2.27.38-.83.57-1.79.57-2.88,0-.54-.05-1.05-.15-1.52-.1-.47-.24-.92-.42-1.35-.18-.42-.4-.82-.66-1.19s-.55-.73-.87-1.08l.93-.86c.35.35.68.72.99,1.13.31.41.57.86.8,1.35.23.49.41,1.03.54,1.6s.2,1.21.2,1.91Z"/>
  </g>
  <g>
    <path class="cls-7" d="M471.66,39.92c0-.69.07-1.33.2-1.91s.31-1.11.54-1.6c.23-.49.5-.94.8-1.35s.64-.79.99-1.13l.93.86c-.32.35-.61.71-.88,1.08-.26.37-.48.77-.66,1.19-.18.42-.32.87-.42,1.35-.1.48-.15.98-.15,1.52,0,1.09.19,2.04.57,2.88.38.83.89,1.59,1.54,2.27l-.93.84c-.35-.35-.68-.72-.99-1.13-.31-.41-.57-.85-.8-1.35-.23-.49-.41-1.03-.54-1.61-.13-.58-.2-1.22-.2-1.91Z"/>
    <path class="cls-7" d="M479.04,36.83v6.97h-1.68v-6.97h-2.7v-1.58h7.08v1.58h-2.7Z"/>
    <path class="cls-7" d="M481.36,45.12v-1.31h6.17v1.31h-6.17Z"/>
    <path class="cls-7" d="M492.18,37.75c-.02-.12-.07-.25-.13-.39-.06-.14-.15-.27-.27-.39s-.28-.22-.46-.3c-.19-.08-.42-.12-.69-.12-.2,0-.38.03-.55.09-.17.06-.31.14-.42.24s-.21.22-.27.34c-.06.13-.1.27-.1.41,0,.23.08.44.23.61s.39.29.7.36l1.19.23c.39.07.73.19,1.03.35.3.16.55.35.75.57s.35.47.46.74.16.56.16.86c0,.33-.07.65-.21.97-.14.32-.34.6-.6.84-.26.25-.58.44-.96.6-.38.15-.82.23-1.32.23-.57,0-1.06-.08-1.47-.25-.41-.16-.75-.38-1.03-.63s-.49-.54-.63-.86c-.15-.32-.23-.63-.27-.94l1.54-.41c.02.21.07.41.15.6.08.19.2.36.36.51.15.15.34.27.57.36s.49.13.8.13c.45,0,.79-.1,1.03-.3.24-.2.36-.45.36-.75,0-.25-.09-.46-.27-.65-.18-.18-.43-.3-.77-.37l-1.19-.24c-.68-.14-1.23-.42-1.63-.84s-.61-.96-.61-1.61c0-.38.08-.73.24-1.06s.37-.61.65-.85.59-.43.95-.57.74-.21,1.15-.21c.51,0,.96.07,1.32.21.37.14.67.32.91.54.24.22.43.46.56.72.13.26.22.51.27.75l-1.5.46Z"/>
    <path class="cls-7" d="M504.12,35.25h1.7l-2.36,8.55h-1.71l-1.95-6.09-1.95,6.09h-1.74l-2.38-8.55h1.76l1.57,5.89,1.89-5.89h1.73l1.91,5.91,1.54-5.91Z"/>
    <path class="cls-7" d="M511.03,36.79l1.4-.47.4,1.18-1.42.46.89,1.21-1,.74-.92-1.22-.89,1.22-1-.75.88-1.19-1.42-.46.39-1.18,1.41.47v-1.53h1.29v1.53Z"/>
    <path class="cls-7" d="M519.38,36.83v6.97h-1.68v-6.97h-2.7v-1.58h7.08v1.58h-2.7Z"/>
    <path class="cls-7" d="M521.7,45.12v-1.31h6.17v1.31h-6.17Z"/>
    <path class="cls-7" d="M529.93,40.59v3.22h-1.67v-8.55h3.2c.42,0,.8.07,1.15.2.35.13.64.32.89.56.25.24.44.52.57.84.13.33.2.68.2,1.07s-.07.74-.2,1.07c-.13.33-.32.61-.57.84-.25.23-.55.42-.89.55-.35.13-.73.2-1.15.2h-1.53ZM531.25,39.15c.42,0,.75-.11.98-.33s.36-.52.36-.89-.12-.69-.36-.9c-.24-.22-.57-.33-.98-.33h-1.31v2.45h1.31Z"/>
    <path class="cls-7" d="M542.83,43.81v-6l-2.46,6h-1.39l-2.46-5.95v5.95h-1.59v-8.55h2.2l2.57,6.18,2.51-6.18h2.27v8.55h-1.64Z"/>
    <path class="cls-7" d="M548.25,39.92c0,.69-.07,1.33-.2,1.91-.13.58-.31,1.12-.54,1.61-.23.49-.5.94-.8,1.35-.31.41-.64.78-.99,1.13l-.93-.84c.64-.68,1.16-1.44,1.54-2.27.38-.83.57-1.79.57-2.88,0-.54-.05-1.05-.15-1.52-.1-.47-.24-.92-.42-1.35-.18-.42-.4-.82-.66-1.19s-.55-.73-.87-1.08l.93-.86c.35.35.68.72.99,1.13.31.41.57.86.8,1.35.23.49.41,1.03.54,1.6s.2,1.21.2,1.91Z"/>
    <path class="cls-7" d="M553.84,36.79l1.4-.47.4,1.18-1.42.46.89,1.21-1,.74-.92-1.22-.89,1.22-1-.75.88-1.19-1.42-.46.39-1.18,1.41.47v-1.53h1.29v1.53Z"/>
    <path class="cls-7" d="M560.46,39.92c0-.69.07-1.33.2-1.91s.31-1.11.54-1.6c.23-.49.5-.94.8-1.35s.64-.79.99-1.13l.93.86c-.32.35-.61.71-.88,1.08-.26.37-.48.77-.66,1.19-.18.42-.32.87-.42,1.35-.1.48-.15.98-.15,1.52,0,1.09.19,2.04.57,2.88.38.83.89,1.59,1.54,2.27l-.93.84c-.35-.35-.68-.72-.99-1.13-.31-.41-.57-.85-.8-1.35-.23-.49-.41-1.03-.54-1.61-.13-.58-.2-1.22-.2-1.91Z"/>
    <path class="cls-7" d="M569.8,43.81l-3.88-6.07v6.07h-1.67v-8.55h2.08l3.56,5.66v-5.66h1.67v8.55h-1.75Z"/>
    <path class="cls-7" d="M571.95,45.12v-1.31h6.17v1.31h-6.17Z"/>
    <path class="cls-7" d="M583.6,41.85h-3.47l-.71,1.95h-1.76l3.28-8.55h1.93l3.26,8.55h-1.81l-.71-1.95ZM580.68,40.33h2.36l-1.18-3.23-1.18,3.23Z"/>
    <path class="cls-7" d="M588.24,40.59v3.22h-1.67v-8.55h3.2c.42,0,.8.07,1.15.2.35.13.64.32.89.56.25.24.44.52.57.84.13.33.2.68.2,1.07s-.07.74-.2,1.07c-.13.33-.32.61-.57.84-.25.23-.55.42-.89.55-.35.13-.73.2-1.15.2h-1.53ZM589.56,39.15c.42,0,.75-.11.98-.33s.36-.52.36-.89-.12-.69-.36-.9c-.24-.22-.57-.33-.98-.33h-1.32v2.45h1.32Z"/>
    <path class="cls-7" d="M597.45,39.6v-2.35h1.35v2.35h2.29v1.31h-2.29v2.36h-1.35v-2.36h-2.28v-1.31h2.28Z"/>
    <path class="cls-7" d="M605.62,43.81v-5.24h-1.88v-1.12c.57,0,1.04-.15,1.42-.43.37-.28.6-.63.68-1.04h1.44v7.83h-1.65Z"/>
    <path class="cls-7" d="M610.95,39.92c0,.69-.07,1.33-.2,1.91-.13.58-.31,1.12-.54,1.61-.23.49-.5.94-.8,1.35-.31.41-.64.78-.99,1.13l-.93-.84c.64-.68,1.16-1.44,1.54-2.27.38-.83.57-1.79.57-2.88,0-.54-.05-1.05-.15-1.52-.1-.47-.24-.92-.42-1.35-.18-.42-.4-.82-.66-1.19-.26-.37-.55-.73-.88-1.08l.93-.86c.35.35.68.72.99,1.13.31.41.57.86.8,1.35s.41,1.03.54,1.6.2,1.21.2,1.91Z"/>
    <path class="cls-7" d="M616.02,39.6v-2.35h1.35v2.35h2.29v1.31h-2.29v2.36h-1.35v-2.36h-2.28v-1.31h2.28Z"/>
    <path class="cls-7" d="M626.5,36.83v6.97h-1.68v-6.97h-2.7v-1.58h7.08v1.58h-2.7Z"/>
    <path class="cls-7" d="M628.82,45.12v-1.31h6.17v1.31h-6.17Z"/>
    <path class="cls-7" d="M641.78,43.81l-.11-.98c-.1.14-.22.29-.37.43s-.34.27-.55.37c-.21.11-.45.19-.72.26s-.56.1-.88.1c-.58,0-1.13-.1-1.64-.31s-.97-.5-1.36-.88c-.39-.38-.7-.85-.93-1.4-.23-.55-.34-1.17-.34-1.86s.12-1.31.36-1.86.56-1.02.96-1.41.87-.68,1.4-.89c.53-.21,1.08-.31,1.66-.31s1.06.07,1.5.22.82.35,1.14.6c.32.25.59.53.8.84.21.31.37.64.47.96l-1.59.57c-.06-.19-.14-.39-.26-.58-.12-.19-.27-.37-.46-.52-.19-.16-.42-.29-.68-.39s-.57-.15-.92-.15c-.32,0-.64.06-.96.17-.32.11-.61.29-.86.52-.25.24-.46.54-.62.9-.16.37-.24.8-.24,1.31s.07.91.22,1.27c.15.37.35.67.59.92.25.25.53.43.86.55.33.12.67.19,1.03.19.39,0,.73-.06,1.01-.17.28-.12.51-.26.69-.43.18-.17.32-.35.41-.54.09-.19.15-.37.17-.52h-2.7v-1.45h4.27v4.45h-1.35Z"/>
    <path class="cls-7" d="M644.15,43.81v-8.55h3.06c.61,0,1.17.1,1.69.29.51.19.96.47,1.33.84s.67.81.88,1.35c.21.53.32,1.13.32,1.81s-.11,1.28-.32,1.81c-.21.53-.51.98-.89,1.34-.38.36-.83.64-1.34.83s-1.08.29-1.69.29h-3.05ZM647.15,42.26c.35,0,.68-.05.99-.16.31-.11.59-.28.82-.5.23-.23.42-.51.55-.85.14-.34.21-.75.21-1.21s-.07-.87-.21-1.21-.32-.63-.55-.85-.5-.39-.81-.51c-.31-.11-.64-.17-.99-.17h-1.34v5.47h1.33Z"/>
    <path class="cls-7" d="M656.46,39.6v-2.35h1.35v2.35h2.29v1.31h-2.29v2.36h-1.35v-2.36h-2.28v-1.31h2.28Z"/>
    <path class="cls-7" d="M666.94,36.83v6.97h-1.68v-6.97h-2.7v-1.58h7.08v1.58h-2.7Z"/>
    <path class="cls-7" d="M669.26,45.12v-1.31h6.17v1.31h-6.17Z"/>
    <path class="cls-7" d="M680.08,37.75c-.02-.12-.07-.25-.13-.39-.06-.14-.15-.27-.27-.39-.12-.12-.28-.22-.46-.3-.19-.08-.42-.12-.69-.12-.2,0-.38.03-.55.09-.17.06-.31.14-.42.24-.12.1-.21.22-.27.34-.06.13-.1.27-.1.41,0,.23.08.44.23.61.15.17.39.29.7.36l1.19.23c.39.07.73.19,1.03.35.3.16.55.35.75.57s.35.47.46.74.16.56.16.86c0,.33-.07.65-.21.97-.14.32-.33.6-.6.84-.26.25-.58.44-.96.6-.38.15-.82.23-1.32.23-.57,0-1.06-.08-1.47-.25-.41-.16-.75-.38-1.03-.63s-.49-.54-.63-.86c-.15-.32-.23-.63-.27-.94l1.54-.41c.02.21.07.41.15.6.08.19.2.36.36.51s.34.27.57.36c.22.09.49.13.8.13.45,0,.79-.1,1.03-.3.24-.2.36-.45.36-.75,0-.25-.09-.46-.27-.65s-.43-.3-.77-.37l-1.19-.24c-.68-.14-1.23-.42-1.63-.84s-.61-.96-.61-1.61c0-.38.08-.73.24-1.06.16-.33.37-.61.65-.85s.59-.43.95-.57c.36-.14.74-.21,1.15-.21.51,0,.96.07,1.32.21.37.14.67.32.91.54.24.22.43.46.56.72s.22.51.27.75l-1.5.46Z"/>
    <path class="cls-7" d="M681.37,35.25h1.95l1.92,3.39,1.92-3.39h1.87l-3.02,4.96v3.6h-1.67v-3.6l-2.98-4.96Z"/>
  </g>
  <g>
    <path class="cls-7" d="M375.08,36.83v6.97h-1.68v-6.97h-2.7v-1.58h7.08v1.58h-2.7Z"/>
    <path class="cls-7" d="M378.05,45.12v-1.31h6.17v1.31h-6.17Z"/>
    <path class="cls-7" d="M387.81,40.51h-.87v3.29h-1.68v-8.55h3.34c.42,0,.79.07,1.13.21.33.14.62.32.86.55.24.23.42.51.55.83.13.32.19.67.19,1.04,0,.6-.16,1.12-.49,1.54s-.77.72-1.33.88l1.83,3.5h-1.86l-1.68-3.29ZM388.3,39.08c.43,0,.76-.11.99-.33s.35-.5.35-.86-.12-.65-.35-.87c-.23-.22-.56-.33-.99-.33h-1.35v2.38h1.35Z"/>
    <path class="cls-7" d="M392.81,43.81v-8.55h3.06c.61,0,1.17.1,1.69.29.51.19.96.47,1.33.84s.67.81.88,1.35c.21.53.32,1.13.32,1.81s-.11,1.28-.32,1.81c-.21.53-.51.98-.89,1.34-.38.36-.82.64-1.34.83s-1.08.29-1.69.29h-3.05ZM395.8,42.26c.35,0,.68-.05.99-.16.31-.11.59-.28.82-.5.23-.23.42-.51.56-.85.14-.34.21-.75.21-1.21s-.07-.87-.21-1.21-.32-.63-.55-.85c-.23-.23-.5-.39-.81-.51-.31-.11-.64-.17-.99-.17h-1.34v5.47h1.33Z"/>
  </g>
  <g>
    <path class="cls-7" d="M431.49,36.83v6.97h-1.68v-6.97h-2.7v-1.58h7.08v1.58h-2.7Z"/>
    <path class="cls-7" d="M434.46,45.12v-1.31h6.17v1.31h-6.17Z"/>
    <path class="cls-7" d="M441.67,43.81v-8.55h1.69v8.55h-1.69Z"/>
    <path class="cls-7" d="M446.98,40.59v3.22h-1.67v-8.55h3.2c.42,0,.8.07,1.15.2.35.13.64.32.89.56.25.24.44.52.57.84.13.33.2.68.2,1.07s-.07.74-.2,1.07c-.13.33-.32.61-.57.84-.25.23-.55.42-.89.55-.35.13-.73.2-1.15.2h-1.53ZM448.31,39.15c.42,0,.75-.11.98-.33s.36-.52.36-.89-.12-.69-.36-.9c-.24-.22-.57-.33-.98-.33h-1.31v2.45h1.31Z"/>
    <path class="cls-7" d="M452.15,38.96c-.02-.06-.03-.14-.04-.24-.01-.1-.02-.21-.02-.3,0-.35.06-.68.19-.99.13-.31.31-.59.55-.83s.54-.43.89-.58c.35-.14.76-.22,1.22-.22.43,0,.83.07,1.18.21.35.14.65.32.89.55.25.23.43.5.56.8.13.31.19.63.19.97,0,.51-.13.96-.4,1.37-.27.41-.64.76-1.12,1.06l-1.51.92c-.15.1-.29.2-.4.31-.12.11-.21.25-.27.4h3.75v1.44h-5.79c0-.35.03-.67.1-.98.06-.31.17-.6.31-.89.14-.28.33-.54.56-.79.23-.25.53-.47.88-.68l1.29-.77c.34-.2.58-.41.72-.62s.21-.46.21-.73-.1-.53-.3-.75-.49-.33-.89-.33c-.42,0-.73.12-.94.37s-.31.56-.31.93c0,.15.02.29.06.43l-1.58-.05Z"/>
  </g>
  <g>
    <path class="cls-7" d="M717.34,36.83v6.97h-1.68v-6.97h-2.7v-1.58h7.08v1.58h-2.7Z"/>
    <path class="cls-7" d="M720.31,45.12v-1.31h6.17v1.31h-6.17Z"/>
    <path class="cls-7" d="M730.07,40.51h-.87v3.29h-1.68v-8.55h3.34c.42,0,.79.07,1.13.21s.62.32.86.55c.24.23.42.51.55.83.13.32.19.67.19,1.04,0,.6-.16,1.12-.49,1.54-.33.43-.77.72-1.33.88l1.83,3.5h-1.86l-1.68-3.29ZM730.56,39.08c.43,0,.76-.11.99-.33s.35-.5.35-.86-.12-.65-.35-.87c-.23-.22-.56-.33-.99-.33h-1.35v2.38h1.35Z"/>
    <path class="cls-7" d="M735.07,43.81v-8.55h3.06c.61,0,1.17.1,1.69.29.51.19.96.47,1.33.84s.67.81.88,1.35.32,1.13.32,1.81-.11,1.28-.32,1.81c-.21.53-.51.98-.89,1.34s-.82.64-1.34.83-1.08.29-1.69.29h-3.05ZM738.06,42.26c.35,0,.68-.05.99-.16.31-.11.59-.28.82-.5.23-.23.42-.51.56-.85.14-.34.21-.75.21-1.21s-.07-.87-.21-1.21-.32-.63-.55-.85c-.23-.23-.5-.39-.81-.51-.31-.11-.64-.17-.99-.17h-1.34v5.47h1.33Z"/>
  </g>
  <g>
    <path d="M458.81,9l-1.4,6.57h-1.32l1.39-6.57h-2.43l.26-1.23h6.09l-.26,1.23h-2.33Z"/>
    <path d="M460.73,15.57l1.14-5.36h1.27l-1.14,5.36h-1.27ZM462.06,8.39c0-.12.03-.24.08-.35.05-.11.12-.21.2-.29.08-.08.18-.15.29-.19.11-.05.22-.07.34-.07.22,0,.4.07.54.21.14.14.21.31.21.52,0,.13-.03.25-.08.36s-.12.21-.2.29c-.08.08-.18.15-.29.19-.11.04-.22.07-.34.07-.22,0-.4-.07-.54-.21-.14-.14-.21-.32-.21-.52Z"/>
    <path d="M466.96,15.57l.68-3.25c.02-.11.03-.22.03-.33,0-.23-.07-.43-.2-.58-.14-.15-.35-.23-.64-.23-.33,0-.59.11-.79.34-.19.22-.33.51-.41.86l-.68,3.19h-1.25l.94-4.43c.06-.26.09-.47.1-.64.01-.17.02-.26.02-.29h1.23s0,.11-.01.22c0,.11-.02.22-.03.32.37-.46.88-.69,1.51-.69.33,0,.61.08.85.23.23.15.41.36.53.6.25-.32.53-.54.85-.66.31-.12.64-.18.97-.18.23,0,.44.04.63.12.19.08.36.19.51.32.15.14.26.31.35.51.08.2.13.43.13.68,0,.1,0,.19-.02.27-.01.08-.02.16-.04.24l-.71,3.37h-1.27l.69-3.25c.02-.11.03-.21.03-.31,0-.24-.07-.44-.2-.6s-.35-.24-.64-.24c-.33,0-.59.11-.79.34-.19.23-.33.51-.4.86l-.68,3.19h-1.27Z"/>
    <path d="M474.38,13.24s-.01.08-.01.12c0,.38.12.69.35.93.23.24.54.36.91.36.35,0,.64-.08.87-.24.23-.16.39-.34.5-.54l.98.54c-.09.18-.21.34-.36.51-.15.16-.32.3-.52.42-.2.12-.42.22-.68.29s-.53.11-.82.11c-.33,0-.64-.06-.94-.17s-.56-.27-.78-.48-.4-.47-.53-.77c-.13-.3-.2-.65-.2-1.04,0-.51.08-.96.25-1.36.17-.4.38-.74.65-1.02.27-.28.58-.49.93-.64.35-.15.71-.22,1.07-.22s.69.06.98.17c.29.11.53.26.72.46s.34.43.45.7c.1.27.15.57.15.89,0,.18-.02.36-.05.53-.03.17-.07.32-.1.45h-3.82ZM477.09,12.3s0-.04,0-.07c0-.03,0-.06,0-.09,0-.12-.02-.24-.05-.36-.04-.12-.1-.23-.18-.33-.08-.1-.2-.18-.34-.24-.14-.06-.31-.09-.52-.09s-.38.03-.54.1-.31.15-.43.26c-.12.11-.23.24-.32.38s-.15.29-.2.45h2.57Z"/>
  </g>
</svg>