<?xml version="1.0" encoding="UTF-8"?>
<svg id="Layer_1" data-name="Layer 1" xmlns="http://www.w3.org/2000/svg" viewBox="0 0 684 235.53">
  <defs>
    <style>
      .cls-1, .cls-2, .cls-3 {
        fill: none;
        stroke-miterlimit: 10;
      }

      .cls-1, .cls-3 {
        stroke: #000;
      }

      .cls-4 {
        fill: #fff;
      }

      .cls-2 {
        stroke: #ffcb30;
      }

      .cls-3 {
        stroke-linecap: square;
      }

      .cls-5 {
        fill: #7fb842;
      }

      .cls-6 {
        fill: #0082fc;
      }
    </style>
  </defs>
  <g>
    <polyline class="cls-1" points="660.48 190.06 15.75 190.06 15.75 64.55"/>
    <polygon points="659.02 185.08 667.66 190.06 659.02 195.05 659.02 185.08"/>
  </g>
  <g>
    <line class="cls-3" x1="15.75" y1="57.55" x2="171.82" y2="57.55"/>
    <polygon points="170.36 62.54 178.99 57.55 170.36 52.56 170.36 62.54"/>
  </g>
  <g>
    <line class="cls-1" x1="15.75" y1="64.94" x2="660.48" y2="64.94"/>
    <polygon points="659.02 69.93 667.66 64.94 659.02 59.96 659.02 69.93"/>
  </g>
  <line class="cls-2" x1="178.99" y1="190.06" x2="178.99" y2="47.81"/>
  <line class="cls-2" x1="341.71" y1="190.06" x2="341.71" y2="47.81"/>
  <line class="cls-2" x1="504.42" y1="190.06" x2="504.42" y2="47.81"/>
  <line class="cls-2" x1="667.66" y1="190.06" x2="667.66" y2="47.81"/>
  <g>
    <path d="M37.49,52.12c-.45,0-.88-.08-1.3-.24s-.78-.39-1.1-.7c-.32-.31-.57-.69-.76-1.14-.19-.45-.29-.97-.29-1.55s.1-1.1.29-1.54c.2-.45.46-.82.78-1.13s.69-.54,1.11-.7.84-.24,1.27-.24c.4,0,.76.05,1.1.16s.63.25.89.44c.26.19.48.42.66.7s.32.58.41.91l-.89.31c-.13-.53-.38-.93-.75-1.22-.37-.28-.84-.42-1.42-.42-.31,0-.62.06-.92.17-.3.11-.56.29-.79.51-.23.23-.42.51-.55.86-.14.34-.21.74-.21,1.19s.07.85.21,1.19c.14.34.32.63.55.86.23.23.5.41.79.52.3.11.6.17.92.17.29,0,.56-.04.8-.13.24-.08.46-.2.64-.35.19-.15.34-.32.47-.53.13-.21.23-.43.3-.66l.85.31c-.09.33-.23.63-.41.9s-.4.51-.66.71c-.26.2-.56.35-.89.46-.34.11-.7.17-1.1.17Z"/>
    <path d="M43.87,47.11c.35,0,.68.06.97.19.29.13.55.3.76.52.22.22.38.49.5.79.12.3.18.64.18,1s-.06.69-.18,1c-.12.31-.28.57-.5.79-.21.22-.47.4-.76.52-.29.13-.62.19-.97.19s-.68-.06-.97-.19-.55-.3-.76-.52-.38-.49-.5-.79c-.12-.31-.18-.64-.18-1s.06-.69.18-1c.12-.3.28-.57.5-.79s.47-.4.76-.52.62-.19.97-.19ZM43.87,51.3c.2,0,.38-.04.56-.11s.33-.18.47-.32c.14-.14.25-.32.32-.53.08-.21.12-.45.12-.73s-.04-.51-.12-.72c-.08-.21-.19-.38-.32-.52-.14-.14-.29-.25-.47-.32s-.36-.11-.56-.11-.38.04-.56.11c-.18.07-.33.18-.47.32-.14.14-.25.32-.32.52-.08.21-.12.45-.12.72s.04.52.12.73c.08.21.19.39.32.53.14.14.29.25.47.32.18.07.36.11.56.11Z"/>
    <path d="M48.39,51.97h-.92v-4.71h.9v.68c.17-.29.39-.5.65-.63.26-.12.53-.19.8-.19s.53.05.74.14c.21.09.39.23.53.39s.25.36.31.59c.07.23.1.47.1.74v2.99h-.92v-2.83c0-.16-.02-.32-.05-.46-.04-.14-.1-.27-.19-.38s-.2-.19-.34-.25-.31-.09-.51-.09c-.18,0-.34.03-.48.1-.14.07-.25.16-.34.28-.09.12-.16.25-.21.41s-.07.32-.07.5v2.73Z"/>
    <path d="M53.88,51.97h-.92v-4.71h.9v.68c.17-.29.39-.5.65-.63.26-.12.53-.19.8-.19s.53.05.74.14c.21.09.39.23.53.39s.25.36.31.59c.07.23.1.47.1.74v2.99h-.92v-2.83c0-.16-.02-.32-.05-.46-.04-.14-.1-.27-.19-.38s-.2-.19-.34-.25-.31-.09-.51-.09c-.18,0-.34.03-.48.1-.14.07-.25.16-.34.28-.09.12-.16.25-.21.41s-.07.32-.07.5v2.73Z"/>
    <path d="M62.61,50.63c-.07.21-.16.4-.29.58-.13.18-.28.34-.46.47s-.38.24-.61.32c-.23.08-.48.12-.75.12-.31,0-.61-.06-.9-.17-.29-.11-.54-.27-.76-.49s-.39-.48-.52-.79c-.13-.31-.19-.67-.19-1.07,0-.37.06-.71.19-1.01s.29-.57.5-.78.45-.39.72-.51c.27-.12.56-.18.85-.18.36,0,.68.06.97.18.28.12.52.29.71.5.19.22.33.48.44.78.1.3.15.64.15,1,0,.06,0,.11,0,.17,0,.05,0,.09-.01.13h-3.55c0,.21.05.4.12.58.07.18.17.33.3.46.13.13.28.23.45.29.17.07.36.1.55.1.38,0,.68-.09.88-.27s.35-.41.44-.68l.79.27ZM61.68,49.13c-.01-.34-.13-.63-.34-.86s-.53-.35-.95-.35c-.2,0-.37.03-.52.1-.15.07-.28.16-.39.27-.11.11-.19.24-.26.39s-.1.29-.11.44h2.58Z"/>
    <path d="M65.89,47.96c-.19,0-.37.03-.54.1-.17.07-.32.17-.46.31s-.24.31-.32.51c-.08.21-.12.45-.12.72s.04.5.12.71c.08.21.18.38.31.52.13.14.28.25.46.32.18.07.36.11.55.11.22,0,.41-.03.56-.1s.28-.15.38-.25.18-.2.24-.32c.06-.11.1-.22.13-.31l.81.35c-.06.17-.14.34-.25.51s-.25.33-.43.48c-.18.14-.38.26-.62.35-.24.09-.51.13-.82.13-.35,0-.67-.06-.96-.19s-.54-.3-.75-.53c-.21-.23-.37-.49-.5-.79-.12-.3-.18-.64-.18-.99s.06-.7.18-1.01.29-.57.5-.79c.21-.22.46-.39.75-.51s.6-.19.94-.19c.31,0,.59.04.83.13.24.09.44.2.62.35.17.14.31.31.42.49s.18.36.24.53l-.83.35c-.03-.12-.08-.24-.14-.35s-.14-.22-.24-.32-.22-.17-.37-.24c-.14-.06-.32-.09-.52-.09Z"/>
    <path d="M70.48,47.26h1.02v.83h-1.02v2.45c0,.22.05.38.15.49.1.11.27.16.51.16.06,0,.12,0,.2,0s.13-.02.17-.03v.78s-.11.03-.23.05-.25.03-.4.03c-.41,0-.73-.12-.96-.35-.24-.23-.35-.56-.35-1v-2.59h-.9v-.83h.25c.25,0,.44-.07.55-.21s.17-.31.17-.52v-.76h.84v1.49Z"/>
    <path d="M72.41,45.48c0-.19.06-.35.19-.48.13-.13.28-.19.47-.19s.35.06.48.19c.13.13.19.29.19.48s-.06.34-.19.47c-.13.13-.29.19-.48.19s-.34-.06-.47-.19c-.13-.13-.19-.28-.19-.47ZM72.61,51.97v-4.71h.91v4.71h-.91Z"/>
    <path d="M77.11,47.11c.35,0,.68.06.97.19.29.13.55.3.76.52.22.22.38.49.5.79.12.3.18.64.18,1s-.06.69-.18,1c-.12.31-.28.57-.5.79-.21.22-.47.4-.76.52-.29.13-.62.19-.97.19s-.68-.06-.97-.19-.55-.3-.76-.52-.38-.49-.5-.79c-.12-.31-.18-.64-.18-1s.06-.69.18-1c.12-.3.28-.57.5-.79s.47-.4.76-.52.62-.19.97-.19ZM77.11,51.3c.2,0,.38-.04.56-.11s.33-.18.47-.32c.14-.14.25-.32.32-.53.08-.21.12-.45.12-.73s-.04-.51-.12-.72c-.08-.21-.19-.38-.32-.52-.14-.14-.29-.25-.47-.32s-.36-.11-.56-.11-.38.04-.56.11c-.18.07-.33.18-.47.32-.14.14-.25.32-.32.52-.08.21-.12.45-.12.72s.04.52.12.73c.08.21.19.39.32.53.14.14.29.25.47.32.18.07.36.11.56.11Z"/>
    <path d="M81.63,51.97h-.92v-4.71h.9v.68c.17-.29.39-.5.65-.63.26-.12.53-.19.8-.19s.53.05.74.14c.21.09.39.23.53.39s.25.36.31.59c.07.23.1.47.1.74v2.99h-.92v-2.83c0-.16-.02-.32-.05-.46-.04-.14-.1-.27-.19-.38s-.2-.19-.34-.25-.31-.09-.51-.09c-.18,0-.34.03-.48.1-.14.07-.25.16-.34.28-.09.12-.16.25-.21.41s-.07.32-.07.5v2.73Z"/>
    <path d="M88.76,51.97v-6.95h.98v6.95h-.98Z"/>
    <path d="M92.33,51.97h-.92v-4.71h.9v.68c.17-.29.39-.5.65-.63.26-.12.53-.19.8-.19s.53.05.74.14c.21.09.39.23.53.39s.25.36.31.59c.07.23.1.47.1.74v2.99h-.92v-2.83c0-.16-.02-.32-.05-.46-.04-.14-.1-.27-.19-.38s-.2-.19-.34-.25-.31-.09-.51-.09c-.18,0-.34.03-.48.1-.14.07-.25.16-.34.28-.09.12-.16.25-.21.41s-.07.32-.07.5v2.73Z"/>
    <path d="M98.15,47.26h1.02v.83h-1.02v2.45c0,.22.05.38.15.49.1.11.27.16.51.16.06,0,.12,0,.2,0s.13-.02.17-.03v.78s-.11.03-.23.05-.25.03-.4.03c-.41,0-.73-.12-.96-.35-.24-.23-.35-.56-.35-1v-2.59h-.9v-.83h.25c.25,0,.44-.07.55-.21s.17-.31.17-.52v-.76h.84v1.49Z"/>
    <path d="M104.4,50.63c-.07.21-.16.4-.29.58-.13.18-.28.34-.46.47s-.38.24-.61.32c-.23.08-.48.12-.75.12-.31,0-.61-.06-.9-.17-.29-.11-.54-.27-.76-.49s-.39-.48-.52-.79c-.13-.31-.19-.67-.19-1.07,0-.37.06-.71.19-1.01s.29-.57.5-.78.45-.39.72-.51c.27-.12.56-.18.85-.18.36,0,.68.06.97.18.28.12.52.29.71.5.19.22.33.48.44.78.1.3.15.64.15,1,0,.06,0,.11,0,.17,0,.05,0,.09-.01.13h-3.55c0,.21.05.4.12.58.07.18.17.33.3.46.13.13.28.23.45.29.17.07.36.1.55.1.38,0,.68-.09.88-.27s.35-.41.44-.68l.79.27ZM103.46,49.13c-.01-.34-.13-.63-.34-.86s-.53-.35-.95-.35c-.2,0-.37.03-.52.1-.15.07-.28.16-.39.27-.11.11-.19.24-.26.39s-.1.29-.11.44h2.58Z"/>
    <path d="M108.25,48.19c-.14-.02-.27-.03-.4-.03-.39,0-.7.11-.94.34-.24.23-.36.6-.36,1.11v2.36h-.92v-4.71h.9v.82c.08-.18.18-.33.3-.45.11-.11.23-.21.36-.27.12-.07.25-.12.38-.14.13-.03.25-.04.37-.04.07,0,.13,0,.18,0,.05,0,.1.01.12.02v.98Z"/>
    <path d="M111.71,51.97h-.93l-1.91-4.71h1.04l1.34,3.64,1.35-3.64h.99l-1.88,4.71Z"/>
    <path d="M114.12,50.71c0-.21.04-.4.11-.56.07-.17.17-.31.3-.43.13-.12.28-.21.46-.28.18-.07.37-.12.57-.16l1.27-.19c.14-.02.24-.06.29-.13.05-.07.07-.14.07-.23,0-.23-.08-.43-.24-.59-.16-.17-.42-.25-.78-.25-.33,0-.58.09-.75.27s-.28.41-.31.68l-.88-.21c.03-.22.09-.43.2-.62s.25-.35.42-.49.37-.24.59-.31c.23-.07.47-.11.72-.11.35,0,.65.05.9.14s.45.22.61.38c.16.16.27.34.34.55.07.21.11.43.11.66v2.36c0,.21,0,.38.02.5.01.12.03.22.04.27h-.9c-.01-.06-.02-.14-.03-.24s-.01-.23-.01-.4c-.05.08-.12.17-.21.26-.08.09-.19.18-.31.25s-.27.14-.44.19c-.17.05-.35.07-.56.07-.24,0-.46-.04-.65-.12-.19-.08-.36-.18-.49-.31-.14-.13-.24-.28-.32-.45-.08-.17-.11-.35-.11-.54ZM115.83,51.35c.19,0,.37-.02.53-.07.17-.05.31-.13.43-.24s.22-.25.29-.43c.07-.18.11-.4.11-.65v-.22l-1.44.22c-.2.03-.36.11-.49.22s-.2.28-.2.49c0,.18.07.33.21.48.14.14.32.21.56.21Z"/>
    <path d="M119.54,51.97v-7.1h.92v7.1h-.92Z"/>
  </g>
  <g>
    <rect class="cls-5" x="49.67" y="105.89" width="32.18" height="14.3"/>
    <rect class="cls-6" x="83.58" y="105.89" width="32.18" height="14.3"/>
    <rect class="cls-5" x="117.5" y="105.89" width="32.18" height="14.3"/>
    <g>
      <rect class="cls-6" x="15.75" y="105.89" width="32.18" height="14.3"/>
      <g>
        <path class="cls-4" d="M27.28,115.78c-.39,0-.76-.07-1.11-.21-.36-.14-.67-.34-.94-.6-.27-.26-.49-.59-.66-.97-.17-.39-.25-.83-.25-1.33s.08-.94.25-1.32c.17-.38.39-.71.67-.97s.59-.46.95-.6c.36-.14.72-.21,1.09-.21.34,0,.66.04.94.13.29.09.54.22.76.38.22.16.41.36.57.6s.27.5.35.78l-.76.27c-.11-.45-.33-.8-.64-1.04-.32-.24-.72-.36-1.21-.36-.27,0-.53.05-.79.15-.25.1-.48.25-.68.44-.2.2-.36.44-.47.74-.12.29-.18.63-.18,1.02s.06.73.18,1.02c.12.29.28.54.47.74.2.2.43.35.68.45.25.1.52.15.79.15.25,0,.48-.04.69-.11s.39-.17.55-.3c.16-.13.29-.28.4-.45.11-.18.19-.37.26-.57l.73.27c-.08.28-.2.54-.35.77-.16.24-.35.44-.57.6-.22.17-.48.3-.76.4-.29.1-.6.14-.95.14Z"/>
        <path class="cls-4" d="M34.42,113.61l-3.46,1.72v-.8l2.62-1.29-2.62-1.29v-.8l3.46,1.73v.71Z"/>
        <path class="cls-4" d="M36.3,113.22v2.44h-.82v-5.96h2.17c.27,0,.53.04.75.13.23.09.42.21.58.37.16.16.28.35.37.56.09.21.13.45.13.7s-.04.49-.13.7c-.09.22-.21.4-.37.55-.16.15-.35.28-.58.37-.23.09-.48.13-.75.13h-1.34ZM37.49,112.48c.36,0,.64-.09.84-.27.2-.18.31-.43.31-.73s-.1-.57-.31-.76c-.21-.19-.49-.28-.84-.28h-1.19v2.04h1.19Z"/>
      </g>
    </g>
    <g>
      <path class="cls-4" d="M95.11,115.78c-.39,0-.76-.07-1.11-.21-.36-.14-.67-.34-.94-.6-.27-.26-.49-.59-.66-.97-.17-.39-.25-.83-.25-1.33s.08-.94.25-1.32c.17-.38.39-.71.67-.97s.59-.46.95-.6c.36-.14.72-.21,1.09-.21.34,0,.66.04.94.13.29.09.54.22.76.38.22.16.41.36.57.6s.27.5.35.78l-.76.27c-.11-.45-.33-.8-.64-1.04-.32-.24-.72-.36-1.21-.36-.27,0-.53.05-.79.15-.25.1-.48.25-.68.44-.2.2-.36.44-.47.74-.12.29-.18.63-.18,1.02s.06.73.18,1.02c.12.29.28.54.47.74.2.2.43.35.68.45.25.1.52.15.79.15.25,0,.48-.04.69-.11s.39-.17.55-.3c.16-.13.29-.28.4-.45.11-.18.19-.37.26-.57l.73.27c-.08.28-.2.54-.35.77-.16.24-.35.44-.57.6-.22.17-.48.3-.76.4-.29.1-.6.14-.95.14Z"/>
      <path class="cls-4" d="M102.26,113.61l-3.46,1.72v-.8l2.62-1.29-2.62-1.29v-.8l3.46,1.73v.71Z"/>
      <path class="cls-4" d="M104.13,113.22v2.44h-.82v-5.96h2.17c.27,0,.53.04.75.13.23.09.42.21.58.37.16.16.28.35.37.56.09.21.13.45.13.7s-.04.49-.13.7c-.09.22-.21.4-.37.55-.16.15-.35.28-.58.37-.23.09-.48.13-.75.13h-1.34ZM105.32,112.48c.36,0,.64-.09.84-.27.2-.18.31-.43.31-.73s-.1-.57-.31-.76c-.21-.19-.49-.28-.84-.28h-1.19v2.04h1.19Z"/>
    </g>
    <g>
      <path class="cls-4" d="M58.14,113.22v2.44h-.82v-5.96h2.17c.27,0,.53.04.75.13.23.09.42.21.58.37.16.16.28.35.37.56.09.21.13.45.13.7s-.04.49-.13.7c-.09.22-.21.4-.37.55-.16.15-.35.28-.58.37-.23.09-.48.13-.75.13h-1.34ZM59.33,112.48c.36,0,.64-.09.84-.27.2-.18.31-.43.31-.73s-.1-.57-.31-.76c-.21-.19-.49-.28-.84-.28h-1.19v2.04h1.19Z"/>
      <path class="cls-4" d="M61.95,113.59v-.69h2.28v.69h-2.28Z"/>
      <path class="cls-4" d="M68.36,113.61l-3.46,1.72v-.8l2.62-1.29-2.62-1.29v-.8l3.46,1.73v.71Z"/>
      <path class="cls-4" d="M71.99,115.78c-.39,0-.76-.07-1.11-.21-.36-.14-.67-.34-.94-.6-.27-.26-.49-.59-.66-.97-.17-.39-.25-.83-.25-1.33s.08-.94.25-1.32c.17-.38.39-.71.67-.97s.59-.46.95-.6c.36-.14.72-.21,1.09-.21.34,0,.66.04.94.13.29.09.54.22.76.38.22.16.41.36.57.6s.27.5.35.78l-.76.27c-.11-.45-.33-.8-.64-1.04-.32-.24-.72-.36-1.21-.36-.27,0-.53.05-.79.15-.25.1-.48.25-.68.44-.2.2-.36.44-.47.74-.12.29-.18.63-.18,1.02s.06.73.18,1.02c.12.29.28.54.47.74.2.2.43.35.68.45.25.1.52.15.79.15.25,0,.48-.04.69-.11s.39-.17.55-.3c.16-.13.29-.28.4-.45.11-.18.19-.37.26-.57l.73.27c-.08.28-.2.54-.35.77-.16.24-.35.44-.57.6-.22.17-.48.3-.76.4-.29.1-.6.14-.95.14Z"/>
    </g>
    <g>
      <path class="cls-4" d="M125.97,113.22v2.44h-.82v-5.96h2.17c.27,0,.53.04.75.13.23.09.42.21.58.37.16.16.28.35.37.56.09.21.13.45.13.7s-.04.49-.13.7c-.09.22-.21.4-.37.55-.16.15-.35.28-.58.37-.23.09-.48.13-.75.13h-1.34ZM127.16,112.48c.36,0,.64-.09.84-.27.2-.18.31-.43.31-.73s-.1-.57-.31-.76c-.21-.19-.49-.28-.84-.28h-1.19v2.04h1.19Z"/>
      <path class="cls-4" d="M129.78,113.59v-.69h2.28v.69h-2.28Z"/>
      <path class="cls-4" d="M136.19,113.61l-3.46,1.72v-.8l2.62-1.29-2.62-1.29v-.8l3.46,1.73v.71Z"/>
      <path class="cls-4" d="M139.82,115.78c-.39,0-.76-.07-1.11-.21-.36-.14-.67-.34-.94-.6-.27-.26-.49-.59-.66-.97-.17-.39-.25-.83-.25-1.33s.08-.94.25-1.32c.17-.38.39-.71.67-.97s.59-.46.95-.6c.36-.14.72-.21,1.09-.21.34,0,.66.04.94.13.29.09.54.22.76.38.22.16.41.36.57.6s.27.5.35.78l-.76.27c-.11-.45-.33-.8-.64-1.04-.32-.24-.72-.36-1.21-.36-.27,0-.53.05-.79.15-.25.1-.48.25-.68.44-.2.2-.36.44-.47.74-.12.29-.18.63-.18,1.02s.06.73.18,1.02c.12.29.28.54.47.74.2.2.43.35.68.45.25.1.52.15.79.15.25,0,.48-.04.69-.11s.39-.17.55-.3c.16-.13.29-.28.4-.45.11-.18.19-.37.26-.57l.73.27c-.08.28-.2.54-.35.77-.16.24-.35.44-.57.6-.22.17-.48.3-.76.4-.29.1-.6.14-.95.14Z"/>
    </g>
  </g>
  <g>
    <rect class="cls-6" x="342.04" y="160.22" width="32.18" height="14.3"/>
    <rect class="cls-5" x="375.95" y="160.22" width="32.18" height="14.3"/>
    <rect class="cls-6" x="409.87" y="160.22" width="32.18" height="14.3"/>
    <rect class="cls-5" x="443.78" y="160.22" width="32.18" height="14.3"/>
    <g>
      <path class="cls-4" d="M353.57,170.11c-.39,0-.76-.07-1.11-.21-.36-.14-.67-.34-.94-.6-.27-.26-.49-.59-.66-.97-.17-.39-.25-.83-.25-1.33s.08-.94.25-1.32c.17-.38.39-.71.67-.97s.59-.46.95-.6c.36-.14.72-.21,1.09-.21.34,0,.66.04.94.13.29.09.54.22.76.38.22.16.41.36.57.6s.27.5.35.78l-.76.27c-.11-.45-.33-.8-.64-1.04-.32-.24-.72-.36-1.21-.36-.27,0-.53.05-.79.15-.25.1-.48.25-.68.44-.2.2-.36.44-.47.74-.12.29-.18.63-.18,1.02s.06.73.18,1.02c.12.29.28.54.47.74.2.2.43.35.68.45.25.1.52.15.79.15.25,0,.48-.04.69-.11s.39-.17.55-.3c.16-.13.29-.28.4-.45.11-.18.19-.37.26-.57l.73.27c-.08.28-.2.54-.35.77-.16.24-.35.44-.57.6-.22.17-.48.3-.76.4-.29.1-.6.14-.95.14Z"/>
      <path class="cls-4" d="M360.71,167.93l-3.46,1.72v-.8l2.62-1.29-2.62-1.29v-.8l3.46,1.73v.71Z"/>
      <path class="cls-4" d="M362.58,167.54v2.44h-.82v-5.96h2.17c.27,0,.53.04.75.13.23.09.42.21.58.37.16.16.28.35.37.56.09.21.13.45.13.7s-.04.49-.13.7c-.09.22-.21.4-.37.55-.16.15-.35.28-.58.37-.23.09-.48.13-.75.13h-1.34ZM363.78,166.81c.36,0,.64-.09.84-.27.2-.18.31-.43.31-.73s-.1-.57-.31-.76c-.21-.19-.49-.28-.84-.28h-1.19v2.04h1.19Z"/>
    </g>
    <g>
      <path class="cls-4" d="M421.4,170.11c-.39,0-.76-.07-1.11-.21-.36-.14-.67-.34-.94-.6-.27-.26-.49-.59-.66-.97-.17-.39-.25-.83-.25-1.33s.08-.94.25-1.32c.17-.38.39-.71.67-.97s.59-.46.95-.6c.36-.14.72-.21,1.09-.21.34,0,.66.04.94.13.29.09.54.22.76.38.22.16.41.36.57.6s.27.5.35.78l-.76.27c-.11-.45-.33-.8-.64-1.04-.32-.24-.72-.36-1.21-.36-.27,0-.53.05-.79.15-.25.1-.48.25-.68.44-.2.2-.36.44-.47.74-.12.29-.18.63-.18,1.02s.06.73.18,1.02c.12.29.28.54.47.74.2.2.43.35.68.45.25.1.52.15.79.15.25,0,.48-.04.69-.11s.39-.17.55-.3c.16-.13.29-.28.4-.45.11-.18.19-.37.26-.57l.73.27c-.08.28-.2.54-.35.77-.16.24-.35.44-.57.6-.22.17-.48.3-.76.4-.29.1-.6.14-.95.14Z"/>
      <path class="cls-4" d="M428.54,167.93l-3.46,1.72v-.8l2.62-1.29-2.62-1.29v-.8l3.46,1.73v.71Z"/>
      <path class="cls-4" d="M430.41,167.54v2.44h-.82v-5.96h2.17c.27,0,.53.04.75.13.23.09.42.21.58.37.16.16.28.35.37.56.09.21.13.45.13.7s-.04.49-.13.7c-.09.22-.21.4-.37.55-.16.15-.35.28-.58.37-.23.09-.48.13-.75.13h-1.34ZM431.61,166.81c.36,0,.64-.09.84-.27.2-.18.31-.43.31-.73s-.1-.57-.31-.76c-.21-.19-.49-.28-.84-.28h-1.19v2.04h1.19Z"/>
    </g>
    <g>
      <path class="cls-4" d="M384.42,167.54v2.44h-.82v-5.96h2.17c.27,0,.53.04.75.13.23.09.42.21.58.37.16.16.28.35.37.56.09.21.13.45.13.7s-.04.49-.13.7c-.09.22-.21.4-.37.55-.16.15-.35.28-.58.37-.23.09-.48.13-.75.13h-1.34ZM385.61,166.81c.36,0,.64-.09.84-.27.2-.18.31-.43.31-.73s-.1-.57-.31-.76c-.21-.19-.49-.28-.84-.28h-1.19v2.04h1.19Z"/>
      <path class="cls-4" d="M388.23,167.91v-.69h2.28v.69h-2.28Z"/>
      <path class="cls-4" d="M394.64,167.93l-3.46,1.72v-.8l2.62-1.29-2.62-1.29v-.8l3.46,1.73v.71Z"/>
      <path class="cls-4" d="M398.27,170.11c-.39,0-.76-.07-1.11-.21-.36-.14-.67-.34-.94-.6-.27-.26-.49-.59-.66-.97-.17-.39-.25-.83-.25-1.33s.08-.94.25-1.32c.17-.38.39-.71.67-.97s.59-.46.95-.6c.36-.14.72-.21,1.09-.21.34,0,.66.04.94.13.29.09.54.22.76.38.22.16.41.36.57.6s.27.5.35.78l-.76.27c-.11-.45-.33-.8-.64-1.04-.32-.24-.72-.36-1.21-.36-.27,0-.53.05-.79.15-.25.1-.48.25-.68.44-.2.2-.36.44-.47.74-.12.29-.18.63-.18,1.02s.06.73.18,1.02c.12.29.28.54.47.74.2.2.43.35.68.45.25.1.52.15.79.15.25,0,.48-.04.69-.11s.39-.17.55-.3c.16-.13.29-.28.4-.45.11-.18.19-.37.26-.57l.73.27c-.08.28-.2.54-.35.77-.16.24-.35.44-.57.6-.22.17-.48.3-.76.4-.29.1-.6.14-.95.14Z"/>
    </g>
    <g>
      <path class="cls-4" d="M452.25,167.54v2.44h-.82v-5.96h2.17c.27,0,.53.04.75.13.23.09.42.21.58.37.16.16.28.35.37.56.09.21.13.45.13.7s-.04.49-.13.7c-.09.22-.21.4-.37.55-.16.15-.35.28-.58.37-.23.09-.48.13-.75.13h-1.34ZM453.44,166.81c.36,0,.64-.09.84-.27.2-.18.31-.43.31-.73s-.1-.57-.31-.76c-.21-.19-.49-.28-.84-.28h-1.19v2.04h1.19Z"/>
      <path class="cls-4" d="M456.07,167.91v-.69h2.28v.69h-2.28Z"/>
      <path class="cls-4" d="M462.48,167.93l-3.46,1.72v-.8l2.62-1.29-2.62-1.29v-.8l3.46,1.73v.71Z"/>
      <path class="cls-4" d="M466.11,170.11c-.39,0-.76-.07-1.11-.21-.36-.14-.67-.34-.94-.6-.27-.26-.49-.59-.66-.97-.17-.39-.25-.83-.25-1.33s.08-.94.25-1.32c.17-.38.39-.71.67-.97s.59-.46.95-.6c.36-.14.72-.21,1.09-.21.34,0,.66.04.94.13.29.09.54.22.76.38.22.16.41.36.57.6s.27.5.35.78l-.76.27c-.11-.45-.33-.8-.64-1.04-.32-.24-.72-.36-1.21-.36-.27,0-.53.05-.79.15-.25.1-.48.25-.68.44-.2.2-.36.44-.47.74-.12.29-.18.63-.18,1.02s.06.73.18,1.02c.12.29.28.54.47.74.2.2.43.35.68.45.25.1.52.15.79.15.25,0,.48-.04.69-.11s.39-.17.55-.3c.16-.13.29-.28.4-.45.11-.18.19-.37.26-.57l.73.27c-.08.28-.2.54-.35.77-.16.24-.35.44-.57.6-.22.17-.48.3-.76.4-.29.1-.6.14-.95.14Z"/>
    </g>
  </g>
  <g>
    <rect class="cls-6" x="178.99" y="133.06" width="32.18" height="14.3"/>
    <g>
      <path class="cls-4" d="M190.52,142.95c-.39,0-.76-.07-1.11-.21-.36-.14-.67-.34-.94-.6-.27-.26-.49-.59-.66-.97-.17-.39-.25-.83-.25-1.33s.08-.94.25-1.32c.17-.38.39-.71.67-.97s.59-.46.95-.6c.36-.14.72-.21,1.09-.21.34,0,.66.04.94.13.29.09.54.22.76.38.22.16.41.36.57.6s.27.5.35.78l-.76.27c-.11-.45-.33-.8-.64-1.04-.32-.24-.72-.36-1.21-.36-.27,0-.53.05-.79.15-.25.1-.48.25-.68.44-.2.2-.36.44-.47.74-.12.29-.18.63-.18,1.02s.06.73.18,1.02c.12.29.28.54.47.74.2.2.43.35.68.45.25.1.52.15.79.15.25,0,.48-.04.69-.11s.39-.17.55-.3c.16-.13.29-.28.4-.45.11-.18.19-.37.26-.57l.73.27c-.08.28-.2.54-.35.77-.16.24-.35.44-.57.6-.22.17-.48.3-.76.4-.29.1-.6.14-.95.14Z"/>
      <path class="cls-4" d="M197.67,140.77l-3.46,1.72v-.8l2.62-1.29-2.62-1.29v-.8l3.46,1.73v.71Z"/>
      <path class="cls-4" d="M199.54,140.38v2.44h-.82v-5.96h2.17c.27,0,.53.04.75.13.23.09.42.21.58.37.16.16.28.35.37.56.09.21.13.45.13.7s-.04.49-.13.7c-.09.22-.21.4-.37.55-.16.15-.35.28-.58.37-.23.09-.48.13-.75.13h-1.34ZM200.73,139.64c.36,0,.64-.09.84-.27.2-.18.31-.43.31-.73s-.1-.57-.31-.76c-.21-.19-.49-.28-.84-.28h-1.19v2.04h1.19Z"/>
    </g>
  </g>
  <g>
    <rect class="cls-6" x="504.58" y="78.73" width="32.18" height="14.3"/>
    <g>
      <path class="cls-4" d="M516.11,88.62c-.39,0-.76-.07-1.11-.21-.36-.14-.67-.34-.94-.6-.27-.26-.49-.59-.66-.97-.17-.39-.25-.83-.25-1.33s.08-.94.25-1.32c.17-.38.39-.71.67-.97s.59-.46.95-.6c.36-.14.72-.21,1.09-.21.34,0,.66.04.94.13.29.09.54.22.76.38.22.16.41.36.57.6s.27.5.35.78l-.76.27c-.11-.45-.33-.8-.64-1.04-.32-.24-.72-.36-1.21-.36-.27,0-.53.05-.79.15-.25.1-.48.25-.68.44-.2.2-.36.44-.47.74-.12.29-.18.63-.18,1.02s.06.73.18,1.02c.12.29.28.54.47.74.2.2.43.35.68.45.25.1.52.15.79.15.25,0,.48-.04.69-.11s.39-.17.55-.3c.16-.13.29-.28.4-.45.11-.18.19-.37.26-.57l.73.27c-.08.28-.2.54-.35.77-.16.24-.35.44-.57.6-.22.17-.48.3-.76.4-.29.1-.6.14-.95.14Z"/>
      <path class="cls-4" d="M523.25,86.45l-3.46,1.72v-.8l2.62-1.29-2.62-1.29v-.8l3.46,1.73v.71Z"/>
      <path class="cls-4" d="M525.12,86.06v2.44h-.82v-5.96h2.17c.27,0,.53.04.75.13.23.09.42.21.58.37.16.16.28.35.37.56.09.21.13.45.13.7s-.04.49-.13.7c-.09.22-.21.4-.37.55-.16.15-.35.28-.58.37-.23.09-.48.13-.75.13h-1.34ZM526.32,85.32c.36,0,.64-.09.84-.27.2-.18.31-.43.31-.73s-.1-.57-.31-.76c-.21-.19-.49-.28-.84-.28h-1.19v2.04h1.19Z"/>
    </g>
  </g>
</svg>