<?xml version="1.0" encoding="UTF-8"?>
<svg id="Layer_1" data-name="Layer 1" xmlns="http://www.w3.org/2000/svg" viewBox="0 0 489.81 186.25">
  <defs>
    <style>
      .cls-1 {
        fill: #fff;
      }

      .cls-2 {
        fill: #9ccffe;
      }

      .cls-3 {
        fill: #d90000;
      }

      .cls-4 {
        stroke-width: 16px;
      }

      .cls-4, .cls-5, .cls-6 {
        fill: none;
        stroke-miterlimit: 10;
      }

      .cls-4, .cls-6 {
        stroke: #d90000;
      }

      .cls-5 {
        stroke: #9ccffe;
      }

      .cls-7 {
        fill: #0082fc;
      }
    </style>
  </defs>
  <g>
    <g>
      <line class="cls-6" x1="334.61" y1="61.48" x2="156.02" y2="61.48"/>
      <polygon class="cls-3" points="157.48 56.49 148.84 61.48 157.48 66.46 157.48 56.49"/>
    </g>
    <g>
      <line class="cls-5" x1="148.84" y1="49.6" x2="327.44" y2="49.6"/>
      <polygon class="cls-2" points="325.98 54.59 334.61 49.6 325.98 44.61 325.98 54.59"/>
    </g>
  </g>
  <g>
    <rect class="cls-7" x="18.13" y="18.25" width="123.83" height="62.7" rx="24" ry="24"/>
    <g>
      <path class="cls-1" d="M67.77,52.6l2.93-8h.9l2.96,8h-.81l-.86-2.38h-3.46l-.85,2.38h-.81ZM69.67,49.54h2.98l-.79-2.17c-.1-.26-.2-.57-.32-.92-.11-.35-.25-.76-.39-1.23-.14.48-.27.89-.39,1.25-.12.35-.22.65-.31.91l-.78,2.17Z"/>
      <path class="cls-1" d="M76.61,44.59v8h-.73v-8h.73Z"/>
      <path class="cls-1" d="M78.86,45.48c-.15,0-.27-.05-.38-.15-.1-.1-.16-.22-.16-.36s.05-.26.16-.36c.1-.1.23-.15.38-.15s.27.05.38.15c.1.1.16.22.16.36s-.05.26-.16.36c-.1.1-.23.15-.38.15ZM78.49,52.6v-6h.73v6h-.73Z"/>
      <path class="cls-1" d="M83.4,52.71c-.52,0-.98-.13-1.38-.39s-.71-.62-.93-1.09-.34-1-.34-1.61.11-1.16.34-1.62.54-.83.93-1.09c.4-.26.86-.4,1.38-.4.4,0,.76.08,1.08.23s.58.35.78.58.35.47.43.72l-.69.21c-.05-.15-.14-.31-.27-.48-.13-.17-.31-.31-.54-.43-.22-.12-.49-.18-.79-.18-.41,0-.75.11-1.04.33-.28.22-.5.52-.65.89-.15.37-.23.78-.23,1.23s.08.85.23,1.22c.15.37.37.66.65.88.29.22.63.33,1.04.33.31,0,.58-.06.81-.18.23-.12.41-.27.55-.44s.23-.34.27-.49l.69.21c-.08.25-.22.49-.43.73-.21.24-.47.44-.79.59-.32.16-.69.23-1.09.23Z"/>
      <path class="cls-1" d="M89.61,52.72c-.56,0-1.05-.13-1.46-.39-.41-.26-.73-.63-.95-1.09-.22-.46-.34-1-.34-1.61s.11-1.14.33-1.61c.22-.47.53-.84.92-1.11.4-.27.85-.4,1.38-.4.44,0,.85.11,1.24.32s.71.54.95.98.37,1,.37,1.68v.32h-4.45c.01.68.2,1.23.56,1.64s.85.62,1.45.62c.42,0,.76-.1,1.03-.29s.46-.42.57-.69l.69.22c-.14.38-.4.71-.8.99-.4.28-.9.42-1.5.42ZM87.6,49.19h3.72c-.04-.58-.22-1.07-.54-1.45-.32-.38-.75-.57-1.28-.57-.36,0-.68.09-.96.27s-.5.43-.66.73c-.16.31-.26.64-.28,1.01Z"/>
    </g>
  </g>
  <g>
    <g>
      <path class="cls-3" d="M465.02,89.08h-123.52V25.92h123.52v63.16Z"/>
      <g>
        <path class="cls-1" d="M382.3,60.5l2.93-8h.9l2.96,8h-.81l-.86-2.38h-3.46l-.85,2.38h-.81ZM384.2,57.44h2.98l-.79-2.17c-.1-.26-.2-.57-.32-.92-.11-.35-.25-.76-.39-1.23-.14.48-.27.89-.39,1.25-.12.35-.22.65-.31.91l-.78,2.17Z"/>
        <path class="cls-1" d="M392.27,54.49v.63h-1.24v3.95c0,.6.27.88.81.82.05,0,.11,0,.19-.02.07-.01.14-.03.21-.04l.15.63c-.15.05-.34.08-.55.09-.48.03-.85-.08-1.12-.34s-.41-.62-.41-1.09v-4h-.89v-.63h.89v-1.43h.73v1.43h1.24Z"/>
        <path class="cls-1" d="M396,54.49v.63h-1.24v3.95c0,.6.27.88.81.82.05,0,.11,0,.19-.02.07-.01.14-.03.21-.04l.15.63c-.15.05-.34.08-.55.09-.48.03-.85-.08-1.12-.34s-.41-.62-.41-1.09v-4h-.89v-.63h.89v-1.43h.73v1.43h1.24Z"/>
        <path class="cls-1" d="M398.94,60.63c-.37,0-.7-.07-1-.21-.3-.14-.54-.35-.71-.62-.18-.27-.27-.6-.27-.99s.1-.71.3-.94.47-.41.82-.53.75-.21,1.2-.26c.5-.06.88-.12,1.16-.17.27-.05.41-.19.41-.42v-.14c0-.4-.12-.72-.37-.95-.24-.23-.59-.35-1.04-.35s-.78.09-1.04.28c-.27.19-.45.41-.56.66l-.7-.24c.13-.33.32-.59.56-.78.24-.2.51-.34.81-.43.3-.09.6-.14.92-.14.24,0,.48.03.73.09s.48.17.7.32.39.35.52.61.2.59.2.99v4.08h-.71v-.95h-.05c-.13.28-.35.53-.66.75-.31.22-.71.34-1.19.34ZM399.05,59.98c.37,0,.68-.08.95-.24s.48-.38.62-.65.22-.57.22-.89v-.85c-.07.06-.2.12-.39.17-.19.05-.39.09-.61.12s-.41.06-.56.08c-.5.06-.9.18-1.17.35s-.41.44-.41.79.13.64.39.83c.26.2.58.3.97.3Z"/>
        <path class="cls-1" d="M405.77,60.61c-.52,0-.98-.13-1.38-.39s-.71-.62-.93-1.09-.34-1-.34-1.61.11-1.16.34-1.62.54-.83.93-1.09c.4-.26.86-.4,1.38-.4.4,0,.76.08,1.08.23s.58.35.78.58.35.47.43.72l-.69.21c-.05-.15-.14-.31-.27-.48-.13-.17-.31-.31-.54-.43-.22-.12-.49-.18-.79-.18-.41,0-.75.11-1.04.33-.28.22-.5.52-.65.89-.15.37-.23.78-.23,1.23s.08.85.23,1.22c.15.37.37.66.65.88.29.22.63.33,1.04.33.31,0,.58-.06.81-.18.23-.12.41-.27.55-.44s.23-.34.27-.49l.69.21c-.08.25-.22.49-.43.73-.21.24-.47.44-.79.59-.32.16-.69.23-1.09.23Z"/>
        <path class="cls-1" d="M409.54,60.5v-8h.73v4.81h.09l2.78-2.81h.92l-2.55,2.58,2.71,3.42h-.93l-2.32-2.95-.68.64v2.3h-.73Z"/>
        <path class="cls-1" d="M417.48,60.62c-.56,0-1.05-.13-1.46-.39-.41-.26-.73-.63-.95-1.09-.22-.46-.34-1-.34-1.61s.11-1.14.33-1.61c.22-.47.53-.84.92-1.11.4-.27.85-.4,1.38-.4.44,0,.85.11,1.24.32s.71.54.95.98.37,1,.37,1.68v.32h-4.45c.01.68.2,1.23.56,1.64s.85.62,1.45.62c.42,0,.76-.1,1.03-.29s.46-.42.57-.69l.69.22c-.14.38-.4.71-.8.99-.4.28-.9.42-1.5.42ZM415.47,57.09h3.72c-.04-.58-.22-1.07-.54-1.45-.32-.38-.75-.57-1.28-.57-.36,0-.68.09-.96.27s-.5.43-.66.73c-.16.31-.26.64-.28,1.01Z"/>
        <path class="cls-1" d="M421.48,60.5v-6h.71v.93h.05c.12-.31.33-.55.63-.74.3-.18.63-.28,1.01-.28.06,0,.12,0,.19,0s.13,0,.18,0v.73s-.08-.01-.16-.02c-.08-.01-.17-.02-.27-.02-.47,0-.85.14-1.15.43-.3.29-.45.65-.45,1.1v3.85h-.73Z"/>
      </g>
    </g>
    <g>
      <line class="cls-4" x1="403.26" y1="144.06" x2="403.26" y2="124.63"/>
      <polygon class="cls-3" points="423.2 130.47 403.26 95.93 383.31 130.47 423.2 130.47"/>
    </g>
    <g>
      <path d="M355.68,169.71v-6h1.35v1h.06c.11-.35.3-.61.56-.8.27-.19.57-.28.92-.28.18,0,.35.01.51.04v1.28c-.06-.01-.15-.03-.28-.05-.13-.02-.26-.02-.38-.02-.39,0-.71.12-.97.36-.26.24-.38.55-.38.94v3.53h-1.4Z"/>
      <path d="M362.7,169.84c-.6,0-1.12-.13-1.56-.38-.43-.25-.77-.61-1-1.07-.23-.46-.35-1.01-.35-1.63s.12-1.16.35-1.62c.23-.47.56-.83.98-1.1.42-.26.92-.39,1.5-.39.49,0,.94.11,1.36.32.42.21.75.54,1.01.99.25.45.38,1.02.38,1.72v.44h-4.18c.02.53.17.94.45,1.22.28.28.65.42,1.09.42.31,0,.57-.07.79-.2.22-.13.38-.33.47-.58l1.28.26c-.14.48-.44.87-.89,1.17-.45.29-1.01.44-1.67.44ZM361.18,166.15h2.81c-.04-.43-.18-.77-.41-1.03-.23-.26-.55-.39-.97-.39s-.76.14-1.01.41c-.25.27-.39.61-.42,1.01Z"/>
      <path d="M369.21,169.84c-.58,0-1.09-.13-1.52-.39-.43-.26-.76-.62-1-1.08-.23-.46-.35-1-.35-1.62s.12-1.17.35-1.64c.23-.47.57-.83,1-1.09s.94-.39,1.52-.39c.67,0,1.24.17,1.7.5.46.33.76.8.89,1.38l-1.31.27c-.08-.31-.22-.56-.44-.75s-.5-.28-.83-.28c-.49,0-.85.19-1.09.56-.24.38-.36.85-.36,1.41,0,.37.05.7.16,1s.27.53.48.71c.21.17.49.26.81.26.34,0,.63-.1.85-.29.22-.19.37-.45.44-.78l1.31.27c-.13.6-.43,1.07-.89,1.41s-1.04.52-1.71.52Z"/>
      <path d="M375.62,169.84c-.58,0-1.09-.13-1.52-.39-.43-.26-.76-.62-1-1.08-.23-.46-.35-1-.35-1.62s.12-1.17.35-1.64c.23-.47.57-.83,1-1.09s.94-.39,1.52-.39,1.09.13,1.52.39.76.62,1,1.09c.24.47.35,1.01.35,1.64s-.12,1.16-.35,1.62c-.24.46-.57.83-1,1.08-.43.26-.94.39-1.52.39ZM375.62,168.7c.33,0,.6-.09.81-.26s.38-.41.48-.71.16-.63.16-.99-.05-.7-.16-1-.27-.53-.48-.71-.49-.26-.81-.26-.59.09-.81.26-.38.41-.48.71c-.11.3-.16.63-.16,1s.05.7.16.99c.11.3.27.53.48.71s.48.26.81.26Z"/>
      <path d="M379.76,169.71v-6h1.35v1h.06c.11-.35.3-.61.56-.8.27-.19.57-.28.92-.28.18,0,.35.01.51.04v1.28c-.06-.01-.15-.03-.28-.05-.13-.02-.26-.02-.38-.02-.39,0-.71.12-.97.36-.26.24-.38.55-.38.94v3.53h-1.4Z"/>
      <path d="M386.37,169.82c-.47,0-.9-.12-1.27-.36-.37-.24-.67-.59-.88-1.06s-.32-1.02-.32-1.68.11-1.23.33-1.69c.22-.46.51-.81.89-1.04.37-.24.79-.35,1.25-.35.36,0,.65.06.88.18.23.12.41.26.54.43.13.17.23.32.31.46h.06v-2.99h1.4v8h-1.37v-.95h-.09c-.08.14-.18.3-.32.46s-.32.31-.55.42c-.23.12-.51.17-.86.17ZM386.75,168.67c.45,0,.81-.18,1.05-.54.25-.36.37-.83.37-1.42s-.12-1.05-.37-1.4c-.25-.35-.6-.53-1.06-.53s-.83.18-1.07.55-.36.83-.36,1.39.12,1.03.36,1.4c.24.37.6.56,1.07.56Z"/>
      <path d="M393.74,169.84c-.6,0-1.12-.13-1.56-.38-.43-.25-.77-.61-1-1.07-.23-.46-.35-1.01-.35-1.63s.12-1.16.35-1.62c.23-.47.56-.83.98-1.1.42-.26.92-.39,1.5-.39.49,0,.94.11,1.36.32.42.21.75.54,1.01.99.25.45.38,1.02.38,1.72v.44h-4.18c.02.53.17.94.45,1.22.28.28.65.42,1.09.42.31,0,.57-.07.79-.2.22-.13.38-.33.47-.58l1.28.26c-.14.48-.44.87-.89,1.17-.45.29-1.01.44-1.67.44ZM392.22,166.15h2.81c-.04-.43-.18-.77-.41-1.03-.23-.26-.55-.39-.97-.39s-.76.14-1.01.41c-.25.27-.39.61-.42,1.01Z"/>
      <path d="M399.89,169.82c-.47,0-.9-.12-1.27-.36-.37-.24-.67-.59-.88-1.06s-.32-1.02-.32-1.68.11-1.23.33-1.69c.22-.46.51-.81.89-1.04.37-.24.79-.35,1.25-.35.36,0,.65.06.88.18.23.12.41.26.54.43.13.17.23.32.31.46h.06v-2.99h1.4v8h-1.37v-.95h-.09c-.08.14-.18.3-.32.46s-.32.31-.55.42c-.23.12-.51.17-.86.17ZM400.27,168.67c.45,0,.81-.18,1.05-.54.25-.36.37-.83.37-1.42s-.12-1.05-.37-1.4c-.25-.35-.6-.53-1.06-.53s-.83.18-1.07.55-.36.83-.36,1.39.12,1.03.36,1.4c.24.37.6.56,1.07.56Z"/>
      <path d="M407.31,171.96v-8.25h1.36v.99h.09c.07-.14.17-.29.3-.46.13-.17.31-.31.54-.43.23-.12.52-.18.88-.18.46,0,.88.12,1.25.35.37.24.67.58.89,1.04.22.46.33,1.02.33,1.69s-.11,1.22-.33,1.68c-.22.46-.51.81-.88,1.06-.37.24-.8.36-1.27.36-.34,0-.63-.06-.86-.17-.23-.12-.41-.26-.55-.42s-.24-.32-.31-.46h-.06v3.2h-1.4ZM410.1,168.67c.47,0,.82-.19,1.06-.56.24-.37.36-.84.36-1.4s-.12-1.02-.36-1.39c-.24-.37-.59-.55-1.07-.55s-.81.18-1.06.53c-.24.35-.37.82-.37,1.4s.12,1.06.37,1.42c.25.36.6.54,1.05.54Z"/>
      <path d="M415.9,169.84c-.38,0-.72-.07-1.03-.21-.3-.14-.54-.34-.72-.61s-.26-.6-.26-.99c0-.45.11-.8.33-1.05.22-.25.5-.43.85-.54.35-.11.72-.19,1.1-.23.52-.06.9-.11,1.13-.16.23-.05.35-.18.35-.38v-.03c0-.29-.09-.52-.27-.69-.18-.16-.44-.24-.78-.24s-.63.08-.84.23-.35.33-.42.53l-1.29-.26c.18-.53.49-.92.95-1.18.46-.26.99-.39,1.59-.39.28,0,.57.03.86.1.29.07.55.18.79.33.24.16.43.37.58.63.15.27.22.6.22,1v4.01h-1.34v-.83h-.05c-.13.26-.34.48-.63.67-.29.19-.67.28-1.13.28ZM416.26,168.8c.43,0,.77-.12,1.03-.37.26-.25.38-.54.38-.87v-.71c-.06.05-.18.09-.34.13-.16.04-.34.07-.52.1-.18.03-.34.05-.46.07-.31.04-.58.13-.79.26-.21.13-.31.33-.31.61,0,.26.09.45.28.59.19.13.43.2.73.2Z"/>
      <path d="M423.17,169.84c-.58,0-1.09-.13-1.52-.39-.43-.26-.76-.62-1-1.08-.23-.46-.35-1-.35-1.62s.12-1.17.35-1.64c.23-.47.57-.83,1-1.09s.94-.39,1.52-.39c.67,0,1.24.17,1.7.5.46.33.76.8.89,1.38l-1.31.27c-.08-.31-.22-.56-.44-.75s-.5-.28-.83-.28c-.49,0-.85.19-1.09.56-.24.38-.36.85-.36,1.41,0,.37.05.7.16,1s.27.53.48.71c.21.17.49.26.81.26.34,0,.63-.1.85-.29.22-.19.37-.45.44-.78l1.31.27c-.13.6-.43,1.07-.89,1.41s-1.04.52-1.71.52Z"/>
      <path d="M426.99,169.71v-8h1.4v4.42h.1l2.16-2.42h1.64l-2.33,2.59,2.47,3.41h-1.68l-1.85-2.57-.52.55v2.02h-1.4Z"/>
      <path d="M435.66,169.84c-.6,0-1.12-.13-1.56-.38-.43-.25-.77-.61-1-1.07-.23-.46-.35-1.01-.35-1.63s.12-1.16.35-1.62c.23-.47.56-.83.98-1.1.42-.26.92-.39,1.5-.39.49,0,.94.11,1.36.32.42.21.75.54,1.01.99.25.45.38,1.02.38,1.72v.44h-4.18c.02.53.17.94.45,1.22.28.28.65.42,1.09.42.31,0,.57-.07.79-.2.22-.13.38-.33.47-.58l1.28.26c-.14.48-.44.87-.89,1.17-.45.29-1.01.44-1.67.44ZM434.14,166.15h2.81c-.04-.43-.18-.77-.41-1.03-.23-.26-.55-.39-.97-.39s-.76.14-1.01.41c-.25.27-.39.61-.42,1.01Z"/>
      <path d="M442.35,163.71v1.1h-1.16v3.22c0,.22.05.38.14.48.09.1.24.15.46.15.06,0,.15,0,.25-.02.1-.02.19-.03.26-.05l.22,1.08c-.15.05-.31.08-.47.1-.16.02-.31.03-.46.03-.58,0-1.02-.14-1.33-.43s-.46-.69-.46-1.22v-3.34h-.85v-1.1h.85v-1.43h1.4v1.43h1.16Z"/>
      <path d="M445.78,169.84c-.69,0-1.26-.15-1.71-.44-.45-.3-.73-.72-.83-1.26l1.31-.25c.16.59.58.88,1.26.88.34,0,.62-.07.82-.21.2-.14.3-.31.3-.51,0-.34-.27-.57-.81-.69l-1.03-.22c-1.12-.24-1.69-.8-1.69-1.68,0-.37.1-.69.31-.97s.49-.48.85-.63c.36-.15.78-.23,1.26-.23.68,0,1.22.14,1.61.42.4.28.65.66.78,1.12l-1.25.25c-.07-.21-.2-.38-.38-.53s-.43-.22-.75-.22c-.29,0-.54.07-.74.2-.2.13-.3.3-.3.5,0,.18.07.32.2.43.13.11.35.2.66.27l1.02.21c1.12.24,1.68.78,1.68,1.62,0,.38-.11.71-.33,1-.22.29-.52.51-.91.68-.39.16-.84.24-1.34.24Z"/>
    </g>
  </g>
</svg>