<?xml version="1.0" encoding="UTF-8"?>
<svg id="Layer_1" data-name="Layer 1" xmlns="http://www.w3.org/2000/svg" viewBox="0 0 684 153.28">
  <defs>
    <style>
      .cls-1 {
        fill: #fff;
      }

      .cls-2 {
        fill: none;
        stroke: #000;
        stroke-linecap: square;
        stroke-miterlimit: 10;
      }

      .cls-3 {
        fill: #0082fc;
      }

      .cls-4 {
        fill: #80c1fe;
      }
    </style>
  </defs>
  <g>
    <rect class="cls-3" x="128.15" y="83.33" width="364.06" height="46.72"/>
    <rect class="cls-4" x="118.53" y="83.33" width="9.62" height="46.72"/>
  </g>
  <g>
    <path d="M514.3,50.28v-8.93h1.91v.66c.14-.21.37-.4.7-.57.33-.17.73-.25,1.2-.25s.89.08,1.26.25c.37.17.69.4.94.7.25.3.45.65.59,1.07.14.41.21.86.21,1.35s-.08.95-.23,1.37c-.15.42-.36.77-.64,1.07-.27.3-.6.53-.97.7s-.79.25-1.24.25c-.42,0-.78-.06-1.08-.19-.3-.13-.53-.28-.68-.46v2.98h-1.98ZM519.18,44.57c0-.27-.04-.5-.12-.7s-.19-.37-.33-.5-.3-.23-.47-.3c-.18-.07-.36-.1-.55-.1s-.38.03-.55.1c-.18.06-.33.16-.47.3-.13.13-.24.3-.32.5-.08.2-.12.43-.12.7s.04.5.12.7c.08.2.18.37.32.5.13.13.29.24.47.31s.36.1.55.1.37-.03.55-.1.34-.16.47-.3.25-.3.33-.51.12-.44.12-.71Z"/>
    <path d="M526.5,43.29c-.11-.03-.22-.04-.32-.05-.1,0-.2-.01-.3-.01-.2,0-.39.03-.57.09-.18.06-.34.16-.48.3s-.25.32-.33.55c-.08.23-.12.5-.12.82v2.82h-1.98v-6.46h1.91v.87c.09-.18.2-.33.33-.46.13-.12.28-.22.44-.29s.31-.12.47-.15.31-.05.44-.05c.2,0,.37.02.52.06v1.95Z"/>
    <path d="M527.46,39.37c0-.16.03-.31.09-.45.06-.14.14-.27.25-.37.1-.1.23-.19.36-.25s.29-.09.44-.09c.33,0,.61.11.83.34.23.23.34.5.34.82s-.11.59-.34.82c-.23.23-.5.34-.83.34-.16,0-.3-.03-.44-.09-.14-.06-.26-.14-.36-.25-.1-.1-.19-.23-.25-.37-.06-.14-.09-.29-.09-.45ZM527.63,47.81v-6.46h1.98v6.46h-1.98Z"/>
    <path d="M531.33,47.81v-6.46h1.88v.74c.08-.14.19-.27.33-.38s.29-.22.46-.3c.17-.08.35-.15.53-.19s.37-.06.54-.06c.47,0,.86.09,1.18.27.32.18.56.43.73.75.25-.36.54-.62.86-.78.32-.16.7-.23,1.14-.23.3,0,.6.05.89.14.29.09.55.24.77.44s.4.46.53.77c.13.31.2.69.2,1.13v4.19h-1.91v-3.74c0-.3-.08-.56-.25-.77-.16-.21-.42-.32-.78-.32s-.62.11-.81.34c-.18.23-.27.48-.27.77v3.73h-1.95v-3.74c0-.3-.08-.56-.25-.77-.17-.21-.43-.32-.79-.32s-.61.11-.79.34c-.18.23-.27.49-.27.78v3.72h-1.98Z"/>
    <path d="M542.66,46.03c0-.29.05-.54.15-.77.1-.23.24-.42.41-.58.17-.16.38-.29.6-.39s.48-.17.75-.21l1.52-.23c.17-.03.29-.08.36-.16s.1-.17.1-.29c0-.19-.08-.35-.24-.49s-.4-.21-.71-.21c-.35,0-.61.1-.8.29-.19.19-.29.41-.31.66l-1.72-.35c.02-.23.09-.48.21-.73.12-.25.3-.48.53-.69s.52-.38.86-.52c.35-.14.76-.21,1.24-.21.52,0,.96.07,1.33.2.36.13.66.32.89.55.23.23.39.5.49.8s.15.62.15.95v3.16c0,.25.01.47.03.66.02.19.04.3.04.34h-1.78s-.02-.1-.04-.21c-.02-.12-.03-.29-.03-.51-.17.28-.41.5-.71.66-.3.16-.67.25-1.11.25-.36,0-.67-.05-.95-.16s-.51-.25-.7-.44c-.19-.18-.34-.39-.44-.62s-.15-.48-.15-.74ZM545.37,46.56c.15,0,.29-.02.44-.06.14-.04.27-.11.38-.21.11-.1.2-.23.27-.4.07-.16.1-.37.1-.62v-.29l-1.22.19c-.21.03-.38.11-.52.21-.14.11-.21.28-.21.5,0,.17.06.33.18.46.12.13.31.2.59.2Z"/>
    <path d="M554.25,43.29c-.11-.03-.22-.04-.32-.05-.1,0-.2-.01-.3-.01-.2,0-.39.03-.57.09-.18.06-.34.16-.48.3s-.25.32-.33.55c-.08.23-.12.5-.12.82v2.82h-1.98v-6.46h1.91v.87c.09-.18.2-.33.33-.46.13-.12.28-.22.44-.29s.31-.12.47-.15.31-.05.44-.05c.2,0,.37.02.52.06v1.95Z"/>
    <path d="M556.22,50.29l1.47-3.35-2.72-5.59h2.21l1.57,3.46,1.43-3.46h2.09l-3.98,8.94h-2.08Z"/>
    <path d="M569.32,42.49c-.25,0-.49.05-.71.14-.23.09-.43.23-.6.41s-.32.41-.42.68c-.1.27-.16.59-.16.96s.05.67.16.94c.1.27.24.5.42.69.17.19.38.33.61.42.23.1.48.14.73.14.29,0,.54-.04.75-.13.2-.09.37-.2.51-.33.13-.13.24-.27.32-.42.08-.15.13-.29.17-.41l1.08.47c-.08.23-.19.45-.34.68-.15.23-.34.44-.57.63-.23.19-.51.34-.83.46s-.68.18-1.09.18c-.46,0-.88-.08-1.27-.25s-.72-.4-.99-.7c-.28-.3-.5-.65-.66-1.05-.16-.4-.24-.84-.24-1.32s.08-.93.24-1.34c.16-.41.38-.76.66-1.05.28-.29.62-.52,1-.68.38-.16.8-.25,1.24-.25.42,0,.78.06,1.1.18s.59.27.82.46c.23.19.41.41.55.64s.24.47.31.71l-1.11.47c-.04-.16-.1-.31-.18-.47-.08-.16-.18-.3-.32-.42-.13-.13-.3-.23-.49-.31-.19-.08-.42-.12-.69-.12Z"/>
    <path d="M574.8,47.81h-1.22v-9.41h1.22v3.89c.23-.33.51-.56.85-.7.34-.14.69-.21,1.05-.21s.7.06.98.19c.28.13.52.3.7.52.19.22.33.48.42.79s.14.63.14.98v3.96h-1.22v-3.76c0-.22-.02-.42-.07-.61-.05-.19-.13-.36-.25-.5s-.27-.26-.46-.34c-.19-.08-.41-.12-.68-.12-.23,0-.44.04-.62.13-.18.09-.33.2-.45.35-.12.15-.21.32-.28.52-.06.2-.1.42-.11.65v3.68Z"/>
    <path d="M580.5,46.13c0-.28.05-.53.14-.75.1-.22.23-.41.4-.57.17-.16.37-.28.6-.38.23-.1.49-.16.75-.21l1.69-.25c.19-.03.32-.08.38-.17.07-.09.1-.19.1-.3,0-.3-.11-.57-.32-.79-.21-.22-.56-.33-1.03-.33-.43,0-.77.12-1,.36-.23.24-.37.54-.42.9l-1.17-.27c.03-.29.12-.57.27-.82.14-.25.33-.47.55-.64s.49-.32.79-.42.62-.15.96-.15c.47,0,.87.06,1.2.19.33.13.6.29.81.5s.36.45.46.73.14.57.14.87v3.13c0,.28,0,.5.03.66s.04.29.05.36h-1.2c-.02-.08-.03-.18-.05-.31s-.02-.31-.02-.53c-.07.11-.16.23-.27.35-.11.12-.25.23-.42.34-.17.1-.36.19-.58.25-.22.06-.47.1-.75.1-.32,0-.61-.05-.86-.16-.26-.1-.47-.24-.66-.41-.18-.17-.32-.37-.42-.59s-.15-.46-.15-.71ZM582.76,46.97c.25,0,.49-.03.71-.1.22-.06.41-.17.57-.31.16-.14.29-.33.38-.57.09-.24.14-.53.14-.86v-.29l-1.91.29c-.26.04-.48.14-.65.29-.17.15-.26.37-.26.64,0,.23.09.44.27.63s.43.28.74.28Z"/>
    <path d="M588.91,47.81h-1.22v-6.25h1.2v.9c.22-.39.51-.67.86-.83s.7-.25,1.07-.25.7.06.98.19c.28.13.52.3.7.52.19.22.33.48.42.79s.14.63.14.98v3.96h-1.22v-3.76c0-.22-.02-.42-.07-.61-.05-.19-.13-.36-.25-.5s-.27-.26-.46-.34c-.19-.08-.41-.12-.68-.12-.24,0-.46.05-.64.14-.18.09-.33.21-.46.37-.12.16-.21.34-.27.55s-.09.43-.09.66v3.61Z"/>
    <path d="M596.21,47.81h-1.22v-6.25h1.2v.9c.22-.39.51-.67.86-.83s.7-.25,1.07-.25.7.06.98.19c.28.13.52.3.7.52.19.22.33.48.42.79s.14.63.14.98v3.96h-1.22v-3.76c0-.22-.02-.42-.07-.61-.05-.19-.13-.36-.25-.5s-.27-.26-.46-.34c-.19-.08-.41-.12-.68-.12-.24,0-.46.05-.64.14-.18.09-.33.21-.46.37-.12.16-.21.34-.27.55s-.09.43-.09.66v3.61Z"/>
    <path d="M607.75,46.03c-.09.28-.21.54-.38.77s-.37.45-.61.62-.51.32-.81.42c-.3.1-.64.16-1,.16-.42,0-.81-.07-1.2-.22-.38-.15-.72-.36-1.01-.65-.29-.29-.52-.64-.69-1.05s-.25-.89-.25-1.42c0-.49.08-.94.25-1.35.16-.4.38-.75.66-1.04.27-.29.59-.52.96-.68.36-.16.74-.24,1.13-.24.48,0,.9.08,1.28.24.38.16.69.38.94.67.25.29.44.63.58,1.03.13.4.2.85.2,1.33,0,.08,0,.15,0,.22,0,.07-.01.13-.02.17h-4.71c0,.28.06.53.16.77.09.23.23.44.4.6s.37.3.6.39.47.14.73.14c.51,0,.9-.12,1.17-.36s.46-.54.58-.9l1.05.36ZM606.51,44.04c-.02-.45-.17-.83-.46-1.14-.29-.31-.71-.46-1.26-.46-.26,0-.49.05-.7.14-.2.09-.38.21-.52.36-.14.15-.26.32-.34.51-.09.19-.13.39-.14.58h3.42Z"/>
    <path d="M609.34,47.81v-9.41h1.22v9.41h-1.22Z"/>
    <path d="M515.45,109.27c.02.23.11.43.27.6s.41.27.75.27c.25,0,.44-.06.57-.17.12-.11.19-.24.19-.39,0-.12-.05-.23-.14-.32-.09-.09-.26-.16-.5-.21l-.74-.17c-.35-.08-.64-.18-.88-.31-.24-.13-.44-.28-.6-.46s-.27-.36-.34-.57-.1-.42-.1-.65c0-.29.06-.57.18-.83.12-.26.29-.49.51-.68.22-.2.48-.35.79-.46s.64-.17,1-.17c.47,0,.86.06,1.18.19.32.13.58.29.79.49.2.2.35.4.45.62.1.22.15.43.17.62l-1.64.3c-.03-.22-.11-.4-.25-.56-.14-.16-.37-.23-.67-.23-.19,0-.36.05-.49.15-.14.1-.21.24-.21.41,0,.14.05.25.14.33.1.08.22.13.36.16l.86.17c.68.14,1.18.39,1.5.76.33.37.49.79.49,1.27,0,.28-.05.55-.16.81-.1.26-.26.49-.48.7s-.49.37-.81.49c-.32.13-.7.19-1.13.19-.51,0-.94-.07-1.28-.21-.34-.14-.62-.32-.83-.53s-.36-.43-.46-.66c-.1-.23-.15-.44-.16-.62l1.68-.3Z"/>
    <path d="M526.24,109.55c-.08.28-.2.54-.36.79-.16.25-.37.47-.62.66-.25.19-.54.33-.88.44-.33.11-.7.16-1.11.16-.44,0-.87-.08-1.27-.23-.41-.16-.77-.38-1.08-.68-.31-.29-.56-.65-.74-1.08-.18-.42-.27-.91-.27-1.46s.09-.99.27-1.41c.18-.42.42-.78.71-1.07s.64-.52,1.03-.68c.39-.16.79-.24,1.21-.24,1,0,1.8.29,2.37.87.58.58.87,1.4.87,2.44,0,.14,0,.27-.01.4s-.02.2-.03.21h-4.5c0,.18.05.35.14.5.08.15.19.28.32.4.13.11.29.2.46.26.17.06.36.09.55.09.36,0,.65-.08.85-.23.2-.16.35-.36.45-.61l1.65.47ZM524.44,107.4c0-.12-.04-.25-.08-.38-.05-.13-.12-.25-.23-.35-.1-.1-.24-.19-.4-.26-.16-.07-.36-.1-.59-.1-.21,0-.39.04-.55.1-.16.07-.29.16-.4.26-.11.1-.19.22-.25.35-.06.13-.09.26-.1.38h2.59Z"/>
    <path d="M530.6,106.57c-.21,0-.4.03-.58.1s-.33.17-.47.31c-.13.14-.24.31-.32.51-.08.2-.12.43-.12.69s.04.49.12.68.19.36.33.5.29.24.47.31.38.1.58.1c.38,0,.68-.1.9-.3s.37-.42.44-.66l1.74.53c-.07.29-.19.56-.36.83-.17.27-.38.51-.64.72s-.56.38-.91.51-.74.19-1.17.19c-.49,0-.94-.08-1.36-.25-.42-.17-.79-.4-1.1-.71-.31-.3-.56-.66-.74-1.08-.18-.42-.27-.88-.27-1.38s.09-.96.27-1.38c.18-.42.42-.78.73-1.09s.67-.54,1.08-.71c.41-.17.86-.25,1.33-.25.44,0,.84.06,1.2.19.36.13.66.29.92.5.26.21.47.45.64.72.16.27.28.55.35.84l-1.77.53c-.04-.12-.09-.24-.16-.36s-.16-.22-.26-.31c-.1-.09-.23-.16-.38-.21-.15-.05-.32-.08-.51-.08Z"/>
    <path d="M537.88,104.75c.49,0,.94.08,1.35.25.42.17.78.41,1.09.71s.55.66.73,1.08c.18.42.27.88.27,1.38s-.09.96-.27,1.38c-.18.42-.42.78-.73,1.09-.31.3-.67.54-1.09.71-.42.17-.87.25-1.35.25s-.94-.08-1.35-.25-.78-.4-1.09-.71c-.31-.3-.55-.67-.73-1.09-.18-.42-.27-.88-.27-1.38s.09-.96.27-1.38c.18-.42.42-.78.73-1.08s.67-.54,1.09-.71.87-.25,1.35-.25ZM537.88,109.78c.19,0,.37-.03.55-.1.17-.06.33-.16.46-.3.13-.13.24-.3.33-.5.08-.2.12-.44.12-.71s-.04-.5-.12-.71c-.08-.2-.19-.37-.33-.5-.13-.13-.29-.23-.46-.29-.17-.07-.36-.1-.55-.1s-.36.03-.54.1c-.18.06-.33.16-.47.29-.13.13-.24.3-.32.5-.08.2-.12.44-.12.71s.04.5.12.71c.08.2.19.37.32.51.13.13.29.23.47.3.18.06.36.1.54.1Z"/>
    <path d="M544.57,111.41h-1.98v-6.46h1.91v.74c.09-.16.2-.29.34-.4.14-.11.29-.21.45-.28s.33-.13.51-.17c.18-.04.35-.06.51-.06.41,0,.76.07,1.05.2.29.13.54.32.74.55.19.23.34.51.43.82s.14.65.14,1v4.06h-1.98v-3.72c0-.32-.08-.59-.25-.8s-.44-.32-.8-.32c-.33,0-.59.11-.78.32s-.29.48-.29.81v3.71Z"/>
    <path d="M556.68,110.25c0,.29,0,.54.02.75.01.2.02.34.03.41h-1.9s-.02-.13-.03-.25c-.01-.12-.02-.25-.02-.38-.15.23-.38.41-.68.55-.31.14-.66.21-1.05.21-.46,0-.88-.08-1.27-.25-.39-.17-.73-.4-1.01-.7-.29-.3-.51-.66-.67-1.07-.16-.42-.24-.87-.24-1.37s.08-.92.23-1.33c.16-.41.37-.77.65-1.07.28-.3.61-.54.99-.71.38-.17.8-.25,1.26-.25.28,0,.52.02.71.07s.37.1.51.17.25.14.33.21c.08.08.14.15.19.21v-3.46h1.95v8.25ZM551.85,108.17c0,.27.04.5.12.7.08.2.18.37.32.5.13.13.29.24.47.31.18.07.36.1.55.1s.38-.03.55-.1.33-.17.47-.31c.13-.13.24-.3.32-.5.08-.2.12-.43.12-.7s-.04-.5-.12-.7c-.08-.2-.18-.37-.32-.5-.13-.13-.29-.23-.47-.3-.18-.07-.36-.1-.55-.1s-.38.03-.55.1c-.18.06-.33.16-.47.3-.13.13-.24.3-.32.5s-.12.43-.12.7Z"/>
    <path d="M558.07,109.63c0-.29.05-.54.15-.77.1-.23.24-.42.41-.58.17-.16.38-.29.6-.39s.48-.17.75-.21l1.52-.23c.17-.03.29-.08.36-.16s.1-.17.1-.29c0-.19-.08-.35-.24-.49s-.4-.21-.71-.21c-.35,0-.61.1-.8.29-.19.19-.29.41-.31.66l-1.72-.35c.02-.23.09-.48.21-.73.12-.25.3-.48.53-.69s.52-.38.86-.52c.35-.14.76-.21,1.24-.21.52,0,.96.07,1.33.2.36.13.66.32.89.55.23.23.39.5.49.8s.15.62.15.95v3.16c0,.25.01.47.03.66.02.19.04.3.04.34h-1.78s-.02-.1-.04-.21c-.02-.12-.03-.29-.03-.51-.17.28-.41.5-.71.66-.3.16-.67.25-1.11.25-.36,0-.67-.05-.95-.16s-.51-.25-.7-.44c-.19-.18-.34-.39-.44-.62s-.15-.48-.15-.74ZM560.79,110.16c.15,0,.29-.02.44-.06.14-.04.27-.11.38-.21.11-.1.2-.23.27-.4.07-.16.1-.37.1-.62v-.29l-1.22.19c-.21.03-.38.11-.52.21-.14.11-.21.28-.21.5,0,.17.06.33.18.46.12.13.31.2.59.2Z"/>
    <path d="M569.67,106.9c-.11-.03-.22-.04-.32-.05-.1,0-.2-.01-.3-.01-.2,0-.39.03-.57.09-.18.06-.34.16-.48.3s-.25.32-.33.55c-.08.23-.12.5-.12.82v2.82h-1.98v-6.46h1.91v.87c.09-.18.2-.33.33-.46.13-.12.28-.22.44-.29s.31-.12.47-.15.31-.05.44-.05c.2,0,.37.02.52.06v1.95Z"/>
    <path d="M571.63,113.89l1.47-3.35-2.72-5.59h2.21l1.57,3.46,1.43-3.46h2.09l-3.98,8.94h-2.08Z"/>
    <path d="M584.74,106.09c-.25,0-.49.05-.71.14-.23.09-.43.23-.6.41s-.32.41-.42.68c-.1.27-.16.59-.16.96s.05.67.16.94c.1.27.24.5.42.69.17.19.38.33.61.42.23.1.48.14.73.14.29,0,.54-.04.75-.13.2-.09.37-.2.51-.33.13-.13.24-.27.32-.42.08-.15.13-.29.17-.41l1.08.47c-.08.23-.19.45-.34.68-.15.23-.34.44-.57.63-.23.19-.51.34-.83.46s-.68.18-1.09.18c-.46,0-.88-.08-1.27-.25s-.72-.4-.99-.7c-.28-.3-.5-.65-.66-1.05-.16-.4-.24-.84-.24-1.32s.08-.93.24-1.34c.16-.41.38-.76.66-1.05.28-.29.62-.52,1-.68.38-.16.8-.25,1.24-.25.42,0,.78.06,1.1.18s.59.27.82.46c.23.19.41.41.55.64s.24.47.31.71l-1.11.47c-.04-.16-.1-.31-.18-.47-.08-.16-.18-.3-.32-.42-.13-.13-.3-.23-.49-.31-.19-.08-.42-.12-.69-.12Z"/>
    <path d="M590.22,111.41h-1.22v-9.41h1.22v3.89c.23-.33.51-.56.85-.7.34-.14.69-.21,1.05-.21s.7.06.98.19c.28.13.52.3.7.52.19.22.33.48.42.79s.14.63.14.98v3.96h-1.22v-3.76c0-.22-.02-.42-.07-.61-.05-.19-.13-.36-.25-.5s-.27-.26-.46-.34c-.19-.08-.41-.12-.68-.12-.23,0-.44.04-.62.13-.18.09-.33.2-.45.35-.12.15-.21.32-.28.52-.06.2-.1.42-.11.65v3.68Z"/>
    <path d="M595.92,109.73c0-.28.05-.53.14-.75.1-.22.23-.41.4-.57.17-.16.37-.28.6-.38.23-.1.49-.16.75-.21l1.69-.25c.19-.03.32-.08.38-.17.07-.09.1-.19.1-.3,0-.3-.11-.57-.32-.79-.21-.22-.56-.33-1.03-.33-.43,0-.77.12-1,.36-.23.24-.37.54-.42.9l-1.17-.27c.03-.29.12-.57.27-.82.14-.25.33-.47.55-.64s.49-.32.79-.42.62-.15.96-.15c.47,0,.87.06,1.2.19.33.13.6.29.81.5s.36.45.46.73.14.57.14.87v3.13c0,.28,0,.5.03.66s.04.29.05.36h-1.2c-.02-.08-.03-.18-.05-.31s-.02-.31-.02-.53c-.07.11-.16.23-.27.35-.11.12-.25.23-.42.34-.17.1-.36.19-.58.25-.22.06-.47.1-.75.1-.32,0-.61-.05-.86-.16-.26-.1-.47-.24-.66-.41-.18-.17-.32-.37-.42-.59s-.15-.46-.15-.71ZM598.18,110.57c.25,0,.49-.03.71-.1.22-.06.41-.17.57-.31.16-.14.29-.33.38-.57.09-.24.14-.53.14-.86v-.29l-1.91.29c-.26.04-.48.14-.65.29-.17.15-.26.37-.26.64,0,.23.09.44.27.63s.43.28.74.28Z"/>
    <path d="M604.33,111.41h-1.22v-6.25h1.2v.9c.22-.39.51-.67.86-.83s.7-.25,1.07-.25.7.06.98.19c.28.13.52.3.7.52.19.22.33.48.42.79s.14.63.14.98v3.96h-1.22v-3.76c0-.22-.02-.42-.07-.61-.05-.19-.13-.36-.25-.5s-.27-.26-.46-.34c-.19-.08-.41-.12-.68-.12-.24,0-.46.05-.64.14-.18.09-.33.21-.46.37-.12.16-.21.34-.27.55s-.09.43-.09.66v3.61Z"/>
    <path d="M611.63,111.41h-1.22v-6.25h1.2v.9c.22-.39.51-.67.86-.83s.7-.25,1.07-.25.7.06.98.19c.28.13.52.3.7.52.19.22.33.48.42.79s.14.63.14.98v3.96h-1.22v-3.76c0-.22-.02-.42-.07-.61-.05-.19-.13-.36-.25-.5s-.27-.26-.46-.34c-.19-.08-.41-.12-.68-.12-.24,0-.46.05-.64.14-.18.09-.33.21-.46.37-.12.16-.21.34-.27.55s-.09.43-.09.66v3.61Z"/>
    <path d="M623.16,109.63c-.09.28-.21.54-.38.77s-.37.45-.61.62-.51.32-.81.42c-.3.1-.64.16-1,.16-.42,0-.81-.07-1.2-.22-.38-.15-.72-.36-1.01-.65-.29-.29-.52-.64-.69-1.05s-.25-.89-.25-1.42c0-.49.08-.94.25-1.35.16-.4.38-.75.66-1.04.27-.29.59-.52.96-.68.36-.16.74-.24,1.13-.24.48,0,.9.08,1.28.24.38.16.69.38.94.67.25.29.44.63.58,1.03.13.4.2.85.2,1.33,0,.08,0,.15,0,.22,0,.07-.01.13-.02.17h-4.71c0,.28.06.53.16.77.09.23.23.44.4.6s.37.3.6.39.47.14.73.14c.51,0,.9-.12,1.17-.36s.46-.54.58-.9l1.05.36ZM621.93,107.64c-.02-.45-.17-.83-.46-1.14-.29-.31-.71-.46-1.26-.46-.26,0-.49.05-.7.14-.2.09-.38.21-.52.36-.14.15-.26.32-.34.51-.09.19-.13.39-.14.58h3.42Z"/>
    <path d="M624.76,111.41v-9.41h1.22v9.41h-1.22Z"/>
  </g>
  <rect class="cls-4" x="95.36" y="23.23" width="9.62" height="46.72"/>
  <rect class="cls-4" x="71.99" y="23.23" width="9.62" height="46.72"/>
  <rect class="cls-4" x="48.63" y="23.23" width="9.62" height="46.72"/>
  <g>
    <line class="cls-2" x1="148.29" y1="39.8" x2="148.29" y2="73.74"/>
    <polygon points="143.3 72.28 148.29 80.92 153.28 72.28 143.3 72.28"/>
  </g>
  <line class="cls-2" x1="148.29" y1="39.8" x2="113.32" y2="39.8"/>
  <g>
    <path class="cls-1" d="M282.33,105.26c0-.06-.01-.13-.01-.19v-.17c0-.38.07-.75.21-1.1.14-.35.33-.65.6-.92.26-.26.58-.47.96-.63.38-.15.82-.23,1.3-.23s.9.07,1.27.22.69.34.95.59c.25.25.45.54.58.87.13.33.2.68.2,1.05,0,.58-.15,1.11-.45,1.57s-.71.85-1.22,1.17l-1.75,1.12c-.26.16-.48.34-.68.54-.2.2-.33.43-.4.71h4.56v1.25h-6.21c0-.36.05-.71.13-1.03.08-.32.2-.62.37-.92s.39-.57.65-.83.58-.51.96-.76l1.48-.96c.42-.26.73-.55.92-.86.2-.31.29-.64.29-.99,0-.2-.03-.4-.1-.58s-.17-.35-.31-.5-.31-.26-.52-.35c-.21-.09-.46-.13-.74-.13s-.55.05-.76.14c-.21.1-.39.23-.53.39s-.25.36-.31.58c-.07.22-.1.46-.1.71,0,.06,0,.13,0,.19,0,.06.01.13.02.21l-1.34-.16Z"/>
    <path class="cls-1" d="M290.75,108.31c.05.55.25.99.62,1.33.37.34.83.51,1.38.51.26,0,.51-.04.75-.12s.43-.2.6-.36c.17-.16.3-.35.4-.57.1-.22.15-.47.15-.74,0-.3-.05-.57-.16-.8-.1-.23-.24-.42-.42-.58-.17-.15-.38-.26-.61-.34-.23-.08-.48-.12-.73-.12-.32,0-.62.06-.9.17-.28.11-.52.27-.71.47-.24-.09-.46-.18-.66-.27-.21-.09-.42-.17-.65-.25l1.15-4.41h4.68v1.23h-3.79l-.66,2.55c.2-.22.46-.38.79-.49.33-.11.67-.16,1.01-.16.44,0,.84.07,1.21.21.36.14.68.33.95.58.27.25.48.56.63.92.15.36.23.78.23,1.23,0,.42-.08.81-.23,1.18s-.38.68-.66.96c-.28.27-.62.49-1.03.65-.4.16-.85.24-1.34.24s-.91-.07-1.29-.21-.73-.33-1.01-.57-.52-.52-.68-.84c-.17-.32-.27-.65-.29-1l1.29-.38Z"/>
    <path class="cls-1" d="M298.25,108.31c.05.55.25.99.62,1.33.37.34.83.51,1.38.51.26,0,.51-.04.75-.12s.43-.2.6-.36c.17-.16.3-.35.4-.57.1-.22.15-.47.15-.74,0-.3-.05-.57-.16-.8-.1-.23-.24-.42-.42-.58-.17-.15-.38-.26-.61-.34-.23-.08-.48-.12-.73-.12-.32,0-.62.06-.9.17-.28.11-.52.27-.71.47-.24-.09-.46-.18-.66-.27-.21-.09-.42-.17-.65-.25l1.15-4.41h4.68v1.23h-3.79l-.66,2.55c.2-.22.46-.38.79-.49.33-.11.67-.16,1.01-.16.44,0,.84.07,1.21.21.36.14.68.33.95.58.27.25.48.56.63.92.15.36.23.78.23,1.23,0,.42-.08.81-.23,1.18s-.38.68-.66.96c-.28.27-.62.49-1.03.65-.4.16-.85.24-1.34.24s-.91-.07-1.29-.21-.73-.33-1.01-.57-.52-.52-.68-.84c-.17-.32-.27-.65-.29-1l1.29-.38Z"/>
  </g>
</svg>