<?xml version="1.0" encoding="UTF-8"?>
<svg id="Layer_1" data-name="Layer 1" xmlns="http://www.w3.org/2000/svg" viewBox="0 0 680.78 205">
  <defs>
    <style>
      .cls-1 {
        fill: #80c1fe;
        stroke: #0082fc;
        stroke-linecap: round;
        stroke-miterlimit: 6;
        stroke-width: .75px;
      }

      .cls-2 {
        fill: #fff;
      }

      .cls-3 {
        fill: #0082fc;
        stroke: #000;
        stroke-miterlimit: 10;
      }
    </style>
  </defs>
  <rect class="cls-3" x="10.78" y="9.93" width="659.22" height="185.14"/>
  <path class="cls-1" d="M659.94,187.6h-330.85V17.4h330.85v170.21Z"/>
  <path class="cls-1" d="M21.78,187.6h299.03V17.4H21.78v170.21Z"/>
  <g>
    <path class="cls-2" d="M443.63,97.88l4.27-11.64h1.31l4.3,11.64h-1.17l-1.26-3.46h-5.04l-1.23,3.46h-1.18ZM446.4,93.43h4.33l-1.15-3.16c-.14-.39-.29-.83-.46-1.34-.17-.5-.36-1.1-.57-1.8-.21.7-.4,1.3-.57,1.81-.17.51-.32.95-.45,1.32l-1.13,3.16Z"/>
    <path class="cls-2" d="M455.33,97.88v-8.73h1.03v1.36h.08c.17-.45.48-.81.91-1.07s.92-.4,1.46-.4c.08,0,.18,0,.28,0s.19,0,.26.01v1.06s-.11-.02-.23-.03-.25-.02-.39-.02c-.68,0-1.24.21-1.68.63s-.66.95-.66,1.6v5.6h-1.06Z"/>
    <path class="cls-2" d="M464.91,98.07c-.53,0-.97-.09-1.32-.29s-.64-.43-.86-.71-.39-.56-.5-.83h-.12v1.63h-1.03v-11.64h1.06v4.59h.09c.11-.27.28-.54.49-.81s.5-.51.85-.7.8-.29,1.34-.29c.71,0,1.33.19,1.87.57s.96.9,1.26,1.58.45,1.46.45,2.36-.15,1.7-.45,2.38-.72,1.21-1.26,1.59-1.17.57-1.88.57ZM464.77,97.11c.57,0,1.05-.16,1.45-.48s.7-.75.9-1.29.31-1.14.31-1.82-.1-1.27-.3-1.8-.5-.96-.9-1.27-.88-.47-1.45-.47-1.04.15-1.43.45-.69.72-.9,1.25-.31,1.14-.31,1.84.1,1.31.31,1.85.51.96.9,1.27.87.46,1.43.46Z"/>
    <path class="cls-2" d="M471.2,87.53c-.21,0-.4-.07-.55-.22-.15-.15-.23-.32-.23-.52s.08-.38.23-.52c.15-.15.33-.22.55-.22s.4.07.55.22c.15.15.23.32.23.52s-.08.38-.23.52c-.15.15-.33.22-.55.22ZM470.66,97.88v-8.73h1.06v8.73h-1.06Z"/>
    <path class="cls-2" d="M477.47,89.15v.92h-1.8v5.75c0,.88.39,1.27,1.17,1.2.07,0,.16,0,.27-.03.11-.02.21-.04.3-.06l.22.91c-.22.07-.49.11-.8.12-.69.05-1.24-.12-1.63-.5-.4-.38-.59-.91-.59-1.58v-5.82h-1.3v-.92h1.3v-2.08h1.06v2.08h1.8Z"/>
    <path class="cls-2" d="M479.32,97.88v-8.73h1.03v1.36h.08c.17-.45.48-.81.91-1.07s.92-.4,1.46-.4c.08,0,.18,0,.28,0s.19,0,.26.01v1.06s-.11-.02-.23-.03-.25-.02-.39-.02c-.68,0-1.24.21-1.68.63s-.66.95-.66,1.6v5.6h-1.06Z"/>
    <path class="cls-2" d="M487.36,98.08c-.53,0-1.01-.1-1.45-.31-.44-.21-.78-.5-1.04-.89s-.39-.87-.39-1.44.14-1.03.43-1.37c.29-.34.68-.6,1.19-.77.5-.17,1.09-.3,1.74-.38.72-.09,1.29-.17,1.68-.24s.6-.28.6-.61v-.2c0-.58-.18-1.04-.53-1.38-.35-.34-.86-.5-1.52-.5s-1.13.14-1.52.41c-.39.27-.66.59-.81.96l-1.02-.34c.19-.47.46-.85.81-1.14.35-.29.74-.5,1.18-.63.43-.13.88-.2,1.33-.2.34,0,.7.05,1.06.14.36.09.7.25,1.02.46s.56.51.76.89c.19.38.29.86.29,1.43v5.93h-1.04v-1.38h-.08c-.19.4-.51.76-.96,1.09-.45.33-1.03.49-1.74.49ZM487.51,97.13c.53,0,.99-.12,1.38-.36s.69-.55.91-.95c.21-.39.32-.83.32-1.3v-1.24c-.1.09-.29.18-.56.25-.28.07-.57.13-.89.17-.32.04-.59.08-.82.11-.73.09-1.3.26-1.7.51-.4.25-.6.64-.6,1.15s.19.93.56,1.21.84.43,1.41.43Z"/>
    <path class="cls-2" d="M493.78,97.88v-8.73h1.03v1.36h.08c.17-.45.48-.81.91-1.07s.92-.4,1.46-.4c.08,0,.18,0,.28,0s.19,0,.26.01v1.06s-.11-.02-.23-.03-.25-.02-.39-.02c-.68,0-1.24.21-1.68.63s-.66.95-.66,1.6v5.6h-1.06Z"/>
    <path class="cls-2" d="M499.67,101.03l.29-.92.12.04c.46.15.87.13,1.21-.04s.62-.57.85-1.2l.34-.95-3.35-8.8h1.16l2.02,5.49c.15.39.28.78.39,1.17s.23.77.34,1.15c.11-.38.23-.76.35-1.15s.25-.78.39-1.17l2.02-5.49h1.15l-3.88,10.16c-.49,1.27-1.29,1.91-2.39,1.91-.21,0-.41-.02-.59-.05s-.32-.08-.42-.12Z"/>
    <path class="cls-2" d="M516.97,97.88h-3.44v-11.64h3.64c1.11,0,2.06.23,2.85.7s1.4,1.13,1.82,1.99.63,1.9.63,3.1c0,1.83-.48,3.27-1.44,4.3s-2.32,1.55-4.07,1.55ZM514.64,96.89h2.27c1.48,0,2.6-.43,3.36-1.29s1.13-2.05,1.13-3.57-.37-2.67-1.1-3.52-1.8-1.28-3.2-1.28h-2.46v9.66Z"/>
    <path class="cls-2" d="M527.11,98.08c-.53,0-1.01-.1-1.45-.31s-.78-.5-1.04-.89-.39-.87-.39-1.44.14-1.03.43-1.37.68-.6,1.19-.77,1.09-.3,1.74-.38c.72-.09,1.29-.17,1.68-.24s.6-.28.6-.61v-.2c0-.58-.18-1.04-.53-1.38s-.86-.5-1.52-.5-1.13.14-1.52.41-.66.59-.81.96l-1.02-.34c.19-.47.46-.85.81-1.14s.74-.5,1.18-.63.88-.2,1.33-.2c.34,0,.7.05,1.06.14s.7.25,1.02.46.57.51.76.89.29.86.29,1.43v5.93h-1.04v-1.38h-.08c-.19.4-.51.76-.96,1.09s-1.03.49-1.74.49ZM527.27,97.13c.53,0,.99-.12,1.38-.36s.69-.55.91-.95.32-.83.32-1.3v-1.24c-.1.09-.29.18-.56.25s-.57.13-.89.17-.59.08-.82.11c-.73.09-1.3.26-1.7.51s-.6.64-.6,1.15.19.93.56,1.21.84.43,1.41.43Z"/>
    <path class="cls-2" d="M536.49,89.15v.92h-1.8v5.75c0,.88.39,1.27,1.17,1.2.07,0,.16,0,.27-.03s.21-.04.3-.06l.22.91c-.22.07-.49.11-.8.12-.69.05-1.24-.12-1.63-.5s-.59-.91-.59-1.58v-5.82h-1.3v-.92h1.3v-2.08h1.06v2.08h1.8Z"/>
    <path class="cls-2" d="M540.68,98.08c-.53,0-1.01-.1-1.45-.31s-.78-.5-1.04-.89-.39-.87-.39-1.44.14-1.03.43-1.37.68-.6,1.19-.77,1.09-.3,1.74-.38c.72-.09,1.29-.17,1.68-.24s.6-.28.6-.61v-.2c0-.58-.18-1.04-.53-1.38s-.86-.5-1.52-.5-1.13.14-1.52.41-.66.59-.81.96l-1.02-.34c.19-.47.46-.85.81-1.14s.74-.5,1.18-.63.88-.2,1.33-.2c.34,0,.7.05,1.06.14s.7.25,1.02.46.57.51.76.89.29.86.29,1.43v5.93h-1.04v-1.38h-.08c-.19.4-.51.76-.96,1.09s-1.03.49-1.74.49ZM540.83,97.13c.53,0,.99-.12,1.38-.36s.69-.55.91-.95.32-.83.32-1.3v-1.24c-.1.09-.29.18-.56.25s-.57.13-.89.17-.59.08-.82.11c-.73.09-1.3.26-1.7.51s-.6.64-.6,1.15.19.93.56,1.21.84.43,1.41.43Z"/>
    <path class="cls-2" d="M465.8,112.23c0-.84.08-1.7.24-2.6s.38-1.76.66-2.61.62-1.61,1-2.29h1.04c-.59,1.21-1.05,2.48-1.38,3.79s-.49,2.55-.49,3.71c0,1.1.15,2.22.46,3.36s.77,2.36,1.41,3.68h-1.04c-1.27-2.32-1.91-4.66-1.91-7.03Z"/>
    <path class="cls-2" d="M474.55,117.08l-4.3-11.64h1.16l2.77,7.61c.13.37.29.81.46,1.33s.36,1.11.57,1.8c.21-.7.4-1.3.57-1.81.17-.51.32-.95.45-1.32l2.72-7.61h1.18l-4.27,11.64h-1.3Z"/>
    <path class="cls-2" d="M483.59,117.28c-.53,0-1.01-.1-1.45-.31-.44-.21-.78-.5-1.04-.89s-.39-.87-.39-1.44.14-1.03.43-1.37c.29-.34.68-.6,1.19-.77.5-.17,1.09-.3,1.74-.38.72-.09,1.29-.17,1.68-.24s.6-.28.6-.61v-.2c0-.58-.18-1.04-.53-1.38-.35-.34-.86-.5-1.52-.5s-1.13.14-1.52.41c-.39.27-.66.59-.81.96l-1.02-.34c.19-.47.46-.85.81-1.14.35-.29.74-.5,1.18-.63.43-.13.88-.2,1.33-.2.34,0,.7.05,1.06.14.36.09.7.25,1.02.46s.56.51.76.89c.19.38.29.86.29,1.43v5.93h-1.04v-1.38h-.08c-.19.4-.51.76-.96,1.09-.45.33-1.03.49-1.74.49ZM483.74,116.33c.53,0,.99-.12,1.38-.36s.69-.55.91-.95c.21-.39.32-.83.32-1.3v-1.24c-.1.09-.29.18-.56.25-.28.07-.57.13-.89.17-.32.04-.59.08-.82.11-.73.09-1.3.26-1.7.51-.4.25-.6.64-.6,1.15s.19.93.56,1.21.84.43,1.41.43Z"/>
    <path class="cls-2" d="M490.01,117.08v-8.73h1.03v1.36h.08c.17-.45.47-.81.91-1.07.43-.27.92-.4,1.46-.4.08,0,.18,0,.28,0,.1,0,.19,0,.26.01v1.06s-.12-.02-.23-.03c-.12-.02-.25-.02-.39-.02-.68,0-1.24.21-1.68.63-.44.42-.66.95-.66,1.6v5.6h-1.06Z"/>
    <path class="cls-2" d="M496.3,106.73c-.21,0-.4-.07-.55-.22-.15-.15-.23-.32-.23-.52s.08-.38.23-.52c.15-.15.33-.22.55-.22s.4.07.55.22c.15.15.23.32.23.52s-.08.38-.23.52c-.15.15-.33.22-.55.22ZM495.76,117.08v-8.73h1.06v8.73h-1.06Z"/>
    <path class="cls-2" d="M502.95,117.27c-.82,0-1.52-.19-2.12-.57s-1.06-.91-1.38-1.59-.49-1.46-.49-2.34.16-1.66.48-2.34.77-1.22,1.34-1.61,1.24-.59,2-.59c.64,0,1.24.16,1.8.47s1.03.79,1.38,1.43.53,1.46.53,2.45v.46h-6.48c.02,1,.29,1.79.82,2.39s1.23.89,2.11.89c.61,0,1.11-.14,1.5-.42s.67-.61.83-1l1.01.32c-.2.55-.58,1.03-1.16,1.44s-1.3.62-2.18.62ZM500.02,112.12h5.41c-.06-.85-.32-1.55-.78-2.11s-1.09-.83-1.87-.83c-.53,0-.99.13-1.39.4s-.72.62-.96,1.07-.38.94-.41,1.47Z"/>
    <path class="cls-2" d="M511.34,117.27c-.86,0-1.57-.19-2.13-.58-.56-.39-.92-.95-1.07-1.68l1.02-.24c.12.53.37.92.75,1.18.37.26.85.39,1.43.39.66,0,1.19-.15,1.59-.45s.6-.67.6-1.11c0-.71-.47-1.18-1.42-1.41l-1.42-.34c-1.5-.36-2.24-1.13-2.24-2.32,0-.49.13-.92.39-1.29.26-.37.62-.66,1.09-.87s.99-.31,1.57-.31c.82,0,1.47.19,1.96.56.48.37.82.87,1.03,1.5l-.97.25c-.14-.4-.36-.73-.68-1-.32-.26-.76-.39-1.33-.39s-1.05.14-1.43.42-.56.63-.56,1.07c0,.72.52,1.2,1.56,1.45l1.34.32c1.47.35,2.21,1.12,2.21,2.3,0,.5-.14.94-.41,1.33-.28.39-.66.69-1.15.91s-1.06.33-1.7.33Z"/>
    <path class="cls-2" d="M515.78,119.26c.65-1.34,1.13-2.58,1.43-3.71s.45-2.25.45-3.32c0-1.17-.16-2.41-.49-3.71s-.79-2.57-1.38-3.79h1.05c.38.69.71,1.45,1,2.3s.51,1.71.67,2.61.24,1.76.24,2.59c0,1.18-.16,2.37-.49,3.56s-.8,2.35-1.41,3.48h-1.05Z"/>
  </g>
  <g>
    <path class="cls-2" d="M116.8,97.88v-11.64h3.8c1.23,0,2.17.33,2.8.98.64.66.95,1.5.95,2.52,0,.78-.19,1.45-.55,2.01-.37.57-.91.97-1.63,1.21l2.67,4.91h-1.28l-2.52-4.7c-.14.01-.28.02-.43.02h-2.7v4.68h-1.11ZM117.91,92.2h2.65c.9,0,1.58-.22,2.02-.66.45-.44.67-1.04.67-1.79s-.22-1.37-.67-1.83c-.45-.46-1.12-.69-2.03-.69h-2.64v4.97Z"/>
    <path class="cls-2" d="M130.15,98.07c-.82,0-1.52-.19-2.12-.57-.6-.38-1.06-.91-1.38-1.59-.33-.68-.49-1.46-.49-2.34s.16-1.66.48-2.34.77-1.22,1.34-1.61c.58-.39,1.24-.59,2-.59.64,0,1.24.16,1.8.47.57.31,1.03.79,1.38,1.43.35.64.53,1.46.53,2.45v.46h-6.48c.02,1,.29,1.79.82,2.39.53.6,1.23.89,2.11.89.61,0,1.11-.14,1.5-.42s.67-.61.83-1l1.01.32c-.2.55-.58,1.03-1.16,1.44-.58.41-1.3.62-2.18.62ZM127.23,92.92h5.41c-.06-.85-.32-1.55-.78-2.11-.46-.55-1.09-.83-1.87-.83-.53,0-.99.13-1.39.4-.4.27-.72.62-.96,1.07-.24.45-.38.94-.41,1.47Z"/>
    <path class="cls-2" d="M138.54,98.07c-.86,0-1.57-.19-2.13-.58-.56-.39-.92-.95-1.07-1.68l1.02-.24c.12.53.37.92.75,1.18.37.26.85.39,1.43.39.66,0,1.19-.15,1.59-.45s.6-.67.6-1.11c0-.71-.47-1.18-1.42-1.41l-1.42-.34c-1.5-.36-2.24-1.13-2.24-2.32,0-.49.13-.92.39-1.29.26-.37.62-.66,1.09-.87s.99-.31,1.57-.31c.82,0,1.48.19,1.96.56.48.37.82.87,1.03,1.5l-.97.25c-.14-.4-.36-.73-.68-1-.32-.26-.76-.39-1.33-.39s-1.05.14-1.43.42-.56.63-.56,1.07c0,.72.52,1.2,1.56,1.45l1.34.32c1.47.35,2.21,1.12,2.21,2.3,0,.5-.14.94-.41,1.33-.28.39-.66.69-1.15.91s-1.06.33-1.7.33Z"/>
    <path class="cls-2" d="M147.33,98.07c-.76,0-1.43-.19-2.01-.57s-1.03-.91-1.36-1.59-.49-1.46-.49-2.34.16-1.68.49-2.36.78-1.21,1.36-1.59,1.25-.57,2.01-.57,1.42.19,2,.57c.58.38,1.04.91,1.36,1.59s.49,1.47.49,2.36-.16,1.67-.49,2.34-.78,1.21-1.36,1.59c-.58.38-1.25.57-2,.57ZM147.33,97.11c.6,0,1.11-.16,1.52-.48s.73-.75.95-1.29.33-1.13.33-1.77-.11-1.25-.33-1.79-.54-.97-.95-1.3c-.42-.33-.92-.49-1.52-.49s-1.1.16-1.51.49-.73.76-.95,1.3-.33,1.13-.33,1.79.11,1.24.32,1.77c.22.54.53.97.95,1.29.42.32.92.48,1.52.48Z"/>
    <path class="cls-2" d="M154.46,86.24v11.64h-1.06v-11.64h1.06Z"/>
    <path class="cls-2" d="M159.59,97.88l-3.34-8.73h1.16l2.02,5.49c.15.39.28.77.39,1.16.11.39.23.77.35,1.15.11-.38.23-.76.34-1.15.11-.39.24-.77.39-1.16l2.02-5.49h1.15l-3.34,8.73h-1.14Z"/>
    <path class="cls-2" d="M168.04,98.08c-.53,0-1.01-.1-1.45-.31-.44-.21-.78-.5-1.04-.89s-.39-.87-.39-1.44.14-1.03.43-1.37c.29-.34.68-.6,1.19-.77.5-.17,1.09-.3,1.74-.38.72-.09,1.29-.17,1.68-.24s.6-.28.6-.61v-.2c0-.58-.18-1.04-.53-1.38-.35-.34-.86-.5-1.52-.5s-1.13.14-1.52.41c-.39.27-.66.59-.81.96l-1.02-.34c.19-.47.46-.85.81-1.14.35-.29.74-.5,1.18-.63.43-.13.88-.2,1.33-.2.34,0,.7.05,1.06.14.36.09.7.25,1.02.46s.56.51.76.89c.19.38.29.86.29,1.43v5.93h-1.04v-1.38h-.08c-.19.4-.51.76-.96,1.09-.45.33-1.03.49-1.74.49ZM168.2,97.13c.53,0,.99-.12,1.38-.36s.69-.55.91-.95c.21-.39.32-.83.32-1.3v-1.24c-.1.09-.29.18-.56.25-.28.07-.57.13-.89.17-.32.04-.59.08-.82.11-.73.09-1.3.26-1.7.51-.4.25-.6.64-.6,1.15s.19.93.56,1.21.84.43,1.41.43Z"/>
    <path class="cls-2" d="M178.3,98.07c-.53,0-.97-.09-1.32-.29-.35-.19-.64-.43-.86-.71s-.39-.56-.5-.83h-.12v1.63h-1.03v-11.64h1.06v4.59h.09c.11-.27.28-.54.49-.81.21-.28.5-.51.85-.7.35-.19.8-.29,1.34-.29.71,0,1.33.19,1.87.57s.96.9,1.26,1.58c.3.67.45,1.46.45,2.36s-.15,1.7-.45,2.38c-.3.68-.72,1.21-1.26,1.59s-1.17.57-1.88.57ZM178.15,97.11c.57,0,1.05-.16,1.45-.48.4-.32.7-.75.9-1.29.21-.54.31-1.14.31-1.82s-.1-1.27-.3-1.8-.5-.96-.9-1.27c-.4-.31-.88-.47-1.45-.47s-1.04.15-1.43.45c-.39.3-.69.72-.9,1.25-.21.53-.31,1.14-.31,1.84s.1,1.31.31,1.85c.21.54.51.96.9,1.27.39.31.87.46,1.43.46Z"/>
    <path class="cls-2" d="M185.17,86.24v11.64h-1.06v-11.64h1.06Z"/>
    <path class="cls-2" d="M191.36,98.07c-.82,0-1.52-.19-2.12-.57-.6-.38-1.06-.91-1.38-1.59-.33-.68-.49-1.46-.49-2.34s.16-1.66.48-2.34.77-1.22,1.34-1.61c.58-.39,1.24-.59,2-.59.64,0,1.24.16,1.8.47.57.31,1.03.79,1.38,1.43.35.64.53,1.46.53,2.45v.46h-6.48c.02,1,.29,1.79.82,2.39.53.6,1.23.89,2.11.89.61,0,1.11-.14,1.5-.42s.67-.61.83-1l1.01.32c-.2.55-.58,1.03-1.16,1.44-.58.41-1.3.62-2.18.62ZM188.44,92.92h5.41c-.06-.85-.32-1.55-.78-2.11-.46-.55-1.09-.83-1.87-.83-.53,0-.99.13-1.39.4-.4.27-.72.62-.96,1.07-.24.45-.38.94-.41,1.47Z"/>
    <path class="cls-2" d="M201.11,87.23v-.99h8.48v.99h-3.68v10.65h-1.11v-10.65h-3.7Z"/>
    <path class="cls-2" d="M212.59,98.08c-.53,0-1.01-.1-1.45-.31-.44-.21-.78-.5-1.04-.89s-.39-.87-.39-1.44.14-1.03.43-1.37c.29-.34.68-.6,1.19-.77.5-.17,1.09-.3,1.74-.38.72-.09,1.29-.17,1.68-.24s.6-.28.6-.61v-.2c0-.58-.18-1.04-.53-1.38-.35-.34-.86-.5-1.52-.5s-1.13.14-1.52.41c-.39.27-.66.59-.81.96l-1.02-.34c.19-.47.46-.85.81-1.14.35-.29.74-.5,1.18-.63.43-.13.88-.2,1.33-.2.34,0,.7.05,1.06.14.36.09.7.25,1.02.46s.56.51.76.89c.19.38.29.86.29,1.43v5.93h-1.04v-1.38h-.08c-.19.4-.51.76-.96,1.09-.45.33-1.03.49-1.74.49ZM212.74,97.13c.53,0,.99-.12,1.38-.36s.69-.55.91-.95c.21-.39.32-.83.32-1.3v-1.24c-.1.09-.29.18-.56.25-.28.07-.57.13-.89.17-.32.04-.59.08-.82.11-.73.09-1.3.26-1.7.51-.4.25-.6.64-.6,1.15s.19.93.56,1.21.84.43,1.41.43Z"/>
    <path class="cls-2" d="M222.36,101.33c-.89,0-1.62-.17-2.19-.5s-.98-.76-1.23-1.27l.88-.53c.19.34.48.65.87.94s.95.43,1.68.43c.77,0,1.39-.19,1.86-.57s.7-.98.7-1.78v-1.96h-.1c-.11.27-.28.54-.5.8s-.51.48-.86.65-.79.25-1.31.25c-.69,0-1.31-.17-1.85-.51s-.96-.83-1.27-1.47-.46-1.41-.46-2.3.15-1.67.45-2.34.72-1.19,1.27-1.57,1.17-.56,1.88-.56c.53,0,.97.09,1.33.29s.64.42.86.7.38.55.5.81h.11v-1.68h1.03v8.95c0,.74-.16,1.35-.47,1.83s-.75.83-1.29,1.07-1.17.35-1.86.35ZM222.3,96.83c.83,0,1.48-.3,1.95-.89s.7-1.42.7-2.46c0-.67-.1-1.27-.31-1.8s-.5-.94-.89-1.24-.87-.45-1.44-.45-1.06.16-1.46.46-.7.73-.9,1.25-.3,1.11-.3,1.77c0,1,.23,1.8.69,2.43s1.12.93,1.97.93Z"/>
    <path class="cls-2" d="M136.98,112.23c0-.84.08-1.7.24-2.6.16-.89.38-1.76.66-2.61.28-.85.62-1.61,1-2.29h1.04c-.59,1.21-1.05,2.48-1.38,3.79-.33,1.31-.49,2.55-.49,3.71,0,1.1.15,2.22.46,3.36s.77,2.36,1.41,3.68h-1.04c-1.27-2.32-1.91-4.66-1.91-7.03Z"/>
    <path class="cls-2" d="M145.3,117.24c-.49,0-.96-.1-1.43-.29s-.88-.5-1.25-.93c-.37-.43-.66-.99-.88-1.7-.22-.7-.32-1.56-.32-2.58,0-1.26.15-2.38.45-3.35s.74-1.73,1.34-2.29c.6-.55,1.35-.83,2.24-.83.94,0,1.72.29,2.33.86.61.57.98,1.31,1.09,2.22h-1.09c-.1-.6-.35-1.1-.75-1.49-.39-.4-.92-.59-1.58-.59-.95,0-1.68.44-2.2,1.32-.52.88-.78,2.13-.78,3.74h.08c.27-.52.67-.93,1.18-1.24.52-.31,1.09-.46,1.72-.46s1.24.16,1.77.49c.54.33.96.77,1.29,1.34s.48,1.22.48,1.95-.15,1.34-.46,1.91-.74,1.04-1.29,1.39c-.56.35-1.21.52-1.95.52ZM145.3,116.24c.5,0,.95-.13,1.34-.38.4-.25.71-.59.94-1.02.23-.43.34-.91.34-1.43s-.11-.99-.34-1.42c-.23-.42-.54-.76-.94-1.01-.4-.25-.84-.37-1.34-.37s-.97.13-1.38.4c-.41.27-.73.62-.95,1.05-.22.43-.32.91-.28,1.41.04.53.18,1,.41,1.42s.54.75.92.98c.38.24.81.36,1.28.36Z"/>
    <path class="cls-2" d="M160.61,117.24c-.98,0-1.86-.25-2.62-.73-.76-.49-1.36-1.18-1.79-2.07-.43-.89-.65-1.95-.65-3.16s.22-2.28.65-3.17c.43-.9,1.03-1.59,1.79-2.08.76-.49,1.63-.73,2.62-.73s1.85.25,2.61.73c.76.49,1.36,1.18,1.79,2.08s.64,1.95.64,3.17-.21,2.27-.64,3.16-1.02,1.58-1.79,2.07c-.76.49-1.63.73-2.61.73ZM160.61,116.2c.75,0,1.43-.2,2.03-.59.6-.39,1.07-.95,1.41-1.69.35-.74.52-1.62.52-2.65s-.17-1.92-.52-2.66c-.35-.74-.82-1.3-1.41-1.7-.6-.39-1.27-.59-2.03-.59s-1.44.2-2.04.59c-.6.39-1.07.96-1.42,1.7-.35.74-.52,1.63-.52,2.66s.17,1.91.52,2.64c.35.74.82,1.3,1.42,1.7.6.39,1.28.59,2.04.59Z"/>
    <path class="cls-2" d="M171.4,117.24c-.76,0-1.43-.19-2.01-.57s-1.03-.91-1.36-1.58-.49-1.45-.49-2.34.16-1.68.49-2.36.78-1.21,1.36-1.59,1.25-.57,2.01-.57c.59,0,1.11.11,1.57.34.46.22.84.5,1.14.84.3.34.51.69.62,1.05l-1.01.31c-.07-.22-.2-.45-.39-.7s-.46-.45-.78-.62c-.33-.17-.71-.26-1.15-.26-.59,0-1.1.16-1.51.48s-.73.75-.95,1.29-.33,1.14-.33,1.79.11,1.24.33,1.77.54.96.95,1.29.92.48,1.51.48c.45,0,.84-.09,1.17-.27s.59-.39.8-.64.34-.49.4-.71l1,.31c-.11.36-.32.71-.62,1.06s-.69.64-1.16.86c-.47.23-1,.34-1.59.34Z"/>
    <path class="cls-2" d="M180.01,108.35v.92h-1.8v5.75c0,.88.39,1.27,1.17,1.2.07,0,.16,0,.27-.03.11-.02.21-.04.3-.06l.22.91c-.22.07-.49.11-.8.12-.69.05-1.24-.12-1.63-.5-.4-.38-.59-.91-.59-1.58v-5.82h-1.3v-.92h1.3v-2.08h1.06v2.08h1.8Z"/>
    <path class="cls-2" d="M185.04,117.27c-.82,0-1.52-.19-2.12-.57-.6-.38-1.06-.91-1.38-1.59-.33-.68-.49-1.46-.49-2.34s.16-1.66.48-2.34.77-1.22,1.34-1.61c.58-.39,1.24-.59,2-.59.64,0,1.24.16,1.8.47.57.31,1.03.79,1.38,1.43.35.64.53,1.46.53,2.45v.46h-6.48c.02,1,.29,1.79.82,2.39.53.6,1.23.89,2.11.89.61,0,1.11-.14,1.5-.42s.67-.61.83-1l1.01.32c-.2.55-.58,1.03-1.16,1.44-.58.41-1.3.62-2.18.62ZM182.12,112.12h5.41c-.06-.85-.32-1.55-.78-2.11-.46-.55-1.09-.83-1.87-.83-.53,0-.99.13-1.39.4-.4.27-.72.62-.96,1.07-.24.45-.38.94-.41,1.47Z"/>
    <path class="cls-2" d="M193.65,108.35v.92h-1.8v5.75c0,.88.39,1.27,1.17,1.2.07,0,.16,0,.27-.03.11-.02.21-.04.3-.06l.22.91c-.22.07-.49.11-.8.12-.69.05-1.24-.12-1.63-.5-.4-.38-.59-.91-.59-1.58v-5.82h-1.3v-.92h1.3v-2.08h1.06v2.08h1.8Z"/>
    <path class="cls-2" d="M198.21,117.27c-.86,0-1.57-.19-2.13-.58-.56-.39-.92-.95-1.07-1.68l1.02-.24c.12.53.37.92.75,1.18.37.26.85.39,1.43.39.66,0,1.19-.15,1.59-.45s.6-.67.6-1.11c0-.71-.47-1.18-1.42-1.41l-1.42-.34c-1.5-.36-2.24-1.13-2.24-2.32,0-.49.13-.92.39-1.29.26-.37.62-.66,1.09-.87s.99-.31,1.57-.31c.82,0,1.48.19,1.96.56.48.37.82.87,1.03,1.5l-.97.25c-.14-.4-.36-.73-.68-1-.32-.26-.76-.39-1.33-.39s-1.05.14-1.43.42-.56.63-.56,1.07c0,.72.52,1.2,1.56,1.45l1.34.32c1.47.35,2.21,1.12,2.21,2.3,0,.5-.14.94-.41,1.33-.28.39-.66.69-1.15.91s-1.06.33-1.7.33Z"/>
    <path class="cls-2" d="M202.66,119.26c.65-1.34,1.13-2.58,1.43-3.71.3-1.14.45-2.25.45-3.32,0-1.17-.16-2.41-.49-3.71-.33-1.31-.79-2.57-1.38-3.79h1.05c.38.69.71,1.45,1,2.3.29.84.51,1.71.67,2.61.16.9.24,1.76.24,2.59,0,1.18-.16,2.37-.49,3.56s-.8,2.35-1.41,3.48h-1.05Z"/>
  </g>
</svg>