<?xml version="1.0" encoding="UTF-8"?>
<svg id="Layer_1" data-name="Layer 1" xmlns="http://www.w3.org/2000/svg" viewBox="0 0 684 134.91">
  <defs>
    <style>
      .cls-1 {
        fill: #fff;
      }

      .cls-1, .cls-2 {
        stroke: #646569;
        stroke-miterlimit: 10;
      }

      .cls-2 {
        fill: none;
      }
    </style>
  </defs>
  <line class="cls-2" x1="139.03" y1="57.45" x2="577.89" y2="57.45"/>
  <rect class="cls-1" x="22.62" y="23.58" width="144" height="67.73"/>
  <rect class="cls-1" x="519.19" y="23.58" width="144.18" height="67.73" transform="translate(1182.56 114.88) rotate(180)"/>
  <rect class="cls-1" x="187.43" y="23.36" width="144" height="67.73"/>
  <rect class="cls-1" x="354.49" y="23.36" width="146.23" height="67.73"/>
  <g>
    <path d="M34.18,52.21v4.03h-2.5v-11.2h4.22c.57,0,1.09.09,1.56.27.47.18.87.43,1.22.74.34.32.61.7.79,1.14.18.44.28.92.28,1.44s-.09,1.01-.28,1.45c-.18.44-.45.82-.79,1.14s-.75.56-1.22.73c-.47.17-.99.26-1.56.26h-1.72ZM35.65,50.07c.47,0,.86-.13,1.15-.38.29-.25.44-.6.44-1.04s-.15-.81-.44-1.06c-.29-.25-.68-.38-1.15-.38h-1.45v2.86h1.45Z"/>
    <path d="M43.61,56.24h-2.4v-11.44h2.4v4.09c.24-.24.55-.42.92-.54.37-.12.73-.17,1.08-.17.52,0,.96.08,1.33.25.37.16.68.39.92.67.24.28.42.62.54,1,.12.38.17.78.17,1.22v4.93h-2.4v-4.52c0-.39-.1-.71-.31-.97-.21-.26-.53-.39-.97-.39-.38,0-.68.12-.92.36s-.36.54-.38.91v4.61Z"/>
    <path d="M51.16,59.26l1.78-4.07-3.3-6.79h2.68l1.91,4.2,1.74-4.2h2.54l-4.83,10.87h-2.53Z"/>
    <path d="M61.12,53.65c.02.27.13.52.32.73.2.22.5.32.91.32.31,0,.53-.07.69-.21.15-.14.23-.29.23-.47,0-.15-.05-.28-.17-.39-.11-.11-.31-.2-.61-.26l-.9-.21c-.42-.09-.78-.22-1.07-.38-.29-.16-.54-.34-.73-.55-.19-.21-.33-.44-.41-.69-.08-.25-.13-.52-.13-.79,0-.36.07-.7.22-1.01.15-.32.36-.59.62-.83.27-.24.59-.42.96-.56.37-.14.77-.21,1.22-.21.57,0,1.05.08,1.44.24.39.16.71.36.96.59.25.24.43.49.54.76.12.27.18.52.21.75l-1.99.36c-.03-.26-.13-.49-.31-.68s-.45-.28-.81-.28c-.23,0-.43.06-.6.18-.17.12-.25.29-.25.5,0,.17.06.3.17.39.12.09.26.16.44.19l1.04.21c.82.17,1.43.48,1.82.92.39.45.59.96.59,1.54,0,.34-.06.66-.19.98-.13.32-.32.6-.58.85-.26.25-.59.45-.98.6-.39.15-.85.23-1.37.23-.62,0-1.14-.09-1.56-.26-.42-.17-.75-.39-1-.64-.25-.25-.44-.52-.56-.81-.12-.28-.19-.54-.2-.76l2.04-.36Z"/>
    <path d="M66.89,45.99c0-.19.04-.37.11-.54.07-.17.17-.32.3-.45.13-.13.27-.23.44-.3.17-.07.35-.11.54-.11.4,0,.74.14,1.01.41.27.27.41.61.41,1s-.14.72-.41,1c-.27.27-.61.41-1.01.41-.19,0-.37-.04-.54-.11-.17-.07-.32-.17-.44-.3-.13-.13-.23-.28-.3-.45-.07-.17-.11-.36-.11-.54ZM67.1,56.24v-7.85h2.4v7.85h-2.4Z"/>
    <path d="M75.21,50.37c-.25,0-.49.04-.7.13-.22.08-.41.21-.57.38s-.29.37-.39.62-.14.52-.14.84.05.59.15.83c.1.24.23.44.4.61.16.17.35.29.58.38.22.08.46.13.71.13.46,0,.83-.12,1.1-.36s.44-.51.53-.81l2.12.65c-.08.35-.23.68-.43,1.01-.21.33-.47.62-.78.87-.32.25-.68.46-1.11.62s-.89.24-1.42.24c-.59,0-1.14-.1-1.65-.31-.51-.21-.96-.49-1.33-.86s-.68-.81-.9-1.31-.33-1.06-.33-1.67.11-1.17.32-1.68.51-.95.88-1.32c.37-.37.81-.66,1.31-.86.5-.21,1.04-.31,1.62-.31.54,0,1.02.08,1.45.23.43.15.81.35,1.12.61.32.25.57.54.77.88.2.33.34.67.43,1.02l-2.15.65c-.04-.15-.11-.29-.19-.43-.08-.14-.19-.27-.32-.38-.13-.11-.28-.2-.46-.26-.18-.06-.38-.09-.62-.09Z"/>
    <path d="M79.98,54.08c0-.35.06-.66.18-.93.12-.27.29-.51.5-.7.21-.19.46-.35.73-.47.28-.12.58-.21.91-.26l1.85-.28c.21-.03.36-.09.44-.19s.13-.21.13-.35c0-.23-.1-.43-.29-.6-.19-.17-.48-.25-.86-.25-.42,0-.75.12-.97.36-.23.24-.35.5-.37.8l-2.08-.43c.02-.28.11-.58.25-.88.15-.31.36-.58.64-.84.28-.25.63-.46,1.05-.63.42-.17.92-.25,1.5-.25.63,0,1.17.08,1.61.24.44.16.8.38,1.08.66.28.28.48.6.6.97s.18.75.18,1.15v3.84c0,.31.01.57.04.81.03.23.04.37.06.41h-2.16s-.03-.12-.05-.26c-.02-.14-.03-.35-.03-.62-.21.34-.5.61-.87.81-.37.2-.82.3-1.34.3-.43,0-.82-.07-1.15-.2-.34-.13-.62-.31-.85-.53s-.41-.47-.53-.76c-.12-.28-.18-.58-.18-.9ZM83.28,54.73c.18,0,.36-.02.53-.07.17-.05.33-.13.46-.25.13-.12.24-.28.32-.48.08-.2.13-.45.13-.76v-.35l-1.48.24c-.25.04-.46.13-.63.26-.17.13-.25.33-.25.61,0,.21.07.4.21.56.14.16.38.25.72.25Z"/>
    <path d="M89.08,56.24v-11.44h2.4v11.44h-2.4Z"/>
    <path d="M102.8,56.48c-.81,0-1.57-.14-2.27-.42s-1.32-.67-1.84-1.18-.93-1.12-1.24-1.83c-.31-.72-.46-1.51-.46-2.38s.16-1.67.47-2.39.73-1.34,1.26-1.85,1.14-.91,1.84-1.19c.7-.28,1.44-.43,2.22-.43.84,0,1.57.12,2.18.36.61.24,1.13.55,1.55.92.42.37.75.78.99,1.22.24.44.4.86.5,1.26l-2.35.74c-.04-.19-.12-.41-.25-.65s-.29-.47-.51-.69c-.22-.22-.5-.4-.85-.54-.34-.14-.76-.21-1.25-.21-.38,0-.76.07-1.14.21s-.72.35-1.03.62-.55.63-.74,1.07c-.19.43-.28.94-.28,1.53,0,.53.09.99.27,1.41.18.41.42.76.72,1.04.3.28.64.5,1.03.65.38.15.79.22,1.21.22.48,0,.9-.07,1.25-.21s.64-.32.87-.54.41-.44.54-.69.22-.46.28-.66l2.38.68c-.09.39-.26.81-.5,1.26s-.57.88-1,1.27-.96.72-1.59.99c-.63.26-1.38.39-2.24.39Z"/>
    <path d="M112.08,56.24h-2.4v-11.44h2.4v4.09c.24-.24.55-.42.92-.54.37-.12.73-.17,1.08-.17.52,0,.96.08,1.33.25.37.16.68.39.92.67.24.28.42.62.54,1,.12.38.17.78.17,1.22v4.93h-2.4v-4.52c0-.39-.1-.71-.31-.97-.21-.26-.53-.39-.97-.39-.38,0-.68.12-.92.36s-.36.54-.38.91v4.61Z"/>
    <path d="M118.6,54.08c0-.35.06-.66.18-.93.12-.27.29-.51.5-.7.21-.19.46-.35.73-.47.28-.12.58-.21.91-.26l1.85-.28c.21-.03.36-.09.44-.19s.13-.21.13-.35c0-.23-.1-.43-.29-.6-.19-.17-.48-.25-.86-.25-.42,0-.75.12-.97.36-.23.24-.35.5-.37.8l-2.08-.43c.02-.28.11-.58.25-.88.15-.31.36-.58.64-.84.28-.25.63-.46,1.05-.63.42-.17.92-.25,1.5-.25.63,0,1.17.08,1.61.24.44.16.8.38,1.08.66.28.28.48.6.6.97s.18.75.18,1.15v3.84c0,.31.01.57.04.81.03.23.04.37.06.41h-2.16s-.03-.12-.05-.26c-.02-.14-.03-.35-.03-.62-.21.34-.5.61-.87.81-.37.2-.82.3-1.34.3-.43,0-.82-.07-1.15-.2-.34-.13-.62-.31-.85-.53s-.41-.47-.53-.76c-.12-.28-.18-.58-.18-.9ZM121.9,54.73c.18,0,.36-.02.53-.07.17-.05.33-.13.46-.25.13-.12.24-.28.32-.48.08-.2.13-.45.13-.76v-.35l-1.48.24c-.25.04-.46.13-.63.26-.17.13-.25.33-.25.61,0,.21.07.4.21.56.14.16.38.25.72.25Z"/>
    <path d="M130.1,56.24h-2.4v-7.85h2.32v.9c.11-.19.24-.35.41-.49.17-.14.35-.25.54-.34.19-.09.4-.16.62-.21s.42-.07.62-.07c.5,0,.92.08,1.28.25.36.16.66.39.89.67.24.28.41.62.52,1,.11.38.17.78.17,1.22v4.93h-2.4v-4.52c0-.39-.1-.71-.31-.97-.21-.26-.53-.39-.97-.39-.4,0-.72.13-.95.39-.23.26-.35.59-.35.99v4.5Z"/>
    <path d="M139.49,56.24h-2.4v-7.85h2.32v.9c.11-.19.24-.35.41-.49.17-.14.35-.25.54-.34.19-.09.4-.16.62-.21s.42-.07.62-.07c.5,0,.92.08,1.28.25.36.16.66.39.89.67.24.28.41.62.52,1,.11.38.17.78.17,1.22v4.93h-2.4v-4.52c0-.39-.1-.71-.31-.97-.21-.26-.53-.39-.97-.39-.4,0-.72.13-.95.39-.23.26-.35.59-.35.99v4.5Z"/>
    <path d="M153.63,53.98c-.09.34-.24.66-.44.96-.2.31-.45.57-.76.8-.31.23-.66.41-1.07.54-.41.13-.86.2-1.35.2-.54,0-1.05-.09-1.55-.28s-.93-.46-1.31-.82-.68-.79-.9-1.31c-.22-.52-.33-1.11-.33-1.77s.11-1.2.32-1.71.5-.94.87-1.3c.36-.36.78-.63,1.26-.83s.96-.29,1.47-.29c1.22,0,2.18.35,2.88,1.06s1.05,1.7,1.05,2.97c0,.17,0,.33-.02.48-.01.15-.02.24-.03.26h-5.46c.01.22.07.42.17.61.1.18.23.34.39.48.16.14.35.24.56.32.21.07.43.11.66.11.44,0,.79-.09,1.03-.28.25-.19.43-.44.54-.74l2.01.57ZM151.45,51.38c-.01-.15-.04-.3-.1-.46-.06-.16-.15-.3-.28-.43-.13-.13-.29-.23-.48-.32-.2-.08-.43-.13-.72-.13-.25,0-.47.04-.66.13-.19.08-.35.19-.48.32s-.23.27-.3.43c-.07.16-.11.31-.12.46h3.14Z"/>
    <path d="M155.32,56.24v-11.44h2.4v11.44h-2.4Z"/>
    <path d="M57.85,74.67v-7.8h1.08v6.79h3.68v1.01h-4.76Z"/>
    <path d="M63.88,74.67v-7.8h4.74v1h-3.66v2.4h3.32v1.01h-3.32v2.39h3.66v1h-4.74Z"/>
    <path d="M73.02,74.67v-7.8h1.1v7.8h-1.1Z"/>
    <path d="M76.43,72.96c.04.28.16.51.36.7.21.19.5.29.87.29.29,0,.52-.07.67-.21.15-.14.23-.3.23-.5,0-.17-.06-.31-.18-.43-.12-.12-.29-.2-.51-.25l-.9-.2c-.42-.09-.74-.26-.97-.53-.23-.26-.35-.58-.35-.96,0-.23.05-.44.15-.64.1-.2.23-.38.4-.53.17-.15.37-.27.6-.36.23-.09.47-.13.73-.13.36,0,.66.05.91.15.25.1.45.23.6.38.15.15.27.31.35.47.08.16.13.3.16.42l-.91.34c-.01-.07-.04-.15-.08-.25-.04-.1-.1-.2-.18-.29-.08-.09-.19-.17-.33-.24-.14-.07-.31-.1-.52-.1-.26,0-.48.07-.64.21s-.24.31-.24.49c0,.34.2.55.61.64l.86.19c.48.1.85.29,1.09.57s.37.61.37,1.01c0,.19-.04.38-.12.57-.08.19-.2.37-.36.53-.16.16-.36.29-.6.39-.24.1-.53.15-.86.15-.37,0-.68-.05-.94-.15-.26-.1-.48-.23-.65-.39-.17-.15-.3-.32-.4-.5s-.15-.35-.17-.5l.94-.33Z"/>
    <path d="M83.23,69.21c.4,0,.76.07,1.09.21.33.14.62.34.86.59.24.25.43.54.56.89.13.34.2.71.2,1.12s-.07.78-.2,1.12-.32.64-.56.89c-.24.25-.53.45-.86.59-.33.14-.69.21-1.09.21s-.76-.07-1.09-.21c-.33-.14-.62-.34-.86-.59-.24-.25-.43-.55-.56-.89s-.2-.72-.2-1.12.07-.78.2-1.12c.13-.34.32-.64.56-.89.24-.25.53-.45.86-.59.33-.14.69-.21,1.09-.21ZM83.23,73.91c.22,0,.43-.04.63-.12.2-.08.37-.2.53-.36.15-.16.28-.36.36-.59s.13-.51.13-.81-.04-.58-.13-.81-.21-.43-.36-.59c-.15-.16-.33-.28-.53-.36-.2-.08-.41-.12-.63-.12s-.43.04-.63.12c-.2.08-.37.2-.53.36-.15.16-.28.36-.36.59s-.13.5-.13.81.04.58.13.81.21.43.36.59c.15.16.33.28.53.36.2.08.41.12.63.12Z"/>
    <path d="M89.47,70.17c-.21,0-.41.04-.6.12-.19.08-.36.19-.51.35-.15.15-.27.35-.36.58s-.13.5-.13.81.04.57.13.8.21.43.35.58c.15.16.32.28.52.36.2.08.4.12.62.12.25,0,.46-.04.63-.11.17-.07.32-.17.43-.27.11-.11.2-.23.27-.36.07-.13.11-.24.14-.35l.91.4c-.07.19-.16.38-.29.58-.12.19-.29.37-.48.53-.2.16-.43.29-.7.39s-.57.15-.92.15c-.39,0-.75-.07-1.07-.21-.33-.14-.61-.34-.84-.59-.24-.25-.42-.55-.56-.89-.14-.34-.2-.71-.2-1.12s.07-.79.2-1.13c.14-.34.32-.64.56-.89s.52-.44.85-.58c.33-.14.68-.21,1.05-.21.35,0,.66.05.93.15s.5.23.69.39c.19.16.35.34.47.54.12.2.21.4.26.6l-.93.4c-.04-.13-.09-.26-.15-.4-.07-.13-.16-.25-.27-.36-.11-.11-.25-.19-.41-.26-.16-.07-.36-.1-.58-.1Z"/>
    <path d="M94.12,74.67h-1.03v-7.96h1.03v3.29c.19-.28.43-.48.71-.59.29-.12.58-.18.89-.18s.59.05.83.16c.24.11.44.25.59.44.16.19.28.41.35.67.08.26.12.53.12.83v3.35h-1.03v-3.18c0-.18-.02-.36-.06-.52-.04-.16-.11-.3-.21-.42s-.23-.22-.38-.29c-.16-.07-.35-.1-.58-.1-.2,0-.37.04-.52.11s-.28.17-.38.3c-.1.12-.18.27-.24.44-.06.17-.09.35-.09.55v3.11Z"/>
    <path d="M102.2,70.42c-.15-.02-.3-.03-.45-.03-.43,0-.78.13-1.05.38s-.4.67-.4,1.25v2.65h-1.03v-5.29h1.01v.92c.1-.21.21-.37.34-.5.13-.13.26-.23.4-.31.14-.08.28-.13.43-.16.15-.03.29-.04.42-.04.07,0,.14,0,.2.01.06,0,.11.02.14.02v1.1Z"/>
    <path d="M105.57,69.21c.4,0,.76.07,1.09.21.33.14.62.34.86.59.24.25.43.54.56.89.13.34.2.71.2,1.12s-.07.78-.2,1.12-.32.64-.56.89c-.24.25-.53.45-.86.59-.33.14-.69.21-1.09.21s-.76-.07-1.09-.21c-.33-.14-.62-.34-.86-.59-.24-.25-.43-.55-.56-.89s-.2-.72-.2-1.12.07-.78.2-1.12c.13-.34.32-.64.56-.89.24-.25.53-.45.86-.59.33-.14.69-.21,1.09-.21ZM105.57,73.91c.22,0,.43-.04.63-.12.2-.08.37-.2.53-.36.15-.16.28-.36.36-.59s.13-.51.13-.81-.04-.58-.13-.81-.21-.43-.36-.59c-.15-.16-.33-.28-.53-.36-.2-.08-.41-.12-.63-.12s-.43.04-.63.12c-.2.08-.37.2-.53.36-.15.16-.28.36-.36.59s-.13.5-.13.81.04.58.13.81.21.43.36.59c.15.16.33.28.53.36.2.08.41.12.63.12Z"/>
    <path d="M110.63,74.67h-1.03v-5.29h1.01v.76c.19-.33.43-.56.73-.7.29-.14.59-.21.9-.21s.59.05.83.16c.24.11.44.25.59.44.16.19.28.41.35.67.08.26.12.53.12.83v3.35h-1.03v-3.18c0-.18-.02-.36-.06-.52-.04-.16-.11-.3-.21-.42s-.23-.22-.38-.29c-.16-.07-.35-.1-.58-.1-.21,0-.39.04-.54.12-.15.08-.28.18-.39.31s-.18.29-.23.46c-.05.18-.08.36-.08.56v3.06Z"/>
    <path d="M118.04,69.21c.4,0,.76.07,1.09.21.33.14.62.34.86.59.24.25.43.54.56.89.13.34.2.71.2,1.12s-.07.78-.2,1.12-.32.64-.56.89c-.24.25-.53.45-.86.59-.33.14-.69.21-1.09.21s-.76-.07-1.09-.21c-.33-.14-.62-.34-.86-.59-.24-.25-.43-.55-.56-.89s-.2-.72-.2-1.12.07-.78.2-1.12c.13-.34.32-.64.56-.89.24-.25.53-.45.86-.59.33-.14.69-.21,1.09-.21ZM118.04,73.91c.22,0,.43-.04.63-.12.2-.08.37-.2.53-.36.15-.16.28-.36.36-.59s.13-.51.13-.81-.04-.58-.13-.81-.21-.43-.36-.59c-.15-.16-.33-.28-.53-.36-.2-.08-.41-.12-.63-.12s-.43.04-.63.12c-.2.08-.37.2-.53.36-.15.16-.28.36-.36.59s-.13.5-.13.81.04.58.13.81.21.43.36.59c.15.16.33.28.53.36.2.08.41.12.63.12Z"/>
    <path d="M125.55,74.03c-.15.28-.37.48-.66.61-.29.13-.59.19-.9.19s-.58-.06-.83-.17c-.25-.11-.45-.26-.62-.45-.17-.19-.3-.41-.39-.67-.09-.26-.14-.54-.14-.84v-3.33h1.03v3.18c0,.18.02.36.07.52s.11.31.21.43c.1.12.22.22.37.3.15.07.33.11.55.11.42,0,.73-.12.94-.37.21-.25.31-.58.31-.98v-3.19h1.03v4.31c0,.21,0,.41.02.58s.02.31.04.4h-.99c-.01-.06-.03-.15-.03-.28,0-.13-.01-.25-.01-.36Z"/>
    <path d="M128.73,72.96c.04.28.16.51.36.7.21.19.5.29.87.29.29,0,.52-.07.67-.21.15-.14.23-.3.23-.5,0-.17-.06-.31-.18-.43-.12-.12-.29-.2-.51-.25l-.9-.2c-.42-.09-.74-.26-.97-.53-.23-.26-.35-.58-.35-.96,0-.23.05-.44.15-.64.1-.2.23-.38.4-.53.17-.15.37-.27.6-.36.23-.09.47-.13.73-.13.36,0,.66.05.91.15.25.1.45.23.6.38.15.15.27.31.35.47.08.16.13.3.16.42l-.91.34c-.01-.07-.04-.15-.08-.25-.04-.1-.1-.2-.18-.29-.08-.09-.19-.17-.33-.24-.14-.07-.31-.1-.52-.1-.26,0-.48.07-.64.21s-.24.31-.24.49c0,.34.2.55.61.64l.86.19c.48.1.85.29,1.09.57s.37.61.37,1.01c0,.19-.04.38-.12.57-.08.19-.2.37-.36.53-.16.16-.36.29-.6.39-.24.1-.53.15-.86.15-.37,0-.68-.05-.94-.15-.26-.1-.48-.23-.65-.39-.17-.15-.3-.32-.4-.5s-.15-.35-.17-.5l.94-.33Z"/>
  </g>
  <g>
    <path d="M214.2,52.21v4.03h-2.5v-11.2h4.22c.57,0,1.09.09,1.56.27.47.18.87.43,1.22.74.34.32.61.7.79,1.14.18.44.28.92.28,1.44s-.09,1.01-.28,1.45c-.18.44-.45.82-.79,1.14s-.75.56-1.22.73c-.47.17-.99.26-1.56.26h-1.72ZM215.66,50.07c.47,0,.86-.13,1.15-.38.29-.25.44-.6.44-1.04s-.15-.81-.44-1.06c-.29-.25-.68-.38-1.15-.38h-1.45v2.86h1.45Z"/>
    <path d="M223.62,56.24h-2.4v-11.44h2.4v4.09c.24-.24.55-.42.92-.54.37-.12.73-.17,1.08-.17.52,0,.96.08,1.33.25.37.16.68.39.92.67.24.28.42.62.54,1,.12.38.17.78.17,1.22v4.93h-2.4v-4.52c0-.39-.1-.71-.31-.97-.21-.26-.53-.39-.97-.39-.38,0-.68.12-.92.36s-.36.54-.38.91v4.61Z"/>
    <path d="M231.17,59.26l1.78-4.07-3.3-6.79h2.68l1.91,4.2,1.74-4.2h2.54l-4.83,10.87h-2.53Z"/>
    <path d="M241.14,53.65c.02.27.13.52.32.73.2.22.5.32.91.32.31,0,.53-.07.69-.21.15-.14.23-.29.23-.47,0-.15-.05-.28-.17-.39-.11-.11-.31-.2-.61-.26l-.9-.21c-.42-.09-.78-.22-1.07-.38-.29-.16-.54-.34-.73-.55-.19-.21-.33-.44-.41-.69-.08-.25-.13-.52-.13-.79,0-.36.07-.7.22-1.01.15-.32.36-.59.62-.83.27-.24.59-.42.96-.56.37-.14.77-.21,1.22-.21.57,0,1.05.08,1.44.24.39.16.71.36.96.59.25.24.43.49.54.76.12.27.18.52.21.75l-1.99.36c-.03-.26-.13-.49-.31-.68s-.45-.28-.81-.28c-.23,0-.43.06-.6.18-.17.12-.25.29-.25.5,0,.17.06.3.17.39.12.09.26.16.44.19l1.04.21c.82.17,1.43.48,1.82.92.39.45.59.96.59,1.54,0,.34-.06.66-.19.98-.13.32-.32.6-.58.85-.26.25-.59.45-.98.6-.39.15-.85.23-1.37.23-.62,0-1.14-.09-1.56-.26-.42-.17-.75-.39-1-.64-.25-.25-.44-.52-.56-.81-.12-.28-.19-.54-.2-.76l2.04-.36Z"/>
    <path d="M246.9,45.99c0-.19.04-.37.11-.54.07-.17.17-.32.3-.45.13-.13.27-.23.44-.3.17-.07.35-.11.54-.11.4,0,.74.14,1.01.41.27.27.41.61.41,1s-.14.72-.41,1c-.27.27-.61.41-1.01.41-.19,0-.37-.04-.54-.11-.17-.07-.32-.17-.44-.3-.13-.13-.23-.28-.3-.45-.07-.17-.11-.36-.11-.54ZM247.11,56.24v-7.85h2.4v7.85h-2.4Z"/>
    <path d="M255.23,50.37c-.25,0-.49.04-.7.13-.22.08-.41.21-.57.38s-.29.37-.39.62-.14.52-.14.84.05.59.15.83c.1.24.23.44.4.61.16.17.35.29.58.38.22.08.46.13.71.13.46,0,.83-.12,1.1-.36s.44-.51.53-.81l2.12.65c-.08.35-.23.68-.43,1.01-.21.33-.47.62-.78.87-.32.25-.68.46-1.11.62s-.89.24-1.42.24c-.59,0-1.14-.1-1.65-.31-.51-.21-.96-.49-1.33-.86s-.68-.81-.9-1.31-.33-1.06-.33-1.67.11-1.17.32-1.68.51-.95.88-1.32c.37-.37.81-.66,1.31-.86.5-.21,1.04-.31,1.62-.31.54,0,1.02.08,1.45.23.43.15.81.35,1.12.61.32.25.57.54.77.88.2.33.34.67.43,1.02l-2.15.65c-.04-.15-.11-.29-.19-.43-.08-.14-.19-.27-.32-.38-.13-.11-.28-.2-.46-.26-.18-.06-.38-.09-.62-.09Z"/>
    <path d="M260,54.08c0-.35.06-.66.18-.93.12-.27.29-.51.5-.7.21-.19.46-.35.73-.47.28-.12.58-.21.91-.26l1.85-.28c.21-.03.36-.09.44-.19s.13-.21.13-.35c0-.23-.1-.43-.29-.6-.19-.17-.48-.25-.86-.25-.42,0-.75.12-.97.36-.23.24-.35.5-.37.8l-2.08-.43c.02-.28.11-.58.25-.88.15-.31.36-.58.64-.84.28-.25.63-.46,1.05-.63.42-.17.92-.25,1.5-.25.63,0,1.17.08,1.61.24.44.16.8.38,1.08.66.28.28.48.6.6.97s.18.75.18,1.15v3.84c0,.31.01.57.04.81.03.23.04.37.06.41h-2.16s-.03-.12-.05-.26c-.02-.14-.03-.35-.03-.62-.21.34-.5.61-.87.81-.37.2-.82.3-1.34.3-.43,0-.82-.07-1.15-.2-.34-.13-.62-.31-.85-.53s-.41-.47-.53-.76c-.12-.28-.18-.58-.18-.9ZM263.3,54.73c.18,0,.36-.02.53-.07.17-.05.33-.13.46-.25.13-.12.24-.28.32-.48.08-.2.13-.45.13-.76v-.35l-1.48.24c-.25.04-.46.13-.63.26-.17.13-.25.33-.25.61,0,.21.07.4.21.56.14.16.38.25.72.25Z"/>
    <path d="M269.09,56.24v-11.44h2.4v11.44h-2.4Z"/>
    <path d="M277.65,56.24v-11.2h2.5v8.81h4.83v2.38h-7.33Z"/>
    <path d="M286.23,45.99c0-.19.04-.37.11-.54.07-.17.17-.32.3-.45.13-.13.27-.23.44-.3.17-.07.35-.11.54-.11.4,0,.74.14,1.01.41.27.27.41.61.41,1s-.14.72-.41,1c-.27.27-.61.41-1.01.41-.19,0-.37-.04-.54-.11-.17-.07-.32-.17-.44-.3-.13-.13-.23-.28-.3-.45-.07-.17-.11-.36-.11-.54ZM286.44,56.24v-7.85h2.4v7.85h-2.4Z"/>
    <path d="M293.34,56.24h-2.4v-7.85h2.32v.9c.11-.19.24-.35.41-.49.17-.14.35-.25.54-.34.19-.09.4-.16.62-.21s.42-.07.62-.07c.5,0,.92.08,1.28.25.36.16.66.39.89.67.24.28.41.62.52,1,.11.38.17.78.17,1.22v4.93h-2.4v-4.52c0-.39-.1-.71-.31-.97-.21-.26-.53-.39-.97-.39-.4,0-.72.13-.95.39-.23.26-.35.59-.35.99v4.5Z"/>
    <path d="M305.17,51.69l3.13,4.55h-2.94l-1.85-2.76-.77.84v1.93h-2.4v-11.44h2.4v6.22l2.38-2.64h3.11l-3.06,3.3Z"/>
  </g>
  <g>
    <path d="M363.51,56.24v-11.2h2.5v8.81h4.83v2.38h-7.33Z"/>
    <path d="M375.89,48.16c.59,0,1.14.1,1.64.31.51.21.95.49,1.32.86.37.37.67.81.88,1.31.22.51.32,1.06.32,1.67s-.11,1.17-.32,1.68c-.21.51-.51.95-.88,1.32-.38.37-.81.66-1.32.86-.5.21-1.05.31-1.64.31s-1.14-.1-1.64-.31c-.5-.21-.95-.49-1.32-.86s-.67-.81-.88-1.32c-.21-.51-.32-1.07-.32-1.68s.11-1.17.32-1.67c.22-.51.51-.94.88-1.31.37-.37.81-.66,1.32-.86.51-.21,1.05-.31,1.64-.31ZM375.89,54.27c.23,0,.45-.04.66-.12s.4-.2.56-.36c.16-.16.29-.37.39-.61s.15-.53.15-.87-.05-.61-.15-.86-.23-.45-.39-.61c-.16-.16-.35-.28-.56-.35-.21-.08-.43-.12-.66-.12s-.44.04-.65.12c-.22.08-.41.2-.57.35-.16.16-.29.36-.4.61-.1.25-.15.53-.15.86s.05.61.15.86c.1.25.23.45.4.62.16.16.35.28.57.36.21.08.43.12.65.12Z"/>
    <path d="M383.17,56.08c.08.38.27.69.57.94s.67.37,1.12.37c.6,0,1.07-.16,1.42-.47s.52-.82.52-1.54v-.36c-.15.21-.39.41-.73.6-.34.19-.8.28-1.37.28-.53,0-1.01-.1-1.45-.29-.44-.19-.83-.46-1.15-.81s-.58-.75-.77-1.21-.28-.97-.28-1.52c0-.52.09-1.01.27-1.47s.43-.87.75-1.22c.32-.35.71-.63,1.15-.84.45-.21.94-.31,1.48-.31.31,0,.6.03.84.09.25.06.46.14.64.24.18.09.33.2.44.32s.2.23.25.33v-.84h2.29v6.87c0,.57-.08,1.11-.24,1.61-.16.51-.42.95-.76,1.34-.34.39-.78.7-1.3.92-.53.23-1.16.34-1.89.34-.57,0-1.08-.08-1.54-.24-.46-.16-.85-.37-1.19-.63s-.6-.56-.8-.9-.34-.68-.39-1.03l2.12-.6ZM385.14,53.83c.49,0,.9-.16,1.21-.47s.46-.73.46-1.27c0-.26-.04-.5-.13-.72-.09-.22-.21-.4-.36-.55-.15-.15-.33-.27-.54-.35-.21-.08-.42-.12-.64-.12s-.43.04-.64.12c-.21.08-.39.2-.54.35-.16.15-.28.34-.37.55-.09.22-.13.46-.13.72,0,.54.16.96.48,1.27.32.31.72.47,1.21.47Z"/>
    <path d="M390.99,45.99c0-.19.04-.37.11-.54.07-.17.17-.32.3-.45s.27-.23.44-.3c.17-.07.35-.11.54-.11.4,0,.74.14,1.01.41.27.27.41.61.41,1s-.14.72-.41,1-.61.41-1.01.41c-.19,0-.37-.04-.54-.11-.17-.07-.32-.17-.44-.3s-.23-.28-.3-.45c-.07-.17-.11-.36-.11-.54ZM391.19,56.24v-7.85h2.4v7.85h-2.4Z"/>
    <path d="M399.31,50.37c-.25,0-.49.04-.7.13-.22.08-.41.21-.57.38-.16.17-.29.37-.39.62-.09.24-.14.52-.14.84s.05.59.15.83c.1.24.23.44.4.61.16.17.35.29.58.38.22.08.46.13.71.13.46,0,.83-.12,1.1-.36.27-.24.44-.51.53-.81l2.12.65c-.08.35-.23.68-.43,1.01-.21.33-.47.62-.78.87-.31.25-.68.46-1.11.62-.42.16-.89.24-1.42.24-.59,0-1.14-.1-1.65-.31-.51-.21-.96-.49-1.34-.86s-.68-.81-.9-1.31-.33-1.06-.33-1.67.11-1.17.32-1.68c.22-.51.51-.95.88-1.32.37-.37.81-.66,1.31-.86.5-.21,1.04-.31,1.62-.31.54,0,1.02.08,1.45.23.43.15.81.35,1.12.61.32.25.57.54.78.88.2.33.34.67.43,1.02l-2.15.65c-.04-.15-.11-.29-.19-.43s-.19-.27-.32-.38c-.12-.11-.28-.2-.46-.26-.18-.06-.38-.09-.62-.09Z"/>
    <path d="M404.08,54.08c0-.35.06-.66.18-.93.12-.27.29-.51.5-.7s.46-.35.73-.47c.28-.12.58-.21.91-.26l1.85-.28c.21-.03.36-.09.44-.19s.12-.21.12-.35c0-.23-.1-.43-.29-.6-.2-.17-.48-.25-.86-.25-.42,0-.74.12-.97.36-.23.24-.35.5-.37.8l-2.09-.43c.02-.28.11-.58.25-.88.15-.31.36-.58.64-.84s.63-.46,1.05-.63.92-.25,1.5-.25c.63,0,1.17.08,1.61.24.44.16.8.38,1.08.66.28.28.48.6.6.97s.18.75.18,1.15v3.84c0,.31.01.57.04.81.03.23.04.37.06.41h-2.16s-.03-.12-.05-.26c-.02-.14-.03-.35-.03-.62-.21.34-.5.61-.87.81-.37.2-.82.3-1.34.3-.43,0-.81-.07-1.15-.2-.34-.13-.62-.31-.85-.53-.23-.22-.41-.47-.53-.76-.12-.28-.18-.58-.18-.9ZM407.38,54.73c.18,0,.36-.02.53-.07.17-.05.33-.13.46-.25s.24-.28.32-.48c.08-.2.12-.45.12-.76v-.35l-1.48.24c-.25.04-.46.13-.63.26s-.25.33-.25.61c0,.21.07.4.21.56.14.16.38.25.72.25Z"/>
    <path d="M413.18,56.24v-11.44h2.4v11.44h-2.4Z"/>
    <path d="M426.76,47.43v8.81h-2.5v-8.81h-3.44v-2.39h9.4v2.39h-3.46Z"/>
    <path d="M435.34,50.76c-.14-.03-.27-.05-.39-.06-.12-.01-.25-.02-.36-.02-.24,0-.47.04-.7.11-.22.07-.42.2-.58.36-.17.17-.3.39-.4.66s-.15.61-.15,1v3.43h-2.4v-7.85h2.32v1.06c.11-.22.24-.41.4-.55s.34-.26.53-.35c.19-.08.38-.14.58-.18.2-.04.37-.06.53-.06.24,0,.45.03.63.08v2.37Z"/>
    <path d="M436.24,54.08c0-.35.06-.66.18-.93.12-.27.29-.51.5-.7s.46-.35.73-.47c.28-.12.58-.21.91-.26l1.85-.28c.21-.03.36-.09.44-.19s.12-.21.12-.35c0-.23-.1-.43-.29-.6-.2-.17-.48-.25-.86-.25-.42,0-.74.12-.97.36-.23.24-.35.5-.37.8l-2.09-.43c.02-.28.11-.58.25-.88.15-.31.36-.58.64-.84s.63-.46,1.05-.63.92-.25,1.5-.25c.63,0,1.17.08,1.61.24.44.16.8.38,1.08.66.28.28.48.6.6.97s.18.75.18,1.15v3.84c0,.31.01.57.04.81.03.23.04.37.06.41h-2.16s-.03-.12-.05-.26c-.02-.14-.03-.35-.03-.62-.21.34-.5.61-.87.81-.37.2-.82.3-1.34.3-.43,0-.81-.07-1.15-.2-.34-.13-.62-.31-.85-.53-.23-.22-.41-.47-.53-.76-.12-.28-.18-.58-.18-.9ZM439.54,54.73c.18,0,.36-.02.53-.07.17-.05.33-.13.46-.25s.24-.28.32-.48c.08-.2.12-.45.12-.76v-.35l-1.48.24c-.25.04-.46.13-.63.26s-.25.33-.25.61c0,.21.07.4.21.56.14.16.38.25.72.25Z"/>
    <path d="M447.73,56.24h-2.4v-7.85h2.32v.9c.11-.19.24-.35.41-.49s.35-.25.54-.34c.2-.09.4-.16.62-.21.22-.05.42-.07.62-.07.49,0,.92.08,1.28.25s.65.39.89.67c.24.28.41.62.52,1,.11.38.17.78.17,1.22v4.93h-2.4v-4.52c0-.39-.1-.71-.31-.97-.21-.26-.53-.39-.97-.39-.4,0-.71.13-.95.39-.23.26-.35.59-.35.99v4.5Z"/>
    <path d="M456.12,53.65c.02.27.13.52.32.73.2.22.5.32.91.32.3,0,.53-.07.69-.21.15-.14.23-.29.23-.47,0-.15-.05-.28-.17-.39s-.31-.2-.61-.26l-.9-.21c-.42-.09-.78-.22-1.07-.38-.29-.16-.54-.34-.73-.55-.19-.21-.33-.44-.41-.69-.09-.25-.13-.52-.13-.79,0-.36.07-.7.22-1.01.15-.32.36-.59.62-.83.27-.24.59-.42.96-.56.37-.14.77-.21,1.22-.21.57,0,1.05.08,1.44.24.39.16.71.36.96.59.25.24.43.49.54.76.12.27.18.52.21.75l-1.99.36c-.03-.26-.13-.49-.31-.68s-.45-.28-.81-.28c-.23,0-.43.06-.6.18-.17.12-.25.29-.25.5,0,.17.06.3.17.39s.26.16.44.19l1.04.21c.82.17,1.43.48,1.82.92.39.45.59.96.59,1.54,0,.34-.06.66-.19.98-.12.32-.32.6-.58.85-.26.25-.59.45-.98.6-.39.15-.85.23-1.38.23-.62,0-1.14-.09-1.55-.26-.42-.17-.75-.39-1-.64-.25-.25-.44-.52-.56-.81s-.19-.54-.2-.76l2.04-.36Z"/>
    <path d="M462.09,59.24v-10.85h2.32v.81c.17-.25.45-.48.85-.69.4-.21.88-.31,1.45-.31s1.08.1,1.53.31c.45.21.83.49,1.14.85s.55.8.72,1.29c.17.5.25,1.05.25,1.63s-.09,1.15-.28,1.66-.44.94-.77,1.3-.73.65-1.19.85c-.46.21-.96.31-1.51.31-.51,0-.94-.08-1.31-.23-.37-.15-.64-.34-.82-.56v3.62h-2.4ZM468.02,52.31c0-.33-.05-.61-.14-.85-.1-.24-.23-.44-.39-.61-.17-.16-.36-.28-.58-.36-.21-.08-.44-.12-.67-.12s-.46.04-.67.12c-.21.08-.41.2-.57.36-.16.16-.29.37-.39.61-.1.24-.14.53-.14.85s.05.61.14.85c.09.24.22.45.39.61.16.16.35.29.57.37.22.08.44.13.67.13s.46-.04.67-.12c.22-.08.41-.2.58-.36.17-.16.3-.37.39-.62.09-.25.14-.53.14-.86Z"/>
    <path d="M475.52,48.16c.59,0,1.14.1,1.64.31.51.21.95.49,1.32.86.37.37.67.81.88,1.31.21.51.32,1.06.32,1.67s-.11,1.17-.32,1.68c-.22.51-.51.95-.88,1.32s-.81.66-1.32.86c-.51.21-1.05.31-1.64.31s-1.14-.1-1.64-.31c-.51-.21-.95-.49-1.32-.86-.38-.37-.67-.81-.88-1.32-.22-.51-.32-1.07-.32-1.68s.11-1.17.32-1.67c.21-.51.51-.94.88-1.31.37-.37.81-.66,1.32-.86.51-.21,1.05-.31,1.64-.31ZM475.52,54.27c.23,0,.45-.04.66-.12.21-.08.4-.2.56-.36.16-.16.29-.37.39-.61.1-.24.15-.53.15-.87s-.05-.61-.15-.86c-.1-.25-.23-.45-.39-.61-.16-.16-.35-.28-.56-.35-.21-.08-.43-.12-.66-.12s-.44.04-.66.12c-.21.08-.4.2-.57.35-.16.16-.29.36-.39.61s-.15.53-.15.86.05.61.15.86.23.45.39.62c.16.16.35.28.57.36.22.08.44.12.66.12Z"/>
    <path d="M486.22,50.76c-.14-.03-.27-.05-.39-.06-.12-.01-.25-.02-.36-.02-.24,0-.47.04-.7.11-.22.07-.42.2-.58.36-.17.17-.3.39-.4.66s-.15.61-.15,1v3.43h-2.4v-7.85h2.32v1.06c.11-.22.24-.41.4-.55s.34-.26.53-.35c.19-.08.38-.14.58-.18.2-.04.37-.06.53-.06.24,0,.45.03.63.08v2.37Z"/>
    <path d="M490.8,48.39h1.53v2.1h-1.53v2.94c0,.33.08.54.24.66.16.11.37.17.63.17.13,0,.24,0,.36-.02.11-.02.2-.03.28-.06v1.99c-.05.02-.18.06-.38.13-.2.06-.49.09-.87.09-.82,0-1.46-.22-1.93-.67-.46-.45-.7-1.07-.7-1.86v-3.36h-1.39v-2.1h.39c.41,0,.71-.12.92-.36.2-.24.3-.55.3-.92v-1.01h2.15v2.29Z"/>
    <path d="M411.47,74.67v-7.8h1.08v6.79h3.68v1.01h-4.76Z"/>
    <path d="M417.5,74.67v-7.8h4.74v1h-3.66v2.4h3.32v1.01h-3.32v2.39h3.66v1h-4.74Z"/>
    <path d="M423.39,71.96v-.9h2.98v.9h-2.98Z"/>
    <path d="M431.23,74.83c-.51,0-.99-.09-1.46-.27-.47-.18-.88-.44-1.23-.79s-.64-.77-.86-1.28-.32-1.09-.32-1.74.11-1.23.33-1.73c.22-.5.51-.93.87-1.27.36-.34.78-.61,1.24-.79.46-.18.94-.27,1.42-.27.45,0,.86.06,1.23.18.37.12.71.28,1,.5.29.21.54.47.74.78.2.31.35.65.46,1.02l-1,.35c-.15-.59-.43-1.05-.84-1.36s-.94-.47-1.59-.47c-.35,0-.7.06-1.03.19-.33.13-.63.32-.89.58-.26.26-.47.58-.62.96-.15.39-.23.83-.23,1.34s.08.95.23,1.34c.15.38.36.71.62.97.26.26.56.46.89.58.33.13.68.19,1.03.19.33,0,.63-.05.9-.14s.51-.23.72-.39.38-.36.53-.59.26-.48.34-.74l.96.35c-.1.37-.26.7-.46,1.01s-.45.57-.74.79c-.29.22-.62.39-1,.52-.38.12-.79.19-1.24.19Z"/>
    <path d="M436.11,74.67v-7.8h1.1v7.8h-1.1Z"/>
    <path d="M443.19,68.98c-.02-.14-.07-.29-.14-.45-.07-.16-.18-.3-.31-.43-.13-.13-.3-.24-.49-.32-.2-.08-.43-.13-.71-.13-.22,0-.42.03-.6.1-.18.07-.34.16-.48.27-.14.12-.24.25-.31.41-.07.16-.11.33-.11.51,0,.28.08.52.25.72.17.2.42.34.75.41l1.17.25c.65.15,1.15.41,1.5.79s.52.85.52,1.4c0,.3-.06.59-.19.87s-.3.52-.54.74c-.23.21-.52.38-.85.51-.33.13-.7.19-1.12.19-.47,0-.88-.07-1.23-.21-.35-.14-.64-.32-.88-.54s-.42-.47-.55-.74c-.13-.27-.22-.55-.25-.83l1.04-.33c.02.22.07.43.16.63s.21.38.36.53c.16.15.35.28.57.37.22.09.48.14.78.14.54,0,.94-.12,1.21-.36.27-.24.4-.54.4-.88,0-.28-.09-.53-.29-.75s-.48-.38-.88-.46l-1.11-.24c-.56-.12-1.02-.36-1.37-.72-.36-.36-.53-.83-.53-1.41,0-.31.07-.6.2-.88.13-.28.31-.52.54-.74.23-.21.5-.38.82-.51.31-.13.65-.19,1.01-.19.44,0,.82.06,1.13.18.31.12.57.28.78.47.21.19.37.4.49.63.12.23.2.45.24.66l-.97.34Z"/>
  </g>
  <g>
    <path d="M547.41,56.24v-11.2h2.5v8.81h4.83v2.38h-7.33Z"/>
    <path d="M559.8,48.16c.59,0,1.14.1,1.64.31.51.21.95.49,1.32.86.37.37.67.81.88,1.31.21.51.32,1.06.32,1.67s-.11,1.17-.32,1.68c-.22.51-.51.95-.88,1.32s-.81.66-1.32.86c-.51.21-1.05.31-1.64.31s-1.14-.1-1.64-.31c-.51-.21-.95-.49-1.32-.86-.38-.37-.67-.81-.88-1.32-.22-.51-.32-1.07-.32-1.68s.11-1.17.32-1.67c.21-.51.51-.94.88-1.31.37-.37.81-.66,1.32-.86.51-.21,1.05-.31,1.64-.31ZM559.8,54.27c.23,0,.45-.04.66-.12.21-.08.4-.2.56-.36.16-.16.29-.37.39-.61.1-.24.15-.53.15-.87s-.05-.61-.15-.86c-.1-.25-.23-.45-.39-.61-.16-.16-.35-.28-.56-.35-.21-.08-.43-.12-.66-.12s-.44.04-.66.12c-.21.08-.4.2-.57.35-.16.16-.29.36-.39.61s-.15.53-.15.86.05.61.15.86.23.45.39.62c.16.16.35.28.57.36.22.08.44.12.66.12Z"/>
    <path d="M567.08,56.08c.08.38.27.69.57.94s.67.37,1.12.37c.6,0,1.07-.16,1.42-.47s.52-.82.52-1.54v-.36c-.15.21-.39.41-.73.6-.34.19-.8.28-1.37.28-.53,0-1.01-.1-1.45-.29-.44-.19-.83-.46-1.15-.81s-.58-.75-.77-1.21c-.19-.46-.28-.97-.28-1.52,0-.52.09-1.01.27-1.47.18-.46.43-.87.75-1.22.32-.35.71-.63,1.15-.84.45-.21.94-.31,1.48-.31.32,0,.6.03.85.09.25.06.46.14.64.24s.33.2.44.32c.12.12.2.23.25.33v-.84h2.29v6.87c0,.57-.08,1.11-.25,1.61-.16.51-.42.95-.76,1.34s-.78.7-1.3.92c-.53.23-1.16.34-1.89.34-.57,0-1.08-.08-1.54-.24-.46-.16-.85-.37-1.18-.63-.33-.26-.6-.56-.81-.9s-.33-.68-.39-1.03l2.12-.6ZM569.05,53.83c.5,0,.9-.16,1.21-.47s.47-.73.47-1.27c0-.26-.04-.5-.13-.72s-.21-.4-.36-.55c-.15-.15-.33-.27-.54-.35-.21-.08-.42-.12-.64-.12s-.43.04-.64.12c-.21.08-.39.2-.54.35-.16.15-.28.34-.37.55s-.13.46-.13.72c0,.54.16.96.48,1.27.32.31.72.47,1.21.47Z"/>
    <path d="M574.89,45.99c0-.19.04-.37.11-.54s.17-.32.3-.45c.12-.13.27-.23.44-.3s.35-.11.54-.11c.4,0,.74.14,1.01.41.27.27.41.61.41,1s-.14.72-.41,1c-.28.27-.61.41-1.01.41-.19,0-.37-.04-.54-.11s-.32-.17-.44-.3c-.13-.13-.23-.28-.3-.45s-.11-.36-.11-.54ZM575.1,56.24v-7.85h2.4v7.85h-2.4Z"/>
    <path d="M583.22,50.37c-.25,0-.49.04-.7.13-.22.08-.41.21-.57.38-.16.17-.29.37-.39.62-.1.24-.14.52-.14.84s.05.59.15.83.23.44.39.61.36.29.58.38c.22.08.46.13.71.13.46,0,.83-.12,1.1-.36.27-.24.45-.51.53-.81l2.12.65c-.09.35-.23.68-.44,1.01-.21.33-.46.62-.78.87-.32.25-.69.46-1.11.62-.42.16-.89.24-1.42.24-.59,0-1.14-.1-1.65-.31-.51-.21-.96-.49-1.33-.86s-.68-.81-.9-1.31-.33-1.06-.33-1.67.11-1.17.32-1.68c.21-.51.51-.95.88-1.32.37-.37.81-.66,1.31-.86.5-.21,1.04-.31,1.62-.31.54,0,1.02.08,1.45.23.43.15.8.35,1.12.61.31.25.57.54.77.88s.34.67.43,1.02l-2.15.65c-.04-.15-.11-.29-.19-.43-.09-.14-.19-.27-.32-.38-.13-.11-.28-.2-.46-.26-.18-.06-.38-.09-.62-.09Z"/>
    <path d="M587.99,54.08c0-.35.06-.66.18-.93.12-.27.29-.51.5-.7.21-.19.46-.35.73-.47.28-.12.58-.21.91-.26l1.85-.28c.21-.03.36-.09.44-.19s.13-.21.13-.35c0-.23-.1-.43-.29-.6-.19-.17-.48-.25-.86-.25-.42,0-.75.12-.97.36-.23.24-.35.5-.37.8l-2.08-.43c.02-.28.11-.58.25-.88.15-.31.36-.58.64-.84.28-.25.63-.46,1.05-.63.42-.17.92-.25,1.5-.25.63,0,1.17.08,1.61.24.44.16.8.38,1.08.66.28.28.48.6.6.97s.18.75.18,1.15v3.84c0,.31.01.57.04.81.03.23.04.37.05.41h-2.16s-.03-.12-.05-.26-.03-.35-.03-.62c-.21.34-.5.61-.87.81-.37.2-.82.3-1.34.3-.43,0-.82-.07-1.15-.2-.34-.13-.62-.31-.85-.53-.23-.22-.41-.47-.53-.76-.12-.28-.18-.58-.18-.9ZM591.29,54.73c.18,0,.36-.02.53-.07s.33-.13.46-.25c.13-.12.24-.28.32-.48.08-.2.13-.45.13-.76v-.35l-1.48.24c-.25.04-.46.13-.63.26-.17.13-.25.33-.25.61,0,.21.07.4.21.56.14.16.38.25.72.25Z"/>
    <path d="M597.09,56.24v-11.44h2.4v11.44h-2.4Z"/>
    <path d="M605.64,56.24v-11.2h2.5v8.81h4.83v2.38h-7.33Z"/>
    <path d="M614.22,45.99c0-.19.04-.37.11-.54.07-.17.17-.32.3-.45s.27-.23.44-.3c.17-.07.35-.11.54-.11.4,0,.74.14,1.01.41.27.27.41.61.41,1s-.14.72-.41,1-.61.41-1.01.41c-.19,0-.37-.04-.54-.11-.17-.07-.32-.17-.44-.3s-.23-.28-.3-.45c-.07-.17-.11-.36-.11-.54ZM614.43,56.24v-7.85h2.4v7.85h-2.4Z"/>
    <path d="M621.33,56.24h-2.4v-7.85h2.32v.9c.11-.19.24-.35.41-.49.17-.14.35-.25.54-.34.19-.09.4-.16.62-.21.21-.05.42-.07.62-.07.5,0,.92.08,1.28.25.36.16.66.39.89.67.24.28.41.62.52,1,.11.38.17.78.17,1.22v4.93h-2.4v-4.52c0-.39-.1-.71-.31-.97-.21-.26-.53-.39-.97-.39-.4,0-.72.13-.95.39-.23.26-.35.59-.35.99v4.5Z"/>
    <path d="M633.16,51.69l3.13,4.55h-2.94l-1.85-2.76-.77.84v1.93h-2.4v-11.44h2.4v6.22l2.38-2.64h3.11l-3.06,3.3Z"/>
    <path d="M561.68,74.67v-7.8h1.08v6.79h3.69v1.01h-4.76Z"/>
    <path d="M567.71,74.67v-7.8h4.74v1h-3.66v2.4h3.32v1.01h-3.32v2.39h3.66v1h-4.74Z"/>
    <path d="M573.6,71.96v-.9h2.98v.9h-2.98Z"/>
    <path d="M582.07,68.98c-.02-.14-.07-.29-.14-.45-.07-.16-.18-.3-.31-.43-.13-.13-.3-.24-.5-.32-.2-.08-.43-.13-.7-.13-.22,0-.42.03-.61.1s-.34.16-.48.27c-.13.12-.24.25-.31.41-.07.16-.11.33-.11.51,0,.28.08.52.25.72.17.2.42.34.75.41l1.17.25c.65.15,1.15.41,1.5.79.35.38.52.85.52,1.4,0,.3-.06.59-.19.87s-.3.52-.54.74c-.23.21-.52.38-.85.51-.33.13-.71.19-1.12.19-.47,0-.88-.07-1.23-.21-.35-.14-.64-.32-.88-.54s-.42-.47-.56-.74c-.13-.27-.21-.55-.25-.83l1.03-.33c.02.22.08.43.16.63s.21.38.36.53c.16.15.35.28.57.37.22.09.48.14.78.14.54,0,.94-.12,1.2-.36.27-.24.4-.54.4-.88,0-.28-.1-.53-.29-.75-.19-.22-.48-.38-.88-.46l-1.11-.24c-.56-.12-1.01-.36-1.37-.72-.36-.36-.53-.83-.53-1.41,0-.31.07-.6.2-.88.13-.28.31-.52.54-.74.23-.21.5-.38.82-.51.32-.13.65-.19,1.01-.19.44,0,.81.06,1.13.18.31.12.57.28.78.47.21.19.37.4.49.63.12.23.2.45.24.66l-.97.34Z"/>
    <path d="M589.49,69.21c.4,0,.76.07,1.09.21.33.14.62.34.86.59.24.25.43.54.56.89.13.34.2.71.2,1.12s-.06.78-.2,1.12c-.13.34-.32.64-.56.89-.24.25-.53.45-.86.59-.33.14-.69.21-1.09.21s-.76-.07-1.09-.21c-.33-.14-.62-.34-.86-.59-.24-.25-.43-.55-.56-.89-.13-.34-.2-.72-.2-1.12s.06-.78.2-1.12c.13-.34.32-.64.56-.89.24-.25.53-.45.86-.59.33-.14.69-.21,1.09-.21ZM589.49,73.91c.22,0,.43-.04.63-.12s.38-.2.53-.36c.15-.16.28-.36.36-.59s.13-.51.13-.81-.04-.58-.13-.81-.21-.43-.36-.59c-.15-.16-.33-.28-.53-.36-.2-.08-.41-.12-.63-.12s-.43.04-.63.12c-.2.08-.38.2-.53.36-.15.16-.28.36-.36.59s-.13.5-.13.81.04.58.13.81.21.43.36.59c.15.16.33.28.53.36s.41.12.63.12Z"/>
    <path d="M596.46,70.42c-.15-.02-.3-.03-.45-.03-.43,0-.78.13-1.05.38s-.4.67-.4,1.25v2.65h-1.04v-5.29h1.01v.92c.1-.21.21-.37.34-.5.13-.13.26-.23.4-.31.14-.08.28-.13.43-.16.15-.03.29-.04.42-.04.07,0,.14,0,.21.01.06,0,.11.02.14.02v1.1Z"/>
    <path d="M600.42,74.67v-7.8h1.08v6.79h3.68v1.01h-4.76Z"/>
    <path d="M606.45,74.67v-7.8h4.74v1h-3.66v2.4h3.32v1.01h-3.32v2.39h3.66v1h-4.74Z"/>
    <path d="M612.34,71.96v-.9h2.98v.9h-2.98Z"/>
    <path d="M616.81,74.67v-7.8h4.74v1h-3.66v2.51h3.32v1.01h-3.32v3.28h-1.08Z"/>
  </g>
  <g>
    <path d="M571.95,102.12c-.02-.14-.07-.29-.14-.45s-.18-.3-.31-.43c-.13-.13-.3-.24-.5-.32-.2-.08-.43-.13-.7-.13-.22,0-.42.03-.6.1-.18.07-.34.16-.48.27-.14.12-.24.25-.31.41s-.11.33-.11.51c0,.28.08.52.25.72s.42.34.75.41l1.17.25c.65.15,1.15.41,1.5.79.35.38.52.85.52,1.4,0,.3-.06.59-.19.87s-.3.52-.54.74c-.23.21-.52.38-.85.51-.33.13-.7.19-1.12.19-.47,0-.88-.07-1.23-.21s-.64-.32-.88-.54-.42-.47-.56-.74c-.13-.27-.22-.55-.25-.83l1.03-.33c.02.22.08.43.16.63s.21.38.36.53c.16.15.35.28.57.37.22.09.48.14.78.14.54,0,.94-.12,1.2-.36.27-.24.4-.54.4-.88,0-.28-.09-.53-.29-.75-.19-.22-.48-.38-.88-.46l-1.11-.24c-.56-.12-1.01-.36-1.37-.72-.36-.36-.53-.83-.53-1.41,0-.31.07-.6.2-.88s.31-.52.54-.74c.23-.21.5-.38.82-.51s.65-.19,1.01-.19c.44,0,.82.06,1.13.18.31.12.57.28.78.47.21.19.37.4.49.63.12.23.2.45.24.66l-.97.34Z"/>
    <path d="M574.19,104.01v-.85h5.09v.85h-5.09ZM574.19,106.15v-.87h5.09v.87h-5.09Z"/>
    <path d="M585,102.12c-.02-.14-.07-.29-.14-.45s-.18-.3-.31-.43c-.13-.13-.3-.24-.5-.32-.2-.08-.43-.13-.7-.13-.22,0-.42.03-.6.1-.18.07-.34.16-.48.27-.14.12-.24.25-.31.41s-.11.33-.11.51c0,.28.08.52.25.72s.42.34.75.41l1.17.25c.65.15,1.15.41,1.5.79.35.38.52.85.52,1.4,0,.3-.06.59-.19.87s-.3.52-.54.74c-.23.21-.52.38-.85.51-.33.13-.7.19-1.12.19-.47,0-.88-.07-1.23-.21s-.64-.32-.88-.54-.42-.47-.56-.74c-.13-.27-.22-.55-.25-.83l1.03-.33c.02.22.08.43.16.63s.21.38.36.53c.16.15.35.28.57.37.22.09.48.14.78.14.54,0,.94-.12,1.2-.36.27-.24.4-.54.4-.88,0-.28-.09-.53-.29-.75-.19-.22-.48-.38-.88-.46l-1.11-.24c-.56-.12-1.01-.36-1.37-.72-.36-.36-.53-.83-.53-1.41,0-.31.07-.6.2-.88s.31-.52.54-.74c.23-.21.5-.38.82-.51s.65-.19,1.01-.19c.44,0,.82.06,1.13.18.31.12.57.28.78.47.21.19.37.4.49.63.12.23.2.45.24.66l-.97.34Z"/>
    <path d="M588.79,102.52h1.14v.94h-1.14v2.75c0,.24.06.42.17.54.11.12.3.18.57.18.07,0,.14,0,.22-.01.08,0,.14-.02.19-.03v.88s-.13.03-.25.06c-.12.03-.28.04-.45.04-.46,0-.81-.13-1.08-.39s-.4-.63-.4-1.12v-2.9h-1.01v-.94h.29c.29,0,.49-.08.62-.23.13-.15.19-.35.19-.58v-.86h.95v1.67Z"/>
    <path d="M594.25,103.57c-.15-.02-.3-.03-.45-.03-.43,0-.78.13-1.05.38s-.4.67-.4,1.25v2.65h-1.03v-5.29h1.01v.92c.1-.21.21-.37.34-.5.13-.13.26-.23.4-.31.14-.08.28-.13.43-.16.15-.03.29-.04.42-.04.07,0,.14,0,.2.01.06,0,.11.02.14.02v1.1Z"/>
    <path d="M599.96,106.31c-.07.23-.18.45-.33.65-.14.2-.32.38-.52.53-.2.15-.43.27-.69.36-.26.09-.54.13-.85.13-.35,0-.69-.06-1.01-.19-.32-.12-.61-.31-.85-.55-.25-.24-.44-.54-.58-.89-.14-.35-.21-.75-.21-1.2,0-.42.07-.8.21-1.14.14-.34.32-.63.56-.88.23-.25.5-.44.81-.57.31-.14.63-.2.96-.2.4,0,.76.07,1.08.2s.58.32.8.57c.21.24.38.53.49.87.11.34.17.72.17,1.13,0,.07,0,.13,0,.19,0,.06,0,.11-.02.14h-3.98c0,.23.05.45.13.65.08.2.19.37.33.51.14.14.31.25.51.33.19.08.4.12.62.12.43,0,.76-.1.99-.31.23-.21.39-.46.5-.76l.89.31ZM598.91,104.62c-.01-.38-.14-.7-.39-.96-.24-.26-.6-.39-1.07-.39-.22,0-.42.04-.59.12-.17.08-.32.18-.44.31-.12.13-.22.27-.29.43-.07.16-.11.33-.12.5h2.89Z"/>
    <path d="M600.98,106.39c0-.23.04-.45.12-.63s.19-.35.34-.48c.14-.13.31-.24.51-.32.2-.08.41-.14.64-.18l1.43-.21c.16-.02.27-.07.32-.14.06-.07.08-.16.08-.25,0-.26-.09-.48-.27-.67s-.47-.28-.88-.28c-.37,0-.65.1-.85.3s-.32.46-.35.76l-.99-.23c.03-.25.1-.48.23-.69.12-.21.28-.39.47-.54.19-.15.41-.27.67-.35.25-.08.52-.13.81-.13.4,0,.73.05,1.01.16s.51.25.68.42c.18.18.3.38.38.62.08.23.12.48.12.74v2.65c0,.23,0,.42.02.56.01.14.03.24.04.31h-1.01c-.01-.07-.03-.15-.04-.26-.01-.11-.02-.26-.02-.45-.06.1-.14.19-.23.3s-.21.2-.35.29c-.14.09-.3.16-.49.21-.19.06-.4.08-.63.08-.27,0-.52-.04-.73-.13-.22-.09-.4-.2-.56-.35s-.27-.31-.36-.5c-.08-.19-.13-.39-.13-.6ZM602.89,107.11c.21,0,.41-.03.6-.08.19-.05.35-.14.48-.26.14-.12.24-.28.32-.48.08-.2.12-.45.12-.73v-.24l-1.62.24c-.22.04-.4.12-.55.25-.15.13-.22.31-.22.54,0,.2.08.38.23.53s.36.24.63.24Z"/>
    <path d="M607.06,107.81v-5.29h.99v.7c.17-.29.4-.51.7-.65s.6-.21.91-.21c.33,0,.64.08.93.24.29.16.51.41.65.76.21-.38.48-.64.79-.79s.64-.21.98-.21c.23,0,.45.04.67.12.22.08.42.2.59.37.17.17.31.37.41.63s.15.55.15.9v3.43h-1.02v-3.32c0-.34-.09-.63-.27-.86s-.46-.35-.85-.35c-.37,0-.66.13-.88.38-.22.25-.34.57-.34.95v3.2h-1.03v-3.32c0-.34-.09-.63-.26-.86s-.46-.35-.86-.35c-.37,0-.67.12-.9.37-.22.25-.33.57-.33.97v3.19h-1.02Z"/>
    <path d="M570.5,118.81v-7.8h4.74v1h-3.66v2.51h3.32v1.01h-3.32v3.28h-1.08Z"/>
    <path d="M576.28,115.01v-.85h5.09v.85h-5.09ZM576.28,117.15v-.87h5.09v.87h-5.09Z"/>
    <path d="M583.08,118.81v-7.8h4.74v1h-3.66v2.51h3.32v1.01h-3.32v3.28h-1.08Z"/>
    <path d="M591.69,114.57c-.15-.02-.3-.03-.45-.03-.43,0-.78.13-1.05.38s-.4.67-.4,1.25v2.65h-1.03v-5.29h1.01v.92c.1-.21.21-.37.34-.5.13-.13.26-.23.4-.31.14-.08.28-.13.43-.16.15-.03.29-.04.42-.04.07,0,.14,0,.2.01.06,0,.11.02.14.02v1.1Z"/>
    <path d="M592.46,117.39c0-.23.04-.45.12-.63s.19-.35.34-.48c.14-.13.31-.24.51-.32.2-.08.41-.14.64-.18l1.43-.21c.16-.02.27-.07.32-.14.06-.07.08-.16.08-.25,0-.26-.09-.48-.27-.67s-.47-.28-.88-.28c-.37,0-.65.1-.85.3s-.32.46-.35.76l-.99-.23c.03-.25.1-.48.23-.69.12-.21.28-.39.47-.54.19-.15.41-.27.67-.35.25-.08.52-.13.81-.13.4,0,.73.05,1.01.16s.51.25.68.42c.18.18.3.38.38.62.08.23.12.48.12.74v2.65c0,.23,0,.42.02.56.01.14.03.24.04.31h-1.01c-.01-.07-.03-.15-.04-.26-.01-.11-.02-.26-.02-.45-.06.1-.14.19-.23.3s-.21.2-.35.29c-.14.09-.3.16-.49.21-.19.06-.4.08-.63.08-.27,0-.52-.04-.73-.13-.22-.09-.4-.2-.56-.35s-.27-.31-.36-.5c-.08-.19-.13-.39-.13-.6ZM594.38,118.11c.21,0,.41-.03.6-.08.19-.05.35-.14.48-.26.14-.12.24-.28.32-.48.08-.2.12-.45.12-.73v-.24l-1.62.24c-.22.04-.4.12-.55.25-.15.13-.22.31-.22.54,0,.2.08.38.23.53s.36.24.63.24Z"/>
    <path d="M598.55,118.81v-5.29h.99v.7c.17-.29.4-.51.7-.65s.6-.21.91-.21c.33,0,.64.08.93.24.29.16.51.41.65.76.21-.38.48-.64.79-.79s.64-.21.98-.21c.23,0,.45.04.67.12.22.08.42.2.59.37.17.17.31.37.41.63s.15.55.15.9v3.43h-1.02v-3.32c0-.34-.09-.63-.27-.86s-.46-.35-.85-.35c-.37,0-.66.13-.88.38-.22.25-.34.57-.34.95v3.2h-1.03v-3.32c0-.34-.09-.63-.26-.86s-.46-.35-.86-.35c-.37,0-.67.12-.9.37-.22.25-.33.57-.33.97v3.19h-1.02Z"/>
    <path d="M612.58,117.31c-.07.23-.18.45-.33.65-.14.2-.32.38-.52.53-.2.15-.43.27-.69.36-.26.09-.54.13-.85.13-.35,0-.69-.06-1.01-.19-.32-.12-.61-.31-.85-.55-.25-.24-.44-.54-.58-.89-.14-.35-.21-.75-.21-1.2,0-.42.07-.8.21-1.14.14-.34.32-.63.56-.88.23-.25.5-.44.81-.57.31-.14.63-.2.96-.2.4,0,.76.07,1.08.2s.58.32.8.57c.21.24.38.53.49.87.11.34.17.72.17,1.13,0,.07,0,.13,0,.19,0,.06,0,.11-.02.14h-3.98c0,.23.05.45.13.65.08.2.19.37.33.51.14.14.31.25.51.33.19.08.4.12.62.12.43,0,.76-.1.99-.31.23-.21.39-.46.5-.76l.89.31ZM611.54,115.62c-.01-.38-.14-.7-.39-.96-.24-.26-.6-.39-1.07-.39-.22,0-.42.04-.59.12-.17.08-.32.18-.44.31-.12.13-.22.27-.29.43-.07.16-.11.33-.12.5h2.89Z"/>
  </g>
  <g>
    <path d="M341.19,110.08c.46,0,.88.06,1.24.19.36.13.67.31.94.53.26.23.47.49.64.79s.28.62.35.96l-1.02.3c-.05-.25-.14-.48-.26-.7s-.28-.4-.46-.57c-.19-.16-.41-.29-.67-.38s-.54-.14-.86-.14c-.48,0-.9.1-1.28.3s-.69.47-.94.8c-.25.33-.45.72-.58,1.15-.13.43-.2.88-.2,1.34,0,.8.2,1.43.61,1.88.41.46.97.68,1.69.68.55,0,1.04-.15,1.47-.44s.78-.73,1.03-1.32l.95.39c-.32.73-.79,1.31-1.39,1.73-.6.42-1.32.63-2.17.63-.48,0-.93-.08-1.33-.25-.4-.17-.75-.41-1.04-.72-.29-.31-.52-.67-.68-1.1s-.25-.9-.25-1.41c0-.76.12-1.43.36-2.01.24-.58.56-1.06.96-1.46.4-.39.84-.69,1.35-.89.5-.2,1.01-.3,1.53-.3Z"/>
    <path d="M349.85,115.02c0,.45-.07.87-.22,1.25s-.35.73-.6,1.01c-.26.29-.56.51-.91.68-.35.17-.73.25-1.14.25-.37,0-.71-.06-1-.19-.29-.13-.54-.3-.74-.53-.2-.22-.35-.48-.46-.78s-.16-.61-.16-.94c0-.45.07-.88.22-1.27s.35-.72.6-1.01.56-.5.92-.67.74-.24,1.15-.24c.38,0,.72.06,1.01.19.29.13.54.3.74.52.2.22.35.48.45.78.1.3.15.61.15.94ZM347.45,113.51c-.23,0-.45.05-.66.15-.21.1-.4.24-.57.43s-.3.42-.4.7-.15.6-.15.96c0,.47.12.84.36,1.12.24.28.57.42.98.42.23,0,.45-.05.67-.15.22-.1.41-.24.57-.43.17-.19.3-.43.4-.7s.15-.6.15-.96c0-.46-.12-.83-.36-1.11-.24-.28-.57-.42-1-.42Z"/>
    <path d="M353.92,118.04l.68-3.2c.01-.06.03-.12.03-.19,0-.07.01-.14.01-.22,0-.29-.08-.52-.24-.68-.16-.16-.4-.24-.73-.24-.21,0-.4.04-.57.13-.17.08-.31.19-.43.33-.12.14-.22.29-.3.47-.08.18-.14.35-.18.53l-.66,3.08h-1.03l.92-4.36c.06-.25.1-.46.11-.64s.02-.28.02-.29h1.01s0,.09-.02.21c-.01.12-.03.24-.05.37.21-.28.45-.47.73-.58.28-.11.58-.16.91-.16.46,0,.84.14,1.13.43.29.29.44.67.44,1.16,0,.08,0,.16-.02.25-.01.08-.02.17-.04.26l-.71,3.35h-1.03Z"/>
    <path d="M360.03,118.04l.68-3.2c.01-.06.03-.12.03-.19,0-.07.01-.14.01-.22,0-.29-.08-.52-.24-.68-.16-.16-.4-.24-.73-.24-.21,0-.4.04-.57.13-.17.08-.31.19-.43.33-.12.14-.22.29-.3.47-.08.18-.14.35-.18.53l-.66,3.08h-1.03l.92-4.36c.06-.25.1-.46.11-.64s.02-.28.02-.29h1.01s0,.09-.02.21c-.01.12-.03.24-.05.37.21-.28.45-.47.73-.58.28-.11.58-.16.91-.16.46,0,.84.14,1.13.43.29.29.44.67.44,1.16,0,.08,0,.16-.02.25-.01.08-.02.17-.04.26l-.71,3.35h-1.03Z"/>
    <path d="M363.82,115.69s-.01.07-.01.09v.09c0,.22.04.42.1.59.07.17.17.32.29.45.12.12.26.22.43.29.17.07.34.1.52.1.21,0,.39-.03.55-.08.17-.05.31-.12.44-.2.13-.08.24-.18.34-.28.09-.1.17-.21.23-.32l.78.51c-.1.18-.22.34-.37.5-.15.15-.33.29-.52.41-.2.12-.42.21-.66.28-.24.07-.5.1-.77.1-.33,0-.64-.05-.93-.15-.29-.1-.54-.25-.76-.46-.22-.2-.39-.45-.52-.75-.13-.3-.19-.65-.19-1.04,0-.5.08-.95.25-1.35.17-.4.38-.74.65-1.01s.58-.49.93-.63c.35-.15.71-.22,1.07-.22s.67.05.95.16.5.25.68.44c.18.19.32.41.42.67.1.26.14.55.14.86,0,.21-.02.41-.05.58-.04.17-.07.3-.1.39h-3.89ZM366.78,114.85c.01-.06.02-.13.02-.22,0-.13-.02-.27-.06-.4s-.11-.26-.2-.36c-.09-.11-.21-.19-.36-.26s-.34-.1-.56-.1-.42.04-.61.12c-.18.08-.35.18-.49.3-.14.12-.26.27-.36.43-.1.16-.17.33-.21.51h2.82Z"/>
    <path d="M372.67,114.59c-.04-.14-.09-.27-.15-.41-.07-.13-.15-.25-.26-.35s-.23-.18-.38-.24c-.15-.06-.32-.09-.52-.09-.23,0-.45.05-.66.14-.21.1-.4.24-.57.42s-.3.42-.4.7c-.1.28-.15.6-.15.98,0,.47.13.84.39,1.12.26.27.61.41,1.05.41.21,0,.38-.03.54-.09.15-.06.29-.14.41-.23.12-.1.22-.2.31-.32.08-.12.16-.24.21-.36l.88.38c-.1.2-.23.39-.37.58-.15.19-.32.35-.52.49-.2.14-.42.26-.67.34-.25.08-.53.13-.84.13-.38,0-.72-.06-1.02-.19s-.55-.3-.76-.52c-.21-.22-.37-.48-.48-.78-.11-.3-.17-.62-.17-.96,0-.47.08-.9.23-1.29s.36-.72.62-1.01c.26-.28.57-.5.92-.65.35-.15.73-.23,1.12-.23.36,0,.67.05.92.15.26.1.47.24.64.4.17.17.31.35.41.54.1.2.18.39.22.57l-.96.33Z"/>
    <path d="M374.6,116.93c0-.15.01-.28.04-.41l.6-2.84h-.97l.2-.94h.15c.32,0,.56-.08.74-.23s.29-.36.35-.63l.18-.81h.95l-.36,1.67h1.07l-.2.94h-1.07l-.58,2.78c-.02.1-.03.19-.03.25,0,.32.2.47.59.47.06,0,.12,0,.19,0,.07,0,.12,0,.17-.02l-.18.85s-.09.03-.18.05c-.09.02-.22.03-.38.03-.39,0-.7-.1-.93-.3-.23-.2-.35-.49-.35-.86Z"/>
    <path d="M378.82,115.69s-.01.07-.01.09v.09c0,.22.04.42.1.59.07.17.17.32.29.45.12.12.26.22.43.29.17.07.34.1.52.1.21,0,.39-.03.55-.08.17-.05.31-.12.44-.2.13-.08.24-.18.34-.28.09-.1.17-.21.23-.32l.78.51c-.1.18-.22.34-.37.5-.15.15-.33.29-.52.41-.2.12-.42.21-.66.28-.24.07-.5.1-.77.1-.33,0-.64-.05-.93-.15-.29-.1-.54-.25-.76-.46-.22-.2-.39-.45-.52-.75-.13-.3-.19-.65-.19-1.04,0-.5.08-.95.25-1.35.17-.4.38-.74.65-1.01s.58-.49.93-.63c.35-.15.71-.22,1.07-.22s.67.05.95.16.5.25.68.44c.18.19.32.41.42.67.1.26.14.55.14.86,0,.21-.02.41-.05.58-.04.17-.07.3-.1.39h-3.89ZM381.78,114.85c.01-.06.02-.13.02-.22,0-.13-.02-.27-.06-.4s-.11-.26-.2-.36c-.09-.11-.21-.19-.36-.26s-.34-.1-.56-.1-.42.04-.61.12c-.18.08-.35.18-.49.3-.14.12-.26.27-.36.43-.1.16-.17.33-.21.51h2.82Z"/>
    <path d="M387.24,117.37c-.17.22-.39.41-.67.56-.28.15-.58.23-.91.23s-.65-.06-.91-.18c-.26-.12-.48-.29-.66-.5-.18-.21-.31-.45-.4-.74-.09-.28-.13-.58-.13-.91,0-.43.07-.83.2-1.23.14-.39.32-.74.57-1.03.24-.3.53-.53.87-.71.34-.18.71-.26,1.12-.26.45,0,.8.08,1.07.25.27.17.46.36.58.57l.7-3.34h1.02l-1.39,6.59c-.06.28-.09.52-.1.73-.01.21-.02.36-.02.47v.07s0,.07.01.11h-.98c-.02-.07-.02-.18-.02-.31v-.14c0-.06,0-.13.02-.23ZM386.39,113.49c-.29,0-.54.07-.76.21s-.41.33-.55.55c-.15.22-.26.48-.34.75-.08.28-.12.55-.12.81,0,.42.1.76.31,1.03.21.27.52.41.95.41.25,0,.48-.06.7-.19.22-.12.4-.29.56-.51.15-.21.28-.47.36-.76s.13-.61.13-.96c0-.38-.1-.7-.3-.97-.2-.26-.51-.4-.94-.4Z"/>
    <path d="M392.74,118.04l1.65-7.8h1.1l-1.65,7.8h-1.1Z"/>
    <path d="M396.46,116.19c0,.32.11.58.31.81.2.22.48.34.84.34.29,0,.51-.07.64-.22.14-.15.2-.31.2-.48,0-.26-.17-.47-.5-.63l-.77-.35c-.31-.14-.54-.32-.7-.54s-.24-.49-.24-.8c0-.22.04-.43.13-.64.09-.21.21-.39.38-.55s.37-.28.61-.38.51-.14.81-.14c.34,0,.63.05.87.16.23.11.42.24.57.4s.25.32.32.5c.07.18.11.33.12.47l-.92.25c-.01-.1-.04-.21-.08-.31-.04-.11-.1-.2-.18-.29-.08-.09-.18-.16-.31-.22-.13-.06-.29-.09-.48-.09-.26,0-.47.07-.62.21-.15.14-.22.3-.22.48,0,.15.04.27.11.36s.18.17.31.23l.73.33c.35.16.62.37.81.62s.29.54.29.85c0,.17-.04.35-.1.54-.07.19-.18.37-.33.54-.15.17-.35.3-.6.41-.25.11-.54.17-.9.17s-.68-.06-.93-.18c-.25-.12-.46-.27-.62-.45-.16-.18-.28-.38-.35-.59s-.11-.41-.11-.6l.91-.21Z"/>
    <path d="M405.85,115.02c0,.45-.07.87-.22,1.25s-.35.73-.6,1.01c-.26.29-.56.51-.91.68-.35.17-.73.25-1.14.25-.37,0-.71-.06-1-.19-.29-.13-.54-.3-.74-.53-.2-.22-.35-.48-.46-.78s-.16-.61-.16-.94c0-.45.07-.88.22-1.27s.35-.72.6-1.01.56-.5.92-.67.74-.24,1.15-.24c.38,0,.72.06,1.01.19.29.13.54.3.74.52.2.22.35.48.45.78.1.3.15.61.15.94ZM403.44,113.51c-.23,0-.45.05-.66.15-.21.1-.4.24-.57.43s-.3.42-.4.7-.15.6-.15.96c0,.47.12.84.36,1.12.24.28.57.42.98.42.23,0,.45-.05.67-.15.22-.1.41-.24.57-.43.17-.19.3-.43.4-.7s.15-.6.15-.96c0-.46-.12-.83-.36-1.11-.24-.28-.57-.42-1-.42Z"/>
    <path d="M410.65,114.59c-.04-.14-.09-.27-.15-.41-.07-.13-.15-.25-.26-.35s-.23-.18-.38-.24c-.15-.06-.32-.09-.52-.09-.23,0-.45.05-.66.14-.21.1-.4.24-.57.42s-.3.42-.4.7c-.1.28-.15.6-.15.98,0,.47.13.84.39,1.12.26.27.61.41,1.05.41.21,0,.38-.03.54-.09.15-.06.29-.14.41-.23.12-.1.22-.2.31-.32.08-.12.16-.24.21-.36l.88.38c-.1.2-.23.39-.37.58-.15.19-.32.35-.52.49-.2.14-.42.26-.67.34-.25.08-.53.13-.84.13-.38,0-.72-.06-1.02-.19s-.55-.3-.76-.52c-.21-.22-.37-.48-.48-.78-.11-.3-.17-.62-.17-.96,0-.47.08-.9.23-1.29s.36-.72.62-1.01c.26-.28.57-.5.92-.65.35-.15.73-.23,1.12-.23.36,0,.67.05.92.15.26.1.47.24.64.4.17.17.31.35.41.54.1.2.18.39.22.57l-.96.33Z"/>
    <path d="M415.4,118.04l.68-3.2c.03-.12.04-.26.04-.41,0-.29-.08-.52-.24-.68-.16-.16-.4-.24-.73-.24-.21,0-.4.04-.57.13-.17.08-.31.19-.43.33-.12.14-.22.29-.3.47-.08.18-.14.35-.18.53l-.66,3.08h-1.03l1.69-7.96h1.03l-.66,3.11c.19-.21.41-.36.67-.46.26-.09.54-.14.85-.14.49,0,.89.14,1.18.43.3.29.45.67.45,1.16,0,.08,0,.16-.02.25-.01.08-.02.17-.04.26l-.71,3.35h-1.03Z"/>
    <path d="M421.86,113.82c-.13-.02-.26-.03-.37-.03-.43,0-.8.14-1.13.41-.33.28-.56.72-.69,1.34l-.54,2.51h-1.02l.92-4.36c.05-.24.09-.45.11-.62.02-.17.03-.28.03-.31h1.01c0,.12,0,.26-.03.43-.02.17-.04.3-.07.4.11-.18.23-.32.37-.44.14-.12.29-.21.44-.28s.31-.12.47-.15c.16-.03.31-.04.46-.04.05,0,.1,0,.16,0,.05,0,.1,0,.14.02l-.24,1.13Z"/>
    <path d="M427.39,115.02c0,.45-.07.87-.22,1.25s-.35.73-.6,1.01c-.26.29-.56.51-.91.68-.35.17-.73.25-1.14.25-.37,0-.71-.06-1-.19-.29-.13-.54-.3-.74-.53-.2-.22-.35-.48-.46-.78s-.16-.61-.16-.94c0-.45.07-.88.22-1.27s.35-.72.6-1.01.56-.5.92-.67.74-.24,1.15-.24c.38,0,.72.06,1.01.19.29.13.54.3.74.52.2.22.35.48.45.78.1.3.15.61.15.94ZM424.98,113.51c-.23,0-.45.05-.66.15-.21.1-.4.24-.57.43s-.3.42-.4.7-.15.6-.15.96c0,.47.12.84.36,1.12.24.28.57.42.98.42.23,0,.45-.05.67-.15.22-.1.41-.24.57-.43.17-.19.3-.43.4-.7s.15-.6.15-.96c0-.46-.12-.83-.36-1.11-.24-.28-.57-.42-1-.42Z"/>
    <path d="M431.46,118.04l.68-3.2c.01-.06.03-.12.03-.19,0-.07.01-.14.01-.22,0-.29-.08-.52-.24-.68-.16-.16-.4-.24-.73-.24-.21,0-.4.04-.57.13-.17.08-.31.19-.43.33-.12.14-.22.29-.3.47-.08.18-.14.35-.18.53l-.66,3.08h-1.03l.92-4.36c.06-.25.1-.46.11-.64s.02-.28.02-.29h1.01s0,.09-.02.21c-.01.12-.03.24-.05.37.21-.28.45-.47.73-.58.28-.11.58-.16.91-.16.46,0,.84.14,1.13.43.29.29.44.67.44,1.16,0,.08,0,.16-.02.25-.01.08-.02.17-.04.26l-.71,3.35h-1.03Z"/>
    <path d="M439.45,115.02c0,.45-.07.87-.22,1.25s-.35.73-.6,1.01c-.26.29-.56.51-.91.68-.35.17-.73.25-1.14.25-.37,0-.71-.06-1-.19-.29-.13-.54-.3-.74-.53-.2-.22-.35-.48-.46-.78s-.16-.61-.16-.94c0-.45.07-.88.22-1.27s.35-.72.6-1.01.56-.5.92-.67.74-.24,1.15-.24c.38,0,.72.06,1.01.19.29.13.54.3.74.52.2.22.35.48.45.78.1.3.15.61.15.94ZM437.04,113.51c-.23,0-.45.05-.66.15-.21.1-.4.24-.57.43s-.3.42-.4.7-.15.6-.15.96c0,.47.12.84.36,1.12.24.28.57.42.98.42.23,0,.45-.05.67-.15.22-.1.41-.24.57-.43.17-.19.3-.43.4-.7s.15-.6.15-.96c0-.46-.12-.83-.36-1.11-.24-.28-.57-.42-1-.42Z"/>
    <path d="M443.55,117.43c-.18.25-.4.43-.67.55-.27.12-.53.18-.78.18-.55,0-.97-.16-1.26-.47s-.44-.72-.44-1.24c0-.19.02-.39.07-.6l.66-3.09h1.03l-.65,3.07c-.01.09-.03.17-.04.26-.01.08-.02.17-.02.25,0,.27.07.5.21.68.14.18.38.27.73.27.2,0,.38-.04.53-.12.16-.08.29-.18.41-.31.12-.13.22-.28.3-.46s.14-.35.18-.54l.65-3.09h1.02l-.82,3.92c-.06.28-.09.52-.1.73-.01.21-.02.36-.02.47v.07s0,.07.01.11h-.99c-.01-.07-.02-.18-.02-.31v-.12c0-.05,0-.11.01-.19Z"/>
    <path d="M446.84,116.19c0,.32.11.58.31.81.2.22.48.34.84.34.29,0,.51-.07.64-.22.14-.15.2-.31.2-.48,0-.26-.17-.47-.5-.63l-.77-.35c-.31-.14-.54-.32-.7-.54s-.24-.49-.24-.8c0-.22.04-.43.13-.64.09-.21.21-.39.38-.55s.37-.28.61-.38.51-.14.81-.14c.34,0,.63.05.87.16.23.11.42.24.57.4s.25.32.32.5c.07.18.11.33.12.47l-.92.25c-.01-.1-.04-.21-.08-.31-.04-.11-.1-.2-.18-.29-.08-.09-.18-.16-.31-.22-.13-.06-.29-.09-.48-.09-.26,0-.47.07-.62.21-.15.14-.22.3-.22.48,0,.15.04.27.11.36s.18.17.31.23l.73.33c.35.16.62.37.81.62s.29.54.29.85c0,.17-.04.35-.1.54-.07.19-.18.37-.33.54-.15.17-.35.3-.6.41-.25.11-.54.17-.9.17s-.68-.06-.93-.18c-.25-.12-.46-.27-.62-.45-.16-.18-.28-.38-.35-.59s-.11-.41-.11-.6l.91-.21Z"/>
    <path d="M456.66,117.24c.45,0,.81-.12,1.08-.34.28-.22.41-.51.41-.88,0-.23-.06-.44-.19-.64-.13-.2-.34-.36-.64-.5l-1.03-.46c-.44-.19-.79-.45-1.04-.78s-.38-.74-.38-1.23c0-.32.07-.63.2-.91.13-.29.32-.53.55-.74.23-.21.51-.37.83-.5.32-.12.67-.18,1.04-.18.48,0,.88.08,1.21.23s.59.34.79.56c.2.22.34.46.43.72.09.26.13.49.13.71l-1.02.2c0-.1-.02-.24-.05-.4-.04-.17-.11-.32-.23-.48-.11-.15-.28-.29-.49-.4-.21-.11-.5-.17-.85-.17-.2,0-.38.03-.56.09-.18.06-.33.15-.46.26-.13.11-.23.24-.3.39-.07.15-.11.31-.11.49,0,.26.06.47.19.65s.31.32.53.42l1.07.49c.52.24.9.54,1.15.89.25.35.37.74.37,1.17,0,.31-.06.6-.19.88-.12.28-.3.52-.53.74-.23.21-.51.38-.83.51-.32.12-.68.19-1.07.19-.51,0-.94-.08-1.3-.24-.36-.16-.66-.36-.89-.61-.23-.25-.39-.53-.5-.84-.11-.31-.16-.61-.16-.91v-.07s0-.06.01-.1l1.09-.19c0,.05-.01.1-.01.13v.09c0,.22.03.44.1.65.07.21.17.4.31.57.14.17.32.3.54.4.22.1.49.15.8.15Z"/>
    <path d="M460.8,116.93c0-.15.01-.28.04-.41l.6-2.84h-.97l.2-.94h.15c.32,0,.56-.08.74-.23s.29-.36.35-.63l.18-.81h.95l-.36,1.67h1.07l-.2.94h-1.07l-.58,2.78c-.02.1-.03.19-.03.25,0,.32.2.47.59.47.06,0,.12,0,.19,0,.07,0,.12,0,.17-.02l-.18.85s-.09.03-.18.05c-.09.02-.22.03-.38.03-.39,0-.7-.1-.93-.3-.23-.2-.35-.49-.35-.86Z"/>
    <path d="M467.67,113.82c-.13-.02-.26-.03-.37-.03-.43,0-.8.14-1.13.41-.33.28-.56.72-.69,1.34l-.54,2.51h-1.02l.92-4.36c.05-.24.09-.45.11-.62.02-.17.03-.28.03-.31h1.01c0,.12,0,.26-.03.43-.02.17-.04.3-.07.4.11-.18.23-.32.37-.44.14-.12.29-.21.44-.28s.31-.12.47-.15c.16-.03.31-.04.46-.04.05,0,.1,0,.16,0,.05,0,.1,0,.14.02l-.24,1.13Z"/>
    <path d="M469.01,115.69s-.01.07-.01.09v.09c0,.22.04.42.1.59.07.17.17.32.29.45.12.12.26.22.43.29.17.07.34.1.52.1.21,0,.39-.03.55-.08.17-.05.31-.12.44-.2.13-.08.24-.18.34-.28.09-.1.17-.21.23-.32l.78.51c-.1.18-.22.34-.37.5-.15.15-.33.29-.52.41-.2.12-.42.21-.66.28-.24.07-.5.1-.77.1-.33,0-.64-.05-.93-.15-.29-.1-.54-.25-.76-.46-.22-.2-.39-.45-.52-.75-.13-.3-.19-.65-.19-1.04,0-.5.08-.95.25-1.35.17-.4.38-.74.65-1.01s.58-.49.93-.63c.35-.15.71-.22,1.07-.22s.67.05.95.16.5.25.68.44c.18.19.32.41.42.67.1.26.14.55.14.86,0,.21-.02.41-.05.58-.04.17-.07.3-.1.39h-3.89ZM471.97,114.85c.01-.06.02-.13.02-.22,0-.13-.02-.27-.06-.4s-.11-.26-.2-.36c-.09-.11-.21-.19-.36-.26s-.34-.1-.56-.1-.42.04-.61.12c-.18.08-.35.18-.49.3-.14.12-.26.27-.36.43-.1.16-.17.33-.21.51h2.82Z"/>
    <path d="M479.35,112.75l-.82,3.92c-.06.28-.09.52-.1.73-.01.21-.02.36-.02.47v.07s0,.07.01.11h-.98c-.02-.07-.02-.18-.02-.31v-.15c0-.06,0-.13.02-.21-.18.22-.41.41-.68.56-.27.15-.57.23-.9.23s-.65-.06-.91-.18c-.26-.12-.48-.29-.66-.5-.18-.21-.31-.45-.4-.74-.09-.28-.13-.58-.13-.91,0-.43.07-.83.2-1.23.14-.39.32-.74.57-1.03.24-.3.53-.53.87-.71.34-.18.71-.26,1.12-.26.45,0,.8.08,1.07.25.27.17.46.36.58.57l.14-.67h1.02ZM476.59,113.49c-.29,0-.54.07-.76.21s-.41.33-.55.55c-.15.22-.26.48-.34.75-.08.28-.12.55-.12.81,0,.42.1.76.31,1.03.21.27.52.41.95.41.25,0,.48-.06.7-.19.22-.12.4-.29.56-.51.15-.21.28-.47.36-.76s.13-.61.13-.96c0-.38-.1-.7-.3-.97-.2-.26-.51-.4-.94-.4Z"/>
    <path d="M483.16,118.04l.7-3.32c.01-.06.03-.12.03-.18,0-.06.01-.12.01-.18,0-.25-.07-.46-.21-.62-.14-.17-.38-.25-.7-.25-.37,0-.67.13-.89.38-.22.25-.36.58-.45.97l-.68,3.19h-1.02l.92-4.36c.05-.22.09-.42.11-.6.02-.18.03-.29.03-.33h1.01s0,.08-.01.19c0,.11-.02.23-.04.36.19-.23.41-.41.65-.53.24-.12.54-.18.88-.18.32,0,.6.08.83.23.23.15.39.36.5.62.27-.34.56-.57.87-.68.31-.11.63-.17.94-.17.21,0,.4.03.59.1.19.07.35.16.49.29.14.13.25.29.34.47s.13.41.13.65c0,.08,0,.16-.02.24-.01.08-.02.17-.04.25l-.74,3.43h-1.02l.7-3.32c.01-.06.03-.12.03-.18,0-.06.01-.12.01-.18,0-.23-.07-.44-.21-.6-.14-.17-.38-.25-.7-.25-.37,0-.66.13-.87.38-.22.26-.37.58-.45.96l-.68,3.2h-1.03Z"/>
    <path d="M492.29,115.83c0-.63.07-1.25.21-1.86.14-.61.35-1.19.63-1.74s.62-1.07,1.04-1.55c.41-.48.9-.91,1.45-1.29l.5.67c-.41.3-.79.65-1.15,1.03-.36.39-.67.82-.93,1.3-.26.48-.47,1-.62,1.56-.15.56-.23,1.17-.23,1.83s.09,1.25.26,1.82c.17.57.41,1.12.72,1.64l-.74.41c-.33-.51-.6-1.08-.82-1.71-.22-.63-.32-1.34-.32-2.11Z"/>
    <path d="M499.38,110.08c.46,0,.88.06,1.24.19.36.13.67.31.94.53.26.23.47.49.64.79s.28.62.35.96l-1.02.3c-.05-.25-.14-.48-.26-.7s-.28-.4-.46-.57c-.19-.16-.41-.29-.67-.38s-.54-.14-.86-.14c-.48,0-.9.1-1.28.3s-.69.47-.94.8c-.25.33-.45.72-.58,1.15-.13.43-.2.88-.2,1.34,0,.8.2,1.43.61,1.88.41.46.97.68,1.69.68.55,0,1.04-.15,1.47-.44s.78-.73,1.03-1.32l.95.39c-.32.73-.79,1.31-1.39,1.73-.6.42-1.32.63-2.17.63-.48,0-.93-.08-1.33-.25-.4-.17-.75-.41-1.04-.72-.29-.31-.52-.67-.68-1.1s-.25-.9-.25-1.41c0-.76.12-1.43.36-2.01.24-.58.56-1.06.96-1.46.4-.39.84-.69,1.35-.89.5-.2,1.01-.3,1.53-.3Z"/>
    <path d="M502.87,118.04l1.65-7.8h1.1l-1.65,7.8h-1.1Z"/>
    <path d="M508.69,117.24c.45,0,.81-.12,1.08-.34.28-.22.41-.51.41-.88,0-.23-.06-.44-.19-.64-.13-.2-.34-.36-.64-.5l-1.03-.46c-.44-.19-.79-.45-1.04-.78s-.38-.74-.38-1.23c0-.32.07-.63.2-.91.13-.29.32-.53.55-.74.23-.21.51-.37.83-.5.32-.12.67-.18,1.04-.18.48,0,.88.08,1.21.23s.59.34.79.56c.2.22.34.46.43.72.09.26.13.49.13.71l-1.02.2c0-.1-.02-.24-.05-.4-.04-.17-.11-.32-.23-.48-.11-.15-.28-.29-.49-.4-.21-.11-.5-.17-.85-.17-.2,0-.38.03-.56.09-.18.06-.33.15-.46.26-.13.11-.23.24-.3.39-.07.15-.11.31-.11.49,0,.26.06.47.19.65s.31.32.53.42l1.07.49c.52.24.9.54,1.15.89.25.35.37.74.37,1.17,0,.31-.06.6-.19.88-.12.28-.3.52-.53.74-.23.21-.51.38-.83.51-.32.12-.68.19-1.07.19-.51,0-.94-.08-1.3-.24-.36-.16-.66-.36-.89-.61-.23-.25-.39-.53-.5-.84-.11-.31-.16-.61-.16-.91v-.07s0-.06.01-.1l1.09-.19c0,.05-.01.1-.01.13v.09c0,.22.03.44.1.65.07.21.17.4.31.57.14.17.32.3.54.4.22.1.49.15.8.15Z"/>
    <path d="M514.91,113.29c0,.65-.07,1.27-.22,1.87-.15.6-.36,1.18-.64,1.72-.28.55-.63,1.06-1.04,1.53-.41.47-.89.9-1.42,1.29l-.49-.66c.41-.3.79-.65,1.15-1.03.36-.39.67-.82.93-1.29.26-.47.47-.99.62-1.56.15-.57.23-1.18.23-1.84s-.08-1.24-.25-1.81c-.17-.57-.41-1.12-.71-1.65l.73-.41c.34.53.61,1.12.83,1.77s.32,1.34.32,2.08Z"/>
  </g>
</svg>