<?xml version="1.0" encoding="UTF-8"?>
<svg id="Layer_1" data-name="Layer 1" xmlns="http://www.w3.org/2000/svg" viewBox="0 0 684 134.91">
  <defs>
    <style>
      .cls-1 {
        fill: #fff;
      }

      .cls-1, .cls-2 {
        stroke: #646569;
        stroke-miterlimit: 10;
      }

      .cls-2 {
        fill: none;
      }
    </style>
  </defs>
  <line class="cls-2" x1="139.03" y1="52.45" x2="577.89" y2="52.45"/>
  <rect class="cls-1" x="22.62" y="18.58" width="144" height="67.73"/>
  <rect class="cls-1" x="519.19" y="18.58" width="144.18" height="67.73" transform="translate(1182.56 104.88) rotate(180)"/>
  <rect class="cls-1" x="187.43" y="18.36" width="144" height="67.73"/>
  <rect class="cls-1" x="354.49" y="18.36" width="146.23" height="67.73"/>
  <g>
    <path d="M34.18,47.21v4.03h-2.5v-11.2h4.22c.57,0,1.09.09,1.56.27.47.18.87.43,1.22.74.34.32.61.7.79,1.14.18.44.28.92.28,1.44s-.09,1.01-.28,1.45c-.18.44-.45.82-.79,1.14-.34.32-.75.56-1.22.73-.47.17-.99.26-1.56.26h-1.72ZM35.65,45.07c.47,0,.86-.13,1.15-.38.29-.25.44-.6.44-1.04s-.15-.81-.44-1.06c-.29-.25-.68-.38-1.15-.38h-1.45v2.86h1.45Z"/>
    <path d="M43.61,51.24h-2.4v-11.43h2.4v4.09c.24-.24.55-.42.92-.54s.73-.17,1.08-.17c.52,0,.96.08,1.33.25.37.16.68.39.92.67s.42.62.54,1c.12.38.17.78.17,1.22v4.93h-2.4v-4.52c0-.39-.1-.71-.31-.97s-.53-.39-.97-.39c-.38,0-.68.12-.92.36-.23.24-.36.54-.38.91v4.61Z"/>
    <path d="M51.16,54.26l1.78-4.07-3.3-6.79h2.68l1.91,4.2,1.74-4.2h2.54l-4.83,10.87h-2.53Z"/>
    <path d="M61.12,48.65c.02.27.13.52.32.73.2.22.5.32.91.32.31,0,.53-.07.69-.21.15-.14.23-.29.23-.47,0-.15-.05-.28-.17-.39-.11-.11-.31-.2-.61-.26l-.9-.21c-.42-.09-.78-.22-1.07-.38-.29-.16-.54-.34-.73-.55-.19-.21-.33-.44-.41-.69-.08-.25-.13-.52-.13-.79,0-.36.07-.7.22-1.01s.36-.59.62-.83.59-.42.96-.56.77-.21,1.22-.21c.57,0,1.05.08,1.44.24s.71.36.96.59c.25.24.43.49.54.76.12.27.18.52.21.75l-1.99.36c-.03-.26-.13-.49-.31-.68s-.45-.28-.81-.28c-.23,0-.43.06-.6.18-.17.12-.25.29-.25.5,0,.17.06.3.17.39.12.09.26.16.44.19l1.04.21c.82.17,1.43.48,1.82.92.39.45.59.96.59,1.54,0,.34-.06.66-.19.98-.13.32-.32.6-.58.85-.26.25-.59.45-.98.6-.39.15-.85.23-1.37.23-.62,0-1.14-.09-1.56-.26s-.75-.39-1-.64-.44-.52-.56-.81c-.12-.28-.19-.54-.2-.76l2.04-.36Z"/>
    <path d="M66.89,40.99c0-.19.04-.37.11-.54.07-.17.17-.32.3-.45.13-.13.27-.23.44-.3.17-.07.35-.11.54-.11.4,0,.74.14,1.01.41.27.27.41.61.41,1s-.14.72-.41,1c-.27.27-.61.41-1.01.41-.19,0-.37-.04-.54-.11-.17-.07-.32-.17-.44-.3s-.23-.28-.3-.45c-.07-.17-.11-.36-.11-.54ZM67.1,51.24v-7.85h2.4v7.85h-2.4Z"/>
    <path d="M75.21,45.37c-.25,0-.49.04-.7.13-.22.08-.41.21-.57.38-.16.17-.29.37-.39.62s-.14.52-.14.84.05.59.15.83c.1.24.23.44.4.61.16.17.35.29.58.38.22.08.46.13.71.13.46,0,.83-.12,1.1-.36s.44-.51.53-.81l2.12.65c-.08.35-.23.68-.43,1.01s-.47.62-.78.87c-.32.25-.68.46-1.11.62-.42.16-.89.24-1.42.24-.59,0-1.14-.1-1.65-.31-.51-.21-.96-.49-1.33-.86-.38-.37-.68-.81-.9-1.31-.22-.51-.33-1.06-.33-1.67s.11-1.17.32-1.68.51-.95.88-1.32c.37-.37.81-.66,1.31-.86s1.04-.31,1.62-.31c.54,0,1.02.08,1.45.23.43.15.81.36,1.12.61.32.25.57.54.77.88.2.33.34.67.43,1.02l-2.15.65c-.04-.15-.11-.29-.19-.43-.08-.14-.19-.27-.32-.38-.13-.11-.28-.2-.46-.26s-.38-.09-.62-.09Z"/>
    <path d="M79.98,49.08c0-.35.06-.66.18-.93.12-.27.29-.51.5-.7.21-.2.46-.35.73-.47.28-.12.58-.21.91-.26l1.85-.29c.21-.03.36-.09.44-.19s.13-.21.13-.35c0-.23-.1-.43-.29-.6-.19-.17-.48-.25-.86-.25-.42,0-.75.12-.97.36s-.35.5-.37.8l-2.08-.43c.02-.28.11-.58.25-.88.15-.3.36-.58.64-.84.28-.25.63-.46,1.05-.63.42-.17.92-.25,1.5-.25.63,0,1.17.08,1.61.24.44.16.8.38,1.08.66s.48.6.6.97c.12.37.18.75.18,1.15v3.84c0,.31.01.57.04.81s.04.37.06.41h-2.16s-.03-.12-.05-.26c-.02-.14-.03-.35-.03-.62-.21.34-.5.61-.87.8-.37.2-.82.3-1.34.3-.43,0-.82-.07-1.15-.2-.34-.13-.62-.31-.85-.53-.23-.22-.41-.47-.53-.76-.12-.28-.18-.58-.18-.9ZM83.28,49.73c.18,0,.36-.02.53-.07.17-.05.33-.13.46-.25.13-.12.24-.28.32-.48s.13-.45.13-.76v-.35l-1.48.24c-.25.04-.46.13-.63.26-.17.13-.25.33-.25.61,0,.21.07.4.21.56.14.16.38.25.72.25Z"/>
    <path d="M89.08,51.24v-11.43h2.4v11.43h-2.4Z"/>
    <path d="M102.8,51.48c-.81,0-1.57-.14-2.27-.42-.71-.28-1.32-.67-1.84-1.18-.52-.5-.93-1.12-1.24-1.83-.31-.72-.46-1.51-.46-2.38s.16-1.67.47-2.39c.31-.72.73-1.34,1.26-1.85s1.14-.91,1.84-1.19c.7-.28,1.44-.43,2.22-.43.84,0,1.57.12,2.18.36.61.24,1.13.55,1.55.92.42.37.75.78.99,1.22.24.44.4.86.5,1.26l-2.35.74c-.04-.19-.12-.41-.25-.65s-.29-.47-.51-.69c-.22-.22-.5-.4-.85-.54-.34-.14-.76-.21-1.25-.21-.38,0-.76.07-1.14.21s-.72.34-1.03.62c-.31.28-.55.63-.74,1.07-.19.43-.28.94-.28,1.53,0,.53.09,1,.27,1.41.18.41.42.76.72,1.04.3.28.64.5,1.03.65.38.15.79.22,1.21.22.48,0,.9-.07,1.25-.21.35-.14.64-.32.87-.54s.41-.44.54-.69.22-.46.28-.66l2.38.68c-.09.39-.26.81-.5,1.26-.24.45-.57.88-1,1.27-.43.39-.96.72-1.59.99-.63.26-1.38.39-2.24.39Z"/>
    <path d="M112.08,51.24h-2.4v-11.43h2.4v4.09c.24-.24.55-.42.92-.54s.73-.17,1.08-.17c.52,0,.96.08,1.33.25.37.16.68.39.92.67s.42.62.54,1c.12.38.17.78.17,1.22v4.93h-2.4v-4.52c0-.39-.1-.71-.31-.97s-.53-.39-.97-.39c-.38,0-.68.12-.92.36-.23.24-.36.54-.38.91v4.61Z"/>
    <path d="M118.6,49.08c0-.35.06-.66.18-.93.12-.27.29-.51.5-.7.21-.2.46-.35.73-.47.28-.12.58-.21.91-.26l1.85-.29c.21-.03.36-.09.44-.19s.13-.21.13-.35c0-.23-.1-.43-.29-.6-.19-.17-.48-.25-.86-.25-.42,0-.75.12-.97.36s-.35.5-.37.8l-2.08-.43c.02-.28.11-.58.25-.88.15-.3.36-.58.64-.84.28-.25.63-.46,1.05-.63.42-.17.92-.25,1.5-.25.63,0,1.17.08,1.61.24.44.16.8.38,1.08.66s.48.6.6.97c.12.37.18.75.18,1.15v3.84c0,.31.01.57.04.81s.04.37.06.41h-2.16s-.03-.12-.05-.26c-.02-.14-.03-.35-.03-.62-.21.34-.5.61-.87.8-.37.2-.82.3-1.34.3-.43,0-.82-.07-1.15-.2-.34-.13-.62-.31-.85-.53-.23-.22-.41-.47-.53-.76-.12-.28-.18-.58-.18-.9ZM121.9,49.73c.18,0,.36-.02.53-.07.17-.05.33-.13.46-.25.13-.12.24-.28.32-.48s.13-.45.13-.76v-.35l-1.48.24c-.25.04-.46.13-.63.26-.17.13-.25.33-.25.61,0,.21.07.4.21.56.14.16.38.25.72.25Z"/>
    <path d="M130.1,51.24h-2.4v-7.85h2.32v.9c.11-.19.24-.35.41-.49.17-.14.35-.25.54-.34.19-.09.4-.16.62-.21.22-.05.42-.07.62-.07.5,0,.92.08,1.28.25.36.16.66.39.89.67s.41.62.52,1c.11.38.17.78.17,1.22v4.93h-2.4v-4.52c0-.39-.1-.71-.31-.97s-.53-.39-.97-.39c-.4,0-.72.13-.95.39-.23.26-.35.59-.35.99v4.5Z"/>
    <path d="M139.49,51.24h-2.4v-7.85h2.32v.9c.11-.19.24-.35.41-.49.17-.14.35-.25.54-.34.19-.09.4-.16.62-.21.22-.05.42-.07.62-.07.5,0,.92.08,1.28.25.36.16.66.39.89.67s.41.62.52,1c.11.38.17.78.17,1.22v4.93h-2.4v-4.52c0-.39-.1-.71-.31-.97s-.53-.39-.97-.39c-.4,0-.72.13-.95.39-.23.26-.35.59-.35.99v4.5Z"/>
    <path d="M153.63,48.98c-.09.34-.24.66-.44.96s-.45.57-.76.8c-.31.23-.66.41-1.07.54-.41.13-.86.2-1.35.2-.54,0-1.05-.09-1.55-.28s-.93-.46-1.31-.82c-.38-.36-.68-.79-.9-1.31-.22-.52-.33-1.11-.33-1.77s.11-1.2.32-1.71.5-.94.87-1.3.78-.63,1.26-.83c.47-.2.96-.29,1.47-.29,1.22,0,2.18.35,2.88,1.06.7.71,1.05,1.7,1.05,2.97,0,.17,0,.33-.02.48s-.02.24-.03.26h-5.46c.01.22.07.42.17.61.1.18.23.34.39.48s.35.24.56.32c.21.07.43.11.66.11.44,0,.79-.09,1.03-.28.25-.19.43-.44.54-.74l2.01.57ZM151.45,46.38c-.01-.15-.04-.3-.1-.46s-.15-.3-.28-.43c-.13-.13-.29-.23-.48-.32-.2-.08-.43-.13-.72-.13-.25,0-.47.04-.66.13s-.35.19-.48.32c-.13.13-.23.27-.3.43s-.11.31-.12.46h3.14Z"/>
    <path d="M155.32,51.24v-11.43h2.4v11.43h-2.4Z"/>
    <path d="M57.85,69.67v-7.8h1.08v6.79h3.68v1.01h-4.76Z"/>
    <path d="M63.88,69.67v-7.8h4.74v1h-3.66v2.4h3.32v1.01h-3.32v2.39h3.66v1h-4.74Z"/>
    <path d="M73.02,69.67v-7.8h1.1v7.8h-1.1Z"/>
    <path d="M76.43,67.96c.04.28.16.51.36.7.21.19.5.29.87.29.29,0,.52-.07.67-.21.15-.14.23-.3.23-.5,0-.17-.06-.31-.18-.43-.12-.12-.29-.2-.51-.25l-.9-.2c-.42-.09-.74-.26-.97-.53-.23-.26-.35-.58-.35-.96,0-.23.05-.44.15-.64.1-.2.23-.38.4-.53.17-.15.37-.27.6-.36.23-.09.47-.13.73-.13.36,0,.66.05.91.15.25.1.45.23.6.38.15.15.27.31.35.47.08.16.13.3.16.42l-.91.34c-.01-.07-.04-.15-.08-.25-.04-.1-.1-.2-.18-.29-.08-.09-.19-.17-.33-.24-.14-.07-.31-.1-.52-.1-.26,0-.48.07-.64.21-.16.14-.24.31-.24.49,0,.34.2.55.61.64l.86.19c.48.1.85.29,1.09.57.25.28.37.61.37,1.01,0,.19-.04.38-.12.57-.08.19-.2.37-.36.53-.16.16-.36.29-.6.39-.24.1-.53.15-.86.15-.37,0-.68-.05-.94-.15-.26-.1-.48-.23-.65-.39-.17-.15-.3-.32-.4-.5s-.15-.35-.17-.5l.94-.33Z"/>
    <path d="M83.23,64.21c.4,0,.76.07,1.09.21s.62.34.86.59c.24.25.43.54.56.88.13.34.2.71.2,1.12s-.07.78-.2,1.12-.32.64-.56.89-.53.45-.86.59c-.33.14-.69.21-1.09.21s-.76-.07-1.09-.21c-.33-.14-.62-.34-.86-.59s-.43-.55-.56-.89-.2-.72-.2-1.12.07-.78.2-1.12c.13-.34.32-.64.56-.88.24-.25.53-.45.86-.59s.69-.21,1.09-.21ZM83.23,68.91c.22,0,.43-.04.63-.12.2-.08.37-.2.53-.36.15-.16.28-.36.36-.59.09-.23.13-.51.13-.81s-.04-.58-.13-.81c-.09-.23-.21-.43-.36-.59-.15-.16-.33-.28-.53-.36-.2-.08-.41-.12-.63-.12s-.43.04-.63.12c-.2.08-.37.2-.53.36-.15.16-.28.36-.36.59-.09.23-.13.5-.13.81s.04.58.13.81c.09.24.21.43.36.59.15.16.33.28.53.36.2.08.41.12.63.12Z"/>
    <path d="M89.47,65.17c-.21,0-.41.04-.6.12-.19.08-.36.19-.51.35-.15.15-.27.35-.36.58-.09.23-.13.5-.13.81s.04.57.13.8c.09.23.21.43.35.58.15.16.32.28.52.36.2.08.4.12.62.12.25,0,.46-.04.63-.11.17-.07.32-.17.43-.28.11-.11.2-.23.27-.36.07-.13.11-.24.14-.35l.91.4c-.07.19-.16.38-.29.58s-.29.37-.48.53c-.2.16-.43.29-.7.39-.27.1-.57.15-.92.15-.39,0-.75-.07-1.07-.21-.33-.14-.61-.34-.84-.59-.24-.25-.42-.55-.56-.89s-.2-.71-.2-1.12.07-.79.2-1.13c.14-.34.32-.64.56-.88.24-.25.52-.44.85-.58.33-.14.68-.21,1.05-.21.35,0,.66.05.93.15.27.1.5.23.69.39.19.16.35.34.47.54.12.2.21.4.26.6l-.93.4c-.04-.13-.09-.26-.15-.4-.07-.13-.16-.25-.27-.36-.11-.11-.25-.19-.41-.26-.16-.07-.36-.1-.58-.1Z"/>
    <path d="M94.12,69.67h-1.03v-7.96h1.03v3.29c.19-.28.43-.48.71-.59s.58-.18.89-.18.59.05.83.16.44.25.59.44c.16.19.28.41.35.67.08.26.12.53.12.83v3.35h-1.03v-3.18c0-.18-.02-.36-.06-.52-.04-.16-.11-.3-.21-.42s-.23-.22-.38-.29c-.16-.07-.35-.1-.58-.1-.2,0-.37.04-.52.11s-.28.17-.38.3-.18.27-.24.44c-.06.17-.09.35-.09.55v3.11Z"/>
    <path d="M102.2,65.42c-.15-.02-.3-.03-.45-.03-.43,0-.78.13-1.05.38s-.4.67-.4,1.25v2.65h-1.03v-5.29h1.01v.92c.1-.21.21-.37.34-.5.13-.13.26-.23.4-.31.14-.08.28-.13.43-.16.15-.03.29-.04.42-.04.07,0,.14,0,.2.01.06,0,.11.02.14.02v1.1Z"/>
    <path d="M105.57,64.21c.4,0,.76.07,1.09.21s.62.34.86.59c.24.25.43.54.56.88.13.34.2.71.2,1.12s-.07.78-.2,1.12-.32.64-.56.89-.53.45-.86.59c-.33.14-.69.21-1.09.21s-.76-.07-1.09-.21c-.33-.14-.62-.34-.86-.59s-.43-.55-.56-.89-.2-.72-.2-1.12.07-.78.2-1.12c.13-.34.32-.64.56-.88.24-.25.53-.45.86-.59s.69-.21,1.09-.21ZM105.57,68.91c.22,0,.43-.04.63-.12.2-.08.37-.2.53-.36.15-.16.28-.36.36-.59.09-.23.13-.51.13-.81s-.04-.58-.13-.81c-.09-.23-.21-.43-.36-.59-.15-.16-.33-.28-.53-.36-.2-.08-.41-.12-.63-.12s-.43.04-.63.12c-.2.08-.37.2-.53.36-.15.16-.28.36-.36.59-.09.23-.13.5-.13.81s.04.58.13.81c.09.24.21.43.36.59.15.16.33.28.53.36.2.08.41.12.63.12Z"/>
    <path d="M110.63,69.67h-1.03v-5.29h1.01v.76c.19-.33.43-.56.73-.7.29-.14.59-.21.9-.21s.59.05.83.16.44.25.59.44c.16.19.28.41.35.67.08.26.12.53.12.83v3.35h-1.03v-3.18c0-.18-.02-.36-.06-.52-.04-.16-.11-.3-.21-.42s-.23-.22-.38-.29c-.16-.07-.35-.1-.58-.1-.21,0-.39.04-.54.12-.15.08-.28.18-.39.31s-.18.29-.23.46c-.05.18-.08.36-.08.56v3.06Z"/>
    <path d="M118.04,64.21c.4,0,.76.07,1.09.21s.62.34.86.59c.24.25.43.54.56.88.13.34.2.71.2,1.12s-.07.78-.2,1.12-.32.64-.56.89-.53.45-.86.59c-.33.14-.69.21-1.09.21s-.76-.07-1.09-.21c-.33-.14-.62-.34-.86-.59s-.43-.55-.56-.89-.2-.72-.2-1.12.07-.78.2-1.12c.13-.34.32-.64.56-.88.24-.25.53-.45.86-.59s.69-.21,1.09-.21ZM118.04,68.91c.22,0,.43-.04.63-.12.2-.08.37-.2.53-.36.15-.16.28-.36.36-.59.09-.23.13-.51.13-.81s-.04-.58-.13-.81c-.09-.23-.21-.43-.36-.59-.15-.16-.33-.28-.53-.36-.2-.08-.41-.12-.63-.12s-.43.04-.63.12c-.2.08-.37.2-.53.36-.15.16-.28.36-.36.59-.09.23-.13.5-.13.81s.04.58.13.81c.09.24.21.43.36.59.15.16.33.28.53.36.2.08.41.12.63.12Z"/>
    <path d="M125.55,69.03c-.15.28-.37.48-.66.61s-.59.19-.9.19-.58-.05-.83-.17c-.25-.11-.45-.26-.62-.45-.17-.19-.3-.41-.39-.67-.09-.26-.14-.54-.14-.84v-3.33h1.03v3.18c0,.18.02.36.07.52s.11.31.21.43c.1.12.22.22.37.3.15.07.33.11.55.11.42,0,.73-.12.94-.37.21-.25.31-.58.31-.98v-3.19h1.03v4.31c0,.21,0,.41.02.58.01.17.02.31.04.4h-.99c-.01-.06-.03-.15-.03-.28s-.01-.25-.01-.36Z"/>
    <path d="M128.73,67.96c.04.28.16.51.36.7.21.19.5.29.87.29.29,0,.52-.07.67-.21.15-.14.23-.3.23-.5,0-.17-.06-.31-.18-.43-.12-.12-.29-.2-.51-.25l-.9-.2c-.42-.09-.74-.26-.97-.53-.23-.26-.35-.58-.35-.96,0-.23.05-.44.15-.64.1-.2.23-.38.4-.53.17-.15.37-.27.6-.36.23-.09.47-.13.73-.13.36,0,.66.05.91.15.25.1.45.23.6.38.15.15.27.31.35.47.08.16.13.3.16.42l-.91.34c-.01-.07-.04-.15-.08-.25-.04-.1-.1-.2-.18-.29-.08-.09-.19-.17-.33-.24-.14-.07-.31-.1-.52-.1-.26,0-.48.07-.64.21-.16.14-.24.31-.24.49,0,.34.2.55.61.64l.86.19c.48.1.85.29,1.09.57.25.28.37.61.37,1.01,0,.19-.04.38-.12.57-.08.19-.2.37-.36.53-.16.16-.36.29-.6.39-.24.1-.53.15-.86.15-.37,0-.68-.05-.94-.15-.26-.1-.48-.23-.65-.39-.17-.15-.3-.32-.4-.5s-.15-.35-.17-.5l.94-.33Z"/>
  </g>
  <g>
    <path d="M214.2,47.21v4.03h-2.5v-11.2h4.22c.57,0,1.09.09,1.56.27.47.18.87.43,1.22.74.34.32.61.7.79,1.14.18.44.28.92.28,1.44s-.09,1.01-.28,1.45c-.18.44-.45.82-.79,1.14-.34.32-.75.56-1.22.73-.47.17-.99.26-1.56.26h-1.72ZM215.66,45.07c.47,0,.86-.13,1.15-.38.29-.25.44-.6.44-1.04s-.15-.81-.44-1.06c-.29-.25-.68-.38-1.15-.38h-1.45v2.86h1.45Z"/>
    <path d="M223.62,51.24h-2.4v-11.43h2.4v4.09c.24-.24.55-.42.92-.54s.73-.17,1.08-.17c.52,0,.96.08,1.33.25.37.16.68.39.92.67s.42.62.54,1c.12.38.17.78.17,1.22v4.93h-2.4v-4.52c0-.39-.1-.71-.31-.97s-.53-.39-.97-.39c-.38,0-.68.12-.92.36-.23.24-.36.54-.38.91v4.61Z"/>
    <path d="M231.17,54.26l1.78-4.07-3.3-6.79h2.68l1.91,4.2,1.74-4.2h2.54l-4.83,10.87h-2.53Z"/>
    <path d="M241.14,48.65c.02.27.13.52.32.73.2.22.5.32.91.32.31,0,.53-.07.69-.21.15-.14.23-.29.23-.47,0-.15-.05-.28-.17-.39-.11-.11-.31-.2-.61-.26l-.9-.21c-.42-.09-.78-.22-1.07-.38-.29-.16-.54-.34-.73-.55-.19-.21-.33-.44-.41-.69-.08-.25-.13-.52-.13-.79,0-.36.07-.7.22-1.01s.36-.59.62-.83.59-.42.96-.56.77-.21,1.22-.21c.57,0,1.05.08,1.44.24s.71.36.96.59c.25.24.43.49.54.76.12.27.18.52.21.75l-1.99.36c-.03-.26-.13-.49-.31-.68s-.45-.28-.81-.28c-.23,0-.43.06-.6.18-.17.12-.25.29-.25.5,0,.17.06.3.17.39.12.09.26.16.44.19l1.04.21c.82.17,1.43.48,1.82.92.39.45.59.96.59,1.54,0,.34-.06.66-.19.98-.13.32-.32.6-.58.85-.26.25-.59.45-.98.6-.39.15-.85.23-1.37.23-.62,0-1.14-.09-1.56-.26s-.75-.39-1-.64-.44-.52-.56-.81c-.12-.28-.19-.54-.2-.76l2.04-.36Z"/>
    <path d="M246.9,40.99c0-.19.04-.37.11-.54.07-.17.17-.32.3-.45.13-.13.27-.23.44-.3.17-.07.35-.11.54-.11.4,0,.74.14,1.01.41.27.27.41.61.41,1s-.14.72-.41,1c-.27.27-.61.41-1.01.41-.19,0-.37-.04-.54-.11-.17-.07-.32-.17-.44-.3s-.23-.28-.3-.45c-.07-.17-.11-.36-.11-.54ZM247.11,51.24v-7.85h2.4v7.85h-2.4Z"/>
    <path d="M255.23,45.37c-.25,0-.49.04-.7.13-.22.08-.41.21-.57.38-.16.17-.29.37-.39.62s-.14.52-.14.84.05.59.15.83c.1.24.23.44.4.61.16.17.35.29.58.38.22.08.46.13.71.13.46,0,.83-.12,1.1-.36s.44-.51.53-.81l2.12.65c-.08.35-.23.68-.43,1.01s-.47.62-.78.87c-.32.25-.68.46-1.11.62-.42.16-.89.24-1.42.24-.59,0-1.14-.1-1.65-.31-.51-.21-.96-.49-1.33-.86-.38-.37-.68-.81-.9-1.31-.22-.51-.33-1.06-.33-1.67s.11-1.17.32-1.68.51-.95.88-1.32c.37-.37.81-.66,1.31-.86s1.04-.31,1.62-.31c.54,0,1.02.08,1.45.23.43.15.81.36,1.12.61.32.25.57.54.77.88.2.33.34.67.43,1.02l-2.15.65c-.04-.15-.11-.29-.19-.43-.08-.14-.19-.27-.32-.38-.13-.11-.28-.2-.46-.26s-.38-.09-.62-.09Z"/>
    <path d="M260,49.08c0-.35.06-.66.18-.93.12-.27.29-.51.5-.7.21-.2.46-.35.73-.47.28-.12.58-.21.91-.26l1.85-.29c.21-.03.36-.09.44-.19s.13-.21.13-.35c0-.23-.1-.43-.29-.6-.19-.17-.48-.25-.86-.25-.42,0-.75.12-.97.36s-.35.5-.37.8l-2.08-.43c.02-.28.11-.58.25-.88.15-.3.36-.58.64-.84.28-.25.63-.46,1.05-.63.42-.17.92-.25,1.5-.25.63,0,1.17.08,1.61.24.44.16.8.38,1.08.66s.48.6.6.97c.12.37.18.75.18,1.15v3.84c0,.31.01.57.04.81s.04.37.06.41h-2.16s-.03-.12-.05-.26c-.02-.14-.03-.35-.03-.62-.21.34-.5.61-.87.8-.37.2-.82.3-1.34.3-.43,0-.82-.07-1.15-.2-.34-.13-.62-.31-.85-.53-.23-.22-.41-.47-.53-.76-.12-.28-.18-.58-.18-.9ZM263.3,49.73c.18,0,.36-.02.53-.07.17-.05.33-.13.46-.25.13-.12.24-.28.32-.48s.13-.45.13-.76v-.35l-1.48.24c-.25.04-.46.13-.63.26-.17.13-.25.33-.25.61,0,.21.07.4.21.56.14.16.38.25.72.25Z"/>
    <path d="M269.09,51.24v-11.43h2.4v11.43h-2.4Z"/>
    <path d="M277.65,51.24v-11.2h2.5v8.81h4.83v2.38h-7.33Z"/>
    <path d="M286.23,40.99c0-.19.04-.37.11-.54.07-.17.17-.32.3-.45.13-.13.27-.23.44-.3.17-.07.35-.11.54-.11.4,0,.74.14,1.01.41.27.27.41.61.41,1s-.14.72-.41,1c-.27.27-.61.41-1.01.41-.19,0-.37-.04-.54-.11-.17-.07-.32-.17-.44-.3s-.23-.28-.3-.45c-.07-.17-.11-.36-.11-.54ZM286.44,51.24v-7.85h2.4v7.85h-2.4Z"/>
    <path d="M293.34,51.24h-2.4v-7.85h2.32v.9c.11-.19.24-.35.41-.49.17-.14.35-.25.54-.34.19-.09.4-.16.62-.21.22-.05.42-.07.62-.07.5,0,.92.08,1.28.25.36.16.66.39.89.67s.41.62.52,1c.11.38.17.78.17,1.22v4.93h-2.4v-4.52c0-.39-.1-.71-.31-.97s-.53-.39-.97-.39c-.4,0-.72.13-.95.39-.23.26-.35.59-.35.99v4.5Z"/>
    <path d="M305.17,46.69l3.13,4.55h-2.94l-1.85-2.76-.77.84v1.93h-2.4v-11.43h2.4v6.22l2.38-2.64h3.11l-3.06,3.3Z"/>
  </g>
  <g>
    <path d="M363.51,51.24v-11.2h2.5v8.81h4.83v2.38h-7.33Z"/>
    <path d="M375.89,43.16c.59,0,1.14.1,1.64.31.51.21.95.49,1.32.86.37.37.67.81.88,1.31.22.5.32,1.06.32,1.67s-.11,1.17-.32,1.68-.51.95-.88,1.32c-.37.37-.81.66-1.32.86-.5.21-1.05.31-1.64.31s-1.14-.1-1.64-.31c-.5-.21-.95-.49-1.32-.86-.37-.37-.67-.81-.88-1.32s-.32-1.07-.32-1.68.11-1.17.32-1.67c.22-.51.51-.94.88-1.31.37-.37.81-.66,1.32-.86.51-.21,1.05-.31,1.64-.31ZM375.89,49.27c.23,0,.45-.04.66-.12.21-.08.4-.2.56-.36s.29-.37.39-.61c.1-.24.15-.53.15-.87s-.05-.61-.15-.86c-.1-.25-.23-.45-.39-.61-.16-.16-.35-.28-.56-.36-.21-.08-.43-.12-.66-.12s-.44.04-.66.12-.41.2-.57.36c-.16.16-.29.36-.4.61-.1.25-.15.53-.15.86s.05.61.15.86c.1.25.23.45.4.62.16.16.35.28.57.36s.43.12.66.12Z"/>
    <path d="M383.17,51.08c.08.38.27.69.57.94.29.25.67.37,1.12.37.6,0,1.07-.16,1.42-.47s.52-.82.52-1.54v-.36c-.15.21-.39.41-.73.6-.34.19-.8.29-1.37.29-.53,0-1.01-.1-1.45-.29-.44-.19-.83-.46-1.15-.8-.33-.34-.58-.75-.77-1.21-.18-.46-.28-.97-.28-1.52,0-.52.09-1.01.27-1.47.18-.46.43-.87.75-1.22.32-.35.71-.63,1.15-.84.45-.21.94-.31,1.48-.31.32,0,.6.03.84.09.25.06.46.14.64.24.18.09.33.2.44.32s.2.23.25.33v-.84h2.29v6.87c0,.57-.08,1.11-.25,1.61-.16.51-.42.95-.76,1.34-.34.39-.78.7-1.3.92s-1.16.34-1.89.34c-.57,0-1.08-.08-1.54-.24s-.85-.37-1.18-.63c-.33-.26-.6-.56-.81-.9s-.33-.68-.39-1.03l2.12-.6ZM385.14,48.83c.5,0,.9-.16,1.21-.47s.47-.73.47-1.27c0-.26-.04-.5-.13-.72-.09-.22-.21-.4-.36-.55-.15-.15-.33-.27-.54-.35-.21-.08-.42-.12-.64-.12s-.43.04-.64.12c-.21.08-.39.2-.54.35-.16.15-.28.34-.37.55-.09.22-.13.46-.13.72,0,.54.16.96.48,1.27s.72.47,1.21.47Z"/>
    <path d="M390.99,40.99c0-.19.04-.37.11-.54.07-.17.17-.32.3-.45.13-.13.27-.23.44-.3.17-.07.35-.11.54-.11.4,0,.74.14,1.01.41.27.27.41.61.41,1s-.14.72-.41,1c-.27.27-.61.41-1.01.41-.19,0-.37-.04-.54-.11-.17-.07-.32-.17-.44-.3s-.23-.28-.3-.45c-.07-.17-.11-.36-.11-.54ZM391.19,51.24v-7.85h2.4v7.85h-2.4Z"/>
    <path d="M399.31,45.37c-.25,0-.49.04-.7.13-.22.08-.41.21-.57.38-.16.17-.29.37-.39.62s-.14.52-.14.84.05.59.15.83c.1.24.23.44.4.61.16.17.35.29.58.38.22.08.46.13.71.13.46,0,.83-.12,1.1-.36s.44-.51.53-.81l2.12.65c-.08.35-.23.68-.43,1.01s-.47.62-.78.87c-.32.25-.68.46-1.11.62-.42.16-.89.24-1.42.24-.59,0-1.14-.1-1.65-.31-.51-.21-.96-.49-1.33-.86-.38-.37-.68-.81-.9-1.31-.22-.51-.33-1.06-.33-1.67s.11-1.17.32-1.68.51-.95.88-1.32c.37-.37.81-.66,1.31-.86s1.04-.31,1.62-.31c.54,0,1.02.08,1.45.23.43.15.81.36,1.12.61.32.25.57.54.77.88.2.33.34.67.43,1.02l-2.15.65c-.04-.15-.11-.29-.19-.43-.08-.14-.19-.27-.32-.38-.13-.11-.28-.2-.46-.26s-.38-.09-.62-.09Z"/>
    <path d="M404.08,49.08c0-.35.06-.66.18-.93.12-.27.29-.51.5-.7.21-.2.46-.35.73-.47.28-.12.58-.21.91-.26l1.85-.29c.21-.03.36-.09.44-.19s.13-.21.13-.35c0-.23-.1-.43-.29-.6-.19-.17-.48-.25-.86-.25-.42,0-.75.12-.97.36s-.35.5-.37.8l-2.08-.43c.02-.28.11-.58.25-.88.15-.3.36-.58.64-.84.28-.25.63-.46,1.05-.63.42-.17.92-.25,1.5-.25.63,0,1.17.08,1.61.24.44.16.8.38,1.08.66s.48.6.6.97c.12.37.18.75.18,1.15v3.84c0,.31.01.57.04.81s.04.37.06.41h-2.16s-.03-.12-.05-.26c-.02-.14-.03-.35-.03-.62-.21.34-.5.61-.87.8-.37.2-.82.3-1.34.3-.43,0-.82-.07-1.15-.2-.34-.13-.62-.31-.85-.53-.23-.22-.41-.47-.53-.76-.12-.28-.18-.58-.18-.9ZM407.38,49.73c.18,0,.36-.02.53-.07.17-.05.33-.13.46-.25.13-.12.24-.28.32-.48s.13-.45.13-.76v-.35l-1.48.24c-.25.04-.46.13-.63.26-.17.13-.25.33-.25.61,0,.21.07.4.21.56.14.16.38.25.72.25Z"/>
    <path d="M413.18,51.24v-11.43h2.4v11.43h-2.4Z"/>
    <path d="M426.76,42.43v8.81h-2.5v-8.81h-3.44v-2.39h9.4v2.39h-3.46Z"/>
    <path d="M435.34,45.76c-.14-.03-.27-.05-.39-.06-.13,0-.25-.02-.36-.02-.24,0-.47.04-.7.11-.22.07-.42.2-.58.36s-.3.39-.4.66c-.1.27-.15.61-.15,1v3.43h-2.4v-7.85h2.32v1.06c.11-.22.24-.41.4-.55.16-.15.34-.26.53-.35s.38-.14.58-.18c.19-.04.37-.06.53-.06.24,0,.45.03.63.08v2.37Z"/>
    <path d="M436.24,49.08c0-.35.06-.66.18-.93.12-.27.29-.51.5-.7.21-.2.46-.35.73-.47.28-.12.58-.21.91-.26l1.85-.29c.21-.03.36-.09.44-.19s.13-.21.13-.35c0-.23-.1-.43-.29-.6-.19-.17-.48-.25-.86-.25-.42,0-.75.12-.97.36s-.35.5-.37.8l-2.08-.43c.02-.28.11-.58.25-.88.15-.3.36-.58.64-.84.28-.25.63-.46,1.05-.63.42-.17.92-.25,1.5-.25.63,0,1.17.08,1.61.24.44.16.8.38,1.08.66s.48.6.6.97c.12.37.18.75.18,1.15v3.84c0,.31.01.57.04.81s.04.37.06.41h-2.16s-.03-.12-.05-.26c-.02-.14-.03-.35-.03-.62-.21.34-.5.61-.87.8-.37.2-.82.3-1.34.3-.43,0-.82-.07-1.15-.2-.34-.13-.62-.31-.85-.53-.23-.22-.41-.47-.53-.76-.12-.28-.18-.58-.18-.9ZM439.54,49.73c.18,0,.36-.02.53-.07.17-.05.33-.13.46-.25.13-.12.24-.28.32-.48s.13-.45.13-.76v-.35l-1.48.24c-.25.04-.46.13-.63.26-.17.13-.25.33-.25.61,0,.21.07.4.21.56.14.16.38.25.72.25Z"/>
    <path d="M447.73,51.24h-2.4v-7.85h2.32v.9c.11-.19.24-.35.41-.49.17-.14.35-.25.54-.34.19-.09.4-.16.62-.21.22-.05.42-.07.62-.07.5,0,.92.08,1.28.25.36.16.66.39.89.67s.41.62.52,1c.11.38.17.78.17,1.22v4.93h-2.4v-4.52c0-.39-.1-.71-.31-.97s-.53-.39-.97-.39c-.4,0-.72.13-.95.39-.23.26-.35.59-.35.99v4.5Z"/>
    <path d="M456.12,48.65c.02.27.13.52.32.73.2.22.5.32.91.32.31,0,.53-.07.69-.21.15-.14.23-.29.23-.47,0-.15-.05-.28-.17-.39-.11-.11-.31-.2-.61-.26l-.9-.21c-.42-.09-.78-.22-1.07-.38-.29-.16-.54-.34-.73-.55-.19-.21-.33-.44-.41-.69-.08-.25-.13-.52-.13-.79,0-.36.07-.7.22-1.01s.36-.59.62-.83.59-.42.96-.56.77-.21,1.22-.21c.57,0,1.05.08,1.44.24s.71.36.96.59c.25.24.43.49.54.76.12.27.18.52.21.75l-1.99.36c-.03-.26-.13-.49-.31-.68s-.45-.28-.81-.28c-.23,0-.43.06-.6.18-.17.12-.25.29-.25.5,0,.17.06.3.17.39.12.09.26.16.44.19l1.04.21c.82.17,1.43.48,1.82.92.39.45.59.96.59,1.54,0,.34-.06.66-.19.98-.13.32-.32.6-.58.85-.26.25-.59.45-.98.6-.39.15-.85.23-1.37.23-.62,0-1.14-.09-1.56-.26s-.75-.39-1-.64-.44-.52-.56-.81c-.12-.28-.19-.54-.2-.76l2.04-.36Z"/>
    <path d="M462.09,54.24v-10.85h2.32v.81c.17-.25.45-.48.85-.69.4-.21.88-.31,1.45-.31s1.08.1,1.53.31c.45.21.83.49,1.15.85s.55.79.72,1.29c.17.5.25,1.04.25,1.63s-.09,1.15-.28,1.66c-.18.51-.44.94-.77,1.3s-.73.65-1.18.85-.96.31-1.51.31c-.5,0-.94-.08-1.31-.23-.37-.15-.64-.34-.82-.56v3.62h-2.4ZM468.02,47.31c0-.33-.05-.61-.14-.85s-.23-.45-.39-.61c-.17-.16-.36-.28-.58-.36s-.44-.12-.67-.12-.46.04-.67.12-.41.2-.57.36-.29.37-.39.61-.14.53-.14.85.05.61.14.85c.09.24.22.45.39.61s.35.29.57.37c.22.08.44.13.67.13s.46-.04.67-.12.41-.2.58-.36c.17-.16.3-.37.39-.62.09-.25.14-.54.14-.86Z"/>
    <path d="M475.52,43.16c.59,0,1.14.1,1.64.31.51.21.95.49,1.32.86.37.37.67.81.88,1.31.22.5.32,1.06.32,1.67s-.11,1.17-.32,1.68-.51.95-.88,1.32c-.37.37-.81.66-1.32.86-.5.21-1.05.31-1.64.31s-1.14-.1-1.64-.31c-.5-.21-.95-.49-1.32-.86-.37-.37-.67-.81-.88-1.32s-.32-1.07-.32-1.68.11-1.17.32-1.67c.22-.51.51-.94.88-1.31.37-.37.81-.66,1.32-.86.51-.21,1.05-.31,1.64-.31ZM475.52,49.27c.23,0,.45-.04.66-.12.21-.08.4-.2.56-.36s.29-.37.39-.61c.1-.24.15-.53.15-.87s-.05-.61-.15-.86c-.1-.25-.23-.45-.39-.61-.16-.16-.35-.28-.56-.36-.21-.08-.43-.12-.66-.12s-.44.04-.66.12-.41.2-.57.36c-.16.16-.29.36-.4.61-.1.25-.15.53-.15.86s.05.61.15.86c.1.25.23.45.4.62.16.16.35.28.57.36s.43.12.66.12Z"/>
    <path d="M486.23,45.76c-.14-.03-.27-.05-.39-.06-.13,0-.25-.02-.36-.02-.24,0-.47.04-.7.11-.22.07-.42.2-.58.36s-.3.39-.4.66c-.1.27-.15.61-.15,1v3.43h-2.4v-7.85h2.32v1.06c.11-.22.24-.41.4-.55.16-.15.34-.26.53-.35s.38-.14.58-.18c.19-.04.37-.06.53-.06.24,0,.45.03.63.08v2.37Z"/>
    <path d="M490.81,43.39h1.53v2.1h-1.53v2.94c0,.33.08.54.24.66.16.11.37.17.63.17.13,0,.24,0,.36-.02.11-.02.2-.03.28-.05v1.99c-.05.02-.18.06-.38.13-.2.06-.49.09-.87.09-.82,0-1.46-.22-1.93-.67-.46-.45-.7-1.07-.7-1.86v-3.36h-1.39v-2.1h.39c.41,0,.72-.12.92-.36s.3-.55.3-.92v-1.01h2.15v2.29Z"/>
    <path d="M412.28,69.67v-7.8h1.08v6.79h3.68v1.01h-4.76Z"/>
    <path d="M418.31,69.67v-7.8h4.74v1h-3.66v2.4h3.32v1.01h-3.32v2.39h3.66v1h-4.74Z"/>
    <path d="M424.21,66.96v-.9h2.98v.9h-2.98Z"/>
    <path d="M431.21,61.87c.37,0,.71.05,1,.16.29.11.54.25.74.44.2.19.36.41.46.67.11.26.16.54.16.85,0,.42-.11.77-.32,1.06-.22.29-.5.5-.84.62.22.06.42.15.59.27.18.12.32.26.45.43s.21.35.27.55c.06.2.09.41.09.63,0,.31-.06.59-.18.85-.12.26-.28.48-.5.67-.21.19-.47.33-.76.44-.29.11-.62.16-.98.16h-2.73v-7.8h2.54ZM431.09,65.28c.44,0,.78-.12,1.02-.35.24-.23.36-.53.36-.9s-.13-.67-.38-.89c-.25-.22-.6-.33-1.05-.33h-1.3v2.46h1.34ZM431.25,68.72c.44,0,.79-.11,1.06-.34.27-.22.4-.53.4-.91s-.12-.68-.35-.92-.59-.36-1.07-.36h-1.54v2.52h1.5Z"/>
    <path d="M435.29,69.67v-7.8h1.1v7.8h-1.1Z"/>
    <path d="M442.38,63.98c-.02-.14-.07-.29-.14-.45-.07-.16-.18-.3-.31-.43-.13-.13-.3-.24-.5-.33-.2-.08-.43-.13-.7-.13-.22,0-.42.03-.6.1-.18.07-.34.16-.48.28s-.24.25-.31.41c-.07.16-.11.33-.11.51,0,.28.08.52.25.72.17.2.42.34.75.41l1.17.25c.65.15,1.15.41,1.5.79.35.38.52.85.52,1.4,0,.3-.06.59-.19.87-.12.28-.3.52-.54.74-.23.21-.52.38-.85.51s-.7.19-1.12.19c-.47,0-.88-.07-1.23-.21-.35-.14-.64-.32-.88-.54-.24-.22-.42-.47-.56-.74s-.22-.55-.25-.83l1.03-.33c.02.22.08.43.16.63.08.2.21.38.36.53.16.15.35.28.57.37.22.09.48.14.78.14.54,0,.94-.12,1.2-.36s.4-.54.4-.88c0-.28-.09-.53-.29-.75-.19-.22-.48-.38-.88-.46l-1.11-.24c-.56-.12-1.01-.36-1.37-.72-.36-.36-.53-.83-.53-1.41,0-.31.07-.6.2-.88.13-.28.31-.52.54-.74.23-.21.5-.38.82-.51.32-.13.65-.19,1.01-.19.44,0,.82.06,1.13.18s.57.28.78.47.37.4.49.63.2.45.24.66l-.97.34Z"/>
  </g>
  <g>
    <path d="M547.41,51.24v-11.2h2.5v8.81h4.83v2.38h-7.33Z"/>
    <path d="M559.8,43.16c.59,0,1.14.1,1.64.31s.95.49,1.32.86c.37.37.67.81.88,1.31.21.5.32,1.06.32,1.67s-.11,1.17-.32,1.68c-.22.51-.51.95-.88,1.32-.37.37-.81.66-1.32.86-.51.21-1.05.31-1.64.31s-1.14-.1-1.64-.31c-.51-.21-.95-.49-1.32-.86-.38-.37-.67-.81-.88-1.32-.22-.51-.32-1.07-.32-1.68s.11-1.17.32-1.67c.21-.51.51-.94.88-1.31.37-.37.81-.66,1.32-.86s1.05-.31,1.64-.31ZM559.8,49.27c.23,0,.45-.04.66-.12.21-.08.4-.2.56-.36.16-.16.29-.37.39-.61.1-.24.15-.53.15-.87s-.05-.61-.15-.86c-.1-.25-.23-.45-.39-.61-.16-.16-.35-.28-.56-.36-.21-.08-.43-.12-.66-.12s-.44.04-.66.12c-.21.08-.4.2-.57.36s-.29.36-.39.61c-.1.25-.15.53-.15.86s.05.61.15.86c.1.25.23.45.39.62.16.16.35.28.57.36.22.08.44.12.66.12Z"/>
    <path d="M567.08,51.08c.08.38.27.69.57.94.29.25.67.37,1.12.37.6,0,1.07-.16,1.42-.47s.52-.82.52-1.54v-.36c-.15.21-.39.41-.73.6-.34.19-.8.29-1.37.29-.53,0-1.01-.1-1.45-.29-.44-.19-.83-.46-1.15-.8-.33-.34-.58-.75-.77-1.21-.19-.46-.28-.97-.28-1.52,0-.52.09-1.01.27-1.47.18-.46.43-.87.75-1.22.32-.35.71-.63,1.15-.84s.94-.31,1.48-.31c.32,0,.6.03.85.09.25.06.46.14.64.24s.33.2.44.32c.12.12.2.23.25.33v-.84h2.29v6.87c0,.57-.08,1.11-.25,1.61-.16.51-.42.95-.76,1.34s-.78.7-1.3.92c-.53.23-1.16.34-1.89.34-.57,0-1.08-.08-1.54-.24-.46-.16-.85-.37-1.18-.63-.33-.26-.6-.56-.81-.9s-.33-.68-.39-1.03l2.12-.6ZM569.05,48.83c.5,0,.9-.16,1.21-.47s.47-.73.47-1.27c0-.26-.04-.5-.13-.72s-.21-.4-.36-.55-.33-.27-.54-.35-.42-.12-.64-.12-.43.04-.64.12-.39.2-.54.35-.28.34-.37.55-.13.46-.13.72c0,.54.16.96.48,1.27.32.31.72.47,1.21.47Z"/>
    <path d="M574.89,40.99c0-.19.04-.37.11-.54s.17-.32.3-.45c.12-.13.27-.23.44-.3.17-.07.35-.11.54-.11.4,0,.74.14,1.01.41.27.27.41.61.41,1s-.14.72-.41,1c-.28.27-.61.41-1.01.41-.19,0-.37-.04-.54-.11-.17-.07-.32-.17-.44-.3-.13-.13-.23-.28-.3-.45s-.11-.36-.11-.54ZM575.1,51.24v-7.85h2.4v7.85h-2.4Z"/>
    <path d="M583.22,45.37c-.25,0-.49.04-.7.13-.22.08-.41.21-.57.38-.16.17-.29.37-.39.62-.1.24-.14.52-.14.84s.05.59.15.83c.1.24.23.44.39.61.16.17.36.29.58.38.22.08.46.13.71.13.46,0,.83-.12,1.1-.36.27-.24.45-.51.53-.81l2.12.65c-.09.35-.23.68-.44,1.01s-.46.62-.78.87c-.32.25-.69.46-1.11.62-.42.16-.89.24-1.42.24-.59,0-1.14-.1-1.65-.31-.51-.21-.96-.49-1.33-.86-.38-.37-.68-.81-.9-1.31-.22-.51-.33-1.06-.33-1.67s.11-1.17.32-1.68c.21-.51.51-.95.88-1.32.37-.37.81-.66,1.31-.86s1.04-.31,1.62-.31c.54,0,1.02.08,1.45.23.43.15.8.36,1.12.61.31.25.57.54.77.88.2.33.34.67.43,1.02l-2.15.65c-.04-.15-.11-.29-.19-.43-.09-.14-.19-.27-.32-.38-.13-.11-.28-.2-.46-.26-.18-.06-.38-.09-.62-.09Z"/>
    <path d="M587.99,49.08c0-.35.06-.66.18-.93.12-.27.29-.51.5-.7.21-.2.46-.35.73-.47.28-.12.58-.21.91-.26l1.85-.29c.21-.03.36-.09.44-.19s.13-.21.13-.35c0-.23-.1-.43-.29-.6-.19-.17-.48-.25-.86-.25-.42,0-.75.12-.97.36s-.35.5-.37.8l-2.08-.43c.02-.28.11-.58.25-.88.15-.3.36-.58.64-.84.28-.25.63-.46,1.05-.63.42-.17.92-.25,1.5-.25.63,0,1.17.08,1.61.24.44.16.8.38,1.08.66.28.28.48.6.6.97.12.37.18.75.18,1.15v3.84c0,.31.01.57.04.81.03.23.04.37.05.41h-2.16s-.03-.12-.05-.26c-.02-.14-.03-.35-.03-.62-.21.34-.5.61-.87.8-.37.2-.82.3-1.34.3-.43,0-.82-.07-1.15-.2-.34-.13-.62-.31-.85-.53-.23-.22-.41-.47-.53-.76-.12-.28-.18-.58-.18-.9ZM591.29,49.73c.18,0,.36-.02.53-.07.17-.05.33-.13.46-.25.13-.12.24-.28.32-.48s.13-.45.13-.76v-.35l-1.48.24c-.25.04-.46.13-.63.26-.17.13-.25.33-.25.61,0,.21.07.4.21.56s.38.25.72.25Z"/>
    <path d="M597.09,51.24v-11.43h2.4v11.43h-2.4Z"/>
    <path d="M605.64,51.24v-11.2h2.5v8.81h4.83v2.38h-7.33Z"/>
    <path d="M614.22,40.99c0-.19.04-.37.11-.54.07-.17.17-.32.3-.45.13-.13.27-.23.44-.3.17-.07.35-.11.54-.11.4,0,.74.14,1.01.41s.41.61.41,1-.14.72-.41,1c-.27.27-.61.41-1.01.41-.19,0-.37-.04-.54-.11-.17-.07-.32-.17-.44-.3-.13-.13-.23-.28-.3-.45-.07-.17-.11-.36-.11-.54ZM614.43,51.24v-7.85h2.4v7.85h-2.4Z"/>
    <path d="M621.33,51.24h-2.4v-7.85h2.32v.9c.11-.19.24-.35.41-.49.17-.14.35-.25.54-.34.19-.09.4-.16.62-.21.21-.05.42-.07.62-.07.5,0,.92.08,1.28.25.36.16.66.39.89.67.24.28.41.62.52,1s.17.78.17,1.22v4.93h-2.4v-4.52c0-.39-.1-.71-.31-.97s-.53-.39-.97-.39c-.4,0-.72.13-.95.39-.23.26-.35.59-.35.99v4.5Z"/>
    <path d="M633.16,46.69l3.13,4.55h-2.94l-1.85-2.76-.77.84v1.93h-2.4v-11.43h2.4v6.22l2.38-2.64h3.11l-3.06,3.3Z"/>
    <path d="M532.5,69.67v-7.8h1.08v6.79h3.69v1.01h-4.76Z"/>
    <path d="M538.53,69.67v-7.8h4.74v1h-3.66v2.4h3.32v1.01h-3.32v2.39h3.66v1h-4.74Z"/>
    <path d="M544.42,66.96v-.9h2.98v.9h-2.98Z"/>
    <path d="M552.89,63.98c-.02-.14-.07-.29-.14-.45-.07-.16-.18-.3-.31-.43-.13-.13-.3-.24-.5-.33-.2-.08-.43-.13-.7-.13-.22,0-.42.03-.61.1-.18.07-.34.16-.48.28-.13.12-.24.25-.31.41-.07.16-.11.33-.11.51,0,.28.08.52.25.72.17.2.42.34.75.41l1.17.25c.65.15,1.15.41,1.5.79.35.38.52.85.52,1.4,0,.3-.06.59-.19.87-.12.28-.3.52-.54.74-.23.21-.52.38-.85.51s-.71.19-1.12.19c-.47,0-.88-.07-1.23-.21-.35-.14-.64-.32-.88-.54-.24-.22-.42-.47-.56-.74-.13-.28-.21-.55-.25-.83l1.03-.33c.02.22.08.43.16.63.08.2.21.38.36.53.16.15.35.28.57.37.22.09.48.14.78.14.54,0,.94-.12,1.2-.36s.4-.54.4-.88c0-.28-.1-.53-.29-.75-.19-.22-.48-.38-.88-.46l-1.11-.24c-.56-.12-1.01-.36-1.37-.72-.36-.36-.53-.83-.53-1.41,0-.31.07-.6.2-.88.13-.28.31-.52.54-.74s.5-.38.82-.51c.32-.13.65-.19,1.01-.19.44,0,.81.06,1.13.18.31.12.57.28.78.47s.37.4.49.63.2.45.24.66l-.97.34Z"/>
    <path d="M560.32,64.21c.4,0,.76.07,1.09.21s.62.34.86.59c.24.25.43.54.56.88.13.34.2.71.2,1.12s-.06.78-.2,1.12c-.13.34-.32.64-.56.89s-.53.45-.86.59c-.33.14-.69.21-1.09.21s-.76-.07-1.09-.21c-.33-.14-.62-.34-.86-.59s-.43-.55-.56-.89c-.13-.34-.2-.72-.2-1.12s.06-.78.2-1.12c.13-.34.32-.64.56-.88.24-.25.53-.45.86-.59s.69-.21,1.09-.21ZM560.32,68.91c.22,0,.43-.04.63-.12.2-.08.38-.2.53-.36.15-.16.28-.36.36-.59.09-.23.13-.51.13-.81s-.04-.58-.13-.81c-.09-.23-.21-.43-.36-.59-.15-.16-.33-.28-.53-.36-.2-.08-.41-.12-.63-.12s-.43.04-.63.12c-.2.08-.38.2-.53.36-.15.16-.28.36-.36.59-.09.23-.13.5-.13.81s.04.58.13.81c.09.24.21.43.36.59.15.16.33.28.53.36.2.08.41.12.63.12Z"/>
    <path d="M567.28,65.42c-.15-.02-.3-.03-.45-.03-.43,0-.78.13-1.05.38s-.4.67-.4,1.25v2.65h-1.04v-5.29h1.01v.92c.1-.21.21-.37.34-.5s.26-.23.4-.31c.14-.08.28-.13.43-.16.15-.03.29-.04.42-.04.07,0,.14,0,.21.01.06,0,.11.02.14.02v1.1Z"/>
    <path d="M571.24,69.67v-7.8h1.08v6.79h3.68v1.01h-4.76Z"/>
    <path d="M577.27,69.67v-7.8h4.74v1h-3.66v2.4h3.32v1.01h-3.32v2.39h3.66v1h-4.74Z"/>
    <path d="M583.16,66.96v-.9h2.98v.9h-2.98Z"/>
    <path d="M587.63,69.67v-7.8h4.74v1h-3.66v2.51h3.32v1.01h-3.32v3.28h-1.08Z"/>
    <path d="M600.38,64.38l1.38,3.98,1.17-3.98h1.09l-1.72,5.29h-1.07l-1.41-4.03-1.38,4.03h-1.09l-1.74-5.29h1.13l1.19,3.98,1.38-3.98h1.07Z"/>
    <path d="M604.82,62.38c0-.21.07-.39.21-.53.14-.14.32-.21.52-.21s.39.07.53.21c.14.14.21.32.21.53s-.07.38-.21.52c-.14.14-.32.21-.53.21s-.38-.07-.52-.21c-.14-.14-.21-.32-.21-.52ZM605.05,69.67v-5.29h1.02v5.29h-1.02Z"/>
    <path d="M609.22,64.38h1.14v.94h-1.14v2.75c0,.24.06.42.17.54s.3.18.57.18c.07,0,.14,0,.22-.01.08,0,.14-.02.19-.03v.88s-.13.04-.25.06c-.12.03-.28.04-.45.04-.46,0-.81-.13-1.08-.39-.26-.26-.4-.63-.4-1.12v-2.9h-1.01v-.94h.29c.29,0,.49-.08.62-.23.13-.15.19-.35.19-.58v-.86h.95v1.67Z"/>
    <path d="M612.78,69.67h-1.04v-7.96h1.04v3.29c.19-.28.43-.48.71-.59.29-.12.58-.18.89-.18s.59.05.83.16.44.25.59.44c.16.19.28.41.35.67.08.26.12.53.12.83v3.35h-1.04v-3.18c0-.18-.02-.36-.06-.52-.04-.16-.11-.3-.21-.42-.1-.12-.23-.22-.38-.29s-.35-.1-.58-.1c-.2,0-.37.04-.52.11s-.28.17-.38.3c-.1.12-.18.27-.24.44-.06.17-.09.35-.09.55v3.11Z"/>
    <path d="M620.78,69.67v-7.8h1.08v6.79h3.68v1.01h-4.76Z"/>
    <path d="M626.81,69.67v-7.8h4.74v1h-3.66v2.4h3.32v1.01h-3.32v2.39h3.66v1h-4.74Z"/>
    <path d="M635.74,61.87c.38,0,.71.05,1,.16.29.11.54.25.74.44.2.19.36.41.46.67.11.26.16.54.16.85,0,.42-.11.77-.32,1.06-.22.29-.5.5-.84.62.22.06.42.15.6.27.18.12.32.26.45.43s.21.35.27.55c.06.2.09.41.09.63,0,.31-.06.59-.18.85-.12.26-.28.48-.49.67-.21.19-.47.33-.76.44s-.62.16-.98.16h-2.73v-7.8h2.54ZM635.62,65.28c.44,0,.78-.12,1.02-.35.24-.23.36-.53.36-.9s-.13-.67-.38-.89c-.25-.22-.6-.33-1.05-.33h-1.3v2.46h1.34ZM635.78,68.72c.44,0,.79-.11,1.06-.34.27-.22.4-.53.4-.91s-.12-.68-.35-.92-.59-.36-1.07-.36h-1.54v2.52h1.5Z"/>
    <path d="M639.33,66.96v-.9h2.98v.9h-2.98Z"/>
    <path d="M647.17,69.83c-.51,0-.99-.09-1.46-.27-.46-.18-.88-.44-1.23-.79-.36-.34-.64-.77-.86-1.28-.21-.51-.32-1.08-.32-1.74s.11-1.23.33-1.73c.22-.5.51-.92.88-1.27.36-.34.78-.61,1.24-.79.47-.18.94-.27,1.43-.27.45,0,.86.06,1.23.18.38.12.71.28,1,.5.29.21.54.47.74.78s.35.65.46,1.02l-1,.35c-.15-.59-.43-1.05-.84-1.36-.41-.32-.94-.47-1.59-.47-.35,0-.7.06-1.03.19s-.63.32-.89.58c-.26.26-.47.58-.62.96s-.23.83-.23,1.34.08.95.23,1.34.36.71.62.97c.26.26.56.46.89.58.33.13.68.19,1.03.19.33,0,.63-.05.9-.14.27-.09.51-.23.72-.39s.38-.36.53-.59c.14-.23.25-.48.33-.74l.96.35c-.1.37-.26.7-.46,1.01-.21.31-.45.57-.74.79-.29.22-.62.39-1,.52-.38.12-.79.19-1.24.19Z"/>
  </g>
  <g>
    <path d="M571.95,100.03c-.02-.14-.07-.29-.14-.45-.07-.16-.18-.3-.31-.43-.13-.13-.3-.24-.49-.33-.2-.08-.43-.13-.71-.13-.22,0-.42.03-.6.1-.18.07-.34.16-.48.28-.14.12-.24.25-.31.41-.07.16-.11.33-.11.51,0,.28.08.52.25.72.17.2.42.34.75.41l1.17.25c.65.15,1.15.41,1.5.79.35.38.52.85.52,1.4,0,.3-.06.59-.19.87s-.3.52-.54.74-.52.38-.85.51c-.33.13-.7.19-1.12.19-.47,0-.88-.07-1.23-.21-.35-.14-.64-.32-.88-.54-.24-.22-.42-.47-.55-.74-.13-.28-.22-.55-.25-.83l1.04-.33c.02.22.07.43.16.63.08.2.21.38.36.53s.35.28.57.37c.22.09.48.14.78.14.54,0,.94-.12,1.21-.36s.4-.54.4-.88c0-.28-.09-.53-.29-.75-.19-.22-.48-.38-.88-.46l-1.11-.24c-.56-.12-1.02-.36-1.37-.72-.36-.36-.53-.83-.53-1.41,0-.31.07-.6.2-.88.13-.28.31-.52.54-.74.23-.21.5-.38.82-.51.31-.13.65-.19,1.01-.19.44,0,.82.06,1.13.18.31.12.57.28.78.47s.37.4.49.63.2.45.24.66l-.97.34Z"/>
    <path d="M574.19,101.91v-.85h5.09v.85h-5.09ZM574.19,104.05v-.87h5.09v.87h-5.09Z"/>
    <path d="M584.99,100.03c-.02-.14-.07-.29-.14-.45-.07-.16-.18-.3-.31-.43-.13-.13-.3-.24-.49-.33-.2-.08-.43-.13-.71-.13-.22,0-.42.03-.6.1-.18.07-.34.16-.48.28-.14.12-.24.25-.31.41-.07.16-.11.33-.11.51,0,.28.08.52.25.72.17.2.42.34.75.41l1.17.25c.65.15,1.15.41,1.5.79.35.38.52.85.52,1.4,0,.3-.06.59-.19.87s-.3.52-.54.74-.52.38-.85.51c-.33.13-.7.19-1.12.19-.47,0-.88-.07-1.23-.21-.35-.14-.64-.32-.88-.54-.24-.22-.42-.47-.55-.74-.13-.28-.22-.55-.25-.83l1.04-.33c.02.22.07.43.16.63.08.2.21.38.36.53s.35.28.57.37c.22.09.48.14.78.14.54,0,.94-.12,1.21-.36s.4-.54.4-.88c0-.28-.09-.53-.29-.75-.19-.22-.48-.38-.88-.46l-1.11-.24c-.56-.12-1.02-.36-1.37-.72-.36-.36-.53-.83-.53-1.41,0-.31.07-.6.2-.88.13-.28.31-.52.54-.74.23-.21.5-.38.82-.51.31-.13.65-.19,1.01-.19.44,0,.82.06,1.13.18.31.12.57.28.78.47s.37.4.49.63.2.45.24.66l-.97.34Z"/>
    <path d="M588.79,100.43h1.14v.93h-1.14v2.75c0,.24.05.42.16.54.11.12.3.18.57.18.07,0,.14,0,.22-.01s.14-.02.19-.03v.88s-.13.04-.25.06-.28.04-.45.04c-.46,0-.81-.13-1.08-.39s-.39-.63-.39-1.12v-2.9h-1.01v-.93h.29c.29,0,.49-.08.62-.23s.19-.35.19-.58v-.86h.95v1.67Z"/>
    <path d="M594.25,101.47c-.15-.02-.3-.03-.45-.03-.43,0-.78.13-1.05.38-.27.25-.4.67-.4,1.25v2.65h-1.03v-5.29h1.01v.92c.1-.21.21-.37.34-.5.13-.13.26-.23.4-.31.14-.08.28-.13.43-.16s.29-.04.42-.04c.07,0,.14,0,.2,0,.06,0,.11.02.14.02v1.1Z"/>
    <path d="M599.96,104.21c-.07.23-.18.45-.33.65-.14.2-.31.38-.52.53-.2.15-.43.27-.69.36-.26.09-.54.13-.85.13-.35,0-.69-.06-1.01-.19s-.61-.31-.85-.55c-.24-.24-.44-.54-.58-.89-.14-.35-.21-.75-.21-1.2,0-.42.07-.8.21-1.14.14-.34.32-.63.56-.88.23-.25.5-.44.81-.57.31-.14.63-.2.96-.2.4,0,.76.07,1.08.2.32.14.59.32.8.57.21.24.38.53.49.87.11.34.17.72.17,1.13,0,.07,0,.13,0,.19,0,.06,0,.11-.02.14h-3.98c0,.24.05.45.13.65.08.2.19.37.34.51.14.14.31.25.51.33.19.08.4.12.62.12.43,0,.76-.1.99-.31s.39-.46.49-.76l.89.31ZM598.91,102.53c-.02-.38-.14-.7-.39-.96-.24-.26-.6-.39-1.07-.39-.22,0-.42.04-.59.12-.17.08-.32.18-.44.31s-.22.27-.29.43c-.07.16-.11.33-.12.5h2.89Z"/>
    <path d="M600.98,104.3c0-.23.04-.45.12-.63.08-.19.19-.35.34-.48s.31-.24.51-.32c.2-.08.41-.14.64-.18l1.43-.21c.16-.02.27-.07.32-.14.05-.07.08-.16.08-.25,0-.26-.09-.48-.27-.67s-.47-.28-.88-.28c-.37,0-.65.1-.85.3-.2.2-.32.46-.35.76l-.99-.23c.03-.25.1-.48.22-.69s.28-.39.47-.54c.19-.15.41-.27.67-.35.25-.08.52-.13.81-.13.4,0,.73.05,1.01.16.28.11.51.25.68.42.18.18.3.38.38.62.08.23.12.48.12.74v2.65c0,.23,0,.42.02.56.01.14.03.24.04.31h-1.01c-.01-.07-.03-.15-.04-.26-.01-.11-.02-.26-.02-.45-.06.09-.13.19-.23.3-.1.1-.21.2-.35.29-.14.09-.3.16-.49.21s-.4.08-.63.08c-.27,0-.52-.04-.73-.13-.22-.09-.4-.2-.56-.35-.15-.14-.27-.31-.36-.5-.08-.19-.13-.39-.13-.61ZM602.89,105.01c.21,0,.41-.03.6-.08.19-.05.35-.14.48-.26.14-.12.24-.28.32-.48.08-.2.12-.45.12-.73v-.24l-1.62.24c-.22.04-.4.12-.55.25-.15.13-.22.31-.22.54,0,.2.08.38.23.53.15.16.36.24.63.24Z"/>
    <path d="M607.06,105.72v-5.29h.99v.7c.17-.29.4-.51.7-.65s.6-.21.91-.21c.33,0,.64.08.93.24.29.16.51.41.65.76.21-.38.48-.64.79-.79.32-.14.64-.21.98-.21.23,0,.45.04.67.12.22.08.42.2.59.37.17.17.31.37.41.63.1.25.15.55.15.9v3.43h-1.02v-3.32c0-.34-.09-.63-.27-.86-.18-.23-.46-.35-.85-.35-.37,0-.66.13-.88.38-.22.25-.34.57-.34.95v3.2h-1.03v-3.32c0-.34-.09-.63-.26-.86-.18-.23-.46-.35-.86-.35-.37,0-.67.12-.9.38-.22.25-.33.57-.33.97v3.19h-1.02Z"/>
    <path d="M570.5,116.72v-7.8h4.74v1h-3.66v2.51h3.32v1.01h-3.32v3.28h-1.08Z"/>
    <path d="M576.28,112.91v-.85h5.09v.85h-5.09ZM576.28,115.05v-.87h5.09v.87h-5.09Z"/>
    <path d="M583.08,116.72v-7.8h4.74v1h-3.66v2.51h3.32v1.01h-3.32v3.28h-1.08Z"/>
    <path d="M591.69,112.47c-.15-.02-.3-.03-.45-.03-.43,0-.78.13-1.05.38-.27.25-.4.67-.4,1.25v2.65h-1.03v-5.29h1.01v.92c.1-.21.21-.37.34-.5.13-.13.26-.23.4-.31.14-.08.28-.13.43-.16s.29-.04.42-.04c.07,0,.14,0,.2,0,.06,0,.11.02.14.02v1.1Z"/>
    <path d="M592.46,115.3c0-.23.04-.45.12-.63.08-.19.19-.35.34-.48.14-.13.31-.24.51-.32.2-.08.41-.14.64-.18l1.43-.21c.16-.02.27-.07.32-.14.06-.07.08-.16.08-.25,0-.26-.09-.48-.27-.67s-.47-.28-.88-.28c-.37,0-.65.1-.85.3-.2.2-.31.46-.35.76l-.99-.23c.03-.25.11-.48.23-.69s.28-.39.47-.54.41-.27.67-.35c.25-.08.52-.13.81-.13.39,0,.73.05,1.01.16.28.11.51.25.68.42s.3.38.38.62.12.48.12.74v2.65c0,.23,0,.42.02.56.02.14.03.24.04.31h-1.01c-.02-.07-.03-.15-.04-.26s-.02-.26-.02-.45c-.06.09-.14.19-.23.3-.1.1-.21.2-.35.29s-.3.16-.49.21c-.19.05-.4.08-.63.08-.27,0-.52-.04-.73-.13-.22-.09-.4-.2-.55-.35-.15-.14-.27-.31-.36-.5-.09-.19-.13-.39-.13-.61ZM594.38,116.01c.21,0,.41-.03.6-.08s.35-.14.48-.26c.13-.12.24-.28.32-.48.08-.2.12-.45.12-.73v-.24l-1.62.24c-.22.04-.4.12-.55.25-.15.13-.22.31-.22.54,0,.2.08.38.23.53.15.16.36.24.63.24Z"/>
    <path d="M598.54,116.72v-5.29h.99v.7c.17-.29.4-.51.7-.65s.6-.21.91-.21c.33,0,.64.08.93.24.29.16.51.41.65.76.21-.38.48-.64.79-.79.31-.14.64-.21.98-.21.23,0,.45.04.67.12.22.08.42.2.59.37s.31.37.41.63c.1.25.15.55.15.9v3.43h-1.02v-3.32c0-.34-.09-.63-.27-.86-.18-.23-.46-.35-.85-.35-.37,0-.66.13-.88.38-.22.25-.34.57-.34.95v3.2h-1.04v-3.32c0-.34-.09-.63-.26-.86-.18-.23-.46-.35-.86-.35-.38,0-.67.12-.9.38-.22.25-.34.57-.34.97v3.19h-1.02Z"/>
    <path d="M612.58,115.21c-.07.23-.18.45-.33.65-.14.2-.31.38-.52.53-.2.15-.43.27-.69.36-.26.09-.54.13-.85.13-.35,0-.69-.06-1.01-.19s-.61-.31-.85-.55c-.24-.24-.44-.54-.58-.89-.14-.35-.21-.75-.21-1.2,0-.42.07-.8.21-1.14.14-.34.32-.63.56-.88.23-.25.5-.44.81-.57.31-.14.63-.2.96-.2.4,0,.76.07,1.08.2.32.14.59.32.8.57.21.24.38.53.49.87.11.34.17.72.17,1.13,0,.07,0,.13,0,.19,0,.06,0,.11-.02.14h-3.98c0,.24.05.45.13.65.08.2.19.37.34.51.14.14.31.25.51.33.19.08.4.12.62.12.43,0,.76-.1.99-.31s.39-.46.49-.76l.89.31ZM611.54,113.53c-.02-.38-.14-.7-.39-.96-.24-.26-.6-.39-1.07-.39-.22,0-.42.04-.59.12-.17.08-.32.18-.44.31s-.22.27-.29.43c-.07.16-.11.33-.12.5h2.89Z"/>
    <path d="M531.46,127.72v-7.8h1.08v6.79h3.69v1.01h-4.76Z"/>
    <path d="M537.49,127.72v-7.8h4.74v1h-3.66v2.4h3.32v1.01h-3.32v2.39h3.66v1h-4.74Z"/>
    <path d="M546.42,119.92c.37,0,.71.05.99.16.29.11.54.25.74.44.2.19.36.41.46.67.11.26.16.54.16.85,0,.42-.11.77-.32,1.06-.22.29-.5.5-.84.62.22.06.42.15.59.27s.32.26.45.43c.12.17.21.35.28.55s.09.41.09.63c0,.31-.06.59-.18.85-.12.26-.28.48-.5.67-.21.19-.46.33-.76.44-.29.11-.62.16-.98.16h-2.73v-7.8h2.54ZM546.3,123.33c.44,0,.78-.12,1.02-.35.24-.23.36-.53.36-.9s-.12-.67-.38-.89c-.25-.22-.6-.33-1.05-.33h-1.3v2.46h1.34ZM546.45,126.77c.44,0,.79-.11,1.06-.34s.4-.53.4-.91-.12-.68-.35-.92-.59-.36-1.07-.36h-1.54v2.52h1.5Z"/>
    <path d="M550.01,125.01v-.9h2.98v.9h-2.98Z"/>
    <path d="M557.85,127.88c-.51,0-.99-.09-1.46-.27-.47-.18-.88-.44-1.23-.79s-.64-.77-.86-1.28-.32-1.08-.32-1.74.11-1.23.33-1.73c.22-.5.51-.92.87-1.27.36-.34.78-.61,1.24-.79.46-.18.94-.27,1.42-.27.45,0,.86.06,1.23.18.37.12.71.28,1,.5.29.21.54.47.74.78.2.31.35.65.46,1.02l-1,.35c-.15-.59-.43-1.05-.84-1.36-.41-.31-.94-.47-1.59-.47-.35,0-.7.06-1.03.19-.33.13-.63.32-.89.58-.26.26-.47.58-.62.96s-.23.83-.23,1.34.08.95.23,1.34c.15.38.36.71.62.97.26.26.56.46.89.58.33.13.68.19,1.03.19.33,0,.63-.05.9-.14.27-.09.51-.22.72-.39.21-.16.38-.36.53-.59s.26-.48.34-.74l.96.35c-.1.37-.26.7-.46,1.01-.21.31-.45.57-.74.79-.29.22-.62.39-1,.52-.38.12-.79.19-1.24.19Z"/>
    <path d="M565.36,127.72v-7.96h1.02v3.42c.12-.24.34-.44.64-.63.3-.18.67-.28,1.11-.28.4,0,.76.07,1.06.21.3.14.55.34.76.59.21.25.36.55.46.88.1.34.15.7.15,1.08s-.05.76-.17,1.11c-.11.34-.27.64-.48.89s-.46.45-.77.6c-.3.15-.65.22-1.05.22s-.74-.08-1.03-.24c-.29-.16-.52-.38-.69-.67v.77h-1.02ZM569.51,125.04c0-.57-.14-1.02-.42-1.36-.28-.33-.66-.5-1.14-.5-.23,0-.44.04-.63.13-.19.09-.36.21-.5.37-.14.16-.25.35-.32.58-.08.23-.12.49-.12.78s.04.55.12.78c.08.23.19.43.32.6.14.17.31.29.5.38.2.09.41.13.63.13.48,0,.86-.17,1.14-.52.28-.34.42-.8.42-1.38Z"/>
    <path d="M574.82,123.47c-.15-.02-.3-.03-.45-.03-.43,0-.78.13-1.05.38-.27.25-.4.67-.4,1.25v2.65h-1.04v-5.29h1.01v.92c.1-.21.21-.37.34-.5s.26-.23.4-.31c.14-.08.28-.13.43-.16.15-.03.29-.04.42-.04.07,0,.14,0,.21,0,.06,0,.11.02.14.02v1.1Z"/>
    <path d="M578.19,122.26c.39,0,.76.07,1.09.21s.62.34.86.59.43.54.56.89c.13.34.2.71.2,1.12s-.07.78-.2,1.12c-.13.34-.32.64-.56.89-.24.25-.53.45-.86.59-.33.14-.69.21-1.09.21s-.76-.07-1.09-.21c-.33-.14-.62-.34-.86-.59-.24-.25-.43-.55-.56-.89-.13-.34-.2-.72-.2-1.12s.07-.78.2-1.12c.13-.34.32-.64.56-.89s.53-.45.86-.59.69-.21,1.09-.21ZM578.19,126.96c.22,0,.43-.04.63-.12.2-.08.37-.2.53-.36.15-.16.28-.36.36-.59.09-.23.13-.51.13-.81s-.04-.58-.13-.81-.21-.43-.36-.59c-.15-.16-.33-.28-.53-.36-.2-.08-.41-.12-.63-.12s-.43.04-.63.12c-.2.08-.37.2-.53.36-.15.16-.28.36-.36.59s-.13.5-.13.81.04.58.13.81c.09.24.21.43.36.59.15.16.33.28.53.36.2.08.41.12.63.12Z"/>
    <path d="M581.88,126.3c0-.23.04-.45.12-.63.08-.19.19-.35.34-.48.14-.13.31-.24.51-.32.2-.08.41-.14.64-.18l1.43-.21c.16-.02.27-.07.32-.14.06-.07.08-.16.08-.25,0-.26-.09-.48-.27-.67s-.47-.28-.88-.28c-.37,0-.65.1-.85.3-.2.2-.31.46-.35.76l-.99-.23c.03-.25.11-.48.23-.69s.28-.39.47-.54.41-.27.67-.35c.25-.08.52-.13.81-.13.39,0,.73.05,1.01.16.28.11.51.25.68.42s.3.38.38.62.12.48.12.74v2.65c0,.23,0,.42.02.56.02.14.03.24.04.31h-1.01c-.02-.07-.03-.15-.04-.26s-.02-.26-.02-.45c-.06.09-.14.19-.23.3-.1.1-.21.2-.35.29s-.3.16-.49.21c-.19.05-.4.08-.63.08-.27,0-.52-.04-.73-.13-.22-.09-.4-.2-.55-.35-.15-.14-.27-.31-.36-.5-.09-.19-.13-.39-.13-.61ZM583.8,127.01c.21,0,.41-.03.6-.08s.35-.14.48-.26c.13-.12.24-.28.32-.48.08-.2.12-.45.12-.73v-.24l-1.62.24c-.22.04-.4.12-.55.25-.15.13-.22.31-.22.54,0,.2.08.38.23.53.15.16.36.24.63.24Z"/>
    <path d="M591.67,126.91c-.12.26-.32.48-.6.67-.27.19-.62.28-1.04.28-.39,0-.74-.07-1.04-.21s-.57-.34-.79-.59c-.21-.25-.38-.55-.5-.89-.12-.34-.18-.71-.18-1.11,0-.38.06-.73.18-1.06.12-.33.29-.63.51-.88.22-.25.48-.46.79-.61.31-.15.65-.23,1.02-.23.23,0,.44.03.62.08s.34.12.47.2c.13.08.24.18.33.29s.15.21.2.33v-3.42h1.02v6.99c0,.26,0,.47.02.65.02.18.03.29.03.33h-1c-.01-.06-.03-.15-.04-.28-.01-.13-.02-.27-.02-.43v-.09ZM588.58,125.05c0,.27.03.52.1.75s.17.43.3.6c.13.17.29.3.48.4.19.1.41.14.66.14.23,0,.45-.05.64-.15.19-.1.35-.23.48-.4.13-.17.23-.37.3-.61s.11-.49.11-.76c0-.55-.13-.99-.4-1.33-.27-.34-.64-.51-1.12-.51-.23,0-.45.05-.64.14-.2.09-.36.22-.49.38-.14.17-.24.36-.31.59-.07.23-.11.48-.11.75Z"/>
    <path d="M596.65,123.22c-.21,0-.41.04-.6.12-.19.08-.36.19-.51.35s-.27.35-.36.58-.13.5-.13.81.04.57.13.8c.09.23.21.42.35.58.15.16.32.28.52.36.2.08.4.12.62.12.25,0,.46-.04.63-.11s.31-.17.43-.28c.11-.11.2-.23.27-.36.06-.13.11-.24.14-.35l.91.4c-.07.19-.16.38-.29.58-.12.2-.29.37-.48.53-.2.16-.43.29-.7.39-.27.1-.57.15-.92.15-.39,0-.75-.07-1.07-.21-.33-.14-.61-.34-.84-.59-.23-.25-.42-.55-.55-.89-.14-.34-.2-.71-.2-1.12s.07-.79.2-1.13c.13-.34.32-.64.56-.88s.52-.44.85-.58c.33-.14.68-.21,1.05-.21.35,0,.66.05.93.15.27.1.5.23.69.39.2.16.35.34.47.54.12.2.21.4.26.6l-.94.4c-.04-.13-.09-.26-.15-.4s-.16-.25-.27-.36-.25-.19-.41-.26c-.16-.07-.36-.11-.58-.11Z"/>
    <path d="M599.93,126.3c0-.23.04-.45.12-.63.08-.19.19-.35.34-.48.14-.13.31-.24.51-.32.2-.08.41-.14.64-.18l1.43-.21c.16-.02.27-.07.32-.14.06-.07.08-.16.08-.25,0-.26-.09-.48-.27-.67s-.47-.28-.88-.28c-.37,0-.65.1-.85.3-.2.2-.31.46-.35.76l-.99-.23c.03-.25.11-.48.23-.69s.28-.39.47-.54.41-.27.67-.35c.25-.08.52-.13.81-.13.39,0,.73.05,1.01.16.28.11.51.25.68.42s.3.38.38.62.12.48.12.74v2.65c0,.23,0,.42.02.56.02.14.03.24.04.31h-1.01c-.02-.07-.03-.15-.04-.26s-.02-.26-.02-.45c-.06.09-.14.19-.23.3-.1.1-.21.2-.35.29s-.3.16-.49.21c-.19.05-.4.08-.63.08-.27,0-.52-.04-.73-.13-.22-.09-.4-.2-.55-.35-.15-.14-.27-.31-.36-.5-.09-.19-.13-.39-.13-.61ZM601.85,127.01c.21,0,.41-.03.6-.08s.35-.14.48-.26c.13-.12.24-.28.32-.48.08-.2.12-.45.12-.73v-.24l-1.62.24c-.22.04-.4.12-.55.25-.15.13-.22.31-.22.54,0,.2.08.38.23.53.15.16.36.24.63.24Z"/>
    <path d="M606.46,126.01c.04.28.16.51.36.7.21.19.5.29.87.29.29,0,.52-.07.67-.21.15-.14.23-.3.23-.5,0-.17-.06-.31-.18-.43-.12-.12-.29-.2-.51-.25l-.9-.2c-.42-.09-.74-.26-.97-.53-.23-.26-.35-.58-.35-.96,0-.23.05-.44.15-.64.1-.2.23-.38.4-.53.17-.15.37-.28.6-.36s.47-.13.73-.13c.36,0,.66.05.91.15.25.1.45.23.6.38s.27.31.35.47c.08.16.13.3.16.42l-.91.34c-.02-.07-.04-.15-.08-.25-.04-.1-.1-.2-.18-.29-.08-.09-.19-.17-.33-.24s-.31-.1-.52-.1c-.26,0-.48.07-.64.21-.16.14-.24.31-.24.49,0,.34.2.55.61.64l.86.19c.48.1.85.29,1.09.57.25.27.37.61.37,1.01,0,.19-.04.38-.12.57-.08.19-.2.37-.36.53-.16.16-.36.29-.6.39-.24.1-.53.15-.86.15-.37,0-.68-.05-.94-.15s-.48-.23-.65-.39c-.17-.15-.3-.32-.4-.5s-.15-.35-.17-.5l.94-.33Z"/>
    <path d="M612.37,122.43h1.14v.93h-1.14v2.75c0,.24.06.42.17.54s.3.18.57.18c.07,0,.14,0,.22-.01.08,0,.14-.02.19-.03v.88s-.13.04-.25.06c-.12.03-.28.04-.45.04-.46,0-.81-.13-1.08-.39s-.4-.63-.4-1.12v-2.9h-1.01v-.93h.29c.29,0,.49-.08.62-.23.13-.15.19-.35.19-.58v-.86h.95v1.67Z"/>
    <path d="M619.87,123.22c-.21,0-.41.04-.61.12-.19.08-.36.19-.51.35s-.27.35-.36.58-.13.5-.13.81.04.57.13.8c.09.23.21.42.35.58.15.16.32.28.52.36.2.08.4.12.62.12.25,0,.46-.04.63-.11.17-.07.32-.17.43-.28.11-.11.2-.23.27-.36.07-.13.11-.24.14-.35l.91.4c-.07.19-.16.38-.29.58-.12.2-.29.37-.48.53-.2.16-.43.29-.7.39-.27.1-.57.15-.92.15-.39,0-.75-.07-1.07-.21-.33-.14-.61-.34-.84-.59-.24-.25-.42-.55-.56-.89-.13-.34-.2-.71-.2-1.12s.07-.79.2-1.13c.14-.34.32-.64.56-.88s.52-.44.85-.58c.33-.14.68-.21,1.05-.21.35,0,.66.05.93.15.27.1.5.23.69.39.19.16.35.34.47.54s.21.4.26.6l-.93.4c-.04-.13-.09-.26-.15-.4-.07-.13-.16-.25-.27-.36-.12-.11-.25-.19-.41-.26-.16-.07-.36-.11-.58-.11Z"/>
    <path d="M625.74,122.26c.39,0,.76.07,1.09.21s.62.34.86.59.43.54.56.89c.13.34.2.71.2,1.12s-.07.78-.2,1.12c-.13.34-.32.64-.56.89-.24.25-.53.45-.86.59-.33.14-.69.21-1.09.21s-.76-.07-1.09-.21c-.33-.14-.62-.34-.86-.59-.24-.25-.43-.55-.56-.89-.13-.34-.2-.72-.2-1.12s.07-.78.2-1.12c.13-.34.32-.64.56-.89s.53-.45.86-.59.69-.21,1.09-.21ZM625.74,126.96c.22,0,.43-.04.63-.12.2-.08.37-.2.53-.36.15-.16.28-.36.36-.59.09-.23.13-.51.13-.81s-.04-.58-.13-.81-.21-.43-.36-.59c-.15-.16-.33-.28-.53-.36-.2-.08-.41-.12-.63-.12s-.43.04-.63.12c-.2.08-.37.2-.53.36-.15.16-.28.36-.36.59s-.13.5-.13.81.04.58.13.81c.09.24.21.43.36.59.15.16.33.28.53.36.2.08.41.12.63.12Z"/>
    <path d="M630.8,127.72h-1.03v-5.29h1.01v.76c.19-.33.43-.56.73-.7.29-.14.59-.21.9-.21s.59.05.83.16.44.25.59.44c.16.19.28.41.35.67s.12.53.12.83v3.36h-1.03v-3.18c0-.18-.02-.36-.06-.52-.04-.16-.11-.3-.21-.42-.1-.12-.23-.22-.38-.29-.16-.07-.35-.1-.58-.1-.21,0-.38.04-.54.12-.15.08-.28.18-.38.31-.1.13-.18.29-.23.46-.05.18-.08.36-.08.56v3.06Z"/>
    <path d="M637.33,122.43h1.14v.93h-1.14v2.75c0,.24.06.42.17.54s.3.18.57.18c.07,0,.14,0,.22-.01.08,0,.14-.02.19-.03v.88s-.13.04-.25.06c-.12.03-.28.04-.45.04-.46,0-.81-.13-1.08-.39s-.4-.63-.4-1.12v-2.9h-1.01v-.93h.29c.29,0,.49-.08.62-.23.13-.15.19-.35.19-.58v-.86h.95v1.67Z"/>
    <path d="M642.79,123.47c-.15-.02-.3-.03-.45-.03-.43,0-.78.13-1.05.38-.27.25-.4.67-.4,1.25v2.65h-1.04v-5.29h1.01v.92c.1-.21.21-.37.34-.5s.26-.23.4-.31c.14-.08.28-.13.43-.16.15-.03.29-.04.42-.04.07,0,.14,0,.21,0,.06,0,.11.02.14.02v1.1Z"/>
    <path d="M646.16,122.26c.39,0,.76.07,1.09.21s.62.34.86.59.43.54.56.89c.13.34.2.71.2,1.12s-.07.78-.2,1.12c-.13.34-.32.64-.56.89-.24.25-.53.45-.86.59-.33.14-.69.21-1.09.21s-.76-.07-1.09-.21c-.33-.14-.62-.34-.86-.59-.24-.25-.43-.55-.56-.89-.13-.34-.2-.72-.2-1.12s.07-.78.2-1.12c.13-.34.32-.64.56-.89s.53-.45.86-.59.69-.21,1.09-.21ZM646.16,126.96c.22,0,.43-.04.63-.12.2-.08.37-.2.53-.36.15-.16.28-.36.36-.59.09-.23.13-.51.13-.81s-.04-.58-.13-.81-.21-.43-.36-.59c-.15-.16-.33-.28-.53-.36-.2-.08-.41-.12-.63-.12s-.43.04-.63.12c-.2.08-.37.2-.53.36-.15.16-.28.36-.36.59s-.13.5-.13.81.04.58.13.81c.09.24.21.43.36.59.15.16.33.28.53.36.2.08.41.12.63.12Z"/>
    <path d="M650.18,127.72v-7.96h1.03v7.96h-1.03Z"/>
  </g>
  <g>
    <path d="M346.39,110.25c.33,0,.62.05.88.14.25.09.46.22.64.37.17.16.3.35.38.57.08.22.13.46.13.7,0,.24-.04.46-.11.68-.07.22-.18.42-.31.6-.14.18-.3.34-.5.48s-.41.24-.64.3c.33.1.6.29.81.57.21.28.32.61.32,1,0,.34-.07.65-.2.94-.13.29-.32.54-.55.75-.23.21-.51.38-.84.5-.33.12-.68.18-1.07.18h-2.94l1.65-7.8h2.35ZM345.17,117.1c.24,0,.47-.04.68-.11.21-.07.39-.18.54-.31s.27-.29.36-.47.13-.38.13-.59c0-.31-.1-.56-.29-.75s-.51-.29-.96-.29h-1.43l-.53,2.52h1.51ZM345.65,113.66c.25,0,.48-.04.69-.11s.39-.18.53-.31c.14-.13.25-.29.34-.46.08-.18.12-.37.12-.58,0-.31-.1-.55-.3-.73-.2-.18-.5-.27-.9-.27h-1.21l-.53,2.46h1.26Z"/>
    <path d="M352.67,113.82c-.13-.02-.26-.03-.37-.03-.43,0-.8.14-1.13.41-.33.28-.56.72-.69,1.34l-.54,2.51h-1.02l.92-4.36c.05-.24.09-.45.11-.62.02-.17.03-.28.03-.31h1.01c0,.12,0,.26-.03.43-.02.17-.04.3-.07.4.11-.18.23-.32.37-.44.14-.12.29-.21.44-.28.15-.07.31-.12.47-.15.16-.03.31-.04.46-.04.05,0,.1,0,.16,0,.05,0,.1,0,.14.02l-.24,1.13Z"/>
    <path d="M358.2,115.02c0,.45-.07.87-.22,1.25s-.35.73-.6,1.01c-.26.29-.56.51-.91.68-.35.17-.73.25-1.14.25-.37,0-.71-.06-1-.19-.29-.13-.54-.3-.74-.53-.2-.22-.35-.48-.46-.78s-.16-.61-.16-.94c0-.45.07-.88.22-1.26s.35-.72.6-1.01.56-.5.92-.67.74-.24,1.15-.24c.38,0,.72.06,1.01.19.29.13.54.3.74.52s.35.48.45.78c.1.3.15.61.15.94ZM355.79,113.51c-.23,0-.45.05-.66.15-.21.1-.4.24-.57.43-.17.19-.3.42-.4.7-.1.28-.15.6-.15.96,0,.47.12.84.36,1.12.24.28.57.42.98.42.23,0,.45-.05.67-.15.22-.1.41-.24.57-.43.17-.19.3-.43.4-.7.1-.28.15-.6.15-.96,0-.46-.12-.83-.36-1.11s-.57-.42-1-.42Z"/>
    <path d="M364.49,112.75l-.82,3.92c-.06.28-.09.52-.1.73-.01.21-.02.36-.02.47v.07s0,.07.01.11h-.98c-.02-.07-.02-.18-.02-.31v-.15c0-.06,0-.13.02-.21-.18.22-.41.41-.68.55-.27.15-.57.23-.9.23s-.65-.06-.91-.18c-.26-.12-.48-.29-.66-.5-.18-.21-.31-.46-.4-.74s-.13-.58-.13-.91c0-.43.07-.83.2-1.23s.32-.74.57-1.03.53-.53.87-.71c.34-.18.71-.26,1.12-.26.45,0,.8.08,1.07.25s.46.36.58.57l.14-.67h1.02ZM361.73,113.49c-.29,0-.54.07-.76.21-.22.14-.41.33-.55.55-.15.22-.26.48-.34.75s-.12.55-.12.81c0,.42.1.76.31,1.03.21.27.52.41.95.41.25,0,.48-.06.7-.19.22-.12.4-.29.56-.51.15-.21.28-.46.36-.76.09-.29.13-.61.13-.96,0-.38-.1-.7-.3-.97-.2-.26-.51-.4-.94-.4Z"/>
    <path d="M368.82,117.37c-.17.22-.39.41-.67.55-.28.15-.58.23-.91.23s-.65-.06-.91-.18c-.26-.12-.48-.29-.66-.5-.18-.21-.31-.46-.4-.74s-.13-.58-.13-.91c0-.43.07-.83.2-1.23s.32-.74.57-1.03.53-.53.87-.71c.34-.18.71-.26,1.12-.26.45,0,.8.08,1.07.25s.46.36.58.57l.7-3.34h1.02l-1.39,6.59c-.06.28-.09.52-.1.73-.01.21-.02.36-.02.47v.07s0,.07.01.11h-.98c-.02-.07-.02-.18-.02-.31v-.14c0-.06,0-.13.02-.23ZM367.97,113.49c-.29,0-.54.07-.76.21-.22.14-.41.33-.55.55-.15.22-.26.48-.34.75s-.12.55-.12.81c0,.42.1.76.31,1.03.21.27.52.41.95.41.25,0,.48-.06.7-.19.22-.12.4-.29.56-.51.15-.21.28-.46.36-.76.09-.29.13-.61.13-.96,0-.38-.1-.7-.3-.97-.2-.26-.51-.4-.94-.4Z"/>
    <path d="M375.47,114.59c-.04-.14-.09-.28-.15-.41-.07-.13-.15-.25-.26-.35-.11-.1-.23-.18-.38-.24-.15-.06-.32-.09-.52-.09-.23,0-.45.05-.66.14-.21.1-.4.24-.57.42-.17.19-.3.42-.4.7-.1.28-.15.61-.15.98,0,.47.13.84.39,1.12.26.28.61.41,1.05.41.21,0,.38-.03.54-.09.15-.06.29-.13.41-.23s.22-.2.31-.32c.08-.12.16-.24.21-.36l.88.38c-.1.2-.23.39-.37.58-.15.19-.32.35-.52.5s-.42.26-.67.34-.53.13-.84.13c-.38,0-.72-.06-1.02-.19-.3-.12-.55-.3-.76-.52s-.37-.48-.48-.78c-.11-.3-.17-.62-.17-.96,0-.47.08-.9.23-1.29s.36-.72.62-1.01c.26-.28.57-.5.92-.66.35-.15.73-.23,1.12-.23.36,0,.67.05.92.15.26.1.47.24.64.4.17.17.31.35.41.54s.18.39.22.57l-.96.33Z"/>
    <path d="M382.45,112.75l-.82,3.92c-.06.28-.09.52-.1.73-.01.21-.02.36-.02.47v.07s0,.07.01.11h-.98c-.02-.07-.02-.18-.02-.31v-.15c0-.06,0-.13.02-.21-.18.22-.41.41-.68.55-.27.15-.57.23-.9.23s-.65-.06-.91-.18c-.26-.12-.48-.29-.66-.5-.18-.21-.31-.46-.4-.74s-.13-.58-.13-.91c0-.43.07-.83.2-1.23s.32-.74.57-1.03.53-.53.87-.71c.34-.18.71-.26,1.12-.26.45,0,.8.08,1.07.25s.46.36.58.57l.14-.67h1.02ZM379.69,113.49c-.29,0-.54.07-.76.21-.22.14-.41.33-.55.55-.15.22-.26.48-.34.75s-.12.55-.12.81c0,.42.1.76.31,1.03.21.27.52.41.95.41.25,0,.48-.06.7-.19.22-.12.4-.29.56-.51.15-.21.28-.46.36-.76.09-.29.13-.61.13-.96,0-.38-.1-.7-.3-.97-.2-.26-.51-.4-.94-.4Z"/>
    <path d="M383.8,116.19c0,.32.11.58.31.81.2.22.48.34.84.34.29,0,.51-.07.64-.22.14-.15.2-.31.2-.48,0-.26-.17-.47-.5-.63l-.77-.35c-.31-.14-.54-.32-.7-.54s-.24-.49-.24-.8c0-.22.04-.43.13-.64.09-.21.21-.39.38-.55.17-.16.37-.28.61-.38.24-.09.51-.14.81-.14.34,0,.63.05.87.16.23.11.42.24.57.4.15.16.25.32.32.5s.11.33.12.47l-.92.25c-.01-.1-.04-.21-.08-.31-.04-.11-.1-.2-.18-.29-.08-.09-.18-.16-.31-.22-.13-.06-.29-.09-.48-.09-.26,0-.47.07-.62.21-.15.14-.22.3-.22.48,0,.15.04.27.11.36.07.1.18.17.31.23l.73.33c.35.16.62.37.81.62s.29.54.29.85c0,.17-.04.35-.1.54-.07.19-.18.37-.33.54-.15.17-.35.3-.6.41-.25.11-.54.17-.9.17s-.68-.06-.93-.18c-.25-.12-.46-.27-.62-.45-.16-.18-.28-.38-.35-.59s-.11-.41-.11-.61l.91-.21Z"/>
    <path d="M388.5,116.93c0-.15.01-.28.04-.41l.6-2.84h-.97l.2-.93h.15c.32,0,.56-.08.74-.23.18-.15.29-.36.35-.63l.18-.81h.95l-.36,1.67h1.07l-.2.93h-1.07l-.58,2.78c-.02.1-.03.19-.03.25,0,.32.2.47.59.47.06,0,.12,0,.19,0s.12,0,.17-.02l-.18.85s-.09.03-.18.05-.22.03-.38.03c-.39,0-.7-.1-.93-.3-.23-.2-.35-.49-.35-.86Z"/>
    <path d="M394.59,118.04l1.65-7.8h1.1l-1.65,7.8h-1.1Z"/>
    <path d="M398.31,116.19c0,.32.11.58.31.81.2.22.48.34.84.34.29,0,.51-.07.64-.22.14-.15.2-.31.2-.48,0-.26-.17-.47-.5-.63l-.77-.35c-.31-.14-.54-.32-.7-.54s-.24-.49-.24-.8c0-.22.04-.43.13-.64.09-.21.21-.39.38-.55.17-.16.37-.28.61-.38.24-.09.51-.14.81-.14.34,0,.63.05.87.16.23.11.42.24.57.4.15.16.25.32.32.5s.11.33.12.47l-.92.25c-.01-.1-.04-.21-.08-.31-.04-.11-.1-.2-.18-.29-.08-.09-.18-.16-.31-.22-.13-.06-.29-.09-.48-.09-.26,0-.47.07-.62.21-.15.14-.22.3-.22.48,0,.15.04.27.11.36.07.1.18.17.31.23l.73.33c.35.16.62.37.81.62s.29.54.29.85c0,.17-.04.35-.1.54-.07.19-.18.37-.33.54-.15.17-.35.3-.6.41-.25.11-.54.17-.9.17s-.68-.06-.93-.18c-.25-.12-.46-.27-.62-.45-.16-.18-.28-.38-.35-.59s-.11-.41-.11-.61l.91-.21Z"/>
    <path d="M407.7,115.02c0,.45-.07.87-.22,1.25s-.35.73-.6,1.01c-.26.29-.56.51-.91.68-.35.17-.73.25-1.14.25-.37,0-.71-.06-1-.19-.29-.13-.54-.3-.74-.53-.2-.22-.35-.48-.46-.78s-.16-.61-.16-.94c0-.45.07-.88.22-1.26s.35-.72.6-1.01.56-.5.92-.67.74-.24,1.15-.24c.38,0,.72.06,1.01.19.29.13.54.3.74.52s.35.48.45.78c.1.3.15.61.15.94ZM405.29,113.51c-.23,0-.45.05-.66.15-.21.1-.4.24-.57.43-.17.19-.3.42-.4.7-.1.28-.15.6-.15.96,0,.47.12.84.36,1.12.24.28.57.42.98.42.23,0,.45-.05.67-.15.22-.1.41-.24.57-.43.17-.19.3-.43.4-.7.1-.28.15-.6.15-.96,0-.46-.12-.83-.36-1.11s-.57-.42-1-.42Z"/>
    <path d="M412.5,114.59c-.04-.14-.09-.28-.15-.41-.07-.13-.15-.25-.26-.35-.11-.1-.23-.18-.38-.24-.15-.06-.32-.09-.52-.09-.23,0-.45.05-.66.14-.21.1-.4.24-.57.42-.17.19-.3.42-.4.7-.1.28-.15.61-.15.98,0,.47.13.84.39,1.12.26.28.61.41,1.05.41.21,0,.38-.03.54-.09.15-.06.29-.13.41-.23s.22-.2.31-.32c.08-.12.16-.24.21-.36l.88.38c-.1.2-.23.39-.37.58-.15.19-.32.35-.52.5s-.42.26-.67.34-.53.13-.84.13c-.38,0-.72-.06-1.02-.19-.3-.12-.55-.3-.76-.52s-.37-.48-.48-.78c-.11-.3-.17-.62-.17-.96,0-.47.08-.9.23-1.29s.36-.72.62-1.01c.26-.28.57-.5.92-.66.35-.15.73-.23,1.12-.23.36,0,.67.05.92.15.26.1.47.24.64.4.17.17.31.35.41.54s.18.39.22.57l-.96.33Z"/>
    <path d="M417.25,118.04l.68-3.2c.03-.12.04-.26.04-.41,0-.29-.08-.52-.24-.68s-.4-.24-.73-.24c-.21,0-.4.04-.57.13-.17.08-.31.19-.43.33-.12.14-.22.29-.3.47s-.14.35-.18.53l-.66,3.08h-1.03l1.69-7.96h1.03l-.66,3.11c.19-.21.41-.36.67-.46s.54-.14.85-.14c.49,0,.89.14,1.18.43.3.29.45.67.45,1.16,0,.08,0,.16-.02.25-.01.08-.02.17-.04.26l-.71,3.36h-1.03Z"/>
    <path d="M423.71,113.82c-.13-.02-.26-.03-.37-.03-.43,0-.8.14-1.13.41-.33.28-.56.72-.69,1.34l-.54,2.51h-1.02l.92-4.36c.05-.24.09-.45.11-.62.02-.17.03-.28.03-.31h1.01c0,.12,0,.26-.03.43-.02.17-.04.3-.07.4.11-.18.23-.32.37-.44.14-.12.29-.21.44-.28.15-.07.31-.12.47-.15.16-.03.31-.04.46-.04.05,0,.1,0,.16,0,.05,0,.1,0,.14.02l-.24,1.13Z"/>
    <path d="M429.24,115.02c0,.45-.07.87-.22,1.25s-.35.73-.6,1.01c-.26.29-.56.51-.91.68-.35.17-.73.25-1.14.25-.37,0-.71-.06-1-.19-.29-.13-.54-.3-.74-.53-.2-.22-.35-.48-.46-.78s-.16-.61-.16-.94c0-.45.07-.88.22-1.26s.35-.72.6-1.01.56-.5.92-.67.74-.24,1.15-.24c.38,0,.72.06,1.01.19.29.13.54.3.74.52s.35.48.45.78c.1.3.15.61.15.94ZM426.83,113.51c-.23,0-.45.05-.66.15-.21.1-.4.24-.57.43-.17.19-.3.42-.4.7-.1.28-.15.6-.15.96,0,.47.12.84.36,1.12.24.28.57.42.98.42.23,0,.45-.05.67-.15.22-.1.41-.24.57-.43.17-.19.3-.43.4-.7.1-.28.15-.6.15-.96,0-.46-.12-.83-.36-1.11s-.57-.42-1-.42Z"/>
    <path d="M433.31,118.04l.68-3.2c.01-.06.03-.12.03-.19,0-.07.01-.14.01-.22,0-.29-.08-.52-.24-.68s-.4-.24-.73-.24c-.21,0-.4.04-.57.13-.17.08-.31.19-.43.33-.12.14-.22.29-.3.47s-.14.35-.18.53l-.66,3.08h-1.03l.92-4.36c.06-.25.1-.46.11-.64s.02-.28.02-.29h1.01s0,.09-.02.21c-.01.12-.03.24-.05.37.21-.28.45-.47.73-.58.28-.11.58-.16.91-.16.46,0,.84.14,1.13.43.29.29.44.67.44,1.16,0,.08,0,.16-.02.25-.01.08-.02.17-.04.26l-.71,3.36h-1.03Z"/>
    <path d="M441.29,115.02c0,.45-.07.87-.22,1.25s-.35.73-.6,1.01c-.26.29-.56.51-.91.68-.35.17-.73.25-1.14.25-.37,0-.71-.06-1-.19-.29-.13-.54-.3-.74-.53-.2-.22-.35-.48-.46-.78s-.16-.61-.16-.94c0-.45.07-.88.22-1.26s.35-.72.6-1.01.56-.5.92-.67.74-.24,1.15-.24c.38,0,.72.06,1.01.19.29.13.54.3.74.52s.35.48.45.78c.1.3.15.61.15.94ZM438.89,113.51c-.23,0-.45.05-.66.15-.21.1-.4.24-.57.43-.17.19-.3.42-.4.7-.1.28-.15.6-.15.96,0,.47.12.84.36,1.12.24.28.57.42.98.42.23,0,.45-.05.67-.15.22-.1.41-.24.57-.43.17-.19.3-.43.4-.7.1-.28.15-.6.15-.96,0-.46-.12-.83-.36-1.11s-.57-.42-1-.42Z"/>
    <path d="M445.4,117.43c-.18.25-.4.43-.67.55-.27.12-.53.18-.78.18-.55,0-.97-.16-1.26-.47s-.44-.72-.44-1.24c0-.19.02-.39.07-.6l.66-3.09h1.03l-.65,3.07c-.01.09-.03.17-.04.26-.01.08-.02.17-.02.25,0,.27.07.5.21.68.14.18.38.27.73.27.2,0,.38-.04.53-.12.16-.08.29-.18.41-.31s.22-.28.3-.46c.08-.17.14-.35.18-.54l.65-3.09h1.02l-.82,3.92c-.06.28-.09.52-.1.73-.01.21-.02.36-.02.47v.07s0,.07.01.11h-.99c-.01-.07-.02-.18-.02-.31v-.12c0-.05,0-.11.01-.19Z"/>
    <path d="M448.69,116.19c0,.32.11.58.31.81.2.22.48.34.84.34.29,0,.51-.07.64-.22.14-.15.2-.31.2-.48,0-.26-.17-.47-.5-.63l-.77-.35c-.31-.14-.54-.32-.7-.54s-.24-.49-.24-.8c0-.22.04-.43.13-.64.09-.21.21-.39.38-.55.17-.16.37-.28.61-.38.24-.09.51-.14.81-.14.34,0,.63.05.87.16.23.11.42.24.57.4.15.16.25.32.32.5s.11.33.12.47l-.92.25c-.01-.1-.04-.21-.08-.31-.04-.11-.1-.2-.18-.29-.08-.09-.18-.16-.31-.22-.13-.06-.29-.09-.48-.09-.26,0-.47.07-.62.21-.15.14-.22.3-.22.48,0,.15.04.27.11.36.07.1.18.17.31.23l.73.33c.35.16.62.37.81.62s.29.54.29.85c0,.17-.04.35-.1.54-.07.19-.18.37-.33.54-.15.17-.35.3-.6.41-.25.11-.54.17-.9.17s-.68-.06-.93-.18c-.25-.12-.46-.27-.62-.45-.16-.18-.28-.38-.35-.59s-.11-.41-.11-.61l.91-.21Z"/>
    <path d="M458.51,117.24c.45,0,.81-.12,1.08-.34.28-.22.41-.51.41-.88,0-.23-.06-.44-.19-.64-.13-.2-.34-.36-.64-.5l-1.03-.46c-.44-.19-.79-.45-1.04-.78s-.38-.74-.38-1.23c0-.32.07-.63.2-.91.13-.29.32-.53.55-.74.23-.21.51-.37.83-.5.32-.12.67-.18,1.04-.18.48,0,.88.08,1.21.23s.59.33.79.55c.2.22.34.46.43.72.09.26.13.49.13.71l-1.02.2c0-.1-.02-.24-.05-.4-.04-.17-.11-.32-.23-.48-.11-.15-.28-.29-.49-.4-.21-.11-.5-.17-.85-.17-.2,0-.38.03-.56.09-.18.06-.33.15-.46.26-.13.11-.23.24-.3.39s-.11.31-.11.49c0,.26.06.47.19.65s.31.32.53.42l1.07.5c.52.24.9.54,1.15.89.25.35.37.74.37,1.17,0,.31-.06.6-.19.88-.12.28-.3.52-.53.74-.23.21-.51.38-.83.51-.32.12-.68.19-1.07.19-.51,0-.94-.08-1.3-.24-.36-.16-.66-.36-.89-.61-.23-.25-.39-.53-.5-.84-.11-.31-.16-.61-.16-.91v-.07s0-.06.01-.1l1.09-.19c0,.05-.01.1-.01.13v.09c0,.22.03.44.1.65.07.21.17.4.31.57.14.17.32.3.54.4.22.1.49.15.8.15Z"/>
    <path d="M462.65,116.93c0-.15.01-.28.04-.41l.6-2.84h-.97l.2-.93h.15c.32,0,.56-.08.74-.23.18-.15.29-.36.35-.63l.18-.81h.95l-.36,1.67h1.07l-.2.93h-1.07l-.58,2.78c-.02.1-.03.19-.03.25,0,.32.2.47.59.47.06,0,.12,0,.19,0s.12,0,.17-.02l-.18.85s-.09.03-.18.05-.22.03-.38.03c-.39,0-.7-.1-.93-.3-.23-.2-.35-.49-.35-.86Z"/>
    <path d="M469.52,113.82c-.13-.02-.26-.03-.37-.03-.43,0-.8.14-1.13.41-.33.28-.56.72-.69,1.34l-.54,2.51h-1.02l.92-4.36c.05-.24.09-.45.11-.62.02-.17.03-.28.03-.31h1.01c0,.12,0,.26-.03.43-.02.17-.04.3-.07.4.11-.18.23-.32.37-.44.14-.12.29-.21.44-.28.15-.07.31-.12.47-.15.16-.03.31-.04.46-.04.05,0,.1,0,.16,0,.05,0,.1,0,.14.02l-.24,1.13Z"/>
    <path d="M470.86,115.69s-.01.07-.01.09v.09c0,.22.04.42.1.59.07.17.17.32.29.45.12.12.26.22.43.29.17.07.34.1.52.1.21,0,.39-.03.55-.08.17-.05.31-.12.44-.2.13-.08.24-.18.34-.28.09-.1.17-.21.23-.32l.78.51c-.1.18-.22.34-.37.5-.15.15-.33.29-.52.41-.2.12-.42.21-.66.28-.24.07-.5.1-.77.1-.33,0-.64-.05-.93-.15-.29-.1-.54-.25-.76-.46-.22-.2-.39-.45-.52-.75-.13-.3-.19-.65-.19-1.04,0-.5.08-.95.25-1.35s.38-.74.65-1.01c.27-.28.58-.49.93-.63s.71-.22,1.07-.22.67.05.95.16.5.25.68.44c.18.19.32.41.42.67.1.26.14.55.14.86,0,.21-.02.41-.05.58-.04.17-.07.3-.1.39h-3.89ZM473.82,114.85c.01-.06.02-.13.02-.22,0-.13-.02-.27-.06-.4s-.11-.26-.2-.36c-.09-.11-.21-.19-.36-.26-.15-.07-.34-.1-.56-.1s-.42.04-.61.12c-.18.08-.35.18-.49.3-.14.12-.26.27-.36.43s-.17.33-.21.51h2.82Z"/>
    <path d="M481.2,112.75l-.82,3.92c-.06.28-.09.52-.1.73-.01.21-.02.36-.02.47v.07s0,.07.01.11h-.98c-.02-.07-.02-.18-.02-.31v-.15c0-.06,0-.13.02-.21-.18.22-.41.41-.68.55-.27.15-.57.23-.9.23s-.65-.06-.91-.18c-.26-.12-.48-.29-.66-.5-.18-.21-.31-.46-.4-.74s-.13-.58-.13-.91c0-.43.07-.83.2-1.23s.32-.74.57-1.03.53-.53.87-.71c.34-.18.71-.26,1.12-.26.45,0,.8.08,1.07.25s.46.36.58.57l.14-.67h1.02ZM478.44,113.49c-.29,0-.54.07-.76.21-.22.14-.41.33-.55.55-.15.22-.26.48-.34.75s-.12.55-.12.81c0,.42.1.76.31,1.03.21.27.52.41.95.41.25,0,.48-.06.7-.19.22-.12.4-.29.56-.51.15-.21.28-.46.36-.76.09-.29.13-.61.13-.96,0-.38-.1-.7-.3-.97-.2-.26-.51-.4-.94-.4Z"/>
    <path d="M485.01,118.04l.7-3.32c.01-.06.03-.12.03-.18,0-.06.01-.12.01-.18,0-.25-.07-.46-.21-.62-.14-.17-.38-.25-.7-.25-.37,0-.67.13-.89.38-.22.25-.36.58-.45.97l-.68,3.19h-1.02l.92-4.36c.05-.22.09-.42.11-.6.02-.18.03-.29.03-.33h1.01s0,.08-.01.19c0,.11-.02.23-.04.36.19-.23.41-.41.65-.53.24-.12.54-.18.88-.18.32,0,.6.08.83.23.23.15.39.36.5.62.27-.34.56-.57.87-.68.31-.11.63-.17.94-.17.21,0,.4.03.59.1.19.07.35.16.49.29.14.13.25.29.34.47.08.19.13.41.13.66,0,.08,0,.16-.02.24-.01.08-.02.17-.04.25l-.74,3.43h-1.02l.7-3.32c.01-.06.03-.12.03-.18,0-.06.01-.12.01-.18,0-.23-.07-.44-.21-.6-.14-.17-.38-.25-.7-.25-.37,0-.66.13-.87.38-.22.26-.37.58-.45.96l-.68,3.2h-1.03Z"/>
    <path d="M494.14,115.83c0-.63.07-1.25.21-1.86.14-.61.35-1.19.63-1.74s.62-1.07,1.04-1.55c.41-.48.9-.91,1.45-1.29l.5.67c-.41.3-.79.65-1.15,1.03-.36.39-.67.82-.93,1.3-.26.48-.47,1-.62,1.56-.15.56-.23,1.17-.23,1.83s.09,1.25.26,1.82c.17.57.41,1.12.72,1.64l-.74.41c-.33-.51-.6-1.08-.82-1.71-.22-.63-.32-1.34-.32-2.11Z"/>
    <path d="M501.04,110.25c.33,0,.62.05.88.14.25.09.46.22.64.37.17.16.3.35.38.57.08.22.13.46.13.7,0,.24-.04.46-.11.68-.07.22-.18.42-.31.6-.14.18-.3.34-.5.48s-.41.24-.64.3c.33.1.6.29.81.57.21.28.32.61.32,1,0,.34-.07.65-.2.94-.13.29-.32.54-.55.75-.23.21-.51.38-.84.5-.33.12-.68.18-1.07.18h-2.94l1.65-7.8h2.35ZM499.81,117.1c.24,0,.47-.04.68-.11.21-.07.39-.18.54-.31s.27-.29.36-.47.13-.38.13-.59c0-.31-.1-.56-.29-.75s-.51-.29-.96-.29h-1.43l-.53,2.52h1.51ZM500.3,113.66c.25,0,.48-.04.69-.11s.39-.18.53-.31c.14-.13.25-.29.34-.46.08-.18.12-.37.12-.58,0-.31-.1-.55-.3-.73-.2-.18-.5-.27-.9-.27h-1.21l-.53,2.46h1.26Z"/>
    <path d="M503.66,118.04l1.65-7.8h1.1l-1.65,7.8h-1.1Z"/>
    <path d="M509.48,117.24c.45,0,.81-.12,1.08-.34.28-.22.41-.51.41-.88,0-.23-.06-.44-.19-.64-.13-.2-.34-.36-.64-.5l-1.03-.46c-.44-.19-.79-.45-1.04-.78s-.38-.74-.38-1.23c0-.32.07-.63.2-.91.13-.29.32-.53.55-.74.23-.21.51-.37.83-.5.32-.12.67-.18,1.04-.18.48,0,.88.08,1.21.23s.59.33.79.55c.2.22.34.46.43.72.09.26.13.49.13.71l-1.02.2c0-.1-.02-.24-.05-.4-.04-.17-.11-.32-.23-.48-.11-.15-.28-.29-.49-.4-.21-.11-.5-.17-.85-.17-.2,0-.38.03-.56.09-.18.06-.33.15-.46.26-.13.11-.23.24-.3.39s-.11.31-.11.49c0,.26.06.47.19.65s.31.32.53.42l1.07.5c.52.24.9.54,1.15.89.25.35.37.74.37,1.17,0,.31-.06.6-.19.88-.12.28-.3.52-.53.74-.23.21-.51.38-.83.51-.32.12-.68.19-1.07.19-.51,0-.94-.08-1.3-.24-.36-.16-.66-.36-.89-.61-.23-.25-.39-.53-.5-.84-.11-.31-.16-.61-.16-.91v-.07s0-.06.01-.1l1.09-.19c0,.05-.01.1-.01.13v.09c0,.22.03.44.1.65.07.21.17.4.31.57.14.17.32.3.54.4.22.1.49.15.8.15Z"/>
    <path d="M515.7,113.29c0,.65-.07,1.27-.22,1.87-.15.6-.36,1.17-.64,1.72-.28.55-.63,1.06-1.04,1.53s-.89.9-1.42,1.29l-.49-.66c.41-.3.79-.65,1.15-1.03s.67-.82.93-1.29c.26-.47.47-.99.62-1.56s.23-1.18.23-1.84-.08-1.24-.25-1.81c-.17-.57-.41-1.12-.71-1.65l.73-.41c.34.53.61,1.12.83,1.77.21.65.32,1.34.32,2.08Z"/>
  </g>
</svg>