<?xml version="1.0" encoding="UTF-8"?>
<svg id="Layer_1" data-name="Layer 1" xmlns="http://www.w3.org/2000/svg" viewBox="0 0 342 215.35">
  <defs>
    <style>
      .cls-1 {
        fill: none;
        stroke: #000;
        stroke-miterlimit: 10;
        stroke-width: .75px;
      }

      .cls-2 {
        fill: #ffcb0f;
      }

      .cls-3 {
        fill: #7fb842;
      }

      .cls-4 {
        fill: #0082fc;
      }
    </style>
  </defs>
  <g>
    <path class="cls-2" d="M23.92,105.88c6.26-15.8,18.48-62.29,21.46-68.25,2.98-5.96,9.55-32.05,19.97-19.97,5.66,11.32,13.41,21.27,19.97,30.99,9.54,9.24,14.01,10.13,19.67,7.15,5.66-2.98,11.92-5.96,19.67-9.54s13.11-5.36,20.27-4.47,17.36,9.58,19.97,17.29c2.69,7.94,15.97,32.68,20.42,42.99,5.14,11.91,15.64,41.65,19.81,52.67,4.17,11.03,14.3,33.68,18.78,39.64,4.47,5.96,12.76,10.21,20.86,10.43,9.26.25,16.3-15.22,20.27-23.54,3.05-6.42,16.51-36.11,19.97-44.98,4.43-11.36,9.27-23.49,13.41-30.12"/>
    <g>
      <line class="cls-1" x1="315.16" y1="106.05" x2="22.73" y2="106.05"/>
      <polygon points="314.34 103.24 319.2 106.05 314.34 108.85 314.34 103.24"/>
    </g>
    <line class="cls-1" x1="45.14" y1="38.94" x2="45.14" y2="106.05"/>
    <line class="cls-1" x1="64.95" y1="19.63" x2="64.95" y2="106.05"/>
    <line class="cls-1" x1="86.04" y1="47.06" x2="86.04" y2="106.05"/>
    <line class="cls-1" x1="105.93" y1="55.36" x2="105.93" y2="106.05"/>
    <line class="cls-1" x1="164.91" y1="59.35" x2="164.91" y2="106.05"/>
    <line class="cls-1" x1="206.25" y1="154.9" x2="206.25" y2="106.05"/>
    <line class="cls-1" x1="224.41" y1="193.78" x2="224.41" y2="106.05"/>
    <line class="cls-1" x1="244.29" y1="203.74" x2="244.29" y2="106.05"/>
    <line class="cls-1" x1="265.41" y1="182.89" x2="265.41" y2="106.05"/>
    <line class="cls-1" x1="285.03" y1="136.3" x2="285.03" y2="106.05"/>
    <line class="cls-1" x1="185.3" y1="100.74" x2="185.3" y2="106.05"/>
    <line class="cls-1" x1="125.59" y1="45.83" x2="125.59" y2="106.05"/>
    <line class="cls-1" x1="144.64" y1="41.59" x2="144.64" y2="106.05"/>
    <circle class="cls-4" cx="125.59" cy="45.83" r="2.65"/>
    <circle class="cls-4" cx="144.64" cy="41.59" r="2.65"/>
    <circle class="cls-4" cx="25.32" cy="106.05" r="2.65"/>
    <circle class="cls-4" cx="45.14" cy="38.94" r="2.65"/>
    <circle class="cls-4" cx="105.93" cy="55.36" r="2.65"/>
    <circle class="cls-4" cx="86.04" cy="47.06" r="2.65"/>
    <circle class="cls-4" cx="64.95" cy="17.8" r="2.65"/>
    <circle class="cls-4" cx="164.91" cy="60.67" r="2.65"/>
    <circle class="cls-4" cx="206.25" cy="154.9" r="2.65"/>
    <circle class="cls-4" cx="185.3" cy="102.08" r="2.65"/>
    <circle class="cls-4" cx="224.41" cy="193.26" r="2.65"/>
    <circle class="cls-4" cx="244.29" cy="204.83" r="2.65"/>
    <circle class="cls-4" cx="265.53" cy="181.62" r="2.65"/>
    <circle class="cls-4" cx="285.03" cy="136.3" r="2.65"/>
  </g>
  <path d="M21.94,119.31c0-.59.06-1.15.17-1.67s.31-1,.59-1.42.64-.75,1.07-1c.43-.25.95-.37,1.55-.37s1.12.12,1.55.37c.43.25.79.58,1.07,1,.28.42.48.9.59,1.42s.17,1.08.17,1.67-.06,1.15-.17,1.67-.31,1-.59,1.42c-.28.42-.64.76-1.07,1-.43.25-.95.37-1.55.37s-1.12-.12-1.55-.37c-.43-.25-.79-.58-1.07-1s-.48-.9-.59-1.42-.17-1.08-.17-1.67ZM23.21,119.31c0,1.32.25,2.24.75,2.77.17.18.36.31.57.41s.48.14.78.14.57-.05.78-.14c.21-.1.41-.23.57-.41.5-.53.75-1.45.75-2.77s-.25-2.24-.75-2.77c-.17-.17-.36-.31-.57-.41-.22-.1-.48-.14-.78-.14s-.57.05-.78.14-.41.23-.57.41c-.5.53-.75,1.45-.75,2.77Z"/>
  <path d="M45.21,123.58v-6.02h-2.07v-.91c.6-.02,1.09-.17,1.48-.47.39-.29.63-.67.72-1.14h1.13v8.54h-1.27Z"/>
  <g>
    <path d="M60.66,122.73c0-.25.09-.47.26-.65.18-.18.39-.27.65-.27s.47.09.65.27c.18.18.27.4.27.65s-.09.47-.27.65c-.18.18-.4.26-.65.26s-.47-.09-.65-.26c-.18-.17-.26-.39-.26-.65Z"/>
    <path d="M64.03,122.73c0-.25.09-.47.26-.65.18-.18.39-.27.65-.27s.47.09.65.27c.18.18.27.4.27.65s-.09.47-.27.65c-.18.18-.4.26-.65.26s-.47-.09-.65-.26c-.18-.17-.26-.39-.26-.65Z"/>
    <path d="M67.4,122.73c0-.25.09-.47.26-.65.18-.18.39-.27.65-.27s.47.09.65.27c.18.18.27.4.27.65s-.09.47-.27.65c-.18.18-.4.26-.65.26s-.47-.09-.65-.26c-.18-.17-.26-.39-.26-.65Z"/>
  </g>
  <path d="M85.15,114.84c0-.25.09-.47.26-.64.17-.17.38-.26.63-.26s.47.08.64.26c.17.17.26.38.26.64s-.08.45-.26.63-.38.26-.64.26-.46-.09-.63-.26c-.17-.17-.26-.38-.26-.63ZM85.42,123.58v-6.34h1.23v6.34h-1.23Z"/>
  <path d="M102.61,120.16l3.66-5.12h1.78v5.42h1.46v1.2h-1.46v1.92h-1.25v-1.92h-4.19v-1.49ZM106.79,116.28l-3,4.18h3v-4.18Z"/>
  <path d="M123.68,120.89c.04.53.24.95.59,1.28.35.33.79.49,1.33.49.25,0,.49-.04.72-.12.22-.08.42-.2.58-.35.16-.15.29-.34.39-.55.1-.21.14-.45.14-.71,0-.29-.05-.55-.15-.77-.1-.22-.23-.41-.4-.55-.17-.14-.36-.25-.59-.33-.22-.07-.46-.11-.7-.11-.31,0-.6.05-.87.17-.27.11-.5.26-.68.45-.23-.09-.44-.17-.64-.26-.2-.08-.41-.16-.63-.24l1.11-4.24h4.51v1.19h-3.65l-.63,2.45c.19-.21.45-.37.76-.47.32-.11.64-.16.97-.16.42,0,.81.07,1.16.2s.66.32.92.56c.26.24.46.54.61.89.15.35.22.75.22,1.19,0,.4-.07.78-.22,1.13-.15.35-.36.66-.63.92s-.6.47-.99.63c-.39.15-.82.23-1.29.23s-.87-.07-1.25-.21c-.37-.14-.7-.32-.97-.55s-.5-.5-.66-.81c-.16-.31-.26-.63-.28-.96l1.24-.37Z"/>
  <path d="M147.34,116.37c-.16-.1-.37-.18-.64-.26-.27-.07-.56-.11-.89-.11-.45,0-.85.08-1.21.23-.36.15-.66.37-.92.64-.26.27-.46.59-.61.97-.15.37-.24.78-.26,1.22.18-.28.45-.54.83-.76s.85-.34,1.42-.34c.42,0,.81.06,1.17.19.36.13.67.32.93.57.26.25.47.56.61.92.14.36.22.77.22,1.24s-.08.87-.26,1.22c-.17.36-.4.67-.69.92s-.63.44-1.01.57-.78.2-1.21.2-.82-.07-1.21-.22-.75-.38-1.07-.7c-.32-.32-.57-.72-.76-1.23s-.29-1.1-.29-1.8c0-.79.11-1.5.34-2.12s.53-1.14.93-1.57.86-.75,1.4-.97c.54-.22,1.12-.33,1.74-.33.4,0,.75.04,1.07.13s.58.2.78.34l-.4,1.05ZM142.99,120.86c0,.28.05.53.16.75.11.22.24.41.42.56s.37.27.59.36c.22.08.45.12.69.12s.48-.04.71-.12c.22-.08.42-.2.59-.35.17-.15.3-.34.4-.57.1-.22.15-.48.15-.76s-.05-.55-.15-.77c-.1-.22-.24-.41-.4-.57-.17-.15-.36-.27-.59-.35-.22-.08-.46-.12-.71-.12s-.48.04-.71.12-.42.2-.59.35c-.17.15-.3.34-.4.57-.1.22-.15.48-.15.77Z"/>
  <path d="M168.03,116.28c-.2.16-.48.42-.84.77-.36.36-.73.83-1.11,1.42s-.72,1.31-1.03,2.15-.52,1.82-.63,2.96h-1.33c.04-.62.13-1.19.26-1.73.13-.54.28-1.04.45-1.5.17-.46.36-.88.57-1.27.21-.38.42-.73.62-1.03.48-.71,1.02-1.32,1.62-1.82h-4.81v-1.19h6.23v1.24Z"/>
  <path d="M185.3,123.77c-.49,0-.93-.06-1.31-.19-.38-.13-.71-.3-.97-.52-.26-.22-.47-.48-.61-.78-.14-.3-.21-.62-.21-.96,0-.53.16-.97.47-1.34.31-.36.7-.62,1.15-.77-.19-.07-.38-.17-.55-.3-.17-.13-.32-.28-.44-.46-.12-.17-.22-.36-.3-.57-.07-.21-.11-.43-.11-.67,0-.35.07-.67.22-.96.14-.29.35-.54.61-.75.26-.21.56-.37.91-.49.35-.11.73-.17,1.14-.17s.78.06,1.13.17c.35.11.66.28.92.49.26.21.46.46.61.75.15.29.22.61.22.96,0,.47-.13.88-.4,1.24s-.6.61-.99.76c.46.15.84.41,1.15.77.31.37.47.81.47,1.34,0,.34-.07.66-.21.96-.14.3-.34.56-.61.78-.26.22-.59.39-.97.52-.38.13-.82.19-1.31.19ZM185.3,122.65c.58,0,1.02-.14,1.33-.42.31-.28.46-.62.46-1.02s-.16-.76-.47-1.04c-.31-.28-.75-.42-1.32-.42s-1.01.14-1.32.42c-.31.28-.47.63-.47,1.04s.15.74.46,1.02c.31.28.75.42,1.33.42ZM185.3,118.67c.46,0,.83-.14,1.13-.39s.45-.59.45-1.01c0-.39-.14-.71-.43-.97-.29-.26-.67-.4-1.15-.4s-.87.13-1.15.4c-.29.26-.43.59-.43.97,0,.42.15.76.45,1.01s.68.38,1.13.39Z"/>
  <path d="M203.6,95.32c.18.11.42.21.71.29.29.08.57.12.85.12.52,0,.96-.08,1.33-.24.37-.16.67-.38.91-.65.24-.28.41-.6.53-.96s.18-.76.2-1.18c-.15.28-.41.53-.78.76-.37.22-.85.34-1.43.34-.37,0-.73-.06-1.09-.18-.36-.12-.67-.31-.95-.55-.28-.25-.5-.55-.67-.9-.17-.36-.25-.77-.25-1.24,0-.44.08-.84.26-1.21.17-.36.4-.68.69-.94.29-.26.62-.46,1-.6.38-.14.78-.21,1.2-.21s.83.08,1.23.23c.4.15.75.39,1.06.71.31.32.56.73.75,1.22.19.49.28,1.08.28,1.77,0,.78-.09,1.48-.26,2.1s-.44,1.14-.8,1.57-.8.76-1.33.99-1.16.34-1.88.34c-.17,0-.34-.01-.53-.04s-.37-.06-.55-.11-.35-.1-.51-.16-.29-.13-.4-.2l.42-1.07ZM207.94,90.88c0-.27-.05-.52-.16-.75-.11-.22-.24-.41-.42-.57-.17-.15-.37-.27-.59-.36-.22-.08-.45-.12-.69-.12s-.47.04-.69.12c-.22.08-.42.2-.59.36-.17.15-.31.34-.41.56-.1.22-.15.47-.15.75s.05.55.15.77c.1.22.24.41.41.57.17.15.37.27.59.35.22.08.45.12.7.12s.47-.04.69-.12c.22-.08.42-.2.59-.36.17-.15.31-.34.42-.57.11-.22.16-.48.16-.76Z"/>
  <g>
    <path d="M220.37,96.69v-6.02h-2.07v-.91c.6-.02,1.09-.17,1.48-.47s.63-.67.72-1.14h1.13v8.54h-1.27Z"/>
    <path d="M223.42,92.43c0-.59.06-1.15.17-1.67.11-.53.31-1,.59-1.42.28-.42.64-.76,1.07-1,.43-.25.95-.37,1.55-.37s1.12.12,1.55.37c.43.25.79.58,1.07,1,.28.42.48.9.59,1.42.11.53.17,1.08.17,1.67s-.06,1.15-.17,1.67c-.11.53-.31,1-.59,1.42-.28.42-.64.75-1.07,1-.43.25-.95.37-1.55.37s-1.12-.12-1.55-.37c-.43-.25-.79-.58-1.07-1-.28-.42-.48-.9-.59-1.42-.11-.53-.17-1.08-.17-1.67ZM224.7,92.43c0,1.32.25,2.24.75,2.77.17.18.36.31.57.41.21.1.48.15.78.15s.57-.05.78-.15c.21-.1.41-.23.57-.41.5-.53.75-1.45.75-2.77s-.25-2.24-.75-2.77c-.17-.18-.36-.31-.57-.41-.22-.1-.48-.15-.78-.15s-.57.05-.78.15-.41.23-.57.41c-.5.53-.75,1.45-.75,2.77Z"/>
  </g>
  <g>
    <path d="M242.07,96.69v-6.02h-2.07v-.91c.6-.02,1.09-.17,1.48-.47s.63-.67.72-1.14h1.13v8.54h-1.27Z"/>
    <path d="M246.66,96.69v-6.02h-2.07v-.91c.6-.02,1.09-.17,1.48-.47s.63-.67.72-1.14h1.13v8.54h-1.27Z"/>
  </g>
  <g>
    <path d="M262.04,96.69v-6.02h-2.07v-.91c.6-.02,1.09-.17,1.48-.47s.63-.67.72-1.14h1.13v8.54h-1.27Z"/>
    <path d="M265.01,91.07c0-.06-.01-.12-.01-.18v-.16c0-.37.07-.72.2-1.05.13-.33.32-.63.57-.88.25-.25.56-.46.93-.61s.79-.22,1.25-.22.86.07,1.22.21c.36.14.66.33.91.57.25.24.43.52.56.84.13.32.19.66.19,1.01,0,.56-.14,1.07-.43,1.51s-.68.82-1.17,1.13l-1.69,1.08c-.25.16-.46.33-.66.52-.19.19-.32.42-.38.68h4.39v1.2h-5.98c0-.35.05-.68.12-.99.08-.31.19-.6.36-.88.16-.28.37-.55.62-.8.25-.25.56-.49.92-.73l1.42-.92c.4-.25.7-.53.89-.83.19-.3.28-.61.28-.95,0-.19-.03-.38-.1-.56-.07-.18-.16-.34-.3-.48s-.3-.25-.5-.34-.44-.12-.71-.12-.53.05-.73.14c-.21.09-.38.22-.51.38-.14.16-.24.34-.3.55-.07.21-.1.44-.1.68,0,.06,0,.12,0,.18,0,.06.01.13.02.2l-1.29-.16Z"/>
  </g>
  <g>
    <path d="M281.45,96.69v-6.02h-2.07v-.91c.6-.02,1.09-.17,1.48-.47s.63-.67.72-1.14h1.13v8.54h-1.27Z"/>
    <path d="M286.06,91.66l2.52-2.32h-4.08v-1.19h5.8v1.16l-2.44,2.25c.32,0,.63.05.94.16.31.11.59.27.84.48.25.22.45.49.61.81.16.33.24.71.24,1.15,0,.36-.07.71-.2,1.03-.14.33-.34.62-.6.88s-.59.46-.97.61c-.38.15-.82.22-1.32.22s-.93-.07-1.32-.22c-.39-.15-.71-.35-.98-.6-.27-.25-.48-.54-.62-.86-.15-.32-.23-.66-.25-1.01l1.26-.29c0,.28.07.54.17.76s.24.42.42.58c.17.16.37.28.59.37.22.09.46.13.72.13.29,0,.55-.04.78-.12.23-.08.42-.2.57-.34s.26-.31.34-.51c.08-.19.12-.39.12-.61,0-.28-.05-.52-.15-.72-.1-.2-.23-.37-.4-.49s-.35-.22-.56-.28c-.21-.06-.42-.09-.62-.09-.25,0-.51.04-.75.13l-.63-1.07Z"/>
  </g>
  <path d="M311.06,96.45c0-.2.02-.38.06-.55l.81-3.81h-1.3l.27-1.26h.21c.42,0,.75-.1.99-.31s.39-.49.47-.84l.24-1.09h1.27l-.49,2.25h1.43l-.27,1.26h-1.43l-.78,3.74c-.03.14-.04.25-.04.34,0,.42.27.64.8.64.08,0,.16,0,.25,0,.09,0,.16-.01.22-.02l-.24,1.14s-.12.04-.24.07c-.12.02-.29.04-.51.04-.52,0-.94-.13-1.25-.41-.31-.27-.47-.66-.47-1.16Z"/>
  <g>
    <path class="cls-3" d="M128.21,32.51c.6,0,1.09-.16,1.46-.46.37-.3.55-.69.55-1.18,0-.31-.09-.59-.26-.86-.17-.27-.46-.49-.87-.67l-1.39-.62c-.59-.26-1.06-.61-1.4-1.05-.34-.44-.51-1-.51-1.66,0-.43.09-.84.27-1.23.18-.38.42-.72.74-1,.31-.28.69-.5,1.12-.67.43-.16.89-.24,1.4-.24.64,0,1.18.1,1.62.3s.79.45,1.06.75c.27.29.46.62.58.96.12.34.18.67.18.96l-1.38.27c0-.14-.03-.32-.07-.54-.05-.22-.15-.44-.3-.64-.15-.21-.37-.39-.66-.54-.29-.15-.67-.23-1.14-.23-.27,0-.52.04-.75.13-.24.08-.44.2-.61.35-.17.15-.31.32-.41.53s-.15.42-.15.66c0,.35.09.64.26.88.17.24.41.43.72.57l1.43.67c.7.33,1.21.72,1.54,1.19.33.47.5.99.5,1.58,0,.41-.08.81-.25,1.18-.17.37-.41.7-.72.99-.31.29-.68.51-1.12.68-.43.17-.91.25-1.43.25-.68,0-1.26-.11-1.75-.32-.49-.21-.88-.49-1.19-.82s-.53-.71-.67-1.12c-.14-.41-.21-.82-.21-1.23v-.09s0-.08.01-.13l1.46-.25c-.01.07-.01.13-.01.18v.12c0,.3.04.59.13.87.09.29.23.54.42.76s.44.4.73.53c.29.13.66.2,1.08.2Z"/>
    <path class="cls-3" d="M133.44,30.62c0-.85.1-1.68.29-2.5.19-.82.48-1.6.85-2.34.37-.74.84-1.44,1.4-2.08.56-.65,1.2-1.22,1.94-1.74l.67.9c-.55.4-1.07.87-1.54,1.39-.48.52-.89,1.1-1.25,1.74-.35.64-.63,1.34-.83,2.1s-.3,1.58-.3,2.45.12,1.68.35,2.45.55,1.5.97,2.21l-.99.55c-.44-.68-.81-1.45-1.1-2.3-.29-.85-.44-1.8-.44-2.83Z"/>
    <path class="cls-3" d="M137.98,32.1c0-.2.02-.38.06-.55l.81-3.81h-1.3l.27-1.26h.21c.42,0,.75-.1.99-.31s.39-.49.47-.84l.24-1.09h1.27l-.49,2.25h1.43l-.27,1.26h-1.43l-.78,3.74c-.03.14-.04.25-.04.34,0,.42.27.64.8.64.08,0,.16,0,.25,0,.09,0,.16-.01.22-.02l-.24,1.14s-.12.04-.24.07c-.12.02-.29.04-.51.04-.52,0-.94-.13-1.25-.41-.31-.27-.47-.66-.47-1.16Z"/>
    <path class="cls-3" d="M145.76,27.21c0,.87-.1,1.71-.3,2.51-.2.81-.49,1.58-.87,2.31-.38.73-.85,1.42-1.4,2.05s-1.2,1.21-1.92,1.74l-.67-.89c.55-.4,1.07-.87,1.54-1.39.48-.52.89-1.1,1.25-1.74.36-.64.63-1.33.84-2.1s.3-1.59.3-2.48-.11-1.67-.34-2.44c-.23-.77-.55-1.51-.96-2.22l.98-.55c.45.71.82,1.5,1.11,2.37.29.87.43,1.81.43,2.8Z"/>
  </g>
  <g>
    <path class="cls-4" d="M84.54,32.51c.6,0,1.09-.16,1.46-.46.37-.3.55-.69.55-1.18,0-.31-.09-.59-.26-.86-.17-.27-.46-.49-.87-.67l-1.39-.62c-.59-.26-1.06-.61-1.4-1.05-.34-.44-.51-1-.51-1.66,0-.43.09-.84.27-1.23.18-.38.42-.72.74-1,.31-.28.69-.5,1.12-.67.43-.16.89-.24,1.4-.24.64,0,1.18.1,1.62.3s.79.45,1.06.75c.27.29.46.62.58.96.12.34.18.67.18.96l-1.38.27c0-.14-.03-.32-.07-.54-.05-.22-.15-.44-.3-.64-.15-.21-.37-.39-.66-.54-.29-.15-.67-.23-1.14-.23-.27,0-.52.04-.75.13-.24.08-.44.2-.61.35-.17.15-.31.32-.41.53s-.15.42-.15.66c0,.35.09.64.26.88.17.24.41.43.72.57l1.43.67c.7.33,1.21.72,1.54,1.19.33.47.5.99.5,1.58,0,.41-.08.81-.25,1.18-.17.37-.41.7-.72.99-.31.29-.68.51-1.12.68-.43.17-.91.25-1.43.25-.68,0-1.26-.11-1.75-.32-.49-.21-.88-.49-1.19-.82s-.53-.71-.67-1.12c-.14-.41-.21-.82-.21-1.23v-.09s0-.08.01-.13l1.46-.25c-.01.07-.01.13-.01.18v.12c0,.3.04.59.13.87.09.29.23.54.42.76s.44.4.73.53c.29.13.66.2,1.08.2Z"/>
    <path class="cls-4" d="M89.27,35.83l.89-4.15h.81l-.89,4.15h-.81ZM90.3,30.15c0-.09.02-.18.06-.25.04-.08.09-.15.15-.2.06-.06.13-.1.2-.13.08-.03.15-.05.23-.05.16,0,.28.05.38.15.1.1.15.22.15.37,0,.09-.02.17-.06.25-.04.08-.09.15-.15.2-.06.06-.13.1-.21.14-.08.03-.15.05-.23.05-.16,0-.28-.05-.38-.15s-.15-.22-.15-.37Z"/>
  </g>
</svg>