<?xml version="1.0" encoding="UTF-8"?>
<svg id="Layer_1" data-name="Layer 1" xmlns="http://www.w3.org/2000/svg" viewBox="0 0 684 298.8">
  <defs>
    <style>
      .cls-1 {
        fill: none;
        stroke: #000;
        stroke-linecap: square;
        stroke-miterlimit: 10;
      }

      .cls-2 {
        fill: #0082fc;
      }

      .cls-3 {
        fill: #80c1fe;
      }
    </style>
  </defs>
  <g>
    <rect class="cls-2" x="50.53" y="47.27" width="46.72" height="46.72"/>
    <rect class="cls-3" x="40.91" y="47.27" width="9.62" height="46.72"/>
  </g>
  <g>
    <rect class="cls-2" x="120.43" y="47.27" width="46.72" height="46.72"/>
    <rect class="cls-3" x="110.81" y="47.27" width="9.62" height="46.72"/>
  </g>
  <g>
    <rect class="cls-2" x="120.43" y="197.38" width="46.72" height="46.72"/>
    <rect class="cls-3" x="110.81" y="197.38" width="9.62" height="46.72"/>
  </g>
  <g>
    <rect class="cls-2" x="190.33" y="46.86" width="46.72" height="46.72"/>
    <rect class="cls-3" x="180.71" y="46.86" width="9.62" height="46.72"/>
  </g>
  <g>
    <path d="M39.73,114.19v-7.8h1.08v6.79h3.68v1.01h-4.76Z"/>
    <path d="M50.25,112.68c-.07.23-.18.45-.33.65-.14.2-.32.38-.52.53-.2.15-.43.27-.69.36-.26.09-.54.13-.85.13-.35,0-.69-.06-1.01-.19-.32-.12-.61-.31-.85-.55-.25-.24-.44-.54-.58-.89-.14-.35-.21-.75-.21-1.2,0-.42.07-.8.21-1.14.14-.34.32-.63.56-.88.23-.25.5-.44.81-.57.31-.14.63-.2.96-.2.4,0,.76.07,1.08.2s.58.32.8.57c.21.24.38.53.49.87.11.34.17.72.17,1.13,0,.07,0,.13,0,.19,0,.06,0,.11-.02.14h-3.98c0,.23.05.45.13.65.08.2.19.37.33.51.14.14.31.25.51.33.19.08.4.12.62.12.43,0,.76-.1.99-.31.23-.21.39-.46.5-.76l.89.31ZM49.21,111c-.01-.38-.14-.7-.39-.96-.24-.26-.6-.39-1.07-.39-.22,0-.42.04-.59.12-.17.08-.32.18-.44.31-.12.13-.22.27-.29.43-.07.16-.11.33-.12.5h2.89Z"/>
    <path d="M52.22,114.25c.04.37.18.68.45.93s.59.37,1,.37c.56,0,.97-.14,1.23-.43.26-.29.39-.71.39-1.29v-.76c-.12.24-.33.45-.6.62-.28.17-.62.25-1.01.25-.35,0-.68-.06-.97-.19-.3-.13-.55-.3-.77-.53-.22-.22-.38-.49-.51-.81-.12-.31-.18-.66-.18-1.03s.06-.69.18-1.01c.12-.31.28-.58.5-.81.21-.23.47-.41.76-.55s.63-.2,1-.2c.41,0,.75.07,1.02.22s.47.35.61.62v-.74h1.02v4.9c0,.34-.04.67-.13.98-.09.32-.24.6-.45.85s-.48.44-.82.59c-.34.15-.76.23-1.25.23-.33,0-.64-.05-.92-.15s-.53-.24-.75-.41c-.22-.18-.39-.38-.53-.62s-.22-.5-.25-.79l1-.23ZM53.82,113.07c.45,0,.81-.15,1.09-.46.28-.31.42-.72.42-1.23s-.14-.92-.42-1.23c-.28-.31-.64-.46-1.09-.46s-.83.15-1.11.46c-.28.31-.42.72-.42,1.23s.14.93.41,1.24c.27.3.65.46,1.12.46Z"/>
    <path d="M57.63,112.77c0-.23.04-.45.12-.63s.19-.35.34-.48c.14-.13.31-.24.51-.32.2-.08.41-.14.64-.18l1.43-.21c.16-.02.27-.07.32-.14.06-.07.08-.16.08-.25,0-.26-.09-.48-.27-.67s-.47-.28-.88-.28c-.37,0-.65.1-.85.3s-.32.46-.35.76l-.99-.23c.03-.25.1-.48.23-.69.12-.21.28-.39.47-.54.19-.15.41-.27.67-.35.25-.08.52-.13.81-.13.4,0,.73.05,1.01.16s.51.25.68.42c.18.18.3.38.38.62.08.23.12.48.12.74v2.65c0,.23,0,.42.02.56.01.14.03.24.04.31h-1.01c-.01-.07-.03-.15-.04-.26-.01-.11-.02-.26-.02-.45-.06.1-.14.19-.23.3s-.21.2-.35.29c-.14.09-.3.16-.49.21-.19.06-.4.08-.63.08-.27,0-.52-.04-.73-.13-.22-.09-.4-.2-.56-.35s-.27-.31-.36-.5c-.08-.19-.13-.39-.13-.6ZM59.55,113.49c.21,0,.41-.03.6-.08.19-.05.35-.14.48-.26.14-.12.24-.28.32-.48.08-.2.12-.45.12-.73v-.24l-1.62.24c-.22.04-.4.12-.55.25-.15.13-.22.31-.22.54,0,.2.08.38.23.53s.36.24.63.24Z"/>
    <path d="M65.94,109.69c-.21,0-.41.04-.6.12-.19.08-.36.19-.51.35-.15.15-.27.35-.36.58s-.13.5-.13.81.04.57.13.8.21.43.35.58c.15.16.32.28.52.36.2.08.4.12.62.12.25,0,.46-.04.63-.11.17-.07.32-.17.43-.27.11-.11.2-.23.27-.36.07-.13.11-.24.14-.35l.91.4c-.07.19-.16.38-.29.58-.12.19-.29.37-.48.53-.2.16-.43.29-.7.39s-.57.15-.92.15c-.39,0-.75-.07-1.07-.21-.33-.14-.61-.34-.84-.59-.24-.25-.42-.55-.56-.89-.14-.34-.2-.71-.2-1.12s.07-.79.2-1.13c.14-.34.32-.64.56-.89s.52-.44.85-.58c.33-.14.68-.21,1.05-.21.35,0,.66.05.93.15s.5.23.69.39c.19.16.35.34.47.54.12.2.21.4.26.6l-.93.4c-.04-.13-.09-.26-.15-.4-.07-.13-.16-.25-.27-.36-.11-.11-.25-.19-.41-.26-.16-.07-.36-.1-.58-.1Z"/>
    <path d="M69.73,116.4l1.32-2.79-2.28-4.71h1.19l1.65,3.65,1.58-3.65h1.11l-3.44,7.5h-1.13Z"/>
    <path d="M77.72,112.77c0-.23.04-.45.12-.63s.19-.35.34-.48c.14-.13.31-.24.51-.32.2-.08.41-.14.64-.18l1.43-.21c.16-.02.27-.07.32-.14.06-.07.08-.16.08-.25,0-.26-.09-.48-.27-.67s-.47-.28-.88-.28c-.37,0-.65.1-.85.3s-.32.46-.35.76l-.99-.23c.03-.25.1-.48.23-.69.12-.21.28-.39.47-.54.19-.15.41-.27.67-.35.25-.08.52-.13.81-.13.4,0,.73.05,1.01.16s.51.25.68.42c.18.18.3.38.38.62.08.23.12.48.12.74v2.65c0,.23,0,.42.02.56.01.14.03.24.04.31h-1.01c-.01-.07-.03-.15-.04-.26-.01-.11-.02-.26-.02-.45-.06.1-.14.19-.23.3s-.21.2-.35.29c-.14.09-.3.16-.49.21-.19.06-.4.08-.63.08-.27,0-.52-.04-.73-.13-.22-.09-.4-.2-.56-.35s-.27-.31-.36-.5c-.08-.19-.13-.39-.13-.6ZM79.63,113.49c.21,0,.41-.03.6-.08.19-.05.35-.14.48-.26.14-.12.24-.28.32-.48.08-.2.12-.45.12-.73v-.24l-1.62.24c-.22.04-.4.12-.55.25-.15.13-.22.31-.22.54,0,.2.08.38.23.53s.36.24.63.24Z"/>
    <path d="M87.51,113.39c-.12.26-.32.48-.6.67-.27.19-.62.28-1.04.28-.39,0-.74-.07-1.04-.21-.31-.14-.57-.34-.79-.59-.22-.25-.38-.55-.5-.89-.12-.34-.18-.71-.18-1.11,0-.37.06-.73.18-1.06.12-.33.29-.63.51-.88s.48-.45.79-.6c.31-.15.65-.23,1.02-.23.23,0,.44.03.62.08s.34.12.47.2c.13.08.24.18.33.29.09.11.15.21.2.32v-3.42h1.02v6.98c0,.26,0,.47.02.65.01.18.03.29.03.33h-1c-.01-.06-.03-.15-.04-.28-.01-.13-.02-.27-.02-.43v-.09ZM84.42,111.53c0,.27.03.52.1.75.07.23.17.43.3.6.13.17.29.3.48.4.19.1.41.14.66.14.23,0,.45-.05.64-.15.19-.1.35-.23.48-.4.13-.17.23-.37.3-.6.07-.23.1-.49.1-.76,0-.55-.13-.99-.4-1.33-.27-.34-.64-.51-1.12-.51-.23,0-.45.05-.64.14s-.36.22-.49.38c-.14.17-.24.36-.31.59-.07.23-.11.48-.11.75Z"/>
    <path d="M92.69,114.19h-1.04l-2.14-5.29h1.17l1.51,4.08,1.52-4.08h1.11l-2.11,5.29Z"/>
    <path d="M100.4,112.68c-.07.23-.18.45-.33.65-.14.2-.32.38-.52.53-.2.15-.43.27-.69.36-.26.09-.54.13-.85.13-.35,0-.69-.06-1.01-.19-.32-.12-.61-.31-.85-.55-.25-.24-.44-.54-.58-.89-.14-.35-.21-.75-.21-1.2,0-.42.07-.8.21-1.14.14-.34.32-.63.56-.88.23-.25.5-.44.81-.57.31-.14.63-.2.96-.2.4,0,.76.07,1.08.2s.58.32.8.57c.21.24.38.53.49.87.11.34.17.72.17,1.13,0,.07,0,.13,0,.19,0,.06,0,.11-.02.14h-3.98c0,.23.05.45.13.65.08.2.19.37.33.51.14.14.31.25.51.33.19.08.4.12.62.12.43,0,.76-.1.99-.31.23-.21.39-.46.5-.76l.89.31ZM99.36,111c-.01-.38-.14-.7-.39-.96-.24-.26-.6-.39-1.07-.39-.22,0-.42.04-.59.12-.17.08-.32.18-.44.31-.12.13-.22.27-.29.43-.07.16-.11.33-.12.5h2.89Z"/>
    <path d="M104.69,109.95c-.15-.02-.3-.03-.45-.03-.43,0-.78.13-1.05.38s-.4.67-.4,1.25v2.65h-1.03v-5.29h1.01v.92c.1-.21.21-.37.34-.5.13-.13.26-.23.4-.31.14-.08.28-.13.43-.16.15-.03.29-.04.42-.04.07,0,.14,0,.2.01.06,0,.11.02.14.02v1.1Z"/>
    <path d="M107.45,108.9h1.14v.94h-1.14v2.75c0,.24.06.42.17.54.11.12.3.18.57.18.07,0,.14,0,.22-.01.08,0,.14-.02.19-.03v.88s-.13.03-.25.06c-.12.03-.28.04-.45.04-.46,0-.81-.13-1.08-.39s-.4-.63-.4-1.12v-2.9h-1.01v-.94h.29c.29,0,.49-.08.62-.23.13-.15.19-.35.19-.58v-.86h.95v1.67Z"/>
    <path d="M109.74,106.9c0-.21.07-.39.21-.53.14-.14.32-.21.52-.21s.39.07.53.21c.14.14.21.32.21.53s-.07.38-.21.52c-.14.14-.32.21-.53.21s-.38-.07-.52-.21c-.14-.14-.21-.32-.21-.52ZM109.97,114.19v-5.29h1.02v5.29h-1.02Z"/>
    <path d="M113.2,112.49c.04.28.16.51.36.7.21.19.5.29.87.29.29,0,.52-.07.67-.21.15-.14.23-.3.23-.5,0-.17-.06-.31-.18-.43-.12-.12-.29-.2-.51-.25l-.9-.2c-.42-.09-.74-.26-.97-.53-.23-.26-.35-.58-.35-.96,0-.23.05-.44.15-.64.1-.2.23-.38.4-.53.17-.15.37-.27.6-.36.23-.09.47-.13.73-.13.36,0,.66.05.91.15.25.1.45.23.6.38.15.15.27.31.35.47.08.16.13.3.16.42l-.91.34c-.01-.07-.04-.15-.08-.25-.04-.1-.1-.2-.18-.29-.08-.09-.19-.17-.33-.24-.14-.07-.31-.1-.52-.1-.26,0-.48.07-.64.21s-.24.31-.24.49c0,.34.2.55.61.64l.86.19c.48.1.85.29,1.09.57s.37.61.37,1.01c0,.19-.04.38-.12.57-.08.19-.2.37-.36.53-.16.16-.36.29-.6.39-.24.1-.53.15-.86.15-.37,0-.68-.05-.94-.15-.26-.1-.48-.23-.65-.39-.17-.15-.3-.32-.4-.5s-.15-.35-.17-.5l.94-.33Z"/>
    <path d="M117.5,106.9c0-.21.07-.39.21-.53.14-.14.32-.21.52-.21s.39.07.53.21c.14.14.21.32.21.53s-.07.38-.21.52c-.14.14-.32.21-.53.21s-.38-.07-.52-.21c-.14-.14-.21-.32-.21-.52ZM117.73,114.19v-5.29h1.02v5.29h-1.02Z"/>
    <path d="M121.54,114.19h-1.03v-5.29h1.01v.76c.19-.33.43-.56.73-.7.29-.14.59-.21.9-.21s.59.05.83.16c.24.11.44.25.59.44.16.19.28.41.35.67.08.26.12.53.12.83v3.35h-1.03v-3.18c0-.18-.02-.36-.06-.52-.04-.16-.11-.3-.21-.42s-.23-.22-.38-.29c-.16-.07-.35-.1-.58-.1-.21,0-.39.04-.54.12-.15.08-.28.18-.39.31s-.18.29-.23.46c-.05.18-.08.36-.08.56v3.06Z"/>
    <path d="M127.31,114.25c.04.37.18.68.45.93s.59.37,1,.37c.56,0,.97-.14,1.23-.43.26-.29.39-.71.39-1.29v-.76c-.12.24-.33.45-.6.62-.28.17-.62.25-1.01.25-.35,0-.68-.06-.97-.19-.3-.13-.55-.3-.77-.53-.22-.22-.38-.49-.51-.81-.12-.31-.18-.66-.18-1.03s.06-.69.18-1.01c.12-.31.28-.58.5-.81.21-.23.47-.41.76-.55s.63-.2,1-.2c.41,0,.75.07,1.02.22s.47.35.61.62v-.74h1.02v4.9c0,.34-.04.67-.13.98-.09.32-.24.6-.45.85s-.48.44-.82.59c-.34.15-.76.23-1.25.23-.33,0-.64-.05-.92-.15s-.53-.24-.75-.41c-.22-.18-.39-.38-.53-.62s-.22-.5-.25-.79l1-.23ZM128.9,113.07c.45,0,.81-.15,1.09-.46.28-.31.42-.72.42-1.23s-.14-.92-.42-1.23c-.28-.31-.64-.46-1.09-.46s-.83.15-1.11.46c-.28.31-.42.72-.42,1.23s.14.93.41,1.24c.27.3.65.46,1.12.46Z"/>
    <path d="M138.74,109.95c-.15-.02-.3-.03-.45-.03-.43,0-.78.13-1.05.38s-.4.67-.4,1.25v2.65h-1.03v-5.29h1.01v.92c.1-.21.21-.37.34-.5.13-.13.26-.23.4-.31.14-.08.28-.13.43-.16.15-.03.29-.04.42-.04.07,0,.14,0,.2.01.06,0,.11.02.14.02v1.1Z"/>
    <path d="M144.45,112.68c-.07.23-.18.45-.33.65-.14.2-.32.38-.52.53-.2.15-.43.27-.69.36-.26.09-.54.13-.85.13-.35,0-.69-.06-1.01-.19-.32-.12-.61-.31-.85-.55-.25-.24-.44-.54-.58-.89-.14-.35-.21-.75-.21-1.2,0-.42.07-.8.21-1.14.14-.34.32-.63.56-.88.23-.25.5-.44.81-.57.31-.14.63-.2.96-.2.4,0,.76.07,1.08.2s.58.32.8.57c.21.24.38.53.49.87.11.34.17.72.17,1.13,0,.07,0,.13,0,.19,0,.06,0,.11-.02.14h-3.98c0,.23.05.45.13.65.08.2.19.37.33.51.14.14.31.25.51.33.19.08.4.12.62.12.43,0,.76-.1.99-.31.23-.21.39-.46.5-.76l.89.31ZM143.4,111c-.01-.38-.14-.7-.39-.96-.24-.26-.6-.39-1.07-.39-.22,0-.42.04-.59.12-.17.08-.32.18-.44.31-.12.13-.22.27-.29.43-.07.16-.11.33-.12.5h2.89Z"/>
    <path d="M145.8,116.28v-7.38h1v.83c.15-.26.37-.49.67-.67.3-.18.67-.27,1.1-.27.4,0,.75.07,1.05.21.3.14.56.34.76.59.2.25.36.54.46.88.11.34.16.7.16,1.08s-.05.76-.17,1.1-.27.63-.48.89c-.21.25-.47.45-.78.59-.3.14-.65.21-1.04.21-.41,0-.76-.08-1.06-.25-.29-.17-.51-.37-.66-.6v2.8h-1.02ZM149.95,111.54c0-.26-.04-.51-.11-.73s-.18-.42-.31-.58c-.13-.17-.3-.3-.49-.39s-.41-.14-.65-.14-.45.05-.64.14-.36.23-.5.39c-.14.17-.25.36-.32.58s-.11.47-.11.73.04.52.11.75.18.43.32.59c.14.17.31.29.5.39s.41.14.64.14.46-.05.65-.14c.19-.09.35-.22.49-.39.14-.16.24-.36.31-.59s.11-.48.11-.75Z"/>
    <path d="M156.93,112.68c-.07.23-.18.45-.33.65-.14.2-.32.38-.52.53-.2.15-.43.27-.69.36-.26.09-.54.13-.85.13-.35,0-.69-.06-1.01-.19-.32-.12-.61-.31-.85-.55-.25-.24-.44-.54-.58-.89-.14-.35-.21-.75-.21-1.2,0-.42.07-.8.21-1.14.14-.34.32-.63.56-.88.23-.25.5-.44.81-.57.31-.14.63-.2.96-.2.4,0,.76.07,1.08.2s.58.32.8.57c.21.24.38.53.49.87.11.34.17.72.17,1.13,0,.07,0,.13,0,.19,0,.06,0,.11-.02.14h-3.98c0,.23.05.45.13.65.08.2.19.37.33.51.14.14.31.25.51.33.19.08.4.12.62.12.43,0,.76-.1.99-.31.23-.21.39-.46.5-.76l.89.31ZM155.89,111c-.01-.38-.14-.7-.39-.96-.24-.26-.6-.39-1.07-.39-.22,0-.42.04-.59.12-.17.08-.32.18-.44.31-.12.13-.22.27-.29.43-.07.16-.11.33-.12.5h2.89Z"/>
    <path d="M157.95,112.77c0-.23.04-.45.12-.63s.19-.35.34-.48c.14-.13.31-.24.51-.32.2-.08.41-.14.64-.18l1.43-.21c.16-.02.27-.07.32-.14.06-.07.08-.16.08-.25,0-.26-.09-.48-.27-.67s-.47-.28-.88-.28c-.37,0-.65.1-.85.3s-.32.46-.35.76l-.99-.23c.03-.25.1-.48.23-.69.12-.21.28-.39.47-.54.19-.15.41-.27.67-.35.25-.08.52-.13.81-.13.4,0,.73.05,1.01.16s.51.25.68.42c.18.18.3.38.38.62.08.23.12.48.12.74v2.65c0,.23,0,.42.02.56.01.14.03.24.04.31h-1.01c-.01-.07-.03-.15-.04-.26-.01-.11-.02-.26-.02-.45-.06.1-.14.19-.23.3s-.21.2-.35.29c-.14.09-.3.16-.49.21-.19.06-.4.08-.63.08-.27,0-.52-.04-.73-.13-.22-.09-.4-.2-.56-.35s-.27-.31-.36-.5c-.08-.19-.13-.39-.13-.6ZM159.87,113.49c.21,0,.41-.03.6-.08.19-.05.35-.14.48-.26.14-.12.24-.28.32-.48.08-.2.12-.45.12-.73v-.24l-1.62.24c-.22.04-.4.12-.55.25-.15.13-.22.31-.22.54,0,.2.08.38.23.53s.36.24.63.24Z"/>
    <path d="M165.42,108.9h1.14v.94h-1.14v2.75c0,.24.06.42.17.54.11.12.3.18.57.18.07,0,.14,0,.22-.01.08,0,.14-.02.19-.03v.88s-.13.03-.25.06c-.12.03-.28.04-.45.04-.46,0-.81-.13-1.08-.39s-.4-.63-.4-1.12v-2.9h-1.01v-.94h.29c.29,0,.49-.08.62-.23.13-.15.19-.35.19-.58v-.86h.95v1.67Z"/>
    <path d="M168.38,112.49c.04.28.16.51.36.7.21.19.5.29.87.29.29,0,.52-.07.67-.21.15-.14.23-.3.23-.5,0-.17-.06-.31-.18-.43-.12-.12-.29-.2-.51-.25l-.9-.2c-.42-.09-.74-.26-.97-.53-.23-.26-.35-.58-.35-.96,0-.23.05-.44.15-.64.1-.2.23-.38.4-.53.17-.15.37-.27.6-.36.23-.09.47-.13.73-.13.36,0,.66.05.91.15.25.1.45.23.6.38.15.15.27.31.35.47.08.16.13.3.16.42l-.91.34c-.01-.07-.04-.15-.08-.25-.04-.1-.1-.2-.18-.29-.08-.09-.19-.17-.33-.24-.14-.07-.31-.1-.52-.1-.26,0-.48.07-.64.21s-.24.31-.24.49c0,.34.2.55.61.64l.86.19c.48.1.85.29,1.09.57s.37.61.37,1.01c0,.19-.04.38-.12.57-.08.19-.2.37-.36.53-.16.16-.36.29-.6.39-.24.1-.53.15-.86.15-.37,0-.68-.05-.94-.15-.26-.1-.48-.23-.65-.39-.17-.15-.3-.32-.4-.5s-.15-.35-.17-.5l.94-.33Z"/>
    <path d="M175.33,112.77c0-.23.04-.45.12-.63s.19-.35.34-.48c.14-.13.31-.24.51-.32.2-.08.41-.14.64-.18l1.43-.21c.16-.02.27-.07.32-.14.06-.07.08-.16.08-.25,0-.26-.09-.48-.27-.67s-.47-.28-.88-.28c-.37,0-.65.1-.85.3s-.32.46-.35.76l-.99-.23c.03-.25.1-.48.23-.69.12-.21.28-.39.47-.54.19-.15.41-.27.67-.35.25-.08.52-.13.81-.13.4,0,.73.05,1.01.16s.51.25.68.42c.18.18.3.38.38.62.08.23.12.48.12.74v2.65c0,.23,0,.42.02.56.01.14.03.24.04.31h-1.01c-.01-.07-.03-.15-.04-.26-.01-.11-.02-.26-.02-.45-.06.1-.14.19-.23.3s-.21.2-.35.29c-.14.09-.3.16-.49.21-.19.06-.4.08-.63.08-.27,0-.52-.04-.73-.13-.22-.09-.4-.2-.56-.35s-.27-.31-.36-.5c-.08-.19-.13-.39-.13-.6ZM177.25,113.49c.21,0,.41-.03.6-.08.19-.05.35-.14.48-.26.14-.12.24-.28.32-.48.08-.2.12-.45.12-.73v-.24l-1.62.24c-.22.04-.4.12-.55.25-.15.13-.22.31-.22.54,0,.2.08.38.23.53s.36.24.63.24Z"/>
    <path d="M185.12,113.39c-.12.26-.32.48-.6.67-.27.19-.62.28-1.04.28-.39,0-.74-.07-1.04-.21-.31-.14-.57-.34-.79-.59-.22-.25-.38-.55-.5-.89-.12-.34-.18-.71-.18-1.11,0-.37.06-.73.18-1.06.12-.33.29-.63.51-.88s.48-.45.79-.6c.31-.15.65-.23,1.02-.23.23,0,.44.03.62.08s.34.12.47.2c.13.08.24.18.33.29.09.11.15.21.2.32v-3.42h1.02v6.98c0,.26,0,.47.02.65.01.18.03.29.03.33h-1c-.01-.06-.03-.15-.04-.28-.01-.13-.02-.27-.02-.43v-.09ZM182.03,111.53c0,.27.03.52.1.75.07.23.17.43.3.6.13.17.29.3.48.4.19.1.41.14.66.14.23,0,.45-.05.64-.15.19-.1.35-.23.48-.4.13-.17.23-.37.3-.6.07-.23.1-.49.1-.76,0-.55-.13-.99-.4-1.33-.27-.34-.64-.51-1.12-.51-.23,0-.45.05-.64.14s-.36.22-.49.38c-.14.17-.24.36-.31.59-.07.23-.11.48-.11.75Z"/>
    <path d="M190.3,114.19h-1.04l-2.14-5.29h1.17l1.51,4.08,1.52-4.08h1.11l-2.11,5.29Z"/>
    <path d="M198.02,112.68c-.07.23-.18.45-.33.65-.14.2-.31.38-.52.53-.2.15-.43.27-.69.36-.26.09-.54.13-.85.13-.35,0-.69-.06-1.01-.19s-.61-.31-.85-.55c-.25-.24-.44-.54-.58-.89-.14-.35-.21-.75-.21-1.2,0-.42.07-.8.21-1.14.14-.34.32-.63.56-.88.23-.25.5-.44.81-.57.31-.14.63-.2.96-.2.4,0,.76.07,1.08.2.32.14.59.32.8.57.21.24.38.53.49.87s.17.72.17,1.13c0,.07,0,.13,0,.19,0,.06,0,.11-.02.14h-3.98c0,.23.05.45.13.65.08.2.19.37.34.51s.31.25.51.33c.19.08.4.12.62.12.43,0,.76-.1.99-.31.23-.21.39-.46.49-.76l.89.31ZM196.97,111c-.02-.38-.14-.7-.39-.96-.24-.26-.6-.39-1.07-.39-.22,0-.42.04-.59.12-.17.08-.32.18-.44.31-.12.13-.22.27-.29.43-.07.16-.11.33-.12.5h2.89Z"/>
    <path d="M202.3,109.95c-.15-.02-.3-.03-.45-.03-.43,0-.78.13-1.05.38s-.4.67-.4,1.25v2.65h-1.04v-5.29h1.01v.92c.1-.21.21-.37.34-.5.13-.13.26-.23.4-.31.14-.08.28-.13.43-.16.15-.03.29-.04.42-.04.07,0,.14,0,.21.01.06,0,.11.02.14.02v1.1Z"/>
    <path d="M205.06,108.9h1.14v.94h-1.14v2.75c0,.24.06.42.17.54s.3.18.57.18c.07,0,.14,0,.22-.01.08,0,.14-.02.19-.03v.88s-.13.03-.25.06c-.12.03-.28.04-.45.04-.46,0-.81-.13-1.08-.39s-.4-.63-.4-1.12v-2.9h-1.01v-.94h.29c.29,0,.49-.08.62-.23.13-.15.19-.35.19-.58v-.86h.95v1.67Z"/>
    <path d="M207.35,106.9c0-.21.07-.39.21-.53s.32-.21.52-.21.39.07.54.21c.14.14.21.32.21.53s-.07.38-.21.52c-.14.14-.32.21-.54.21s-.38-.07-.52-.21-.21-.32-.21-.52ZM207.58,114.19v-5.29h1.02v5.29h-1.02Z"/>
    <path d="M210.81,112.49c.04.28.16.51.36.7.21.19.5.29.87.29.29,0,.52-.07.67-.21s.23-.3.23-.5c0-.17-.06-.31-.18-.43-.12-.12-.29-.2-.51-.25l-.9-.2c-.42-.09-.74-.26-.97-.53-.23-.26-.35-.58-.35-.96,0-.23.05-.44.15-.64.1-.2.23-.38.4-.53.17-.15.37-.27.6-.36.23-.09.47-.13.73-.13.36,0,.66.05.91.15.25.1.45.23.6.38s.27.31.35.47c.08.16.13.3.16.42l-.91.34c-.02-.07-.04-.15-.08-.25-.04-.1-.1-.2-.18-.29-.08-.09-.19-.17-.33-.24s-.31-.1-.52-.1c-.26,0-.48.07-.64.21-.16.14-.24.31-.24.49,0,.34.2.55.61.64l.86.19c.48.1.85.29,1.09.57s.37.61.37,1.01c0,.19-.04.38-.12.57-.08.19-.2.37-.36.53-.16.16-.36.29-.6.39s-.53.15-.86.15c-.37,0-.68-.05-.94-.15-.26-.1-.48-.23-.65-.39s-.3-.32-.4-.5-.15-.35-.17-.5l.94-.33Z"/>
    <path d="M215.11,106.9c0-.21.07-.39.21-.53.14-.14.32-.21.52-.21s.39.07.53.21.21.32.21.53-.07.38-.21.52-.32.21-.53.21-.38-.07-.52-.21c-.14-.14-.21-.32-.21-.52ZM215.34,114.19v-5.29h1.02v5.29h-1.02Z"/>
    <path d="M219.16,114.19h-1.03v-5.29h1.01v.76c.19-.33.43-.56.73-.7.29-.14.59-.21.9-.21s.59.05.83.16c.24.11.44.25.59.44s.28.41.35.67c.08.26.12.53.12.83v3.35h-1.03v-3.18c0-.18-.02-.36-.06-.52-.04-.16-.11-.3-.21-.42-.1-.12-.23-.22-.38-.29-.16-.07-.35-.1-.58-.1-.21,0-.38.04-.54.12s-.28.18-.38.31c-.1.13-.18.29-.23.46-.05.18-.08.36-.08.56v3.06Z"/>
    <path d="M224.92,114.25c.04.37.19.68.45.93.26.25.59.37,1,.37.56,0,.97-.14,1.23-.43.26-.29.39-.71.39-1.29v-.76c-.12.24-.33.45-.61.62-.28.17-.62.25-1.01.25-.35,0-.68-.06-.97-.19-.3-.13-.55-.3-.77-.53-.21-.22-.38-.49-.51-.81-.12-.31-.18-.66-.18-1.03s.06-.69.18-1.01c.12-.31.28-.58.5-.81.21-.23.47-.41.76-.55s.63-.2,1-.2c.41,0,.75.07,1.02.22s.47.35.61.62v-.74h1.02v4.9c0,.34-.04.67-.13.98-.09.32-.24.6-.45.85s-.48.44-.82.59-.76.23-1.25.23c-.33,0-.64-.05-.92-.15-.28-.1-.53-.24-.75-.41-.22-.18-.39-.38-.53-.62-.13-.24-.22-.5-.25-.79l1-.23ZM226.52,113.07c.45,0,.81-.15,1.09-.46.28-.31.42-.72.42-1.23s-.14-.92-.42-1.23c-.28-.31-.64-.46-1.09-.46s-.83.15-1.11.46c-.28.31-.42.72-.42,1.23s.14.93.41,1.24c.28.3.65.46,1.12.46Z"/>
    <path d="M233.41,116.28v-7.38h1v.83c.15-.26.37-.49.67-.67.3-.18.67-.27,1.1-.27.4,0,.75.07,1.05.21.3.14.56.34.76.59.2.25.36.54.46.88s.16.7.16,1.08-.05.76-.17,1.1c-.11.34-.27.63-.48.89-.21.25-.47.45-.78.59-.3.14-.65.21-1.04.21-.41,0-.76-.08-1.05-.25-.29-.17-.51-.37-.66-.6v2.8h-1.02ZM237.56,111.54c0-.26-.04-.51-.11-.73-.07-.22-.18-.42-.31-.58s-.29-.3-.49-.39c-.19-.1-.41-.14-.65-.14s-.45.05-.64.14c-.2.1-.36.23-.5.39-.14.17-.25.36-.32.58-.07.22-.11.47-.11.73s.04.52.11.75c.07.23.18.43.32.59.14.17.3.29.5.39.19.09.41.14.64.14s.46-.05.65-.14c.19-.09.35-.22.49-.39.14-.16.24-.36.31-.59.07-.23.11-.48.11-.75Z"/>
    <path d="M239.6,112.77c0-.23.04-.45.12-.63.08-.19.19-.35.34-.48.14-.13.31-.24.51-.32.2-.08.41-.14.64-.18l1.43-.21c.16-.02.27-.07.32-.14s.08-.16.08-.25c0-.26-.09-.48-.27-.67s-.47-.28-.88-.28c-.37,0-.65.1-.85.3-.2.2-.32.46-.35.76l-.99-.23c.03-.25.1-.48.22-.69.12-.21.28-.39.47-.54.19-.15.41-.27.67-.35.25-.08.52-.13.81-.13.4,0,.73.05,1.01.16.28.11.51.25.68.42.18.18.3.38.38.62.08.23.12.48.12.74v2.65c0,.23,0,.42.02.56.01.14.03.24.04.31h-1.01c-.01-.07-.03-.15-.04-.26-.01-.11-.02-.26-.02-.45-.06.1-.13.19-.23.3s-.21.2-.35.29c-.14.09-.3.16-.49.21s-.4.08-.63.08c-.27,0-.52-.04-.73-.13-.22-.09-.4-.2-.56-.35s-.27-.31-.36-.5c-.08-.19-.13-.39-.13-.6ZM241.52,113.49c.21,0,.41-.03.6-.08.19-.05.35-.14.48-.26.14-.12.24-.28.32-.48.08-.2.12-.45.12-.73v-.24l-1.62.24c-.22.04-.4.12-.55.25-.15.13-.22.31-.22.54,0,.2.08.38.23.53s.36.24.63.24Z"/>
    <path d="M245.88,116.4l1.32-2.79-2.28-4.71h1.19l1.65,3.65,1.58-3.65h1.11l-3.44,7.5h-1.13Z"/>
    <path d="M251.44,114.19v-7.96h1.04v7.96h-1.04Z"/>
    <path d="M256.5,108.74c.4,0,.76.07,1.09.21.33.14.62.34.86.59.24.25.43.54.56.89.13.34.2.71.2,1.12s-.06.78-.2,1.12c-.13.34-.32.64-.56.89-.24.25-.53.45-.86.59-.33.14-.69.21-1.09.21s-.76-.07-1.09-.21c-.33-.14-.62-.34-.86-.59-.24-.25-.43-.55-.56-.89-.13-.34-.2-.72-.2-1.12s.06-.78.2-1.12c.13-.34.32-.64.56-.89.24-.25.53-.45.86-.59.33-.14.69-.21,1.09-.21ZM256.5,113.43c.22,0,.43-.04.63-.12s.38-.2.53-.36c.15-.16.28-.36.36-.59s.13-.51.13-.81-.04-.58-.13-.81-.21-.43-.36-.59c-.15-.16-.33-.28-.53-.36-.2-.08-.41-.12-.63-.12s-.43.04-.63.12c-.2.08-.38.2-.53.36-.15.16-.28.36-.36.59s-.13.5-.13.81.04.58.13.81.21.43.36.59c.15.16.33.28.53.36s.41.12.63.12Z"/>
    <path d="M260.2,112.77c0-.23.04-.45.12-.63.08-.19.19-.35.34-.48.14-.13.31-.24.51-.32.2-.08.41-.14.64-.18l1.43-.21c.16-.02.27-.07.32-.14s.08-.16.08-.25c0-.26-.09-.48-.27-.67s-.47-.28-.88-.28c-.37,0-.65.1-.85.3-.2.2-.32.46-.35.76l-.99-.23c.03-.25.1-.48.22-.69.12-.21.28-.39.47-.54.19-.15.41-.27.67-.35.25-.08.52-.13.81-.13.4,0,.73.05,1.01.16.28.11.51.25.68.42.18.18.3.38.38.62.08.23.12.48.12.74v2.65c0,.23,0,.42.02.56.01.14.03.24.04.31h-1.01c-.01-.07-.03-.15-.04-.26-.01-.11-.02-.26-.02-.45-.06.1-.13.19-.23.3s-.21.2-.35.29c-.14.09-.3.16-.49.21s-.4.08-.63.08c-.27,0-.52-.04-.73-.13-.22-.09-.4-.2-.56-.35s-.27-.31-.36-.5c-.08-.19-.13-.39-.13-.6ZM262.11,113.49c.21,0,.41-.03.6-.08.19-.05.35-.14.48-.26.14-.12.24-.28.32-.48.08-.2.12-.45.12-.73v-.24l-1.62.24c-.22.04-.4.12-.55.25-.15.13-.22.31-.22.54,0,.2.08.38.23.53s.36.24.63.24Z"/>
    <path d="M269.99,113.39c-.12.26-.32.48-.6.67s-.62.28-1.04.28c-.39,0-.74-.07-1.04-.21-.31-.14-.57-.34-.79-.59s-.38-.55-.5-.89c-.12-.34-.18-.71-.18-1.11,0-.37.06-.73.18-1.06.12-.33.29-.63.51-.88.22-.25.48-.45.79-.6s.65-.23,1.02-.23c.23,0,.44.03.62.08s.34.12.47.2c.13.08.24.18.33.29.09.11.15.21.2.32v-3.42h1.02v6.98c0,.26,0,.47.02.65.01.18.03.29.03.33h-1c-.02-.06-.03-.15-.04-.28,0-.13-.02-.27-.02-.43v-.09ZM266.89,111.53c0,.27.04.52.11.75.07.23.17.43.3.6.13.17.29.3.48.4.19.1.41.14.66.14.23,0,.45-.05.64-.15s.35-.23.48-.4c.13-.17.23-.37.3-.6.07-.23.1-.49.1-.76,0-.55-.13-.99-.4-1.33-.27-.34-.64-.51-1.12-.51-.23,0-.45.05-.64.14-.19.09-.36.22-.49.38s-.24.36-.31.59c-.07.23-.11.48-.11.75Z"/>
    <path d="M273.19,112.49c.04.28.16.51.36.7.21.19.5.29.87.29.29,0,.52-.07.67-.21s.23-.3.23-.5c0-.17-.06-.31-.18-.43-.12-.12-.29-.2-.51-.25l-.9-.2c-.42-.09-.74-.26-.97-.53-.23-.26-.35-.58-.35-.96,0-.23.05-.44.15-.64.1-.2.23-.38.4-.53.17-.15.37-.27.6-.36.23-.09.47-.13.73-.13.36,0,.66.05.91.15.25.1.45.23.6.38s.27.31.35.47c.08.16.13.3.16.42l-.91.34c-.02-.07-.04-.15-.08-.25-.04-.1-.1-.2-.18-.29-.08-.09-.19-.17-.33-.24s-.31-.1-.52-.1c-.26,0-.48.07-.64.21-.16.14-.24.31-.24.49,0,.34.2.55.61.64l.86.19c.48.1.85.29,1.09.57s.37.61.37,1.01c0,.19-.04.38-.12.57-.08.19-.2.37-.36.53-.16.16-.36.29-.6.39s-.53.15-.86.15c-.37,0-.68-.05-.94-.15-.26-.1-.48-.23-.65-.39s-.3-.32-.4-.5-.15-.35-.17-.5l.94-.33Z"/>
    <path d="M283.96,113.55c-.15.28-.37.48-.66.61-.29.13-.59.19-.9.19s-.58-.06-.83-.17-.45-.26-.62-.45c-.17-.19-.3-.41-.39-.67-.09-.26-.14-.54-.14-.84v-3.33h1.03v3.18c0,.18.02.36.07.52.04.17.11.31.21.43.1.12.22.22.37.3.15.07.33.11.55.11.42,0,.73-.12.94-.37.21-.25.31-.58.31-.98v-3.19h1.03v4.31c0,.21,0,.41.02.58,0,.17.02.31.04.4h-.99c-.02-.06-.03-.15-.03-.28,0-.13-.01-.25-.01-.36Z"/>
    <path d="M286.69,116.28v-7.38h1v.83c.15-.26.37-.49.67-.67.3-.18.67-.27,1.1-.27.39,0,.75.07,1.05.21.3.14.56.34.76.59s.36.54.46.88c.11.34.16.7.16,1.08s-.05.76-.16,1.1c-.11.34-.27.63-.48.89s-.47.45-.78.59c-.3.14-.65.21-1.04.21-.41,0-.76-.08-1.06-.25-.29-.17-.51-.37-.66-.6v2.8h-1.02ZM290.84,111.54c0-.26-.04-.51-.11-.73-.07-.22-.18-.42-.31-.58-.13-.17-.3-.3-.49-.39-.2-.1-.41-.14-.65-.14s-.45.05-.64.14c-.19.1-.36.23-.5.39s-.25.36-.32.58c-.07.22-.11.47-.11.73s.04.52.11.75c.07.23.18.43.32.59.14.17.31.29.5.39.2.09.41.14.64.14s.46-.05.65-.14.35-.22.49-.39c.13-.16.24-.36.31-.59.07-.23.11-.48.11-.75Z"/>
    <path d="M297.35,108.9h1.14v.94h-1.14v2.75c0,.24.06.42.17.54s.3.18.57.18c.07,0,.14,0,.22-.01.08,0,.14-.02.19-.03v.88s-.13.03-.25.06c-.12.03-.28.04-.45.04-.46,0-.81-.13-1.08-.39s-.4-.63-.4-1.12v-2.9h-1.01v-.94h.29c.29,0,.49-.08.62-.23.13-.15.19-.35.19-.58v-.86h.95v1.67Z"/>
    <path d="M302.14,108.74c.39,0,.76.07,1.09.21.33.14.62.34.86.59.24.25.43.54.56.89.13.34.2.71.2,1.12s-.07.78-.2,1.12c-.13.34-.32.64-.56.89-.24.25-.53.45-.86.59-.33.14-.69.21-1.09.21s-.76-.07-1.09-.21c-.33-.14-.62-.34-.86-.59-.24-.25-.43-.55-.56-.89-.13-.34-.2-.72-.2-1.12s.07-.78.2-1.12c.13-.34.32-.64.56-.89.24-.25.53-.45.86-.59.33-.14.69-.21,1.09-.21ZM302.14,113.43c.22,0,.43-.04.63-.12.2-.08.37-.2.53-.36.15-.16.28-.36.36-.59s.13-.51.13-.81-.04-.58-.13-.81-.21-.43-.36-.59-.33-.28-.53-.36c-.2-.08-.41-.12-.63-.12s-.43.04-.63.12c-.2.08-.37.2-.53.36s-.28.36-.36.59-.13.5-.13.81.04.58.13.81.21.43.36.59c.15.16.33.28.53.36.2.08.41.12.63.12Z"/>
    <path d="M309.98,109.99l2.1-1.94h-3.41v-.99h4.84v.97l-2.04,1.88c.26,0,.53.04.79.13.26.09.49.22.7.4s.38.41.51.68c.13.27.2.59.2.96,0,.3-.06.59-.17.86s-.28.52-.5.73c-.22.21-.49.38-.81.51-.32.12-.69.19-1.11.19s-.78-.06-1.1-.19c-.32-.12-.6-.29-.82-.5-.22-.21-.4-.45-.52-.71-.12-.27-.2-.55-.21-.84l1.05-.24c0,.23.05.45.14.64.09.19.2.35.35.48s.31.23.49.31c.19.07.39.11.6.11.24,0,.46-.03.65-.1.19-.07.35-.17.47-.29s.22-.26.29-.42.1-.33.1-.51c0-.23-.04-.44-.13-.6-.08-.17-.2-.31-.34-.41-.14-.11-.29-.19-.47-.24-.17-.05-.35-.08-.52-.08-.21,0-.42.04-.63.11l-.53-.89Z"/>
    <path d="M319.13,108.9h1.14v.94h-1.14v2.75c0,.24.05.42.16.54.11.12.3.18.57.18.07,0,.14,0,.22-.01s.14-.02.19-.03v.88s-.13.03-.25.06c-.12.03-.28.04-.45.04-.46,0-.81-.13-1.08-.39s-.39-.63-.39-1.12v-2.9h-1.01v-.94h.29c.29,0,.49-.08.62-.23s.19-.35.19-.58v-.86h.95v1.67Z"/>
    <path d="M321.42,106.9c0-.21.07-.39.21-.53.14-.14.32-.21.52-.21s.39.07.53.21.21.32.21.53-.07.38-.21.52-.32.21-.53.21-.38-.07-.52-.21c-.14-.14-.21-.32-.21-.52ZM321.65,114.19v-5.29h1.02v5.29h-1.02Z"/>
    <path d="M324.44,114.19v-5.29h.99v.7c.17-.29.4-.51.7-.65s.6-.21.91-.21c.33,0,.64.08.93.24.29.16.51.41.65.76.21-.38.48-.64.79-.79.32-.14.64-.21.98-.21.23,0,.45.04.67.12.22.08.42.2.59.37.17.17.31.37.41.63.1.25.15.55.15.9v3.43h-1.02v-3.32c0-.34-.09-.63-.27-.86s-.46-.35-.85-.35c-.37,0-.66.13-.88.38s-.34.57-.34.95v3.2h-1.03v-3.32c0-.34-.09-.63-.26-.86s-.46-.35-.86-.35c-.37,0-.67.12-.9.37-.22.25-.33.57-.33.97v3.19h-1.02Z"/>
    <path d="M338.47,112.68c-.07.23-.18.45-.32.65s-.32.38-.52.53c-.2.15-.43.27-.69.36-.26.09-.54.13-.85.13-.35,0-.69-.06-1.01-.19-.32-.12-.61-.31-.85-.55-.25-.24-.44-.54-.58-.89-.14-.35-.21-.75-.21-1.2,0-.42.07-.8.21-1.14.14-.34.32-.63.55-.88.23-.25.5-.44.81-.57s.63-.2.96-.2c.4,0,.76.07,1.08.2.32.14.58.32.8.57s.38.53.49.87c.11.34.17.72.17,1.13,0,.07,0,.13,0,.19,0,.06,0,.11-.02.14h-3.98c0,.23.05.45.13.65.08.2.19.37.33.51.14.14.31.25.51.33.2.08.4.12.62.12.43,0,.76-.1.99-.31.23-.21.39-.46.5-.76l.89.31ZM337.43,111c-.01-.38-.14-.7-.38-.96s-.6-.39-1.07-.39c-.22,0-.42.04-.59.12-.17.08-.32.18-.44.31-.12.13-.22.27-.29.43-.07.16-.11.33-.12.5h2.89Z"/>
    <path d="M340.26,112.49c.04.28.16.51.36.7.21.19.49.29.87.29.29,0,.52-.07.67-.21.15-.14.23-.3.23-.5,0-.17-.06-.31-.18-.43-.12-.12-.29-.2-.51-.25l-.9-.2c-.42-.09-.74-.26-.97-.53-.23-.26-.35-.58-.35-.96,0-.23.05-.44.15-.64.1-.2.23-.38.4-.53.17-.15.37-.27.6-.36.23-.09.47-.13.73-.13.36,0,.66.05.91.15.24.1.45.23.6.38.15.15.27.31.35.47.08.16.13.3.16.42l-.91.34c-.01-.07-.04-.15-.08-.25-.04-.1-.1-.2-.18-.29-.08-.09-.19-.17-.33-.24-.14-.07-.31-.1-.52-.1-.26,0-.48.07-.64.21-.16.14-.24.31-.24.49,0,.34.2.55.61.64l.86.19c.48.1.85.29,1.1.57s.37.61.37,1.01c0,.19-.04.38-.12.57-.08.19-.2.37-.36.53-.16.16-.36.29-.6.39-.24.1-.53.15-.86.15-.37,0-.68-.05-.94-.15-.26-.1-.48-.23-.65-.39-.17-.15-.3-.32-.39-.5s-.15-.35-.17-.5l.94-.33Z"/>
    <path d="M349.81,108.74c.39,0,.76.07,1.09.21.33.14.62.34.86.59.24.25.43.54.56.89.13.34.2.71.2,1.12s-.07.78-.2,1.12c-.13.34-.32.64-.56.89-.24.25-.53.45-.86.59-.33.14-.69.21-1.09.21s-.76-.07-1.09-.21c-.33-.14-.62-.34-.86-.59-.24-.25-.43-.55-.56-.89-.13-.34-.2-.72-.2-1.12s.07-.78.2-1.12c.13-.34.32-.64.56-.89.24-.25.53-.45.86-.59.33-.14.69-.21,1.09-.21ZM349.81,113.43c.22,0,.43-.04.63-.12.2-.08.37-.2.53-.36.15-.16.28-.36.36-.59s.13-.51.13-.81-.04-.58-.13-.81-.21-.43-.36-.59-.33-.28-.53-.36c-.2-.08-.41-.12-.63-.12s-.43.04-.63.12c-.2.08-.37.2-.53.36s-.28.36-.36.59-.13.5-.13.81.04.58.13.81.21.43.36.59c.15.16.33.28.53.36.2.08.41.12.63.12Z"/>
    <path d="M354.87,114.19h-1.03v-5.29h1.01v.76c.19-.33.43-.56.73-.7.29-.14.59-.21.9-.21s.59.05.83.16c.24.11.44.25.59.44s.28.41.35.67c.08.26.12.53.12.83v3.35h-1.03v-3.18c0-.18-.02-.36-.06-.52-.04-.16-.11-.3-.21-.42-.1-.12-.23-.22-.38-.29-.16-.07-.35-.1-.58-.1-.21,0-.38.04-.54.12s-.28.18-.38.31c-.1.13-.18.29-.23.46-.05.18-.08.36-.08.56v3.06Z"/>
    <path d="M364.15,108.9h1.14v.94h-1.14v2.75c0,.24.06.42.17.54s.3.18.57.18c.07,0,.14,0,.22-.01.08,0,.14-.02.19-.03v.88s-.13.03-.25.06c-.12.03-.28.04-.45.04-.46,0-.81-.13-1.08-.39s-.4-.63-.4-1.12v-2.9h-1.01v-.94h.29c.29,0,.49-.08.62-.23.13-.15.19-.35.19-.58v-.86h.95v1.67Z"/>
    <path d="M367.71,114.19h-1.04v-7.96h1.04v3.29c.19-.28.43-.48.71-.59.29-.12.58-.18.89-.18s.59.05.83.16c.24.11.44.25.59.44.16.19.28.41.35.67.08.26.12.53.12.83v3.35h-1.04v-3.18c0-.18-.02-.36-.06-.52-.04-.16-.11-.3-.21-.42-.1-.12-.23-.22-.38-.29-.16-.07-.35-.1-.58-.1-.2,0-.37.04-.52.11s-.28.17-.38.3c-.1.12-.18.27-.24.44-.06.17-.09.35-.09.55v3.11Z"/>
    <path d="M377.46,112.68c-.07.23-.18.45-.32.65s-.32.38-.52.53c-.2.15-.43.27-.69.36-.26.09-.54.13-.85.13-.35,0-.69-.06-1.01-.19-.32-.12-.61-.31-.85-.55-.25-.24-.44-.54-.58-.89-.14-.35-.21-.75-.21-1.2,0-.42.07-.8.21-1.14.14-.34.32-.63.55-.88.23-.25.5-.44.81-.57s.63-.2.96-.2c.4,0,.76.07,1.08.2.32.14.58.32.8.57s.38.53.49.87c.11.34.17.72.17,1.13,0,.07,0,.13,0,.19,0,.06,0,.11-.02.14h-3.98c0,.23.05.45.13.65.08.2.19.37.33.51.14.14.31.25.51.33.2.08.4.12.62.12.43,0,.76-.1.99-.31.23-.21.39-.46.5-.76l.89.31ZM376.42,111c-.01-.38-.14-.7-.38-.96s-.6-.39-1.07-.39c-.22,0-.42.04-.59.12-.17.08-.32.18-.44.31-.12.13-.22.27-.29.43-.07.16-.11.33-.12.5h2.89Z"/>
    <path d="M381.57,116.28v-7.38h1v.83c.15-.26.37-.49.67-.67.3-.18.67-.27,1.1-.27.4,0,.75.07,1.05.21.3.14.56.34.76.59.2.25.36.54.46.88s.16.7.16,1.08-.05.76-.17,1.1c-.11.34-.27.63-.48.89-.21.25-.47.45-.78.59-.3.14-.65.21-1.04.21-.41,0-.76-.08-1.05-.25-.29-.17-.51-.37-.66-.6v2.8h-1.02ZM385.71,111.54c0-.26-.04-.51-.11-.73-.07-.22-.18-.42-.31-.58s-.29-.3-.49-.39c-.19-.1-.41-.14-.65-.14s-.45.05-.64.14c-.2.1-.36.23-.5.39-.14.17-.25.36-.32.58-.07.22-.11.47-.11.73s.04.52.11.75c.07.23.18.43.32.59.14.17.3.29.5.39.19.09.41.14.64.14s.46-.05.65-.14c.19-.09.35-.22.49-.39.14-.16.24-.36.31-.59.07-.23.11-.48.11-.75Z"/>
    <path d="M391.03,109.95c-.15-.02-.3-.03-.45-.03-.43,0-.78.13-1.05.38s-.4.67-.4,1.25v2.65h-1.04v-5.29h1.01v.92c.1-.21.21-.37.34-.5.13-.13.26-.23.4-.31.14-.08.28-.13.43-.16.15-.03.29-.04.42-.04.07,0,.14,0,.21.01.06,0,.11.02.14.02v1.1Z"/>
    <path d="M391.9,106.9c0-.21.07-.39.21-.53s.32-.21.52-.21.39.07.54.21c.14.14.21.32.21.53s-.07.38-.21.52c-.14.14-.32.21-.54.21s-.38-.07-.52-.21-.21-.32-.21-.52ZM392.13,114.19v-5.29h1.02v5.29h-1.02Z"/>
    <path d="M394.91,114.19v-5.29h.99v.7c.17-.29.4-.51.7-.65s.6-.21.91-.21c.33,0,.64.08.93.24.29.16.51.41.65.76.21-.38.48-.64.79-.79.31-.14.64-.21.98-.21.23,0,.45.04.67.12.22.08.42.2.59.37s.31.37.41.63c.1.25.15.55.15.9v3.43h-1.02v-3.32c0-.34-.09-.63-.27-.86s-.46-.35-.85-.35c-.37,0-.66.13-.88.38-.22.25-.34.57-.34.95v3.2h-1.04v-3.32c0-.34-.09-.63-.26-.86s-.46-.35-.86-.35c-.38,0-.67.12-.9.37-.22.25-.34.57-.34.97v3.19h-1.02Z"/>
    <path d="M404.01,112.77c0-.23.04-.45.12-.63.08-.19.19-.35.34-.48.14-.13.31-.24.51-.32.2-.08.41-.14.64-.18l1.43-.21c.16-.02.27-.07.32-.14.06-.07.08-.16.08-.25,0-.26-.09-.48-.27-.67s-.47-.28-.88-.28c-.37,0-.65.1-.85.3-.2.2-.31.46-.35.76l-.99-.23c.03-.25.11-.48.23-.69.12-.21.28-.39.47-.54s.41-.27.67-.35c.25-.08.52-.13.81-.13.39,0,.73.05,1.01.16.28.11.51.25.68.42.18.18.3.38.38.62.08.23.12.48.12.74v2.65c0,.23,0,.42.02.56.02.14.03.24.04.31h-1.01c-.02-.07-.03-.15-.04-.26-.01-.11-.02-.26-.02-.45-.06.1-.14.19-.23.3s-.21.2-.35.29c-.14.09-.3.16-.49.21-.19.06-.4.08-.63.08-.27,0-.52-.04-.73-.13-.22-.09-.4-.2-.55-.35s-.27-.31-.36-.5c-.09-.19-.13-.39-.13-.6ZM405.92,113.49c.21,0,.41-.03.6-.08.19-.05.35-.14.48-.26.13-.12.24-.28.32-.48.08-.2.12-.45.12-.73v-.24l-1.62.24c-.22.04-.4.12-.55.25-.15.13-.22.31-.22.54,0,.2.08.38.23.53s.36.24.63.24Z"/>
    <path d="M413.03,109.95c-.15-.02-.3-.03-.45-.03-.43,0-.78.13-1.05.38s-.4.67-.4,1.25v2.65h-1.04v-5.29h1.01v.92c.1-.21.21-.37.34-.5.13-.13.26-.23.4-.31.14-.08.28-.13.43-.16.15-.03.29-.04.42-.04.07,0,.14,0,.21.01.06,0,.11.02.14.02v1.1Z"/>
    <path d="M414.31,116.4l1.32-2.79-2.28-4.71h1.19l1.65,3.65,1.58-3.65h1.11l-3.44,7.5h-1.13Z"/>
    <path d="M422.3,112.77c0-.23.04-.45.12-.63.08-.19.19-.35.34-.48.14-.13.31-.24.51-.32.2-.08.41-.14.64-.18l1.43-.21c.16-.02.27-.07.32-.14.06-.07.08-.16.08-.25,0-.26-.09-.48-.27-.67s-.47-.28-.88-.28c-.37,0-.65.1-.85.3-.2.2-.31.46-.35.76l-.99-.23c.03-.25.11-.48.23-.69.12-.21.28-.39.47-.54s.41-.27.67-.35c.25-.08.52-.13.81-.13.39,0,.73.05,1.01.16.28.11.51.25.68.42.18.18.3.38.38.62.08.23.12.48.12.74v2.65c0,.23,0,.42.02.56.02.14.03.24.04.31h-1.01c-.02-.07-.03-.15-.04-.26-.01-.11-.02-.26-.02-.45-.06.1-.14.19-.23.3s-.21.2-.35.29c-.14.09-.3.16-.49.21-.19.06-.4.08-.63.08-.27,0-.52-.04-.73-.13-.22-.09-.4-.2-.55-.35s-.27-.31-.36-.5c-.09-.19-.13-.39-.13-.6ZM424.21,113.49c.21,0,.41-.03.6-.08.19-.05.35-.14.48-.26.13-.12.24-.28.32-.48.08-.2.12-.45.12-.73v-.24l-1.62.24c-.22.04-.4.12-.55.25-.15.13-.22.31-.22.54,0,.2.08.38.23.53s.36.24.63.24Z"/>
    <path d="M432.09,113.39c-.12.26-.32.48-.6.67-.27.19-.62.28-1.04.28-.39,0-.74-.07-1.04-.21-.31-.14-.57-.34-.79-.59-.21-.25-.38-.55-.5-.89-.12-.34-.18-.71-.18-1.11,0-.37.06-.73.18-1.06.12-.33.29-.63.51-.88.22-.25.48-.45.79-.6.31-.15.65-.23,1.02-.23.23,0,.44.03.62.08s.34.12.47.2c.13.08.24.18.33.29.09.11.15.21.2.32v-3.42h1.02v6.98c0,.26,0,.47.02.65.02.18.03.29.03.33h-1c-.01-.06-.03-.15-.04-.28-.01-.13-.02-.27-.02-.43v-.09ZM429,111.53c0,.27.03.52.1.75s.17.43.3.6c.13.17.29.3.48.4.19.1.41.14.66.14.23,0,.45-.05.64-.15.19-.1.35-.23.48-.4.13-.17.23-.37.3-.6.07-.23.11-.49.11-.76,0-.55-.13-.99-.4-1.33-.27-.34-.64-.51-1.12-.51-.23,0-.45.05-.64.14-.2.09-.36.22-.49.38-.14.17-.24.36-.31.59-.07.23-.11.48-.11.75Z"/>
    <path d="M437.27,114.19h-1.04l-2.14-5.29h1.17l1.51,4.08,1.52-4.08h1.11l-2.11,5.29Z"/>
    <path d="M444.98,112.68c-.07.23-.18.45-.32.65s-.32.38-.52.53c-.2.15-.43.27-.69.36-.26.09-.54.13-.85.13-.35,0-.69-.06-1.01-.19-.32-.12-.61-.31-.85-.55-.25-.24-.44-.54-.58-.89-.14-.35-.21-.75-.21-1.2,0-.42.07-.8.21-1.14.14-.34.32-.63.55-.88.23-.25.5-.44.81-.57s.63-.2.96-.2c.4,0,.76.07,1.08.2.32.14.58.32.8.57s.38.53.49.87c.11.34.17.72.17,1.13,0,.07,0,.13,0,.19,0,.06,0,.11-.02.14h-3.98c0,.23.05.45.13.65.08.2.19.37.33.51.14.14.31.25.51.33.2.08.4.12.62.12.43,0,.76-.1.99-.31.23-.21.39-.46.5-.76l.89.31ZM443.94,111c-.01-.38-.14-.7-.38-.96s-.6-.39-1.07-.39c-.22,0-.42.04-.59.12-.17.08-.32.18-.44.31-.12.13-.22.27-.29.43-.07.16-.11.33-.12.5h2.89Z"/>
    <path d="M449.27,109.95c-.15-.02-.3-.03-.45-.03-.43,0-.78.13-1.05.38s-.4.67-.4,1.25v2.65h-1.03v-5.29h1.01v.92c.1-.21.21-.37.34-.5.13-.13.26-.23.4-.31.14-.08.28-.13.43-.16s.29-.04.42-.04c.07,0,.14,0,.2.01.06,0,.11.02.14.02v1.1Z"/>
    <path d="M452.03,108.9h1.14v.94h-1.14v2.75c0,.24.06.42.17.54s.3.18.57.18c.07,0,.14,0,.22-.01.08,0,.14-.02.19-.03v.88s-.13.03-.25.06c-.12.03-.28.04-.45.04-.46,0-.81-.13-1.08-.39s-.4-.63-.4-1.12v-2.9h-1.01v-.94h.29c.29,0,.49-.08.62-.23.13-.15.19-.35.19-.58v-.86h.95v1.67Z"/>
    <path d="M454.32,106.9c0-.21.07-.39.21-.53s.32-.21.52-.21.39.07.54.21c.14.14.21.32.21.53s-.07.38-.21.52c-.14.14-.32.21-.54.21s-.38-.07-.52-.21-.21-.32-.21-.52ZM454.55,114.19v-5.29h1.02v5.29h-1.02Z"/>
    <path d="M457.78,112.49c.04.28.16.51.36.7.21.19.5.29.87.29.29,0,.52-.07.67-.21s.23-.3.23-.5c0-.17-.06-.31-.18-.43-.12-.12-.29-.2-.51-.25l-.9-.2c-.42-.09-.74-.26-.97-.53-.23-.26-.35-.58-.35-.96,0-.23.05-.44.15-.64.1-.2.23-.38.4-.53.17-.15.37-.27.6-.36.23-.09.47-.13.73-.13.36,0,.66.05.91.15.25.1.45.23.6.38s.27.31.35.47c.08.16.13.3.16.42l-.91.34c-.02-.07-.04-.15-.08-.25-.04-.1-.1-.2-.18-.29-.08-.09-.19-.17-.33-.24s-.31-.1-.52-.1c-.26,0-.48.07-.64.21-.16.14-.24.31-.24.49,0,.34.2.55.61.64l.86.19c.48.1.85.29,1.09.57s.37.61.37,1.01c0,.19-.04.38-.12.57-.08.19-.2.37-.36.53-.16.16-.36.29-.6.39s-.53.15-.86.15c-.37,0-.68-.05-.94-.15-.26-.1-.48-.23-.65-.39s-.3-.32-.4-.5-.15-.35-.17-.5l.94-.33Z"/>
    <path d="M462.08,106.9c0-.21.07-.39.21-.53.14-.14.32-.21.52-.21s.39.07.53.21.21.32.21.53-.07.38-.21.52-.32.21-.53.21-.38-.07-.52-.21c-.14-.14-.21-.32-.21-.52ZM462.31,114.19v-5.29h1.02v5.29h-1.02Z"/>
    <path d="M466.12,114.19h-1.03v-5.29h1.01v.76c.19-.33.43-.56.73-.7.29-.14.59-.21.9-.21s.59.05.83.16c.24.11.44.25.59.44s.28.41.35.67c.08.26.12.53.12.83v3.35h-1.03v-3.18c0-.18-.02-.36-.06-.52-.04-.16-.11-.3-.21-.42-.1-.12-.23-.22-.38-.29-.16-.07-.35-.1-.58-.1-.21,0-.38.04-.54.12s-.28.18-.38.31c-.1.13-.18.29-.23.46-.05.18-.08.36-.08.56v3.06Z"/>
    <path d="M471.89,114.25c.04.37.19.68.45.93.26.25.59.37,1,.37.56,0,.97-.14,1.23-.43.26-.29.39-.71.39-1.29v-.76c-.12.24-.33.45-.61.62-.28.17-.62.25-1.01.25-.35,0-.68-.06-.97-.19-.3-.13-.55-.3-.77-.53-.21-.22-.38-.49-.51-.81-.12-.31-.18-.66-.18-1.03s.06-.69.18-1.01c.12-.31.28-.58.5-.81.21-.23.47-.41.76-.55s.63-.2,1-.2c.41,0,.75.07,1.02.22s.47.35.61.62v-.74h1.02v4.9c0,.34-.04.67-.13.98-.09.32-.24.6-.45.85s-.48.44-.82.59-.76.23-1.25.23c-.33,0-.64-.05-.92-.15-.28-.1-.53-.24-.75-.41-.22-.18-.39-.38-.53-.62-.13-.24-.22-.5-.25-.79l1-.23ZM473.48,113.07c.45,0,.81-.15,1.09-.46.28-.31.42-.72.42-1.23s-.14-.92-.42-1.23c-.28-.31-.64-.46-1.09-.46s-.83.15-1.11.46c-.28.31-.42.72-.42,1.23s.14.93.41,1.24c.28.3.65.46,1.12.46Z"/>
    <path d="M482.6,109.69c-.21,0-.41.04-.6.12-.19.08-.36.19-.51.35-.15.15-.27.35-.36.58s-.13.5-.13.81.04.57.13.8.21.43.35.58.32.28.52.36c.2.08.4.12.62.12.25,0,.46-.04.63-.11s.31-.17.43-.27c.11-.11.2-.23.27-.36.06-.13.11-.24.14-.35l.91.4c-.07.19-.16.38-.29.58-.12.19-.29.37-.48.53-.2.16-.43.29-.7.39s-.57.15-.92.15c-.39,0-.75-.07-1.07-.21-.33-.14-.61-.34-.84-.59s-.42-.55-.55-.89c-.14-.34-.2-.71-.2-1.12s.07-.79.2-1.13c.13-.34.32-.64.56-.89s.52-.44.85-.58c.33-.14.68-.21,1.05-.21.35,0,.66.05.93.15s.5.23.69.39c.2.16.35.34.47.54.12.2.21.4.26.6l-.94.4c-.04-.13-.09-.26-.15-.4s-.16-.25-.27-.36-.25-.19-.41-.26c-.16-.07-.36-.1-.58-.1Z"/>
    <path d="M487.24,114.19h-1.03v-7.96h1.03v3.29c.19-.28.43-.48.71-.59.29-.12.58-.18.89-.18s.59.05.83.16c.24.11.44.25.59.44s.28.41.35.67c.08.26.12.53.12.83v3.35h-1.03v-3.18c0-.18-.02-.36-.06-.52-.04-.16-.11-.3-.21-.42-.1-.12-.23-.22-.38-.29-.16-.07-.35-.1-.58-.1-.2,0-.37.04-.52.11s-.28.17-.38.3c-.1.12-.18.27-.24.44-.05.17-.09.35-.09.55v3.11Z"/>
    <path d="M492.06,112.77c0-.23.04-.45.12-.63.08-.19.19-.35.34-.48.14-.13.31-.24.51-.32.2-.08.41-.14.64-.18l1.43-.21c.16-.02.27-.07.32-.14.06-.07.08-.16.08-.25,0-.26-.09-.48-.27-.67s-.47-.28-.88-.28c-.37,0-.65.1-.85.3-.2.2-.31.46-.35.76l-.99-.23c.03-.25.11-.48.23-.69.12-.21.28-.39.47-.54s.41-.27.67-.35c.25-.08.52-.13.81-.13.39,0,.73.05,1.01.16.28.11.51.25.68.42.18.18.3.38.38.62.08.23.12.48.12.74v2.65c0,.23,0,.42.02.56.02.14.03.24.04.31h-1.01c-.02-.07-.03-.15-.04-.26-.01-.11-.02-.26-.02-.45-.06.1-.14.19-.23.3s-.21.2-.35.29c-.14.09-.3.16-.49.21-.19.06-.4.08-.63.08-.27,0-.52-.04-.73-.13-.22-.09-.4-.2-.55-.35s-.27-.31-.36-.5c-.09-.19-.13-.39-.13-.6ZM493.98,113.49c.21,0,.41-.03.6-.08.19-.05.35-.14.48-.26.13-.12.24-.28.32-.48.08-.2.12-.45.12-.73v-.24l-1.62.24c-.22.04-.4.12-.55.25-.15.13-.22.31-.22.54,0,.2.08.38.23.53s.36.24.63.24Z"/>
    <path d="M499.18,114.19h-1.04v-5.29h1.01v.76c.19-.33.43-.56.73-.7s.59-.21.9-.21.59.05.83.16c.24.11.44.25.59.44.16.19.28.41.35.67.08.26.12.53.12.83v3.35h-1.04v-3.18c0-.18-.02-.36-.06-.52-.04-.16-.11-.3-.21-.42-.1-.12-.23-.22-.38-.29-.16-.07-.35-.1-.58-.1-.21,0-.39.04-.54.12-.15.08-.28.18-.39.31-.1.13-.18.29-.23.46-.05.18-.08.36-.08.56v3.06Z"/>
    <path d="M505.36,114.19h-1.04v-5.29h1.01v.76c.19-.33.43-.56.73-.7s.59-.21.9-.21.59.05.83.16c.24.11.44.25.59.44.16.19.28.41.35.67.08.26.12.53.12.83v3.35h-1.04v-3.18c0-.18-.02-.36-.06-.52-.04-.16-.11-.3-.21-.42-.1-.12-.23-.22-.38-.29-.16-.07-.35-.1-.58-.1-.21,0-.39.04-.54.12-.15.08-.28.18-.39.31-.1.13-.18.29-.23.46-.05.18-.08.36-.08.56v3.06Z"/>
    <path d="M515.12,112.68c-.07.23-.18.45-.32.65s-.32.38-.52.53c-.2.15-.43.27-.69.36-.26.09-.54.13-.85.13-.35,0-.69-.06-1.01-.19-.32-.12-.61-.31-.85-.55-.25-.24-.44-.54-.58-.89-.14-.35-.21-.75-.21-1.2,0-.42.07-.8.21-1.14.14-.34.32-.63.55-.88.23-.25.5-.44.81-.57s.63-.2.96-.2c.4,0,.76.07,1.08.2.32.14.58.32.8.57s.38.53.49.87c.11.34.17.72.17,1.13,0,.07,0,.13,0,.19,0,.06,0,.11-.02.14h-3.98c0,.23.05.45.13.65.08.2.19.37.33.51.14.14.31.25.51.33.2.08.4.12.62.12.43,0,.76-.1.99-.31.23-.21.39-.46.5-.76l.89.31ZM514.07,111c-.01-.38-.14-.7-.38-.96s-.6-.39-1.07-.39c-.22,0-.42.04-.59.12-.17.08-.32.18-.44.31-.12.13-.22.27-.29.43-.07.16-.11.33-.12.5h2.89Z"/>
    <path d="M516.47,114.19v-7.96h1.03v7.96h-1.03Z"/>
    <path d="M519.71,112.49c.04.28.16.51.36.7.21.19.5.29.87.29.29,0,.52-.07.67-.21s.23-.3.23-.5c0-.17-.06-.31-.18-.43-.12-.12-.29-.2-.51-.25l-.9-.2c-.42-.09-.74-.26-.97-.53-.23-.26-.35-.58-.35-.96,0-.23.05-.44.15-.64.1-.2.23-.38.4-.53.17-.15.37-.27.6-.36.23-.09.47-.13.73-.13.36,0,.66.05.91.15.25.1.45.23.6.38s.27.31.35.47c.08.16.13.3.16.42l-.91.34c-.02-.07-.04-.15-.08-.25-.04-.1-.1-.2-.18-.29-.08-.09-.19-.17-.33-.24s-.31-.1-.52-.1c-.26,0-.48.07-.64.21-.16.14-.24.31-.24.49,0,.34.2.55.61.64l.86.19c.48.1.85.29,1.09.57s.37.61.37,1.01c0,.19-.04.38-.12.57-.08.19-.2.37-.36.53-.16.16-.36.29-.6.39s-.53.15-.86.15c-.37,0-.68-.05-.94-.15-.26-.1-.48-.23-.65-.39s-.3-.32-.4-.5-.15-.35-.17-.5l.94-.33Z"/>
  </g>
  <g>
    <path d="M39.73,260.31v-7.8h4.74v1h-3.66v2.4h3.32v1.01h-3.32v2.39h3.66v1h-4.74Z"/>
    <path d="M47.21,257.61l-1.9-2.6h1.25l1.3,1.86,1.28-1.86h1.22l-1.88,2.6c.05.07.13.18.23.32.1.14.22.3.35.47.13.18.26.36.4.55.14.19.27.38.4.56.13.18.24.33.35.47.1.14.18.25.23.32h-1.24l-1.36-1.95-1.34,1.95h-1.23l1.97-2.69Z"/>
    <path d="M52.79,255.01h1.14v.94h-1.14v2.75c0,.24.06.42.17.54.11.12.3.18.57.18.07,0,.14,0,.22-.01.08,0,.14-.02.19-.03v.88s-.13.04-.25.06c-.12.03-.28.04-.45.04-.46,0-.81-.13-1.08-.39-.26-.26-.4-.63-.4-1.12v-2.9h-1.01v-.94h.29c.29,0,.49-.08.62-.23.13-.15.19-.35.19-.58v-.86h.95v1.67Z"/>
    <path d="M59.92,258.8c-.07.23-.18.45-.33.65-.14.2-.32.38-.52.53-.2.15-.43.27-.69.36s-.54.13-.85.13c-.35,0-.69-.06-1.01-.19-.32-.12-.61-.31-.85-.55-.25-.24-.44-.54-.58-.89-.14-.35-.21-.75-.21-1.2,0-.42.07-.8.21-1.14.14-.34.32-.63.56-.88.23-.25.5-.44.81-.57.31-.14.63-.2.96-.2.4,0,.76.07,1.08.2s.58.32.8.57c.21.24.38.53.49.87.11.34.17.72.17,1.13,0,.07,0,.13,0,.19,0,.06,0,.11-.02.14h-3.98c0,.23.05.45.13.65.08.2.19.37.33.51s.31.25.51.33.4.12.62.12c.43,0,.76-.1.99-.31.23-.21.39-.46.5-.76l.89.31ZM58.88,257.12c-.01-.38-.14-.7-.39-.96-.24-.26-.6-.39-1.07-.39-.22,0-.42.04-.59.12-.17.08-.32.18-.44.31s-.22.27-.29.43-.11.33-.12.5h2.89Z"/>
    <path d="M62.31,260.31h-1.03v-5.29h1.01v.76c.19-.33.43-.56.73-.7.29-.14.59-.21.9-.21s.59.05.83.16.44.25.59.44c.16.19.28.41.35.67.08.26.12.53.12.83v3.35h-1.03v-3.18c0-.18-.02-.36-.06-.52-.04-.16-.11-.3-.21-.42s-.23-.22-.38-.29c-.16-.07-.35-.1-.58-.1-.21,0-.39.04-.54.12-.15.08-.28.18-.39.31s-.18.29-.23.46c-.05.18-.08.36-.08.56v3.06Z"/>
    <path d="M71.16,259.5c-.12.26-.32.48-.6.67-.27.19-.62.28-1.04.28-.39,0-.74-.07-1.04-.21-.31-.14-.57-.34-.79-.59-.22-.25-.38-.55-.5-.89-.12-.34-.18-.71-.18-1.11,0-.37.06-.73.18-1.06.12-.33.29-.63.51-.88s.48-.45.79-.6c.31-.15.65-.23,1.02-.23.23,0,.44.03.62.08.18.05.34.12.47.2s.24.18.33.29.15.21.2.32v-3.42h1.02v6.99c0,.26,0,.47.02.65.01.18.03.29.03.33h-1c-.01-.06-.03-.15-.04-.28s-.02-.27-.02-.43v-.09ZM68.07,257.64c0,.27.03.52.1.75.07.23.17.43.3.6s.29.3.48.4c.19.1.41.14.66.14.23,0,.45-.05.64-.15.19-.1.35-.23.48-.4.13-.17.23-.37.3-.61.07-.23.1-.49.1-.76,0-.55-.13-.99-.4-1.33-.27-.34-.64-.51-1.12-.51-.23,0-.45.05-.64.14s-.36.22-.49.38c-.14.17-.24.36-.31.59-.07.23-.11.48-.11.75Z"/>
    <path d="M78.53,258.8c-.07.23-.18.45-.33.65-.14.2-.32.38-.52.53-.2.15-.43.27-.69.36s-.54.13-.85.13c-.35,0-.69-.06-1.01-.19-.32-.12-.61-.31-.85-.55-.25-.24-.44-.54-.58-.89-.14-.35-.21-.75-.21-1.2,0-.42.07-.8.21-1.14.14-.34.32-.63.56-.88.23-.25.5-.44.81-.57.31-.14.63-.2.96-.2.4,0,.76.07,1.08.2s.58.32.8.57c.21.24.38.53.49.87.11.34.17.72.17,1.13,0,.07,0,.13,0,.19,0,.06,0,.11-.02.14h-3.98c0,.23.05.45.13.65.08.2.19.37.33.51s.31.25.51.33.4.12.62.12c.43,0,.76-.1.99-.31.23-.21.39-.46.5-.76l.89.31ZM77.49,257.12c-.01-.38-.14-.7-.39-.96-.24-.26-.6-.39-1.07-.39-.22,0-.42.04-.59.12-.17.08-.32.18-.44.31s-.22.27-.29.43-.11.33-.12.5h2.89Z"/>
    <path d="M83.59,259.5c-.12.26-.32.48-.6.67-.27.19-.62.28-1.04.28-.39,0-.74-.07-1.04-.21-.31-.14-.57-.34-.79-.59-.22-.25-.38-.55-.5-.89-.12-.34-.18-.71-.18-1.11,0-.37.06-.73.18-1.06.12-.33.29-.63.51-.88s.48-.45.79-.6c.31-.15.65-.23,1.02-.23.23,0,.44.03.62.08.18.05.34.12.47.2s.24.18.33.29.15.21.2.32v-3.42h1.02v6.99c0,.26,0,.47.02.65.01.18.03.29.03.33h-1c-.01-.06-.03-.15-.04-.28s-.02-.27-.02-.43v-.09ZM80.5,257.64c0,.27.03.52.1.75.07.23.17.43.3.6s.29.3.48.4c.19.1.41.14.66.14.23,0,.45-.05.64-.15.19-.1.35-.23.48-.4.13-.17.23-.37.3-.61.07-.23.1-.49.1-.76,0-.55-.13-.99-.4-1.33-.27-.34-.64-.51-1.12-.51-.23,0-.45.05-.64.14s-.36.22-.49.38c-.14.17-.24.36-.31.59-.07.23-.11.48-.11.75Z"/>
    <path d="M88.77,258.89c0-.23.04-.45.12-.63.08-.19.19-.35.34-.48.14-.13.31-.24.51-.32.2-.08.41-.14.64-.18l1.43-.21c.16-.02.27-.07.32-.14.06-.07.08-.16.08-.25,0-.26-.09-.48-.27-.67-.18-.19-.47-.28-.88-.28-.37,0-.65.1-.85.3-.2.2-.32.46-.35.76l-.99-.23c.03-.25.1-.48.23-.69s.28-.39.47-.54c.19-.15.41-.27.67-.35s.52-.13.81-.13c.4,0,.73.05,1.01.16s.51.25.68.42c.18.18.3.38.38.62.08.23.12.48.12.74v2.65c0,.24,0,.42.02.56s.03.24.04.31h-1.01c-.01-.07-.03-.15-.04-.26-.01-.11-.02-.26-.02-.45-.06.1-.14.19-.23.3s-.21.2-.35.29c-.14.09-.3.16-.49.21-.19.05-.4.08-.63.08-.27,0-.52-.04-.73-.13-.22-.09-.4-.2-.56-.35-.15-.14-.27-.31-.36-.5-.08-.19-.13-.39-.13-.61ZM90.69,259.6c.21,0,.41-.03.6-.08.19-.05.35-.14.48-.26.14-.12.24-.28.32-.48.08-.2.12-.45.12-.73v-.24l-1.62.24c-.22.04-.4.12-.55.25-.15.13-.22.31-.22.54,0,.2.08.38.23.53.15.16.36.24.63.24Z"/>
    <path d="M98.56,259.5c-.12.26-.32.48-.6.67-.27.19-.62.28-1.04.28-.39,0-.74-.07-1.04-.21-.31-.14-.57-.34-.79-.59-.22-.25-.38-.55-.5-.89-.12-.34-.18-.71-.18-1.11,0-.37.06-.73.18-1.06.12-.33.29-.63.51-.88s.48-.45.79-.6c.31-.15.65-.23,1.02-.23.23,0,.44.03.62.08.18.05.34.12.47.2s.24.18.33.29.15.21.2.32v-3.42h1.02v6.99c0,.26,0,.47.02.65.01.18.03.29.03.33h-1c-.01-.06-.03-.15-.04-.28s-.02-.27-.02-.43v-.09ZM95.47,257.64c0,.27.03.52.1.75.07.23.17.43.3.6s.29.3.48.4c.19.1.41.14.66.14.23,0,.45-.05.64-.15.19-.1.35-.23.48-.4.13-.17.23-.37.3-.61.07-.23.1-.49.1-.76,0-.55-.13-.99-.4-1.33-.27-.34-.64-.51-1.12-.51-.23,0-.45.05-.64.14s-.36.22-.49.38c-.14.17-.24.36-.31.59-.07.23-.11.48-.11.75Z"/>
    <path d="M103.74,260.31h-1.04l-2.14-5.29h1.17l1.51,4.08,1.52-4.08h1.11l-2.11,5.29Z"/>
    <path d="M111.46,258.8c-.07.23-.18.45-.33.65-.14.2-.32.38-.52.53-.2.15-.43.27-.69.36s-.54.13-.85.13c-.35,0-.69-.06-1.01-.19-.32-.12-.61-.31-.85-.55-.25-.24-.44-.54-.58-.89-.14-.35-.21-.75-.21-1.2,0-.42.07-.8.21-1.14.14-.34.32-.63.56-.88.23-.25.5-.44.81-.57.31-.14.63-.2.96-.2.4,0,.76.07,1.08.2s.58.32.8.57c.21.24.38.53.49.87.11.34.17.72.17,1.13,0,.07,0,.13,0,.19,0,.06,0,.11-.02.14h-3.98c0,.23.05.45.13.65.08.2.19.37.33.51s.31.25.51.33.4.12.62.12c.43,0,.76-.1.99-.31.23-.21.39-.46.5-.76l.89.31ZM110.41,257.12c-.01-.38-.14-.7-.39-.96-.24-.26-.6-.39-1.07-.39-.22,0-.42.04-.59.12-.17.08-.32.18-.44.31s-.22.27-.29.43-.11.33-.12.5h2.89Z"/>
    <path d="M115.75,256.06c-.15-.02-.3-.03-.45-.03-.43,0-.78.13-1.05.38s-.4.67-.4,1.25v2.65h-1.03v-5.29h1.01v.92c.1-.21.21-.37.34-.5.13-.13.26-.23.4-.31.14-.08.28-.13.43-.16.15-.03.29-.04.42-.04.07,0,.14,0,.2.01.06,0,.11.02.14.02v1.1Z"/>
    <path d="M118.51,255.01h1.14v.94h-1.14v2.75c0,.24.06.42.17.54.11.12.3.18.57.18.07,0,.14,0,.22-.01.08,0,.14-.02.19-.03v.88s-.13.04-.25.06c-.12.03-.28.04-.45.04-.46,0-.81-.13-1.08-.39-.26-.26-.4-.63-.4-1.12v-2.9h-1.01v-.94h.29c.29,0,.49-.08.62-.23.13-.15.19-.35.19-.58v-.86h.95v1.67Z"/>
    <path d="M120.8,253.01c0-.21.07-.39.21-.53s.32-.21.52-.21.39.07.53.21.21.32.21.53-.07.38-.21.52-.32.21-.53.21-.38-.07-.52-.21-.21-.32-.21-.52ZM121.03,260.31v-5.29h1.02v5.29h-1.02Z"/>
    <path d="M124.25,258.6c.04.28.16.51.36.7.21.19.5.29.87.29.29,0,.52-.07.67-.21.15-.14.23-.3.23-.5,0-.17-.06-.31-.18-.43-.12-.12-.29-.2-.51-.25l-.9-.2c-.42-.09-.74-.26-.97-.53-.23-.26-.35-.58-.35-.96,0-.23.05-.44.15-.64.1-.2.23-.38.4-.53.17-.15.37-.27.6-.36.23-.09.47-.13.73-.13.36,0,.66.05.91.15.25.1.45.23.6.38.15.15.27.31.35.47.08.16.13.3.16.42l-.91.34c-.01-.07-.04-.15-.08-.25-.04-.1-.1-.2-.18-.29-.08-.09-.19-.17-.33-.24-.14-.07-.31-.1-.52-.1-.26,0-.48.07-.64.21-.16.14-.24.31-.24.49,0,.34.2.55.61.64l.86.19c.48.1.85.29,1.09.57.25.28.37.61.37,1.01,0,.19-.04.38-.12.57-.08.19-.2.37-.36.53-.16.16-.36.29-.6.39-.24.1-.53.15-.86.15-.37,0-.68-.05-.94-.15-.26-.1-.48-.23-.65-.39-.17-.15-.3-.32-.4-.5s-.15-.35-.17-.5l.94-.33Z"/>
    <path d="M128.55,253.01c0-.21.07-.39.21-.53s.32-.21.52-.21.39.07.53.21.21.32.21.53-.07.38-.21.52-.32.21-.53.21-.38-.07-.52-.21-.21-.32-.21-.52ZM128.78,260.31v-5.29h1.02v5.29h-1.02Z"/>
    <path d="M132.6,260.31h-1.03v-5.29h1.01v.76c.19-.33.43-.56.73-.7.29-.14.59-.21.9-.21s.59.05.83.16.44.25.59.44c.16.19.28.41.35.67.08.26.12.53.12.83v3.35h-1.03v-3.18c0-.18-.02-.36-.06-.52-.04-.16-.11-.3-.21-.42s-.23-.22-.38-.29c-.16-.07-.35-.1-.58-.1-.21,0-.39.04-.54.12-.15.08-.28.18-.39.31s-.18.29-.23.46c-.05.18-.08.36-.08.56v3.06Z"/>
    <path d="M138.36,260.36c.04.37.18.68.45.93.26.25.59.37,1,.37.56,0,.97-.14,1.23-.43.26-.29.39-.71.39-1.29v-.76c-.12.24-.33.45-.6.62-.28.17-.62.25-1.01.25-.35,0-.68-.06-.97-.19-.3-.13-.55-.3-.77-.53-.22-.22-.38-.49-.51-.81-.12-.31-.18-.66-.18-1.03s.06-.7.18-1.01.28-.58.5-.81c.21-.23.47-.41.76-.55s.63-.2,1-.2c.41,0,.75.07,1.02.22s.47.35.61.62v-.74h1.02v4.9c0,.34-.04.67-.13.98s-.24.6-.45.85c-.21.25-.48.44-.82.59-.34.15-.76.23-1.25.23-.33,0-.64-.05-.92-.15-.28-.1-.53-.24-.75-.41-.22-.18-.39-.38-.53-.62s-.22-.5-.25-.79l1-.23ZM139.96,259.18c.45,0,.81-.15,1.09-.46.28-.31.42-.72.42-1.23s-.14-.92-.42-1.23c-.28-.31-.64-.46-1.09-.46s-.83.15-1.11.46c-.28.31-.42.72-.42,1.23s.14.93.41,1.24c.27.3.65.46,1.12.46Z"/>
    <path d="M148.24,255.01h1.14v.94h-1.14v2.75c0,.24.06.42.17.54.11.12.3.18.57.18.07,0,.14,0,.22-.01.08,0,.14-.02.19-.03v.88s-.13.04-.25.06c-.12.03-.28.04-.45.04-.46,0-.81-.13-1.08-.39-.26-.26-.4-.63-.4-1.12v-2.9h-1.01v-.94h.29c.29,0,.49-.08.62-.23.13-.15.19-.35.19-.58v-.86h.95v1.67Z"/>
    <path d="M153.7,256.06c-.15-.02-.3-.03-.45-.03-.43,0-.78.13-1.05.38s-.4.67-.4,1.25v2.65h-1.03v-5.29h1.01v.92c.1-.21.21-.37.34-.5.13-.13.26-.23.4-.31.14-.08.28-.13.43-.16.15-.03.29-.04.42-.04.07,0,.14,0,.2.01.06,0,.11.02.14.02v1.1Z"/>
    <path d="M154.47,258.89c0-.23.04-.45.12-.63.08-.19.19-.35.34-.48.14-.13.31-.24.51-.32.2-.08.41-.14.64-.18l1.43-.21c.16-.02.27-.07.32-.14.06-.07.08-.16.08-.25,0-.26-.09-.48-.27-.67-.18-.19-.47-.28-.88-.28-.37,0-.65.1-.85.3-.2.2-.32.46-.35.76l-.99-.23c.03-.25.1-.48.23-.69s.28-.39.47-.54c.19-.15.41-.27.67-.35s.52-.13.81-.13c.4,0,.73.05,1.01.16s.51.25.68.42c.18.18.3.38.38.62.08.23.12.48.12.74v2.65c0,.24,0,.42.02.56s.03.24.04.31h-1.01c-.01-.07-.03-.15-.04-.26-.01-.11-.02-.26-.02-.45-.06.1-.14.19-.23.3s-.21.2-.35.29c-.14.09-.3.16-.49.21-.19.05-.4.08-.63.08-.27,0-.52-.04-.73-.13-.22-.09-.4-.2-.56-.35-.15-.14-.27-.31-.36-.5-.08-.19-.13-.39-.13-.61ZM156.38,259.6c.21,0,.41-.03.6-.08.19-.05.35-.14.48-.26.14-.12.24-.28.32-.48.08-.2.12-.45.12-.73v-.24l-1.62.24c-.22.04-.4.12-.55.25-.15.13-.22.31-.22.54,0,.2.08.38.23.53.15.16.36.24.63.24Z"/>
    <path d="M161.58,260.31h-1.03v-5.29h1.01v.76c.19-.33.43-.56.73-.7.29-.14.59-.21.9-.21s.59.05.83.16.44.25.59.44c.16.19.28.41.35.67.08.26.12.53.12.83v3.35h-1.03v-3.18c0-.18-.02-.36-.06-.52-.04-.16-.11-.3-.21-.42s-.23-.22-.38-.29c-.16-.07-.35-.1-.58-.1-.21,0-.39.04-.54.12-.15.08-.28.18-.39.31s-.18.29-.23.46c-.05.18-.08.36-.08.56v3.06Z"/>
    <path d="M167.17,258.6c.04.28.16.51.36.7.21.19.5.29.87.29.29,0,.52-.07.67-.21.15-.14.23-.3.23-.5,0-.17-.06-.31-.18-.43-.12-.12-.29-.2-.51-.25l-.9-.2c-.42-.09-.74-.26-.97-.53-.23-.26-.35-.58-.35-.96,0-.23.05-.44.15-.64.1-.2.23-.38.4-.53.17-.15.37-.27.6-.36.23-.09.47-.13.73-.13.36,0,.66.05.91.15.25.1.45.23.6.38.15.15.27.31.35.47.08.16.13.3.16.42l-.91.34c-.01-.07-.04-.15-.08-.25-.04-.1-.1-.2-.18-.29-.08-.09-.19-.17-.33-.24-.14-.07-.31-.1-.52-.1-.26,0-.48.07-.64.21-.16.14-.24.31-.24.49,0,.34.2.55.61.64l.86.19c.48.1.85.29,1.09.57.25.28.37.61.37,1.01,0,.19-.04.38-.12.57-.08.19-.2.37-.36.53-.16.16-.36.29-.6.39-.24.1-.53.15-.86.15-.37,0-.68-.05-.94-.15-.26-.1-.48-.23-.65-.39-.17-.15-.3-.32-.4-.5s-.15-.35-.17-.5l.94-.33Z"/>
    <path d="M171.7,260.31v-5.29h.99v.7c.17-.29.4-.51.7-.65.3-.14.6-.21.91-.21.33,0,.64.08.93.24.29.16.51.42.65.76.21-.38.48-.64.79-.79.32-.14.64-.21.98-.21.23,0,.45.04.67.12.22.08.42.2.59.37.17.17.31.37.41.63s.15.55.15.9v3.43h-1.02v-3.32c0-.34-.09-.63-.27-.86-.18-.23-.46-.35-.85-.35-.37,0-.66.13-.88.38-.22.25-.34.57-.34.95v3.2h-1.03v-3.32c0-.34-.09-.63-.26-.86-.18-.23-.46-.35-.86-.35-.37,0-.67.12-.9.37-.22.25-.33.57-.33.97v3.19h-1.02Z"/>
    <path d="M180.9,253.01c0-.21.07-.39.21-.53s.32-.21.52-.21.39.07.53.21.21.32.21.53-.07.38-.21.52-.32.21-.53.21-.38-.07-.52-.21-.21-.32-.21-.52ZM181.13,260.31v-5.29h1.02v5.29h-1.02Z"/>
    <path d="M185.3,255.01h1.14v.94h-1.14v2.75c0,.24.06.42.17.54.11.12.3.18.57.18.07,0,.14,0,.22-.01.08,0,.14-.02.19-.03v.88s-.13.04-.25.06c-.12.03-.28.04-.45.04-.46,0-.81-.13-1.08-.39-.26-.26-.4-.63-.4-1.12v-2.9h-1.01v-.94h.29c.29,0,.49-.08.62-.23.13-.15.19-.35.19-.58v-.86h.95v1.67Z"/>
    <path d="M188.26,258.6c.04.28.16.51.36.7.21.19.5.29.87.29.29,0,.52-.07.67-.21.15-.14.23-.3.23-.5,0-.17-.06-.31-.18-.43-.12-.12-.29-.2-.51-.25l-.9-.2c-.42-.09-.74-.26-.97-.53-.23-.26-.35-.58-.35-.96,0-.23.05-.44.15-.64.1-.2.23-.38.4-.53.17-.15.37-.27.6-.36.23-.09.47-.13.73-.13.36,0,.66.05.91.15.25.1.45.23.6.38.15.15.27.31.35.47.08.16.13.3.16.42l-.91.34c-.01-.07-.04-.15-.08-.25-.04-.1-.1-.2-.18-.29-.08-.09-.19-.17-.33-.24-.14-.07-.31-.1-.52-.1-.26,0-.48.07-.64.21-.16.14-.24.31-.24.49,0,.34.2.55.61.64l.86.19c.48.1.85.29,1.09.57.25.28.37.61.37,1.01,0,.19-.04.38-.12.57-.08.19-.2.37-.36.53-.16.16-.36.29-.6.39-.24.1-.53.15-.86.15-.37,0-.68-.05-.94-.15-.26-.1-.48-.23-.65-.39-.17-.15-.3-.32-.4-.5s-.15-.35-.17-.5l.94-.33Z"/>
    <path d="M196.93,255.01h1.14v.94h-1.14v2.75c0,.24.05.42.16.54.11.12.3.18.57.18.07,0,.14,0,.22-.01.08,0,.14-.02.19-.03v.88s-.13.04-.25.06-.28.04-.45.04c-.46,0-.81-.13-1.08-.39-.26-.26-.39-.63-.39-1.12v-2.9h-1.01v-.94h.29c.29,0,.49-.08.62-.23.13-.15.19-.35.19-.58v-.86h.95v1.67Z"/>
    <path d="M200.48,260.31h-1.03v-7.96h1.03v3.29c.19-.28.43-.48.71-.59.29-.12.58-.18.89-.18s.59.05.83.16.44.25.59.44c.16.19.28.41.35.67s.12.53.12.83v3.35h-1.03v-3.18c0-.18-.02-.36-.06-.52-.04-.16-.11-.3-.21-.42-.1-.12-.23-.22-.38-.29-.16-.07-.35-.1-.58-.1-.2,0-.37.04-.52.11s-.28.17-.38.3c-.1.12-.18.27-.24.44-.05.17-.09.35-.09.55v3.11Z"/>
    <path d="M210.24,258.8c-.07.23-.18.45-.33.65-.14.2-.31.38-.52.53-.2.15-.43.27-.69.36-.26.09-.54.13-.85.13-.35,0-.69-.06-1.01-.19-.32-.12-.61-.31-.85-.55-.24-.24-.44-.54-.58-.89-.14-.35-.21-.75-.21-1.2,0-.42.07-.8.21-1.14.14-.34.32-.63.56-.88.23-.25.5-.44.81-.57.31-.14.63-.2.96-.2.4,0,.76.07,1.08.2.32.14.59.32.8.57.21.24.38.53.49.87s.17.72.17,1.13c0,.07,0,.13,0,.19,0,.06,0,.11-.02.14h-3.98c0,.23.05.45.13.65.08.2.19.37.34.51.14.14.31.25.51.33.19.08.4.12.62.12.43,0,.76-.1.99-.31s.39-.46.49-.76l.89.31ZM209.19,257.12c-.02-.38-.14-.7-.39-.96-.24-.26-.6-.39-1.07-.39-.22,0-.42.04-.59.12-.17.08-.32.18-.44.31s-.22.27-.29.43c-.07.16-.11.33-.12.5h2.89Z"/>
    <path d="M214.34,262.4v-7.38h1v.83c.15-.26.37-.49.67-.67s.67-.28,1.1-.28c.39,0,.75.07,1.05.21.3.14.56.34.76.59.2.25.36.54.46.88.11.34.16.7.16,1.08s-.05.76-.16,1.1c-.11.34-.27.63-.48.89s-.47.45-.78.59-.65.21-1.04.21c-.41,0-.76-.08-1.06-.25-.29-.17-.51-.37-.66-.61v2.8h-1.02ZM218.49,257.66c0-.26-.04-.51-.11-.73-.07-.22-.18-.42-.31-.58-.13-.17-.3-.3-.49-.39-.2-.1-.41-.14-.65-.14s-.45.05-.64.14c-.19.09-.36.23-.5.39s-.25.36-.32.58c-.07.22-.11.47-.11.73s.04.52.11.75c.07.23.18.43.32.59.14.17.31.29.5.39.2.09.41.14.64.14s.46-.05.65-.14.35-.22.49-.39c.13-.16.24-.36.31-.59.07-.23.11-.48.11-.75Z"/>
    <path d="M220.83,262.52l1.32-2.79-2.28-4.71h1.19l1.65,3.65,1.58-3.65h1.11l-3.44,7.5h-1.13Z"/>
    <path d="M226.39,260.31v-7.96h1.04v7.96h-1.04Z"/>
    <path d="M231.45,254.85c.4,0,.76.07,1.09.21s.62.34.86.59c.24.25.43.54.56.88.13.34.2.71.2,1.12s-.06.78-.2,1.12c-.13.34-.32.64-.56.89s-.53.45-.86.59c-.33.14-.69.21-1.09.21s-.76-.07-1.09-.21c-.33-.14-.62-.34-.86-.59s-.43-.55-.56-.89c-.13-.34-.2-.72-.2-1.12s.06-.78.2-1.12c.13-.34.32-.64.56-.88.24-.25.53-.45.86-.59s.69-.21,1.09-.21ZM231.45,259.55c.22,0,.43-.04.63-.12.2-.08.38-.2.53-.36.15-.16.28-.36.36-.59.09-.23.13-.51.13-.81s-.04-.58-.13-.81c-.09-.23-.21-.43-.36-.59-.15-.16-.33-.28-.53-.36-.2-.08-.41-.12-.63-.12s-.43.04-.63.12c-.2.08-.38.2-.53.36-.15.16-.28.36-.36.59-.09.23-.13.5-.13.81s.04.58.13.81c.09.24.21.43.36.59.15.16.33.28.53.36.2.08.41.12.63.12Z"/>
    <path d="M235.15,258.89c0-.23.04-.45.12-.63.08-.19.19-.35.34-.48.14-.13.31-.24.51-.32s.41-.14.64-.18l1.43-.21c.16-.02.27-.07.32-.14s.08-.16.08-.25c0-.26-.09-.48-.27-.67-.18-.19-.47-.28-.88-.28-.37,0-.65.1-.85.3-.2.2-.32.46-.35.76l-.99-.23c.03-.25.1-.48.22-.69s.28-.39.47-.54c.19-.15.41-.27.67-.35.25-.08.52-.13.81-.13.4,0,.73.05,1.01.16.28.11.51.25.68.42.18.18.3.38.38.62.08.23.12.48.12.74v2.65c0,.24,0,.42.02.56.01.14.03.24.04.31h-1.01c-.01-.07-.03-.15-.04-.26-.01-.11-.02-.26-.02-.45-.06.1-.13.19-.23.3s-.21.2-.35.29c-.14.09-.3.16-.49.21-.19.05-.4.08-.63.08-.27,0-.52-.04-.73-.13-.22-.09-.4-.2-.56-.35-.15-.14-.27-.31-.36-.5s-.13-.39-.13-.61ZM237.06,259.6c.21,0,.41-.03.6-.08.19-.05.35-.14.48-.26.14-.12.24-.28.32-.48s.12-.45.12-.73v-.24l-1.62.24c-.22.04-.4.12-.55.25-.15.13-.22.31-.22.54,0,.2.08.38.23.53.15.16.36.24.63.24Z"/>
    <path d="M244.94,259.5c-.12.26-.32.48-.6.67-.28.19-.62.28-1.04.28-.39,0-.74-.07-1.04-.21-.31-.14-.57-.34-.79-.59s-.38-.55-.5-.89c-.12-.34-.18-.71-.18-1.11,0-.37.06-.73.18-1.06.12-.33.29-.63.51-.88.22-.25.48-.45.79-.6s.65-.23,1.02-.23c.23,0,.44.03.62.08.18.05.34.12.47.2.13.08.24.18.33.29s.15.21.2.32v-3.42h1.02v6.99c0,.26,0,.47.02.65.01.18.03.29.03.33h-1c-.02-.06-.03-.15-.04-.28,0-.13-.02-.27-.02-.43v-.09ZM241.85,257.64c0,.27.04.52.11.75.07.23.17.43.3.6.13.17.29.3.48.4s.41.14.66.14c.23,0,.45-.05.64-.15.19-.1.35-.23.48-.4.13-.17.23-.37.3-.61.07-.23.1-.49.1-.76,0-.55-.13-.99-.4-1.33-.27-.34-.64-.51-1.12-.51-.23,0-.45.05-.64.14-.19.09-.36.22-.49.38s-.24.36-.31.59c-.07.23-.11.48-.11.75Z"/>
    <path d="M252.72,254.85c.39,0,.76.07,1.09.21s.62.34.86.59c.24.25.43.54.56.88.13.34.2.71.2,1.12s-.07.78-.2,1.12c-.13.34-.32.64-.56.89s-.53.45-.86.59c-.33.14-.69.21-1.09.21s-.76-.07-1.09-.21c-.33-.14-.62-.34-.86-.59s-.43-.55-.56-.89c-.13-.34-.2-.72-.2-1.12s.07-.78.2-1.12c.13-.34.32-.64.56-.88.24-.25.53-.45.86-.59s.69-.21,1.09-.21ZM252.72,259.55c.22,0,.43-.04.63-.12.2-.08.37-.2.53-.36.15-.16.28-.36.36-.59.09-.23.13-.51.13-.81s-.04-.58-.13-.81c-.09-.23-.21-.43-.36-.59s-.33-.28-.53-.36c-.2-.08-.41-.12-.63-.12s-.43.04-.63.12c-.2.08-.37.2-.53.36s-.28.36-.36.59c-.09.23-.13.5-.13.81s.04.58.13.81c.09.24.21.43.36.59.15.16.33.28.53.36.2.08.41.12.63.12Z"/>
    <path d="M257.78,260.31h-1.03v-5.29h1.01v.76c.19-.33.43-.56.73-.7.29-.14.59-.21.9-.21s.59.05.83.16.44.25.59.44c.16.19.28.41.35.67s.12.53.12.83v3.35h-1.03v-3.18c0-.18-.02-.36-.06-.52-.04-.16-.11-.3-.21-.42-.1-.12-.23-.22-.38-.29-.16-.07-.35-.1-.58-.1-.21,0-.38.04-.54.12s-.28.18-.38.31c-.1.13-.18.29-.23.46-.05.18-.08.36-.08.56v3.06Z"/>
    <path d="M265.14,255.81c-.21,0-.41.04-.6.12-.19.08-.36.19-.51.35-.15.15-.27.35-.36.58-.09.23-.13.5-.13.81s.04.57.13.8c.09.23.21.43.35.58.15.16.32.28.52.36.2.08.4.12.62.12.25,0,.46-.04.63-.11s.31-.17.43-.28c.11-.11.2-.23.27-.36.06-.13.11-.24.14-.35l.91.4c-.07.19-.16.38-.29.58s-.29.37-.48.53c-.2.16-.43.29-.7.39-.27.1-.57.15-.92.15-.39,0-.75-.07-1.07-.21-.33-.14-.61-.34-.84-.59s-.42-.55-.55-.89c-.14-.34-.2-.71-.2-1.12s.07-.79.2-1.13c.13-.34.32-.64.56-.88.24-.25.52-.44.85-.58.33-.14.68-.21,1.05-.21.35,0,.66.05.93.15.27.1.5.23.69.39.2.16.35.34.47.54.12.2.21.4.26.6l-.94.4c-.04-.13-.09-.26-.15-.4s-.16-.25-.27-.36-.25-.19-.41-.26c-.16-.07-.36-.1-.58-.1Z"/>
    <path d="M273.36,258.8c-.07.23-.18.45-.33.65-.14.2-.31.38-.52.53-.2.15-.43.27-.69.36-.26.09-.54.13-.85.13-.35,0-.69-.06-1.01-.19-.32-.12-.61-.31-.85-.55-.24-.24-.44-.54-.58-.89-.14-.35-.21-.75-.21-1.2,0-.42.07-.8.21-1.14.14-.34.32-.63.56-.88.23-.25.5-.44.81-.57.31-.14.63-.2.96-.2.4,0,.76.07,1.08.2.32.14.59.32.8.57.21.24.38.53.49.87s.17.72.17,1.13c0,.07,0,.13,0,.19,0,.06,0,.11-.02.14h-3.98c0,.23.05.45.13.65.08.2.19.37.34.51.14.14.31.25.51.33.19.08.4.12.62.12.43,0,.76-.1.99-.31s.39-.46.49-.76l.89.31ZM272.32,257.12c-.02-.38-.14-.7-.39-.96-.24-.26-.6-.39-1.07-.39-.22,0-.42.04-.59.12-.17.08-.32.18-.44.31s-.22.27-.29.43c-.07.16-.11.33-.12.5h2.89Z"/>
    <path d="M279.73,254.85c.39,0,.76.07,1.09.21s.62.34.86.59c.24.25.43.54.56.88.13.34.2.71.2,1.12s-.07.78-.2,1.12c-.13.34-.32.64-.56.89s-.53.45-.86.59c-.33.14-.69.21-1.09.21s-.76-.07-1.09-.21c-.33-.14-.62-.34-.86-.59s-.43-.55-.56-.89c-.13-.34-.2-.72-.2-1.12s.07-.78.2-1.12c.13-.34.32-.64.56-.88.24-.25.53-.45.86-.59s.69-.21,1.09-.21ZM279.73,259.55c.22,0,.43-.04.63-.12.2-.08.37-.2.53-.36.15-.16.28-.36.36-.59.09-.23.13-.51.13-.81s-.04-.58-.13-.81c-.09-.23-.21-.43-.36-.59s-.33-.28-.53-.36c-.2-.08-.41-.12-.63-.12s-.43.04-.63.12c-.2.08-.37.2-.53.36s-.28.36-.36.59c-.09.23-.13.5-.13.81s.04.58.13.81c.09.24.21.43.36.59.15.16.33.28.53.36.2.08.41.12.63.12Z"/>
    <path d="M284.79,260.31h-1.03v-5.29h1.01v.76c.19-.33.43-.56.73-.7.29-.14.59-.21.9-.21s.59.05.83.16.44.25.59.44c.16.19.28.41.35.67s.12.53.12.83v3.35h-1.03v-3.18c0-.18-.02-.36-.06-.52-.04-.16-.11-.3-.21-.42-.1-.12-.23-.22-.38-.29-.16-.07-.35-.1-.58-.1-.21,0-.38.04-.54.12s-.28.18-.38.31c-.1.13-.18.29-.23.46-.05.18-.08.36-.08.56v3.06Z"/>
    <path d="M292.36,258.89c0-.23.04-.45.12-.63.08-.19.19-.35.34-.48.14-.13.31-.24.51-.32.2-.08.41-.14.64-.18l1.43-.21c.16-.02.27-.07.32-.14.06-.07.08-.16.08-.25,0-.26-.09-.48-.27-.67-.18-.19-.47-.28-.88-.28-.37,0-.65.1-.85.3-.2.2-.31.46-.35.76l-.99-.23c.03-.25.11-.48.23-.69s.28-.39.47-.54.41-.27.67-.35c.25-.08.52-.13.81-.13.39,0,.73.05,1.01.16.28.11.51.25.68.42.18.18.3.38.38.62s.12.48.12.74v2.65c0,.24,0,.42.02.56.02.14.03.24.04.31h-1.01c-.02-.07-.03-.15-.04-.26s-.02-.26-.02-.45c-.06.1-.14.19-.23.3s-.21.2-.35.29-.3.16-.49.21c-.19.05-.4.08-.63.08-.27,0-.52-.04-.73-.13s-.4-.2-.55-.35c-.15-.14-.27-.31-.36-.5-.09-.19-.13-.39-.13-.61ZM294.27,259.6c.21,0,.41-.03.6-.08s.35-.14.48-.26c.13-.12.24-.28.32-.48.08-.2.12-.45.12-.73v-.24l-1.62.24c-.22.04-.4.12-.55.25-.15.13-.22.31-.22.54,0,.2.08.38.23.53.15.16.36.24.63.24Z"/>
    <path d="M301.63,258.6c.04.28.16.51.36.7.21.19.5.29.87.29.29,0,.52-.07.67-.21.15-.14.23-.3.23-.5,0-.17-.06-.31-.18-.43s-.29-.2-.51-.25l-.9-.2c-.42-.09-.74-.26-.97-.53-.23-.26-.35-.58-.35-.96,0-.23.05-.44.15-.64.1-.2.23-.38.4-.53s.37-.27.6-.36c.23-.09.47-.13.73-.13.36,0,.66.05.91.15s.45.23.6.38.27.31.35.47c.08.16.13.3.16.42l-.91.34c-.02-.07-.04-.15-.08-.25-.04-.1-.1-.2-.18-.29s-.19-.17-.33-.24c-.14-.07-.31-.1-.52-.1-.26,0-.48.07-.64.21-.16.14-.24.31-.24.49,0,.34.2.55.61.64l.86.19c.48.1.85.29,1.09.57.25.28.37.61.37,1.01,0,.19-.04.38-.12.57-.08.19-.2.37-.36.53-.16.16-.36.29-.6.39-.24.1-.53.15-.86.15-.37,0-.68-.05-.94-.15-.26-.1-.48-.23-.65-.39-.17-.15-.3-.32-.4-.5s-.15-.35-.17-.5l.94-.33Z"/>
    <path d="M310.77,258.8c-.07.23-.18.45-.33.65-.14.2-.31.38-.52.53-.2.15-.43.27-.69.36-.26.09-.54.13-.85.13-.35,0-.69-.06-1.01-.19-.32-.12-.61-.31-.85-.55-.24-.24-.44-.54-.58-.89-.14-.35-.21-.75-.21-1.2,0-.42.07-.8.21-1.14.14-.34.32-.63.56-.88.23-.25.5-.44.81-.57.31-.14.63-.2.96-.2.4,0,.76.07,1.08.2.32.14.59.32.8.57.21.24.38.53.49.87s.17.72.17,1.13c0,.07,0,.13,0,.19,0,.06,0,.11-.02.14h-3.98c0,.23.05.45.13.65.08.2.19.37.34.51.14.14.31.25.51.33.19.08.4.12.62.12.43,0,.76-.1.99-.31s.39-.46.49-.76l.89.31ZM309.73,257.12c-.02-.38-.14-.7-.39-.96-.24-.26-.6-.39-1.07-.39-.22,0-.42.04-.59.12-.17.08-.32.18-.44.31s-.22.27-.29.43c-.07.16-.11.33-.12.5h2.89Z"/>
    <path d="M314.35,255.81c-.21,0-.41.04-.61.12-.19.08-.36.19-.51.35-.15.15-.27.35-.36.58-.09.23-.13.5-.13.81s.04.57.13.8c.09.23.21.43.35.58.15.16.32.28.52.36.2.08.4.12.62.12.25,0,.46-.04.63-.11.17-.07.32-.17.43-.28s.2-.23.27-.36.11-.24.14-.35l.91.4c-.07.19-.16.38-.29.58s-.29.37-.48.53c-.2.16-.43.29-.7.39-.27.1-.57.15-.92.15-.39,0-.75-.07-1.07-.21-.33-.14-.61-.34-.84-.59-.24-.25-.42-.55-.56-.89-.13-.34-.2-.71-.2-1.12s.07-.79.2-1.13c.14-.34.32-.64.56-.88.24-.25.52-.44.85-.58.33-.14.68-.21,1.05-.21.35,0,.66.05.93.15.27.1.5.23.69.39.19.16.35.34.47.54.12.2.21.4.26.6l-.93.4c-.04-.13-.09-.26-.15-.4-.07-.13-.16-.25-.27-.36-.12-.11-.25-.19-.41-.26-.16-.07-.36-.1-.58-.1Z"/>
    <path d="M320.22,254.85c.39,0,.76.07,1.09.21s.62.34.86.59c.24.25.43.54.56.88.13.34.2.71.2,1.12s-.07.78-.2,1.12c-.13.34-.32.64-.56.89s-.53.45-.86.59c-.33.14-.69.21-1.09.21s-.76-.07-1.09-.21c-.33-.14-.62-.34-.86-.59s-.43-.55-.56-.89c-.13-.34-.2-.72-.2-1.12s.07-.78.2-1.12c.13-.34.32-.64.56-.88.24-.25.53-.45.86-.59s.69-.21,1.09-.21ZM320.22,259.55c.22,0,.43-.04.63-.12.2-.08.37-.2.53-.36.15-.16.28-.36.36-.59.09-.23.13-.51.13-.81s-.04-.58-.13-.81c-.09-.23-.21-.43-.36-.59s-.33-.28-.53-.36c-.2-.08-.41-.12-.63-.12s-.43.04-.63.12c-.2.08-.37.2-.53.36s-.28.36-.36.59c-.09.23-.13.5-.13.81s.04.58.13.81c.09.24.21.43.36.59.15.16.33.28.53.36.2.08.41.12.63.12Z"/>
    <path d="M325.28,260.31h-1.03v-5.29h1.01v.76c.19-.33.43-.56.73-.7.29-.14.59-.21.9-.21s.59.05.83.16.44.25.59.44c.16.19.28.41.35.67s.12.53.12.83v3.35h-1.03v-3.18c0-.18-.02-.36-.06-.52-.04-.16-.11-.3-.21-.42-.1-.12-.23-.22-.38-.29-.16-.07-.35-.1-.58-.1-.21,0-.38.04-.54.12s-.28.18-.38.31c-.1.13-.18.29-.23.46-.05.18-.08.36-.08.56v3.06Z"/>
    <path d="M334.14,259.5c-.12.26-.32.48-.6.67-.28.19-.62.28-1.04.28-.39,0-.74-.07-1.04-.21-.31-.14-.57-.34-.79-.59s-.38-.55-.5-.89c-.12-.34-.18-.71-.18-1.11,0-.37.06-.73.18-1.06.12-.33.29-.63.51-.88.22-.25.48-.45.79-.6s.65-.23,1.02-.23c.23,0,.44.03.62.08.18.05.34.12.47.2.13.08.24.18.33.29s.15.21.2.32v-3.42h1.02v6.99c0,.26,0,.47.02.65.01.18.03.29.03.33h-1c-.02-.06-.03-.15-.04-.28,0-.13-.02-.27-.02-.43v-.09ZM331.04,257.64c0,.27.04.52.11.75.07.23.17.43.3.6.13.17.29.3.48.4s.41.14.66.14c.23,0,.45-.05.64-.15.19-.1.35-.23.48-.4.13-.17.23-.37.3-.61.07-.23.1-.49.1-.76,0-.55-.13-.99-.4-1.33-.27-.34-.64-.51-1.12-.51-.23,0-.45.05-.64.14-.19.09-.36.22-.49.38s-.24.36-.31.59c-.07.23-.11.48-.11.75Z"/>
    <path d="M336.57,258.89c0-.23.04-.45.12-.63.08-.19.19-.35.34-.48.14-.13.31-.24.51-.32s.41-.14.64-.18l1.43-.21c.16-.02.27-.07.32-.14s.08-.16.08-.25c0-.26-.09-.48-.27-.67-.18-.19-.47-.28-.88-.28-.37,0-.65.1-.85.3-.2.2-.32.46-.35.76l-.99-.23c.03-.25.1-.48.22-.69s.28-.39.47-.54c.19-.15.41-.27.67-.35.25-.08.52-.13.81-.13.4,0,.73.05,1.01.16.28.11.51.25.68.42.18.18.3.38.38.62.08.23.12.48.12.74v2.65c0,.24,0,.42.02.56.01.14.03.24.04.31h-1.01c-.01-.07-.03-.15-.04-.26-.01-.11-.02-.26-.02-.45-.06.1-.13.19-.23.3s-.21.2-.35.29c-.14.09-.3.16-.49.21-.19.05-.4.08-.63.08-.27,0-.52-.04-.73-.13-.22-.09-.4-.2-.56-.35-.15-.14-.27-.31-.36-.5s-.13-.39-.13-.61ZM338.48,259.6c.21,0,.41-.03.6-.08.19-.05.35-.14.48-.26.14-.12.24-.28.32-.48s.12-.45.12-.73v-.24l-1.62.24c-.22.04-.4.12-.55.25-.15.13-.22.31-.22.54,0,.2.08.38.23.53.15.16.36.24.63.24Z"/>
    <path d="M345.59,256.06c-.15-.02-.3-.03-.45-.03-.43,0-.78.13-1.05.38s-.4.67-.4,1.25v2.65h-1.03v-5.29h1.01v.92c.1-.21.21-.37.34-.5.13-.13.26-.23.4-.31.14-.08.28-.13.43-.16s.29-.04.42-.04c.07,0,.14,0,.2.01.06,0,.11.02.14.02v1.1Z"/>
    <path d="M346.88,262.52l1.32-2.79-2.28-4.71h1.19l1.65,3.65,1.58-3.65h1.11l-3.44,7.5h-1.13Z"/>
    <path d="M357.41,255.81c-.21,0-.41.04-.61.12-.19.08-.36.19-.51.35-.15.15-.27.35-.36.58-.09.23-.13.5-.13.81s.04.57.13.8c.09.23.21.43.35.58.15.16.32.28.52.36.2.08.4.12.62.12.25,0,.46-.04.63-.11.17-.07.32-.17.43-.28s.2-.23.27-.36.11-.24.14-.35l.91.4c-.07.19-.16.38-.29.58s-.29.37-.48.53c-.2.16-.43.29-.7.39-.27.1-.57.15-.92.15-.39,0-.75-.07-1.07-.21-.33-.14-.61-.34-.84-.59-.24-.25-.42-.55-.56-.89-.13-.34-.2-.71-.2-1.12s.07-.79.2-1.13c.14-.34.32-.64.56-.88.24-.25.52-.44.85-.58.33-.14.68-.21,1.05-.21.35,0,.66.05.93.15.27.1.5.23.69.39.19.16.35.34.47.54.12.2.21.4.26.6l-.93.4c-.04-.13-.09-.26-.15-.4-.07-.13-.16-.25-.27-.36-.12-.11-.25-.19-.41-.26-.16-.07-.36-.1-.58-.1Z"/>
    <path d="M362.05,260.31h-1.04v-7.96h1.04v3.29c.19-.28.43-.48.71-.59.29-.12.58-.18.89-.18s.59.05.83.16.44.25.59.44c.16.19.28.41.35.67.08.26.12.53.12.83v3.35h-1.04v-3.18c0-.18-.02-.36-.06-.52-.04-.16-.11-.3-.21-.42-.1-.12-.23-.22-.38-.29s-.35-.1-.58-.1c-.2,0-.37.04-.52.11s-.28.17-.38.3c-.1.12-.18.27-.24.44-.06.17-.09.35-.09.55v3.11Z"/>
    <path d="M366.87,258.89c0-.23.04-.45.12-.63.08-.19.19-.35.34-.48.14-.13.31-.24.51-.32s.41-.14.64-.18l1.43-.21c.16-.02.27-.07.32-.14s.08-.16.08-.25c0-.26-.09-.48-.27-.67-.18-.19-.47-.28-.88-.28-.37,0-.65.1-.85.3-.2.2-.32.46-.35.76l-.99-.23c.03-.25.1-.48.22-.69s.28-.39.47-.54c.19-.15.41-.27.67-.35.25-.08.52-.13.81-.13.4,0,.73.05,1.01.16.28.11.51.25.68.42.18.18.3.38.38.62.08.23.12.48.12.74v2.65c0,.24,0,.42.02.56.01.14.03.24.04.31h-1.01c-.01-.07-.03-.15-.04-.26-.01-.11-.02-.26-.02-.45-.06.1-.13.19-.23.3s-.21.2-.35.29c-.14.09-.3.16-.49.21-.19.05-.4.08-.63.08-.27,0-.52-.04-.73-.13-.22-.09-.4-.2-.56-.35-.15-.14-.27-.31-.36-.5s-.13-.39-.13-.61ZM368.79,259.6c.21,0,.41-.03.6-.08.19-.05.35-.14.48-.26.14-.12.24-.28.32-.48s.12-.45.12-.73v-.24l-1.62.24c-.22.04-.4.12-.55.25-.15.13-.22.31-.22.54,0,.2.08.38.23.53.15.16.36.24.63.24Z"/>
    <path d="M373.99,260.31h-1.03v-5.29h1.01v.76c.19-.33.43-.56.73-.7.29-.14.59-.21.9-.21s.59.05.83.16.44.25.59.44c.16.19.28.41.35.67s.12.53.12.83v3.35h-1.03v-3.18c0-.18-.02-.36-.06-.52-.04-.16-.11-.3-.21-.42-.1-.12-.23-.22-.38-.29-.16-.07-.35-.1-.58-.1-.21,0-.38.04-.54.12s-.28.18-.38.31c-.1.13-.18.29-.23.46-.05.18-.08.36-.08.56v3.06Z"/>
    <path d="M380.17,260.31h-1.03v-5.29h1.01v.76c.19-.33.43-.56.73-.7.29-.14.59-.21.9-.21s.59.05.83.16.44.25.59.44c.16.19.28.41.35.67s.12.53.12.83v3.35h-1.03v-3.18c0-.18-.02-.36-.06-.52-.04-.16-.11-.3-.21-.42-.1-.12-.23-.22-.38-.29-.16-.07-.35-.1-.58-.1-.21,0-.38.04-.54.12s-.28.18-.38.31c-.1.13-.18.29-.23.46-.05.18-.08.36-.08.56v3.06Z"/>
    <path d="M389.93,258.8c-.07.23-.18.45-.33.65-.14.2-.31.38-.52.53-.2.15-.43.27-.69.36-.26.09-.54.13-.85.13-.35,0-.69-.06-1.01-.19-.32-.12-.61-.31-.85-.55-.24-.24-.44-.54-.58-.89-.14-.35-.21-.75-.21-1.2,0-.42.07-.8.21-1.14.14-.34.32-.63.56-.88.23-.25.5-.44.81-.57.31-.14.63-.2.96-.2.4,0,.76.07,1.08.2.32.14.59.32.8.57.21.24.38.53.49.87s.17.72.17,1.13c0,.07,0,.13,0,.19,0,.06,0,.11-.02.14h-3.98c0,.23.05.45.13.65.08.2.19.37.34.51.14.14.31.25.51.33.19.08.4.12.62.12.43,0,.76-.1.99-.31s.39-.46.49-.76l.89.31ZM388.88,257.12c-.02-.38-.14-.7-.39-.96-.24-.26-.6-.39-1.07-.39-.22,0-.42.04-.59.12-.17.08-.32.18-.44.31s-.22.27-.29.43c-.07.16-.11.33-.12.5h2.89Z"/>
    <path d="M391.28,260.31v-7.96h1.04v7.96h-1.04Z"/>
  </g>
  <rect class="cls-3" x="87.63" y="137.27" width="9.62" height="46.72"/>
  <rect class="cls-3" x="64.27" y="137.27" width="9.62" height="46.72"/>
  <rect class="cls-3" x="40.91" y="137.27" width="9.62" height="46.72"/>
  <g>
    <line class="cls-1" x1="140.56" y1="153.85" x2="140.56" y2="187.79"/>
    <polygon points="135.58 186.33 140.56 194.97 145.55 186.33 135.58 186.33"/>
  </g>
  <line class="cls-1" x1="140.56" y1="153.85" x2="105.59" y2="153.85"/>
  <g>
    <rect class="cls-3" x="521.69" y="244.1" width="7.25" height="7.25"/>
    <g>
      <path d="M538.32,249.43v-2.07h-2.38v2.07h-.65v-4.67h.65v2h2.38v-2h.65v4.67h-.65Z"/>
      <path d="M542.84,248.53c-.04.14-.11.27-.19.39-.09.12-.19.23-.31.32-.12.09-.26.16-.41.21-.15.05-.32.08-.51.08-.21,0-.41-.04-.61-.11s-.36-.18-.51-.33c-.15-.14-.26-.32-.35-.53s-.13-.45-.13-.72c0-.25.04-.48.12-.68.08-.2.19-.38.33-.53.14-.15.3-.26.48-.34.18-.08.38-.12.57-.12.24,0,.46.04.65.12.19.08.35.19.48.34.13.14.22.32.29.52.07.2.1.43.1.67,0,.04,0,.08,0,.11,0,.04,0,.06,0,.08h-2.38c0,.14.03.27.08.39.05.12.12.22.2.31s.19.15.3.2c.12.05.24.07.37.07.26,0,.46-.06.59-.18.14-.12.23-.27.3-.45l.53.18ZM542.22,247.52c0-.23-.09-.42-.23-.58-.15-.16-.36-.23-.64-.23-.13,0-.25.02-.35.07-.1.05-.19.11-.26.18-.07.08-.13.16-.17.26s-.07.2-.07.3h1.73Z"/>
      <path d="M543.46,248.58c0-.14.02-.27.07-.38.05-.11.12-.21.2-.29.09-.08.19-.14.31-.19.12-.05.25-.08.38-.11l.86-.12c.1-.01.16-.04.19-.09.03-.04.05-.09.05-.15,0-.15-.05-.29-.16-.4s-.28-.17-.52-.17c-.22,0-.39.06-.51.18-.12.12-.19.27-.21.46l-.59-.14c.02-.15.06-.29.13-.42.07-.13.17-.24.28-.33.11-.09.25-.16.4-.21.15-.05.31-.08.48-.08.24,0,.44.03.61.1s.3.15.41.25c.11.11.18.23.23.37s.07.29.07.44v1.59c0,.14,0,.25.01.34,0,.08.02.14.03.18h-.61s-.02-.09-.02-.16c0-.07-.01-.16-.01-.27-.04.06-.08.12-.14.18-.06.06-.13.12-.21.17s-.18.1-.29.13c-.11.03-.24.05-.38.05-.16,0-.31-.03-.44-.08-.13-.05-.24-.12-.33-.21s-.16-.19-.21-.3c-.05-.12-.08-.24-.08-.36ZM544.6,249.01c.13,0,.25-.02.36-.05.11-.03.21-.09.29-.16s.15-.17.19-.29.07-.27.07-.44v-.14l-.97.14c-.13.02-.24.07-.33.15-.09.08-.13.19-.13.33,0,.12.05.23.14.32.09.09.22.14.38.14Z"/>
      <path d="M549.32,248.95c-.07.15-.19.29-.36.4-.17.11-.37.17-.62.17-.23,0-.44-.04-.63-.13-.18-.08-.34-.2-.47-.36-.13-.15-.23-.33-.3-.53s-.11-.42-.11-.66c0-.22.04-.44.11-.63.07-.2.17-.38.31-.53s.29-.27.47-.36.39-.14.61-.14c.14,0,.26.02.37.05.11.03.2.07.28.12.08.05.15.11.2.17.05.06.09.13.12.19v-2.05h.61v4.18c0,.15,0,.28.01.39s.01.17.02.2h-.6s-.02-.09-.02-.17c0-.08-.01-.16-.01-.26v-.05ZM547.47,247.84c0,.16.02.31.06.45.04.14.1.26.18.36s.18.18.29.24c.11.06.25.09.39.09.14,0,.27-.03.38-.09.11-.06.21-.14.29-.24s.14-.22.18-.36c.04-.14.06-.29.06-.45,0-.33-.08-.59-.24-.8-.16-.2-.38-.3-.67-.3-.14,0-.27.03-.39.08-.12.05-.21.13-.3.23s-.14.22-.19.35c-.04.14-.07.29-.07.45Z"/>
      <path d="M553.73,248.53c-.04.14-.11.27-.19.39-.09.12-.19.23-.31.32-.12.09-.26.16-.41.21-.15.05-.32.08-.51.08-.21,0-.41-.04-.61-.11s-.36-.18-.51-.33c-.15-.14-.26-.32-.35-.53s-.13-.45-.13-.72c0-.25.04-.48.12-.68.08-.2.19-.38.33-.53.14-.15.3-.26.48-.34.18-.08.38-.12.57-.12.24,0,.46.04.65.12.19.08.35.19.48.34.13.14.22.32.29.52.07.2.1.43.1.67,0,.04,0,.08,0,.11,0,.04,0,.06,0,.08h-2.38c0,.14.03.27.08.39.05.12.12.22.2.31s.19.15.3.2c.12.05.24.07.37.07.26,0,.46-.06.59-.18.14-.12.23-.27.3-.45l.53.18ZM553.11,247.52c0-.23-.09-.42-.23-.58-.15-.16-.36-.23-.64-.23-.13,0-.25.02-.35.07-.1.05-.19.11-.26.18-.07.08-.13.16-.17.26s-.07.2-.07.3h1.73Z"/>
      <path d="M556.3,246.89c-.09-.01-.18-.02-.27-.02-.26,0-.47.08-.63.23-.16.15-.24.4-.24.75v1.59h-.62v-3.17h.61v.55c.06-.12.12-.22.2-.3s.16-.14.24-.18c.08-.05.17-.08.26-.09s.17-.03.25-.03c.04,0,.08,0,.12,0,.04,0,.06,0,.08.01v.66Z"/>
      <path d="M558.41,248.58c0-.14.02-.27.07-.38.05-.11.12-.21.2-.29.09-.08.19-.14.31-.19.12-.05.25-.08.38-.11l.86-.12c.1-.01.16-.04.19-.09.03-.04.05-.09.05-.15,0-.15-.05-.29-.16-.4s-.28-.17-.52-.17c-.22,0-.39.06-.51.18-.12.12-.19.27-.21.46l-.59-.14c.02-.15.06-.29.13-.42.07-.13.17-.24.28-.33.11-.09.25-.16.4-.21.15-.05.31-.08.48-.08.24,0,.44.03.61.1s.3.15.41.25c.11.11.18.23.23.37s.07.29.07.44v1.59c0,.14,0,.25.01.34,0,.08.02.14.03.18h-.61s-.02-.09-.02-.16c0-.07-.01-.16-.01-.27-.04.06-.08.12-.14.18-.06.06-.13.12-.21.17s-.18.1-.29.13c-.11.03-.24.05-.38.05-.16,0-.31-.03-.44-.08-.13-.05-.24-.12-.33-.21s-.16-.19-.21-.3c-.05-.12-.08-.24-.08-.36ZM559.55,249.01c.13,0,.25-.02.36-.05.11-.03.21-.09.29-.16s.15-.17.19-.29.07-.27.07-.44v-.14l-.97.14c-.13.02-.24.07-.33.15-.09.08-.13.19-.13.33,0,.12.05.23.14.32.09.09.22.14.38.14Z"/>
      <path d="M562.67,249.43h-.62v-3.17h.61v.46c.11-.2.26-.34.43-.42.18-.08.36-.12.54-.12s.35.03.5.1c.14.06.26.15.36.26.09.11.16.24.21.4.05.15.07.32.07.49v2.01h-.62v-1.9c0-.11-.01-.21-.04-.31-.02-.1-.07-.18-.12-.25-.06-.07-.14-.13-.23-.17-.09-.04-.21-.06-.35-.06-.12,0-.23.02-.32.07-.09.05-.17.11-.23.19-.06.08-.11.17-.14.28-.03.11-.05.22-.05.34v1.83Z"/>
      <path d="M567.97,248.95c-.07.15-.19.29-.36.4-.17.11-.37.17-.62.17-.23,0-.44-.04-.63-.13-.18-.08-.34-.2-.47-.36-.13-.15-.23-.33-.3-.53s-.11-.42-.11-.66c0-.22.04-.44.11-.63.07-.2.17-.38.31-.53s.29-.27.47-.36.39-.14.61-.14c.14,0,.26.02.37.05.11.03.2.07.28.12.08.05.15.11.2.17.05.06.09.13.12.19v-2.05h.61v4.18c0,.15,0,.28.01.39s.01.17.02.2h-.6s-.02-.09-.02-.17c0-.08-.01-.16-.01-.26v-.05ZM566.12,247.84c0,.16.02.31.06.45.04.14.1.26.18.36s.18.18.29.24c.11.06.25.09.39.09.14,0,.27-.03.38-.09.11-.06.21-.14.29-.24s.14-.22.18-.36c.04-.14.06-.29.06-.45,0-.33-.08-.59-.24-.8-.16-.2-.38-.3-.67-.3-.14,0-.27.03-.39.08-.12.05-.21.13-.3.23s-.14.22-.19.35c-.04.14-.07.29-.07.45Z"/>
      <path d="M572.63,246.17c.24,0,.45.04.65.13.2.08.37.2.51.35.14.15.26.33.34.53.08.21.12.43.12.67s-.04.47-.12.67-.19.38-.34.53c-.15.15-.32.27-.51.35-.2.09-.42.13-.65.13s-.45-.04-.65-.13c-.2-.09-.37-.2-.51-.35-.14-.15-.26-.33-.34-.53s-.12-.43-.12-.67.04-.46.12-.67c.08-.2.19-.38.34-.53.15-.15.32-.27.51-.35.2-.09.42-.13.65-.13ZM572.63,248.98c.13,0,.26-.02.38-.07.12-.05.22-.12.32-.22.09-.1.17-.21.22-.36s.08-.3.08-.49-.03-.35-.08-.48c-.05-.14-.12-.26-.22-.35-.09-.1-.2-.17-.32-.22-.12-.05-.24-.07-.38-.07s-.26.02-.38.07c-.12.05-.22.12-.32.22-.09.1-.17.21-.22.35-.05.14-.08.3-.08.48s.03.35.08.49.12.26.22.36c.09.1.2.17.32.22.12.05.24.07.38.07Z"/>
      <path d="M576.49,249.43h-.62l-1.29-3.17h.7l.9,2.44.91-2.44h.67l-1.26,3.17Z"/>
      <path d="M581.1,248.53c-.04.14-.11.27-.19.39-.09.12-.19.23-.31.32-.12.09-.26.16-.41.21-.15.05-.32.08-.51.08-.21,0-.41-.04-.61-.11s-.36-.18-.51-.33c-.15-.14-.26-.32-.35-.53s-.13-.45-.13-.72c0-.25.04-.48.12-.68.08-.2.19-.38.33-.53.14-.15.3-.26.48-.34.18-.08.38-.12.57-.12.24,0,.46.04.65.12.19.08.35.19.48.34.13.14.22.32.29.52.07.2.1.43.1.67,0,.04,0,.08,0,.11,0,.04,0,.06,0,.08h-2.38c0,.14.03.27.08.39.05.12.12.22.2.31s.19.15.3.2c.12.05.24.07.37.07.26,0,.46-.06.59-.18.14-.12.23-.27.3-.45l.53.18ZM580.48,247.52c0-.23-.09-.42-.23-.58-.15-.16-.36-.23-.64-.23-.13,0-.25.02-.35.07-.1.05-.19.11-.26.18-.07.08-.13.16-.17.26s-.07.2-.07.3h1.73Z"/>
      <path d="M583.67,246.89c-.09-.01-.18-.02-.27-.02-.26,0-.47.08-.63.23-.16.15-.24.4-.24.75v1.59h-.62v-3.17h.61v.55c.06-.12.12-.22.2-.3s.16-.14.24-.18c.08-.05.17-.08.26-.09s.17-.03.25-.03c.04,0,.08,0,.12,0,.04,0,.06,0,.08.01v.66Z"/>
      <path d="M584.95,249.43h-.62v-4.77h.62v1.97c.11-.17.26-.29.43-.36s.35-.11.53-.11.35.03.5.1c.14.06.26.15.36.26.09.11.16.24.21.4.05.15.07.32.07.49v2.01h-.62v-1.9c0-.11-.01-.21-.04-.31-.02-.1-.07-.18-.12-.25-.06-.07-.14-.13-.23-.17-.09-.04-.21-.06-.35-.06-.12,0-.22.02-.31.06-.09.04-.17.1-.23.18s-.11.16-.14.26c-.03.1-.05.21-.06.33v1.86Z"/>
      <path d="M590.79,248.53c-.04.14-.11.27-.19.39-.09.12-.19.23-.31.32-.12.09-.26.16-.41.21-.15.05-.32.08-.51.08-.21,0-.41-.04-.61-.11s-.36-.18-.51-.33c-.15-.14-.26-.32-.35-.53s-.13-.45-.13-.72c0-.25.04-.48.12-.68.08-.2.19-.38.33-.53.14-.15.3-.26.48-.34.18-.08.38-.12.57-.12.24,0,.46.04.65.12.19.08.35.19.48.34.13.14.22.32.29.52.07.2.1.43.1.67,0,.04,0,.08,0,.11,0,.04,0,.06,0,.08h-2.38c0,.14.03.27.08.39.05.12.12.22.2.31s.19.15.3.2c.12.05.24.07.37.07.26,0,.46-.06.59-.18.14-.12.23-.27.3-.45l.53.18ZM590.17,247.52c0-.23-.09-.42-.23-.58-.15-.16-.36-.23-.64-.23-.13,0-.25.02-.35.07-.1.05-.19.11-.26.18-.07.08-.13.16-.17.26s-.07.2-.07.3h1.73Z"/>
      <path d="M591.4,248.58c0-.14.02-.27.07-.38.05-.11.12-.21.2-.29.09-.08.19-.14.31-.19.12-.05.25-.08.38-.11l.86-.12c.1-.01.16-.04.19-.09.03-.04.05-.09.05-.15,0-.15-.05-.29-.16-.4s-.28-.17-.52-.17c-.22,0-.39.06-.51.18-.12.12-.19.27-.21.46l-.59-.14c.02-.15.06-.29.13-.42.07-.13.17-.24.28-.33.11-.09.25-.16.4-.21.15-.05.31-.08.48-.08.24,0,.44.03.61.1s.3.15.41.25c.11.11.18.23.23.37s.07.29.07.44v1.59c0,.14,0,.25.01.34,0,.08.02.14.03.18h-.61s-.02-.09-.02-.16c0-.07-.01-.16-.01-.27-.04.06-.08.12-.14.18-.06.06-.13.12-.21.17s-.18.1-.29.13c-.11.03-.24.05-.38.05-.16,0-.31-.03-.44-.08-.13-.05-.24-.12-.33-.21s-.16-.19-.21-.3c-.05-.12-.08-.24-.08-.36ZM592.55,249.01c.13,0,.25-.02.36-.05.11-.03.21-.09.29-.16s.15-.17.19-.29.07-.27.07-.44v-.14l-.97.14c-.13.02-.24.07-.33.15-.09.08-.13.19-.13.33,0,.12.05.23.14.32.09.09.22.14.38.14Z"/>
      <path d="M597.26,248.95c-.07.15-.19.29-.36.4-.17.11-.37.17-.62.17-.23,0-.44-.04-.63-.13-.18-.08-.34-.2-.47-.36-.13-.15-.23-.33-.3-.53s-.11-.42-.11-.66c0-.22.04-.44.11-.63.07-.2.17-.38.31-.53s.29-.27.47-.36.39-.14.61-.14c.14,0,.26.02.37.05.11.03.2.07.28.12.08.05.15.11.2.17.05.06.09.13.12.19v-2.05h.61v4.18c0,.15,0,.28.01.39s.01.17.02.2h-.6s-.02-.09-.02-.17c0-.08-.01-.16-.01-.26v-.05ZM595.41,247.84c0,.16.02.31.06.45.04.14.1.26.18.36s.18.18.29.24c.11.06.25.09.39.09.14,0,.27-.03.38-.09.11-.06.21-.14.29-.24s.14-.22.18-.36c.04-.14.06-.29.06-.45,0-.33-.08-.59-.24-.8-.16-.2-.38-.3-.67-.3-.14,0-.27.03-.39.08-.12.05-.21.13-.3.23s-.14.22-.19.35c-.04.14-.07.29-.07.45Z"/>
    </g>
  </g>
  <g>
    <rect class="cls-2" x="521.69" y="256.68" width="7.25" height="7.25"/>
    <g>
      <path d="M535.94,260.09v1.91h-.65v-4.67h1.7c.21,0,.41.04.59.11s.33.17.45.29.22.27.29.44c.07.17.11.35.11.55s-.04.38-.11.55c-.07.17-.17.31-.29.44-.12.12-.28.22-.45.29s-.38.11-.59.11h-1.05ZM536.87,259.51c.28,0,.5-.07.66-.21.16-.14.24-.33.24-.58s-.08-.45-.24-.59c-.16-.14-.38-.22-.66-.22h-.94v1.6h.94Z"/>
      <path d="M538.76,261.15c0-.14.02-.27.07-.38.05-.11.12-.21.2-.29.09-.08.19-.14.31-.19.12-.05.25-.08.38-.11l.86-.12c.1-.01.16-.04.19-.09.03-.04.05-.09.05-.15,0-.15-.05-.29-.16-.4s-.28-.17-.52-.17c-.22,0-.39.06-.51.18-.12.12-.19.27-.21.46l-.59-.14c.02-.15.06-.29.13-.42.07-.13.17-.24.28-.33.11-.09.25-.16.4-.21.15-.05.31-.08.48-.08.24,0,.44.03.61.1.17.06.3.15.41.25s.18.23.23.37.07.29.07.44v1.59c0,.14,0,.25.01.34s.02.14.03.18h-.61s-.02-.09-.02-.16c0-.07-.01-.16-.01-.27-.04.06-.08.12-.14.18-.06.06-.13.12-.21.17s-.18.1-.29.13c-.11.03-.24.05-.38.05-.16,0-.31-.03-.44-.08-.13-.05-.24-.12-.33-.21-.09-.09-.16-.19-.21-.3-.05-.11-.08-.24-.08-.36ZM539.91,261.58c.13,0,.25-.02.36-.05.11-.03.21-.09.29-.16.08-.07.15-.17.19-.29s.07-.27.07-.44v-.14l-.97.14c-.13.02-.24.07-.33.15-.09.08-.13.19-.13.33,0,.12.05.22.14.32.09.09.22.14.38.14Z"/>
      <path d="M542.52,263.33l.79-1.67-1.36-2.82h.71l.99,2.19.95-2.19h.67l-2.06,4.49h-.68Z"/>
      <path d="M545.85,262v-4.77h.62v4.77h-.62Z"/>
      <path d="M548.88,258.74c.24,0,.45.04.65.13.2.09.37.2.51.35.14.15.26.33.34.53s.12.43.12.67-.04.47-.12.67c-.08.21-.19.38-.34.53-.15.15-.32.27-.51.35-.2.09-.42.13-.65.13s-.45-.04-.65-.13c-.2-.08-.37-.2-.51-.35-.14-.15-.26-.33-.34-.53-.08-.21-.12-.43-.12-.67s.04-.46.12-.67.19-.38.34-.53c.15-.15.32-.27.51-.35.2-.09.42-.13.65-.13ZM548.88,261.55c.13,0,.26-.02.38-.07.12-.05.22-.12.32-.22.09-.1.17-.22.22-.36.05-.14.08-.3.08-.49s-.03-.35-.08-.48c-.05-.14-.12-.26-.22-.35-.09-.1-.2-.17-.32-.22-.12-.05-.24-.07-.38-.07s-.26.02-.38.07c-.12.05-.22.12-.32.22-.09.1-.17.21-.22.35-.05.14-.08.3-.08.48s.03.35.08.49c.05.14.12.26.22.36.09.1.2.17.32.22.12.05.24.07.38.07Z"/>
      <path d="M551.09,261.15c0-.14.02-.27.07-.38.05-.11.12-.21.2-.29.09-.08.19-.14.31-.19.12-.05.25-.08.38-.11l.86-.12c.1-.01.16-.04.19-.09.03-.04.05-.09.05-.15,0-.15-.05-.29-.16-.4s-.28-.17-.52-.17c-.22,0-.39.06-.51.18-.12.12-.19.27-.21.46l-.59-.14c.02-.15.06-.29.13-.42.07-.13.17-.24.28-.33.11-.09.25-.16.4-.21.15-.05.31-.08.48-.08.24,0,.44.03.61.1.17.06.3.15.41.25s.18.23.23.37.07.29.07.44v1.59c0,.14,0,.25.01.34s.02.14.03.18h-.61s-.02-.09-.02-.16c0-.07-.01-.16-.01-.27-.04.06-.08.12-.14.18-.06.06-.13.12-.21.17s-.18.1-.29.13c-.11.03-.24.05-.38.05-.16,0-.31-.03-.44-.08-.13-.05-.24-.12-.33-.21-.09-.09-.16-.19-.21-.3-.05-.11-.08-.24-.08-.36ZM552.24,261.58c.13,0,.25-.02.36-.05.11-.03.21-.09.29-.16.08-.07.15-.17.19-.29s.07-.27.07-.44v-.14l-.97.14c-.13.02-.24.07-.33.15-.09.08-.13.19-.13.33,0,.12.05.22.14.32.09.09.22.14.38.14Z"/>
      <path d="M556.95,261.52c-.07.15-.19.29-.36.4-.17.11-.37.17-.62.17-.23,0-.44-.04-.63-.13s-.34-.2-.47-.36c-.13-.15-.23-.33-.3-.53s-.11-.42-.11-.66.04-.44.11-.64c.07-.2.17-.38.31-.53s.29-.27.47-.36.39-.13.61-.13c.14,0,.26.02.37.05.11.03.2.07.28.12s.15.11.2.17c.05.06.09.13.12.19v-2.05h.61v4.18c0,.15,0,.28.01.39,0,.11.01.17.02.2h-.6s-.02-.09-.02-.17c0-.08-.01-.16-.01-.26v-.05ZM555.1,260.41c0,.16.02.31.06.45.04.14.1.26.18.36.08.1.18.18.29.24.11.06.25.09.39.09.14,0,.27-.03.38-.09.11-.06.21-.14.29-.24.08-.1.14-.22.18-.36.04-.14.06-.29.06-.45,0-.33-.08-.59-.24-.8-.16-.2-.38-.3-.67-.3-.14,0-.27.03-.39.08s-.21.13-.3.23-.14.22-.19.35-.07.29-.07.45Z"/>
    </g>
  </g>
</svg>