<?xml version="1.0" encoding="UTF-8"?>
<svg id="Layer_1" data-name="Layer 1" xmlns="http://www.w3.org/2000/svg" viewBox="0 0 540 207.29">
  <defs>
    <style>
      .cls-1 {
        stroke: #000;
      }

      .cls-1, .cls-2, .cls-3, .cls-4, .cls-5, .cls-6 {
        fill: none;
      }

      .cls-1, .cls-5 {
        stroke-miterlimit: 10;
      }

      .cls-7 {
        fill: #3bc03b;
      }

      .cls-8 {
        fill: #fff;
      }

      .cls-2 {
        stroke: #94938f;
        stroke-width: .5px;
      }

      .cls-2, .cls-3, .cls-4, .cls-6 {
        stroke-miterlimit: 6;
      }

      .cls-3 {
        stroke: #0082fc;
      }

      .cls-3, .cls-6 {
        stroke-dasharray: 3 6 3 6 3 6;
        stroke-linecap: round;
        stroke-width: .75px;
      }

      .cls-4, .cls-5 {
        stroke: #3bc03b;
      }

      .cls-9 {
        fill: #d90000;
      }

      .cls-10 {
        fill: #0082fc;
      }

      .cls-6 {
        stroke: #d90000;
      }
    </style>
  </defs>
  <line class="cls-1" x1="138.81" y1="187.63" x2="138.81" y2="40.87"/>
  <g>
    <line class="cls-3" x1="138.81" y1="65.27" x2="491.3" y2="65.27"/>
    <polygon class="cls-10" points="490.48 68.08 495.33 65.27 490.48 62.47 490.48 68.08"/>
  </g>
  <line class="cls-3" x1="498.12" y1="65.27" x2="520.28" y2="65.27"/>
  <g>
    <rect class="cls-8" x="239.89" y="57.39" width="154.37" height="15.76"/>
    <g>
      <path d="M246.89,70.27v-6h.52v.84h.06c.06-.13.14-.27.25-.41s.25-.25.43-.35.4-.14.67-.14c.35,0,.67.09.94.28s.48.45.63.79.23.73.23,1.18-.07.85-.22,1.19-.36.6-.63.79-.58.28-.94.28c-.26,0-.48-.05-.66-.14s-.32-.21-.43-.35-.19-.28-.25-.41h-.04v2.45h-.53ZM248.73,68.25c.28,0,.52-.08.72-.24s.35-.37.45-.64.15-.57.15-.91-.05-.63-.15-.9-.25-.48-.45-.63-.44-.23-.73-.23-.52.08-.72.23-.35.36-.45.62-.15.57-.15.92.05.65.16.92.25.48.45.63.43.23.71.23Z"/>
      <path d="M253.65,68.73c-.41,0-.76-.1-1.06-.29s-.53-.46-.69-.79-.24-.73-.24-1.17.08-.83.24-1.17.38-.61.67-.8.62-.29,1-.29c.32,0,.62.08.9.23s.51.39.69.71.27.73.27,1.22v.23h-3.24c.01.5.15.9.41,1.19s.61.45,1.05.45c.3,0,.55-.07.75-.21s.33-.31.41-.5l.5.16c-.1.27-.29.51-.58.72s-.65.31-1.09.31ZM252.19,66.16h2.7c-.03-.42-.16-.78-.39-1.05s-.54-.42-.93-.42c-.26,0-.49.07-.7.2s-.36.31-.48.53-.19.47-.2.74Z"/>
      <path d="M256.67,68.64v-4.37h.52v.68h.04c.09-.22.24-.4.46-.54s.46-.2.73-.2c.04,0,.09,0,.14,0s.1,0,.13,0v.53s-.06,0-.12-.02-.12-.01-.2-.01c-.34,0-.62.1-.84.31s-.33.48-.33.8v2.8h-.53Z"/>
      <path d="M259.98,63.46c-.11,0-.2-.04-.27-.11s-.11-.16-.11-.26.04-.19.11-.26.17-.11.27-.11.2.04.27.11.11.16.11.26-.04.19-.11.26-.17.11-.27.11ZM259.71,68.64v-4.37h.53v4.37h-.53Z"/>
      <path d="M263.4,68.73c-.38,0-.71-.1-1-.29s-.52-.46-.68-.79-.25-.73-.25-1.17.08-.84.25-1.18.39-.61.68-.8.62-.29,1-.29.71.1,1,.29.52.46.68.8.25.73.25,1.18-.08.83-.25,1.17-.39.6-.68.79-.62.29-1,.29ZM263.4,68.25c.3,0,.55-.08.76-.24s.37-.38.47-.64.16-.56.16-.89-.05-.62-.16-.89-.27-.49-.48-.65-.46-.24-.76-.24-.55.08-.76.24-.37.38-.47.65-.16.57-.16.89.05.62.16.89.27.48.47.64.46.24.76.24Z"/>
      <path d="M268.17,68.73c-.36,0-.67-.09-.94-.28s-.48-.45-.63-.79-.22-.74-.22-1.19.08-.84.23-1.18.36-.6.63-.79.58-.28.94-.28c.27,0,.49.05.66.14s.32.21.43.35.19.27.25.41h.04v-2.29h.53v5.82h-.51v-.82h-.06c-.06.14-.14.27-.25.41s-.25.26-.43.35-.4.14-.66.14ZM268.24,68.25c.28,0,.52-.08.72-.23s.35-.37.45-.63.15-.58.15-.92-.05-.65-.15-.92-.25-.47-.45-.62-.44-.23-.72-.23-.53.08-.72.23-.35.37-.45.63-.15.57-.15.9.05.64.15.91.25.48.45.64.44.24.72.24Z"/>
      <path d="M271.84,63.46c-.11,0-.2-.04-.27-.11s-.11-.16-.11-.26.04-.19.11-.26.17-.11.27-.11.2.04.27.11.11.16.11.26-.04.19-.11.26-.17.11-.27.11ZM271.57,68.64v-4.37h.53v4.37h-.53Z"/>
      <path d="M275.27,68.72c-.38,0-.71-.09-1-.29s-.52-.45-.68-.79-.25-.73-.25-1.17.08-.84.25-1.18.39-.6.68-.79.62-.29,1-.29c.29,0,.56.06.79.17s.42.25.57.42.26.34.31.52l-.5.16c-.03-.11-.1-.23-.2-.35s-.23-.23-.39-.31-.35-.13-.58-.13c-.3,0-.55.08-.76.24s-.37.38-.47.64-.16.57-.16.9.05.62.16.89.27.48.47.64.46.24.76.24c.23,0,.42-.04.59-.13s.3-.2.4-.32.17-.25.2-.36l.5.16c-.05.18-.16.36-.31.53s-.35.32-.58.43-.5.17-.79.17Z"/>
      <path d="M281.43,68.74c-.27,0-.51-.05-.72-.15s-.39-.25-.52-.45-.19-.43-.19-.72.07-.51.21-.69.34-.3.59-.39.54-.15.87-.19c.36-.04.64-.08.84-.12s.3-.14.3-.3v-.1c0-.29-.09-.52-.27-.69s-.43-.25-.76-.25-.57.07-.76.21-.33.3-.4.48l-.51-.17c.1-.24.23-.43.41-.57s.37-.25.59-.31.44-.1.67-.1c.17,0,.35.02.53.07s.35.12.51.23.28.26.38.45.14.43.14.72v2.96h-.52v-.69h-.04c-.1.2-.26.38-.48.54s-.52.24-.87.24ZM281.51,68.26c.27,0,.5-.06.69-.18s.35-.28.45-.47.16-.41.16-.65v-.62s-.14.09-.28.12-.29.06-.45.09-.3.04-.41.06c-.37.04-.65.13-.85.26s-.3.32-.3.58.09.46.28.61.42.22.7.22Z"/>
      <path d="M286.38,68.73c-.36,0-.67-.09-.94-.28s-.48-.45-.63-.79-.22-.74-.22-1.19.08-.84.23-1.18.36-.6.63-.79.58-.28.94-.28c.27,0,.49.05.66.14s.32.21.43.35.19.27.25.41h.04v-2.29h.53v5.82h-.51v-.82h-.06c-.06.14-.14.27-.25.41s-.25.26-.43.35-.4.14-.66.14ZM286.45,68.25c.28,0,.52-.08.72-.23s.35-.37.45-.63.15-.58.15-.92-.05-.65-.15-.92-.25-.47-.45-.62-.44-.23-.72-.23-.53.08-.72.23-.35.37-.45.63-.15.57-.15.9.05.64.15.91.25.48.45.64.44.24.72.24Z"/>
      <path d="M291.03,68.64l-1.67-4.37h.58l1.01,2.75c.07.19.14.39.2.58s.12.39.18.58c.06-.19.11-.38.17-.58s.12-.39.2-.58l1.01-2.75h.57l-1.67,4.37h-.57Z"/>
      <path d="M295.95,68.73c-.41,0-.76-.1-1.06-.29s-.53-.46-.69-.79-.24-.73-.24-1.17.08-.83.24-1.17.38-.61.67-.8.62-.29,1-.29c.32,0,.62.08.9.23s.51.39.69.71.27.73.27,1.22v.23h-3.24c.01.5.15.9.41,1.19s.61.45,1.05.45c.3,0,.55-.07.75-.21s.33-.31.41-.5l.5.16c-.1.27-.29.51-.58.72s-.65.31-1.09.31ZM294.49,66.16h2.7c-.03-.42-.16-.78-.39-1.05s-.54-.42-.93-.42c-.26,0-.49.07-.7.2s-.36.31-.48.53-.19.47-.2.74Z"/>
      <path d="M298.98,68.64v-4.37h.52v.68h.04c.09-.22.24-.4.46-.54s.46-.2.73-.2c.04,0,.09,0,.14,0s.1,0,.13,0v.53s-.06,0-.12-.02-.12-.01-.2-.01c-.34,0-.62.1-.84.31s-.33.48-.33.8v2.8h-.53Z"/>
      <path d="M303.77,64.27v.46h-.9v2.88c0,.44.2.64.59.6.04,0,.08,0,.13-.01s.1-.02.15-.03l.11.46c-.11.04-.24.06-.4.06-.35.02-.62-.06-.82-.25s-.3-.45-.3-.79v-2.91h-.65v-.46h.65v-1.04h.53v1.04h.9Z"/>
      <path d="M305.13,63.46c-.11,0-.2-.04-.27-.11s-.11-.16-.11-.26.04-.19.11-.26.17-.11.27-.11.2.04.27.11.11.16.11.26-.04.19-.11.26-.17.11-.27.11ZM304.87,68.64v-4.37h.53v4.37h-.53Z"/>
      <path d="M308.22,68.73c-.43,0-.78-.1-1.06-.29s-.46-.47-.54-.84l.51-.12c.06.26.19.46.37.59s.42.19.71.19c.33,0,.6-.07.79-.22s.3-.33.3-.55c0-.35-.24-.59-.71-.7l-.71-.17c-.75-.18-1.12-.57-1.12-1.16,0-.25.07-.46.2-.64s.31-.33.54-.43.49-.16.79-.16c.41,0,.74.09.98.28s.41.44.51.75l-.48.12c-.07-.2-.18-.37-.34-.5s-.38-.2-.67-.2-.53.07-.71.21-.28.32-.28.53c0,.36.26.6.78.73l.67.16c.74.18,1.11.56,1.11,1.15,0,.25-.07.47-.21.66s-.33.34-.58.45-.53.16-.85.16Z"/>
      <path d="M311.36,63.46c-.11,0-.2-.04-.27-.11s-.11-.16-.11-.26.04-.19.11-.26.17-.11.27-.11.2.04.27.11.11.16.11.26-.04.19-.11.26-.17.11-.27.11ZM311.09,68.64v-4.37h.53v4.37h-.53Z"/>
      <path d="M313.63,65.92v2.72h-.53v-4.37h.51v.8c.14-.3.32-.52.56-.66s.51-.21.8-.21c.44,0,.8.14,1.08.41s.41.67.41,1.19v2.82h-.53v-2.79c0-.36-.1-.64-.3-.85s-.47-.31-.8-.31-.63.11-.86.33-.35.52-.35.89Z"/>
      <path d="M319.62,70.37c-.45,0-.81-.08-1.1-.25s-.49-.38-.62-.64l.44-.27c.09.17.24.33.43.47s.48.21.84.21c.39,0,.7-.1.93-.29s.35-.49.35-.89v-.98h-.05c-.06.14-.14.27-.25.4s-.25.24-.43.32-.4.13-.66.13c-.35,0-.65-.08-.92-.26s-.48-.42-.63-.74-.23-.7-.23-1.15.08-.83.23-1.17.36-.6.63-.78.58-.28.94-.28c.27,0,.49.05.66.14s.32.21.43.35.19.27.25.41h.05v-.84h.52v4.47c0,.37-.08.67-.24.91s-.37.42-.64.53-.58.17-.93.17ZM319.58,68.12c.42,0,.74-.15.97-.45s.35-.71.35-1.23c0-.34-.05-.64-.15-.9s-.25-.47-.45-.62-.44-.22-.72-.22-.53.08-.73.23-.35.36-.45.63-.15.56-.15.88c0,.5.12.9.35,1.21s.56.47.99.47Z"/>
      <path d="M326.4,68.73c-.43,0-.78-.1-1.06-.29s-.46-.47-.54-.84l.51-.12c.06.26.19.46.37.59s.42.19.71.19c.33,0,.6-.07.79-.22s.3-.33.3-.55c0-.35-.24-.59-.71-.7l-.71-.17c-.75-.18-1.12-.57-1.12-1.16,0-.25.07-.46.2-.64s.31-.33.54-.43.49-.16.79-.16c.41,0,.74.09.98.28s.41.44.51.75l-.48.12c-.07-.2-.18-.37-.34-.5s-.38-.2-.67-.2-.53.07-.71.21-.28.32-.28.53c0,.36.26.6.78.73l.67.16c.74.18,1.11.56,1.11,1.15,0,.25-.07.47-.21.66s-.33.34-.58.45-.53.16-.85.16Z"/>
      <path d="M330.74,68.7c-.44,0-.8-.14-1.08-.41s-.42-.67-.42-1.19v-2.82h.53v2.79c0,.36.1.64.3.85s.47.31.8.31.63-.11.86-.33.35-.52.35-.89v-2.72h.53v4.37h-.52v-.81c-.14.31-.32.53-.56.66s-.51.2-.8.2Z"/>
      <path d="M336.01,68.73c-.26,0-.48-.05-.66-.14s-.32-.21-.43-.35-.19-.28-.25-.41h-.06v.82h-.52v-5.82h.53v2.29h.04c.06-.13.14-.27.25-.41s.25-.25.43-.35.4-.14.67-.14c.35,0,.67.09.94.28s.48.45.63.79.23.73.23,1.18-.07.85-.22,1.19-.36.6-.63.79-.58.28-.94.28ZM335.94,68.25c.28,0,.52-.08.72-.24s.35-.37.45-.64.15-.57.15-.91-.05-.63-.15-.9-.25-.48-.45-.63-.44-.23-.73-.23-.52.08-.72.23-.35.36-.45.62-.15.57-.15.92.05.65.16.92.25.48.45.63.43.23.71.23Z"/>
      <path d="M340.85,68.73c-.41,0-.76-.1-1.06-.29s-.53-.46-.69-.79-.24-.73-.24-1.17.08-.83.24-1.17.38-.61.67-.8.62-.29,1-.29c.32,0,.62.08.9.23s.51.39.69.71.27.73.27,1.22v.23h-3.24c.01.5.15.9.41,1.19s.61.45,1.05.45c.3,0,.55-.07.75-.21s.33-.31.41-.5l.5.16c-.1.27-.29.51-.58.72s-.65.31-1.09.31ZM339.39,66.16h2.7c-.03-.42-.16-.78-.39-1.05s-.54-.42-.93-.42c-.26,0-.49.07-.7.2s-.36.31-.48.53-.19.47-.2.74Z"/>
      <path d="M344.99,68.64l-1.67-4.37h.58l1.01,2.75c.07.19.14.39.2.58s.12.39.18.58c.06-.19.11-.38.17-.58s.12-.39.2-.58l1.01-2.75h.57l-1.67,4.37h-.57Z"/>
      <path d="M349.91,68.73c-.41,0-.76-.1-1.06-.29s-.53-.46-.69-.79-.24-.73-.24-1.17.08-.83.24-1.17.38-.61.67-.8.62-.29,1-.29c.32,0,.62.08.9.23s.51.39.69.71.27.73.27,1.22v.23h-3.24c.01.5.15.9.41,1.19s.61.45,1.05.45c.3,0,.55-.07.75-.21s.33-.31.41-.5l.5.16c-.1.27-.29.51-.58.72s-.65.31-1.09.31ZM348.45,66.16h2.7c-.03-.42-.16-.78-.39-1.05s-.54-.42-.93-.42c-.26,0-.49.07-.7.2s-.36.31-.48.53-.19.47-.2.74Z"/>
      <path d="M353.46,65.92v2.72h-.53v-4.37h.51v.8c.14-.3.32-.52.56-.66s.51-.21.8-.21c.44,0,.8.14,1.08.41.28.27.41.67.41,1.19v2.82h-.53v-2.79c0-.36-.1-.64-.3-.85-.2-.21-.47-.31-.8-.31s-.63.11-.86.33-.35.52-.35.89Z"/>
      <path d="M359.25,64.27v.46h-.9v2.88c0,.44.2.64.59.6.04,0,.08,0,.13-.01.05,0,.1-.02.15-.03l.11.46c-.11.04-.24.06-.4.06-.35.02-.62-.06-.82-.25-.2-.19-.3-.45-.3-.79v-2.91h-.65v-.46h.65v-1.04h.53v1.04h.9Z"/>
      <path d="M362.68,63.46c-.11,0-.2-.04-.27-.11s-.11-.16-.11-.26.04-.19.11-.26.17-.11.27-.11.2.04.27.11.11.16.11.26-.04.19-.11.26-.17.11-.27.11ZM362.41,68.64v-4.37h.53v4.37h-.53Z"/>
      <path d="M364.95,65.92v2.72h-.53v-4.37h.51v.8c.14-.3.32-.52.56-.66s.51-.21.8-.21c.44,0,.8.14,1.08.41s.41.67.41,1.19v2.82h-.53v-2.79c0-.36-.1-.64-.3-.85s-.47-.31-.8-.31-.63.11-.86.33-.35.52-.35.89Z"/>
      <path d="M370.73,64.27v.46h-.9v2.88c0,.44.2.64.59.6.04,0,.08,0,.13-.01s.1-.02.15-.03l.11.46c-.11.04-.25.06-.4.06-.35.02-.62-.06-.82-.25s-.3-.45-.3-.79v-2.91h-.65v-.46h.65v-1.04h.53v1.04h.9Z"/>
      <path d="M373.42,68.73c-.41,0-.76-.1-1.06-.29s-.53-.46-.69-.79-.24-.73-.24-1.17.08-.83.24-1.17.38-.61.67-.8.62-.29,1-.29c.32,0,.62.08.9.23s.51.39.69.71.27.73.27,1.22v.23h-3.24c.01.5.15.9.41,1.19s.61.45,1.05.45c.3,0,.55-.07.75-.21s.33-.31.41-.5l.5.16c-.1.27-.29.51-.58.72s-.65.31-1.09.31ZM371.96,66.16h2.7c-.03-.42-.16-.78-.39-1.05s-.54-.42-.93-.42c-.26,0-.5.07-.7.2s-.36.31-.48.53-.19.47-.2.74Z"/>
      <path d="M376.45,68.64v-4.37h.52v.68h.04c.09-.22.24-.4.46-.54s.46-.2.73-.2c.04,0,.09,0,.14,0s.09,0,.13,0v.53s-.06,0-.12-.02-.12-.01-.2-.01c-.34,0-.62.1-.84.31s-.33.48-.33.8v2.8h-.53Z"/>
      <path d="M380.94,68.64l-1.67-4.37h.58l1.01,2.75c.07.19.14.39.2.58s.12.39.18.58c.06-.19.11-.38.17-.58s.12-.39.2-.58l1.01-2.75h.57l-1.67,4.37h-.57Z"/>
      <path d="M385.34,68.74c-.27,0-.51-.05-.72-.15s-.39-.25-.52-.45-.19-.43-.19-.72.07-.51.21-.69.34-.3.59-.39.54-.15.87-.19c.36-.04.64-.08.84-.12s.3-.14.3-.3v-.1c0-.29-.09-.52-.27-.69s-.43-.25-.76-.25-.57.07-.76.21-.33.3-.4.48l-.51-.17c.1-.24.23-.43.41-.57s.37-.25.59-.31.44-.1.67-.1c.17,0,.35.02.53.07s.35.12.51.23.28.26.38.45.14.43.14.72v2.96h-.52v-.69h-.04c-.1.2-.26.38-.48.54s-.51.24-.87.24ZM385.42,68.26c.27,0,.5-.06.69-.18s.35-.28.45-.47.16-.41.16-.65v-.62s-.14.09-.28.12-.29.06-.45.09-.3.04-.41.06c-.37.04-.65.13-.85.26s-.3.32-.3.58.09.46.28.61.42.22.7.22Z"/>
      <path d="M389.26,62.82v5.82h-.53v-5.82h.53Z"/>
    </g>
  </g>
  <g>
    <rect class="cls-5" x="501.12" y="76.69" width="18.8" height="32.26"/>
    <g>
      <path d="M508.78,90.94v.46h-.9v2.88c0,.44.2.64.59.6.04,0,.08,0,.13-.01.05,0,.1-.02.15-.03l.11.46c-.11.04-.25.06-.4.06-.35.02-.62-.06-.82-.25-.2-.19-.3-.45-.3-.79v-2.91h-.65v-.46h.65v-1.04h.53v1.04h.9Z"/>
      <path d="M513.65,89.49v5.82h-.55v-5.3h-.04l-1.35,1v-.6l1.25-.93h.69Z"/>
    </g>
  </g>
  <g>
    <rect class="cls-5" x="142.23" y="76.69" width="18.8" height="32.26"/>
    <g>
      <path d="M148.98,90.94v.46h-.9v2.88c0,.44.2.64.59.6.04,0,.08,0,.13-.01.05,0,.1-.02.15-.03l.11.46c-.11.04-.25.06-.4.06-.35.02-.62-.06-.82-.25-.2-.19-.3-.45-.3-.79v-2.91h-.65v-.46h.65v-1.04h.53v1.04h.9Z"/>
      <path d="M153.95,95.39c-.62,0-1.1-.26-1.45-.79s-.52-1.26-.52-2.2.17-1.67.52-2.2c.34-.53.83-.79,1.44-.79s1.09.26,1.44.79c.35.53.52,1.26.52,2.2s-.17,1.67-.52,2.2-.82.79-1.44.79ZM153.95,94.9c.45,0,.8-.22,1.05-.66s.38-1.05.38-1.83-.12-1.4-.38-1.84-.6-.66-1.05-.66-.8.22-1.05.66-.38,1.06-.38,1.84.12,1.4.38,1.83.6.66,1.05.66Z"/>
    </g>
  </g>
  <g>
    <path d="M488.12,26.17v-5.82h1.9c.41,0,.76.08,1.04.24.28.16.49.37.63.65.14.27.21.58.21.92s-.07.65-.21.92c-.14.27-.35.49-.63.65-.28.16-.62.24-1.03.24h-1.35v2.21h-.55ZM488.68,23.46h1.32c.45,0,.79-.12,1.01-.37.22-.25.34-.56.34-.94s-.11-.69-.34-.93c-.22-.25-.56-.37-1.02-.37h-1.32v2.62Z"/>
    <path d="M492.32,26.17l2.13-5.82h.66l2.15,5.82h-.59l-.63-1.73h-2.52l-.62,1.73h-.59ZM493.7,23.95h2.16l-.57-1.58c-.07-.19-.15-.42-.23-.67-.08-.25-.18-.55-.29-.9-.1.35-.2.65-.28.91-.08.25-.16.48-.22.66l-.57,1.58Z"/>
    <path d="M499.01,26.17l-1.31-4.37h.56l.67,2.35c.06.21.12.43.18.67s.12.5.19.79c.07-.28.13-.54.19-.78s.12-.47.19-.69l.7-2.35h.58l.7,2.35c.06.21.12.44.18.68s.12.5.19.79c.06-.28.12-.54.19-.78s.12-.47.18-.68l.67-2.35h.56l-1.31,4.37h-.55l-.75-2.44c-.06-.21-.12-.43-.18-.65-.06-.22-.12-.45-.18-.68-.06.23-.12.46-.18.68-.06.22-.12.44-.18.65l-.75,2.44h-.55Z"/>
    <path d="M504.8,26.17v-5.82h1.9c.62,0,1.08.16,1.4.49.32.33.48.75.48,1.26,0,.39-.09.72-.28,1.01-.18.28-.46.48-.82.6l1.34,2.46h-.64l-1.26-2.35c-.07,0-.14,0-.21,0h-1.35v2.34h-.55ZM505.36,23.33h1.32c.45,0,.79-.11,1.01-.33.22-.22.34-.52.34-.89s-.11-.68-.34-.91c-.22-.23-.56-.34-1.02-.34h-1.32v2.48Z"/>
    <path d="M477.32,34.26c-.43,0-.78-.1-1.06-.29-.28-.19-.46-.47-.54-.84l.51-.12c.06.26.19.46.37.59.19.13.42.19.71.19.33,0,.6-.07.79-.22s.3-.33.3-.55c0-.35-.24-.59-.71-.7l-.71-.17c-.75-.18-1.12-.57-1.12-1.16,0-.25.07-.46.2-.64.13-.18.31-.33.54-.43s.49-.16.79-.16c.41,0,.74.09.98.28.24.19.41.44.51.75l-.48.12c-.07-.2-.18-.37-.34-.5-.16-.13-.38-.2-.67-.2s-.53.07-.71.21-.28.32-.28.53c0,.36.26.6.78.73l.67.16c.74.18,1.11.56,1.11,1.15,0,.25-.07.47-.21.66-.14.19-.33.34-.58.45s-.53.16-.85.16Z"/>
    <path d="M481.66,34.23c-.44,0-.8-.14-1.08-.41s-.42-.67-.42-1.19v-2.82h.53v2.79c0,.36.1.64.3.85.2.21.47.31.8.31s.63-.11.86-.33.35-.52.35-.89v-2.72h.53v4.37h-.52v-.81c-.14.31-.32.53-.56.66-.24.14-.51.2-.8.2Z"/>
    <path d="M486.93,34.26c-.26,0-.48-.05-.66-.14-.18-.09-.32-.21-.43-.35s-.19-.28-.25-.41h-.06v.82h-.52v-5.82h.53v2.29h.04c.06-.13.14-.27.25-.41.11-.14.25-.25.43-.35.18-.09.4-.14.67-.14.35,0,.67.09.94.28s.48.45.63.79c.15.34.23.73.23,1.18s-.07.85-.22,1.19c-.15.34-.36.6-.63.79s-.58.28-.94.28ZM486.86,33.78c.28,0,.53-.08.72-.24.2-.16.35-.37.45-.64.1-.27.15-.57.15-.91s-.05-.63-.15-.9-.25-.48-.45-.63c-.2-.16-.44-.23-.73-.23s-.52.08-.72.23c-.2.15-.35.36-.45.62-.1.27-.15.57-.15.92s.05.65.16.92c.1.27.25.48.45.63.2.15.43.23.71.23Z"/>
    <path d="M491.77,34.26c-.41,0-.76-.1-1.06-.29-.3-.19-.53-.46-.69-.79-.16-.34-.24-.73-.24-1.17s.08-.83.24-1.17.38-.61.67-.8c.29-.2.62-.29,1-.29.32,0,.62.08.9.23.28.16.51.39.69.71.18.32.27.73.27,1.22v.23h-3.24c.01.5.15.9.41,1.19.26.3.62.45,1.05.45.3,0,.55-.07.75-.21s.33-.31.41-.5l.5.16c-.1.27-.29.51-.58.72-.29.21-.65.31-1.09.31ZM490.31,31.69h2.7c-.03-.42-.16-.78-.39-1.05-.23-.28-.54-.42-.93-.42-.26,0-.49.07-.7.2-.2.13-.36.31-.48.53-.12.22-.19.47-.2.74Z"/>
    <path d="M495.9,34.17l-1.67-4.37h.58l1.01,2.75c.07.19.14.39.2.58.06.19.12.39.18.58.06-.19.12-.38.17-.58.06-.19.12-.39.2-.58l1.01-2.75h.57l-1.67,4.37h-.57Z"/>
    <path d="M500.82,34.26c-.41,0-.76-.1-1.06-.29-.3-.19-.53-.46-.69-.79-.16-.34-.24-.73-.24-1.17s.08-.83.24-1.17.38-.61.67-.8c.29-.2.62-.29,1-.29.32,0,.62.08.9.23.28.16.51.39.69.71.18.32.27.73.27,1.22v.23h-3.24c.01.5.15.9.41,1.19.26.3.62.45,1.05.45.3,0,.55-.07.75-.21s.33-.31.41-.5l.5.16c-.1.27-.29.51-.58.72-.29.21-.65.31-1.09.31ZM499.36,31.69h2.7c-.03-.42-.16-.78-.39-1.05-.23-.28-.54-.42-.93-.42-.26,0-.49.07-.7.2-.2.13-.36.31-.48.53-.12.22-.19.47-.2.74Z"/>
    <path d="M504.38,31.45v2.72h-.53v-4.37h.51v.8c.14-.3.32-.52.56-.66.24-.14.51-.21.8-.21.44,0,.8.14,1.08.41.28.27.41.67.41,1.19v2.82h-.53v-2.79c0-.36-.1-.64-.3-.85-.2-.21-.47-.31-.8-.31s-.63.11-.86.33-.35.52-.35.89Z"/>
    <path d="M510.16,29.8v.46h-.9v2.88c0,.44.2.64.59.6.04,0,.08,0,.13-.01.05,0,.1-.02.15-.03l.11.46c-.11.04-.24.06-.4.06-.35.02-.62-.06-.82-.25-.2-.19-.3-.45-.3-.79v-2.91h-.65v-.46h.65v-1.04h.53v1.04h.9Z"/>
    <path d="M515.5,34.17l.28-1.67h-1.59l-.27,1.67h-.45l.27-1.67h-.93l.08-.45h.93l.25-1.57h-.92l.08-.45h.92l.28-1.68h.45l-.28,1.68h1.59l.28-1.68h.45l-.28,1.68h.93l-.07.45h-.93l-.25,1.57h.92l-.07.45h-.92l-.27,1.67h-.46ZM514.26,32.05h1.59l.26-1.57h-1.59l-.25,1.57Z"/>
    <path d="M520.42,28.35v5.82h-.55v-5.3h-.04l-1.35,1v-.6l1.25-.93h.69Z"/>
  </g>
  <g>
    <path d="M128.71,26.37v-5.82h1.9c.41,0,.76.08,1.04.24s.49.37.63.65.21.58.21.92-.07.65-.21.92-.35.49-.63.65-.62.24-1.03.24h-1.35v2.21h-.55ZM129.26,23.66h1.32c.45,0,.79-.12,1.01-.37s.34-.56.34-.94-.11-.69-.34-.93-.56-.37-1.02-.37h-1.32v2.62Z"/>
    <path d="M132.9,26.37l2.13-5.82h.66l2.15,5.82h-.59l-.63-1.73h-2.52l-.62,1.73h-.59ZM134.29,24.15h2.16l-.57-1.58c-.07-.19-.15-.42-.23-.67s-.18-.55-.29-.9c-.1.35-.2.65-.28.91s-.16.48-.22.66l-.57,1.58Z"/>
    <path d="M139.6,26.37l-1.31-4.37h.56l.67,2.35c.06.21.12.43.18.67s.12.5.19.79c.06-.28.13-.54.19-.78s.12-.47.19-.69l.7-2.35h.58l.7,2.35c.06.21.12.44.18.68s.12.5.19.79c.06-.28.12-.54.19-.78s.12-.47.18-.68l.67-2.35h.56l-1.31,4.37h-.55l-.75-2.44c-.06-.21-.12-.43-.18-.65s-.12-.45-.18-.68c-.06.23-.12.46-.18.68s-.12.44-.18.65l-.75,2.44h-.55Z"/>
    <path d="M145.39,26.37v-5.82h1.9c.62,0,1.08.16,1.4.49s.48.75.48,1.26c0,.39-.09.72-.28,1.01s-.46.48-.82.6l1.34,2.46h-.64l-1.26-2.35c-.07,0-.14,0-.21,0h-1.35v2.34h-.55ZM145.94,23.53h1.32c.45,0,.79-.11,1.01-.33s.34-.52.34-.89-.11-.68-.34-.91-.56-.34-1.02-.34h-1.32v2.48Z"/>
    <path d="M117.03,34.46c-.43,0-.78-.1-1.06-.29s-.46-.47-.54-.84l.51-.12c.06.26.19.46.37.59s.42.19.71.19c.33,0,.6-.07.79-.22s.3-.33.3-.55c0-.35-.24-.59-.71-.7l-.71-.17c-.75-.18-1.12-.57-1.12-1.16,0-.25.07-.46.2-.64s.31-.33.54-.43.49-.16.79-.16c.41,0,.74.09.98.28s.41.44.51.75l-.48.12c-.07-.2-.18-.37-.34-.5s-.38-.2-.67-.2-.53.07-.71.21-.28.32-.28.53c0,.36.26.6.78.73l.67.16c.74.18,1.11.56,1.11,1.15,0,.25-.07.47-.21.66s-.33.34-.58.45-.53.16-.85.16Z"/>
    <path d="M121.36,34.43c-.44,0-.8-.14-1.08-.41s-.42-.67-.42-1.19v-2.82h.53v2.79c0,.36.1.64.3.85s.47.31.8.31.63-.11.86-.33.35-.52.35-.89v-2.72h.53v4.37h-.52v-.81c-.14.31-.32.53-.56.66s-.51.2-.8.2Z"/>
    <path d="M126.63,34.46c-.26,0-.48-.05-.66-.14s-.32-.21-.43-.35-.19-.28-.25-.41h-.06v.82h-.52v-5.82h.53v2.29h.04c.06-.13.14-.27.25-.41s.25-.25.43-.35.4-.14.67-.14c.35,0,.67.09.94.28s.48.45.63.79.23.73.23,1.18-.07.85-.22,1.19-.36.6-.63.79-.58.28-.94.28ZM126.56,33.98c.28,0,.52-.08.72-.24s.35-.37.45-.64.15-.57.15-.91-.05-.63-.15-.9-.25-.48-.45-.63-.44-.23-.73-.23-.52.08-.72.23-.35.36-.45.62-.15.57-.15.92.05.65.16.92.25.48.45.63.43.23.71.23Z"/>
    <path d="M131.47,34.46c-.41,0-.76-.1-1.06-.29s-.53-.46-.69-.79-.24-.73-.24-1.17.08-.83.24-1.17.38-.61.67-.8.62-.29,1-.29c.32,0,.62.08.9.23s.51.39.69.71.27.73.27,1.22v.23h-3.24c.01.5.15.9.41,1.19s.61.45,1.05.45c.3,0,.55-.07.75-.21s.33-.31.41-.5l.5.16c-.1.27-.29.51-.58.72s-.65.31-1.09.31ZM130.01,31.89h2.7c-.03-.42-.16-.78-.39-1.05s-.54-.42-.93-.42c-.26,0-.49.07-.7.2s-.36.31-.48.53-.19.47-.2.74Z"/>
    <path d="M135.61,34.37l-1.67-4.37h.58l1.01,2.75c.07.19.14.39.2.58s.12.39.18.58c.06-.19.11-.38.17-.58s.12-.39.2-.58l1.01-2.75h.57l-1.67,4.37h-.57Z"/>
    <path d="M140.53,34.46c-.41,0-.76-.1-1.06-.29s-.53-.46-.69-.79-.24-.73-.24-1.17.08-.83.24-1.17.38-.61.67-.8.62-.29,1-.29c.32,0,.62.08.9.23s.51.39.69.71.27.73.27,1.22v.23h-3.24c.01.5.15.9.41,1.19s.61.45,1.05.45c.3,0,.55-.07.75-.21s.33-.31.41-.5l.5.16c-.1.27-.29.51-.58.72s-.65.31-1.09.31ZM139.07,31.89h2.7c-.03-.42-.16-.78-.39-1.05s-.54-.42-.93-.42c-.26,0-.49.07-.7.2s-.36.31-.48.53-.19.47-.2.74Z"/>
    <path d="M144.09,31.65v2.72h-.53v-4.37h.51v.8c.14-.3.32-.52.56-.66s.51-.21.8-.21c.44,0,.8.14,1.08.41s.41.67.41,1.19v2.82h-.53v-2.79c0-.36-.1-.64-.3-.85s-.47-.31-.8-.31-.63.11-.86.33-.35.52-.35.89Z"/>
    <path d="M149.87,30v.46h-.9v2.88c0,.44.2.64.59.6.04,0,.08,0,.13-.01s.1-.02.15-.03l.11.46c-.11.04-.24.06-.4.06-.35.02-.62-.06-.82-.25s-.3-.45-.3-.79v-2.91h-.65v-.46h.65v-1.04h.53v1.04h.9Z"/>
    <path d="M155.21,34.37l.28-1.67h-1.59l-.27,1.67h-.45l.27-1.67h-.93l.08-.45h.93l.25-1.57h-.92l.08-.45h.92l.28-1.68h.45l-.28,1.68h1.59l.28-1.68h.45l-.28,1.68h.93l-.07.45h-.93l-.25,1.57h.92l-.07.45h-.92l-.27,1.67h-.46ZM153.97,32.24h1.59l.26-1.57h-1.59l-.25,1.57Z"/>
    <path d="M160.19,34.45c-.62,0-1.1-.26-1.45-.79s-.52-1.26-.52-2.2.17-1.67.52-2.2.83-.79,1.44-.79,1.09.26,1.44.79.52,1.26.52,2.2-.17,1.67-.52,2.2-.82.79-1.44.79ZM160.19,33.95c.45,0,.8-.22,1.05-.66s.38-1.05.38-1.83-.12-1.4-.38-1.84-.6-.66-1.05-.66-.8.22-1.05.66-.38,1.06-.38,1.84.12,1.4.38,1.83.6.66,1.05.66Z"/>
  </g>
  <line class="cls-1" x1="498.12" y1="192.63" x2="498.12" y2="40.93"/>
  <g>
    <g>
      <g>
        <line class="cls-3" x1="422.12" y1="147.44" x2="448.46" y2="147.44"/>
        <polygon class="cls-10" points="447.64 150.25 452.49 147.44 447.64 144.64 447.64 150.25"/>
      </g>
      <g>
        <rect class="cls-1" x="250.32" y="131.31" width="18.8" height="32.26"/>
        <g>
          <path class="cls-9" d="M255.36,149.93v-4.37h.52v.68h.04c.09-.22.24-.4.46-.54s.46-.2.73-.2c.04,0,.09,0,.14,0s.1,0,.13,0v.53s-.06,0-.12-.02-.12-.01-.2-.01c-.34,0-.62.1-.84.31s-.33.48-.33.8v2.8h-.53Z"/>
          <path class="cls-9" d="M262.29,150.01c-.62,0-1.1-.26-1.45-.79s-.52-1.26-.52-2.2.17-1.67.52-2.2.83-.79,1.44-.79,1.09.26,1.44.79.52,1.26.52,2.2-.17,1.67-.52,2.2-.82.79-1.44.79ZM262.29,149.52c.45,0,.8-.22,1.05-.66s.38-1.05.38-1.83-.12-1.4-.38-1.84-.6-.66-1.05-.66-.8.22-1.05.66-.38,1.06-.38,1.84.12,1.4.38,1.83.6.66,1.05.66Z"/>
        </g>
      </g>
      <g>
        <rect class="cls-1" x="271.99" y="131.31" width="18.8" height="32.26"/>
        <g>
          <path class="cls-9" d="M277.92,149.93v-4.37h.52v.68h.04c.09-.22.24-.4.46-.54s.46-.2.73-.2c.04,0,.09,0,.14,0s.1,0,.13,0v.53s-.06,0-.12-.02-.12-.01-.2-.01c-.34,0-.62.1-.84.31s-.33.48-.33.8v2.8h-.53Z"/>
          <path class="cls-9" d="M284.76,144.11v5.82h-.55v-5.3h-.04l-1.35,1v-.6l1.25-.93h.69Z"/>
        </g>
      </g>
      <g>
        <rect class="cls-1" x="293.66" y="131.31" width="18.8" height="32.26"/>
        <g>
          <path class="cls-9" d="M298.71,149.93v-4.37h.52v.68h.04c.09-.22.24-.4.46-.54s.46-.2.73-.2c.04,0,.09,0,.14,0s.1,0,.13,0v.53s-.06,0-.12-.02-.12-.01-.2-.01c-.34,0-.62.1-.84.31s-.33.48-.33.8v2.8h-.53Z"/>
          <path class="cls-9" d="M303.82,149.93v-.41l1.91-2.13c.24-.27.44-.5.59-.7s.26-.38.33-.54.11-.34.11-.53c0-.33-.11-.6-.34-.8s-.51-.3-.84-.3-.64.11-.85.33-.32.5-.32.84h-.54c0-.32.07-.61.22-.86s.35-.45.62-.59.56-.21.89-.21.62.07.87.21.45.33.6.57.22.51.22.8c0,.21-.04.42-.11.62s-.2.42-.39.67-.44.55-.76.91l-1.42,1.58v.04h2.86v.5h-3.64Z"/>
        </g>
      </g>
      <g>
        <rect class="cls-1" x="315.33" y="131.31" width="18.8" height="32.26"/>
        <g>
          <path class="cls-9" d="M320.41,149.93v-4.37h.52v.68h.04c.09-.22.24-.4.46-.54s.46-.2.73-.2c.04,0,.09,0,.14,0s.1,0,.13,0v.53s-.06,0-.12-.02-.12-.01-.2-.01c-.34,0-.62.1-.84.31s-.33.48-.33.8v2.8h-.53Z"/>
          <path class="cls-9" d="M327.3,150.01c-.36,0-.69-.07-.97-.2s-.51-.31-.67-.54-.25-.5-.26-.8h.56c.01.21.08.4.2.55s.28.28.48.37.42.13.66.13c.27,0,.5-.05.71-.15s.36-.23.48-.41.17-.37.17-.59c0-.35-.13-.63-.4-.85s-.62-.33-1.08-.33h-.34v-.49h.34c.37,0,.68-.1.92-.3s.36-.47.36-.8-.11-.58-.32-.78-.49-.3-.84-.3c-.22,0-.43.04-.62.13s-.34.21-.45.37-.17.34-.18.56h-.54c0-.3.09-.57.25-.8s.37-.41.64-.54.57-.2.89-.2.64.07.89.21.45.33.59.56.21.49.21.77c0,.33-.09.61-.27.85s-.42.4-.73.49v.04c.37.07.67.24.88.49s.32.57.32.93c0,.31-.08.59-.25.84s-.39.44-.67.58-.61.21-.98.21Z"/>
        </g>
      </g>
      <g>
        <rect class="cls-1" x="337" y="131.31" width="18.8" height="32.26"/>
        <g>
          <path class="cls-9" d="M341.99,149.93v-4.37h.52v.68h.04c.09-.22.24-.4.46-.54s.46-.2.73-.2c.04,0,.09,0,.14,0s.1,0,.13,0v.53s-.06,0-.12-.02-.12-.01-.2-.01c-.34,0-.62.1-.84.31s-.33.48-.33.8v2.8h-.53Z"/>
          <path class="cls-9" d="M346.95,148.68v-.45l2.59-4.13h.66v4.08h.77v.49h-.77v1.25h-.54v-1.25h-2.71ZM349.67,148.19v-3.34h-.04l-2.07,3.3v.04h2.1Z"/>
        </g>
      </g>
      <g>
        <rect class="cls-1" x="358.66" y="131.31" width="18.8" height="32.26"/>
        <g>
          <path class="cls-9" d="M363.8,149.93v-4.37h.52v.68h.04c.09-.22.24-.4.46-.54.22-.13.46-.2.73-.2.04,0,.09,0,.14,0,.05,0,.1,0,.13,0v.53s-.06,0-.12-.02c-.06,0-.12-.01-.2-.01-.34,0-.62.1-.84.31-.22.21-.33.48-.33.8v2.8h-.53Z"/>
          <path class="cls-9" d="M370.62,150.01c-.33,0-.62-.07-.88-.2-.26-.13-.46-.32-.61-.55-.15-.23-.23-.5-.24-.8h.54c.02.31.13.56.36.75s.5.29.83.29c.26,0,.49-.06.69-.18s.36-.29.47-.5.17-.46.17-.73c0-.28-.06-.53-.18-.75s-.28-.38-.49-.51c-.2-.12-.43-.18-.69-.18-.2,0-.39.03-.57.1-.18.07-.34.15-.46.26l-.55-.07.34-2.84h2.9v.5h-2.43l-.23,1.94h.03c.13-.11.29-.2.47-.27.19-.07.38-.1.6-.1.34,0,.65.08.92.25s.49.39.65.68.24.62.24,1-.08.7-.24.98c-.16.29-.38.52-.66.68s-.6.25-.96.25Z"/>
        </g>
      </g>
      <g>
        <rect class="cls-1" x="380.33" y="131.31" width="18.8" height="32.26"/>
        <g>
          <path class="cls-9" d="M385.43,149.93v-4.37h.52v.68h.04c.09-.22.24-.4.46-.54.22-.13.46-.2.73-.2.04,0,.09,0,.14,0,.05,0,.1,0,.13,0v.53s-.06,0-.12-.02c-.06,0-.12-.01-.2-.01-.34,0-.62.1-.84.31-.22.21-.33.48-.33.8v2.8h-.53Z"/>
          <path class="cls-9" d="M392.34,150.01c-.24,0-.48-.05-.71-.14s-.44-.25-.62-.46c-.18-.21-.33-.5-.44-.85-.11-.35-.16-.78-.16-1.29,0-.63.07-1.19.22-1.67s.37-.87.67-1.14c.3-.28.67-.41,1.12-.41.47,0,.86.14,1.17.43.31.29.49.66.54,1.11h-.55c-.05-.3-.18-.55-.37-.75-.2-.2-.46-.3-.79-.3-.47,0-.84.22-1.1.66-.26.44-.39,1.06-.39,1.87h.04c.14-.26.33-.47.59-.62.26-.15.55-.23.86-.23s.62.08.89.24c.27.16.48.39.64.67s.24.61.24.97-.08.67-.23.96-.37.52-.65.69c-.28.17-.6.26-.98.26ZM392.34,149.51c.25,0,.47-.06.67-.19.2-.13.35-.3.47-.51.12-.21.17-.45.17-.71s-.06-.5-.17-.71c-.11-.21-.27-.38-.47-.5-.2-.12-.42-.19-.67-.19s-.49.07-.69.2c-.21.13-.36.31-.48.53-.11.22-.16.45-.14.71.02.27.09.5.21.71s.27.37.46.49c.19.12.4.18.64.18Z"/>
        </g>
      </g>
      <g>
        <rect class="cls-1" x="402" y="131.31" width="18.8" height="32.26"/>
        <g>
          <path class="cls-9" d="M407.27,149.93v-4.37h.52v.68h.04c.09-.22.24-.4.46-.54.22-.13.46-.2.73-.2.04,0,.09,0,.14,0,.05,0,.1,0,.13,0v.53s-.06,0-.12-.02c-.06,0-.12-.01-.2-.01-.34,0-.62.1-.84.31-.22.21-.33.48-.33.8v2.8h-.53Z"/>
          <path class="cls-9" d="M412.55,149.93l2.64-5.29v-.04h-3.05v-.5h3.63v.52l-2.64,5.3h-.58Z"/>
        </g>
      </g>
      <g>
        <rect class="cls-1" x="454.34" y="131.31" width="18.8" height="32.26"/>
        <g>
          <path class="cls-9" d="M459.49,149.93v-4.37h.52v.68h.04c.09-.22.24-.4.46-.54.22-.13.46-.2.73-.2.04,0,.09,0,.14,0,.05,0,.09,0,.13,0v.53s-.06,0-.12-.02c-.06,0-.12-.01-.2-.01-.34,0-.62.1-.84.31-.22.21-.33.48-.33.8v2.8h-.53Z"/>
          <path class="cls-9" d="M465.15,147.21v2.72h-.53v-4.37h.51v.8c.14-.3.32-.52.56-.66.24-.14.51-.21.8-.21.44,0,.8.14,1.08.41.28.27.41.67.41,1.19v2.82h-.53v-2.79c0-.36-.1-.64-.3-.85-.2-.21-.47-.31-.8-.31s-.63.11-.86.33-.35.52-.35.89Z"/>
        </g>
      </g>
    </g>
    <g>
      <path class="cls-9" d="M265.16,185.44v-5.82h1.9c.41,0,.76.08,1.04.24s.49.37.63.65.21.58.21.92-.07.65-.21.92-.35.49-.63.65-.62.24-1.03.24h-1.35v2.21h-.55ZM265.71,182.73h1.32c.45,0,.79-.12,1.01-.37s.34-.56.34-.94-.11-.69-.34-.93-.56-.37-1.02-.37h-1.32v2.62Z"/>
      <path class="cls-9" d="M271.89,185.53c-.41,0-.76-.1-1.06-.29s-.53-.46-.69-.79-.24-.73-.24-1.17.08-.83.24-1.17.38-.61.67-.8.62-.29,1-.29c.32,0,.62.08.9.23s.51.39.69.71.27.73.27,1.22v.23h-3.24c.01.5.15.9.41,1.19s.61.45,1.05.45c.3,0,.55-.07.75-.21s.33-.31.41-.5l.5.16c-.1.27-.29.51-.58.72s-.65.31-1.09.31ZM270.43,182.96h2.7c-.03-.42-.16-.78-.39-1.05s-.54-.42-.93-.42c-.26,0-.49.07-.7.2s-.36.31-.48.53-.19.47-.2.74Z"/>
      <path class="cls-9" d="M274.92,185.44v-4.37h.52v.68h.04c.09-.22.24-.4.46-.54s.46-.2.73-.2c.04,0,.09,0,.14,0s.1,0,.13,0v.53s-.06,0-.12-.02-.12-.01-.2-.01c-.34,0-.62.1-.84.31s-.33.48-.33.8v2.8h-.53Z"/>
      <path class="cls-9" d="M278.22,180.26c-.11,0-.2-.04-.27-.11s-.11-.16-.11-.26.04-.19.11-.26.17-.11.27-.11.2.04.27.11.11.16.11.26-.04.19-.11.26-.17.11-.27.11ZM277.96,185.44v-4.37h.53v4.37h-.53Z"/>
      <path class="cls-9" d="M281.65,185.53c-.38,0-.71-.1-1-.29s-.52-.46-.68-.79-.25-.73-.25-1.17.08-.84.25-1.18.39-.61.68-.8.62-.29,1-.29.71.1,1,.29.52.46.68.8.25.73.25,1.18-.08.83-.25,1.17-.39.6-.68.79-.62.29-1,.29ZM281.65,185.05c.3,0,.55-.08.76-.24s.37-.38.47-.64.16-.56.16-.89-.05-.62-.16-.89-.27-.49-.48-.65-.46-.24-.76-.24-.55.08-.76.24-.37.38-.47.65-.16.57-.16.89.05.62.16.89.27.48.47.64.46.24.76.24Z"/>
      <path class="cls-9" d="M286.42,185.53c-.36,0-.67-.09-.94-.28s-.48-.45-.63-.79-.22-.74-.22-1.19.08-.84.23-1.18.36-.6.63-.79.58-.28.94-.28c.27,0,.49.05.66.14s.32.21.43.35.19.27.25.41h.04v-2.29h.53v5.82h-.51v-.82h-.06c-.06.14-.14.27-.25.41s-.25.26-.43.35-.4.14-.66.14ZM286.49,185.05c.28,0,.52-.08.72-.23s.35-.37.45-.63.15-.58.15-.92-.05-.65-.15-.92-.25-.47-.45-.62-.44-.23-.72-.23-.53.08-.72.23-.35.37-.45.63-.15.57-.15.9.05.64.15.91.25.48.45.64.44.24.72.24Z"/>
      <path class="cls-9" d="M290.09,180.26c-.11,0-.2-.04-.27-.11s-.11-.16-.11-.26.04-.19.11-.26.17-.11.27-.11.2.04.27.11.11.16.11.26-.04.19-.11.26-.17.11-.27.11ZM289.82,185.44v-4.37h.53v4.37h-.53Z"/>
      <path class="cls-9" d="M293.51,185.52c-.38,0-.71-.09-1-.29s-.52-.45-.68-.79-.25-.73-.25-1.17.08-.84.25-1.18.39-.6.68-.79.62-.29,1-.29c.29,0,.56.06.79.17s.42.25.57.42.26.34.31.52l-.5.16c-.03-.11-.1-.23-.2-.35s-.23-.23-.39-.31-.35-.13-.58-.13c-.3,0-.55.08-.76.24s-.37.38-.47.64-.16.57-.16.9.05.62.16.89.27.48.47.64.46.24.76.24c.23,0,.42-.04.59-.13s.3-.2.4-.32.17-.25.2-.36l.5.16c-.05.18-.16.36-.31.53s-.35.32-.58.43-.5.17-.79.17Z"/>
      <path class="cls-9" d="M298.09,185.44l2.13-5.82h.66l2.15,5.82h-.59l-.63-1.73h-2.52l-.62,1.73h-.59ZM299.47,183.22h2.16l-.57-1.58c-.07-.19-.15-.42-.23-.67s-.18-.55-.29-.9c-.1.35-.2.65-.28.91s-.16.48-.22.66l-.57,1.58Z"/>
      <path class="cls-9" d="M305.54,185.53c-.36,0-.67-.09-.94-.28s-.48-.45-.63-.79-.22-.74-.22-1.19.08-.84.23-1.18.36-.6.63-.79.58-.28.94-.28c.27,0,.49.05.66.14s.32.21.43.35.19.27.25.41h.04v-2.29h.53v5.82h-.51v-.82h-.06c-.06.14-.14.27-.25.41s-.25.26-.43.35-.4.14-.66.14ZM305.61,185.05c.28,0,.52-.08.72-.23s.35-.37.45-.63.15-.58.15-.92-.05-.65-.15-.92-.25-.47-.45-.62-.44-.23-.72-.23-.53.08-.72.23-.35.37-.45.63-.15.57-.15.9.05.64.15.91.25.48.45.64.44.24.72.24Z"/>
      <path class="cls-9" d="M310.2,185.44l-1.67-4.37h.58l1.01,2.75c.07.19.14.39.2.58s.12.39.18.58c.06-.19.11-.38.17-.58s.12-.39.2-.58l1.01-2.75h.57l-1.67,4.37h-.57Z"/>
      <path class="cls-9" d="M315.12,185.53c-.41,0-.76-.1-1.06-.29s-.53-.46-.69-.79-.24-.73-.24-1.17.08-.83.24-1.17.38-.61.67-.8.62-.29,1-.29c.32,0,.62.08.9.23s.51.39.69.71.27.73.27,1.22v.23h-3.24c.01.5.15.9.41,1.19s.61.45,1.05.45c.3,0,.55-.07.75-.21s.33-.31.41-.5l.5.16c-.1.27-.29.51-.58.72s-.65.31-1.09.31ZM313.65,182.96h2.7c-.03-.42-.16-.78-.39-1.05s-.54-.42-.93-.42c-.26,0-.49.07-.7.2s-.36.31-.48.53-.19.47-.2.74Z"/>
      <path class="cls-9" d="M318.14,185.44v-4.37h.52v.68h.04c.09-.22.24-.4.46-.54s.46-.2.73-.2c.04,0,.09,0,.14,0s.1,0,.13,0v.53s-.06,0-.12-.02-.12-.01-.2-.01c-.34,0-.62.1-.84.31s-.33.48-.33.8v2.8h-.53Z"/>
      <path class="cls-9" d="M322.94,181.07v.46h-.9v2.88c0,.44.2.64.59.6.04,0,.08,0,.13-.01s.1-.02.15-.03l.11.46c-.11.04-.24.06-.4.06-.35.02-.62-.06-.82-.25s-.3-.45-.3-.79v-2.91h-.65v-.46h.65v-1.04h.53v1.04h.9Z"/>
      <path class="cls-9" d="M324.3,180.26c-.11,0-.2-.04-.27-.11s-.11-.16-.11-.26.04-.19.11-.26.17-.11.27-.11.2.04.27.11.11.16.11.26-.04.19-.11.26-.17.11-.27.11ZM324.03,185.44v-4.37h.53v4.37h-.53Z"/>
      <path class="cls-9" d="M327.39,185.53c-.43,0-.78-.1-1.06-.29s-.46-.47-.54-.84l.51-.12c.06.26.19.46.37.59s.42.19.71.19c.33,0,.6-.07.79-.22s.3-.33.3-.55c0-.35-.24-.59-.71-.7l-.71-.17c-.75-.18-1.12-.57-1.12-1.16,0-.25.07-.46.2-.64s.31-.33.54-.43.49-.16.79-.16c.41,0,.74.09.98.28s.41.44.51.75l-.48.12c-.07-.2-.18-.37-.34-.5s-.38-.2-.67-.2-.53.07-.71.21-.28.32-.28.53c0,.36.26.6.78.73l.67.16c.74.18,1.11.56,1.11,1.15,0,.25-.07.47-.21.66s-.33.34-.58.45-.53.16-.85.16Z"/>
      <path class="cls-9" d="M330.52,180.26c-.11,0-.2-.04-.27-.11s-.11-.16-.11-.26.04-.19.11-.26.17-.11.27-.11.2.04.27.11.11.16.11.26-.04.19-.11.26-.17.11-.27.11ZM330.25,185.44v-4.37h.53v4.37h-.53Z"/>
      <path class="cls-9" d="M332.79,182.72v2.72h-.53v-4.37h.51v.8c.14-.3.32-.52.56-.66s.51-.21.8-.21c.44,0,.8.14,1.08.41s.41.67.41,1.19v2.82h-.53v-2.79c0-.36-.1-.64-.3-.85s-.47-.31-.8-.31-.63.11-.86.33-.35.52-.35.89Z"/>
      <path class="cls-9" d="M338.78,187.16c-.45,0-.81-.08-1.1-.25s-.49-.38-.62-.64l.44-.27c.09.17.24.33.43.47s.48.21.84.21c.39,0,.7-.1.93-.29s.35-.49.35-.89v-.98h-.05c-.06.14-.14.27-.25.4s-.25.24-.43.32-.4.13-.66.13c-.35,0-.65-.08-.92-.26s-.48-.42-.63-.74-.23-.7-.23-1.15.08-.83.23-1.17.36-.6.63-.78.58-.28.94-.28c.27,0,.49.05.66.14s.32.21.43.35.19.27.25.41h.05v-.84h.52v4.47c0,.37-.08.67-.24.91s-.37.42-.64.53-.58.17-.93.17ZM338.75,184.91c.42,0,.74-.15.97-.45s.35-.71.35-1.23c0-.34-.05-.64-.15-.9s-.25-.47-.45-.62-.44-.22-.72-.22-.53.08-.73.23-.35.36-.45.63-.15.56-.15.88c0,.5.12.9.35,1.21s.56.47.99.47Z"/>
      <path class="cls-9" d="M344.28,185.44v-5.82h1.9c.62,0,1.08.16,1.4.49s.48.75.48,1.26c0,.39-.09.72-.28,1.01s-.46.48-.82.6l1.34,2.46h-.64l-1.26-2.35c-.07,0-.14,0-.21,0h-1.35v2.34h-.55ZM344.83,182.6h1.32c.45,0,.79-.11,1.01-.33s.34-.52.34-.89-.11-.68-.34-.91-.56-.34-1.02-.34h-1.32v2.48Z"/>
      <path class="cls-9" d="M351.13,185.53c-.41,0-.76-.1-1.06-.29s-.53-.46-.69-.79-.24-.73-.24-1.17.08-.83.24-1.17.38-.61.67-.8.62-.29,1-.29c.32,0,.62.08.9.23s.51.39.69.71.27.73.27,1.22v.23h-3.24c.01.5.15.9.41,1.19s.61.45,1.05.45c.3,0,.55-.07.75-.21s.33-.31.41-.5l.5.16c-.1.27-.29.51-.58.72s-.65.31-1.09.31ZM349.67,182.96h2.7c-.03-.42-.16-.78-.39-1.05s-.54-.42-.93-.42c-.26,0-.49.07-.7.2s-.36.31-.48.53-.19.47-.2.74Z"/>
      <path class="cls-9" d="M355.49,185.53c-.43,0-.78-.1-1.06-.29s-.46-.47-.54-.84l.51-.12c.06.26.19.46.37.59s.42.19.71.19c.33,0,.6-.07.79-.22s.3-.33.3-.55c0-.35-.24-.59-.71-.7l-.71-.17c-.75-.18-1.12-.57-1.12-1.16,0-.25.07-.46.2-.64s.31-.33.54-.43.49-.16.79-.16c.41,0,.74.09.98.28.24.19.41.44.51.75l-.48.12c-.07-.2-.18-.37-.34-.5-.16-.13-.38-.2-.67-.2s-.53.07-.71.21c-.19.14-.28.32-.28.53,0,.36.26.6.78.73l.67.16c.74.18,1.11.56,1.11,1.15,0,.25-.07.47-.21.66-.14.19-.33.34-.58.45s-.53.16-.85.16Z"/>
      <path class="cls-9" d="M358.37,187.07v-6h.52v.84h.06c.06-.13.14-.27.25-.41.11-.14.25-.25.43-.35.18-.09.4-.14.67-.14.35,0,.67.09.94.28s.48.45.63.79c.15.34.23.73.23,1.18s-.07.85-.22,1.19c-.15.34-.36.6-.63.79s-.58.28-.94.28c-.26,0-.48-.05-.66-.14-.18-.09-.32-.21-.43-.35s-.19-.28-.25-.41h-.04v2.45h-.53ZM360.21,185.05c.28,0,.53-.08.72-.24.2-.16.35-.37.45-.64.1-.27.15-.57.15-.91s-.05-.63-.15-.9-.25-.48-.45-.63c-.2-.16-.44-.23-.73-.23s-.52.08-.72.23c-.2.15-.35.36-.45.62-.1.27-.15.57-.15.92s.05.65.16.92c.1.27.25.48.45.63.2.15.43.23.71.23Z"/>
      <path class="cls-9" d="M365.06,185.53c-.38,0-.71-.1-1-.29s-.52-.46-.68-.79-.25-.73-.25-1.17.08-.84.25-1.18.39-.61.68-.8.62-.29,1-.29.71.1,1,.29c.29.19.52.46.68.8s.25.73.25,1.18-.08.83-.25,1.17-.39.6-.68.79c-.29.19-.62.29-1,.29ZM365.06,185.05c.3,0,.55-.08.76-.24s.37-.38.47-.64.16-.56.16-.89-.05-.62-.16-.89-.27-.49-.48-.65c-.21-.16-.46-.24-.76-.24s-.55.08-.76.24-.37.38-.47.65-.16.57-.16.89.05.62.16.89c.11.27.27.48.47.64.21.16.46.24.76.24Z"/>
      <path class="cls-9" d="M368.78,182.72v2.72h-.53v-4.37h.51v.8c.14-.3.32-.52.56-.66.24-.14.51-.21.8-.21.44,0,.8.14,1.08.41.28.27.41.67.41,1.19v2.82h-.53v-2.79c0-.36-.1-.64-.3-.85-.2-.21-.47-.31-.8-.31s-.63.11-.86.33-.35.52-.35.89Z"/>
      <path class="cls-9" d="M374.44,185.53c-.43,0-.79-.1-1.06-.29-.28-.19-.46-.47-.54-.84l.51-.12c.06.26.19.46.37.59.19.13.42.19.71.19.33,0,.6-.07.79-.22s.3-.33.3-.55c0-.35-.24-.59-.71-.7l-.71-.17c-.75-.18-1.12-.57-1.12-1.16,0-.25.07-.46.2-.64.13-.18.31-.33.54-.43s.49-.16.79-.16c.41,0,.74.09.98.28.24.19.41.44.51.75l-.48.12c-.07-.2-.18-.37-.34-.5-.16-.13-.38-.2-.67-.2s-.53.07-.71.21-.28.32-.28.53c0,.36.26.6.78.73l.67.16c.74.18,1.11.56,1.11,1.15,0,.25-.07.47-.21.66-.14.19-.33.34-.58.45s-.53.16-.85.16Z"/>
      <path class="cls-9" d="M379.07,185.53c-.41,0-.76-.1-1.06-.29-.3-.19-.53-.46-.69-.79-.16-.34-.24-.73-.24-1.17s.08-.83.24-1.17.38-.61.67-.8c.29-.2.62-.29,1-.29.32,0,.62.08.9.23.28.16.51.39.69.71.18.32.27.73.27,1.22v.23h-3.24c0,.5.15.9.41,1.19.26.3.61.45,1.05.45.3,0,.55-.07.75-.21s.33-.31.41-.5l.5.16c-.1.27-.29.51-.58.72-.29.21-.65.31-1.09.31ZM377.61,182.96h2.7c-.03-.42-.16-.78-.39-1.05-.23-.28-.54-.42-.93-.42-.26,0-.5.07-.7.2-.2.13-.36.31-.48.53-.12.22-.19.47-.2.74Z"/>
      <path class="cls-9" d="M386.03,185.54c-.6,0-1.07-.14-1.43-.43-.36-.29-.55-.67-.58-1.14h.57c.03.35.18.61.46.79.27.18.6.27.99.27.29,0,.54-.05.77-.14s.4-.23.53-.4c.13-.17.19-.37.19-.61,0-.29-.11-.51-.33-.67-.22-.15-.51-.29-.88-.39l-.69-.2c-.46-.14-.82-.33-1.07-.57s-.38-.55-.38-.92c0-.32.08-.59.25-.83s.4-.43.69-.56.61-.2.97-.2.69.07.97.2c.28.14.5.32.66.55.16.23.25.5.26.79h-.54c-.03-.32-.18-.58-.43-.77s-.57-.28-.95-.28c-.4,0-.72.1-.97.3-.25.2-.38.46-.38.77,0,.2.06.37.17.5s.26.24.43.33.36.16.54.21l.61.18c.25.07.5.17.74.29.24.12.45.29.61.49s.24.46.24.79-.08.6-.24.84c-.16.25-.39.44-.7.59-.3.14-.67.22-1.09.22Z"/>
      <path class="cls-9" d="M389.92,179.62v5.82h-.53v-5.82h.53Z"/>
      <path class="cls-9" d="M393.12,185.53c-.38,0-.71-.1-1-.29s-.52-.46-.68-.79-.25-.73-.25-1.17.08-.84.25-1.18.39-.61.68-.8.62-.29,1-.29.71.1,1,.29.52.46.68.8.25.73.25,1.18-.08.83-.25,1.17-.39.6-.68.79-.62.29-1,.29ZM393.12,185.05c.3,0,.55-.08.76-.24s.37-.38.47-.64.16-.56.16-.89-.05-.62-.16-.89-.27-.49-.48-.65-.46-.24-.76-.24-.55.08-.76.24-.37.38-.47.65-.16.57-.16.89.05.62.16.89.27.48.47.64.46.24.76.24Z"/>
      <path class="cls-9" d="M397.76,181.07v.46h-.9v2.88c0,.44.2.64.59.6.04,0,.08,0,.13-.01s.1-.02.15-.03l.11.46c-.11.04-.25.06-.4.06-.35.02-.62-.06-.82-.25s-.3-.45-.3-.79v-2.91h-.65v-.46h.65v-1.04h.53v1.04h.9Z"/>
      <path class="cls-9" d="M402.77,185.54c-.6,0-1.07-.14-1.43-.43s-.55-.67-.58-1.14h.57c.03.35.18.61.46.79s.6.27.99.27c.29,0,.54-.05.77-.14s.4-.23.53-.4.19-.37.19-.61c0-.29-.11-.51-.33-.67s-.51-.29-.88-.39l-.69-.2c-.46-.14-.82-.33-1.07-.57s-.38-.55-.38-.92c0-.32.08-.59.25-.83s.4-.43.69-.56.61-.2.97-.2.69.07.97.2.5.32.66.55.25.5.26.79h-.54c-.03-.32-.18-.58-.43-.77s-.57-.28-.95-.28c-.4,0-.72.1-.97.3s-.38.46-.38.77c0,.2.06.37.17.5s.26.24.43.33.36.16.54.21l.61.18c.25.07.5.17.74.29s.45.29.61.49.24.46.24.79-.08.6-.24.84-.39.44-.7.59-.67.22-1.09.22Z"/>
      <path class="cls-9" d="M406.11,187.07v-6h.52v.84h.06c.06-.13.14-.27.25-.41s.25-.25.43-.35.4-.14.67-.14c.35,0,.67.09.94.28s.48.45.63.79.23.73.23,1.18-.08.85-.22,1.19-.36.6-.63.79-.58.28-.94.28c-.26,0-.48-.05-.66-.14s-.32-.21-.43-.35-.19-.28-.25-.41h-.04v2.45h-.53ZM407.96,185.05c.28,0,.52-.08.72-.24s.35-.37.45-.64.15-.57.15-.91-.05-.63-.15-.9-.25-.48-.45-.63-.44-.23-.73-.23-.52.08-.72.23-.35.36-.45.62-.15.57-.15.92.05.65.16.92.25.48.45.63.43.23.71.23Z"/>
      <path class="cls-9" d="M412.24,185.54c-.27,0-.51-.05-.72-.15s-.39-.25-.52-.45-.19-.43-.19-.72.07-.51.21-.69.34-.3.59-.39.54-.15.87-.19c.36-.04.64-.08.84-.12s.3-.14.3-.3v-.1c0-.29-.09-.52-.27-.69s-.43-.25-.76-.25-.57.07-.76.21-.33.3-.4.48l-.51-.17c.1-.24.23-.43.41-.57s.37-.25.59-.31.44-.1.67-.1c.17,0,.35.02.53.07s.35.12.51.23.28.26.38.45.14.43.14.72v2.96h-.52v-.69h-.04c-.1.2-.26.38-.48.54s-.51.24-.87.24ZM412.31,185.06c.27,0,.5-.06.69-.18s.35-.28.45-.47.16-.41.16-.65v-.62s-.14.09-.28.12-.29.06-.45.09-.3.04-.41.06c-.37.04-.65.13-.85.26s-.3.32-.3.58.09.46.28.61.42.22.7.22Z"/>
      <path class="cls-9" d="M417.32,185.52c-.38,0-.71-.09-1-.29s-.52-.45-.68-.79-.25-.73-.25-1.17.08-.84.25-1.18.39-.6.68-.79.62-.29,1-.29c.29,0,.56.06.79.17s.42.25.57.42.25.34.31.52l-.5.16c-.03-.11-.1-.23-.2-.35s-.23-.23-.39-.31-.35-.13-.58-.13c-.3,0-.55.08-.76.24s-.37.38-.47.64-.16.57-.16.9.05.62.16.89.27.48.47.64.46.24.76.24c.23,0,.42-.04.59-.13s.3-.2.4-.32.17-.25.2-.36l.5.16c-.05.18-.16.36-.31.53s-.34.32-.58.43-.5.17-.79.17Z"/>
      <path class="cls-9" d="M420.44,180.26c-.11,0-.2-.04-.27-.11s-.11-.16-.11-.26.04-.19.11-.26.17-.11.27-.11.2.04.27.11.11.16.11.26-.04.19-.11.26-.17.11-.27.11ZM420.17,185.44v-4.37h.53v4.37h-.53Z"/>
      <path class="cls-9" d="M422.72,182.72v2.72h-.53v-4.37h.51v.8c.14-.3.32-.52.56-.66s.51-.21.8-.21c.44,0,.8.14,1.08.41s.41.67.41,1.19v2.82h-.53v-2.79c0-.36-.1-.64-.3-.85s-.47-.31-.8-.31-.63.11-.86.33-.35.52-.35.89Z"/>
      <path class="cls-9" d="M428.7,187.16c-.45,0-.81-.08-1.1-.25s-.49-.38-.62-.64l.44-.27c.09.17.24.33.43.47s.48.21.84.21c.39,0,.7-.1.93-.29s.35-.49.35-.89v-.98h-.05c-.06.14-.14.27-.25.4s-.25.24-.43.32-.4.13-.66.13c-.35,0-.65-.08-.92-.26s-.48-.42-.63-.74-.23-.7-.23-1.15.08-.83.23-1.17.36-.6.63-.78.58-.28.94-.28c.27,0,.49.05.66.14s.32.21.43.35.19.27.25.41h.05v-.84h.52v4.47c0,.37-.08.67-.24.91s-.37.42-.64.53-.58.17-.93.17ZM428.67,184.91c.42,0,.74-.15.97-.45s.35-.71.35-1.23c0-.34-.05-.64-.15-.9s-.25-.47-.45-.62-.43-.22-.72-.22-.53.08-.73.23-.35.36-.45.63-.15.56-.15.88c0,.5.12.9.35,1.21s.56.47.99.47Z"/>
    </g>
    <polyline class="cls-2" points="481.43 134.52 481.43 121.7 242.03 121.7 242.03 134.52"/>
    <g>
      <path class="cls-9" d="M263.53,111.95l2.13-5.82h.66l2.15,5.82h-.59l-.63-1.73h-2.52l-.62,1.73h-.59ZM264.91,109.73h2.16l-.57-1.58c-.07-.19-.15-.42-.23-.67s-.18-.55-.29-.9c-.1.35-.2.65-.28.91s-.16.48-.22.66l-.57,1.58Z"/>
      <path class="cls-9" d="M271.59,112.04c-.44,0-.82-.09-1.16-.27s-.59-.42-.78-.73-.28-.67-.28-1.06v-3.84h.55v3.8c0,.3.07.58.21.82s.33.43.58.57.54.21.87.21.62-.07.87-.21.44-.33.58-.57.21-.51.21-.82v-3.8h.55v3.84c0,.4-.09.75-.28,1.06s-.45.56-.78.73-.72.27-1.15.27Z"/>
      <path class="cls-9" d="M274.91,111.95l2.09-2.97-1.99-2.85h.65l.99,1.43c.15.22.27.4.37.55s.2.32.3.51c.1-.19.2-.36.3-.51s.22-.33.37-.55l1.01-1.43h.63l-1.99,2.83,2.08,2.99h-.64l-1.14-1.63c-.14-.19-.25-.36-.34-.5s-.19-.3-.29-.48c-.1.17-.19.33-.29.48s-.21.31-.34.5l-1.15,1.63h-.64Z"/>
      <path class="cls-9" d="M284.13,111.95v.49h-3.58v-.49h3.58Z"/>
      <path class="cls-9" d="M287.1,112.05c-.6,0-1.07-.14-1.43-.43s-.55-.67-.58-1.14h.57c.03.35.18.61.46.79s.6.27.99.27c.29,0,.54-.05.77-.14s.4-.23.53-.4.19-.37.19-.61c0-.29-.11-.51-.33-.67s-.51-.29-.88-.39l-.69-.2c-.46-.14-.82-.33-1.07-.57s-.38-.55-.38-.92c0-.32.08-.59.25-.83s.4-.43.69-.56.61-.2.97-.2.69.07.97.2.5.32.66.55.25.5.26.79h-.54c-.03-.32-.18-.58-.43-.77s-.56-.28-.95-.28-.72.1-.97.3-.38.46-.38.77c0,.2.06.37.17.5s.26.24.43.33.36.16.54.21l.61.18c.25.07.5.17.74.29s.45.29.61.49.24.46.24.79-.08.6-.24.84-.39.44-.7.59-.67.22-1.09.22Z"/>
      <path class="cls-9" d="M292.01,111.95v-2.51l-2.16-3.31h.64l1.24,1.9c.1.16.2.32.29.47s.18.32.27.51c.09-.19.18-.36.27-.51s.19-.31.29-.46l1.23-1.9h.64l-2.16,3.31v2.51h-.55Z"/>
      <path class="cls-9" d="M295.9,111.95v-5.82h.64l2.65,3.95c.1.15.21.32.34.53s.26.43.39.68c-.02-.25-.03-.5-.03-.72s0-.42,0-.59v-3.85h.55v5.82h-.64l-2.48-3.68c-.14-.2-.27-.41-.4-.63s-.3-.5-.5-.83c.01.31.02.59.03.85s.01.46.01.61v3.68h-.56Z"/>
      <path class="cls-9" d="M304.41,112.03c-.49,0-.92-.12-1.3-.37s-.68-.59-.89-1.04-.32-.97-.32-1.58.11-1.14.32-1.59.51-.79.89-1.04.81-.37,1.3-.37c.41,0,.78.08,1.11.25s.59.4.8.68.34.61.4.97h-.55c-.05-.27-.16-.5-.32-.71s-.36-.37-.61-.49-.52-.18-.82-.18c-.36,0-.7.09-1,.29s-.54.47-.72.84-.27.82-.27,1.35.09.98.27,1.35.42.64.72.83.63.28,1,.28c.3,0,.58-.06.82-.18s.45-.29.61-.5.27-.45.32-.71h.55c-.06.35-.19.67-.4.96s-.47.52-.8.69-.69.26-1.11.26Z"/>
      <path class="cls-9" d="M311.13,111.95v.49h-3.58v-.49h3.58Z"/>
      <path class="cls-9" d="M314.1,112.05c-.6,0-1.07-.14-1.43-.43s-.55-.67-.58-1.14h.57c.03.35.18.61.46.79s.6.27.99.27c.29,0,.54-.05.77-.14s.4-.23.53-.4.19-.37.19-.61c0-.29-.11-.51-.33-.67s-.51-.29-.88-.39l-.69-.2c-.46-.14-.82-.33-1.07-.57s-.38-.55-.38-.92c0-.32.08-.59.25-.83s.4-.43.69-.56.61-.2.97-.2.69.07.97.2.5.32.66.55.25.5.26.79h-.54c-.03-.32-.18-.58-.43-.77s-.56-.28-.95-.28-.72.1-.97.3-.38.46-.38.77c0,.2.06.37.17.5s.26.24.43.33.36.16.54.21l.61.18c.25.07.5.17.74.29s.45.29.61.49.24.46.24.79-.08.6-.24.84-.39.44-.7.59-.67.22-1.09.22Z"/>
      <path class="cls-9" d="M319.72,112.04c-.44,0-.82-.09-1.16-.27s-.59-.42-.78-.73-.28-.67-.28-1.06v-3.84h.55v3.8c0,.3.07.58.21.82s.33.43.58.57.54.21.87.21.62-.07.87-.21.44-.33.58-.57.21-.51.21-.82v-3.8h.55v3.84c0,.4-.09.75-.28,1.06s-.45.56-.78.73-.72.27-1.15.27Z"/>
      <path class="cls-9" d="M323.61,111.95v-5.82h1.98c.57,0,.99.14,1.28.43s.43.65.43,1.09c0,.36-.09.65-.27.86s-.4.35-.66.41v.05c.19.01.37.08.54.2s.32.28.44.5.17.46.17.76c0,.44-.15.81-.45,1.1s-.76.43-1.38.43h-2.09ZM324.16,108.76h1.46c.34,0,.62-.1.82-.31s.31-.47.31-.79-.1-.55-.3-.75-.5-.29-.89-.29h-1.41v2.13ZM324.16,111.45h1.52c.44,0,.77-.1.98-.29s.32-.44.32-.74c0-.22-.05-.42-.16-.6s-.26-.32-.45-.43-.42-.16-.67-.16h-1.55v2.22Z"/>
      <path class="cls-9" d="M328.97,111.95v-5.82h3.4v.5h-2.84v2.15h2.66v.5h-2.66v2.18h2.9v.5h-3.45Z"/>
      <path class="cls-9" d="M335.6,111.95l-2.15-5.82h.58l1.38,3.8c.07.18.14.41.23.66s.18.56.29.9c.11-.35.2-.65.29-.9s.16-.47.22-.66l1.36-3.8h.59l-2.14,5.82h-.65Z"/>
      <path class="cls-9" d="M339.55,111.95v-5.82h3.4v.5h-2.84v2.15h2.66v.5h-2.66v2.18h2.9v.5h-3.45Z"/>
      <path class="cls-9" d="M344.34,111.95v-5.82h.64l2.65,3.95c.1.15.21.32.34.53s.26.43.39.68c-.02-.25-.03-.5-.03-.72s0-.42,0-.59v-3.85h.55v5.82h-.64l-2.48-3.68c-.14-.2-.27-.41-.4-.63s-.3-.5-.5-.83c.01.31.02.59.03.85s.01.46.01.61v3.68h-.56Z"/>
      <path class="cls-9" d="M350.15,106.62v-.5h4.24v.5h-1.84v5.32h-.55v-5.32h-1.85Z"/>
      <path class="cls-9" d="M358.2,111.95v.49h-3.58v-.49h3.58Z"/>
      <path class="cls-9" d="M359.45,111.95v-5.82h1.9c.62,0,1.08.16,1.4.49.32.33.48.75.48,1.26,0,.39-.09.72-.28,1.01-.18.28-.46.48-.82.6l1.34,2.46h-.64l-1.26-2.35c-.07,0-.14,0-.21,0h-1.35v2.34h-.55ZM360,109.11h1.32c.45,0,.79-.11,1.01-.33.22-.22.34-.52.34-.89s-.11-.68-.34-.91c-.22-.23-.56-.34-1.02-.34h-1.32v2.48Z"/>
      <path class="cls-9" d="M366.39,112.05c-.6,0-1.07-.14-1.43-.43-.36-.29-.55-.67-.58-1.14h.57c.03.35.18.61.46.79.28.18.61.27.99.27.29,0,.54-.05.77-.14s.4-.23.53-.4c.13-.17.19-.37.19-.61,0-.29-.11-.51-.33-.67-.22-.15-.51-.29-.88-.39l-.69-.2c-.46-.14-.82-.33-1.07-.57s-.38-.55-.38-.92c0-.32.08-.59.25-.83s.4-.43.69-.56.61-.2.97-.2.69.07.97.2c.28.14.5.32.66.55.16.23.25.5.26.79h-.54c-.03-.32-.18-.58-.43-.77s-.56-.28-.95-.28-.72.1-.97.3c-.25.2-.38.46-.38.77,0,.2.06.37.17.5s.26.24.43.33.36.16.54.21l.61.18c.25.07.5.17.74.29.24.12.45.29.61.49s.24.46.24.79-.08.6-.24.84c-.16.25-.39.44-.7.59-.3.14-.67.22-1.09.22Z"/>
      <path class="cls-9" d="M369.85,111.95v-5.82h1.9c.41,0,.76.08,1.04.24.28.16.49.37.63.65.14.27.21.58.21.92s-.07.65-.21.92c-.14.27-.35.49-.63.65-.28.16-.62.24-1.03.24h-1.35v2.21h-.55ZM370.41,109.24h1.32c.45,0,.79-.12,1.01-.37.22-.25.34-.56.34-.94s-.11-.69-.34-.93c-.22-.25-.56-.37-1.02-.37h-1.32v2.62Z"/>
      <path class="cls-9" d="M377.12,111.95v-5.82h1.9c.41,0,.76.08,1.04.24.28.16.49.37.63.65.14.27.21.58.21.92s-.07.65-.21.92c-.14.27-.35.49-.63.65-.28.16-.62.24-1.03.24h-1.35v2.21h-.55ZM377.68,109.24h1.32c.45,0,.79-.12,1.01-.37.22-.25.34-.56.34-.94s-.11-.69-.34-.93c-.22-.25-.56-.37-1.02-.37h-1.32v2.62Z"/>
      <path class="cls-9" d="M383.92,111.95h-1.72v-5.82h1.82c.55,0,1.03.12,1.43.35.4.23.7.56.91,1s.32.95.32,1.55c0,.92-.24,1.63-.72,2.15-.48.52-1.16.78-2.04.78ZM382.76,111.45h1.13c.74,0,1.3-.21,1.68-.64.38-.43.57-1.02.57-1.79s-.18-1.33-.55-1.76c-.37-.43-.9-.64-1.6-.64h-1.23v4.83Z"/>
      <path class="cls-9" d="M390.3,112.04c-.44,0-.82-.09-1.16-.27-.33-.18-.59-.42-.78-.73-.19-.31-.28-.67-.28-1.06v-3.84h.55v3.8c0,.3.07.58.21.82.14.24.33.43.58.57.25.14.54.21.87.21s.62-.07.87-.21c.25-.14.44-.33.58-.57s.21-.51.21-.82v-3.8h.55v3.84c0,.4-.09.75-.28,1.06-.19.31-.45.56-.78.73s-.72.27-1.15.27Z"/>
      <path class="cls-9" d="M395.37,112.04c-.43,0-.78-.1-1.06-.29-.28-.19-.46-.47-.54-.84l.51-.12c.06.26.19.46.37.59.19.13.42.19.71.19.33,0,.6-.07.79-.22s.3-.33.3-.55c0-.35-.24-.59-.71-.7l-.71-.17c-.75-.18-1.12-.57-1.12-1.16,0-.25.07-.46.2-.64.13-.18.31-.33.54-.43s.49-.16.79-.16c.41,0,.74.09.98.28.24.19.41.44.51.75l-.48.12c-.07-.2-.18-.37-.34-.5-.16-.13-.38-.2-.67-.2s-.53.07-.71.21-.28.32-.28.53c0,.36.26.6.78.73l.67.16c.74.18,1.11.56,1.11,1.15,0,.25-.07.47-.21.66-.14.19-.33.34-.58.45s-.53.16-.85.16Z"/>
      <path class="cls-9" d="M402.17,107.58v.46h-1.03v3.91h-.53v-3.91h-.86v-.46h.86v-.62c0-.24.05-.44.16-.6.11-.16.25-.29.42-.37.17-.08.36-.13.56-.13.14,0,.25.01.35.03.1.02.17.04.22.07l-.15.46s-.09-.03-.15-.04-.13-.02-.22-.02c-.22,0-.38.06-.5.18-.11.12-.17.3-.17.52v.52h1.03Z"/>
      <path class="cls-9" d="M404.82,112.04c-.38,0-.71-.1-1-.29s-.52-.46-.68-.79-.25-.73-.25-1.17.08-.84.25-1.18.39-.61.68-.8.62-.29,1-.29.71.1,1,.29.52.46.68.8.25.73.25,1.18-.08.83-.25,1.17-.39.6-.68.79-.62.29-1,.29ZM404.82,111.56c.3,0,.55-.08.76-.24s.37-.38.47-.64.16-.56.16-.89-.05-.62-.16-.89-.27-.49-.48-.65-.46-.24-.76-.24-.55.08-.76.24-.37.38-.47.65-.16.57-.16.89.05.62.16.89.27.48.47.64.46.24.76.24Z"/>
      <path class="cls-9" d="M408.01,111.95v-4.37h.52v.68h.04c.09-.22.24-.4.46-.54s.46-.2.73-.2c.04,0,.09,0,.14,0s.09,0,.13,0v.53s-.06,0-.12-.02-.12-.01-.2-.01c-.34,0-.62.1-.84.31s-.33.48-.33.8v2.8h-.53Z"/>
      <path class="cls-9" d="M414.53,112.04c-.43,0-.78-.1-1.06-.29s-.46-.47-.54-.84l.51-.12c.06.26.19.46.37.59s.42.19.71.19c.33,0,.6-.07.79-.22s.3-.33.3-.55c0-.35-.24-.59-.71-.7l-.71-.17c-.75-.18-1.12-.57-1.12-1.16,0-.25.07-.46.2-.64s.31-.33.54-.43.49-.16.79-.16c.41,0,.74.09.98.28s.41.44.51.75l-.48.12c-.07-.2-.18-.37-.34-.5s-.38-.2-.67-.2-.53.07-.71.21-.28.32-.28.53c0,.36.26.6.78.73l.67.16c.74.18,1.11.56,1.11,1.15,0,.25-.07.47-.21.66s-.33.34-.58.45-.53.16-.85.16Z"/>
      <path class="cls-9" d="M418.86,112.01c-.44,0-.8-.14-1.08-.41s-.42-.67-.42-1.19v-2.82h.53v2.79c0,.36.1.64.3.85s.47.31.8.31.63-.11.86-.33.35-.52.35-.89v-2.72h.53v4.37h-.52v-.81c-.14.31-.32.53-.56.66s-.51.2-.8.2Z"/>
      <path class="cls-9" d="M424.13,112.04c-.26,0-.48-.05-.66-.14s-.32-.21-.43-.35-.19-.28-.25-.41h-.06v.82h-.52v-5.82h.53v2.29h.04c.06-.13.14-.27.25-.41s.25-.25.43-.35.4-.14.67-.14c.35,0,.67.09.94.28s.48.45.63.79.23.73.23,1.18-.08.85-.22,1.19-.36.6-.63.79-.58.28-.94.28ZM424.06,111.56c.28,0,.52-.08.72-.24s.35-.37.45-.64.15-.57.15-.91-.05-.63-.15-.9-.25-.48-.45-.63-.44-.23-.73-.23-.52.08-.72.23-.35.36-.45.62-.15.57-.15.92.05.65.16.92.25.48.45.63.43.23.71.23Z"/>
      <path class="cls-9" d="M428.98,112.04c-.41,0-.76-.1-1.06-.29s-.53-.46-.69-.79-.24-.73-.24-1.17.08-.83.24-1.17.38-.61.67-.8.62-.29,1-.29c.32,0,.62.08.9.23s.51.39.69.71.27.73.27,1.22v.23h-3.24c.01.5.15.9.41,1.19s.61.45,1.05.45c.3,0,.55-.07.75-.21s.33-.31.41-.5l.5.16c-.1.27-.29.51-.58.72s-.65.31-1.09.31ZM427.52,109.47h2.7c-.03-.42-.16-.78-.39-1.05s-.54-.42-.93-.42c-.26,0-.5.07-.7.2s-.36.31-.48.53-.19.47-.2.74Z"/>
      <path class="cls-9" d="M433.11,111.95l-1.67-4.37h.58l1.01,2.75c.07.19.14.39.2.58s.12.39.18.58c.06-.19.11-.38.17-.58s.12-.39.2-.58l1.01-2.75h.57l-1.67,4.37h-.57Z"/>
      <path class="cls-9" d="M438.03,112.04c-.41,0-.76-.1-1.06-.29s-.53-.46-.69-.79-.24-.73-.24-1.17.08-.83.24-1.17.38-.61.67-.8.62-.29,1-.29c.32,0,.62.08.9.23s.51.39.69.71.27.73.27,1.22v.23h-3.24c.01.5.15.9.41,1.19s.61.45,1.05.45c.3,0,.55-.07.75-.21s.33-.31.41-.5l.5.16c-.1.27-.29.51-.58.72s-.65.31-1.09.31ZM436.57,109.47h2.7c-.03-.42-.16-.78-.39-1.05s-.54-.42-.93-.42c-.26,0-.5.07-.7.2s-.36.31-.48.53-.19.47-.2.74Z"/>
      <path class="cls-9" d="M441.59,109.23v2.72h-.53v-4.37h.51v.8c.14-.3.32-.52.56-.66s.51-.21.8-.21c.44,0,.8.14,1.08.41s.41.67.41,1.19v2.82h-.53v-2.79c0-.36-.1-.64-.3-.85s-.47-.31-.8-.31-.63.11-.86.33-.35.52-.35.89Z"/>
      <path class="cls-9" d="M447.37,107.58v.46h-.9v2.88c0,.44.2.64.59.6.04,0,.08,0,.13-.01s.1-.02.15-.03l.11.46c-.11.04-.25.06-.4.06-.35.02-.62-.06-.82-.25s-.3-.45-.3-.79v-2.91h-.65v-.46h.65v-1.04h.53v1.04h.9Z"/>
      <path class="cls-9" d="M452.71,111.95l.28-1.67h-1.59l-.27,1.67h-.45l.27-1.67h-.93l.08-.45h.93l.25-1.57h-.92l.08-.45h.92l.28-1.68h.45l-.28,1.68h1.59l.28-1.68h.45l-.28,1.68h.93l-.07.45h-.93l-.25,1.57h.92l-.07.45h-.92l-.27,1.67h-.46ZM451.47,109.82h1.59l.26-1.57h-1.59l-.25,1.57Z"/>
      <path class="cls-9" d="M457.69,112.03c-.62,0-1.1-.26-1.45-.79s-.52-1.26-.52-2.2.17-1.67.52-2.2.83-.79,1.44-.79,1.09.26,1.44.79.52,1.26.52,2.2-.17,1.67-.52,2.2-.82.79-1.44.79ZM457.69,111.53c.45,0,.8-.22,1.05-.66s.38-1.05.38-1.83-.12-1.4-.38-1.84-.6-.66-1.05-.66-.8.22-1.05.66-.38,1.06-.38,1.84.12,1.4.38,1.83.6.66,1.05.66Z"/>
    </g>
    <line class="cls-2" x1="361.73" y1="121.7" x2="361.73" y2="116.78"/>
    <g>
      <line class="cls-6" x1="358.66" y1="174.77" x2="358.66" y2="163.75"/>
      <line class="cls-6" x1="336.91" y1="174.77" x2="336.91" y2="163.75"/>
    </g>
  </g>
  <g>
    <line class="cls-2" x1="242.03" y1="185.44" x2="242.03" y2="140.65"/>
    <line class="cls-2" x1="142.03" y1="185.44" x2="142.03" y2="140.65"/>
    <g>
      <path class="cls-9" d="M153.24,160.53v-5.82h1.9c.41,0,.76.08,1.04.24s.49.37.63.65.21.58.21.92-.07.65-.21.92-.35.49-.63.65-.62.24-1.03.24h-1.35v2.21h-.55ZM153.79,157.82h1.32c.45,0,.79-.12,1.01-.37s.34-.56.34-.94-.11-.69-.34-.93-.56-.37-1.02-.37h-1.32v2.62Z"/>
      <path class="cls-9" d="M159.97,160.62c-.41,0-.76-.1-1.06-.29s-.53-.46-.69-.79-.24-.73-.24-1.17.08-.83.24-1.17.38-.61.67-.8.62-.29,1-.29c.32,0,.62.08.9.23s.51.39.69.71.27.73.27,1.22v.23h-3.24c.01.5.15.9.41,1.19s.61.45,1.05.45c.3,0,.55-.07.75-.21s.33-.31.41-.5l.5.16c-.1.27-.29.51-.58.72s-.65.31-1.09.31ZM158.51,158.05h2.7c-.03-.42-.16-.78-.39-1.05s-.54-.42-.93-.42c-.26,0-.49.07-.7.2s-.36.31-.48.53-.19.47-.2.74Z"/>
      <path class="cls-9" d="M163,160.53v-4.37h.52v.68h.04c.09-.22.24-.4.46-.54s.46-.2.73-.2c.04,0,.09,0,.14,0s.1,0,.13,0v.53s-.06,0-.12-.02-.12-.01-.2-.01c-.34,0-.62.1-.84.31s-.33.48-.33.8v2.8h-.53Z"/>
      <path class="cls-9" d="M166.3,155.36c-.11,0-.2-.04-.27-.11s-.11-.16-.11-.26.04-.19.11-.26.17-.11.27-.11.2.04.27.11.11.16.11.26-.04.19-.11.26-.17.11-.27.11ZM166.03,160.53v-4.37h.53v4.37h-.53Z"/>
      <path class="cls-9" d="M169.73,160.62c-.38,0-.71-.1-1-.29s-.52-.46-.68-.79-.25-.73-.25-1.17.08-.84.25-1.18.39-.61.68-.8.62-.29,1-.29.71.1,1,.29.52.46.68.8.25.73.25,1.18-.08.83-.25,1.17-.39.6-.68.79-.62.29-1,.29ZM169.73,160.14c.3,0,.55-.08.76-.24s.37-.38.47-.64.16-.56.16-.89-.05-.62-.16-.89-.27-.49-.48-.65-.46-.24-.76-.24-.55.08-.76.24-.37.38-.47.65-.16.57-.16.89.05.62.16.89.27.48.47.64.46.24.76.24Z"/>
      <path class="cls-9" d="M174.5,160.62c-.36,0-.67-.09-.94-.28s-.48-.45-.63-.79-.22-.74-.22-1.19.08-.84.23-1.18.36-.6.63-.79.58-.28.94-.28c.27,0,.49.05.66.14s.32.21.43.35.19.27.25.41h.04v-2.29h.53v5.82h-.51v-.82h-.06c-.06.14-.14.27-.25.41s-.25.26-.43.35-.4.14-.66.14ZM174.57,160.14c.28,0,.52-.08.72-.23s.35-.37.45-.63.15-.58.15-.92-.05-.65-.15-.92-.25-.47-.45-.62-.44-.23-.72-.23-.53.08-.72.23-.35.37-.45.63-.15.57-.15.9.05.64.15.91.25.48.45.64.44.24.72.24Z"/>
      <path class="cls-9" d="M178.17,155.36c-.11,0-.2-.04-.27-.11s-.11-.16-.11-.26.04-.19.11-.26.17-.11.27-.11.2.04.27.11.11.16.11.26-.04.19-.11.26-.17.11-.27.11ZM177.9,160.53v-4.37h.53v4.37h-.53Z"/>
      <path class="cls-9" d="M181.59,160.61c-.38,0-.71-.09-1-.29s-.52-.45-.68-.79-.25-.73-.25-1.17.08-.84.25-1.18.39-.6.68-.79.62-.29,1-.29c.29,0,.56.06.79.17s.42.25.57.42.26.34.31.52l-.5.16c-.03-.11-.1-.23-.2-.35s-.23-.23-.39-.31-.35-.13-.58-.13c-.3,0-.55.08-.76.24s-.37.38-.47.64-.16.57-.16.9.05.62.16.89.27.48.47.64.46.24.76.24c.23,0,.42-.04.59-.13s.3-.2.4-.32.17-.25.2-.36l.5.16c-.05.18-.16.36-.31.53s-.35.32-.58.43-.5.17-.79.17Z"/>
      <path class="cls-9" d="M186.17,160.53l2.13-5.82h.66l2.15,5.82h-.59l-.63-1.73h-2.52l-.62,1.73h-.59ZM187.55,158.31h2.16l-.57-1.58c-.07-.19-.15-.42-.23-.67s-.18-.55-.29-.9c-.1.35-.2.65-.28.91s-.16.48-.22.66l-.57,1.58Z"/>
      <path class="cls-9" d="M193.62,160.62c-.36,0-.67-.09-.94-.28s-.48-.45-.63-.79-.22-.74-.22-1.19.08-.84.23-1.18.36-.6.63-.79.58-.28.94-.28c.27,0,.49.05.66.14s.32.21.43.35.19.27.25.41h.04v-2.29h.53v5.82h-.51v-.82h-.06c-.06.14-.14.27-.25.41s-.25.26-.43.35-.4.14-.66.14ZM193.69,160.14c.28,0,.52-.08.72-.23s.35-.37.45-.63.15-.58.15-.92-.05-.65-.15-.92-.25-.47-.45-.62-.44-.23-.72-.23-.53.08-.72.23-.35.37-.45.63-.15.57-.15.9.05.64.15.91.25.48.45.64.44.24.72.24Z"/>
      <path class="cls-9" d="M198.28,160.53l-1.67-4.37h.58l1.01,2.75c.07.19.14.39.2.58s.12.39.18.58c.06-.19.11-.38.17-.58s.12-.39.2-.58l1.01-2.75h.57l-1.67,4.37h-.57Z"/>
      <path class="cls-9" d="M203.2,160.62c-.41,0-.76-.1-1.06-.29s-.53-.46-.69-.79-.24-.73-.24-1.17.08-.83.24-1.17.38-.61.67-.8.62-.29,1-.29c.32,0,.62.08.9.23s.51.39.69.71.27.73.27,1.22v.23h-3.24c.01.5.15.9.41,1.19s.61.45,1.05.45c.3,0,.55-.07.75-.21s.33-.31.41-.5l.5.16c-.1.27-.29.51-.58.72s-.65.31-1.09.31ZM201.73,158.05h2.7c-.03-.42-.16-.78-.39-1.05s-.54-.42-.93-.42c-.26,0-.49.07-.7.2s-.36.31-.48.53-.19.47-.2.74Z"/>
      <path class="cls-9" d="M206.22,160.53v-4.37h.52v.68h.04c.09-.22.24-.4.46-.54s.46-.2.73-.2c.04,0,.09,0,.14,0s.1,0,.13,0v.53s-.06,0-.12-.02-.12-.01-.2-.01c-.34,0-.62.1-.84.31s-.33.48-.33.8v2.8h-.53Z"/>
      <path class="cls-9" d="M211.02,156.16v.46h-.9v2.88c0,.44.2.64.59.6.04,0,.08,0,.13-.01s.1-.02.15-.03l.11.46c-.11.04-.24.06-.4.06-.35.02-.62-.06-.82-.25s-.3-.45-.3-.79v-2.91h-.65v-.46h.65v-1.04h.53v1.04h.9Z"/>
      <path class="cls-9" d="M212.38,155.36c-.11,0-.2-.04-.27-.11s-.11-.16-.11-.26.04-.19.11-.26.17-.11.27-.11.2.04.27.11.11.16.11.26-.04.19-.11.26-.17.11-.27.11ZM212.11,160.53v-4.37h.53v4.37h-.53Z"/>
      <path class="cls-9" d="M215.47,160.62c-.43,0-.78-.1-1.06-.29s-.46-.47-.54-.84l.51-.12c.06.26.19.46.37.59s.42.19.71.19c.33,0,.6-.07.79-.22s.3-.33.3-.55c0-.35-.24-.59-.71-.7l-.71-.17c-.75-.18-1.12-.57-1.12-1.16,0-.25.07-.46.2-.64s.31-.33.54-.43.49-.16.79-.16c.41,0,.74.09.98.28s.41.44.51.75l-.48.12c-.07-.2-.18-.37-.34-.5s-.38-.2-.67-.2-.53.07-.71.21-.28.32-.28.53c0,.36.26.6.78.73l.67.16c.74.18,1.11.56,1.11,1.15,0,.25-.07.47-.21.66s-.33.34-.58.45-.53.16-.85.16Z"/>
      <path class="cls-9" d="M218.6,155.36c-.11,0-.2-.04-.27-.11s-.11-.16-.11-.26.04-.19.11-.26.17-.11.27-.11.2.04.27.11.11.16.11.26-.04.19-.11.26-.17.11-.27.11ZM218.33,160.53v-4.37h.53v4.37h-.53Z"/>
      <path class="cls-9" d="M220.87,157.81v2.72h-.53v-4.37h.51v.8c.14-.3.32-.52.56-.66s.51-.21.8-.21c.44,0,.8.14,1.08.41s.41.67.41,1.19v2.82h-.53v-2.79c0-.36-.1-.64-.3-.85s-.47-.31-.8-.31-.63.11-.86.33-.35.52-.35.89Z"/>
      <path class="cls-9" d="M226.86,162.26c-.45,0-.81-.08-1.1-.25s-.49-.38-.62-.64l.44-.27c.09.17.24.33.43.47s.48.21.84.21c.39,0,.7-.1.93-.29s.35-.49.35-.89v-.98h-.05c-.06.14-.14.27-.25.4s-.25.24-.43.32-.4.13-.66.13c-.35,0-.65-.08-.92-.26s-.48-.42-.63-.74-.23-.7-.23-1.15.08-.83.23-1.17.36-.6.63-.78.58-.28.94-.28c.27,0,.49.05.66.14s.32.21.43.35.19.27.25.41h.05v-.84h.52v4.47c0,.37-.08.67-.24.91s-.37.42-.64.53-.58.17-.93.17ZM226.83,160.01c.42,0,.74-.15.97-.45s.35-.71.35-1.23c0-.34-.05-.64-.15-.9s-.25-.47-.45-.62-.44-.22-.72-.22-.53.08-.73.23-.35.36-.45.63-.15.56-.15.88c0,.5.12.9.35,1.21s.56.47.99.47Z"/>
      <path class="cls-9" d="M153.65,168.53v-5.82h1.9c.62,0,1.08.16,1.4.49s.48.75.48,1.26c0,.39-.09.72-.28,1.01s-.46.48-.82.6l1.34,2.46h-.64l-1.26-2.35c-.07,0-.14,0-.21,0h-1.35v2.34h-.55ZM154.2,165.69h1.32c.45,0,.79-.11,1.01-.33s.34-.52.34-.89-.11-.68-.34-.91-.56-.34-1.02-.34h-1.32v2.48Z"/>
      <path class="cls-9" d="M160.5,168.62c-.41,0-.76-.1-1.06-.29s-.53-.46-.69-.79-.24-.73-.24-1.17.08-.83.24-1.17.38-.61.67-.8.62-.29,1-.29c.32,0,.62.08.9.23s.51.39.69.71.27.73.27,1.22v.23h-3.24c.01.5.15.9.41,1.19s.61.45,1.05.45c.3,0,.55-.07.75-.21s.33-.31.41-.5l.5.16c-.1.27-.29.51-.58.72s-.65.31-1.09.31ZM159.04,166.05h2.7c-.03-.42-.16-.78-.39-1.05s-.54-.42-.93-.42c-.26,0-.49.07-.7.2s-.36.31-.48.53-.19.47-.2.74Z"/>
      <path class="cls-9" d="M164.86,168.62c-.43,0-.78-.1-1.06-.29s-.46-.47-.54-.84l.51-.12c.06.26.19.46.37.59s.42.19.71.19c.33,0,.6-.07.79-.22s.3-.33.3-.55c0-.35-.24-.59-.71-.7l-.71-.17c-.75-.18-1.12-.57-1.12-1.16,0-.25.07-.46.2-.64s.31-.33.54-.43.49-.16.79-.16c.41,0,.74.09.98.28s.41.44.51.75l-.48.12c-.07-.2-.18-.37-.34-.5s-.38-.2-.67-.2-.53.07-.71.21-.28.32-.28.53c0,.36.26.6.78.73l.67.16c.74.18,1.11.56,1.11,1.15,0,.25-.07.47-.21.66s-.33.34-.58.45-.53.16-.85.16Z"/>
      <path class="cls-9" d="M167.74,170.16v-6h.52v.84h.06c.06-.13.14-.27.25-.41s.25-.25.43-.35.4-.14.67-.14c.35,0,.67.09.94.28s.48.45.63.79.23.73.23,1.18-.07.85-.22,1.19-.36.6-.63.79-.58.28-.94.28c-.26,0-.48-.05-.66-.14s-.32-.21-.43-.35-.19-.28-.25-.41h-.04v2.45h-.53ZM169.58,168.14c.28,0,.52-.08.72-.24s.35-.37.45-.64.15-.57.15-.91-.05-.63-.15-.9-.25-.48-.45-.63-.44-.23-.73-.23-.52.08-.72.23-.35.36-.45.62-.15.57-.15.92.05.65.16.92.25.48.45.63.43.23.71.23Z"/>
      <path class="cls-9" d="M174.43,168.62c-.38,0-.71-.1-1-.29s-.52-.46-.68-.79-.25-.73-.25-1.17.08-.84.25-1.18.39-.61.68-.8.62-.29,1-.29.71.1,1,.29.52.46.68.8.25.73.25,1.18-.08.83-.25,1.17-.39.6-.68.79-.62.29-1,.29ZM174.43,168.14c.3,0,.55-.08.76-.24s.37-.38.47-.64.16-.56.16-.89-.05-.62-.16-.89-.27-.49-.48-.65-.46-.24-.76-.24-.55.08-.76.24-.37.38-.47.65-.16.57-.16.89.05.62.16.89.27.48.47.64.46.24.76.24Z"/>
      <path class="cls-9" d="M178.15,165.81v2.72h-.53v-4.37h.51v.8c.14-.3.32-.52.56-.66s.51-.21.8-.21c.44,0,.8.14,1.08.41s.41.67.41,1.19v2.82h-.53v-2.79c0-.36-.1-.64-.3-.85s-.47-.31-.8-.31-.63.11-.86.33-.35.52-.35.89Z"/>
      <path class="cls-9" d="M183.81,168.62c-.43,0-.78-.1-1.06-.29s-.46-.47-.54-.84l.51-.12c.06.26.19.46.37.59s.42.19.71.19c.33,0,.6-.07.79-.22s.3-.33.3-.55c0-.35-.24-.59-.71-.7l-.71-.17c-.75-.18-1.12-.57-1.12-1.16,0-.25.07-.46.2-.64s.31-.33.54-.43.49-.16.79-.16c.41,0,.74.09.98.28s.41.44.51.75l-.48.12c-.07-.2-.18-.37-.34-.5s-.38-.2-.67-.2-.53.07-.71.21-.28.32-.28.53c0,.36.26.6.78.73l.67.16c.74.18,1.11.56,1.11,1.15,0,.25-.07.47-.21.66s-.33.34-.58.45-.53.16-.85.16Z"/>
      <path class="cls-9" d="M188.44,168.62c-.41,0-.76-.1-1.06-.29s-.53-.46-.69-.79-.24-.73-.24-1.17.08-.83.24-1.17.38-.61.67-.8.62-.29,1-.29c.32,0,.62.08.9.23s.51.39.69.71.27.73.27,1.22v.23h-3.24c.01.5.15.9.41,1.19s.61.45,1.05.45c.3,0,.55-.07.75-.21s.33-.31.41-.5l.5.16c-.1.27-.29.51-.58.72s-.65.31-1.09.31ZM186.98,166.05h2.7c-.03-.42-.16-.78-.39-1.05s-.54-.42-.93-.42c-.26,0-.49.07-.7.2s-.36.31-.48.53-.19.47-.2.74Z"/>
      <path class="cls-9" d="M195.4,168.63c-.6,0-1.07-.14-1.43-.43s-.55-.67-.58-1.14h.57c.03.35.18.61.46.79s.6.27.99.27c.29,0,.54-.05.77-.14s.4-.23.53-.4.19-.37.19-.61c0-.29-.11-.51-.33-.67s-.51-.29-.88-.39l-.69-.2c-.46-.14-.82-.33-1.07-.57s-.38-.55-.38-.92c0-.32.08-.59.25-.83s.4-.43.69-.56.61-.2.97-.2.69.07.97.2.5.32.66.55.25.5.26.79h-.54c-.03-.32-.18-.58-.43-.77s-.56-.28-.95-.28-.72.1-.97.3-.38.46-.38.77c0,.2.06.37.17.5s.26.24.43.33.36.16.54.21l.61.18c.25.07.5.17.74.29s.45.29.61.49.24.46.24.79-.08.6-.24.84-.39.44-.7.59-.67.22-1.09.22Z"/>
      <path class="cls-9" d="M199.3,162.71v5.82h-.53v-5.82h.53Z"/>
      <path class="cls-9" d="M202.49,168.62c-.38,0-.71-.1-1-.29s-.52-.46-.68-.79-.25-.73-.25-1.17.08-.84.25-1.18.39-.61.68-.8.62-.29,1-.29.71.1,1,.29.52.46.68.8.25.73.25,1.18-.08.83-.25,1.17-.39.6-.68.79-.62.29-1,.29ZM202.49,168.14c.3,0,.55-.08.76-.24s.37-.38.47-.64.16-.56.16-.89-.05-.62-.16-.89-.27-.49-.48-.65-.46-.24-.76-.24-.55.08-.76.24-.37.38-.47.65-.16.57-.16.89.05.62.16.89.27.48.47.64.46.24.76.24Z"/>
      <path class="cls-9" d="M207.13,164.16v.46h-.9v2.88c0,.44.2.64.59.6.04,0,.08,0,.13-.01s.1-.02.15-.03l.11.46c-.11.04-.24.06-.4.06-.35.02-.62-.06-.82-.25s-.3-.45-.3-.79v-2.91h-.65v-.46h.65v-1.04h.53v1.04h.9Z"/>
      <path class="cls-9" d="M212.11,168.53h-1.72v-5.82h1.82c.55,0,1.03.12,1.43.35s.7.56.91,1,.32.95.32,1.55c0,.92-.24,1.63-.72,2.15s-1.16.78-2.04.78ZM210.94,168.03h1.13c.74,0,1.3-.21,1.68-.64s.57-1.02.57-1.79-.18-1.33-.55-1.76-.9-.64-1.6-.64h-1.23v4.83Z"/>
      <path class="cls-9" d="M217.98,168.62c-.41,0-.76-.1-1.06-.29s-.53-.46-.69-.79-.24-.73-.24-1.17.08-.83.24-1.17.38-.61.67-.8.62-.29,1-.29c.32,0,.62.08.9.23s.51.39.69.71.27.73.27,1.22v.23h-3.24c.01.5.15.9.41,1.19s.61.45,1.05.45c.3,0,.55-.07.75-.21s.33-.31.41-.5l.5.16c-.1.27-.29.51-.58.72s-.65.31-1.09.31ZM216.52,166.05h2.7c-.03-.42-.16-.78-.39-1.05s-.54-.42-.93-.42c-.26,0-.49.07-.7.2s-.36.31-.48.53-.19.47-.2.74Z"/>
      <path class="cls-9" d="M221.53,162.71v5.82h-.53v-5.82h.53Z"/>
      <path class="cls-9" d="M224.18,168.63c-.27,0-.51-.05-.72-.15s-.39-.25-.52-.45-.19-.43-.19-.72.07-.51.21-.69.34-.3.59-.39.54-.15.87-.19c.36-.04.64-.08.84-.12s.3-.14.3-.3v-.1c0-.29-.09-.52-.27-.69s-.43-.25-.76-.25-.57.07-.76.21-.33.3-.4.48l-.51-.17c.1-.24.23-.43.41-.57s.37-.25.59-.31.44-.1.67-.1c.17,0,.35.02.53.07s.35.12.51.23.28.26.38.45.14.43.14.72v2.96h-.52v-.69h-.04c-.1.2-.26.38-.48.54s-.52.24-.87.24ZM224.26,168.16c.27,0,.5-.06.69-.18s.35-.28.45-.47.16-.41.16-.65v-.62s-.14.09-.28.12-.29.06-.45.09-.3.04-.41.06c-.37.04-.65.13-.85.26s-.3.32-.3.58.09.46.28.61.42.22.7.22Z"/>
      <path class="cls-9" d="M227.27,170.11l.14-.46.06.02c.23.07.43.07.6-.02s.31-.29.42-.6l.17-.48-1.68-4.4h.58l1.01,2.75c.07.2.14.39.2.58s.11.39.17.58c.06-.19.12-.38.17-.58s.12-.39.2-.58l1.01-2.75h.57l-1.94,5.08c-.24.64-.64.95-1.2.95-.11,0-.2,0-.29-.03s-.16-.04-.21-.06Z"/>
    </g>
    <g>
      <line class="cls-3" x1="143.78" y1="177.47" x2="236.77" y2="177.47"/>
      <polygon class="cls-10" points="235.95 180.27 240.81 177.47 235.95 174.66 235.95 180.27"/>
    </g>
  </g>
  <g>
    <path class="cls-7" d="M20.22,154.31l2.13-5.82h.66l2.15,5.82h-.59l-.63-1.73h-2.52l-.62,1.73h-.59ZM21.6,152.09h2.16l-.57-1.58c-.07-.19-.15-.42-.23-.67s-.18-.55-.29-.9c-.1.35-.2.65-.28.91s-.16.48-.22.66l-.57,1.58Z"/>
    <path class="cls-7" d="M28.28,154.4c-.44,0-.82-.09-1.16-.27s-.59-.42-.78-.73-.28-.67-.28-1.06v-3.84h.55v3.8c0,.3.07.58.21.82s.33.43.58.57.54.21.87.21.62-.07.87-.21.44-.33.58-.57.21-.51.21-.82v-3.8h.55v3.84c0,.4-.09.75-.28,1.06s-.45.56-.78.73-.72.27-1.15.27Z"/>
    <path class="cls-7" d="M31.59,154.31l2.09-2.97-1.99-2.85h.65l.99,1.43c.15.22.27.4.37.55s.2.32.3.51c.1-.19.2-.36.3-.51s.22-.33.37-.55l1.01-1.43h.63l-1.99,2.83,2.08,2.99h-.64l-1.14-1.63c-.14-.19-.25-.36-.34-.5s-.19-.3-.29-.48c-.1.17-.19.33-.29.48s-.21.31-.34.5l-1.15,1.63h-.64Z"/>
    <path class="cls-7" d="M40.82,154.31v.49h-3.58v-.49h3.58Z"/>
    <path class="cls-7" d="M43.79,154.41c-.6,0-1.07-.14-1.43-.43s-.55-.67-.58-1.14h.57c.03.35.18.61.46.79s.6.27.99.27c.29,0,.54-.05.77-.14s.4-.23.53-.4.19-.37.19-.61c0-.29-.11-.51-.33-.67s-.51-.29-.88-.39l-.69-.2c-.46-.14-.82-.33-1.07-.57s-.38-.55-.38-.92c0-.32.08-.59.25-.83s.4-.43.69-.56.61-.2.97-.2.69.07.97.2.5.32.66.55.25.5.26.79h-.54c-.03-.32-.18-.58-.43-.77s-.56-.28-.95-.28-.72.1-.97.3-.38.46-.38.77c0,.2.06.37.17.5s.26.24.43.33.36.16.54.21l.61.18c.25.07.5.17.74.29s.45.29.61.49.24.46.24.79-.08.6-.24.84-.39.44-.7.59-.67.22-1.09.22Z"/>
    <path class="cls-7" d="M48.7,154.31v-2.51l-2.16-3.31h.64l1.24,1.9c.1.16.2.32.29.47s.18.32.27.51c.09-.19.18-.36.27-.51s.19-.31.29-.46l1.23-1.9h.64l-2.16,3.31v2.51h-.55Z"/>
    <path class="cls-7" d="M52.58,154.31v-5.82h.64l2.65,3.95c.1.15.21.32.34.53s.26.43.39.68c-.02-.25-.03-.5-.03-.72s0-.42,0-.59v-3.85h.55v5.82h-.64l-2.48-3.68c-.14-.2-.27-.41-.4-.63s-.3-.5-.5-.83c.01.31.02.59.03.85s.01.46.01.61v3.68h-.56Z"/>
    <path class="cls-7" d="M61.1,154.39c-.49,0-.92-.12-1.3-.37s-.68-.59-.89-1.04-.32-.97-.32-1.58.11-1.14.32-1.59.51-.79.89-1.04.81-.37,1.3-.37c.41,0,.78.08,1.11.25s.59.4.8.68.34.61.4.97h-.55c-.05-.27-.16-.5-.32-.71s-.36-.37-.61-.49-.52-.18-.82-.18c-.36,0-.7.09-1,.29s-.54.47-.72.84-.27.82-.27,1.35.09.98.27,1.35.42.64.72.83.63.28,1,.28c.3,0,.58-.06.82-.18s.45-.29.61-.5.27-.45.32-.71h.55c-.06.35-.19.67-.4.96s-.47.52-.8.69-.69.26-1.11.26Z"/>
    <path class="cls-7" d="M67.82,154.31v.49h-3.58v-.49h3.58Z"/>
    <path class="cls-7" d="M70.79,154.41c-.6,0-1.07-.14-1.43-.43s-.55-.67-.58-1.14h.57c.03.35.18.61.46.79s.6.27.99.27c.29,0,.54-.05.77-.14s.4-.23.53-.4.19-.37.19-.61c0-.29-.11-.51-.33-.67s-.51-.29-.88-.39l-.69-.2c-.46-.14-.82-.33-1.07-.57s-.38-.55-.38-.92c0-.32.08-.59.25-.83s.4-.43.69-.56.61-.2.97-.2.69.07.97.2.5.32.66.55.25.5.26.79h-.54c-.03-.32-.18-.58-.43-.77s-.56-.28-.95-.28-.72.1-.97.3-.38.46-.38.77c0,.2.06.37.17.5s.26.24.43.33.36.16.54.21l.61.18c.25.07.5.17.74.29s.45.29.61.49.24.46.24.79-.08.6-.24.84-.39.44-.7.59-.67.22-1.09.22Z"/>
    <path class="cls-7" d="M76.41,154.4c-.44,0-.82-.09-1.16-.27s-.59-.42-.78-.73-.28-.67-.28-1.06v-3.84h.55v3.8c0,.3.07.58.21.82s.33.43.58.57.54.21.87.21.62-.07.87-.21.44-.33.58-.57.21-.51.21-.82v-3.8h.55v3.84c0,.4-.09.75-.28,1.06s-.45.56-.78.73-.72.27-1.15.27Z"/>
    <path class="cls-7" d="M80.29,154.31v-5.82h1.98c.57,0,.99.14,1.28.43s.43.65.43,1.09c0,.36-.09.65-.27.86s-.4.35-.66.41v.05c.19.01.37.08.54.2s.32.28.44.5.17.46.17.76c0,.44-.15.81-.45,1.1s-.76.43-1.38.43h-2.09ZM80.85,151.12h1.46c.34,0,.62-.1.82-.31s.31-.47.31-.79-.1-.55-.3-.75-.5-.29-.89-.29h-1.41v2.13ZM80.85,153.82h1.52c.44,0,.77-.1.98-.29s.32-.44.32-.74c0-.22-.05-.42-.16-.6s-.26-.32-.45-.43-.42-.16-.67-.16h-1.55v2.22Z"/>
    <path class="cls-7" d="M85.66,154.31v-5.82h3.4v.5h-2.84v2.15h2.66v.5h-2.66v2.18h2.9v.5h-3.45Z"/>
    <path class="cls-7" d="M92.29,154.31l-2.15-5.82h.58l1.38,3.8c.07.18.14.41.23.66s.18.56.29.9c.11-.35.2-.65.29-.9s.16-.47.22-.66l1.36-3.8h.59l-2.14,5.82h-.65Z"/>
    <path class="cls-7" d="M96.24,154.31v-5.82h3.4v.5h-2.84v2.15h2.66v.5h-2.66v2.18h2.9v.5h-3.45Z"/>
    <path class="cls-7" d="M101.03,154.31v-5.82h.64l2.65,3.95c.1.15.21.32.34.53s.26.43.39.68c-.02-.25-.03-.5-.03-.72s0-.42,0-.59v-3.85h.55v5.82h-.64l-2.48-3.68c-.14-.2-.27-.41-.4-.63s-.3-.5-.5-.83c.01.31.02.59.03.85s.01.46.01.61v3.68h-.56Z"/>
    <path class="cls-7" d="M106.84,148.99v-.5h4.24v.5h-1.84v5.32h-.55v-5.32h-1.85Z"/>
    <path class="cls-7" d="M114.88,154.31v.49h-3.58v-.49h3.58Z"/>
    <path class="cls-7" d="M116.69,148.49v5.82h-.55v-5.82h.55Z"/>
    <path class="cls-7" d="M118.4,154.31v-5.82h.64l2.65,3.95c.1.15.21.32.34.53s.26.43.39.68c-.02-.25-.03-.5-.03-.72s0-.42,0-.59v-3.85h.55v5.82h-.64l-2.48-3.68c-.14-.2-.27-.41-.4-.63s-.3-.5-.5-.83c.01.31.02.59.03.85s.01.46.01.61v3.68h-.56Z"/>
    <path class="cls-7" d="M126.36,154.31h-1.72v-5.82h1.82c.55,0,1.03.12,1.43.35s.7.56.91,1,.32.95.32,1.55c0,.92-.24,1.63-.72,2.15s-1.16.78-2.04.78ZM125.2,153.82h1.13c.74,0,1.3-.21,1.68-.64s.57-1.02.57-1.79-.18-1.33-.55-1.76-.9-.64-1.6-.64h-1.23v4.83Z"/>
    <path class="cls-7" d="M73.3,166.13c-.38,0-.71-.1-1-.29s-.52-.46-.68-.79-.25-.73-.25-1.17.08-.84.25-1.18.39-.61.68-.8.62-.29,1-.29.71.1,1,.29.52.46.68.8.25.73.25,1.18-.08.83-.25,1.17-.39.6-.68.79-.62.29-1,.29ZM73.3,165.65c.3,0,.55-.08.76-.24s.37-.38.47-.64.16-.56.16-.89-.05-.62-.16-.89-.27-.49-.48-.65-.46-.24-.76-.24-.55.08-.76.24-.37.38-.47.65-.16.57-.16.89.05.62.16.89.27.48.47.64.46.24.76.24Z"/>
    <path class="cls-7" d="M76.49,166.04v-4.37h.52v.68h.04c.09-.22.24-.4.46-.54s.46-.2.73-.2c.04,0,.09,0,.14,0s.1,0,.13,0v.53s-.06,0-.12-.02-.12-.01-.2-.01c-.34,0-.62.1-.84.31s-.33.48-.33.8v2.8h-.53Z"/>
    <path class="cls-7" d="M34.34,177.77l2.13-5.82h.66l2.15,5.82h-.59l-.63-1.73h-2.52l-.62,1.73h-.59ZM35.72,175.55h2.16l-.57-1.58c-.07-.19-.15-.42-.23-.67s-.18-.55-.29-.9c-.1.35-.2.65-.28.91s-.16.48-.22.66l-.57,1.58Z"/>
    <path class="cls-7" d="M42.4,177.86c-.44,0-.82-.09-1.16-.27s-.59-.42-.78-.73-.28-.67-.28-1.06v-3.84h.55v3.8c0,.3.07.58.21.82s.33.43.58.57.54.21.87.21.62-.07.87-.21.44-.33.58-.57.21-.51.21-.82v-3.8h.55v3.84c0,.4-.09.75-.28,1.06s-.45.56-.78.73-.72.27-1.15.27Z"/>
    <path class="cls-7" d="M45.72,177.77l2.09-2.97-1.99-2.85h.65l.99,1.43c.15.22.27.4.37.55s.2.32.3.51c.1-.19.2-.36.3-.51s.22-.33.37-.55l1.01-1.43h.63l-1.99,2.83,2.08,2.99h-.64l-1.14-1.63c-.14-.19-.25-.36-.34-.5s-.19-.3-.29-.48c-.1.17-.19.33-.29.48s-.21.31-.34.5l-1.15,1.63h-.64Z"/>
    <path class="cls-7" d="M54.94,177.77v.49h-3.58v-.49h3.58Z"/>
    <path class="cls-7" d="M58.22,177.85c-.49,0-.92-.12-1.3-.37s-.68-.59-.89-1.04-.32-.97-.32-1.58.11-1.14.32-1.59.51-.79.89-1.04.81-.37,1.3-.37c.41,0,.78.08,1.11.25s.59.4.8.68.34.61.4.97h-.55c-.05-.27-.16-.5-.32-.71s-.36-.37-.61-.49-.52-.18-.82-.18c-.36,0-.7.09-1,.29s-.54.47-.72.84-.27.82-.27,1.35.09.98.27,1.35.42.64.72.83.63.28,1,.28c.3,0,.58-.06.82-.18s.45-.29.61-.5.27-.45.32-.71h.55c-.06.35-.19.67-.4.96s-.47.52-.8.69-.69.26-1.11.26Z"/>
    <path class="cls-7" d="M64.17,177.85c-.49,0-.93-.12-1.31-.37s-.68-.59-.89-1.04-.32-.97-.32-1.58.11-1.14.32-1.59.51-.79.89-1.04.82-.37,1.31-.37.92.12,1.3.37.68.59.89,1.04.32.98.32,1.59-.11,1.13-.32,1.58-.51.79-.89,1.04-.81.37-1.3.37ZM64.17,177.33c.38,0,.72-.1,1.01-.29s.53-.48.71-.85.26-.81.26-1.33-.09-.96-.26-1.33-.41-.65-.71-.85-.64-.29-1.01-.29-.72.1-1.02.29-.54.48-.71.85-.26.81-.26,1.33.09.95.26,1.32.41.65.71.85.64.29,1.02.29Z"/>
    <path class="cls-7" d="M68.15,177.77v-5.82h.64l2.65,3.95c.1.15.21.32.34.53s.26.43.39.68c-.02-.25-.03-.5-.03-.72s0-.42,0-.59v-3.85h.55v5.82h-.64l-2.48-3.68c-.14-.2-.27-.41-.4-.63s-.3-.5-.5-.83c.01.31.02.59.03.85s.01.46.01.61v3.68h-.56Z"/>
    <path class="cls-7" d="M74.39,177.77v-5.82h.64l2.65,3.95c.1.15.21.32.34.53s.26.43.39.68c-.02-.25-.03-.5-.03-.72s0-.42,0-.59v-3.85h.55v5.82h-.64l-2.48-3.68c-.14-.2-.27-.41-.4-.63s-.3-.5-.5-.83c.01.31.02.59.03.85s.01.46.01.61v3.68h-.56Z"/>
    <path class="cls-7" d="M80.63,177.77v-5.82h3.4v.5h-2.84v2.15h2.66v.5h-2.66v2.18h2.9v.5h-3.45Z"/>
    <path class="cls-7" d="M87.7,177.85c-.49,0-.92-.12-1.3-.37s-.68-.59-.89-1.04-.32-.97-.32-1.58.11-1.14.32-1.59.51-.79.89-1.04.81-.37,1.3-.37c.41,0,.78.08,1.11.25s.59.4.8.68.34.61.4.97h-.55c-.05-.27-.16-.5-.32-.71s-.36-.37-.61-.49-.52-.18-.82-.18c-.36,0-.7.09-1,.29s-.54.47-.72.84-.27.82-.27,1.35.09.98.27,1.35.42.64.72.83.63.28,1,.28c.3,0,.58-.06.82-.18s.45-.29.61-.5.27-.45.32-.71h.55c-.06.35-.19.67-.4.96s-.47.52-.8.69-.69.26-1.11.26Z"/>
    <path class="cls-7" d="M90.85,172.45v-.5h4.24v.5h-1.84v5.32h-.55v-5.32h-1.85Z"/>
    <path class="cls-7" d="M98.89,177.77v.49h-3.58v-.49h3.58Z"/>
    <path class="cls-7" d="M100.14,177.77v-5.82h1.9c.62,0,1.08.16,1.4.49s.48.75.48,1.26c0,.39-.09.72-.28,1.01s-.46.48-.82.6l1.34,2.46h-.64l-1.26-2.35c-.07,0-.14,0-.21,0h-1.35v2.34h-.55ZM100.7,174.93h1.32c.45,0,.79-.11,1.01-.33s.34-.52.34-.89-.11-.68-.34-.91-.56-.34-1.02-.34h-1.32v2.48Z"/>
    <path class="cls-7" d="M105.4,177.77v-5.82h3.4v.5h-2.84v2.15h2.66v.5h-2.66v2.18h2.9v.5h-3.45Z"/>
    <path class="cls-7" d="M112.47,177.85c-.49,0-.93-.12-1.31-.37s-.68-.59-.89-1.04-.32-.97-.32-1.58.11-1.14.32-1.59.51-.79.89-1.04.82-.37,1.31-.37.92.12,1.3.37.68.59.89,1.04.32.98.32,1.59c0,.54-.09,1.02-.26,1.44s-.42.75-.72,1.01l.75,1h-.59l-.55-.74c-.34.18-.72.27-1.14.27ZM112.39,175.95h.59l.71.93c.24-.21.42-.48.56-.82s.21-.74.21-1.2c0-.52-.09-.96-.26-1.33s-.41-.65-.71-.85-.64-.29-1.01-.29-.72.1-1.02.29-.54.48-.71.85-.26.81-.26,1.33.09.95.26,1.32.41.65.71.85.64.29,1.02.29c.3,0,.57-.06.82-.18l-.91-1.2Z"/>
    <path class="cls-7" d="M48.19,181.4v.46h-1.03v3.91h-.53v-3.91h-.86v-.46h.86v-.62c0-.24.05-.44.16-.6s.25-.29.42-.37.36-.13.56-.13c.14,0,.25.01.35.03s.17.04.22.07l-.15.46s-.09-.03-.15-.04-.13-.02-.22-.02c-.22,0-.38.06-.5.18s-.17.3-.17.52v.52h1.03Z"/>
    <path class="cls-7" d="M50.83,185.87c-.38,0-.71-.1-1-.29s-.52-.46-.68-.79-.25-.73-.25-1.17.08-.84.25-1.18.39-.61.68-.8.62-.29,1-.29.71.1,1,.29.52.46.68.8.25.73.25,1.18-.08.83-.25,1.17-.39.6-.68.79-.62.29-1,.29ZM50.83,185.38c.3,0,.55-.08.76-.24s.37-.38.47-.64.16-.56.16-.89-.05-.62-.16-.89-.27-.49-.48-.65-.46-.24-.76-.24-.55.08-.76.24-.37.38-.47.65-.16.57-.16.89.05.62.16.89.27.48.47.64.46.24.76.24Z"/>
    <path class="cls-7" d="M54.02,185.77v-4.37h.52v.68h.04c.09-.22.24-.4.46-.54s.46-.2.73-.2c.04,0,.09,0,.14,0s.1,0,.13,0v.53s-.06,0-.12-.02-.12-.01-.2-.01c-.34,0-.62.1-.84.31s-.33.48-.33.8v2.8h-.53Z"/>
    <path class="cls-7" d="M60.54,185.87c-.43,0-.78-.1-1.06-.29s-.46-.47-.54-.84l.51-.12c.06.26.19.46.37.59s.42.19.71.19c.33,0,.6-.07.79-.22s.3-.33.3-.55c0-.35-.24-.59-.71-.7l-.71-.17c-.75-.18-1.12-.57-1.12-1.16,0-.25.07-.46.2-.64s.31-.33.54-.43.49-.16.79-.16c.41,0,.74.09.98.28s.41.44.51.75l-.48.12c-.07-.2-.18-.37-.34-.5s-.38-.2-.67-.2-.53.07-.71.21-.28.32-.28.53c0,.36.26.6.78.73l.67.16c.74.18,1.11.56,1.11,1.15,0,.25-.07.47-.21.66s-.33.34-.58.45-.53.16-.85.16Z"/>
    <path class="cls-7" d="M64.87,185.83c-.44,0-.8-.14-1.08-.41s-.42-.67-.42-1.19v-2.82h.53v2.79c0,.36.1.64.3.85s.47.31.8.31.63-.11.86-.33.35-.52.35-.89v-2.72h.53v4.37h-.52v-.81c-.14.31-.32.53-.56.66s-.51.2-.8.2Z"/>
    <path class="cls-7" d="M70.15,185.87c-.26,0-.48-.05-.66-.14s-.32-.21-.43-.35-.19-.28-.25-.41h-.06v.82h-.52v-5.82h.53v2.29h.04c.06-.13.14-.27.25-.41s.25-.25.43-.35.4-.14.67-.14c.35,0,.67.09.94.28s.48.45.63.79.23.73.23,1.18-.07.85-.22,1.19-.36.6-.63.79-.58.28-.94.28ZM70.08,185.38c.28,0,.52-.08.72-.24s.35-.37.45-.64.15-.57.15-.91-.05-.63-.15-.9-.25-.48-.45-.63-.44-.23-.73-.23-.52.08-.72.23-.35.36-.45.62-.15.57-.15.92.05.65.16.92.25.48.45.63.43.23.71.23Z"/>
    <path class="cls-7" d="M74.99,185.87c-.41,0-.76-.1-1.06-.29s-.53-.46-.69-.79-.24-.73-.24-1.17.08-.83.24-1.17.38-.61.67-.8.62-.29,1-.29c.32,0,.62.08.9.23s.51.39.69.71.27.73.27,1.22v.23h-3.24c.01.5.15.9.41,1.19s.61.45,1.05.45c.3,0,.55-.07.75-.21s.33-.31.41-.5l.5.16c-.1.27-.29.51-.58.72s-.65.31-1.09.31ZM73.53,183.29h2.7c-.03-.42-.16-.78-.39-1.05s-.54-.42-.93-.42c-.26,0-.49.07-.7.2s-.36.31-.48.53-.19.47-.2.74Z"/>
    <path class="cls-7" d="M79.12,185.77l-1.67-4.37h.58l1.01,2.75c.07.19.14.39.2.58s.12.39.18.58c.06-.19.11-.38.17-.58s.12-.39.2-.58l1.01-2.75h.57l-1.67,4.37h-.57Z"/>
    <path class="cls-7" d="M84.04,185.87c-.41,0-.76-.1-1.06-.29s-.53-.46-.69-.79-.24-.73-.24-1.17.08-.83.24-1.17.38-.61.67-.8.62-.29,1-.29c.32,0,.62.08.9.23s.51.39.69.71.27.73.27,1.22v.23h-3.24c.01.5.15.9.41,1.19s.61.45,1.05.45c.3,0,.55-.07.75-.21s.33-.31.41-.5l.5.16c-.1.27-.29.51-.58.72s-.65.31-1.09.31ZM82.58,183.29h2.7c-.03-.42-.16-.78-.39-1.05s-.54-.42-.93-.42c-.26,0-.49.07-.7.2s-.36.31-.48.53-.19.47-.2.74Z"/>
    <path class="cls-7" d="M87.6,183.05v2.72h-.53v-4.37h.51v.8c.14-.3.32-.52.56-.66s.51-.21.8-.21c.44,0,.8.14,1.08.41s.41.67.41,1.19v2.82h-.53v-2.79c0-.36-.1-.64-.3-.85s-.47-.31-.8-.31-.63.11-.86.33-.35.52-.35.89Z"/>
    <path class="cls-7" d="M93.38,181.4v.46h-.9v2.88c0,.44.2.64.59.6.04,0,.08,0,.13-.01s.1-.02.15-.03l.11.46c-.11.04-.24.06-.4.06-.35.02-.62-.06-.82-.25s-.3-.45-.3-.79v-2.91h-.65v-.46h.65v-1.04h.53v1.04h.9Z"/>
    <path class="cls-7" d="M98.72,185.77l.28-1.67h-1.59l-.27,1.67h-.45l.27-1.67h-.93l.08-.45h.93l.25-1.57h-.92l.08-.45h.92l.28-1.68h.45l-.28,1.68h1.59l.28-1.68h.45l-.28,1.68h.93l-.07.45h-.93l-.25,1.57h.92l-.07.45h-.92l-.27,1.67h-.46ZM97.48,183.65h1.59l.26-1.57h-1.59l-.25,1.57Z"/>
    <path class="cls-7" d="M103.7,185.85c-.62,0-1.1-.26-1.45-.79s-.52-1.26-.52-2.2.17-1.67.52-2.2.83-.79,1.44-.79,1.09.26,1.44.79.52,1.26.52,2.2-.17,1.67-.52,2.2-.82.79-1.44.79ZM103.7,185.36c.45,0,.8-.22,1.05-.66s.38-1.05.38-1.83-.12-1.4-.38-1.84-.6-.66-1.05-.66-.8.22-1.05.66-.38,1.06-.38,1.84.12,1.4.38,1.83.6.66,1.05.66Z"/>
  </g>
  <g>
    <line class="cls-4" x1="130.58" y1="92.82" x2="74.81" y2="92.82"/>
    <polygon class="cls-7" points="129.71 89.83 134.89 92.82 129.71 95.81 129.71 89.83"/>
  </g>
  <line class="cls-4" x1="74.81" y1="92.82" x2="74.81" y2="140.65"/>
</svg>