<?xml version="1.0" encoding="UTF-8"?>
<svg id="Layer_1" data-name="Layer 1" xmlns="http://www.w3.org/2000/svg" viewBox="0 0 1596.08 758.54">
  <defs>
    <style>
      .cls-1 {
        fill: none;
      }

      .cls-1, .cls-2 {
        stroke-width: 3px;
      }

      .cls-1, .cls-2, .cls-3 {
        stroke: #000;
      }

      .cls-4, .cls-2 {
        fill: #c60000;
      }

      .cls-3 {
        stroke-width: .75px;
      }

      .cls-5 {
        fill: #67329b;
      }

      .cls-6 {
        opacity: .8;
      }
    </style>
  </defs>
  <g>
    <path class="cls-4" d="M173.7,138.77c-1.9.11-3.37-.31-4.38-1.26-1.02-.95-1.53-2.4-1.53-4.36v-18.97h-11.33v24.44h-3.3v-24.44h-4.49v-2.86h27.17v2.86h-4.76v18.24c0,1.38.24,2.32.71,2.8.47.48,1.23.67,2.27.57.34-.02.59-.03.74-.05.15-.02.31-.05.48-.1l.68,2.81c-.26.07-.59.13-.99.21-.4.07-.83.11-1.28.11Z"/>
    <path class="cls-4" d="M190.58,100.54l-11.72,43.55h-3.1l11.72-43.55h3.1Z"/>
    <path class="cls-4" d="M190.93,141.63v-2.54l11.94-13.33c1.5-1.69,2.72-3.15,3.66-4.37.94-1.22,1.64-2.36,2.08-3.41s.66-2.14.66-3.28c0-2.07-.7-3.73-2.1-4.99-1.4-1.26-3.16-1.89-5.27-1.89s-3.99.69-5.33,2.08c-1.34,1.38-2.01,3.14-2.01,5.27h-3.34c0-2.02.47-3.81,1.4-5.37.94-1.56,2.22-2.79,3.85-3.69,1.63-.9,3.47-1.34,5.54-1.34s3.87.44,5.46,1.31c1.59.87,2.84,2.06,3.75,3.55.91,1.5,1.37,3.17,1.37,5.03,0,1.33-.23,2.62-.7,3.86-.46,1.24-1.27,2.63-2.42,4.19-1.15,1.55-2.74,3.45-4.77,5.7l-8.89,9.89v.24h17.9v3.1h-22.75Z"/>
  </g>
  <g>
    <path class="cls-5" d="M655.34,138.77c-1.9.11-3.37-.31-4.38-1.26-1.02-.95-1.53-2.4-1.53-4.36v-18.97h-11.33v24.44h-3.3v-24.44h-4.49v-2.86h27.17v2.86h-4.76v18.24c0,1.38.24,2.32.71,2.8.47.48,1.23.67,2.27.57.34-.02.59-.03.75-.05.15-.02.31-.05.48-.1l.68,2.81c-.26.07-.59.13-.99.21-.4.07-.83.11-1.28.11Z"/>
    <path class="cls-5" d="M672.22,100.54l-11.72,43.55h-3.1l11.72-43.55h3.1Z"/>
    <path class="cls-5" d="M672.57,141.63v-2.54l11.94-13.33c1.5-1.69,2.72-3.15,3.66-4.37s1.64-2.36,2.08-3.41.66-2.14.66-3.28c0-2.07-.7-3.73-2.1-4.99-1.4-1.26-3.16-1.89-5.27-1.89s-3.99.69-5.33,2.08c-1.34,1.38-2.01,3.14-2.01,5.27h-3.34c0-2.02.47-3.81,1.4-5.37.94-1.56,2.22-2.79,3.84-3.69,1.63-.9,3.47-1.34,5.54-1.34s3.87.44,5.46,1.31c1.59.87,2.84,2.06,3.75,3.55.91,1.5,1.37,3.17,1.37,5.03,0,1.33-.23,2.62-.7,3.86-.46,1.24-1.27,2.63-2.42,4.19-1.15,1.55-2.74,3.45-4.77,5.7l-8.89,9.89v.24h17.9v3.1h-22.75Z"/>
  </g>
  <g>
    <path class="cls-4" d="M1143.8,138.77c-1.9.11-3.37-.31-4.38-1.26-1.02-.95-1.53-2.4-1.53-4.36v-18.97h-11.33v24.44h-3.3v-24.44h-4.49v-2.86h27.17v2.86h-4.76v18.24c0,1.38.24,2.32.71,2.8.47.48,1.23.67,2.27.57.34-.02.59-.03.75-.05.15-.02.31-.05.48-.1l.68,2.81c-.26.07-.59.13-.99.21-.4.07-.83.11-1.28.11Z"/>
    <path class="cls-4" d="M1160.69,100.54l-11.72,43.55h-3.1l11.72-43.55h3.1Z"/>
    <path class="cls-4" d="M1161.04,141.63v-2.54l11.94-13.33c1.5-1.69,2.72-3.15,3.66-4.37s1.64-2.36,2.08-3.41.66-2.14.66-3.28c0-2.07-.7-3.73-2.1-4.99-1.4-1.26-3.16-1.89-5.27-1.89s-3.99.69-5.33,2.08c-1.34,1.38-2.01,3.14-2.01,5.27h-3.34c0-2.02.47-3.81,1.4-5.37.94-1.56,2.22-2.79,3.84-3.69,1.63-.9,3.47-1.34,5.54-1.34s3.87.44,5.46,1.31c1.59.87,2.84,2.06,3.75,3.55.91,1.5,1.37,3.17,1.37,5.03,0,1.33-.23,2.62-.7,3.86-.46,1.24-1.27,2.63-2.42,4.19-1.15,1.55-2.74,3.45-4.77,5.7l-8.89,9.89v.24h17.9v3.1h-22.75Z"/>
  </g>
  <path class="cls-4" d="M1002.69,324.26c-3.87,0-6.88-1.64-9.03-4.92-2.15-3.28-3.22-7.86-3.22-13.73s1.08-10.44,3.23-13.75c2.16-3.3,5.16-4.96,9.02-4.96s6.82,1.65,8.98,4.96c2.16,3.3,3.25,7.89,3.25,13.75s-1.07,10.45-3.22,13.73c-2.15,3.28-5.15,4.92-9.01,4.92ZM1002.69,321.18c2.8,0,4.98-1.37,6.54-4.11,1.56-2.74,2.34-6.56,2.34-11.46s-.78-8.75-2.34-11.51-3.74-4.14-6.54-4.14-5,1.38-6.57,4.14-2.34,6.6-2.34,11.51.78,8.72,2.34,11.46c1.56,2.74,3.75,4.11,6.57,4.11Z"/>
  <path class="cls-4" d="M47.46,324.26c-3.87,0-6.88-1.64-9.03-4.92-2.15-3.28-3.22-7.86-3.22-13.73s1.08-10.44,3.23-13.75c2.16-3.3,5.16-4.96,9.02-4.96s6.82,1.65,8.98,4.96c2.16,3.3,3.25,7.89,3.25,13.75s-1.07,10.45-3.22,13.73c-2.15,3.28-5.15,4.92-9.01,4.92ZM47.46,321.18c2.8,0,4.98-1.37,6.54-4.11,1.56-2.74,2.34-6.56,2.34-11.46s-.78-8.75-2.34-11.51-3.74-4.14-6.54-4.14-5,1.38-6.57,4.14-2.34,6.6-2.34,11.51.78,8.72,2.34,11.46c1.56,2.74,3.75,4.11,6.57,4.11Z"/>
  <path class="cls-5" d="M529.1,324.26c-3.87,0-6.88-1.64-9.03-4.92-2.15-3.28-3.22-7.86-3.22-13.73s1.08-10.44,3.23-13.75c2.16-3.3,5.16-4.96,9.02-4.96s6.82,1.65,8.98,4.96c2.16,3.3,3.25,7.89,3.25,13.75s-1.07,10.45-3.22,13.73c-2.15,3.28-5.15,4.92-9.01,4.92ZM529.1,321.18c2.8,0,4.98-1.37,6.54-4.11,1.56-2.74,2.34-6.56,2.34-11.46s-.78-8.75-2.34-11.51-3.74-4.14-6.54-4.14-5,1.38-6.57,4.14-2.34,6.6-2.34,11.51.78,8.72,2.34,11.46c1.56,2.74,3.75,4.11,6.57,4.11Z"/>
  <line class="cls-3" x1="65.91" y1="357.95" x2="1871.19" y2="357.95"/>
  <g class="cls-6">
    <path class="cls-1" d="M1029.54,359.15c-29.63,110.71-71.67,310.53-121.97,310.47-80.73-.08-148.85-621-238.43-621s-151.6,620.21-242.12,620.62c-86.58.38-155.5-619.75-241.09-619.75-46.72,0-97.91,207.88-120.01,307.08"/>
    <path class="cls-1" d="M1871.19,669.62c-80.73-.08-148.85-621-238.43-621s-151.6,620.21-242.12,620.62c-86.58.38-155.5-619.75-241.09-619.75-46.72,0-97.91,207.88-120.01,307.08"/>
  </g>
  <circle class="cls-2" cx="65.91" cy="359.12" r="13.6"/>
  <circle class="cls-2" cx="547.72" cy="357.95" r="13.6"/>
  <circle class="cls-2" cx="791" cy="357.95" r="13.6"/>
  <circle class="cls-2" cx="1029.54" cy="357.95" r="13.6"/>
  <circle class="cls-2" cx="1268.34" cy="357.95" r="13.6"/>
  <circle class="cls-2" cx="1511.35" cy="357.95" r="13.6"/>
  <circle class="cls-2" cx="909.18" cy="666.2" r="13.6"/>
  <circle class="cls-2" cx="1392.16" cy="666.2" r="13.6"/>
  <circle class="cls-2" cx="306.82" cy="359.12" r="13.6"/>
  <circle class="cls-2" cx="185.17" cy="52.4" r="13.6"/>
  <circle class="cls-2" cx="668.84" cy="52.4" r="13.6"/>
  <circle class="cls-2" cx="1151.71" cy="52.4" r="13.6"/>
  <circle class="cls-2" cx="423.51" cy="666.2" r="13.6"/>
  <g>
    <path class="cls-4" d="M387.4,735.23c-2.26,0-4.28-.41-6.05-1.22-1.77-.81-3.18-1.95-4.21-3.39-1.03-1.45-1.57-3.12-1.62-5.03h3.49c.06,1.32.47,2.47,1.22,3.45.75.99,1.74,1.75,2.98,2.28,1.24.54,2.62.81,4.15.81,1.66,0,3.13-.31,4.41-.93,1.28-.62,2.27-1.46,2.99-2.54.72-1.07,1.07-2.3,1.07-3.69,0-2.18-.83-3.96-2.48-5.32-1.65-1.37-3.89-2.05-6.73-2.05h-2.15v-3.08h2.15c2.33,0,4.24-.62,5.75-1.87,1.51-1.25,2.26-2.91,2.26-4.99s-.66-3.61-1.98-4.86-3.06-1.88-5.22-1.88c-1.4,0-2.68.27-3.85.81-1.16.54-2.1,1.3-2.81,2.28-.71.99-1.08,2.14-1.11,3.48h-3.37c.05-1.89.57-3.56,1.57-5s2.34-2.58,4.02-3.39c1.68-.81,3.54-1.22,5.59-1.22s4.01.44,5.59,1.32c1.58.88,2.8,2.05,3.66,3.5.86,1.46,1.29,3.06,1.29,4.8,0,2.07-.56,3.83-1.68,5.3s-2.65,2.48-4.57,3.05v.24c2.33.46,4.16,1.48,5.49,3.08,1.33,1.59,2,3.54,2,5.83,0,1.95-.51,3.7-1.54,5.24s-2.43,2.75-4.21,3.65c-1.78.89-3.82,1.34-6.12,1.34Z"/>
    <path class="cls-4" d="M428.49,731.89c-1.9.11-3.37-.31-4.38-1.26-1.02-.95-1.53-2.4-1.53-4.36v-18.97h-11.33v24.44h-3.3v-24.44h-4.49v-2.86h27.17v2.86h-4.76v18.24c0,1.38.24,2.32.71,2.79.47.48,1.23.67,2.27.57.34-.02.59-.03.74-.05.15-.02.31-.05.48-.1l.68,2.81c-.26.07-.59.13-.99.21-.4.07-.83.11-1.28.11Z"/>
    <path class="cls-4" d="M447.88,693.66l-11.72,43.55h-3.1l11.72-43.55h3.1Z"/>
    <path class="cls-4" d="M448.22,734.74v-2.54l11.94-13.33c1.5-1.69,2.72-3.15,3.66-4.37.94-1.22,1.64-2.36,2.08-3.41s.66-2.14.66-3.28c0-2.07-.7-3.73-2.1-4.99-1.4-1.26-3.16-1.89-5.27-1.89s-3.99.69-5.33,2.08-2.01,3.14-2.01,5.27h-3.34c0-2.02.47-3.81,1.4-5.37.94-1.56,2.22-2.79,3.85-3.69,1.63-.9,3.47-1.34,5.54-1.34s3.87.44,5.46,1.31c1.59.87,2.84,2.06,3.75,3.55.91,1.5,1.37,3.17,1.37,5.03,0,1.33-.23,2.62-.7,3.86s-1.27,2.63-2.42,4.19c-1.15,1.55-2.74,3.46-4.77,5.7l-8.89,9.89v.24h17.9v3.1h-22.75Z"/>
  </g>
  <g>
    <path class="cls-5" d="M873.07,735.23c-2.26,0-4.28-.41-6.05-1.22-1.77-.81-3.18-1.95-4.21-3.39-1.03-1.45-1.57-3.12-1.62-5.03h3.49c.06,1.32.47,2.47,1.22,3.45.75.99,1.74,1.75,2.98,2.28,1.24.54,2.62.81,4.15.81,1.66,0,3.13-.31,4.41-.93,1.28-.62,2.27-1.46,2.99-2.54.72-1.07,1.07-2.3,1.07-3.69,0-2.18-.83-3.96-2.48-5.32-1.65-1.37-3.89-2.05-6.73-2.05h-2.15v-3.08h2.15c2.33,0,4.24-.62,5.75-1.87,1.51-1.25,2.26-2.91,2.26-4.99s-.66-3.61-1.98-4.86-3.06-1.88-5.22-1.88c-1.4,0-2.68.27-3.85.81-1.16.54-2.1,1.3-2.81,2.28-.71.99-1.08,2.14-1.11,3.48h-3.37c.05-1.89.57-3.56,1.57-5s2.34-2.58,4.02-3.39c1.68-.81,3.54-1.22,5.59-1.22s4.01.44,5.59,1.32c1.58.88,2.8,2.05,3.66,3.5.86,1.46,1.29,3.06,1.29,4.8,0,2.07-.56,3.83-1.68,5.3s-2.65,2.48-4.57,3.05v.24c2.33.46,4.16,1.48,5.49,3.08,1.33,1.59,2,3.54,2,5.83,0,1.95-.51,3.7-1.54,5.24s-2.43,2.75-4.21,3.65c-1.78.89-3.82,1.34-6.12,1.34Z"/>
    <path class="cls-5" d="M914.15,731.89c-1.9.11-3.37-.31-4.38-1.26-1.02-.95-1.53-2.4-1.53-4.36v-18.97h-11.33v24.44h-3.3v-24.44h-4.49v-2.86h27.17v2.86h-4.76v18.24c0,1.38.24,2.32.71,2.79.47.48,1.23.67,2.27.57.34-.02.59-.03.74-.05.15-.02.31-.05.48-.1l.68,2.81c-.26.07-.59.13-.99.21-.4.07-.83.11-1.28.11Z"/>
    <path class="cls-5" d="M933.54,693.66l-11.72,43.55h-3.1l11.72-43.55h3.1Z"/>
    <path class="cls-5" d="M933.89,734.74v-2.54l11.94-13.33c1.5-1.69,2.72-3.15,3.66-4.37.94-1.22,1.64-2.36,2.08-3.41s.66-2.14.66-3.28c0-2.07-.7-3.73-2.1-4.99-1.4-1.26-3.16-1.89-5.27-1.89s-3.99.69-5.33,2.08-2.01,3.14-2.01,5.27h-3.34c0-2.02.47-3.81,1.4-5.37.94-1.56,2.22-2.79,3.85-3.69,1.63-.9,3.47-1.34,5.54-1.34s3.87.44,5.46,1.31c1.59.87,2.84,2.06,3.75,3.55.91,1.5,1.37,3.17,1.37,5.03,0,1.33-.23,2.62-.7,3.86s-1.27,2.63-2.42,4.19c-1.15,1.55-2.74,3.46-4.77,5.7l-8.89,9.89v.24h17.9v3.1h-22.75Z"/>
  </g>
  <g>
    <path class="cls-4" d="M1356.05,735.23c-2.26,0-4.28-.41-6.05-1.22-1.77-.81-3.18-1.95-4.21-3.39s-1.57-3.12-1.62-5.03h3.49c.06,1.32.47,2.47,1.22,3.45.75.99,1.74,1.75,2.98,2.28,1.24.54,2.62.81,4.15.81,1.66,0,3.13-.31,4.41-.93s2.27-1.46,2.99-2.54c.72-1.07,1.07-2.3,1.07-3.69,0-2.18-.83-3.96-2.48-5.32s-3.89-2.05-6.73-2.05h-2.15v-3.08h2.15c2.33,0,4.24-.62,5.75-1.87s2.26-2.91,2.26-4.99-.66-3.61-1.98-4.86-3.06-1.88-5.22-1.88c-1.4,0-2.68.27-3.85.81s-2.1,1.3-2.81,2.28c-.71.99-1.08,2.14-1.11,3.48h-3.37c.05-1.89.57-3.56,1.57-5s2.34-2.58,4.02-3.39c1.68-.81,3.54-1.22,5.59-1.22s4.01.44,5.59,1.32c1.58.88,2.8,2.05,3.66,3.5.86,1.46,1.29,3.06,1.29,4.8,0,2.07-.56,3.83-1.68,5.3s-2.65,2.48-4.57,3.05v.24c2.33.46,4.16,1.48,5.49,3.08,1.33,1.59,2,3.54,2,5.83,0,1.95-.51,3.7-1.54,5.24s-2.43,2.75-4.21,3.65c-1.78.89-3.82,1.34-6.12,1.34Z"/>
    <path class="cls-4" d="M1397.14,731.89c-1.9.11-3.37-.31-4.38-1.26s-1.53-2.4-1.53-4.36v-18.97h-11.33v24.44h-3.3v-24.44h-4.49v-2.86h27.17v2.86h-4.76v18.24c0,1.38.24,2.32.71,2.79.47.48,1.23.67,2.27.57.34-.02.59-.03.74-.05s.31-.05.48-.1l.68,2.81c-.26.07-.59.13-.99.21s-.83.11-1.28.11Z"/>
    <path class="cls-4" d="M1416.52,693.66l-11.72,43.55h-3.1l11.72-43.55h3.1Z"/>
    <path class="cls-4" d="M1416.87,734.74v-2.54l11.94-13.33c1.5-1.69,2.72-3.15,3.66-4.37.94-1.22,1.64-2.36,2.08-3.41s.66-2.14.66-3.28c0-2.07-.7-3.73-2.1-4.99-1.4-1.26-3.16-1.89-5.27-1.89s-3.99.69-5.33,2.08-2.01,3.14-2.01,5.27h-3.34c0-2.02.47-3.81,1.4-5.37s2.22-2.79,3.85-3.69c1.63-.9,3.47-1.34,5.54-1.34s3.87.44,5.46,1.31c1.59.87,2.84,2.06,3.75,3.55.91,1.5,1.37,3.17,1.37,5.03,0,1.33-.23,2.62-.7,3.86s-1.27,2.63-2.42,4.19c-1.15,1.55-2.74,3.46-4.77,5.7l-8.89,9.89v.24h17.9v3.1h-22.75Z"/>
  </g>
  <path class="cls-4" d="M291.73,412.11c-1.9.11-3.37-.31-4.38-1.26-1.02-.95-1.53-2.4-1.53-4.36v-18.97h-11.33v24.44h-3.3v-24.44h-4.49v-2.86h27.17v2.86h-4.76v18.24c0,1.38.24,2.32.71,2.8.47.48,1.23.67,2.27.57.34-.02.59-.03.74-.05.15-.02.31-.05.48-.1l.68,2.81c-.26.07-.59.13-.99.21-.4.07-.83.11-1.28.11Z"/>
  <g>
    <path class="cls-4" d="M467.26,411.96v-2.54l11.94-13.33c1.5-1.69,2.72-3.15,3.66-4.37.94-1.22,1.64-2.36,2.08-3.41s.66-2.14.66-3.28c0-2.07-.7-3.73-2.1-4.99-1.4-1.26-3.16-1.89-5.27-1.89s-3.99.69-5.33,2.08-2.01,3.14-2.01,5.27h-3.34c0-2.02.47-3.81,1.4-5.37.94-1.56,2.22-2.79,3.85-3.69,1.63-.9,3.47-1.34,5.54-1.34s3.87.44,5.46,1.31c1.59.87,2.84,2.06,3.75,3.55.91,1.5,1.37,3.17,1.37,5.03,0,1.33-.23,2.62-.7,3.86s-1.27,2.63-2.42,4.19c-1.15,1.55-2.74,3.46-4.77,5.7l-8.89,9.89v.24h17.9v3.1h-22.75Z"/>
    <path class="cls-4" d="M519.92,412.11c-1.9.11-3.37-.31-4.38-1.26-1.02-.95-1.53-2.4-1.53-4.36v-18.97h-11.33v24.44h-3.3v-24.44h-4.49v-2.86h27.17v2.86h-4.76v18.24c0,1.38.24,2.32.71,2.79.47.48,1.23.67,2.27.57.34-.02.59-.03.74-.05.15-.02.31-.05.48-.1l.68,2.81c-.26.07-.59.13-.99.21-.4.07-.83.11-1.28.11Z"/>
  </g>
  <path class="cls-5" d="M776.39,412.11c-1.9.11-3.37-.31-4.38-1.26-1.02-.95-1.53-2.4-1.53-4.36v-18.97h-11.33v24.44h-3.3v-24.44h-4.49v-2.86h27.17v2.86h-4.76v18.24c0,1.38.24,2.32.71,2.8.47.48,1.23.67,2.27.57.34-.02.59-.03.74-.05.15-.02.31-.05.48-.1l.68,2.81c-.26.07-.59.13-.99.21-.4.07-.83.11-1.28.11Z"/>
  <g>
    <path class="cls-5" d="M951.92,411.96v-2.54l11.94-13.33c1.5-1.69,2.72-3.15,3.66-4.37.94-1.22,1.64-2.36,2.08-3.41s.66-2.14.66-3.28c0-2.07-.7-3.73-2.1-4.99-1.4-1.26-3.16-1.89-5.27-1.89s-3.99.69-5.33,2.08-2.01,3.14-2.01,5.27h-3.34c0-2.02.47-3.81,1.4-5.37.94-1.56,2.22-2.79,3.85-3.69,1.63-.9,3.47-1.34,5.54-1.34s3.87.44,5.46,1.31c1.59.87,2.84,2.06,3.75,3.55.91,1.5,1.37,3.17,1.37,5.03,0,1.33-.23,2.62-.7,3.86s-1.27,2.63-2.42,4.19c-1.15,1.55-2.74,3.46-4.77,5.7l-8.89,9.89v.24h17.9v3.1h-22.75Z"/>
    <path class="cls-5" d="M1004.58,412.11c-1.9.11-3.37-.31-4.38-1.26-1.02-.95-1.53-2.4-1.53-4.36v-18.97h-11.33v24.44h-3.3v-24.44h-4.49v-2.86h27.17v2.86h-4.76v18.24c0,1.38.24,2.32.71,2.79.47.48,1.23.67,2.27.57.34-.02.59-.03.74-.05.15-.02.31-.05.48-.1l.68,2.81c-.26.07-.59.13-.99.21-.4.07-.83.11-1.28.11Z"/>
  </g>
  <path class="cls-4" d="M1262.06,412.11c-1.9.11-3.37-.31-4.38-1.26-1.02-.95-1.53-2.4-1.53-4.36v-18.97h-11.33v24.44h-3.3v-24.44h-4.49v-2.86h27.17v2.86h-4.76v18.24c0,1.38.24,2.32.71,2.8.47.48,1.23.67,2.27.57.34-.02.59-.03.75-.05.15-.02.31-.05.48-.1l.68,2.81c-.26.07-.59.13-.99.21-.4.07-.83.11-1.28.11Z"/>
  <g>
    <path class="cls-4" d="M1437.59,411.96v-2.54l11.94-13.33c1.5-1.69,2.72-3.15,3.66-4.37.94-1.22,1.64-2.36,2.08-3.41s.66-2.14.66-3.28c0-2.07-.7-3.73-2.1-4.99-1.4-1.26-3.16-1.89-5.27-1.89s-3.99.69-5.33,2.08-2.01,3.14-2.01,5.27h-3.34c0-2.02.47-3.81,1.4-5.37s2.22-2.79,3.85-3.69c1.63-.9,3.47-1.34,5.54-1.34s3.87.44,5.46,1.31c1.59.87,2.84,2.06,3.75,3.55.91,1.5,1.37,3.17,1.37,5.03,0,1.33-.23,2.62-.7,3.86s-1.27,2.63-2.42,4.19c-1.15,1.55-2.74,3.46-4.77,5.7l-8.89,9.89v.24h17.9v3.1h-22.75Z"/>
    <path class="cls-4" d="M1490.25,412.11c-1.9.11-3.37-.31-4.38-1.26s-1.53-2.4-1.53-4.36v-18.97h-11.33v24.44h-3.3v-24.44h-4.49v-2.86h27.17v2.86h-4.76v18.24c0,1.38.24,2.32.71,2.79.47.48,1.23.67,2.27.57.34-.02.59-.03.74-.05s.31-.05.48-.1l.68,2.81c-.26.07-.59.13-.99.21s-.83.11-1.28.11Z"/>
  </g>
</svg>