<?xml version="1.0" encoding="UTF-8"?>
<svg id="Layer_1" data-name="Layer 1" xmlns="http://www.w3.org/2000/svg" viewBox="0 0 342 123.76">
  <defs>
    <style>
      .cls-1, .cls-2 {
        fill: none;
      }

      .cls-1, .cls-2, .cls-3 {
        stroke: #000;
        stroke-miterlimit: 10;
      }

      .cls-2 {
        stroke-width: .75px;
      }

      .cls-3 {
        fill: #fff;
      }
    </style>
  </defs>
  <g>
    <g>
      <path d="M130.55,68.21h-2.2l-.53,1.39h-.73l1.97-4.96h.79l1.97,4.96h-.74l-.54-1.39ZM128.6,67.58h1.71l-.86-2.23-.85,2.23Z"/>
      <path d="M133.86,65.27v4.33h-.69v-4.33h-1.66v-.64h4v.64h-1.66Z"/>
      <path d="M138.15,65.27v4.33h-.69v-4.33h-1.66v-.64h4v.64h-1.66Z"/>
      <path d="M139.98,70.15v-.55h3.58v.55h-3.58Z"/>
      <path d="M147.52,69.6v-2.21h-2.53v2.21h-.69v-4.96h.69v2.12h2.53v-2.12h.69v4.96h-.69Z"/>
      <path d="M152.36,68.21h-2.2l-.53,1.39h-.73l1.97-4.96h.79l1.97,4.96h-.74l-.54-1.39ZM150.41,67.58h1.71l-.86-2.23-.85,2.23Z"/>
      <path d="M157.71,69.6l-2.68-4.05v4.05h-.69v-4.96h.92l2.48,3.81v-3.81h.69v4.96h-.71Z"/>
      <path d="M159.68,69.6v-4.96h1.74c.31,0,.61.05.9.16.29.11.54.27.75.48.21.21.39.47.51.78.13.31.19.67.19,1.07s-.06.76-.19,1.07c-.13.31-.3.57-.52.77-.22.21-.47.36-.76.47-.29.11-.59.16-.9.16h-1.72ZM161.38,68.99c.23,0,.45-.04.65-.12.21-.08.38-.19.54-.35.15-.15.27-.35.36-.58s.13-.51.13-.82-.04-.59-.13-.82c-.09-.24-.21-.43-.36-.59s-.33-.27-.53-.35-.42-.12-.65-.12h-1.03v3.75h1.01Z"/>
      <path d="M164.72,69.6v-4.96h.69v4.32h2.34v.64h-3.03Z"/>
      <path d="M168.56,69.6v-4.96h3.02v.64h-2.33v1.53h2.11v.64h-2.11v1.52h2.33v.64h-3.02Z"/>
      <path d="M172.1,70.15v-.55h3.58v.55h-3.58Z"/>
      <path d="M179.6,64.64h.72l-1.91,4.96h-.68l-1.87-4.96h.73l1.5,4.08,1.51-4.08Z"/>
      <path d="M183.53,68.21h-2.2l-.53,1.39h-.73l1.97-4.96h.79l1.97,4.96h-.74l-.54-1.39ZM181.58,67.58h1.71l-.86-2.23-.85,2.23Z"/>
      <path d="M185.51,69.6v-4.96h.69v4.32h2.34v.64h-3.03Z"/>
      <path d="M191.06,69.7c-.25,0-.49-.04-.7-.12s-.41-.19-.57-.34-.29-.34-.38-.56c-.09-.22-.14-.48-.14-.78v-3.27h.68v3.25c0,.38.1.67.29.88.19.21.47.31.82.31s.62-.1.81-.31c.19-.21.29-.5.29-.88v-3.25h.69v3.27c0,.29-.04.55-.14.78-.09.22-.22.41-.38.56s-.35.27-.57.34c-.22.08-.45.12-.7.12Z"/>
      <path d="M194.04,69.6v-4.96h3.02v.64h-2.33v1.53h2.11v.64h-2.11v1.52h2.33v.64h-3.02Z"/>
      <path d="M197.58,70.15v-.55h3.58v.55h-3.58Z"/>
      <path d="M205.27,69.6l-2.68-4.05v4.05h-.69v-4.96h.92l2.48,3.81v-3.81h.69v4.96h-.71Z"/>
      <path d="M209.03,65.27v4.33h-.69v-4.33h-1.66v-.64h4v.64h-1.66Z"/>
      <path d="M211.39,69.6v-4.96h3.02v.64h-2.33v1.6h2.11v.64h-2.11v2.09h-.69Z"/>
    </g>
    <g>
      <line class="cls-2" x1="46.91" y1="74.6" x2="290.69" y2="74.6"/>
      <polygon points="289.87 77.4 294.72 74.6 289.87 71.79 289.87 77.4"/>
    </g>
  </g>
  <line class="cls-1" x1="46.91" y1="97.99" x2="46.91" y2="52.6"/>
  <line class="cls-1" x1="295.09" y1="52.6" x2="295.09" y2="97.99"/>
  <g>
    <rect class="cls-3" x="17.23" y="24.88" width="59.36" height="28.71"/>
    <g>
      <path d="M41.81,42.36v-3.09h-3.55v3.09h-.96v-6.95h.96v2.97h3.55v-2.97h.96v6.95h-.96Z"/>
      <path d="M46.51,37.5c.35,0,.68.06.97.19.29.13.55.3.76.52.22.22.38.49.5.79.12.3.18.64.18,1s-.06.69-.18,1c-.12.31-.28.57-.5.79-.21.22-.47.4-.76.53-.29.13-.62.19-.97.19s-.68-.06-.97-.19c-.29-.13-.55-.3-.76-.53-.22-.22-.38-.49-.5-.79-.12-.31-.18-.64-.18-1s.06-.69.18-1c.12-.3.28-.57.5-.79.22-.22.47-.4.76-.52.29-.13.62-.19.97-.19ZM46.51,41.69c.2,0,.38-.04.56-.11.18-.07.33-.18.47-.32.14-.14.25-.32.32-.53s.12-.45.12-.72-.04-.52-.12-.72c-.08-.21-.19-.38-.32-.53-.14-.14-.29-.25-.47-.32-.18-.07-.36-.11-.56-.11s-.38.04-.56.11c-.18.07-.33.18-.47.32-.14.14-.25.32-.32.53-.08.21-.12.45-.12.72s.04.52.12.72c.08.21.19.39.32.53.14.14.29.25.47.32.18.07.36.11.56.11Z"/>
      <path d="M50.54,40.84c.03.25.14.46.32.63.18.17.44.25.77.25.26,0,.46-.06.6-.19.14-.12.21-.27.21-.44,0-.15-.05-.28-.16-.38-.1-.1-.25-.18-.45-.22l-.8-.18c-.37-.08-.66-.23-.87-.47s-.31-.52-.31-.85c0-.2.04-.39.13-.57.09-.18.21-.34.36-.47.15-.14.33-.25.53-.32s.42-.12.65-.12c.32,0,.59.04.81.14.22.09.4.21.53.34.14.13.24.27.31.42.07.14.12.27.14.37l-.81.3c-.01-.06-.04-.13-.07-.23-.03-.09-.08-.18-.16-.26-.07-.08-.17-.15-.29-.21-.12-.06-.28-.09-.46-.09-.24,0-.42.06-.57.19-.14.13-.22.27-.22.44,0,.3.18.49.54.57l.76.17c.43.09.76.26.98.5s.33.54.33.9c0,.17-.04.34-.11.51-.07.17-.18.33-.32.47s-.32.26-.53.35c-.22.09-.47.13-.76.13-.33,0-.61-.05-.84-.14-.23-.09-.42-.21-.58-.34s-.27-.29-.35-.45c-.08-.16-.13-.31-.15-.45l.83-.29Z"/>
      <path d="M55.95,37.65h1.02v.83h-1.02v2.45c0,.22.05.38.15.49.1.11.27.16.51.16.06,0,.12,0,.2,0,.07,0,.13-.02.17-.03v.78s-.11.03-.23.05c-.11.02-.25.03-.4.03-.41,0-.73-.12-.96-.35-.24-.23-.35-.56-.35-.99v-2.59h-.9v-.83h.25c.25,0,.44-.07.55-.21.11-.14.17-.31.17-.52v-.77h.84v1.49Z"/>
    </g>
  </g>
  <g>
    <rect class="cls-3" x="17.23" y="24.88" width="59.36" height="28.71"/>
    <g>
      <path d="M28.25,40.42h-3.08l-.74,1.94h-1.03l2.76-6.95h1.11l2.76,6.95h-1.04l-.75-1.94ZM25.52,39.53h2.39l-1.21-3.12-1.19,3.12Z"/>
      <path d="M32.84,36.31v6.06h-.96v-6.06h-2.32v-.89h5.61v.89h-2.32Z"/>
      <path d="M39.06,36.31v6.06h-.96v-6.06h-2.32v-.89h5.61v.89h-2.32Z"/>
      <path d="M47.83,42.51c-.45,0-.88-.08-1.3-.24s-.78-.39-1.1-.7c-.32-.31-.57-.69-.76-1.14-.19-.45-.29-.97-.29-1.55s.1-1.1.29-1.54.46-.82.78-1.13.69-.54,1.11-.7.84-.24,1.27-.24c.4,0,.76.05,1.1.16s.63.25.89.44c.26.19.48.42.66.7s.32.58.41.91l-.89.31c-.13-.53-.38-.93-.75-1.22s-.84-.42-1.42-.42c-.31,0-.62.06-.92.17-.3.12-.56.29-.79.51-.23.23-.42.51-.55.86-.14.34-.21.74-.21,1.19s.07.85.21,1.19c.14.34.32.63.55.86.23.23.5.41.79.52.3.11.6.17.92.17.29,0,.56-.04.8-.13s.46-.2.64-.35c.19-.15.34-.32.47-.53.13-.21.23-.43.3-.66l.85.31c-.09.33-.23.63-.41.9s-.4.51-.66.71c-.26.2-.56.35-.89.46s-.7.17-1.1.17Z"/>
      <path d="M52.05,42.36v-7.1h.92v7.1h-.92Z"/>
      <path d="M54.28,35.87c0-.19.06-.35.19-.48s.28-.19.47-.19.35.06.48.19c.13.13.19.29.19.48s-.06.34-.19.46-.29.19-.48.19-.34-.06-.47-.19c-.13-.13-.19-.28-.19-.46ZM54.48,42.36v-4.71h.91v4.71h-.91Z"/>
      <path d="M61.07,41.02c-.07.21-.16.4-.29.58-.13.18-.28.34-.46.47-.18.13-.38.24-.61.32-.23.08-.48.12-.75.12-.31,0-.61-.06-.9-.17-.29-.11-.54-.27-.76-.49-.22-.21-.39-.48-.52-.79-.13-.31-.19-.67-.19-1.07,0-.37.06-.71.19-1.02.12-.3.29-.56.5-.78s.45-.39.72-.51.56-.18.85-.18c.36,0,.68.06.97.18s.52.29.71.5c.19.22.33.48.44.78.1.3.15.64.15,1.01,0,.06,0,.11,0,.17,0,.05,0,.09-.01.13h-3.55c0,.21.05.4.12.58.07.18.17.33.3.46s.28.22.45.29c.17.07.36.1.55.1.38,0,.68-.09.88-.27s.35-.41.44-.68l.79.28ZM60.14,39.52c-.01-.34-.13-.63-.34-.86-.22-.23-.53-.35-.95-.35-.2,0-.37.03-.52.1s-.28.16-.39.28c-.11.11-.19.24-.26.39s-.1.29-.11.44h2.58Z"/>
      <path d="M63.23,42.36h-.92v-4.71h.9v.68c.17-.29.39-.5.65-.63.26-.12.53-.19.8-.19s.53.05.74.14c.21.09.39.22.53.39s.25.36.31.59.1.47.1.74v2.99h-.92v-2.83c0-.16-.02-.32-.05-.46-.04-.14-.1-.27-.19-.38-.09-.11-.2-.19-.34-.26-.14-.06-.31-.09-.51-.09-.18,0-.34.03-.48.1-.14.07-.25.16-.34.28-.09.12-.16.26-.21.41s-.07.32-.07.5v2.72Z"/>
      <path d="M69.05,37.65h1.02v.83h-1.02v2.45c0,.22.05.38.15.49.1.11.27.16.51.16.06,0,.12,0,.2,0,.07,0,.13-.02.17-.03v.78s-.11.03-.23.05c-.11.02-.25.03-.4.03-.41,0-.73-.12-.96-.35-.24-.23-.35-.56-.35-.99v-2.59h-.9v-.83h.25c.25,0,.44-.07.55-.21.11-.14.17-.31.17-.52v-.77h.84v1.49Z"/>
    </g>
  </g>
  <g>
    <rect class="cls-3" x="265.41" y="24.88" width="59.36" height="28.71"/>
    <g>
      <path d="M275.24,40.42h-3.08l-.74,1.94h-1.03l2.76-6.95h1.11l2.76,6.95h-1.04l-.75-1.94ZM272.5,39.53h2.39l-1.21-3.12-1.19,3.12Z"/>
      <path d="M279.82,36.31v6.06h-.96v-6.06h-2.32v-.89h5.61v.89h-2.32Z"/>
      <path d="M286.05,36.31v6.06h-.96v-6.06h-2.32v-.89h5.61v.89h-2.32Z"/>
      <path d="M295.37,37.3c-.02-.12-.06-.26-.13-.4-.07-.14-.16-.27-.27-.39s-.26-.21-.44-.29-.39-.11-.63-.11c-.2,0-.38.03-.54.09-.16.06-.31.14-.43.24-.12.11-.21.23-.28.37-.07.14-.1.29-.1.46,0,.25.08.46.23.64s.37.3.67.37l1.04.22c.58.13,1.03.37,1.34.71s.47.75.47,1.25c0,.27-.06.53-.17.77s-.27.47-.48.66c-.21.19-.46.34-.75.46s-.63.17-1,.17c-.42,0-.78-.06-1.09-.19s-.57-.28-.78-.48c-.21-.2-.38-.42-.5-.66-.12-.25-.19-.49-.23-.74l.92-.29c.02.2.07.38.14.56.07.18.18.34.32.48.14.14.31.25.51.33s.43.12.69.12c.48,0,.83-.11,1.07-.32.24-.22.36-.48.36-.78,0-.25-.08-.47-.25-.67s-.43-.33-.78-.41l-.99-.22c-.5-.11-.9-.33-1.22-.64-.32-.32-.47-.74-.47-1.26,0-.27.06-.54.18-.78.12-.25.28-.47.49-.66.21-.19.45-.34.73-.46s.58-.17.9-.17c.39,0,.73.05,1,.16.28.11.51.25.7.42s.33.36.44.56c.1.2.18.4.21.59l-.86.3Z"/>
      <path d="M301.72,41.02c-.07.21-.16.4-.29.58-.13.18-.28.34-.46.47s-.38.24-.61.32c-.23.08-.48.12-.75.12-.31,0-.61-.06-.9-.17-.29-.11-.54-.27-.76-.49s-.39-.48-.52-.79c-.13-.31-.19-.67-.19-1.07,0-.37.06-.71.19-1.01s.29-.57.5-.78.45-.39.72-.51c.27-.12.56-.18.85-.18.36,0,.68.06.97.18.28.12.52.29.71.5.19.22.33.48.44.78.1.3.15.64.15,1,0,.06,0,.11,0,.17,0,.05,0,.09-.01.13h-3.55c0,.21.05.4.12.58.07.18.17.33.3.46.13.13.28.23.45.29.17.07.36.1.55.1.38,0,.68-.09.88-.27.2-.18.35-.41.44-.68l.79.27ZM300.79,39.52c-.01-.34-.13-.62-.34-.86-.22-.23-.53-.35-.95-.35-.2,0-.37.03-.52.1s-.28.16-.39.27c-.11.11-.19.24-.26.39s-.1.29-.11.44h2.58Z"/>
      <path d="M305.57,38.58c-.14-.02-.27-.03-.4-.03-.39,0-.7.11-.94.34s-.36.6-.36,1.11v2.36h-.92v-4.71h.9v.82c.08-.18.18-.33.3-.45.11-.11.23-.21.36-.27.12-.07.25-.12.38-.14.13-.03.25-.04.37-.04.07,0,.13,0,.18,0,.05,0,.1.01.12.02v.98Z"/>
      <path d="M309.03,42.36h-.93l-1.91-4.71h1.04l1.34,3.64,1.35-3.64h.99l-1.88,4.71Z"/>
      <path d="M315.83,41.02c-.07.21-.16.4-.29.58-.13.18-.28.34-.46.47s-.38.24-.61.32c-.23.08-.48.12-.75.12-.31,0-.61-.06-.9-.17-.29-.11-.54-.27-.76-.49s-.39-.48-.52-.79c-.13-.31-.19-.67-.19-1.07,0-.37.06-.71.19-1.01s.29-.57.5-.78.45-.39.72-.51c.27-.12.56-.18.85-.18.36,0,.68.06.97.18.28.12.52.29.71.5.19.22.33.48.44.78.1.3.15.64.15,1,0,.06,0,.11,0,.17,0,.05,0,.09-.01.13h-3.55c0,.21.05.4.12.58.07.18.17.33.3.46.13.13.28.23.45.29.17.07.36.1.55.1.38,0,.68-.09.88-.27.2-.18.35-.41.44-.68l.79.27ZM314.9,39.52c-.01-.34-.13-.62-.34-.86-.22-.23-.53-.35-.95-.35-.2,0-.37.03-.52.1s-.28.16-.39.27c-.11.11-.19.24-.26.39s-.1.29-.11.44h2.58Z"/>
      <path d="M319.68,38.58c-.14-.02-.27-.03-.4-.03-.39,0-.7.11-.94.34s-.36.6-.36,1.11v2.36h-.92v-4.71h.9v.82c.08-.18.18-.33.3-.45.11-.11.23-.21.36-.27.12-.07.25-.12.38-.14.13-.03.25-.04.37-.04.07,0,.13,0,.18,0,.05,0,.1.01.12.02v.98Z"/>
    </g>
  </g>
  <line class="cls-2" x1="33.79" y1="97.99" x2="60.3" y2="97.99"/>
  <line class="cls-2" x1="281.83" y1="97.99" x2="308.35" y2="97.99"/>
</svg>