<?xml version="1.0" encoding="UTF-8"?>
<svg xmlns="http://www.w3.org/2000/svg" viewBox="0 0 684 367.69">
  <defs>
    <style>
      .cls-1 {
        fill: none;
        stroke: #000;
        stroke-width: .75px;
      }

      .cls-1, .cls-2 {
        stroke-miterlimit: 10;
      }

      .cls-3 {
        fill: #fff;
      }

      .cls-4 {
        mix-blend-mode: multiply;
      }

      .cls-4, .cls-5 {
        fill: #0082fc;
      }

      .cls-6 {
        isolation: isolate;
      }

      .cls-7 {
        fill: #cce6fe;
      }

      .cls-2 {
        stroke: #fff;
        stroke-width: 15px;
      }

      .cls-2, .cls-8 {
        fill: #80c1fe;
      }
    </style>
  </defs>
  <g class="cls-6">
    <g id="Layer_1" data-name="Layer 1">
      <g>
        <rect class="cls-7" x="388.35" y="310.15" width="65.21" height="31.58"/>
        <g>
          <rect class="cls-7" x="32.47" y="313.15" width="65.21" height="31.58"/>
          <rect class="cls-7" x="109.91" y="313.15" width="69.07" height="31.58"/>
        </g>
        <g>
          <line class="cls-1" x1="184.3" y1="178.44" x2="237.02" y2="227.68"/>
          <polygon points="234.51 229.17 239.97 230.44 238.34 225.07 234.51 229.17"/>
        </g>
        <g>
          <line class="cls-1" x1="184.3" y1="178.44" x2="133.61" y2="227.62"/>
          <polygon points="132.25 225.04 130.71 230.44 136.15 229.07 132.25 225.04"/>
        </g>
        <g>
          <line class="cls-1" x1="104.51" y1="261.07" x2="142.86" y2="309.89"/>
          <polygon points="140.15 310.98 145.36 313.07 144.56 307.52 140.15 310.98"/>
        </g>
        <g>
          <line class="cls-1" x1="105.26" y1="262.02" x2="67.58" y2="309.9"/>
          <polygon points="65.88 307.52 65.08 313.07 70.29 310.99 65.88 307.52"/>
        </g>
        <g>
          <line class="cls-1" x1="498.45" y1="178.44" x2="551.17" y2="227.68"/>
          <polygon points="548.66 229.17 554.12 230.44 552.49 225.07 548.66 229.17"/>
        </g>
        <g>
          <line class="cls-1" x1="498.45" y1="178.44" x2="447.76" y2="227.62"/>
          <polygon points="446.4 225.04 444.87 230.44 450.31 229.07 446.4 225.04"/>
        </g>
        <g>
          <path d="M43.14,331.51v-6.95h2.35c.42,0,.83.08,1.22.22.39.15.73.37,1.02.67s.52.66.7,1.09c.17.43.26.94.26,1.5s-.09,1.07-.26,1.5c-.17.43-.41.79-.71,1.08s-.64.51-1.03.66c-.39.15-.79.22-1.22.22h-2.33ZM45.44,330.66c.31,0,.6-.05.88-.16.28-.11.52-.27.73-.49.21-.21.37-.49.49-.81.12-.33.18-.71.18-1.15s-.06-.82-.18-1.15-.28-.6-.49-.82c-.21-.22-.45-.38-.72-.5-.27-.11-.57-.17-.88-.17h-1.39v5.24h1.37Z"/>
          <path d="M53.96,330.17c-.06.21-.16.4-.28.58s-.27.34-.45.47c-.17.13-.37.24-.59.32-.22.08-.46.12-.73.12-.3,0-.59-.06-.87-.17-.28-.11-.52-.27-.73-.49-.21-.22-.38-.48-.5-.79s-.18-.67-.18-1.07c0-.37.06-.71.18-1.01.12-.3.28-.57.48-.78.2-.22.43-.39.7-.51.26-.12.54-.18.82-.18.35,0,.66.06.93.18.27.12.5.29.69.5.18.22.32.48.42.78s.15.64.15,1c0,.06,0,.11,0,.17,0,.05,0,.09-.01.13h-3.43c0,.21.04.4.11.58.07.18.17.33.29.46.12.13.27.23.44.29.17.07.34.1.53.1.37,0,.66-.09.85-.27.2-.18.34-.41.43-.68l.77.27ZM53.06,328.67c-.01-.34-.12-.62-.33-.86-.21-.23-.51-.35-.92-.35-.19,0-.36.03-.51.1s-.27.16-.38.27c-.1.11-.19.24-.25.39-.06.14-.1.29-.1.44h2.49Z"/>
          <path d="M55.61,329.99c.03.25.14.46.31.63s.43.25.75.25c.25,0,.44-.06.58-.19s.2-.27.2-.44c0-.15-.05-.28-.15-.38-.1-.1-.25-.18-.44-.23l-.78-.18c-.36-.08-.64-.24-.84-.47-.2-.24-.3-.52-.3-.85,0-.2.04-.39.13-.57.08-.18.2-.34.34-.48.15-.14.32-.25.52-.32.2-.08.41-.12.63-.12.31,0,.57.04.78.14.21.09.38.2.52.34.13.13.23.27.3.42.07.14.11.27.14.37l-.79.3c-.01-.06-.04-.13-.07-.23-.03-.09-.08-.18-.15-.26-.07-.08-.16-.15-.28-.21s-.27-.09-.45-.09c-.23,0-.41.06-.55.19-.14.13-.21.27-.21.44,0,.3.17.49.52.57l.74.17c.42.09.73.26.94.5.21.25.32.54.32.9,0,.17-.03.34-.1.51-.07.17-.17.33-.31.47-.14.14-.31.26-.52.35-.21.09-.45.13-.74.13-.32,0-.58-.05-.81-.14-.22-.09-.41-.21-.56-.34-.15-.14-.26-.29-.34-.45-.08-.16-.13-.31-.15-.45l.8-.29Z"/>
          <path d="M61.46,327.5c-.18,0-.36.03-.52.1s-.31.17-.44.31c-.13.14-.23.31-.31.51-.08.21-.11.45-.11.72s.04.5.11.71c.08.21.18.38.3.52.13.14.27.25.44.32.17.07.35.11.53.11.21,0,.4-.03.54-.1.15-.07.27-.15.37-.25s.17-.2.23-.32.1-.22.12-.31l.79.35c-.06.17-.14.34-.25.51-.11.17-.25.33-.42.48-.17.14-.37.26-.6.35-.23.09-.49.13-.79.13-.33,0-.64-.06-.92-.19-.28-.13-.52-.3-.72-.53-.2-.23-.36-.49-.48-.79s-.17-.64-.17-1,.06-.7.17-1.01c.12-.31.28-.57.48-.79.21-.22.45-.39.73-.51.28-.12.58-.19.9-.19.3,0,.57.04.8.13.23.09.43.2.6.35.17.14.3.31.4.49.1.18.18.36.23.53l-.8.35c-.03-.12-.08-.24-.13-.35-.06-.12-.13-.22-.23-.32s-.22-.17-.36-.24c-.14-.06-.31-.09-.5-.09Z"/>
          <path d="M67.11,327.73c-.13-.02-.26-.03-.39-.03-.37,0-.67.11-.9.34s-.34.6-.34,1.11v2.36h-.89v-4.71h.87v.82c.08-.18.18-.33.29-.45s.23-.21.35-.27c.12-.07.24-.12.37-.14.13-.03.25-.04.36-.04.06,0,.12,0,.17,0s.09.01.12.02v.98Z"/>
          <path d="M67.87,325.01c0-.19.06-.35.18-.48.12-.13.27-.19.45-.19s.34.06.46.19c.12.13.19.29.19.48s-.06.34-.19.47c-.12.13-.28.19-.46.19s-.33-.06-.45-.19c-.12-.13-.18-.28-.18-.47ZM68.07,331.51v-4.71h.88v4.71h-.88Z"/>
          <path d="M70.43,333.37v-6.58h.86v.74c.13-.24.32-.43.58-.6.26-.16.57-.25.95-.25.34,0,.64.06.9.19.26.13.48.3.65.52.17.22.31.48.4.78.09.3.14.62.14.96s-.05.68-.14.98-.23.56-.42.79c-.18.23-.41.4-.67.53s-.56.19-.89.19c-.35,0-.66-.08-.91-.23-.25-.15-.44-.33-.57-.54v2.5h-.88ZM74,329.15c0-.24-.03-.45-.09-.65-.06-.2-.15-.37-.26-.52-.11-.15-.25-.26-.42-.35s-.35-.13-.56-.13-.39.04-.55.13c-.17.08-.31.2-.43.35-.12.15-.21.32-.27.52-.06.2-.09.42-.09.65s.03.47.09.67c.06.21.15.38.27.53.12.15.26.26.43.34.17.08.35.12.55.12s.39-.04.56-.12c.16-.08.3-.2.42-.34.12-.15.21-.32.27-.53.06-.21.09-.43.09-.67Z"/>
          <path d="M77.29,326.79h.98v.83h-.98v2.45c0,.22.05.38.14.49.09.11.26.16.49.16.06,0,.12,0,.19,0,.07,0,.12-.02.16-.03v.78s-.11.03-.22.05c-.11.02-.24.03-.39.03-.39,0-.7-.12-.93-.35-.23-.23-.34-.56-.34-1v-2.59h-.87v-.83h.25c.25,0,.42-.07.54-.21.11-.14.17-.31.17-.52v-.76h.81v1.49Z"/>
          <path d="M81.32,326.65c.34,0,.65.06.94.19.28.13.53.3.74.52.21.22.37.49.48.79.11.3.17.64.17,1s-.06.69-.17,1c-.11.31-.27.57-.48.79-.21.22-.45.4-.74.52-.28.13-.6.19-.94.19s-.65-.06-.94-.19c-.28-.13-.53-.3-.74-.52-.21-.22-.37-.49-.48-.79-.11-.31-.17-.64-.17-1s.06-.69.17-1c.11-.3.27-.57.48-.79.21-.22.45-.4.74-.52.28-.13.6-.19.94-.19ZM81.32,330.83c.19,0,.37-.04.54-.11.17-.07.32-.18.45-.32s.24-.32.31-.53.11-.45.11-.73-.04-.51-.11-.72c-.08-.21-.18-.38-.31-.52-.13-.14-.28-.25-.45-.32-.17-.07-.35-.11-.54-.11s-.37.04-.54.11c-.17.07-.32.18-.45.32-.13.14-.24.32-.31.52-.08.21-.11.45-.11.72s.04.52.11.73c.08.21.18.39.31.53.13.14.28.25.45.32.17.07.35.11.54.11Z"/>
          <path d="M87.33,327.73c-.13-.02-.26-.03-.39-.03-.37,0-.67.11-.9.34s-.34.6-.34,1.11v2.36h-.89v-4.71h.87v.82c.08-.18.18-.33.29-.45s.23-.21.35-.27c.12-.07.24-.12.37-.14.13-.03.25-.04.36-.04.06,0,.12,0,.17,0s.09.01.12.02v.98Z"/>
        </g>
        <g>
          <path d="M399.19,328.51v-6.95h2.35c.42,0,.83.08,1.22.22.39.15.73.37,1.02.67.29.29.52.66.7,1.09.17.43.26.94.26,1.5s-.09,1.07-.26,1.5c-.17.43-.41.79-.71,1.08s-.64.51-1.03.66c-.39.15-.79.22-1.22.22h-2.33ZM401.49,327.66c.31,0,.6-.05.88-.16.28-.11.52-.27.73-.49.21-.21.37-.49.49-.81.12-.33.18-.71.18-1.15s-.06-.82-.18-1.15c-.12-.33-.28-.6-.49-.82-.21-.22-.45-.38-.72-.5-.27-.11-.57-.17-.88-.17h-1.39v5.24h1.37Z"/>
          <path d="M410.01,327.17c-.06.21-.16.4-.28.58s-.27.34-.45.47-.37.24-.59.32c-.22.08-.46.12-.73.12-.3,0-.59-.06-.87-.17s-.52-.27-.73-.49c-.21-.22-.38-.48-.5-.79s-.18-.67-.18-1.07c0-.37.06-.71.18-1.01s.28-.57.48-.78.43-.39.7-.51c.27-.12.54-.18.82-.18.35,0,.66.06.93.18.28.12.5.29.69.5.18.22.32.48.42.78s.15.64.15,1c0,.06,0,.11,0,.17,0,.05,0,.09-.01.13h-3.43c0,.21.04.4.11.58.07.18.17.33.29.46.12.13.27.23.44.29.17.07.35.1.54.1.37,0,.66-.09.85-.27.2-.18.34-.41.43-.68l.77.27ZM409.11,325.67c-.01-.34-.12-.62-.33-.86-.21-.23-.52-.35-.92-.35-.19,0-.36.03-.51.1s-.27.16-.38.27c-.1.11-.19.24-.25.39s-.1.29-.1.44h2.49Z"/>
          <path d="M411.66,326.99c.03.25.13.46.31.63.18.17.43.25.75.25.25,0,.44-.06.58-.19s.2-.27.2-.44c0-.15-.05-.28-.15-.38-.1-.1-.25-.18-.44-.23l-.78-.18c-.36-.08-.64-.24-.84-.47-.2-.24-.3-.52-.3-.85,0-.2.04-.39.13-.57s.2-.34.35-.48c.14-.14.32-.25.52-.32s.41-.12.63-.12c.31,0,.57.04.78.14s.38.2.52.34c.13.13.23.27.3.42s.11.27.14.37l-.79.3c-.01-.06-.04-.13-.07-.23s-.08-.18-.15-.26c-.07-.08-.16-.15-.29-.21-.12-.06-.27-.09-.45-.09-.23,0-.41.06-.55.19-.14.13-.21.27-.21.44,0,.3.17.49.52.57l.74.17c.42.09.73.26.94.5.21.25.32.54.32.9,0,.17-.04.34-.1.51-.07.17-.17.33-.31.47s-.31.26-.52.35c-.21.09-.46.13-.74.13-.32,0-.59-.05-.81-.14-.22-.09-.41-.21-.56-.34-.15-.14-.26-.29-.34-.45s-.13-.31-.15-.45l.8-.29Z"/>
          <path d="M417.51,324.5c-.18,0-.36.03-.52.1s-.31.17-.44.31c-.13.14-.23.31-.31.51-.08.21-.12.45-.12.72s.04.5.12.71c.07.21.18.38.3.52.12.14.27.25.44.32.17.07.35.11.53.11.21,0,.4-.03.54-.1.15-.07.27-.15.37-.25.1-.1.17-.2.23-.32s.1-.22.12-.31l.79.35c-.06.17-.14.34-.25.51-.11.17-.25.33-.42.48-.17.14-.37.26-.6.35-.23.09-.49.13-.79.13-.33,0-.64-.06-.92-.19-.28-.13-.52-.3-.72-.53-.2-.23-.36-.49-.48-.79s-.18-.64-.18-1,.06-.7.18-1.01c.12-.31.28-.57.48-.79.21-.22.45-.39.73-.51s.58-.19.9-.19c.3,0,.57.04.8.13.23.09.43.2.6.35.17.14.3.31.4.49s.18.36.23.53l-.8.35c-.03-.12-.08-.24-.13-.35-.06-.12-.13-.22-.23-.32s-.22-.17-.36-.24c-.14-.06-.31-.09-.5-.09Z"/>
          <path d="M423.16,324.73c-.13-.02-.26-.03-.39-.03-.37,0-.67.11-.9.34s-.35.6-.35,1.11v2.36h-.89v-4.71h.87v.82c.08-.18.18-.33.29-.45.11-.11.23-.21.35-.27.12-.07.24-.12.37-.14s.25-.04.36-.04c.06,0,.12,0,.18,0,.05,0,.09.01.12.02v.98Z"/>
          <path d="M423.92,322.01c0-.19.06-.35.19-.48.12-.13.27-.19.45-.19s.34.06.46.19c.12.13.19.29.19.48s-.06.34-.19.47c-.12.13-.28.19-.46.19s-.33-.06-.45-.19c-.12-.13-.19-.28-.19-.47ZM424.12,328.51v-4.71h.88v4.71h-.88Z"/>
          <path d="M426.48,330.37v-6.58h.86v.74c.12-.24.32-.43.58-.6.26-.16.57-.25.95-.25.34,0,.64.06.9.19.26.13.48.3.65.52.17.22.31.48.4.78.09.3.14.62.14.96s-.05.68-.14.98c-.09.3-.23.56-.42.79s-.41.4-.67.53-.56.19-.89.19c-.35,0-.66-.08-.91-.23s-.44-.33-.57-.54v2.5h-.88ZM430.05,326.15c0-.24-.03-.45-.1-.65s-.15-.37-.26-.52c-.12-.15-.26-.26-.42-.35-.17-.08-.36-.13-.56-.13s-.38.04-.55.13-.31.2-.43.35c-.12.15-.21.32-.27.52s-.1.42-.1.65.03.47.1.67.15.38.27.53c.12.15.26.26.43.34.17.08.35.12.55.12s.39-.04.56-.12c.16-.08.3-.2.42-.34.12-.15.21-.32.27-.53s.1-.43.1-.67Z"/>
          <path d="M433.34,323.79h.98v.83h-.98v2.45c0,.22.05.38.14.49.1.11.26.16.49.16.06,0,.12,0,.19,0,.07,0,.12-.02.16-.03v.78s-.11.03-.22.05c-.11.02-.24.03-.39.03-.39,0-.7-.12-.93-.35-.23-.23-.34-.56-.34-1v-2.59h-.87v-.83h.25c.25,0,.42-.07.54-.21.11-.14.17-.31.17-.52v-.76h.81v1.49Z"/>
          <path d="M437.37,323.65c.34,0,.65.06.94.19.28.13.53.3.74.52.21.22.37.49.48.79.11.3.17.64.17,1s-.06.69-.17,1c-.11.31-.28.57-.48.79-.21.22-.46.4-.74.52-.29.13-.6.19-.94.19s-.65-.06-.94-.19c-.28-.13-.53-.3-.74-.52-.21-.22-.37-.49-.48-.79-.11-.31-.17-.64-.17-1s.06-.69.17-1c.11-.3.27-.57.48-.79.21-.22.46-.4.74-.52.28-.13.6-.19.94-.19ZM437.37,327.83c.19,0,.37-.04.54-.11.17-.07.32-.18.46-.32s.24-.32.31-.53.11-.45.11-.73-.04-.51-.11-.72c-.08-.21-.18-.38-.31-.52-.13-.14-.29-.25-.46-.32-.17-.07-.35-.11-.54-.11s-.37.04-.54.11c-.17.07-.32.18-.46.32-.13.14-.24.32-.31.52-.08.21-.11.45-.11.72s.04.52.11.73.18.39.31.53.28.25.46.32c.17.07.35.11.54.11Z"/>
          <path d="M443.38,324.73c-.13-.02-.26-.03-.39-.03-.37,0-.67.11-.9.34s-.34.6-.34,1.11v2.36h-.89v-4.71h.87v.82c.08-.18.18-.33.29-.45.11-.11.22-.21.35-.27.12-.07.24-.12.37-.14.12-.03.25-.04.36-.04.06,0,.12,0,.17,0,.05,0,.09.01.12.02v.98Z"/>
        </g>
        <g>
          <path d="M399.19,328.51v-6.95h2.35c.42,0,.83.08,1.22.22.39.15.73.37,1.02.67s.52.66.7,1.09c.17.43.26.94.26,1.5s-.09,1.07-.26,1.5c-.17.43-.41.79-.71,1.08s-.64.51-1.03.66c-.39.15-.79.22-1.22.22h-2.33ZM401.49,327.66c.31,0,.6-.05.88-.16.28-.11.52-.27.73-.49.21-.21.37-.49.49-.81.12-.33.18-.71.18-1.15s-.06-.82-.18-1.15-.28-.6-.49-.82c-.21-.22-.45-.38-.72-.5-.27-.11-.57-.17-.88-.17h-1.39v5.24h1.37Z"/>
          <path d="M410,327.17c-.06.21-.16.4-.28.58s-.27.34-.45.47c-.17.13-.37.24-.59.32-.22.08-.46.12-.73.12-.3,0-.59-.06-.87-.17-.28-.11-.52-.27-.73-.49-.21-.22-.38-.48-.5-.79s-.18-.67-.18-1.07c0-.37.06-.71.18-1.01.12-.3.28-.57.48-.78.2-.22.43-.39.7-.51.26-.12.54-.18.82-.18.35,0,.66.06.93.18.27.12.5.29.69.5.18.22.32.48.42.78s.15.64.15,1c0,.06,0,.11,0,.17,0,.05,0,.09-.01.13h-3.43c0,.21.04.4.11.58.07.18.17.33.29.46.12.13.27.23.44.29.17.07.34.1.53.1.37,0,.66-.09.85-.27.2-.18.34-.41.43-.68l.77.27ZM409.11,325.67c-.01-.34-.12-.62-.33-.86-.21-.23-.51-.35-.92-.35-.19,0-.36.03-.51.1s-.27.16-.38.27c-.1.11-.19.24-.25.39-.06.14-.1.29-.1.44h2.49Z"/>
          <path d="M411.66,326.99c.03.25.14.46.31.63s.43.25.75.25c.25,0,.44-.06.58-.19s.2-.27.2-.44c0-.15-.05-.28-.15-.38-.1-.1-.25-.18-.44-.23l-.78-.18c-.36-.08-.64-.24-.84-.47-.2-.24-.3-.52-.3-.85,0-.2.04-.39.13-.57.08-.18.2-.34.34-.48.15-.14.32-.25.52-.32.2-.08.41-.12.63-.12.31,0,.57.04.78.14.21.09.38.2.52.34.13.13.23.27.3.42.07.14.11.27.14.37l-.79.3c-.01-.06-.04-.13-.07-.23-.03-.09-.08-.18-.15-.26-.07-.08-.16-.15-.28-.21s-.27-.09-.45-.09c-.23,0-.41.06-.55.19-.14.13-.21.27-.21.44,0,.3.17.49.52.57l.74.17c.42.09.73.26.94.5.21.25.32.54.32.9,0,.17-.03.34-.1.51-.07.17-.17.33-.31.47-.14.14-.31.26-.52.35-.21.09-.45.13-.74.13-.32,0-.58-.05-.81-.14-.22-.09-.41-.21-.56-.34-.15-.14-.26-.29-.34-.45-.08-.16-.13-.31-.15-.45l.8-.29Z"/>
          <path d="M417.51,324.5c-.18,0-.36.03-.52.1s-.31.17-.44.31c-.13.14-.23.31-.31.51-.08.21-.11.45-.11.72s.04.5.11.71c.08.21.18.38.3.52.13.14.27.25.44.32.17.07.35.11.53.11.21,0,.4-.03.54-.1.15-.07.27-.15.37-.25s.17-.2.23-.32.1-.22.12-.31l.79.35c-.06.17-.14.34-.25.51-.11.17-.25.33-.42.48-.17.14-.37.26-.6.35-.23.09-.49.13-.79.13-.33,0-.64-.06-.92-.19-.28-.13-.52-.3-.72-.53-.2-.23-.36-.49-.48-.79s-.17-.64-.17-1,.06-.7.17-1.01c.12-.31.28-.57.48-.79.21-.22.45-.39.73-.51.28-.12.58-.19.9-.19.3,0,.57.04.8.13.23.09.43.2.6.35.17.14.3.31.4.49.1.18.18.36.23.53l-.8.35c-.03-.12-.08-.24-.13-.35-.06-.12-.13-.22-.23-.32s-.22-.17-.36-.24c-.14-.06-.31-.09-.5-.09Z"/>
          <path d="M423.16,324.73c-.13-.02-.26-.03-.39-.03-.37,0-.67.11-.9.34s-.34.6-.34,1.11v2.36h-.89v-4.71h.87v.82c.08-.18.18-.33.29-.45s.23-.21.35-.27c.12-.07.24-.12.37-.14.13-.03.25-.04.36-.04.06,0,.12,0,.17,0s.09.01.12.02v.98Z"/>
          <path d="M423.92,322.01c0-.19.06-.35.18-.48.12-.13.27-.19.45-.19s.34.06.46.19c.12.13.19.29.19.48s-.06.34-.19.47c-.12.13-.28.19-.46.19s-.33-.06-.45-.19c-.12-.13-.18-.28-.18-.47ZM424.12,328.51v-4.71h.88v4.71h-.88Z"/>
          <path d="M426.48,330.37v-6.58h.86v.74c.13-.24.32-.43.58-.6.26-.16.57-.25.95-.25.34,0,.64.06.9.19.26.13.48.3.65.52.17.22.31.48.4.78.09.3.14.62.14.96s-.05.68-.14.98-.23.56-.42.79c-.18.23-.41.4-.67.53s-.56.19-.89.19c-.35,0-.66-.08-.91-.23-.25-.15-.44-.33-.57-.54v2.5h-.88ZM430.05,326.15c0-.24-.03-.45-.09-.65-.06-.2-.15-.37-.26-.52-.11-.15-.25-.26-.42-.35s-.35-.13-.56-.13-.39.04-.55.13c-.17.08-.31.2-.43.35-.12.15-.21.32-.27.52-.06.2-.09.42-.09.65s.03.47.09.67c.06.21.15.38.27.53.12.15.26.26.43.34.17.08.35.12.55.12s.39-.04.56-.12c.16-.08.3-.2.42-.34.12-.15.21-.32.27-.53.06-.21.09-.43.09-.67Z"/>
          <path d="M433.33,323.79h.98v.83h-.98v2.45c0,.22.05.38.14.49.09.11.26.16.49.16.06,0,.12,0,.19,0,.07,0,.12-.02.16-.03v.78s-.11.03-.22.05c-.11.02-.24.03-.39.03-.39,0-.7-.12-.93-.35-.23-.23-.34-.56-.34-1v-2.59h-.87v-.83h.25c.25,0,.42-.07.54-.21.11-.14.17-.31.17-.52v-.76h.81v1.49Z"/>
          <path d="M437.37,323.65c.34,0,.65.06.94.19.28.13.53.3.74.52.21.22.37.49.48.79.11.3.17.64.17,1s-.06.69-.17,1c-.11.31-.27.57-.48.79-.21.22-.45.4-.74.52-.28.13-.6.19-.94.19s-.65-.06-.94-.19c-.28-.13-.53-.3-.74-.52-.21-.22-.37-.49-.48-.79-.11-.31-.17-.64-.17-1s.06-.69.17-1c.11-.3.27-.57.48-.79.21-.22.45-.4.74-.52.28-.13.6-.19.94-.19ZM437.37,327.83c.19,0,.37-.04.54-.11.17-.07.32-.18.45-.32s.24-.32.31-.53.11-.45.11-.73-.04-.51-.11-.72c-.08-.21-.18-.38-.31-.52-.13-.14-.28-.25-.45-.32-.17-.07-.35-.11-.54-.11s-.37.04-.54.11c-.17.07-.32.18-.45.32-.13.14-.24.32-.31.52-.08.21-.11.45-.11.72s.04.52.11.73c.08.21.18.39.31.53.13.14.28.25.45.32.17.07.35.11.54.11Z"/>
          <path d="M443.38,324.73c-.13-.02-.26-.03-.39-.03-.37,0-.67.11-.9.34s-.34.6-.34,1.11v2.36h-.89v-4.71h.87v.82c.08-.18.18-.33.29-.45s.23-.21.35-.27c.12-.07.24-.12.37-.14.13-.03.25-.04.36-.04.06,0,.12,0,.17,0s.09.01.12.02v.98Z"/>
        </g>
        <g>
          <path d="M123.59,331.51v-6.95h2.35c.42,0,.83.08,1.22.22.39.15.73.37,1.02.67s.52.66.7,1.09c.17.43.26.94.26,1.5s-.09,1.07-.26,1.5c-.17.43-.41.79-.71,1.08s-.64.51-1.03.66c-.39.15-.79.22-1.22.22h-2.33ZM125.89,330.66c.31,0,.6-.05.88-.16.28-.11.52-.27.73-.49.21-.21.37-.49.49-.81.12-.33.18-.71.18-1.15s-.06-.82-.18-1.15-.28-.6-.49-.82c-.21-.22-.45-.38-.72-.5-.27-.11-.57-.17-.88-.17h-1.39v5.24h1.37Z"/>
          <path d="M134.41,330.17c-.06.21-.16.4-.28.58s-.27.34-.45.47c-.17.13-.37.24-.59.32-.22.08-.46.12-.73.12-.3,0-.59-.06-.87-.17-.28-.11-.52-.27-.73-.49-.21-.22-.38-.48-.5-.79s-.18-.67-.18-1.07c0-.37.06-.71.18-1.01.12-.3.28-.57.48-.78.2-.22.43-.39.7-.51.26-.12.54-.18.82-.18.35,0,.66.06.93.18.27.12.5.29.69.5.18.22.32.48.42.78s.15.64.15,1c0,.06,0,.11,0,.17,0,.05,0,.09-.01.13h-3.43c0,.21.04.4.11.58.07.18.17.33.29.46.12.13.27.23.44.29.17.07.34.1.53.1.37,0,.66-.09.85-.27.2-.18.34-.41.43-.68l.77.27ZM133.51,328.67c-.01-.34-.12-.62-.33-.86-.21-.23-.51-.35-.92-.35-.19,0-.36.03-.51.1s-.27.16-.38.27c-.1.11-.19.24-.25.39-.06.14-.1.29-.1.44h2.49Z"/>
          <path d="M136.06,329.99c.03.25.14.46.31.63s.43.25.75.25c.25,0,.44-.06.58-.19s.2-.27.2-.44c0-.15-.05-.28-.15-.38-.1-.1-.25-.18-.44-.23l-.78-.18c-.36-.08-.64-.24-.84-.47-.2-.24-.3-.52-.3-.85,0-.2.04-.39.13-.57.08-.18.2-.34.34-.48.15-.14.32-.25.52-.32.2-.08.41-.12.63-.12.31,0,.57.04.78.14.21.09.38.2.52.34.13.13.23.27.3.42.07.14.11.27.14.37l-.79.3c-.01-.06-.04-.13-.07-.23-.03-.09-.08-.18-.15-.26-.07-.08-.16-.15-.28-.21s-.27-.09-.45-.09c-.23,0-.41.06-.55.19-.14.13-.21.27-.21.44,0,.3.17.49.52.57l.74.17c.42.09.73.26.94.5.21.25.32.54.32.9,0,.17-.03.34-.1.51-.07.17-.17.33-.31.47-.14.14-.31.26-.52.35-.21.09-.45.13-.74.13-.32,0-.58-.05-.81-.14-.22-.09-.41-.21-.56-.34-.15-.14-.26-.29-.34-.45-.08-.16-.13-.31-.15-.45l.8-.29Z"/>
          <path d="M141.91,327.5c-.18,0-.36.03-.52.1s-.31.17-.44.31c-.13.14-.23.31-.31.51-.08.21-.11.45-.11.72s.04.5.11.71c.08.21.18.38.3.52.13.14.27.25.44.32.17.07.35.11.53.11.21,0,.4-.03.54-.1.15-.07.27-.15.37-.25s.17-.2.23-.32.1-.22.12-.31l.79.35c-.06.17-.14.34-.25.51-.11.17-.25.33-.42.48-.17.14-.37.26-.6.35-.23.09-.49.13-.79.13-.33,0-.64-.06-.92-.19-.28-.13-.52-.3-.72-.53-.2-.23-.36-.49-.48-.79s-.17-.64-.17-1,.06-.7.17-1.01c.12-.31.28-.57.48-.79.21-.22.45-.39.73-.51.28-.12.58-.19.9-.19.3,0,.57.04.8.13.23.09.43.2.6.35.17.14.3.31.4.49.1.18.18.36.23.53l-.8.35c-.03-.12-.08-.24-.13-.35-.06-.12-.13-.22-.23-.32s-.22-.17-.36-.24c-.14-.06-.31-.09-.5-.09Z"/>
          <path d="M147.56,327.73c-.13-.02-.26-.03-.39-.03-.37,0-.67.11-.9.34s-.34.6-.34,1.11v2.36h-.89v-4.71h.87v.82c.08-.18.18-.33.29-.45s.23-.21.35-.27c.12-.07.24-.12.37-.14.13-.03.25-.04.36-.04.06,0,.12,0,.17,0s.09.01.12.02v.98Z"/>
          <path d="M148.32,325.01c0-.19.06-.35.18-.48.12-.13.27-.19.45-.19s.34.06.46.19c.12.13.19.29.19.48s-.06.34-.19.47c-.12.13-.28.19-.46.19s-.33-.06-.45-.19c-.12-.13-.18-.28-.18-.47ZM148.52,331.51v-4.71h.88v4.71h-.88Z"/>
          <path d="M150.88,333.37v-6.58h.86v.74c.13-.24.32-.43.58-.6.26-.16.57-.25.95-.25.34,0,.64.06.9.19.26.13.48.3.65.52.17.22.31.48.4.78.09.3.14.62.14.96s-.05.68-.14.98-.23.56-.42.79c-.18.23-.41.4-.67.53s-.56.19-.89.19c-.35,0-.66-.08-.91-.23-.25-.15-.44-.33-.57-.54v2.5h-.88ZM154.45,329.15c0-.24-.03-.45-.09-.65-.06-.2-.15-.37-.26-.52-.11-.15-.25-.26-.42-.35s-.35-.13-.56-.13-.39.04-.55.13c-.17.08-.31.2-.43.35-.12.15-.21.32-.27.52-.06.2-.09.42-.09.65s.03.47.09.67c.06.21.15.38.27.53.12.15.26.26.43.34.17.08.35.12.55.12s.39-.04.56-.12c.16-.08.3-.2.42-.34.12-.15.21-.32.27-.53.06-.21.09-.43.09-.67Z"/>
          <path d="M157.74,326.79h.98v.83h-.98v2.45c0,.22.05.38.14.49.09.11.26.16.49.16.06,0,.12,0,.19,0,.07,0,.12-.02.16-.03v.78s-.11.03-.22.05c-.11.02-.24.03-.39.03-.39,0-.7-.12-.93-.35-.23-.23-.34-.56-.34-1v-2.59h-.87v-.83h.25c.25,0,.42-.07.54-.21.11-.14.17-.31.17-.52v-.76h.81v1.49Z"/>
          <path d="M161.77,326.65c.34,0,.65.06.94.19.28.13.53.3.74.52.21.22.37.49.48.79.11.3.17.64.17,1s-.06.69-.17,1c-.11.31-.27.57-.48.79-.21.22-.45.4-.74.52-.28.13-.6.19-.94.19s-.65-.06-.94-.19c-.28-.13-.53-.3-.74-.52-.21-.22-.37-.49-.48-.79-.11-.31-.17-.64-.17-1s.06-.69.17-1c.11-.3.27-.57.48-.79.21-.22.45-.4.74-.52.28-.13.6-.19.94-.19ZM161.77,330.83c.19,0,.37-.04.54-.11.17-.07.32-.18.45-.32s.24-.32.31-.53.11-.45.11-.73-.04-.51-.11-.72c-.08-.21-.18-.38-.31-.52-.13-.14-.28-.25-.45-.32-.17-.07-.35-.11-.54-.11s-.37.04-.54.11c-.17.07-.32.18-.45.32-.13.14-.24.32-.31.52-.08.21-.11.45-.11.72s.04.52.11.73c.08.21.18.39.31.53.13.14.28.25.45.32.17.07.35.11.54.11Z"/>
          <path d="M167.78,327.73c-.13-.02-.26-.03-.39-.03-.37,0-.67.11-.9.34s-.34.6-.34,1.11v2.36h-.89v-4.71h.87v.82c.08-.18.18-.33.29-.45s.23-.21.35-.27c.12-.07.24-.12.37-.14.13-.03.25-.04.36-.04.06,0,.12,0,.17,0s.09.01.12.02v.98Z"/>
        </g>
        <g>
          <rect class="cls-5" x="32.3" y="147.24" width="304" height="31.58"/>
          <g>
            <path class="cls-3" d="M167.01,160.27c-.03-.18-.09-.37-.19-.58-.1-.2-.23-.39-.4-.56-.17-.17-.39-.31-.64-.42s-.56-.16-.91-.16c-.29,0-.55.04-.79.13-.24.08-.45.2-.62.36-.18.15-.31.33-.41.54-.1.21-.14.43-.14.66,0,.36.11.67.33.94.22.26.54.44.97.54l1.51.33c.85.19,1.5.53,1.95,1.03s.68,1.1.68,1.81c0,.39-.08.77-.24,1.13-.16.36-.4.68-.7.96s-.67.5-1.1.66c-.43.17-.91.25-1.46.25-.61,0-1.14-.09-1.59-.27-.45-.18-.83-.41-1.14-.7-.31-.29-.55-.61-.72-.96-.17-.36-.28-.72-.33-1.08l1.34-.43c.03.29.1.56.21.82.11.26.27.49.47.69s.45.36.74.48c.29.12.63.18,1.01.18.69,0,1.22-.16,1.56-.47s.52-.7.52-1.14c0-.36-.12-.69-.37-.98-.25-.29-.63-.49-1.14-.59l-1.44-.31c-.72-.16-1.32-.47-1.78-.94-.46-.46-.69-1.07-.69-1.83,0-.4.09-.78.26-1.14.17-.36.41-.68.71-.96.3-.28.65-.5,1.06-.66.41-.17.85-.25,1.31-.25.57,0,1.06.08,1.46.24.4.16.74.36,1.01.61.27.25.48.52.64.81s.26.58.31.86l-1.26.44Z"/>
            <path class="cls-3" d="M176.12,165.7c-.1.3-.24.59-.42.85-.19.26-.41.49-.67.69-.26.2-.56.35-.89.46s-.7.17-1.1.17c-.46,0-.9-.08-1.31-.24-.42-.16-.79-.4-1.11-.71-.32-.31-.57-.7-.76-1.16s-.28-.98-.28-1.56c0-.54.09-1.04.27-1.48.18-.44.42-.82.72-1.14s.65-.57,1.05-.74c.4-.18.81-.26,1.24-.26.52,0,.99.09,1.41.26.41.18.76.42,1.04.74.28.31.49.69.64,1.13.15.44.22.93.22,1.46,0,.09,0,.17,0,.24s-.01.14-.02.19h-5.17c0,.3.07.59.17.84.1.26.25.48.44.66s.4.33.66.43c.25.1.52.15.81.15.56,0,.99-.13,1.29-.4s.51-.59.64-.99l1.16.4ZM174.77,163.51c-.02-.5-.19-.91-.5-1.25-.31-.34-.78-.51-1.39-.51-.29,0-.54.05-.76.15-.22.1-.42.23-.57.4-.16.17-.28.35-.38.56-.1.21-.15.42-.16.64h3.76Z"/>
            <path class="cls-3" d="M181.69,162.14c-.2-.03-.4-.04-.59-.04-.56,0-1.02.16-1.36.49-.35.33-.52.87-.52,1.62v3.44h-1.34v-6.87h1.31v1.2c.12-.27.27-.48.44-.65s.34-.3.52-.4c.18-.1.37-.17.56-.21s.37-.06.54-.06c.1,0,.18,0,.26.01s.14.02.18.03v1.43Z"/>
            <path class="cls-3" d="M186.26,167.65h-1.36l-2.79-6.87h1.51l1.96,5.3,1.97-5.3h1.44l-2.74,6.87Z"/>
            <path class="cls-3" d="M189.99,158.18c0-.28.09-.51.28-.69s.41-.28.68-.28.51.09.69.28.28.42.28.69-.09.49-.28.68-.42.28-.69.28-.49-.09-.68-.28-.28-.41-.28-.68ZM190.29,167.65v-6.87h1.33v6.87h-1.33Z"/>
            <path class="cls-3" d="M196.79,161.81c-.28,0-.54.05-.79.15-.25.1-.47.25-.66.45-.2.2-.35.45-.46.75s-.17.65-.17,1.05.06.74.17,1.04c.11.3.27.55.46.76.19.2.42.36.67.46s.52.16.8.16c.32,0,.6-.05.82-.14.22-.1.41-.21.56-.36s.26-.3.35-.46c.09-.17.15-.32.19-.45l1.18.51c-.08.25-.21.5-.37.75-.16.25-.37.48-.63.69-.26.21-.56.38-.91.51-.35.13-.75.19-1.19.19-.5,0-.97-.09-1.39-.28s-.79-.44-1.09-.77c-.3-.33-.54-.71-.72-1.16-.18-.44-.26-.93-.26-1.45s.09-1.02.26-1.47c.18-.45.42-.83.73-1.15.31-.32.68-.57,1.1-.75.42-.18.88-.27,1.36-.27.46,0,.86.06,1.21.19.35.13.65.3.9.51.25.21.46.45.61.71.15.26.27.52.34.78l-1.21.51c-.05-.17-.11-.34-.2-.51-.09-.17-.2-.33-.35-.46-.15-.14-.33-.25-.54-.34-.21-.09-.46-.14-.76-.14Z"/>
            <path class="cls-3" d="M207.46,165.7c-.1.3-.24.59-.42.85-.19.26-.41.49-.67.69-.26.2-.56.35-.89.46s-.7.17-1.1.17c-.46,0-.9-.08-1.31-.24-.42-.16-.79-.4-1.11-.71-.32-.31-.57-.7-.76-1.16s-.28-.98-.28-1.56c0-.54.09-1.04.27-1.48.18-.44.42-.82.72-1.14s.65-.57,1.05-.74c.4-.18.81-.26,1.24-.26.52,0,.99.09,1.41.26.41.18.76.42,1.04.74.28.31.49.69.64,1.13.15.44.22.93.22,1.46,0,.09,0,.17,0,.24s-.01.14-.02.19h-5.17c0,.3.07.59.17.84.1.26.25.48.44.66s.4.33.66.43c.25.1.52.15.81.15.56,0,.99-.13,1.29-.4s.51-.59.64-.99l1.16.4ZM206.1,163.51c-.02-.5-.19-.91-.5-1.25-.31-.34-.78-.51-1.39-.51-.29,0-.54.05-.76.15-.22.1-.42.23-.57.4-.16.17-.28.35-.38.56-.1.21-.15.42-.16.64h3.76Z"/>
          </g>
        </g>
        <g>
          <rect class="cls-8" x="32.3" y="230.44" width="146.51" height="31.58"/>
          <rect class="cls-8" x="190.21" y="230.44" width="146.09" height="31.58"/>
          <g>
            <path class="cls-3" d="M65.8,252.61c-.66,0-1.29-.12-1.89-.35s-1.14-.57-1.6-1.02c-.46-.45-.83-1-1.11-1.66-.28-.66-.42-1.41-.42-2.26s.14-1.6.43-2.25c.29-.65.66-1.2,1.14-1.65.47-.45,1.01-.79,1.61-1.02s1.22-.35,1.85-.35c.58,0,1.11.08,1.6.23s.92.37,1.3.64c.38.28.7.61.96,1.01.26.4.46.84.59,1.33l-1.3.46c-.19-.77-.55-1.36-1.09-1.77-.54-.41-1.23-.61-2.06-.61-.46,0-.9.08-1.33.25-.43.17-.82.42-1.16.75-.34.33-.61.75-.81,1.25-.2.5-.3,1.08-.3,1.74s.1,1.24.3,1.74c.2.5.47.92.81,1.26s.72.59,1.16.76c.43.17.88.25,1.33.25.43,0,.82-.06,1.17-.19.35-.12.66-.29.94-.51.27-.21.5-.47.69-.77s.33-.62.44-.96l1.24.46c-.13.48-.33.91-.6,1.31-.27.4-.59.74-.96,1.03-.38.29-.81.51-1.3.67-.49.16-1.03.24-1.61.24Z"/>
            <path class="cls-3" d="M73.32,252.4h-1.34v-10.34h1.34v4.27c.25-.36.56-.62.93-.77.37-.15.76-.23,1.16-.23s.77.07,1.08.21c.31.14.57.33.77.57.2.24.36.53.46.86.1.33.15.69.15,1.07v4.36h-1.34v-4.13c0-.24-.03-.46-.08-.67-.05-.21-.14-.39-.27-.55-.13-.16-.29-.28-.5-.37-.21-.09-.46-.13-.75-.13-.26,0-.48.05-.68.14-.2.09-.36.22-.49.39-.13.16-.24.35-.31.57-.07.22-.11.46-.12.71v4.04Z"/>
            <path class="cls-3" d="M79.58,250.55c0-.3.05-.58.16-.82.1-.24.25-.45.44-.62.19-.17.41-.31.66-.41s.53-.18.83-.23l1.86-.27c.21-.03.35-.09.42-.19s.11-.21.11-.33c0-.33-.12-.62-.35-.86-.23-.24-.61-.36-1.14-.36-.48,0-.84.13-1.1.39-.26.26-.41.59-.46.99l-1.29-.3c.04-.32.14-.62.29-.9s.36-.51.61-.71c.25-.2.54-.35.86-.46.33-.11.68-.16,1.05-.16.51,0,.95.07,1.31.21s.66.32.89.55.39.5.5.8c.1.3.16.62.16.96v3.44c0,.31,0,.55.03.73.02.18.04.31.06.4h-1.31c-.02-.09-.04-.2-.05-.34-.01-.14-.02-.34-.02-.59-.08.12-.18.25-.3.39-.12.13-.28.26-.46.37-.18.11-.39.21-.64.28-.24.07-.52.11-.82.11-.35,0-.67-.06-.95-.17-.28-.11-.52-.26-.72-.45-.2-.19-.36-.4-.46-.65-.11-.25-.16-.51-.16-.79ZM82.06,251.48c.28,0,.54-.04.78-.11s.45-.19.63-.34c.18-.16.32-.37.42-.63s.16-.58.16-.95v-.31l-2.1.31c-.29.05-.52.16-.71.32-.19.17-.29.4-.29.71,0,.26.1.49.3.69.2.21.47.31.81.31Z"/>
            <path class="cls-3" d="M91.29,246.88c-.2-.03-.4-.04-.59-.04-.56,0-1.02.16-1.36.49-.35.33-.52.87-.52,1.62v3.44h-1.34v-6.87h1.31v1.2c.12-.27.27-.48.44-.65s.34-.3.52-.4c.18-.1.37-.17.56-.21s.37-.06.54-.06c.1,0,.18,0,.26.01s.14.02.18.03v1.43Z"/>
            <path class="cls-3" d="M92.29,250.55c0-.3.05-.58.16-.82.1-.24.25-.45.44-.62.19-.17.41-.31.66-.41s.53-.18.83-.23l1.86-.27c.21-.03.35-.09.42-.19s.11-.21.11-.33c0-.33-.12-.62-.35-.86-.23-.24-.61-.36-1.14-.36-.48,0-.84.13-1.1.39-.26.26-.41.59-.46.99l-1.29-.3c.04-.32.14-.62.29-.9s.36-.51.61-.71c.25-.2.54-.35.86-.46.33-.11.68-.16,1.05-.16.51,0,.95.07,1.31.21s.66.32.89.55.39.5.5.8c.1.3.16.62.16.96v3.44c0,.31,0,.55.03.73.02.18.04.31.06.4h-1.31c-.02-.09-.04-.2-.05-.34-.01-.14-.02-.34-.02-.59-.08.12-.18.25-.3.39-.12.13-.28.26-.46.37-.18.11-.39.21-.64.28-.24.07-.52.11-.82.11-.35,0-.67-.06-.95-.17-.28-.11-.52-.26-.72-.45-.2-.19-.36-.4-.46-.65-.11-.25-.16-.51-.16-.79ZM94.77,251.48c.28,0,.54-.04.78-.11s.45-.19.63-.34c.18-.16.32-.37.42-.63s.16-.58.16-.95v-.31l-2.1.31c-.29.05-.52.16-.71.32-.19.17-.29.4-.29.71,0,.26.1.49.3.69.2.21.47.31.81.31Z"/>
            <path class="cls-3" d="M103.07,246.56c-.28,0-.54.05-.79.15-.25.1-.47.25-.66.45-.2.2-.35.45-.46.75s-.17.65-.17,1.05.06.74.17,1.04c.11.3.27.55.46.76.19.2.42.36.67.46s.52.16.8.16c.32,0,.6-.05.82-.14.22-.1.41-.21.56-.36s.26-.3.35-.46c.09-.17.15-.32.19-.45l1.18.51c-.08.25-.21.5-.37.75-.16.25-.37.48-.63.69-.26.21-.56.38-.91.51-.35.13-.75.19-1.19.19-.5,0-.97-.09-1.39-.28s-.79-.44-1.09-.77c-.3-.33-.54-.71-.72-1.16-.18-.44-.26-.93-.26-1.45s.09-1.02.26-1.47c.18-.45.42-.83.73-1.15.31-.32.68-.57,1.1-.75.42-.18.88-.27,1.36-.27.46,0,.86.06,1.21.19.35.13.65.3.9.51.25.21.46.45.61.71.15.26.27.52.34.78l-1.21.51c-.05-.17-.11-.34-.2-.51-.09-.17-.2-.33-.35-.46-.15-.14-.33-.25-.54-.34-.21-.09-.46-.14-.76-.14Z"/>
            <path class="cls-3" d="M109.56,245.53h1.49v1.21h-1.49v3.57c0,.31.07.55.21.71.14.16.39.24.74.24.08,0,.18,0,.29-.01.1,0,.19-.02.24-.04v1.14c-.06.02-.17.05-.33.08s-.36.05-.58.05c-.59,0-1.06-.17-1.4-.51s-.51-.82-.51-1.45v-3.77h-1.31v-1.21h.37c.37,0,.64-.1.81-.3s.25-.45.25-.76v-1.11h1.23v2.17Z"/>
            <path class="cls-3" d="M118.81,250.44c-.1.3-.24.59-.42.85-.19.26-.41.49-.67.69-.26.2-.56.35-.89.46s-.7.17-1.1.17c-.46,0-.9-.08-1.31-.24-.42-.16-.79-.4-1.11-.71-.32-.31-.57-.7-.76-1.16s-.28-.98-.28-1.56c0-.54.09-1.04.27-1.48.18-.44.42-.82.72-1.14s.65-.57,1.05-.74c.4-.18.81-.26,1.24-.26.52,0,.99.09,1.41.26.41.18.76.42,1.04.74.28.31.49.69.64,1.13.15.44.22.93.22,1.46,0,.09,0,.17,0,.24s-.01.14-.02.19h-5.17c0,.3.07.59.17.84.1.26.25.48.44.66s.4.33.66.43c.25.1.52.15.81.15.56,0,.99-.13,1.29-.4s.51-.59.64-.99l1.16.4ZM117.45,248.26c-.02-.5-.19-.91-.5-1.25-.31-.34-.78-.51-1.39-.51-.29,0-.54.05-.76.15-.22.1-.42.23-.57.4-.16.17-.28.35-.38.56-.1.21-.15.42-.16.64h3.76Z"/>
            <path class="cls-3" d="M124.38,246.88c-.2-.03-.4-.04-.59-.04-.56,0-1.02.16-1.36.49-.35.33-.52.87-.52,1.62v3.44h-1.34v-6.87h1.31v1.2c.12-.27.27-.48.44-.65s.34-.3.52-.4c.18-.1.37-.17.56-.21s.37-.06.54-.06c.1,0,.18,0,.26.01s.14.02.18.03v1.43Z"/>
            <path class="cls-3" d="M125.51,242.93c0-.28.09-.51.28-.69s.41-.28.68-.28.51.09.69.28.28.42.28.69-.09.49-.28.68-.42.28-.69.28-.49-.09-.68-.28-.28-.41-.28-.68ZM125.81,252.4v-6.87h1.33v6.87h-1.33Z"/>
            <path class="cls-3" d="M129.99,250.18c.05.36.21.67.47.91.27.25.64.37,1.13.37.38,0,.67-.09.87-.27.2-.18.3-.39.3-.64,0-.22-.08-.4-.23-.56s-.37-.26-.66-.33l-1.17-.26c-.54-.11-.96-.34-1.26-.69s-.45-.76-.45-1.24c0-.29.06-.57.19-.84.13-.26.3-.49.52-.69.22-.2.48-.36.78-.47.3-.11.62-.17.95-.17.47,0,.86.07,1.18.2.32.13.58.3.78.49.2.2.35.4.45.61.1.21.17.39.21.54l-1.19.44c-.02-.09-.05-.2-.1-.33-.05-.13-.12-.26-.23-.38s-.25-.22-.43-.31c-.18-.08-.4-.13-.67-.13-.34,0-.62.09-.83.28-.21.19-.31.4-.31.64,0,.44.26.71.79.83l1.11.24c.63.13,1.1.38,1.42.74.32.36.48.79.48,1.31,0,.25-.05.5-.16.74-.1.25-.26.48-.46.69-.21.21-.46.38-.78.51-.31.13-.69.19-1.11.19-.48,0-.88-.07-1.22-.2-.34-.13-.62-.3-.84-.5-.22-.2-.4-.42-.51-.65-.12-.23-.19-.45-.22-.65l1.21-.43Z"/>
            <path class="cls-3" d="M137.68,245.53h1.49v1.21h-1.49v3.57c0,.31.07.55.21.71.14.16.39.24.74.24.09,0,.18,0,.29-.01.11,0,.19-.02.24-.04v1.14c-.06.02-.17.05-.33.08s-.36.05-.58.05c-.59,0-1.06-.17-1.4-.51-.34-.34-.51-.82-.51-1.45v-3.77h-1.31v-1.21h.37c.37,0,.64-.1.81-.3.17-.2.25-.45.25-.76v-1.11h1.23v2.17Z"/>
            <path class="cls-3" d="M140.65,242.93c0-.28.09-.51.28-.69s.41-.28.68-.28.51.09.69.28.28.42.28.69-.09.49-.28.68-.42.28-.69.28-.49-.09-.68-.28-.28-.41-.28-.68ZM140.95,252.4v-6.87h1.33v6.87h-1.33Z"/>
            <path class="cls-3" d="M147.45,246.56c-.28,0-.54.05-.79.15-.25.1-.47.25-.66.45-.2.2-.35.45-.46.75-.12.3-.17.65-.17,1.05s.06.74.17,1.04c.11.3.27.55.46.76.19.2.41.36.67.46.26.1.52.16.8.16.32,0,.6-.05.82-.14.22-.1.41-.21.56-.36.15-.14.26-.3.35-.46.09-.17.15-.32.19-.45l1.19.51c-.09.25-.21.5-.37.75-.16.25-.37.48-.63.69-.26.21-.56.38-.91.51-.35.13-.75.19-1.19.19-.5,0-.97-.09-1.39-.28s-.79-.44-1.09-.77c-.3-.33-.54-.71-.72-1.16-.18-.44-.27-.93-.27-1.45s.09-1.02.27-1.47c.18-.45.42-.83.73-1.15.31-.32.68-.57,1.1-.75.42-.18.88-.27,1.36-.27.46,0,.86.06,1.21.19.35.13.65.3.9.51.25.21.46.45.61.71.15.26.27.52.34.78l-1.21.51c-.05-.17-.11-.34-.2-.51-.09-.17-.2-.33-.35-.46-.15-.14-.33-.25-.54-.34-.21-.09-.46-.14-.76-.14Z"/>
          </g>
          <g>
            <path class="cls-3" d="M223.5,252.61c-.66,0-1.29-.12-1.89-.35s-1.14-.57-1.6-1.02c-.46-.45-.83-1-1.11-1.66-.28-.66-.42-1.41-.42-2.26s.14-1.6.43-2.25c.29-.65.66-1.2,1.14-1.65.47-.45,1.01-.79,1.61-1.02s1.22-.35,1.85-.35c.58,0,1.11.08,1.6.23s.92.37,1.3.64c.38.28.7.61.96,1.01.26.4.46.84.59,1.33l-1.3.46c-.19-.77-.55-1.36-1.09-1.77-.54-.41-1.23-.61-2.06-.61-.46,0-.9.08-1.33.25-.43.17-.82.42-1.16.75-.34.33-.61.75-.81,1.25-.2.5-.3,1.08-.3,1.74s.1,1.24.3,1.74c.2.5.47.92.81,1.26s.72.59,1.16.76c.43.17.88.25,1.33.25.43,0,.82-.06,1.17-.19.35-.12.66-.29.94-.51.27-.21.5-.47.69-.77s.33-.62.44-.96l1.24.46c-.13.48-.33.91-.6,1.31-.27.4-.59.74-.96,1.03-.38.29-.81.51-1.3.67-.49.16-1.03.24-1.61.24Z"/>
            <path class="cls-3" d="M231.02,252.4h-1.34v-10.34h1.34v4.27c.25-.36.56-.62.93-.77.37-.15.76-.23,1.16-.23s.77.07,1.08.21c.31.14.57.33.77.57.2.24.36.53.46.86.1.33.15.69.15,1.07v4.36h-1.34v-4.13c0-.24-.03-.46-.08-.67-.05-.21-.14-.39-.27-.55-.13-.16-.29-.28-.5-.37-.21-.09-.46-.13-.75-.13-.26,0-.48.05-.68.14-.2.09-.36.22-.49.39-.13.16-.24.35-.31.57-.07.22-.11.46-.12.71v4.04Z"/>
            <path class="cls-3" d="M237.28,250.55c0-.3.05-.58.16-.82.1-.24.25-.45.44-.62.19-.17.41-.31.66-.41s.53-.18.83-.23l1.86-.27c.21-.03.35-.09.42-.19s.11-.21.11-.33c0-.33-.12-.62-.35-.86-.23-.24-.61-.36-1.14-.36-.48,0-.84.13-1.1.39-.26.26-.41.59-.46.99l-1.29-.3c.04-.32.14-.62.29-.9s.36-.51.61-.71c.25-.2.54-.35.86-.46.33-.11.68-.16,1.05-.16.51,0,.95.07,1.31.21s.66.32.89.55.39.5.5.8c.1.3.16.62.16.96v3.44c0,.31,0,.55.03.73.02.18.04.31.06.4h-1.31c-.02-.09-.04-.2-.05-.34-.01-.14-.02-.34-.02-.59-.08.12-.18.25-.3.39-.12.13-.28.26-.46.37-.18.11-.39.21-.64.28-.24.07-.52.11-.82.11-.35,0-.67-.06-.95-.17-.28-.11-.52-.26-.72-.45-.2-.19-.36-.4-.46-.65-.11-.25-.16-.51-.16-.79ZM239.76,251.48c.28,0,.54-.04.78-.11s.45-.19.63-.34c.18-.16.32-.37.42-.63s.16-.58.16-.95v-.31l-2.1.31c-.29.05-.52.16-.71.32-.19.17-.29.4-.29.71,0,.26.1.49.3.69.2.21.47.31.81.31Z"/>
            <path class="cls-3" d="M248.99,246.88c-.2-.03-.4-.04-.59-.04-.56,0-1.02.16-1.36.49-.35.33-.52.87-.52,1.62v3.44h-1.34v-6.87h1.31v1.2c.12-.27.27-.48.44-.65s.34-.3.52-.4c.18-.1.37-.17.56-.21s.37-.06.54-.06c.1,0,.18,0,.26.01s.14.02.18.03v1.43Z"/>
            <path class="cls-3" d="M249.99,250.55c0-.3.05-.58.16-.82.1-.24.25-.45.44-.62.19-.17.41-.31.66-.41s.53-.18.83-.23l1.86-.27c.21-.03.35-.09.42-.19s.11-.21.11-.33c0-.33-.12-.62-.35-.86-.23-.24-.61-.36-1.14-.36-.48,0-.84.13-1.1.39-.26.26-.41.59-.46.99l-1.29-.3c.04-.32.14-.62.29-.9s.36-.51.61-.71c.25-.2.54-.35.86-.46.33-.11.68-.16,1.05-.16.51,0,.95.07,1.31.21s.66.32.89.55.39.5.5.8c.1.3.16.62.16.96v3.44c0,.31,0,.55.03.73.02.18.04.31.06.4h-1.31c-.02-.09-.04-.2-.05-.34-.01-.14-.02-.34-.02-.59-.08.12-.18.25-.3.39-.12.13-.28.26-.46.37-.18.11-.39.21-.64.28-.24.07-.52.11-.82.11-.35,0-.67-.06-.95-.17-.28-.11-.52-.26-.72-.45-.2-.19-.36-.4-.46-.65-.11-.25-.16-.51-.16-.79ZM252.47,251.48c.28,0,.54-.04.78-.11s.45-.19.63-.34c.18-.16.32-.37.42-.63s.16-.58.16-.95v-.31l-2.1.31c-.29.05-.52.16-.71.32-.19.17-.29.4-.29.71,0,.26.1.49.3.69.2.21.47.31.81.31Z"/>
            <path class="cls-3" d="M260.77,246.56c-.28,0-.54.05-.79.15-.25.1-.47.25-.66.45-.2.2-.35.45-.46.75s-.17.65-.17,1.05.06.74.17,1.04c.11.3.27.55.46.76.19.2.42.36.67.46s.52.16.8.16c.32,0,.6-.05.82-.14.22-.1.41-.21.56-.36s.26-.3.35-.46c.09-.17.15-.32.19-.45l1.18.51c-.08.25-.21.5-.37.75-.16.25-.37.48-.63.69-.26.21-.56.38-.91.51-.35.13-.75.19-1.19.19-.5,0-.97-.09-1.39-.28s-.79-.44-1.09-.77c-.3-.33-.54-.71-.72-1.16-.18-.44-.26-.93-.26-1.45s.09-1.02.26-1.47c.18-.45.42-.83.73-1.15.31-.32.68-.57,1.1-.75.42-.18.88-.27,1.36-.27.46,0,.86.06,1.21.19.35.13.65.3.9.51.25.21.46.45.61.71.15.26.27.52.34.78l-1.21.51c-.05-.17-.11-.34-.2-.51-.09-.17-.2-.33-.35-.46-.15-.14-.33-.25-.54-.34-.21-.09-.46-.14-.76-.14Z"/>
            <path class="cls-3" d="M267.26,245.53h1.49v1.21h-1.49v3.57c0,.31.07.55.21.71.14.16.39.24.74.24.08,0,.18,0,.29-.01.1,0,.19-.02.24-.04v1.14c-.06.02-.17.05-.33.08s-.36.05-.58.05c-.59,0-1.06-.17-1.4-.51s-.51-.82-.51-1.45v-3.77h-1.31v-1.21h.37c.37,0,.64-.1.81-.3s.25-.45.25-.76v-1.11h1.23v2.17Z"/>
            <path class="cls-3" d="M276.51,250.44c-.1.3-.24.59-.42.85-.19.26-.41.49-.67.69-.26.2-.56.35-.89.46s-.7.17-1.1.17c-.46,0-.9-.08-1.31-.24-.42-.16-.79-.4-1.11-.71-.32-.31-.57-.7-.76-1.16s-.28-.98-.28-1.56c0-.54.09-1.04.27-1.48.18-.44.42-.82.72-1.14s.65-.57,1.05-.74c.4-.18.81-.26,1.24-.26.52,0,.99.09,1.41.26.41.18.76.42,1.04.74.28.31.49.69.64,1.13.15.44.22.93.22,1.46,0,.09,0,.17,0,.24s-.01.14-.02.19h-5.17c0,.3.07.59.17.84.1.26.25.48.44.66s.4.33.66.43c.25.1.52.15.81.15.56,0,.99-.13,1.29-.4s.51-.59.64-.99l1.16.4ZM275.15,248.26c-.02-.5-.19-.91-.5-1.25-.31-.34-.78-.51-1.39-.51-.29,0-.54.05-.76.15-.22.1-.42.23-.57.4-.16.17-.28.35-.38.56-.1.21-.15.42-.16.64h3.76Z"/>
            <path class="cls-3" d="M282.08,246.88c-.2-.03-.4-.04-.59-.04-.56,0-1.02.16-1.36.49-.35.33-.52.87-.52,1.62v3.44h-1.34v-6.87h1.31v1.2c.12-.27.27-.48.44-.65s.34-.3.52-.4c.18-.1.37-.17.56-.21s.37-.06.54-.06c.1,0,.18,0,.26.01s.14.02.18.03v1.43Z"/>
            <path class="cls-3" d="M283.21,242.93c0-.28.09-.51.28-.69s.41-.28.68-.28.51.09.69.28.28.42.28.69-.09.49-.28.68-.42.28-.69.28-.49-.09-.68-.28-.28-.41-.28-.68ZM283.51,252.4v-6.87h1.33v6.87h-1.33Z"/>
            <path class="cls-3" d="M287.69,250.18c.05.36.21.67.47.91.27.25.64.37,1.13.37.38,0,.67-.09.87-.27.2-.18.3-.39.3-.64,0-.22-.08-.4-.23-.56s-.37-.26-.66-.33l-1.17-.26c-.54-.11-.96-.34-1.26-.69s-.45-.76-.45-1.24c0-.29.06-.57.19-.84.13-.26.3-.49.52-.69.22-.2.48-.36.78-.47.3-.11.62-.17.95-.17.47,0,.86.07,1.18.2.32.13.58.3.78.49.2.2.35.4.45.61.1.21.17.39.21.54l-1.18.44c-.02-.09-.05-.2-.1-.33-.05-.13-.12-.26-.23-.38s-.25-.22-.43-.31c-.18-.08-.4-.13-.67-.13-.34,0-.62.09-.83.28-.21.19-.31.4-.31.64,0,.44.26.71.79.83l1.11.24c.63.13,1.1.38,1.42.74.32.36.48.79.48,1.31,0,.25-.05.5-.16.74-.1.25-.26.48-.46.69-.21.21-.46.38-.78.51-.31.13-.69.19-1.11.19-.48,0-.88-.07-1.22-.2-.34-.13-.62-.3-.84-.5-.22-.2-.4-.42-.51-.65-.12-.23-.19-.45-.22-.65l1.21-.43Z"/>
            <path class="cls-3" d="M295.38,245.53h1.49v1.21h-1.49v3.57c0,.31.07.55.21.71.14.16.39.24.74.24.08,0,.18,0,.29-.01.1,0,.19-.02.24-.04v1.14c-.06.02-.17.05-.33.08s-.36.05-.58.05c-.59,0-1.06-.17-1.4-.51s-.51-.82-.51-1.45v-3.77h-1.31v-1.21h.37c.37,0,.64-.1.81-.3s.25-.45.25-.76v-1.11h1.23v2.17Z"/>
            <path class="cls-3" d="M298.35,242.93c0-.28.09-.51.28-.69s.41-.28.68-.28.51.09.69.28.28.42.28.69-.09.49-.28.68-.42.28-.69.28-.49-.09-.68-.28-.28-.41-.28-.68ZM298.65,252.4v-6.87h1.33v6.87h-1.33Z"/>
            <path class="cls-3" d="M305.15,246.56c-.28,0-.54.05-.79.15-.25.1-.47.25-.66.45-.2.2-.35.45-.46.75s-.17.65-.17,1.05.06.74.17,1.04c.11.3.27.55.46.76.19.2.42.36.67.46s.52.16.8.16c.32,0,.6-.05.82-.14.22-.1.41-.21.56-.36s.26-.3.35-.46c.09-.17.15-.32.19-.45l1.18.51c-.08.25-.21.5-.37.75-.16.25-.37.48-.63.69-.26.21-.56.38-.91.51-.35.13-.75.19-1.19.19-.5,0-.97-.09-1.39-.28s-.79-.44-1.09-.77c-.3-.33-.54-.71-.72-1.16-.18-.44-.26-.93-.26-1.45s.09-1.02.26-1.47c.18-.45.42-.83.73-1.15.31-.32.68-.57,1.1-.75.42-.18.88-.27,1.36-.27.46,0,.86.06,1.21.19.35.13.65.3.9.51.25.21.46.45.61.71.15.26.27.52.34.78l-1.21.51c-.05-.17-.11-.34-.2-.51-.09-.17-.2-.33-.35-.46-.15-.14-.33-.25-.54-.34-.21-.09-.46-.14-.76-.14Z"/>
          </g>
        </g>
        <g>
          <rect class="cls-8" x="347.7" y="230.44" width="146.51" height="31.58"/>
          <rect class="cls-8" x="505.61" y="230.44" width="146.09" height="31.58"/>
          <g>
            <path class="cls-3" d="M381.2,252.61c-.66,0-1.29-.12-1.89-.35-.6-.23-1.14-.57-1.6-1.02-.46-.45-.83-1-1.11-1.66-.28-.66-.42-1.41-.42-2.26s.14-1.6.43-2.25c.29-.65.66-1.2,1.13-1.65.47-.45,1.01-.79,1.61-1.02.61-.23,1.22-.35,1.85-.35.58,0,1.12.08,1.6.23.49.15.92.37,1.3.64.38.28.7.61.96,1.01.26.4.46.84.59,1.33l-1.3.46c-.19-.77-.55-1.36-1.09-1.77-.54-.41-1.23-.61-2.06-.61-.46,0-.9.08-1.33.25-.43.17-.82.42-1.16.75-.34.33-.61.75-.81,1.25s-.3,1.08-.3,1.74.1,1.24.3,1.74.47.92.81,1.26.72.59,1.16.76c.43.17.88.25,1.33.25.43,0,.82-.06,1.17-.19s.66-.29.94-.51c.27-.21.5-.47.69-.77s.33-.62.44-.96l1.24.46c-.13.48-.33.91-.6,1.31-.27.4-.59.74-.96,1.03-.38.29-.81.51-1.3.67-.49.16-1.03.24-1.61.24Z"/>
            <path class="cls-3" d="M388.72,252.4h-1.34v-10.34h1.34v4.27c.25-.36.56-.62.93-.77.37-.15.76-.23,1.16-.23s.77.07,1.08.21c.31.14.57.33.77.57.2.24.36.53.46.86.1.33.15.69.15,1.07v4.36h-1.34v-4.13c0-.24-.03-.46-.08-.67-.05-.21-.14-.39-.27-.55s-.29-.28-.5-.37c-.21-.09-.46-.13-.75-.13-.26,0-.48.05-.68.14-.2.09-.36.22-.49.39-.13.16-.23.35-.31.57-.07.22-.11.46-.12.71v4.04Z"/>
            <path class="cls-3" d="M394.98,250.55c0-.3.05-.58.16-.82.11-.24.25-.45.44-.62.19-.17.41-.31.66-.41.26-.1.53-.18.83-.23l1.86-.27c.21-.03.35-.09.42-.19.07-.09.11-.21.11-.33,0-.33-.12-.62-.35-.86-.23-.24-.61-.36-1.14-.36-.48,0-.84.13-1.1.39s-.41.59-.46.99l-1.29-.3c.04-.32.13-.62.29-.9.16-.28.36-.51.61-.71.25-.2.54-.35.86-.46s.68-.16,1.05-.16c.51,0,.95.07,1.31.21.36.14.66.32.89.55s.39.5.5.8c.1.3.16.62.16.96v3.44c0,.31,0,.55.03.73.02.18.04.31.06.4h-1.31c-.02-.09-.04-.2-.05-.34-.02-.14-.02-.34-.02-.59-.08.12-.18.25-.3.39-.12.13-.28.26-.46.37s-.39.21-.63.28c-.24.07-.52.11-.82.11-.35,0-.67-.06-.95-.17s-.52-.26-.72-.45c-.2-.19-.36-.4-.46-.65-.11-.25-.16-.51-.16-.79ZM397.46,251.48c.28,0,.54-.04.78-.11.24-.07.45-.19.63-.34.18-.16.32-.37.42-.63.11-.26.16-.58.16-.95v-.31l-2.1.31c-.29.05-.52.16-.71.32-.19.17-.29.4-.29.71,0,.26.1.49.3.69.2.21.47.31.81.31Z"/>
            <path class="cls-3" d="M406.69,246.88c-.2-.03-.39-.04-.59-.04-.56,0-1.02.16-1.36.49-.35.33-.52.87-.52,1.62v3.44h-1.34v-6.87h1.31v1.2c.12-.27.27-.48.44-.65.17-.17.34-.3.52-.4.18-.1.37-.17.56-.21.19-.04.37-.06.54-.06.1,0,.18,0,.27.01.08,0,.14.02.18.03v1.43Z"/>
            <path class="cls-3" d="M407.69,250.55c0-.3.05-.58.16-.82.11-.24.25-.45.44-.62.19-.17.41-.31.66-.41.26-.1.53-.18.83-.23l1.86-.27c.21-.03.35-.09.42-.19.07-.09.11-.21.11-.33,0-.33-.12-.62-.35-.86-.23-.24-.61-.36-1.14-.36-.48,0-.84.13-1.1.39s-.41.59-.46.99l-1.29-.3c.04-.32.13-.62.29-.9.16-.28.36-.51.61-.71.25-.2.54-.35.86-.46s.68-.16,1.05-.16c.51,0,.95.07,1.31.21.36.14.66.32.89.55s.39.5.5.8c.1.3.16.62.16.96v3.44c0,.31,0,.55.03.73.02.18.04.31.06.4h-1.31c-.02-.09-.04-.2-.05-.34-.02-.14-.02-.34-.02-.59-.08.12-.18.25-.3.39-.12.13-.28.26-.46.37s-.39.21-.63.28c-.24.07-.52.11-.82.11-.35,0-.67-.06-.95-.17s-.52-.26-.72-.45c-.2-.19-.36-.4-.46-.65-.11-.25-.16-.51-.16-.79ZM410.17,251.48c.28,0,.54-.04.78-.11.24-.07.45-.19.63-.34.18-.16.32-.37.42-.63.11-.26.16-.58.16-.95v-.31l-2.1.31c-.29.05-.52.16-.71.32-.19.17-.29.4-.29.71,0,.26.1.49.3.69.2.21.47.31.81.31Z"/>
            <path class="cls-3" d="M418.47,246.56c-.28,0-.54.05-.79.15-.25.1-.47.25-.66.45-.2.2-.35.45-.46.75-.12.3-.17.65-.17,1.05s.06.74.17,1.04c.11.3.27.55.46.76.19.2.41.36.67.46.26.1.52.16.8.16.32,0,.6-.05.82-.14.22-.1.41-.21.56-.36.15-.14.26-.3.35-.46.09-.17.15-.32.19-.45l1.19.51c-.09.25-.21.5-.37.75-.16.25-.37.48-.63.69-.26.21-.56.38-.91.51-.35.13-.75.19-1.19.19-.5,0-.97-.09-1.39-.28s-.79-.44-1.09-.77c-.3-.33-.54-.71-.72-1.16-.18-.44-.27-.93-.27-1.45s.09-1.02.27-1.47c.18-.45.42-.83.73-1.15.31-.32.68-.57,1.1-.75.42-.18.88-.27,1.36-.27.46,0,.86.06,1.21.19.35.13.65.3.9.51.25.21.46.45.61.71.15.26.27.52.34.78l-1.21.51c-.05-.17-.11-.34-.2-.51-.09-.17-.2-.33-.35-.46-.15-.14-.33-.25-.54-.34-.21-.09-.46-.14-.76-.14Z"/>
            <path class="cls-3" d="M424.96,245.53h1.48v1.21h-1.48v3.57c0,.31.07.55.21.71.14.16.39.24.74.24.08,0,.18,0,.29-.01.1,0,.19-.02.24-.04v1.14c-.06.02-.17.05-.33.08s-.36.05-.59.05c-.59,0-1.06-.17-1.4-.51-.34-.34-.51-.82-.51-1.45v-3.77h-1.31v-1.21h.37c.37,0,.64-.1.81-.3.17-.2.25-.45.25-.76v-1.11h1.23v2.17Z"/>
            <path class="cls-3" d="M434.21,250.44c-.1.3-.23.59-.42.85-.19.26-.41.49-.67.69-.26.2-.56.35-.89.46-.33.11-.7.17-1.1.17-.46,0-.9-.08-1.31-.24-.42-.16-.79-.4-1.11-.71-.32-.31-.57-.7-.76-1.16s-.28-.98-.28-1.56c0-.54.09-1.04.27-1.48.18-.44.42-.82.72-1.14.3-.32.65-.57,1.05-.74.4-.18.81-.26,1.24-.26.52,0,.99.09,1.41.26.41.18.76.42,1.04.74.28.31.49.69.64,1.13.15.44.22.93.22,1.46,0,.09,0,.17,0,.24,0,.08-.01.14-.02.19h-5.17c0,.3.07.59.17.84s.25.48.44.66.4.33.66.43c.25.1.52.15.81.15.56,0,.99-.13,1.29-.4s.51-.59.64-.99l1.16.4ZM432.85,248.26c-.02-.5-.19-.91-.5-1.25-.31-.34-.78-.51-1.39-.51-.29,0-.54.05-.76.15-.22.1-.41.23-.57.4-.16.17-.29.35-.38.56-.1.21-.15.42-.16.64h3.76Z"/>
            <path class="cls-3" d="M439.78,246.88c-.2-.03-.39-.04-.59-.04-.56,0-1.02.16-1.36.49-.35.33-.52.87-.52,1.62v3.44h-1.34v-6.87h1.31v1.2c.12-.27.27-.48.44-.65.17-.17.34-.3.52-.4.18-.1.37-.17.56-.21.19-.04.37-.06.54-.06.1,0,.18,0,.27.01.08,0,.14.02.18.03v1.43Z"/>
            <path class="cls-3" d="M440.91,242.93c0-.28.09-.51.28-.69s.41-.28.68-.28.51.09.69.28.28.42.28.69-.09.49-.28.68-.42.28-.69.28-.49-.09-.68-.28-.28-.41-.28-.68ZM441.21,252.4v-6.87h1.33v6.87h-1.33Z"/>
            <path class="cls-3" d="M445.39,250.18c.05.36.21.67.47.91s.64.37,1.13.37c.38,0,.67-.09.87-.27.2-.18.3-.39.3-.64,0-.22-.08-.4-.23-.56s-.37-.26-.66-.33l-1.17-.26c-.54-.11-.96-.34-1.26-.69-.3-.34-.45-.76-.45-1.24,0-.29.06-.57.19-.84.13-.26.3-.49.52-.69.22-.2.48-.36.78-.47s.62-.17.95-.17c.47,0,.86.07,1.18.2.32.13.58.3.78.49s.35.4.45.61c.1.21.17.39.21.54l-1.18.44c-.02-.09-.05-.2-.1-.33-.05-.13-.12-.26-.23-.38-.1-.12-.25-.22-.43-.31-.18-.08-.4-.13-.67-.13-.34,0-.62.09-.83.28s-.31.4-.31.64c0,.44.26.71.79.83l1.12.24c.63.13,1.1.38,1.42.74.32.36.48.79.48,1.31,0,.25-.05.5-.16.74-.11.25-.26.48-.46.69-.21.21-.46.38-.78.51-.31.13-.69.19-1.12.19-.47,0-.88-.07-1.22-.2-.34-.13-.62-.3-.84-.5-.22-.2-.4-.42-.51-.65-.12-.23-.19-.45-.22-.65l1.21-.43Z"/>
            <path class="cls-3" d="M453.08,245.53h1.48v1.21h-1.48v3.57c0,.31.07.55.21.71.14.16.39.24.74.24.08,0,.18,0,.29-.01.1,0,.19-.02.24-.04v1.14c-.06.02-.17.05-.33.08s-.36.05-.59.05c-.59,0-1.06-.17-1.4-.51-.34-.34-.51-.82-.51-1.45v-3.77h-1.31v-1.21h.37c.37,0,.64-.1.81-.3.17-.2.25-.45.25-.76v-1.11h1.23v2.17Z"/>
            <path class="cls-3" d="M456.05,242.93c0-.28.09-.51.28-.69s.41-.28.68-.28.51.09.69.28.28.42.28.69-.09.49-.28.68-.42.28-.69.28-.49-.09-.68-.28-.28-.41-.28-.68ZM456.35,252.4v-6.87h1.33v6.87h-1.33Z"/>
            <path class="cls-3" d="M462.85,246.56c-.28,0-.54.05-.79.15-.25.1-.47.25-.66.45-.2.2-.35.45-.46.75-.11.3-.17.65-.17,1.05s.06.74.17,1.04c.12.3.27.55.46.76.19.2.42.36.67.46.26.1.52.16.8.16.32,0,.6-.05.82-.14.22-.1.41-.21.56-.36.15-.14.27-.3.35-.46.09-.17.15-.32.19-.45l1.18.51c-.08.25-.21.5-.37.75-.16.25-.37.48-.63.69-.26.21-.56.38-.91.51-.35.13-.74.19-1.19.19-.51,0-.97-.09-1.39-.28s-.79-.44-1.09-.77c-.3-.33-.54-.71-.72-1.16-.18-.44-.26-.93-.26-1.45s.09-1.02.26-1.47.42-.83.73-1.15c.31-.32.68-.57,1.1-.75s.88-.27,1.36-.27c.46,0,.86.06,1.21.19.35.13.65.3.9.51.25.21.46.45.61.71.15.26.27.52.34.78l-1.21.51c-.05-.17-.12-.34-.2-.51-.09-.17-.2-.33-.35-.46-.15-.14-.33-.25-.54-.34-.21-.09-.46-.14-.76-.14Z"/>
          </g>
          <g>
            <path class="cls-3" d="M538.9,252.61c-.66,0-1.29-.12-1.89-.35-.61-.23-1.14-.57-1.6-1.02-.46-.45-.83-1-1.11-1.66-.28-.66-.42-1.41-.42-2.26s.14-1.6.43-2.25c.29-.65.66-1.2,1.14-1.65.47-.45,1.01-.79,1.61-1.02.6-.23,1.22-.35,1.85-.35.58,0,1.11.08,1.6.23.48.15.92.37,1.3.64.38.28.7.61.96,1.01.26.4.46.84.59,1.33l-1.3.46c-.19-.77-.55-1.36-1.09-1.77-.54-.41-1.22-.61-2.06-.61-.46,0-.9.08-1.34.25-.43.17-.82.42-1.16.75-.34.33-.61.75-.81,1.25-.2.5-.3,1.08-.3,1.74s.1,1.24.3,1.74c.2.5.47.92.81,1.26s.72.59,1.16.76.88.25,1.34.25c.43,0,.82-.06,1.17-.19.35-.12.66-.29.94-.51.27-.21.5-.47.69-.77s.33-.62.44-.96l1.24.46c-.13.48-.33.91-.6,1.31-.27.4-.59.74-.96,1.03-.38.29-.81.51-1.3.67-.49.16-1.03.24-1.61.24Z"/>
            <path class="cls-3" d="M546.42,252.4h-1.34v-10.34h1.34v4.27c.25-.36.56-.62.93-.77.37-.15.76-.23,1.16-.23s.77.07,1.08.21c.31.14.57.33.77.57.21.24.36.53.46.86.1.33.15.69.15,1.07v4.36h-1.34v-4.13c0-.24-.03-.46-.08-.67-.05-.21-.14-.39-.27-.55-.13-.16-.29-.28-.5-.37-.21-.09-.46-.13-.75-.13-.26,0-.48.05-.68.14-.2.09-.36.22-.49.39s-.24.35-.31.57c-.07.22-.11.46-.12.71v4.04Z"/>
            <path class="cls-3" d="M552.68,250.55c0-.3.05-.58.16-.82.1-.24.25-.45.44-.62.19-.17.41-.31.66-.41.26-.1.53-.18.83-.23l1.86-.27c.21-.03.35-.09.42-.19.07-.09.11-.21.11-.33,0-.33-.12-.62-.35-.86-.23-.24-.61-.36-1.13-.36-.48,0-.84.13-1.1.39-.26.26-.41.59-.46.99l-1.29-.3c.04-.32.14-.62.29-.9.16-.28.36-.51.61-.71s.54-.35.87-.46c.33-.11.68-.16,1.05-.16.51,0,.95.07,1.31.21.36.14.66.32.88.55s.39.5.5.8.16.62.16.96v3.44c0,.31,0,.55.03.73.02.18.04.31.06.4h-1.31c-.02-.09-.04-.2-.05-.34s-.02-.34-.02-.59c-.08.12-.18.25-.3.39-.12.13-.28.26-.46.37-.18.11-.39.21-.64.28-.24.07-.52.11-.82.11-.35,0-.67-.06-.95-.17-.28-.11-.52-.26-.72-.45s-.36-.4-.46-.65c-.11-.25-.16-.51-.16-.79ZM555.16,251.48c.28,0,.54-.04.78-.11.24-.07.45-.19.63-.34s.32-.37.42-.63c.1-.26.16-.58.16-.95v-.31l-2.1.31c-.29.05-.52.16-.71.32-.19.17-.29.4-.29.71,0,.26.1.49.3.69.2.21.47.31.81.31Z"/>
            <path class="cls-3" d="M564.39,246.88c-.2-.03-.4-.04-.59-.04-.56,0-1.02.16-1.36.49-.35.33-.52.87-.52,1.62v3.44h-1.34v-6.87h1.31v1.2c.12-.27.27-.48.44-.65.17-.17.34-.3.52-.4.18-.1.37-.17.56-.21.19-.04.37-.06.54-.06.1,0,.18,0,.26.01.08,0,.14.02.18.03v1.43Z"/>
            <path class="cls-3" d="M565.39,250.55c0-.3.05-.58.16-.82.1-.24.25-.45.44-.62.19-.17.41-.31.66-.41.26-.1.53-.18.83-.23l1.86-.27c.21-.03.35-.09.42-.19.07-.09.11-.21.11-.33,0-.33-.12-.62-.35-.86-.23-.24-.61-.36-1.13-.36-.48,0-.84.13-1.1.39-.26.26-.41.59-.46.99l-1.29-.3c.04-.32.14-.62.29-.9.16-.28.36-.51.61-.71s.54-.35.87-.46c.33-.11.68-.16,1.05-.16.51,0,.95.07,1.31.21.36.14.66.32.88.55s.39.5.5.8.16.62.16.96v3.44c0,.31,0,.55.03.73.02.18.04.31.06.4h-1.31c-.02-.09-.04-.2-.05-.34s-.02-.34-.02-.59c-.08.12-.18.25-.3.39-.12.13-.28.26-.46.37-.18.11-.39.21-.64.28-.24.07-.52.11-.82.11-.35,0-.67-.06-.95-.17-.28-.11-.52-.26-.72-.45s-.36-.4-.46-.65c-.11-.25-.16-.51-.16-.79ZM567.88,251.48c.28,0,.54-.04.78-.11.24-.07.45-.19.63-.34s.32-.37.42-.63c.1-.26.16-.58.16-.95v-.31l-2.1.31c-.29.05-.52.16-.71.32-.19.17-.29.4-.29.71,0,.26.1.49.3.69.2.21.47.31.81.31Z"/>
            <path class="cls-3" d="M576.17,246.56c-.28,0-.54.05-.79.15-.25.1-.47.25-.66.45-.2.2-.35.45-.46.75-.11.3-.17.65-.17,1.05s.06.74.17,1.04c.12.3.27.55.46.76.19.2.42.36.67.46.26.1.52.16.8.16.32,0,.6-.05.82-.14.22-.1.41-.21.56-.36.15-.14.27-.3.35-.46.09-.17.15-.32.19-.45l1.18.51c-.08.25-.21.5-.37.75-.16.25-.37.48-.63.69-.26.21-.56.38-.91.51-.35.13-.74.19-1.19.19-.51,0-.97-.09-1.39-.28s-.79-.44-1.09-.77c-.3-.33-.54-.71-.72-1.16-.18-.44-.26-.93-.26-1.45s.09-1.02.26-1.47.42-.83.73-1.15c.31-.32.68-.57,1.1-.75s.88-.27,1.36-.27c.46,0,.86.06,1.21.19.35.13.65.3.9.51.25.21.46.45.61.71.15.26.27.52.34.78l-1.21.51c-.05-.17-.12-.34-.2-.51-.09-.17-.2-.33-.35-.46-.15-.14-.33-.25-.54-.34-.21-.09-.46-.14-.76-.14Z"/>
            <path class="cls-3" d="M582.66,245.53h1.49v1.21h-1.49v3.57c0,.31.07.55.21.71.14.16.39.24.74.24.09,0,.18,0,.29-.01.11,0,.19-.02.24-.04v1.14c-.06.02-.17.05-.33.08s-.36.05-.58.05c-.59,0-1.06-.17-1.4-.51-.34-.34-.51-.82-.51-1.45v-3.77h-1.31v-1.21h.37c.37,0,.64-.1.81-.3.17-.2.25-.45.25-.76v-1.11h1.23v2.17Z"/>
            <path class="cls-3" d="M591.91,250.44c-.1.3-.24.59-.42.85-.19.26-.41.49-.67.69-.26.2-.56.35-.89.46-.33.11-.7.17-1.1.17-.46,0-.89-.08-1.31-.24-.42-.16-.79-.4-1.11-.71-.32-.31-.57-.7-.76-1.16s-.28-.98-.28-1.56c0-.54.09-1.04.27-1.48.18-.44.42-.82.72-1.14.3-.32.65-.57,1.05-.74.4-.18.81-.26,1.24-.26.52,0,.99.09,1.41.26.41.18.76.42,1.04.74.28.31.49.69.63,1.13.15.44.22.93.22,1.46,0,.09,0,.17,0,.24,0,.08-.01.14-.02.19h-5.17c0,.3.07.59.17.84.1.26.25.48.44.66s.4.33.66.43c.25.1.52.15.81.15.56,0,.99-.13,1.29-.4s.51-.59.64-.99l1.16.4ZM590.55,248.26c-.02-.5-.19-.91-.5-1.25s-.78-.51-1.38-.51c-.29,0-.54.05-.76.15-.22.1-.42.23-.57.4-.16.17-.28.35-.38.56-.1.21-.15.42-.16.64h3.76Z"/>
            <path class="cls-3" d="M597.48,246.88c-.2-.03-.4-.04-.59-.04-.56,0-1.02.16-1.36.49-.35.33-.52.87-.52,1.62v3.44h-1.34v-6.87h1.31v1.2c.12-.27.27-.48.44-.65.17-.17.34-.3.52-.4.18-.1.37-.17.56-.21.19-.04.37-.06.54-.06.1,0,.18,0,.26.01.08,0,.14.02.18.03v1.43Z"/>
            <path class="cls-3" d="M598.61,242.93c0-.28.09-.51.28-.69s.41-.28.68-.28.51.09.69.28.28.42.28.69-.09.49-.28.68-.42.28-.69.28-.49-.09-.68-.28-.28-.41-.28-.68ZM598.91,252.4v-6.87h1.33v6.87h-1.33Z"/>
            <path class="cls-3" d="M603.09,250.18c.05.36.21.67.47.91.27.25.64.37,1.13.37.38,0,.67-.09.87-.27.2-.18.3-.39.3-.64,0-.22-.08-.4-.23-.56s-.37-.26-.66-.33l-1.17-.26c-.54-.11-.96-.34-1.26-.69-.3-.34-.45-.76-.45-1.24,0-.29.06-.57.19-.84s.3-.49.52-.69.48-.36.78-.47c.3-.11.62-.17.95-.17.47,0,.86.07,1.18.2.32.13.58.3.78.49.2.2.35.4.45.61.1.21.17.39.21.54l-1.19.44c-.02-.09-.05-.2-.1-.33-.05-.13-.12-.26-.23-.38-.11-.12-.25-.22-.43-.31-.18-.08-.4-.13-.67-.13-.34,0-.62.09-.83.28-.21.19-.31.4-.31.64,0,.44.26.71.79.83l1.11.24c.63.13,1.1.38,1.42.74.32.36.48.79.48,1.31,0,.25-.05.5-.16.74-.1.25-.26.48-.46.69-.21.21-.46.38-.78.51-.31.13-.69.19-1.11.19-.48,0-.88-.07-1.22-.2-.34-.13-.62-.3-.84-.5-.22-.2-.39-.42-.51-.65s-.19-.45-.22-.65l1.21-.43Z"/>
            <path class="cls-3" d="M610.78,245.53h1.49v1.21h-1.49v3.57c0,.31.07.55.21.71.14.16.39.24.74.24.09,0,.18,0,.29-.01.11,0,.19-.02.24-.04v1.14c-.06.02-.17.05-.33.08s-.36.05-.58.05c-.59,0-1.06-.17-1.4-.51-.34-.34-.51-.82-.51-1.45v-3.77h-1.31v-1.21h.37c.37,0,.64-.1.81-.3.17-.2.25-.45.25-.76v-1.11h1.23v2.17Z"/>
            <path class="cls-3" d="M613.75,242.93c0-.28.09-.51.28-.69s.41-.28.68-.28.51.09.69.28.28.42.28.69-.09.49-.28.68-.42.28-.69.28-.49-.09-.68-.28-.28-.41-.28-.68ZM614.05,252.4v-6.87h1.33v6.87h-1.33Z"/>
            <path class="cls-3" d="M620.55,246.56c-.28,0-.54.05-.79.15-.25.1-.47.25-.66.45-.2.2-.35.45-.46.75-.12.3-.17.65-.17,1.05s.06.74.17,1.04c.11.3.27.55.46.76.19.2.41.36.67.46.26.1.52.16.8.16.32,0,.6-.05.82-.14.22-.1.41-.21.56-.36.15-.14.26-.3.35-.46.09-.17.15-.32.19-.45l1.19.51c-.09.25-.21.5-.37.75-.16.25-.37.48-.63.69-.26.21-.56.38-.91.51-.35.13-.75.19-1.19.19-.5,0-.97-.09-1.39-.28s-.79-.44-1.09-.77c-.3-.33-.54-.71-.72-1.16-.18-.44-.27-.93-.27-1.45s.09-1.02.27-1.47c.18-.45.42-.83.73-1.15.31-.32.68-.57,1.1-.75.42-.18.88-.27,1.36-.27.46,0,.86.06,1.21.19.35.13.65.3.9.51.25.21.46.45.61.71.15.26.27.52.34.78l-1.21.51c-.05-.17-.11-.34-.2-.51-.09-.17-.2-.33-.35-.46-.15-.14-.33-.25-.54-.34-.21-.09-.46-.14-.76-.14Z"/>
          </g>
        </g>
        <g>
          <rect class="cls-5" x="346.53" y="147.24" width="304" height="31.58"/>
          <g>
            <path class="cls-3" d="M481.24,160.27c-.03-.18-.09-.37-.19-.58-.1-.2-.23-.39-.4-.56-.17-.17-.39-.31-.64-.42s-.56-.16-.91-.16c-.29,0-.55.04-.79.13-.24.08-.45.2-.62.36-.18.15-.31.33-.41.54-.1.21-.14.43-.14.66,0,.36.11.67.33.94.22.26.54.44.97.54l1.51.33c.85.19,1.5.53,1.95,1.03s.68,1.1.68,1.81c0,.39-.08.77-.24,1.13-.16.36-.4.68-.7.96s-.67.5-1.1.66c-.43.17-.91.25-1.46.25-.61,0-1.14-.09-1.59-.27-.45-.18-.83-.41-1.14-.7-.31-.29-.55-.61-.72-.96-.17-.36-.28-.72-.33-1.08l1.34-.43c.03.29.1.56.21.82.11.26.27.49.47.69s.45.36.74.48c.29.12.63.18,1.01.18.69,0,1.22-.16,1.56-.47s.52-.7.52-1.14c0-.36-.12-.69-.37-.98-.25-.29-.63-.49-1.14-.59l-1.44-.31c-.72-.16-1.32-.47-1.78-.94-.46-.46-.69-1.07-.69-1.83,0-.4.09-.78.26-1.14.17-.36.41-.68.71-.96.3-.28.65-.5,1.06-.66.41-.17.85-.25,1.31-.25.57,0,1.06.08,1.46.24.4.16.74.36,1.01.61.27.25.48.52.64.81s.26.58.31.86l-1.26.44Z"/>
            <path class="cls-3" d="M490.35,165.7c-.1.3-.24.59-.42.85-.19.26-.41.49-.67.69-.26.2-.56.35-.89.46s-.7.17-1.1.17c-.46,0-.9-.08-1.31-.24-.42-.16-.79-.4-1.11-.71-.32-.31-.57-.7-.76-1.16s-.28-.98-.28-1.56c0-.54.09-1.04.27-1.48.18-.44.42-.82.72-1.14s.65-.57,1.05-.74c.4-.18.81-.26,1.24-.26.52,0,.99.09,1.41.26.41.18.76.42,1.04.74.28.31.49.69.64,1.13.15.44.22.93.22,1.46,0,.09,0,.17,0,.24s-.01.14-.02.19h-5.17c0,.3.07.59.17.84.1.26.25.48.44.66s.4.33.66.43c.25.1.52.15.81.15.56,0,.99-.13,1.29-.4s.51-.59.64-.99l1.16.4ZM488.99,163.51c-.02-.5-.19-.91-.5-1.25-.31-.34-.78-.51-1.39-.51-.29,0-.54.05-.76.15-.22.1-.42.23-.57.4-.16.17-.28.35-.38.56-.1.21-.15.42-.16.64h3.76Z"/>
            <path class="cls-3" d="M495.92,162.14c-.2-.03-.4-.04-.59-.04-.56,0-1.02.16-1.36.49-.35.33-.52.87-.52,1.62v3.44h-1.34v-6.87h1.31v1.2c.12-.27.27-.48.44-.65s.34-.3.52-.4c.18-.1.37-.17.56-.21s.37-.06.54-.06c.1,0,.18,0,.26.01s.14.02.18.03v1.43Z"/>
            <path class="cls-3" d="M500.49,167.65h-1.36l-2.79-6.87h1.51l1.96,5.3,1.97-5.3h1.44l-2.74,6.87Z"/>
            <path class="cls-3" d="M504.22,158.18c0-.28.09-.51.28-.69s.41-.28.68-.28.51.09.69.28.28.42.28.69-.09.49-.28.68-.42.28-.69.28-.49-.09-.68-.28-.28-.41-.28-.68ZM504.52,167.65v-6.87h1.33v6.87h-1.33Z"/>
            <path class="cls-3" d="M511.02,161.81c-.28,0-.54.05-.79.15-.25.1-.47.25-.66.45-.2.2-.35.45-.46.75s-.17.65-.17,1.05.06.74.17,1.04c.11.3.27.55.46.76.19.2.42.36.67.46s.52.16.8.16c.32,0,.6-.05.82-.14.22-.1.41-.21.56-.36s.26-.3.35-.46c.09-.17.15-.32.19-.45l1.18.51c-.08.25-.21.5-.37.75-.16.25-.37.48-.63.69-.26.21-.56.38-.91.51-.35.13-.75.19-1.19.19-.5,0-.97-.09-1.39-.28s-.79-.44-1.09-.77c-.3-.33-.54-.71-.72-1.16-.18-.44-.26-.93-.26-1.45s.09-1.02.26-1.47c.18-.45.42-.83.73-1.15.31-.32.68-.57,1.1-.75.42-.18.88-.27,1.36-.27.46,0,.86.06,1.21.19.35.13.65.3.9.51.25.21.46.45.61.71.15.26.27.52.34.78l-1.21.51c-.05-.17-.11-.34-.2-.51-.09-.17-.2-.33-.35-.46-.15-.14-.33-.25-.54-.34-.21-.09-.46-.14-.76-.14Z"/>
            <path class="cls-3" d="M521.69,165.7c-.1.3-.24.59-.42.85-.19.26-.41.49-.67.69-.26.2-.56.35-.89.46s-.7.17-1.1.17c-.46,0-.9-.08-1.31-.24-.42-.16-.79-.4-1.11-.71-.32-.31-.57-.7-.76-1.16s-.28-.98-.28-1.56c0-.54.09-1.04.27-1.48.18-.44.42-.82.72-1.14s.65-.57,1.05-.74c.4-.18.81-.26,1.24-.26.52,0,.99.09,1.41.26.41.18.76.42,1.04.74.28.31.49.69.64,1.13.15.44.22.93.22,1.46,0,.09,0,.17,0,.24s-.01.14-.02.19h-5.17c0,.3.07.59.17.84.1.26.25.48.44.66s.4.33.66.43c.25.1.52.15.81.15.56,0,.99-.13,1.29-.4s.51-.59.64-.99l1.16.4ZM520.33,163.51c-.02-.5-.19-.91-.5-1.25-.31-.34-.78-.51-1.39-.51-.29,0-.54.05-.76.15-.22.1-.42.23-.57.4-.16.17-.28.35-.38.56-.1.21-.15.42-.16.64h3.76Z"/>
          </g>
        </g>
        <g>
          <line class="cls-1" x1="420.96" y1="262.02" x2="420.96" y2="306.08"/>
          <polygon points="418.15 305.26 420.96 310.12 423.76 305.26 418.15 305.26"/>
        </g>
        <circle class="cls-2" cx="340.3" cy="92.68" r="62.23"/>
        <path id="Market_Data_Transfer" data-name="Market_Data Transfer" class="cls-4" d="M331.62,132.02c-1.81,0-3.33-1.29-3.63-3.07-.97-5.79-3.08-13.46-5.8-16.01-.08-.07-.13-.16-.16-.27l-.06-.22-.17-.15c-1.83-1.64-2.88-3.98-2.88-6.43v-26.4c0-2.48,1.08-4.84,2.95-6.49l.17-.15.06-.21c.03-.11.1-.21.18-.29,2.75-2.37,4.87-11.13,5.69-15.94.3-1.78,1.83-3.07,3.63-3.07h17.38c1.81,0,3.33,1.29,3.63,3.07.97,5.79,3.08,13.46,5.8,16.01.08.07.13.16.16.28l.06.21.17.15c1.83,1.64,2.88,3.98,2.88,6.42v26.4c0,2.48-1.08,4.85-2.95,6.49l-.17.15-.06.21c-.04.12-.1.21-.18.28-2.75,2.37-4.87,11.14-5.69,15.94-.3,1.78-1.83,3.07-3.63,3.07h-17.37ZM325.38,115.52c2.18,4.48,3.39,10.74,3.81,13.23.2,1.19,1.22,2.05,2.43,2.05h17.37c1.2,0,2.23-.86,2.43-2.05.43-2.51,1.66-8.84,3.76-13.23l.64-1.33-1.46.22c-.43.06-.87.1-1.3.1h-25.51c-.45,0-.9-.04-1.34-.11l-1.48-.23.66,1.35ZM327.54,72.07c-4.09,0-7.41,3.32-7.41,7.41v26.4c0,4.09,3.32,7.41,7.41,7.41h25.51c4.09,0,7.41-3.32,7.41-7.41v-26.4c0-4.09-3.32-7.41-7.41-7.41h-25.51ZM353.06,70.85c.45,0,.9.04,1.34.11l1.48.23-.66-1.35c-2.19-4.48-3.39-10.74-3.81-13.23-.2-1.19-1.22-2.05-2.43-2.05h-17.38c-1.21,0-2.23.86-2.43,2.05-.43,2.51-1.66,8.84-3.75,13.23l-.64,1.33,1.46-.22c.43-.06.87-.1,1.3-.1h25.51ZM327.77,82.47l2.78-2.78c.12-.11.18-.27.18-.43s-.06-.32-.18-.43c-.11-.11-.27-.18-.43-.18s-.32.06-.43.18l-2.78,2.78c-.12.12-.18.27-.18.43s.06.32.18.43c.12.12.27.18.43.18s.32-.06.43-.18ZM328.61,88.21l7.67-7.67c.24-.24.24-.62,0-.86-.12-.12-.27-.18-.43-.18s-.32.06-.43.18l-7.67,7.67c-.12.12-.18.27-.18.43s.06.31.18.43c.12.12.27.18.43.18s.32-.06.43-.18Z"/>
      </g>
    </g>
  </g>
</svg>