<?xml version="1.0" encoding="UTF-8"?>
<svg id="Layer_1" data-name="Layer 1" xmlns="http://www.w3.org/2000/svg" viewBox="0 0 684 396">
  <defs>
    <style>
      .cls-1 {
        fill: #937700;
      }

      .cls-2 {
        stroke: #000;
        stroke-width: .75px;
      }

      .cls-2, .cls-3, .cls-4 {
        fill: none;
        stroke-miterlimit: 10;
      }

      .cls-3 {
        stroke: #80c1fe;
      }

      .cls-3, .cls-4 {
        stroke-dasharray: 1 3 1 3 1 3;
      }

      .cls-5 {
        fill: #446d21;
      }

      .cls-6 {
        fill: #fff;
      }

      .cls-7 {
        fill: #646569;
      }

      .cls-8 {
        fill: #ffcb0f;
      }

      .cls-9 {
        fill: #7fb842;
      }

      .cls-4 {
        stroke: #646569;
      }

      .cls-10 {
        fill: #0082fc;
      }
    </style>
  </defs>
  <g>
    <line class="cls-2" x1="20.31" y1="49.56" x2="334.19" y2="49.56"/>
    <polygon points="20.85 51.43 17.62 49.56 20.85 47.69 20.85 51.43"/>
    <polygon points="333.64 51.43 336.88 49.56 333.64 47.69 333.64 51.43"/>
  </g>
  <g>
    <line class="cls-2" x1="21.83" y1="215.09" x2="51.27" y2="215.09"/>
    <polygon points="22.38 216.96 19.14 215.09 22.38 213.22 22.38 216.96"/>
    <polygon points="50.73 216.96 53.96 215.09 50.73 213.22 50.73 216.96"/>
  </g>
  <g>
    <line class="cls-2" x1="55.95" y1="215.09" x2="86.92" y2="215.09"/>
    <polygon points="56.5 216.96 53.26 215.09 56.5 213.22 56.5 216.96"/>
    <polygon points="86.37 216.96 89.61 215.09 86.37 213.22 86.37 216.96"/>
  </g>
  <line class="cls-4" x1="17.25" y1="360.85" x2="17.25" y2="35.15"/>
  <line class="cls-3" x1="89.61" y1="218.55" x2="89.61" y2="144.86"/>
  <line class="cls-3" x1="53.26" y1="218.55" x2="53.26" y2="144.86"/>
  <rect class="cls-10" x="20.26" y="63.08" width="317.62" height="14.54"/>
  <rect class="cls-9" x="19.14" y="128.86" width="106.82" height="14.54"/>
  <line class="cls-4" x1="340.89" y1="35.15" x2="340.89" y2="360.85"/>
  <g>
    <rect class="cls-6" x="147.57" y="40.66" width="59.36" height="17.63"/>
    <g>
      <path d="M152.41,52.6v-6.95h.98v6.95h-.98Z"/>
      <path d="M158.8,47.53c-.02-.12-.06-.26-.13-.4-.07-.14-.16-.27-.27-.39s-.26-.21-.44-.29-.39-.11-.63-.11c-.2,0-.38.03-.54.09-.16.06-.31.14-.43.24-.12.11-.21.23-.28.37-.07.14-.1.29-.1.46,0,.25.08.46.23.64s.37.3.67.37l1.04.22c.58.13,1.03.37,1.34.71s.47.75.47,1.25c0,.27-.06.53-.17.77s-.27.47-.48.66c-.21.19-.46.34-.75.46s-.63.17-1,.17c-.42,0-.78-.06-1.09-.19s-.57-.28-.78-.48c-.21-.2-.38-.42-.5-.66-.12-.25-.19-.49-.23-.74l.92-.29c.02.2.07.38.14.56.07.18.18.34.32.48.14.14.31.25.51.33s.43.12.69.12c.48,0,.83-.11,1.07-.32.24-.22.36-.48.36-.78,0-.25-.08-.47-.25-.67s-.43-.33-.78-.41l-.99-.22c-.5-.11-.9-.33-1.22-.64-.32-.32-.47-.74-.47-1.26,0-.27.06-.54.18-.78.12-.25.28-.47.49-.66.21-.19.45-.34.73-.46s.58-.17.9-.17c.39,0,.73.05,1,.16.28.11.51.25.7.42s.33.36.44.56c.1.2.18.4.21.59l-.86.3Z"/>
      <path d="M160.68,49.12c0-.58.1-1.1.3-1.54s.46-.83.79-1.13c.33-.31.7-.54,1.12-.7s.85-.24,1.28-.24.87.08,1.28.24.79.39,1.12.7c.33.31.59.68.79,1.13s.3.96.3,1.54-.1,1.1-.3,1.55-.46.83-.79,1.14c-.33.31-.7.54-1.12.7s-.85.24-1.28.24-.87-.08-1.28-.24-.79-.39-1.12-.7c-.33-.31-.59-.69-.79-1.14s-.3-.97-.3-1.55ZM161.66,49.12c0,.45.07.85.21,1.19.14.34.33.63.56.86.23.23.5.41.8.52.3.11.61.17.94.17s.63-.06.94-.17.57-.29.8-.52c.23-.23.42-.52.56-.86.14-.34.21-.74.21-1.19s-.07-.85-.21-1.19c-.14-.34-.33-.63-.56-.86-.23-.23-.5-.4-.8-.51s-.62-.17-.94-.17-.64.06-.94.17c-.3.11-.57.29-.8.51-.23.23-.42.51-.56.86-.14.34-.21.74-.21,1.19Z"/>
      <path d="M171.43,52.6v-6.95h.98v6.95h-.98Z"/>
      <path d="M174.99,52.6h-.92v-4.71h.9v.68c.17-.29.39-.5.65-.63.26-.12.53-.19.8-.19s.53.05.74.14c.21.09.39.23.53.39.14.17.25.36.31.59s.1.47.1.74v2.99h-.92v-2.83c0-.16-.02-.32-.05-.46-.04-.14-.1-.27-.19-.38-.09-.11-.2-.19-.34-.25-.14-.06-.31-.09-.51-.09-.18,0-.34.03-.48.1-.14.07-.25.16-.34.28-.09.12-.16.25-.21.41-.05.16-.07.32-.07.5v2.72Z"/>
      <path d="M180.81,47.89h1.02v.83h-1.02v2.45c0,.22.05.38.15.49.1.11.27.16.51.16.06,0,.12,0,.2,0,.07,0,.13-.02.17-.03v.78s-.11.03-.23.05c-.11.02-.25.03-.4.03-.41,0-.73-.12-.96-.35-.24-.23-.35-.56-.35-1v-2.59h-.9v-.83h.25c.25,0,.44-.07.55-.21.11-.14.17-.31.17-.52v-.76h.84v1.49Z"/>
      <path d="M187.06,51.26c-.07.21-.16.4-.29.58-.13.18-.28.34-.46.47s-.38.24-.61.32c-.23.08-.48.12-.75.12-.31,0-.61-.06-.9-.17-.29-.11-.54-.27-.76-.49s-.39-.48-.52-.79c-.13-.31-.19-.67-.19-1.07,0-.37.06-.71.19-1.01s.29-.57.5-.78.45-.39.72-.51c.27-.12.56-.18.85-.18.36,0,.68.06.97.18.28.12.52.29.71.5.19.22.33.48.44.78.1.3.15.64.15,1,0,.06,0,.11,0,.17,0,.05,0,.09-.01.13h-3.55c0,.21.05.4.12.58.07.18.17.33.3.46.13.13.28.23.45.29.17.07.36.1.55.1.38,0,.68-.09.88-.27.2-.18.35-.41.44-.68l.79.27ZM186.13,49.76c-.01-.34-.13-.62-.34-.86-.22-.23-.53-.35-.95-.35-.2,0-.37.03-.52.1s-.28.16-.39.27c-.11.11-.19.24-.26.39s-.1.29-.11.44h2.58Z"/>
      <path d="M190.91,48.82c-.14-.02-.27-.03-.4-.03-.39,0-.7.11-.94.34s-.36.6-.36,1.11v2.36h-.92v-4.71h.9v.82c.08-.18.18-.33.3-.45.11-.11.23-.21.36-.27.12-.07.25-.12.38-.14.13-.03.25-.04.37-.04.07,0,.13,0,.18,0,.05,0,.1.01.12.02v.98Z"/>
      <path d="M194.37,52.6h-.93l-1.91-4.71h1.04l1.34,3.64,1.35-3.64h.99l-1.88,4.71Z"/>
      <path d="M196.79,51.34c0-.21.04-.4.11-.56.07-.17.17-.31.3-.43.13-.12.28-.21.46-.29.18-.07.37-.12.57-.16l1.27-.19c.14-.02.24-.06.29-.13.05-.07.07-.14.07-.23,0-.23-.08-.43-.24-.59-.16-.17-.42-.25-.78-.25-.33,0-.58.09-.75.27s-.28.41-.31.68l-.88-.21c.03-.22.09-.43.2-.62s.25-.35.42-.49.37-.24.59-.31.47-.11.72-.11c.35,0,.65.05.9.14s.45.22.61.38c.16.16.27.34.34.55.07.21.11.43.11.66v2.36c0,.21,0,.38.02.5.01.12.03.22.04.27h-.9c-.01-.06-.02-.14-.03-.24,0-.1-.01-.23-.01-.4-.05.08-.12.17-.21.26s-.19.18-.31.25c-.12.08-.27.14-.44.19-.17.05-.35.07-.56.07-.24,0-.46-.04-.65-.12-.19-.08-.36-.18-.49-.31-.14-.13-.24-.28-.32-.45-.08-.17-.11-.35-.11-.54ZM198.49,51.97c.19,0,.37-.02.53-.07.17-.05.31-.13.43-.24.12-.11.22-.25.29-.43.07-.18.11-.4.11-.65v-.21l-1.44.21c-.2.03-.36.11-.49.22s-.2.28-.2.49c0,.18.07.33.21.48.14.14.32.21.56.21Z"/>
      <path d="M202.21,52.6v-7.1h.92v7.1h-.92Z"/>
    </g>
  </g>
  <g>
    <line class="cls-2" x1="20.31" y1="115.51" x2="310.74" y2="115.51"/>
    <polygon points="20.85 117.38 17.62 115.51 20.85 113.64 20.85 117.38"/>
    <polygon points="310.19 117.38 313.43 115.51 310.19 113.64 310.19 117.38"/>
  </g>
  <g>
    <rect class="cls-6" x="135.84" y="106.61" width="59.36" height="17.63"/>
    <g>
      <path d="M140.68,118.55v-6.95h.98v6.95h-.98Z"/>
      <path d="M147.07,113.48c-.02-.12-.06-.26-.13-.4-.07-.14-.16-.27-.27-.39s-.26-.21-.44-.29-.39-.11-.63-.11c-.2,0-.38.03-.54.09-.16.06-.31.14-.43.24-.12.11-.21.23-.28.37-.07.14-.1.29-.1.46,0,.25.08.46.23.64s.37.3.67.37l1.04.22c.58.13,1.03.37,1.34.71s.47.75.47,1.25c0,.27-.06.53-.17.77s-.27.47-.48.66c-.21.19-.46.34-.75.46s-.63.17-1,.17c-.42,0-.78-.06-1.09-.19s-.57-.28-.78-.48c-.21-.2-.38-.42-.5-.66-.12-.25-.19-.49-.23-.74l.92-.29c.02.2.07.38.14.56.07.18.18.34.32.48.14.14.31.25.51.33s.43.12.69.12c.48,0,.83-.11,1.07-.32.24-.22.36-.48.36-.78,0-.25-.08-.47-.25-.67s-.43-.33-.78-.41l-.99-.22c-.5-.11-.9-.33-1.22-.64-.32-.32-.47-.74-.47-1.26,0-.27.06-.54.18-.78.12-.25.28-.47.49-.66.21-.19.45-.34.73-.46s.58-.17.9-.17c.39,0,.73.05,1,.16.28.11.51.25.7.42s.33.36.44.56c.1.2.18.4.21.59l-.86.3Z"/>
      <path d="M148.95,115.07c0-.58.1-1.1.3-1.54s.46-.83.79-1.13c.33-.31.7-.54,1.12-.7s.85-.24,1.28-.24.87.08,1.28.24.79.39,1.12.7c.33.31.59.68.79,1.13s.3.96.3,1.54-.1,1.1-.3,1.55-.46.83-.79,1.14c-.33.31-.7.54-1.12.7s-.85.24-1.28.24-.87-.08-1.28-.24-.79-.39-1.12-.7c-.33-.31-.59-.69-.79-1.14s-.3-.97-.3-1.55ZM149.93,115.07c0,.45.07.85.21,1.19.14.34.33.63.56.86.23.23.5.41.8.52.3.11.61.17.94.17s.63-.06.94-.17.57-.29.8-.52c.23-.23.42-.52.56-.86.14-.34.21-.74.21-1.19s-.07-.85-.21-1.19c-.14-.34-.33-.63-.56-.86-.23-.23-.5-.4-.8-.51s-.62-.17-.94-.17-.64.06-.94.17c-.3.11-.57.29-.8.51-.23.23-.42.51-.56.86-.14.34-.21.74-.21,1.19Z"/>
      <path d="M159.7,118.55v-6.95h.98v6.95h-.98Z"/>
      <path d="M163.26,118.55h-.92v-4.71h.9v.68c.17-.29.39-.5.65-.63.26-.12.53-.19.8-.19s.53.05.74.14c.21.09.39.23.53.39.14.17.25.36.31.59s.1.47.1.74v2.99h-.92v-2.83c0-.16-.02-.32-.05-.46-.04-.14-.1-.27-.19-.38-.09-.11-.2-.19-.34-.25-.14-.06-.31-.09-.51-.09-.18,0-.34.03-.48.1-.14.07-.25.16-.34.28-.09.12-.16.25-.21.41-.05.16-.07.32-.07.5v2.72Z"/>
      <path d="M169.09,113.83h1.02v.83h-1.02v2.45c0,.22.05.38.15.49.1.11.27.16.51.16.06,0,.12,0,.2,0,.07,0,.13-.02.17-.03v.78s-.11.03-.23.05c-.11.02-.25.03-.4.03-.41,0-.73-.12-.96-.35-.24-.23-.35-.56-.35-1v-2.59h-.9v-.83h.25c.25,0,.44-.07.55-.21.11-.14.17-.31.17-.52v-.76h.84v1.49Z"/>
      <path d="M175.33,117.21c-.07.21-.16.4-.29.58-.13.18-.28.34-.46.47s-.38.24-.61.32c-.23.08-.48.12-.75.12-.31,0-.61-.06-.9-.17-.29-.11-.54-.27-.76-.49s-.39-.48-.52-.79c-.13-.31-.19-.67-.19-1.07,0-.37.06-.71.19-1.01s.29-.57.5-.78.45-.39.72-.51c.27-.12.56-.18.85-.18.36,0,.68.06.97.18.28.12.52.29.71.5.19.22.33.48.44.78.1.3.15.64.15,1,0,.06,0,.11,0,.17,0,.05,0,.09-.01.13h-3.55c0,.21.05.4.12.58.07.18.17.33.3.46.13.13.28.23.45.29.17.07.36.1.55.1.38,0,.68-.09.88-.27.2-.18.35-.41.44-.68l.79.27ZM174.4,115.71c-.01-.34-.13-.62-.34-.86-.22-.23-.53-.35-.95-.35-.2,0-.37.03-.52.1s-.28.16-.39.27c-.11.11-.19.24-.26.39s-.1.29-.11.44h2.58Z"/>
      <path d="M179.18,114.77c-.14-.02-.27-.03-.4-.03-.39,0-.7.11-.94.34s-.36.6-.36,1.11v2.36h-.92v-4.71h.9v.82c.08-.18.18-.33.3-.45.11-.11.23-.21.36-.27.12-.07.25-.12.38-.14.13-.03.25-.04.37-.04.07,0,.13,0,.18,0,.05,0,.1.01.12.02v.98Z"/>
      <path d="M182.65,118.55h-.93l-1.91-4.71h1.04l1.34,3.64,1.35-3.64h.99l-1.88,4.71Z"/>
      <path d="M185.06,117.28c0-.21.04-.4.11-.56.07-.17.17-.31.3-.43.13-.12.28-.21.46-.29.18-.07.37-.12.57-.16l1.27-.19c.14-.02.24-.06.29-.13.05-.07.07-.14.07-.23,0-.23-.08-.43-.24-.59-.16-.17-.42-.25-.78-.25-.33,0-.58.09-.75.27s-.28.41-.31.68l-.88-.21c.03-.22.09-.43.2-.62s.25-.35.42-.49.37-.24.59-.31.47-.11.72-.11c.35,0,.65.05.9.14s.45.22.61.38c.16.16.27.34.34.55.07.21.11.43.11.66v2.36c0,.21,0,.38.02.5.01.12.03.22.04.27h-.9c-.01-.06-.02-.14-.03-.24,0-.1-.01-.23-.01-.4-.05.08-.12.17-.21.26s-.19.18-.31.25c-.12.08-.27.14-.44.19-.17.05-.35.07-.56.07-.24,0-.46-.04-.65-.12-.19-.08-.36-.18-.49-.31-.14-.13-.24-.28-.32-.45-.08-.17-.11-.35-.11-.54ZM186.77,117.92c.19,0,.37-.02.53-.07.17-.05.31-.13.43-.24.12-.11.22-.25.29-.43.07-.18.11-.4.11-.65v-.21l-1.44.21c-.2.03-.36.11-.49.22s-.2.28-.2.49c0,.18.07.33.21.48.14.14.32.21.56.21Z"/>
      <path d="M190.48,118.55v-7.1h.92v7.1h-.92Z"/>
    </g>
  </g>
  <g>
    <line class="cls-2" x1="128.65" y1="232.22" x2="449.13" y2="232.22"/>
    <polygon points="129.2 234.09 125.96 232.22 129.2 230.35 129.2 234.09"/>
    <polygon points="448.58 234.09 451.82 232.22 448.58 230.35 448.58 234.09"/>
  </g>
  <g>
    <rect class="cls-6" x="259.21" y="223.32" width="59.36" height="17.63"/>
    <g>
      <path d="M264.05,235.25v-6.95h.98v6.95h-.98Z"/>
      <path d="M270.44,230.19c-.02-.12-.06-.26-.13-.4-.07-.14-.16-.27-.27-.39s-.26-.21-.44-.29-.39-.11-.63-.11c-.2,0-.38.03-.54.09-.16.06-.31.14-.43.24-.12.11-.21.23-.28.37-.07.14-.1.29-.1.46,0,.25.08.46.23.64s.37.3.67.37l1.04.22c.58.13,1.03.37,1.34.71s.47.75.47,1.25c0,.27-.06.53-.17.77s-.27.47-.48.66c-.21.19-.46.34-.75.46s-.63.17-1,.17c-.42,0-.78-.06-1.09-.19s-.57-.28-.78-.48c-.21-.2-.38-.42-.5-.66-.12-.25-.19-.49-.23-.74l.92-.29c.02.2.07.38.14.56.07.18.18.34.32.48.14.14.31.25.51.33s.43.12.69.12c.48,0,.83-.11,1.07-.32.24-.22.36-.48.36-.78,0-.25-.08-.47-.25-.67s-.43-.33-.78-.41l-.99-.22c-.5-.11-.9-.33-1.22-.64-.32-.32-.47-.74-.47-1.26,0-.27.06-.54.18-.78.12-.25.28-.47.49-.66.21-.19.45-.34.73-.46s.58-.17.9-.17c.39,0,.73.05,1,.16.28.11.51.25.7.42s.33.36.44.56c.1.2.18.4.21.59l-.86.3Z"/>
      <path d="M272.32,231.77c0-.58.1-1.1.3-1.54s.46-.83.79-1.13c.33-.31.7-.54,1.12-.7s.85-.24,1.28-.24.87.08,1.28.24.79.39,1.12.7c.33.31.59.68.79,1.13s.3.96.3,1.54-.1,1.1-.3,1.55-.46.83-.79,1.14c-.33.31-.7.54-1.12.7s-.85.24-1.28.24-.87-.08-1.28-.24-.79-.39-1.12-.7c-.33-.31-.59-.69-.79-1.14s-.3-.97-.3-1.55ZM273.3,231.77c0,.45.07.85.21,1.19.14.34.33.63.56.86.23.23.5.41.8.52.3.11.61.17.94.17s.63-.06.94-.17.57-.29.8-.52c.23-.23.42-.52.56-.86.14-.34.21-.74.21-1.19s-.07-.85-.21-1.19c-.14-.34-.33-.63-.56-.86-.23-.23-.5-.4-.8-.51s-.62-.17-.94-.17-.64.06-.94.17c-.3.11-.57.29-.8.51-.23.23-.42.51-.56.86-.14.34-.21.74-.21,1.19Z"/>
      <path d="M283.07,235.25v-6.95h.98v6.95h-.98Z"/>
      <path d="M286.63,235.25h-.92v-4.71h.9v.68c.17-.29.39-.5.65-.63.26-.12.53-.19.8-.19s.53.05.74.14c.21.09.39.23.53.39.14.17.25.36.31.59s.1.47.1.74v2.99h-.92v-2.83c0-.16-.02-.32-.05-.46-.04-.14-.1-.27-.19-.38-.09-.11-.2-.19-.34-.25-.14-.06-.31-.09-.51-.09-.18,0-.34.03-.48.1-.14.07-.25.16-.34.28-.09.12-.16.25-.21.41-.05.16-.07.32-.07.5v2.72Z"/>
      <path d="M292.45,230.54h1.02v.83h-1.02v2.45c0,.22.05.38.15.49.1.11.27.16.51.16.06,0,.12,0,.2,0,.07,0,.13-.02.17-.03v.78s-.11.03-.23.05c-.11.02-.25.03-.4.03-.41,0-.73-.12-.96-.35-.24-.23-.35-.56-.35-1v-2.59h-.9v-.83h.25c.25,0,.44-.07.55-.21.11-.14.17-.31.17-.52v-.76h.84v1.49Z"/>
      <path d="M298.7,233.91c-.07.21-.16.4-.29.58-.13.18-.28.34-.46.47s-.38.24-.61.32c-.23.08-.48.12-.75.12-.31,0-.61-.06-.9-.17-.29-.11-.54-.27-.76-.49s-.39-.48-.52-.79c-.13-.31-.19-.67-.19-1.07,0-.37.06-.71.19-1.01s.29-.57.5-.78.45-.39.72-.51c.27-.12.56-.18.85-.18.36,0,.68.06.97.18.28.12.52.29.71.5.19.22.33.48.44.78.1.3.15.64.15,1,0,.06,0,.11,0,.17,0,.05,0,.09-.01.13h-3.55c0,.21.05.4.12.58.07.18.17.33.3.46.13.13.28.23.45.29.17.07.36.1.55.1.38,0,.68-.09.88-.27.2-.18.35-.41.44-.68l.79.27ZM297.77,232.41c-.01-.34-.13-.62-.34-.86-.22-.23-.53-.35-.95-.35-.2,0-.37.03-.52.1s-.28.16-.39.27c-.11.11-.19.24-.26.39s-.1.29-.11.44h2.58Z"/>
      <path d="M302.55,231.47c-.14-.02-.27-.03-.4-.03-.39,0-.7.11-.94.34s-.36.6-.36,1.11v2.36h-.92v-4.71h.9v.82c.08-.18.18-.33.3-.45.11-.11.23-.21.36-.27.12-.07.25-.12.38-.14.13-.03.25-.04.37-.04.07,0,.13,0,.18,0,.05,0,.1.01.12.02v.98Z"/>
      <path d="M306.01,235.25h-.93l-1.91-4.71h1.04l1.34,3.64,1.35-3.64h.99l-1.88,4.71Z"/>
      <path d="M308.43,233.99c0-.21.04-.4.11-.56.07-.17.17-.31.3-.43.13-.12.28-.21.46-.29.18-.07.37-.12.57-.16l1.27-.19c.14-.02.24-.06.29-.13.05-.07.07-.14.07-.23,0-.23-.08-.43-.24-.59-.16-.17-.42-.25-.78-.25-.33,0-.58.09-.75.27s-.28.41-.31.68l-.88-.21c.03-.22.09-.43.2-.62s.25-.35.42-.49.37-.24.59-.31.47-.11.72-.11c.35,0,.65.05.9.14s.45.22.61.38c.16.16.27.34.34.55.07.21.11.43.11.66v2.36c0,.21,0,.38.02.5.01.12.03.22.04.27h-.9c-.01-.06-.02-.14-.03-.24,0-.1-.01-.23-.01-.4-.05.08-.12.17-.21.26s-.19.18-.31.25c-.12.08-.27.14-.44.19-.17.05-.35.07-.56.07-.24,0-.46-.04-.65-.12-.19-.08-.36-.18-.49-.31-.14-.13-.24-.28-.32-.45-.08-.17-.11-.35-.11-.54ZM310.13,234.63c.19,0,.37-.02.53-.07.17-.05.31-.13.43-.24.12-.11.22-.25.29-.43.07-.18.11-.4.11-.65v-.21l-1.44.21c-.2.03-.36.11-.49.22s-.2.28-.2.49c0,.18.07.33.21.48.14.14.32.21.56.21Z"/>
      <path d="M313.85,235.25v-7.1h.92v7.1h-.92Z"/>
    </g>
  </g>
  <g>
    <line class="cls-2" x1="237.33" y1="310.26" x2="557.81" y2="310.26"/>
    <polygon points="237.87 312.12 234.64 310.26 237.87 308.39 237.87 312.12"/>
    <polygon points="557.26 312.12 560.5 310.26 557.26 308.39 557.26 312.12"/>
  </g>
  <g>
    <rect class="cls-6" x="367.89" y="301.36" width="59.36" height="17.63"/>
    <g>
      <path d="M372.73,313.29v-6.95h.98v6.95h-.98Z"/>
      <path d="M379.12,308.23c-.02-.12-.06-.26-.13-.4-.07-.14-.16-.27-.27-.39-.12-.12-.26-.21-.44-.29s-.39-.11-.63-.11c-.2,0-.38.03-.54.09-.16.06-.31.14-.43.25-.12.1-.21.23-.28.37-.07.14-.1.29-.1.46,0,.25.08.46.23.64s.37.3.67.37l1.04.23c.58.13,1.03.37,1.34.71s.47.75.47,1.24c0,.27-.06.53-.17.77-.11.25-.27.47-.48.66s-.46.34-.75.46-.63.17-1,.17c-.42,0-.78-.06-1.09-.19s-.57-.28-.78-.48c-.21-.2-.38-.42-.5-.66-.12-.25-.19-.49-.23-.74l.92-.29c.02.2.07.38.14.56.07.18.18.34.32.48.14.14.31.25.51.33.2.08.43.12.69.12.48,0,.83-.11,1.07-.32.24-.22.36-.48.36-.78,0-.25-.08-.47-.25-.67s-.43-.33-.78-.41l-.99-.22c-.5-.11-.9-.33-1.22-.64s-.47-.74-.47-1.26c0-.27.06-.54.18-.78.12-.25.28-.47.49-.66s.45-.34.73-.46.58-.17.9-.17c.39,0,.73.05,1,.16.28.11.51.25.7.42s.33.36.44.56c.1.2.18.4.21.59l-.86.3Z"/>
      <path d="M381,309.81c0-.58.1-1.1.3-1.54.2-.45.46-.82.79-1.13.33-.31.7-.54,1.12-.7s.85-.24,1.28-.24.87.08,1.28.24.79.39,1.12.7c.33.31.59.68.79,1.13.2.45.3.96.3,1.54s-.1,1.1-.3,1.55c-.2.45-.46.83-.79,1.14-.33.31-.7.54-1.12.7s-.85.24-1.28.24-.87-.08-1.28-.24-.79-.39-1.12-.7c-.33-.31-.59-.69-.79-1.14-.2-.45-.3-.97-.3-1.55ZM381.98,309.81c0,.45.07.85.21,1.19s.33.63.56.86.5.41.8.52c.3.11.61.17.94.17s.63-.06.94-.17.57-.29.8-.52.42-.52.56-.86.21-.74.21-1.19-.07-.85-.21-1.19c-.14-.34-.33-.63-.56-.86-.23-.23-.5-.4-.8-.51s-.62-.17-.94-.17-.64.06-.94.17c-.3.11-.57.29-.8.51-.23.23-.42.51-.56.86-.14.34-.21.74-.21,1.19Z"/>
      <path d="M391.75,313.29v-6.95h.98v6.95h-.98Z"/>
      <path d="M395.31,313.29h-.92v-4.71h.9v.68c.17-.29.39-.5.65-.63s.53-.19.8-.19.53.05.74.14c.21.09.39.23.53.39.14.17.25.36.31.59.07.23.1.47.1.74v2.99h-.92v-2.83c0-.16-.02-.32-.05-.46-.04-.14-.1-.27-.19-.38-.09-.11-.2-.19-.34-.25-.14-.06-.31-.09-.51-.09-.18,0-.34.03-.48.1-.14.07-.25.16-.34.28-.09.12-.16.25-.21.41-.05.16-.07.32-.07.5v2.73Z"/>
      <path d="M401.13,308.58h1.02v.83h-1.02v2.45c0,.22.05.38.15.49.1.11.27.16.51.16.06,0,.12,0,.2,0,.07,0,.13-.02.17-.03v.78s-.11.03-.23.05c-.11.02-.25.03-.4.03-.41,0-.73-.12-.96-.35-.24-.23-.35-.56-.35-1v-2.59h-.9v-.83h.25c.25,0,.44-.07.55-.21.11-.14.17-.31.17-.52v-.76h.84v1.49Z"/>
      <path d="M407.38,311.95c-.07.21-.16.4-.29.58-.13.18-.28.34-.46.47s-.38.24-.61.32c-.23.08-.48.12-.75.12-.31,0-.61-.06-.9-.17-.29-.11-.54-.27-.76-.49s-.39-.48-.52-.79c-.13-.31-.19-.67-.19-1.07,0-.37.06-.71.19-1.01s.29-.57.5-.78.45-.39.72-.51.56-.18.85-.18c.36,0,.68.06.97.18s.52.29.71.5c.19.22.33.48.44.78.1.3.15.64.15,1,0,.06,0,.11,0,.17,0,.05,0,.09-.01.13h-3.55c0,.21.05.4.12.58.07.18.17.33.3.46s.28.23.45.29c.17.07.36.1.55.1.38,0,.68-.09.88-.27.2-.18.35-.41.44-.68l.79.27ZM406.45,310.45c-.01-.34-.13-.63-.34-.86-.22-.23-.53-.35-.95-.35-.2,0-.37.03-.52.1-.15.07-.28.16-.39.27-.11.11-.19.24-.26.39s-.1.29-.11.44h2.58Z"/>
      <path d="M411.23,309.51c-.14-.02-.27-.03-.4-.03-.39,0-.7.11-.94.34-.24.23-.36.6-.36,1.11v2.36h-.92v-4.71h.9v.82c.08-.18.18-.33.3-.45.11-.11.23-.21.36-.27s.25-.12.38-.14c.13-.03.25-.04.37-.04.07,0,.13,0,.18,0,.05,0,.1.01.12.02v.98Z"/>
      <path d="M414.69,313.29h-.93l-1.91-4.71h1.04l1.34,3.64,1.35-3.64h.99l-1.88,4.71Z"/>
      <path d="M417.11,312.03c0-.21.04-.4.11-.56.07-.17.17-.31.3-.43.13-.12.28-.21.46-.28.18-.07.37-.12.57-.16l1.27-.19c.14-.02.24-.06.29-.13.05-.07.07-.14.07-.23,0-.23-.08-.43-.24-.59s-.42-.25-.78-.25c-.33,0-.58.09-.75.27s-.28.41-.31.68l-.88-.21c.03-.22.09-.43.2-.62s.25-.35.42-.49.37-.24.59-.31c.23-.07.47-.11.72-.11.35,0,.65.05.9.14s.45.22.61.38c.16.16.27.34.34.55.07.21.11.43.11.66v2.36c0,.21,0,.38.02.5.01.12.03.22.04.27h-.9c-.01-.06-.02-.14-.03-.24,0-.1-.01-.23-.01-.4-.05.08-.12.17-.21.26-.08.09-.19.18-.31.25-.12.08-.27.14-.44.19s-.35.07-.56.07c-.24,0-.46-.04-.65-.12-.19-.08-.36-.18-.49-.31-.14-.13-.24-.28-.32-.45s-.11-.35-.11-.54ZM418.81,312.67c.19,0,.37-.02.53-.07.17-.05.31-.13.43-.24.12-.11.22-.25.29-.43.07-.18.11-.4.11-.65v-.22l-1.44.22c-.2.03-.36.11-.49.22s-.2.28-.2.49c0,.18.07.33.21.48.14.14.32.21.56.21Z"/>
      <path d="M422.53,313.29v-7.1h.92v7.1h-.92Z"/>
    </g>
  </g>
  <g>
    <path d="M28.96,221.45c0-.06-.03-.12-.06-.19-.03-.07-.07-.13-.13-.18-.06-.06-.12-.1-.21-.14-.08-.04-.18-.05-.29-.05-.09,0-.18.01-.25.04-.08.03-.14.07-.2.12-.06.05-.1.11-.13.17-.03.07-.05.14-.05.21,0,.12.04.22.11.3.07.08.17.14.31.17l.49.11c.27.06.48.17.63.33s.22.36.22.59c0,.13-.03.25-.08.36-.05.12-.13.22-.23.31-.1.09-.22.16-.36.21-.14.05-.29.08-.47.08-.2,0-.37-.03-.51-.09-.15-.06-.27-.13-.37-.23-.1-.09-.18-.2-.23-.31s-.09-.23-.11-.35l.43-.14c0,.09.03.18.07.27.04.08.09.16.15.22.07.06.15.12.24.15s.2.06.33.06c.22,0,.39-.05.5-.15s.17-.22.17-.37c0-.12-.04-.22-.12-.32-.08-.09-.2-.16-.37-.19l-.47-.1c-.23-.05-.42-.15-.57-.3s-.22-.35-.22-.59c0-.13.03-.25.08-.37.06-.12.13-.22.23-.31s.21-.16.34-.21c.13-.05.27-.08.42-.08.18,0,.34.03.47.08s.24.12.33.2c.09.08.16.17.21.26.05.09.08.19.1.28l-.41.14Z"/>
    <path d="M31.15,223.91c-.17,0-.32-.03-.46-.08-.14-.05-.27-.13-.37-.23-.11-.1-.19-.22-.25-.37-.06-.15-.09-.32-.09-.51v-2.15h.45v2.14c0,.25.06.44.19.58.13.13.31.2.54.2s.41-.07.53-.2c.13-.14.19-.33.19-.58v-2.14h.45v2.15c0,.19-.03.36-.09.51-.06.15-.14.27-.25.37-.11.1-.23.17-.37.23-.14.05-.3.08-.46.08Z"/>
    <path d="M34.18,220.57c.16,0,.29.02.42.07.12.04.22.11.31.18.08.08.15.17.19.28.04.11.07.23.07.35,0,.18-.05.32-.14.45-.09.12-.21.21-.35.26.09.02.18.06.25.11.07.05.14.11.19.18.05.07.09.15.12.23.03.08.04.17.04.26,0,.13-.02.25-.07.36-.05.11-.12.2-.21.28-.09.08-.2.14-.32.18-.12.04-.26.07-.41.07h-1.14v-3.27h1.07ZM34.12,222c.18,0,.33-.05.43-.14s.15-.22.15-.38-.05-.28-.16-.37c-.11-.09-.25-.14-.44-.14h-.54v1.03h.56ZM34.19,223.44c.18,0,.33-.05.44-.14s.17-.22.17-.38-.05-.29-.15-.39c-.1-.1-.25-.15-.45-.15h-.65v1.06h.63Z"/>
    <path d="M35.54,224.2v-.36h2.36v.36h-2.36Z"/>
    <path d="M38.38,223.84v-3.27h.46v3.27h-.46Z"/>
    <path d="M40.06,223.84h-.43v-2.22h.42v.32c.08-.14.18-.24.3-.29s.25-.09.38-.09.25.02.35.07c.1.04.18.11.25.18.07.08.12.17.15.28s.05.22.05.35v1.41h-.43v-1.33c0-.08,0-.15-.03-.22s-.05-.13-.09-.18c-.04-.05-.09-.09-.16-.12s-.15-.04-.24-.04c-.09,0-.16.02-.23.05s-.12.08-.16.13c-.04.05-.08.12-.1.19-.02.07-.03.15-.03.24v1.28Z"/>
    <path d="M42.8,221.62h.48v.39h-.48v1.15c0,.1.02.18.07.23.05.05.13.08.24.08.03,0,.06,0,.09,0,.03,0,.06,0,.08-.01v.37s-.05.01-.11.03-.12.02-.19.02c-.19,0-.34-.05-.45-.16-.11-.11-.17-.26-.17-.47v-1.22h-.42v-.39h.12c.12,0,.21-.03.26-.1s.08-.15.08-.24v-.36h.4v.7Z"/>
    <path d="M45.79,223.2c-.03.1-.08.19-.14.27-.06.08-.13.16-.22.22-.08.06-.18.11-.29.15-.11.04-.23.06-.36.06-.15,0-.29-.03-.42-.08-.14-.05-.25-.13-.36-.23-.1-.1-.18-.23-.24-.37-.06-.15-.09-.31-.09-.5,0-.18.03-.33.09-.48s.14-.27.23-.37c.1-.1.21-.18.34-.24s.26-.09.4-.09c.17,0,.32.03.46.09.13.06.25.14.33.24s.16.22.21.37c.05.14.07.3.07.47,0,.03,0,.05,0,.08,0,.02,0,.04,0,.06h-1.67c0,.1.02.19.05.27.03.08.08.16.14.21.06.06.13.11.21.14.08.03.17.05.26.05.18,0,.32-.04.42-.13s.16-.19.21-.32l.37.13ZM45.35,222.5c0-.16-.06-.29-.16-.4s-.25-.16-.45-.16c-.09,0-.17.02-.25.05s-.13.08-.18.13-.09.11-.12.18c-.03.07-.05.14-.05.21h1.21Z"/>
    <path d="M47.59,222.06c-.06,0-.13-.01-.19-.01-.18,0-.33.05-.44.16-.11.11-.17.28-.17.52v1.11h-.43v-2.22h.42v.39c.04-.09.09-.16.14-.21s.11-.1.17-.13c.06-.03.12-.05.18-.07.06-.01.12-.02.17-.02.03,0,.06,0,.08,0,.03,0,.05,0,.06,0v.46Z"/>
    <path d="M49.06,223.84h-.44l-.9-2.22h.49l.63,1.71.64-1.71h.47l-.89,2.22Z"/>
    <path d="M50.22,223.24c0-.1.02-.19.05-.26.03-.08.08-.15.14-.2.06-.05.13-.1.21-.13.08-.03.17-.06.27-.07l.6-.09c.07,0,.11-.03.14-.06.02-.03.04-.07.04-.11,0-.11-.04-.2-.11-.28-.08-.08-.2-.12-.37-.12-.15,0-.27.04-.36.13s-.13.19-.15.32l-.42-.1c.01-.1.04-.2.09-.29.05-.09.12-.17.2-.23.08-.06.17-.11.28-.15.11-.04.22-.05.34-.05.17,0,.31.02.42.07.12.04.21.1.29.18.07.07.13.16.16.26.03.1.05.2.05.31v1.11c0,.1,0,.18,0,.24s.01.1.02.13h-.42s-.01-.06-.02-.11,0-.11,0-.19c-.02.04-.06.08-.1.12s-.09.08-.15.12c-.06.04-.13.07-.21.09-.08.02-.17.03-.27.03-.11,0-.22-.02-.31-.06-.09-.04-.17-.08-.23-.14-.06-.06-.11-.13-.15-.21-.04-.08-.05-.16-.05-.25ZM51.03,223.54c.09,0,.17-.01.25-.03.08-.02.15-.06.2-.11.06-.05.1-.12.14-.2.03-.08.05-.19.05-.31v-.1l-.68.1c-.09.01-.17.05-.23.1s-.09.13-.09.23c0,.08.03.16.1.22.07.07.15.1.26.1Z"/>
    <path d="M52.77,223.84v-3.34h.43v3.34h-.43Z"/>
    <path d="M55.67,221.45c0-.06-.03-.12-.06-.19-.03-.07-.07-.13-.13-.18-.06-.06-.12-.1-.21-.14-.08-.04-.18-.05-.29-.05-.09,0-.18.01-.25.04-.08.03-.14.07-.2.12-.06.05-.1.11-.13.17-.03.07-.05.14-.05.21,0,.12.04.22.11.3.07.08.17.14.31.17l.49.11c.27.06.48.17.63.33s.22.36.22.59c0,.13-.03.25-.08.36-.05.12-.13.22-.23.31-.1.09-.22.16-.36.21-.14.05-.29.08-.47.08-.2,0-.37-.03-.51-.09-.15-.06-.27-.13-.37-.23-.1-.09-.18-.2-.23-.31s-.09-.23-.11-.35l.43-.14c0,.09.03.18.07.27.04.08.09.16.15.22.07.06.15.12.24.15s.2.06.33.06c.22,0,.39-.05.5-.15s.17-.22.17-.37c0-.12-.04-.22-.12-.32-.08-.09-.2-.16-.37-.19l-.47-.1c-.23-.05-.42-.15-.57-.3s-.22-.35-.22-.59c0-.13.03-.25.08-.37.06-.12.13-.22.23-.31s.21-.16.34-.21c.13-.05.27-.08.42-.08.18,0,.34.03.47.08s.24.12.33.2c.09.08.16.17.21.26.05.09.08.19.1.28l-.41.14Z"/>
    <path d="M58.02,223.57c-.06.12-.15.2-.28.26s-.25.08-.38.08-.25-.02-.35-.07c-.1-.05-.19-.11-.26-.19-.07-.08-.13-.17-.16-.28s-.06-.22-.06-.35v-1.4h.43v1.33c0,.08,0,.15.03.22s.05.13.09.18c.04.05.09.09.15.12.06.03.14.05.23.05.17,0,.31-.05.39-.16.09-.1.13-.24.13-.41v-1.34h.43v1.81c0,.09,0,.17,0,.24,0,.07,0,.13.02.17h-.42s-.01-.06-.01-.12,0-.1,0-.15Z"/>
    <path d="M59.17,223.84v-3.34h.43v1.43c.05-.1.14-.19.27-.26.13-.08.28-.12.46-.12.17,0,.32.03.44.09.13.06.23.14.32.25.09.11.15.23.19.37.04.14.06.29.06.45s-.02.32-.07.46c-.05.14-.11.27-.2.37-.09.11-.2.19-.32.25-.13.06-.27.09-.44.09s-.31-.03-.43-.1-.22-.16-.29-.28v.32h-.43ZM60.91,222.72c0-.24-.06-.43-.18-.57-.12-.14-.28-.21-.48-.21-.09,0-.18.02-.26.06-.08.04-.15.09-.21.15s-.1.15-.14.24-.05.21-.05.33.02.23.05.33.08.18.14.25c.06.07.13.12.21.16.08.04.17.06.26.06.2,0,.36-.07.48-.22s.18-.34.18-.58Z"/>
    <path d="M61.61,224.2v-.36h2.36v.36h-2.36Z"/>
    <path d="M64.45,223.84v-3.27h.46v3.27h-.46Z"/>
    <path d="M66.13,223.84h-.43v-2.22h.42v.32c.08-.14.18-.24.3-.29s.25-.09.38-.09.25.02.35.07c.1.04.18.11.25.18.07.08.12.17.15.28s.05.22.05.35v1.41h-.43v-1.33c0-.08,0-.15-.03-.22s-.05-.13-.09-.18c-.04-.05-.09-.09-.16-.12s-.15-.04-.24-.04c-.09,0-.16.02-.23.05s-.12.08-.16.13c-.04.05-.08.12-.1.19-.02.07-.03.15-.03.24v1.28Z"/>
    <path d="M68.87,221.62h.48v.39h-.48v1.15c0,.1.02.18.07.23.05.05.13.08.24.08.03,0,.06,0,.09,0,.03,0,.06,0,.08-.01v.37s-.05.01-.11.03-.12.02-.19.02c-.19,0-.34-.05-.45-.16-.11-.11-.17-.26-.17-.47v-1.22h-.42v-.39h.12c.12,0,.21-.03.26-.1s.08-.15.08-.24v-.36h.4v.7Z"/>
    <path d="M71.86,223.2c-.03.1-.08.19-.14.27-.06.08-.13.16-.22.22-.08.06-.18.11-.29.15-.11.04-.23.06-.36.06-.15,0-.29-.03-.42-.08-.14-.05-.25-.13-.36-.23-.1-.1-.18-.23-.24-.37-.06-.15-.09-.31-.09-.5,0-.18.03-.33.09-.48s.14-.27.23-.37c.1-.1.21-.18.34-.24s.26-.09.4-.09c.17,0,.32.03.46.09.13.06.25.14.33.24s.16.22.21.37c.05.14.07.3.07.47,0,.03,0,.05,0,.08,0,.02,0,.04,0,.06h-1.67c0,.1.02.19.05.27.03.08.08.16.14.21.06.06.13.11.21.14.08.03.17.05.26.05.18,0,.32-.04.42-.13s.16-.19.21-.32l.37.13ZM71.42,222.5c0-.16-.06-.29-.16-.4s-.25-.16-.45-.16c-.09,0-.17.02-.25.05s-.13.08-.18.13-.09.11-.12.18c-.03.07-.05.14-.05.21h1.21Z"/>
    <path d="M73.65,222.06c-.06,0-.13-.01-.19-.01-.18,0-.33.05-.44.16-.11.11-.17.28-.17.52v1.11h-.43v-2.22h.42v.39c.04-.09.09-.16.14-.21s.11-.1.17-.13c.06-.03.12-.05.18-.07.06-.01.12-.02.17-.02.03,0,.06,0,.08,0,.03,0,.05,0,.06,0v.46Z"/>
    <path d="M75.13,223.84h-.44l-.9-2.22h.49l.63,1.71.64-1.71h.47l-.89,2.22Z"/>
    <path d="M76.29,223.24c0-.1.02-.19.05-.26.03-.08.08-.15.14-.2.06-.05.13-.1.21-.13.08-.03.17-.06.27-.07l.6-.09c.07,0,.11-.03.14-.06.02-.03.04-.07.04-.11,0-.11-.04-.2-.11-.28-.08-.08-.2-.12-.37-.12-.15,0-.27.04-.36.13s-.13.19-.15.32l-.42-.1c.01-.1.04-.2.09-.29.05-.09.12-.17.2-.23.08-.06.17-.11.28-.15.11-.04.22-.05.34-.05.17,0,.31.02.42.07.12.04.21.1.29.18.07.07.13.16.16.26.03.1.05.2.05.31v1.11c0,.1,0,.18,0,.24s.01.1.02.13h-.42s-.01-.06-.02-.11,0-.11,0-.19c-.02.04-.06.08-.1.12s-.09.08-.15.12c-.06.04-.13.07-.21.09-.08.02-.17.03-.27.03-.11,0-.22-.02-.31-.06-.09-.04-.17-.08-.23-.14-.06-.06-.11-.13-.15-.21-.04-.08-.05-.16-.05-.25ZM77.1,223.54c.09,0,.17-.01.25-.03.08-.02.15-.06.2-.11.06-.05.1-.12.14-.2.03-.08.05-.19.05-.31v-.1l-.68.1c-.09.01-.17.05-.23.1s-.09.13-.09.23c0,.08.03.16.1.22.07.07.15.1.26.1Z"/>
    <path d="M78.84,223.84v-3.34h.43v3.34h-.43Z"/>
  </g>
  <g>
    <path d="M35.97,185.86c-.12.01-.22.07-.3.15-.08.09-.12.21-.12.36,0,.12.03.22.09.28.06.06.13.1.21.1.07,0,.13-.03.18-.07.05-.05.08-.12.11-.21l.08-.38c.04-.18.11-.31.22-.41.11-.1.24-.15.4-.15.1,0,.19.02.27.06.08.04.16.1.22.17.06.07.12.15.15.25.04.1.06.2.06.31,0,.15-.02.28-.06.38-.04.1-.1.19-.16.25s-.13.11-.2.15c-.07.03-.13.05-.18.07l-.14-.38s.06-.02.11-.03c.04-.02.08-.04.12-.07s.07-.08.1-.14c.03-.06.04-.13.04-.22,0-.11-.03-.2-.09-.27-.06-.07-.13-.1-.21-.1-.14,0-.23.08-.27.25l-.08.36c-.04.2-.12.36-.24.46-.12.1-.26.16-.42.16-.08,0-.16-.02-.24-.05-.08-.03-.15-.08-.22-.15s-.12-.15-.16-.25-.06-.22-.06-.36c0-.15.02-.29.06-.39.04-.11.1-.2.16-.27s.13-.13.21-.17c.08-.04.15-.06.21-.07l.14.39Z"/>
    <path d="M35.52,189.22c-.12-.06-.2-.15-.26-.28s-.08-.25-.08-.38.02-.25.07-.35c.05-.1.11-.19.19-.26.08-.07.17-.13.28-.16s.22-.06.35-.06h1.4v.43h-1.33c-.08,0-.15,0-.22.03-.07.02-.13.05-.18.09s-.09.09-.12.15c-.03.06-.05.14-.05.23,0,.17.05.31.16.39.1.09.24.13.41.13h1.34v.43h-1.81c-.09,0-.17,0-.24,0-.07,0-.13,0-.17.02v-.42s.06-.01.12-.01.1,0,.15,0Z"/>
    <path d="M35.25,190.37h3.34v.43h-1.43c.1.05.19.14.26.27s.12.28.12.46c0,.17-.03.32-.09.44s-.14.23-.25.32c-.11.09-.23.15-.37.19-.14.04-.29.06-.45.06s-.32-.02-.46-.07c-.14-.05-.27-.11-.37-.2-.11-.09-.19-.2-.25-.32-.06-.13-.09-.27-.09-.44s.03-.31.1-.43.16-.22.28-.29h-.32v-.43ZM36.38,192.11c.24,0,.43-.06.57-.18.14-.12.21-.28.21-.48,0-.09-.02-.18-.06-.26-.04-.08-.09-.15-.15-.21-.07-.06-.15-.1-.24-.14-.1-.03-.21-.05-.32-.05s-.23.02-.33.05c-.1.03-.18.08-.25.14-.07.06-.12.13-.16.21-.04.08-.06.17-.06.26,0,.2.07.36.22.48s.34.18.58.18Z"/>
    <path d="M35.89,195.04c-.1-.03-.19-.08-.27-.14-.08-.06-.16-.13-.22-.22-.06-.08-.11-.18-.15-.29-.04-.11-.06-.23-.06-.36,0-.15.03-.29.08-.42.05-.14.13-.25.23-.36.1-.1.23-.18.37-.24.15-.06.31-.09.5-.09.18,0,.33.03.48.09.14.06.27.14.37.23s.18.21.24.34c.06.13.09.26.09.4,0,.17-.03.32-.09.46-.06.13-.14.25-.24.33-.1.09-.22.16-.37.21s-.3.07-.47.07c-.03,0-.05,0-.08,0-.02,0-.04,0-.06,0v-1.67c-.1,0-.19.02-.27.05-.08.03-.15.08-.21.14-.06.06-.11.13-.14.21-.03.08-.05.17-.05.26,0,.18.04.32.13.42.09.1.19.16.32.21l-.13.37ZM36.59,194.6c.16,0,.29-.06.4-.16.11-.1.16-.25.16-.45,0-.09-.02-.17-.05-.25s-.08-.13-.13-.18-.11-.09-.18-.12c-.07-.03-.14-.05-.21-.05v1.21Z"/>
    <path d="M35.25,196.62v-.44l2.22-.9v.49l-1.71.63,1.71.64v.47l-2.22-.89Z"/>
    <path d="M35.89,199.85c-.1-.03-.19-.08-.27-.14-.08-.06-.16-.13-.22-.22-.06-.08-.11-.18-.15-.29-.04-.11-.06-.23-.06-.36,0-.15.03-.29.08-.42.05-.14.13-.25.23-.36.1-.1.23-.18.37-.24.15-.06.31-.09.5-.09.18,0,.33.03.48.09.14.06.27.14.37.23s.18.21.24.34c.06.13.09.26.09.4,0,.17-.03.32-.09.46-.06.13-.14.25-.24.33-.1.09-.22.16-.37.21s-.3.07-.47.07c-.03,0-.05,0-.08,0-.02,0-.04,0-.06,0v-1.67c-.1,0-.19.02-.27.05-.08.03-.15.08-.21.14-.06.06-.11.13-.14.21-.03.08-.05.17-.05.26,0,.18.04.32.13.42.09.1.19.16.32.21l-.13.37ZM36.59,199.41c.16,0,.29-.06.4-.16.11-.1.16-.25.16-.45,0-.09-.02-.17-.05-.25s-.08-.13-.13-.18-.11-.09-.18-.12c-.07-.03-.14-.05-.21-.05v1.21Z"/>
    <path d="M35.25,200.85v-.43h2.22v.42h-.32c.14.08.24.18.3.3.06.12.09.25.09.38s-.02.25-.07.35c-.04.1-.11.18-.18.25-.08.07-.17.12-.28.15-.11.03-.22.05-.35.05h-1.41v-.43h1.33c.08,0,.15,0,.22-.03.07-.02.13-.05.18-.09.05-.04.09-.09.12-.16s.04-.15.04-.24c0-.09-.02-.16-.05-.23s-.08-.12-.13-.16c-.06-.04-.12-.08-.19-.1s-.15-.03-.24-.03h-1.28Z"/>
    <path d="M37.47,203.59v.48h-.39v-.48h-1.15c-.1,0-.18.02-.23.07-.05.05-.08.13-.08.24,0,.03,0,.06,0,.09,0,.03,0,.06.01.08h-.37s-.01-.05-.03-.11-.02-.12-.02-.19c0-.19.05-.34.16-.45.11-.11.27-.17.47-.17h1.22v-.42h.39v.12c0,.12.03.21.1.26s.15.08.24.08h.36v.4h-.7Z"/>
    <path d="M35.25,206.27h2.11v-.72h.32c0,.21.06.38.16.52.1.13.24.22.4.25v.4h-2.99v-.44Z"/>
  </g>
  <g>
    <path d="M70.52,185.05c-.12.01-.22.07-.3.15-.08.09-.12.21-.12.36,0,.12.03.22.09.28.06.06.13.1.21.1.07,0,.13-.03.18-.07.05-.05.08-.12.11-.21l.08-.38c.04-.18.11-.31.22-.41.11-.1.24-.15.4-.15.1,0,.19.02.27.06.08.04.16.1.22.17.06.07.12.15.15.25.04.1.06.2.06.31,0,.15-.02.28-.06.38-.04.1-.1.19-.16.25s-.13.11-.2.15c-.07.03-.13.05-.18.07l-.14-.38s.06-.02.11-.03c.04-.02.08-.04.12-.07s.07-.08.1-.14c.03-.06.04-.13.04-.22,0-.11-.03-.2-.09-.27-.06-.07-.13-.1-.21-.1-.14,0-.23.08-.27.25l-.08.36c-.04.2-.12.36-.24.46-.12.1-.26.16-.42.16-.08,0-.16-.02-.24-.05-.08-.03-.15-.08-.22-.15s-.12-.15-.16-.25-.06-.22-.06-.36c0-.15.02-.29.06-.39.04-.11.1-.2.16-.27s.13-.13.21-.17c.08-.04.15-.06.21-.07l.14.39Z"/>
    <path d="M70.07,188.41c-.12-.06-.2-.15-.26-.28s-.08-.25-.08-.38.02-.25.07-.35c.05-.1.11-.19.19-.26.08-.07.17-.13.28-.16s.22-.06.35-.06h1.4v.43h-1.33c-.08,0-.15,0-.22.03-.07.02-.13.05-.18.09s-.09.09-.12.15c-.03.06-.05.14-.05.23,0,.17.05.31.16.39.1.09.24.13.41.13h1.34v.43h-1.81c-.09,0-.17,0-.24,0-.07,0-.13,0-.17.02v-.42s.06-.01.12-.01.1,0,.15,0Z"/>
    <path d="M69.8,189.56h3.34v.43h-1.43c.1.05.19.14.26.27s.12.28.12.46c0,.17-.03.32-.09.44s-.14.23-.25.32c-.11.09-.23.15-.37.19-.14.04-.29.06-.45.06s-.32-.02-.46-.07c-.14-.05-.27-.11-.37-.2-.11-.09-.19-.2-.25-.32-.06-.13-.09-.27-.09-.44s.03-.31.1-.43.16-.22.28-.29h-.32v-.43ZM70.92,191.3c.24,0,.43-.06.57-.18.14-.12.21-.28.21-.48,0-.09-.02-.18-.06-.26-.04-.08-.09-.15-.15-.21-.07-.06-.15-.1-.24-.14-.1-.03-.21-.05-.32-.05s-.23.02-.33.05c-.1.03-.18.08-.25.14-.07.06-.12.13-.16.21-.04.08-.06.17-.06.26,0,.2.07.36.22.48s.34.18.58.18Z"/>
    <path d="M70.44,194.23c-.1-.03-.19-.08-.27-.14-.08-.06-.16-.13-.22-.22-.06-.08-.11-.18-.15-.29-.04-.11-.06-.23-.06-.36,0-.15.03-.29.08-.42.05-.14.13-.25.23-.36.1-.1.23-.18.37-.24.15-.06.31-.09.5-.09.18,0,.33.03.48.09.14.06.27.14.37.23s.18.21.24.34c.06.13.09.26.09.4,0,.17-.03.32-.09.46-.06.13-.14.25-.24.33-.1.09-.22.16-.37.21s-.3.07-.47.07c-.03,0-.05,0-.08,0-.02,0-.04,0-.06,0v-1.67c-.1,0-.19.02-.27.05-.08.03-.15.08-.21.14-.06.06-.11.13-.14.21-.03.08-.05.17-.05.26,0,.18.04.32.13.42.09.1.19.16.32.21l-.13.37ZM71.14,193.79c.16,0,.29-.06.4-.16.11-.1.16-.25.16-.45,0-.09-.02-.17-.05-.25s-.08-.13-.13-.18-.11-.09-.18-.12c-.07-.03-.14-.05-.21-.05v1.21Z"/>
    <path d="M69.8,195.81v-.44l2.22-.9v.49l-1.71.63,1.71.64v.47l-2.22-.89Z"/>
    <path d="M70.44,199.04c-.1-.03-.19-.08-.27-.14-.08-.06-.16-.13-.22-.22-.06-.08-.11-.18-.15-.29-.04-.11-.06-.23-.06-.36,0-.15.03-.29.08-.42.05-.14.13-.25.23-.36.1-.1.23-.18.37-.24.15-.06.31-.09.5-.09.18,0,.33.03.48.09.14.06.27.14.37.23s.18.21.24.34c.06.13.09.26.09.4,0,.17-.03.32-.09.46-.06.13-.14.25-.24.33-.1.09-.22.16-.37.21s-.3.07-.47.07c-.03,0-.05,0-.08,0-.02,0-.04,0-.06,0v-1.67c-.1,0-.19.02-.27.05-.08.03-.15.08-.21.14-.06.06-.11.13-.14.21-.03.08-.05.17-.05.26,0,.18.04.32.13.42.09.1.19.16.32.21l-.13.37ZM71.14,198.6c.16,0,.29-.06.4-.16.11-.1.16-.25.16-.45,0-.09-.02-.17-.05-.25s-.08-.13-.13-.18-.11-.09-.18-.12c-.07-.03-.14-.05-.21-.05v1.21Z"/>
    <path d="M69.8,200.04v-.43h2.22v.42h-.32c.14.08.24.18.3.3.06.12.09.25.09.38s-.02.25-.07.35c-.04.1-.11.18-.18.25-.08.07-.17.12-.28.15-.11.03-.22.05-.35.05h-1.41v-.43h1.33c.08,0,.15,0,.22-.03.07-.02.13-.05.18-.09.05-.04.09-.09.12-.16s.04-.15.04-.24c0-.09-.02-.16-.05-.23s-.08-.12-.13-.16c-.06-.04-.12-.08-.19-.1s-.15-.03-.24-.03h-1.28Z"/>
    <path d="M72.02,202.78v.48h-.39v-.48h-1.15c-.1,0-.18.02-.23.07-.05.05-.08.13-.08.24,0,.03,0,.06,0,.09,0,.03,0,.06.01.08h-.37s-.01-.05-.03-.11-.02-.12-.02-.19c0-.19.05-.34.16-.45.11-.11.27-.17.47-.17h1.22v-.42h.39v.12c0,.12.03.21.1.26s.15.08.24.08h.36v.4h-.7Z"/>
    <path d="M71.77,204.82s.04,0,.06,0h.06c.13,0,.25.02.37.07s.22.11.31.2c.09.09.16.2.21.33.05.13.08.28.08.44s-.02.3-.07.43c-.05.13-.12.23-.2.32s-.18.15-.29.2c-.11.04-.23.07-.35.07-.2,0-.37-.05-.53-.15s-.29-.24-.39-.41l-.38-.59c-.06-.09-.12-.16-.18-.23-.07-.07-.15-.11-.24-.13v1.54h-.42v-2.09c.12,0,.24.02.35.04s.21.07.31.12c.1.06.19.13.28.22.09.09.17.2.26.32l.32.5c.09.14.19.25.29.31s.22.1.33.1c.07,0,.13-.01.2-.03s.12-.06.17-.1.09-.1.12-.18c.03-.07.04-.15.04-.25s-.02-.18-.05-.26-.08-.13-.13-.18-.12-.08-.19-.11c-.07-.02-.15-.04-.24-.04-.02,0-.04,0-.06,0-.02,0-.04,0-.07,0l.06-.45Z"/>
  </g>
  <rect class="cls-9" x="19.14" y="151.49" width="14.54" height="14.54"/>
  <rect class="cls-9" x="55.26" y="151.49" width="14.54" height="14.54"/>
  <rect x="125.96" y="246.14" width="106.81" height="14.54"/>
  <rect x="125.96" y="268.77" width="14.54" height="14.54"/>
  <rect class="cls-7" x="144.02" y="268.77" width="14.54" height="14.54"/>
  <g>
    <path class="cls-6" d="M156.75,73.55c-.45,0-.88-.08-1.3-.24s-.78-.39-1.1-.7c-.32-.31-.57-.69-.76-1.14-.19-.45-.29-.97-.29-1.55s.1-1.1.29-1.54c.2-.45.46-.82.78-1.13.32-.31.69-.54,1.11-.7s.84-.24,1.27-.24c.4,0,.76.05,1.1.16s.63.25.89.44c.26.19.48.42.66.7s.32.58.41.91l-.89.31c-.13-.53-.38-.93-.75-1.22-.37-.28-.84-.42-1.42-.42-.31,0-.62.06-.92.17-.3.11-.56.29-.79.51-.23.23-.42.51-.55.86-.14.34-.21.74-.21,1.19s.07.85.21,1.19c.14.34.32.63.55.86s.5.41.79.52c.3.11.6.17.92.17.29,0,.56-.04.8-.13.24-.08.46-.2.64-.35.19-.15.34-.32.47-.53.13-.21.23-.43.3-.66l.85.31c-.09.33-.23.63-.41.9s-.4.51-.66.71c-.26.2-.56.35-.89.46-.34.11-.7.17-1.1.17Z"/>
    <path class="cls-6" d="M161.15,73.4v-6.95h.98v6.95h-.98Z"/>
    <path class="cls-6" d="M169.24,73.4l-.09-.98c-.08.14-.18.27-.31.41-.13.13-.29.25-.48.36s-.4.19-.64.26c-.24.07-.5.1-.8.1-.44,0-.86-.08-1.26-.24-.41-.16-.76-.39-1.08-.7-.31-.31-.56-.69-.75-1.14-.19-.45-.28-.97-.28-1.56s.1-1.11.29-1.56c.2-.45.46-.83.78-1.13s.69-.53,1.1-.69c.41-.16.83-.24,1.26-.24.38,0,.73.05,1.06.15s.63.24.89.43c.26.18.49.4.69.66.19.26.34.54.44.86l-.87.37c-.16-.5-.43-.89-.81-1.17-.39-.28-.85-.42-1.39-.42-.31,0-.62.06-.91.17-.29.11-.55.28-.78.51-.23.23-.41.51-.55.86-.14.34-.21.74-.21,1.2s.07.87.2,1.21.31.63.54.86c.23.23.48.4.77.51s.59.17.91.17c.39,0,.71-.06.98-.18.27-.12.49-.27.66-.46.17-.18.29-.38.37-.59.08-.21.12-.41.14-.58h-2.41v-.86h3.32v3.4h-.77Z"/>
    <path class="cls-6" d="M177.96,72.06c-.07.21-.16.4-.29.58-.13.18-.28.34-.46.47s-.38.24-.61.32c-.23.08-.48.12-.75.12-.31,0-.61-.06-.9-.17-.29-.11-.54-.27-.76-.49s-.39-.48-.52-.79c-.13-.31-.19-.67-.19-1.07,0-.37.06-.71.19-1.01s.29-.57.5-.78.45-.39.72-.51.56-.18.85-.18c.36,0,.68.06.97.18s.52.29.71.5c.19.22.33.48.44.78.1.3.15.64.15,1,0,.06,0,.11,0,.17,0,.05,0,.09-.01.13h-3.55c0,.21.05.4.12.58.07.18.17.33.3.46s.28.23.45.29c.17.07.36.1.55.1.38,0,.68-.09.88-.27.2-.18.35-.41.44-.68l.79.27ZM177.03,70.56c-.01-.34-.13-.63-.34-.86-.22-.23-.53-.35-.95-.35-.2,0-.37.03-.52.1-.15.07-.28.16-.39.27-.11.11-.19.24-.26.39s-.1.29-.11.44h2.58Z"/>
    <path class="cls-6" d="M181.27,73.4h-.93l-1.91-4.71h1.04l1.34,3.64,1.35-3.64h.99l-1.88,4.71Z"/>
    <path class="cls-6" d="M188.06,72.06c-.07.21-.16.4-.29.58-.13.18-.28.34-.46.47s-.38.24-.61.32c-.23.08-.48.12-.75.12-.31,0-.61-.06-.9-.17-.29-.11-.54-.27-.76-.49s-.39-.48-.52-.79c-.13-.31-.19-.67-.19-1.07,0-.37.06-.71.19-1.01s.29-.57.5-.78.45-.39.72-.51.56-.18.85-.18c.36,0,.68.06.97.18s.52.29.71.5c.19.22.33.48.44.78.1.3.15.64.15,1,0,.06,0,.11,0,.17,0,.05,0,.09-.01.13h-3.55c0,.21.05.4.12.58.07.18.17.33.3.46s.28.23.45.29c.17.07.36.1.55.1.38,0,.68-.09.88-.27.2-.18.35-.41.44-.68l.79.27ZM187.13,70.56c-.01-.34-.13-.63-.34-.86-.22-.23-.53-.35-.95-.35-.2,0-.37.03-.52.1-.15.07-.28.16-.39.27-.11.11-.19.24-.26.39s-.1.29-.11.44h2.58Z"/>
    <path class="cls-6" d="M190.22,73.4h-.92v-4.71h.9v.68c.17-.29.39-.5.65-.63s.53-.19.8-.19.53.05.74.14c.21.09.39.23.53.39.14.17.25.36.31.59.07.23.1.47.1.74v2.99h-.92v-2.83c0-.16-.02-.32-.05-.46-.04-.14-.1-.27-.19-.38-.09-.11-.2-.19-.34-.25-.14-.06-.31-.09-.51-.09-.18,0-.34.03-.48.1-.14.07-.25.16-.34.28-.09.12-.16.25-.21.41-.05.16-.07.32-.07.5v2.73Z"/>
    <path class="cls-6" d="M196.04,68.69h1.02v.83h-1.02v2.45c0,.22.05.38.15.49.1.11.27.16.51.16.06,0,.12,0,.2,0,.07,0,.13-.02.17-.03v.78s-.11.03-.23.05c-.11.02-.25.03-.4.03-.41,0-.73-.12-.96-.35-.24-.23-.35-.56-.35-1v-2.59h-.9v-.83h.25c.25,0,.44-.07.55-.21.11-.14.17-.31.17-.52v-.76h.84v1.49Z"/>
    <path class="cls-6" d="M201.74,73.4v-4.48h-1.54v-.68c.44-.01.81-.13,1.1-.35.29-.22.47-.5.54-.85h.84v6.35h-.94Z"/>
  </g>
  <g>
    <path class="cls-6" d="M474.5,73.55c-.45,0-.88-.08-1.3-.24s-.78-.39-1.1-.7c-.32-.31-.57-.69-.76-1.14-.19-.45-.29-.97-.29-1.55s.1-1.1.29-1.54c.2-.45.46-.82.78-1.13.32-.31.69-.54,1.11-.7s.84-.24,1.27-.24c.4,0,.76.05,1.1.16s.63.25.89.44c.26.19.48.42.66.7s.32.58.41.91l-.89.31c-.13-.53-.38-.93-.75-1.22-.37-.28-.84-.42-1.42-.42-.31,0-.62.06-.92.17-.3.11-.56.29-.79.51-.23.23-.42.51-.55.86-.14.34-.21.74-.21,1.19s.07.85.21,1.19c.14.34.32.63.55.86s.5.41.79.52c.3.11.6.17.92.17.29,0,.56-.04.8-.13.24-.08.46-.2.64-.35.19-.15.34-.32.47-.53.13-.21.23-.43.3-.66l.85.31c-.09.33-.23.63-.41.9s-.4.51-.66.71c-.26.2-.56.35-.89.46-.34.11-.7.17-1.1.17Z"/>
    <path class="cls-6" d="M478.91,73.4v-6.95h.98v6.95h-.98Z"/>
    <path class="cls-6" d="M487,73.4l-.09-.98c-.08.14-.18.27-.31.41-.13.13-.29.25-.48.36s-.4.19-.64.26c-.24.07-.5.1-.8.1-.44,0-.86-.08-1.26-.24-.41-.16-.76-.39-1.08-.7-.31-.31-.56-.69-.75-1.14-.19-.45-.28-.97-.28-1.56s.1-1.11.29-1.56c.2-.45.46-.83.78-1.13s.69-.53,1.1-.69c.41-.16.83-.24,1.26-.24.38,0,.73.05,1.06.15s.63.24.89.43c.26.18.49.4.69.66.19.26.34.54.44.86l-.87.37c-.16-.5-.43-.89-.81-1.17-.39-.28-.85-.42-1.39-.42-.31,0-.62.06-.91.17-.29.11-.55.28-.78.51-.23.23-.41.51-.55.86-.14.34-.21.74-.21,1.2s.07.87.2,1.21.31.63.54.86c.23.23.48.4.77.51s.59.17.91.17c.39,0,.71-.06.98-.18.27-.12.49-.27.66-.46.17-.18.29-.38.37-.59.08-.21.12-.41.14-.58h-2.41v-.86h3.32v3.4h-.77Z"/>
    <path class="cls-6" d="M495.71,72.06c-.07.21-.16.4-.29.58-.13.18-.28.34-.46.47s-.38.24-.61.32c-.23.08-.48.12-.75.12-.31,0-.61-.06-.9-.17-.29-.11-.54-.27-.76-.49s-.39-.48-.52-.79c-.13-.31-.19-.67-.19-1.07,0-.37.06-.71.19-1.01s.29-.57.5-.78.45-.39.72-.51.56-.18.85-.18c.36,0,.68.06.97.18s.52.29.71.5c.19.22.33.48.44.78.1.3.15.64.15,1,0,.06,0,.11,0,.17,0,.05,0,.09-.01.13h-3.55c0,.21.05.4.12.58.07.18.17.33.3.46s.28.23.45.29c.17.07.36.1.55.1.38,0,.68-.09.88-.27.2-.18.35-.41.44-.68l.79.27ZM494.78,70.56c-.01-.34-.13-.63-.34-.86-.22-.23-.53-.35-.95-.35-.2,0-.37.03-.52.1-.15.07-.28.16-.39.27-.11.11-.19.24-.26.39s-.1.29-.11.44h2.58Z"/>
    <path class="cls-6" d="M499.02,73.4h-.93l-1.91-4.71h1.04l1.34,3.64,1.35-3.64h.99l-1.88,4.71Z"/>
    <path class="cls-6" d="M505.82,72.06c-.07.21-.16.4-.29.58-.13.18-.28.34-.46.47s-.38.24-.61.32c-.23.08-.48.12-.75.12-.31,0-.61-.06-.9-.17-.29-.11-.54-.27-.76-.49s-.39-.48-.52-.79c-.13-.31-.19-.67-.19-1.07,0-.37.06-.71.19-1.01s.29-.57.5-.78.45-.39.72-.51.56-.18.85-.18c.36,0,.68.06.97.18s.52.29.71.5c.19.22.33.48.44.78.1.3.15.64.15,1,0,.06,0,.11,0,.17,0,.05,0,.09-.01.13h-3.55c0,.21.05.4.12.58.07.18.17.33.3.46s.28.23.45.29c.17.07.36.1.55.1.38,0,.68-.09.88-.27.2-.18.35-.41.44-.68l.79.27ZM504.89,70.56c-.01-.34-.13-.63-.34-.86-.22-.23-.53-.35-.95-.35-.2,0-.37.03-.52.1-.15.07-.28.16-.39.27-.11.11-.19.24-.26.39s-.1.29-.11.44h2.58Z"/>
    <path class="cls-6" d="M507.97,73.4h-.92v-4.71h.9v.68c.17-.29.39-.5.65-.63s.53-.19.8-.19.53.05.74.14c.21.09.39.23.53.39.14.17.25.36.31.59.07.23.1.47.1.74v2.99h-.92v-2.83c0-.16-.02-.32-.05-.46-.04-.14-.1-.27-.19-.38-.09-.11-.2-.19-.34-.25-.14-.06-.31-.09-.51-.09-.18,0-.34.03-.48.1-.14.07-.25.16-.34.28-.09.12-.16.25-.21.41-.05.16-.07.32-.07.5v2.73Z"/>
    <path class="cls-6" d="M513.79,68.69h1.02v.83h-1.02v2.45c0,.22.05.38.15.49.1.11.27.16.51.16.06,0,.12,0,.2,0,.07,0,.13-.02.17-.03v.78s-.11.03-.23.05c-.11.02-.25.03-.4.03-.41,0-.73-.12-.96-.35-.24-.23-.35-.56-.35-1v-2.59h-.9v-.83h.25c.25,0,.44-.07.55-.21.11-.14.17-.31.17-.52v-.76h.84v1.49Z"/>
    <path class="cls-6" d="M518.13,69.21s0-.09,0-.13v-.12c0-.27.05-.54.15-.78.1-.25.24-.47.43-.66s.42-.34.69-.45c.28-.11.58-.17.93-.17s.64.05.91.16c.27.1.49.25.68.42s.32.38.42.62c.09.24.14.49.14.75,0,.42-.11.79-.32,1.12s-.51.61-.87.84l-1.25.8c-.18.12-.35.25-.49.39-.14.14-.24.31-.28.5h3.26v.89h-4.45c0-.26.04-.51.09-.74.05-.23.14-.45.26-.66.12-.21.28-.41.46-.59s.42-.37.69-.54l1.06-.69c.3-.19.52-.39.66-.62.14-.22.21-.46.21-.71,0-.14-.03-.28-.07-.42s-.12-.25-.22-.36c-.1-.1-.22-.19-.37-.25-.15-.06-.33-.09-.53-.09s-.39.03-.54.1c-.15.07-.28.16-.38.28-.1.12-.18.25-.22.41-.05.16-.07.33-.07.51,0,.05,0,.09,0,.14,0,.04,0,.09.01.15l-.96-.12Z"/>
  </g>
  <g>
    <path class="cls-6" d="M48.32,139.33c-.45,0-.88-.08-1.3-.24s-.78-.39-1.1-.7c-.32-.31-.57-.69-.76-1.14-.19-.45-.29-.97-.29-1.55s.1-1.1.29-1.54c.2-.45.46-.82.78-1.13.32-.31.69-.54,1.11-.7s.84-.24,1.27-.24c.4,0,.76.05,1.1.16s.63.25.89.44c.26.19.48.42.66.7s.32.58.41.91l-.89.31c-.13-.53-.38-.93-.75-1.22-.37-.28-.84-.42-1.42-.42-.31,0-.62.06-.92.17-.3.11-.56.29-.79.51-.23.23-.42.51-.55.86-.14.34-.21.74-.21,1.19s.07.85.21,1.19c.14.34.32.63.55.86s.5.41.79.52c.3.11.6.17.92.17.29,0,.56-.04.8-.13.24-.08.46-.2.64-.35.19-.15.34-.32.47-.53.13-.21.23-.43.3-.66l.85.31c-.09.33-.23.63-.41.9s-.4.51-.66.71c-.26.2-.56.35-.89.46-.34.11-.7.17-1.1.17Z"/>
    <path class="cls-6" d="M52.72,139.18v-6.95h.98v6.95h-.98Z"/>
    <path class="cls-6" d="M59.12,134.11c-.02-.12-.06-.26-.13-.4-.07-.14-.16-.27-.27-.39-.12-.12-.26-.21-.44-.29s-.39-.11-.63-.11c-.2,0-.38.03-.54.09-.16.06-.31.14-.43.25-.12.1-.21.23-.28.37-.07.14-.1.29-.1.46,0,.25.08.46.23.64s.37.3.67.37l1.04.23c.58.13,1.03.37,1.34.71s.47.75.47,1.24c0,.27-.06.53-.17.77-.11.25-.27.47-.48.66s-.46.34-.75.46-.63.17-1,.17c-.42,0-.78-.06-1.09-.19s-.57-.28-.78-.48c-.21-.2-.38-.42-.5-.66-.12-.25-.19-.49-.23-.74l.92-.29c.02.2.07.38.14.56.07.18.18.34.32.48.14.14.31.25.51.33.2.08.43.12.69.12.48,0,.83-.11,1.07-.32.24-.22.36-.48.36-.78,0-.25-.08-.47-.25-.67s-.43-.33-.78-.41l-.99-.22c-.5-.11-.9-.33-1.22-.64s-.47-.74-.47-1.26c0-.27.06-.54.18-.78.12-.25.28-.47.49-.66s.45-.34.73-.46.58-.17.9-.17c.39,0,.73.05,1,.16.28.11.51.25.7.42s.33.36.44.56c.1.2.18.4.21.59l-.86.3Z"/>
    <path class="cls-6" d="M63.9,134.47h1.41l.35-1.64h.82l-.35,1.64h1.39l.35-1.64h.82l-.35,1.64h1.32v.74h-1.48l-.33,1.57h1.33v.74h-1.5l-.35,1.66h-.82l.35-1.66h-1.39l-.35,1.66h-.82l.35-1.66h-1.24v-.74h1.4l.33-1.57h-1.25v-.74ZM65.64,136.78h1.39l.33-1.57h-1.39l-.33,1.57Z"/>
    <path class="cls-6" d="M72.11,139.18v-4.48h-1.54v-.68c.44-.01.81-.13,1.1-.35.29-.22.47-.5.54-.85h.84v6.35h-.94Z"/>
    <path class="cls-6" d="M81.13,137.84c-.07.21-.16.4-.29.58-.13.18-.28.34-.46.47s-.38.24-.61.32c-.23.08-.48.12-.75.12-.31,0-.61-.06-.9-.17-.29-.11-.54-.27-.76-.49s-.39-.48-.52-.79c-.13-.31-.19-.67-.19-1.07,0-.37.06-.71.19-1.01s.29-.57.5-.78.45-.39.72-.51.56-.18.85-.18c.36,0,.68.06.97.18s.52.29.71.5c.19.22.33.48.44.78.1.3.15.64.15,1,0,.06,0,.11,0,.17,0,.05,0,.09-.01.13h-3.55c0,.21.05.4.12.58.07.18.17.33.3.46s.28.23.45.29c.17.07.36.1.55.1.38,0,.68-.09.88-.27.2-.18.35-.41.44-.68l.79.27ZM80.2,136.34c-.01-.34-.13-.63-.34-.86-.22-.23-.53-.35-.95-.35-.2,0-.37.03-.52.1-.15.07-.28.16-.39.27-.11.11-.19.24-.26.39s-.1.29-.11.44h2.58Z"/>
    <path class="cls-6" d="M84.44,139.18h-.93l-1.91-4.71h1.04l1.34,3.64,1.35-3.64h.99l-1.88,4.71Z"/>
    <path class="cls-6" d="M91.24,137.84c-.07.21-.16.4-.29.58-.13.18-.28.34-.46.47s-.38.24-.61.32c-.23.08-.48.12-.75.12-.31,0-.61-.06-.9-.17-.29-.11-.54-.27-.76-.49s-.39-.48-.52-.79c-.13-.31-.19-.67-.19-1.07,0-.37.06-.71.19-1.01s.29-.57.5-.78.45-.39.72-.51.56-.18.85-.18c.36,0,.68.06.97.18s.52.29.71.5c.19.22.33.48.44.78.1.3.15.64.15,1,0,.06,0,.11,0,.17,0,.05,0,.09-.01.13h-3.55c0,.21.05.4.12.58.07.18.17.33.3.46s.28.23.45.29c.17.07.36.1.55.1.38,0,.68-.09.88-.27.2-.18.35-.41.44-.68l.79.27ZM90.3,136.34c-.01-.34-.13-.63-.34-.86-.22-.23-.53-.35-.95-.35-.2,0-.37.03-.52.1-.15.07-.28.16-.39.27-.11.11-.19.24-.26.39s-.1.29-.11.44h2.58Z"/>
    <path class="cls-6" d="M93.39,139.18h-.92v-4.71h.9v.68c.17-.29.39-.5.65-.63s.53-.19.8-.19.53.05.74.14c.21.09.39.23.53.39.14.17.25.36.31.59.07.23.1.47.1.74v2.99h-.92v-2.83c0-.16-.02-.32-.05-.46-.04-.14-.1-.27-.19-.38-.09-.11-.2-.19-.34-.25-.14-.06-.31-.09-.51-.09-.18,0-.34.03-.48.1-.14.07-.25.16-.34.28-.09.12-.16.25-.21.41-.05.16-.07.32-.07.5v2.73Z"/>
    <path class="cls-6" d="M99.21,134.47h1.02v.83h-1.02v2.45c0,.22.05.38.15.49.1.11.27.16.51.16.06,0,.12,0,.2,0,.07,0,.13-.02.17-.03v.78s-.11.03-.23.05c-.11.02-.25.03-.4.03-.41,0-.73-.12-.96-.35-.24-.23-.35-.56-.35-1v-2.59h-.9v-.83h.25c.25,0,.44-.07.55-.21.11-.14.17-.31.17-.52v-.76h.84v1.49Z"/>
  </g>
  <g>
    <path class="cls-6" d="M154.31,256.61c-.45,0-.88-.08-1.3-.24s-.78-.39-1.1-.7c-.32-.31-.57-.69-.76-1.14-.19-.45-.29-.97-.29-1.55s.1-1.1.29-1.54c.2-.45.46-.82.78-1.13.32-.31.69-.54,1.11-.7s.84-.24,1.27-.24c.4,0,.76.05,1.1.16.33.11.63.25.89.44.26.19.48.42.66.7.18.28.32.58.41.91l-.89.31c-.13-.53-.38-.94-.75-1.22-.37-.28-.84-.42-1.42-.42-.31,0-.62.06-.92.17-.3.11-.56.29-.79.51-.23.23-.42.51-.55.86-.14.34-.21.74-.21,1.19s.07.85.21,1.19c.14.34.32.63.55.86s.5.41.79.52c.3.12.6.17.92.17.29,0,.56-.04.8-.13.24-.08.46-.2.64-.35.19-.15.34-.32.47-.53.13-.21.23-.43.3-.66l.85.31c-.09.33-.23.63-.41.9-.18.28-.4.51-.66.71-.26.2-.56.35-.89.46-.34.11-.7.17-1.1.17Z"/>
    <path class="cls-6" d="M158.72,256.46v-6.95h.98v6.95h-.98Z"/>
    <path class="cls-6" d="M165.11,251.39c-.02-.12-.06-.26-.13-.4-.07-.14-.16-.27-.27-.39-.12-.12-.26-.21-.44-.29-.18-.07-.39-.11-.63-.11-.2,0-.38.03-.54.09-.16.06-.31.14-.43.24-.12.11-.21.23-.28.37-.07.14-.1.29-.1.46,0,.25.08.46.23.64s.37.3.67.37l1.04.22c.58.13,1.03.37,1.34.71s.47.75.47,1.25c0,.27-.06.53-.17.77-.11.25-.27.47-.48.66-.21.19-.46.34-.75.46s-.63.17-1,.17c-.42,0-.78-.06-1.09-.19s-.57-.28-.78-.48c-.21-.2-.38-.42-.5-.66-.12-.25-.19-.49-.23-.74l.92-.29c.02.2.07.38.14.56.07.18.18.34.32.47.14.14.31.25.51.33.2.08.43.12.69.12.48,0,.83-.11,1.07-.32.24-.22.36-.48.36-.78,0-.25-.08-.47-.25-.67s-.43-.33-.78-.41l-.99-.22c-.5-.11-.9-.33-1.22-.64-.32-.32-.47-.74-.47-1.26,0-.28.06-.54.18-.79.12-.25.28-.47.49-.66s.45-.34.73-.46c.28-.12.58-.17.9-.17.39,0,.73.05,1,.16.28.11.51.25.7.42s.33.36.44.56c.1.2.18.4.21.59l-.86.3Z"/>
    <path class="cls-6" d="M169.89,251.75h1.41l.35-1.64h.82l-.35,1.64h1.39l.35-1.64h.82l-.35,1.64h1.32v.75h-1.48l-.33,1.57h1.33v.74h-1.5l-.35,1.66h-.82l.35-1.66h-1.39l-.35,1.66h-.82l.35-1.66h-1.24v-.74h1.4l.33-1.57h-1.25v-.75ZM171.63,254.06h1.39l.33-1.57h-1.39l-.33,1.57Z"/>
    <path class="cls-6" d="M176.66,252.27s0-.09,0-.13v-.12c0-.27.05-.54.15-.78.1-.25.24-.47.43-.66s.42-.34.69-.45c.28-.11.58-.17.93-.17s.64.05.91.16c.27.11.49.25.68.42.18.18.32.38.42.62s.14.49.14.75c0,.42-.11.79-.32,1.12s-.51.61-.87.84l-1.25.8c-.18.12-.35.25-.49.39-.14.14-.24.31-.28.51h3.26v.89h-4.45c0-.26.04-.51.09-.74.05-.23.14-.45.26-.66.12-.21.28-.41.46-.59.19-.19.42-.37.69-.54l1.06-.69c.3-.19.52-.39.66-.62.14-.22.21-.46.21-.71,0-.14-.03-.28-.07-.42s-.12-.25-.22-.36c-.1-.1-.22-.19-.37-.25-.15-.06-.33-.09-.53-.09s-.39.03-.54.1c-.15.07-.28.16-.38.28-.1.12-.18.26-.22.41-.05.16-.07.33-.07.51,0,.05,0,.09,0,.14,0,.05,0,.09.01.15l-.96-.12Z"/>
    <path class="cls-6" d="M188.76,255.12c-.07.21-.16.4-.29.58-.13.18-.28.34-.46.47s-.38.24-.61.32c-.23.08-.48.12-.75.12-.31,0-.61-.06-.9-.17-.29-.11-.54-.27-.76-.49s-.39-.48-.52-.79c-.13-.31-.19-.67-.19-1.07,0-.37.06-.71.19-1.01s.29-.57.5-.78.45-.39.72-.51.56-.18.85-.18c.36,0,.68.06.97.18s.52.29.71.5c.19.22.33.48.44.78.1.3.15.64.15,1,0,.06,0,.11,0,.17,0,.05,0,.1-.01.13h-3.55c0,.21.05.4.12.58.07.18.17.33.3.46.13.13.28.23.45.29.17.07.36.1.55.1.38,0,.68-.09.88-.27.2-.18.35-.41.44-.68l.79.27ZM187.83,253.62c-.01-.34-.13-.62-.34-.86s-.53-.35-.95-.35c-.2,0-.37.03-.52.1-.15.07-.28.16-.39.27-.11.11-.19.24-.26.39-.07.14-.1.29-.11.44h2.58Z"/>
    <path class="cls-6" d="M192.07,256.46h-.93l-1.91-4.71h1.04l1.34,3.64,1.35-3.64h.99l-1.88,4.71Z"/>
    <path class="cls-6" d="M198.87,255.12c-.07.21-.16.4-.29.58-.13.18-.28.34-.46.47s-.38.24-.61.32c-.23.08-.48.12-.75.12-.31,0-.61-.06-.9-.17-.29-.11-.54-.27-.76-.49s-.39-.48-.52-.79c-.13-.31-.19-.67-.19-1.07,0-.37.06-.71.19-1.01s.29-.57.5-.78.45-.39.72-.51.56-.18.85-.18c.36,0,.68.06.97.18s.52.29.71.5c.19.22.33.48.44.78.1.3.15.64.15,1,0,.06,0,.11,0,.17,0,.05,0,.1-.01.13h-3.55c0,.21.05.4.12.58.07.18.17.33.3.46.13.13.28.23.45.29.17.07.36.1.55.1.38,0,.68-.09.88-.27.2-.18.35-.41.44-.68l.79.27ZM197.94,253.62c-.01-.34-.13-.62-.34-.86s-.53-.35-.95-.35c-.2,0-.37.03-.52.1-.15.07-.28.16-.39.27-.11.11-.19.24-.26.39-.07.14-.1.29-.11.44h2.58Z"/>
    <path class="cls-6" d="M201.03,256.46h-.92v-4.71h.9v.68c.17-.29.39-.5.65-.63s.53-.19.8-.19.53.05.74.14c.21.09.39.23.53.39.14.17.25.36.31.59.07.23.1.47.1.74v2.99h-.92v-2.83c0-.16-.02-.32-.05-.46-.04-.14-.1-.27-.19-.38s-.2-.19-.34-.25-.31-.09-.51-.09c-.18,0-.34.03-.48.1-.14.07-.25.16-.34.28-.09.12-.16.25-.21.41-.05.16-.07.32-.07.5v2.73Z"/>
    <path class="cls-6" d="M206.85,251.75h1.02v.83h-1.02v2.45c0,.21.05.38.15.48.1.11.27.16.51.16.06,0,.12,0,.2,0s.13-.02.17-.03v.78s-.11.03-.23.05-.25.03-.4.03c-.41,0-.73-.12-.96-.35-.24-.23-.35-.56-.35-1v-2.59h-.9v-.83h.25c.25,0,.44-.07.55-.21s.17-.31.17-.52v-.76h.84v1.49Z"/>
  </g>
  <path class="cls-6" d="M26.89,155.76v6.06h-.96v-6.06h-2.32v-.89h5.61v.89h-2.32Z"/>
  <path class="cls-6" d="M63.01,155.76v6.06h-.96v-6.06h-2.32v-.89h5.61v.89h-2.32Z"/>
  <g>
    <rect class="cls-5" x="72.43" y="151.49" width="14.54" height="14.54"/>
    <path class="cls-6" d="M79.56,158.97h-1.04v2.84h-.97v-6.95h2.62c.33,0,.62.05.89.16s.49.25.67.44c.18.19.32.4.42.66s.15.52.15.81c0,.5-.15.93-.45,1.29-.3.36-.71.58-1.24.68l1.66,2.91h-1.12l-1.59-2.84ZM80,158.11c.39,0,.71-.11.95-.32.24-.21.36-.5.36-.86s-.12-.67-.36-.88c-.24-.22-.56-.32-.95-.32h-1.47v2.38h1.47Z"/>
  </g>
  <g>
    <rect class="cls-5" x="36.2" y="151.49" width="14.54" height="14.54"/>
    <path class="cls-6" d="M43.33,158.97h-1.04v2.84h-.97v-6.95h2.62c.33,0,.62.05.89.16s.49.25.67.44c.18.19.32.4.42.66s.15.52.15.81c0,.5-.15.93-.45,1.29-.3.36-.71.58-1.24.68l1.66,2.91h-1.12l-1.59-2.84ZM43.76,158.11c.39,0,.71-.11.95-.32.24-.21.36-.5.36-.86s-.12-.67-.36-.88c-.24-.22-.56-.32-.95-.32h-1.47v2.38h1.47Z"/>
  </g>
  <path class="cls-6" d="M133.71,273.48v6.06h-.96v-6.06h-2.32v-.89h5.61v.89h-2.32Z"/>
  <path class="cls-6" d="M151.14,276.7h-1.04v2.84h-.97v-6.95h2.62c.33,0,.62.05.89.16.26.11.49.25.67.44.18.19.32.41.42.66.1.25.15.52.15.81,0,.5-.15.93-.45,1.29-.3.36-.71.58-1.24.68l1.66,2.91h-1.12l-1.59-2.84ZM151.58,275.84c.39,0,.71-.11.95-.32.24-.21.36-.5.36-.86s-.12-.67-.36-.88c-.24-.22-.56-.32-.95-.32h-1.47v2.38h1.47Z"/>
  <rect class="cls-8" x="234.08" y="322.9" width="106.81" height="14.54"/>
  <rect class="cls-8" x="234.08" y="345.53" width="14.54" height="14.54"/>
  <rect class="cls-1" x="252.13" y="345.53" width="14.54" height="14.54"/>
  <g>
    <path class="cls-6" d="M262.4,333.37c-.45,0-.88-.08-1.3-.24s-.78-.39-1.1-.7c-.32-.31-.57-.69-.76-1.14-.19-.45-.29-.97-.29-1.55s.1-1.1.29-1.54c.2-.45.46-.83.78-1.13s.69-.54,1.11-.7.84-.24,1.27-.24c.4,0,.76.05,1.1.16s.63.25.89.44c.26.19.48.42.66.7s.32.58.41.91l-.89.31c-.13-.53-.38-.93-.75-1.22-.37-.28-.84-.42-1.42-.42-.31,0-.62.06-.92.17-.3.11-.56.29-.79.51-.23.23-.42.51-.55.86-.14.34-.21.74-.21,1.19s.07.85.21,1.19c.14.34.32.63.55.86.23.23.5.41.79.52.3.11.6.17.92.17.29,0,.56-.04.8-.13.24-.08.46-.2.64-.35.19-.15.34-.32.47-.53.13-.21.23-.43.3-.66l.85.31c-.09.33-.23.63-.41.9s-.4.51-.66.71c-.26.2-.56.35-.89.46-.34.11-.7.17-1.1.17Z"/>
    <path class="cls-6" d="M266.81,333.22v-6.95h.98v6.95h-.98Z"/>
    <path class="cls-6" d="M273.2,328.15c-.02-.12-.06-.26-.13-.4-.07-.14-.16-.27-.27-.39-.12-.12-.26-.21-.44-.29s-.39-.11-.63-.11c-.2,0-.38.03-.54.09-.16.06-.31.14-.43.24-.12.11-.21.23-.28.37-.07.14-.1.29-.1.46,0,.25.08.46.23.64s.37.3.67.37l1.04.22c.58.13,1.03.37,1.34.71s.47.75.47,1.24c0,.27-.06.53-.17.77-.11.25-.27.47-.48.66s-.46.34-.75.46c-.29.12-.63.17-1,.17-.42,0-.78-.06-1.09-.19-.31-.12-.57-.29-.78-.48-.21-.2-.38-.42-.5-.66-.12-.25-.19-.49-.23-.74l.92-.29c.02.2.07.38.14.56.07.18.18.34.32.48s.31.25.51.33c.2.08.43.12.69.12.48,0,.83-.11,1.07-.32.24-.22.36-.48.36-.79,0-.25-.08-.47-.25-.67s-.43-.33-.78-.41l-.99-.21c-.5-.11-.9-.33-1.22-.64-.32-.32-.47-.74-.47-1.26,0-.27.06-.54.18-.78.12-.25.28-.47.49-.66.21-.19.45-.34.73-.46s.58-.17.9-.17c.39,0,.73.05,1,.16.28.11.51.25.7.42s.33.36.44.56c.1.2.18.4.21.59l-.86.3Z"/>
    <path class="cls-6" d="M277.98,328.51h1.41l.35-1.64h.82l-.35,1.64h1.39l.35-1.64h.82l-.35,1.64h1.32v.74h-1.48l-.33,1.57h1.33v.75h-1.5l-.35,1.66h-.82l.35-1.66h-1.39l-.35,1.66h-.82l.35-1.66h-1.24v-.75h1.4l.33-1.57h-1.25v-.74ZM279.73,330.82h1.39l.33-1.57h-1.39l-.33,1.57Z"/>
    <path class="cls-6" d="M285.88,329.48l1.87-1.73h-3.04v-.88h4.31v.86l-1.81,1.68c.24,0,.47.04.7.12.23.08.44.2.63.36s.34.36.46.6c.12.24.18.53.18.85,0,.27-.05.53-.15.77-.1.25-.25.46-.45.65s-.44.34-.72.45c-.28.11-.61.17-.99.17s-.69-.06-.98-.17c-.29-.11-.53-.26-.73-.45-.2-.19-.35-.4-.47-.64s-.17-.49-.19-.75l.94-.21c0,.21.05.4.13.57.08.17.18.31.31.43.13.12.27.21.44.27.17.07.34.1.53.1.22,0,.41-.03.58-.09.17-.06.31-.15.42-.26.11-.11.2-.23.25-.38.06-.14.09-.29.09-.45,0-.21-.04-.39-.11-.54s-.17-.27-.3-.37-.26-.17-.42-.21c-.15-.04-.31-.07-.46-.07-.19,0-.38.03-.56.1l-.47-.79Z"/>
    <path class="cls-6" d="M296.91,331.88c-.07.21-.16.4-.29.58-.13.18-.28.34-.46.47-.18.13-.38.24-.61.32-.23.08-.48.12-.75.12-.31,0-.61-.06-.9-.17-.29-.11-.54-.28-.76-.49-.22-.22-.39-.48-.52-.79-.13-.31-.19-.67-.19-1.07,0-.37.06-.71.19-1.01.12-.3.29-.57.5-.79s.45-.39.72-.51c.27-.12.56-.18.85-.18.36,0,.68.06.97.18.28.12.52.29.71.51.19.21.33.47.44.78.1.3.15.64.15,1,0,.06,0,.12,0,.17,0,.05,0,.09-.01.13h-3.55c0,.21.05.4.12.58.07.18.17.33.3.46.13.13.28.23.45.29.17.07.36.1.55.1.38,0,.68-.09.88-.27s.35-.41.44-.68l.79.27ZM295.98,330.38c-.01-.34-.13-.62-.34-.86-.22-.23-.53-.35-.95-.35-.2,0-.37.03-.52.1-.15.07-.28.16-.39.27-.11.12-.19.24-.26.39s-.1.29-.11.44h2.58Z"/>
    <path class="cls-6" d="M300.22,333.22h-.93l-1.91-4.71h1.04l1.34,3.64,1.35-3.64h.99l-1.88,4.71Z"/>
    <path class="cls-6" d="M307.02,331.88c-.07.21-.16.4-.29.58-.13.18-.28.34-.46.47-.18.13-.38.24-.61.32-.23.08-.48.12-.75.12-.31,0-.61-.06-.9-.17-.29-.11-.54-.28-.76-.49-.22-.22-.39-.48-.52-.79-.13-.31-.19-.67-.19-1.07,0-.37.06-.71.19-1.01.12-.3.29-.57.5-.79s.45-.39.72-.51c.27-.12.56-.18.85-.18.36,0,.68.06.97.18.28.12.52.29.71.51.19.21.33.47.44.78.1.3.15.64.15,1,0,.06,0,.12,0,.17,0,.05,0,.09-.01.13h-3.55c0,.21.05.4.12.58.07.18.17.33.3.46.13.13.28.23.45.29.17.07.36.1.55.1.38,0,.68-.09.88-.27s.35-.41.44-.68l.79.27ZM306.08,330.38c-.01-.34-.13-.62-.34-.86-.22-.23-.53-.35-.95-.35-.2,0-.37.03-.52.1-.15.07-.28.16-.39.27-.11.12-.19.24-.26.39s-.1.29-.11.44h2.58Z"/>
    <path class="cls-6" d="M309.17,333.22h-.92v-4.71h.9v.68c.17-.29.39-.5.65-.63.26-.12.53-.19.8-.19s.53.05.74.14c.21.1.39.23.53.39s.25.36.31.59c.07.23.1.47.1.74v2.99h-.92v-2.83c0-.16-.02-.32-.05-.46-.04-.14-.1-.27-.19-.38-.09-.11-.2-.19-.34-.25-.14-.06-.31-.09-.51-.09-.18,0-.34.03-.48.1-.14.07-.25.16-.34.28-.09.12-.16.25-.21.41s-.07.32-.07.5v2.73Z"/>
    <path class="cls-6" d="M314.99,328.51h1.02v.83h-1.02v2.45c0,.22.05.38.15.49.1.11.27.16.51.16.06,0,.12,0,.2,0,.07,0,.13-.02.17-.03v.79s-.11.03-.23.05c-.11.02-.25.04-.4.04-.41,0-.73-.12-.96-.35-.24-.23-.35-.56-.35-1v-2.59h-.9v-.83h.25c.25,0,.44-.07.55-.21.11-.14.17-.31.17-.52v-.76h.84v1.49Z"/>
  </g>
  <path class="cls-6" d="M241.83,350.24v6.06h-.96v-6.06h-2.32v-.89h5.61v.89h-2.32Z"/>
  <path class="cls-6" d="M259.26,353.46h-1.04v2.84h-.97v-6.95h2.62c.33,0,.62.05.89.16.26.11.49.25.67.44.18.19.32.41.42.66s.15.52.15.81c0,.5-.15.93-.45,1.29-.3.36-.71.58-1.24.68l1.66,2.91h-1.12l-1.59-2.84ZM259.7,352.6c.39,0,.71-.11.95-.32.24-.21.36-.5.36-.86s-.12-.67-.36-.88c-.24-.22-.56-.32-.95-.32h-1.47v2.38h1.47Z"/>
  <g>
    <line class="cls-2" x1="346.17" y1="49.56" x2="660.05" y2="49.56"/>
    <polygon points="346.71 51.43 343.48 49.56 346.71 47.69 346.71 51.43"/>
    <polygon points="659.5 51.43 662.74 49.56 659.5 47.69 659.5 51.43"/>
  </g>
  <rect class="cls-10" x="345.12" y="63.08" width="317.62" height="14.54"/>
  <rect class="cls-9" x="345" y="128.86" width="106.82" height="14.54"/>
  <line class="cls-4" x1="666.75" y1="35.15" x2="666.75" y2="360.85"/>
  <g>
    <rect class="cls-6" x="473.43" y="40.66" width="59.36" height="17.63"/>
    <g>
      <path d="M478.27,52.6v-6.95h.98v6.95h-.98Z"/>
      <path d="M484.66,47.53c-.02-.12-.06-.26-.13-.4-.07-.14-.16-.27-.27-.39s-.26-.21-.44-.29-.39-.11-.63-.11c-.2,0-.38.03-.54.09-.16.06-.31.14-.43.24-.12.11-.21.23-.28.37-.07.14-.1.29-.1.46,0,.25.08.46.23.64s.37.3.67.37l1.04.22c.58.13,1.03.37,1.34.71s.47.75.47,1.25c0,.27-.06.53-.17.77s-.27.47-.48.66c-.21.19-.46.34-.75.46s-.63.17-1,.17c-.42,0-.78-.06-1.09-.19s-.57-.28-.78-.48c-.21-.2-.38-.42-.5-.66-.12-.25-.19-.49-.23-.74l.92-.29c.02.2.07.38.14.56.07.18.18.34.32.48.14.14.31.25.51.33s.43.12.69.12c.48,0,.83-.11,1.07-.32.24-.22.36-.48.36-.78,0-.25-.08-.47-.25-.67s-.43-.33-.78-.41l-.99-.22c-.5-.11-.9-.33-1.22-.64-.32-.32-.47-.74-.47-1.26,0-.27.06-.54.18-.78.12-.25.28-.47.49-.66.21-.19.45-.34.73-.46s.58-.17.9-.17c.39,0,.73.05,1,.16.28.11.51.25.7.42s.33.36.44.56c.1.2.18.4.21.59l-.86.3Z"/>
      <path d="M486.54,49.12c0-.58.1-1.1.3-1.54s.46-.83.79-1.13c.33-.31.7-.54,1.12-.7s.85-.24,1.28-.24.87.08,1.28.24.79.39,1.12.7c.33.31.59.68.79,1.13s.3.96.3,1.54-.1,1.1-.3,1.55-.46.83-.79,1.14c-.33.31-.7.54-1.12.7s-.85.24-1.28.24-.87-.08-1.28-.24-.79-.39-1.12-.7c-.33-.31-.59-.69-.79-1.14s-.3-.97-.3-1.55ZM487.52,49.12c0,.45.07.85.21,1.19.14.34.33.63.56.86.23.23.5.41.8.52.3.11.61.17.94.17s.63-.06.94-.17.57-.29.8-.52c.23-.23.42-.52.56-.86.14-.34.21-.74.21-1.19s-.07-.85-.21-1.19c-.14-.34-.33-.63-.56-.86-.23-.23-.5-.4-.8-.51s-.62-.17-.94-.17-.64.06-.94.17c-.3.11-.57.29-.8.51-.23.23-.42.51-.56.86-.14.34-.21.74-.21,1.19Z"/>
      <path d="M497.29,52.6v-6.95h.98v6.95h-.98Z"/>
      <path d="M500.85,52.6h-.92v-4.71h.9v.68c.17-.29.39-.5.65-.63.26-.12.53-.19.8-.19s.53.05.74.14c.21.09.39.23.53.39.14.17.25.36.31.59s.1.47.1.74v2.99h-.92v-2.83c0-.16-.02-.32-.05-.46-.04-.14-.1-.27-.19-.38-.09-.11-.2-.19-.34-.25-.14-.06-.31-.09-.51-.09-.18,0-.34.03-.48.1-.14.07-.25.16-.34.28-.09.12-.16.25-.21.41-.05.16-.07.32-.07.5v2.72Z"/>
      <path d="M506.67,47.89h1.02v.83h-1.02v2.45c0,.22.05.38.15.49.1.11.27.16.51.16.06,0,.12,0,.2,0,.07,0,.13-.02.17-.03v.78s-.11.03-.23.05c-.11.02-.25.03-.4.03-.41,0-.73-.12-.96-.35-.24-.23-.35-.56-.35-1v-2.59h-.9v-.83h.25c.25,0,.44-.07.55-.21.11-.14.17-.31.17-.52v-.76h.84v1.49Z"/>
      <path d="M512.92,51.26c-.07.21-.16.4-.29.58-.13.18-.28.34-.46.47s-.38.24-.61.32c-.23.08-.48.12-.75.12-.31,0-.61-.06-.9-.17-.29-.11-.54-.27-.76-.49s-.39-.48-.52-.79c-.13-.31-.19-.67-.19-1.07,0-.37.06-.71.19-1.01s.29-.57.5-.78.45-.39.72-.51c.27-.12.56-.18.85-.18.36,0,.68.06.97.18.28.12.52.29.71.5.19.22.33.48.44.78.1.3.15.64.15,1,0,.06,0,.11,0,.17,0,.05,0,.09-.01.13h-3.55c0,.21.05.4.12.58.07.18.17.33.3.46.13.13.28.23.45.29.17.07.36.1.55.1.38,0,.68-.09.88-.27.2-.18.35-.41.44-.68l.79.27ZM511.99,49.76c-.01-.34-.13-.62-.34-.86-.22-.23-.53-.35-.95-.35-.2,0-.37.03-.52.1s-.28.16-.39.27c-.11.11-.19.24-.26.39s-.1.29-.11.44h2.58Z"/>
      <path d="M516.77,48.82c-.14-.02-.27-.03-.4-.03-.39,0-.7.11-.94.34s-.36.6-.36,1.11v2.36h-.92v-4.71h.9v.82c.08-.18.18-.33.3-.45.11-.11.23-.21.36-.27.12-.07.25-.12.38-.14.13-.03.25-.04.37-.04.07,0,.13,0,.18,0,.05,0,.1.01.12.02v.98Z"/>
      <path d="M520.23,52.6h-.93l-1.91-4.71h1.04l1.34,3.64,1.35-3.64h.99l-1.88,4.71Z"/>
      <path d="M522.65,51.34c0-.21.04-.4.11-.56.07-.17.17-.31.3-.43.13-.12.28-.21.46-.29.18-.07.37-.12.57-.16l1.27-.19c.14-.02.24-.06.29-.13.05-.07.07-.14.07-.23,0-.23-.08-.43-.24-.59-.16-.17-.42-.25-.78-.25-.33,0-.58.09-.75.27s-.28.41-.31.68l-.88-.21c.03-.22.09-.43.2-.62s.25-.35.42-.49.37-.24.59-.31.47-.11.72-.11c.35,0,.65.05.9.14s.45.22.61.38c.16.16.27.34.34.55.07.21.11.43.11.66v2.36c0,.21,0,.38.02.5.01.12.03.22.04.27h-.9c-.01-.06-.02-.14-.03-.24,0-.1-.01-.23-.01-.4-.05.08-.12.17-.21.26s-.19.18-.31.25c-.12.08-.27.14-.44.19-.17.05-.35.07-.56.07-.24,0-.46-.04-.65-.12-.19-.08-.36-.18-.49-.31-.14-.13-.24-.28-.32-.45-.08-.17-.11-.35-.11-.54ZM524.35,51.97c.19,0,.37-.02.53-.07.17-.05.31-.13.43-.24.12-.11.22-.25.29-.43.07-.18.11-.4.11-.65v-.21l-1.44.21c-.2.03-.36.11-.49.22s-.2.28-.2.49c0,.18.07.33.21.48.14.14.32.21.56.21Z"/>
      <path d="M528.07,52.6v-7.1h.92v7.1h-.92Z"/>
    </g>
  </g>
  <g>
    <line class="cls-2" x1="346.17" y1="115.51" x2="636.6" y2="115.51"/>
    <polygon points="346.71 117.38 343.48 115.51 346.71 113.64 346.71 117.38"/>
    <polygon points="636.05 117.38 639.29 115.51 636.05 113.64 636.05 117.38"/>
  </g>
  <g>
    <rect class="cls-6" x="461.7" y="106.61" width="59.36" height="17.63"/>
    <g>
      <path d="M466.54,118.55v-6.95h.98v6.95h-.98Z"/>
      <path d="M472.93,113.48c-.02-.12-.06-.26-.13-.4-.07-.14-.16-.27-.27-.39s-.26-.21-.44-.29-.39-.11-.63-.11c-.2,0-.38.03-.54.09-.16.06-.31.14-.43.24-.12.11-.21.23-.28.37-.07.14-.1.29-.1.46,0,.25.08.46.23.64s.37.3.67.37l1.04.22c.58.13,1.03.37,1.34.71s.47.75.47,1.25c0,.27-.06.53-.17.77s-.27.47-.48.66c-.21.19-.46.34-.75.46s-.63.17-1,.17c-.42,0-.78-.06-1.09-.19s-.57-.28-.78-.48c-.21-.2-.38-.42-.5-.66-.12-.25-.19-.49-.23-.74l.92-.29c.02.2.07.38.14.56.07.18.18.34.32.48.14.14.31.25.51.33s.43.12.69.12c.48,0,.83-.11,1.07-.32.24-.22.36-.48.36-.78,0-.25-.08-.47-.25-.67s-.43-.33-.78-.41l-.99-.22c-.5-.11-.9-.33-1.22-.64-.32-.32-.47-.74-.47-1.26,0-.27.06-.54.18-.78.12-.25.28-.47.49-.66.21-.19.45-.34.73-.46s.58-.17.9-.17c.39,0,.73.05,1,.16.28.11.51.25.7.42s.33.36.44.56c.1.2.18.4.21.59l-.86.3Z"/>
      <path d="M474.81,115.07c0-.58.1-1.1.3-1.54s.46-.83.79-1.13c.33-.31.7-.54,1.12-.7s.85-.24,1.28-.24.87.08,1.28.24.79.39,1.12.7c.33.31.59.68.79,1.13s.3.96.3,1.54-.1,1.1-.3,1.55-.46.83-.79,1.14c-.33.31-.7.54-1.12.7s-.85.24-1.28.24-.87-.08-1.28-.24-.79-.39-1.12-.7c-.33-.31-.59-.69-.79-1.14s-.3-.97-.3-1.55ZM475.79,115.07c0,.45.07.85.21,1.19.14.34.33.63.56.86.23.23.5.41.8.52.3.11.61.17.94.17s.63-.06.94-.17.57-.29.8-.52c.23-.23.42-.52.56-.86.14-.34.21-.74.21-1.19s-.07-.85-.21-1.19c-.14-.34-.33-.63-.56-.86-.23-.23-.5-.4-.8-.51s-.62-.17-.94-.17-.64.06-.94.17c-.3.11-.57.29-.8.51-.23.23-.42.51-.56.86-.14.34-.21.74-.21,1.19Z"/>
      <path d="M485.57,118.55v-6.95h.98v6.95h-.98Z"/>
      <path d="M489.13,118.55h-.92v-4.71h.9v.68c.17-.29.39-.5.65-.63.26-.12.53-.19.8-.19s.53.05.74.14c.21.09.39.23.53.39.14.17.25.36.31.59s.1.47.1.74v2.99h-.92v-2.83c0-.16-.02-.32-.05-.46-.04-.14-.1-.27-.19-.38-.09-.11-.2-.19-.34-.25-.14-.06-.31-.09-.51-.09-.18,0-.34.03-.48.1-.14.07-.25.16-.34.28-.09.12-.16.25-.21.41-.05.16-.07.32-.07.5v2.72Z"/>
      <path d="M494.95,113.83h1.02v.83h-1.02v2.45c0,.22.05.38.15.49.1.11.27.16.51.16.06,0,.12,0,.2,0,.07,0,.13-.02.17-.03v.78s-.11.03-.23.05c-.11.02-.25.03-.4.03-.41,0-.73-.12-.96-.35-.24-.23-.35-.56-.35-1v-2.59h-.9v-.83h.25c.25,0,.44-.07.55-.21.11-.14.17-.31.17-.52v-.76h.84v1.49Z"/>
      <path d="M501.2,117.21c-.07.21-.16.4-.29.58-.13.18-.28.34-.46.47s-.38.24-.61.32c-.23.08-.48.12-.75.12-.31,0-.61-.06-.9-.17-.29-.11-.54-.27-.76-.49s-.39-.48-.52-.79c-.13-.31-.19-.67-.19-1.07,0-.37.06-.71.19-1.01s.29-.57.5-.78.45-.39.72-.51c.27-.12.56-.18.85-.18.36,0,.68.06.97.18.28.12.52.29.71.5.19.22.33.48.44.78.1.3.15.64.15,1,0,.06,0,.11,0,.17,0,.05,0,.09-.01.13h-3.55c0,.21.05.4.12.58.07.18.17.33.3.46.13.13.28.23.45.29.17.07.36.1.55.1.38,0,.68-.09.88-.27.2-.18.35-.41.44-.68l.79.27ZM500.26,115.71c-.01-.34-.13-.62-.34-.86-.22-.23-.53-.35-.95-.35-.2,0-.37.03-.52.1s-.28.16-.39.27c-.11.11-.19.24-.26.39s-.1.29-.11.44h2.58Z"/>
      <path d="M505.05,114.77c-.14-.02-.27-.03-.4-.03-.39,0-.7.11-.94.34s-.36.6-.36,1.11v2.36h-.92v-4.71h.9v.82c.08-.18.18-.33.3-.45.11-.11.23-.21.36-.27.12-.07.25-.12.38-.14.13-.03.25-.04.37-.04.07,0,.13,0,.18,0,.05,0,.1.01.12.02v.98Z"/>
      <path d="M508.51,118.55h-.93l-1.91-4.71h1.04l1.34,3.64,1.35-3.64h.99l-1.88,4.71Z"/>
      <path d="M510.92,117.28c0-.21.04-.4.11-.56.07-.17.17-.31.3-.43.13-.12.28-.21.46-.29.18-.07.37-.12.57-.16l1.27-.19c.14-.02.24-.06.29-.13.05-.07.07-.14.07-.23,0-.23-.08-.43-.24-.59-.16-.17-.42-.25-.78-.25-.33,0-.58.09-.75.27s-.28.41-.31.68l-.88-.21c.03-.22.09-.43.2-.62s.25-.35.42-.49.37-.24.59-.31.47-.11.72-.11c.35,0,.65.05.9.14s.45.22.61.38c.16.16.27.34.34.55.07.21.11.43.11.66v2.36c0,.21,0,.38.02.5.01.12.03.22.04.27h-.9c-.01-.06-.02-.14-.03-.24,0-.1-.01-.23-.01-.4-.05.08-.12.17-.21.26s-.19.18-.31.25c-.12.08-.27.14-.44.19-.17.05-.35.07-.56.07-.24,0-.46-.04-.65-.12-.19-.08-.36-.18-.49-.31-.14-.13-.24-.28-.32-.45-.08-.17-.11-.35-.11-.54ZM512.63,117.92c.19,0,.37-.02.53-.07.17-.05.31-.13.43-.24.12-.11.22-.25.29-.43.07-.18.11-.4.11-.65v-.21l-1.44.21c-.2.03-.36.11-.49.22s-.2.28-.2.49c0,.18.07.33.21.48.14.14.32.21.56.21Z"/>
      <path d="M516.34,118.55v-7.1h.92v7.1h-.92Z"/>
    </g>
  </g>
  <rect class="cls-9" x="343" y="151.49" width="14.54" height="14.54"/>
  <rect class="cls-9" x="381.12" y="151.49" width="14.54" height="14.54"/>
  <rect x="451.82" y="246.14" width="106.81" height="14.54"/>
  <rect x="451.82" y="268.77" width="14.54" height="14.54"/>
  <rect class="cls-7" x="469.88" y="268.77" width="14.54" height="14.54"/>
  <g>
    <path class="cls-6" d="M480.74,73.55c-.45,0-.88-.08-1.3-.24s-.78-.39-1.1-.7c-.32-.31-.57-.69-.76-1.14-.19-.45-.29-.97-.29-1.55s.1-1.1.29-1.54c.2-.45.46-.82.78-1.13.32-.31.69-.54,1.11-.7s.84-.24,1.27-.24c.4,0,.76.05,1.1.16s.63.25.89.44c.26.19.48.42.66.7s.32.58.41.91l-.89.31c-.13-.53-.38-.93-.75-1.22-.37-.28-.84-.42-1.42-.42-.31,0-.62.06-.92.17-.3.11-.56.29-.79.51-.23.23-.42.51-.55.86-.14.34-.21.74-.21,1.19s.07.85.21,1.19c.14.34.32.63.55.86s.5.41.79.52c.3.11.6.17.92.17.29,0,.56-.04.8-.13.24-.08.46-.2.64-.35.19-.15.34-.32.47-.53.13-.21.23-.43.3-.66l.85.31c-.09.33-.23.63-.41.9s-.4.51-.66.71c-.26.2-.56.35-.89.46-.34.11-.7.17-1.1.17Z"/>
    <path class="cls-6" d="M485.15,73.4v-6.95h.98v6.95h-.98Z"/>
    <path class="cls-6" d="M493.24,73.4l-.09-.98c-.08.14-.18.27-.31.41-.13.13-.29.25-.48.36s-.4.19-.64.26c-.24.07-.5.1-.8.1-.44,0-.86-.08-1.26-.24-.41-.16-.76-.39-1.08-.7-.31-.31-.56-.69-.75-1.14-.19-.45-.28-.97-.28-1.56s.1-1.11.29-1.56c.2-.45.46-.83.78-1.13s.69-.53,1.1-.69c.41-.16.83-.24,1.26-.24.38,0,.73.05,1.06.15s.63.24.89.43c.26.18.49.4.69.66.19.26.34.54.44.86l-.87.37c-.16-.5-.43-.89-.81-1.17-.39-.28-.85-.42-1.39-.42-.31,0-.62.06-.91.17-.29.11-.55.28-.78.51-.23.23-.41.51-.55.86-.14.34-.21.74-.21,1.2s.07.87.2,1.21.31.63.54.86c.23.23.48.4.77.51s.59.17.91.17c.39,0,.71-.06.98-.18.27-.12.49-.27.66-.46.17-.18.29-.38.37-.59.08-.21.12-.41.14-.58h-2.41v-.86h3.32v3.4h-.77Z"/>
    <path class="cls-6" d="M501.96,72.06c-.07.21-.16.4-.29.58-.13.18-.28.34-.46.47s-.38.24-.61.32c-.23.08-.48.12-.75.12-.31,0-.61-.06-.9-.17-.29-.11-.54-.27-.76-.49s-.39-.48-.52-.79c-.13-.31-.19-.67-.19-1.07,0-.37.06-.71.19-1.01s.29-.57.5-.78.45-.39.72-.51.56-.18.85-.18c.36,0,.68.06.97.18s.52.29.71.5c.19.22.33.48.44.78.1.3.15.64.15,1,0,.06,0,.11,0,.17,0,.05,0,.09-.01.13h-3.55c0,.21.05.4.12.58.07.18.17.33.3.46s.28.23.45.29c.17.07.36.1.55.1.38,0,.68-.09.88-.27.2-.18.35-.41.44-.68l.79.27ZM501.02,70.56c-.01-.34-.13-.63-.34-.86-.22-.23-.53-.35-.95-.35-.2,0-.37.03-.52.1-.15.07-.28.16-.39.27-.11.11-.19.24-.26.39s-.1.29-.11.44h2.58Z"/>
    <path class="cls-6" d="M505.26,73.4h-.93l-1.91-4.71h1.04l1.34,3.64,1.35-3.64h.99l-1.88,4.71Z"/>
    <path class="cls-6" d="M512.06,72.06c-.07.21-.16.4-.29.58-.13.18-.28.34-.46.47s-.38.24-.61.32c-.23.08-.48.12-.75.12-.31,0-.61-.06-.9-.17-.29-.11-.54-.27-.76-.49s-.39-.48-.52-.79c-.13-.31-.19-.67-.19-1.07,0-.37.06-.71.19-1.01s.29-.57.5-.78.45-.39.72-.51.56-.18.85-.18c.36,0,.68.06.97.18s.52.29.71.5c.19.22.33.48.44.78.1.3.15.64.15,1,0,.06,0,.11,0,.17,0,.05,0,.09-.01.13h-3.55c0,.21.05.4.12.58.07.18.17.33.3.46s.28.23.45.29c.17.07.36.1.55.1.38,0,.68-.09.88-.27.2-.18.35-.41.44-.68l.79.27ZM511.13,70.56c-.01-.34-.13-.63-.34-.86-.22-.23-.53-.35-.95-.35-.2,0-.37.03-.52.1-.15.07-.28.16-.39.27-.11.11-.19.24-.26.39s-.1.29-.11.44h2.58Z"/>
    <path class="cls-6" d="M514.22,73.4h-.92v-4.71h.9v.68c.17-.29.39-.5.65-.63s.53-.19.8-.19.53.05.74.14c.21.09.39.23.53.39.14.17.25.36.31.59.07.23.1.47.1.74v2.99h-.92v-2.83c0-.16-.02-.32-.05-.46-.04-.14-.1-.27-.19-.38-.09-.11-.2-.19-.34-.25-.14-.06-.31-.09-.51-.09-.18,0-.34.03-.48.1-.14.07-.25.16-.34.28-.09.12-.16.25-.21.41-.05.16-.07.32-.07.5v2.73Z"/>
    <path class="cls-6" d="M520.04,68.69h1.02v.83h-1.02v2.45c0,.22.05.38.15.49.1.11.27.16.51.16.06,0,.12,0,.2,0,.07,0,.13-.02.17-.03v.78s-.11.03-.23.05c-.11.02-.25.03-.4.03-.41,0-.73-.12-.96-.35-.24-.23-.35-.56-.35-1v-2.59h-.9v-.83h.25c.25,0,.44-.07.55-.21.11-.14.17-.31.17-.52v-.76h.84v1.49Z"/>
    <path class="cls-6" d="M524.37,69.21s0-.09,0-.13v-.12c0-.27.05-.54.15-.78.1-.25.24-.47.43-.66s.42-.34.69-.45c.28-.11.58-.17.93-.17s.64.05.91.16c.27.1.49.25.68.42s.32.38.42.62c.09.24.14.49.14.75,0,.42-.11.79-.32,1.12s-.51.61-.87.84l-1.25.8c-.18.12-.35.25-.49.39-.14.14-.24.31-.28.5h3.26v.89h-4.45c0-.26.04-.51.09-.74.05-.23.14-.45.26-.66.12-.21.28-.41.46-.59s.42-.37.69-.54l1.06-.69c.3-.19.52-.39.66-.62.14-.22.21-.46.21-.71,0-.14-.03-.28-.07-.42s-.12-.25-.22-.36c-.1-.1-.22-.19-.37-.25-.15-.06-.33-.09-.53-.09s-.39.03-.54.1c-.15.07-.28.16-.38.28-.1.12-.18.25-.22.41-.05.16-.07.33-.07.51,0,.05,0,.09,0,.14,0,.04,0,.09.01.15l-.96-.12Z"/>
  </g>
  <g>
    <path class="cls-6" d="M374.18,139.33c-.45,0-.88-.08-1.3-.24s-.78-.39-1.1-.7c-.32-.31-.57-.69-.76-1.14-.19-.45-.29-.97-.29-1.55s.1-1.1.29-1.54c.2-.45.46-.82.78-1.13.32-.31.69-.54,1.11-.7s.84-.24,1.27-.24c.4,0,.76.05,1.1.16s.63.25.89.44c.26.19.48.42.66.7s.32.58.41.91l-.89.31c-.13-.53-.38-.93-.75-1.22-.37-.28-.84-.42-1.42-.42-.31,0-.62.06-.92.17-.3.11-.56.29-.79.51-.23.23-.42.51-.55.86-.14.34-.21.74-.21,1.19s.07.85.21,1.19c.14.34.32.63.55.86s.5.41.79.52c.3.11.6.17.92.17.29,0,.56-.04.8-.13.24-.08.46-.2.64-.35.19-.15.34-.32.47-.53.13-.21.23-.43.3-.66l.85.31c-.09.33-.23.63-.41.9s-.4.51-.66.71c-.26.2-.56.35-.89.46-.34.11-.7.17-1.1.17Z"/>
    <path class="cls-6" d="M378.59,139.18v-6.95h.98v6.95h-.98Z"/>
    <path class="cls-6" d="M384.98,134.11c-.02-.12-.06-.26-.13-.4-.07-.14-.16-.27-.27-.39-.12-.12-.26-.21-.44-.29s-.39-.11-.63-.11c-.2,0-.38.03-.54.09-.16.06-.31.14-.43.25-.12.1-.21.23-.28.37-.07.14-.1.29-.1.46,0,.25.08.46.23.64s.37.3.67.37l1.04.23c.58.13,1.03.37,1.34.71s.47.75.47,1.24c0,.27-.06.53-.17.77-.11.25-.27.47-.48.66s-.46.34-.75.46-.63.17-1,.17c-.42,0-.78-.06-1.09-.19s-.57-.28-.78-.48c-.21-.2-.38-.42-.5-.66-.12-.25-.19-.49-.23-.74l.92-.29c.02.2.07.38.14.56.07.18.18.34.32.48.14.14.31.25.51.33.2.08.43.12.69.12.48,0,.83-.11,1.07-.32.24-.22.36-.48.36-.78,0-.25-.08-.47-.25-.67s-.43-.33-.78-.41l-.99-.22c-.5-.11-.9-.33-1.22-.64s-.47-.74-.47-1.26c0-.27.06-.54.18-.78.12-.25.28-.47.49-.66s.45-.34.73-.46.58-.17.9-.17c.39,0,.73.05,1,.16.28.11.51.25.7.42s.33.36.44.56c.1.2.18.4.21.59l-.86.3Z"/>
    <path class="cls-6" d="M389.76,134.47h1.41l.35-1.64h.82l-.35,1.64h1.39l.35-1.64h.82l-.35,1.64h1.32v.74h-1.48l-.33,1.57h1.33v.74h-1.5l-.35,1.66h-.82l.35-1.66h-1.39l-.35,1.66h-.82l.35-1.66h-1.24v-.74h1.4l.33-1.57h-1.25v-.74ZM391.5,136.78h1.39l.33-1.57h-1.39l-.33,1.57Z"/>
    <path class="cls-6" d="M397.97,139.18v-4.48h-1.54v-.68c.44-.01.81-.13,1.1-.35.29-.22.47-.5.54-.85h.84v6.35h-.94Z"/>
    <path class="cls-6" d="M406.99,137.84c-.07.21-.16.4-.29.58-.13.18-.28.34-.46.47s-.38.24-.61.32c-.23.08-.48.12-.75.12-.31,0-.61-.06-.9-.17-.29-.11-.54-.27-.76-.49s-.39-.48-.52-.79c-.13-.31-.19-.67-.19-1.07,0-.37.06-.71.19-1.01s.29-.57.5-.78.45-.39.72-.51.56-.18.85-.18c.36,0,.68.06.97.18s.52.29.71.5c.19.22.33.48.44.78.1.3.15.64.15,1,0,.06,0,.11,0,.17,0,.05,0,.09-.01.13h-3.55c0,.21.05.4.12.58.07.18.17.33.3.46s.28.23.45.29c.17.07.36.1.55.1.38,0,.68-.09.88-.27.2-.18.35-.41.44-.68l.79.27ZM406.06,136.34c-.01-.34-.13-.63-.34-.86-.22-.23-.53-.35-.95-.35-.2,0-.37.03-.52.1-.15.07-.28.16-.39.27-.11.11-.19.24-.26.39s-.1.29-.11.44h2.58Z"/>
    <path class="cls-6" d="M410.3,139.18h-.93l-1.91-4.71h1.04l1.34,3.64,1.35-3.64h.99l-1.88,4.71Z"/>
    <path class="cls-6" d="M417.1,137.84c-.07.21-.16.4-.29.58-.13.18-.28.34-.46.47s-.38.24-.61.32c-.23.08-.48.12-.75.12-.31,0-.61-.06-.9-.17-.29-.11-.54-.27-.76-.49s-.39-.48-.52-.79c-.13-.31-.19-.67-.19-1.07,0-.37.06-.71.19-1.01s.29-.57.5-.78.45-.39.72-.51.56-.18.85-.18c.36,0,.68.06.97.18s.52.29.71.5c.19.22.33.48.44.78.1.3.15.64.15,1,0,.06,0,.11,0,.17,0,.05,0,.09-.01.13h-3.55c0,.21.05.4.12.58.07.18.17.33.3.46s.28.23.45.29c.17.07.36.1.55.1.38,0,.68-.09.88-.27.2-.18.35-.41.44-.68l.79.27ZM416.17,136.34c-.01-.34-.13-.63-.34-.86-.22-.23-.53-.35-.95-.35-.2,0-.37.03-.52.1-.15.07-.28.16-.39.27-.11.11-.19.24-.26.39s-.1.29-.11.44h2.58Z"/>
    <path class="cls-6" d="M419.25,139.18h-.92v-4.71h.9v.68c.17-.29.39-.5.65-.63s.53-.19.8-.19.53.05.74.14c.21.09.39.23.53.39.14.17.25.36.31.59.07.23.1.47.1.74v2.99h-.92v-2.83c0-.16-.02-.32-.05-.46-.04-.14-.1-.27-.19-.38-.09-.11-.2-.19-.34-.25-.14-.06-.31-.09-.51-.09-.18,0-.34.03-.48.1-.14.07-.25.16-.34.28-.09.12-.16.25-.21.41-.05.16-.07.32-.07.5v2.73Z"/>
    <path class="cls-6" d="M425.07,134.47h1.02v.83h-1.02v2.45c0,.22.05.38.15.49.1.11.27.16.51.16.06,0,.12,0,.2,0,.07,0,.13-.02.17-.03v.78s-.11.03-.23.05c-.11.02-.25.03-.4.03-.41,0-.73-.12-.96-.35-.24-.23-.35-.56-.35-1v-2.59h-.9v-.83h.25c.25,0,.44-.07.55-.21.11-.14.17-.31.17-.52v-.76h.84v1.49Z"/>
  </g>
  <g>
    <path class="cls-6" d="M480.17,256.61c-.45,0-.88-.08-1.3-.24s-.78-.39-1.1-.7c-.32-.31-.57-.69-.76-1.14-.19-.45-.29-.97-.29-1.55s.1-1.1.29-1.54c.2-.45.46-.82.78-1.13.32-.31.69-.54,1.11-.7s.84-.24,1.27-.24c.4,0,.76.05,1.1.16.33.11.63.25.89.44.26.19.48.42.66.7.18.28.32.58.41.91l-.89.31c-.13-.53-.38-.94-.75-1.22-.37-.28-.84-.42-1.42-.42-.31,0-.62.06-.92.17-.3.11-.56.29-.79.51-.23.23-.42.51-.55.86-.14.34-.21.74-.21,1.19s.07.85.21,1.19c.14.34.32.63.55.86s.5.41.79.52c.3.12.6.17.92.17.29,0,.56-.04.8-.13.24-.08.46-.2.64-.35.19-.15.34-.32.47-.53.13-.21.23-.43.3-.66l.85.31c-.09.33-.23.63-.41.9-.18.28-.4.51-.66.71-.26.2-.56.35-.89.46-.34.11-.7.17-1.1.17Z"/>
    <path class="cls-6" d="M484.58,256.46v-6.95h.98v6.95h-.98Z"/>
    <path class="cls-6" d="M490.97,251.39c-.02-.12-.06-.26-.13-.4-.07-.14-.16-.27-.27-.39-.12-.12-.26-.21-.44-.29-.18-.07-.39-.11-.63-.11-.2,0-.38.03-.54.09-.16.06-.31.14-.43.24-.12.11-.21.23-.28.37-.07.14-.1.29-.1.46,0,.25.08.46.23.64s.37.3.67.37l1.04.22c.58.13,1.03.37,1.34.71s.47.75.47,1.25c0,.27-.06.53-.17.77-.11.25-.27.47-.48.66-.21.19-.46.34-.75.46s-.63.17-1,.17c-.42,0-.78-.06-1.09-.19s-.57-.28-.78-.48c-.21-.2-.38-.42-.5-.66-.12-.25-.19-.49-.23-.74l.92-.29c.02.2.07.38.14.56.07.18.18.34.32.47.14.14.31.25.51.33.2.08.43.12.69.12.48,0,.83-.11,1.07-.32.24-.22.36-.48.36-.78,0-.25-.08-.47-.25-.67s-.43-.33-.78-.41l-.99-.22c-.5-.11-.9-.33-1.22-.64-.32-.32-.47-.74-.47-1.26,0-.28.06-.54.18-.79.12-.25.28-.47.49-.66s.45-.34.73-.46c.28-.12.58-.17.9-.17.39,0,.73.05,1,.16.28.11.51.25.7.42s.33.36.44.56c.1.2.18.4.21.59l-.86.3Z"/>
    <path class="cls-6" d="M495.75,251.75h1.41l.35-1.64h.82l-.35,1.64h1.39l.35-1.64h.82l-.35,1.64h1.32v.75h-1.48l-.33,1.57h1.33v.74h-1.5l-.35,1.66h-.82l.35-1.66h-1.39l-.35,1.66h-.82l.35-1.66h-1.24v-.74h1.4l.33-1.57h-1.25v-.75ZM497.49,254.06h1.39l.33-1.57h-1.39l-.33,1.57Z"/>
    <path class="cls-6" d="M502.52,252.27s0-.09,0-.13v-.12c0-.27.05-.54.15-.78.1-.25.24-.47.43-.66s.42-.34.69-.45c.28-.11.58-.17.93-.17s.64.05.91.16c.27.11.49.25.68.42.18.18.32.38.42.62s.14.49.14.75c0,.42-.11.79-.32,1.12s-.51.61-.87.84l-1.25.8c-.18.12-.35.25-.49.39-.14.14-.24.31-.28.51h3.26v.89h-4.45c0-.26.04-.51.09-.74.05-.23.14-.45.26-.66.12-.21.28-.41.46-.59.19-.19.42-.37.69-.54l1.06-.69c.3-.19.52-.39.66-.62.14-.22.21-.46.21-.71,0-.14-.03-.28-.07-.42s-.12-.25-.22-.36c-.1-.1-.22-.19-.37-.25-.15-.06-.33-.09-.53-.09s-.39.03-.54.1c-.15.07-.28.16-.38.28-.1.12-.18.26-.22.41-.05.16-.07.33-.07.51,0,.05,0,.09,0,.14,0,.05,0,.09.01.15l-.96-.12Z"/>
    <path class="cls-6" d="M514.62,255.12c-.07.21-.16.4-.29.58-.13.18-.28.34-.46.47s-.38.24-.61.32c-.23.08-.48.12-.75.12-.31,0-.61-.06-.9-.17-.29-.11-.54-.27-.76-.49s-.39-.48-.52-.79c-.13-.31-.19-.67-.19-1.07,0-.37.06-.71.19-1.01s.29-.57.5-.78.45-.39.72-.51.56-.18.85-.18c.36,0,.68.06.97.18s.52.29.71.5c.19.22.33.48.44.78.1.3.15.64.15,1,0,.06,0,.11,0,.17,0,.05,0,.1-.01.13h-3.55c0,.21.05.4.12.58.07.18.17.33.3.46.13.13.28.23.45.29.17.07.36.1.55.1.38,0,.68-.09.88-.27.2-.18.35-.41.44-.68l.79.27ZM513.69,253.62c-.01-.34-.13-.62-.34-.86s-.53-.35-.95-.35c-.2,0-.37.03-.52.1-.15.07-.28.16-.39.27-.11.11-.19.24-.26.39-.07.14-.1.29-.11.44h2.58Z"/>
    <path class="cls-6" d="M517.93,256.46h-.93l-1.91-4.71h1.04l1.34,3.64,1.35-3.64h.99l-1.88,4.71Z"/>
    <path class="cls-6" d="M524.73,255.12c-.07.21-.16.4-.29.58-.13.18-.28.34-.46.47s-.38.24-.61.32c-.23.08-.48.12-.75.12-.31,0-.61-.06-.9-.17-.29-.11-.54-.27-.76-.49s-.39-.48-.52-.79c-.13-.31-.19-.67-.19-1.07,0-.37.06-.71.19-1.01s.29-.57.5-.78.45-.39.72-.51.56-.18.85-.18c.36,0,.68.06.97.18s.52.29.71.5c.19.22.33.48.44.78.1.3.15.64.15,1,0,.06,0,.11,0,.17,0,.05,0,.1-.01.13h-3.55c0,.21.05.4.12.58.07.18.17.33.3.46.13.13.28.23.45.29.17.07.36.1.55.1.38,0,.68-.09.88-.27.2-.18.35-.41.44-.68l.79.27ZM523.8,253.62c-.01-.34-.13-.62-.34-.86s-.53-.35-.95-.35c-.2,0-.37.03-.52.1-.15.07-.28.16-.39.27-.11.11-.19.24-.26.39-.07.14-.1.29-.11.44h2.58Z"/>
    <path class="cls-6" d="M526.89,256.46h-.92v-4.71h.9v.68c.17-.29.39-.5.65-.63s.53-.19.8-.19.53.05.74.14c.21.09.39.23.53.39.14.17.25.36.31.59.07.23.1.47.1.74v2.99h-.92v-2.83c0-.16-.02-.32-.05-.46-.04-.14-.1-.27-.19-.38s-.2-.19-.34-.25-.31-.09-.51-.09c-.18,0-.34.03-.48.1-.14.07-.25.16-.34.28-.09.12-.16.25-.21.41-.05.16-.07.32-.07.5v2.73Z"/>
    <path class="cls-6" d="M532.71,251.75h1.02v.83h-1.02v2.45c0,.21.05.38.15.48.1.11.27.16.51.16.06,0,.12,0,.2,0s.13-.02.17-.03v.78s-.11.03-.23.05-.25.03-.4.03c-.41,0-.73-.12-.96-.35-.24-.23-.35-.56-.35-1v-2.59h-.9v-.83h.25c.25,0,.44-.07.55-.21s.17-.31.17-.52v-.76h.84v1.49Z"/>
  </g>
  <path class="cls-6" d="M350.76,155.76v6.06h-.96v-6.06h-2.32v-.89h5.61v.89h-2.32Z"/>
  <path class="cls-6" d="M388.87,155.76v6.06h-.96v-6.06h-2.32v-.89h5.61v.89h-2.32Z"/>
  <g>
    <rect class="cls-5" x="398.29" y="151.49" width="14.54" height="14.54"/>
    <path class="cls-6" d="M405.42,158.97h-1.04v2.84h-.97v-6.95h2.62c.33,0,.62.05.89.16s.49.25.67.44c.18.19.32.4.42.66s.15.52.15.81c0,.5-.15.93-.45,1.29-.3.36-.71.58-1.24.68l1.66,2.91h-1.12l-1.59-2.84ZM405.86,158.11c.39,0,.71-.11.95-.32.24-.21.36-.5.36-.86s-.12-.67-.36-.88c-.24-.22-.56-.32-.95-.32h-1.47v2.38h1.47Z"/>
  </g>
  <g>
    <rect class="cls-5" x="362.06" y="151.49" width="14.54" height="14.54"/>
    <path class="cls-6" d="M369.19,158.97h-1.04v2.84h-.97v-6.95h2.62c.33,0,.62.05.89.16s.49.25.67.44c.18.19.32.4.42.66s.15.52.15.81c0,.5-.15.93-.45,1.29-.3.36-.71.58-1.24.68l1.66,2.91h-1.12l-1.59-2.84ZM369.62,158.11c.39,0,.71-.11.95-.32.24-.21.36-.5.36-.86s-.12-.67-.36-.88c-.24-.22-.56-.32-.95-.32h-1.47v2.38h1.47Z"/>
  </g>
  <path class="cls-6" d="M459.57,273.48v6.06h-.96v-6.06h-2.32v-.89h5.61v.89h-2.32Z"/>
  <path class="cls-6" d="M477.01,276.7h-1.04v2.84h-.97v-6.95h2.62c.33,0,.62.05.89.16.26.11.49.25.67.44.18.19.32.41.42.66.1.25.15.52.15.81,0,.5-.15.93-.45,1.29-.3.36-.71.58-1.24.68l1.66,2.91h-1.12l-1.59-2.84ZM477.44,275.84c.39,0,.71-.11.95-.32.24-.21.36-.5.36-.86s-.12-.67-.36-.88c-.24-.22-.56-.32-.95-.32h-1.47v2.38h1.47Z"/>
  <rect class="cls-8" x="559.94" y="322.9" width="106.81" height="14.54"/>
  <rect class="cls-8" x="559.94" y="345.53" width="14.54" height="14.54"/>
  <rect class="cls-1" x="578" y="345.53" width="14.54" height="14.54"/>
  <g>
    <path class="cls-6" d="M588.26,333.37c-.45,0-.88-.08-1.3-.24s-.78-.39-1.1-.7c-.32-.31-.57-.69-.76-1.14-.19-.45-.29-.97-.29-1.55s.1-1.1.29-1.54c.2-.45.46-.83.78-1.13s.69-.54,1.11-.7.84-.24,1.27-.24c.4,0,.76.05,1.1.16s.63.25.89.44c.26.19.48.42.66.7s.32.58.41.91l-.89.31c-.13-.53-.38-.93-.75-1.22-.37-.28-.84-.42-1.42-.42-.31,0-.62.06-.92.17-.3.11-.56.29-.79.51-.23.23-.42.51-.55.86-.14.34-.21.74-.21,1.19s.07.85.21,1.19c.14.34.32.63.55.86.23.23.5.41.79.52.3.11.6.17.92.17.29,0,.56-.04.8-.13.24-.08.46-.2.64-.35.19-.15.34-.32.47-.53.13-.21.23-.43.3-.66l.85.31c-.09.33-.23.63-.41.9s-.4.51-.66.71c-.26.2-.56.35-.89.46-.34.11-.7.17-1.1.17Z"/>
    <path class="cls-6" d="M592.67,333.22v-6.95h.98v6.95h-.98Z"/>
    <path class="cls-6" d="M599.06,328.15c-.02-.12-.06-.26-.13-.4-.07-.14-.16-.27-.27-.39-.12-.12-.26-.21-.44-.29s-.39-.11-.63-.11c-.2,0-.38.03-.54.09-.16.06-.31.14-.43.24-.12.11-.21.23-.28.37-.07.14-.1.29-.1.46,0,.25.08.46.23.64s.37.3.67.37l1.04.22c.58.13,1.03.37,1.34.71s.47.75.47,1.24c0,.27-.06.53-.17.77-.11.25-.27.47-.48.66s-.46.34-.75.46c-.29.12-.63.17-1,.17-.42,0-.78-.06-1.09-.19-.31-.12-.57-.29-.78-.48-.21-.2-.38-.42-.5-.66-.12-.25-.19-.49-.23-.74l.92-.29c.02.2.07.38.14.56.07.18.18.34.32.48s.31.25.51.33c.2.08.43.12.69.12.48,0,.83-.11,1.07-.32.24-.22.36-.48.36-.79,0-.25-.08-.47-.25-.67s-.43-.33-.78-.41l-.99-.21c-.5-.11-.9-.33-1.22-.64-.32-.32-.47-.74-.47-1.26,0-.27.06-.54.18-.78.12-.25.28-.47.49-.66.21-.19.45-.34.73-.46s.58-.17.9-.17c.39,0,.73.05,1,.16.28.11.51.25.7.42s.33.36.44.56c.1.2.18.4.21.59l-.86.3Z"/>
    <path class="cls-6" d="M603.84,328.51h1.41l.35-1.64h.82l-.35,1.64h1.39l.35-1.64h.82l-.35,1.64h1.32v.74h-1.48l-.33,1.57h1.33v.75h-1.5l-.35,1.66h-.82l.35-1.66h-1.39l-.35,1.66h-.82l.35-1.66h-1.24v-.75h1.4l.33-1.57h-1.25v-.74ZM605.59,330.82h1.39l.33-1.57h-1.39l-.33,1.57Z"/>
    <path class="cls-6" d="M611.74,329.48l1.87-1.73h-3.04v-.88h4.31v.86l-1.81,1.68c.24,0,.47.04.7.12.23.08.44.2.63.36s.34.36.46.6c.12.24.18.53.18.85,0,.27-.05.53-.15.77-.1.25-.25.46-.45.65s-.44.34-.72.45c-.28.11-.61.17-.99.17s-.69-.06-.98-.17c-.29-.11-.53-.26-.73-.45-.2-.19-.35-.4-.47-.64s-.17-.49-.19-.75l.94-.21c0,.21.05.4.13.57.08.17.18.31.31.43.13.12.27.21.44.27.17.07.34.1.53.1.22,0,.41-.03.58-.09.17-.06.31-.15.42-.26.11-.11.2-.23.25-.38.06-.14.09-.29.09-.45,0-.21-.04-.39-.11-.54s-.17-.27-.3-.37-.26-.17-.42-.21c-.15-.04-.31-.07-.46-.07-.19,0-.38.03-.56.1l-.47-.79Z"/>
    <path class="cls-6" d="M622.77,331.88c-.07.21-.16.4-.29.58-.13.18-.28.34-.46.47-.18.13-.38.24-.61.32-.23.08-.48.12-.75.12-.31,0-.61-.06-.9-.17-.29-.11-.54-.28-.76-.49-.22-.22-.39-.48-.52-.79-.13-.31-.19-.67-.19-1.07,0-.37.06-.71.19-1.01.12-.3.29-.57.5-.79s.45-.39.72-.51c.27-.12.56-.18.85-.18.36,0,.68.06.97.18.28.12.52.29.71.51.19.21.33.47.44.78.1.3.15.64.15,1,0,.06,0,.12,0,.17,0,.05,0,.09-.01.13h-3.55c0,.21.05.4.12.58.07.18.17.33.3.46.13.13.28.23.45.29.17.07.36.1.55.1.38,0,.68-.09.88-.27s.35-.41.44-.68l.79.27ZM621.84,330.38c-.01-.34-.13-.62-.34-.86-.22-.23-.53-.35-.95-.35-.2,0-.37.03-.52.1-.15.07-.28.16-.39.27-.11.12-.19.24-.26.39s-.1.29-.11.44h2.58Z"/>
    <path class="cls-6" d="M626.08,333.22h-.93l-1.91-4.71h1.04l1.34,3.64,1.35-3.64h.99l-1.88,4.71Z"/>
    <path class="cls-6" d="M632.88,331.88c-.07.21-.16.4-.29.58-.13.18-.28.34-.46.47-.18.13-.38.24-.61.32-.23.08-.48.12-.75.12-.31,0-.61-.06-.9-.17-.29-.11-.54-.28-.76-.49-.22-.22-.39-.48-.52-.79-.13-.31-.19-.67-.19-1.07,0-.37.06-.71.19-1.01.12-.3.29-.57.5-.79s.45-.39.72-.51c.27-.12.56-.18.85-.18.36,0,.68.06.97.18.28.12.52.29.71.51.19.21.33.47.44.78.1.3.15.64.15,1,0,.06,0,.12,0,.17,0,.05,0,.09-.01.13h-3.55c0,.21.05.4.12.58.07.18.17.33.3.46.13.13.28.23.45.29.17.07.36.1.55.1.38,0,.68-.09.88-.27s.35-.41.44-.68l.79.27ZM631.94,330.38c-.01-.34-.13-.62-.34-.86-.22-.23-.53-.35-.95-.35-.2,0-.37.03-.52.1-.15.07-.28.16-.39.27-.11.12-.19.24-.26.39s-.1.29-.11.44h2.58Z"/>
    <path class="cls-6" d="M635.03,333.22h-.92v-4.71h.9v.68c.17-.29.39-.5.65-.63.26-.12.53-.19.8-.19s.53.05.74.14c.21.1.39.23.53.39s.25.36.31.59c.07.23.1.47.1.74v2.99h-.92v-2.83c0-.16-.02-.32-.05-.46-.04-.14-.1-.27-.19-.38-.09-.11-.2-.19-.34-.25-.14-.06-.31-.09-.51-.09-.18,0-.34.03-.48.1-.14.07-.25.16-.34.28-.09.12-.16.25-.21.41s-.07.32-.07.5v2.73Z"/>
    <path class="cls-6" d="M640.85,328.51h1.02v.83h-1.02v2.45c0,.22.05.38.15.49.1.11.27.16.51.16.06,0,.12,0,.2,0,.07,0,.13-.02.17-.03v.79s-.11.03-.23.05c-.11.02-.25.04-.4.04-.41,0-.73-.12-.96-.35-.24-.23-.35-.56-.35-1v-2.59h-.9v-.83h.25c.25,0,.44-.07.55-.21.11-.14.17-.31.17-.52v-.76h.84v1.49Z"/>
  </g>
  <path class="cls-6" d="M567.69,350.24v6.06h-.96v-6.06h-2.32v-.89h5.61v.89h-2.32Z"/>
  <path class="cls-6" d="M585.12,353.46h-1.04v2.84h-.97v-6.95h2.62c.33,0,.62.05.89.16.26.11.49.25.67.44.18.19.32.41.42.66s.15.52.15.81c0,.5-.15.93-.45,1.29-.3.36-.71.58-1.24.68l1.66,2.91h-1.12l-1.59-2.84ZM585.56,352.6c.39,0,.71-.11.95-.32.24-.21.36-.5.36-.86s-.12-.67-.36-.88c-.24-.22-.56-.32-.95-.32h-1.47v2.38h1.47Z"/>
</svg>