<?xml version="1.0" encoding="UTF-8"?>
<svg id="Layer_1" data-name="Layer 1" xmlns="http://www.w3.org/2000/svg" viewBox="0 0 2325.02 729.04">
  <defs>
    <style>
      .cls-1 {
        fill: #cfcecb;
      }

      .cls-2, .cls-3, .cls-4, .cls-5, .cls-6, .cls-7, .cls-8 {
        fill: none;
      }

      .cls-2, .cls-4, .cls-6 {
        stroke: #000;
      }

      .cls-9 {
        opacity: .8;
      }

      .cls-3 {
        stroke-dasharray: 2.99 2.99 2.99 2.99;
      }

      .cls-3, .cls-4, .cls-5, .cls-7, .cls-8 {
        stroke-miterlimit: 10;
      }

      .cls-3, .cls-5, .cls-7, .cls-8 {
        stroke: #4980f7;
      }

      .cls-10 {
        fill: #4980f7;
      }

      .cls-4 {
        stroke-width: 2px;
      }

      .cls-5 {
        stroke-width: 3px;
      }

      .cls-6 {
        stroke-width: .75px;
      }

      .cls-7 {
        stroke-dasharray: 2.99 2.99 2.99 2.99 2.99 2.99;
      }
    </style>
  </defs>
  <g>
    <g>
      <g class="cls-9">
        <path class="cls-6" d="M333.28,528.33c-.4,12.06-.98,33.83-1.66,33.82-1.1,0-2.03-67.65-3.25-67.65s-2.07,67.56-3.3,67.61-2.12-67.51-3.29-67.51c-.64,0-1.34,22.65-1.64,33.45"/>
        <path class="cls-6" d="M346.43,528.33c-.4,12.06-.98,33.83-1.66,33.82-1.1,0-2.03-67.65-3.25-67.65s-2.07,67.56-3.3,67.61-2.12-67.51-3.29-67.51c-.64,0-1.34,22.65-1.64,33.45"/>
      </g>
      <g class="cls-9">
        <path class="cls-6" d="M385.89,528.33c-.4,12.06-.98,33.83-1.66,33.82-1.1,0-2.03-67.65-3.25-67.65s-2.07,67.56-3.3,67.61-2.12-67.51-3.29-67.51c-.64,0-1.34,22.65-1.64,33.45"/>
        <path class="cls-6" d="M399.04,528.33c-.4,12.06-.98,33.83-1.66,33.82-1.1,0-2.03-67.65-3.25-67.65s-2.07,67.56-3.3,67.61-2.12-67.51-3.29-67.51c-.64,0-1.34,22.65-1.64,33.45"/>
      </g>
      <g class="cls-9">
        <path class="cls-6" d="M359.58,528.33c-.4,12.06-.98,33.83-1.66,33.82-1.1,0-2.03-67.65-3.25-67.65s-2.07,67.56-3.3,67.61-2.12-67.51-3.29-67.51c-.64,0-1.34,22.65-1.64,33.45"/>
        <path class="cls-6" d="M372.74,528.33c-.4,12.06-.98,33.83-1.66,33.82-1.1,0-2.03-67.65-3.25-67.65s-2.07,67.56-3.3,67.61-2.12-67.51-3.29-67.51c-.64,0-1.34,22.65-1.64,33.45"/>
      </g>
    </g>
    <g>
      <g class="cls-9">
        <path class="cls-6" d="M412.71,528.33c-.4,12.06-.98,33.83-1.66,33.82-1.1,0-2.03-67.65-3.25-67.65s-2.07,67.56-3.3,67.61-2.12-67.51-3.29-67.51c-.64,0-1.34,22.65-1.64,33.45"/>
        <path class="cls-6" d="M425.87,528.33c-.4,12.06-.98,33.83-1.66,33.82-1.1,0-2.03-67.65-3.25-67.65s-2.07,67.56-3.3,67.61-2.12-67.51-3.29-67.51c-.64,0-1.34,22.65-1.64,33.45"/>
      </g>
      <g class="cls-9">
        <path class="cls-6" d="M465.32,528.33c-.4,12.06-.98,33.83-1.66,33.82-1.1,0-2.03-67.65-3.25-67.65s-2.07,67.56-3.3,67.61-2.12-67.51-3.29-67.51c-.64,0-1.34,22.65-1.64,33.45"/>
        <path class="cls-6" d="M478.47,528.33c-.4,12.06-.98,33.83-1.66,33.82-1.1,0-2.03-67.65-3.25-67.65s-2.07,67.56-3.3,67.61-2.12-67.51-3.29-67.51c-.64,0-1.34,22.65-1.64,33.45"/>
      </g>
      <g class="cls-9">
        <path class="cls-6" d="M439.02,528.33c-.4,12.06-.98,33.83-1.66,33.82-1.1,0-2.03-67.65-3.25-67.65s-2.07,67.56-3.3,67.61-2.12-67.51-3.29-67.51c-.64,0-1.34,22.65-1.64,33.45"/>
        <path class="cls-6" d="M452.17,528.33c-.4,12.06-.98,33.83-1.66,33.82-1.1,0-2.03-67.65-3.25-67.65s-2.07,67.56-3.3,67.61-2.12-67.51-3.29-67.51c-.64,0-1.34,22.65-1.64,33.45"/>
      </g>
    </g>
    <g>
      <g class="cls-9">
        <path class="cls-6" d="M491.62,528.33c-.4,12.06-.98,33.83-1.66,33.82-1.1,0-2.03-67.65-3.25-67.65s-2.07,67.56-3.3,67.61-2.12-67.51-3.29-67.51c-.64,0-1.34,22.65-1.64,33.45"/>
        <path class="cls-6" d="M504.77,528.33c-.4,12.06-.98,33.83-1.66,33.82-1.1,0-2.03-67.65-3.25-67.65s-2.07,67.56-3.3,67.61-2.12-67.51-3.29-67.51c-.64,0-1.34,22.65-1.64,33.45"/>
      </g>
      <g class="cls-9">
        <path class="cls-6" d="M544.23,528.33c-.4,12.06-.98,33.83-1.66,33.82-1.1,0-2.03-67.65-3.25-67.65s-2.07,67.56-3.3,67.61-2.12-67.51-3.29-67.51c-.64,0-1.34,22.65-1.64,33.45"/>
        <path class="cls-6" d="M557.38,528.33c-.4,12.06-.98,33.83-1.66,33.82-1.1,0-2.03-67.65-3.25-67.65s-2.07,67.56-3.3,67.61-2.12-67.51-3.29-67.51c-.64,0-1.34,22.65-1.64,33.45"/>
      </g>
      <g class="cls-9">
        <path class="cls-6" d="M517.93,528.33c-.4,12.06-.98,33.83-1.66,33.82-1.1,0-2.03-67.65-3.25-67.65s-2.07,67.56-3.3,67.61-2.12-67.51-3.29-67.51c-.64,0-1.34,22.65-1.64,33.45"/>
        <path class="cls-6" d="M531.08,528.33c-.4,12.06-.98,33.83-1.66,33.82-1.1,0-2.03-67.65-3.25-67.65s-2.07,67.56-3.3,67.61-2.12-67.51-3.29-67.51c-.64,0-1.34,22.65-1.64,33.45"/>
      </g>
    </g>
  </g>
  <g>
    <g class="cls-9">
      <path class="cls-2" d="M592.46,528.33c-1.08,12.06-2.61,33.83-4.44,33.82-2.94,0-5.42-67.65-8.68-67.65s-5.52,67.56-8.82,67.61-5.66-67.51-8.78-67.51c-1.7,0-3.56,22.65-4.37,33.45"/>
      <path class="cls-2" d="M627.55,528.33c-1.08,12.06-2.61,33.83-4.44,33.82-2.94,0-5.42-67.65-8.68-67.65s-5.52,67.56-8.82,67.61-5.66-67.51-8.78-67.51c-1.7,0-3.56,22.65-4.37,33.45"/>
    </g>
    <g class="cls-9">
      <path class="cls-2" d="M732.8,528.33c-1.08,12.06-2.61,33.83-4.44,33.82-2.94,0-5.42-67.65-8.68-67.65s-5.52,67.56-8.82,67.61-5.66-67.51-8.78-67.51c-1.7,0-3.56,22.65-4.37,33.45"/>
      <path class="cls-2" d="M767.88,528.33c-1.08,12.06-2.61,33.83-4.44,33.82-2.94,0-5.42-67.65-8.68-67.65s-5.52,67.56-8.82,67.61-5.66-67.51-8.78-67.51c-1.7,0-3.56,22.65-4.37,33.45"/>
    </g>
    <g class="cls-9">
      <path class="cls-2" d="M662.63,528.33c-1.08,12.06-2.61,33.83-4.44,33.82-2.94,0-5.42-67.65-8.68-67.65s-5.52,67.56-8.82,67.61-5.66-67.51-8.78-67.51c-1.7,0-3.56,22.65-4.37,33.45"/>
      <path class="cls-2" d="M697.72,528.33c-1.08,12.06-2.61,33.83-4.44,33.82-2.94,0-5.42-67.65-8.68-67.65s-5.52,67.56-8.82,67.61-5.66-67.51-8.78-67.51c-1.7,0-3.56,22.65-4.37,33.45"/>
    </g>
  </g>
  <g>
    <g class="cls-9">
      <path class="cls-6" d="M780.97,527.98c-.4,12.06-.98,33.83-1.66,33.82-1.1,0-2.03-67.65-3.25-67.65s-2.07,67.56-3.3,67.61-2.12-67.51-3.29-67.51c-.64,0-1.34,22.65-1.64,33.45"/>
      <path class="cls-6" d="M794.12,527.98c-.4,12.06-.98,33.83-1.66,33.82-1.1,0-2.03-67.65-3.25-67.65s-2.07,67.56-3.3,67.61-2.12-67.51-3.29-67.51c-.64,0-1.34,22.65-1.64,33.45"/>
    </g>
    <g class="cls-9">
      <path class="cls-6" d="M833.57,527.98c-.4,12.06-.98,33.83-1.66,33.82-1.1,0-2.03-67.65-3.25-67.65s-2.07,67.56-3.3,67.61-2.12-67.51-3.29-67.51c-.64,0-1.34,22.65-1.64,33.45"/>
      <path class="cls-6" d="M846.72,527.98c-.4,12.06-.98,33.83-1.66,33.82-1.1,0-2.03-67.65-3.25-67.65s-2.07,67.56-3.3,67.61-2.12-67.51-3.29-67.51c-.64,0-1.34,22.65-1.64,33.45"/>
    </g>
    <g class="cls-9">
      <path class="cls-6" d="M807.27,527.98c-.4,12.06-.98,33.83-1.66,33.82-1.1,0-2.03-67.65-3.25-67.65s-2.07,67.56-3.3,67.61-2.12-67.51-3.29-67.51c-.64,0-1.34,22.65-1.64,33.45"/>
      <path class="cls-6" d="M820.42,527.98c-.4,12.06-.98,33.83-1.66,33.82-1.1,0-2.03-67.65-3.25-67.65s-2.07,67.56-3.3,67.61-2.12-67.51-3.29-67.51c-.64,0-1.34,22.65-1.64,33.45"/>
    </g>
  </g>
  <g>
    <g class="cls-9">
      <path class="cls-6" d="M1000.21,527.98c-.4,12.06-.98,33.83-1.66,33.82-1.1,0-2.03-67.65-3.25-67.65s-2.07,67.56-3.3,67.61-2.12-67.51-3.29-67.51c-.64,0-1.34,22.65-1.64,33.45"/>
      <path class="cls-6" d="M1013.36,527.98c-.4,12.06-.98,33.83-1.66,33.82-1.1,0-2.03-67.65-3.25-67.65s-2.07,67.56-3.3,67.61-2.12-67.51-3.29-67.51c-.64,0-1.34,22.65-1.64,33.45"/>
    </g>
    <g class="cls-9">
      <path class="cls-6" d="M1052.81,527.98c-.4,12.06-.98,33.83-1.66,33.82-1.1,0-2.03-67.65-3.25-67.65s-2.07,67.56-3.3,67.61-2.12-67.51-3.29-67.51c-.64,0-1.34,22.65-1.64,33.45"/>
      <path class="cls-6" d="M1065.97,527.98c-.4,12.06-.98,33.83-1.66,33.82-1.1,0-2.03-67.65-3.25-67.65s-2.07,67.56-3.3,67.61-2.12-67.51-3.29-67.51c-.64,0-1.34,22.65-1.64,33.45"/>
    </g>
    <g class="cls-9">
      <path class="cls-6" d="M1079.12,527.98c-.4,12.06-.98,33.83-1.66,33.82-1.1,0-2.03-67.65-3.25-67.65s-2.07,67.56-3.3,67.61-2.12-67.51-3.29-67.51c-.64,0-1.34,22.65-1.64,33.45"/>
      <path class="cls-6" d="M1092.27,527.98c-.4,12.06-.98,33.83-1.66,33.82-1.1,0-2.03-67.65-3.25-67.65s-2.07,67.56-3.3,67.61-2.12-67.51-3.29-67.51c-.64,0-1.34,22.65-1.64,33.45"/>
    </g>
    <g class="cls-9">
      <path class="cls-6" d="M1026.51,527.98c-.4,12.06-.98,33.83-1.66,33.82-1.1,0-2.03-67.65-3.25-67.65s-2.07,67.56-3.3,67.61-2.12-67.51-3.29-67.51c-.64,0-1.34,22.65-1.64,33.45"/>
      <path class="cls-6" d="M1039.66,527.98c-.4,12.06-.98,33.83-1.66,33.82-1.1,0-2.03-67.65-3.25-67.65s-2.07,67.56-3.3,67.61-2.12-67.51-3.29-67.51c-.64,0-1.34,22.65-1.64,33.45"/>
    </g>
  </g>
  <g>
    <g class="cls-9">
      <path class="cls-2" d="M881.81,528.33c-1.08,12.06-2.61,33.83-4.44,33.82-2.94,0-5.42-67.65-8.68-67.65s-5.52,67.56-8.82,67.61-5.66-67.51-8.78-67.51c-1.7,0-3.56,22.65-4.37,33.45"/>
      <path class="cls-2" d="M916.89,528.33c-1.08,12.06-2.61,33.83-4.44,33.82-2.94,0-5.42-67.65-8.68-67.65s-5.52,67.56-8.82,67.61-5.66-67.51-8.78-67.51c-1.7,0-3.56,22.65-4.37,33.45"/>
    </g>
    <g class="cls-9">
      <path class="cls-2" d="M951.97,528.33c-1.08,12.06-2.61,33.83-4.44,33.82-2.94,0-5.42-67.65-8.68-67.65s-5.52,67.56-8.82,67.61-5.66-67.51-8.78-67.51c-1.7,0-3.56,22.65-4.37,33.45"/>
      <path class="cls-2" d="M987.06,528.33c-1.08,12.06-2.61,33.83-4.44,33.82-2.94,0-5.42-67.65-8.68-67.65s-5.52,67.56-8.82,67.61-5.66-67.51-8.78-67.51c-1.7,0-3.56,22.65-4.37,33.45"/>
    </g>
  </g>
  <g>
    <g>
      <g class="cls-9">
        <path class="cls-6" d="M1407.85,528.33c-.4,12.06-.98,33.83-1.66,33.82-1.1,0-2.03-67.65-3.25-67.65s-2.07,67.56-3.3,67.61-2.12-67.51-3.29-67.51c-.64,0-1.34,22.65-1.64,33.45"/>
        <path class="cls-6" d="M1421,528.33c-.4,12.06-.98,33.83-1.66,33.82-1.1,0-2.03-67.65-3.25-67.65s-2.07,67.56-3.3,67.61-2.12-67.51-3.29-67.51c-.64,0-1.34,22.65-1.64,33.45"/>
      </g>
      <g class="cls-9">
        <path class="cls-6" d="M1460.46,528.33c-.4,12.06-.98,33.83-1.66,33.82-1.1,0-2.03-67.65-3.25-67.65s-2.07,67.56-3.3,67.61-2.12-67.51-3.29-67.51c-.64,0-1.34,22.65-1.64,33.45"/>
        <path class="cls-6" d="M1473.61,528.33c-.4,12.06-.98,33.83-1.66,33.82-1.1,0-2.03-67.65-3.25-67.65s-2.07,67.56-3.3,67.61-2.12-67.51-3.29-67.51c-.64,0-1.34,22.65-1.64,33.45"/>
      </g>
      <g class="cls-9">
        <path class="cls-6" d="M1434.16,528.33c-.4,12.06-.98,33.83-1.66,33.82-1.1,0-2.03-67.65-3.25-67.65s-2.07,67.56-3.3,67.61-2.12-67.51-3.29-67.51c-.64,0-1.34,22.65-1.64,33.45"/>
        <path class="cls-6" d="M1447.31,528.33c-.4,12.06-.98,33.83-1.66,33.82-1.1,0-2.03-67.65-3.25-67.65s-2.07,67.56-3.3,67.61-2.12-67.51-3.29-67.51c-.64,0-1.34,22.65-1.64,33.45"/>
      </g>
    </g>
    <g>
      <g class="cls-9">
        <path class="cls-6" d="M1487.29,528.33c-.4,12.06-.98,33.83-1.66,33.82-1.1,0-2.03-67.65-3.25-67.65s-2.07,67.56-3.3,67.61-2.12-67.51-3.29-67.51c-.64,0-1.34,22.65-1.64,33.45"/>
        <path class="cls-6" d="M1500.44,528.33c-.4,12.06-.98,33.83-1.66,33.82-1.1,0-2.03-67.65-3.25-67.65s-2.07,67.56-3.3,67.61-2.12-67.51-3.29-67.51c-.64,0-1.34,22.65-1.64,33.45"/>
      </g>
      <g class="cls-9">
        <path class="cls-6" d="M1539.89,528.33c-.4,12.06-.98,33.83-1.66,33.82-1.1,0-2.03-67.65-3.25-67.65s-2.07,67.56-3.3,67.61-2.12-67.51-3.29-67.51c-.64,0-1.34,22.65-1.64,33.45"/>
        <path class="cls-6" d="M1553.04,528.33c-.4,12.06-.98,33.83-1.66,33.82-1.1,0-2.03-67.65-3.25-67.65s-2.07,67.56-3.3,67.61-2.12-67.51-3.29-67.51c-.64,0-1.34,22.65-1.64,33.45"/>
      </g>
      <g class="cls-9">
        <path class="cls-6" d="M1513.59,528.33c-.4,12.06-.98,33.83-1.66,33.82-1.1,0-2.03-67.65-3.25-67.65s-2.07,67.56-3.3,67.61-2.12-67.51-3.29-67.51c-.64,0-1.34,22.65-1.64,33.45"/>
        <path class="cls-6" d="M1526.74,528.33c-.4,12.06-.98,33.83-1.66,33.82-1.1,0-2.03-67.65-3.25-67.65s-2.07,67.56-3.3,67.61-2.12-67.51-3.29-67.51c-.64,0-1.34,22.65-1.64,33.45"/>
      </g>
    </g>
    <g>
      <g class="cls-9">
        <path class="cls-6" d="M1566.19,528.33c-.4,12.06-.98,33.83-1.66,33.82-1.1,0-2.03-67.65-3.25-67.65s-2.07,67.56-3.3,67.61-2.12-67.51-3.29-67.51c-.64,0-1.34,22.65-1.64,33.45"/>
        <path class="cls-6" d="M1579.35,528.33c-.4,12.06-.98,33.83-1.66,33.82-1.1,0-2.03-67.65-3.25-67.65s-2.07,67.56-3.3,67.61-2.12-67.51-3.29-67.51c-.64,0-1.34,22.65-1.64,33.45"/>
      </g>
      <g class="cls-9">
        <path class="cls-6" d="M1618.8,528.33c-.4,12.06-.98,33.83-1.66,33.82-1.1,0-2.03-67.65-3.25-67.65s-2.07,67.56-3.3,67.61-2.12-67.51-3.29-67.51c-.64,0-1.34,22.65-1.64,33.45"/>
        <path class="cls-6" d="M1631.95,528.33c-.4,12.06-.98,33.83-1.66,33.82-1.1,0-2.03-67.65-3.25-67.65s-2.07,67.56-3.3,67.61-2.12-67.51-3.29-67.51c-.64,0-1.34,22.65-1.64,33.45"/>
      </g>
      <g class="cls-9">
        <path class="cls-6" d="M1592.5,528.33c-.4,12.06-.98,33.83-1.66,33.82-1.1,0-2.03-67.65-3.25-67.65s-2.07,67.56-3.3,67.61-2.12-67.51-3.29-67.51c-.64,0-1.34,22.65-1.64,33.45"/>
        <path class="cls-6" d="M1605.65,528.33c-.4,12.06-.98,33.83-1.66,33.82-1.1,0-2.03-67.65-3.25-67.65s-2.07,67.56-3.3,67.61-2.12-67.51-3.29-67.51c-.64,0-1.34,22.65-1.64,33.45"/>
      </g>
    </g>
  </g>
  <g>
    <g class="cls-9">
      <path class="cls-2" d="M1667.04,528.33c-1.08,12.06-2.61,33.83-4.44,33.82-2.94,0-5.42-67.65-8.68-67.65s-5.52,67.56-8.82,67.61-5.66-67.51-8.78-67.51c-1.7,0-3.56,22.65-4.37,33.45"/>
      <path class="cls-2" d="M1702.12,528.33c-1.08,12.06-2.61,33.83-4.44,33.82-2.94,0-5.42-67.65-8.68-67.65s-5.52,67.56-8.82,67.61-5.66-67.51-8.78-67.51c-1.7,0-3.56,22.65-4.37,33.45"/>
    </g>
    <g class="cls-9">
      <path class="cls-2" d="M1807.37,528.33c-1.08,12.06-2.61,33.83-4.44,33.82-2.94,0-5.42-67.65-8.68-67.65s-5.52,67.56-8.82,67.61-5.66-67.51-8.78-67.51c-1.7,0-3.56,22.65-4.37,33.45"/>
      <path class="cls-2" d="M1842.45,528.33c-1.08,12.06-2.61,33.83-4.44,33.82-2.94,0-5.42-67.65-8.68-67.65s-5.52,67.56-8.82,67.61-5.66-67.51-8.78-67.51c-1.7,0-3.56,22.65-4.37,33.45"/>
    </g>
    <g class="cls-9">
      <path class="cls-2" d="M1737.2,528.33c-1.08,12.06-2.61,33.83-4.44,33.82-2.94,0-5.42-67.65-8.68-67.65s-5.52,67.56-8.82,67.61-5.66-67.51-8.78-67.51c-1.7,0-3.56,22.65-4.37,33.45"/>
      <path class="cls-2" d="M1772.29,528.33c-1.08,12.06-2.61,33.83-4.44,33.82-2.94,0-5.42-67.65-8.68-67.65s-5.52,67.56-8.82,67.61-5.66-67.51-8.78-67.51c-1.7,0-3.56,22.65-4.37,33.45"/>
    </g>
  </g>
  <g>
    <g class="cls-9">
      <path class="cls-6" d="M1855.54,527.98c-.4,12.06-.98,33.83-1.66,33.82-1.1,0-2.03-67.65-3.25-67.65s-2.07,67.56-3.3,67.61-2.12-67.51-3.29-67.51c-.64,0-1.34,22.65-1.64,33.45"/>
      <path class="cls-6" d="M1868.69,527.98c-.4,12.06-.98,33.83-1.66,33.82-1.1,0-2.03-67.65-3.25-67.65s-2.07,67.56-3.3,67.61-2.12-67.51-3.29-67.51c-.64,0-1.34,22.65-1.64,33.45"/>
    </g>
    <g class="cls-9">
      <path class="cls-6" d="M1908.14,527.98c-.4,12.06-.98,33.83-1.66,33.82-1.1,0-2.03-67.65-3.25-67.65s-2.07,67.56-3.3,67.61-2.12-67.51-3.29-67.51c-.64,0-1.34,22.65-1.64,33.45"/>
      <path class="cls-6" d="M1921.29,527.98c-.4,12.06-.98,33.83-1.66,33.82-1.1,0-2.03-67.65-3.25-67.65s-2.07,67.56-3.3,67.61-2.12-67.51-3.29-67.51c-.64,0-1.34,22.65-1.64,33.45"/>
    </g>
    <g class="cls-9">
      <path class="cls-6" d="M1881.84,527.98c-.4,12.06-.98,33.83-1.66,33.82-1.1,0-2.03-67.65-3.25-67.65s-2.07,67.56-3.3,67.61-2.12-67.51-3.29-67.51c-.64,0-1.34,22.65-1.64,33.45"/>
      <path class="cls-6" d="M1894.99,527.98c-.4,12.06-.98,33.83-1.66,33.82-1.1,0-2.03-67.65-3.25-67.65s-2.07,67.56-3.3,67.61-2.12-67.51-3.29-67.51c-.64,0-1.34,22.65-1.64,33.45"/>
    </g>
  </g>
  <g>
    <g class="cls-9">
      <path class="cls-6" d="M2074.78,527.98c-.4,12.06-.98,33.83-1.66,33.82-1.1,0-2.03-67.65-3.25-67.65s-2.07,67.56-3.3,67.61-2.12-67.51-3.29-67.51c-.64,0-1.34,22.65-1.64,33.45"/>
      <path class="cls-6" d="M2087.93,527.98c-.4,12.06-.98,33.83-1.66,33.82-1.1,0-2.03-67.65-3.25-67.65s-2.07,67.56-3.3,67.61-2.12-67.51-3.29-67.51c-.64,0-1.34,22.65-1.64,33.45"/>
    </g>
    <g class="cls-9">
      <path class="cls-6" d="M2127.39,527.98c-.4,12.06-.98,33.83-1.66,33.82-1.1,0-2.03-67.65-3.25-67.65s-2.07,67.56-3.3,67.61-2.12-67.51-3.29-67.51c-.64,0-1.34,22.65-1.64,33.45"/>
      <path class="cls-6" d="M2140.54,527.98c-.4,12.06-.98,33.83-1.66,33.82-1.1,0-2.03-67.65-3.25-67.65s-2.07,67.56-3.3,67.61-2.12-67.51-3.29-67.51c-.64,0-1.34,22.65-1.64,33.45"/>
    </g>
    <g class="cls-9">
      <path class="cls-6" d="M2153.69,527.98c-.4,12.06-.98,33.83-1.66,33.82-1.1,0-2.03-67.65-3.25-67.65s-2.07,67.56-3.3,67.61-2.12-67.51-3.29-67.51c-.64,0-1.34,22.65-1.64,33.45"/>
      <path class="cls-6" d="M2166.84,527.98c-.4,12.06-.98,33.83-1.66,33.82-1.1,0-2.03-67.65-3.25-67.65s-2.07,67.56-3.3,67.61-2.12-67.51-3.29-67.51c-.64,0-1.34,22.65-1.64,33.45"/>
    </g>
    <g class="cls-9">
      <path class="cls-6" d="M2101.08,527.98c-.4,12.06-.98,33.83-1.66,33.82-1.1,0-2.03-67.65-3.25-67.65s-2.07,67.56-3.3,67.61-2.12-67.51-3.29-67.51c-.64,0-1.34,22.65-1.64,33.45"/>
      <path class="cls-6" d="M2114.23,527.98c-.4,12.06-.98,33.83-1.66,33.82-1.1,0-2.03-67.65-3.25-67.65s-2.07,67.56-3.3,67.61-2.12-67.51-3.29-67.51c-.64,0-1.34,22.65-1.64,33.45"/>
    </g>
  </g>
  <g>
    <g class="cls-9">
      <path class="cls-2" d="M1956.38,528.33c-1.08,12.06-2.61,33.83-4.44,33.82-2.94,0-5.42-67.65-8.68-67.65s-5.52,67.56-8.82,67.61-5.66-67.51-8.78-67.51c-1.7,0-3.56,22.65-4.37,33.45"/>
      <path class="cls-2" d="M1991.46,528.33c-1.08,12.06-2.61,33.83-4.44,33.82-2.94,0-5.42-67.65-8.68-67.65s-5.52,67.56-8.82,67.61-5.66-67.51-8.78-67.51c-1.7,0-3.56,22.65-4.37,33.45"/>
    </g>
    <g class="cls-9">
      <path class="cls-2" d="M2026.54,528.33c-1.08,12.06-2.61,33.83-4.44,33.82-2.94,0-5.42-67.65-8.68-67.65s-5.52,67.56-8.82,67.61-5.66-67.51-8.78-67.51c-1.7,0-3.56,22.65-4.37,33.45"/>
      <path class="cls-2" d="M2061.63,528.33c-1.08,12.06-2.61,33.83-4.44,33.82-2.94,0-5.42-67.65-8.68-67.65s-5.52,67.56-8.82,67.61-5.66-67.51-8.78-67.51c-1.7,0-3.56,22.65-4.37,33.45"/>
    </g>
  </g>
  <g>
    <path d="M16.68,228.87v-1.64h14.03v1.64h-6.08v17.61h-1.83v-17.61h-6.11Z"/>
    <path d="M35.21,229.37c-.35,0-.65-.12-.9-.36-.25-.24-.37-.53-.37-.87s.12-.62.37-.87.55-.36.9-.36.65.12.9.36c.25.24.38.53.38.87s-.12.62-.38.87c-.25.24-.55.36-.9.36ZM34.32,246.48v-14.44h1.76v14.44h-1.76Z"/>
    <path d="M40.49,246.48v-14.44h1.71v2.67c.38-.99.94-1.73,1.71-2.2s1.58-.72,2.43-.72c.96,0,1.78.28,2.44.83.66.55,1.11,1.3,1.36,2.24.34-.96.92-1.71,1.74-2.25.81-.54,1.75-.81,2.8-.81,1.28,0,2.35.42,3.21,1.27.86.84,1.29,2.08,1.29,3.69v9.73h-1.76v-9.68c0-1.16-.31-2.02-.92-2.57s-1.38-.83-2.28-.83c-1.04,0-1.89.33-2.53.98s-.97,1.51-.97,2.58v9.52h-1.74v-9.83c0-1-.29-1.79-.87-2.37-.58-.58-1.33-.87-2.25-.87s-1.8.33-2.51.99c-.71.66-1.07,1.59-1.07,2.79v9.29h-1.76Z"/>
    <path d="M69.43,246.79c-1.35,0-2.52-.32-3.51-.95-.99-.63-1.75-1.51-2.29-2.63-.54-1.12-.81-2.41-.81-3.86s.26-2.75.79-3.88,1.27-2.02,2.22-2.66,2.06-.97,3.31-.97c1.05,0,2.05.26,2.98.77s1.7,1.3,2.29,2.36c.59,1.06.88,2.41.88,4.04v.76h-10.71c.03,1.65.49,2.96,1.36,3.95.87.99,2.03,1.48,3.49,1.48,1.01,0,1.83-.23,2.48-.7.65-.46,1.1-1.02,1.37-1.65l1.67.53c-.33.9-.97,1.7-1.92,2.38-.95.68-2.16,1.02-3.61,1.02ZM64.6,238.28h8.94c-.1-1.4-.53-2.56-1.29-3.48-.77-.92-1.8-1.38-3.09-1.38-.87,0-1.64.22-2.3.66s-1.19,1.03-1.59,1.76c-.4.74-.62,1.55-.67,2.44Z"/>
  </g>
  <g>
    <line class="cls-4" x1="15.29" y1="258.13" x2="2228.39" y2="258.13"/>
    <polygon points="2226.2 265.61 2239.16 258.13 2226.2 250.65 2226.2 265.61"/>
  </g>
  <g>
    <path d="M295.95,32.43v-1.7h14.55v1.7h-6.31v18.26h-1.9v-18.26h-6.34Z"/>
    <path d="M317.94,51.02c-1.3,0-2.45-.33-3.44-.98-.99-.66-1.77-1.57-2.33-2.73-.56-1.16-.84-2.5-.84-4.02s.28-2.89.84-4.05c.56-1.17,1.34-2.08,2.33-2.73s2.14-.98,3.44-.98,2.44.33,3.44.98,1.78,1.57,2.34,2.73c.56,1.17.84,2.52.84,4.05s-.28,2.86-.84,4.02-1.34,2.07-2.34,2.73c-1,.66-2.14.98-3.44.98ZM317.94,49.37c1.03,0,1.9-.28,2.61-.83.71-.55,1.25-1.29,1.63-2.21s.56-1.93.56-3.04-.19-2.14-.56-3.06-.92-1.67-1.63-2.22c-.71-.56-1.58-.84-2.6-.84s-1.88.28-2.59.84c-.71.56-1.25,1.3-1.63,2.22s-.56,1.95-.56,3.06.19,2.12.56,3.04c.37.92.91,1.66,1.63,2.21.71.55,1.58.83,2.6.83Z"/>
    <path d="M334.6,50.69h-5.89v-19.96h6.24c1.9,0,3.53.4,4.89,1.19,1.36.8,2.4,1.93,3.12,3.42.72,1.48,1.08,3.26,1.08,5.32,0,3.14-.82,5.6-2.47,7.38-1.64,1.77-3.97,2.66-6.98,2.66ZM330.61,48.99h3.89c2.54,0,4.47-.74,5.76-2.21,1.29-1.47,1.94-3.51,1.94-6.12s-.63-4.58-1.88-6.04c-1.25-1.46-3.08-2.19-5.49-2.19h-4.22v16.56Z"/>
    <path d="M346.35,55.82l5.27-14.38h1.62l5.32,14.38h-1.45l-1.55-4.28h-6.23l-1.53,4.28h-1.46ZM349.77,50.33h5.35l-1.42-3.91c-.17-.48-.36-1.03-.57-1.65-.21-.62-.44-1.36-.7-2.22-.26.86-.49,1.61-.7,2.24-.21.63-.39,1.17-.55,1.63l-1.4,3.91Z"/>
  </g>
  <g>
    <path d="M1063.35,32.43v-1.7h14.55v1.7h-6.31v18.26h-1.9v-18.26h-6.34Z"/>
    <path d="M1085.34,51.02c-1.3,0-2.45-.33-3.44-.98-.99-.66-1.77-1.57-2.33-2.73s-.84-2.5-.84-4.02.28-2.89.84-4.05c.56-1.17,1.34-2.08,2.33-2.73.99-.66,2.14-.98,3.44-.98s2.44.33,3.44.98,1.78,1.57,2.34,2.73c.56,1.17.84,2.52.84,4.05s-.28,2.86-.84,4.02-1.34,2.07-2.34,2.73c-1,.66-2.14.98-3.44.98ZM1085.34,49.37c1.03,0,1.89-.28,2.61-.83.71-.55,1.25-1.29,1.63-2.21s.56-1.93.56-3.04-.19-2.14-.56-3.06-.92-1.67-1.63-2.22c-.71-.56-1.58-.84-2.6-.84s-1.88.28-2.59.84c-.71.56-1.25,1.3-1.63,2.22s-.56,1.95-.56,3.06.19,2.12.55,3.04c.37.92.91,1.66,1.63,2.21.71.55,1.58.83,2.6.83Z"/>
    <path d="M1102.01,50.69h-5.89v-19.96h6.24c1.9,0,3.53.4,4.89,1.19,1.36.8,2.4,1.93,3.12,3.42.72,1.48,1.09,3.26,1.09,5.32,0,3.14-.82,5.6-2.47,7.38-1.64,1.77-3.97,2.66-6.98,2.66ZM1098.01,48.99h3.89c2.54,0,4.46-.74,5.76-2.21,1.29-1.47,1.94-3.51,1.94-6.12s-.63-4.58-1.88-6.04c-1.25-1.46-3.08-2.19-5.49-2.19h-4.22v16.56Z"/>
    <path d="M1115.11,55.82v-14.38h4.89c1.4,0,2.46.36,3.17,1.07.71.71,1.06,1.61,1.06,2.68,0,.9-.22,1.61-.66,2.12-.44.52-.99.86-1.64,1.02v.12c.46.03.9.19,1.34.49.44.29.8.7,1.09,1.23s.43,1.15.43,1.87c0,1.09-.37,2-1.1,2.71-.73.71-1.87,1.07-3.42,1.07h-5.16ZM1116.48,47.93h3.62c.84,0,1.52-.26,2.04-.77.51-.51.77-1.16.77-1.94s-.25-1.37-.74-1.84c-.49-.48-1.22-.71-2.2-.71h-3.49v5.27ZM1116.48,54.59h3.76c1.09,0,1.9-.24,2.43-.73.53-.49.79-1.1.79-1.84,0-.54-.13-1.03-.4-1.47s-.63-.79-1.11-1.05c-.47-.26-1.03-.39-1.66-.39h-3.82v5.48Z"/>
  </g>
  <g>
    <line class="cls-4" x1="1072.26" y1="639.15" x2="338.98" y2="639.15"/>
    <polygon points="1070.08 631.67 1083.03 639.15 1070.08 646.63 1070.08 631.67"/>
    <polygon points="341.16 631.67 328.21 639.15 341.16 646.63 341.16 631.67"/>
  </g>
  <g>
    <path d="M684.84,655.37v-1.7h14.55v1.7h-6.31v18.26h-1.9v-18.26h-6.34Z"/>
    <path d="M706.83,673.95c-1.3,0-2.45-.33-3.44-.98-.99-.66-1.77-1.57-2.33-2.73-.56-1.16-.84-2.5-.84-4.02s.28-2.89.84-4.05c.56-1.17,1.34-2.08,2.33-2.73.99-.66,2.14-.99,3.44-.99s2.44.33,3.44.99c1,.66,1.78,1.57,2.34,2.73.56,1.17.84,2.52.84,4.05s-.28,2.86-.84,4.02-1.34,2.07-2.34,2.73c-1,.66-2.14.98-3.44.98ZM706.83,672.31c1.03,0,1.9-.28,2.61-.83s1.25-1.29,1.63-2.21.56-1.93.56-3.04-.19-2.14-.56-3.06c-.38-.92-.92-1.67-1.63-2.22-.71-.56-1.58-.84-2.6-.84s-1.88.28-2.59.84c-.71.56-1.25,1.3-1.63,2.22-.38.92-.56,1.95-.56,3.06s.19,2.12.56,3.04c.37.92.91,1.66,1.63,2.21s1.58.83,2.6.83Z"/>
    <path d="M717.6,673.63v-19.96h11.62v1.7h-9.71v7.58h8.79v1.7h-8.79v8.98h-1.9Z"/>
  </g>
  <g>
    <path d="M1371.1,32.43v-1.7h14.55v1.7h-6.31v18.26h-1.9v-18.26h-6.34Z"/>
    <path d="M1393.09,51.02c-1.3,0-2.45-.33-3.44-.98-.99-.66-1.77-1.57-2.33-2.73-.56-1.16-.84-2.5-.84-4.02s.28-2.89.84-4.05c.56-1.17,1.34-2.08,2.33-2.73s2.14-.98,3.44-.98,2.44.33,3.44.98,1.78,1.57,2.34,2.73c.56,1.17.84,2.52.84,4.05s-.28,2.86-.84,4.02-1.34,2.07-2.34,2.73c-1,.66-2.14.98-3.44.98ZM1393.09,49.37c1.03,0,1.9-.28,2.61-.83.71-.55,1.25-1.29,1.63-2.21s.56-1.93.56-3.04-.19-2.14-.56-3.06-.92-1.67-1.63-2.22c-.71-.56-1.58-.84-2.6-.84s-1.88.28-2.59.84c-.71.56-1.25,1.3-1.63,2.22s-.56,1.95-.56,3.06.19,2.12.56,3.04c.37.92.91,1.66,1.63,2.21.71.55,1.58.83,2.6.83Z"/>
    <path d="M1409.75,50.69h-5.89v-19.96h6.24c1.9,0,3.53.4,4.89,1.19,1.36.8,2.4,1.93,3.12,3.42.72,1.48,1.08,3.26,1.08,5.32,0,3.14-.82,5.6-2.47,7.38-1.64,1.77-3.97,2.66-6.98,2.66ZM1405.76,48.99h3.89c2.54,0,4.47-.74,5.76-2.21,1.29-1.47,1.94-3.51,1.94-6.12s-.63-4.58-1.88-6.04c-1.25-1.46-3.08-2.19-5.49-2.19h-4.22v16.56Z"/>
    <path d="M1421.5,55.82l5.27-14.38h1.62l5.32,14.38h-1.45l-1.55-4.28h-6.23l-1.53,4.28h-1.46ZM1424.92,50.33h5.35l-1.42-3.91c-.17-.48-.36-1.03-.57-1.65-.21-.62-.44-1.36-.7-2.22-.26.86-.49,1.61-.7,2.24-.21.63-.39,1.17-.55,1.63l-1.4,3.91Z"/>
  </g>
  <g>
    <path d="M2138.5,32.43v-1.7h14.55v1.7h-6.31v18.26h-1.9v-18.26h-6.34Z"/>
    <path d="M2160.49,51.02c-1.3,0-2.45-.33-3.44-.98-.99-.66-1.77-1.57-2.33-2.73-.56-1.16-.84-2.5-.84-4.02s.28-2.89.84-4.05c.56-1.17,1.34-2.08,2.33-2.73s2.14-.98,3.44-.98,2.44.33,3.44.98,1.78,1.57,2.34,2.73c.56,1.17.84,2.52.84,4.05s-.28,2.86-.84,4.02-1.34,2.07-2.34,2.73c-1,.66-2.14.98-3.44.98ZM2160.49,49.37c1.03,0,1.9-.28,2.61-.83.71-.55,1.25-1.29,1.63-2.21s.56-1.93.56-3.04-.19-2.14-.56-3.06-.92-1.67-1.63-2.22c-.71-.56-1.58-.84-2.6-.84s-1.88.28-2.59.84c-.71.56-1.25,1.3-1.63,2.22s-.56,1.95-.56,3.06.19,2.12.56,3.04c.37.92.91,1.66,1.63,2.21.71.55,1.58.83,2.6.83Z"/>
    <path d="M2177.16,50.69h-5.89v-19.96h6.24c1.9,0,3.53.4,4.89,1.19,1.36.8,2.4,1.93,3.12,3.42.72,1.48,1.08,3.26,1.08,5.32,0,3.14-.82,5.6-2.47,7.38-1.64,1.77-3.97,2.66-6.98,2.66ZM2173.16,48.99h3.89c2.54,0,4.47-.74,5.76-2.21,1.29-1.47,1.94-3.51,1.94-6.12s-.63-4.58-1.88-6.04c-1.25-1.46-3.08-2.19-5.49-2.19h-4.22v16.56Z"/>
    <path d="M2190.26,55.82v-14.38h4.89c1.4,0,2.46.36,3.17,1.07s1.06,1.61,1.06,2.68c0,.9-.22,1.61-.66,2.12-.44.52-.99.86-1.64,1.02v.12c.46.03.9.19,1.34.49.44.29.8.7,1.09,1.23.29.52.43,1.15.43,1.87,0,1.09-.37,2-1.1,2.71s-1.87,1.07-3.42,1.07h-5.17ZM2191.63,47.93h3.62c.84,0,1.52-.26,2.04-.77s.77-1.16.77-1.94-.25-1.37-.74-1.84c-.49-.48-1.22-.71-2.2-.71h-3.49v5.27ZM2191.63,54.59h3.76c1.09,0,1.9-.24,2.43-.73.53-.49.79-1.1.79-1.84,0-.54-.13-1.03-.4-1.47s-.63-.79-1.11-1.05c-.47-.26-1.03-.39-1.67-.39h-3.82v5.48Z"/>
  </g>
  <g>
    <line class="cls-4" x1="2147.41" y1="639.15" x2="1414.13" y2="639.15"/>
    <polygon points="2145.23 631.67 2158.18 639.15 2145.23 646.63 2145.23 631.67"/>
    <polygon points="1416.31 631.67 1403.36 639.15 1416.31 646.63 1416.31 631.67"/>
  </g>
  <g>
    <path d="M1759.99,655.37v-1.7h14.55v1.7h-6.31v18.26h-1.9v-18.26h-6.34Z"/>
    <path d="M1781.98,673.95c-1.3,0-2.45-.33-3.44-.98-.99-.66-1.77-1.57-2.33-2.73-.56-1.16-.84-2.5-.84-4.02s.28-2.89.84-4.05c.56-1.17,1.34-2.08,2.33-2.73.99-.66,2.14-.99,3.44-.99s2.44.33,3.44.99c1,.66,1.78,1.57,2.34,2.73.56,1.17.84,2.52.84,4.05s-.28,2.86-.84,4.02-1.34,2.07-2.34,2.73c-1,.66-2.14.98-3.44.98ZM1781.98,672.31c1.03,0,1.9-.28,2.61-.83s1.25-1.29,1.63-2.21.56-1.93.56-3.04-.19-2.14-.56-3.06c-.38-.92-.92-1.67-1.63-2.22-.71-.56-1.58-.84-2.6-.84s-1.88.28-2.59.84c-.71.56-1.25,1.3-1.63,2.22-.38.92-.56,1.95-.56,3.06s.19,2.12.56,3.04c.37.92.91,1.66,1.63,2.21s1.58.83,2.6.83Z"/>
    <path d="M1792.75,673.63v-19.96h11.62v1.7h-9.71v7.58h8.79v1.7h-8.79v8.98h-1.9Z"/>
  </g>
  <rect class="cls-1" x="15.29" y="465.72" width="140.57" height="107.91" rx=".63" ry=".63"/>
  <rect class="cls-1" x="1092.71" y="465.72" width="140.57" height="107.91" rx=".63" ry=".63"/>
  <rect class="cls-1" x="2166.48" y="465.72" width="140.57" height="107.91" rx=".63" ry=".63"/>
  <g>
    <path class="cls-10" d="M41.51,528.33h-5.69v-19.25h6.02c1.83,0,3.41.38,4.72,1.15s2.31,1.87,3.01,3.29,1.05,3.14,1.05,5.13c0,3.03-.79,5.4-2.38,7.11-1.58,1.71-3.83,2.56-6.73,2.56ZM37.66,526.69h3.75c2.45,0,4.31-.71,5.56-2.13,1.25-1.42,1.87-3.39,1.87-5.9s-.6-4.41-1.81-5.82c-1.21-1.41-2.97-2.11-5.29-2.11h-4.07v15.97Z"/>
    <path class="cls-10" d="M60.37,528.64c-1.35,0-2.52-.32-3.51-.95s-1.75-1.51-2.29-2.63c-.54-1.12-.81-2.41-.81-3.86s.26-2.75.79-3.88c.53-1.13,1.27-2.02,2.22-2.66s2.06-.97,3.31-.97c1.05,0,2.05.26,2.98.78.94.52,1.7,1.3,2.29,2.36.59,1.06.88,2.41.88,4.04v.76h-10.71c.03,1.65.49,2.96,1.36,3.95s2.03,1.48,3.49,1.48c1.01,0,1.83-.23,2.48-.7s1.1-1.02,1.37-1.65l1.67.53c-.33.9-.97,1.7-1.92,2.38-.95.68-2.16,1.02-3.61,1.02ZM55.54,520.13h8.94c-.1-1.4-.53-2.56-1.29-3.48-.77-.92-1.8-1.38-3.09-1.38-.87,0-1.64.22-2.3.66-.66.44-1.19,1.03-1.59,1.76-.4.74-.62,1.55-.67,2.44Z"/>
    <path class="cls-10" d="M73.54,528.33l-5.52-14.44h1.91l3.33,9.08c.24.64.46,1.28.65,1.92s.38,1.28.58,1.91c.19-.63.38-1.26.57-1.91s.4-1.28.65-1.92l3.33-9.08h1.9l-5.52,14.44h-1.89Z"/>
    <path class="cls-10" d="M84.95,511.21c-.35,0-.65-.12-.9-.36s-.37-.53-.37-.87.12-.62.37-.87c.25-.24.55-.36.9-.36s.65.12.9.36c.25.24.38.53.38.87s-.12.62-.38.87c-.25.24-.55.36-.9.36ZM84.06,528.33v-14.44h1.76v14.44h-1.76Z"/>
    <path class="cls-10" d="M95.86,528.6c-1.26,0-2.36-.31-3.32-.94s-1.71-1.5-2.25-2.62-.81-2.41-.81-3.87.27-2.78.81-3.9c.54-1.12,1.29-2,2.25-2.63s2.06-.95,3.32-.95c.97,0,1.84.19,2.6.56s1.39.83,1.89,1.39c.5.56.84,1.14,1.03,1.73l-1.67.52c-.11-.36-.33-.74-.65-1.15-.32-.4-.75-.75-1.29-1.03-.54-.28-1.17-.43-1.91-.43-.98,0-1.82.26-2.5.79-.68.53-1.21,1.24-1.57,2.13-.36.89-.54,1.88-.54,2.96s.18,2.05.54,2.93.89,1.6,1.57,2.12c.68.53,1.52.79,2.5.79.75,0,1.4-.15,1.94-.44.54-.29.98-.65,1.32-1.07.34-.42.56-.81.66-1.18l1.65.52c-.18.59-.52,1.18-1.03,1.76-.5.58-1.14,1.05-1.91,1.43-.77.38-1.65.56-2.63.56Z"/>
    <path class="cls-10" d="M110.88,528.64c-1.35,0-2.52-.32-3.51-.95s-1.75-1.51-2.29-2.63c-.54-1.12-.81-2.41-.81-3.86s.26-2.75.79-3.88c.53-1.13,1.27-2.02,2.22-2.66s2.06-.97,3.31-.97c1.05,0,2.05.26,2.98.78.94.52,1.7,1.3,2.29,2.36.59,1.06.88,2.41.88,4.04v.76h-10.71c.03,1.65.49,2.96,1.36,3.95s2.03,1.48,3.49,1.48c1.01,0,1.83-.23,2.48-.7s1.1-1.02,1.37-1.65l1.67.53c-.33.9-.97,1.7-1.92,2.38-.95.68-2.16,1.02-3.61,1.02ZM106.05,520.13h8.94c-.1-1.4-.53-2.56-1.29-3.48-.77-.92-1.8-1.38-3.09-1.38-.87,0-1.64.22-2.3.66-.66.44-1.19,1.03-1.59,1.76-.4.74-.62,1.55-.67,2.44Z"/>
    <path class="cls-10" d="M126.33,528.33l7.05-19.25h2.17l7.12,19.25h-1.94l-2.08-5.72h-8.33l-2.04,5.72h-1.95ZM130.9,520.98h7.16l-1.9-5.23c-.23-.64-.49-1.37-.76-2.21-.28-.83-.59-1.83-.94-2.97-.34,1.15-.66,2.15-.94,3-.28.84-.53,1.57-.74,2.18l-1.87,5.23Z"/>
  </g>
  <g>
    <path d="M1115.81,528.33h-5.68v-19.25h6.02c1.83,0,3.41.38,4.72,1.15s2.31,1.87,3.01,3.29c.7,1.43,1.05,3.14,1.05,5.13,0,3.03-.79,5.4-2.38,7.11s-3.83,2.56-6.73,2.56ZM1111.96,526.69h3.75c2.46,0,4.31-.71,5.56-2.13s1.87-3.39,1.87-5.9-.61-4.41-1.82-5.82-2.97-2.11-5.29-2.11h-4.07v15.97Z"/>
    <path d="M1134.68,528.64c-1.35,0-2.52-.32-3.51-.95s-1.75-1.51-2.29-2.63-.81-2.41-.81-3.86.26-2.75.79-3.88c.53-1.13,1.27-2.02,2.22-2.66s2.06-.97,3.31-.97c1.05,0,2.04.26,2.98.78.94.52,1.7,1.3,2.29,2.36.59,1.06.88,2.41.88,4.04v.76h-10.71c.04,1.65.49,2.96,1.36,3.95.87.99,2.03,1.48,3.49,1.48,1.01,0,1.83-.23,2.48-.7.65-.46,1.1-1.02,1.37-1.65l1.67.53c-.33.9-.97,1.7-1.92,2.38-.95.68-2.16,1.02-3.61,1.02ZM1129.84,520.13h8.94c-.09-1.4-.53-2.56-1.29-3.48-.77-.92-1.8-1.38-3.09-1.38-.87,0-1.64.22-2.3.66-.66.44-1.19,1.03-1.59,1.76-.4.74-.62,1.55-.67,2.44Z"/>
    <path d="M1147.84,528.33l-5.52-14.44h1.91l3.33,9.08c.24.64.46,1.28.65,1.92.19.64.38,1.28.58,1.91.19-.63.38-1.26.57-1.91s.4-1.28.65-1.92l3.33-9.08h1.9l-5.52,14.44h-1.89Z"/>
    <path d="M1159.25,511.21c-.35,0-.65-.12-.9-.36s-.38-.53-.38-.87.12-.62.38-.87c.25-.24.55-.36.9-.36s.65.12.9.36c.25.24.38.53.38.87s-.12.62-.38.87-.55.36-.9.36ZM1158.36,528.33v-14.44h1.76v14.44h-1.76Z"/>
    <path d="M1170.17,528.6c-1.26,0-2.36-.31-3.32-.94s-1.71-1.5-2.25-2.62c-.54-1.12-.81-2.41-.81-3.87s.27-2.78.81-3.9c.54-1.12,1.29-2,2.25-2.63s2.06-.95,3.32-.95c.97,0,1.84.19,2.6.56.76.37,1.39.83,1.89,1.39.5.56.84,1.14,1.03,1.73l-1.67.52c-.11-.36-.33-.74-.65-1.15-.32-.4-.75-.75-1.29-1.03-.54-.28-1.17-.43-1.91-.43-.98,0-1.81.26-2.5.79-.68.53-1.21,1.24-1.57,2.13-.36.89-.54,1.88-.54,2.96s.18,2.05.54,2.93.88,1.6,1.57,2.12c.69.53,1.52.79,2.5.79.75,0,1.4-.15,1.94-.44s.98-.65,1.32-1.07c.34-.42.56-.81.66-1.18l1.65.52c-.18.59-.52,1.18-1.03,1.76-.5.58-1.14,1.05-1.91,1.43-.77.38-1.65.56-2.63.56Z"/>
    <path d="M1185.18,528.64c-1.35,0-2.52-.32-3.51-.95s-1.75-1.51-2.29-2.63-.81-2.41-.81-3.86.26-2.75.79-3.88c.53-1.13,1.27-2.02,2.22-2.66s2.06-.97,3.31-.97c1.05,0,2.04.26,2.98.78.94.52,1.7,1.3,2.29,2.36.59,1.06.88,2.41.88,4.04v.76h-10.71c.04,1.65.49,2.96,1.36,3.95.87.99,2.03,1.48,3.49,1.48,1.01,0,1.83-.23,2.48-.7.65-.46,1.1-1.02,1.37-1.65l1.67.53c-.33.9-.97,1.7-1.92,2.38-.95.68-2.16,1.02-3.61,1.02ZM1180.35,520.13h8.94c-.09-1.4-.53-2.56-1.29-3.48-.77-.92-1.8-1.38-3.09-1.38-.87,0-1.64.22-2.3.66-.66.44-1.19,1.03-1.59,1.76-.4.74-.62,1.55-.67,2.44Z"/>
    <path d="M1202.44,528.33v-19.25h6.55c1.88,0,3.29.48,4.24,1.43s1.42,2.15,1.42,3.59c0,1.21-.29,2.15-.88,2.84-.59.69-1.32,1.15-2.19,1.37v.16c.61.04,1.21.26,1.8.65.58.39,1.07.94,1.45,1.64.38.7.58,1.54.58,2.5,0,1.46-.49,2.67-1.47,3.63-.98.96-2.51,1.43-4.57,1.43h-6.91ZM1204.27,517.77h4.84c1.13,0,2.04-.34,2.73-1.03.69-.69,1.03-1.55,1.03-2.6s-.33-1.83-.99-2.47c-.66-.64-1.64-.96-2.94-.96h-4.68v7.05ZM1204.27,526.69h5.04c1.46,0,2.55-.33,3.26-.98s1.06-1.47,1.06-2.46c0-.72-.18-1.38-.53-1.97-.35-.59-.85-1.06-1.48-1.41s-1.38-.52-2.23-.52h-5.12v7.34Z"/>
  </g>
  <g>
    <path class="cls-10" d="M2191.61,528.33h-5.68v-19.25h6.02c1.83,0,3.41.38,4.72,1.15s2.31,1.87,3.01,3.29c.7,1.43,1.05,3.14,1.05,5.13,0,3.03-.79,5.4-2.38,7.11s-3.83,2.56-6.73,2.56ZM2187.76,526.69h3.75c2.46,0,4.31-.71,5.56-2.13s1.87-3.39,1.87-5.9-.61-4.41-1.82-5.82-2.97-2.11-5.29-2.11h-4.07v15.97Z"/>
    <path class="cls-10" d="M2210.47,528.64c-1.35,0-2.52-.32-3.51-.95s-1.75-1.51-2.29-2.63-.81-2.41-.81-3.86.26-2.75.79-3.88c.53-1.13,1.27-2.02,2.22-2.66s2.06-.97,3.31-.97c1.05,0,2.04.26,2.98.78.94.52,1.7,1.3,2.29,2.36.59,1.06.88,2.41.88,4.04v.76h-10.71c.04,1.65.49,2.96,1.36,3.95.87.99,2.03,1.48,3.49,1.48,1.01,0,1.83-.23,2.48-.7.65-.46,1.1-1.02,1.37-1.65l1.67.53c-.33.9-.97,1.7-1.92,2.38-.95.68-2.16,1.02-3.61,1.02ZM2205.64,520.13h8.94c-.09-1.4-.53-2.56-1.29-3.48-.77-.92-1.8-1.38-3.09-1.38-.87,0-1.64.22-2.3.66-.66.44-1.19,1.03-1.59,1.76-.4.74-.62,1.55-.67,2.44Z"/>
    <path class="cls-10" d="M2223.63,528.33l-5.52-14.44h1.91l3.33,9.08c.24.64.46,1.28.65,1.92.19.64.38,1.28.58,1.91.19-.63.38-1.26.57-1.91s.4-1.28.65-1.92l3.33-9.08h1.9l-5.52,14.44h-1.89Z"/>
    <path class="cls-10" d="M2235.04,511.21c-.35,0-.65-.12-.9-.36s-.38-.53-.38-.87.12-.62.38-.87c.25-.24.55-.36.9-.36s.65.12.9.36c.25.24.38.53.38.87s-.12.62-.38.87-.55.36-.9.36ZM2234.15,528.33v-14.44h1.76v14.44h-1.76Z"/>
    <path class="cls-10" d="M2245.96,528.6c-1.26,0-2.36-.31-3.32-.94s-1.71-1.5-2.25-2.62c-.54-1.12-.81-2.41-.81-3.87s.27-2.78.81-3.9c.54-1.12,1.29-2,2.25-2.63s2.06-.95,3.32-.95c.97,0,1.84.19,2.6.56.76.37,1.39.83,1.89,1.39.5.56.84,1.14,1.03,1.73l-1.67.52c-.11-.36-.33-.74-.65-1.15-.32-.4-.75-.75-1.29-1.03-.54-.28-1.17-.43-1.91-.43-.98,0-1.81.26-2.5.79-.68.53-1.21,1.24-1.57,2.13-.36.89-.54,1.88-.54,2.96s.18,2.05.54,2.93.88,1.6,1.57,2.12c.69.53,1.52.79,2.5.79.75,0,1.4-.15,1.94-.44s.98-.65,1.32-1.07c.34-.42.56-.81.66-1.18l1.65.52c-.18.59-.52,1.18-1.03,1.76-.5.58-1.14,1.05-1.91,1.43-.77.38-1.65.56-2.63.56Z"/>
    <path class="cls-10" d="M2260.97,528.64c-1.35,0-2.52-.32-3.51-.95s-1.75-1.51-2.29-2.63-.81-2.41-.81-3.86.26-2.75.79-3.88c.53-1.13,1.27-2.02,2.22-2.66s2.06-.97,3.31-.97c1.05,0,2.04.26,2.98.78.94.52,1.7,1.3,2.29,2.36.59,1.06.88,2.41.88,4.04v.76h-10.71c.04,1.65.49,2.96,1.36,3.95.87.99,2.03,1.48,3.49,1.48,1.01,0,1.83-.23,2.48-.7.65-.46,1.1-1.02,1.37-1.65l1.67.53c-.33.9-.97,1.7-1.92,2.38-.95.68-2.16,1.02-3.61,1.02ZM2256.14,520.13h8.94c-.09-1.4-.53-2.56-1.29-3.48-.77-.92-1.8-1.38-3.09-1.38-.87,0-1.64.22-2.3.66-.66.44-1.19,1.03-1.59,1.76-.4.74-.62,1.55-.67,2.44Z"/>
    <path class="cls-10" d="M2276.42,528.33l7.05-19.25h2.17l7.12,19.25h-1.94l-2.08-5.72h-8.33l-2.04,5.72h-1.95ZM2281,520.98h7.16l-1.9-5.23c-.23-.64-.49-1.37-.76-2.21-.28-.83-.59-1.83-.94-2.97-.34,1.15-.66,2.15-.94,3-.28.84-.53,1.57-.74,2.18l-1.87,5.23Z"/>
  </g>
  <g>
    <line class="cls-8" x1="1233.28" y1="519.68" x2="1234.78" y2="519.68"/>
    <line class="cls-3" x1="1237.77" y1="519.68" x2="1248.25" y2="519.68"/>
    <line class="cls-7" x1="1249.75" y1="519.68" x2="1391.98" y2="519.68"/>
    <line class="cls-8" x1="1393.47" y1="519.68" x2="1394.97" y2="519.68"/>
  </g>
  <g>
    <line class="cls-8" x1="155.86" y1="528.33" x2="157.36" y2="528.33"/>
    <line class="cls-3" x1="160.35" y1="528.33" x2="170.83" y2="528.33"/>
    <line class="cls-7" x1="172.33" y1="528.33" x2="314.56" y2="528.33"/>
    <line class="cls-8" x1="316.05" y1="528.33" x2="317.55" y2="528.33"/>
  </g>
  <line class="cls-5" x1="320.13" y1="63.35" x2="320.13" y2="702.32"/>
  <line class="cls-5" x1="1091.11" y1="63.35" x2="1091.11" y2="702.32"/>
  <line class="cls-5" x1="1395.28" y1="63.35" x2="1395.28" y2="702.32"/>
  <line class="cls-5" x1="2166.26" y1="63.35" x2="2166.26" y2="702.32"/>
</svg>