<?xml version="1.0" encoding="UTF-8"?>
<svg id="Layer_1" data-name="Layer 1" xmlns="http://www.w3.org/2000/svg" viewBox="0 0 489.81 237.9">
  <defs>
    <style>
      .cls-1 {
        fill: #fff;
      }

      .cls-2 {
        fill: #9ccffe;
      }

      .cls-3 {
        fill: #d90000;
      }

      .cls-4 {
        stroke: #9ccffe;
      }

      .cls-4, .cls-5 {
        fill: none;
        stroke-miterlimit: 10;
      }

      .cls-5 {
        stroke: #d90000;
      }

      .cls-6 {
        fill: #0082fc;
      }
    </style>
  </defs>
  <g>
    <line class="cls-3" x1="87.43" y1="87.4" x2="174.53" y2="177.22"/>
    <g>
      <line class="cls-5" x1="92.42" y1="92.55" x2="174.53" y2="177.22"/>
      <polygon class="cls-3" points="89.86 97.07 87.43 87.4 97.02 90.13 89.86 97.07"/>
    </g>
  </g>
  <g>
    <line class="cls-3" x1="407.4" y1="87.4" x2="320.29" y2="177.22"/>
    <g>
      <line class="cls-5" x1="407.4" y1="87.4" x2="325.29" y2="172.06"/>
      <polygon class="cls-3" points="322.72 167.55 320.29 177.22 329.88 174.49 322.72 167.55"/>
    </g>
  </g>
  <g>
    <path class="cls-3" d="M308.05,216.53h-123.52v-63.16h123.52v63.16Z"/>
    <g>
      <path class="cls-1" d="M230.43,179.95v-8h2.61c.85,0,1.49.23,1.93.68s.66,1.03.66,1.73c0,.53-.13,1-.38,1.38s-.63.67-1.12.83l1.84,3.38h-.88l-1.73-3.23c-.1,0-.2.01-.3.01h-1.85v3.22h-.76ZM231.2,176.04h1.82c.62,0,1.08-.15,1.39-.46s.46-.71.46-1.23-.15-.94-.46-1.26c-.31-.32-.77-.47-1.4-.47h-1.82v3.42Z"/>
      <path class="cls-1" d="M237.49,179.95v-8h4.67v.68h-3.91v2.95h3.66v.68h-3.66v3h3.99v.68h-4.75Z"/>
      <path class="cls-1" d="M243.9,179.95v-8h.77v7.32h3.8v.68h-4.57Z"/>
      <path class="cls-1" d="M249.66,179.95l2.93-8h.9l2.96,8h-.81l-.86-2.38h-3.46l-.85,2.38h-.81ZM251.56,176.89h2.98l-.79-2.17c-.1-.26-.2-.57-.32-.92-.11-.35-.25-.76-.39-1.23-.14.48-.27.89-.39,1.25-.12.35-.22.65-.31.91l-.78,2.17Z"/>
      <path class="cls-1" d="M259.16,179.95v-3.45l-2.98-4.55h.89l1.7,2.62c.14.22.28.44.4.65.13.21.25.44.37.7.13-.26.25-.49.38-.7s.26-.42.4-.64l1.7-2.62h.88l-2.98,4.55v3.45h-.76Z"/>
      <path class="cls-1" d="M199.73,196.08c-.59,0-1.08-.13-1.46-.4-.39-.27-.63-.65-.74-1.16l.7-.17c.09.36.26.63.51.81.26.18.58.27.98.27.45,0,.82-.1,1.09-.31.27-.2.41-.46.41-.76,0-.49-.33-.81-.98-.97l-.98-.24c-1.03-.25-1.54-.78-1.54-1.6,0-.34.09-.63.27-.89.18-.25.43-.45.75-.6.32-.14.68-.21,1.08-.21.57,0,1.01.13,1.35.38.33.26.57.6.71,1.03l-.67.17c-.09-.28-.25-.5-.46-.68-.22-.18-.52-.27-.92-.27s-.73.1-.98.29-.39.44-.39.73c0,.49.36.83,1.07,1l.92.22c1.01.24,1.52.77,1.52,1.58,0,.34-.09.65-.28.91s-.45.47-.79.62c-.34.15-.73.23-1.17.23Z"/>
      <path class="cls-1" d="M203.87,188.83c-.15,0-.27-.05-.38-.15-.1-.1-.16-.22-.16-.36s.05-.26.16-.36c.1-.1.23-.15.38-.15s.27.05.38.15c.1.1.16.22.16.36s-.05.26-.16.36c-.1.1-.23.15-.38.15ZM203.5,195.95v-6h.73v6h-.73Z"/>
      <path class="cls-1" d="M208.4,198.32c-.61,0-1.11-.11-1.51-.34-.39-.23-.67-.52-.85-.88l.6-.37c.13.23.33.45.6.64.27.2.65.3,1.15.3.53,0,.96-.13,1.28-.39.32-.26.48-.67.48-1.22v-1.35h-.07c-.08.19-.19.37-.35.55-.15.18-.35.33-.59.45s-.54.17-.9.17c-.48,0-.9-.12-1.27-.35-.37-.23-.66-.57-.87-1.01s-.32-.97-.32-1.58.1-1.15.31-1.61.5-.82.87-1.08.8-.39,1.29-.39c.37,0,.67.07.91.2s.44.29.59.48c.15.19.26.38.34.56h.08v-1.16h.71v6.15c0,.51-.11.93-.32,1.26-.22.33-.51.57-.89.73-.37.16-.8.24-1.28.24ZM208.35,195.23c.57,0,1.02-.21,1.34-.62s.48-.97.48-1.69c0-.46-.07-.87-.21-1.24-.14-.36-.35-.65-.61-.85s-.6-.31-.99-.31-.73.11-1,.32c-.27.21-.48.5-.62.86s-.21.77-.21,1.21c0,.68.16,1.24.48,1.67.32.43.77.64,1.36.64Z"/>
      <path class="cls-1" d="M213.48,192.2v3.74h-.73v-6h.7v1.11c.19-.42.44-.72.77-.91.33-.19.7-.28,1.11-.28.61,0,1.1.19,1.48.57s.57.92.57,1.64v3.88h-.73v-3.83c0-.49-.14-.88-.41-1.16-.28-.29-.64-.43-1.11-.43s-.87.15-1.18.45c-.32.3-.48.71-.48,1.22Z"/>
      <path class="cls-1" d="M220.83,196.08c-.37,0-.7-.07-1-.21-.3-.14-.54-.35-.71-.62-.18-.27-.27-.6-.27-.99s.1-.71.3-.94.47-.41.82-.53.75-.21,1.2-.26c.5-.06.88-.12,1.16-.17.27-.05.41-.19.41-.42v-.14c0-.4-.12-.72-.37-.95-.24-.23-.59-.35-1.04-.35s-.78.09-1.04.28c-.27.19-.45.41-.56.66l-.7-.24c.13-.33.32-.59.56-.78.24-.2.51-.34.81-.43.3-.09.6-.14.92-.14.24,0,.48.03.73.09s.48.17.7.32.39.35.52.61.2.59.2.99v4.08h-.71v-.95h-.05c-.13.28-.35.53-.66.75-.31.22-.71.34-1.19.34ZM220.94,195.43c.37,0,.68-.08.95-.24s.48-.38.62-.65.22-.57.22-.89v-.85c-.07.06-.2.12-.39.17-.19.05-.39.09-.61.12s-.41.06-.56.08c-.5.06-.9.18-1.17.35s-.41.44-.41.79.13.64.39.83c.26.2.58.3.97.3Z"/>
      <path class="cls-1" d="M226.05,187.95v8h-.73v-8h.73Z"/>
      <path class="cls-1" d="M230.98,195.95v-6h.71v1.11c.16-.41.39-.72.71-.92.32-.2.66-.3,1.01-.3.4,0,.74.12,1.01.34.27.23.46.54.57.93.14-.4.38-.71.72-.93.34-.23.73-.34,1.16-.34.53,0,.98.18,1.33.53.36.35.53.86.53,1.54v4.04h-.73v-4.02c0-.48-.13-.84-.38-1.07-.26-.23-.57-.34-.95-.34-.43,0-.78.13-1.05.41s-.4.63-.4,1.07v3.96h-.73v-4.09c0-.42-.12-.74-.36-.99-.24-.24-.55-.36-.94-.36s-.75.14-1.04.41c-.29.28-.44.66-.44,1.16v3.86h-.73Z"/>
      <path class="cls-1" d="M242.2,196.08c-.37,0-.7-.07-1-.21-.3-.14-.54-.35-.71-.62-.18-.27-.27-.6-.27-.99s.1-.71.3-.94.47-.41.82-.53.75-.21,1.2-.26c.5-.06.88-.12,1.16-.17.27-.05.41-.19.41-.42v-.14c0-.4-.12-.72-.37-.95-.24-.23-.59-.35-1.04-.35s-.78.09-1.04.28c-.27.19-.45.41-.56.66l-.7-.24c.13-.33.32-.59.56-.78.24-.2.51-.34.81-.43.3-.09.6-.14.92-.14.24,0,.48.03.73.09s.48.17.7.32.39.35.52.61.2.59.2.99v4.08h-.71v-.95h-.05c-.13.28-.35.53-.66.75-.31.22-.71.34-1.19.34ZM242.3,195.43c.37,0,.68-.08.95-.24s.48-.38.62-.65.22-.57.22-.89v-.85c-.07.06-.2.12-.39.17-.19.05-.39.09-.61.12s-.41.06-.56.08c-.5.06-.9.18-1.17.35s-.41.44-.41.79.13.64.39.83c.26.2.58.3.97.3Z"/>
      <path class="cls-1" d="M247.41,192.2v3.74h-.73v-6h.7v1.11c.19-.42.44-.72.77-.91.33-.19.7-.28,1.11-.28.61,0,1.1.19,1.48.57s.57.92.57,1.64v3.88h-.73v-3.83c0-.49-.14-.88-.41-1.16-.28-.29-.64-.43-1.11-.43s-.87.15-1.18.45c-.32.3-.48.71-.48,1.22Z"/>
      <path class="cls-1" d="M253.53,188.83c-.15,0-.27-.05-.38-.15-.1-.1-.16-.22-.16-.36s.05-.26.16-.36c.1-.1.23-.15.38-.15s.27.05.38.15c.1.1.16.22.16.36s-.05.26-.16.36c-.1.1-.23.15-.38.15ZM253.16,195.95v-6h.73v6h-.73Z"/>
      <path class="cls-1" d="M255.76,198.19v-8.25h.71v1.16h.08c.08-.18.19-.37.34-.56.15-.19.34-.35.59-.48s.55-.2.92-.2c.49,0,.92.13,1.29.39.37.26.66.62.87,1.08s.31,1.01.31,1.62-.1,1.17-.31,1.64c-.21.47-.49.83-.87,1.09-.37.26-.8.39-1.29.39-.36,0-.66-.07-.91-.2s-.44-.29-.59-.49-.27-.38-.34-.57h-.06v3.37h-.73ZM258.3,195.42c.39,0,.72-.11.99-.33s.48-.51.62-.88c.14-.37.21-.79.21-1.25s-.07-.87-.21-1.24-.35-.66-.62-.87-.6-.32-1-.32-.72.1-.99.31c-.27.21-.48.49-.62.86-.14.37-.21.79-.21,1.26s.07.9.21,1.27c.14.37.35.66.62.87.27.21.6.32.98.32Z"/>
      <path class="cls-1" d="M264.47,196.03c-.61,0-1.1-.19-1.49-.57-.38-.38-.57-.92-.57-1.63v-3.88h.73v3.83c0,.49.14.88.41,1.16.28.29.64.43,1.11.43s.87-.15,1.18-.45c.32-.3.48-.71.48-1.22v-3.74h.73v6h-.71v-1.11c-.19.42-.44.73-.77.91-.33.19-.7.28-1.1.28Z"/>
      <path class="cls-1" d="M269.65,187.95v8h-.73v-8h.73Z"/>
      <path class="cls-1" d="M273.13,196.08c-.37,0-.7-.07-1-.21-.3-.14-.54-.35-.71-.62-.18-.27-.27-.6-.27-.99s.1-.71.3-.94.47-.41.82-.53.75-.21,1.2-.26c.5-.06.88-.12,1.16-.17.27-.05.41-.19.41-.42v-.14c0-.4-.12-.72-.37-.95-.24-.23-.59-.35-1.04-.35s-.78.09-1.04.28c-.27.19-.45.41-.56.66l-.7-.24c.13-.33.32-.59.56-.78.24-.2.51-.34.81-.43.3-.09.6-.14.92-.14.24,0,.48.03.73.09s.48.17.7.32.39.35.52.61.2.59.2.99v4.08h-.71v-.95h-.05c-.13.28-.35.53-.66.75-.31.22-.71.34-1.19.34ZM273.23,195.43c.37,0,.68-.08.95-.24s.48-.38.62-.65.22-.57.22-.89v-.85c-.07.06-.2.12-.39.17-.19.05-.39.09-.61.12s-.41.06-.56.08c-.5.06-.9.18-1.17.35s-.41.44-.41.79.13.64.39.83c.26.2.58.3.97.3Z"/>
      <path class="cls-1" d="M279.64,189.94v.63h-1.24v3.95c0,.6.27.88.81.82.05,0,.11,0,.19-.02.07-.01.14-.03.21-.04l.15.63c-.15.05-.34.08-.55.09-.48.03-.85-.08-1.12-.34s-.41-.62-.41-1.09v-4h-.89v-.63h.89v-1.43h.73v1.43h1.24Z"/>
      <path class="cls-1" d="M281.36,188.83c-.15,0-.27-.05-.38-.15-.1-.1-.16-.22-.16-.36s.05-.26.16-.36c.1-.1.23-.15.38-.15s.27.05.38.15c.1.1.16.22.16.36s-.05.26-.16.36c-.1.1-.23.15-.38.15ZM280.99,195.95v-6h.73v6h-.73Z"/>
      <path class="cls-1" d="M285.9,196.08c-.52,0-.98-.13-1.38-.39-.4-.26-.71-.63-.93-1.09-.23-.46-.34-1-.34-1.61s.11-1.16.34-1.62c.23-.47.54-.83.93-1.1.4-.26.86-.4,1.38-.4s.98.13,1.38.4c.4.26.71.63.94,1.1.23.47.34,1.01.34,1.62s-.11,1.15-.34,1.61c-.23.47-.54.83-.94,1.09-.4.26-.86.39-1.38.39ZM285.9,195.42c.41,0,.76-.11,1.04-.33.29-.22.5-.52.65-.89s.23-.78.23-1.22-.08-.86-.23-1.23c-.15-.37-.37-.67-.66-.89s-.63-.34-1.04-.34-.75.11-1.04.34c-.28.22-.5.52-.65.89-.15.37-.23.78-.23,1.23s.07.85.22,1.22c.15.37.37.66.65.89.29.22.63.33,1.04.33Z"/>
      <path class="cls-1" d="M290.86,192.2v3.74h-.73v-6h.7v1.11c.19-.42.44-.72.77-.91.33-.19.7-.28,1.11-.28.61,0,1.1.19,1.48.57s.57.92.57,1.64v3.88h-.73v-3.83c0-.49-.14-.88-.41-1.16-.28-.29-.64-.43-1.11-.43s-.87.15-1.18.45c-.32.3-.48.71-.48,1.22Z"/>
    </g>
  </g>
  <g>
    <line class="cls-4" x1="160.58" y1="49.6" x2="332" y2="49.6"/>
    <polygon class="cls-2" points="162.04 54.59 153.4 49.6 162.04 44.61 162.04 54.59"/>
    <polygon class="cls-2" points="330.54 54.59 339.17 49.6 330.54 44.61 330.54 54.59"/>
  </g>
  <g>
    <rect class="cls-6" x="345.49" y="18.25" width="123.83" height="62.7" rx="24" ry="24"/>
    <g>
      <path class="cls-1" d="M398.27,52.6v-8h2.72c.78,0,1.37.2,1.76.6.39.4.59.89.59,1.49,0,.5-.12.9-.37,1.18-.25.29-.55.48-.91.57v.06c.25.02.5.11.75.27s.44.39.6.68c.16.29.24.64.24,1.04,0,.61-.2,1.11-.61,1.51-.41.4-1.04.6-1.9.6h-2.87ZM399.03,48.21h2.01c.47,0,.85-.14,1.13-.43.29-.29.43-.65.43-1.08s-.14-.76-.41-1.03c-.27-.26-.68-.4-1.22-.4h-1.94v2.93ZM399.03,51.91h2.09c.61,0,1.06-.14,1.35-.41s.44-.61.44-1.02c0-.3-.07-.57-.22-.82s-.35-.44-.62-.59c-.26-.14-.57-.22-.93-.22h-2.13v3.05Z"/>
      <path class="cls-1" d="M407.66,52.72c-.52,0-.98-.13-1.38-.39-.4-.26-.71-.63-.93-1.09-.23-.46-.34-1-.34-1.61s.11-1.16.34-1.62c.23-.47.54-.83.93-1.1.4-.26.86-.4,1.38-.4s.98.13,1.38.4c.4.26.71.63.94,1.1.23.47.34,1.01.34,1.62s-.11,1.15-.34,1.61c-.23.47-.54.83-.94,1.09-.4.26-.86.39-1.38.39ZM407.66,52.06c.41,0,.76-.11,1.04-.33.29-.22.5-.52.65-.89s.23-.78.23-1.22-.08-.86-.23-1.23c-.15-.37-.37-.67-.66-.89s-.63-.34-1.04-.34-.75.11-1.04.34c-.28.22-.5.52-.65.89-.15.37-.23.78-.23,1.23s.07.85.22,1.22c.15.37.37.66.65.89.29.22.63.33,1.04.33Z"/>
      <path class="cls-1" d="M414.51,52.72c-.36,0-.66-.07-.91-.2s-.44-.29-.59-.49-.27-.38-.34-.57h-.08v1.12h-.71v-8h.73v3.15h.06c.08-.18.19-.37.34-.56.15-.19.34-.35.59-.48s.55-.2.92-.2c.49,0,.92.13,1.29.39.37.26.66.62.87,1.08s.31,1.01.31,1.62-.1,1.17-.31,1.64c-.21.47-.49.83-.87,1.09-.37.26-.8.39-1.29.39ZM414.42,52.06c.39,0,.72-.11.99-.33s.48-.51.62-.88c.14-.37.21-.79.21-1.25s-.07-.87-.21-1.24-.35-.66-.62-.87-.6-.32-1-.32-.72.1-.99.31c-.27.21-.48.49-.62.86-.14.37-.21.79-.21,1.26s.07.9.21,1.27c.14.37.35.66.62.87.27.21.6.32.98.32Z"/>
    </g>
  </g>
  <g>
    <rect class="cls-6" x="25.51" y="18.25" width="123.83" height="62.7" rx="24" ry="24"/>
    <g>
      <path class="cls-1" d="M75.15,52.6l2.93-8h.9l2.96,8h-.81l-.86-2.38h-3.46l-.85,2.38h-.81ZM77.05,49.54h2.98l-.79-2.17c-.1-.26-.2-.57-.32-.92-.11-.35-.25-.76-.39-1.23-.14.48-.27.89-.39,1.25-.12.35-.22.65-.31.91l-.78,2.17Z"/>
      <path class="cls-1" d="M83.99,44.59v8h-.73v-8h.73Z"/>
      <path class="cls-1" d="M86.24,45.48c-.15,0-.27-.05-.38-.15-.1-.1-.16-.22-.16-.36s.05-.26.16-.36c.1-.1.23-.15.38-.15s.27.05.38.15c.1.1.16.22.16.36s-.05.26-.16.36c-.1.1-.23.15-.38.15ZM85.87,52.6v-6h.73v6h-.73Z"/>
      <path class="cls-1" d="M90.78,52.71c-.52,0-.98-.13-1.38-.39s-.71-.62-.93-1.09-.34-1-.34-1.61.11-1.16.34-1.62.54-.83.93-1.09c.4-.26.86-.4,1.38-.4.4,0,.76.08,1.08.23s.58.35.78.58.35.47.43.72l-.69.21c-.05-.15-.14-.31-.27-.48-.13-.17-.31-.31-.54-.43-.22-.12-.49-.18-.79-.18-.41,0-.75.11-1.04.33-.28.22-.5.52-.65.89-.15.37-.23.78-.23,1.23s.08.85.23,1.22c.15.37.37.66.65.88.29.22.63.33,1.04.33.31,0,.58-.06.81-.18.23-.12.41-.27.55-.44s.23-.34.27-.49l.69.21c-.08.25-.22.49-.43.73-.21.24-.47.44-.79.59-.32.16-.69.23-1.09.23Z"/>
      <path class="cls-1" d="M96.99,52.72c-.56,0-1.05-.13-1.46-.39-.41-.26-.73-.63-.95-1.09-.22-.46-.34-1-.34-1.61s.11-1.14.33-1.61c.22-.47.53-.84.92-1.11.4-.27.85-.4,1.38-.4.44,0,.85.11,1.24.32s.71.54.95.98.37,1,.37,1.68v.32h-4.45c.01.68.2,1.23.56,1.64s.85.62,1.45.62c.42,0,.76-.1,1.03-.29s.46-.42.57-.69l.69.22c-.14.38-.4.71-.8.99-.4.28-.9.42-1.5.42ZM94.98,49.19h3.72c-.04-.58-.22-1.07-.54-1.45-.32-.38-.75-.57-1.28-.57-.36,0-.68.09-.96.27s-.5.43-.66.73c-.16.31-.26.64-.28,1.01Z"/>
    </g>
  </g>
</svg>