<?xml version="1.0" encoding="UTF-8"?>
<svg id="Layer_1" data-name="Layer 1" xmlns="http://www.w3.org/2000/svg" viewBox="0 0 684 274.57">
  <defs>
    <style>
      .cls-1, .cls-2, .cls-3, .cls-4, .cls-5, .cls-6, .cls-7 {
        stroke: #000;
      }

      .cls-1, .cls-2, .cls-3, .cls-4, .cls-5, .cls-7 {
        fill: none;
      }

      .cls-1, .cls-3, .cls-6 {
        stroke-miterlimit: 10;
      }

      .cls-2 {
        stroke-dasharray: 3.94 5.91 3.94 5.91;
      }

      .cls-2, .cls-4, .cls-5, .cls-7 {
        stroke-linecap: round;
        stroke-miterlimit: 6;
      }

      .cls-2, .cls-7 {
        stroke-width: 1.5px;
      }

      .cls-3, .cls-4, .cls-5 {
        stroke-width: .75px;
      }

      .cls-5 {
        stroke-dasharray: 3.32 4.98 3.32 4.98;
      }

      .cls-6 {
        stroke-width: .5px;
      }
    </style>
  </defs>
  <g>
    <line class="cls-3" x1="71.3" y1="127.54" x2="296.65" y2="127.54"/>
    <polygon points="295.83 130.34 300.69 127.54 295.83 124.73 295.83 130.34"/>
  </g>
  <g>
    <path d="M47.52,229.76h-3.36l-.8,2.12h-1.12l3.02-7.59h1.21l3.02,7.59h-1.13l-.82-2.12ZM44.53,228.78h2.61l-1.32-3.4-1.3,3.4Z"/>
    <path d="M54.02,231.1c-.12.25-.32.47-.58.65-.27.18-.6.27-1.01.27-.38,0-.72-.07-1.02-.21-.3-.14-.56-.33-.77-.58-.21-.25-.37-.54-.49-.87-.11-.33-.17-.69-.17-1.08,0-.36.06-.71.18-1.03.12-.33.28-.61.5-.86.21-.25.47-.44.77-.59s.63-.22,1-.22c.23,0,.43.03.61.08s.33.12.46.2c.13.08.24.18.32.28.08.1.15.21.19.32v-3.33h1v6.8c0,.25,0,.46.02.63.01.17.02.28.03.32h-.97c-.01-.06-.03-.15-.04-.27-.01-.12-.02-.27-.02-.42v-.08ZM51.01,229.29c0,.26.03.51.1.73.07.22.17.42.29.58.13.17.29.29.47.39s.4.14.64.14c.23,0,.44-.05.62-.14.19-.1.34-.23.47-.39.13-.16.23-.36.29-.59.07-.23.1-.47.1-.74,0-.54-.13-.97-.39-1.3s-.62-.49-1.09-.49c-.23,0-.44.04-.63.13-.19.09-.35.21-.48.38-.13.16-.23.35-.3.57-.07.22-.11.46-.11.73Z"/>
    <path d="M59.08,231.88h-1.02l-2.09-5.15h1.13l1.47,3.97,1.48-3.97h1.08l-2.06,5.15Z"/>
    <path d="M66.46,230.41c-.07.23-.18.44-.32.64-.14.2-.31.37-.5.51-.2.15-.42.26-.67.35s-.52.13-.82.13c-.34,0-.67-.06-.99-.18s-.59-.3-.83-.54-.43-.52-.57-.87c-.14-.34-.21-.73-.21-1.17,0-.41.07-.78.2-1.11s.32-.62.54-.86c.22-.24.49-.42.79-.56s.61-.2.93-.2c.39,0,.74.07,1.05.2s.57.32.78.55c.21.24.37.52.48.85s.17.7.17,1.1c0,.06,0,.12,0,.18,0,.06,0,.1-.02.14h-3.88c0,.23.05.44.13.63.08.19.19.36.33.5.14.14.3.25.49.32.19.08.39.11.61.11.42,0,.74-.1.96-.3.22-.2.38-.45.48-.74l.87.3ZM65.44,228.77c-.01-.37-.14-.68-.37-.94-.24-.25-.58-.38-1.04-.38-.21,0-.41.04-.57.11-.17.08-.31.17-.43.3s-.21.27-.28.42c-.07.16-.11.32-.12.48h2.82Z"/>
    <path d="M70.62,227.75c-.15-.02-.3-.03-.44-.03-.42,0-.76.12-1.02.37s-.39.65-.39,1.22v2.58h-1.01v-5.15h.99v.9c.09-.2.2-.36.33-.49.12-.12.25-.22.39-.3.14-.07.28-.13.42-.15.14-.03.28-.04.41-.04.07,0,.14,0,.2.01.06,0,.11.01.13.02v1.07Z"/>
    <path d="M73.31,226.73h1.11v.91h-1.11v2.68c0,.24.05.41.16.53s.29.18.56.18c.06,0,.14,0,.21-.01.08,0,.14-.02.18-.03v.86s-.12.03-.25.06c-.12.03-.27.04-.44.04-.44,0-.79-.13-1.05-.38-.26-.25-.39-.62-.39-1.09v-2.83h-.99v-.91h.28c.28,0,.48-.07.61-.22.12-.15.19-.34.19-.57v-.83h.92v1.63Z"/>
    <path d="M75.37,224.78c0-.21.07-.38.21-.52.14-.14.31-.21.51-.21s.38.07.52.21c.14.14.21.31.21.52s-.07.37-.21.51-.31.21-.52.21-.37-.07-.51-.21-.21-.31-.21-.51ZM75.59,231.88v-5.15h1v5.15h-1Z"/>
    <path d="M78.69,230.22c.04.27.15.5.35.68.2.19.48.28.85.28.29,0,.5-.07.65-.2.15-.14.23-.3.23-.48,0-.16-.06-.3-.17-.42s-.28-.2-.49-.25l-.88-.19c-.41-.09-.72-.26-.95-.51-.23-.26-.34-.57-.34-.93,0-.22.05-.43.14-.63.1-.2.23-.37.39-.52.16-.15.36-.27.58-.35.22-.08.46-.13.71-.13.35,0,.64.05.88.15.24.1.43.22.58.37.15.15.26.3.34.46.08.16.13.29.16.41l-.89.33c-.01-.06-.04-.15-.07-.25-.04-.1-.09-.19-.17-.28-.08-.09-.19-.17-.32-.23-.14-.06-.3-.1-.5-.1-.26,0-.46.07-.62.21-.16.14-.24.3-.24.48,0,.33.2.54.59.62l.83.18c.47.1.83.28,1.07.55s.36.59.36.98c0,.19-.04.37-.12.56-.08.19-.2.36-.35.51-.15.16-.35.28-.58.38-.24.1-.51.14-.83.14-.36,0-.66-.05-.92-.15-.25-.1-.46-.22-.63-.38-.17-.15-.3-.31-.38-.49-.09-.17-.14-.34-.17-.49l.91-.32Z"/>
    <path d="M82.83,224.78c0-.21.07-.38.21-.52.14-.14.31-.21.51-.21s.38.07.52.21c.14.14.21.31.21.52s-.07.37-.21.51-.31.21-.52.21-.37-.07-.51-.21-.21-.31-.21-.51ZM83.06,231.88v-5.15h1v5.15h-1Z"/>
    <path d="M86.67,231.88h-1.01v-5.15h.99v.74c.19-.32.42-.55.71-.69.29-.14.58-.2.88-.2s.58.05.81.16c.23.1.42.25.58.43.15.18.27.4.34.65s.11.52.11.8v3.27h-1.01v-3.09c0-.18-.02-.35-.06-.5s-.11-.29-.2-.41-.22-.21-.38-.28c-.15-.07-.34-.1-.56-.1-.2,0-.38.04-.53.11-.15.08-.27.18-.37.3-.1.13-.17.28-.23.45-.05.17-.07.35-.07.55v2.98Z"/>
    <path d="M92.24,231.93c.04.36.18.67.43.9s.58.36.97.36c.54,0,.94-.14,1.19-.42.25-.28.38-.7.38-1.25v-.74c-.12.24-.32.44-.59.6s-.6.25-.99.25c-.34,0-.66-.06-.95-.19s-.54-.3-.75-.51c-.21-.22-.38-.48-.49-.79-.12-.31-.18-.64-.18-1.01s.06-.68.17-.98.27-.57.48-.79c.21-.23.46-.4.74-.54.29-.13.61-.2.97-.2.4,0,.73.07,1,.21.26.14.46.34.59.6v-.72h1v4.76c0,.33-.04.65-.13.96s-.23.58-.43.82-.47.43-.8.58-.74.22-1.22.22c-.32,0-.62-.05-.89-.14-.28-.1-.52-.23-.73-.4-.21-.17-.38-.37-.51-.6-.13-.23-.21-.49-.24-.77l.97-.22ZM93.79,230.79c.44,0,.79-.15,1.06-.45s.41-.7.41-1.2-.14-.9-.41-1.2-.62-.45-1.06-.45-.81.15-1.08.45c-.27.3-.41.7-.41,1.2s.13.91.4,1.21c.27.3.63.44,1.09.44Z"/>
    <path d="M43.08,237.14c-.02-.14-.07-.28-.14-.43s-.17-.29-.3-.42c-.13-.13-.29-.23-.48-.32-.19-.08-.42-.12-.69-.12-.21,0-.41.03-.59.1s-.33.15-.47.27-.23.25-.3.4c-.07.15-.11.32-.11.5,0,.27.08.5.25.7s.41.33.73.4l1.13.25c.63.14,1.12.4,1.46.77s.51.82.51,1.36c0,.29-.06.57-.18.85-.12.27-.3.51-.52.72-.23.21-.5.37-.83.5-.32.12-.68.19-1.09.19-.46,0-.85-.07-1.19-.2-.34-.14-.62-.31-.86-.52-.23-.21-.41-.46-.54-.72-.13-.27-.21-.54-.25-.81l1.01-.32c.02.21.07.42.16.62s.2.37.35.52c.15.15.34.27.56.36.22.09.47.13.75.13.52,0,.91-.12,1.17-.35.26-.24.39-.52.39-.86,0-.27-.09-.52-.28-.73s-.47-.37-.86-.44l-1.08-.24c-.54-.12-.99-.36-1.33-.7s-.52-.8-.52-1.38c0-.3.06-.59.19-.86.13-.27.3-.51.53-.72.22-.21.49-.37.8-.5.31-.12.64-.19.99-.19.43,0,.79.06,1.1.18.3.12.56.27.76.46.2.19.36.39.48.61s.19.44.24.64l-.94.33Z"/>
    <path d="M46.67,237.53h1.11v.91h-1.11v2.68c0,.24.05.41.16.53s.29.18.56.18c.06,0,.14,0,.21-.01.08,0,.14-.02.18-.03v.86s-.12.03-.25.06c-.12.03-.27.04-.44.04-.44,0-.79-.13-1.05-.38-.26-.25-.39-.62-.39-1.09v-2.83h-.99v-.91h.28c.28,0,.48-.07.61-.22.12-.15.19-.34.19-.57v-.83h.92v1.63Z"/>
    <path d="M48.76,241.3c0-.23.04-.43.12-.62.08-.18.19-.34.33-.47.14-.13.31-.23.5-.31.19-.08.4-.13.62-.17l1.39-.2c.16-.02.26-.07.32-.14.05-.07.08-.15.08-.25,0-.25-.09-.47-.26-.65-.17-.18-.46-.27-.85-.27-.36,0-.63.1-.83.29-.19.2-.31.44-.34.74l-.96-.23c.03-.24.1-.47.22-.67.12-.21.27-.38.46-.53.19-.15.4-.26.65-.34s.51-.12.79-.12c.38,0,.71.05.98.16.27.1.49.24.66.41.17.17.3.37.38.6.08.23.12.47.12.72v2.58c0,.23,0,.41.02.55.01.14.03.24.04.3h-.98c-.01-.06-.03-.15-.04-.26s-.02-.25-.02-.44c-.06.09-.13.19-.22.29-.09.1-.21.19-.34.28-.14.09-.29.16-.48.21-.18.05-.39.08-.62.08-.26,0-.5-.04-.71-.13-.21-.09-.39-.2-.54-.34-.15-.14-.27-.3-.35-.49s-.12-.38-.12-.59ZM50.63,241.99c.21,0,.4-.03.58-.08.18-.05.34-.14.47-.26s.24-.27.32-.47c.08-.2.12-.43.12-.71v-.24l-1.57.24c-.21.04-.39.12-.54.24s-.21.3-.21.53c0,.19.07.37.22.52.15.15.35.23.61.23Z"/>
    <path d="M56.02,237.53h1.11v.91h-1.11v2.68c0,.24.05.41.16.53s.29.18.56.18c.06,0,.14,0,.21-.01.08,0,.14-.02.18-.03v.86s-.12.03-.25.06c-.12.03-.27.04-.44.04-.44,0-.79-.13-1.05-.38-.26-.25-.39-.62-.39-1.09v-2.83h-.99v-.91h.28c.28,0,.48-.07.61-.22.12-.15.19-.34.19-.57v-.83h.92v1.63Z"/>
    <path d="M62.8,241.21c-.07.23-.18.44-.32.64-.14.2-.31.37-.5.51-.2.15-.42.26-.67.35s-.52.13-.82.13c-.34,0-.67-.06-.99-.18s-.59-.3-.83-.54-.43-.52-.57-.87c-.14-.34-.21-.73-.21-1.17,0-.41.07-.78.2-1.11s.32-.62.54-.86c.22-.24.49-.42.79-.56s.61-.2.93-.2c.39,0,.74.07,1.05.2s.57.32.78.55c.21.24.37.52.48.85s.17.7.17,1.1c0,.06,0,.12,0,.18,0,.06,0,.1-.02.14h-3.88c0,.23.05.44.13.63.08.19.19.36.33.5.14.14.3.25.49.32.19.08.39.11.61.11.42,0,.74-.1.96-.3.22-.2.38-.45.48-.74l.87.3ZM61.78,239.57c-.01-.37-.14-.68-.37-.94-.24-.25-.58-.38-1.04-.38-.21,0-.41.04-.57.11-.17.08-.31.17-.43.3s-.21.27-.28.42c-.07.16-.11.32-.12.48h2.82Z"/>
    <path d="M66.9,242.68v-7.59h4.61v.97h-3.57v2.33h3.23v.99h-3.23v2.32h3.57v.97h-4.61Z"/>
    <path d="M73.91,242.68h-1.01v-5.15h.99v.74c.19-.32.42-.55.71-.69.29-.14.58-.2.88-.2s.58.05.81.16c.23.1.42.25.58.43.15.18.27.4.34.65s.11.52.11.8v3.27h-1.01v-3.09c0-.18-.02-.35-.06-.5s-.11-.29-.2-.41-.22-.21-.38-.28c-.15-.07-.34-.1-.56-.1-.2,0-.38.04-.53.11-.15.08-.27.18-.37.3-.1.13-.17.28-.23.45-.05.17-.07.35-.07.55v2.98Z"/>
    <path d="M80.23,237.53h1.11v.91h-1.11v2.68c0,.24.05.41.16.53s.29.18.56.18c.06,0,.14,0,.21-.01.08,0,.14-.02.18-.03v.86s-.12.03-.25.06c-.12.03-.27.04-.44.04-.44,0-.79-.13-1.05-.38-.26-.25-.39-.62-.39-1.09v-2.83h-.99v-.91h.28c.28,0,.48-.07.61-.22.12-.15.19-.34.19-.57v-.83h.92v1.63Z"/>
    <path d="M87.01,241.21c-.07.23-.18.44-.32.64-.14.2-.31.37-.5.51-.2.15-.42.26-.67.35s-.52.13-.82.13c-.34,0-.67-.06-.99-.18s-.59-.3-.83-.54-.43-.52-.57-.87c-.14-.34-.21-.73-.21-1.17,0-.41.07-.78.2-1.11s.32-.62.54-.86c.22-.24.49-.42.79-.56s.61-.2.93-.2c.39,0,.74.07,1.05.2s.57.32.78.55c.21.24.37.52.48.85s.17.7.17,1.1c0,.06,0,.12,0,.18,0,.06,0,.1-.02.14h-3.88c0,.23.05.44.13.63.08.19.19.36.33.5.14.14.3.25.49.32.19.08.39.11.61.11.42,0,.74-.1.96-.3.22-.2.38-.45.48-.74l.87.3ZM85.99,239.57c-.01-.37-.14-.68-.37-.94-.24-.25-.58-.38-1.04-.38-.21,0-.41.04-.57.11-.17.08-.31.17-.43.3s-.21.27-.28.42c-.07.16-.11.32-.12.48h2.82Z"/>
    <path d="M91.17,238.55c-.15-.02-.3-.03-.44-.03-.42,0-.76.12-1.02.37s-.39.65-.39,1.22v2.58h-1.01v-5.15h.99v.9c.09-.2.2-.36.33-.49.12-.12.25-.22.39-.3.14-.07.28-.13.42-.15.14-.03.28-.04.41-.04.07,0,.14,0,.2.01.06,0,.11.01.13.02v1.07Z"/>
    <path d="M96.73,241.21c-.07.23-.18.44-.32.64-.14.2-.31.37-.5.51-.2.15-.42.26-.67.35s-.52.13-.82.13c-.34,0-.67-.06-.99-.18s-.59-.3-.83-.54-.43-.52-.57-.87c-.14-.34-.21-.73-.21-1.17,0-.41.07-.78.2-1.11s.32-.62.54-.86c.22-.24.49-.42.79-.56s.61-.2.93-.2c.39,0,.74.07,1.05.2s.57.32.78.55c.21.24.37.52.48.85s.17.7.17,1.1c0,.06,0,.12,0,.18,0,.06,0,.1-.02.14h-3.88c0,.23.05.44.13.63.08.19.19.36.33.5.14.14.3.25.49.32.19.08.39.11.61.11.42,0,.74-.1.96-.3.22-.2.38-.45.48-.74l.87.3ZM95.71,239.57c-.01-.37-.14-.68-.37-.94-.24-.25-.58-.38-1.04-.38-.21,0-.41.04-.57.11-.17.08-.31.17-.43.3s-.21.27-.28.42c-.07.16-.11.32-.12.48h2.82Z"/>
    <path d="M101.72,241.9c-.12.25-.32.47-.58.65-.27.18-.6.27-1.01.27-.38,0-.72-.07-1.02-.21-.3-.14-.56-.33-.77-.58-.21-.25-.37-.54-.49-.87-.11-.33-.17-.69-.17-1.08,0-.36.06-.71.18-1.03.12-.33.28-.61.5-.86.21-.25.47-.44.77-.59s.63-.22,1-.22c.23,0,.43.03.61.08s.33.12.46.2c.13.08.24.18.32.28.08.1.15.21.19.32v-3.33h1v6.8c0,.25,0,.46.02.63.01.17.02.28.03.32h-.97c-.01-.06-.03-.15-.04-.27-.01-.12-.02-.27-.02-.42v-.08ZM98.71,240.09c0,.26.03.51.1.73.07.22.17.42.29.58.13.17.29.29.47.39s.4.14.64.14c.23,0,.44-.05.62-.14.19-.1.34-.23.47-.39.13-.16.23-.36.29-.59.07-.23.1-.47.1-.74,0-.54-.13-.97-.39-1.3s-.62-.49-1.09-.49c-.23,0-.44.04-.63.13-.19.09-.35.21-.48.38-.13.16-.23.35-.3.57-.07.22-.11.46-.11.73Z"/>
  </g>
  <g>
    <path d="M260.14,176.29c0-.23.04-.43.12-.62.08-.18.19-.34.33-.47.14-.13.31-.23.5-.31s.4-.14.62-.17l1.39-.2c.16-.02.26-.07.32-.14.05-.07.08-.15.08-.25,0-.25-.09-.47-.26-.65s-.46-.27-.85-.27c-.36,0-.63.1-.83.29-.19.2-.31.44-.34.74l-.96-.22c.03-.24.1-.47.22-.67.12-.21.27-.38.46-.53.19-.15.4-.26.65-.34s.51-.12.79-.12c.38,0,.71.05.98.16.27.1.49.24.66.41.17.17.3.37.38.6.08.23.12.47.12.72v2.58c0,.23,0,.41.02.55.01.14.03.24.04.3h-.98c-.01-.06-.03-.15-.04-.26-.01-.11-.02-.25-.02-.44-.06.09-.13.19-.22.29-.09.1-.21.19-.34.28-.14.09-.29.16-.48.21-.18.05-.39.08-.62.08-.26,0-.5-.04-.71-.13-.21-.09-.39-.2-.54-.34-.15-.14-.27-.3-.35-.49-.08-.19-.12-.38-.12-.59ZM262.01,176.99c.21,0,.4-.03.58-.08.18-.05.34-.14.47-.26s.24-.27.32-.47c.08-.2.12-.43.12-.71v-.24l-1.57.24c-.21.04-.39.12-.54.24-.14.12-.21.3-.21.53,0,.19.07.37.22.52.15.15.35.23.61.23Z"/>
    <path d="M269.7,176.89c-.12.25-.32.47-.58.65-.27.18-.6.27-1.01.27-.38,0-.72-.07-1.02-.21-.3-.14-.56-.33-.77-.58-.21-.25-.37-.54-.49-.87s-.17-.69-.17-1.08c0-.36.06-.71.18-1.03.12-.32.28-.61.5-.86.21-.25.47-.44.77-.59.3-.15.63-.22,1-.22.23,0,.43.02.61.07.17.05.33.12.46.2.13.08.24.17.32.28.08.1.15.21.19.32v-3.33h1v6.8c0,.25,0,.46.02.63.01.17.02.28.03.32h-.97c-.01-.06-.03-.15-.04-.27s-.02-.27-.02-.42v-.09ZM266.69,175.08c0,.26.03.51.1.73.07.22.17.42.29.58.13.16.29.29.47.39s.4.14.64.14c.23,0,.44-.05.62-.14s.34-.23.47-.39c.13-.16.23-.36.29-.59.07-.23.1-.47.1-.74,0-.54-.13-.97-.39-1.3-.26-.33-.62-.49-1.09-.49-.23,0-.44.04-.63.13-.19.09-.35.21-.48.37s-.23.35-.3.57c-.07.22-.11.46-.11.73Z"/>
    <path d="M274.75,177.67h-1.02l-2.09-5.15h1.13l1.47,3.97,1.48-3.97h1.08l-2.06,5.15Z"/>
    <path d="M277.86,177.67v-7.59h2.66c.48,0,.94.08,1.38.25.44.16.82.41,1.15.73.33.32.59.72.79,1.19s.29,1.02.29,1.64-.1,1.17-.29,1.64c-.2.47-.46.87-.8,1.18-.33.32-.72.56-1.16.72-.44.16-.9.24-1.38.24h-2.63ZM280.46,176.74c.35,0,.68-.06,1-.18.31-.12.59-.29.82-.53s.42-.53.56-.89.2-.77.2-1.25-.07-.9-.2-1.26-.32-.66-.55-.9c-.23-.24-.5-.42-.81-.54-.31-.12-.64-.18-.99-.18h-1.57v5.73h1.55Z"/>
    <path d="M290.03,176.21c-.07.23-.18.44-.32.64-.14.2-.31.37-.5.51-.2.15-.42.26-.67.35-.25.09-.52.13-.82.13-.34,0-.67-.06-.99-.18-.31-.12-.59-.3-.83-.54-.24-.24-.43-.52-.57-.87-.14-.34-.21-.73-.21-1.17,0-.41.07-.78.2-1.11s.32-.62.54-.86c.22-.24.49-.42.79-.56.3-.13.61-.2.93-.2.39,0,.74.07,1.05.2.31.13.57.32.78.55.21.24.37.52.48.85s.17.7.17,1.1c0,.06,0,.12,0,.18,0,.06,0,.1-.02.14h-3.88c0,.23.05.44.13.63.08.19.19.36.33.5s.3.25.49.32c.19.07.39.11.61.11.42,0,.74-.1.96-.3.22-.2.38-.45.48-.74l.87.3ZM289.01,174.57c-.01-.37-.14-.68-.37-.94-.24-.25-.58-.38-1.04-.38-.21,0-.41.04-.57.11-.17.08-.31.17-.43.3s-.21.27-.28.42c-.07.16-.11.32-.12.48h2.82Z"/>
    <path d="M291.34,177.67v-7.75h1.01v7.75h-1.01Z"/>
    <path d="M293.69,176.29c0-.23.04-.43.12-.62.08-.18.19-.34.33-.47.14-.13.31-.23.5-.31s.4-.14.62-.17l1.39-.2c.16-.02.26-.07.32-.14.05-.07.08-.15.08-.25,0-.25-.09-.47-.26-.65s-.46-.27-.85-.27c-.36,0-.63.1-.83.29-.19.2-.31.44-.34.74l-.96-.22c.03-.24.1-.47.22-.67.12-.21.27-.38.46-.53.19-.15.4-.26.65-.34s.51-.12.79-.12c.38,0,.71.05.98.16.27.1.49.24.66.41.17.17.3.37.38.6.08.23.12.47.12.72v2.58c0,.23,0,.41.02.55.01.14.03.24.04.3h-.98c-.01-.06-.03-.15-.04-.26-.01-.11-.02-.25-.02-.44-.06.09-.13.19-.22.29-.09.1-.21.19-.34.28-.14.09-.29.16-.48.21-.18.05-.39.08-.62.08-.26,0-.5-.04-.71-.13-.21-.09-.39-.2-.54-.34-.15-.14-.27-.3-.35-.49-.08-.19-.12-.38-.12-.59ZM295.55,176.99c.21,0,.4-.03.58-.08.18-.05.34-.14.47-.26s.24-.27.32-.47c.08-.2.12-.43.12-.71v-.24l-1.57.24c-.21.04-.39.12-.54.24-.14.12-.21.3-.21.53,0,.19.07.37.22.52.15.15.35.23.61.23Z"/>
    <path d="M299.63,179.83l1.29-2.72-2.22-4.58h1.16l1.61,3.55,1.54-3.55h1.08l-3.35,7.3h-1.1Z"/>
  </g>
  <g>
    <path d="M162.54,114.47v6.62h-1.05v-6.62h-2.54v-.97h6.12v.97h-2.54Z"/>
    <path d="M164.79,121.94v-.85h5.48v.85h-5.48Z"/>
    <path d="M171.22,119.71c0-.23.04-.43.12-.62.08-.18.19-.34.33-.47.14-.13.31-.23.5-.31s.4-.14.62-.17l1.39-.2c.16-.02.26-.07.32-.14.05-.07.08-.15.08-.25,0-.25-.09-.47-.26-.65s-.46-.27-.85-.27c-.36,0-.63.1-.83.29-.19.2-.31.44-.34.74l-.96-.22c.03-.24.1-.47.22-.67.12-.21.27-.38.46-.53.19-.15.4-.26.65-.34s.51-.12.79-.12c.38,0,.71.05.98.16.27.1.49.24.66.41.17.17.3.37.38.6.08.23.12.47.12.72v2.58c0,.23,0,.41.02.55.01.14.03.24.04.3h-.98c-.01-.06-.03-.15-.04-.26-.01-.11-.02-.25-.02-.44-.06.09-.13.19-.22.29-.09.1-.21.19-.34.28-.14.09-.29.16-.48.21-.18.05-.39.08-.62.08-.26,0-.5-.04-.71-.13-.21-.09-.39-.2-.54-.34-.15-.14-.27-.3-.35-.49-.08-.19-.12-.38-.12-.59ZM173.08,120.41c.21,0,.4-.03.58-.08.18-.05.34-.14.47-.26s.24-.27.32-.47c.08-.2.12-.43.12-.71v-.24l-1.57.24c-.21.04-.39.12-.54.24-.14.12-.21.3-.21.53,0,.19.07.37.22.52.15.15.35.23.61.23Z"/>
    <path d="M180.77,120.31c-.12.25-.32.47-.58.65-.27.18-.6.27-1.01.27-.38,0-.72-.07-1.02-.21-.3-.14-.56-.33-.77-.58-.21-.25-.37-.54-.49-.87s-.17-.69-.17-1.08c0-.36.06-.71.18-1.03.12-.32.28-.61.5-.86.21-.25.47-.44.77-.59.3-.15.63-.22,1-.22.23,0,.43.02.61.07.17.05.33.12.46.2.13.08.24.17.32.28.08.1.15.21.19.32v-3.33h1v6.8c0,.25,0,.46.02.63.01.17.02.28.03.32h-.97c-.01-.06-.03-.15-.04-.27s-.02-.27-.02-.42v-.09ZM177.76,118.5c0,.26.03.51.1.73.07.22.17.42.29.58.13.16.29.29.47.39s.4.14.64.14c.23,0,.44-.05.62-.14s.34-.23.47-.39c.13-.16.23-.36.29-.59.07-.23.1-.47.1-.74,0-.54-.13-.97-.39-1.3-.26-.33-.62-.49-1.09-.49-.23,0-.44.04-.63.13-.19.09-.35.21-.48.37s-.23.35-.3.57c-.07.22-.11.46-.11.73Z"/>
    <path d="M185.83,121.09h-1.02l-2.09-5.15h1.13l1.47,3.97,1.48-3.97h1.08l-2.06,5.15Z"/>
    <path d="M188.93,121.09v-7.59h4.61v.97h-3.57v2.33h3.23v.98h-3.23v2.32h3.57v.97h-4.61Z"/>
    <path d="M197.25,121.09h-1.02l-2.09-5.15h1.13l1.47,3.97,1.48-3.97h1.08l-2.06,5.15Z"/>
    <path d="M204.63,119.62c-.07.23-.18.44-.32.64-.14.2-.31.37-.5.51-.2.15-.42.26-.67.35-.25.09-.52.13-.82.13-.34,0-.67-.06-.99-.18-.31-.12-.59-.3-.83-.54-.24-.24-.43-.52-.57-.87-.14-.34-.21-.73-.21-1.17,0-.41.07-.78.2-1.11s.32-.62.54-.86c.22-.24.49-.42.79-.56.3-.13.61-.2.93-.2.39,0,.74.07,1.05.2.31.13.57.32.78.55.21.24.37.52.48.85s.17.7.17,1.1c0,.06,0,.12,0,.18,0,.06,0,.1-.02.14h-3.88c0,.23.05.44.13.63.08.19.19.36.33.5s.3.25.49.32c.19.07.39.11.61.11.42,0,.74-.1.96-.3.22-.2.38-.45.48-.74l.87.3ZM203.61,117.99c-.01-.37-.14-.68-.37-.94-.24-.25-.58-.38-1.04-.38-.21,0-.41.04-.57.11-.17.08-.31.17-.43.3s-.21.27-.28.42c-.07.16-.11.32-.12.48h2.82Z"/>
    <path d="M206.94,121.09h-1.01v-5.15h.99v.74c.19-.32.42-.55.71-.69.29-.14.58-.2.88-.2s.58.05.81.16c.23.1.42.25.58.43s.27.4.34.65c.08.25.11.52.11.8v3.27h-1.01v-3.09c0-.18-.02-.35-.06-.5-.04-.16-.11-.29-.2-.41s-.22-.21-.38-.28-.34-.1-.56-.1c-.2,0-.38.04-.53.11s-.27.18-.37.31c-.1.13-.17.28-.23.45-.05.17-.07.35-.07.55v2.98Z"/>
    <path d="M213.26,115.94h1.11v.91h-1.11v2.68c0,.24.05.41.16.53s.29.18.56.18c.06,0,.14,0,.21-.01.08,0,.14-.02.18-.03v.86s-.12.03-.25.06c-.12.02-.27.04-.44.04-.44,0-.79-.13-1.05-.38s-.39-.62-.39-1.09v-2.83h-.99v-.91h.28c.28,0,.48-.08.61-.23s.19-.34.19-.57v-.83h.92v1.63Z"/>
  </g>
  <g>
    <line class="cls-3" x1="300.27" y1="127.54" x2="525.63" y2="127.54"/>
    <polygon points="524.81 130.34 529.67 127.54 524.81 124.73 524.81 130.34"/>
  </g>
  <g>
    <path d="M391.51,114.47v6.62h-1.05v-6.62h-2.54v-.97h6.12v.97h-2.54Z"/>
    <path d="M393.76,121.94v-.85h5.48v.85h-5.48Z"/>
    <path d="M400.2,119.71c0-.23.04-.43.12-.62.08-.18.19-.34.33-.47.14-.13.31-.23.5-.31s.4-.14.62-.17l1.39-.2c.16-.02.26-.07.32-.14.05-.07.08-.15.08-.25,0-.25-.09-.47-.26-.65s-.46-.27-.85-.27c-.36,0-.63.1-.83.29-.19.2-.31.44-.34.74l-.96-.22c.03-.24.1-.47.22-.67.12-.21.27-.38.46-.53.19-.15.4-.26.65-.34s.51-.12.79-.12c.38,0,.71.05.98.16.27.1.49.24.66.41.17.17.3.37.38.6.08.23.12.47.12.72v2.58c0,.23,0,.41.02.55.01.14.03.24.04.3h-.98c-.01-.06-.03-.15-.04-.26-.01-.11-.02-.25-.02-.44-.06.09-.13.19-.22.29-.09.1-.21.19-.34.28-.14.09-.29.16-.48.21-.18.05-.39.08-.62.08-.26,0-.5-.04-.71-.13-.21-.09-.39-.2-.54-.34-.15-.14-.27-.3-.35-.49-.08-.19-.12-.38-.12-.59ZM402.06,120.41c.21,0,.4-.03.58-.08.18-.05.34-.14.47-.26s.24-.27.32-.47c.08-.2.12-.43.12-.71v-.24l-1.57.24c-.21.04-.39.12-.54.24-.14.12-.21.3-.21.53,0,.19.07.37.22.52.15.15.35.23.61.23Z"/>
    <path d="M409.75,120.31c-.12.25-.32.47-.58.65-.27.18-.6.27-1.01.27-.38,0-.72-.07-1.02-.21-.3-.14-.56-.33-.77-.58-.21-.25-.37-.54-.49-.87s-.17-.69-.17-1.08c0-.36.06-.71.18-1.03.12-.32.28-.61.5-.86.21-.25.47-.44.77-.59.3-.15.63-.22,1-.22.23,0,.43.02.61.07.17.05.33.12.46.2.13.08.24.17.32.28.08.1.15.21.19.32v-3.33h1v6.8c0,.25,0,.46.02.63.01.17.02.28.03.32h-.97c-.01-.06-.03-.15-.04-.27s-.02-.27-.02-.42v-.09ZM406.74,118.5c0,.26.03.51.1.73.07.22.17.42.29.58.13.16.29.29.47.39s.4.14.64.14c.23,0,.44-.05.62-.14s.34-.23.47-.39c.13-.16.23-.36.29-.59.07-.23.1-.47.1-.74,0-.54-.13-.97-.39-1.3-.26-.33-.62-.49-1.09-.49-.23,0-.44.04-.63.13-.19.09-.35.21-.48.37s-.23.35-.3.57c-.07.22-.11.46-.11.73Z"/>
    <path d="M414.8,121.09h-1.02l-2.09-5.15h1.13l1.47,3.97,1.48-3.97h1.08l-2.06,5.15Z"/>
    <path d="M417.91,121.09v-7.59h4.61v.97h-3.57v2.33h3.23v.98h-3.23v2.32h3.57v.97h-4.61Z"/>
    <path d="M426.23,121.09h-1.02l-2.09-5.15h1.13l1.47,3.97,1.48-3.97h1.08l-2.06,5.15Z"/>
    <path d="M433.61,119.62c-.07.23-.18.44-.32.64-.14.2-.31.37-.5.51-.2.15-.42.26-.67.35-.25.09-.52.13-.82.13-.34,0-.67-.06-.99-.18-.31-.12-.59-.3-.83-.54-.24-.24-.43-.52-.57-.87-.14-.34-.21-.73-.21-1.17,0-.41.07-.78.2-1.11s.32-.62.54-.86c.22-.24.49-.42.79-.56.3-.13.61-.2.93-.2.39,0,.74.07,1.05.2.31.13.57.32.78.55.21.24.37.52.48.85s.17.7.17,1.1c0,.06,0,.12,0,.18,0,.06,0,.1-.02.14h-3.88c0,.23.05.44.13.63.08.19.19.36.33.5s.3.25.49.32c.19.07.39.11.61.11.42,0,.74-.1.96-.3.22-.2.38-.45.48-.74l.87.3ZM432.59,117.99c-.01-.37-.14-.68-.37-.94-.24-.25-.58-.38-1.04-.38-.21,0-.41.04-.57.11-.17.08-.31.17-.43.3s-.21.27-.28.42c-.07.16-.11.32-.12.48h2.82Z"/>
    <path d="M435.92,121.09h-1.01v-5.15h.99v.74c.19-.32.42-.55.71-.69.29-.14.58-.2.88-.2s.58.05.81.16c.23.1.42.25.58.43s.27.4.34.65c.08.25.11.52.11.8v3.27h-1.01v-3.09c0-.18-.02-.35-.06-.5-.04-.16-.11-.29-.2-.41s-.22-.21-.38-.28-.34-.1-.56-.1c-.2,0-.38.04-.53.11s-.27.18-.37.31c-.1.13-.17.28-.23.45-.05.17-.07.35-.07.55v2.98Z"/>
    <path d="M442.23,115.94h1.11v.91h-1.11v2.68c0,.24.05.41.16.53s.29.18.56.18c.06,0,.14,0,.21-.01.08,0,.14-.02.18-.03v.86s-.12.03-.25.06c-.12.02-.27.04-.44.04-.44,0-.79-.13-1.05-.38s-.39-.62-.39-1.09v-2.83h-.99v-.91h.28c.28,0,.48-.08.61-.23s.19-.34.19-.57v-.83h.92v1.63Z"/>
  </g>
  <g>
    <path d="M172.48,95.47h-102.63v-52.48h102.63v52.48ZM71.09,94.22h100.14v-49.98h-100.14v49.98Z"/>
    <rect x="69.84" y="82.4" width=".83" height="92.55"/>
    <g>
      <path d="M93.08,64.62h-4.17l-1,2.63h-1.4l3.75-9.43h1.5l3.75,9.43h-1.41l-1.02-2.63ZM89.37,63.41h3.24l-1.64-4.23-1.61,4.23Z"/>
      <path d="M101.04,66.29c-.15.31-.39.58-.72.8s-.75.34-1.26.34c-.47,0-.89-.09-1.26-.26-.37-.17-.69-.41-.95-.72s-.46-.66-.6-1.08-.21-.86-.21-1.34c0-.45.07-.88.22-1.28.15-.4.35-.76.62-1.06.27-.31.58-.55.96-.73.37-.18.78-.27,1.24-.27.28,0,.53.03.75.09.22.06.41.14.56.25.16.1.29.22.4.35s.19.26.24.39v-4.14h1.24v8.44c0,.31,0,.57.03.78.02.21.03.35.04.4h-1.21c-.02-.07-.03-.18-.05-.34-.01-.16-.02-.33-.02-.53v-.11ZM97.3,64.04c0,.33.04.63.13.91s.21.52.37.72c.16.2.35.36.58.48.23.12.5.17.8.17.28,0,.54-.06.77-.18s.43-.28.58-.49c.16-.2.28-.45.37-.73s.13-.59.13-.92c0-.66-.16-1.2-.49-1.61-.32-.41-.77-.61-1.35-.61-.28,0-.54.06-.78.17-.23.11-.43.27-.6.47-.16.2-.29.44-.38.71-.09.28-.13.58-.13.9Z"/>
      <path d="M107.21,67.26h-1.26l-2.59-6.39h1.41l1.82,4.93,1.83-4.93h1.34l-2.55,6.39Z"/>
      <path d="M116.26,65.44c-.09.28-.22.55-.39.79-.17.24-.38.46-.63.64-.24.18-.52.33-.83.43-.31.11-.65.16-1.02.16-.43,0-.83-.08-1.22-.23s-.73-.37-1.03-.66c-.3-.29-.53-.65-.7-1.08-.17-.43-.26-.91-.26-1.45,0-.51.08-.96.25-1.38s.39-.77.67-1.06c.28-.3.6-.53.98-.69.37-.16.76-.25,1.16-.25.49,0,.92.08,1.31.25s.71.39.96.68c.26.29.45.64.59,1.06.14.41.21.87.21,1.36,0,.08,0,.16,0,.23s-.01.13-.02.17h-4.81c0,.28.06.55.16.78.1.24.23.45.41.62s.38.31.61.4c.23.09.48.14.75.14.52,0,.92-.12,1.2-.37s.47-.55.6-.92l1.08.37ZM114.99,63.4c-.02-.46-.17-.85-.47-1.16-.29-.31-.72-.47-1.29-.47-.27,0-.5.05-.71.14-.21.09-.39.22-.53.37-.15.16-.26.33-.35.53-.09.2-.14.39-.15.6h3.5Z"/>
      <path d="M121.32,62.13c-.19-.03-.37-.04-.54-.04-.52,0-.95.15-1.27.46-.32.31-.49.81-.49,1.51v3.2h-1.25v-6.39h1.22v1.12c.12-.25.25-.45.41-.6s.32-.28.48-.37c.17-.09.34-.16.52-.19.18-.04.35-.05.51-.05.09,0,.17,0,.25.01s.13.02.17.03v1.33Z"/>
      <path d="M124.56,60.86h1.38v1.13h-1.38v3.32c0,.29.07.51.2.66.13.15.36.22.69.22.08,0,.17,0,.27-.01.1,0,.17-.02.23-.04v1.06c-.05.02-.16.04-.31.07-.15.03-.33.05-.55.05-.55,0-.98-.16-1.3-.47-.32-.31-.48-.76-.48-1.35v-3.51h-1.22v-1.13h.35c.35,0,.6-.09.75-.28s.23-.42.23-.7v-1.04h1.14v2.02Z"/>
      <path d="M127,58.44c0-.26.09-.47.26-.65.17-.17.38-.26.63-.26s.47.09.65.26c.17.17.26.39.26.65s-.09.46-.26.63c-.17.17-.39.26-.65.26s-.46-.09-.63-.26c-.17-.17-.26-.38-.26-.63ZM127.28,67.26v-6.39h1.24v6.39h-1.24Z"/>
      <path d="M131.01,65.2c.04.34.19.62.44.85.25.23.6.35,1.05.35.35,0,.62-.08.81-.25.19-.17.28-.37.28-.6,0-.2-.07-.38-.21-.52s-.35-.24-.61-.31l-1.09-.24c-.51-.11-.9-.32-1.18-.64-.28-.32-.42-.7-.42-1.16,0-.27.06-.53.18-.78.12-.24.28-.46.48-.64.2-.19.45-.33.72-.44s.57-.16.88-.16c.43,0,.8.06,1.1.19.3.12.54.28.72.46.19.18.33.37.42.57.09.19.16.36.19.51l-1.1.41c-.02-.08-.05-.18-.09-.31-.04-.12-.12-.24-.21-.35s-.23-.21-.4-.29c-.17-.08-.38-.12-.63-.12-.32,0-.58.09-.77.26-.19.17-.29.37-.29.59,0,.41.24.66.73.77l1.04.23c.58.12,1.03.35,1.32.68.3.33.45.74.45,1.22,0,.23-.05.46-.15.69s-.24.44-.43.64c-.19.19-.43.35-.72.47-.29.12-.64.18-1.04.18-.44,0-.82-.06-1.14-.19-.31-.12-.58-.28-.78-.46-.21-.19-.37-.39-.48-.6-.11-.22-.18-.42-.21-.6l1.13-.4Z"/>
      <path d="M136.05,58.44c0-.26.09-.47.26-.65.17-.17.38-.26.63-.26s.47.09.64.26c.17.17.26.39.26.65s-.09.46-.26.63c-.17.17-.39.26-.64.26s-.46-.09-.63-.26c-.17-.17-.26-.38-.26-.63ZM136.32,67.26v-6.39h1.24v6.39h-1.24Z"/>
      <path d="M140.7,67.26h-1.25v-6.39h1.22v.92c.23-.4.52-.68.88-.85.35-.17.72-.25,1.09-.25s.72.06,1,.19c.29.13.53.31.72.53.19.23.33.49.43.8s.14.64.14,1v4.05h-1.25v-3.84c0-.22-.02-.43-.07-.62s-.13-.37-.25-.51c-.12-.15-.27-.26-.47-.35s-.42-.13-.7-.13c-.25,0-.47.05-.65.14-.19.09-.34.22-.47.38-.12.16-.22.35-.28.56-.06.21-.09.44-.09.68v3.7Z"/>
      <path d="M147.5,67.32c.04.45.22.83.54,1.12.31.3.72.45,1.2.45.67,0,1.17-.17,1.48-.52.31-.35.47-.86.47-1.56v-.92c-.15.29-.39.54-.73.74s-.74.31-1.22.31c-.43,0-.82-.08-1.18-.23s-.67-.37-.93-.64c-.26-.27-.47-.6-.61-.98-.15-.38-.22-.8-.22-1.25s.07-.84.21-1.22c.14-.38.34-.7.6-.98s.57-.5.92-.66c.36-.16.76-.25,1.2-.25.5,0,.91.09,1.24.27.33.18.57.43.73.74v-.89h1.24v5.92c0,.41-.05.8-.16,1.19s-.29.73-.54,1.02c-.25.3-.58.54-.99.72-.41.18-.91.27-1.52.27-.4,0-.77-.06-1.11-.18-.34-.12-.64-.29-.9-.5s-.47-.46-.64-.75c-.16-.29-.26-.6-.3-.95l1.21-.28ZM149.43,65.9c.54,0,.98-.19,1.32-.56.34-.37.51-.87.51-1.49s-.17-1.12-.51-1.49c-.34-.37-.78-.56-1.32-.56s-1.01.19-1.34.56c-.34.37-.51.87-.51,1.49s.17,1.13.5,1.5c.33.37.78.55,1.35.55Z"/>
      <path d="M104.61,80.55v-9.43h5.73v1.21h-4.43v2.9h4.01v1.22h-4.01v2.88h4.43v1.21h-5.73Z"/>
      <path d="M114.82,80.55h-1.26l-2.59-6.39h1.41l1.82,4.93,1.83-4.93h1.34l-2.55,6.39Z"/>
      <path d="M123.87,78.73c-.09.28-.22.55-.39.79-.17.24-.38.46-.63.64-.24.18-.52.33-.83.43-.31.11-.65.16-1.02.16-.43,0-.83-.08-1.22-.23s-.73-.37-1.03-.66c-.3-.29-.53-.65-.7-1.08-.17-.43-.26-.91-.26-1.45,0-.51.08-.96.25-1.38s.39-.77.67-1.06c.28-.3.6-.53.98-.69.37-.16.76-.25,1.16-.25.49,0,.92.08,1.31.25s.71.39.96.68c.26.29.45.64.59,1.06.14.41.21.87.21,1.36,0,.08,0,.16,0,.23s-.01.13-.02.17h-4.81c0,.28.06.55.16.78.1.24.23.45.41.62s.38.31.61.4c.23.09.48.14.75.14.52,0,.92-.12,1.2-.37s.47-.55.6-.92l1.08.37ZM122.61,76.7c-.02-.46-.17-.85-.47-1.16-.29-.31-.72-.47-1.29-.47-.27,0-.5.05-.71.14-.21.09-.39.22-.53.37-.15.16-.26.33-.35.53-.09.2-.14.39-.15.6h3.5Z"/>
      <path d="M126.63,80.55h-1.25v-6.39h1.22v.92c.23-.4.52-.68.88-.85.35-.17.72-.25,1.09-.25s.72.06,1,.19c.29.13.53.31.72.53.19.23.33.49.43.8s.14.64.14,1v4.05h-1.25v-3.84c0-.22-.02-.43-.07-.62s-.13-.37-.25-.51c-.12-.15-.27-.26-.47-.35s-.42-.13-.7-.13c-.25,0-.47.05-.65.14-.19.09-.34.22-.47.38-.12.16-.22.35-.28.56-.06.21-.09.44-.09.68v3.7Z"/>
      <path d="M134.36,74.16h1.38v1.13h-1.38v3.32c0,.29.07.51.2.66.13.15.36.22.69.22.08,0,.17,0,.27-.01.1,0,.17-.02.23-.04v1.06c-.05.02-.16.04-.31.07-.15.03-.33.05-.55.05-.55,0-.98-.16-1.3-.47-.32-.31-.48-.76-.48-1.35v-3.51h-1.22v-1.13h.35c.35,0,.6-.09.75-.28s.23-.42.23-.7v-1.04h1.14v2.02Z"/>
    </g>
  </g>
  <g>
    <path class="cls-6" d="M631.47,95.26h-102.22v-52.06h102.22v52.06ZM530.08,94.43h100.56v-50.4h-100.56v50.4Z"/>
    <rect x="529.25" y="82.4" width=".83" height="78.42"/>
    <g>
      <path d="M552.28,64.62h-4.17l-1,2.63h-1.4l3.75-9.43h1.5l3.75,9.43h-1.41l-1.02-2.63ZM548.57,63.41h3.24l-1.64-4.23-1.61,4.23Z"/>
      <path d="M560.24,66.29c-.15.31-.39.58-.72.8s-.75.34-1.26.34c-.47,0-.89-.09-1.26-.26-.37-.17-.69-.41-.95-.72-.26-.31-.46-.66-.6-1.08-.14-.41-.21-.86-.21-1.34,0-.45.07-.88.22-1.28.15-.4.35-.76.62-1.06.27-.31.58-.55.96-.73.37-.18.78-.27,1.24-.27.28,0,.53.03.75.09.22.06.41.14.56.25s.29.22.4.35.19.26.24.39v-4.14h1.24v8.44c0,.31,0,.57.03.78.02.21.03.35.04.4h-1.21c-.02-.07-.03-.18-.05-.34-.01-.16-.02-.33-.02-.53v-.11ZM556.5,64.04c0,.33.04.63.13.91.08.28.21.52.37.72s.35.36.58.48c.23.12.5.17.8.17.28,0,.54-.06.77-.18.23-.12.43-.28.58-.49.16-.2.28-.45.37-.73.08-.28.13-.59.13-.92,0-.66-.16-1.2-.48-1.61-.32-.41-.77-.61-1.35-.61-.28,0-.54.06-.78.17s-.43.27-.6.47c-.16.2-.29.44-.38.71-.09.28-.13.58-.13.9Z"/>
      <path d="M566.41,67.26h-1.26l-2.59-6.39h1.41l1.82,4.93,1.83-4.93h1.34l-2.55,6.39Z"/>
      <path d="M575.46,65.44c-.09.28-.22.55-.39.79-.17.24-.38.46-.62.64-.24.18-.52.33-.83.43-.31.11-.65.16-1.02.16-.43,0-.83-.08-1.22-.23s-.73-.37-1.03-.66c-.3-.29-.53-.65-.7-1.08-.17-.43-.26-.91-.26-1.45,0-.51.08-.96.25-1.38.17-.41.39-.77.67-1.06.28-.3.6-.53.98-.69.37-.16.76-.25,1.16-.25.49,0,.92.08,1.31.25s.71.39.96.68c.26.29.45.64.59,1.06s.21.87.21,1.36c0,.08,0,.16,0,.23s-.01.13-.02.17h-4.81c0,.28.06.55.16.78.1.24.23.45.41.62.17.17.38.31.61.4.23.09.49.14.75.14.52,0,.92-.12,1.2-.37.27-.25.47-.55.6-.92l1.08.37ZM574.19,63.4c-.02-.46-.17-.85-.47-1.16-.29-.31-.72-.47-1.29-.47-.27,0-.5.05-.71.14-.21.09-.39.22-.53.37-.15.16-.26.33-.35.53-.09.2-.14.39-.15.6h3.5Z"/>
      <path d="M580.52,62.13c-.19-.03-.37-.04-.55-.04-.52,0-.95.15-1.27.46-.32.31-.48.81-.48,1.51v3.2h-1.25v-6.39h1.22v1.12c.11-.25.25-.45.41-.6s.32-.28.49-.37c.17-.09.34-.16.52-.19.18-.04.35-.05.51-.05.09,0,.17,0,.25.01s.13.02.17.03v1.33Z"/>
      <path d="M583.76,60.86h1.38v1.13h-1.38v3.32c0,.29.07.51.2.66.13.15.36.22.69.22.08,0,.17,0,.27-.01.1,0,.17-.02.23-.04v1.06c-.05.02-.16.04-.31.07-.15.03-.33.05-.55.05-.55,0-.98-.16-1.3-.47-.32-.31-.48-.76-.48-1.35v-3.51h-1.22v-1.13h.35c.35,0,.6-.09.75-.28s.23-.42.23-.7v-1.04h1.14v2.02Z"/>
      <path d="M586.2,58.44c0-.26.09-.47.26-.65.17-.17.38-.26.63-.26s.47.09.64.26c.17.17.26.39.26.65s-.09.46-.26.63c-.17.17-.39.26-.64.26s-.46-.09-.63-.26c-.17-.17-.26-.38-.26-.63ZM586.48,67.26v-6.39h1.24v6.39h-1.24Z"/>
      <path d="M590.21,65.2c.04.34.19.62.44.85.25.23.6.35,1.05.35.35,0,.63-.08.81-.25.19-.17.28-.37.28-.6,0-.2-.07-.38-.21-.52-.14-.14-.35-.24-.61-.31l-1.09-.24c-.51-.11-.9-.32-1.18-.64-.28-.32-.42-.7-.42-1.16,0-.27.06-.53.18-.78.12-.24.28-.46.49-.64.2-.19.45-.33.72-.44s.57-.16.88-.16c.43,0,.8.06,1.1.19.3.12.54.28.73.46.19.18.33.37.42.57.09.19.16.36.19.51l-1.1.41c-.02-.08-.05-.18-.09-.31-.04-.12-.11-.24-.21-.35-.1-.11-.23-.21-.4-.29-.17-.08-.38-.12-.62-.12-.32,0-.58.09-.77.26-.19.17-.29.37-.29.59,0,.41.24.66.73.77l1.04.23c.58.12,1.03.35,1.32.68.3.33.45.74.45,1.22,0,.23-.05.46-.15.69-.1.23-.24.44-.43.64s-.43.35-.72.47c-.29.12-.64.18-1.04.18-.44,0-.82-.06-1.14-.19-.31-.12-.58-.28-.78-.46-.21-.19-.37-.39-.48-.6s-.18-.42-.21-.6l1.13-.4Z"/>
      <path d="M595.25,58.44c0-.26.09-.47.26-.65.17-.17.38-.26.63-.26s.47.09.65.26c.17.17.26.39.26.65s-.09.46-.26.63c-.17.17-.39.26-.65.26s-.46-.09-.63-.26c-.17-.17-.26-.38-.26-.63ZM595.52,67.26v-6.39h1.24v6.39h-1.24Z"/>
      <path d="M599.9,67.26h-1.25v-6.39h1.22v.92c.23-.4.52-.68.88-.85.35-.17.72-.25,1.09-.25s.72.06,1,.19c.29.13.53.31.72.53.19.23.33.49.43.8.09.31.14.64.14,1v4.05h-1.25v-3.84c0-.22-.02-.43-.07-.62-.05-.19-.13-.37-.25-.51-.12-.15-.28-.26-.47-.35-.19-.08-.42-.13-.7-.13-.25,0-.47.05-.65.14-.19.09-.34.22-.47.38s-.22.35-.28.56c-.06.21-.09.44-.09.68v3.7Z"/>
      <path d="M606.7,67.32c.04.45.22.83.54,1.12.31.3.72.45,1.2.45.67,0,1.17-.17,1.48-.52.31-.35.47-.86.47-1.56v-.92c-.15.29-.39.54-.73.74-.34.2-.74.31-1.22.31-.43,0-.82-.08-1.18-.23s-.67-.37-.93-.64c-.26-.27-.46-.6-.61-.98-.15-.38-.22-.8-.22-1.25s.07-.84.21-1.22c.14-.38.34-.7.6-.98.26-.28.56-.5.92-.66.36-.16.76-.25,1.2-.25.5,0,.91.09,1.24.27.33.18.57.43.73.74v-.89h1.24v5.92c0,.41-.05.8-.16,1.19s-.29.73-.54,1.02c-.25.3-.58.54-.99.72-.41.18-.91.27-1.52.27-.4,0-.77-.06-1.11-.18-.34-.12-.64-.29-.9-.5-.26-.21-.47-.46-.64-.75-.16-.29-.26-.6-.3-.95l1.21-.28ZM608.63,65.9c.54,0,.98-.19,1.32-.56.34-.37.51-.87.51-1.49s-.17-1.12-.51-1.49c-.34-.37-.78-.56-1.32-.56s-1.01.19-1.34.56c-.34.37-.51.87-.51,1.49s.17,1.13.5,1.5c.33.37.78.55,1.35.55Z"/>
      <path d="M563.81,80.55v-9.43h5.73v1.21h-4.43v2.9h4.01v1.22h-4.01v2.88h4.43v1.21h-5.73Z"/>
      <path d="M574.02,80.55h-1.26l-2.59-6.39h1.41l1.82,4.93,1.83-4.93h1.34l-2.55,6.39Z"/>
      <path d="M583.07,78.73c-.09.28-.22.55-.39.79-.17.24-.38.46-.62.64-.24.18-.52.33-.83.43-.31.11-.65.16-1.02.16-.43,0-.83-.08-1.22-.23s-.73-.37-1.03-.66c-.3-.29-.53-.65-.7-1.08-.17-.43-.26-.91-.26-1.45,0-.51.08-.96.25-1.38.17-.41.39-.77.67-1.06.28-.3.6-.53.98-.69.37-.16.76-.25,1.16-.25.49,0,.92.08,1.31.25s.71.39.96.68c.26.29.45.64.59,1.06s.21.87.21,1.36c0,.08,0,.16,0,.23s-.01.13-.02.17h-4.81c0,.28.06.55.16.78.1.24.23.45.41.62.17.17.38.31.61.4.23.09.49.14.75.14.52,0,.92-.12,1.2-.37.27-.25.47-.55.6-.92l1.08.37ZM581.81,76.7c-.02-.46-.17-.85-.47-1.16-.29-.31-.72-.47-1.29-.47-.27,0-.5.05-.71.14-.21.09-.39.22-.53.37-.15.16-.26.33-.35.53-.09.2-.14.39-.15.6h3.5Z"/>
      <path d="M585.83,80.55h-1.25v-6.39h1.22v.92c.23-.4.52-.68.88-.85.35-.17.72-.25,1.09-.25s.72.06,1,.19c.29.13.53.31.72.53.19.23.33.49.43.8.09.31.14.64.14,1v4.05h-1.25v-3.84c0-.22-.02-.43-.07-.62-.05-.19-.13-.37-.25-.51-.12-.15-.28-.26-.47-.35-.19-.08-.42-.13-.7-.13-.25,0-.47.05-.65.14-.19.09-.34.22-.47.38s-.22.35-.28.56c-.06.21-.09.44-.09.68v3.7Z"/>
      <path d="M593.56,74.16h1.38v1.13h-1.38v3.32c0,.29.07.51.2.66.13.15.36.22.69.22.08,0,.17,0,.27-.01.1,0,.17-.02.23-.04v1.06c-.05.02-.16.04-.31.07-.15.03-.33.05-.55.05-.55,0-.98-.16-1.3-.47-.32-.31-.48-.76-.48-1.35v-3.51h-1.22v-1.13h.35c.35,0,.6-.09.75-.28s.23-.42.23-.7v-1.04h1.14v2.02Z"/>
    </g>
  </g>
  <g>
    <path d="M402.28,95.47h-102.63v-52.48h102.63v52.48ZM300.9,94.22h100.14v-49.98h-100.14v49.98Z"/>
    <rect x="299.65" y="82.4" width=".83" height="78.42"/>
    <g>
      <path d="M322.88,64.62h-4.17l-1,2.63h-1.4l3.75-9.43h1.5l3.75,9.43h-1.41l-1.02-2.63ZM319.17,63.41h3.24l-1.64-4.23-1.61,4.23Z"/>
      <path d="M330.85,66.29c-.15.31-.39.58-.72.8s-.75.34-1.26.34c-.47,0-.89-.09-1.26-.26s-.69-.41-.95-.72c-.26-.31-.46-.66-.6-1.08-.14-.41-.21-.86-.21-1.34,0-.45.07-.88.22-1.28.15-.4.35-.76.62-1.06s.58-.55.96-.73.78-.27,1.24-.27c.28,0,.53.03.75.09.22.06.41.14.56.25.16.1.29.22.4.35s.19.26.24.39v-4.14h1.24v8.44c0,.31,0,.57.03.78.02.21.03.35.04.4h-1.21c-.02-.07-.03-.18-.05-.34s-.02-.33-.02-.53v-.11ZM327.11,64.04c0,.33.04.63.13.91.08.28.21.52.37.72.16.2.35.36.58.48.23.12.5.17.8.17.28,0,.54-.06.77-.18.23-.12.43-.28.58-.49.16-.2.28-.45.37-.73.08-.28.13-.59.13-.92,0-.66-.16-1.2-.49-1.61s-.77-.61-1.35-.61c-.28,0-.54.06-.78.17-.23.11-.43.27-.6.47-.16.2-.29.44-.38.71-.09.28-.13.58-.13.9Z"/>
      <path d="M337.02,67.26h-1.26l-2.59-6.39h1.41l1.82,4.93,1.83-4.93h1.34l-2.55,6.39Z"/>
      <path d="M346.06,65.44c-.09.28-.22.55-.39.79-.17.24-.38.46-.62.64-.24.18-.52.33-.83.43-.31.11-.65.16-1.02.16-.43,0-.83-.08-1.22-.23s-.73-.37-1.03-.66-.53-.65-.7-1.08c-.17-.43-.26-.91-.26-1.45,0-.51.08-.96.25-1.38.17-.41.39-.77.67-1.06.28-.3.6-.53.98-.69s.76-.25,1.16-.25c.49,0,.92.08,1.31.25s.71.39.96.68c.26.29.45.64.59,1.06.14.41.21.87.21,1.36,0,.08,0,.16,0,.23s-.01.13-.02.17h-4.81c0,.28.06.55.16.78.1.24.23.45.41.62.17.17.38.31.61.4.23.09.49.14.75.14.52,0,.92-.12,1.2-.37.27-.25.47-.55.6-.92l1.08.37ZM344.8,63.4c-.02-.46-.17-.85-.47-1.16s-.72-.47-1.29-.47c-.27,0-.5.05-.71.14-.21.09-.39.22-.53.37-.15.16-.26.33-.35.53-.09.2-.14.39-.15.6h3.5Z"/>
      <path d="M351.13,62.13c-.19-.03-.37-.04-.54-.04-.52,0-.95.15-1.27.46s-.49.81-.49,1.51v3.2h-1.25v-6.39h1.22v1.12c.12-.25.25-.45.41-.6s.32-.28.49-.37c.17-.09.34-.16.52-.19.18-.04.35-.05.51-.05.09,0,.17,0,.25.01s.13.02.17.03v1.33Z"/>
      <path d="M354.37,60.86h1.38v1.13h-1.38v3.32c0,.29.07.51.2.66.13.15.36.22.69.22.08,0,.17,0,.27-.01.1,0,.17-.02.23-.04v1.06c-.05.02-.16.04-.31.07-.15.03-.33.05-.55.05-.55,0-.98-.16-1.3-.47-.32-.31-.48-.76-.48-1.35v-3.51h-1.22v-1.13h.35c.35,0,.6-.09.75-.28s.23-.42.23-.7v-1.04h1.14v2.02Z"/>
      <path d="M356.81,58.44c0-.26.09-.47.26-.65.17-.17.38-.26.63-.26s.47.09.64.26c.17.17.26.39.26.65s-.09.46-.26.63c-.17.17-.39.26-.64.26s-.46-.09-.63-.26c-.17-.17-.26-.38-.26-.63ZM357.09,67.26v-6.39h1.24v6.39h-1.24Z"/>
      <path d="M360.82,65.2c.04.34.19.62.44.85.25.23.6.35,1.05.35.35,0,.62-.08.81-.25.19-.17.28-.37.28-.6,0-.2-.07-.38-.21-.52-.14-.14-.35-.24-.61-.31l-1.09-.24c-.51-.11-.9-.32-1.18-.64-.28-.32-.42-.7-.42-1.16,0-.27.06-.53.18-.78.12-.24.28-.46.49-.64.2-.19.45-.33.72-.44s.57-.16.88-.16c.43,0,.8.06,1.1.19s.54.28.72.46c.19.18.33.37.42.57.09.19.16.36.19.51l-1.1.41c-.02-.08-.05-.18-.09-.31s-.12-.24-.21-.35c-.1-.11-.23-.21-.4-.29s-.38-.12-.62-.12c-.32,0-.58.09-.77.26-.19.17-.29.37-.29.59,0,.41.24.66.73.77l1.04.23c.58.12,1.03.35,1.32.68.3.33.45.74.45,1.22,0,.23-.05.46-.15.69-.1.23-.24.44-.43.64-.19.19-.43.35-.72.47-.29.12-.64.18-1.04.18-.44,0-.82-.06-1.14-.19-.31-.12-.58-.28-.78-.46-.21-.19-.37-.39-.48-.6-.11-.22-.18-.42-.21-.6l1.13-.4Z"/>
      <path d="M365.85,58.44c0-.26.09-.47.26-.65.17-.17.38-.26.63-.26s.47.09.64.26c.17.17.26.39.26.65s-.09.46-.26.63c-.17.17-.39.26-.64.26s-.46-.09-.63-.26c-.17-.17-.26-.38-.26-.63ZM366.13,67.26v-6.39h1.24v6.39h-1.24Z"/>
      <path d="M370.51,67.26h-1.25v-6.39h1.22v.92c.23-.4.52-.68.88-.85.35-.17.72-.25,1.09-.25s.72.06,1,.19c.29.13.53.31.72.53.19.23.33.49.43.8.09.31.14.64.14,1v4.05h-1.25v-3.84c0-.22-.02-.43-.07-.62-.05-.19-.13-.37-.25-.51-.12-.15-.27-.26-.47-.35-.19-.08-.42-.13-.7-.13-.25,0-.47.05-.65.14-.19.09-.34.22-.47.38-.12.16-.22.35-.28.56-.06.21-.09.44-.09.68v3.7Z"/>
      <path d="M377.31,67.32c.04.45.22.83.54,1.12.31.3.72.45,1.2.45.67,0,1.17-.17,1.48-.52.31-.35.47-.86.47-1.56v-.92c-.15.29-.39.54-.73.74-.34.2-.74.31-1.22.31-.43,0-.82-.08-1.18-.23s-.67-.37-.93-.64c-.26-.27-.47-.6-.61-.98s-.22-.8-.22-1.25.07-.84.21-1.22c.14-.38.34-.7.6-.98.26-.28.57-.5.92-.66.36-.16.76-.25,1.2-.25.5,0,.91.09,1.24.27.33.18.57.43.73.74v-.89h1.24v5.92c0,.41-.05.8-.16,1.19s-.29.73-.54,1.02c-.25.3-.58.54-.99.72-.41.18-.91.27-1.52.27-.4,0-.77-.06-1.11-.18s-.64-.29-.9-.5c-.26-.21-.47-.46-.64-.75-.16-.29-.26-.6-.3-.95l1.21-.28ZM379.24,65.9c.54,0,.98-.19,1.32-.56.34-.37.51-.87.51-1.49s-.17-1.12-.51-1.49c-.34-.37-.78-.56-1.32-.56s-1.01.19-1.34.56c-.34.37-.51.87-.51,1.49s.17,1.13.5,1.5c.33.37.78.55,1.35.55Z"/>
      <path d="M334.42,80.55v-9.43h5.73v1.21h-4.43v2.9h4.01v1.22h-4.01v2.88h4.43v1.21h-5.73Z"/>
      <path d="M344.63,80.55h-1.26l-2.59-6.39h1.41l1.82,4.93,1.83-4.93h1.34l-2.55,6.39Z"/>
      <path d="M353.68,78.73c-.09.28-.22.55-.39.79-.17.24-.38.46-.62.64-.24.18-.52.33-.83.43-.31.11-.65.16-1.02.16-.43,0-.83-.08-1.22-.23s-.73-.37-1.03-.66-.53-.65-.7-1.08c-.17-.43-.26-.91-.26-1.45,0-.51.08-.96.25-1.38.17-.41.39-.77.67-1.06.28-.3.6-.53.98-.69s.76-.25,1.16-.25c.49,0,.92.08,1.31.25s.71.39.96.68c.26.29.45.64.59,1.06.14.41.21.87.21,1.36,0,.08,0,.16,0,.23s-.01.13-.02.17h-4.81c0,.28.06.55.16.78.1.24.23.45.41.62.17.17.38.31.61.4.23.09.49.14.75.14.52,0,.92-.12,1.2-.37.27-.25.47-.55.6-.92l1.08.37ZM352.42,76.7c-.02-.46-.17-.85-.47-1.16s-.72-.47-1.29-.47c-.27,0-.5.05-.71.14-.21.09-.39.22-.53.37-.15.16-.26.33-.35.53-.09.2-.14.39-.15.6h3.5Z"/>
      <path d="M356.44,80.55h-1.25v-6.39h1.22v.92c.23-.4.52-.68.88-.85.35-.17.72-.25,1.09-.25s.72.06,1,.19c.29.13.53.31.72.53.19.23.33.49.43.8.09.31.14.64.14,1v4.05h-1.25v-3.84c0-.22-.02-.43-.07-.62-.05-.19-.13-.37-.25-.51-.12-.15-.27-.26-.47-.35-.19-.08-.42-.13-.7-.13-.25,0-.47.05-.65.14-.19.09-.34.22-.47.38-.12.16-.22.35-.28.56-.06.21-.09.44-.09.68v3.7Z"/>
      <path d="M364.17,74.16h1.38v1.13h-1.38v3.32c0,.29.07.51.2.66.13.15.36.22.69.22.08,0,.17,0,.27-.01.1,0,.17-.02.23-.04v1.06c-.05.02-.16.04-.31.07-.15.03-.33.05-.55.05-.55,0-.98-.16-1.3-.47-.32-.31-.48-.76-.48-1.35v-3.51h-1.22v-1.13h.35c.35,0,.6-.09.75-.28s.23-.42.23-.7v-1.04h1.14v2.02Z"/>
    </g>
  </g>
  <g>
    <g>
      <line class="cls-4" x1="263.53" y1="127.54" x2="263.53" y2="130.54"/>
      <line class="cls-5" x1="263.53" y1="135.52" x2="263.53" y2="149.63"/>
      <line class="cls-4" x1="263.53" y1="152.12" x2="263.53" y2="155.12"/>
      <polygon points="260.72 154.3 263.53 159.16 266.33 154.3 260.72 154.3"/>
    </g>
    <g>
      <line class="cls-3" x1="71.3" y1="160.7" x2="259.49" y2="160.7"/>
      <polygon points="258.67 163.5 263.53 160.7 258.67 157.89 258.67 163.5"/>
    </g>
  </g>
  <g>
    <line class="cls-7" x1="455.32" y1="127.54" x2="455.32" y2="130.54"/>
    <line class="cls-2" x1="455.32" y1="136.45" x2="455.32" y2="153.2"/>
    <line class="cls-7" x1="455.32" y1="156.16" x2="455.32" y2="159.16"/>
  </g>
  <g>
    <line class="cls-3" x1="301.11" y1="160.7" x2="451.28" y2="160.7"/>
    <polygon points="450.46 163.5 455.32 160.7 450.46 157.89 450.46 163.5"/>
  </g>
  <g>
    <line class="cls-3" x1="263.53" y1="160.7" x2="297.07" y2="160.7"/>
    <polygon points="296.25 163.5 301.11 160.7 296.25 157.89 296.25 163.5"/>
  </g>
  <g>
    <line class="cls-3" x1="455.32" y1="160.7" x2="525.63" y2="160.7"/>
    <polygon points="524.81 163.5 529.67 160.7 524.81 157.89 524.81 163.5"/>
  </g>
  <g>
    <line x1="71.3" y1="217.29" x2="71.3" y2="179.71"/>
    <g>
      <line class="cls-3" x1="71.3" y1="217.29" x2="71.3" y2="183.75"/>
      <polygon points="74.1 184.57 71.3 179.71 68.49 184.57 74.1 184.57"/>
    </g>
  </g>
  <g>
    <path d="M466.39,176.29c0-.23.04-.43.12-.62.08-.18.19-.34.33-.47.14-.13.31-.23.5-.31s.4-.14.62-.17l1.39-.2c.16-.02.26-.07.32-.14.05-.07.08-.15.08-.25,0-.25-.09-.47-.26-.65s-.46-.27-.85-.27c-.36,0-.63.1-.83.29-.19.2-.31.44-.34.74l-.96-.22c.03-.24.1-.47.22-.67.12-.21.27-.38.46-.53.19-.15.4-.26.65-.34s.51-.12.79-.12c.38,0,.71.05.98.16.27.1.49.24.66.41.17.17.3.37.38.6.08.23.12.47.12.72v2.58c0,.23,0,.41.02.55.01.14.03.24.04.3h-.98c-.01-.06-.03-.15-.04-.26-.01-.11-.02-.25-.02-.44-.06.09-.13.19-.22.29-.09.1-.21.19-.34.28-.14.09-.29.16-.48.21-.18.05-.39.08-.62.08-.26,0-.5-.04-.71-.13-.21-.09-.39-.2-.54-.34-.15-.14-.27-.3-.35-.49-.08-.19-.12-.38-.12-.59ZM468.25,176.99c.21,0,.4-.03.58-.08.18-.05.34-.14.47-.26s.24-.27.32-.47c.08-.2.12-.43.12-.71v-.24l-1.57.24c-.21.04-.39.12-.54.24-.14.12-.21.3-.21.53,0,.19.07.37.22.52.15.15.35.23.61.23Z"/>
    <path d="M475.94,176.89c-.12.25-.32.47-.58.65-.27.18-.6.27-1.01.27-.38,0-.72-.07-1.02-.21-.3-.14-.56-.33-.77-.58-.21-.25-.37-.54-.49-.87s-.17-.69-.17-1.08c0-.36.06-.71.18-1.03.12-.32.28-.61.5-.86.21-.25.47-.44.77-.59.3-.15.63-.22,1-.22.23,0,.43.02.61.07.17.05.33.12.46.2.13.08.24.17.32.28.08.1.15.21.19.32v-3.33h1v6.8c0,.25,0,.46.02.63.01.17.02.28.03.32h-.97c-.01-.06-.03-.15-.04-.27s-.02-.27-.02-.42v-.09ZM472.93,175.08c0,.26.03.51.1.73.07.22.17.42.29.58.13.16.29.29.47.39s.4.14.64.14c.23,0,.44-.05.62-.14s.34-.23.47-.39c.13-.16.23-.36.29-.59.07-.23.1-.47.1-.74,0-.54-.13-.97-.39-1.3-.26-.33-.62-.49-1.09-.49-.23,0-.44.04-.63.13-.19.09-.35.21-.48.37s-.23.35-.3.57c-.07.22-.11.46-.11.73Z"/>
    <path d="M481,177.67h-1.02l-2.09-5.15h1.13l1.47,3.97,1.48-3.97h1.08l-2.06,5.15Z"/>
    <path d="M484.1,177.67v-7.59h2.66c.48,0,.94.08,1.38.25.44.16.82.41,1.15.73.33.32.59.72.79,1.19s.29,1.02.29,1.64-.1,1.17-.29,1.64c-.2.47-.46.87-.8,1.18-.33.32-.72.56-1.16.72-.44.16-.9.24-1.38.24h-2.63ZM486.7,176.74c.35,0,.68-.06,1-.18.31-.12.59-.29.82-.53s.42-.53.56-.89.2-.77.2-1.25-.07-.9-.2-1.26-.32-.66-.55-.9c-.23-.24-.5-.42-.81-.54-.31-.12-.64-.18-.99-.18h-1.57v5.73h1.55Z"/>
    <path d="M496.27,176.21c-.07.23-.18.44-.32.64-.14.2-.31.37-.5.51-.2.15-.42.26-.67.35-.25.09-.52.13-.82.13-.34,0-.67-.06-.99-.18-.31-.12-.59-.3-.83-.54-.24-.24-.43-.52-.57-.87-.14-.34-.21-.73-.21-1.17,0-.41.07-.78.2-1.11s.32-.62.54-.86c.22-.24.49-.42.79-.56.3-.13.61-.2.93-.2.39,0,.74.07,1.05.2.31.13.57.32.78.55.21.24.37.52.48.85s.17.7.17,1.1c0,.06,0,.12,0,.18,0,.06,0,.1-.02.14h-3.88c0,.23.05.44.13.63.08.19.19.36.33.5s.3.25.49.32c.19.07.39.11.61.11.42,0,.74-.1.96-.3.22-.2.38-.45.48-.74l.87.3ZM495.26,174.57c-.01-.37-.14-.68-.37-.94-.24-.25-.58-.38-1.04-.38-.21,0-.41.04-.57.11-.17.08-.31.17-.43.3s-.21.27-.28.42c-.07.16-.11.32-.12.48h2.82Z"/>
    <path d="M497.59,177.67v-7.75h1.01v7.75h-1.01Z"/>
    <path d="M499.94,176.29c0-.23.04-.43.12-.62.08-.18.19-.34.33-.47.14-.13.31-.23.5-.31s.4-.14.62-.17l1.39-.2c.16-.02.26-.07.32-.14.05-.07.08-.15.08-.25,0-.25-.09-.47-.26-.65s-.46-.27-.85-.27c-.36,0-.63.1-.83.29-.19.2-.31.44-.34.74l-.96-.22c.03-.24.1-.47.22-.67.12-.21.27-.38.46-.53.19-.15.4-.26.65-.34s.51-.12.79-.12c.38,0,.71.05.98.16.27.1.49.24.66.41.17.17.3.37.38.6.08.23.12.47.12.72v2.58c0,.23,0,.41.02.55.01.14.03.24.04.3h-.98c-.01-.06-.03-.15-.04-.26-.01-.11-.02-.25-.02-.44-.06.09-.13.19-.22.29-.09.1-.21.19-.34.28-.14.09-.29.16-.48.21-.18.05-.39.08-.62.08-.26,0-.5-.04-.71-.13-.21-.09-.39-.2-.54-.34-.15-.14-.27-.3-.35-.49-.08-.19-.12-.38-.12-.59ZM501.8,176.99c.21,0,.4-.03.58-.08.18-.05.34-.14.47-.26s.24-.27.32-.47c.08-.2.12-.43.12-.71v-.24l-1.57.24c-.21.04-.39.12-.54.24-.14.12-.21.3-.21.53,0,.19.07.37.22.52.15.15.35.23.61.23Z"/>
    <path d="M505.88,179.83l1.29-2.72-2.22-4.58h1.16l1.61,3.55,1.54-3.55h1.08l-3.35,7.3h-1.1Z"/>
  </g>
  <g>
    <path d="M160.22,153.86c0-.23.04-.43.12-.62.08-.18.19-.34.33-.47.14-.13.31-.23.5-.31s.4-.14.62-.17l1.39-.2c.16-.02.26-.07.32-.14.05-.07.08-.15.08-.25,0-.25-.09-.47-.26-.65s-.46-.27-.85-.27c-.36,0-.63.1-.83.29-.19.2-.31.44-.34.74l-.96-.22c.03-.24.1-.47.22-.67.12-.21.27-.38.46-.53.19-.15.4-.26.65-.34s.51-.12.79-.12c.38,0,.71.05.98.16.27.1.49.24.66.41.17.17.3.37.38.6.08.23.12.47.12.72v2.58c0,.23,0,.41.02.55.01.14.03.24.04.3h-.98c-.01-.06-.03-.15-.04-.26-.01-.11-.02-.25-.02-.44-.06.09-.13.19-.22.29-.09.1-.21.19-.34.28-.14.09-.29.16-.48.21-.18.05-.39.08-.62.08-.26,0-.5-.04-.71-.13-.21-.09-.39-.2-.54-.34-.15-.14-.27-.3-.35-.49-.08-.19-.12-.38-.12-.59ZM162.08,154.55c.21,0,.4-.03.58-.08.18-.05.34-.14.47-.26s.24-.27.32-.47c.08-.2.12-.43.12-.71v-.24l-1.57.24c-.21.04-.39.12-.54.24-.14.12-.21.3-.21.53,0,.19.07.37.22.52.15.15.35.23.61.23Z"/>
    <path d="M169.77,154.46c-.12.25-.32.47-.58.65-.27.18-.6.27-1.01.27-.38,0-.72-.07-1.02-.21-.3-.14-.56-.33-.77-.58-.21-.25-.37-.54-.49-.87s-.17-.69-.17-1.08c0-.36.06-.71.18-1.03.12-.32.28-.61.5-.86.21-.25.47-.44.77-.59.3-.15.63-.22,1-.22.23,0,.43.02.61.07.17.05.33.12.46.2.13.08.24.17.32.28.08.1.15.21.19.32v-3.33h1v6.8c0,.25,0,.46.02.63.01.17.02.28.03.32h-.97c-.01-.06-.03-.15-.04-.27s-.02-.27-.02-.42v-.09ZM166.76,152.65c0,.26.03.51.1.73.07.22.17.42.29.58.13.16.29.29.47.39s.4.14.64.14c.23,0,.44-.05.62-.14s.34-.23.47-.39c.13-.16.23-.36.29-.59.07-.23.1-.47.1-.74,0-.54-.13-.97-.39-1.3-.26-.33-.62-.49-1.09-.49-.23,0-.44.04-.63.13-.19.09-.35.21-.48.37s-.23.35-.3.57c-.07.22-.11.46-.11.73Z"/>
    <path d="M174.82,155.24h-1.02l-2.09-5.15h1.13l1.47,3.97,1.48-3.97h1.08l-2.06,5.15Z"/>
    <path d="M177.93,155.24v-7.59h1.07v7.59h-1.07Z"/>
    <path d="M181.77,155.24h-1.01v-5.15h.99v.74c.19-.32.42-.55.71-.69.29-.14.58-.2.88-.2s.58.05.81.16c.23.1.42.25.58.43s.27.4.34.65c.08.25.11.52.11.8v3.27h-1.01v-3.09c0-.18-.02-.35-.06-.5-.04-.16-.11-.29-.2-.41s-.22-.21-.38-.28-.34-.1-.56-.1c-.2,0-.38.04-.53.11s-.27.18-.37.31c-.1.13-.17.28-.23.45-.05.17-.07.35-.07.55v2.98Z"/>
    <path d="M188.09,150.09h1.11v.91h-1.11v2.68c0,.24.05.41.16.53s.29.18.56.18c.06,0,.14,0,.21-.01.08,0,.14-.02.18-.03v.86s-.12.03-.25.06c-.12.02-.27.04-.44.04-.44,0-.79-.13-1.05-.38s-.39-.62-.39-1.09v-2.83h-.99v-.91h.28c.28,0,.48-.08.61-.23s.19-.34.19-.57v-.83h.92v1.63Z"/>
    <path d="M194.87,153.77c-.07.23-.18.44-.32.64-.14.2-.31.37-.5.51-.2.15-.42.26-.67.35-.25.09-.52.13-.82.13-.34,0-.67-.06-.99-.18-.31-.12-.59-.3-.83-.54-.24-.24-.43-.52-.57-.87-.14-.34-.21-.73-.21-1.17,0-.41.07-.78.2-1.11s.32-.62.54-.86c.22-.24.49-.42.79-.56.3-.13.61-.2.93-.2.39,0,.74.07,1.05.2.31.13.57.32.78.55.21.24.37.52.48.85s.17.7.17,1.1c0,.06,0,.12,0,.18,0,.06,0,.1-.02.14h-3.88c0,.23.05.44.13.63.08.19.19.36.33.5s.3.25.49.32c.19.07.39.11.61.11.42,0,.74-.1.96-.3.22-.2.38-.45.48-.74l.87.3ZM193.85,152.13c-.01-.37-.14-.68-.37-.94-.24-.25-.58-.38-1.04-.38-.21,0-.41.04-.57.11-.17.08-.31.17-.43.3s-.21.27-.28.42c-.07.16-.11.32-.12.48h2.82Z"/>
    <path d="M199.03,151.11c-.15-.02-.3-.03-.44-.03-.42,0-.76.12-1.02.37-.26.25-.39.65-.39,1.21v2.58h-1.01v-5.15h.99v.9c.09-.2.2-.36.33-.49s.25-.23.39-.3c.14-.08.28-.13.42-.16.14-.03.28-.04.41-.04.07,0,.14,0,.2.01.06,0,.11.01.13.02v1.07Z"/>
    <path d="M202.78,155.24h-1.02l-2.09-5.15h1.13l1.47,3.97,1.48-3.97h1.08l-2.06,5.15Z"/>
    <path d="M205.37,153.86c0-.23.04-.43.12-.62.08-.18.19-.34.33-.47.14-.13.31-.23.5-.31s.4-.14.62-.17l1.39-.2c.16-.02.26-.07.32-.14.05-.07.08-.15.08-.25,0-.25-.09-.47-.26-.65s-.46-.27-.85-.27c-.36,0-.63.1-.83.29-.19.2-.31.44-.34.74l-.96-.22c.03-.24.1-.47.22-.67.12-.21.27-.38.46-.53.19-.15.4-.26.65-.34s.51-.12.79-.12c.38,0,.71.05.98.16.27.1.49.24.66.41.17.17.3.37.38.6.08.23.12.47.12.72v2.58c0,.23,0,.41.02.55.01.14.03.24.04.3h-.98c-.01-.06-.03-.15-.04-.26-.01-.11-.02-.25-.02-.44-.06.09-.13.19-.22.29-.09.1-.21.19-.34.28-.14.09-.29.16-.48.21-.18.05-.39.08-.62.08-.26,0-.5-.04-.71-.13-.21-.09-.39-.2-.54-.34-.15-.14-.27-.3-.35-.49-.08-.19-.12-.38-.12-.59ZM207.24,154.55c.21,0,.4-.03.58-.08.18-.05.34-.14.47-.26s.24-.27.32-.47c.08-.2.12-.43.12-.71v-.24l-1.57.24c-.21.04-.39.12-.54.24-.14.12-.21.3-.21.53,0,.19.07.37.22.52.15.15.35.23.61.23Z"/>
    <path d="M211.25,155.24v-7.75h1.01v7.75h-1.01Z"/>
  </g>
  <g>
    <path d="M352.44,153.86c0-.23.04-.43.12-.62.08-.18.19-.34.33-.47.14-.13.31-.23.5-.31s.4-.14.62-.17l1.39-.2c.16-.02.26-.07.32-.14.05-.07.08-.15.08-.25,0-.25-.09-.47-.26-.65s-.46-.27-.85-.27c-.36,0-.63.1-.83.29-.19.2-.31.44-.34.74l-.96-.22c.03-.24.1-.47.22-.67.12-.21.27-.38.46-.53.19-.15.4-.26.65-.34s.51-.12.79-.12c.38,0,.71.05.98.16.27.1.49.24.66.41.17.17.3.37.38.6.08.23.12.47.12.72v2.58c0,.23,0,.41.02.55.01.14.03.24.04.3h-.98c-.01-.06-.03-.15-.04-.26-.01-.11-.02-.25-.02-.44-.06.09-.13.19-.22.29-.09.1-.21.19-.34.28-.14.09-.29.16-.48.21-.18.05-.39.08-.62.08-.26,0-.5-.04-.71-.13-.21-.09-.39-.2-.54-.34-.15-.14-.27-.3-.35-.49-.08-.19-.12-.38-.12-.59ZM354.3,154.55c.21,0,.4-.03.58-.08.18-.05.34-.14.47-.26s.24-.27.32-.47c.08-.2.12-.43.12-.71v-.24l-1.57.24c-.21.04-.39.12-.54.24-.14.12-.21.3-.21.53,0,.19.07.37.22.52.15.15.35.23.61.23Z"/>
    <path d="M361.99,154.46c-.12.25-.32.47-.58.65-.27.18-.6.27-1.01.27-.38,0-.72-.07-1.02-.21-.3-.14-.56-.33-.77-.58-.21-.25-.37-.54-.49-.87s-.17-.69-.17-1.08c0-.36.06-.71.18-1.03.12-.32.28-.61.5-.86.21-.25.47-.44.77-.59.3-.15.63-.22,1-.22.23,0,.43.02.61.07.17.05.33.12.46.2.13.08.24.17.32.28.08.1.15.21.19.32v-3.33h1v6.8c0,.25,0,.46.02.63.01.17.02.28.03.32h-.97c-.01-.06-.03-.15-.04-.27s-.02-.27-.02-.42v-.09ZM358.98,152.65c0,.26.03.51.1.73.07.22.17.42.29.58.13.16.29.29.47.39s.4.14.64.14c.23,0,.44-.05.62-.14s.34-.23.47-.39c.13-.16.23-.36.29-.59.07-.23.1-.47.1-.74,0-.54-.13-.97-.39-1.3-.26-.33-.62-.49-1.09-.49-.23,0-.44.04-.63.13-.19.09-.35.21-.48.37s-.23.35-.3.57c-.07.22-.11.46-.11.73Z"/>
    <path d="M367.04,155.24h-1.02l-2.09-5.15h1.13l1.47,3.97,1.48-3.97h1.08l-2.06,5.15Z"/>
    <path d="M370.15,155.24v-7.59h1.07v7.59h-1.07Z"/>
    <path d="M373.99,155.24h-1.01v-5.15h.99v.74c.19-.32.42-.55.71-.69.29-.14.58-.2.88-.2s.58.05.81.16c.23.1.42.25.58.43s.27.4.34.65c.08.25.11.52.11.8v3.27h-1.01v-3.09c0-.18-.02-.35-.06-.5-.04-.16-.11-.29-.2-.41s-.22-.21-.38-.28-.34-.1-.56-.1c-.2,0-.38.04-.53.11s-.27.18-.37.31c-.1.13-.17.28-.23.45-.05.17-.07.35-.07.55v2.98Z"/>
    <path d="M380.31,150.09h1.11v.91h-1.11v2.68c0,.24.05.41.16.53s.29.18.56.18c.06,0,.14,0,.21-.01.08,0,.14-.02.18-.03v.86s-.12.03-.25.06c-.12.02-.27.04-.44.04-.44,0-.79-.13-1.05-.38s-.39-.62-.39-1.09v-2.83h-.99v-.91h.28c.28,0,.48-.08.61-.23s.19-.34.19-.57v-.83h.92v1.63Z"/>
    <path d="M387.09,153.77c-.07.23-.18.44-.32.64-.14.2-.31.37-.5.51-.2.15-.42.26-.67.35-.25.09-.52.13-.82.13-.34,0-.67-.06-.99-.18-.31-.12-.59-.3-.83-.54-.24-.24-.43-.52-.57-.87-.14-.34-.21-.73-.21-1.17,0-.41.07-.78.2-1.11s.32-.62.54-.86c.22-.24.49-.42.79-.56.3-.13.61-.2.93-.2.39,0,.74.07,1.05.2.31.13.57.32.78.55.21.24.37.52.48.85s.17.7.17,1.1c0,.06,0,.12,0,.18,0,.06,0,.1-.02.14h-3.88c0,.23.05.44.13.63.08.19.19.36.33.5s.3.25.49.32c.19.07.39.11.61.11.42,0,.74-.1.96-.3.22-.2.38-.45.48-.74l.87.3ZM386.07,152.13c-.01-.37-.14-.68-.37-.94-.24-.25-.58-.38-1.04-.38-.21,0-.41.04-.57.11-.17.08-.31.17-.43.3s-.21.27-.28.42c-.07.16-.11.32-.12.48h2.82Z"/>
    <path d="M391.25,151.11c-.15-.02-.3-.03-.44-.03-.42,0-.76.12-1.02.37-.26.25-.39.65-.39,1.21v2.58h-1.01v-5.15h.99v.9c.09-.2.2-.36.33-.49s.25-.23.39-.3c.14-.08.28-.13.42-.16.14-.03.28-.04.41-.04.07,0,.14,0,.2.01.06,0,.11.01.13.02v1.07Z"/>
    <path d="M395,155.24h-1.02l-2.09-5.15h1.13l1.47,3.97,1.48-3.97h1.08l-2.06,5.15Z"/>
    <path d="M397.59,153.86c0-.23.04-.43.12-.62.08-.18.19-.34.33-.47.14-.13.31-.23.5-.31s.4-.14.62-.17l1.39-.2c.16-.02.26-.07.32-.14.05-.07.08-.15.08-.25,0-.25-.09-.47-.26-.65s-.46-.27-.85-.27c-.36,0-.63.1-.83.29-.19.2-.31.44-.34.74l-.96-.22c.03-.24.1-.47.22-.67.12-.21.27-.38.46-.53.19-.15.4-.26.65-.34s.51-.12.79-.12c.38,0,.71.05.98.16.27.1.49.24.66.41.17.17.3.37.38.6.08.23.12.47.12.72v2.58c0,.23,0,.41.02.55.01.14.03.24.04.3h-.98c-.01-.06-.03-.15-.04-.26-.01-.11-.02-.25-.02-.44-.06.09-.13.19-.22.29-.09.1-.21.19-.34.28-.14.09-.29.16-.48.21-.18.05-.39.08-.62.08-.26,0-.5-.04-.71-.13-.21-.09-.39-.2-.54-.34-.15-.14-.27-.3-.35-.49-.08-.19-.12-.38-.12-.59ZM399.46,154.55c.21,0,.4-.03.58-.08.18-.05.34-.14.47-.26s.24-.27.32-.47c.08-.2.12-.43.12-.71v-.24l-1.57.24c-.21.04-.39.12-.54.24-.14.12-.21.3-.21.53,0,.19.07.37.22.52.15.15.35.23.61.23Z"/>
    <path d="M403.47,155.24v-7.75h1.01v7.75h-1.01Z"/>
  </g>
  <rect class="cls-1" x="14.78" y="15.23" width="654.43" height="244.12"/>
</svg>