<?xml version="1.0" encoding="UTF-8"?>
<svg id="Layer_1" data-name="Layer 1" xmlns="http://www.w3.org/2000/svg" viewBox="0 0 540 207.29">
  <defs>
    <style>
      .cls-1 {
        stroke: #000;
        stroke-miterlimit: 10;
      }

      .cls-1, .cls-2, .cls-3 {
        fill: none;
      }

      .cls-4 {
        fill: #fff;
      }

      .cls-2 {
        stroke: #94938f;
        stroke-width: .5px;
      }

      .cls-2, .cls-3 {
        stroke-miterlimit: 6;
      }

      .cls-3 {
        stroke: #0082fc;
        stroke-dasharray: 3 6 3 6 3 6;
        stroke-linecap: round;
        stroke-width: .75px;
      }

      .cls-5 {
        fill: #d90000;
      }

      .cls-6 {
        fill: #0082fc;
      }
    </style>
  </defs>
  <line class="cls-1" x1="41.81" y1="187.63" x2="41.81" y2="35.87"/>
  <line class="cls-2" x1="202.84" y1="119.18" x2="202.84" y2="84.92"/>
  <line class="cls-2" x1="150.08" y1="119.18" x2="150.08" y2="84.92"/>
  <g>
    <line class="cls-2" x1="255.6" y1="187.91" x2="255.6" y2="153.66"/>
    <line class="cls-2" x1="202.84" y1="187.91" x2="202.84" y2="153.66"/>
  </g>
  <line class="cls-1" x1="471.12" y1="187.63" x2="471.12" y2="35.93"/>
  <rect class="cls-1" x="48.83" y="126.59" width="44.2" height="44.2"/>
  <rect class="cls-1" x="101.59" y="126.59" width="44.2" height="44.2"/>
  <rect class="cls-1" x="154.36" y="126.59" width="44.2" height="44.2"/>
  <rect class="cls-1" x="207.12" y="126.59" width="44.2" height="44.2"/>
  <rect class="cls-1" x="352.54" y="126.59" width="44.2" height="44.2"/>
  <rect class="cls-1" x="477.23" y="126.59" width="44.2" height="44.2"/>
  <g>
    <line class="cls-3" x1="41.81" y1="65.27" x2="465.19" y2="65.27"/>
    <polygon class="cls-6" points="464.37 68.08 469.23 65.27 464.37 62.47 464.37 68.08"/>
  </g>
  <g>
    <line class="cls-3" x1="255.6" y1="148.69" x2="345.4" y2="148.69"/>
    <polygon class="cls-6" points="344.58 151.49 349.43 148.69 344.58 145.88 344.58 151.49"/>
  </g>
  <line class="cls-3" x1="471.12" y1="65.27" x2="521.43" y2="65.27"/>
  <g>
    <rect class="cls-4" x="175.68" y="57.39" width="109.29" height="15.76"/>
    <g>
      <path d="M178.84,70.27v-6h.52v.84h.06c.06-.13.14-.27.25-.41s.25-.25.43-.35.4-.14.67-.14c.35,0,.67.09.94.28s.48.45.63.79.23.73.23,1.18-.07.85-.22,1.19-.36.6-.63.79-.58.28-.94.28c-.26,0-.48-.05-.66-.14s-.32-.21-.43-.35-.19-.28-.25-.41h-.04v2.45h-.53ZM180.68,68.25c.28,0,.52-.08.72-.24s.35-.37.45-.64.15-.57.15-.91-.05-.63-.15-.9-.25-.48-.45-.63-.44-.23-.73-.23-.52.08-.72.23-.35.36-.45.62-.15.57-.15.92.05.65.16.92.25.48.45.63.43.23.71.23Z"/>
      <path d="M185.59,68.73c-.41,0-.76-.1-1.06-.29s-.53-.46-.69-.79-.24-.73-.24-1.17.08-.83.24-1.17.38-.61.67-.8.62-.29,1-.29c.32,0,.62.08.9.23s.51.39.69.71.27.73.27,1.22v.23h-3.24c.01.5.15.9.41,1.19s.61.45,1.05.45c.3,0,.55-.07.75-.21s.33-.31.41-.5l.5.16c-.1.27-.29.51-.58.72s-.65.31-1.09.31ZM184.13,66.16h2.7c-.03-.42-.16-.78-.39-1.05s-.54-.42-.93-.42c-.26,0-.49.07-.7.2s-.36.31-.48.53-.19.47-.2.74Z"/>
      <path d="M188.62,68.64v-4.37h.52v.68h.04c.09-.22.24-.4.46-.54s.46-.2.73-.2c.04,0,.09,0,.14,0s.1,0,.13,0v.53s-.06,0-.12-.02-.12-.01-.2-.01c-.34,0-.62.1-.84.31s-.33.48-.33.8v2.8h-.53Z"/>
      <path d="M191.92,63.46c-.11,0-.2-.04-.27-.11s-.11-.16-.11-.26.04-.19.11-.26.17-.11.27-.11.2.04.27.11.11.16.11.26-.04.19-.11.26-.17.11-.27.11ZM191.65,68.64v-4.37h.53v4.37h-.53Z"/>
      <path d="M195.35,68.73c-.38,0-.71-.1-1-.29s-.52-.46-.68-.79-.25-.73-.25-1.17.08-.84.25-1.18.39-.61.68-.8.62-.29,1-.29.71.1,1,.29.52.46.68.8.25.73.25,1.18-.08.83-.25,1.17-.39.6-.68.79-.62.29-1,.29ZM195.35,68.25c.3,0,.55-.08.76-.24s.37-.38.47-.64.16-.56.16-.89-.05-.62-.16-.89-.27-.49-.48-.65-.46-.24-.76-.24-.55.08-.76.24-.37.38-.47.65-.16.57-.16.89.05.62.16.89.27.48.47.64.46.24.76.24Z"/>
      <path d="M200.12,68.73c-.36,0-.67-.09-.94-.28s-.48-.45-.63-.79-.22-.74-.22-1.19.08-.84.23-1.18.36-.6.63-.79.58-.28.94-.28c.27,0,.49.05.66.14s.32.21.43.35.19.27.25.41h.04v-2.29h.53v5.82h-.51v-.82h-.06c-.06.14-.14.27-.25.41s-.25.26-.43.35-.4.14-.66.14ZM200.19,68.25c.28,0,.52-.08.72-.23s.35-.37.45-.63.15-.58.15-.92-.05-.65-.15-.92-.25-.47-.45-.62-.44-.23-.72-.23-.53.08-.72.23-.35.37-.45.63-.15.57-.15.9.05.64.15.91.25.48.45.64.44.24.72.24Z"/>
      <path d="M203.79,63.46c-.11,0-.2-.04-.27-.11s-.11-.16-.11-.26.04-.19.11-.26.17-.11.27-.11.2.04.27.11.11.16.11.26-.04.19-.11.26-.17.11-.27.11ZM203.52,68.64v-4.37h.53v4.37h-.53Z"/>
      <path d="M207.21,68.72c-.38,0-.71-.09-1-.29s-.52-.45-.68-.79-.25-.73-.25-1.17.08-.84.25-1.18.39-.6.68-.79.62-.29,1-.29c.29,0,.56.06.79.17s.42.25.57.42.26.34.31.52l-.5.16c-.03-.11-.1-.23-.2-.35s-.23-.23-.39-.31-.35-.13-.58-.13c-.3,0-.55.08-.76.24s-.37.38-.47.64-.16.57-.16.9.05.62.16.89.27.48.47.64.46.24.76.24c.23,0,.42-.04.59-.13s.3-.2.4-.32.17-.25.2-.36l.5.16c-.05.18-.16.36-.31.53s-.35.32-.58.43-.5.17-.79.17Z"/>
      <path d="M213.38,68.74c-.27,0-.51-.05-.72-.15s-.39-.25-.52-.45-.19-.43-.19-.72.07-.51.21-.69.34-.3.59-.39.54-.15.87-.19c.36-.04.64-.08.84-.12s.3-.14.3-.3v-.1c0-.29-.09-.52-.27-.69s-.43-.25-.76-.25-.57.07-.76.21-.33.3-.4.48l-.51-.17c.1-.24.23-.43.41-.57s.37-.25.59-.31.44-.1.67-.1c.17,0,.35.02.53.07s.35.12.51.23.28.26.38.45.14.43.14.72v2.96h-.52v-.69h-.04c-.1.2-.26.38-.48.54s-.52.24-.87.24ZM213.46,68.26c.27,0,.5-.06.69-.18s.35-.28.45-.47.16-.41.16-.65v-.62s-.14.09-.28.12-.29.06-.45.09-.3.04-.41.06c-.37.04-.65.13-.85.26s-.3.32-.3.58.09.46.28.61.42.22.7.22Z"/>
      <path d="M218.33,68.73c-.36,0-.67-.09-.94-.28s-.48-.45-.63-.79-.22-.74-.22-1.19.08-.84.23-1.18.36-.6.63-.79.58-.28.94-.28c.27,0,.49.05.66.14s.32.21.43.35.19.27.25.41h.04v-2.29h.53v5.82h-.51v-.82h-.06c-.06.14-.14.27-.25.41s-.25.26-.43.35-.4.14-.66.14ZM218.4,68.25c.28,0,.52-.08.72-.23s.35-.37.45-.63.15-.58.15-.92-.05-.65-.15-.92-.25-.47-.45-.62-.44-.23-.72-.23-.53.08-.72.23-.35.37-.45.63-.15.57-.15.9.05.64.15.91.25.48.45.64.44.24.72.24Z"/>
      <path d="M222.98,68.64l-1.67-4.37h.58l1.01,2.75c.07.19.14.39.2.58s.12.39.18.58c.06-.19.11-.38.17-.58s.12-.39.2-.58l1.01-2.75h.57l-1.67,4.37h-.57Z"/>
      <path d="M227.9,68.73c-.41,0-.76-.1-1.06-.29s-.53-.46-.69-.79-.24-.73-.24-1.17.08-.83.24-1.17.38-.61.67-.8.62-.29,1-.29c.32,0,.62.08.9.23s.51.39.69.71.27.73.27,1.22v.23h-3.24c.01.5.15.9.41,1.19s.61.45,1.05.45c.3,0,.55-.07.75-.21s.33-.31.41-.5l.5.16c-.1.27-.29.51-.58.72s-.65.31-1.09.31ZM226.44,66.16h2.7c-.03-.42-.16-.78-.39-1.05s-.54-.42-.93-.42c-.26,0-.49.07-.7.2s-.36.31-.48.53-.19.47-.2.74Z"/>
      <path d="M230.92,68.64v-4.37h.52v.68h.04c.09-.22.24-.4.46-.54s.46-.2.73-.2c.04,0,.09,0,.14,0s.1,0,.13,0v.53s-.06,0-.12-.02-.12-.01-.2-.01c-.34,0-.62.1-.84.31s-.33.48-.33.8v2.8h-.53Z"/>
      <path d="M235.72,64.27v.46h-.9v2.88c0,.44.2.64.59.6.04,0,.08,0,.13-.01s.1-.02.15-.03l.11.46c-.11.04-.24.06-.4.06-.35.02-.62-.06-.82-.25s-.3-.45-.3-.79v-2.91h-.65v-.46h.65v-1.04h.53v1.04h.9Z"/>
      <path d="M237.08,63.46c-.11,0-.2-.04-.27-.11s-.11-.16-.11-.26.04-.19.11-.26.17-.11.27-.11.2.04.27.11.11.16.11.26-.04.19-.11.26-.17.11-.27.11ZM236.81,68.64v-4.37h.53v4.37h-.53Z"/>
      <path d="M240.17,68.73c-.43,0-.78-.1-1.06-.29s-.46-.47-.54-.84l.51-.12c.06.26.19.46.37.59s.42.19.71.19c.33,0,.6-.07.79-.22s.3-.33.3-.55c0-.35-.24-.59-.71-.7l-.71-.17c-.75-.18-1.12-.57-1.12-1.16,0-.25.07-.46.2-.64s.31-.33.54-.43.49-.16.79-.16c.41,0,.74.09.98.28s.41.44.51.75l-.48.12c-.07-.2-.18-.37-.34-.5s-.38-.2-.67-.2-.53.07-.71.21-.28.32-.28.53c0,.36.26.6.78.73l.67.16c.74.18,1.11.56,1.11,1.15,0,.25-.07.47-.21.66s-.33.34-.58.45-.53.16-.85.16Z"/>
      <path d="M243.3,63.46c-.11,0-.2-.04-.27-.11s-.11-.16-.11-.26.04-.19.11-.26.17-.11.27-.11.2.04.27.11.11.16.11.26-.04.19-.11.26-.17.11-.27.11ZM243.03,68.64v-4.37h.53v4.37h-.53Z"/>
      <path d="M245.58,65.92v2.72h-.53v-4.37h.51v.8c.14-.3.32-.52.56-.66s.51-.21.8-.21c.44,0,.8.14,1.08.41s.41.67.41,1.19v2.82h-.53v-2.79c0-.36-.1-.64-.3-.85s-.47-.31-.8-.31-.63.11-.86.33-.35.52-.35.89Z"/>
      <path d="M251.56,70.37c-.45,0-.81-.08-1.1-.25s-.49-.38-.62-.64l.44-.27c.09.17.24.33.43.47s.48.21.84.21c.39,0,.7-.1.93-.29s.35-.49.35-.89v-.98h-.05c-.06.14-.14.27-.25.4s-.25.24-.43.32-.4.13-.66.13c-.35,0-.65-.08-.92-.26s-.48-.42-.63-.74-.23-.7-.23-1.15.08-.83.23-1.17.36-.6.63-.78.58-.28.94-.28c.27,0,.49.05.66.14s.32.21.43.35.19.27.25.41h.05v-.84h.52v4.47c0,.37-.08.67-.24.91s-.37.42-.64.53-.58.17-.93.17ZM251.53,68.12c.42,0,.74-.15.97-.45s.35-.71.35-1.23c0-.34-.05-.64-.15-.9s-.25-.47-.45-.62-.44-.22-.72-.22-.53.08-.73.23-.35.36-.45.63-.15.56-.15.88c0,.5.12.9.35,1.21s.56.47.99.47Z"/>
      <path d="M257.23,63.46c-.11,0-.2-.04-.27-.11s-.11-.16-.11-.26.04-.19.11-.26.17-.11.27-.11.2.04.27.11.11.16.11.26-.04.19-.11.26-.17.11-.27.11ZM256.96,68.64v-4.37h.53v4.37h-.53Z"/>
      <path d="M259.5,65.92v2.72h-.53v-4.37h.51v.8c.14-.3.32-.52.56-.66s.51-.21.8-.21c.44,0,.8.14,1.08.41s.41.67.41,1.19v2.82h-.53v-2.79c0-.36-.1-.64-.3-.85s-.47-.31-.8-.31-.63.11-.86.33-.35.52-.35.89Z"/>
      <path d="M265.29,64.27v.46h-.9v2.88c0,.44.2.64.59.6.04,0,.08,0,.13-.01s.1-.02.15-.03l.11.46c-.11.04-.24.06-.4.06-.35.02-.62-.06-.82-.25s-.3-.45-.3-.79v-2.91h-.65v-.46h.65v-1.04h.53v1.04h.9Z"/>
      <path d="M267.98,68.73c-.41,0-.76-.1-1.06-.29s-.53-.46-.69-.79-.24-.73-.24-1.17.08-.83.24-1.17.38-.61.67-.8.62-.29,1-.29c.32,0,.62.08.9.23s.51.39.69.71.27.73.27,1.22v.23h-3.24c.01.5.15.9.41,1.19s.61.45,1.05.45c.3,0,.55-.07.75-.21s.33-.31.41-.5l.5.16c-.1.27-.29.51-.58.72s-.65.31-1.09.31ZM266.52,66.16h2.7c-.03-.42-.16-.78-.39-1.05s-.54-.42-.93-.42c-.26,0-.49.07-.7.2s-.36.31-.48.53-.19.47-.2.74Z"/>
      <path d="M271,68.64v-4.37h.52v.68h.04c.09-.22.24-.4.46-.54.22-.13.46-.2.73-.2.04,0,.09,0,.14,0,.05,0,.09,0,.13,0v.53s-.06,0-.12-.02c-.06,0-.12-.01-.2-.01-.34,0-.62.1-.84.31s-.33.48-.33.8v2.8h-.53Z"/>
      <path d="M275.5,68.64l-1.67-4.37h.58l1.01,2.75c.07.19.14.39.2.58s.12.39.18.58c.06-.19.11-.38.17-.58s.12-.39.2-.58l1.01-2.75h.57l-1.67,4.37h-.57Z"/>
      <path d="M279.9,68.74c-.27,0-.51-.05-.72-.15s-.39-.25-.52-.45-.19-.43-.19-.72.07-.51.21-.69.34-.3.59-.39.54-.15.87-.19c.36-.04.64-.08.84-.12s.3-.14.3-.3v-.1c0-.29-.09-.52-.27-.69s-.43-.25-.76-.25-.57.07-.76.21-.33.3-.4.48l-.51-.17c.1-.24.23-.43.41-.57s.37-.25.59-.31.44-.1.67-.1c.17,0,.35.02.53.07s.35.12.51.23.28.26.38.45.14.43.14.72v2.96h-.52v-.69h-.04c-.1.2-.26.38-.48.54s-.51.24-.87.24ZM279.98,68.26c.27,0,.5-.06.69-.18s.35-.28.45-.47.16-.41.16-.65v-.62s-.14.09-.28.12-.29.06-.45.09-.3.04-.41.06c-.37.04-.65.13-.85.26s-.3.32-.3.58.09.46.28.61.42.22.7.22Z"/>
      <path d="M283.81,62.82v5.82h-.53v-5.82h.53Z"/>
    </g>
  </g>
  <g>
    <path d="M55.42,148.78c-.43,0-.78-.1-1.06-.29s-.46-.47-.54-.84l.51-.12c.06.26.19.46.37.59s.42.19.71.19c.33,0,.6-.07.79-.22s.3-.33.3-.55c0-.35-.24-.59-.71-.7l-.71-.17c-.75-.18-1.12-.57-1.12-1.16,0-.25.07-.46.2-.64s.31-.33.54-.43.49-.16.79-.16c.41,0,.74.09.98.28s.41.44.51.75l-.48.12c-.07-.2-.18-.37-.34-.5s-.38-.2-.67-.2-.53.07-.71.21-.28.32-.28.53c0,.36.26.6.78.73l.67.16c.74.18,1.11.56,1.11,1.15,0,.25-.07.47-.21.66s-.33.34-.58.45-.53.16-.85.16Z"/>
    <path d="M59.75,148.74c-.44,0-.8-.14-1.08-.41s-.42-.67-.42-1.19v-2.82h.53v2.79c0,.36.1.64.3.85s.47.31.8.31.63-.11.86-.33.35-.52.35-.89v-2.72h.53v4.37h-.52v-.81c-.14.31-.32.53-.56.66s-.51.2-.8.2Z"/>
    <path d="M65.02,148.78c-.26,0-.48-.05-.66-.14s-.32-.21-.43-.35-.19-.28-.25-.41h-.06v.82h-.52v-5.82h.53v2.29h.04c.06-.13.14-.27.25-.41s.25-.25.43-.35.4-.14.67-.14c.35,0,.67.09.94.28s.48.45.63.79.23.73.23,1.18-.07.85-.22,1.19-.36.6-.63.79-.58.28-.94.28ZM64.95,148.3c.28,0,.52-.08.72-.24s.35-.37.45-.64.15-.57.15-.91-.05-.63-.15-.9-.25-.48-.45-.63-.44-.23-.73-.23-.52.08-.72.23-.35.36-.45.62-.15.57-.15.92.05.65.16.92.25.48.45.63.43.23.71.23Z"/>
    <path d="M69.86,148.78c-.41,0-.76-.1-1.06-.29s-.53-.46-.69-.79-.24-.73-.24-1.17.08-.83.24-1.17.38-.61.67-.8.62-.29,1-.29c.32,0,.62.08.9.23s.51.39.69.71.27.73.27,1.22v.23h-3.24c.01.5.15.9.41,1.19s.61.45,1.05.45c.3,0,.55-.07.75-.21s.33-.31.41-.5l.5.16c-.1.27-.29.51-.58.72s-.65.31-1.09.31ZM68.4,146.21h2.7c-.03-.42-.16-.78-.39-1.05s-.54-.42-.93-.42c-.26,0-.49.07-.7.2s-.36.31-.48.53-.19.47-.2.74Z"/>
    <path d="M74,148.69l-1.67-4.37h.58l1.01,2.75c.07.19.14.39.2.58s.12.39.18.58c.06-.19.11-.38.17-.58s.12-.39.2-.58l1.01-2.75h.57l-1.67,4.37h-.57Z"/>
    <path d="M78.92,148.78c-.41,0-.76-.1-1.06-.29s-.53-.46-.69-.79-.24-.73-.24-1.17.08-.83.24-1.17.38-.61.67-.8.62-.29,1-.29c.32,0,.62.08.9.23s.51.39.69.71.27.73.27,1.22v.23h-3.24c.01.5.15.9.41,1.19s.61.45,1.05.45c.3,0,.55-.07.75-.21s.33-.31.41-.5l.5.16c-.1.27-.29.51-.58.72s-.65.31-1.09.31ZM77.46,146.21h2.7c-.03-.42-.16-.78-.39-1.05s-.54-.42-.93-.42c-.26,0-.49.07-.7.2s-.36.31-.48.53-.19.47-.2.74Z"/>
    <path d="M82.48,145.96v2.72h-.53v-4.37h.51v.8c.14-.3.32-.52.56-.66s.51-.21.8-.21c.44,0,.8.14,1.08.41s.41.67.41,1.19v2.82h-.53v-2.79c0-.36-.1-.64-.3-.85s-.47-.31-.8-.31-.63.11-.86.33-.35.52-.35.89Z"/>
    <path d="M88.26,144.32v.46h-.9v2.88c0,.44.2.64.59.6.04,0,.08,0,.13-.01s.1-.02.15-.03l.11.46c-.11.04-.24.06-.4.06-.35.02-.62-.06-.82-.25s-.3-.45-.3-.79v-2.91h-.65v-.46h.65v-1.04h.53v1.04h.9Z"/>
    <path d="M68.63,156.69l.28-1.67h-1.59l-.27,1.67h-.45l.27-1.67h-.93l.08-.45h.93l.25-1.57h-.92l.08-.45h.92l.28-1.68h.45l-.28,1.68h1.59l.28-1.68h.45l-.28,1.68h.93l-.07.45h-.93l-.25,1.57h.92l-.07.45h-.92l-.27,1.67h-.46ZM67.39,154.56h1.59l.26-1.57h-1.59l-.25,1.57Z"/>
    <path d="M73.61,156.76c-.62,0-1.1-.26-1.45-.79s-.52-1.26-.52-2.2.17-1.67.52-2.2.83-.79,1.44-.79,1.09.26,1.44.79.52,1.26.52,2.2-.17,1.67-.52,2.2-.82.79-1.44.79ZM73.61,156.27c.45,0,.8-.22,1.05-.66s.38-1.05.38-1.83-.12-1.4-.38-1.84-.6-.66-1.05-.66-.8.22-1.05.66-.38,1.06-.38,1.84.12,1.4.38,1.83.6.66,1.05.66Z"/>
  </g>
  <g>
    <path d="M108.18,148.78c-.43,0-.78-.1-1.06-.29s-.46-.47-.54-.84l.51-.12c.06.26.19.46.37.59s.42.19.71.19c.33,0,.6-.07.79-.22s.3-.33.3-.55c0-.35-.24-.59-.71-.7l-.71-.17c-.75-.18-1.12-.57-1.12-1.16,0-.25.07-.46.2-.64s.31-.33.54-.43.49-.16.79-.16c.41,0,.74.09.98.28s.41.44.51.75l-.48.12c-.07-.2-.18-.37-.34-.5s-.38-.2-.67-.2-.53.07-.71.21-.28.32-.28.53c0,.36.26.6.78.73l.67.16c.74.18,1.11.56,1.11,1.15,0,.25-.07.47-.21.66s-.33.34-.58.45-.53.16-.85.16Z"/>
    <path d="M112.52,148.74c-.44,0-.8-.14-1.08-.41s-.42-.67-.42-1.19v-2.82h.53v2.79c0,.36.1.64.3.85s.47.31.8.31.63-.11.86-.33.35-.52.35-.89v-2.72h.53v4.37h-.52v-.81c-.14.31-.32.53-.56.66s-.51.2-.8.2Z"/>
    <path d="M117.79,148.78c-.26,0-.48-.05-.66-.14s-.32-.21-.43-.35-.19-.28-.25-.41h-.06v.82h-.52v-5.82h.53v2.29h.04c.06-.13.14-.27.25-.41s.25-.25.43-.35.4-.14.67-.14c.35,0,.67.09.94.28s.48.45.63.79.23.73.23,1.18-.07.85-.22,1.19-.36.6-.63.79-.58.28-.94.28ZM117.72,148.3c.28,0,.52-.08.72-.24s.35-.37.45-.64.15-.57.15-.91-.05-.63-.15-.9-.25-.48-.45-.63-.44-.23-.73-.23-.52.08-.72.23-.35.36-.45.62-.15.57-.15.92.05.65.16.92.25.48.45.63.43.23.71.23Z"/>
    <path d="M122.63,148.78c-.41,0-.76-.1-1.06-.29s-.53-.46-.69-.79-.24-.73-.24-1.17.08-.83.24-1.17.38-.61.67-.8.62-.29,1-.29c.32,0,.62.08.9.23s.51.39.69.71.27.73.27,1.22v.23h-3.24c.01.5.15.9.41,1.19s.61.45,1.05.45c.3,0,.55-.07.75-.21s.33-.31.41-.5l.5.16c-.1.27-.29.51-.58.72s-.65.31-1.09.31ZM121.17,146.21h2.7c-.03-.42-.16-.78-.39-1.05s-.54-.42-.93-.42c-.26,0-.49.07-.7.2s-.36.31-.48.53-.19.47-.2.74Z"/>
    <path d="M126.76,148.69l-1.67-4.37h.58l1.01,2.75c.07.19.14.39.2.58s.12.39.18.58c.06-.19.11-.38.17-.58s.12-.39.2-.58l1.01-2.75h.57l-1.67,4.37h-.57Z"/>
    <path d="M131.68,148.78c-.41,0-.76-.1-1.06-.29s-.53-.46-.69-.79-.24-.73-.24-1.17.08-.83.24-1.17.38-.61.67-.8.62-.29,1-.29c.32,0,.62.08.9.23s.51.39.69.71.27.73.27,1.22v.23h-3.24c.01.5.15.9.41,1.19s.61.45,1.05.45c.3,0,.55-.07.75-.21s.33-.31.41-.5l.5.16c-.1.27-.29.51-.58.72s-.65.31-1.09.31ZM130.22,146.21h2.7c-.03-.42-.16-.78-.39-1.05s-.54-.42-.93-.42c-.26,0-.49.07-.7.2s-.36.31-.48.53-.19.47-.2.74Z"/>
    <path d="M135.24,145.96v2.72h-.53v-4.37h.51v.8c.14-.3.32-.52.56-.66s.51-.21.8-.21c.44,0,.8.14,1.08.41s.41.67.41,1.19v2.82h-.53v-2.79c0-.36-.1-.64-.3-.85s-.47-.31-.8-.31-.63.11-.86.33-.35.52-.35.89Z"/>
    <path d="M141.02,144.32v.46h-.9v2.88c0,.44.2.64.59.6.04,0,.08,0,.13-.01s.1-.02.15-.03l.11.46c-.11.04-.24.06-.4.06-.35.02-.62-.06-.82-.25s-.3-.45-.3-.79v-2.91h-.65v-.46h.65v-1.04h.53v1.04h.9Z"/>
    <path d="M122.27,156.69l.28-1.67h-1.59l-.27,1.67h-.45l.27-1.67h-.93l.08-.45h.93l.25-1.57h-.92l.08-.45h.92l.28-1.68h.45l-.28,1.68h1.59l.28-1.68h.45l-.28,1.68h.93l-.07.45h-.93l-.25,1.57h.92l-.07.45h-.92l-.27,1.67h-.46ZM121.03,154.56h1.59l.26-1.57h-1.59l-.25,1.57Z"/>
    <path d="M127.19,150.87v5.82h-.55v-5.3h-.04l-1.35,1v-.6l1.25-.93h.69Z"/>
  </g>
  <g>
    <path d="M160.95,148.78c-.43,0-.78-.1-1.06-.29s-.46-.47-.54-.84l.51-.12c.06.26.19.46.37.59s.42.19.71.19c.33,0,.6-.07.79-.22s.3-.33.3-.55c0-.35-.24-.59-.71-.7l-.71-.17c-.75-.18-1.12-.57-1.12-1.16,0-.25.07-.46.2-.64s.31-.33.54-.43.49-.16.79-.16c.41,0,.74.09.98.28s.41.44.51.75l-.48.12c-.07-.2-.18-.37-.34-.5s-.38-.2-.67-.2-.53.07-.71.21-.28.32-.28.53c0,.36.26.6.78.73l.67.16c.74.18,1.11.56,1.11,1.15,0,.25-.07.47-.21.66s-.33.34-.58.45-.53.16-.85.16Z"/>
    <path d="M165.28,148.74c-.44,0-.8-.14-1.08-.41s-.42-.67-.42-1.19v-2.82h.53v2.79c0,.36.1.64.3.85s.47.31.8.31.63-.11.86-.33.35-.52.35-.89v-2.72h.53v4.37h-.52v-.81c-.14.31-.32.53-.56.66s-.51.2-.8.2Z"/>
    <path d="M170.55,148.78c-.26,0-.48-.05-.66-.14s-.32-.21-.43-.35-.19-.28-.25-.41h-.06v.82h-.52v-5.82h.53v2.29h.04c.06-.13.14-.27.25-.41s.25-.25.43-.35.4-.14.67-.14c.35,0,.67.09.94.28s.48.45.63.79.23.73.23,1.18-.07.85-.22,1.19-.36.6-.63.79-.58.28-.94.28ZM170.48,148.3c.28,0,.52-.08.72-.24s.35-.37.45-.64.15-.57.15-.91-.05-.63-.15-.9-.25-.48-.45-.63-.44-.23-.73-.23-.52.08-.72.23-.35.36-.45.62-.15.57-.15.92.05.65.16.92.25.48.45.63.43.23.71.23Z"/>
    <path d="M175.39,148.78c-.41,0-.76-.1-1.06-.29s-.53-.46-.69-.79-.24-.73-.24-1.17.08-.83.24-1.17.38-.61.67-.8.62-.29,1-.29c.32,0,.62.08.9.23s.51.39.69.71.27.73.27,1.22v.23h-3.24c.01.5.15.9.41,1.19s.61.45,1.05.45c.3,0,.55-.07.75-.21s.33-.31.41-.5l.5.16c-.1.27-.29.51-.58.72s-.65.31-1.09.31ZM173.93,146.21h2.7c-.03-.42-.16-.78-.39-1.05s-.54-.42-.93-.42c-.26,0-.49.07-.7.2s-.36.31-.48.53-.19.47-.2.74Z"/>
    <path d="M179.53,148.69l-1.67-4.37h.58l1.01,2.75c.07.19.14.39.2.58s.12.39.18.58c.06-.19.11-.38.17-.58s.12-.39.2-.58l1.01-2.75h.57l-1.67,4.37h-.57Z"/>
    <path d="M184.45,148.78c-.41,0-.76-.1-1.06-.29s-.53-.46-.69-.79-.24-.73-.24-1.17.08-.83.24-1.17.38-.61.67-.8.62-.29,1-.29c.32,0,.62.08.9.23s.51.39.69.71.27.73.27,1.22v.23h-3.24c.01.5.15.9.41,1.19s.61.45,1.05.45c.3,0,.55-.07.75-.21s.33-.31.41-.5l.5.16c-.1.27-.29.51-.58.72s-.65.31-1.09.31ZM182.99,146.21h2.7c-.03-.42-.16-.78-.39-1.05s-.54-.42-.93-.42c-.26,0-.49.07-.7.2s-.36.31-.48.53-.19.47-.2.74Z"/>
    <path d="M188.01,145.96v2.72h-.53v-4.37h.51v.8c.14-.3.32-.52.56-.66s.51-.21.8-.21c.44,0,.8.14,1.08.41s.41.67.41,1.19v2.82h-.53v-2.79c0-.36-.1-.64-.3-.85s-.47-.31-.8-.31-.63.11-.86.33-.35.52-.35.89Z"/>
    <path d="M193.79,144.32v.46h-.9v2.88c0,.44.2.64.59.6.04,0,.08,0,.13-.01s.1-.02.15-.03l.11.46c-.11.04-.24.06-.4.06-.35.02-.62-.06-.82-.25s-.3-.45-.3-.79v-2.91h-.65v-.46h.65v-1.04h.53v1.04h.9Z"/>
    <path d="M174.2,156.69l.28-1.67h-1.59l-.27,1.67h-.45l.27-1.67h-.93l.08-.45h.93l.25-1.57h-.92l.08-.45h.92l.28-1.68h.45l-.28,1.68h1.59l.28-1.68h.45l-.28,1.68h.93l-.07.45h-.93l-.25,1.57h.92l-.07.45h-.92l-.27,1.67h-.46ZM172.96,154.56h1.59l.26-1.57h-1.59l-.25,1.57Z"/>
    <path d="M177.31,156.69v-.41l1.91-2.13c.24-.27.44-.5.59-.7s.26-.38.33-.54.11-.34.11-.53c0-.33-.11-.6-.34-.8s-.51-.3-.84-.3-.64.11-.85.33-.32.5-.32.84h-.54c0-.32.07-.61.22-.86s.35-.45.62-.59.56-.21.89-.21.62.07.87.21.45.33.6.57.22.51.22.8c0,.21-.04.42-.11.62s-.2.42-.39.67-.44.55-.76.91l-1.42,1.58v.04h2.86v.5h-3.64Z"/>
  </g>
  <g>
    <path d="M213.71,148.78c-.43,0-.78-.1-1.06-.29s-.46-.47-.54-.84l.51-.12c.06.26.19.46.37.59s.42.19.71.19c.33,0,.6-.07.79-.22s.3-.33.3-.55c0-.35-.24-.59-.71-.7l-.71-.17c-.75-.18-1.12-.57-1.12-1.16,0-.25.07-.46.2-.64s.31-.33.54-.43.49-.16.79-.16c.41,0,.74.09.98.28s.41.44.51.75l-.48.12c-.07-.2-.18-.37-.34-.5s-.38-.2-.67-.2-.53.07-.71.21-.28.32-.28.53c0,.36.26.6.78.73l.67.16c.74.18,1.11.56,1.11,1.15,0,.25-.07.47-.21.66s-.33.34-.58.45-.53.16-.85.16Z"/>
    <path d="M218.04,148.74c-.44,0-.8-.14-1.08-.41s-.42-.67-.42-1.19v-2.82h.53v2.79c0,.36.1.64.3.85s.47.31.8.31.63-.11.86-.33.35-.52.35-.89v-2.72h.53v4.37h-.52v-.81c-.14.31-.32.53-.56.66s-.51.2-.8.2Z"/>
    <path d="M223.32,148.78c-.26,0-.48-.05-.66-.14s-.32-.21-.43-.35-.19-.28-.25-.41h-.06v.82h-.52v-5.82h.53v2.29h.04c.06-.13.14-.27.25-.41s.25-.25.43-.35.4-.14.67-.14c.35,0,.67.09.94.28s.48.45.63.79.23.73.23,1.18-.07.85-.22,1.19-.36.6-.63.79-.58.28-.94.28ZM223.25,148.3c.28,0,.52-.08.72-.24s.35-.37.45-.64.15-.57.15-.91-.05-.63-.15-.9-.25-.48-.45-.63-.44-.23-.73-.23-.52.08-.72.23-.35.36-.45.62-.15.57-.15.92.05.65.16.92.25.48.45.63.43.23.71.23Z"/>
    <path d="M228.16,148.78c-.41,0-.76-.1-1.06-.29s-.53-.46-.69-.79-.24-.73-.24-1.17.08-.83.24-1.17.38-.61.67-.8.62-.29,1-.29c.32,0,.62.08.9.23s.51.39.69.71.27.73.27,1.22v.23h-3.24c.01.5.15.9.41,1.19s.61.45,1.05.45c.3,0,.55-.07.75-.21s.33-.31.41-.5l.5.16c-.1.27-.29.51-.58.72s-.65.31-1.09.31ZM226.7,146.21h2.7c-.03-.42-.16-.78-.39-1.05s-.54-.42-.93-.42c-.26,0-.49.07-.7.2s-.36.31-.48.53-.19.47-.2.74Z"/>
    <path d="M232.29,148.69l-1.67-4.37h.58l1.01,2.75c.07.19.14.39.2.58s.12.39.18.58c.06-.19.11-.38.17-.58s.12-.39.2-.58l1.01-2.75h.57l-1.67,4.37h-.57Z"/>
    <path d="M237.21,148.78c-.41,0-.76-.1-1.06-.29s-.53-.46-.69-.79-.24-.73-.24-1.17.08-.83.24-1.17.38-.61.67-.8.62-.29,1-.29c.32,0,.62.08.9.23s.51.39.69.71.27.73.27,1.22v.23h-3.24c.01.5.15.9.41,1.19s.61.45,1.05.45c.3,0,.55-.07.75-.21s.33-.31.41-.5l.5.16c-.1.27-.29.51-.58.72s-.65.31-1.09.31ZM235.75,146.21h2.7c-.03-.42-.16-.78-.39-1.05s-.54-.42-.93-.42c-.26,0-.49.07-.7.2s-.36.31-.48.53-.19.47-.2.74Z"/>
    <path d="M240.77,145.96v2.72h-.53v-4.37h.51v.8c.14-.3.32-.52.56-.66s.51-.21.8-.21c.44,0,.8.14,1.08.41s.41.67.41,1.19v2.82h-.53v-2.79c0-.36-.1-.64-.3-.85s-.47-.31-.8-.31-.63.11-.86.33-.35.52-.35.89Z"/>
    <path d="M246.55,144.32v.46h-.9v2.88c0,.44.2.64.59.6.04,0,.08,0,.13-.01s.1-.02.15-.03l.11.46c-.11.04-.24.06-.4.06-.35.02-.62-.06-.82-.25s-.3-.45-.3-.79v-2.91h-.65v-.46h.65v-1.04h.53v1.04h.9Z"/>
    <path d="M227.02,156.69l.28-1.67h-1.59l-.27,1.67h-.45l.27-1.67h-.93l.08-.45h.93l.25-1.57h-.92l.08-.45h.92l.28-1.68h.45l-.28,1.68h1.59l.28-1.68h.45l-.28,1.68h.93l-.07.45h-.93l-.25,1.57h.92l-.07.45h-.92l-.27,1.67h-.46ZM225.78,154.56h1.59l.26-1.57h-1.59l-.25,1.57Z"/>
    <path d="M231.86,156.76c-.36,0-.69-.07-.97-.2s-.51-.31-.67-.54-.25-.5-.26-.8h.56c.01.21.08.4.2.55s.28.28.48.37.42.13.66.13c.27,0,.5-.05.71-.15s.36-.23.48-.41.17-.37.17-.59c0-.35-.13-.63-.4-.85s-.62-.33-1.08-.33h-.34v-.49h.34c.37,0,.68-.1.92-.3s.36-.47.36-.8-.11-.58-.32-.78-.49-.3-.84-.3c-.22,0-.43.04-.62.13s-.34.21-.45.37-.17.34-.18.56h-.54c0-.3.09-.57.25-.8s.37-.41.64-.54.57-.2.89-.2.64.07.89.21.45.33.59.56.21.49.21.77c0,.33-.09.61-.27.85s-.42.4-.73.49v.04c.37.07.67.24.88.49s.32.57.32.93c0,.31-.08.59-.25.84s-.39.44-.67.58-.61.21-.98.21Z"/>
  </g>
  <g>
    <path d="M359.13,148.78c-.43,0-.79-.1-1.06-.29-.28-.19-.46-.47-.54-.84l.51-.12c.06.26.19.46.37.59.19.13.42.19.71.19.33,0,.6-.07.79-.22s.3-.33.3-.55c0-.35-.24-.59-.71-.7l-.71-.17c-.75-.18-1.12-.57-1.12-1.16,0-.25.07-.46.2-.64.13-.18.31-.33.54-.43s.49-.16.79-.16c.41,0,.74.09.98.28.24.19.41.44.51.75l-.48.12c-.07-.2-.18-.37-.34-.5-.16-.13-.38-.2-.67-.2s-.53.07-.71.21-.28.32-.28.53c0,.36.26.6.78.73l.67.16c.74.18,1.11.56,1.11,1.15,0,.25-.07.47-.21.66-.14.19-.33.34-.58.45s-.53.16-.85.16Z"/>
    <path d="M363.47,148.74c-.44,0-.8-.14-1.08-.41s-.42-.67-.42-1.19v-2.82h.53v2.79c0,.36.1.64.3.85.2.21.47.31.8.31s.63-.11.86-.33.35-.52.35-.89v-2.72h.53v4.37h-.52v-.81c-.13.31-.32.53-.56.66-.24.14-.51.2-.8.2Z"/>
    <path d="M368.74,148.78c-.26,0-.48-.05-.66-.14-.18-.09-.32-.21-.43-.35s-.19-.28-.25-.41h-.06v.82h-.52v-5.82h.53v2.29h.04c.06-.13.14-.27.25-.41.11-.14.25-.25.43-.35.18-.09.4-.14.67-.14.35,0,.67.09.94.28s.48.45.63.79c.15.34.23.73.23,1.18s-.08.85-.22,1.19c-.15.34-.36.6-.63.79s-.58.28-.94.28ZM368.67,148.3c.28,0,.52-.08.72-.24.2-.16.35-.37.45-.64.1-.27.15-.57.15-.91s-.05-.63-.15-.9-.25-.48-.45-.63c-.2-.16-.44-.23-.73-.23s-.52.08-.72.23c-.2.15-.35.36-.45.62-.1.27-.15.57-.15.92s.05.65.16.92c.1.27.25.48.45.63.2.15.43.23.71.23Z"/>
    <path d="M373.58,148.78c-.41,0-.76-.1-1.06-.29-.3-.19-.53-.46-.69-.79-.16-.34-.24-.73-.24-1.17s.08-.83.24-1.17.38-.61.67-.8c.29-.2.62-.29,1-.29.32,0,.62.08.9.23.28.16.51.39.69.71.18.32.27.73.27,1.22v.23h-3.24c0,.5.15.9.41,1.19.26.3.61.45,1.05.45.3,0,.55-.07.75-.21s.33-.31.41-.5l.5.16c-.1.27-.29.51-.58.72-.29.21-.65.31-1.09.31ZM372.12,146.21h2.7c-.03-.42-.16-.78-.39-1.05-.23-.28-.54-.42-.93-.42-.26,0-.5.07-.7.2-.2.13-.36.31-.48.53-.12.22-.19.47-.2.74Z"/>
    <path d="M377.72,148.69l-1.67-4.37h.58l1.01,2.75c.07.19.14.39.2.58.06.19.12.39.18.58.06-.19.11-.38.17-.58.06-.19.12-.39.2-.58l1.01-2.75h.57l-1.67,4.37h-.57Z"/>
    <path d="M382.63,148.78c-.41,0-.76-.1-1.06-.29-.3-.19-.53-.46-.69-.79-.16-.34-.24-.73-.24-1.17s.08-.83.24-1.17.38-.61.67-.8c.29-.2.62-.29,1-.29.32,0,.62.08.9.23.28.16.51.39.69.71.18.32.27.73.27,1.22v.23h-3.24c0,.5.15.9.41,1.19.26.3.61.45,1.05.45.3,0,.55-.07.75-.21s.33-.31.41-.5l.5.16c-.1.27-.29.51-.58.72-.29.21-.65.31-1.09.31ZM381.17,146.21h2.7c-.03-.42-.16-.78-.39-1.05-.23-.28-.54-.42-.93-.42-.26,0-.5.07-.7.2-.2.13-.36.31-.48.53-.12.22-.19.47-.2.74Z"/>
    <path d="M386.19,145.96v2.72h-.53v-4.37h.51v.8c.14-.3.32-.52.56-.66.24-.14.51-.21.8-.21.44,0,.8.14,1.08.41.28.27.41.67.41,1.19v2.82h-.53v-2.79c0-.36-.1-.64-.3-.85-.2-.21-.47-.31-.8-.31s-.63.11-.86.33-.35.52-.35.89Z"/>
    <path d="M391.97,144.32v.46h-.9v2.88c0,.44.2.64.59.6.04,0,.08,0,.13-.01.05,0,.1-.02.15-.03l.11.46c-.11.04-.25.06-.4.06-.35.02-.62-.06-.82-.25-.2-.19-.3-.45-.3-.79v-2.91h-.65v-.46h.65v-1.04h.53v1.04h.9Z"/>
    <path d="M372.5,156.69l.28-1.67h-1.59l-.27,1.67h-.45l.27-1.67h-.93l.08-.45h.93l.25-1.57h-.92l.08-.45h.92l.28-1.68h.45l-.28,1.68h1.59l.28-1.68h.45l-.28,1.68h.93l-.07.45h-.93l-.25,1.57h.92l-.07.45h-.92l-.27,1.67h-.46ZM371.26,154.56h1.59l.26-1.57h-1.59l-.25,1.57Z"/>
    <path d="M376.13,153.96v2.72h-.53v-4.37h.51v.8c.14-.3.32-.52.56-.66.24-.14.51-.21.8-.21.44,0,.8.14,1.08.41.28.27.41.67.41,1.19v2.82h-.53v-2.79c0-.36-.1-.64-.3-.85-.2-.21-.47-.31-.8-.31s-.63.11-.86.33-.35.52-.35.89Z"/>
  </g>
  <g>
    <path d="M483.82,148.78c-.43,0-.78-.1-1.06-.29-.28-.19-.46-.47-.54-.84l.51-.12c.06.26.19.46.37.59.19.13.42.19.71.19.33,0,.6-.07.79-.22s.3-.33.3-.55c0-.35-.24-.59-.71-.7l-.71-.17c-.75-.18-1.12-.57-1.12-1.16,0-.25.07-.46.2-.64.13-.18.31-.33.54-.43s.49-.16.79-.16c.41,0,.74.09.98.28.24.19.41.44.51.75l-.48.12c-.07-.2-.18-.37-.34-.5-.16-.13-.38-.2-.67-.2s-.53.07-.71.21-.28.32-.28.53c0,.36.26.6.78.73l.67.16c.74.18,1.11.56,1.11,1.15,0,.25-.07.47-.21.66-.14.19-.33.34-.58.45s-.53.16-.85.16Z"/>
    <path d="M488.15,148.74c-.44,0-.8-.14-1.08-.41s-.42-.67-.42-1.19v-2.82h.53v2.79c0,.36.1.64.3.85.2.21.47.31.8.31s.63-.11.86-.33.35-.52.35-.89v-2.72h.53v4.37h-.52v-.81c-.14.31-.32.53-.56.66-.24.14-.51.2-.8.2Z"/>
    <path d="M493.42,148.78c-.26,0-.48-.05-.66-.14-.18-.09-.32-.21-.43-.35s-.19-.28-.25-.41h-.06v.82h-.52v-5.82h.53v2.29h.04c.06-.13.14-.27.25-.41.11-.14.25-.25.43-.35.18-.09.4-.14.67-.14.35,0,.67.09.94.28s.48.45.63.79c.15.34.23.73.23,1.18s-.07.85-.22,1.19c-.15.34-.36.6-.63.79s-.58.28-.94.28ZM493.35,148.3c.28,0,.53-.08.72-.24.2-.16.35-.37.45-.64.1-.27.15-.57.15-.91s-.05-.63-.15-.9-.25-.48-.45-.63c-.2-.16-.44-.23-.73-.23s-.52.08-.72.23c-.2.15-.35.36-.45.62-.1.27-.15.57-.15.92s.05.65.16.92c.1.27.25.48.45.63.2.15.43.23.71.23Z"/>
    <path d="M498.26,148.78c-.41,0-.76-.1-1.06-.29-.3-.19-.53-.46-.69-.79-.16-.34-.24-.73-.24-1.17s.08-.83.24-1.17.38-.61.67-.8c.29-.2.62-.29,1-.29.32,0,.62.08.9.23.28.16.51.39.69.71.18.32.27.73.27,1.22v.23h-3.24c.01.5.15.9.41,1.19.26.3.62.45,1.05.45.3,0,.55-.07.75-.21s.33-.31.41-.5l.5.16c-.1.27-.29.51-.58.72-.29.21-.65.31-1.09.31ZM496.8,146.21h2.7c-.03-.42-.16-.78-.39-1.05-.23-.28-.54-.42-.93-.42-.26,0-.49.07-.7.2-.2.13-.36.31-.48.53-.12.22-.19.47-.2.74Z"/>
    <path d="M502.4,148.69l-1.67-4.37h.58l1.01,2.75c.07.19.14.39.2.58.06.19.12.39.18.58.06-.19.12-.38.17-.58.06-.19.12-.39.2-.58l1.01-2.75h.57l-1.67,4.37h-.57Z"/>
    <path d="M507.32,148.78c-.41,0-.76-.1-1.06-.29-.3-.19-.53-.46-.69-.79-.16-.34-.24-.73-.24-1.17s.08-.83.24-1.17.38-.61.67-.8c.29-.2.62-.29,1-.29.32,0,.62.08.9.23.28.16.51.39.69.71.18.32.27.73.27,1.22v.23h-3.24c.01.5.15.9.41,1.19.26.3.62.45,1.05.45.3,0,.55-.07.75-.21s.33-.31.41-.5l.5.16c-.1.27-.29.51-.58.72-.29.21-.65.31-1.09.31ZM505.86,146.21h2.7c-.03-.42-.16-.78-.39-1.05-.23-.28-.54-.42-.93-.42-.26,0-.49.07-.7.2-.2.13-.36.31-.48.53-.12.22-.19.47-.2.74Z"/>
    <path d="M510.88,145.96v2.72h-.53v-4.37h.51v.8c.14-.3.32-.52.56-.66.24-.14.51-.21.8-.21.44,0,.8.14,1.08.41.28.27.41.67.41,1.19v2.82h-.53v-2.79c0-.36-.1-.64-.3-.85-.2-.21-.47-.31-.8-.31s-.63.11-.86.33-.35.52-.35.89Z"/>
    <path d="M516.66,144.32v.46h-.9v2.88c0,.44.2.64.59.6.04,0,.08,0,.13-.01.05,0,.1-.02.15-.03l.11.46c-.11.04-.24.06-.4.06-.35.02-.62-.06-.82-.25-.2-.19-.3-.45-.3-.79v-2.91h-.65v-.46h.65v-1.04h.53v1.04h.9Z"/>
    <path d="M497.03,156.69l.28-1.67h-1.59l-.27,1.67h-.45l.27-1.67h-.93l.08-.45h.93l.25-1.57h-.92l.08-.45h.92l.28-1.68h.45l-.28,1.68h1.59l.28-1.68h.45l-.28,1.68h.93l-.07.45h-.93l-.25,1.57h.92l-.07.45h-.92l-.27,1.67h-.46ZM495.79,154.56h1.59l.26-1.57h-1.59l-.25,1.57Z"/>
    <path d="M502.01,156.76c-.62,0-1.1-.26-1.45-.79s-.52-1.26-.52-2.2.17-1.67.52-2.2c.35-.53.83-.79,1.44-.79s1.09.26,1.44.79c.35.53.52,1.26.52,2.2s-.17,1.67-.52,2.2-.82.79-1.44.79ZM502.01,156.27c.45,0,.8-.22,1.05-.66s.38-1.05.38-1.83-.12-1.4-.38-1.84-.6-.66-1.05-.66-.8.22-1.05.66-.38,1.06-.38,1.84.12,1.4.38,1.83.6.66,1.05.66Z"/>
  </g>
  <g>
    <path d="M21.06,27.17v-5.82h1.9c.41,0,.76.08,1.04.24s.49.37.63.65.21.58.21.92-.07.65-.21.92-.35.49-.63.65-.62.24-1.03.24h-1.35v2.21h-.55ZM21.62,24.46h1.32c.45,0,.79-.12,1.01-.37s.34-.56.34-.94-.11-.69-.34-.93-.56-.37-1.02-.37h-1.32v2.62Z"/>
    <path d="M25.26,27.17l2.13-5.82h.66l2.15,5.82h-.59l-.63-1.73h-2.52l-.62,1.73h-.59ZM26.65,24.95h2.16l-.57-1.58c-.07-.19-.15-.42-.23-.67s-.18-.55-.29-.9c-.1.35-.2.65-.28.91s-.16.48-.22.66l-.57,1.58Z"/>
    <path d="M31.96,27.17l-1.31-4.37h.56l.67,2.35c.06.21.12.43.18.67s.12.5.19.79c.06-.28.13-.54.19-.78s.12-.47.19-.69l.7-2.35h.58l.7,2.35c.06.21.12.44.18.68s.12.5.19.79c.06-.28.12-.54.19-.78s.12-.47.18-.68l.67-2.35h.56l-1.31,4.37h-.55l-.75-2.44c-.06-.21-.12-.43-.18-.65s-.12-.45-.18-.68c-.06.23-.12.46-.18.68s-.12.44-.18.65l-.75,2.44h-.55Z"/>
    <path d="M37.74,27.17v-5.82h1.9c.62,0,1.08.16,1.4.49s.48.75.48,1.26c0,.39-.09.72-.28,1.01s-.46.48-.82.6l1.34,2.46h-.64l-1.26-2.35c-.07,0-.14,0-.21,0h-1.35v2.34h-.55ZM38.3,24.33h1.32c.45,0,.79-.11,1.01-.33s.34-.52.34-.89-.11-.68-.34-.91-.56-.34-1.02-.34h-1.32v2.48Z"/>
    <path d="M46.74,27.26c-.41,0-.76-.1-1.06-.29s-.53-.46-.69-.79-.24-.73-.24-1.17.08-.83.24-1.17.38-.61.67-.8.62-.29,1-.29c.32,0,.62.08.9.23s.51.39.69.71.27.73.27,1.22v.23h-3.24c.01.5.15.9.41,1.19s.61.45,1.05.45c.3,0,.55-.07.75-.21s.33-.31.41-.5l.5.16c-.1.27-.29.51-.58.72s-.65.31-1.09.31ZM45.28,24.69h2.7c-.03-.42-.16-.78-.39-1.05s-.54-.42-.93-.42c-.26,0-.49.07-.7.2s-.36.31-.48.53-.19.47-.2.74Z"/>
    <path d="M50.87,27.17l-1.67-4.37h.58l1.01,2.75c.07.19.14.39.2.58s.12.39.18.58c.06-.19.11-.38.17-.58s.12-.39.2-.58l1.01-2.75h.57l-1.67,4.37h-.57Z"/>
    <path d="M55.79,27.26c-.41,0-.76-.1-1.06-.29s-.53-.46-.69-.79-.24-.73-.24-1.17.08-.83.24-1.17.38-.61.67-.8.62-.29,1-.29c.32,0,.62.08.9.23s.51.39.69.71.27.73.27,1.22v.23h-3.24c.01.5.15.9.41,1.19s.61.45,1.05.45c.3,0,.55-.07.75-.21s.33-.31.41-.5l.5.16c-.1.27-.29.51-.58.72s-.65.31-1.09.31ZM54.33,24.69h2.7c-.03-.42-.16-.78-.39-1.05s-.54-.42-.93-.42c-.26,0-.49.07-.7.2s-.36.31-.48.53-.19.47-.2.74Z"/>
    <path d="M59.35,24.45v2.72h-.53v-4.37h.51v.8c.14-.3.32-.52.56-.66s.51-.21.8-.21c.44,0,.8.14,1.08.41s.41.67.41,1.19v2.82h-.53v-2.79c0-.36-.1-.64-.3-.85s-.47-.31-.8-.31-.63.11-.86.33-.35.52-.35.89Z"/>
    <path d="M65.13,22.8v.46h-.9v2.88c0,.44.2.64.59.6.04,0,.08,0,.13-.01s.1-.02.15-.03l.11.46c-.11.04-.24.06-.4.06-.35.02-.62-.06-.82-.25s-.3-.45-.3-.79v-2.91h-.65v-.46h.65v-1.04h.53v1.04h.9Z"/>
  </g>
  <g>
    <path d="M449.46,27.17v-5.82h1.9c.41,0,.76.08,1.04.24.28.16.49.37.63.65.14.27.21.58.21.92s-.07.65-.21.92c-.14.27-.35.49-.63.65-.28.16-.62.24-1.03.24h-1.35v2.21h-.55ZM450.01,24.46h1.32c.45,0,.79-.12,1.01-.37.22-.25.34-.56.34-.94s-.11-.69-.34-.93c-.22-.25-.56-.37-1.02-.37h-1.32v2.62Z"/>
    <path d="M453.66,27.17l2.13-5.82h.66l2.15,5.82h-.59l-.63-1.73h-2.52l-.62,1.73h-.59ZM455.04,24.95h2.16l-.57-1.58c-.07-.19-.15-.42-.23-.67-.08-.25-.18-.55-.29-.9-.1.35-.2.65-.28.91-.08.25-.16.48-.22.66l-.57,1.58Z"/>
    <path d="M460.35,27.17l-1.31-4.37h.56l.67,2.35c.06.21.12.43.18.67s.12.5.19.79c.06-.28.13-.54.19-.78s.12-.47.19-.69l.7-2.35h.58l.7,2.35c.06.21.12.44.18.68s.12.5.19.79c.06-.28.12-.54.19-.78s.12-.47.18-.68l.67-2.35h.56l-1.31,4.37h-.55l-.75-2.44c-.06-.21-.12-.43-.18-.65-.06-.22-.12-.45-.18-.68-.06.23-.12.46-.18.68-.06.22-.12.44-.18.65l-.75,2.44h-.55Z"/>
    <path d="M466.14,27.17v-5.82h1.9c.62,0,1.08.16,1.4.49.32.33.48.75.48,1.26,0,.39-.09.72-.28,1.01-.19.28-.46.48-.82.6l1.34,2.46h-.64l-1.26-2.35c-.07,0-.14,0-.21,0h-1.35v2.34h-.55ZM466.69,24.33h1.32c.45,0,.79-.11,1.01-.33.22-.22.34-.52.34-.89s-.11-.68-.34-.91c-.22-.23-.56-.34-1.02-.34h-1.32v2.48Z"/>
    <path d="M475.13,27.26c-.41,0-.76-.1-1.06-.29-.3-.19-.53-.46-.69-.79-.16-.34-.24-.73-.24-1.17s.08-.83.24-1.17.38-.61.67-.8c.29-.2.62-.29,1-.29.32,0,.62.08.9.23.28.16.51.39.69.71.18.32.27.73.27,1.22v.23h-3.24c0,.5.15.9.41,1.19.26.3.61.45,1.05.45.3,0,.55-.07.75-.21s.33-.31.41-.5l.5.16c-.1.27-.29.51-.58.72-.29.21-.65.31-1.09.31ZM473.67,24.69h2.7c-.03-.42-.16-.78-.39-1.05-.23-.28-.54-.42-.93-.42-.26,0-.5.07-.7.2-.2.13-.36.31-.48.53-.12.22-.19.47-.2.74Z"/>
    <path d="M479.27,27.17l-1.67-4.37h.58l1.01,2.75c.07.19.14.39.2.58.06.19.12.39.18.58.06-.19.11-.38.17-.58.06-.19.12-.39.2-.58l1.01-2.75h.57l-1.67,4.37h-.57Z"/>
    <path d="M484.19,27.26c-.41,0-.76-.1-1.06-.29-.3-.19-.53-.46-.69-.79-.16-.34-.24-.73-.24-1.17s.08-.83.24-1.17.38-.61.67-.8c.29-.2.62-.29,1-.29.32,0,.62.08.9.23.28.16.51.39.69.71.18.32.27.73.27,1.22v.23h-3.24c0,.5.15.9.41,1.19.26.3.61.45,1.05.45.3,0,.55-.07.75-.21s.33-.31.41-.5l.5.16c-.1.27-.29.51-.58.72-.29.21-.65.31-1.09.31ZM482.73,24.69h2.7c-.03-.42-.16-.78-.39-1.05-.23-.28-.54-.42-.93-.42-.26,0-.5.07-.7.2-.2.13-.36.31-.48.53-.12.22-.19.47-.2.74Z"/>
    <path d="M487.74,24.45v2.72h-.53v-4.37h.51v.8c.14-.3.32-.52.56-.66.24-.14.51-.21.8-.21.44,0,.8.14,1.08.41.28.27.41.67.41,1.19v2.82h-.53v-2.79c0-.36-.1-.64-.3-.85-.2-.21-.47-.31-.8-.31s-.63.11-.86.33-.35.52-.35.89Z"/>
    <path d="M493.52,22.8v.46h-.9v2.88c0,.44.2.64.59.6.04,0,.08,0,.13-.01.05,0,.1-.02.15-.03l.11.46c-.11.04-.25.06-.4.06-.35.02-.62-.06-.82-.25-.2-.19-.3-.45-.3-.79v-2.91h-.65v-.46h.65v-1.04h.53v1.04h.9Z"/>
  </g>
  <g>
    <path class="cls-5" d="M161.55,90.1v-6h.52v.84h.06c.06-.13.14-.27.25-.41s.25-.25.43-.35.4-.14.67-.14c.35,0,.67.09.94.28s.48.45.63.79.23.73.23,1.18-.07.85-.22,1.19-.36.6-.63.79-.58.28-.94.28c-.26,0-.48-.05-.66-.14s-.32-.21-.43-.35-.19-.28-.25-.41h-.04v2.45h-.53ZM163.4,88.08c.28,0,.52-.08.72-.24s.35-.37.45-.64.15-.57.15-.91-.05-.63-.15-.9-.25-.48-.45-.63-.44-.23-.73-.23-.52.08-.72.23-.35.36-.45.62-.15.57-.15.92.05.65.16.92.25.48.45.63.43.23.71.23Z"/>
    <path class="cls-5" d="M168.31,88.56c-.41,0-.76-.1-1.06-.29s-.53-.46-.69-.79-.24-.73-.24-1.17.08-.83.24-1.17.38-.61.67-.8.62-.29,1-.29c.32,0,.62.08.9.23s.51.39.69.71.27.73.27,1.22v.23h-3.24c.01.5.15.9.41,1.19s.61.45,1.05.45c.3,0,.55-.07.75-.21s.33-.31.41-.5l.5.16c-.1.27-.29.51-.58.72s-.65.31-1.09.31ZM166.85,85.98h2.7c-.03-.42-.16-.78-.39-1.05s-.54-.42-.93-.42c-.26,0-.49.07-.7.2s-.36.31-.48.53-.19.47-.2.74Z"/>
    <path class="cls-5" d="M171.33,88.46v-4.37h.52v.68h.04c.09-.22.24-.4.46-.54s.46-.2.73-.2c.04,0,.09,0,.14,0s.1,0,.13,0v.53s-.06,0-.12-.02-.12-.01-.2-.01c-.34,0-.62.1-.84.31s-.33.48-.33.8v2.8h-.53Z"/>
    <path class="cls-5" d="M174.64,83.29c-.11,0-.2-.04-.27-.11s-.11-.16-.11-.26.04-.19.11-.26.17-.11.27-.11.2.04.27.11.11.16.11.26-.04.19-.11.26-.17.11-.27.11ZM174.37,88.46v-4.37h.53v4.37h-.53Z"/>
    <path class="cls-5" d="M178.06,88.56c-.38,0-.71-.1-1-.29s-.52-.46-.68-.79-.25-.73-.25-1.17.08-.84.25-1.18.39-.61.68-.8.62-.29,1-.29.71.1,1,.29.52.46.68.8.25.73.25,1.18-.08.83-.25,1.17-.39.6-.68.79-.62.29-1,.29ZM178.06,88.08c.3,0,.55-.08.76-.24s.37-.38.47-.64.16-.56.16-.89-.05-.62-.16-.89-.27-.49-.48-.65-.46-.24-.76-.24-.55.08-.76.24-.37.38-.47.65-.16.57-.16.89.05.62.16.89.27.48.47.64.46.24.76.24Z"/>
    <path class="cls-5" d="M182.84,88.56c-.36,0-.67-.09-.94-.28s-.48-.45-.63-.79-.22-.74-.22-1.19.08-.84.23-1.18.36-.6.63-.79.58-.28.94-.28c.27,0,.49.05.66.14s.32.21.43.35.19.27.25.41h.04v-2.29h.53v5.82h-.51v-.82h-.06c-.06.14-.14.27-.25.41s-.25.26-.43.35-.4.14-.66.14ZM182.91,88.08c.28,0,.52-.08.72-.23s.35-.37.45-.63.15-.58.15-.92-.05-.65-.15-.92-.25-.47-.45-.62-.44-.23-.72-.23-.53.08-.72.23-.35.37-.45.63-.15.57-.15.9.05.64.15.91.25.48.45.64.44.24.72.24Z"/>
    <path class="cls-5" d="M186.5,83.29c-.11,0-.2-.04-.27-.11s-.11-.16-.11-.26.04-.19.11-.26.17-.11.27-.11.2.04.27.11.11.16.11.26-.04.19-.11.26-.17.11-.27.11ZM186.23,88.46v-4.37h.53v4.37h-.53Z"/>
    <path class="cls-5" d="M189.93,88.54c-.38,0-.71-.09-1-.29s-.52-.45-.68-.79-.25-.73-.25-1.17.08-.84.25-1.18.39-.6.68-.79.62-.29,1-.29c.29,0,.56.06.79.17s.42.25.57.42.26.34.31.52l-.5.16c-.03-.11-.1-.23-.2-.35s-.23-.23-.39-.31-.35-.13-.58-.13c-.3,0-.55.08-.76.24s-.37.38-.47.64-.16.57-.16.9.05.62.16.89.27.48.47.64.46.24.76.24c.23,0,.42-.04.59-.13s.3-.2.4-.32.17-.25.2-.36l.5.16c-.05.18-.16.36-.31.53s-.35.32-.58.43-.5.17-.79.17Z"/>
    <path class="cls-5" d="M157.04,96.56c-.27,0-.51-.05-.72-.15s-.39-.25-.52-.45-.19-.43-.19-.72.07-.51.21-.69.34-.3.59-.39.54-.15.87-.19c.36-.04.64-.08.84-.12s.3-.14.3-.3v-.1c0-.29-.09-.52-.27-.69s-.43-.25-.76-.25-.57.07-.76.21-.33.3-.4.48l-.51-.17c.1-.24.23-.43.41-.57s.37-.25.59-.31.44-.1.67-.1c.17,0,.35.02.53.07s.35.12.51.23.28.26.38.45.14.43.14.72v2.96h-.52v-.69h-.04c-.1.2-.26.38-.48.54s-.52.24-.87.24ZM157.11,96.09c.27,0,.5-.06.69-.18s.35-.28.45-.47.16-.41.16-.65v-.62s-.14.09-.28.12-.29.06-.45.09-.3.04-.41.06c-.37.04-.65.13-.85.26s-.3.32-.3.58.09.46.28.61.42.22.7.22Z"/>
    <path class="cls-5" d="M161.98,96.56c-.36,0-.67-.09-.94-.28s-.48-.45-.63-.79-.22-.74-.22-1.19.08-.84.23-1.18.36-.6.63-.79.58-.28.94-.28c.27,0,.49.05.66.14s.32.21.43.35.19.27.25.41h.04v-2.29h.53v5.82h-.51v-.82h-.06c-.06.14-.14.27-.25.41s-.25.26-.43.35-.4.14-.66.14ZM162.05,96.08c.28,0,.52-.08.72-.23s.35-.37.45-.63.15-.58.15-.92-.05-.65-.15-.92-.25-.47-.45-.62-.44-.23-.72-.23-.53.08-.72.23-.35.37-.45.63-.15.57-.15.9.05.64.15.91.25.48.45.64.44.24.72.24Z"/>
    <path class="cls-5" d="M166.63,96.46l-1.67-4.37h.58l1.01,2.75c.07.19.14.39.2.58s.12.39.18.58c.06-.19.11-.38.17-.58s.12-.39.2-.58l1.01-2.75h.57l-1.67,4.37h-.57Z"/>
    <path class="cls-5" d="M171.55,96.56c-.41,0-.76-.1-1.06-.29s-.53-.46-.69-.79-.24-.73-.24-1.17.08-.83.24-1.17.38-.61.67-.8.62-.29,1-.29c.32,0,.62.08.9.23s.51.39.69.71.27.73.27,1.22v.23h-3.24c.01.5.15.9.41,1.19s.61.45,1.05.45c.3,0,.55-.07.75-.21s.33-.31.41-.5l.5.16c-.1.27-.29.51-.58.72s-.65.31-1.09.31ZM170.09,93.98h2.7c-.03-.42-.16-.78-.39-1.05s-.54-.42-.93-.42c-.26,0-.49.07-.7.2s-.36.31-.48.53-.19.47-.2.74Z"/>
    <path class="cls-5" d="M174.58,96.46v-4.37h.52v.68h.04c.09-.22.24-.4.46-.54s.46-.2.73-.2c.04,0,.09,0,.14,0s.1,0,.13,0v.53s-.06,0-.12-.02-.12-.01-.2-.01c-.34,0-.62.1-.84.31s-.33.48-.33.8v2.8h-.53Z"/>
    <path class="cls-5" d="M179.37,92.1v.46h-.9v2.88c0,.44.2.64.59.6.04,0,.08,0,.13-.01s.1-.02.15-.03l.11.46c-.11.04-.24.06-.4.06-.35.02-.62-.06-.82-.25s-.3-.45-.3-.79v-2.91h-.65v-.46h.65v-1.04h.53v1.04h.9Z"/>
    <path class="cls-5" d="M180.74,91.29c-.11,0-.2-.04-.27-.11s-.11-.16-.11-.26.04-.19.11-.26.17-.11.27-.11.2.04.27.11.11.16.11.26-.04.19-.11.26-.17.11-.27.11ZM180.47,96.46v-4.37h.53v4.37h-.53Z"/>
    <path class="cls-5" d="M183.82,96.56c-.43,0-.78-.1-1.06-.29s-.46-.47-.54-.84l.51-.12c.06.26.19.46.37.59s.42.19.71.19c.33,0,.6-.07.79-.22s.3-.33.3-.55c0-.35-.24-.59-.71-.7l-.71-.17c-.75-.18-1.12-.57-1.12-1.16,0-.25.07-.46.2-.64s.31-.33.54-.43.49-.16.79-.16c.41,0,.74.09.98.28s.41.44.51.75l-.48.12c-.07-.2-.18-.37-.34-.5s-.38-.2-.67-.2-.53.07-.71.21-.28.32-.28.53c0,.36.26.6.78.73l.67.16c.74.18,1.11.56,1.11,1.15,0,.25-.07.47-.21.66s-.33.34-.58.45-.53.16-.85.16Z"/>
    <path class="cls-5" d="M186.96,91.29c-.11,0-.2-.04-.27-.11s-.11-.16-.11-.26.04-.19.11-.26.17-.11.27-.11.2.04.27.11.11.16.11.26-.04.19-.11.26-.17.11-.27.11ZM186.69,96.46v-4.37h.53v4.37h-.53Z"/>
    <path class="cls-5" d="M189.23,93.74v2.72h-.53v-4.37h.51v.8c.14-.3.32-.52.56-.66s.51-.21.8-.21c.44,0,.8.14,1.08.41s.41.67.41,1.19v2.82h-.53v-2.79c0-.36-.1-.64-.3-.85s-.47-.31-.8-.31-.63.11-.86.33-.35.52-.35.89Z"/>
    <path class="cls-5" d="M195.22,98.19c-.45,0-.81-.08-1.1-.25s-.49-.38-.62-.64l.44-.27c.09.17.24.33.43.47s.48.21.84.21c.39,0,.7-.1.93-.29s.35-.49.35-.89v-.98h-.05c-.06.14-.14.27-.25.4s-.25.24-.43.32-.4.13-.66.13c-.35,0-.65-.08-.92-.26s-.48-.42-.63-.74-.23-.7-.23-1.15.08-.83.23-1.17.36-.6.63-.78.58-.28.94-.28c.27,0,.49.05.66.14s.32.21.43.35.19.27.25.41h.05v-.84h.52v4.47c0,.37-.08.67-.24.91s-.37.42-.64.53-.58.17-.93.17ZM195.19,95.94c.42,0,.74-.15.97-.45s.35-.71.35-1.23c0-.34-.05-.64-.15-.9s-.25-.47-.45-.62-.44-.22-.72-.22-.53.08-.73.23-.35.36-.45.63-.15.56-.15.88c0,.5.12.9.35,1.21s.56.47.99.47Z"/>
    <path class="cls-5" d="M160.95,104.56c-.43,0-.78-.1-1.06-.29s-.46-.47-.54-.84l.51-.12c.06.26.19.46.37.59s.42.19.71.19c.33,0,.6-.07.79-.22s.3-.33.3-.55c0-.35-.24-.59-.71-.7l-.71-.17c-.75-.18-1.12-.57-1.12-1.16,0-.25.07-.46.2-.64s.31-.33.54-.43.49-.16.79-.16c.41,0,.74.09.98.28s.41.44.51.75l-.48.12c-.07-.2-.18-.37-.34-.5s-.38-.2-.67-.2-.53.07-.71.21-.28.32-.28.53c0,.36.26.6.78.73l.67.16c.74.18,1.11.56,1.11,1.15,0,.25-.07.47-.21.66s-.33.34-.58.45-.53.16-.85.16Z"/>
    <path class="cls-5" d="M165.28,104.52c-.44,0-.8-.14-1.08-.41s-.42-.67-.42-1.19v-2.82h.53v2.79c0,.36.1.64.3.85s.47.31.8.31.63-.11.86-.33.35-.52.35-.89v-2.72h.53v4.37h-.52v-.81c-.14.31-.32.53-.56.66s-.51.2-.8.2Z"/>
    <path class="cls-5" d="M170.55,104.56c-.26,0-.48-.05-.66-.14s-.32-.21-.43-.35-.19-.28-.25-.41h-.06v.82h-.52v-5.82h.53v2.29h.04c.06-.13.14-.27.25-.41s.25-.25.43-.35.4-.14.67-.14c.35,0,.67.09.94.28s.48.45.63.79.23.73.23,1.18-.07.85-.22,1.19-.36.6-.63.79-.58.28-.94.28ZM170.48,104.08c.28,0,.52-.08.72-.24s.35-.37.45-.64.15-.57.15-.91-.05-.63-.15-.9-.25-.48-.45-.63-.44-.23-.73-.23-.52.08-.72.23-.35.36-.45.62-.15.57-.15.92.05.65.16.92.25.48.45.63.43.23.71.23Z"/>
    <path class="cls-5" d="M175.39,104.56c-.41,0-.76-.1-1.06-.29s-.53-.46-.69-.79-.24-.73-.24-1.17.08-.83.24-1.17.38-.61.67-.8.62-.29,1-.29c.32,0,.62.08.9.23s.51.39.69.71.27.73.27,1.22v.23h-3.24c.01.5.15.9.41,1.19s.61.45,1.05.45c.3,0,.55-.07.75-.21s.33-.31.41-.5l.5.16c-.1.27-.29.51-.58.72s-.65.31-1.09.31ZM173.93,101.98h2.7c-.03-.42-.16-.78-.39-1.05s-.54-.42-.93-.42c-.26,0-.49.07-.7.2s-.36.31-.48.53-.19.47-.2.74Z"/>
    <path class="cls-5" d="M179.53,104.46l-1.67-4.37h.58l1.01,2.75c.07.19.14.39.2.58s.12.39.18.58c.06-.19.11-.38.17-.58s.12-.39.2-.58l1.01-2.75h.57l-1.67,4.37h-.57Z"/>
    <path class="cls-5" d="M184.45,104.56c-.41,0-.76-.1-1.06-.29s-.53-.46-.69-.79-.24-.73-.24-1.17.08-.83.24-1.17.38-.61.67-.8.62-.29,1-.29c.32,0,.62.08.9.23s.51.39.69.71.27.73.27,1.22v.23h-3.24c.01.5.15.9.41,1.19s.61.45,1.05.45c.3,0,.55-.07.75-.21s.33-.31.41-.5l.5.16c-.1.27-.29.51-.58.72s-.65.31-1.09.31ZM182.99,101.98h2.7c-.03-.42-.16-.78-.39-1.05s-.54-.42-.93-.42c-.26,0-.49.07-.7.2s-.36.31-.48.53-.19.47-.2.74Z"/>
    <path class="cls-5" d="M188.01,101.74v2.72h-.53v-4.37h.51v.8c.14-.3.32-.52.56-.66s.51-.21.8-.21c.44,0,.8.14,1.08.41s.41.67.41,1.19v2.82h-.53v-2.79c0-.36-.1-.64-.3-.85s-.47-.31-.8-.31-.63.11-.86.33-.35.52-.35.89Z"/>
    <path class="cls-5" d="M193.79,100.1v.46h-.9v2.88c0,.44.2.64.59.6.04,0,.08,0,.13-.01s.1-.02.15-.03l.11.46c-.11.04-.24.06-.4.06-.35.02-.62-.06-.82-.25s-.3-.45-.3-.79v-2.91h-.65v-.46h.65v-1.04h.53v1.04h.9Z"/>
    <path class="cls-5" d="M163.3,107.29c-.11,0-.2-.04-.27-.11s-.11-.16-.11-.26.04-.19.11-.26.17-.11.27-.11.2.04.27.11.11.16.11.26-.04.19-.11.26-.17.11-.27.11ZM163.03,112.46v-4.37h.53v4.37h-.53Z"/>
    <path class="cls-5" d="M165.58,109.74v2.72h-.53v-4.37h.51v.8c.14-.3.32-.52.56-.66s.51-.21.8-.21c.44,0,.8.14,1.08.41s.41.67.41,1.19v2.82h-.53v-2.79c0-.36-.1-.64-.3-.85s-.47-.31-.8-.31-.63.11-.86.33-.35.52-.35.89Z"/>
    <path class="cls-5" d="M171.36,108.1v.46h-.9v2.88c0,.44.2.64.59.6.04,0,.08,0,.13-.01s.1-.02.15-.03l.11.46c-.11.04-.24.06-.4.06-.35.02-.62-.06-.82-.25s-.3-.45-.3-.79v-2.91h-.65v-.46h.65v-1.04h.53v1.04h.9Z"/>
    <path class="cls-5" d="M174.05,112.56c-.41,0-.76-.1-1.06-.29s-.53-.46-.69-.79-.24-.73-.24-1.17.08-.83.24-1.17.38-.61.67-.8.62-.29,1-.29c.32,0,.62.08.9.23s.51.39.69.71.27.73.27,1.22v.23h-3.24c.01.5.15.9.41,1.19s.61.45,1.05.45c.3,0,.55-.07.75-.21s.33-.31.41-.5l.5.16c-.1.27-.29.51-.58.72s-.65.31-1.09.31ZM172.59,109.98h2.7c-.03-.42-.16-.78-.39-1.05s-.54-.42-.93-.42c-.26,0-.49.07-.7.2s-.36.31-.48.53-.19.47-.2.74Z"/>
    <path class="cls-5" d="M177.08,112.46v-4.37h.52v.68h.04c.09-.22.24-.4.46-.54s.46-.2.73-.2c.04,0,.09,0,.14,0s.1,0,.13,0v.53s-.06,0-.12-.02-.12-.01-.2-.01c-.34,0-.62.1-.84.31s-.33.48-.33.8v2.8h-.53Z"/>
    <path class="cls-5" d="M181.57,112.46l-1.67-4.37h.58l1.01,2.75c.07.19.14.39.2.58s.12.39.18.58c.06-.19.11-.38.17-.58s.12-.39.2-.58l1.01-2.75h.57l-1.67,4.37h-.57Z"/>
    <path class="cls-5" d="M185.97,112.56c-.27,0-.51-.05-.72-.15s-.39-.25-.52-.45-.19-.43-.19-.72.07-.51.21-.69.34-.3.59-.39.54-.15.87-.19c.36-.04.64-.08.84-.12s.3-.14.3-.3v-.1c0-.29-.09-.52-.27-.69s-.43-.25-.76-.25-.57.07-.76.21-.33.3-.4.48l-.51-.17c.1-.24.23-.43.41-.57s.37-.25.59-.31.44-.1.67-.1c.17,0,.35.02.53.07s.35.12.51.23.28.26.38.45.14.43.14.72v2.96h-.52v-.69h-.04c-.1.2-.26.38-.48.54s-.52.24-.87.24ZM186.05,112.09c.27,0,.5-.06.69-.18s.35-.28.45-.47.16-.41.16-.65v-.62s-.14.09-.28.12-.29.06-.45.09-.3.04-.41.06c-.37.04-.65.13-.85.26s-.3.32-.3.58.09.46.28.61.42.22.7.22Z"/>
    <path class="cls-5" d="M189.88,106.64v5.82h-.53v-5.82h.53Z"/>
  </g>
</svg>