<?xml version="1.0" encoding="UTF-8"?>
<svg id="Layer_1" data-name="Layer 1" xmlns="http://www.w3.org/2000/svg" viewBox="0 0 684 134.91">
  <defs>
    <style>
      .cls-1 {
        fill: #fff;
      }

      .cls-1, .cls-2 {
        stroke: #646569;
        stroke-miterlimit: 10;
      }

      .cls-2 {
        fill: none;
      }
    </style>
  </defs>
  <line class="cls-2" x1="139.03" y1="67.45" x2="577.89" y2="67.45"/>
  <rect class="cls-1" x="22.62" y="33.58" width="144" height="67.73"/>
  <rect class="cls-1" x="519.19" y="33.58" width="144.18" height="67.73" transform="translate(1182.56 134.88) rotate(180)"/>
  <rect class="cls-1" x="187.43" y="33.36" width="144" height="67.73"/>
  <rect class="cls-1" x="354.49" y="33.36" width="146.23" height="67.73"/>
  <g>
    <path d="M34.18,56.21v4.03h-2.5v-11.2h4.22c.57,0,1.09.09,1.56.27.47.18.87.43,1.22.74.34.32.61.7.79,1.14.18.44.28.92.28,1.44s-.09,1.01-.28,1.45c-.18.44-.45.82-.79,1.14s-.75.56-1.22.73c-.47.17-.99.26-1.56.26h-1.72ZM35.65,54.07c.47,0,.86-.13,1.15-.38.29-.25.44-.6.44-1.04s-.15-.81-.44-1.06c-.29-.25-.68-.38-1.15-.38h-1.45v2.86h1.45Z"/>
    <path d="M43.61,60.24h-2.4v-11.44h2.4v4.09c.24-.24.55-.42.92-.54.37-.12.73-.17,1.08-.17.52,0,.96.08,1.33.25.37.16.68.39.92.67.24.28.42.62.54,1,.12.38.17.78.17,1.22v4.93h-2.4v-4.52c0-.39-.1-.71-.31-.97-.21-.26-.53-.39-.97-.39-.38,0-.68.12-.92.36s-.36.54-.38.91v4.61Z"/>
    <path d="M51.16,63.26l1.78-4.07-3.3-6.79h2.68l1.91,4.2,1.74-4.2h2.54l-4.83,10.87h-2.53Z"/>
    <path d="M61.12,57.65c.02.27.13.52.32.73.2.22.5.32.91.32.31,0,.53-.07.69-.21.15-.14.23-.29.23-.47,0-.15-.05-.28-.17-.39-.11-.11-.31-.2-.61-.26l-.9-.21c-.42-.09-.78-.22-1.07-.38-.29-.16-.54-.34-.73-.55-.19-.21-.33-.44-.41-.69-.08-.25-.13-.52-.13-.79,0-.36.07-.7.22-1.01.15-.32.36-.59.62-.83.27-.24.59-.42.96-.56.37-.14.77-.21,1.22-.21.57,0,1.05.08,1.44.24.39.16.71.36.96.59.25.24.43.49.54.76.12.27.18.52.21.75l-1.99.36c-.03-.26-.13-.49-.31-.68s-.45-.28-.81-.28c-.23,0-.43.06-.6.18-.17.12-.25.29-.25.5,0,.17.06.3.17.39.12.09.26.16.44.19l1.04.21c.82.17,1.43.48,1.82.92.39.45.59.96.59,1.54,0,.34-.06.66-.19.98-.13.32-.32.6-.58.85-.26.25-.59.45-.98.6-.39.15-.85.23-1.37.23-.62,0-1.14-.09-1.56-.26-.42-.17-.75-.39-1-.64-.25-.25-.44-.52-.56-.81-.12-.28-.19-.54-.2-.76l2.04-.36Z"/>
    <path d="M66.89,49.99c0-.19.04-.37.11-.54.07-.17.17-.32.3-.45.13-.13.27-.23.44-.3.17-.07.35-.11.54-.11.4,0,.74.14,1.01.41.27.27.41.61.41,1s-.14.72-.41,1c-.27.27-.61.41-1.01.41-.19,0-.37-.04-.54-.11-.17-.07-.32-.17-.44-.3-.13-.13-.23-.28-.3-.45-.07-.17-.11-.36-.11-.54ZM67.1,60.24v-7.85h2.4v7.85h-2.4Z"/>
    <path d="M75.21,54.37c-.25,0-.49.04-.7.13-.22.08-.41.21-.57.38s-.29.37-.39.62-.14.52-.14.84.05.59.15.83c.1.24.23.44.4.61.16.17.35.29.58.38.22.08.46.13.71.13.46,0,.83-.12,1.1-.36s.44-.51.53-.81l2.12.65c-.08.35-.23.68-.43,1.01-.21.33-.47.62-.78.87-.32.25-.68.46-1.11.62s-.89.24-1.42.24c-.59,0-1.14-.1-1.65-.31-.51-.21-.96-.49-1.33-.86s-.68-.81-.9-1.31-.33-1.06-.33-1.67.11-1.17.32-1.68.51-.95.88-1.32c.37-.37.81-.66,1.31-.86.5-.21,1.04-.31,1.62-.31.54,0,1.02.08,1.45.23.43.15.81.35,1.12.61.32.25.57.54.77.88.2.33.34.67.43,1.02l-2.15.65c-.04-.15-.11-.29-.19-.43-.08-.14-.19-.27-.32-.38-.13-.11-.28-.2-.46-.26-.18-.06-.38-.09-.62-.09Z"/>
    <path d="M79.98,58.08c0-.35.06-.66.18-.93.12-.27.29-.51.5-.7.21-.19.46-.35.73-.47.28-.12.58-.21.91-.26l1.85-.28c.21-.03.36-.09.44-.19s.13-.21.13-.35c0-.23-.1-.43-.29-.6-.19-.17-.48-.25-.86-.25-.42,0-.75.12-.97.36-.23.24-.35.5-.37.8l-2.08-.43c.02-.28.11-.58.25-.88.15-.31.36-.58.64-.84.28-.25.63-.46,1.05-.63.42-.17.92-.25,1.5-.25.63,0,1.17.08,1.61.24.44.16.8.38,1.08.66.28.28.48.6.6.97s.18.75.18,1.15v3.84c0,.31.01.57.04.81.03.23.04.37.06.41h-2.16s-.03-.12-.05-.26c-.02-.14-.03-.35-.03-.62-.21.34-.5.61-.87.81-.37.2-.82.3-1.34.3-.43,0-.82-.07-1.15-.2-.34-.13-.62-.31-.85-.53s-.41-.47-.53-.76c-.12-.28-.18-.58-.18-.9ZM83.28,58.73c.18,0,.36-.02.53-.07.17-.05.33-.13.46-.25.13-.12.24-.28.32-.48.08-.2.13-.45.13-.76v-.35l-1.48.24c-.25.04-.46.13-.63.26-.17.13-.25.33-.25.61,0,.21.07.4.21.56.14.16.38.25.72.25Z"/>
    <path d="M89.08,60.24v-11.44h2.4v11.44h-2.4Z"/>
    <path d="M102.8,60.48c-.81,0-1.57-.14-2.27-.42s-1.32-.67-1.84-1.18-.93-1.12-1.24-1.83c-.31-.72-.46-1.51-.46-2.38s.16-1.67.47-2.39.73-1.34,1.26-1.85,1.14-.91,1.84-1.19c.7-.28,1.44-.43,2.22-.43.84,0,1.57.12,2.18.36.61.24,1.13.55,1.55.92.42.37.75.78.99,1.22.24.44.4.86.5,1.26l-2.35.74c-.04-.19-.12-.41-.25-.65s-.29-.47-.51-.69c-.22-.22-.5-.4-.85-.54-.34-.14-.76-.21-1.25-.21-.38,0-.76.07-1.14.21s-.72.35-1.03.62-.55.63-.74,1.07c-.19.43-.28.94-.28,1.53,0,.53.09.99.27,1.41.18.41.42.76.72,1.04.3.28.64.5,1.03.65.38.15.79.22,1.21.22.48,0,.9-.07,1.25-.21s.64-.32.87-.54.41-.44.54-.69.22-.46.28-.66l2.38.68c-.09.39-.26.81-.5,1.26s-.57.88-1,1.27-.96.72-1.59.99c-.63.26-1.38.39-2.24.39Z"/>
    <path d="M112.08,60.24h-2.4v-11.44h2.4v4.09c.24-.24.55-.42.92-.54.37-.12.73-.17,1.08-.17.52,0,.96.08,1.33.25.37.16.68.39.92.67.24.28.42.62.54,1,.12.38.17.78.17,1.22v4.93h-2.4v-4.52c0-.39-.1-.71-.31-.97-.21-.26-.53-.39-.97-.39-.38,0-.68.12-.92.36s-.36.54-.38.91v4.61Z"/>
    <path d="M118.6,58.08c0-.35.06-.66.18-.93.12-.27.29-.51.5-.7.21-.19.46-.35.73-.47.28-.12.58-.21.91-.26l1.85-.28c.21-.03.36-.09.44-.19s.13-.21.13-.35c0-.23-.1-.43-.29-.6-.19-.17-.48-.25-.86-.25-.42,0-.75.12-.97.36-.23.24-.35.5-.37.8l-2.08-.43c.02-.28.11-.58.25-.88.15-.31.36-.58.64-.84.28-.25.63-.46,1.05-.63.42-.17.92-.25,1.5-.25.63,0,1.17.08,1.61.24.44.16.8.38,1.08.66.28.28.48.6.6.97s.18.75.18,1.15v3.84c0,.31.01.57.04.81.03.23.04.37.06.41h-2.16s-.03-.12-.05-.26c-.02-.14-.03-.35-.03-.62-.21.34-.5.61-.87.81-.37.2-.82.3-1.34.3-.43,0-.82-.07-1.15-.2-.34-.13-.62-.31-.85-.53s-.41-.47-.53-.76c-.12-.28-.18-.58-.18-.9ZM121.9,58.73c.18,0,.36-.02.53-.07.17-.05.33-.13.46-.25.13-.12.24-.28.32-.48.08-.2.13-.45.13-.76v-.35l-1.48.24c-.25.04-.46.13-.63.26-.17.13-.25.33-.25.61,0,.21.07.4.21.56.14.16.38.25.72.25Z"/>
    <path d="M130.1,60.24h-2.4v-7.85h2.32v.9c.11-.19.24-.35.41-.49.17-.14.35-.25.54-.34.19-.09.4-.16.62-.21s.42-.07.62-.07c.5,0,.92.08,1.28.25.36.16.66.39.89.67.24.28.41.62.52,1,.11.38.17.78.17,1.22v4.93h-2.4v-4.52c0-.39-.1-.71-.31-.97-.21-.26-.53-.39-.97-.39-.4,0-.72.13-.95.39-.23.26-.35.59-.35.99v4.5Z"/>
    <path d="M139.49,60.24h-2.4v-7.85h2.32v.9c.11-.19.24-.35.41-.49.17-.14.35-.25.54-.34.19-.09.4-.16.62-.21s.42-.07.62-.07c.5,0,.92.08,1.28.25.36.16.66.39.89.67.24.28.41.62.52,1,.11.38.17.78.17,1.22v4.93h-2.4v-4.52c0-.39-.1-.71-.31-.97-.21-.26-.53-.39-.97-.39-.4,0-.72.13-.95.39-.23.26-.35.59-.35.99v4.5Z"/>
    <path d="M153.63,57.98c-.09.34-.24.66-.44.96-.2.31-.45.57-.76.8-.31.23-.66.41-1.07.54-.41.13-.86.2-1.35.2-.54,0-1.05-.09-1.55-.28s-.93-.46-1.31-.82-.68-.79-.9-1.31c-.22-.52-.33-1.11-.33-1.77s.11-1.2.32-1.71.5-.94.87-1.3c.36-.36.78-.63,1.26-.83s.96-.29,1.47-.29c1.22,0,2.18.35,2.88,1.06s1.05,1.7,1.05,2.97c0,.17,0,.33-.02.48-.01.15-.02.24-.03.26h-5.46c.01.22.07.42.17.61.1.18.23.34.39.48.16.14.35.24.56.32.21.07.43.11.66.11.44,0,.79-.09,1.03-.28.25-.19.43-.44.54-.74l2.01.57ZM151.45,55.38c-.01-.15-.04-.3-.1-.46-.06-.16-.15-.3-.28-.43-.13-.13-.29-.23-.48-.32-.2-.08-.43-.13-.72-.13-.25,0-.47.04-.66.13-.19.08-.35.19-.48.32s-.23.27-.3.43c-.07.16-.11.31-.12.46h3.14Z"/>
    <path d="M155.32,60.24v-11.44h2.4v11.44h-2.4Z"/>
    <path d="M59.57,78.67v-7.8h1.08v6.79h3.68v1.01h-4.76Z"/>
    <path d="M65.6,78.67v-7.8h4.74v1h-3.66v2.4h3.32v1.01h-3.32v2.39h3.66v1h-4.74Z"/>
    <path d="M79.29,76.49h-3.45l-.83,2.18h-1.15l3.1-7.8h1.24l3.1,7.8h-1.17l-.85-2.18ZM76.23,75.49h2.68l-1.35-3.5-1.33,3.5Z"/>
    <path d="M86,77.87c-.12.26-.32.48-.6.67-.27.19-.62.28-1.04.28-.39,0-.74-.07-1.04-.21-.31-.14-.57-.34-.79-.59-.22-.25-.38-.55-.5-.89-.12-.34-.18-.71-.18-1.11,0-.37.06-.73.18-1.06.12-.33.29-.63.51-.88s.48-.45.79-.6c.31-.15.65-.23,1.02-.23.23,0,.44.03.62.08s.34.12.47.2c.13.08.24.18.33.29.09.11.15.21.2.32v-3.42h1.02v6.98c0,.26,0,.47.02.65.01.18.03.29.03.33h-1c-.01-.06-.03-.15-.04-.28-.01-.13-.02-.27-.02-.43v-.09ZM82.91,76.01c0,.27.03.52.1.75.07.23.17.43.3.6.13.17.29.3.48.4.19.1.41.14.66.14.23,0,.45-.05.64-.15.19-.1.35-.23.48-.4.13-.17.23-.37.3-.6.07-.23.1-.49.1-.76,0-.55-.13-.99-.4-1.33-.27-.34-.64-.51-1.12-.51-.23,0-.45.05-.64.14s-.36.22-.49.38c-.14.17-.24.36-.31.59-.07.23-.11.48-.11.75Z"/>
    <path d="M91.19,78.67h-1.04l-2.14-5.29h1.17l1.51,4.08,1.52-4.08h1.11l-2.11,5.29Z"/>
    <path d="M98.9,77.16c-.07.23-.18.45-.33.65-.14.2-.32.38-.52.53-.2.15-.43.27-.69.36-.26.09-.54.13-.85.13-.35,0-.69-.06-1.01-.19-.32-.12-.61-.31-.85-.55-.25-.24-.44-.54-.58-.89-.14-.35-.21-.75-.21-1.2,0-.42.07-.8.21-1.14.14-.34.32-.63.56-.88.23-.25.5-.44.81-.57.31-.14.63-.2.96-.2.4,0,.76.07,1.08.2s.58.32.8.57c.21.24.38.53.49.87.11.34.17.72.17,1.13,0,.07,0,.13,0,.19,0,.06,0,.11-.02.14h-3.98c0,.23.05.45.13.65.08.2.19.37.33.51.14.14.31.25.51.33.19.08.4.12.62.12.43,0,.76-.1.99-.31.23-.21.39-.46.5-.76l.89.31ZM97.85,75.48c-.01-.38-.14-.7-.39-.96-.24-.26-.6-.39-1.07-.39-.22,0-.42.04-.59.12-.17.08-.32.18-.44.31-.12.13-.22.27-.29.43-.07.16-.11.33-.12.5h2.89Z"/>
    <path d="M103.19,74.42c-.15-.02-.3-.03-.45-.03-.43,0-.78.13-1.05.38s-.4.67-.4,1.25v2.65h-1.03v-5.29h1.01v.92c.1-.21.21-.37.34-.5.13-.13.26-.23.4-.31.14-.08.28-.13.43-.16.15-.03.29-.04.42-.04.07,0,.14,0,.2.01.06,0,.11.02.14.02v1.1Z"/>
    <path d="M105.95,73.38h1.14v.94h-1.14v2.75c0,.24.06.42.17.54.11.12.3.18.57.18.07,0,.14,0,.22-.01.08,0,.14-.02.19-.03v.88s-.13.03-.25.06c-.12.03-.28.04-.45.04-.46,0-.81-.13-1.08-.39s-.4-.63-.4-1.12v-2.9h-1.01v-.94h.29c.29,0,.49-.08.62-.23.13-.15.19-.35.19-.58v-.86h.95v1.67Z"/>
    <path d="M108.24,71.38c0-.21.07-.39.21-.53.14-.14.32-.21.52-.21s.39.07.53.21c.14.14.21.32.21.53s-.07.38-.21.52c-.14.14-.32.21-.53.21s-.38-.07-.52-.21c-.14-.14-.21-.32-.21-.52ZM108.47,78.67v-5.29h1.02v5.29h-1.02Z"/>
    <path d="M111.69,76.96c.04.28.16.51.36.7.21.19.5.29.87.29.29,0,.52-.07.67-.21.15-.14.23-.3.23-.5,0-.17-.06-.31-.18-.43-.12-.12-.29-.2-.51-.25l-.9-.2c-.42-.09-.74-.26-.97-.53-.23-.26-.35-.58-.35-.96,0-.23.05-.44.15-.64.1-.2.23-.38.4-.53.17-.15.37-.27.6-.36.23-.09.47-.13.73-.13.36,0,.66.05.91.15.25.1.45.23.6.38.15.15.27.31.35.47.08.16.13.3.16.42l-.91.34c-.01-.07-.04-.15-.08-.25-.04-.1-.1-.2-.18-.29-.08-.09-.19-.17-.33-.24-.14-.07-.31-.1-.52-.1-.26,0-.48.07-.64.21s-.24.31-.24.49c0,.34.2.55.61.64l.86.19c.48.1.85.29,1.09.57s.37.61.37,1.01c0,.19-.04.38-.12.57-.08.19-.2.37-.36.53-.16.16-.36.29-.6.39-.24.1-.53.15-.86.15-.37,0-.68-.05-.94-.15-.26-.1-.48-.23-.65-.39-.17-.15-.3-.32-.4-.5s-.15-.35-.17-.5l.94-.33Z"/>
    <path d="M115.99,71.38c0-.21.07-.39.21-.53.14-.14.32-.21.52-.21s.39.07.53.21c.14.14.21.32.21.53s-.07.38-.21.52c-.14.14-.32.21-.53.21s-.38-.07-.52-.21c-.14-.14-.21-.32-.21-.52ZM116.22,78.67v-5.29h1.02v5.29h-1.02Z"/>
    <path d="M120.04,78.67h-1.03v-5.29h1.01v.76c.19-.33.43-.56.73-.7.29-.14.59-.21.9-.21s.59.05.83.16c.24.11.44.25.59.44.16.19.28.41.35.67.08.26.12.53.12.83v3.35h-1.03v-3.18c0-.18-.02-.36-.06-.52-.04-.16-.11-.3-.21-.42s-.23-.22-.38-.29c-.16-.07-.35-.1-.58-.1-.21,0-.39.04-.54.12-.15.08-.28.18-.39.31s-.18.29-.23.46c-.05.18-.08.36-.08.56v3.06Z"/>
    <path d="M125.8,78.72c.04.37.18.68.45.93s.59.37,1,.37c.56,0,.97-.14,1.23-.43.26-.29.39-.71.39-1.29v-.76c-.12.24-.33.45-.6.62-.28.17-.62.25-1.01.25-.35,0-.68-.06-.97-.19-.3-.13-.55-.3-.77-.53-.22-.22-.38-.49-.51-.81-.12-.31-.18-.66-.18-1.03s.06-.69.18-1.01c.12-.31.28-.58.5-.81.21-.23.47-.41.76-.55s.63-.2,1-.2c.41,0,.75.07,1.02.22s.47.35.61.62v-.74h1.02v4.9c0,.34-.04.67-.13.98-.09.32-.24.6-.45.85s-.48.44-.82.59c-.34.15-.76.23-1.25.23-.33,0-.64-.05-.92-.15s-.53-.24-.75-.41c-.22-.18-.39-.38-.53-.62s-.22-.5-.25-.79l1-.23ZM127.4,77.55c.45,0,.81-.15,1.09-.46.28-.31.42-.72.42-1.23s-.14-.92-.42-1.23c-.28-.31-.64-.46-1.09-.46s-.83.15-1.11.46c-.28.31-.42.72-.42,1.23s.14.93.41,1.24c.27.3.65.46,1.12.46Z"/>
  </g>
  <g>
    <path d="M214.2,56.21v4.03h-2.5v-11.2h4.22c.57,0,1.09.09,1.56.27.47.18.87.43,1.22.74.34.32.61.7.79,1.14.18.44.28.92.28,1.44s-.09,1.01-.28,1.45c-.18.44-.45.82-.79,1.14s-.75.56-1.22.73c-.47.17-.99.26-1.56.26h-1.72ZM215.66,54.07c.47,0,.86-.13,1.15-.38.29-.25.44-.6.44-1.04s-.15-.81-.44-1.06c-.29-.25-.68-.38-1.15-.38h-1.45v2.86h1.45Z"/>
    <path d="M223.62,60.24h-2.4v-11.44h2.4v4.09c.24-.24.55-.42.92-.54.37-.12.73-.17,1.08-.17.52,0,.96.08,1.33.25.37.16.68.39.92.67.24.28.42.62.54,1,.12.38.17.78.17,1.22v4.93h-2.4v-4.52c0-.39-.1-.71-.31-.97-.21-.26-.53-.39-.97-.39-.38,0-.68.12-.92.36s-.36.54-.38.91v4.61Z"/>
    <path d="M231.17,63.26l1.78-4.07-3.3-6.79h2.68l1.91,4.2,1.74-4.2h2.54l-4.83,10.87h-2.53Z"/>
    <path d="M241.14,57.65c.02.27.13.52.32.73.2.22.5.32.91.32.31,0,.53-.07.69-.21.15-.14.23-.29.23-.47,0-.15-.05-.28-.17-.39-.11-.11-.31-.2-.61-.26l-.9-.21c-.42-.09-.78-.22-1.07-.38-.29-.16-.54-.34-.73-.55-.19-.21-.33-.44-.41-.69-.08-.25-.13-.52-.13-.79,0-.36.07-.7.22-1.01.15-.32.36-.59.62-.83.27-.24.59-.42.96-.56.37-.14.77-.21,1.22-.21.57,0,1.05.08,1.44.24.39.16.71.36.96.59.25.24.43.49.54.76.12.27.18.52.21.75l-1.99.36c-.03-.26-.13-.49-.31-.68s-.45-.28-.81-.28c-.23,0-.43.06-.6.18-.17.12-.25.29-.25.5,0,.17.06.3.17.39.12.09.26.16.44.19l1.04.21c.82.17,1.43.48,1.82.92.39.45.59.96.59,1.54,0,.34-.06.66-.19.98-.13.32-.32.6-.58.85-.26.25-.59.45-.98.6-.39.15-.85.23-1.37.23-.62,0-1.14-.09-1.56-.26-.42-.17-.75-.39-1-.64-.25-.25-.44-.52-.56-.81-.12-.28-.19-.54-.2-.76l2.04-.36Z"/>
    <path d="M246.9,49.99c0-.19.04-.37.11-.54.07-.17.17-.32.3-.45.13-.13.27-.23.44-.3.17-.07.35-.11.54-.11.4,0,.74.14,1.01.41.27.27.41.61.41,1s-.14.72-.41,1c-.27.27-.61.41-1.01.41-.19,0-.37-.04-.54-.11-.17-.07-.32-.17-.44-.3-.13-.13-.23-.28-.3-.45-.07-.17-.11-.36-.11-.54ZM247.11,60.24v-7.85h2.4v7.85h-2.4Z"/>
    <path d="M255.23,54.37c-.25,0-.49.04-.7.13-.22.08-.41.21-.57.38s-.29.37-.39.62-.14.52-.14.84.05.59.15.83c.1.24.23.44.4.61.16.17.35.29.58.38.22.08.46.13.71.13.46,0,.83-.12,1.1-.36s.44-.51.53-.81l2.12.65c-.08.35-.23.68-.43,1.01-.21.33-.47.62-.78.87-.32.25-.68.46-1.11.62s-.89.24-1.42.24c-.59,0-1.14-.1-1.65-.31-.51-.21-.96-.49-1.33-.86s-.68-.81-.9-1.31-.33-1.06-.33-1.67.11-1.17.32-1.68.51-.95.88-1.32c.37-.37.81-.66,1.31-.86.5-.21,1.04-.31,1.62-.31.54,0,1.02.08,1.45.23.43.15.81.35,1.12.61.32.25.57.54.77.88.2.33.34.67.43,1.02l-2.15.65c-.04-.15-.11-.29-.19-.43-.08-.14-.19-.27-.32-.38-.13-.11-.28-.2-.46-.26-.18-.06-.38-.09-.62-.09Z"/>
    <path d="M260,58.08c0-.35.06-.66.18-.93.12-.27.29-.51.5-.7.21-.19.46-.35.73-.47.28-.12.58-.21.91-.26l1.85-.28c.21-.03.36-.09.44-.19s.13-.21.13-.35c0-.23-.1-.43-.29-.6-.19-.17-.48-.25-.86-.25-.42,0-.75.12-.97.36-.23.24-.35.5-.37.8l-2.08-.43c.02-.28.11-.58.25-.88.15-.31.36-.58.64-.84.28-.25.63-.46,1.05-.63.42-.17.92-.25,1.5-.25.63,0,1.17.08,1.61.24.44.16.8.38,1.08.66.28.28.48.6.6.97s.18.75.18,1.15v3.84c0,.31.01.57.04.81.03.23.04.37.06.41h-2.16s-.03-.12-.05-.26c-.02-.14-.03-.35-.03-.62-.21.34-.5.61-.87.81-.37.2-.82.3-1.34.3-.43,0-.82-.07-1.15-.2-.34-.13-.62-.31-.85-.53s-.41-.47-.53-.76c-.12-.28-.18-.58-.18-.9ZM263.3,58.73c.18,0,.36-.02.53-.07.17-.05.33-.13.46-.25.13-.12.24-.28.32-.48.08-.2.13-.45.13-.76v-.35l-1.48.24c-.25.04-.46.13-.63.26-.17.13-.25.33-.25.61,0,.21.07.4.21.56.14.16.38.25.72.25Z"/>
    <path d="M269.09,60.24v-11.44h2.4v11.44h-2.4Z"/>
    <path d="M277.65,60.24v-11.2h2.5v8.81h4.83v2.38h-7.33Z"/>
    <path d="M286.23,49.99c0-.19.04-.37.11-.54.07-.17.17-.32.3-.45.13-.13.27-.23.44-.3.17-.07.35-.11.54-.11.4,0,.74.14,1.01.41.27.27.41.61.41,1s-.14.72-.41,1c-.27.27-.61.41-1.01.41-.19,0-.37-.04-.54-.11-.17-.07-.32-.17-.44-.3-.13-.13-.23-.28-.3-.45-.07-.17-.11-.36-.11-.54ZM286.44,60.24v-7.85h2.4v7.85h-2.4Z"/>
    <path d="M293.34,60.24h-2.4v-7.85h2.32v.9c.11-.19.24-.35.41-.49.17-.14.35-.25.54-.34.19-.09.4-.16.62-.21s.42-.07.62-.07c.5,0,.92.08,1.28.25.36.16.66.39.89.67.24.28.41.62.52,1,.11.38.17.78.17,1.22v4.93h-2.4v-4.52c0-.39-.1-.71-.31-.97-.21-.26-.53-.39-.97-.39-.4,0-.72.13-.95.39-.23.26-.35.59-.35.99v4.5Z"/>
    <path d="M305.17,55.69l3.13,4.55h-2.94l-1.85-2.76-.77.84v1.93h-2.4v-11.44h2.4v6.22l2.38-2.64h3.11l-3.06,3.3Z"/>
    <path d="M224.38,78.67v-7.8h1.08v6.79h3.68v1.01h-4.76Z"/>
    <path d="M230.41,78.67v-7.8h4.74v1h-3.66v2.4h3.32v1.01h-3.32v2.39h3.66v1h-4.74Z"/>
    <path d="M244.1,76.49h-3.45l-.83,2.18h-1.15l3.1-7.8h1.24l3.1,7.8h-1.17l-.85-2.18ZM241.03,75.49h2.68l-1.35-3.5-1.33,3.5Z"/>
    <path d="M250.81,77.87c-.12.26-.32.48-.6.67-.27.19-.62.28-1.04.28-.39,0-.74-.07-1.04-.21-.31-.14-.57-.34-.79-.59-.22-.25-.38-.55-.5-.89-.12-.34-.18-.71-.18-1.11,0-.37.06-.73.18-1.06.12-.33.29-.63.51-.88s.48-.45.79-.6c.31-.15.65-.23,1.02-.23.23,0,.44.03.62.08s.34.12.47.2c.13.08.24.18.33.29.09.11.15.21.2.32v-3.42h1.02v6.98c0,.26,0,.47.02.65.01.18.03.29.03.33h-1c-.01-.06-.03-.15-.04-.28-.01-.13-.02-.27-.02-.43v-.09ZM247.72,76.01c0,.27.03.52.1.75.07.23.17.43.3.6.13.17.29.3.48.4.19.1.41.14.66.14.23,0,.45-.05.64-.15.19-.1.35-.23.48-.4.13-.17.23-.37.3-.6.07-.23.1-.49.1-.76,0-.55-.13-.99-.4-1.33-.27-.34-.64-.51-1.12-.51-.23,0-.45.05-.64.14s-.36.22-.49.38c-.14.17-.24.36-.31.59-.07.23-.11.48-.11.75Z"/>
    <path d="M255.99,78.67h-1.04l-2.14-5.29h1.17l1.51,4.08,1.52-4.08h1.11l-2.11,5.29Z"/>
    <path d="M263.7,77.16c-.07.23-.18.45-.33.65-.14.2-.32.38-.52.53-.2.15-.43.27-.69.36-.26.09-.54.13-.85.13-.35,0-.69-.06-1.01-.19-.32-.12-.61-.31-.85-.55-.25-.24-.44-.54-.58-.89-.14-.35-.21-.75-.21-1.2,0-.42.07-.8.21-1.14.14-.34.32-.63.56-.88.23-.25.5-.44.81-.57.31-.14.63-.2.96-.2.4,0,.76.07,1.08.2s.58.32.8.57c.21.24.38.53.49.87.11.34.17.72.17,1.13,0,.07,0,.13,0,.19,0,.06,0,.11-.02.14h-3.98c0,.23.05.45.13.65.08.2.19.37.33.51.14.14.31.25.51.33.19.08.4.12.62.12.43,0,.76-.1.99-.31.23-.21.39-.46.5-.76l.89.31ZM262.66,75.48c-.01-.38-.14-.7-.39-.96-.24-.26-.6-.39-1.07-.39-.22,0-.42.04-.59.12-.17.08-.32.18-.44.31-.12.13-.22.27-.29.43-.07.16-.11.33-.12.5h2.89Z"/>
    <path d="M267.99,74.42c-.15-.02-.3-.03-.45-.03-.43,0-.78.13-1.05.38s-.4.67-.4,1.25v2.65h-1.03v-5.29h1.01v.92c.1-.21.21-.37.34-.5.13-.13.26-.23.4-.31.14-.08.28-.13.43-.16.15-.03.29-.04.42-.04.07,0,.14,0,.2.01.06,0,.11.02.14.02v1.1Z"/>
    <path d="M270.75,73.38h1.14v.94h-1.14v2.75c0,.24.06.42.17.54.11.12.3.18.57.18.07,0,.14,0,.22-.01.08,0,.14-.02.19-.03v.88s-.13.03-.25.06c-.12.03-.28.04-.45.04-.46,0-.81-.13-1.08-.39s-.4-.63-.4-1.12v-2.9h-1.01v-.94h.29c.29,0,.49-.08.62-.23.13-.15.19-.35.19-.58v-.86h.95v1.67Z"/>
    <path d="M273.04,71.38c0-.21.07-.39.21-.53.14-.14.32-.21.52-.21s.39.07.53.21c.14.14.21.32.21.53s-.07.38-.21.52c-.14.14-.32.21-.53.21s-.38-.07-.52-.21c-.14-.14-.21-.32-.21-.52ZM273.27,78.67v-5.29h1.02v5.29h-1.02Z"/>
    <path d="M276.5,76.96c.04.28.16.51.36.7.21.19.5.29.87.29.29,0,.52-.07.67-.21.15-.14.23-.3.23-.5,0-.17-.06-.31-.18-.43-.12-.12-.29-.2-.51-.25l-.9-.2c-.42-.09-.74-.26-.97-.53-.23-.26-.35-.58-.35-.96,0-.23.05-.44.15-.64.1-.2.23-.38.4-.53.17-.15.37-.27.6-.36.23-.09.47-.13.73-.13.36,0,.66.05.91.15.25.1.45.23.6.38.15.15.27.31.35.47.08.16.13.3.16.42l-.91.34c-.01-.07-.04-.15-.08-.25-.04-.1-.1-.2-.18-.29-.08-.09-.19-.17-.33-.24-.14-.07-.31-.1-.52-.1-.26,0-.48.07-.64.21s-.24.31-.24.49c0,.34.2.55.61.64l.86.19c.48.1.85.29,1.09.57s.37.61.37,1.01c0,.19-.04.38-.12.57-.08.19-.2.37-.36.53-.16.16-.36.29-.6.39-.24.1-.53.15-.86.15-.37,0-.68-.05-.94-.15-.26-.1-.48-.23-.65-.39-.17-.15-.3-.32-.4-.5s-.15-.35-.17-.5l.94-.33Z"/>
    <path d="M280.8,71.38c0-.21.07-.39.21-.53.14-.14.32-.21.52-.21s.39.07.53.21c.14.14.21.32.21.53s-.07.38-.21.52c-.14.14-.32.21-.53.21s-.38-.07-.52-.21c-.14-.14-.21-.32-.21-.52ZM281.03,78.67v-5.29h1.02v5.29h-1.02Z"/>
    <path d="M284.85,78.67h-1.03v-5.29h1.01v.76c.19-.33.43-.56.73-.7.29-.14.59-.21.9-.21s.59.05.83.16c.24.11.44.25.59.44.16.19.28.41.35.67.08.26.12.53.12.83v3.35h-1.03v-3.18c0-.18-.02-.36-.06-.52-.04-.16-.11-.3-.21-.42s-.23-.22-.38-.29c-.16-.07-.35-.1-.58-.1-.21,0-.39.04-.54.12-.15.08-.28.18-.39.31s-.18.29-.23.46c-.05.18-.08.36-.08.56v3.06Z"/>
    <path d="M290.61,78.72c.04.37.18.68.45.93s.59.37,1,.37c.56,0,.97-.14,1.23-.43.26-.29.39-.71.39-1.29v-.76c-.12.24-.33.45-.6.62-.28.17-.62.25-1.01.25-.35,0-.68-.06-.97-.19-.3-.13-.55-.3-.77-.53-.22-.22-.38-.49-.51-.81-.12-.31-.18-.66-.18-1.03s.06-.69.18-1.01c.12-.31.28-.58.5-.81.21-.23.47-.41.76-.55s.63-.2,1-.2c.41,0,.75.07,1.02.22s.47.35.61.62v-.74h1.02v4.9c0,.34-.04.67-.13.98-.09.32-.24.6-.45.85s-.48.44-.82.59c-.34.15-.76.23-1.25.23-.33,0-.64-.05-.92-.15s-.53-.24-.75-.41c-.22-.18-.39-.38-.53-.62s-.22-.5-.25-.79l1-.23ZM292.2,77.55c.45,0,.81-.15,1.09-.46.28-.31.42-.72.42-1.23s-.14-.92-.42-1.23c-.28-.31-.64-.46-1.09-.46s-.83.15-1.11.46c-.28.31-.42.72-.42,1.23s.14.93.41,1.24c.27.3.65.46,1.12.46Z"/>
    <path d="M229.42,88.68v3.19h-1.08v-7.8h2.84c.36,0,.69.06.98.18.3.12.55.28.76.49s.37.45.49.73.18.58.18.91-.06.64-.18.92-.28.52-.49.73c-.21.2-.46.36-.76.48-.3.12-.62.18-.98.18h-1.76ZM230.98,87.71c.47,0,.84-.12,1.11-.36s.4-.56.4-.96-.13-.75-.4-.99c-.27-.24-.64-.36-1.11-.36h-1.56v2.67h1.56Z"/>
    <path d="M235.83,91.87h-1.03v-7.96h1.03v3.29c.19-.28.43-.48.71-.59.29-.12.58-.18.89-.18s.59.05.83.16c.24.11.44.25.59.44.16.19.28.41.35.67.08.26.12.53.12.83v3.35h-1.03v-3.18c0-.18-.02-.36-.06-.52-.04-.16-.11-.3-.21-.42s-.23-.22-.38-.29c-.16-.07-.35-.1-.58-.1-.2,0-.37.04-.52.11s-.28.17-.38.3c-.1.12-.18.27-.24.44-.06.17-.09.35-.09.55v3.11Z"/>
    <path d="M241.17,94.08l1.32-2.79-2.28-4.71h1.19l1.65,3.65,1.58-3.65h1.11l-3.44,7.5h-1.13Z"/>
    <path d="M247.17,90.16c.04.28.16.51.36.7.21.19.5.29.87.29.29,0,.52-.07.67-.21.15-.14.23-.3.23-.5,0-.17-.06-.31-.18-.43-.12-.12-.29-.2-.51-.25l-.9-.2c-.42-.09-.74-.26-.97-.53-.23-.26-.35-.58-.35-.96,0-.23.05-.44.15-.64.1-.2.23-.38.4-.53.17-.15.37-.27.6-.36.23-.09.47-.13.73-.13.36,0,.66.05.91.15.25.1.45.23.6.38.15.15.27.31.35.47.08.16.13.3.16.42l-.91.34c-.01-.07-.04-.15-.08-.25-.04-.1-.1-.2-.18-.29-.08-.09-.19-.17-.33-.24-.14-.07-.31-.1-.52-.1-.26,0-.48.07-.64.21s-.24.31-.24.49c0,.34.2.55.61.64l.86.19c.48.1.85.29,1.09.57s.37.61.37,1.01c0,.19-.04.38-.12.57-.08.19-.2.37-.36.53-.16.16-.36.29-.6.39-.24.1-.53.15-.86.15-.37,0-.68-.05-.94-.15-.26-.1-.48-.23-.65-.39-.17-.15-.3-.32-.4-.5s-.15-.35-.17-.5l.94-.33Z"/>
    <path d="M251.48,84.58c0-.21.07-.39.21-.53.14-.14.32-.21.52-.21s.39.07.53.21c.14.14.21.32.21.53s-.07.38-.21.52c-.14.14-.32.21-.53.21s-.38-.07-.52-.21c-.14-.14-.21-.32-.21-.52ZM251.71,91.87v-5.29h1.02v5.29h-1.02Z"/>
    <path d="M256.71,87.37c-.21,0-.41.04-.6.12-.19.08-.36.19-.51.35-.15.15-.27.35-.36.58s-.13.5-.13.81.04.57.13.8.21.43.35.58c.15.16.32.28.52.36.2.08.4.12.62.12.25,0,.46-.04.63-.11.17-.07.32-.17.43-.27.11-.11.2-.23.27-.36.07-.13.11-.24.14-.35l.91.4c-.07.19-.16.38-.29.58-.12.19-.29.37-.48.53-.2.16-.43.29-.7.39s-.57.15-.92.15c-.39,0-.75-.07-1.07-.21-.33-.14-.61-.34-.84-.59-.24-.25-.42-.55-.56-.89-.14-.34-.2-.71-.2-1.12s.07-.79.2-1.13c.14-.34.32-.64.56-.89s.52-.44.85-.58c.33-.14.68-.21,1.05-.21.35,0,.66.05.93.15s.5.23.69.39c.19.16.35.34.47.54.12.2.21.4.26.6l-.93.4c-.04-.13-.09-.26-.15-.4-.07-.13-.16-.25-.27-.36-.11-.11-.25-.19-.41-.26-.16-.07-.36-.1-.58-.1Z"/>
    <path d="M259.99,90.45c0-.23.04-.45.12-.63s.19-.35.34-.48c.14-.13.31-.24.51-.32.2-.08.41-.14.64-.18l1.43-.21c.16-.02.27-.07.32-.14.06-.07.08-.16.08-.25,0-.26-.09-.48-.27-.67s-.47-.28-.88-.28c-.37,0-.65.1-.85.3s-.32.46-.35.76l-.99-.23c.03-.25.1-.48.23-.69.12-.21.28-.39.47-.54.19-.15.41-.27.67-.35.25-.08.52-.13.81-.13.4,0,.73.05,1.01.16s.51.25.68.42c.18.18.3.38.38.62.08.23.12.48.12.74v2.65c0,.23,0,.42.02.56.01.14.03.24.04.31h-1.01c-.01-.07-.03-.15-.04-.26-.01-.11-.02-.26-.02-.45-.06.1-.14.19-.23.3s-.21.2-.35.29c-.14.09-.3.16-.49.21-.19.06-.4.08-.63.08-.27,0-.52-.04-.73-.13-.22-.09-.4-.2-.56-.35s-.27-.31-.36-.5c-.08-.19-.13-.39-.13-.6ZM261.9,91.16c.21,0,.41-.03.6-.08.19-.05.35-.14.48-.26.14-.12.24-.28.32-.48.08-.2.12-.45.12-.73v-.24l-1.62.24c-.22.04-.4.12-.55.25-.15.13-.22.31-.22.54,0,.2.08.38.23.53s.36.24.63.24Z"/>
    <path d="M266.07,91.87v-7.96h1.03v7.96h-1.03Z"/>
    <path d="M271.73,91.87v-7.8h1.08v6.79h3.68v1.01h-4.76Z"/>
    <path d="M277.41,84.58c0-.21.07-.39.21-.53.14-.14.32-.21.52-.21s.39.07.53.21c.14.14.21.32.21.53s-.07.38-.21.52c-.14.14-.32.21-.53.21s-.38-.07-.52-.21c-.14-.14-.21-.32-.21-.52ZM277.64,91.87v-5.29h1.02v5.29h-1.02Z"/>
    <path d="M281.46,91.87h-1.03v-5.29h1.01v.76c.19-.33.43-.56.73-.7.29-.14.59-.21.9-.21s.59.05.83.16c.24.11.44.25.59.44.16.19.28.41.35.67.08.26.12.53.12.83v3.35h-1.03v-3.18c0-.18-.02-.36-.06-.52-.04-.16-.11-.3-.21-.42s-.23-.22-.38-.29c-.16-.07-.35-.1-.58-.1-.21,0-.39.04-.54.12-.15.08-.28.18-.39.31s-.18.29-.23.46c-.05.18-.08.36-.08.56v3.06Z"/>
    <path d="M289.1,88.81l2.3,3.06h-1.3l-1.73-2.33-.74.74v1.6h-1.02v-7.96h1.02v5.02l2.29-2.34h1.43l-2.25,2.23Z"/>
  </g>
  <g>
    <path d="M363.51,60.24v-11.2h2.5v8.81h4.83v2.38h-7.33Z"/>
    <path d="M375.89,52.16c.59,0,1.14.1,1.64.31.51.21.95.49,1.32.86.37.37.67.81.88,1.31s.32,1.06.32,1.67-.11,1.17-.32,1.68-.51.95-.88,1.32c-.37.37-.81.66-1.32.86-.5.21-1.05.31-1.64.31s-1.14-.1-1.64-.31c-.5-.21-.95-.49-1.32-.86-.37-.37-.67-.81-.88-1.32s-.32-1.07-.32-1.68.11-1.17.32-1.67.51-.94.88-1.31c.37-.37.81-.66,1.32-.86.51-.21,1.05-.31,1.64-.31ZM375.89,58.27c.23,0,.45-.04.66-.12.21-.08.4-.2.56-.36.16-.16.29-.37.39-.61.1-.24.15-.53.15-.87s-.05-.61-.15-.86c-.1-.25-.23-.45-.39-.61-.16-.16-.35-.28-.56-.35-.21-.08-.43-.12-.66-.12s-.44.04-.66.12c-.22.08-.41.2-.57.35-.16.16-.29.36-.4.61-.1.25-.15.53-.15.86s.05.61.15.86c.1.25.23.45.4.62.16.16.35.28.57.36s.43.12.66.12Z"/>
    <path d="M383.17,60.08c.08.38.27.69.57.94s.67.37,1.12.37c.6,0,1.07-.16,1.42-.47s.52-.82.52-1.54v-.36c-.15.21-.39.41-.73.6-.34.19-.8.28-1.37.28-.53,0-1.01-.1-1.45-.29-.44-.19-.83-.46-1.15-.81s-.58-.75-.77-1.21c-.18-.46-.28-.97-.28-1.52,0-.52.09-1.01.27-1.47.18-.46.43-.87.75-1.22.32-.35.71-.63,1.15-.84.45-.21.94-.31,1.48-.31.32,0,.6.03.84.09.25.06.46.14.64.24.18.09.33.2.44.32.12.12.2.23.25.33v-.84h2.29v6.87c0,.57-.08,1.11-.25,1.61s-.42.95-.76,1.34c-.34.39-.78.7-1.3.92-.53.23-1.16.34-1.89.34-.57,0-1.08-.08-1.54-.24-.46-.16-.85-.37-1.18-.63-.33-.26-.6-.56-.81-.9s-.33-.68-.39-1.03l2.12-.6ZM385.14,57.83c.5,0,.9-.16,1.21-.47s.47-.73.47-1.27c0-.26-.04-.5-.13-.72-.09-.22-.21-.4-.36-.55-.15-.15-.33-.27-.54-.35-.21-.08-.42-.12-.64-.12s-.43.04-.64.12c-.21.08-.39.2-.54.35-.16.15-.28.34-.37.55-.09.22-.13.46-.13.72,0,.54.16.96.48,1.27s.72.47,1.21.47Z"/>
    <path d="M390.99,49.99c0-.19.04-.37.11-.54.07-.17.17-.32.3-.45.13-.13.27-.23.44-.3.17-.07.35-.11.54-.11.4,0,.74.14,1.01.41.27.27.41.61.41,1s-.14.72-.41,1c-.27.27-.61.41-1.01.41-.19,0-.37-.04-.54-.11-.17-.07-.32-.17-.44-.3-.13-.13-.23-.28-.3-.45-.07-.17-.11-.36-.11-.54ZM391.19,60.24v-7.85h2.4v7.85h-2.4Z"/>
    <path d="M399.31,54.37c-.25,0-.49.04-.7.13-.22.08-.41.21-.57.38s-.29.37-.39.62-.14.52-.14.84.05.59.15.83c.1.24.23.44.4.61.16.17.35.29.58.38.22.08.46.13.71.13.46,0,.83-.12,1.1-.36s.44-.51.53-.81l2.12.65c-.08.35-.23.68-.43,1.01-.21.33-.47.62-.78.87-.32.25-.68.46-1.11.62s-.89.24-1.42.24c-.59,0-1.14-.1-1.65-.31-.51-.21-.96-.49-1.33-.86s-.68-.81-.9-1.31-.33-1.06-.33-1.67.11-1.17.32-1.68.51-.95.88-1.32c.37-.37.81-.66,1.31-.86.5-.21,1.04-.31,1.62-.31.54,0,1.02.08,1.45.23.43.15.81.35,1.12.61.32.25.57.54.77.88.2.33.34.67.43,1.02l-2.15.65c-.04-.15-.11-.29-.19-.43-.08-.14-.19-.27-.32-.38-.13-.11-.28-.2-.46-.26-.18-.06-.38-.09-.62-.09Z"/>
    <path d="M404.08,58.08c0-.35.06-.66.18-.93.12-.27.29-.51.5-.7.21-.19.46-.35.73-.47.28-.12.58-.21.91-.26l1.85-.28c.21-.03.36-.09.44-.19s.13-.21.13-.35c0-.23-.1-.43-.29-.6-.19-.17-.48-.25-.86-.25-.42,0-.75.12-.97.36-.23.24-.35.5-.37.8l-2.08-.43c.02-.28.11-.58.25-.88.15-.31.36-.58.64-.84.28-.25.63-.46,1.05-.63.42-.17.92-.25,1.5-.25.63,0,1.17.08,1.61.24.44.16.8.38,1.08.66.28.28.48.6.6.97s.18.75.18,1.15v3.84c0,.31.01.57.04.81.03.23.04.37.06.41h-2.16s-.03-.12-.05-.26c-.02-.14-.03-.35-.03-.62-.21.34-.5.61-.87.81-.37.2-.82.3-1.34.3-.43,0-.82-.07-1.15-.2-.34-.13-.62-.31-.85-.53s-.41-.47-.53-.76c-.12-.28-.18-.58-.18-.9ZM407.38,58.73c.18,0,.36-.02.53-.07.17-.05.33-.13.46-.25.13-.12.24-.28.32-.48.08-.2.13-.45.13-.76v-.35l-1.48.24c-.25.04-.46.13-.63.26-.17.13-.25.33-.25.61,0,.21.07.4.21.56.14.16.38.25.72.25Z"/>
    <path d="M413.18,60.24v-11.44h2.4v11.44h-2.4Z"/>
    <path d="M426.76,51.43v8.81h-2.5v-8.81h-3.44v-2.39h9.4v2.39h-3.46Z"/>
    <path d="M435.34,54.76c-.14-.03-.27-.05-.39-.06-.13-.01-.25-.02-.36-.02-.24,0-.47.04-.7.11-.22.07-.42.2-.58.36s-.3.39-.4.66c-.1.27-.15.61-.15,1v3.43h-2.4v-7.85h2.32v1.06c.11-.22.24-.41.4-.55.16-.15.34-.26.53-.35.19-.08.38-.14.58-.18.19-.04.37-.06.53-.06.24,0,.45.03.63.08v2.37Z"/>
    <path d="M436.24,58.08c0-.35.06-.66.18-.93.12-.27.29-.51.5-.7.21-.19.46-.35.73-.47.28-.12.58-.21.91-.26l1.85-.28c.21-.03.36-.09.44-.19s.13-.21.13-.35c0-.23-.1-.43-.29-.6-.19-.17-.48-.25-.86-.25-.42,0-.75.12-.97.36-.23.24-.35.5-.37.8l-2.08-.43c.02-.28.11-.58.25-.88.15-.31.36-.58.64-.84.28-.25.63-.46,1.05-.63.42-.17.92-.25,1.5-.25.63,0,1.17.08,1.61.24.44.16.8.38,1.08.66.28.28.48.6.6.97s.18.75.18,1.15v3.84c0,.31.01.57.04.81.03.23.04.37.06.41h-2.16s-.03-.12-.05-.26c-.02-.14-.03-.35-.03-.62-.21.34-.5.61-.87.81-.37.2-.82.3-1.34.3-.43,0-.82-.07-1.15-.2-.34-.13-.62-.31-.85-.53s-.41-.47-.53-.76c-.12-.28-.18-.58-.18-.9ZM439.54,58.73c.18,0,.36-.02.53-.07.17-.05.33-.13.46-.25.13-.12.24-.28.32-.48.08-.2.13-.45.13-.76v-.35l-1.48.24c-.25.04-.46.13-.63.26-.17.13-.25.33-.25.61,0,.21.07.4.21.56.14.16.38.25.72.25Z"/>
    <path d="M447.73,60.24h-2.4v-7.85h2.32v.9c.11-.19.24-.35.41-.49.17-.14.35-.25.54-.34.19-.09.4-.16.62-.21s.42-.07.62-.07c.5,0,.92.08,1.28.25.36.16.66.39.89.67.24.28.41.62.52,1,.11.38.17.78.17,1.22v4.93h-2.4v-4.52c0-.39-.1-.71-.31-.97-.21-.26-.53-.39-.97-.39-.4,0-.72.13-.95.39-.23.26-.35.59-.35.99v4.5Z"/>
    <path d="M456.12,57.65c.02.27.13.52.32.73.2.22.5.32.91.32.31,0,.53-.07.69-.21.15-.14.23-.29.23-.47,0-.15-.05-.28-.17-.39-.11-.11-.31-.2-.61-.26l-.9-.21c-.42-.09-.78-.22-1.07-.38-.29-.16-.54-.34-.73-.55-.19-.21-.33-.44-.41-.69-.08-.25-.13-.52-.13-.79,0-.36.07-.7.22-1.01.15-.32.36-.59.62-.83.27-.24.59-.42.96-.56.37-.14.77-.21,1.22-.21.57,0,1.05.08,1.44.24.39.16.71.36.96.59.25.24.43.49.54.76.12.27.18.52.21.75l-1.99.36c-.03-.26-.13-.49-.31-.68s-.45-.28-.81-.28c-.23,0-.43.06-.6.18-.17.12-.25.29-.25.5,0,.17.06.3.17.39.12.09.26.16.44.19l1.04.21c.82.17,1.43.48,1.82.92.39.45.59.96.59,1.54,0,.34-.06.66-.19.98-.13.32-.32.6-.58.85-.26.25-.59.45-.98.6-.39.15-.85.23-1.37.23-.62,0-1.14-.09-1.56-.26-.42-.17-.75-.39-1-.64-.25-.25-.44-.52-.56-.81-.12-.28-.19-.54-.2-.76l2.04-.36Z"/>
    <path d="M462.09,63.24v-10.85h2.32v.81c.17-.25.45-.48.85-.69.4-.21.88-.31,1.45-.31s1.08.1,1.53.31c.45.21.83.49,1.15.85s.55.8.72,1.29c.17.5.25,1.05.25,1.63s-.09,1.15-.28,1.66c-.18.51-.44.94-.77,1.3s-.73.65-1.18.85c-.46.21-.96.31-1.51.31-.5,0-.94-.08-1.31-.23-.37-.15-.64-.34-.82-.56v3.62h-2.4ZM468.02,56.31c0-.33-.05-.61-.14-.85s-.23-.44-.39-.61c-.17-.16-.36-.28-.58-.36-.22-.08-.44-.12-.67-.12s-.46.04-.67.12c-.22.08-.41.2-.57.36s-.29.37-.39.61-.14.53-.14.85.05.61.14.85c.09.24.22.45.39.61s.35.29.57.37c.22.08.44.13.67.13s.46-.04.67-.12.41-.2.58-.36c.17-.16.3-.37.39-.62s.14-.53.14-.86Z"/>
    <path d="M475.52,52.16c.59,0,1.14.1,1.64.31.51.21.95.49,1.32.86.37.37.67.81.88,1.31s.32,1.06.32,1.67-.11,1.17-.32,1.68-.51.95-.88,1.32c-.37.37-.81.66-1.32.86-.5.21-1.05.31-1.64.31s-1.14-.1-1.64-.31c-.5-.21-.95-.49-1.32-.86-.37-.37-.67-.81-.88-1.32s-.32-1.07-.32-1.68.11-1.17.32-1.67.51-.94.88-1.31c.37-.37.81-.66,1.32-.86.51-.21,1.05-.31,1.64-.31ZM475.52,58.27c.23,0,.45-.04.66-.12.21-.08.4-.2.56-.36.16-.16.29-.37.39-.61.1-.24.15-.53.15-.87s-.05-.61-.15-.86c-.1-.25-.23-.45-.39-.61-.16-.16-.35-.28-.56-.35-.21-.08-.43-.12-.66-.12s-.44.04-.66.12c-.22.08-.41.2-.57.35-.16.16-.29.36-.4.61-.1.25-.15.53-.15.86s.05.61.15.86c.1.25.23.45.4.62.16.16.35.28.57.36s.43.12.66.12Z"/>
    <path d="M486.23,54.76c-.14-.03-.27-.05-.39-.06-.13-.01-.25-.02-.36-.02-.24,0-.47.04-.7.11-.22.07-.42.2-.58.36s-.3.39-.4.66c-.1.27-.15.61-.15,1v3.43h-2.4v-7.85h2.32v1.06c.11-.22.24-.41.4-.55.16-.15.34-.26.53-.35.19-.08.38-.14.58-.18.19-.04.37-.06.53-.06.24,0,.45.03.63.08v2.37Z"/>
    <path d="M490.81,52.39h1.53v2.1h-1.53v2.94c0,.33.08.54.24.66.16.11.37.17.63.17.13,0,.24,0,.36-.02.11-.02.2-.03.28-.06v1.99c-.05.02-.18.06-.38.13-.2.06-.49.09-.87.09-.82,0-1.46-.22-1.93-.67-.46-.45-.7-1.07-.7-1.86v-3.36h-1.39v-2.1h.39c.41,0,.72-.12.92-.36s.3-.55.3-.92v-1.01h2.15v2.29Z"/>
    <path d="M392.13,78.67v-7.8h1.08v6.79h3.68v1.01h-4.76Z"/>
    <path d="M398.16,78.67v-7.8h4.74v1h-3.66v2.4h3.32v1.01h-3.32v2.39h3.66v1h-4.74Z"/>
    <path d="M406.86,77.25c0-.23.04-.45.12-.63s.19-.35.34-.48c.14-.13.31-.24.51-.32.2-.08.41-.14.64-.18l1.43-.21c.16-.02.27-.07.32-.14.06-.07.08-.16.08-.25,0-.26-.09-.48-.27-.67s-.47-.28-.88-.28c-.37,0-.65.1-.85.3s-.32.46-.35.76l-.99-.23c.03-.25.1-.48.23-.69.12-.21.28-.39.47-.54.19-.15.41-.27.67-.35.25-.08.52-.13.81-.13.4,0,.73.05,1.01.16s.51.25.68.42c.18.18.3.38.38.62.08.23.12.48.12.74v2.65c0,.23,0,.42.02.56.01.14.03.24.04.31h-1.01c-.01-.07-.03-.15-.04-.26-.01-.11-.02-.26-.02-.45-.06.1-.14.19-.23.3s-.21.2-.35.29c-.14.09-.3.16-.49.21-.19.06-.4.08-.63.08-.27,0-.52-.04-.73-.13-.22-.09-.4-.2-.56-.35s-.27-.31-.36-.5c-.08-.19-.13-.39-.13-.6ZM408.77,77.96c.21,0,.41-.03.6-.08.19-.05.35-.14.48-.26.14-.12.24-.28.32-.48.08-.2.12-.45.12-.73v-.24l-1.62.24c-.22.04-.4.12-.55.25-.15.13-.22.31-.22.54,0,.2.08.38.23.53s.36.24.63.24Z"/>
    <path d="M416.65,77.87c-.12.26-.32.48-.6.67-.27.19-.62.28-1.04.28-.39,0-.74-.07-1.04-.21-.31-.14-.57-.34-.79-.59-.22-.25-.38-.55-.5-.89-.12-.34-.18-.71-.18-1.11,0-.37.06-.73.18-1.06.12-.33.29-.63.51-.88s.48-.45.79-.6c.31-.15.65-.23,1.02-.23.23,0,.44.03.62.08s.34.12.47.2c.13.08.24.18.33.29.09.11.15.21.2.32v-3.42h1.02v6.98c0,.26,0,.47.02.65.01.18.03.29.03.33h-1c-.01-.06-.03-.15-.04-.28-.01-.13-.02-.27-.02-.43v-.09ZM413.56,76.01c0,.27.03.52.1.75.07.23.17.43.3.6.13.17.29.3.48.4.19.1.41.14.66.14.23,0,.45-.05.64-.15.19-.1.35-.23.48-.4.13-.17.23-.37.3-.6.07-.23.1-.49.1-.76,0-.55-.13-.99-.4-1.33-.27-.34-.64-.51-1.12-.51-.23,0-.45.05-.64.14s-.36.22-.49.38c-.14.17-.24.36-.31.59-.07.23-.11.48-.11.75Z"/>
    <path d="M421.83,78.67h-1.04l-2.14-5.29h1.17l1.51,4.08,1.52-4.08h1.11l-2.11,5.29Z"/>
    <path d="M429.54,77.16c-.07.23-.18.45-.33.65-.14.2-.32.38-.52.53-.2.15-.43.27-.69.36-.26.09-.54.13-.85.13-.35,0-.69-.06-1.01-.19-.32-.12-.61-.31-.85-.55-.25-.24-.44-.54-.58-.89-.14-.35-.21-.75-.21-1.2,0-.42.07-.8.21-1.14.14-.34.32-.63.56-.88.23-.25.5-.44.81-.57.31-.14.63-.2.96-.2.4,0,.76.07,1.08.2s.58.32.8.57c.21.24.38.53.49.87.11.34.17.72.17,1.13,0,.07,0,.13,0,.19,0,.06,0,.11-.02.14h-3.98c0,.23.05.45.13.65.08.2.19.37.33.51.14.14.31.25.51.33.19.08.4.12.62.12.43,0,.76-.1.99-.31.23-.21.39-.46.5-.76l.89.31ZM428.5,75.48c-.01-.38-.14-.7-.39-.96-.24-.26-.6-.39-1.07-.39-.22,0-.42.04-.59.12-.17.08-.32.18-.44.31-.12.13-.22.27-.29.43-.07.16-.11.33-.12.5h2.89Z"/>
    <path d="M433.83,74.42c-.15-.02-.3-.03-.45-.03-.43,0-.78.13-1.05.38s-.4.67-.4,1.25v2.65h-1.03v-5.29h1.01v.92c.1-.21.21-.37.34-.5.13-.13.26-.23.4-.31.14-.08.28-.13.43-.16.15-.03.29-.04.42-.04.07,0,.14,0,.2.01.06,0,.11.02.14.02v1.1Z"/>
    <path d="M436.59,73.38h1.14v.94h-1.14v2.75c0,.24.06.42.17.54.11.12.3.18.57.18.07,0,.14,0,.22-.01.08,0,.14-.02.19-.03v.88s-.13.03-.25.06c-.12.03-.28.04-.45.04-.46,0-.81-.13-1.08-.39s-.4-.63-.4-1.12v-2.9h-1.01v-.94h.29c.29,0,.49-.08.62-.23.13-.15.19-.35.19-.58v-.86h.95v1.67Z"/>
    <path d="M438.88,71.38c0-.21.07-.39.21-.53.14-.14.32-.21.52-.21s.39.07.53.21c.14.14.21.32.21.53s-.07.38-.21.52c-.14.14-.32.21-.53.21s-.38-.07-.52-.21c-.14-.14-.21-.32-.21-.52ZM439.11,78.67v-5.29h1.02v5.29h-1.02Z"/>
    <path d="M442.34,76.96c.04.28.16.51.36.7.21.19.5.29.87.29.29,0,.52-.07.67-.21.15-.14.23-.3.23-.5,0-.17-.06-.31-.18-.43-.12-.12-.29-.2-.51-.25l-.9-.2c-.42-.09-.74-.26-.97-.53-.23-.26-.35-.58-.35-.96,0-.23.05-.44.15-.64.1-.2.23-.38.4-.53.17-.15.37-.27.6-.36.23-.09.47-.13.73-.13.36,0,.66.05.91.15.25.1.45.23.6.38.15.15.27.31.35.47.08.16.13.3.16.42l-.91.34c-.01-.07-.04-.15-.08-.25-.04-.1-.1-.2-.18-.29-.08-.09-.19-.17-.33-.24-.14-.07-.31-.1-.52-.1-.26,0-.48.07-.64.21s-.24.31-.24.49c0,.34.2.55.61.64l.86.19c.48.1.85.29,1.09.57s.37.61.37,1.01c0,.19-.04.38-.12.57-.08.19-.2.37-.36.53-.16.16-.36.29-.6.39-.24.1-.53.15-.86.15-.37,0-.68-.05-.94-.15-.26-.1-.48-.23-.65-.39-.17-.15-.3-.32-.4-.5s-.15-.35-.17-.5l.94-.33Z"/>
    <path d="M446.64,71.38c0-.21.07-.39.21-.53.14-.14.32-.21.52-.21s.39.07.53.21c.14.14.21.32.21.53s-.07.38-.21.52c-.14.14-.32.21-.53.21s-.38-.07-.52-.21c-.14-.14-.21-.32-.21-.52ZM446.87,78.67v-5.29h1.02v5.29h-1.02Z"/>
    <path d="M450.68,78.67h-1.03v-5.29h1.01v.76c.19-.33.43-.56.73-.7.29-.14.59-.21.9-.21s.59.05.83.16c.24.11.44.25.59.44.16.19.28.41.35.67.08.26.12.53.12.83v3.35h-1.03v-3.18c0-.18-.02-.36-.06-.52-.04-.16-.11-.3-.21-.42s-.23-.22-.38-.29c-.16-.07-.35-.1-.58-.1-.21,0-.39.04-.54.12-.15.08-.28.18-.39.31s-.18.29-.23.46c-.05.18-.08.36-.08.56v3.06Z"/>
    <path d="M456.45,78.72c.04.37.18.68.45.93s.59.37,1,.37c.56,0,.97-.14,1.23-.43.26-.29.39-.71.39-1.29v-.76c-.12.24-.33.45-.6.62-.28.17-.62.25-1.01.25-.35,0-.68-.06-.97-.19-.3-.13-.55-.3-.77-.53-.22-.22-.38-.49-.51-.81-.12-.31-.18-.66-.18-1.03s.06-.69.18-1.01c.12-.31.28-.58.5-.81.21-.23.47-.41.76-.55s.63-.2,1-.2c.41,0,.75.07,1.02.22s.47.35.61.62v-.74h1.02v4.9c0,.34-.04.67-.13.98-.09.32-.24.6-.45.85s-.48.44-.82.59c-.34.15-.76.23-1.25.23-.33,0-.64-.05-.92-.15s-.53-.24-.75-.41c-.22-.18-.39-.38-.53-.62s-.22-.5-.25-.79l1-.23ZM458.04,77.55c.45,0,.81-.15,1.09-.46.28-.31.42-.72.42-1.23s-.14-.92-.42-1.23c-.28-.31-.64-.46-1.09-.46s-.83.15-1.11.46c-.28.31-.42.72-.42,1.23s.14.93.41,1.24c.27.3.65.46,1.12.46Z"/>
    <path d="M384.44,91.87v-7.96h1.02v3.42c.12-.23.34-.44.64-.63s.67-.27,1.11-.27c.4,0,.75.07,1.06.21s.55.34.76.59c.21.25.36.55.46.89s.15.7.15,1.08-.05.76-.17,1.11c-.11.34-.27.64-.48.89-.21.25-.47.45-.77.6-.3.15-.66.22-1.05.22s-.74-.08-1.03-.24c-.29-.16-.52-.38-.69-.67v.77h-1.02ZM388.58,89.2c0-.57-.14-1.02-.42-1.36-.28-.33-.66-.5-1.14-.5-.23,0-.44.04-.63.13s-.36.21-.5.37c-.14.16-.25.35-.32.58-.08.23-.12.49-.12.78s.04.55.12.78c.08.23.18.43.32.6s.31.29.5.38.41.13.63.13c.48,0,.86-.17,1.14-.52s.42-.8.42-1.38Z"/>
    <path d="M393.9,87.62c-.15-.02-.3-.03-.45-.03-.43,0-.78.13-1.05.38s-.4.67-.4,1.25v2.65h-1.03v-5.29h1.01v.92c.1-.21.21-.37.34-.5.13-.13.26-.23.4-.31.14-.08.28-.13.43-.16.15-.03.29-.04.42-.04.07,0,.14,0,.2.01.06,0,.11.02.14.02v1.1Z"/>
    <path d="M397.26,86.41c.4,0,.76.07,1.09.21.33.14.62.34.86.59.24.25.43.54.56.89.13.34.2.71.2,1.12s-.07.78-.2,1.12-.32.64-.56.89c-.24.25-.53.45-.86.59-.33.14-.69.21-1.09.21s-.76-.07-1.09-.21c-.33-.14-.62-.34-.86-.59-.24-.25-.43-.55-.56-.89s-.2-.72-.2-1.12.07-.78.2-1.12c.13-.34.32-.64.56-.89.24-.25.53-.45.86-.59.33-.14.69-.21,1.09-.21ZM397.26,91.11c.22,0,.43-.04.63-.12.2-.08.37-.2.53-.36.15-.16.28-.36.36-.59s.13-.51.13-.81-.04-.58-.13-.81-.21-.43-.36-.59c-.15-.16-.33-.28-.53-.36-.2-.08-.41-.12-.63-.12s-.43.04-.63.12c-.2.08-.37.2-.53.36-.15.16-.28.36-.36.59s-.13.5-.13.81.04.58.13.81.21.43.36.59c.15.16.33.28.53.36.2.08.41.12.63.12Z"/>
    <path d="M400.96,90.45c0-.23.04-.45.12-.63s.19-.35.34-.48c.14-.13.31-.24.51-.32.2-.08.41-.14.64-.18l1.43-.21c.16-.02.27-.07.32-.14.06-.07.08-.16.08-.25,0-.26-.09-.48-.27-.67s-.47-.28-.88-.28c-.37,0-.65.1-.85.3s-.32.46-.35.76l-.99-.23c.03-.25.1-.48.23-.69.12-.21.28-.39.47-.54.19-.15.41-.27.67-.35.25-.08.52-.13.81-.13.4,0,.73.05,1.01.16s.51.25.68.42c.18.18.3.38.38.62.08.23.12.48.12.74v2.65c0,.23,0,.42.02.56.01.14.03.24.04.31h-1.01c-.01-.07-.03-.15-.04-.26-.01-.11-.02-.26-.02-.45-.06.1-.14.19-.23.3s-.21.2-.35.29c-.14.09-.3.16-.49.21-.19.06-.4.08-.63.08-.27,0-.52-.04-.73-.13-.22-.09-.4-.2-.56-.35s-.27-.31-.36-.5c-.08-.19-.13-.39-.13-.6ZM402.87,91.16c.21,0,.41-.03.6-.08.19-.05.35-.14.48-.26.14-.12.24-.28.32-.48.08-.2.12-.45.12-.73v-.24l-1.62.24c-.22.04-.4.12-.55.25-.15.13-.22.31-.22.54,0,.2.08.38.23.53s.36.24.63.24Z"/>
    <path d="M410.75,91.07c-.12.26-.32.48-.6.67-.27.19-.62.28-1.04.28-.39,0-.74-.07-1.04-.21-.31-.14-.57-.34-.79-.59-.22-.25-.38-.55-.5-.89-.12-.34-.18-.71-.18-1.11,0-.37.06-.73.18-1.06.12-.33.29-.63.51-.88s.48-.45.79-.6c.31-.15.65-.23,1.02-.23.23,0,.44.03.62.08s.34.12.47.2c.13.08.24.18.33.29.09.11.15.21.2.32v-3.42h1.02v6.98c0,.26,0,.47.02.65.01.18.03.29.03.33h-1c-.01-.06-.03-.15-.04-.28-.01-.13-.02-.27-.02-.43v-.09ZM407.66,89.21c0,.27.03.52.1.75.07.23.17.43.3.6.13.17.29.3.48.4.19.1.41.14.66.14.23,0,.45-.05.64-.15.19-.1.35-.23.48-.4.13-.17.23-.37.3-.6.07-.23.1-.49.1-.76,0-.55-.13-.99-.4-1.33-.27-.34-.64-.51-1.12-.51-.23,0-.45.05-.64.14s-.36.22-.49.38c-.14.17-.24.36-.31.59-.07.23-.11.48-.11.75Z"/>
    <path d="M415.73,87.37c-.21,0-.41.04-.6.12-.19.08-.36.19-.51.35-.15.15-.27.35-.36.58s-.13.5-.13.81.04.57.13.8.21.43.35.58c.15.16.32.28.52.36.2.08.4.12.62.12.25,0,.46-.04.63-.11.17-.07.32-.17.43-.27.11-.11.2-.23.27-.36.07-.13.11-.24.14-.35l.91.4c-.07.19-.16.38-.29.58-.12.19-.29.37-.48.53-.2.16-.43.29-.7.39s-.57.15-.92.15c-.39,0-.75-.07-1.07-.21-.33-.14-.61-.34-.84-.59-.24-.25-.42-.55-.56-.89-.14-.34-.2-.71-.2-1.12s.07-.79.2-1.13c.14-.34.32-.64.56-.89s.52-.44.85-.58c.33-.14.68-.21,1.05-.21.35,0,.66.05.93.15s.5.23.69.39c.19.16.35.34.47.54.12.2.21.4.26.6l-.93.4c-.04-.13-.09-.26-.15-.4-.07-.13-.16-.25-.27-.36-.11-.11-.25-.19-.41-.26-.16-.07-.36-.1-.58-.1Z"/>
    <path d="M419.01,90.45c0-.23.04-.45.12-.63s.19-.35.34-.48c.14-.13.31-.24.51-.32.2-.08.41-.14.64-.18l1.43-.21c.16-.02.27-.07.32-.14.06-.07.08-.16.08-.25,0-.26-.09-.48-.27-.67s-.47-.28-.88-.28c-.37,0-.65.1-.85.3s-.32.46-.35.76l-.99-.23c.03-.25.1-.48.23-.69.12-.21.28-.39.47-.54.19-.15.41-.27.67-.35.25-.08.52-.13.81-.13.4,0,.73.05,1.01.16s.51.25.68.42c.18.18.3.38.38.62.08.23.12.48.12.74v2.65c0,.23,0,.42.02.56.01.14.03.24.04.31h-1.01c-.01-.07-.03-.15-.04-.26-.01-.11-.02-.26-.02-.45-.06.1-.14.19-.23.3s-.21.2-.35.29c-.14.09-.3.16-.49.21-.19.06-.4.08-.63.08-.27,0-.52-.04-.73-.13-.22-.09-.4-.2-.56-.35s-.27-.31-.36-.5c-.08-.19-.13-.39-.13-.6ZM420.92,91.16c.21,0,.41-.03.6-.08.19-.05.35-.14.48-.26.14-.12.24-.28.32-.48.08-.2.12-.45.12-.73v-.24l-1.62.24c-.22.04-.4.12-.55.25-.15.13-.22.31-.22.54,0,.2.08.38.23.53s.36.24.63.24Z"/>
    <path d="M425.53,90.16c.04.28.16.51.36.7.21.19.5.29.87.29.29,0,.52-.07.67-.21.15-.14.23-.3.23-.5,0-.17-.06-.31-.18-.43-.12-.12-.29-.2-.51-.25l-.9-.2c-.42-.09-.74-.26-.97-.53-.23-.26-.35-.58-.35-.96,0-.23.05-.44.15-.64.1-.2.23-.38.4-.53.17-.15.37-.27.6-.36.23-.09.47-.13.73-.13.36,0,.66.05.91.15.25.1.45.23.6.38.15.15.27.31.35.47.08.16.13.3.16.42l-.91.34c-.01-.07-.04-.15-.08-.25-.04-.1-.1-.2-.18-.29-.08-.09-.19-.17-.33-.24-.14-.07-.31-.1-.52-.1-.26,0-.48.07-.64.21s-.24.31-.24.49c0,.34.2.55.61.64l.86.19c.48.1.85.29,1.09.57s.37.61.37,1.01c0,.19-.04.38-.12.57-.08.19-.2.37-.36.53-.16.16-.36.29-.6.39-.24.1-.53.15-.86.15-.37,0-.68-.05-.94-.15-.26-.1-.48-.23-.65-.39-.17-.15-.3-.32-.4-.5s-.15-.35-.17-.5l.94-.33Z"/>
    <path d="M431.45,86.58h1.14v.94h-1.14v2.75c0,.24.06.42.17.54.11.12.3.18.57.18.07,0,.14,0,.22-.01.08,0,.14-.02.19-.03v.88s-.13.03-.25.06c-.12.03-.28.04-.45.04-.46,0-.81-.13-1.08-.39s-.4-.63-.4-1.12v-2.9h-1.01v-.94h.29c.29,0,.49-.08.62-.23.13-.15.19-.35.19-.58v-.86h.95v1.67Z"/>
    <path d="M436.44,88.38c0-.6.05-1.16.16-1.67s.25-.98.44-1.41c.19-.43.41-.82.67-1.18.26-.36.53-.69.83-.99l.63.55c-.57.63-1.01,1.33-1.34,2.1s-.49,1.63-.49,2.6.16,1.84.49,2.61.77,1.47,1.34,2.09l-.63.55c-.29-.3-.57-.63-.83-.99s-.48-.75-.67-1.18c-.19-.43-.33-.9-.44-1.41s-.16-1.07-.16-1.67Z"/>
    <path d="M444.7,89.69h-3.45l-.83,2.18h-1.15l3.1-7.8h1.24l3.1,7.8h-1.17l-.85-2.18ZM441.64,88.69h2.68l-1.35-3.5-1.33,3.5Z"/>
    <path d="M447.82,91.87v-7.8h2.73c.49,0,.96.08,1.41.25.45.17.84.42,1.18.75.34.33.61.74.81,1.23.2.49.3,1.05.3,1.69s-.1,1.2-.3,1.68c-.2.48-.47.89-.82,1.22s-.74.57-1.19.74-.92.25-1.41.25h-2.71ZM450.49,90.91c.36,0,.7-.06,1.02-.18.32-.12.61-.3.85-.54.24-.24.43-.55.57-.91.14-.37.21-.8.21-1.29s-.07-.92-.21-1.29c-.14-.37-.33-.68-.57-.92-.24-.25-.52-.43-.84-.56-.32-.12-.66-.19-1.02-.19h-1.62v5.88h1.59Z"/>
    <path d="M460.46,84.07h1.13l-3,7.8h-1.07l-2.94-7.8h1.14l2.35,6.41,2.38-6.41Z"/>
    <path d="M465.23,84.07c.37,0,.71.05,1,.16.29.11.54.25.74.44.2.19.36.41.46.67.11.26.16.54.16.85,0,.42-.11.77-.32,1.06-.22.29-.5.5-.84.62.22.06.42.15.59.27.18.12.32.26.45.43s.21.35.27.55.09.41.09.63c0,.31-.06.59-.18.85s-.28.48-.5.67-.47.33-.76.44c-.29.11-.62.16-.98.16h-2.73v-7.8h2.54ZM465.11,87.48c.44,0,.78-.12,1.02-.35.24-.23.36-.53.36-.9s-.13-.67-.38-.89c-.25-.22-.6-.33-1.05-.33h-1.3v2.46h1.34ZM465.26,90.92c.44,0,.79-.11,1.06-.34.27-.22.4-.53.4-.91s-.12-.68-.35-.92-.59-.36-1.07-.36h-1.54v2.52h1.5Z"/>
    <path d="M471.04,88.38c0,.6-.05,1.16-.16,1.67s-.25.98-.44,1.41c-.19.43-.41.82-.67,1.18s-.53.69-.83.99l-.63-.55c.56-.62,1-1.32,1.33-2.09s.5-1.64.5-2.61c0-.48-.04-.94-.13-1.38-.08-.43-.21-.84-.36-1.23-.16-.39-.35-.75-.58-1.1s-.48-.67-.76-.99l.63-.55c.29.3.57.63.83.99.26.36.48.75.67,1.18.19.43.33.9.44,1.41s.16,1.06.16,1.67Z"/>
  </g>
  <g>
    <path d="M547.41,60.24v-11.2h2.5v8.81h4.83v2.38h-7.33Z"/>
    <path d="M559.8,52.16c.59,0,1.14.1,1.64.31.51.21.95.49,1.32.86.37.37.67.81.88,1.31s.32,1.06.32,1.67-.11,1.17-.32,1.68-.51.95-.88,1.32c-.37.37-.81.66-1.32.86-.5.21-1.05.31-1.64.31s-1.14-.1-1.64-.31c-.5-.21-.95-.49-1.32-.86-.37-.37-.67-.81-.88-1.32s-.32-1.07-.32-1.68.11-1.17.32-1.67.51-.94.88-1.31c.37-.37.81-.66,1.32-.86.51-.21,1.05-.31,1.64-.31ZM559.8,58.27c.23,0,.45-.04.66-.12.21-.08.4-.2.56-.36.16-.16.29-.37.39-.61.1-.24.15-.53.15-.87s-.05-.61-.15-.86c-.1-.25-.23-.45-.39-.61-.16-.16-.35-.28-.56-.35-.21-.08-.43-.12-.66-.12s-.44.04-.66.12c-.22.08-.41.2-.57.35-.16.16-.29.36-.4.61-.1.25-.15.53-.15.86s.05.61.15.86c.1.25.23.45.4.62.16.16.35.28.57.36s.43.12.66.12Z"/>
    <path d="M567.08,60.08c.08.38.27.69.57.94s.67.37,1.12.37c.6,0,1.07-.16,1.42-.47s.52-.82.52-1.54v-.36c-.15.21-.39.41-.73.6-.34.19-.8.28-1.37.28-.53,0-1.01-.1-1.45-.29-.44-.19-.83-.46-1.15-.81s-.58-.75-.77-1.21c-.18-.46-.28-.97-.28-1.52,0-.52.09-1.01.27-1.47.18-.46.43-.87.75-1.22.32-.35.71-.63,1.15-.84.45-.21.94-.31,1.48-.31.32,0,.6.03.84.09.25.06.46.14.64.24.18.09.33.2.44.32.12.12.2.23.25.33v-.84h2.29v6.87c0,.57-.08,1.11-.25,1.61s-.42.95-.76,1.34c-.34.39-.78.7-1.3.92-.53.23-1.16.34-1.89.34-.57,0-1.08-.08-1.54-.24-.46-.16-.85-.37-1.18-.63-.33-.26-.6-.56-.81-.9s-.33-.68-.39-1.03l2.12-.6ZM569.05,57.83c.5,0,.9-.16,1.21-.47s.47-.73.47-1.27c0-.26-.04-.5-.13-.72-.09-.22-.21-.4-.36-.55-.15-.15-.33-.27-.54-.35-.21-.08-.42-.12-.64-.12s-.43.04-.64.12c-.21.08-.39.2-.54.35-.16.15-.28.34-.37.55-.09.22-.13.46-.13.72,0,.54.16.96.48,1.27s.72.47,1.21.47Z"/>
    <path d="M574.9,49.99c0-.19.04-.37.11-.54.07-.17.17-.32.3-.45.13-.13.27-.23.44-.3.17-.07.35-.11.54-.11.4,0,.74.14,1.01.41.27.27.41.61.41,1s-.14.72-.41,1c-.27.27-.61.41-1.01.41-.19,0-.37-.04-.54-.11-.17-.07-.32-.17-.44-.3-.13-.13-.23-.28-.3-.45-.07-.17-.11-.36-.11-.54ZM575.1,60.24v-7.85h2.4v7.85h-2.4Z"/>
    <path d="M583.22,54.37c-.25,0-.49.04-.7.13-.22.08-.41.21-.57.38s-.29.37-.39.62-.14.52-.14.84.05.59.15.83c.1.24.23.44.4.61.16.17.35.29.58.38.22.08.46.13.71.13.46,0,.83-.12,1.1-.36s.44-.51.53-.81l2.12.65c-.08.35-.23.68-.43,1.01-.21.33-.47.62-.78.87-.32.25-.68.46-1.11.62s-.89.24-1.42.24c-.59,0-1.14-.1-1.65-.31-.51-.21-.96-.49-1.33-.86s-.68-.81-.9-1.31-.33-1.06-.33-1.67.11-1.17.32-1.68.51-.95.88-1.32c.37-.37.81-.66,1.31-.86.5-.21,1.04-.31,1.62-.31.54,0,1.02.08,1.45.23.43.15.81.35,1.12.61.32.25.57.54.77.88.2.33.34.67.43,1.02l-2.15.65c-.04-.15-.11-.29-.19-.43-.08-.14-.19-.27-.32-.38-.13-.11-.28-.2-.46-.26-.18-.06-.38-.09-.62-.09Z"/>
    <path d="M587.99,58.08c0-.35.06-.66.18-.93.12-.27.29-.51.5-.7.21-.19.46-.35.73-.47.28-.12.58-.21.91-.26l1.85-.28c.21-.03.36-.09.44-.19s.13-.21.13-.35c0-.23-.1-.43-.29-.6-.19-.17-.48-.25-.86-.25-.42,0-.75.12-.97.36-.23.24-.35.5-.37.8l-2.08-.43c.02-.28.11-.58.25-.88.15-.31.36-.58.64-.84.28-.25.63-.46,1.05-.63.42-.17.92-.25,1.5-.25.63,0,1.17.08,1.61.24.44.16.8.38,1.08.66.28.28.48.6.6.97s.18.75.18,1.15v3.84c0,.31.01.57.04.81.03.23.04.37.06.41h-2.16s-.03-.12-.05-.26c-.02-.14-.03-.35-.03-.62-.21.34-.5.61-.87.81-.37.2-.82.3-1.34.3-.43,0-.82-.07-1.15-.2-.34-.13-.62-.31-.85-.53s-.41-.47-.53-.76c-.12-.28-.18-.58-.18-.9ZM591.29,58.73c.18,0,.36-.02.53-.07.17-.05.33-.13.46-.25.13-.12.24-.28.32-.48.08-.2.13-.45.13-.76v-.35l-1.48.24c-.25.04-.46.13-.63.26-.17.13-.25.33-.25.61,0,.21.07.4.21.56.14.16.38.25.72.25Z"/>
    <path d="M597.09,60.24v-11.44h2.4v11.44h-2.4Z"/>
    <path d="M605.64,60.24v-11.2h2.5v8.81h4.83v2.38h-7.33Z"/>
    <path d="M614.22,49.99c0-.19.04-.37.11-.54.07-.17.17-.32.3-.45.13-.13.27-.23.44-.3.17-.07.35-.11.54-.11.4,0,.74.14,1.01.41.27.27.41.61.41,1s-.14.72-.41,1c-.27.27-.61.41-1.01.41-.19,0-.37-.04-.54-.11-.17-.07-.32-.17-.44-.3-.13-.13-.23-.28-.3-.45-.07-.17-.11-.36-.11-.54ZM614.43,60.24v-7.85h2.4v7.85h-2.4Z"/>
    <path d="M621.33,60.24h-2.4v-7.85h2.32v.9c.11-.19.24-.35.41-.49.17-.14.35-.25.54-.34.19-.09.4-.16.62-.21s.42-.07.62-.07c.5,0,.92.08,1.28.25.36.16.66.39.89.67.24.28.41.62.52,1,.11.38.17.78.17,1.22v4.93h-2.4v-4.52c0-.39-.1-.71-.31-.97-.21-.26-.53-.39-.97-.39-.4,0-.72.13-.95.39-.23.26-.35.59-.35.99v4.5Z"/>
    <path d="M633.16,55.69l3.13,4.55h-2.94l-1.85-2.76-.77.84v1.93h-2.4v-11.44h2.4v6.22l2.38-2.64h3.11l-3.06,3.3Z"/>
    <path d="M547.97,76.49h-3.45l-.83,2.18h-1.15l3.1-7.8h1.24l3.1,7.8h-1.17l-.85-2.18ZM544.9,75.49h2.68l-1.35-3.5-1.33,3.5Z"/>
    <path d="M551.08,78.67v-7.8h2.73c.49,0,.96.08,1.41.25.45.17.84.42,1.18.75.34.33.61.74.81,1.23.2.49.3,1.05.3,1.69s-.1,1.2-.3,1.68c-.2.48-.47.89-.82,1.22s-.74.57-1.19.74-.92.25-1.41.25h-2.71ZM553.76,77.71c.36,0,.7-.06,1.02-.18.32-.12.61-.3.85-.54.24-.24.43-.55.57-.91.14-.37.21-.8.21-1.29s-.07-.92-.21-1.29c-.14-.37-.33-.68-.57-.92-.24-.25-.52-.43-.84-.56-.32-.12-.66-.19-1.02-.19h-1.62v5.88h1.59Z"/>
    <path d="M563.72,70.87h1.13l-3,7.8h-1.07l-2.94-7.8h1.14l2.35,6.41,2.38-6.41Z"/>
    <path d="M568.49,70.87c.37,0,.71.05,1,.16.29.11.54.25.74.44.2.19.36.41.46.67.11.26.16.54.16.85,0,.42-.11.77-.32,1.06-.22.29-.5.5-.84.62.22.06.42.15.59.27.18.12.32.26.45.43s.21.35.27.55.09.41.09.63c0,.31-.06.59-.18.85s-.28.48-.5.67-.47.33-.76.44c-.29.11-.62.16-.98.16h-2.73v-7.8h2.54ZM568.37,74.28c.44,0,.78-.12,1.02-.35.24-.23.36-.53.36-.9s-.13-.67-.38-.89c-.25-.22-.6-.33-1.05-.33h-1.3v2.46h1.34ZM568.53,77.72c.44,0,.79-.11,1.06-.34.27-.22.4-.53.4-.91s-.12-.68-.35-.92-.59-.36-1.07-.36h-1.54v2.52h1.5Z"/>
    <path d="M572.08,75.96v-.9h2.98v.9h-2.98Z"/>
    <path d="M579.92,78.83c-.51,0-.99-.09-1.46-.27s-.88-.44-1.23-.79c-.36-.34-.64-.77-.86-1.28-.22-.51-.32-1.09-.32-1.74s.11-1.23.33-1.73c.22-.5.51-.93.87-1.27.36-.34.78-.61,1.24-.79s.94-.27,1.42-.27c.45,0,.86.06,1.23.18.37.12.71.28,1,.5.29.21.54.47.74.78.2.31.35.65.46,1.02l-1,.35c-.15-.59-.43-1.05-.84-1.36-.41-.32-.94-.47-1.59-.47-.35,0-.7.06-1.03.19-.33.13-.63.32-.89.58-.26.26-.47.58-.62.96-.15.39-.23.83-.23,1.34s.08.95.23,1.34c.15.38.36.71.62.97.26.26.56.46.89.58.33.13.68.19,1.03.19.33,0,.63-.05.9-.14.27-.1.51-.23.72-.39s.38-.36.53-.59c.14-.23.25-.48.33-.74l.96.35c-.1.37-.26.7-.46,1.01s-.45.57-.74.79c-.29.22-.62.39-1,.52s-.79.19-1.24.19Z"/>
    <path d="M589.7,73.21c.4,0,.76.07,1.09.21.33.14.62.34.86.59.24.25.43.54.56.89.13.34.2.71.2,1.12s-.07.78-.2,1.12-.32.64-.56.89c-.24.25-.53.45-.86.59-.33.14-.69.21-1.09.21s-.76-.07-1.09-.21c-.33-.14-.62-.34-.86-.59-.24-.25-.43-.55-.56-.89s-.2-.72-.2-1.12.07-.78.2-1.12c.13-.34.32-.64.56-.89.24-.25.53-.45.86-.59.33-.14.69-.21,1.09-.21ZM589.7,77.91c.22,0,.43-.04.63-.12.2-.08.37-.2.53-.36.15-.16.28-.36.36-.59s.13-.51.13-.81-.04-.58-.13-.81-.21-.43-.36-.59c-.15-.16-.33-.28-.53-.36-.2-.08-.41-.12-.63-.12s-.43.04-.63.12c-.2.08-.37.2-.53.36-.15.16-.28.36-.36.59s-.13.5-.13.81.04.58.13.81.21.43.36.59c.15.16.33.28.53.36.2.08.41.12.63.12Z"/>
    <path d="M596.67,74.42c-.15-.02-.3-.03-.45-.03-.43,0-.78.13-1.05.38s-.4.67-.4,1.25v2.65h-1.03v-5.29h1.01v.92c.1-.21.21-.37.34-.5.13-.13.26-.23.4-.31.14-.08.28-.13.43-.16.15-.03.29-.04.42-.04.07,0,.14,0,.2.01.06,0,.11.02.14.02v1.1Z"/>
    <path d="M605.18,76.49h-3.45l-.83,2.18h-1.15l3.1-7.8h1.24l3.1,7.8h-1.17l-.85-2.18ZM602.11,75.49h2.68l-1.35-3.5-1.33,3.5Z"/>
    <path d="M608.29,78.67v-7.8h2.73c.49,0,.96.08,1.41.25.45.17.84.42,1.18.75.34.33.61.74.81,1.23.2.49.3,1.05.3,1.69s-.1,1.2-.3,1.68c-.2.48-.47.89-.82,1.22s-.74.57-1.19.74-.92.25-1.41.25h-2.71ZM610.97,77.71c.36,0,.7-.06,1.02-.18.32-.12.61-.3.85-.54.24-.24.43-.55.57-.91.14-.37.21-.8.21-1.29s-.07-.92-.21-1.29c-.14-.37-.33-.68-.57-.92-.24-.25-.52-.43-.84-.56-.32-.12-.66-.19-1.02-.19h-1.62v5.88h1.59Z"/>
    <path d="M620.93,70.87h1.13l-3,7.8h-1.07l-2.94-7.8h1.14l2.35,6.41,2.38-6.41Z"/>
    <path d="M625.71,70.87c.37,0,.71.05,1,.16.29.11.54.25.74.44.2.19.36.41.46.67.11.26.16.54.16.85,0,.42-.11.77-.32,1.06-.22.29-.5.5-.84.62.22.06.42.15.59.27.18.12.32.26.45.43s.21.35.27.55.09.41.09.63c0,.31-.06.59-.18.85s-.28.48-.5.67-.47.33-.76.44c-.29.11-.62.16-.98.16h-2.73v-7.8h2.54ZM625.58,74.28c.44,0,.78-.12,1.02-.35.24-.23.36-.53.36-.9s-.13-.67-.38-.89c-.25-.22-.6-.33-1.05-.33h-1.3v2.46h1.34ZM625.74,77.72c.44,0,.79-.11,1.06-.34.27-.22.4-.53.4-.91s-.12-.68-.35-.92-.59-.36-1.07-.36h-1.54v2.52h1.5Z"/>
    <path d="M629.29,75.96v-.9h2.98v.9h-2.98Z"/>
    <path d="M636.45,78.83c-.4,0-.76-.06-1.11-.18-.34-.12-.64-.3-.89-.54-.25-.24-.45-.53-.59-.89-.14-.35-.21-.76-.21-1.22v-5.14h1.07v5.1c0,.59.15,1.05.46,1.38s.73.48,1.28.48.98-.16,1.28-.48.45-.78.45-1.38v-5.1h1.08v5.14c0,.46-.07.87-.21,1.22-.14.35-.34.65-.59.89-.25.24-.55.42-.89.54-.34.12-.71.18-1.11.18Z"/>
  </g>
</svg>