<?xml version="1.0" encoding="UTF-8"?>
<svg id="Layer_1" data-name="Layer 1" xmlns="http://www.w3.org/2000/svg" viewBox="0 0 342 349.38">
  <defs>
    <style>
      .cls-1, .cls-2 {
        fill: none;
      }

      .cls-1, .cls-2, .cls-3 {
        stroke: #000;
        stroke-miterlimit: 10;
      }

      .cls-2 {
        stroke-width: .75px;
      }

      .cls-3 {
        fill: #fff;
      }
    </style>
  </defs>
  <g>
    <path d="M157.08,67.55c-.13,0-.26.02-.38.07s-.23.12-.32.22-.17.22-.23.37c-.05.15-.08.32-.08.51s.03.36.08.51c.06.15.13.27.22.37s.2.18.33.23c.13.05.26.08.39.08.16,0,.29-.02.4-.07s.2-.11.27-.17c.07-.07.13-.15.17-.23.04-.08.07-.16.09-.22l.58.25c-.04.12-.1.24-.18.37-.08.12-.18.24-.31.34-.13.1-.28.19-.45.25-.17.06-.37.09-.58.09-.25,0-.47-.04-.68-.14-.21-.09-.39-.22-.54-.38-.15-.16-.27-.35-.35-.57-.09-.22-.13-.45-.13-.71s.04-.5.13-.72c.09-.22.21-.41.36-.56.15-.16.33-.28.54-.37.21-.09.43-.13.67-.13s.42.03.59.09c.17.06.32.15.44.25s.22.22.3.35c.08.13.13.26.17.38l-.59.25c-.02-.08-.06-.17-.1-.25-.04-.08-.1-.16-.17-.23s-.16-.12-.26-.17c-.1-.04-.23-.07-.37-.07Z"/>
    <path d="M160.82,66.94c.25,0,.48.05.69.14.21.09.39.22.55.38.15.16.27.35.36.56s.13.45.13.71-.04.5-.13.71c-.08.22-.2.41-.36.57-.15.16-.34.28-.55.37-.21.09-.44.14-.69.14s-.48-.04-.69-.14c-.21-.09-.39-.21-.54-.37-.15-.16-.27-.35-.36-.57-.08-.22-.12-.46-.12-.71s.04-.49.12-.71.2-.41.36-.56c.15-.16.34-.28.54-.38.21-.09.44-.14.69-.14ZM160.82,69.93c.14,0,.27-.03.4-.08.12-.05.24-.13.34-.23.1-.1.17-.23.23-.38s.08-.32.08-.52-.03-.37-.08-.51c-.06-.15-.13-.27-.23-.37-.1-.1-.21-.18-.34-.23-.13-.05-.26-.08-.4-.08s-.27.03-.4.08c-.13.05-.24.13-.34.23s-.18.23-.23.37c-.06.15-.08.32-.08.51s.03.37.08.52c.05.15.13.28.23.38s.21.18.34.23c.12.05.26.08.4.08Z"/>
    <path d="M163.38,70.41v-3.37h.63v.45c.11-.19.25-.32.44-.41s.38-.13.58-.13c.21,0,.41.05.59.15.18.1.32.26.42.48.13-.24.3-.41.5-.5.2-.09.41-.14.62-.14.14,0,.29.03.43.08.14.05.26.13.37.24.11.1.2.24.26.4.06.16.1.35.1.57v2.18h-.65v-2.11c0-.22-.06-.4-.17-.55-.12-.15-.29-.22-.54-.22-.23,0-.42.08-.56.24-.14.16-.21.36-.21.61v2.04h-.66v-2.11c0-.22-.05-.4-.17-.55-.11-.15-.29-.22-.54-.22-.24,0-.43.08-.57.24-.14.16-.21.36-.21.62v2.03h-.65Z"/>
    <path d="M169.38,70.41v-3.37h.63v.45c.11-.19.26-.32.45-.41.19-.09.38-.13.58-.13.21,0,.41.05.59.15.19.1.32.26.42.48.14-.24.3-.41.5-.5.2-.09.41-.14.62-.14.14,0,.29.03.43.08.14.05.27.13.38.24.11.1.2.24.26.4.07.16.1.35.1.57v2.18h-.65v-2.11c0-.22-.06-.4-.17-.55-.11-.15-.29-.22-.54-.22-.23,0-.42.08-.56.24s-.21.36-.21.61v2.04h-.66v-2.11c0-.22-.06-.4-.17-.55-.11-.15-.29-.22-.55-.22-.24,0-.43.08-.57.24-.14.16-.21.36-.21.62v2.03h-.65Z"/>
    <path d="M175.17,69.51c0-.15.03-.28.08-.4s.12-.22.21-.3c.09-.08.2-.15.33-.2.12-.05.26-.09.41-.11l.91-.13c.1-.01.17-.04.21-.09s.05-.1.05-.16c0-.16-.06-.3-.17-.42-.11-.12-.3-.18-.55-.18-.23,0-.41.06-.54.19-.13.13-.2.29-.22.49l-.63-.15c.02-.16.07-.31.14-.44.08-.13.18-.25.3-.35s.26-.17.42-.22c.16-.05.33-.08.51-.08.25,0,.47.03.64.1.18.07.32.16.43.27.11.11.19.24.25.39.05.15.08.31.08.47v1.69c0,.15,0,.27.01.36s.02.15.03.2h-.64s-.02-.1-.03-.17c0-.07,0-.17,0-.29-.04.06-.09.12-.15.19-.06.07-.14.13-.22.18-.09.06-.19.1-.31.14-.12.03-.25.05-.4.05-.17,0-.33-.03-.46-.08-.14-.06-.26-.13-.35-.22-.1-.09-.17-.2-.23-.32-.05-.12-.08-.25-.08-.38ZM176.39,69.96c.13,0,.26-.02.38-.05s.22-.09.31-.17.15-.18.21-.31c.05-.13.08-.28.08-.47v-.15l-1.03.15c-.14.02-.26.08-.35.16-.09.08-.14.2-.14.35,0,.13.05.24.15.34s.23.15.4.15Z"/>
    <path d="M179.7,70.41h-.66v-3.37h.64v.48c.12-.21.28-.36.46-.45.19-.09.38-.13.57-.13s.38.03.53.1c.15.07.28.16.38.28.1.12.17.26.22.42.05.16.07.34.07.53v2.13h-.66v-2.02c0-.12-.01-.23-.04-.33-.03-.1-.07-.19-.13-.27-.06-.08-.14-.14-.24-.18s-.22-.07-.37-.07c-.13,0-.25.02-.34.07s-.18.12-.24.2c-.07.08-.12.18-.15.29-.03.11-.05.23-.05.36v1.95Z"/>
    <path d="M185.33,69.9c-.08.16-.21.3-.38.42s-.4.18-.66.18c-.25,0-.47-.05-.66-.14-.2-.09-.36-.22-.5-.38-.14-.16-.24-.35-.32-.57-.07-.22-.11-.45-.11-.7,0-.24.04-.46.12-.68.08-.21.19-.4.33-.56s.31-.29.5-.38.41-.14.65-.14c.15,0,.28.02.4.05.11.03.21.08.3.13s.15.11.21.18c.05.07.1.14.12.21v-2.18h.65v4.45c0,.16,0,.3.02.41,0,.11.02.18.02.21h-.64s-.02-.1-.02-.18c0-.08-.01-.17-.01-.28v-.06ZM183.37,68.72c0,.17.02.33.07.48.04.15.11.27.19.38s.19.19.31.25c.12.06.26.09.42.09.15,0,.28-.03.4-.09.12-.06.22-.15.31-.25s.15-.24.19-.39c.04-.15.07-.31.07-.48,0-.35-.09-.63-.26-.85-.17-.21-.41-.32-.71-.32-.15,0-.29.03-.41.09-.12.06-.23.14-.31.25-.09.11-.15.23-.2.38s-.07.3-.07.48Z"/>
  </g>
  <g>
    <path d="M157.08,263.2c-.13,0-.26.02-.38.07s-.23.12-.32.22c-.1.1-.17.22-.23.37-.05.15-.08.32-.08.51s.03.36.08.51c.06.15.13.27.22.37.09.1.2.18.33.23.13.05.26.08.39.08.16,0,.29-.02.4-.07.11-.05.2-.1.27-.17.07-.07.13-.15.17-.23.04-.08.07-.16.09-.22l.58.25c-.04.12-.1.24-.18.37-.08.12-.18.24-.31.34-.13.1-.28.18-.45.25s-.37.09-.58.09c-.25,0-.47-.05-.68-.14-.21-.09-.39-.22-.54-.38-.15-.16-.27-.35-.35-.57-.09-.22-.13-.45-.13-.71s.04-.5.13-.72c.09-.22.21-.41.36-.56.15-.16.33-.28.54-.37s.43-.13.67-.13.42.03.59.09c.17.06.32.15.44.25s.22.22.3.35c.08.13.13.26.17.38l-.59.25c-.02-.08-.06-.17-.1-.25-.04-.08-.1-.16-.17-.23-.07-.07-.16-.12-.26-.17-.1-.04-.23-.07-.37-.07Z"/>
    <path d="M160.82,262.59c.25,0,.48.05.69.14.21.09.39.22.55.37.15.16.27.35.36.56s.13.45.13.71-.04.49-.13.71-.2.41-.36.57c-.15.16-.34.28-.55.37-.21.09-.44.14-.69.14s-.48-.05-.69-.14c-.21-.09-.39-.22-.54-.37-.15-.16-.27-.35-.36-.57s-.12-.46-.12-.71.04-.49.12-.71.2-.4.36-.56c.15-.16.34-.28.54-.37.21-.09.44-.14.69-.14ZM160.82,265.58c.14,0,.27-.03.4-.08.12-.05.24-.13.34-.23.1-.1.17-.23.23-.38s.08-.32.08-.52-.03-.37-.08-.51c-.06-.15-.13-.27-.23-.38-.1-.1-.21-.18-.34-.23-.13-.05-.26-.08-.4-.08s-.27.03-.4.08c-.13.05-.24.13-.34.23-.1.1-.18.23-.23.38-.06.15-.08.32-.08.51s.03.37.08.52c.05.15.13.28.23.38s.21.18.34.23c.12.05.26.08.4.08Z"/>
    <path d="M163.38,266.06v-3.37h.63v.45c.11-.19.25-.32.44-.41.19-.09.38-.13.58-.13.21,0,.41.05.59.15.18.1.32.26.42.48.13-.24.3-.41.5-.5s.41-.14.62-.14c.14,0,.29.03.43.08.14.05.26.13.37.23.11.11.2.24.26.4.06.16.1.35.1.57v2.18h-.65v-2.11c0-.22-.06-.4-.17-.55-.12-.15-.29-.22-.54-.22-.23,0-.42.08-.56.24-.14.16-.21.36-.21.61v2.04h-.66v-2.11c0-.22-.05-.4-.17-.55-.11-.15-.29-.22-.54-.22-.24,0-.43.08-.57.24-.14.16-.21.36-.21.62v2.03h-.65Z"/>
    <path d="M169.38,266.06v-3.37h.63v.45c.11-.19.26-.32.45-.41.19-.09.38-.13.58-.13.21,0,.41.05.59.15.19.1.32.26.42.48.14-.24.3-.41.5-.5.2-.09.41-.14.62-.14.14,0,.29.03.43.08s.27.13.38.23c.11.11.2.24.26.4.07.16.1.35.1.57v2.18h-.65v-2.11c0-.22-.06-.4-.17-.55-.11-.15-.29-.22-.54-.22-.23,0-.42.08-.56.24s-.21.36-.21.61v2.04h-.66v-2.11c0-.22-.06-.4-.17-.55-.11-.15-.29-.22-.55-.22-.24,0-.43.08-.57.24-.14.16-.21.36-.21.62v2.03h-.65Z"/>
    <path d="M175.17,265.16c0-.15.03-.28.08-.4.05-.12.12-.22.21-.3.09-.08.2-.15.33-.2.12-.05.26-.09.41-.11l.91-.13c.1-.01.17-.04.21-.09.04-.05.05-.1.05-.16,0-.16-.06-.3-.17-.42-.11-.12-.3-.18-.55-.18-.23,0-.41.06-.54.19-.13.13-.2.29-.22.49l-.63-.15c.02-.16.07-.31.14-.44.08-.14.18-.25.3-.35s.26-.17.42-.22c.16-.05.33-.08.51-.08.25,0,.47.03.64.1s.32.16.43.27c.11.11.19.24.25.39.05.15.08.31.08.47v1.69c0,.15,0,.27.01.36,0,.09.02.15.03.2h-.64s-.02-.1-.03-.17c0-.07,0-.17,0-.29-.04.06-.09.12-.15.19s-.14.13-.22.18c-.09.06-.19.1-.31.14-.12.04-.25.05-.4.05-.17,0-.33-.03-.46-.08-.14-.06-.26-.13-.35-.22s-.17-.2-.23-.32c-.05-.12-.08-.25-.08-.38ZM176.39,265.62c.13,0,.26-.02.38-.05s.22-.09.31-.17.15-.18.21-.31c.05-.13.08-.28.08-.46v-.15l-1.03.15c-.14.02-.26.08-.35.16s-.14.2-.14.35c0,.13.05.24.15.34.1.1.23.15.4.15Z"/>
    <path d="M179.7,266.06h-.66v-3.37h.64v.48c.12-.21.28-.36.46-.45.19-.09.38-.13.57-.13s.38.03.53.1c.15.07.28.16.38.28.1.12.17.26.22.42.05.16.07.34.07.53v2.13h-.66v-2.02c0-.12-.01-.23-.04-.33-.03-.1-.07-.19-.13-.27-.06-.08-.14-.14-.24-.18-.1-.04-.22-.07-.37-.07-.13,0-.25.02-.34.07-.1.05-.18.12-.24.2-.07.08-.12.18-.15.29-.03.11-.05.23-.05.36v1.95Z"/>
    <path d="M185.33,265.55c-.08.16-.21.3-.38.42s-.4.18-.66.18c-.25,0-.47-.04-.66-.14-.2-.09-.36-.22-.5-.38-.14-.16-.24-.35-.32-.57-.07-.22-.11-.45-.11-.7,0-.24.04-.46.12-.68.08-.21.19-.4.33-.56.14-.16.31-.29.5-.38s.41-.14.65-.14c.15,0,.28.02.4.05.11.03.21.08.3.13s.15.11.21.18c.05.07.1.14.12.21v-2.18h.65v4.44c0,.16,0,.3.02.41,0,.11.02.18.02.21h-.64s-.02-.1-.02-.18c0-.08-.01-.17-.01-.28v-.06ZM183.37,264.37c0,.17.02.33.07.48.04.15.11.27.19.38s.19.19.31.25c.12.06.26.09.42.09.15,0,.28-.03.4-.09.12-.06.22-.15.31-.26s.15-.24.19-.38c.04-.15.07-.31.07-.48,0-.35-.09-.63-.26-.85s-.41-.32-.71-.32c-.15,0-.29.03-.41.09-.12.06-.23.14-.31.25-.09.1-.15.23-.2.37s-.07.3-.07.48Z"/>
  </g>
  <g>
    <path d="M157.08,111.03c-.13,0-.26.02-.38.07s-.23.12-.32.22-.17.22-.23.37c-.05.15-.08.32-.08.51s.03.36.08.51c.06.15.13.27.22.37s.2.18.33.23c.13.05.26.08.39.08.16,0,.29-.02.4-.07s.2-.11.27-.17c.07-.07.13-.15.17-.23.04-.08.07-.16.09-.22l.58.25c-.04.12-.1.24-.18.37-.08.12-.18.24-.31.34-.13.1-.28.19-.45.25-.17.06-.37.09-.58.09-.25,0-.47-.04-.68-.14-.21-.09-.39-.22-.54-.38-.15-.16-.27-.35-.35-.57-.09-.22-.13-.45-.13-.71s.04-.5.13-.72c.09-.22.21-.41.36-.56.15-.16.33-.28.54-.37.21-.09.43-.13.67-.13s.42.03.59.09c.17.06.32.15.44.25s.22.22.3.35c.08.13.13.26.17.38l-.59.25c-.02-.08-.06-.17-.1-.25-.04-.08-.1-.16-.17-.23s-.16-.12-.26-.17c-.1-.04-.23-.07-.37-.07Z"/>
    <path d="M160.82,110.42c.25,0,.48.05.69.14.21.09.39.22.55.38.15.16.27.35.36.56s.13.45.13.71-.04.5-.13.71c-.08.22-.2.41-.36.57-.15.16-.34.28-.55.37-.21.09-.44.14-.69.14s-.48-.04-.69-.14c-.21-.09-.39-.21-.54-.37-.15-.16-.27-.35-.36-.57-.08-.22-.12-.46-.12-.71s.04-.49.12-.71.2-.41.36-.56c.15-.16.34-.28.54-.38.21-.09.44-.14.69-.14ZM160.82,113.41c.14,0,.27-.03.4-.08.12-.05.24-.13.34-.23.1-.1.17-.23.23-.38s.08-.32.08-.52-.03-.37-.08-.51c-.06-.15-.13-.27-.23-.37-.1-.1-.21-.18-.34-.23-.13-.05-.26-.08-.4-.08s-.27.03-.4.08c-.13.05-.24.13-.34.23s-.18.23-.23.37c-.06.15-.08.32-.08.51s.03.37.08.52c.05.15.13.28.23.38s.21.18.34.23c.12.05.26.08.4.08Z"/>
    <path d="M163.38,113.89v-3.37h.63v.45c.11-.19.25-.32.44-.41s.38-.13.58-.13c.21,0,.41.05.59.15.18.1.32.26.42.48.13-.24.3-.41.5-.5.2-.09.41-.14.62-.14.14,0,.29.03.43.08.14.05.26.13.37.24.11.1.2.24.26.4.06.16.1.35.1.57v2.18h-.65v-2.11c0-.22-.06-.4-.17-.55-.12-.15-.29-.22-.54-.22-.23,0-.42.08-.56.24-.14.16-.21.36-.21.61v2.04h-.66v-2.11c0-.22-.05-.4-.17-.55-.11-.15-.29-.22-.54-.22-.24,0-.43.08-.57.24-.14.16-.21.36-.21.62v2.03h-.65Z"/>
    <path d="M169.38,113.89v-3.37h.63v.45c.11-.19.26-.32.45-.41.19-.09.38-.13.58-.13.21,0,.41.05.59.15.19.1.32.26.42.48.14-.24.3-.41.5-.5.2-.09.41-.14.62-.14.14,0,.29.03.43.08.14.05.27.13.38.24.11.1.2.24.26.4.07.16.1.35.1.57v2.18h-.65v-2.11c0-.22-.06-.4-.17-.55-.11-.15-.29-.22-.54-.22-.23,0-.42.08-.56.24s-.21.36-.21.61v2.04h-.66v-2.11c0-.22-.06-.4-.17-.55-.11-.15-.29-.22-.55-.22-.24,0-.43.08-.57.24-.14.16-.21.36-.21.62v2.03h-.65Z"/>
    <path d="M175.17,112.99c0-.15.03-.28.08-.4s.12-.22.21-.3c.09-.08.2-.15.33-.2.12-.05.26-.09.41-.11l.91-.13c.1-.01.17-.04.21-.09s.05-.1.05-.16c0-.16-.06-.3-.17-.42-.11-.12-.3-.18-.55-.18-.23,0-.41.06-.54.19-.13.13-.2.29-.22.49l-.63-.15c.02-.16.07-.31.14-.44.08-.13.18-.25.3-.35s.26-.17.42-.22c.16-.05.33-.08.51-.08.25,0,.47.03.64.1.18.07.32.16.43.27.11.11.19.24.25.39.05.15.08.31.08.47v1.69c0,.15,0,.27.01.36s.02.15.03.2h-.64s-.02-.1-.03-.17c0-.07,0-.17,0-.29-.04.06-.09.12-.15.19-.06.07-.14.13-.22.18-.09.06-.19.1-.31.14-.12.03-.25.05-.4.05-.17,0-.33-.03-.46-.08-.14-.06-.26-.13-.35-.22-.1-.09-.17-.2-.23-.32-.05-.12-.08-.25-.08-.38ZM176.39,113.44c.13,0,.26-.02.38-.05s.22-.09.31-.17.15-.18.21-.31c.05-.13.08-.28.08-.47v-.15l-1.03.15c-.14.02-.26.08-.35.16-.09.08-.14.2-.14.35,0,.13.05.24.15.34s.23.15.4.15Z"/>
    <path d="M179.7,113.89h-.66v-3.37h.64v.48c.12-.21.28-.36.46-.45.19-.09.38-.13.57-.13s.38.03.53.1c.15.07.28.16.38.28.1.12.17.26.22.42.05.16.07.34.07.53v2.13h-.66v-2.02c0-.12-.01-.23-.04-.33-.03-.1-.07-.19-.13-.27-.06-.08-.14-.14-.24-.18s-.22-.07-.37-.07c-.13,0-.25.02-.34.07s-.18.12-.24.2c-.07.08-.12.18-.15.29-.03.11-.05.23-.05.36v1.95Z"/>
    <path d="M185.33,113.38c-.08.16-.21.3-.38.42s-.4.18-.66.18c-.25,0-.47-.05-.66-.14-.2-.09-.36-.22-.5-.38-.14-.16-.24-.35-.32-.57-.07-.22-.11-.45-.11-.7,0-.24.04-.46.12-.68.08-.21.19-.4.33-.56s.31-.29.5-.38.41-.14.65-.14c.15,0,.28.02.4.05.11.03.21.08.3.13s.15.11.21.18c.05.07.1.14.12.21v-2.18h.65v4.45c0,.16,0,.3.02.41,0,.11.02.18.02.21h-.64s-.02-.1-.02-.18c0-.08-.01-.17-.01-.28v-.06ZM183.37,112.2c0,.17.02.33.07.48.04.15.11.27.19.38s.19.19.31.25c.12.06.26.09.42.09.15,0,.28-.03.4-.09.12-.06.22-.15.31-.25s.15-.24.19-.39c.04-.15.07-.31.07-.48,0-.35-.09-.63-.26-.85-.17-.21-.41-.32-.71-.32-.15,0-.29.03-.41.09-.12.06-.23.14-.31.25-.09.11-.15.23-.2.38s-.07.3-.07.48Z"/>
  </g>
  <g>
    <path d="M157.08,154.5c-.13,0-.26.02-.38.07s-.23.12-.32.22-.17.22-.23.37c-.05.15-.08.32-.08.51s.03.36.08.51c.06.15.13.27.22.37.09.1.2.18.33.23.13.05.26.08.39.08.16,0,.29-.02.4-.07.11-.05.2-.1.27-.17.07-.07.13-.15.17-.23.04-.08.07-.15.09-.22l.58.25c-.04.12-.1.24-.18.37-.08.12-.18.24-.31.34-.13.1-.28.18-.45.25-.17.06-.37.09-.58.09-.25,0-.47-.04-.68-.14-.21-.09-.39-.22-.54-.38-.15-.16-.27-.35-.35-.57-.09-.22-.13-.45-.13-.71s.04-.5.13-.72c.09-.22.21-.41.36-.56.15-.16.33-.28.54-.37.21-.09.43-.13.67-.13s.42.03.59.09.32.15.44.25c.12.1.22.22.3.35.08.13.13.26.17.38l-.59.25c-.02-.08-.06-.17-.1-.25-.04-.08-.1-.16-.17-.23s-.16-.12-.26-.17c-.1-.04-.23-.07-.37-.07Z"/>
    <path d="M160.82,153.9c.25,0,.48.05.69.14.21.09.39.22.55.37.15.16.27.35.36.56s.13.45.13.71-.04.5-.13.71c-.08.22-.2.41-.36.57-.15.16-.34.28-.55.37-.21.09-.44.14-.69.14s-.48-.04-.69-.14c-.21-.09-.39-.21-.54-.37s-.27-.35-.36-.57c-.08-.22-.12-.46-.12-.71s.04-.49.12-.71.2-.41.36-.56c.15-.16.34-.28.54-.37.21-.09.44-.14.69-.14ZM160.82,156.88c.14,0,.27-.03.4-.08.12-.05.24-.13.34-.23.1-.1.17-.23.23-.38.06-.15.08-.32.08-.52s-.03-.37-.08-.51-.13-.27-.23-.38c-.1-.1-.21-.18-.34-.23-.13-.05-.26-.08-.4-.08s-.27.03-.4.08c-.13.05-.24.13-.34.23-.1.1-.18.23-.23.38-.06.15-.08.32-.08.51s.03.37.08.52c.05.15.13.28.23.38.1.1.21.18.34.23.12.05.26.08.4.08Z"/>
    <path d="M163.38,157.37v-3.37h.63v.45c.11-.19.25-.32.44-.41.19-.09.38-.13.58-.13.21,0,.41.05.59.15.18.1.32.26.42.48.13-.24.3-.41.5-.5.2-.09.41-.14.62-.14.14,0,.29.03.43.08.14.05.26.13.37.24.11.1.2.24.26.4.06.16.1.35.1.57v2.18h-.65v-2.11c0-.22-.06-.4-.17-.55-.12-.15-.29-.22-.54-.22-.23,0-.42.08-.56.24-.14.16-.21.36-.21.61v2.04h-.66v-2.11c0-.22-.05-.4-.17-.55-.11-.15-.29-.22-.54-.22-.24,0-.43.08-.57.24-.14.16-.21.36-.21.62v2.03h-.65Z"/>
    <path d="M169.38,157.37v-3.37h.63v.45c.11-.19.26-.32.45-.41.19-.09.38-.13.58-.13.21,0,.41.05.59.15.19.1.32.26.42.48.14-.24.3-.41.5-.5.2-.09.41-.14.62-.14.14,0,.29.03.43.08s.27.13.38.24c.11.1.2.24.26.4.07.16.1.35.1.57v2.18h-.65v-2.11c0-.22-.06-.4-.17-.55-.11-.15-.29-.22-.54-.22-.23,0-.42.08-.56.24-.14.16-.21.36-.21.61v2.04h-.66v-2.11c0-.22-.06-.4-.17-.55-.11-.15-.29-.22-.55-.22-.24,0-.43.08-.57.24s-.21.36-.21.62v2.03h-.65Z"/>
    <path d="M175.17,156.46c0-.15.03-.28.08-.4s.12-.22.21-.3c.09-.08.2-.15.33-.2.12-.05.26-.09.41-.11l.91-.13c.1-.01.17-.04.21-.09s.05-.1.05-.16c0-.16-.06-.3-.17-.42-.11-.12-.3-.18-.55-.18-.23,0-.41.06-.54.19-.13.13-.2.29-.22.49l-.63-.15c.02-.16.07-.31.14-.44.08-.13.18-.25.3-.35s.26-.17.42-.22c.16-.05.33-.08.51-.08.25,0,.47.03.64.1s.32.16.43.27c.11.11.19.24.25.39.05.15.08.31.08.47v1.69c0,.15,0,.27.01.36,0,.09.02.15.03.2h-.64s-.02-.1-.03-.17c0-.07,0-.17,0-.29-.04.06-.09.12-.15.19-.06.07-.14.13-.22.18-.09.06-.19.1-.31.14-.12.04-.25.05-.4.05-.17,0-.33-.03-.46-.08-.14-.06-.26-.13-.35-.22-.1-.09-.17-.2-.23-.32-.05-.12-.08-.25-.08-.38ZM176.39,156.92c.13,0,.26-.02.38-.05s.22-.09.31-.17.15-.18.21-.31c.05-.13.08-.28.08-.46v-.15l-1.03.15c-.14.02-.26.08-.35.16-.09.08-.14.2-.14.35,0,.13.05.24.15.34.1.1.23.15.4.15Z"/>
    <path d="M179.7,157.37h-.66v-3.37h.64v.48c.12-.21.28-.36.46-.45.19-.09.38-.13.57-.13s.38.03.53.1c.15.07.28.16.38.28.1.12.17.26.22.42.05.16.07.34.07.53v2.13h-.66v-2.02c0-.12-.01-.23-.04-.33-.03-.1-.07-.19-.13-.27-.06-.08-.14-.14-.24-.18-.1-.04-.22-.07-.37-.07-.13,0-.25.02-.34.07-.1.05-.18.12-.24.2-.07.08-.12.18-.15.29-.03.11-.05.23-.05.36v1.95Z"/>
    <path d="M185.33,156.86c-.08.16-.21.3-.38.42s-.4.18-.66.18c-.25,0-.47-.05-.66-.14-.2-.09-.36-.22-.5-.38-.14-.16-.24-.35-.32-.57-.07-.22-.11-.45-.11-.7,0-.24.04-.46.12-.68.08-.21.19-.4.33-.56.14-.16.31-.29.5-.38s.41-.14.65-.14c.15,0,.28.02.4.05.11.03.21.08.3.13.08.05.15.12.21.18.05.07.1.14.12.21v-2.18h.65v4.44c0,.16,0,.3.02.41,0,.11.02.18.02.21h-.64s-.02-.1-.02-.18c0-.08-.01-.17-.01-.28v-.06ZM183.37,155.67c0,.17.02.33.07.48s.11.27.19.38.19.19.31.25c.12.06.26.09.42.09.15,0,.28-.03.4-.09s.22-.15.31-.26.15-.24.19-.38c.04-.15.07-.31.07-.48,0-.35-.09-.63-.26-.85s-.41-.32-.71-.32c-.15,0-.29.03-.41.09-.12.06-.23.14-.31.25s-.15.23-.2.37-.07.3-.07.48Z"/>
  </g>
  <g>
    <path d="M165.55,91.19c-.05.15-.12.29-.21.42-.09.13-.2.24-.33.34s-.27.17-.44.23c-.16.06-.34.08-.54.08-.22,0-.44-.04-.64-.12-.21-.08-.38-.2-.54-.35-.16-.15-.28-.34-.37-.57-.09-.22-.14-.48-.14-.76,0-.27.04-.51.13-.72.09-.22.21-.4.35-.56s.32-.28.51-.36c.2-.09.4-.13.61-.13.26,0,.49.04.69.13.2.09.37.21.51.36s.24.34.31.56.11.46.11.72c0,.04,0,.08,0,.12,0,.04,0,.07,0,.09h-2.54c0,.15.03.29.08.41.05.13.12.23.21.33.09.09.2.16.32.21.12.05.25.07.39.07.28,0,.48-.07.63-.2.14-.13.25-.29.31-.48l.57.2ZM164.89,90.12c0-.24-.09-.45-.25-.61s-.38-.25-.68-.25c-.14,0-.27.02-.38.07-.11.05-.2.11-.28.2-.08.08-.14.17-.18.28-.05.1-.07.21-.08.32h1.84Z"/>
    <path d="M167.95,92.15h-.66l-1.37-3.37h.74l.96,2.6.97-2.6h.71l-1.35,3.37Z"/>
    <path d="M172.86,91.19c-.05.15-.12.29-.21.42-.09.13-.2.24-.33.34-.13.1-.27.17-.44.23-.16.06-.34.08-.54.08-.22,0-.44-.04-.64-.12-.21-.08-.39-.2-.54-.35s-.28-.34-.37-.57c-.09-.22-.14-.48-.14-.76,0-.27.04-.51.13-.72.09-.22.21-.4.35-.56.15-.16.32-.28.52-.36.2-.09.4-.13.61-.13.26,0,.49.04.69.13.2.09.37.21.51.36.14.15.24.34.31.56s.11.46.11.72c0,.04,0,.08,0,.12,0,.04,0,.07-.01.09h-2.53c0,.15.03.29.08.41s.12.23.21.33c.09.09.2.16.32.21s.26.07.4.07c.27,0,.48-.07.63-.2.14-.13.25-.29.31-.48l.57.2ZM172.19,90.12c0-.24-.09-.45-.24-.61s-.38-.25-.68-.25c-.14,0-.27.02-.38.07-.11.05-.2.11-.28.2-.08.08-.14.17-.19.28-.05.1-.07.21-.08.32h1.84Z"/>
    <path d="M174.38,92.15h-.66v-3.37h.64v.48c.12-.21.28-.36.46-.45.19-.09.38-.13.57-.13s.38.03.53.1c.15.07.28.16.38.28.1.12.17.26.22.42.05.16.07.34.07.53v2.13h-.66v-2.02c0-.12-.01-.23-.04-.33-.03-.1-.07-.19-.13-.27-.06-.08-.14-.14-.24-.18s-.22-.07-.37-.07c-.13,0-.25.02-.34.07s-.18.12-.24.2c-.07.08-.12.18-.15.29-.03.11-.05.23-.05.36v1.95Z"/>
    <path d="M178.54,88.78h.73v.59h-.73v1.75c0,.15.04.27.11.35s.19.12.36.12c.04,0,.09,0,.14,0s.09-.01.12-.02v.56s-.08.02-.16.04c-.08.02-.17.02-.29.02-.29,0-.52-.08-.69-.25-.17-.17-.25-.4-.25-.71v-1.85h-.64v-.59h.18c.18,0,.31-.05.39-.15.08-.1.12-.22.12-.37v-.55h.6v1.06Z"/>
  </g>
  <g>
    <path d="M165.55,134.67c-.05.15-.12.29-.21.42-.09.13-.2.24-.33.34s-.27.17-.44.23-.34.08-.54.08c-.22,0-.44-.04-.64-.12s-.38-.2-.54-.35c-.16-.15-.28-.34-.37-.57-.09-.22-.14-.48-.14-.76,0-.27.04-.51.13-.72.09-.22.21-.4.35-.56s.32-.28.51-.36c.2-.09.4-.13.61-.13.26,0,.49.04.69.13s.37.21.51.36.24.34.31.56.11.46.11.72c0,.04,0,.08,0,.12s0,.07,0,.09h-2.54c0,.15.03.29.08.41.05.13.12.23.21.33.09.09.2.16.32.21.12.05.25.07.39.07.28,0,.48-.07.63-.2.14-.13.25-.29.31-.48l.57.2ZM164.89,133.6c0-.24-.09-.45-.25-.61s-.38-.25-.68-.25c-.14,0-.27.02-.38.07s-.2.12-.28.2c-.08.08-.14.17-.18.28-.05.1-.07.21-.08.32h1.84Z"/>
    <path d="M167.95,135.63h-.66l-1.37-3.37h.74l.96,2.6.97-2.6h.71l-1.35,3.37Z"/>
    <path d="M172.86,134.67c-.05.15-.12.29-.21.42s-.2.24-.33.34c-.13.1-.27.17-.44.23-.16.06-.34.08-.54.08-.22,0-.44-.04-.64-.12s-.39-.2-.54-.35c-.16-.15-.28-.34-.37-.57-.09-.22-.14-.48-.14-.76,0-.27.04-.51.13-.72.09-.22.21-.4.35-.56.15-.16.32-.28.52-.36.2-.09.4-.13.61-.13.26,0,.49.04.69.13.2.09.37.21.51.36.14.15.24.34.31.56s.11.46.11.72c0,.04,0,.08,0,.12,0,.04,0,.07-.01.09h-2.53c0,.15.03.29.08.41.05.13.12.23.21.33.09.09.2.16.32.21.12.05.26.07.4.07.27,0,.48-.07.63-.2.14-.13.25-.29.31-.48l.57.2ZM172.19,133.6c0-.24-.09-.45-.24-.61s-.38-.25-.68-.25c-.14,0-.27.02-.38.07s-.2.12-.28.2-.14.17-.19.28c-.05.1-.07.21-.08.32h1.84Z"/>
    <path d="M174.38,135.63h-.66v-3.37h.64v.48c.12-.21.28-.36.46-.45.19-.09.38-.13.57-.13s.38.03.53.1c.15.07.28.16.38.28.1.12.17.26.22.42.05.16.07.34.07.53v2.13h-.66v-2.02c0-.12-.01-.23-.04-.33-.03-.1-.07-.19-.13-.27-.06-.08-.14-.14-.24-.18-.1-.04-.22-.07-.37-.07-.13,0-.25.03-.34.07s-.18.12-.24.2c-.07.08-.12.18-.15.29-.03.11-.05.23-.05.36v1.95Z"/>
    <path d="M178.54,132.26h.73v.59h-.73v1.75c0,.15.04.27.11.35.07.08.19.12.36.12.04,0,.09,0,.14,0s.09-.01.12-.02v.56s-.08.02-.16.04c-.08.02-.17.03-.29.03-.29,0-.52-.08-.69-.25s-.25-.4-.25-.71v-1.85h-.64v-.59h.18c.18,0,.31-.05.39-.15.08-.1.12-.22.12-.37v-.55h.6v1.06Z"/>
  </g>
  <g>
    <path d="M165.55,178.15c-.05.15-.12.29-.21.42-.09.13-.2.24-.33.34s-.27.17-.44.23c-.16.06-.34.08-.54.08-.22,0-.44-.04-.64-.12s-.38-.2-.54-.35c-.16-.15-.28-.34-.37-.57-.09-.22-.14-.48-.14-.76,0-.27.04-.51.13-.72.09-.22.21-.4.35-.56s.32-.28.51-.36c.2-.09.4-.13.61-.13.26,0,.49.04.69.13.2.09.37.21.51.36.13.15.24.34.31.56.07.22.11.46.11.72,0,.04,0,.08,0,.12s0,.07,0,.09h-2.54c0,.15.03.29.08.41.05.13.12.23.21.33.09.09.2.16.32.21.12.05.25.07.39.07.28,0,.48-.07.63-.2.14-.13.25-.29.31-.48l.57.2ZM164.89,177.08c0-.24-.09-.45-.25-.61-.15-.17-.38-.25-.68-.25-.14,0-.27.02-.38.07s-.2.11-.28.2c-.08.08-.14.17-.18.28-.05.1-.07.21-.08.32h1.84Z"/>
    <path d="M167.95,179.11h-.66l-1.37-3.37h.74l.96,2.6.97-2.6h.71l-1.35,3.37Z"/>
    <path d="M172.86,178.15c-.05.15-.12.29-.21.42-.09.13-.2.24-.33.34-.13.1-.27.17-.44.23-.16.06-.34.08-.54.08-.22,0-.44-.04-.64-.12s-.39-.2-.54-.35c-.16-.15-.28-.34-.37-.57s-.14-.48-.14-.76c0-.27.04-.51.13-.72.09-.22.21-.4.35-.56.15-.16.32-.28.52-.36.2-.09.4-.13.61-.13.26,0,.49.04.69.13.2.09.37.21.51.36.14.15.24.34.31.56.07.22.11.46.11.72,0,.04,0,.08,0,.12,0,.04,0,.07-.01.09h-2.53c0,.15.03.29.08.41s.12.23.21.33c.09.09.2.16.32.21.12.05.26.07.4.07.27,0,.48-.07.63-.2s.25-.29.31-.48l.57.2ZM172.19,177.08c0-.24-.09-.45-.24-.61-.15-.17-.38-.25-.68-.25-.14,0-.27.02-.38.07s-.2.11-.28.2c-.08.08-.14.17-.19.28s-.07.21-.08.32h1.84Z"/>
    <path d="M174.38,179.11h-.66v-3.37h.64v.48c.12-.21.28-.36.46-.45.19-.09.38-.13.57-.13s.38.03.53.1c.15.07.28.16.38.28.1.12.17.26.22.42.05.16.07.34.07.53v2.13h-.66v-2.02c0-.12-.01-.23-.04-.33-.03-.1-.07-.19-.13-.27-.06-.08-.14-.14-.24-.18-.1-.04-.22-.07-.37-.07-.13,0-.25.02-.34.07-.1.05-.18.12-.24.2-.07.08-.12.18-.15.29-.03.11-.05.23-.05.36v1.95Z"/>
    <path d="M178.54,175.74h.73v.6h-.73v1.75c0,.15.04.27.11.35.07.08.19.12.36.12.04,0,.09,0,.14,0,.05,0,.09-.01.12-.02v.56s-.08.02-.16.04c-.08.02-.17.02-.29.02-.29,0-.52-.08-.69-.25-.17-.17-.25-.4-.25-.71v-1.85h-.64v-.6h.18c.18,0,.31-.05.39-.15s.12-.22.12-.37v-.55h.6v1.06Z"/>
  </g>
  <g>
    <path d="M165.55,199.89c-.05.15-.12.29-.21.42-.09.13-.2.24-.33.34s-.27.17-.44.23c-.16.06-.34.08-.54.08-.22,0-.44-.04-.64-.12s-.38-.2-.54-.35c-.16-.15-.28-.34-.37-.57-.09-.22-.14-.48-.14-.76,0-.27.04-.51.13-.72.09-.22.21-.4.35-.56s.32-.28.51-.36c.2-.09.4-.13.61-.13.26,0,.49.04.69.13.2.09.37.21.51.36.13.15.24.34.31.56.07.22.11.46.11.72,0,.04,0,.08,0,.12s0,.07,0,.09h-2.54c0,.15.03.29.08.41.05.13.12.23.21.33.09.09.2.16.32.21.12.05.25.07.39.07.28,0,.48-.07.63-.2.14-.13.25-.29.31-.48l.57.2ZM164.89,198.82c0-.24-.09-.45-.25-.61-.15-.17-.38-.25-.68-.25-.14,0-.27.02-.38.07s-.2.11-.28.2c-.08.08-.14.17-.18.28-.05.1-.07.21-.08.32h1.84Z"/>
    <path d="M167.95,200.85h-.66l-1.37-3.37h.74l.96,2.6.97-2.6h.71l-1.35,3.37Z"/>
    <path d="M172.86,199.89c-.05.15-.12.29-.21.42-.09.13-.2.24-.33.34-.13.1-.27.17-.44.23-.16.06-.34.08-.54.08-.22,0-.44-.04-.64-.12s-.39-.2-.54-.35c-.16-.15-.28-.34-.37-.57s-.14-.48-.14-.76c0-.27.04-.51.13-.72.09-.22.21-.4.35-.56.15-.16.32-.28.52-.36.2-.09.4-.13.61-.13.26,0,.49.04.69.13.2.09.37.21.51.36.14.15.24.34.31.56.07.22.11.46.11.72,0,.04,0,.08,0,.12,0,.04,0,.07-.01.09h-2.53c0,.15.03.29.08.41s.12.23.21.33c.09.09.2.16.32.21.12.05.26.07.4.07.27,0,.48-.07.63-.2s.25-.29.31-.48l.57.2ZM172.19,198.82c0-.24-.09-.45-.24-.61-.15-.17-.38-.25-.68-.25-.14,0-.27.02-.38.07s-.2.11-.28.2c-.08.08-.14.17-.19.28s-.07.21-.08.32h1.84Z"/>
    <path d="M174.38,200.85h-.66v-3.37h.64v.48c.12-.21.28-.36.46-.45.19-.09.38-.13.57-.13s.38.03.53.1c.15.07.28.16.38.28.1.12.17.26.22.42.05.16.07.34.07.53v2.13h-.66v-2.02c0-.12-.01-.23-.04-.33-.03-.1-.07-.19-.13-.27-.06-.08-.14-.14-.24-.18-.1-.04-.22-.07-.37-.07-.13,0-.25.02-.34.07-.1.05-.18.12-.24.2-.07.08-.12.18-.15.29-.03.11-.05.23-.05.36v1.95Z"/>
    <path d="M178.54,197.48h.73v.6h-.73v1.75c0,.15.04.27.11.35.07.08.19.12.36.12.04,0,.09,0,.14,0,.05,0,.09-.01.12-.02v.56s-.08.02-.16.04c-.08.02-.17.02-.29.02-.29,0-.52-.08-.69-.25-.17-.17-.25-.4-.25-.71v-1.85h-.64v-.6h.18c.18,0,.31-.05.39-.15s.12-.22.12-.37v-.55h.6v1.06Z"/>
  </g>
  <g>
    <path d="M165.55,221.63c-.05.15-.12.29-.21.42-.09.13-.2.24-.33.34s-.27.17-.44.23c-.16.06-.34.08-.54.08-.22,0-.44-.04-.64-.12s-.38-.2-.54-.35c-.16-.15-.28-.34-.37-.57-.09-.22-.14-.48-.14-.76,0-.27.04-.51.13-.72.09-.22.21-.4.35-.56s.32-.28.51-.36c.2-.09.4-.13.61-.13.26,0,.49.04.69.13.2.09.37.21.51.36.13.15.24.34.31.56.07.22.11.46.11.72,0,.04,0,.08,0,.12s0,.07,0,.09h-2.54c0,.15.03.29.08.41.05.13.12.23.21.33.09.09.2.16.32.21.12.05.25.07.39.07.28,0,.48-.07.63-.2.14-.13.25-.29.31-.48l.57.2ZM164.89,220.56c0-.24-.09-.45-.25-.61-.15-.17-.38-.25-.68-.25-.14,0-.27.02-.38.07s-.2.11-.28.2c-.08.08-.14.17-.18.28-.05.1-.07.21-.08.32h1.84Z"/>
    <path d="M167.95,222.58h-.66l-1.37-3.37h.74l.96,2.6.97-2.6h.71l-1.35,3.37Z"/>
    <path d="M172.86,221.63c-.05.15-.12.29-.21.42-.09.13-.2.24-.33.34-.13.1-.27.17-.44.23-.16.06-.34.08-.54.08-.22,0-.44-.04-.64-.12s-.39-.2-.54-.35c-.16-.15-.28-.34-.37-.57s-.14-.48-.14-.76c0-.27.04-.51.13-.72.09-.22.21-.4.35-.56.15-.16.32-.28.52-.36.2-.09.4-.13.61-.13.26,0,.49.04.69.13.2.09.37.21.51.36.14.15.24.34.31.56.07.22.11.46.11.72,0,.04,0,.08,0,.12,0,.04,0,.07-.01.09h-2.53c0,.15.03.29.08.41s.12.23.21.33c.09.09.2.16.32.21.12.05.26.07.4.07.27,0,.48-.07.63-.2s.25-.29.31-.48l.57.2ZM172.19,220.56c0-.24-.09-.45-.24-.61-.15-.17-.38-.25-.68-.25-.14,0-.27.02-.38.07s-.2.11-.28.2c-.08.08-.14.17-.19.28s-.07.21-.08.32h1.84Z"/>
    <path d="M174.38,222.58h-.66v-3.37h.64v.48c.12-.21.28-.36.46-.45.19-.09.38-.13.57-.13s.38.03.53.1c.15.07.28.16.38.28.1.12.17.26.22.42.05.16.07.34.07.53v2.13h-.66v-2.02c0-.12-.01-.23-.04-.33-.03-.1-.07-.19-.13-.27-.06-.08-.14-.14-.24-.18-.1-.04-.22-.07-.37-.07-.13,0-.25.02-.34.07-.1.05-.18.12-.24.2-.07.08-.12.18-.15.29-.03.11-.05.23-.05.36v1.95Z"/>
    <path d="M178.54,219.22h.73v.6h-.73v1.75c0,.15.04.27.11.35.07.08.19.12.36.12.04,0,.09,0,.14,0,.05,0,.09-.01.12-.02v.56s-.08.02-.16.04c-.08.02-.17.02-.29.02-.29,0-.52-.08-.69-.25-.17-.17-.25-.4-.25-.71v-1.85h-.64v-.6h.18c.18,0,.31-.05.39-.15s.12-.22.12-.37v-.55h.6v1.06Z"/>
  </g>
  <g>
    <path d="M165.55,243.37c-.05.15-.12.29-.21.42-.09.13-.2.24-.33.34s-.27.17-.44.23c-.16.06-.34.08-.54.08-.22,0-.44-.04-.64-.12s-.38-.2-.54-.35c-.16-.15-.28-.34-.37-.57-.09-.22-.14-.48-.14-.76,0-.27.04-.51.13-.72.09-.22.21-.4.35-.56s.32-.28.51-.36c.2-.09.4-.13.61-.13.26,0,.49.04.69.13.2.09.37.21.51.36.13.15.24.34.31.56.07.22.11.46.11.72,0,.04,0,.08,0,.12s0,.07,0,.09h-2.54c0,.15.03.29.08.41.05.13.12.23.21.33.09.09.2.16.32.21.12.05.25.07.39.07.28,0,.48-.07.63-.2.14-.13.25-.29.31-.48l.57.2ZM164.89,242.29c0-.24-.09-.45-.25-.61-.15-.17-.38-.25-.68-.25-.14,0-.27.02-.38.07s-.2.11-.28.2c-.08.08-.14.17-.18.28-.05.1-.07.21-.08.32h1.84Z"/>
    <path d="M167.95,244.32h-.66l-1.37-3.37h.74l.96,2.6.97-2.6h.71l-1.35,3.37Z"/>
    <path d="M172.86,243.37c-.05.15-.12.29-.21.42-.09.13-.2.24-.33.34-.13.1-.27.17-.44.23-.16.06-.34.08-.54.08-.22,0-.44-.04-.64-.12s-.39-.2-.54-.35c-.16-.15-.28-.34-.37-.57s-.14-.48-.14-.76c0-.27.04-.51.13-.72.09-.22.21-.4.35-.56.15-.16.32-.28.52-.36.2-.09.4-.13.61-.13.26,0,.49.04.69.13.2.09.37.21.51.36.14.15.24.34.31.56.07.22.11.46.11.72,0,.04,0,.08,0,.12,0,.04,0,.07-.01.09h-2.53c0,.15.03.29.08.41s.12.23.21.33c.09.09.2.16.32.21.12.05.26.07.4.07.27,0,.48-.07.63-.2s.25-.29.31-.48l.57.2ZM172.19,242.29c0-.24-.09-.45-.24-.61-.15-.17-.38-.25-.68-.25-.14,0-.27.02-.38.07s-.2.11-.28.2c-.08.08-.14.17-.19.28s-.07.21-.08.32h1.84Z"/>
    <path d="M174.38,244.32h-.66v-3.37h.64v.48c.12-.21.28-.36.46-.45.19-.09.38-.13.57-.13s.38.03.53.1c.15.07.28.16.38.28.1.12.17.26.22.42.05.16.07.34.07.53v2.13h-.66v-2.02c0-.12-.01-.23-.04-.33-.03-.1-.07-.19-.13-.27-.06-.08-.14-.14-.24-.18-.1-.04-.22-.07-.37-.07-.13,0-.25.02-.34.07-.1.05-.18.12-.24.2-.07.08-.12.18-.15.29-.03.11-.05.23-.05.36v1.95Z"/>
    <path d="M178.54,240.96h.73v.6h-.73v1.75c0,.15.04.27.11.35.07.08.19.12.36.12.04,0,.09,0,.14,0,.05,0,.09-.01.12-.02v.56s-.08.02-.16.04c-.08.02-.17.02-.29.02-.29,0-.52-.08-.69-.25-.17-.17-.25-.4-.25-.71v-1.85h-.64v-.6h.18c.18,0,.31-.05.39-.15s.12-.22.12-.37v-.55h.6v1.06Z"/>
  </g>
  <g>
    <path d="M165.55,286.84c-.05.15-.12.29-.21.42-.09.13-.2.24-.33.34s-.27.17-.44.23c-.16.06-.34.08-.54.08-.22,0-.44-.04-.64-.12s-.38-.2-.54-.35c-.16-.15-.28-.34-.37-.57-.09-.22-.14-.48-.14-.76,0-.27.04-.51.13-.72.09-.22.21-.4.35-.56s.32-.28.51-.36c.2-.09.4-.13.61-.13.26,0,.49.04.69.13.2.09.37.21.51.36.13.15.24.34.31.56.07.22.11.46.11.72,0,.04,0,.08,0,.12s0,.07,0,.09h-2.54c0,.15.03.29.08.41.05.13.12.23.21.33.09.09.2.16.32.21.12.05.25.07.39.07.28,0,.48-.07.63-.2.14-.13.25-.29.31-.48l.57.2ZM164.89,285.77c0-.24-.09-.45-.25-.61-.15-.17-.38-.25-.68-.25-.14,0-.27.02-.38.07s-.2.11-.28.2c-.08.08-.14.17-.18.28-.05.1-.07.21-.08.32h1.84Z"/>
    <path d="M167.95,287.8h-.66l-1.37-3.37h.74l.96,2.6.97-2.6h.71l-1.35,3.37Z"/>
    <path d="M172.86,286.84c-.05.15-.12.29-.21.42-.09.13-.2.24-.33.34-.13.1-.27.17-.44.23-.16.06-.34.08-.54.08-.22,0-.44-.04-.64-.12s-.39-.2-.54-.35c-.16-.15-.28-.34-.37-.57s-.14-.48-.14-.76c0-.27.04-.51.13-.72.09-.22.21-.4.35-.56.15-.16.32-.28.52-.36.2-.09.4-.13.61-.13.26,0,.49.04.69.13.2.09.37.21.51.36.14.15.24.34.31.56.07.22.11.46.11.72,0,.04,0,.08,0,.12,0,.04,0,.07-.01.09h-2.53c0,.15.03.29.08.41s.12.23.21.33c.09.09.2.16.32.21.12.05.26.07.4.07.27,0,.48-.07.63-.2s.25-.29.31-.48l.57.2ZM172.19,285.77c0-.24-.09-.45-.24-.61-.15-.17-.38-.25-.68-.25-.14,0-.27.02-.38.07s-.2.11-.28.2c-.08.08-.14.17-.19.28s-.07.21-.08.32h1.84Z"/>
    <path d="M174.38,287.8h-.66v-3.37h.64v.48c.12-.21.28-.36.46-.45.19-.09.38-.13.57-.13s.38.03.53.1c.15.07.28.16.38.28.1.12.17.26.22.42.05.16.07.34.07.53v2.13h-.66v-2.02c0-.12-.01-.23-.04-.33-.03-.1-.07-.19-.13-.27-.06-.08-.14-.14-.24-.18-.1-.04-.22-.07-.37-.07-.13,0-.25.02-.34.07-.1.05-.18.12-.24.2-.07.08-.12.18-.15.29-.03.11-.05.23-.05.36v1.95Z"/>
    <path d="M178.54,284.44h.73v.6h-.73v1.75c0,.15.04.27.11.35.07.08.19.12.36.12.04,0,.09,0,.14,0,.05,0,.09-.01.12-.02v.56s-.08.02-.16.04c-.08.02-.17.02-.29.02-.29,0-.52-.08-.69-.25-.17-.17-.25-.4-.25-.71v-1.85h-.64v-.6h.18c.18,0,.31-.05.39-.15s.12-.22.12-.37v-.55h.6v1.06Z"/>
  </g>
  <g>
    <line class="cls-2" x1="50.95" y1="97.15" x2="294.72" y2="97.15"/>
    <polygon points="51.77 99.95 46.91 97.15 51.77 94.35 51.77 99.95"/>
  </g>
  <g>
    <line class="cls-2" x1="46.91" y1="118.89" x2="290.69" y2="118.89"/>
    <polygon points="289.87 121.69 294.72 118.89 289.87 116.08 289.87 121.69"/>
  </g>
  <g>
    <line class="cls-2" x1="50.95" y1="140.63" x2="294.72" y2="140.63"/>
    <polygon points="51.77 143.43 46.91 140.63 51.77 137.82 51.77 143.43"/>
  </g>
  <g>
    <line class="cls-2" x1="46.91" y1="162.37" x2="290.69" y2="162.37"/>
    <polygon points="289.87 165.17 294.72 162.37 289.87 159.56 289.87 165.17"/>
  </g>
  <g>
    <line class="cls-2" x1="50.95" y1="184.11" x2="294.72" y2="184.11"/>
    <polygon points="51.77 186.91 46.91 184.11 51.77 181.3 51.77 186.91"/>
  </g>
  <g>
    <line class="cls-2" x1="50.95" y1="205.85" x2="294.72" y2="205.85"/>
    <polygon points="51.77 208.65 46.91 205.85 51.77 203.04 51.77 208.65"/>
  </g>
  <g>
    <line class="cls-2" x1="50.95" y1="227.59" x2="294.72" y2="227.59"/>
    <polygon points="51.77 230.39 46.91 227.59 51.77 224.78 51.77 230.39"/>
  </g>
  <g>
    <line class="cls-2" x1="50.95" y1="249.32" x2="294.72" y2="249.32"/>
    <polygon points="51.77 252.13 46.91 249.32 51.77 246.52 51.77 252.13"/>
  </g>
  <g>
    <line class="cls-2" x1="46.91" y1="271.06" x2="290.69" y2="271.06"/>
    <polygon points="289.87 273.87 294.72 271.06 289.87 268.26 289.87 273.87"/>
  </g>
  <g>
    <line class="cls-2" x1="50.95" y1="292.8" x2="294.72" y2="292.8"/>
    <polygon points="51.77 295.61 46.91 292.8 51.77 290 51.77 295.61"/>
  </g>
  <g>
    <line class="cls-2" x1="46.91" y1="75.41" x2="290.69" y2="75.41"/>
    <polygon points="289.87 78.22 294.72 75.41 289.87 72.61 289.87 78.22"/>
  </g>
  <line class="cls-1" x1="46.91" y1="332.8" x2="46.91" y2="44.41"/>
  <line class="cls-1" x1="295.09" y1="44.41" x2="295.09" y2="332.8"/>
  <g>
    <rect class="cls-3" x="17.23" y="16.7" width="59.36" height="28.71"/>
    <g>
      <path d="M41.81,34.18v-3.09h-3.55v3.09h-.96v-6.95h.96v2.97h3.55v-2.97h.96v6.95h-.96Z"/>
      <path d="M46.51,29.32c.35,0,.68.06.97.19.29.13.55.3.76.52.21.22.38.49.5.79.12.3.18.64.18,1s-.06.69-.18,1c-.12.31-.29.57-.5.79-.21.22-.47.4-.76.52-.29.13-.62.19-.97.19s-.68-.06-.97-.19c-.29-.13-.55-.3-.77-.52-.21-.22-.38-.49-.5-.79-.12-.31-.18-.64-.18-1s.06-.69.18-1c.12-.3.29-.57.5-.79.22-.22.47-.4.77-.52.29-.13.62-.19.97-.19ZM46.51,33.5c.2,0,.38-.04.56-.11.18-.07.33-.18.47-.32.14-.14.24-.32.32-.53s.12-.45.12-.73-.04-.51-.12-.72c-.08-.21-.19-.38-.32-.52-.14-.14-.29-.25-.47-.32-.18-.07-.36-.11-.56-.11s-.38.04-.56.11c-.18.07-.33.18-.47.32-.14.14-.25.32-.32.52-.08.21-.12.45-.12.72s.04.52.12.73.19.39.32.53c.14.14.29.25.47.32.18.07.36.11.56.11Z"/>
      <path d="M50.54,32.66c.03.25.14.46.32.63.18.17.44.25.77.25.26,0,.46-.06.6-.19.14-.12.21-.27.21-.44,0-.15-.05-.28-.16-.38-.1-.1-.25-.18-.45-.23l-.8-.18c-.37-.08-.66-.24-.87-.47-.21-.24-.31-.52-.31-.85,0-.2.04-.39.13-.57.09-.18.21-.34.36-.48.15-.14.33-.25.53-.32.21-.08.42-.12.65-.12.32,0,.59.04.81.14s.4.2.53.34c.14.13.24.27.31.42.07.14.12.27.14.37l-.81.3c-.01-.06-.04-.13-.07-.23-.03-.09-.09-.18-.16-.26-.07-.08-.17-.15-.29-.21-.12-.06-.28-.09-.46-.09-.24,0-.43.06-.57.19-.14.13-.22.27-.22.44,0,.3.18.49.54.57l.77.17c.43.09.76.26.97.5s.33.54.33.9c0,.17-.04.34-.11.51s-.18.33-.32.47-.32.26-.53.35c-.22.09-.47.13-.77.13-.33,0-.61-.05-.84-.14-.23-.09-.43-.21-.58-.34-.15-.14-.27-.29-.35-.45s-.13-.31-.15-.45l.83-.29Z"/>
      <path d="M55.95,29.46h1.02v.83h-1.02v2.45c0,.22.05.38.15.49.1.11.27.16.51.16.06,0,.12,0,.2,0,.07,0,.13-.02.17-.03v.78s-.11.03-.22.05c-.11.02-.25.03-.4.03-.41,0-.73-.12-.96-.35-.23-.23-.35-.56-.35-1v-2.59h-.9v-.83h.25c.26,0,.44-.07.55-.21.11-.14.17-.31.17-.52v-.76h.84v1.49Z"/>
    </g>
  </g>
  <g>
    <rect class="cls-3" x="265.41" y="16.7" width="59.36" height="28.71"/>
    <g>
      <path d="M276.39,34.32c-.45,0-.88-.08-1.3-.24-.41-.16-.78-.39-1.1-.7-.32-.31-.57-.69-.76-1.14-.19-.45-.29-.97-.29-1.55s.1-1.1.29-1.54c.2-.45.46-.83.78-1.13.32-.31.69-.54,1.11-.7.42-.16.84-.24,1.27-.24.4,0,.77.05,1.1.16.33.1.63.25.89.44s.48.42.66.7.31.58.41.91l-.89.31c-.13-.53-.38-.93-.75-1.22s-.84-.42-1.42-.42c-.31,0-.62.06-.92.17s-.56.29-.79.51c-.23.23-.42.51-.55.86-.14.34-.21.74-.21,1.19s.07.85.21,1.19c.14.34.32.63.55.86.23.23.5.41.79.52s.6.17.92.17c.29,0,.56-.04.8-.13s.46-.2.64-.35c.19-.15.34-.32.47-.53.13-.21.23-.43.3-.66l.85.31c-.09.33-.23.63-.41.9-.18.27-.4.51-.66.71-.26.2-.56.35-.89.46-.34.11-.71.17-1.1.17Z"/>
      <path d="M282.78,29.32c.35,0,.68.06.97.19.29.13.55.3.76.52.22.22.38.49.5.79.12.3.18.64.18,1s-.06.69-.18,1c-.12.31-.28.57-.5.79-.21.22-.47.4-.76.52-.29.13-.62.19-.97.19s-.68-.06-.97-.19c-.29-.13-.55-.3-.76-.52-.22-.22-.38-.49-.5-.79-.12-.31-.18-.64-.18-1s.06-.69.18-1c.12-.3.28-.57.5-.79.21-.22.47-.4.76-.52.29-.13.62-.19.97-.19ZM282.78,33.5c.2,0,.38-.04.56-.11.18-.07.33-.18.47-.32s.25-.32.32-.53.12-.45.12-.73-.04-.51-.12-.72c-.08-.21-.19-.38-.32-.52-.14-.14-.29-.25-.47-.32-.18-.07-.36-.11-.56-.11s-.38.04-.56.11c-.18.07-.33.18-.47.32-.14.14-.24.32-.32.52-.08.21-.12.45-.12.72s.04.52.12.73c.08.21.19.39.32.53s.29.25.47.32c.18.07.36.11.56.11Z"/>
      <path d="M287.29,34.18h-.92v-4.71h.9v.68c.17-.29.38-.5.65-.63.26-.12.53-.19.8-.19s.53.05.74.14c.21.09.39.23.53.39.14.17.24.36.31.59s.1.47.1.74v2.99h-.92v-2.83c0-.16-.02-.32-.05-.46-.04-.14-.1-.27-.19-.38-.09-.11-.2-.19-.34-.25-.14-.06-.31-.09-.52-.09-.18,0-.34.03-.48.1s-.25.16-.34.28c-.09.12-.16.25-.21.41-.04.16-.07.32-.07.5v2.72Z"/>
      <path d="M293.12,29.46h1.02v.83h-1.02v2.45c0,.22.05.38.15.49.1.11.27.16.51.16.06,0,.12,0,.2,0,.07,0,.13-.02.17-.03v.78s-.11.03-.22.05c-.11.02-.25.03-.4.03-.41,0-.73-.12-.96-.35-.23-.23-.35-.56-.35-1v-2.59h-.9v-.83h.25c.26,0,.44-.07.55-.21.11-.14.17-.31.17-.52v-.76h.84v1.49Z"/>
      <path d="M297.91,30.39c-.14-.02-.27-.03-.4-.03-.39,0-.7.11-.94.34s-.36.6-.36,1.11v2.36h-.92v-4.71h.9v.82c.08-.18.18-.33.3-.45s.23-.21.36-.27c.12-.07.25-.12.38-.14s.25-.04.37-.04c.06,0,.12,0,.18,0,.05,0,.1.01.12.02v.98Z"/>
      <path d="M300.96,29.32c.35,0,.68.06.97.19.29.13.55.3.76.52.21.22.38.49.5.79.12.3.18.64.18,1s-.06.69-.18,1c-.12.31-.29.57-.5.79-.21.22-.47.4-.76.52-.29.13-.62.19-.97.19s-.68-.06-.97-.19c-.29-.13-.55-.3-.77-.52-.21-.22-.38-.49-.5-.79-.12-.31-.18-.64-.18-1s.06-.69.18-1c.12-.3.29-.57.5-.79.22-.22.47-.4.77-.52.29-.13.62-.19.97-.19ZM300.96,33.5c.2,0,.38-.04.56-.11.18-.07.33-.18.47-.32.14-.14.24-.32.32-.53s.12-.45.12-.73-.04-.51-.12-.72c-.08-.21-.19-.38-.32-.52-.14-.14-.29-.25-.47-.32-.18-.07-.36-.11-.56-.11s-.38.04-.56.11c-.18.07-.33.18-.47.32-.14.14-.25.32-.32.52-.08.21-.12.45-.12.72s.04.52.12.73.19.39.32.53c.14.14.29.25.47.32.18.07.36.11.56.11Z"/>
      <path d="M304.56,34.18v-7.1h.92v7.1h-.92Z"/>
      <path d="M306.99,34.18v-7.1h.92v7.1h-.92Z"/>
      <path d="M313.62,32.83c-.07.21-.16.4-.29.58-.13.18-.28.34-.46.47s-.38.24-.61.32c-.23.08-.48.12-.75.12-.31,0-.62-.06-.9-.17s-.54-.27-.76-.49-.39-.48-.52-.79-.19-.67-.19-1.07c0-.37.06-.71.19-1.01.12-.3.29-.57.5-.78.21-.22.45-.39.72-.51.27-.12.56-.18.85-.18.36,0,.68.06.97.18.28.12.52.29.71.5.19.22.33.48.44.78s.15.64.15,1c0,.06,0,.11,0,.17,0,.05,0,.09-.01.13h-3.55c0,.21.04.4.12.58.07.18.17.33.3.46.13.13.28.23.45.29.17.07.36.1.55.1.38,0,.68-.09.88-.27.2-.18.35-.41.44-.68l.79.27ZM312.69,31.33c-.01-.34-.13-.62-.34-.86-.21-.23-.53-.35-.95-.35-.2,0-.37.03-.52.1-.15.07-.29.16-.39.27s-.19.24-.26.39c-.06.14-.1.29-.11.44h2.58Z"/>
      <path d="M317.48,30.39c-.14-.02-.27-.03-.4-.03-.38,0-.7.11-.94.34s-.36.6-.36,1.11v2.36h-.92v-4.71h.9v.82c.09-.18.19-.33.3-.45.11-.11.23-.21.36-.27.12-.07.25-.12.38-.14.13-.03.26-.04.37-.04.07,0,.13,0,.18,0s.1.01.12.02v.98Z"/>
    </g>
  </g>
  <line class="cls-2" x1="33.79" y1="332.8" x2="60.3" y2="332.8"/>
  <line class="cls-2" x1="281.83" y1="332.8" x2="308.35" y2="332.8"/>
</svg>