<?xml version="1.0" encoding="UTF-8"?>
<svg id="Layer_1" data-name="Layer 1" xmlns="http://www.w3.org/2000/svg" viewBox="0 0 3782.43 724.66">
  <defs>
    <style>
      .cls-1 {
        fill: #c00000;
      }

      .cls-2 {
        stroke-width: 3px;
      }

      .cls-2, .cls-3 {
        fill: none;
      }

      .cls-2, .cls-4 {
        stroke: #000;
      }

      .cls-3 {
        stroke: #c00000;
        stroke-width: 5px;
      }

      .cls-4 {
        stroke-width: .75px;
      }

      .cls-5 {
        opacity: .8;
      }

      .cls-6 {
        fill: #d2d0cd;
        stroke: #333;
      }

      .cls-7 {
        fill: #0082fc;
      }
    </style>
  </defs>
  <line class="cls-4" x1="907.3" y1="202.13" x2="2851.35" y2="202.13"/>
  <line class="cls-4" x1="907.3" y1="202.13" x2="2851.35" y2="202.13"/>
  <line class="cls-4" x1="907.3" y1="524.12" x2="2851.35" y2="524.12"/>
  <line class="cls-4" x1="907.3" y1="524.12" x2="2851.35" y2="524.12"/>
  <g class="cls-5">
    <path class="cls-2" d="M1291.96,202.71c-11.23,53.37-27.16,149.71-46.23,149.68-30.6-.04-56.41-299.39-90.37-299.39s-57.46,299.01-91.77,299.2c-32.82.19-58.93-298.78-91.37-298.78-17.71,0-37.11,100.22-45.48,148.04"/>
    <path class="cls-2" d="M1657.18,202.71c-11.23,53.37-27.16,149.71-46.23,149.68-30.6-.04-56.41-299.39-90.37-299.39s-57.46,299.01-91.77,299.2c-32.82.19-58.93-298.78-91.37-298.78-17.71,0-37.11,100.22-45.48,148.04"/>
  </g>
  <g class="cls-5">
    <path class="cls-2" d="M2022.4,202.71c-11.23,53.37-27.16,149.71-46.23,149.68-30.6-.04-56.41-299.39-90.37-299.39s-57.46,299.01-91.77,299.2c-32.82.19-58.93-298.78-91.37-298.78-17.71,0-37.11,100.22-45.48,148.04"/>
    <path class="cls-2" d="M2387.61,202.71c-11.23,53.37-27.16,149.71-46.23,149.68-30.6-.04-56.41-299.39-90.37-299.39s-57.46,299.01-91.77,299.2c-32.82.19-58.93-298.78-91.37-298.78-17.71,0-37.11,100.22-45.48,148.04"/>
  </g>
  <g class="cls-5">
    <path class="cls-2" d="M2752.83,202.71c-11.23,53.37-27.16,149.71-46.23,149.68-30.6-.04-56.41-299.39-90.37-299.39s-57.46,299.01-91.77,299.2c-32.82.19-58.93-298.78-91.37-298.78-17.71,0-37.11,100.22-45.48,148.04"/>
    <path class="cls-2" d="M2843.86,202.88c-14.69-74.72-29.33-149.46-45.55-149.46-17.71,0-37.11,100.22-45.48,148.04"/>
  </g>
  <g class="cls-5">
    <path class="cls-2" d="M1286.93,524.32c-11.23,53.37-27.16,149.71-46.23,149.68-30.6-.04-56.41-299.39-90.37-299.39-34.74,0-57.46,299.01-91.77,299.2-32.82.19-58.93-298.78-91.37-298.78-17.71,0-37.11,100.22-45.48,148.04"/>
    <path class="cls-2" d="M1652.15,524.32c-11.23,53.37-27.16,149.71-46.23,149.68-30.6-.04-56.41-299.39-90.37-299.39-34.74,0-57.46,299.01-91.77,299.2-32.82.19-58.93-298.78-91.37-298.78-17.71,0-37.11,100.22-45.48,148.04"/>
  </g>
  <g class="cls-5">
    <path class="cls-2" d="M2017.37,524.32c-11.23,53.37-27.16,149.71-46.23,149.68-30.6-.04-56.41-299.39-90.37-299.39-34.74,0-57.46,299.01-91.77,299.2-32.82.19-58.93-298.78-91.37-298.78-17.71,0-37.11,100.22-45.48,148.04"/>
    <path class="cls-2" d="M2382.58,524.32c-11.23,53.37-27.16,149.71-46.23,149.68-30.6-.04-56.41-299.39-90.37-299.39s-57.46,299.01-91.77,299.2c-32.82.19-58.93-298.78-91.37-298.78-17.71,0-37.11,100.22-45.48,148.04"/>
  </g>
  <g class="cls-5">
    <path class="cls-2" d="M2747.8,524.32c-11.23,53.37-27.16,149.71-46.23,149.68-30.6-.04-56.41-299.39-90.37-299.39-34.74,0-57.46,299.01-91.77,299.2-32.82.19-58.93-298.78-91.37-298.78-17.71,0-37.11,100.22-45.48,148.04"/>
    <path class="cls-2" d="M2838.83,524.49c-14.69-74.72-29.33-149.46-45.55-149.46-17.71,0-37.11,100.22-45.48,148.04"/>
  </g>
  <rect class="cls-6" x="2837.23" y="17.7" width="896.2" height="687.99" rx="4.01" ry="4.01"/>
  <rect class="cls-6" x="30.55" y="17.7" width="896.2" height="687.99" rx="4.01" ry="4.01"/>
  <g>
    <path class="cls-7" d="M284.84,397.82v-82.28h11.61v82.28h-11.61Z"/>
    <path class="cls-7" d="M327.08,397.82h-10.91v-55.82h10.68v8.01c2.01-3.48,4.56-5.96,7.66-7.43,3.09-1.47,6.27-2.21,9.52-2.21s6.25.56,8.76,1.68c2.51,1.12,4.6,2.67,6.27,4.64,1.66,1.97,2.9,4.31,3.71,7.02.81,2.71,1.22,5.61,1.22,8.7v35.4h-10.91v-33.54c0-1.93-.21-3.75-.64-5.45-.43-1.7-1.16-3.19-2.21-4.47-1.04-1.28-2.4-2.28-4.06-3.02-1.66-.73-3.7-1.1-6.09-1.1-2.17,0-4.06.41-5.69,1.22-1.62.81-2.98,1.92-4.06,3.31-1.08,1.39-1.9,3.02-2.44,4.87-.54,1.86-.81,3.83-.81,5.92v32.26Z"/>
    <path class="cls-7" d="M378.96,320.88c0-2.24.75-4.12,2.26-5.63,1.51-1.51,3.35-2.26,5.51-2.26s4.12.75,5.63,2.26c1.51,1.51,2.26,3.39,2.26,5.63s-.75,4-2.26,5.51c-1.51,1.51-3.39,2.26-5.63,2.26s-4-.75-5.51-2.26-2.26-3.35-2.26-5.51ZM381.39,397.82v-55.82h10.79v55.82h-10.79Z"/>
    <path class="cls-7" d="M425.38,342h12.07v9.86h-12.07v29.01c0,2.55.58,4.47,1.74,5.75,1.16,1.28,3.17,1.91,6.03,1.91.7,0,1.47-.04,2.32-.12.85-.08,1.51-.19,1.97-.35v9.28c-.46.16-1.35.37-2.67.64-1.32.27-2.9.41-4.76.41-4.8,0-8.59-1.37-11.37-4.12-2.79-2.75-4.18-6.67-4.18-11.78v-30.64h-10.68v-9.86h3.02c3.02,0,5.2-.81,6.56-2.44,1.35-1.62,2.03-3.67,2.03-6.15v-9.05h9.98v17.64Z"/>
    <path class="cls-7" d="M449.52,320.88c0-2.24.75-4.12,2.26-5.63,1.51-1.51,3.35-2.26,5.51-2.26s4.12.75,5.63,2.26c1.51,1.51,2.26,3.39,2.26,5.63s-.75,4-2.26,5.51c-1.51,1.51-3.39,2.26-5.63,2.26s-4-.75-5.51-2.26-2.26-3.35-2.26-5.51ZM451.95,397.82v-55.82h10.79v55.82h-10.79Z"/>
    <path class="cls-7" d="M477.83,382.85c0-2.48.42-4.7,1.28-6.67.85-1.97,2.03-3.66,3.54-5.05s3.31-2.51,5.4-3.37c2.09-.85,4.33-1.47,6.73-1.86l15.09-2.21c1.7-.23,2.84-.73,3.42-1.51.58-.77.87-1.66.87-2.67,0-2.71-.95-5.05-2.84-7.02-1.9-1.97-4.97-2.96-9.23-2.96-3.87,0-6.85,1.06-8.94,3.19-2.09,2.13-3.33,4.82-3.71,8.07l-10.44-2.44c.31-2.63,1.1-5.07,2.38-7.31,1.28-2.24,2.92-4.16,4.93-5.74,2.01-1.58,4.35-2.82,7.02-3.71,2.67-.89,5.51-1.33,8.53-1.33,4.18,0,7.74.56,10.68,1.68,2.94,1.12,5.34,2.61,7.2,4.47s3.21,4.02,4.06,6.5c.85,2.48,1.28,5.07,1.28,7.78v27.97c0,2.48.08,4.45.23,5.92.15,1.47.31,2.55.46,3.25h-10.68c-.16-.7-.29-1.62-.41-2.79-.12-1.16-.17-2.75-.17-4.76-.62,1.01-1.43,2.05-2.44,3.13-1.01,1.08-2.25,2.09-3.71,3.02-1.47.93-3.19,1.68-5.16,2.26-1.97.58-4.2.87-6.67.87-2.86,0-5.44-.46-7.72-1.39-2.28-.93-4.24-2.15-5.86-3.66-1.62-1.51-2.88-3.27-3.77-5.28-.89-2.01-1.33-4.14-1.33-6.38ZM498.03,390.39c2.24,0,4.35-.29,6.32-.87,1.97-.58,3.67-1.51,5.11-2.79,1.43-1.28,2.57-2.98,3.42-5.11.85-2.13,1.28-4.7,1.28-7.72v-2.55l-17.06,2.55c-2.32.39-4.26,1.26-5.8,2.61-1.55,1.35-2.32,3.27-2.32,5.75,0,2.09.81,3.97,2.44,5.63,1.62,1.66,3.83,2.5,6.62,2.5Z"/>
    <path class="cls-7" d="M556.63,342h12.07v9.86h-12.07v29.01c0,2.55.58,4.47,1.74,5.75,1.16,1.28,3.17,1.91,6.03,1.91.7,0,1.47-.04,2.32-.12.85-.08,1.51-.19,1.97-.35v9.28c-.46.16-1.35.37-2.67.64-1.32.27-2.9.41-4.76.41-4.8,0-8.59-1.37-11.37-4.12-2.79-2.75-4.18-6.67-4.18-11.78v-30.64h-10.68v-9.86h3.02c3.02,0,5.2-.81,6.56-2.44,1.35-1.62,2.03-3.67,2.03-6.15v-9.05h9.98v17.64Z"/>
    <path class="cls-7" d="M607.12,340.26c4.18,0,8.01.75,11.49,2.26,3.48,1.51,6.5,3.58,9.05,6.21,2.55,2.63,4.53,5.74,5.92,9.34s2.09,7.53,2.09,11.78-.7,8.2-2.09,11.84c-1.39,3.64-3.37,6.77-5.92,9.4-2.55,2.63-5.57,4.7-9.05,6.21-3.48,1.51-7.31,2.26-11.49,2.26s-8.01-.75-11.49-2.26c-3.48-1.51-6.5-3.58-9.05-6.21-2.55-2.63-4.53-5.76-5.92-9.4-1.39-3.64-2.09-7.58-2.09-11.84s.7-8.18,2.09-11.78c1.39-3.6,3.37-6.71,5.92-9.34,2.55-2.63,5.57-4.7,9.05-6.21,3.48-1.51,7.31-2.26,11.49-2.26ZM607.12,389.81c2.32,0,4.53-.42,6.62-1.28,2.09-.85,3.95-2.13,5.57-3.83,1.62-1.7,2.9-3.79,3.83-6.27.93-2.48,1.39-5.34,1.39-8.59s-.46-6.09-1.39-8.53-2.21-4.51-3.83-6.21c-1.62-1.7-3.48-2.98-5.57-3.83-2.09-.85-4.29-1.28-6.62-1.28s-4.53.43-6.62,1.28c-2.09.85-3.95,2.13-5.57,3.83-1.62,1.7-2.9,3.77-3.83,6.21-.93,2.44-1.39,5.28-1.39,8.53s.46,6.11,1.39,8.59c.93,2.48,2.21,4.57,3.83,6.27,1.62,1.7,3.48,2.98,5.57,3.83,2.09.85,4.29,1.28,6.62,1.28Z"/>
    <path class="cls-7" d="M680.58,353.02c-1.62-.23-3.21-.35-4.76-.35-4.57,0-8.26,1.33-11.08,4-2.83,2.67-4.24,7.06-4.24,13.17v27.97h-10.91v-55.82h10.68v9.75c1-2.17,2.19-3.93,3.54-5.28,1.35-1.35,2.77-2.44,4.24-3.25,1.47-.81,2.98-1.37,4.53-1.68,1.55-.31,3.02-.46,4.41-.46.77,0,1.49.04,2.15.12.66.08,1.14.16,1.45.23v11.61Z"/>
  </g>
  <g>
    <path d="M3081.13,364.17h-12.3v33.66h-11.49v-82.28h30.99c3.87,0,7.37.64,10.5,1.92,3.13,1.28,5.78,3.02,7.95,5.22,2.16,2.21,3.83,4.8,4.99,7.78,1.16,2.98,1.74,6.17,1.74,9.57,0,5.96-1.76,11.04-5.28,15.26-3.52,4.22-8.41,6.91-14.68,8.07l19.61,34.47h-13.23l-18.8-33.66ZM3086.24,353.95c4.64,0,8.39-1.26,11.26-3.77,2.86-2.51,4.29-5.9,4.29-10.15s-1.43-7.89-4.29-10.45c-2.86-2.55-6.62-3.83-11.26-3.83h-17.41v28.2h17.41Z"/>
    <path d="M3174.32,381.92c-.78,2.48-1.92,4.78-3.42,6.91-1.51,2.13-3.33,3.99-5.46,5.57-2.13,1.59-4.55,2.84-7.25,3.77-2.71.93-5.69,1.39-8.94,1.39-3.71,0-7.27-.66-10.68-1.97-3.41-1.31-6.4-3.25-8.99-5.8-2.59-2.55-4.64-5.69-6.15-9.4-1.51-3.71-2.26-7.93-2.26-12.65,0-4.41.73-8.41,2.21-12.01,1.47-3.6,3.42-6.69,5.86-9.28,2.44-2.59,5.28-4.6,8.53-6.03,3.25-1.43,6.62-2.15,10.1-2.15,4.25,0,8.06.72,11.43,2.15,3.37,1.43,6.17,3.42,8.41,5.98,2.24,2.55,3.96,5.63,5.16,9.23,1.2,3.6,1.8,7.56,1.8,11.9,0,.7-.02,1.35-.06,1.97-.04.62-.1,1.12-.17,1.51h-42.01c.08,2.48.54,4.76,1.39,6.85.85,2.09,2.03,3.89,3.54,5.4,1.51,1.51,3.29,2.67,5.34,3.48s4.24,1.22,6.56,1.22c4.56,0,8.04-1.08,10.45-3.25,2.4-2.17,4.14-4.83,5.22-8.01l9.4,3.25ZM3163.3,364.17c-.16-4.02-1.51-7.41-4.06-10.15-2.55-2.75-6.31-4.12-11.26-4.12-2.32,0-4.39.41-6.21,1.22-1.82.81-3.37,1.9-4.64,3.25-1.28,1.35-2.3,2.88-3.07,4.58-.78,1.7-1.2,3.44-1.28,5.22h30.52Z"/>
    <path d="M3212.04,323.66c-.93,0-1.91.14-2.96.41-1.04.27-2.01.75-2.9,1.45-.89.7-1.61,1.67-2.15,2.9-.54,1.24-.81,2.83-.81,4.76v8.82h25.77v-28.2h10.91v84.02h-10.91v-45.96h-25.77v45.96h-11.26v-45.96h-10.33v-9.86h10.33v-9.4c0-3.09.48-5.84,1.45-8.24.97-2.4,2.28-4.41,3.95-6.04,1.66-1.62,3.6-2.84,5.8-3.66s4.58-1.22,7.14-1.22c1.86,0,3.35.16,4.47.46,1.12.31,1.8.54,2.03.7v9.75c-.31-.15-.83-.31-1.57-.46-.74-.15-1.8-.23-3.19-.23Z"/>
    <path d="M3307.09,381.92c-.77,2.48-1.91,4.78-3.42,6.91-1.51,2.13-3.33,3.99-5.46,5.57-2.13,1.59-4.54,2.84-7.25,3.77-2.71.93-5.69,1.39-8.94,1.39-3.71,0-7.27-.66-10.68-1.97-3.41-1.31-6.4-3.25-9-5.8s-4.64-5.69-6.15-9.4c-1.51-3.71-2.26-7.93-2.26-12.65,0-4.41.74-8.41,2.21-12.01,1.47-3.6,3.42-6.69,5.86-9.28,2.44-2.59,5.28-4.6,8.53-6.03,3.25-1.43,6.62-2.15,10.1-2.15,4.25,0,8.07.72,11.43,2.15,3.37,1.43,6.17,3.42,8.41,5.98s3.96,5.63,5.16,9.23,1.8,7.56,1.8,11.9c0,.7-.02,1.35-.06,1.97-.04.62-.1,1.12-.18,1.51h-42.01c.08,2.48.54,4.76,1.39,6.85.85,2.09,2.03,3.89,3.54,5.4,1.51,1.51,3.29,2.67,5.34,3.48,2.05.81,4.24,1.22,6.56,1.22,4.56,0,8.05-1.08,10.45-3.25,2.4-2.17,4.14-4.83,5.22-8.01l9.4,3.25ZM3296.06,364.17c-.16-4.02-1.51-7.41-4.06-10.15-2.55-2.75-6.31-4.12-11.26-4.12-2.32,0-4.39.41-6.21,1.22-1.82.81-3.37,1.9-4.64,3.25-1.28,1.35-2.3,2.88-3.08,4.58-.77,1.7-1.2,3.44-1.28,5.22h30.52Z"/>
    <path d="M3344.8,350.36c-2.24,0-4.37.41-6.38,1.22s-3.81,2.03-5.4,3.66c-1.59,1.62-2.84,3.66-3.77,6.09s-1.39,5.28-1.39,8.53.46,5.98,1.39,8.41c.93,2.44,2.17,4.49,3.71,6.15,1.55,1.66,3.37,2.92,5.46,3.77,2.09.85,4.25,1.28,6.5,1.28,2.63,0,4.85-.39,6.67-1.16,1.82-.77,3.33-1.74,4.53-2.9,1.2-1.16,2.15-2.42,2.84-3.77.7-1.35,1.2-2.57,1.51-3.66l9.63,4.18c-.7,2.01-1.7,4.04-3.02,6.09-1.32,2.05-3.02,3.93-5.11,5.63-2.09,1.7-4.55,3.08-7.37,4.12-2.82,1.04-6.05,1.57-9.69,1.57-4.1,0-7.88-.75-11.32-2.26-3.44-1.51-6.4-3.6-8.88-6.27-2.48-2.67-4.43-5.8-5.86-9.4-1.43-3.6-2.15-7.52-2.15-11.78s.71-8.32,2.15-11.95c1.43-3.64,3.4-6.75,5.92-9.34,2.51-2.59,5.49-4.62,8.94-6.09,3.44-1.47,7.14-2.21,11.08-2.21,3.71,0,6.98.52,9.81,1.57s5.26,2.42,7.31,4.12c2.05,1.7,3.69,3.62,4.93,5.75,1.24,2.13,2.17,4.24,2.79,6.32l-9.86,4.18c-.39-1.39-.93-2.79-1.62-4.18-.7-1.39-1.64-2.65-2.84-3.77-1.2-1.12-2.65-2.05-4.35-2.79-1.7-.73-3.75-1.1-6.15-1.1Z"/>
    <path d="M3397.49,342h12.07v9.86h-12.07v29.01c0,2.55.58,4.47,1.74,5.75,1.16,1.28,3.17,1.91,6.04,1.91.7,0,1.47-.04,2.32-.12.85-.08,1.51-.19,1.97-.35v9.28c-.46.16-1.36.37-2.67.64-1.32.27-2.9.41-4.76.41-4.8,0-8.59-1.37-11.38-4.12-2.79-2.75-4.18-6.67-4.18-11.78v-30.64h-10.68v-9.86h3.02c3.02,0,5.2-.81,6.56-2.44,1.35-1.62,2.03-3.67,2.03-6.15v-9.05h9.98v17.64Z"/>
    <path d="M3447.98,340.26c4.18,0,8.01.75,11.49,2.26s6.5,3.58,9.05,6.21c2.55,2.63,4.53,5.74,5.92,9.34s2.09,7.53,2.09,11.78-.7,8.2-2.09,11.84c-1.39,3.64-3.37,6.77-5.92,9.4-2.55,2.63-5.57,4.7-9.05,6.21-3.48,1.51-7.31,2.26-11.49,2.26s-8.01-.75-11.49-2.26c-3.48-1.51-6.5-3.58-9.05-6.21-2.55-2.63-4.53-5.76-5.92-9.4-1.39-3.64-2.09-7.58-2.09-11.84s.7-8.18,2.09-11.78,3.37-6.71,5.92-9.34c2.55-2.63,5.57-4.7,9.05-6.21,3.48-1.51,7.31-2.26,11.49-2.26ZM3447.98,389.81c2.32,0,4.53-.42,6.62-1.28,2.09-.85,3.95-2.13,5.57-3.83,1.62-1.7,2.9-3.79,3.83-6.27.93-2.48,1.39-5.34,1.39-8.59s-.46-6.09-1.39-8.53c-.93-2.44-2.2-4.51-3.83-6.21-1.62-1.7-3.48-2.98-5.57-3.83-2.09-.85-4.29-1.28-6.62-1.28s-4.53.43-6.61,1.28c-2.09.85-3.95,2.13-5.57,3.83-1.62,1.7-2.9,3.77-3.83,6.21-.93,2.44-1.39,5.28-1.39,8.53s.46,6.11,1.39,8.59c.93,2.48,2.21,4.57,3.83,6.27,1.62,1.7,3.48,2.98,5.57,3.83,2.09.85,4.29,1.28,6.61,1.28Z"/>
    <path d="M3521.44,353.02c-1.62-.23-3.21-.35-4.76-.35-4.57,0-8.26,1.33-11.08,4s-4.24,7.06-4.24,13.17v27.97h-10.91v-55.82h10.68v9.75c1-2.17,2.18-3.93,3.54-5.28,1.35-1.35,2.77-2.44,4.24-3.25,1.47-.81,2.98-1.37,4.53-1.68,1.55-.31,3.02-.46,4.41-.46.77,0,1.49.04,2.15.12.66.08,1.14.16,1.45.23v11.61Z"/>
  </g>
  <g>
    <line class="cls-3" x1="966.99" y1="166.69" x2="1417.7" y2="166.69"/>
    <polygon class="cls-1" points="1412.23 185.39 1444.61 166.69 1412.23 147.99 1412.23 185.39"/>
  </g>
  <g>
    <line class="cls-3" x1="2789.86" y1="559.47" x2="2339.15" y2="559.47"/>
    <polygon class="cls-1" points="2344.63 540.77 2312.24 559.47 2344.63 578.17 2344.63 540.77"/>
  </g>
</svg>