<?xml version="1.0" encoding="UTF-8"?>
<svg id="Layer_1" data-name="Layer 1" xmlns="http://www.w3.org/2000/svg" viewBox="0 0 684 176.79">
  <defs>
    <style>
      .cls-1 {
        fill: #eee;
      }

      .cls-1, .cls-2, .cls-3 {
        stroke-miterlimit: 10;
      }

      .cls-1, .cls-3 {
        stroke: #646569;
      }

      .cls-2 {
        stroke: #000;
        stroke-width: .75px;
      }

      .cls-2, .cls-3 {
        fill: none;
      }

      .cls-4 {
        fill: #bbb;
      }

      .cls-3 {
        stroke-width: 1.5px;
      }
    </style>
  </defs>
  <rect class="cls-1" x="108.86" y="87.26" width="273.6" height="41.57"/>
  <rect class="cls-4" x="382.46" y="87.26" width="280.51" height="41.57" transform="translate(1045.44 216.08) rotate(180)"/>
  <g>
    <rect class="cls-3" x="21.02" y="87.26" width="485.38" height="41.57"/>
    <rect class="cls-3" x="506.41" y="87.26" width="156.57" height="41.57" transform="translate(1169.38 216.08) rotate(180)"/>
    <rect class="cls-3" x="506.41" y="87.26" width="64.8" height="41.57" transform="translate(1077.61 216.08) rotate(180)"/>
    <g>
      <line class="cls-3" x1="108.86" y1="87.26" x2="108.86" y2="128.83"/>
      <line class="cls-3" x1="382.46" y1="87.26" x2="382.46" y2="128.83"/>
    </g>
    <g>
      <line class="cls-3" x1="259.03" y1="87.26" x2="259.03" y2="128.83"/>
      <line class="cls-3" x1="108.86" y1="87.26" x2="108.86" y2="128.83"/>
      <line class="cls-3" x1="301.61" y1="87.26" x2="301.61" y2="128.83"/>
    </g>
    <g>
      <path d="M33.27,111.56v4.58h-1.55v-11.2h4.07c.52,0,.99.08,1.41.25.43.17.79.4,1.09.7.3.3.53.65.7,1.05.17.4.25.84.25,1.31s-.08.91-.25,1.32c-.17.41-.4.75-.7,1.04-.3.29-.66.52-1.09.69-.43.17-.9.25-1.41.25h-2.53ZM35.52,110.17c.67,0,1.2-.17,1.59-.51s.58-.8.58-1.38-.19-1.07-.58-1.42c-.38-.35-.91-.52-1.59-.52h-2.24v3.84h2.24Z"/>
      <path d="M45.21,110.04c-.22-.03-.44-.05-.65-.05-.62,0-1.12.18-1.51.54-.38.36-.58.96-.58,1.79v3.81h-1.48v-7.6h1.45v1.33c.14-.29.3-.53.48-.72.18-.18.38-.33.58-.44.2-.11.4-.19.62-.23s.41-.06.6-.06c.1,0,.2,0,.29.02.09.01.16.02.2.03v1.58Z"/>
      <path d="M53.41,113.98c-.11.34-.26.65-.47.94-.21.29-.45.54-.74.76-.29.22-.62.39-.99.51s-.77.19-1.22.19c-.51,0-.99-.09-1.45-.27-.46-.18-.87-.44-1.22-.79-.35-.35-.63-.77-.84-1.28s-.31-1.08-.31-1.72c0-.6.1-1.15.3-1.63.2-.49.47-.91.8-1.26.33-.35.72-.63,1.16-.82.44-.19.9-.29,1.37-.29.58,0,1.1.1,1.56.29.46.19.84.47,1.14.81.3.35.54.77.7,1.26.16.49.24,1.03.24,1.62,0,.1,0,.18,0,.27,0,.08-.01.15-.02.21h-5.72c0,.34.07.65.19.93.12.28.28.53.48.73.21.21.45.36.73.47.28.11.58.17.89.17.62,0,1.1-.15,1.42-.44s.56-.66.71-1.09l1.28.44ZM51.91,111.56c-.02-.55-.21-1.01-.55-1.38-.35-.37-.86-.56-1.53-.56-.31,0-.6.06-.84.17-.25.11-.46.26-.63.44-.17.18-.31.39-.42.62s-.16.47-.17.71h4.15Z"/>
      <path d="M54.88,114.1c0-.34.06-.64.17-.91s.28-.5.48-.69.45-.34.73-.46c.28-.12.59-.2.92-.25l2.05-.3c.23-.03.39-.1.47-.21.08-.11.12-.23.12-.36,0-.37-.13-.69-.39-.96s-.68-.4-1.26-.4c-.53,0-.93.15-1.21.43-.29.29-.45.66-.51,1.1l-1.42-.33c.04-.36.15-.69.32-1,.17-.31.4-.57.67-.78.28-.22.59-.38.96-.51s.75-.18,1.16-.18c.57,0,1.05.08,1.45.23.4.15.73.36.98.61.25.25.44.55.55.88.12.34.17.69.17,1.06v3.81c0,.34.01.61.03.81.02.2.04.35.06.44h-1.45c-.02-.09-.04-.22-.05-.38-.02-.16-.03-.37-.03-.65-.08.14-.19.28-.33.43s-.31.28-.51.41c-.2.13-.44.23-.7.31-.27.08-.57.12-.91.12-.39,0-.74-.06-1.05-.19s-.58-.29-.8-.5c-.22-.21-.39-.44-.51-.72-.12-.27-.18-.56-.18-.87ZM57.63,115.13c.3,0,.59-.04.86-.12.27-.08.5-.21.7-.38.19-.17.35-.41.46-.69.12-.29.17-.64.17-1.05v-.35l-2.32.35c-.31.05-.58.17-.79.35-.21.18-.32.45-.32.78,0,.28.11.54.33.77.22.23.52.34.9.34Z"/>
      <path d="M63.61,116.14v-7.6h1.42v1.01c.24-.42.58-.73,1-.93.43-.2.86-.3,1.3-.3.47,0,.92.12,1.33.35.42.23.73.6.94,1.09.3-.55.68-.92,1.14-1.13.45-.21.92-.31,1.41-.31.33,0,.65.06.96.17.32.12.6.29.85.53s.45.54.59.9c.15.36.22.79.22,1.29v4.93h-1.47v-4.77c0-.49-.13-.91-.39-1.24s-.67-.5-1.22-.5c-.53,0-.95.18-1.27.54-.32.36-.48.82-.48,1.37v4.6h-1.48v-4.77c0-.49-.13-.91-.38-1.24-.25-.33-.66-.5-1.23-.5-.54,0-.97.18-1.29.54-.32.36-.48.82-.48,1.39v4.58h-1.47Z"/>
      <path d="M77.15,116.14v-11.44h1.47v4.91c.18-.34.48-.64.92-.9s.96-.4,1.6-.4c.58,0,1.08.1,1.52.31.43.21.79.49,1.09.85s.52.79.66,1.27c.15.48.22,1,.22,1.55s-.08,1.1-.24,1.59c-.16.49-.39.92-.69,1.28s-.67.65-1.11.86c-.44.21-.94.32-1.51.32s-1.06-.12-1.48-.35-.75-.55-.99-.96v1.11h-1.47ZM83.1,112.3c0-.82-.2-1.47-.6-1.95-.4-.48-.95-.72-1.64-.72-.33,0-.63.06-.91.19-.28.13-.52.3-.72.53-.2.23-.36.51-.47.84-.11.33-.17.7-.17,1.11s.05.78.17,1.12c.11.34.27.62.47.86.2.24.44.42.72.54.28.13.58.19.91.19.68,0,1.23-.25,1.63-.74.4-.49.61-1.15.61-1.97Z"/>
      <path d="M86.52,116.14v-11.44h1.48v11.44h-1.48Z"/>
      <path d="M97.14,113.98c-.11.34-.26.65-.47.94-.21.29-.45.54-.74.76-.29.22-.62.39-.99.51s-.77.19-1.22.19c-.51,0-.99-.09-1.45-.27-.46-.18-.87-.44-1.22-.79-.35-.35-.63-.77-.84-1.28s-.31-1.08-.31-1.72c0-.6.1-1.15.3-1.63.2-.49.47-.91.8-1.26.33-.35.72-.63,1.16-.82.44-.19.9-.29,1.37-.29.58,0,1.1.1,1.56.29.46.19.84.47,1.14.81.3.35.54.77.7,1.26.16.49.24,1.03.24,1.62,0,.1,0,.18,0,.27,0,.08-.01.15-.02.21h-5.72c0,.34.07.65.19.93.12.28.28.53.48.73.21.21.45.36.73.47.28.11.58.17.89.17.62,0,1.1-.15,1.42-.44s.56-.66.71-1.09l1.28.44ZM95.64,111.56c-.02-.55-.21-1.01-.55-1.38-.35-.37-.86-.56-1.53-.56-.31,0-.6.06-.84.17-.25.11-.46.26-.63.44-.17.18-.31.39-.42.62s-.16.47-.17.71h4.15Z"/>
    </g>
    <g>
      <path d="M134.09,113.01h-4.96l-1.18,3.13h-1.66l4.45-11.2h1.78l4.45,11.2h-1.67l-1.22-3.13ZM129.68,111.57h3.85l-1.94-5.02-1.91,5.02Z"/>
      <path d="M141.59,109.68c-.31,0-.59.06-.87.17-.27.11-.52.28-.73.5s-.39.5-.51.83c-.13.33-.19.72-.19,1.16s.06.81.19,1.15c.13.33.29.61.5.84.21.23.46.4.74.51.28.12.58.17.88.17.36,0,.66-.05.91-.16.25-.11.45-.24.62-.4.16-.16.29-.33.39-.51s.16-.35.21-.5l1.31.57c-.09.27-.23.55-.41.83-.18.28-.41.53-.69.77-.29.23-.62.42-1,.56-.38.14-.82.21-1.32.21-.56,0-1.07-.1-1.54-.31-.47-.21-.87-.49-1.21-.85s-.6-.79-.8-1.28c-.2-.49-.29-1.02-.29-1.6s.1-1.13.29-1.63.46-.92.81-1.27c.34-.35.75-.63,1.22-.83s.97-.3,1.51-.3c.5,0,.95.07,1.33.21.38.14.72.33.99.56.28.23.5.49.67.78.17.29.29.58.38.86l-1.34.57c-.05-.19-.13-.38-.22-.57s-.22-.36-.39-.51c-.16-.15-.36-.28-.59-.38s-.51-.15-.84-.15Z"/>
      <path d="M149.96,109.68c-.31,0-.59.06-.87.17-.27.11-.52.28-.73.5s-.39.5-.51.83c-.13.33-.19.72-.19,1.16s.06.81.19,1.15c.13.33.29.61.5.84.21.23.46.4.74.51.28.12.58.17.88.17.36,0,.66-.05.91-.16.25-.11.45-.24.62-.4.16-.16.29-.33.39-.51s.16-.35.21-.5l1.31.57c-.09.27-.23.55-.41.83-.18.28-.41.53-.69.77-.29.23-.62.42-1,.56-.38.14-.82.21-1.32.21-.56,0-1.07-.1-1.54-.31-.47-.21-.87-.49-1.21-.85s-.6-.79-.8-1.28c-.2-.49-.29-1.02-.29-1.6s.1-1.13.29-1.63.46-.92.81-1.27c.34-.35.75-.63,1.22-.83s.97-.3,1.51-.3c.5,0,.95.07,1.33.21.38.14.72.33.99.56.28.23.5.49.67.78.17.29.29.58.38.86l-1.34.57c-.05-.19-.13-.38-.22-.57s-.22-.36-.39-.51c-.16-.15-.36-.28-.59-.38s-.51-.15-.84-.15Z"/>
      <path d="M161.76,113.98c-.1.34-.26.65-.47.94-.21.29-.45.54-.74.76-.29.22-.62.39-.99.51-.37.13-.77.19-1.22.19-.51,0-.99-.09-1.45-.27-.46-.18-.87-.44-1.22-.79-.35-.35-.63-.77-.84-1.28-.21-.51-.31-1.08-.31-1.72,0-.6.1-1.15.3-1.63.2-.49.47-.91.8-1.26.33-.35.72-.63,1.16-.82s.9-.29,1.37-.29c.58,0,1.1.1,1.56.29s.84.47,1.15.81c.3.35.54.77.7,1.26s.25,1.03.25,1.62c0,.1,0,.18,0,.27,0,.08-.01.15-.02.21h-5.72c.01.34.07.65.19.93.12.28.28.53.48.73.21.21.45.36.73.47.28.11.58.17.89.17.62,0,1.09-.15,1.42-.44.33-.29.56-.66.71-1.09l1.28.44ZM160.26,111.56c-.02-.55-.21-1.01-.55-1.38-.35-.37-.86-.56-1.53-.56-.32,0-.6.06-.84.17-.25.11-.46.26-.63.44-.17.18-.31.39-.42.62s-.16.47-.17.71h4.15Z"/>
      <path d="M164.34,113.69c.05.4.23.74.52,1.01.29.27.71.41,1.25.41.42,0,.74-.1.96-.3.22-.2.33-.44.33-.71,0-.24-.08-.45-.25-.62-.17-.17-.41-.29-.73-.36l-1.3-.28c-.6-.13-1.07-.38-1.4-.76s-.5-.84-.5-1.37c0-.33.07-.63.21-.92s.33-.54.58-.77.53-.4.86-.52c.33-.13.68-.19,1.05-.19.52,0,.95.07,1.3.22.35.15.64.33.86.54s.39.44.5.67c.11.23.19.43.23.6l-1.31.49c-.02-.1-.06-.22-.11-.36s-.14-.29-.25-.42c-.12-.13-.27-.24-.47-.34s-.45-.14-.74-.14c-.38,0-.68.1-.92.31-.23.21-.35.44-.35.7,0,.48.29.79.87.92l1.23.27c.7.15,1.22.42,1.57.81.35.4.53.88.53,1.45,0,.27-.06.55-.17.82-.12.27-.29.53-.51.76-.23.23-.51.42-.86.56-.35.14-.76.21-1.23.21-.53,0-.98-.07-1.35-.22-.37-.15-.68-.33-.93-.55s-.44-.46-.57-.72c-.13-.26-.21-.5-.25-.72l1.34-.47Z"/>
      <path d="M171.48,113.69c.05.4.23.74.52,1.01.29.27.71.41,1.25.41.42,0,.74-.1.96-.3.22-.2.33-.44.33-.71,0-.24-.08-.45-.25-.62-.17-.17-.41-.29-.73-.36l-1.3-.28c-.6-.13-1.07-.38-1.4-.76s-.5-.84-.5-1.37c0-.33.07-.63.21-.92s.33-.54.58-.77.53-.4.86-.52c.33-.13.68-.19,1.05-.19.52,0,.95.07,1.3.22.35.15.64.33.86.54s.39.44.5.67c.11.23.19.43.23.6l-1.31.49c-.02-.1-.06-.22-.11-.36s-.14-.29-.25-.42c-.12-.13-.27-.24-.47-.34s-.45-.14-.74-.14c-.38,0-.68.1-.92.31-.23.21-.35.44-.35.7,0,.48.29.79.87.92l1.23.27c.7.15,1.22.42,1.57.81.35.4.53.88.53,1.45,0,.27-.06.55-.17.82-.12.27-.29.53-.51.76-.23.23-.51.42-.86.56-.35.14-.76.21-1.23.21-.53,0-.98-.07-1.35-.22-.37-.15-.68-.33-.93-.55s-.44-.46-.57-.72c-.13-.26-.21-.5-.25-.72l1.34-.47Z"/>
      <path d="M188.63,113.01h-4.96l-1.18,3.13h-1.66l4.45-11.2h1.78l4.45,11.2h-1.67l-1.22-3.13ZM184.22,111.57h3.85l-1.94-5.02-1.91,5.02Z"/>
      <path d="M198.26,114.99c-.18.37-.47.69-.86.96-.4.27-.89.4-1.49.4-.56,0-1.06-.1-1.5-.31-.44-.21-.82-.49-1.13-.85-.31-.36-.55-.79-.72-1.28-.17-.49-.25-1.02-.25-1.59,0-.54.09-1.04.26-1.52s.42-.9.73-1.26c.32-.36.69-.65,1.14-.87s.93-.32,1.47-.32c.34,0,.63.04.89.11.26.07.48.17.67.29s.35.26.47.41c.13.15.22.31.28.47v-4.91h1.47v10.03c0,.37.01.68.03.93.02.25.04.41.05.47h-1.44c-.02-.08-.04-.22-.05-.4-.02-.18-.02-.39-.02-.62v-.13ZM193.83,112.32c0,.39.05.75.15,1.08.1.33.25.62.43.86s.42.43.7.57c.27.14.59.21.95.21.34,0,.64-.07.92-.21s.51-.33.7-.58c.19-.24.33-.53.43-.87.1-.34.15-.7.15-1.09,0-.79-.19-1.43-.58-1.91-.38-.48-.92-.73-1.6-.73-.34,0-.64.07-.92.2-.28.13-.52.32-.71.55-.19.24-.34.52-.45.85-.11.33-.16.68-.16,1.07Z"/>
      <path d="M207.55,114.99c-.18.37-.47.69-.86.96-.4.27-.89.4-1.49.4-.56,0-1.06-.1-1.5-.31-.44-.21-.82-.49-1.13-.85-.31-.36-.55-.79-.72-1.28-.17-.49-.25-1.02-.25-1.59,0-.54.09-1.04.26-1.52s.42-.9.73-1.26c.32-.36.69-.65,1.14-.87s.93-.32,1.47-.32c.34,0,.63.04.89.11.26.07.48.17.67.29s.35.26.47.41c.13.15.22.31.28.47v-4.91h1.47v10.03c0,.37.01.68.03.93.02.25.04.41.05.47h-1.44c-.02-.08-.04-.22-.05-.4-.02-.18-.02-.39-.02-.62v-.13ZM203.11,112.32c0,.39.05.75.15,1.08.1.33.25.62.43.86s.42.43.7.57c.27.14.59.21.95.21.34,0,.64-.07.92-.21s.51-.33.7-.58c.19-.24.33-.53.43-.87.1-.34.15-.7.15-1.09,0-.79-.19-1.43-.58-1.91-.38-.48-.92-.73-1.6-.73-.34,0-.64.07-.92.2-.28.13-.52.32-.71.55-.19.24-.34.52-.45.85-.11.33-.16.68-.16,1.07Z"/>
      <path d="M215.73,110.04c-.22-.03-.44-.05-.65-.05-.62,0-1.12.18-1.51.54-.38.36-.58.96-.58,1.79v3.81h-1.48v-7.6h1.45v1.33c.14-.29.3-.53.48-.72s.38-.33.58-.44.41-.19.62-.23.41-.06.6-.06c.1,0,.2,0,.29.02.09.01.16.02.2.03v1.58Z"/>
      <path d="M223.93,113.98c-.1.34-.26.65-.47.94-.21.29-.45.54-.74.76-.29.22-.62.39-.99.51-.37.13-.77.19-1.22.19-.51,0-.99-.09-1.45-.27-.46-.18-.87-.44-1.22-.79-.35-.35-.63-.77-.84-1.28-.21-.51-.31-1.08-.31-1.72,0-.6.1-1.15.3-1.63.2-.49.47-.91.8-1.26.33-.35.72-.63,1.16-.82s.9-.29,1.37-.29c.58,0,1.1.1,1.56.29s.84.47,1.15.81c.3.35.54.77.7,1.26s.25,1.03.25,1.62c0,.1,0,.18,0,.27,0,.08-.01.15-.02.21h-5.72c.01.34.07.65.19.93.12.28.28.53.48.73.21.21.45.36.73.47.28.11.58.17.89.17.62,0,1.09-.15,1.42-.44.33-.29.56-.66.71-1.09l1.28.44ZM222.43,111.56c-.02-.55-.21-1.01-.55-1.38-.35-.37-.86-.56-1.53-.56-.32,0-.6.06-.84.17-.25.11-.46.26-.63.44-.17.18-.31.39-.42.62s-.16.47-.17.71h4.15Z"/>
      <path d="M226.5,113.69c.05.4.23.74.52,1.01.29.27.71.41,1.25.41.42,0,.74-.1.96-.3.22-.2.33-.44.33-.71,0-.24-.08-.45-.25-.62-.17-.17-.41-.29-.73-.36l-1.3-.28c-.6-.13-1.07-.38-1.4-.76s-.5-.84-.5-1.37c0-.33.07-.63.21-.92s.33-.54.58-.77.53-.4.86-.52c.33-.13.68-.19,1.05-.19.52,0,.95.07,1.3.22.35.15.64.33.86.54s.39.44.5.67c.11.23.19.43.23.6l-1.31.49c-.02-.1-.06-.22-.11-.36s-.14-.29-.25-.42c-.12-.13-.27-.24-.47-.34s-.45-.14-.74-.14c-.38,0-.68.1-.92.31-.23.21-.35.44-.35.7,0,.48.29.79.87.92l1.23.27c.7.15,1.22.42,1.57.81.35.4.53.88.53,1.45,0,.27-.06.55-.17.82-.12.27-.29.53-.51.76-.23.23-.51.42-.86.56-.35.14-.76.21-1.23.21-.53,0-.98-.07-1.35-.22-.37-.15-.68-.33-.93-.55s-.44-.46-.57-.72c-.13-.26-.21-.5-.25-.72l1.34-.47Z"/>
      <path d="M233.64,113.69c.05.4.23.74.52,1.01.29.27.71.41,1.25.41.42,0,.74-.1.96-.3.22-.2.33-.44.33-.71,0-.24-.08-.45-.25-.62-.17-.17-.41-.29-.73-.36l-1.3-.28c-.6-.13-1.07-.38-1.4-.76s-.5-.84-.5-1.37c0-.33.07-.63.21-.92s.33-.54.58-.77.53-.4.86-.52c.33-.13.68-.19,1.05-.19.52,0,.95.07,1.3.22.35.15.64.33.86.54s.39.44.5.67c.11.23.19.43.23.6l-1.31.49c-.02-.1-.06-.22-.11-.36s-.14-.29-.25-.42c-.12-.13-.27-.24-.47-.34s-.45-.14-.74-.14c-.38,0-.68.1-.92.31-.23.21-.35.44-.35.7,0,.48.29.79.87.92l1.23.27c.7.15,1.22.42,1.57.81.35.4.53.88.53,1.45,0,.27-.06.55-.17.82-.12.27-.29.53-.51.76-.23.23-.51.42-.86.56-.35.14-.76.21-1.23.21-.53,0-.98-.07-1.35-.22-.37-.15-.68-.33-.93-.55s-.44-.46-.57-.72c-.13-.26-.21-.5-.25-.72l1.34-.47Z"/>
    </g>
    <g>
      <path d="M278.42,116.38c-.73,0-1.42-.13-2.09-.39-.67-.26-1.26-.63-1.77-1.13-.51-.49-.92-1.11-1.23-1.83s-.47-1.56-.47-2.5.16-1.77.47-2.49c.32-.72.73-1.33,1.26-1.82.52-.49,1.12-.87,1.78-1.13.67-.26,1.35-.39,2.05-.39.64,0,1.23.08,1.77.25s1.02.41,1.44.71c.42.31.78.68,1.07,1.12.29.44.51.93.66,1.47l-1.44.51c-.21-.85-.61-1.51-1.21-1.96-.59-.45-1.36-.68-2.28-.68-.51,0-1,.09-1.48.28-.48.18-.91.46-1.28.83-.37.37-.67.83-.89,1.38-.22.55-.33,1.19-.33,1.92s.11,1.37.33,1.92c.22.55.52,1.02.89,1.39.37.37.8.65,1.28.84.48.18.97.28,1.48.28.47,0,.91-.07,1.29-.21s.73-.32,1.03-.56c.3-.24.55-.52.76-.85.21-.33.37-.69.48-1.07l1.37.51c-.15.53-.37,1.01-.66,1.45-.29.44-.65.82-1.07,1.14s-.9.56-1.44.74c-.54.18-1.13.27-1.78.27Z"/>
      <path d="M285.42,116.14v-11.2h1.58v11.2h-1.58Z"/>
    </g>
    <g>
      <path d="M323.85,106.38v9.76h-1.55v-9.76h-3.74v-1.44h9.03v1.44h-3.74Z"/>
      <path d="M329.17,116.14v-11.2h6.81v1.44h-5.26v3.44h4.77v1.45h-4.77v3.43h5.26v1.44h-6.81Z"/>
      <path d="M341.59,111.56h-1.67v4.58h-1.56v-11.2h4.22c.53,0,1,.09,1.43.26.43.17.79.41,1.08.71.29.3.52.65.68,1.06s.24.84.24,1.3c0,.81-.24,1.5-.72,2.08-.48.57-1.15.94-2,1.1l2.67,4.69h-1.8l-2.56-4.58ZM342.28,110.17c.63,0,1.14-.17,1.53-.51.39-.34.58-.8.58-1.38s-.2-1.07-.58-1.42c-.39-.35-.9-.52-1.53-.52h-2.37v3.84h2.37Z"/>
      <path d="M358.69,116.14v-8.72l-3.82,8.72h-1.42l-3.79-8.72v8.72h-1.53v-11.2h2.1l3.95,9.11,3.98-9.11h2.07v11.2h-1.53Z"/>
      <path d="M364.74,116.14v-7.77h-2.67v-1.17c.77-.02,1.41-.22,1.9-.6.5-.38.81-.87.93-1.47h1.46v11.02h-1.63Z"/>
    </g>
    <g>
      <path d="M597.45,105.38v9.76h-1.55v-9.76h-3.74v-1.44h9.03v1.44h-3.74Z"/>
      <path d="M602.77,115.14v-11.2h6.81v1.44h-5.26v3.44h4.77v1.45h-4.77v3.43h5.26v1.44h-6.81Z"/>
      <path d="M615.19,110.56h-1.67v4.58h-1.56v-11.2h4.22c.53,0,1,.09,1.43.26.43.17.79.41,1.08.71.29.3.52.65.68,1.06s.24.84.24,1.3c0,.81-.24,1.5-.72,2.08-.48.57-1.15.94-2,1.1l2.67,4.69h-1.8l-2.56-4.58ZM615.88,109.17c.63,0,1.14-.17,1.53-.51.39-.34.58-.8.58-1.38s-.2-1.07-.58-1.42c-.39-.35-.9-.52-1.53-.52h-2.37v3.84h2.37Z"/>
      <path d="M632.29,115.14v-8.72l-3.82,8.72h-1.42l-3.79-8.72v8.72h-1.53v-11.2h2.1l3.95,9.11,3.98-9.11h2.07v11.2h-1.53Z"/>
      <path d="M635.98,107.88c-.01-.08-.02-.16-.02-.23v-.21c0-.48.08-.93.25-1.36s.42-.81.74-1.14c.32-.33.72-.59,1.2-.78.48-.19,1.01-.29,1.62-.29s1.12.09,1.58.27c.46.18.86.42,1.17.73.32.31.56.67.72,1.08.17.41.25.85.25,1.3,0,.73-.19,1.37-.56,1.95s-.88,1.06-1.51,1.45l-2.18,1.39c-.32.2-.6.43-.85.67-.25.24-.41.54-.49.88h5.66v1.55h-7.72c.01-.45.07-.88.16-1.27.1-.4.25-.78.46-1.14.21-.36.48-.71.81-1.03.33-.32.72-.64,1.19-.94l1.84-1.19c.52-.33.9-.69,1.15-1.07.24-.39.37-.79.37-1.22,0-.25-.04-.49-.13-.72s-.21-.44-.38-.62-.38-.33-.65-.43c-.26-.11-.57-.16-.92-.16s-.68.06-.94.18c-.27.12-.49.28-.66.48-.18.2-.31.44-.39.71s-.13.57-.13.88c0,.08,0,.16,0,.24,0,.08.01.16.03.25l-1.67-.2Z"/>
    </g>
    <g>
      <path d="M528.38,116.38c-.73,0-1.42-.13-2.09-.39-.67-.26-1.26-.63-1.77-1.13-.51-.49-.92-1.11-1.23-1.83s-.47-1.56-.47-2.5.16-1.77.47-2.49c.32-.72.73-1.33,1.26-1.82.52-.49,1.12-.87,1.78-1.13.67-.26,1.35-.39,2.05-.39.64,0,1.23.08,1.77.25s1.02.41,1.44.71c.42.31.78.68,1.07,1.12.29.44.51.93.66,1.47l-1.44.51c-.21-.85-.61-1.51-1.21-1.96-.59-.45-1.36-.68-2.28-.68-.51,0-1,.09-1.48.28-.48.18-.91.46-1.28.83-.37.37-.67.83-.89,1.38-.22.55-.33,1.19-.33,1.92s.11,1.37.33,1.92c.22.55.52,1.02.89,1.39.37.37.8.65,1.28.84.48.18.97.28,1.48.28.47,0,.91-.07,1.29-.21s.73-.32,1.03-.56c.3-.24.55-.52.76-.85.21-.33.37-.69.48-1.07l1.37.51c-.15.53-.37,1.01-.66,1.45-.29.44-.65.82-1.07,1.14s-.9.56-1.44.74c-.54.18-1.13.27-1.78.27Z"/>
      <path d="M538.62,111.56h-1.67v4.58h-1.56v-11.2h4.22c.53,0,1,.09,1.43.26.43.17.79.41,1.08.71.29.3.52.65.68,1.06s.24.84.24,1.3c0,.81-.24,1.5-.72,2.08-.48.57-1.15.94-2,1.1l2.67,4.69h-1.8l-2.56-4.58ZM539.31,110.17c.63,0,1.14-.17,1.53-.51.39-.34.58-.8.58-1.38s-.2-1.07-.58-1.42c-.39-.35-.9-.52-1.53-.52h-2.37v3.84h2.37Z"/>
      <path d="M550.01,116.38c-.73,0-1.42-.13-2.09-.39-.67-.26-1.26-.63-1.77-1.13-.51-.49-.92-1.11-1.23-1.83s-.47-1.56-.47-2.5.16-1.77.47-2.49c.32-.72.73-1.33,1.26-1.82.52-.49,1.12-.87,1.78-1.13.67-.26,1.35-.39,2.05-.39.64,0,1.23.08,1.77.25s1.02.41,1.44.71c.42.31.78.68,1.07,1.12.29.44.51.93.66,1.47l-1.44.51c-.21-.85-.61-1.51-1.21-1.96-.59-.45-1.36-.68-2.28-.68-.51,0-1,.09-1.48.28-.48.18-.91.46-1.28.83-.37.37-.67.83-.89,1.38-.22.55-.33,1.19-.33,1.92s.11,1.37.33,1.92c.22.55.52,1.02.89,1.39.37.37.8.65,1.28.84.48.18.97.28,1.48.28.47,0,.91-.07,1.29-.21s.73-.32,1.03-.56c.3-.24.55-.52.76-.85.21-.33.37-.69.48-1.07l1.37.51c-.15.53-.37,1.01-.66,1.45-.29.44-.65.82-1.07,1.14s-.9.56-1.44.74c-.54.18-1.13.27-1.78.27Z"/>
    </g>
    <g>
      <path d="M401.37,111.56v4.58h-1.55v-11.2h4.07c.52,0,.99.08,1.41.25.43.17.79.4,1.09.7.3.3.53.65.7,1.05.17.4.25.84.25,1.31s-.08.91-.25,1.32c-.17.41-.4.75-.7,1.04-.3.29-.66.52-1.09.69-.43.17-.9.25-1.41.25h-2.53ZM403.61,110.17c.67,0,1.2-.17,1.59-.51.38-.34.58-.8.58-1.38s-.19-1.07-.58-1.42c-.38-.35-.91-.52-1.59-.52h-2.24v3.84h2.24Z"/>
      <path d="M409.25,116.14v-11.2h3.92c.71,0,1.38.12,2.03.36s1.21.6,1.7,1.07c.48.47.87,1.06,1.16,1.76.29.7.43,1.51.43,2.42s-.14,1.72-.43,2.42c-.29.7-.68,1.28-1.18,1.75-.5.47-1.07.82-1.71,1.06-.65.24-1.32.36-2.03.36h-3.88ZM413.09,114.77c.52,0,1-.09,1.47-.26.46-.17.87-.43,1.22-.78s.62-.78.82-1.31.3-1.14.3-1.85-.1-1.32-.3-1.86c-.2-.53-.47-.97-.81-1.33s-.74-.62-1.2-.8-.95-.27-1.46-.27h-2.32v8.45h2.29Z"/>
      <path d="M424.49,116.38c-.57,0-1.1-.09-1.59-.26-.49-.17-.92-.43-1.28-.77-.36-.34-.65-.77-.85-1.27-.21-.5-.31-1.09-.31-1.75v-7.38h1.53v7.33c0,.85.22,1.51.66,1.97.44.46,1.05.7,1.84.7s1.4-.23,1.83-.7c.43-.46.65-1.12.65-1.97v-7.33h1.55v7.38c0,.66-.1,1.25-.31,1.75-.21.51-.49.93-.85,1.27-.36.34-.79.6-1.28.77-.49.17-1.02.26-1.59.26Z"/>
      <path d="M430.49,115.13c0-.28.11-.53.32-.74.22-.21.49-.32.83-.32s.63.12.89.37c.26.25.39.62.39,1.13s-.08.98-.23,1.35-.34.68-.58.92-.48.43-.76.56c-.27.13-.53.21-.77.24v-.82c.19-.04.37-.12.53-.23s.3-.25.41-.4c.11-.16.2-.33.27-.51.07-.18.1-.37.1-.56-.02.02-.06.04-.13.05s-.14.02-.22.02c-.29,0-.54-.09-.75-.28-.21-.19-.31-.45-.31-.79Z"/>
      <path d="M447,116.14l-6.05-9.13v9.13h-1.55v-11.2h2.07l5.59,8.59v-8.59h1.55v11.2h-1.61Z"/>
      <path d="M455.24,116.14v-11.44h1.47v4.91c.18-.34.48-.64.92-.9.43-.26.96-.39,1.6-.39.58,0,1.08.1,1.52.31.43.21.79.49,1.09.85s.52.79.66,1.27.22,1,.22,1.55-.08,1.1-.24,1.59-.39.92-.69,1.28c-.3.36-.67.65-1.11.86-.44.21-.94.32-1.51.32s-1.06-.12-1.48-.35-.75-.55-.99-.96v1.11h-1.47ZM461.19,112.3c0-.82-.2-1.47-.6-1.95-.4-.48-.95-.72-1.64-.72-.33,0-.63.06-.91.19-.28.13-.52.3-.72.53-.2.23-.36.51-.47.84-.11.33-.17.7-.17,1.11s.05.78.17,1.12c.11.34.27.62.47.86.2.24.44.42.72.54.28.13.58.19.91.19.68,0,1.23-.25,1.63-.74.4-.49.61-1.15.61-1.97Z"/>
      <path d="M464.56,119.31l1.9-4.01-3.27-6.76h1.71l2.37,5.24,2.27-5.24h1.6l-4.94,10.77h-1.63Z"/>
      <path d="M474.54,108.54h1.64v1.34h-1.64v3.95c0,.35.08.61.24.78.16.17.43.26.82.26.09,0,.2,0,.32-.02.12-.01.21-.03.27-.05v1.26c-.06.02-.18.05-.36.09-.18.04-.4.06-.65.06-.65,0-1.17-.19-1.55-.56-.38-.37-.57-.91-.57-1.6v-4.17h-1.45v-1.34h.41c.41,0,.71-.11.89-.33.18-.22.28-.5.28-.84v-1.23h1.36v2.4Z"/>
      <path d="M484.78,113.98c-.1.34-.26.65-.47.94-.21.29-.45.54-.74.76-.29.22-.62.39-.99.51-.37.13-.77.19-1.22.19-.51,0-.99-.09-1.45-.27-.46-.18-.87-.44-1.22-.79-.35-.35-.63-.77-.84-1.28-.21-.51-.31-1.08-.31-1.72,0-.6.1-1.15.3-1.63s.47-.91.8-1.26c.33-.35.72-.63,1.16-.82.44-.19.9-.29,1.37-.29.58,0,1.1.1,1.56.29.46.2.84.47,1.15.81.3.35.54.77.7,1.26.16.49.25,1.03.25,1.62,0,.1,0,.18,0,.27,0,.08-.01.15-.02.21h-5.72c.01.34.07.65.19.93s.28.53.48.73c.21.21.45.36.73.47s.58.17.89.17c.62,0,1.09-.15,1.42-.44.33-.29.56-.66.71-1.09l1.28.44ZM483.28,111.56c-.02-.55-.21-1.01-.55-1.38-.35-.37-.86-.56-1.53-.56-.32,0-.6.06-.84.17-.25.11-.46.26-.63.44s-.31.39-.42.62-.16.47-.17.71h4.15Z"/>
      <path d="M487.35,113.69c.05.4.23.74.52,1.01.29.27.71.41,1.25.41.42,0,.74-.1.96-.3.22-.2.33-.44.33-.71,0-.24-.08-.45-.25-.62s-.41-.29-.73-.36l-1.3-.28c-.6-.13-1.07-.38-1.4-.76s-.5-.84-.5-1.37c0-.33.07-.63.21-.92.14-.29.33-.54.58-.77.24-.22.53-.4.86-.52.33-.13.68-.19,1.05-.19.52,0,.95.07,1.3.22.35.15.64.33.86.54s.39.44.5.67c.11.23.19.43.23.6l-1.31.49c-.02-.1-.06-.22-.11-.36s-.14-.29-.25-.42c-.12-.13-.27-.25-.47-.34s-.45-.14-.74-.14c-.38,0-.68.1-.92.31s-.35.44-.35.7c0,.48.29.79.87.92l1.23.27c.7.15,1.22.42,1.57.81.35.39.53.88.53,1.45,0,.27-.06.55-.17.82-.12.27-.29.53-.51.76s-.51.42-.86.56c-.35.14-.76.21-1.23.21-.53,0-.98-.07-1.35-.22s-.68-.33-.93-.55c-.25-.22-.44-.46-.57-.72-.13-.26-.21-.5-.25-.72l1.34-.47Z"/>
    </g>
  </g>
  <g>
    <line class="cls-2" x1="379.42" y1="144.25" x2="112.9" y2="144.25"/>
    <polygon points="378.6 141.45 383.46 144.25 378.6 147.06 378.6 141.45"/>
    <polygon points="113.72 141.45 108.86 144.25 113.72 147.06 113.72 141.45"/>
  </g>
  <g>
    <line class="cls-2" x1="658.94" y1="144.25" x2="387.49" y2="144.25"/>
    <polygon points="658.12 141.45 662.98 144.25 658.12 147.06 658.12 141.45"/>
    <polygon points="388.31 141.45 383.46 144.25 388.31 147.06 388.31 141.45"/>
  </g>
  <g>
    <path d="M205.95,163.31v-11.2h6.81v1.44h-5.26v3.6h4.77v1.45h-4.77v4.71h-1.55Z"/>
    <path d="M214.65,163.31v-11.2h6.81v1.44h-5.26v3.44h4.77v1.45h-4.77v3.43h5.26v1.44h-6.81Z"/>
    <path d="M228.68,163.55c-.73,0-1.42-.13-2.09-.39-.67-.26-1.26-.63-1.77-1.13-.51-.49-.92-1.11-1.23-1.83s-.47-1.56-.47-2.5.16-1.77.47-2.49c.32-.72.73-1.33,1.26-1.82.52-.49,1.12-.87,1.78-1.13.67-.26,1.35-.39,2.05-.39.64,0,1.23.08,1.77.25s1.02.41,1.44.71c.42.31.78.68,1.07,1.12.29.44.51.93.66,1.47l-1.44.51c-.21-.85-.61-1.51-1.21-1.96-.59-.45-1.36-.68-2.28-.68-.51,0-1,.09-1.48.28-.48.18-.91.46-1.28.83-.37.37-.67.83-.89,1.38-.22.55-.33,1.19-.33,1.92s.11,1.37.33,1.92c.22.55.52,1.02.89,1.39.37.37.8.65,1.28.84.48.18.97.28,1.48.28.47,0,.91-.07,1.29-.21s.73-.32,1.03-.56c.3-.24.55-.52.76-.85.21-.33.37-.69.48-1.07l1.37.51c-.15.53-.37,1.01-.66,1.45-.29.44-.65.82-1.07,1.14s-.9.56-1.44.74c-.54.18-1.13.27-1.78.27Z"/>
    <path d="M239.46,163.31v-11.44h1.47v4.91c.18-.34.48-.64.92-.9s.96-.4,1.6-.4c.58,0,1.08.1,1.52.31.43.21.79.49,1.09.85s.52.79.66,1.27.22,1,.22,1.55-.08,1.1-.24,1.59c-.16.49-.39.92-.69,1.28-.3.36-.67.65-1.11.86-.44.21-.94.32-1.51.32s-1.06-.12-1.48-.35-.75-.55-.99-.96v1.11h-1.47ZM245.42,159.48c0-.82-.2-1.47-.6-1.95-.4-.48-.95-.72-1.64-.72-.33,0-.63.06-.91.19-.28.13-.52.3-.72.53-.2.23-.36.51-.47.84-.11.33-.17.7-.17,1.11s.05.78.17,1.12c.11.34.27.62.47.86.2.24.44.42.72.54.28.13.58.19.91.19.68,0,1.23-.25,1.63-.74.4-.49.61-1.15.61-1.97Z"/>
    <path d="M248.83,163.31v-11.44h1.48v11.44h-1.48Z"/>
    <path d="M256.09,155.48c.57,0,1.09.1,1.56.31.47.21.88.49,1.23.84.35.36.62.78.81,1.27.19.49.28,1.02.28,1.6s-.09,1.12-.28,1.61-.46.92-.81,1.28-.76.64-1.23.84c-.47.21-1,.31-1.56.31s-1.09-.1-1.56-.31c-.47-.21-.88-.49-1.23-.84s-.62-.78-.81-1.28-.28-1.03-.28-1.61.09-1.11.28-1.6c.19-.49.46-.91.81-1.27.35-.36.76-.64,1.23-.84.47-.21,1-.31,1.56-.31ZM256.09,162.22c.32,0,.62-.06.9-.17.29-.12.54-.29.76-.52.22-.23.39-.52.52-.85.13-.34.19-.73.19-1.17s-.06-.83-.19-1.16c-.13-.33-.3-.61-.52-.85-.22-.23-.47-.4-.76-.52-.28-.12-.58-.17-.9-.17s-.62.06-.9.17c-.28.12-.54.29-.76.52-.22.23-.39.51-.52.85-.13.33-.19.72-.19,1.16s.06.83.19,1.17c.13.34.3.62.52.85.22.23.47.41.76.52.28.12.58.17.9.17Z"/>
    <path d="M265.07,156.85c-.31,0-.59.06-.87.17-.27.11-.52.28-.73.5s-.39.5-.51.83c-.13.33-.19.72-.19,1.16s.06.81.19,1.15c.13.33.29.61.5.84.21.23.46.4.74.51.28.12.58.17.88.17.36,0,.66-.05.91-.16.25-.11.45-.24.62-.4.16-.16.29-.33.39-.51s.16-.35.21-.5l1.31.57c-.09.27-.23.55-.41.83-.18.28-.41.53-.69.77-.29.23-.62.42-1,.56-.38.14-.82.21-1.32.21-.56,0-1.07-.1-1.54-.31-.47-.21-.87-.49-1.21-.85s-.6-.79-.8-1.28c-.2-.49-.29-1.02-.29-1.6s.1-1.13.29-1.63.46-.92.81-1.27c.34-.35.75-.63,1.22-.83s.97-.3,1.51-.3c.5,0,.95.07,1.33.21.38.14.72.33.99.56.28.23.5.49.67.78.17.29.29.58.38.86l-1.34.57c-.05-.19-.13-.38-.22-.57s-.22-.36-.39-.51c-.16-.15-.36-.28-.59-.38s-.51-.15-.84-.15Z"/>
    <path d="M273.82,158.92l3.3,4.39h-1.86l-2.48-3.35-1.06,1.06v2.29h-1.47v-11.44h1.47v7.2l3.29-3.36h2.05l-3.24,3.21Z"/>
    <path d="M284.1,163.31v-7.22h-2.48v-1.09c.72-.02,1.31-.21,1.77-.56.46-.35.75-.81.87-1.37h1.36v10.23h-1.52Z"/>
  </g>
  <g>
    <path d="M483.04,163.31v-11.2h6.81v1.44h-5.26v3.6h4.77v1.45h-4.77v4.71h-1.55Z"/>
    <path d="M491.74,163.31v-11.2h6.81v1.44h-5.26v3.44h4.77v1.45h-4.77v3.43h5.26v1.44h-6.81Z"/>
    <path d="M505.77,163.55c-.73,0-1.42-.13-2.09-.39-.67-.26-1.26-.63-1.77-1.13-.51-.49-.92-1.11-1.23-1.83s-.47-1.56-.47-2.5.16-1.77.47-2.49c.32-.72.73-1.33,1.26-1.82.52-.49,1.12-.87,1.78-1.13.67-.26,1.35-.39,2.05-.39.64,0,1.23.08,1.77.25s1.02.41,1.44.71c.42.31.78.68,1.07,1.12.29.44.51.93.66,1.47l-1.44.51c-.21-.85-.61-1.51-1.21-1.96-.59-.45-1.36-.68-2.28-.68-.51,0-1,.09-1.48.28-.48.18-.91.46-1.28.83-.37.37-.67.83-.89,1.38-.22.55-.33,1.19-.33,1.92s.11,1.37.33,1.92c.22.55.52,1.02.89,1.39.37.37.8.65,1.28.84.48.18.97.28,1.48.28.47,0,.91-.07,1.29-.21s.73-.32,1.03-.56c.3-.24.55-.52.76-.85.21-.33.37-.69.48-1.07l1.37.51c-.15.53-.37,1.01-.66,1.45-.29.44-.65.82-1.07,1.14s-.9.56-1.44.74c-.54.18-1.13.27-1.78.27Z"/>
    <path d="M516.56,163.31v-11.44h1.47v4.91c.18-.34.48-.64.92-.9s.96-.4,1.6-.4c.58,0,1.08.1,1.52.31.43.21.79.49,1.09.85s.52.79.66,1.27.22,1,.22,1.55-.08,1.1-.24,1.59c-.16.49-.39.92-.69,1.28-.3.36-.67.65-1.11.86-.44.21-.94.32-1.51.32s-1.06-.12-1.48-.35-.75-.55-.99-.96v1.11h-1.47ZM522.51,159.48c0-.82-.2-1.47-.6-1.95-.4-.48-.95-.72-1.64-.72-.33,0-.63.06-.91.19-.28.13-.52.3-.72.53-.2.23-.36.51-.47.84-.11.33-.17.7-.17,1.11s.05.78.17,1.12c.11.34.27.62.47.86.2.24.44.42.72.54.28.13.58.19.91.19.68,0,1.23-.25,1.63-.74.4-.49.61-1.15.61-1.97Z"/>
    <path d="M525.92,163.31v-11.44h1.48v11.44h-1.48Z"/>
    <path d="M533.19,155.48c.57,0,1.09.1,1.56.31.47.21.88.49,1.23.84.35.36.62.78.81,1.27.19.49.28,1.02.28,1.6s-.09,1.12-.28,1.61-.46.92-.81,1.28-.76.64-1.23.84c-.47.21-1,.31-1.56.31s-1.09-.1-1.56-.31c-.47-.21-.88-.49-1.23-.84s-.62-.78-.81-1.28-.28-1.03-.28-1.61.09-1.11.28-1.6c.19-.49.46-.91.81-1.27.35-.36.76-.64,1.23-.84.47-.21,1-.31,1.56-.31ZM533.19,162.22c.32,0,.62-.06.9-.17.29-.12.54-.29.76-.52.22-.23.39-.52.52-.85.13-.34.19-.73.19-1.17s-.06-.83-.19-1.16c-.13-.33-.3-.61-.52-.85-.22-.23-.47-.4-.76-.52-.28-.12-.58-.17-.9-.17s-.62.06-.9.17c-.28.12-.54.29-.76.52-.22.23-.39.51-.52.85-.13.33-.19.72-.19,1.16s.06.83.19,1.17c.13.34.3.62.52.85.22.23.47.41.76.52.28.12.58.17.9.17Z"/>
    <path d="M542.16,156.85c-.31,0-.59.06-.87.17-.27.11-.52.28-.73.5s-.39.5-.51.83c-.13.33-.19.72-.19,1.16s.06.81.19,1.15c.13.33.29.61.5.84.21.23.46.4.74.51.28.12.58.17.88.17.36,0,.66-.05.91-.16.25-.11.45-.24.62-.4.16-.16.29-.33.39-.51s.16-.35.21-.5l1.31.57c-.09.27-.23.55-.41.83-.18.28-.41.53-.69.77-.29.23-.62.42-1,.56-.38.14-.82.21-1.32.21-.56,0-1.07-.1-1.54-.31-.47-.21-.87-.49-1.21-.85s-.6-.79-.8-1.28c-.2-.49-.29-1.02-.29-1.6s.1-1.13.29-1.63.46-.92.81-1.27c.34-.35.75-.63,1.22-.83s.97-.3,1.51-.3c.5,0,.95.07,1.33.21.38.14.72.33.99.56.28.23.5.49.67.78.17.29.29.58.38.86l-1.34.57c-.05-.19-.13-.38-.22-.57s-.22-.36-.39-.51c-.16-.15-.36-.28-.59-.38s-.51-.15-.84-.15Z"/>
    <path d="M550.91,158.92l3.3,4.39h-1.86l-2.48-3.35-1.06,1.06v2.29h-1.47v-11.44h1.47v7.2l3.29-3.36h2.05l-3.24,3.21Z"/>
    <path d="M559,156.57c0-.07-.02-.14-.02-.21v-.2c0-.44.08-.86.24-1.26.16-.4.39-.75.69-1.06.3-.31.67-.55,1.11-.73.44-.18.94-.27,1.5-.27s1.04.08,1.47.25.79.39,1.09.68c.29.28.52.62.67,1,.15.38.23.79.23,1.21,0,.67-.17,1.28-.52,1.81-.35.53-.82.98-1.41,1.35l-2.02,1.29c-.29.19-.56.4-.79.62s-.38.5-.46.81h5.26v1.44h-7.17c.01-.42.06-.82.15-1.18.09-.37.23-.72.43-1.06.2-.34.45-.66.75-.96.3-.3.67-.59,1.11-.88l1.71-1.11c.48-.31.84-.64,1.07-1,.23-.36.34-.74.34-1.14,0-.23-.04-.46-.12-.67-.08-.22-.2-.41-.36-.58-.16-.17-.36-.3-.6-.4-.24-.1-.53-.15-.85-.15s-.63.06-.88.17c-.25.11-.45.26-.62.45-.16.19-.28.41-.36.66-.08.25-.12.53-.12.82,0,.07,0,.15,0,.22s.01.15.02.24l-1.55-.19Z"/>
  </g>
  <g>
    <line class="cls-2" x1="378.43" y1="34.25" x2="112.9" y2="34.25"/>
    <polygon points="377.6 31.45 382.46 34.25 377.6 37.06 377.6 31.45"/>
    <polygon points="113.72 31.45 108.86 34.25 113.72 37.06 113.72 31.45"/>
  </g>
  <g>
    <line class="cls-2" x1="104.83" y1="77.23" x2="25.06" y2="77.23"/>
    <polygon points="104 74.42 108.86 77.23 104 80.03 104 74.42"/>
    <polygon points="25.88 74.42 21.02 77.23 25.88 80.03 25.88 74.42"/>
  </g>
  <g>
    <line class="cls-2" x1="112.9" y1="77.23" x2="255" y2="77.23"/>
    <polygon points="113.72 80.03 108.86 77.23 113.72 74.42 113.72 80.03"/>
    <polygon points="254.18 80.03 259.03 77.23 254.18 74.42 254.18 80.03"/>
  </g>
  <g>
    <line class="cls-2" x1="297.57" y1="77.23" x2="263.07" y2="77.23"/>
    <polygon points="296.75 74.42 301.61 77.23 296.75 80.03 296.75 74.42"/>
    <polygon points="263.89 74.42 259.03 77.23 263.89 80.03 263.89 74.42"/>
  </g>
  <g>
    <line class="cls-2" x1="305.64" y1="77.23" x2="378.43" y2="77.23"/>
    <polygon points="306.46 80.03 301.61 77.23 306.46 74.42 306.46 80.03"/>
    <polygon points="377.6 80.03 382.46 77.23 377.6 74.42 377.6 80.03"/>
  </g>
  <g>
    <line class="cls-2" x1="502.37" y1="77.23" x2="386.5" y2="77.23"/>
    <polygon points="501.55 74.42 506.41 77.23 501.55 80.03 501.55 74.42"/>
    <polygon points="387.32 74.42 382.46 77.23 387.32 80.03 387.32 74.42"/>
  </g>
  <g>
    <line class="cls-2" x1="510.44" y1="77.23" x2="567.17" y2="77.23"/>
    <polygon points="511.26 80.03 506.41 77.23 511.26 74.42 511.26 80.03"/>
    <polygon points="566.35 80.03 571.21 77.23 566.35 74.42 566.35 80.03"/>
  </g>
  <g>
    <line class="cls-2" x1="658.94" y1="77.23" x2="575.24" y2="77.23"/>
    <polygon points="658.12 74.42 662.98 77.23 658.12 80.03 658.12 74.42"/>
    <polygon points="576.06 74.42 571.21 77.23 576.06 80.03 576.06 74.42"/>
  </g>
  <g>
    <line class="cls-2" x1="658.94" y1="34.25" x2="389.35" y2="34.25"/>
    <polygon points="658.12 31.45 662.98 34.25 658.12 37.06 658.12 31.45"/>
    <polygon points="390.17 31.45 385.31 34.25 390.17 37.06 390.17 31.45"/>
  </g>
  <g>
    <path d="M212.72,15.15c-.03-.2-.1-.41-.21-.64-.1-.23-.25-.43-.44-.62-.19-.19-.43-.34-.71-.47s-.62-.18-1.01-.18c-.32,0-.61.05-.87.14-.26.09-.49.23-.69.39-.2.17-.35.37-.45.59-.11.23-.16.47-.16.73,0,.4.12.75.36,1.03.24.29.6.49,1.07.59l1.67.36c.94.21,1.66.59,2.16,1.14.5.55.75,1.22.75,2.01,0,.43-.09.85-.27,1.25s-.44.75-.77,1.06c-.34.31-.74.55-1.22.73-.47.18-1.01.28-1.61.28-.67,0-1.26-.1-1.76-.3s-.92-.46-1.26-.77c-.34-.32-.61-.67-.8-1.07-.19-.39-.31-.79-.36-1.19l1.48-.47c.03.32.11.62.23.91.12.29.29.54.52.77s.5.4.82.53.69.2,1.11.2c.77,0,1.35-.17,1.73-.52.38-.35.58-.77.58-1.26,0-.4-.14-.76-.41-1.08-.27-.32-.69-.54-1.26-.66l-1.59-.35c-.8-.18-1.46-.52-1.97-1.03s-.77-1.19-.77-2.03c0-.44.09-.86.28-1.26s.45-.75.78-1.06c.33-.3.72-.55,1.18-.73.45-.18.94-.28,1.45-.28.63,0,1.17.09,1.62.26s.82.4,1.12.67c.3.27.54.57.7.9.17.33.28.64.35.95l-1.39.49Z"/>
    <path d="M215.95,17.85v-1.22h7.31v1.22h-7.31ZM215.95,20.93v-1.25h7.31v1.25h-7.31Z"/>
    <path d="M228.71,23.55c-.59,0-1.11-.08-1.57-.23s-.84-.36-1.16-.62c-.32-.26-.56-.57-.73-.93-.17-.36-.25-.74-.25-1.15,0-.63.19-1.17.56-1.6.37-.44.83-.75,1.38-.92-.23-.08-.45-.21-.66-.36-.21-.16-.38-.34-.53-.54-.15-.21-.27-.43-.36-.69s-.13-.52-.13-.81c0-.42.09-.81.26-1.15.17-.35.42-.65.73-.9.31-.25.67-.45,1.09-.58.42-.14.87-.21,1.37-.21s.94.07,1.36.21c.42.14.79.33,1.1.58.31.25.55.55.73.9.17.35.26.73.26,1.15,0,.56-.16,1.05-.48,1.48-.32.43-.72.74-1.19.92.55.18,1.01.49,1.38.92.37.44.56.97.56,1.6,0,.41-.08.79-.25,1.15-.17.36-.41.67-.73.93-.32.26-.7.47-1.16.62s-.98.23-1.57.23ZM228.71,22.21c.69,0,1.23-.17,1.59-.5.37-.33.55-.74.55-1.22s-.19-.91-.56-1.25-.9-.51-1.59-.51-1.21.17-1.59.51-.56.75-.56,1.25.18.89.55,1.22c.37.33.9.5,1.6.5ZM228.71,17.44c.55,0,1-.17,1.36-.47.36-.3.54-.7.54-1.21,0-.46-.17-.85-.51-1.17-.34-.32-.8-.47-1.38-.47s-1.04.16-1.38.47c-.34.32-.51.71-.51,1.17,0,.5.18.91.54,1.21.36.3.81.46,1.36.47Z"/>
    <path d="M241.53,16.85c-.31,0-.59.05-.87.17-.27.11-.52.28-.73.5-.22.22-.39.5-.51.83-.13.33-.19.72-.19,1.16s.06.81.19,1.15c.13.33.29.61.5.84s.46.4.74.51c.28.12.58.17.88.17.36,0,.66-.05.91-.16.25-.11.45-.24.62-.4.16-.16.29-.33.39-.51.09-.18.16-.35.21-.5l1.31.57c-.09.27-.23.55-.41.83-.18.28-.41.54-.69.77-.29.23-.62.42-1,.56-.38.14-.82.21-1.32.21-.56,0-1.07-.1-1.54-.31s-.87-.49-1.21-.85-.6-.79-.8-1.28c-.2-.49-.29-1.02-.29-1.6s.1-1.13.29-1.63.46-.92.81-1.27c.34-.35.75-.63,1.22-.83s.97-.3,1.51-.3c.5,0,.95.07,1.33.21.38.14.72.33.99.56.28.23.5.49.67.78.17.29.29.58.38.86l-1.34.57c-.05-.19-.13-.38-.22-.57s-.22-.36-.39-.51c-.16-.15-.36-.28-.59-.38-.23-.1-.51-.15-.84-.15Z"/>
    <path d="M249.97,15.48c.57,0,1.09.1,1.56.31s.88.49,1.23.84c.35.36.62.78.81,1.27.19.49.28,1.02.28,1.6s-.09,1.12-.28,1.61-.46.92-.81,1.28c-.35.36-.76.64-1.23.84s-1,.31-1.56.31-1.09-.1-1.56-.31c-.47-.21-.88-.49-1.23-.84-.35-.36-.62-.78-.81-1.28s-.28-1.03-.28-1.61.09-1.11.28-1.6c.19-.49.46-.91.81-1.27.35-.36.76-.64,1.23-.84.47-.21,1-.31,1.56-.31ZM249.97,22.22c.32,0,.62-.06.9-.17.29-.12.54-.29.76-.52.22-.23.39-.52.52-.85.13-.34.19-.73.19-1.17s-.06-.83-.19-1.16c-.13-.33-.3-.61-.52-.84-.22-.23-.47-.41-.76-.52-.28-.12-.58-.17-.9-.17s-.62.06-.9.17c-.28.12-.54.29-.76.52-.22.23-.39.51-.52.84-.13.33-.19.72-.19,1.16s.06.83.19,1.17c.13.34.3.62.52.85.22.23.47.41.76.52s.58.17.9.17Z"/>
    <path d="M261.07,22.16c-.18.37-.47.69-.86.96-.4.27-.89.4-1.49.4-.56,0-1.06-.1-1.5-.31-.44-.21-.82-.49-1.13-.85-.31-.36-.55-.79-.72-1.28-.17-.49-.25-1.02-.25-1.59,0-.54.09-1.04.26-1.52.17-.48.42-.9.73-1.26.32-.36.69-.65,1.14-.87s.93-.32,1.47-.32c.34,0,.63.04.89.11.26.07.48.17.67.29s.35.26.47.41c.13.15.22.31.28.47v-4.91h1.47v10.03c0,.37.01.68.03.93.02.25.04.41.05.47h-1.44c-.02-.08-.04-.22-.05-.4-.02-.18-.02-.39-.02-.62v-.13ZM256.63,19.49c0,.39.05.75.15,1.08.1.33.25.62.43.86s.42.43.7.57c.27.14.59.21.95.21.34,0,.64-.07.92-.21.27-.14.51-.33.7-.58s.33-.53.43-.87c.1-.34.15-.7.15-1.09,0-.79-.19-1.43-.58-1.91-.38-.48-.92-.73-1.6-.73-.34,0-.64.07-.92.2s-.52.32-.71.55c-.19.24-.34.52-.45.84s-.16.68-.16,1.07Z"/>
    <path d="M264.7,12.84c0-.31.1-.56.31-.77s.46-.31.75-.31.56.1.77.31c.21.21.31.46.31.77s-.1.54-.31.75-.46.31-.77.31-.54-.1-.75-.31c-.21-.21-.31-.46-.31-.75ZM265.03,23.31v-7.6h1.47v7.6h-1.47Z"/>
    <path d="M270.51,23.31h-1.48v-7.6h1.45v1.09c.27-.47.62-.81,1.04-1.01.42-.2.85-.3,1.29-.3s.85.08,1.19.23c.34.15.63.36.85.63s.39.59.5.96c.11.37.17.76.17,1.18v4.82h-1.48v-4.56c0-.26-.03-.51-.09-.74-.06-.23-.16-.43-.3-.61-.14-.17-.33-.31-.55-.41-.23-.1-.5-.15-.83-.15-.29,0-.55.05-.77.17-.22.11-.41.26-.55.45-.15.19-.26.41-.33.66-.07.25-.11.52-.11.81v4.39Z"/>
    <path d="M278.79,23.39c.05.54.27.98.64,1.33.37.35.85.53,1.43.53.8,0,1.39-.21,1.76-.62.37-.41.56-1.03.56-1.85v-1.09c-.18.35-.47.64-.87.88s-.88.36-1.45.36c-.5,0-.97-.09-1.4-.28s-.79-.44-1.11-.76c-.31-.32-.55-.71-.73-1.16-.17-.45-.26-.95-.26-1.49s.08-1,.25-1.44c.17-.45.41-.84.71-1.17.3-.33.67-.59,1.1-.79.43-.19.9-.29,1.43-.29.59,0,1.08.11,1.47.32.39.21.68.51.87.88v-1.06h1.47v7.03c0,.48-.06.96-.19,1.41s-.34.86-.64,1.22-.69.64-1.18.85-1.08.32-1.8.32c-.47,0-.91-.07-1.32-.21-.41-.14-.76-.34-1.07-.59-.31-.25-.56-.55-.76-.89-.2-.34-.31-.72-.36-1.13l1.44-.33ZM281.08,21.7c.64,0,1.16-.22,1.56-.66.4-.44.6-1.03.6-1.77s-.2-1.33-.6-1.77c-.4-.44-.92-.66-1.56-.66s-1.2.22-1.6.66-.6,1.03-.6,1.77.2,1.34.59,1.78.93.66,1.6.66Z"/>
  </g>
  <g>
    <path d="M466.3,15.15c-.03-.2-.1-.41-.21-.64-.1-.23-.25-.43-.44-.62-.19-.19-.43-.34-.71-.47s-.62-.18-1.01-.18c-.32,0-.61.05-.87.14-.26.09-.49.23-.69.39-.2.17-.35.37-.45.59-.11.23-.16.47-.16.73,0,.4.12.75.36,1.03.24.29.6.49,1.07.59l1.67.36c.94.21,1.66.59,2.16,1.14.5.55.75,1.22.75,2.01,0,.43-.09.85-.27,1.25s-.44.75-.77,1.06c-.34.31-.74.55-1.22.73-.47.18-1.01.28-1.61.28-.67,0-1.26-.1-1.76-.3s-.92-.46-1.26-.77c-.34-.32-.61-.67-.8-1.07-.19-.39-.31-.79-.36-1.19l1.48-.47c.03.32.11.62.23.91.12.29.29.54.52.77s.5.4.82.53.69.2,1.11.2c.77,0,1.35-.17,1.73-.52.38-.35.58-.77.58-1.26,0-.4-.14-.76-.41-1.08-.27-.32-.69-.54-1.26-.66l-1.59-.35c-.8-.18-1.46-.52-1.97-1.03s-.77-1.19-.77-2.03c0-.44.09-.86.28-1.26s.45-.75.78-1.06c.33-.3.72-.55,1.18-.73.45-.18.94-.28,1.45-.28.63,0,1.17.09,1.62.26s.82.4,1.12.67c.3.27.54.57.7.9.17.33.28.64.35.95l-1.39.49Z"/>
    <path d="M469.52,17.85v-1.22h7.31v1.22h-7.31ZM469.52,20.93v-1.25h7.31v1.25h-7.31Z"/>
    <path d="M478.54,16.57c0-.07-.02-.14-.02-.21v-.2c0-.44.08-.86.24-1.26.16-.4.39-.75.69-1.06.3-.31.67-.55,1.11-.73.44-.18.94-.27,1.5-.27s1.04.08,1.47.25c.43.17.79.39,1.09.68s.52.62.67,1c.15.38.23.79.23,1.21,0,.67-.17,1.28-.52,1.81-.35.53-.82.98-1.41,1.35l-2.02,1.29c-.29.19-.56.4-.79.62s-.38.5-.46.81h5.26v1.44h-7.17c.01-.42.06-.82.15-1.18.09-.37.23-.72.43-1.06.2-.34.45-.66.75-.96.3-.3.67-.59,1.11-.88l1.71-1.11c.48-.31.84-.64,1.07-1,.23-.36.34-.74.34-1.14,0-.23-.04-.46-.12-.67-.08-.22-.2-.41-.36-.58-.16-.17-.36-.3-.6-.4-.24-.1-.53-.15-.85-.15s-.63.05-.88.17c-.25.11-.45.26-.62.45-.16.19-.28.41-.36.66-.08.25-.12.53-.12.82,0,.07,0,.15,0,.22,0,.07.01.15.02.24l-1.55-.19Z"/>
    <path d="M494.68,15.48c.57,0,1.09.1,1.56.31s.88.49,1.23.84c.35.36.62.78.81,1.27.19.49.28,1.02.28,1.6s-.09,1.12-.28,1.61-.46.92-.81,1.28c-.35.36-.76.64-1.23.84s-1,.31-1.56.31-1.09-.1-1.56-.31c-.47-.21-.88-.49-1.23-.84-.35-.36-.62-.78-.81-1.28s-.28-1.03-.28-1.61.09-1.11.28-1.6c.19-.49.46-.91.81-1.27.35-.36.76-.64,1.23-.84.47-.21,1-.31,1.56-.31ZM494.68,22.22c.32,0,.62-.06.9-.17.29-.12.54-.29.76-.52.22-.23.39-.52.52-.85.13-.34.19-.73.19-1.17s-.06-.83-.19-1.16c-.13-.33-.3-.61-.52-.84-.22-.23-.47-.41-.76-.52-.28-.12-.58-.17-.9-.17s-.62.06-.9.17c-.28.12-.54.29-.76.52-.22.23-.39.51-.52.84-.13.33-.19.72-.19,1.16s.06.83.19,1.17c.13.34.3.62.52.85.22.23.47.41.76.52s.58.17.9.17Z"/>
    <path d="M504.68,17.22c-.22-.03-.44-.05-.65-.05-.62,0-1.12.18-1.51.54-.38.36-.58.96-.58,1.79v3.81h-1.48v-7.6h1.45v1.33c.14-.29.3-.53.48-.72.18-.18.38-.33.58-.44s.41-.19.62-.23.41-.06.6-.06c.1,0,.2,0,.29.02.09.01.16.02.2.03v1.58Z"/>
    <path d="M516.11,15.15c-.03-.2-.1-.41-.21-.64-.1-.23-.25-.43-.44-.62-.19-.19-.43-.34-.71-.47s-.62-.18-1.01-.18c-.32,0-.61.05-.87.14-.26.09-.49.23-.69.39-.2.17-.35.37-.45.59-.11.23-.16.47-.16.73,0,.4.12.75.36,1.03.24.29.6.49,1.07.59l1.67.36c.94.21,1.66.59,2.16,1.14.5.55.75,1.22.75,2.01,0,.43-.09.85-.27,1.25s-.44.75-.77,1.06c-.34.31-.74.55-1.22.73-.47.18-1.01.28-1.61.28-.67,0-1.26-.1-1.76-.3s-.92-.46-1.26-.77c-.34-.32-.61-.67-.8-1.07-.19-.39-.31-.79-.36-1.19l1.48-.47c.03.32.11.62.23.91.12.29.29.54.52.77s.5.4.82.53.69.2,1.11.2c.77,0,1.35-.17,1.73-.52.38-.35.58-.77.58-1.26,0-.4-.14-.76-.41-1.08-.27-.32-.69-.54-1.26-.66l-1.59-.35c-.8-.18-1.46-.52-1.97-1.03s-.77-1.19-.77-2.03c0-.44.09-.86.28-1.26s.45-.75.78-1.06c.33-.3.72-.55,1.18-.73.45-.18.94-.28,1.45-.28.63,0,1.17.09,1.62.26s.82.4,1.12.67c.3.27.54.57.7.9.17.33.28.64.35.95l-1.39.49Z"/>
    <path d="M519.34,17.85v-1.22h7.31v1.22h-7.31ZM519.34,20.93v-1.25h7.31v1.25h-7.31Z"/>
    <path d="M532.1,23.55c-.59,0-1.11-.08-1.57-.23s-.84-.36-1.16-.62c-.32-.26-.56-.57-.73-.93-.17-.36-.25-.74-.25-1.15,0-.63.19-1.17.56-1.6.37-.44.83-.75,1.38-.92-.23-.08-.45-.21-.66-.36-.21-.16-.38-.34-.53-.54-.15-.21-.27-.43-.36-.69s-.13-.52-.13-.81c0-.42.09-.81.26-1.15.17-.35.42-.65.73-.9.31-.25.67-.45,1.09-.58.42-.14.87-.21,1.37-.21s.94.07,1.36.21c.42.14.79.33,1.1.58.31.25.55.55.73.9.17.35.26.73.26,1.15,0,.56-.16,1.05-.48,1.48-.32.43-.72.74-1.19.92.55.18,1.01.49,1.38.92.37.44.56.97.56,1.6,0,.41-.08.79-.25,1.15-.17.36-.41.67-.73.93-.32.26-.7.47-1.16.62s-.98.23-1.57.23ZM532.1,22.21c.69,0,1.23-.17,1.59-.5.37-.33.55-.74.55-1.22s-.19-.91-.56-1.25-.9-.51-1.59-.51-1.21.17-1.59.51-.56.75-.56,1.25.18.89.55,1.22c.37.33.9.5,1.6.5ZM532.1,17.44c.55,0,1-.17,1.36-.47.36-.3.54-.7.54-1.21,0-.46-.17-.85-.51-1.17-.34-.32-.8-.47-1.38-.47s-1.04.16-1.38.47c-.34.32-.51.71-.51,1.17,0,.5.18.91.54,1.21.36.3.81.46,1.36.47Z"/>
    <path d="M544.92,16.85c-.31,0-.59.05-.87.17-.27.11-.52.28-.73.5-.22.22-.39.5-.51.83-.13.33-.19.72-.19,1.16s.06.81.19,1.15c.13.33.29.61.5.84s.46.4.74.51c.28.12.58.17.88.17.36,0,.66-.05.91-.16.25-.11.45-.24.62-.4.16-.16.29-.33.39-.51.09-.18.16-.35.21-.5l1.31.57c-.09.27-.23.55-.41.83-.18.28-.41.54-.69.77-.29.23-.62.42-1,.56-.38.14-.82.21-1.32.21-.56,0-1.07-.1-1.54-.31s-.87-.49-1.21-.85-.6-.79-.8-1.28c-.2-.49-.29-1.02-.29-1.6s.1-1.13.29-1.63.46-.92.81-1.27c.34-.35.75-.63,1.22-.83s.97-.3,1.51-.3c.5,0,.95.07,1.33.21.38.14.72.33.99.56.28.23.5.49.67.78.17.29.29.58.38.86l-1.34.57c-.05-.19-.13-.38-.22-.57s-.22-.36-.39-.51c-.16-.15-.36-.28-.59-.38-.23-.1-.51-.15-.84-.15Z"/>
    <path d="M553.36,15.48c.57,0,1.09.1,1.56.31s.88.49,1.23.84c.35.36.62.78.81,1.27.19.49.28,1.02.28,1.6s-.09,1.12-.28,1.61-.46.92-.81,1.28c-.35.36-.76.64-1.23.84s-1,.31-1.56.31-1.09-.1-1.56-.31c-.47-.21-.88-.49-1.23-.84-.35-.36-.62-.78-.81-1.28s-.28-1.03-.28-1.61.09-1.11.28-1.6c.19-.49.46-.91.81-1.27.35-.36.76-.64,1.23-.84.47-.21,1-.31,1.56-.31ZM553.36,22.22c.32,0,.62-.06.9-.17.29-.12.54-.29.76-.52.22-.23.39-.52.52-.85.13-.34.19-.73.19-1.17s-.06-.83-.19-1.16c-.13-.33-.3-.61-.52-.84-.22-.23-.47-.41-.76-.52-.28-.12-.58-.17-.9-.17s-.62.06-.9.17c-.28.12-.54.29-.76.52-.22.23-.39.51-.52.84-.13.33-.19.72-.19,1.16s.06.83.19,1.17c.13.34.3.62.52.85.22.23.47.41.76.52s.58.17.9.17Z"/>
    <path d="M564.46,22.16c-.18.37-.47.69-.86.96-.4.27-.89.4-1.49.4-.56,0-1.06-.1-1.5-.31-.44-.21-.82-.49-1.13-.85-.31-.36-.55-.79-.72-1.28-.17-.49-.25-1.02-.25-1.59,0-.54.09-1.04.26-1.52.17-.48.42-.9.73-1.26.32-.36.69-.65,1.14-.87s.93-.32,1.47-.32c.34,0,.63.04.89.11.26.07.48.17.67.29s.35.26.47.41c.13.15.22.31.28.47v-4.91h1.47v10.03c0,.37.01.68.03.93.02.25.04.41.05.47h-1.44c-.02-.08-.04-.22-.05-.4-.02-.18-.02-.39-.02-.62v-.13ZM560.02,19.49c0,.39.05.75.15,1.08.1.33.25.62.43.86s.42.43.7.57c.27.14.59.21.95.21.34,0,.64-.07.92-.21.27-.14.51-.33.7-.58s.33-.53.43-.87c.1-.34.15-.7.15-1.09,0-.79-.19-1.43-.58-1.91-.38-.48-.92-.73-1.6-.73-.34,0-.64.07-.92.2s-.52.32-.71.55c-.19.24-.34.52-.45.84s-.16.68-.16,1.07Z"/>
    <path d="M568.09,12.84c0-.31.1-.56.31-.77s.46-.31.75-.31.56.1.77.31c.21.21.31.46.31.77s-.1.54-.31.75-.46.31-.77.31-.54-.1-.75-.31c-.21-.21-.31-.46-.31-.75ZM568.42,23.31v-7.6h1.47v7.6h-1.47Z"/>
    <path d="M573.91,23.31h-1.48v-7.6h1.45v1.09c.27-.47.62-.81,1.04-1.01.42-.2.85-.3,1.29-.3s.85.08,1.19.23c.34.15.63.36.85.63s.39.59.5.96c.11.37.17.76.17,1.18v4.82h-1.48v-4.56c0-.26-.03-.51-.09-.74-.06-.23-.16-.43-.3-.61-.14-.17-.33-.31-.55-.41-.23-.1-.5-.15-.83-.15-.29,0-.55.05-.77.17-.22.11-.41.26-.55.45-.15.19-.26.41-.33.66-.07.25-.11.52-.11.81v4.39Z"/>
    <path d="M582.18,23.39c.05.54.27.98.64,1.33.37.35.85.53,1.43.53.8,0,1.39-.21,1.76-.62.37-.41.56-1.03.56-1.85v-1.09c-.18.35-.47.64-.87.88s-.88.36-1.45.36c-.5,0-.97-.09-1.4-.28s-.79-.44-1.11-.76c-.31-.32-.55-.71-.73-1.16-.17-.45-.26-.95-.26-1.49s.08-1,.25-1.44c.17-.45.41-.84.71-1.17.3-.33.67-.59,1.1-.79.43-.19.9-.29,1.43-.29.59,0,1.08.11,1.47.32.39.21.68.51.87.88v-1.06h1.47v7.03c0,.48-.06.96-.19,1.41s-.34.86-.64,1.22-.69.64-1.18.85-1.08.32-1.8.32c-.47,0-.91-.07-1.32-.21-.41-.14-.76-.34-1.07-.59-.31-.25-.56-.55-.76-.89-.2-.34-.31-.72-.36-1.13l1.44-.33ZM584.47,21.7c.64,0,1.16-.22,1.56-.66.4-.44.6-1.03.6-1.77s-.2-1.33-.6-1.77c-.4-.44-.92-.66-1.56-.66s-1.2.22-1.6.66-.6,1.03-.6,1.77.2,1.34.59,1.78.93.66,1.6.66Z"/>
  </g>
  <g>
    <path d="M52.22,65.95c-.59,0-1.11-.08-1.57-.23-.46-.15-.84-.36-1.16-.62-.32-.26-.56-.57-.73-.93-.17-.36-.25-.74-.25-1.15,0-.63.19-1.17.56-1.6s.83-.75,1.38-.92c-.23-.08-.45-.21-.66-.36-.21-.16-.38-.34-.53-.54-.15-.21-.27-.43-.36-.69-.09-.25-.13-.52-.13-.81,0-.42.09-.81.26-1.15.17-.35.42-.65.73-.9.31-.25.67-.45,1.09-.58.42-.14.87-.21,1.37-.21s.94.07,1.36.21c.42.14.79.33,1.1.58.31.25.55.55.73.9.17.35.26.73.26,1.15,0,.56-.16,1.05-.48,1.48-.32.43-.72.74-1.19.92.55.18,1.01.49,1.38.92s.56.97.56,1.6c0,.41-.08.79-.25,1.15-.17.36-.41.67-.73.93-.32.26-.7.47-1.16.62-.46.15-.98.23-1.57.23ZM52.22,64.61c.69,0,1.23-.17,1.59-.5.37-.33.55-.74.55-1.22s-.19-.91-.56-1.25-.9-.51-1.59-.51-1.21.17-1.59.51-.56.75-.56,1.25.18.89.55,1.22c.37.33.9.5,1.6.5ZM52.22,59.84c.55-.01,1-.17,1.36-.47.36-.3.54-.7.54-1.21,0-.46-.17-.85-.51-1.17-.34-.32-.8-.47-1.38-.47s-1.04.16-1.38.47c-.34.32-.51.71-.51,1.17,0,.51.18.91.54,1.21.36.3.81.46,1.36.47Z"/>
    <path d="M57.43,60.6c0-.71.07-1.37.21-2.01s.37-1.2.71-1.71.76-.91,1.28-1.2c.52-.29,1.14-.44,1.86-.44s1.35.15,1.86.44c.52.29.94.69,1.28,1.2.34.51.57,1.07.71,1.71s.21,1.3.21,2.01-.07,1.37-.21,2.01-.37,1.2-.71,1.71c-.34.51-.76.91-1.28,1.2-.52.29-1.14.44-1.86.44s-1.35-.15-1.86-.44c-.52-.29-.94-.69-1.28-1.2s-.57-1.07-.71-1.71-.21-1.3-.21-2.01ZM58.96,60.6c0,1.58.3,2.69.9,3.32.2.21.43.37.69.49.26.12.57.17.94.17s.68-.06.94-.17c.26-.12.49-.28.69-.49.6-.63.9-1.74.9-3.32s-.3-2.69-.9-3.32c-.2-.21-.43-.37-.69-.49-.26-.12-.57-.17-.94-.17s-.68.06-.94.17c-.26.12-.49.28-.69.49-.6.63-.9,1.74-.9,3.32Z"/>
    <path d="M76.64,64.8c-.21.4-.53.69-.95.88s-.85.28-1.29.28c-.28,0-.53-.03-.75-.09-.22-.06-.42-.13-.61-.23v3.08h-1.48v-10.6h1.48v4.56c0,.26.03.51.09.75s.16.44.3.62.31.32.53.43c.22.11.48.16.8.16.6,0,1.05-.18,1.35-.54s.45-.83.45-1.41v-4.58h1.48v6.19c0,.31,0,.59.02.85.02.26.03.45.06.55h-1.42c-.02-.08-.04-.22-.05-.4-.01-.18-.02-.36-.02-.51Z"/>
    <path d="M81.2,63.27c.05.4.23.74.52,1.01.29.27.71.41,1.25.41.42,0,.74-.1.96-.3.22-.2.33-.44.33-.71,0-.24-.08-.45-.25-.62-.17-.17-.41-.29-.73-.36l-1.3-.28c-.6-.13-1.07-.38-1.4-.76s-.5-.84-.5-1.37c0-.33.07-.63.21-.92s.33-.54.58-.77.53-.4.86-.52c.33-.13.68-.19,1.05-.19.52,0,.95.07,1.3.22.35.15.64.33.86.54s.39.44.5.67c.11.23.19.43.23.6l-1.31.49c-.02-.1-.06-.22-.11-.36s-.14-.29-.25-.42c-.12-.13-.27-.24-.47-.34s-.45-.14-.74-.14c-.38,0-.68.1-.92.31-.23.21-.35.44-.35.7,0,.48.29.79.87.92l1.23.27c.7.15,1.22.42,1.57.81.35.4.53.88.53,1.45,0,.27-.06.55-.17.82-.12.27-.29.53-.51.76-.23.23-.51.42-.86.56-.35.14-.76.21-1.23.21-.53,0-.98-.07-1.35-.22-.37-.15-.68-.33-.93-.55s-.44-.46-.57-.72c-.13-.26-.21-.5-.25-.72l1.34-.47Z"/>
  </g>
  <g>
    <path d="M166.03,58.97c0-.07-.02-.14-.02-.21v-.2c0-.44.08-.86.24-1.26.16-.4.39-.75.69-1.06.3-.31.67-.55,1.11-.73.44-.18.94-.27,1.5-.27s1.04.08,1.47.25.79.39,1.09.68c.29.28.52.62.67,1,.15.38.23.79.23,1.21,0,.67-.17,1.28-.52,1.81-.35.53-.82.98-1.41,1.35l-2.02,1.29c-.29.19-.56.4-.79.62s-.38.5-.46.81h5.26v1.44h-7.17c.01-.42.06-.82.15-1.18.09-.37.23-.72.43-1.06.2-.34.45-.66.75-.96.3-.3.67-.59,1.11-.88l1.71-1.11c.48-.31.84-.64,1.07-1,.23-.36.34-.74.34-1.14,0-.23-.04-.46-.12-.67-.08-.22-.2-.41-.36-.58-.16-.17-.36-.3-.6-.4-.24-.1-.53-.15-.85-.15s-.63.06-.88.17c-.25.11-.45.26-.62.45-.16.19-.28.41-.36.66-.08.25-.12.53-.12.82,0,.07,0,.15,0,.22s.01.15.02.24l-1.55-.19Z"/>
    <path d="M175.75,62.49c.05.63.29,1.14.71,1.53s.95.58,1.6.58c.3,0,.59-.05.86-.14s.5-.23.7-.42c.19-.18.35-.4.47-.66.12-.25.17-.54.17-.85,0-.35-.06-.66-.18-.92s-.28-.49-.48-.66c-.2-.17-.43-.31-.7-.4s-.55-.13-.85-.13c-.37,0-.72.07-1.04.2-.33.13-.6.31-.82.54-.27-.1-.53-.21-.77-.31-.24-.1-.49-.2-.75-.29l1.33-5.09h5.4v1.42h-4.38l-.76,2.94c.23-.25.54-.44.92-.57.38-.13.77-.19,1.17-.19.5,0,.97.08,1.39.24.42.16.79.38,1.1.67.31.29.55.65.73,1.07.17.42.26.9.26,1.42,0,.48-.09.94-.27,1.36-.18.42-.43.79-.76,1.11-.33.32-.72.57-1.18.75-.46.18-.98.28-1.55.28s-1.05-.08-1.49-.25-.84-.38-1.17-.66c-.33-.28-.59-.6-.79-.97-.2-.37-.31-.75-.34-1.15l1.48-.44Z"/>
    <path d="M190.18,57.07c-.19-.12-.45-.22-.77-.31s-.68-.13-1.07-.13c-.54,0-1.02.09-1.45.28-.43.18-.79.44-1.11.77-.31.33-.56.71-.73,1.16-.18.45-.28.93-.32,1.46.21-.34.54-.64,1-.92.45-.27,1.02-.41,1.71-.41.5,0,.97.08,1.4.23.43.15.8.38,1.11.68.32.3.56.67.73,1.1.17.43.26.93.26,1.48s-.1,1.04-.31,1.47-.48.8-.83,1.1-.75.53-1.21.69-.94.24-1.45.24-.98-.09-1.45-.27c-.47-.18-.9-.46-1.28-.84s-.68-.87-.92-1.47c-.23-.6-.35-1.32-.35-2.16,0-.95.13-1.79.4-2.53.27-.74.64-1.37,1.11-1.88.47-.51,1.03-.9,1.67-1.16.64-.26,1.34-.4,2.08-.4.47,0,.9.05,1.28.16s.69.24.93.41l-.47,1.26ZM184.97,62.46c0,.34.06.64.19.9.13.26.29.49.5.67.21.18.44.33.7.43.26.1.54.15.82.15s.58-.05.84-.14.51-.23.71-.42c.21-.18.37-.41.48-.68.12-.27.17-.57.17-.91s-.06-.66-.18-.92-.28-.49-.48-.68c-.2-.18-.43-.32-.7-.42s-.55-.14-.84-.14-.58.05-.84.14-.5.23-.7.42c-.2.18-.36.41-.48.68-.12.27-.18.58-.18.92Z"/>
    <path d="M201.82,64.8c-.21.4-.53.69-.95.88s-.85.28-1.29.28c-.28,0-.53-.03-.75-.09-.22-.06-.42-.13-.61-.23v3.08h-1.48v-10.6h1.48v4.56c0,.26.03.51.09.75s.16.44.3.62.31.32.53.43c.22.11.48.16.8.16.6,0,1.05-.18,1.35-.54s.45-.83.45-1.41v-4.58h1.48v6.19c0,.31,0,.59.02.85.02.26.03.45.06.55h-1.42c-.02-.08-.04-.22-.05-.4-.01-.18-.02-.36-.02-.51Z"/>
    <path d="M206.39,63.27c.05.4.23.74.52,1.01.29.27.71.41,1.25.41.42,0,.74-.1.96-.3.22-.2.33-.44.33-.71,0-.24-.08-.45-.25-.62-.17-.17-.41-.29-.73-.36l-1.3-.28c-.6-.13-1.07-.38-1.4-.76s-.5-.84-.5-1.37c0-.33.07-.63.21-.92s.33-.54.58-.77.53-.4.86-.52c.33-.13.68-.19,1.05-.19.52,0,.95.07,1.3.22.35.15.64.33.86.54s.39.44.5.67c.11.23.19.43.23.6l-1.31.49c-.02-.1-.06-.22-.11-.36s-.14-.29-.25-.42c-.12-.13-.27-.24-.47-.34s-.45-.14-.74-.14c-.38,0-.68.1-.92.31-.23.21-.35.44-.35.7,0,.48.29.79.87.92l1.23.27c.7.15,1.22.42,1.57.81.35.4.53.88.53,1.45,0,.27-.06.55-.17.82-.12.27-.29.53-.51.76-.23.23-.51.42-.86.56-.35.14-.76.21-1.23.21-.53,0-.98-.07-1.35-.22-.37-.15-.68-.33-.93-.55s-.44-.46-.57-.72c-.13-.26-.21-.5-.25-.72l1.34-.47Z"/>
  </g>
  <g>
    <path d="M263.43,65.71v-7.22h-2.48v-1.09c.72-.02,1.31-.21,1.77-.56.46-.35.75-.81.87-1.37h1.36v10.23h-1.52Z"/>
    <path d="M273.95,57.07c-.19-.12-.45-.22-.77-.31s-.68-.13-1.07-.13c-.54,0-1.02.09-1.45.28-.43.18-.79.44-1.11.77-.31.33-.56.71-.73,1.16-.18.45-.28.93-.32,1.46.21-.34.54-.64,1-.92.45-.27,1.02-.41,1.71-.41.5,0,.97.08,1.4.23.43.15.8.38,1.11.68.32.3.56.67.73,1.1.17.43.26.93.26,1.48s-.1,1.04-.31,1.47-.48.8-.83,1.1-.75.53-1.21.69-.94.24-1.45.24-.98-.09-1.45-.27c-.47-.18-.9-.46-1.28-.84s-.68-.87-.92-1.47c-.23-.6-.35-1.32-.35-2.16,0-.95.13-1.79.4-2.53.27-.74.64-1.37,1.11-1.88.47-.51,1.03-.9,1.67-1.16.64-.26,1.34-.4,2.08-.4.47,0,.9.05,1.28.16s.69.24.93.41l-.47,1.26ZM268.74,62.46c0,.34.06.64.19.9.13.26.29.49.5.67.21.18.44.33.7.43.26.1.54.15.82.15s.58-.05.84-.14.51-.23.71-.42c.21-.18.37-.41.48-.68.12-.27.17-.57.17-.91s-.06-.66-.18-.92-.28-.49-.48-.68c-.2-.18-.43-.32-.7-.42s-.55-.14-.84-.14-.58.05-.84.14-.5.23-.7.42c-.2.18-.36.41-.48.68-.12.27-.18.58-.18.92Z"/>
    <path d="M285.59,64.8c-.21.4-.53.69-.95.88s-.85.28-1.29.28c-.28,0-.53-.03-.75-.09-.22-.06-.42-.13-.61-.23v3.08h-1.48v-10.6h1.48v4.56c0,.26.03.51.09.75s.16.44.3.62.31.32.53.43c.22.11.48.16.8.16.6,0,1.05-.18,1.35-.54s.45-.83.45-1.41v-4.58h1.48v6.19c0,.31,0,.59.02.85.02.26.03.45.06.55h-1.42c-.02-.08-.04-.22-.05-.4-.01-.18-.02-.36-.02-.51Z"/>
    <path d="M290.16,63.27c.05.4.23.74.52,1.01.29.27.71.41,1.25.41.42,0,.74-.1.96-.3.22-.2.33-.44.33-.71,0-.24-.08-.45-.25-.62-.17-.17-.41-.29-.73-.36l-1.3-.28c-.6-.13-1.07-.38-1.4-.76s-.5-.84-.5-1.37c0-.33.07-.63.21-.92s.33-.54.58-.77.53-.4.86-.52c.33-.13.68-.19,1.05-.19.52,0,.95.07,1.3.22.35.15.64.33.86.54s.39.44.5.67c.11.23.19.43.23.6l-1.31.49c-.02-.1-.06-.22-.11-.36s-.14-.29-.25-.42c-.12-.13-.27-.24-.47-.34s-.45-.14-.74-.14c-.38,0-.68.1-.92.31-.23.21-.35.44-.35.7,0,.48.29.79.87.92l1.23.27c.7.15,1.22.42,1.57.81.35.4.53.88.53,1.45,0,.27-.06.55-.17.82-.12.27-.29.53-.51.76-.23.23-.51.42-.86.56-.35.14-.76.21-1.23.21-.53,0-.98-.07-1.35-.22-.37-.15-.68-.33-.93-.55s-.44-.46-.57-.72c-.13-.26-.21-.5-.25-.72l1.34-.47Z"/>
  </g>
  <g>
    <path d="M323.52,58.97c0-.07-.02-.14-.02-.21v-.2c0-.44.08-.86.24-1.26.16-.4.39-.75.69-1.06.3-.31.67-.55,1.11-.73.44-.18.94-.27,1.5-.27s1.04.08,1.47.25.79.39,1.09.68c.29.28.52.62.67,1,.15.38.23.79.23,1.21,0,.67-.17,1.28-.52,1.81-.35.53-.82.98-1.41,1.35l-2.02,1.29c-.29.19-.56.4-.79.62s-.38.5-.46.81h5.26v1.44h-7.17c.01-.42.06-.82.15-1.18.09-.37.23-.72.43-1.06.2-.34.45-.66.75-.96.3-.3.67-.59,1.11-.88l1.71-1.11c.48-.31.84-.64,1.07-1,.23-.36.34-.74.34-1.14,0-.23-.04-.46-.12-.67-.08-.22-.2-.41-.36-.58-.16-.17-.36-.3-.6-.4-.24-.1-.53-.15-.85-.15s-.63.06-.88.17c-.25.11-.45.26-.62.45-.16.19-.28.41-.36.66-.08.25-.12.53-.12.82,0,.07,0,.15,0,.22s.01.15.02.24l-1.55-.19Z"/>
    <path d="M331.75,61.62l4.39-6.14h2.13v6.49h1.75v1.44h-1.75v2.31h-1.5v-2.31h-5.02v-1.78ZM336.77,56.96l-3.6,5.01h3.6v-5.01Z"/>
    <path d="M350.56,64.8c-.21.4-.53.69-.95.88s-.85.28-1.29.28c-.28,0-.53-.03-.75-.09-.22-.06-.42-.13-.61-.23v3.08h-1.48v-10.6h1.48v4.56c0,.26.03.51.09.75s.16.44.3.62.31.32.53.43c.22.11.48.16.8.16.6,0,1.05-.18,1.35-.54s.45-.83.45-1.41v-4.58h1.48v6.19c0,.31,0,.59.02.85.02.26.03.45.06.55h-1.42c-.02-.08-.04-.22-.05-.4-.01-.18-.02-.36-.02-.51Z"/>
    <path d="M355.12,63.27c.05.4.23.74.52,1.01.29.27.71.41,1.25.41.42,0,.74-.1.96-.3.22-.2.33-.44.33-.71,0-.24-.08-.45-.25-.62-.17-.17-.41-.29-.73-.36l-1.3-.28c-.6-.13-1.07-.38-1.4-.76s-.5-.84-.5-1.37c0-.33.07-.63.21-.92s.33-.54.58-.77.53-.4.86-.52c.33-.13.68-.19,1.05-.19.52,0,.95.07,1.3.22.35.15.64.33.86.54s.39.44.5.67c.11.23.19.43.23.6l-1.31.49c-.02-.1-.06-.22-.11-.36s-.14-.29-.25-.42c-.12-.13-.27-.24-.47-.34s-.45-.14-.74-.14c-.38,0-.68.1-.92.31-.23.21-.35.44-.35.7,0,.48.29.79.87.92l1.23.27c.7.15,1.22.42,1.57.81.35.4.53.88.53,1.45,0,.27-.06.55-.17.82-.12.27-.29.53-.51.76-.23.23-.51.42-.86.56-.35.14-.76.21-1.23.21-.53,0-.98-.07-1.35-.22-.37-.15-.68-.33-.93-.55s-.44-.46-.57-.72c-.13-.26-.21-.5-.25-.72l1.34-.47Z"/>
  </g>
  <g>
    <path d="M420.98,65.71l-6.05-9.13v9.13h-1.55v-11.2h2.07l5.59,8.59v-8.59h1.55v11.2h-1.61Z"/>
    <path d="M428.1,56.63l1.94-.66.36,1.14-1.96.65,1.29,1.66-.96.73-1.31-1.72-1.23,1.71-.96-.73,1.25-1.64-1.96-.65.36-1.14,1.93.68v-2.13h1.25v2.12Z"/>
    <path d="M435.72,65.97c-.63,0-1.2-.08-1.69-.25-.49-.16-.91-.39-1.25-.67-.34-.28-.6-.62-.78-1-.18-.39-.27-.8-.27-1.24,0-.68.2-1.25.6-1.73s.9-.8,1.49-.99c-.25-.09-.49-.22-.71-.39s-.41-.37-.57-.59c-.16-.22-.29-.47-.38-.74-.1-.27-.14-.56-.14-.87,0-.45.09-.87.28-1.24.19-.37.45-.7.78-.97s.73-.48,1.17-.63c.45-.15.94-.22,1.47-.22s1.01.07,1.46.22.85.36,1.18.63.59.59.78.97c.19.37.28.79.28,1.24,0,.6-.17,1.13-.52,1.6s-.77.79-1.28.99c.59.19,1.08.52,1.49.99s.6,1.05.6,1.73c0,.44-.09.86-.27,1.24-.18.39-.44.72-.78,1-.34.28-.76.51-1.25.67-.49.16-1.06.25-1.69.25ZM435.72,64.52c.75,0,1.32-.18,1.72-.54.4-.36.6-.8.6-1.32s-.2-.98-.6-1.34c-.4-.36-.97-.54-1.71-.54s-1.31.18-1.71.54c-.4.36-.6.81-.6,1.34s.2.96.59,1.32.97.54,1.72.54ZM435.72,59.39c.59-.01,1.08-.18,1.46-.5.39-.32.58-.76.58-1.3,0-.5-.18-.92-.55-1.26-.37-.34-.86-.51-1.49-.51s-1.12.17-1.49.51c-.37.34-.55.76-.55,1.26,0,.54.19.98.58,1.3.39.32.87.49,1.46.5Z"/>
    <path d="M444.57,56.63l1.94-.66.36,1.14-1.96.65,1.29,1.66-.96.73-1.31-1.72-1.23,1.71-.96-.73,1.25-1.64-1.96-.65.36-1.14,1.93.68v-2.13h1.25v2.12Z"/>
    <path d="M454.6,57.55c-.03-.2-.1-.41-.21-.64-.1-.23-.25-.43-.44-.62-.19-.19-.43-.34-.71-.47s-.62-.18-1.01-.18c-.32,0-.61.05-.87.14-.26.09-.49.23-.69.4-.2.17-.35.37-.45.59-.11.23-.16.47-.16.73,0,.4.12.75.36,1.03.24.29.6.49,1.07.59l1.67.36c.94.21,1.66.59,2.16,1.14.5.55.75,1.22.75,2.01,0,.43-.09.85-.27,1.25-.18.4-.44.75-.77,1.06-.34.31-.74.55-1.22.73s-1.01.28-1.61.28c-.67,0-1.26-.1-1.76-.3-.5-.2-.92-.46-1.26-.77-.34-.32-.61-.67-.8-1.07-.19-.39-.31-.79-.36-1.19l1.48-.47c.03.32.11.62.23.91s.29.54.52.77c.23.22.5.4.82.53.32.13.69.2,1.11.2.77,0,1.35-.17,1.73-.52.38-.35.58-.77.58-1.26,0-.4-.14-.76-.41-1.08-.27-.32-.69-.54-1.26-.66l-1.59-.35c-.8-.18-1.46-.52-1.97-1.03s-.77-1.19-.77-2.03c0-.44.09-.86.28-1.26.19-.4.45-.75.78-1.06.33-.31.72-.55,1.18-.73.45-.18.94-.28,1.45-.28.63,0,1.17.09,1.62.26s.82.4,1.12.67c.3.27.54.57.7.9.17.33.28.64.35.95l-1.39.49Z"/>
    <path d="M467.1,64.8c-.21.4-.53.69-.95.88s-.85.28-1.29.28c-.28,0-.53-.03-.75-.09-.22-.06-.42-.13-.61-.23v3.08h-1.48v-10.6h1.48v4.56c0,.26.03.51.09.75s.16.44.3.62.31.32.53.43c.22.11.48.16.8.16.6,0,1.05-.18,1.35-.54s.45-.83.45-1.41v-4.58h1.48v6.19c0,.31,0,.59.02.85.02.26.03.45.06.55h-1.42c-.02-.08-.04-.22-.05-.4-.01-.18-.02-.36-.02-.51Z"/>
    <path d="M471.66,63.27c.05.4.23.74.52,1.01.29.27.71.41,1.25.41.42,0,.74-.1.96-.3.22-.2.33-.44.33-.71,0-.24-.08-.45-.25-.62-.17-.17-.41-.29-.73-.36l-1.3-.28c-.6-.13-1.07-.38-1.4-.76s-.5-.84-.5-1.37c0-.33.07-.63.21-.92s.33-.54.58-.77.53-.4.86-.52c.33-.13.68-.19,1.05-.19.52,0,.95.07,1.3.22.35.15.64.33.86.54s.39.44.5.67c.11.23.19.43.23.6l-1.31.49c-.02-.1-.06-.22-.11-.36s-.14-.29-.25-.42c-.12-.13-.27-.24-.47-.34s-.45-.14-.74-.14c-.38,0-.68.1-.92.31-.23.21-.35.44-.35.7,0,.48.29.79.87.92l1.23.27c.7.15,1.22.42,1.57.81.35.4.53.88.53,1.45,0,.27-.06.55-.17.82-.12.27-.29.53-.51.76-.23.23-.51.42-.86.56-.35.14-.76.21-1.23.21-.53,0-.98-.07-1.35-.22-.37-.15-.68-.33-.93-.55s-.44-.46-.57-.72c-.13-.26-.21-.5-.25-.72l1.34-.47Z"/>
  </g>
  <g>
    <path d="M511.95,58.46c-.01-.08-.02-.16-.02-.23v-.21c0-.48.08-.93.25-1.36s.42-.81.74-1.14c.32-.33.72-.59,1.2-.78.48-.19,1.01-.29,1.62-.29s1.12.09,1.58.27c.46.18.86.42,1.17.73.32.31.56.67.72,1.08.17.41.25.85.25,1.3,0,.73-.19,1.37-.56,1.95s-.88,1.06-1.51,1.45l-2.18,1.39c-.32.2-.6.43-.85.67-.25.24-.41.54-.49.88h5.66v1.55h-7.72c.01-.45.07-.88.16-1.27.1-.4.25-.78.46-1.14.21-.36.48-.71.81-1.03.33-.32.72-.64,1.19-.94l1.84-1.19c.52-.33.9-.69,1.15-1.07.24-.39.37-.79.37-1.22,0-.25-.04-.49-.13-.72s-.21-.44-.38-.62-.38-.33-.65-.43c-.26-.11-.57-.16-.92-.16s-.68.06-.94.18c-.27.12-.49.28-.66.48-.18.2-.31.44-.39.71s-.13.57-.13.88c0,.08,0,.16,0,.24,0,.08.01.16.03.25l-1.67-.2Z"/>
    <path d="M520.81,61.31l4.73-6.61h2.29v6.99h1.89v1.55h-1.89v2.48h-1.62v-2.48h-5.41v-1.92ZM526.21,56.3l-3.88,5.39h3.88v-5.39Z"/>
    <path d="M534.06,56.63l1.94-.66.36,1.14-1.96.65,1.29,1.66-.96.73-1.31-1.72-1.23,1.71-.96-.73,1.25-1.64-1.96-.65.36-1.14,1.93.68v-2.13h1.25v2.12Z"/>
    <path d="M544.09,57.55c-.03-.2-.1-.41-.21-.64-.1-.23-.25-.43-.44-.62-.19-.19-.43-.34-.71-.47s-.62-.18-1.01-.18c-.32,0-.61.05-.87.14-.26.09-.49.23-.69.4-.2.17-.35.37-.45.59-.11.23-.16.47-.16.73,0,.4.12.75.36,1.03.24.29.6.49,1.07.59l1.67.36c.94.21,1.66.59,2.16,1.14.5.55.75,1.22.75,2.01,0,.43-.09.85-.27,1.25-.18.4-.44.75-.77,1.06-.34.31-.74.55-1.22.73s-1.01.28-1.61.28c-.67,0-1.26-.1-1.76-.3-.5-.2-.92-.46-1.26-.77-.34-.32-.61-.67-.8-1.07-.19-.39-.31-.79-.36-1.19l1.48-.47c.03.32.11.62.23.91s.29.54.52.77c.23.22.5.4.82.53.32.13.69.2,1.11.2.77,0,1.35-.17,1.73-.52.38-.35.58-.77.58-1.26,0-.4-.14-.76-.41-1.08-.27-.32-.69-.54-1.26-.66l-1.59-.35c-.8-.18-1.46-.52-1.97-1.03s-.77-1.19-.77-2.03c0-.44.09-.86.28-1.26.19-.4.45-.75.78-1.06.33-.31.72-.55,1.18-.73.45-.18.94-.28,1.45-.28.63,0,1.17.09,1.62.26s.82.4,1.12.67c.3.27.54.57.7.9.17.33.28.64.35.95l-1.39.49Z"/>
    <path d="M556.58,64.8c-.21.4-.53.69-.95.88s-.85.28-1.29.28c-.28,0-.53-.03-.75-.09-.22-.06-.42-.13-.61-.23v3.08h-1.48v-10.6h1.48v4.56c0,.26.03.51.09.75s.16.44.3.62.31.32.53.43c.22.11.48.16.8.16.6,0,1.05-.18,1.35-.54s.45-.83.45-1.41v-4.58h1.48v6.19c0,.31,0,.59.02.85.02.26.03.45.06.55h-1.42c-.02-.08-.04-.22-.05-.4-.01-.18-.02-.36-.02-.51Z"/>
    <path d="M561.15,63.27c.05.4.23.74.52,1.01.29.27.71.41,1.25.41.42,0,.74-.1.96-.3.22-.2.33-.44.33-.71,0-.24-.08-.45-.25-.62-.17-.17-.41-.29-.73-.36l-1.3-.28c-.6-.13-1.07-.38-1.4-.76s-.5-.84-.5-1.37c0-.33.07-.63.21-.92s.33-.54.58-.77.53-.4.86-.52c.33-.13.68-.19,1.05-.19.52,0,.95.07,1.3.22.35.15.64.33.86.54s.39.44.5.67c.11.23.19.43.23.6l-1.31.49c-.02-.1-.06-.22-.11-.36s-.14-.29-.25-.42c-.12-.13-.27-.24-.47-.34s-.45-.14-.74-.14c-.38,0-.68.1-.92.31-.23.21-.35.44-.35.7,0,.48.29.79.87.92l1.23.27c.7.15,1.22.42,1.57.81.35.4.53.88.53,1.45,0,.27-.06.55-.17.82-.12.27-.29.53-.51.76-.23.23-.51.42-.86.56-.35.14-.76.21-1.23.21-.53,0-.98-.07-1.35-.22-.37-.15-.68-.33-.93-.55s-.44-.46-.57-.72c-.13-.26-.21-.5-.25-.72l1.34-.47Z"/>
  </g>
  <g>
    <path d="M597.19,59.22l3.25-2.99h-5.27v-1.53h7.48v1.5l-3.14,2.91c.41,0,.81.07,1.21.2.4.14.77.34,1.09.62.32.28.59.63.79,1.05.2.42.31.91.31,1.48,0,.46-.09.91-.26,1.33-.18.43-.43.8-.77,1.13-.34.33-.76.59-1.25.78-.49.19-1.06.29-1.71.29s-1.2-.1-1.7-.29c-.5-.19-.92-.45-1.27-.77-.35-.32-.62-.69-.81-1.1-.19-.41-.3-.85-.32-1.3l1.63-.37c.01.36.08.69.22.99.14.29.31.54.54.75s.48.36.76.48.6.17.93.17c.37,0,.71-.05,1-.16.29-.11.54-.25.73-.44.19-.19.34-.41.44-.65.1-.25.15-.51.15-.78,0-.36-.07-.67-.2-.94-.13-.26-.3-.47-.52-.64-.22-.16-.46-.29-.72-.37-.27-.08-.54-.12-.81-.12-.33,0-.65.06-.97.17l-.82-1.38Z"/>
    <path d="M607.67,56.63l1.94-.66.36,1.14-1.96.65,1.29,1.66-.96.73-1.31-1.72-1.23,1.71-.96-.73,1.25-1.64-1.96-.65.36-1.14,1.93.68v-2.13h1.25v2.12Z"/>
    <path d="M617.7,57.55c-.03-.2-.1-.41-.21-.64-.1-.23-.25-.43-.44-.62-.19-.19-.43-.34-.71-.47s-.62-.18-1.01-.18c-.32,0-.61.05-.87.14-.26.09-.49.23-.69.4-.2.17-.35.37-.45.59-.11.23-.16.47-.16.73,0,.4.12.75.36,1.03.24.29.6.49,1.07.59l1.67.36c.94.21,1.66.59,2.16,1.14.5.55.75,1.22.75,2.01,0,.43-.09.85-.27,1.25-.18.4-.44.75-.77,1.06-.34.31-.74.55-1.22.73s-1.01.28-1.61.28c-.67,0-1.26-.1-1.76-.3-.5-.2-.92-.46-1.26-.77-.34-.32-.61-.67-.8-1.07-.19-.39-.31-.79-.36-1.19l1.48-.47c.03.32.11.62.23.91s.29.54.52.77c.23.22.5.4.82.53.32.13.69.2,1.11.2.77,0,1.35-.17,1.73-.52.38-.35.58-.77.58-1.26,0-.4-.14-.76-.41-1.08-.27-.32-.69-.54-1.26-.66l-1.59-.35c-.8-.18-1.46-.52-1.97-1.03s-.77-1.19-.77-2.03c0-.44.09-.86.28-1.26.19-.4.45-.75.78-1.06.33-.31.72-.55,1.18-.73.45-.18.94-.28,1.45-.28.63,0,1.17.09,1.62.26s.82.4,1.12.67c.3.27.54.57.7.9.17.33.28.64.35.95l-1.39.49Z"/>
    <path d="M630.19,64.8c-.21.4-.53.69-.95.88s-.85.28-1.29.28c-.28,0-.53-.03-.75-.09-.22-.06-.42-.13-.61-.23v3.08h-1.48v-10.6h1.48v4.56c0,.26.03.51.09.75s.16.44.3.62.31.32.53.43c.22.11.48.16.8.16.6,0,1.05-.18,1.35-.54s.45-.83.45-1.41v-4.58h1.48v6.19c0,.31,0,.59.02.85.02.26.03.45.06.55h-1.42c-.02-.08-.04-.22-.05-.4-.01-.18-.02-.36-.02-.51Z"/>
    <path d="M634.76,63.27c.05.4.23.74.52,1.01.29.27.71.41,1.25.41.42,0,.74-.1.96-.3.22-.2.33-.44.33-.71,0-.24-.08-.45-.25-.62-.17-.17-.41-.29-.73-.36l-1.3-.28c-.6-.13-1.07-.38-1.4-.76s-.5-.84-.5-1.37c0-.33.07-.63.21-.92s.33-.54.58-.77.53-.4.86-.52c.33-.13.68-.19,1.05-.19.52,0,.95.07,1.3.22.35.15.64.33.86.54s.39.44.5.67c.11.23.19.43.23.6l-1.31.49c-.02-.1-.06-.22-.11-.36s-.14-.29-.25-.42c-.12-.13-.27-.24-.47-.34s-.45-.14-.74-.14c-.38,0-.68.1-.92.31-.23.21-.35.44-.35.7,0,.48.29.79.87.92l1.23.27c.7.15,1.22.42,1.57.81.35.4.53.88.53,1.45,0,.27-.06.55-.17.82-.12.27-.29.53-.51.76-.23.23-.51.42-.86.56-.35.14-.76.21-1.23.21-.53,0-.98-.07-1.35-.22-.37-.15-.68-.33-.93-.55s-.44-.46-.57-.72c-.13-.26-.21-.5-.25-.72l1.34-.47Z"/>
  </g>
</svg>