<?xml version="1.0" encoding="UTF-8"?>
<svg id="Layer_1" data-name="Layer 1" xmlns="http://www.w3.org/2000/svg" viewBox="0 0 684 284.97">
  <defs>
    <style>
      .cls-1 {
        stroke: #000;
        stroke-miterlimit: 10;
        stroke-width: .75px;
      }

      .cls-1, .cls-2 {
        fill: none;
      }

      .cls-3 {
        fill: #fff;
      }

      .cls-4 {
        fill: #ffcb0f;
      }

      .cls-5 {
        fill: #d90000;
      }

      .cls-6 {
        fill: #0082fc;
      }

      .cls-7 {
        fill: #80c1fe;
      }
    </style>
  </defs>
  <g>
    <rect class="cls-2" x="61.2" y="24.08" width="82.86" height="27.91"/>
    <path d="M76.52,36.68c-.51,0-.99-.09-1.46-.27-.47-.18-.88-.44-1.23-.79-.36-.34-.64-.77-.86-1.28s-.32-1.08-.32-1.74.11-1.23.33-1.73c.22-.5.51-.92.87-1.27.36-.34.78-.61,1.24-.79s.94-.27,1.42-.27c.45,0,.86.06,1.23.18.37.12.71.28,1,.5.29.21.54.47.74.78s.35.65.46,1.02l-1,.35c-.15-.59-.43-1.05-.84-1.36-.41-.32-.94-.47-1.59-.47-.35,0-.7.06-1.03.19s-.63.32-.89.58c-.26.26-.47.58-.62.96-.15.38-.23.83-.23,1.34s.08.95.23,1.34c.15.38.36.71.62.97.26.26.56.46.89.58.33.13.68.19,1.03.19.33,0,.63-.05.9-.14.27-.09.51-.23.72-.39.21-.17.39-.36.53-.59.14-.23.25-.48.34-.74l.96.35c-.1.37-.26.7-.46,1.01-.21.31-.45.57-.74.79-.29.22-.62.39-1,.52-.38.12-.79.19-1.24.19Z"/>
    <path d="M83.33,31.06c.4,0,.76.07,1.09.21s.62.34.86.59c.24.25.43.54.56.88.13.34.2.71.2,1.12s-.07.78-.2,1.12c-.13.34-.32.64-.56.89-.24.25-.53.45-.86.59-.33.14-.69.21-1.09.21s-.76-.07-1.09-.21c-.33-.14-.62-.34-.86-.59-.24-.25-.43-.55-.56-.89-.13-.34-.2-.72-.2-1.12s.07-.78.2-1.12c.13-.34.32-.64.56-.88.24-.25.53-.45.86-.59s.69-.21,1.09-.21ZM83.33,35.76c.22,0,.43-.04.63-.12.2-.08.37-.2.53-.36.15-.16.28-.36.36-.59.09-.23.13-.51.13-.81s-.04-.58-.13-.81c-.09-.23-.21-.43-.36-.59-.15-.16-.33-.28-.53-.36-.2-.08-.41-.12-.63-.12s-.43.04-.63.12c-.2.08-.37.2-.53.36-.15.16-.28.36-.36.59-.09.23-.13.5-.13.81s.04.58.13.81c.09.24.21.43.36.59.15.16.33.28.53.36.2.08.41.12.63.12Z"/>
    <path d="M91.06,35.71c-.12.26-.32.48-.6.67-.27.19-.62.28-1.04.28-.39,0-.74-.07-1.05-.21-.31-.14-.57-.34-.79-.59-.22-.25-.38-.55-.5-.89-.12-.34-.18-.71-.18-1.11,0-.37.06-.73.18-1.06.12-.33.29-.63.51-.88.22-.25.48-.45.79-.6.31-.15.65-.23,1.02-.23.23,0,.44.03.62.08.18.05.34.12.47.2.13.08.24.18.33.29.09.11.15.21.2.32v-3.42h1.02v6.99c0,.26,0,.47.02.65.01.18.03.29.03.33h-1c-.01-.06-.03-.15-.04-.28-.01-.13-.02-.27-.02-.43v-.09ZM87.97,33.85c0,.27.03.52.1.75.07.23.17.43.3.6.13.17.29.3.48.4.19.1.41.14.66.14.23,0,.45-.05.64-.15.19-.1.35-.23.48-.4.13-.17.23-.37.3-.61.07-.23.1-.49.1-.76,0-.55-.13-.99-.4-1.33s-.64-.51-1.12-.51c-.23,0-.45.05-.64.14s-.36.22-.5.38-.24.36-.31.59c-.07.23-.11.48-.11.75Z"/>
    <path d="M98.43,35.01c-.07.23-.18.45-.32.65-.14.2-.32.38-.52.53s-.43.27-.69.36-.54.13-.85.13c-.35,0-.69-.06-1.01-.19-.32-.12-.61-.31-.85-.55-.25-.24-.44-.54-.58-.89-.14-.35-.21-.75-.21-1.2,0-.42.07-.8.21-1.14.14-.34.32-.63.56-.88.23-.25.5-.44.81-.57s.63-.2.96-.2c.4,0,.76.07,1.08.2s.58.32.8.57c.21.24.38.53.49.87s.17.72.17,1.13c0,.07,0,.13,0,.19,0,.06,0,.11-.02.14h-3.98c0,.23.05.45.13.65.08.2.19.37.34.51.14.14.31.25.51.33.19.08.4.12.62.12.43,0,.76-.1.99-.31.23-.21.39-.46.5-.76l.89.31ZM97.39,33.33c-.01-.38-.14-.7-.38-.96-.24-.26-.6-.39-1.07-.39-.22,0-.42.04-.59.12-.17.08-.32.18-.44.31s-.22.27-.29.43-.11.33-.12.5h2.89Z"/>
    <path d="M102.01,32.02c-.21,0-.41.04-.6.12-.19.08-.36.19-.51.35-.15.15-.27.35-.36.58-.09.23-.13.5-.13.81s.04.57.13.8c.09.23.21.43.35.58.15.16.32.28.52.36.2.08.4.12.62.12.25,0,.46-.04.63-.11.17-.07.31-.17.43-.28s.2-.23.27-.36.11-.24.14-.35l.91.4c-.07.19-.16.38-.29.58s-.29.37-.48.53c-.2.16-.43.29-.7.39-.27.1-.57.15-.92.15-.39,0-.75-.07-1.07-.21-.33-.14-.61-.34-.84-.59-.23-.25-.42-.55-.56-.89s-.2-.71-.2-1.12.07-.79.2-1.13c.14-.34.32-.64.56-.88.24-.25.52-.44.85-.58.33-.14.68-.21,1.05-.21.35,0,.66.05.93.15.27.1.5.23.69.39.19.16.35.34.47.54.12.2.21.4.26.6l-.94.4c-.04-.13-.09-.26-.15-.4-.07-.13-.16-.25-.27-.36-.11-.11-.25-.19-.41-.26-.16-.07-.36-.1-.58-.1Z"/>
    <path d="M108.14,29.22c0-.21.07-.39.21-.53.14-.14.32-.21.52-.21s.39.07.53.21c.14.14.21.32.21.53s-.07.38-.21.52c-.14.14-.32.21-.53.21s-.38-.07-.52-.21c-.14-.14-.21-.32-.21-.52ZM108.37,36.52v-5.29h1.02v5.29h-1.02Z"/>
    <path d="M112.18,36.52h-1.03v-5.29h1.01v.76c.19-.33.43-.56.73-.7.29-.14.59-.21.9-.21s.59.05.83.16.44.25.59.44c.16.19.28.41.35.67.08.26.12.53.12.83v3.35h-1.03v-3.18c0-.18-.02-.36-.06-.52-.04-.16-.11-.3-.21-.42s-.23-.22-.38-.29-.35-.1-.58-.1c-.21,0-.38.04-.54.12-.15.08-.28.18-.38.31-.1.13-.18.29-.23.46-.05.18-.08.36-.08.56v3.06Z"/>
    <path d="M117.33,38.61v-7.38h1v.83c.15-.26.37-.49.67-.67s.67-.28,1.1-.28c.4,0,.75.07,1.05.21.3.14.56.34.76.59.2.25.36.54.46.88.11.34.16.7.16,1.08s-.06.76-.17,1.1c-.11.34-.27.63-.48.89-.21.25-.47.45-.78.59-.3.14-.65.21-1.04.21-.41,0-.76-.08-1.06-.25-.29-.17-.51-.37-.66-.61v2.8h-1.02ZM121.48,33.87c0-.26-.04-.51-.11-.73s-.18-.42-.31-.58c-.13-.17-.3-.3-.49-.39-.19-.1-.41-.14-.65-.14s-.45.05-.64.14c-.19.09-.36.23-.5.39-.14.17-.25.36-.32.58s-.11.47-.11.73.04.52.11.75c.07.23.18.43.32.59.14.17.31.29.5.39s.41.14.64.14.46-.05.65-.14c.19-.09.35-.22.49-.39.14-.16.24-.36.31-.59.07-.23.11-.48.11-.75Z"/>
    <path d="M127.34,35.88c-.15.28-.37.48-.66.61-.29.13-.59.19-.9.19s-.58-.05-.83-.17c-.25-.11-.45-.26-.62-.45-.17-.19-.3-.41-.39-.67-.09-.26-.14-.54-.14-.84v-3.33h1.03v3.18c0,.18.02.36.07.52.04.17.11.31.21.43.1.12.22.22.37.3s.34.11.56.11c.42,0,.73-.12.94-.37.21-.25.31-.58.31-.98v-3.19h1.03v4.31c0,.21,0,.41.02.58.01.17.02.31.04.4h-.99c-.02-.06-.03-.15-.03-.28s-.01-.25-.01-.36Z"/>
    <path d="M131.47,31.23h1.14v.94h-1.14v2.75c0,.24.05.42.17.54.11.12.3.18.57.18.07,0,.14,0,.22-.01.08,0,.14-.02.19-.03v.88s-.13.04-.25.06c-.12.03-.28.04-.45.04-.46,0-.81-.13-1.08-.39-.26-.26-.4-.63-.4-1.12v-2.9h-1.01v-.94h.29c.29,0,.49-.08.62-.23.13-.15.19-.35.19-.58v-.86h.95v1.67Z"/>
    <path d="M69.06,44.03c0-.6.05-1.16.16-1.67.11-.51.25-.98.44-1.41.19-.43.41-.82.67-1.18.26-.36.53-.69.82-.99l.63.55c-.56.63-1.01,1.33-1.34,2.1-.33.77-.49,1.63-.49,2.6s.16,1.84.49,2.61c.33.77.77,1.47,1.34,2.09l-.63.55c-.29-.3-.57-.63-.82-.99-.26-.36-.48-.75-.67-1.18s-.33-.9-.44-1.41c-.11-.51-.16-1.07-.16-1.67Z"/>
    <path d="M73.78,47.52v-5.03h-1.73v-.76c.5-.01.91-.14,1.23-.39.32-.25.52-.56.6-.95h.95v7.13h-1.06Z"/>
    <path d="M76.21,43.95c0-.49.05-.96.14-1.4.1-.44.26-.84.5-1.19.23-.35.53-.63.89-.84.36-.21.79-.31,1.3-.31s.94.1,1.3.31c.36.21.66.48.89.84.23.35.4.75.5,1.19.1.44.14.91.14,1.4s-.05.96-.14,1.4c-.1.44-.26.84-.5,1.19-.23.35-.53.63-.89.84s-.79.31-1.3.31-.94-.1-1.3-.31c-.36-.21-.66-.48-.89-.84-.23-.35-.4-.75-.5-1.19-.1-.44-.14-.91-.14-1.4ZM77.27,43.95c0,1.1.21,1.87.63,2.31.14.15.3.26.48.34.18.08.4.12.65.12s.47-.04.65-.12c.18-.08.34-.19.48-.34.42-.44.63-1.21.63-2.31s-.21-1.87-.63-2.31c-.14-.15-.3-.26-.48-.34-.18-.08-.4-.12-.65-.12s-.47.04-.65.12c-.18.08-.34.19-.48.34-.42.44-.63,1.21-.63,2.31Z"/>
    <path d="M83.29,47.52v-5.29h.99v.7c.17-.29.4-.51.7-.65.3-.14.6-.21.91-.21.33,0,.64.08.93.24.29.16.51.42.65.76.21-.38.48-.64.79-.79.31-.14.64-.21.98-.21.23,0,.45.04.67.12.22.08.42.2.59.37s.31.37.41.63.15.55.15.9v3.43h-1.02v-3.32c0-.34-.09-.63-.27-.86-.18-.23-.46-.35-.85-.35-.37,0-.66.13-.89.38s-.34.57-.34.95v3.2h-1.03v-3.32c0-.34-.09-.63-.26-.86-.18-.23-.46-.35-.86-.35-.37,0-.67.12-.9.37-.22.25-.34.57-.34.97v3.19h-1.02Z"/>
    <path d="M93.16,45.81c.04.28.16.51.36.7.21.19.5.29.87.29.29,0,.52-.07.67-.21.15-.14.23-.3.23-.5,0-.17-.06-.31-.18-.43s-.29-.2-.51-.25l-.9-.2c-.42-.09-.74-.26-.97-.53-.23-.26-.35-.58-.35-.96,0-.23.05-.44.15-.64.1-.2.23-.38.4-.53.17-.15.37-.27.6-.36.23-.09.47-.13.73-.13.36,0,.66.05.91.15s.45.23.6.38.27.31.35.47c.08.16.13.3.16.42l-.91.34c-.01-.07-.04-.15-.08-.25-.04-.1-.1-.2-.18-.29s-.19-.17-.33-.24c-.14-.07-.31-.1-.52-.1-.26,0-.48.07-.64.21-.16.14-.24.31-.24.49,0,.34.2.55.6.64l.86.19c.48.1.85.29,1.09.57.25.28.37.61.37,1.01,0,.19-.04.38-.12.57-.08.19-.2.37-.36.53-.16.16-.36.29-.6.39-.24.1-.53.15-.86.15-.37,0-.68-.05-.94-.15-.26-.1-.48-.23-.65-.39-.17-.15-.3-.32-.4-.5-.09-.18-.15-.35-.17-.5l.94-.33Z"/>
    <path d="M101.83,43.16v4.36h-1.07v-4.36h-.98v-.94h.98v-.89c0-.29.05-.55.14-.78s.22-.42.37-.57c.16-.15.34-.27.55-.35.21-.08.43-.12.68-.12.18,0,.32.01.42.04s.17.05.19.07v.92s-.08-.03-.15-.04c-.07-.01-.17-.02-.3-.02-.09,0-.18.01-.28.04-.1.03-.19.07-.27.14-.08.07-.15.16-.2.27-.05.12-.08.27-.08.45v.84h1.28v.94h-1.28Z"/>
    <path d="M107.15,43.27c-.15-.02-.3-.03-.45-.03-.43,0-.78.13-1.05.38s-.4.67-.4,1.25v2.65h-1.03v-5.29h1.01v.92c.1-.21.21-.37.34-.5s.26-.23.4-.31c.14-.08.28-.13.43-.16.15-.03.29-.04.42-.04.07,0,.14,0,.2.01.06,0,.11.02.14.02v1.1Z"/>
    <path d="M107.92,46.1c0-.23.04-.45.12-.63.08-.19.19-.35.34-.48.14-.13.31-.24.51-.32.2-.08.41-.14.64-.18l1.43-.21c.16-.02.27-.07.32-.14.05-.07.08-.16.08-.25,0-.26-.09-.48-.27-.67-.18-.19-.47-.28-.87-.28-.37,0-.65.1-.85.3-.2.2-.32.46-.35.76l-.99-.23c.03-.25.1-.48.23-.69.12-.21.28-.39.47-.54.19-.15.41-.27.67-.35s.52-.13.81-.13c.4,0,.73.05,1.01.16s.51.25.68.42c.18.18.3.38.38.62.08.23.12.48.12.74v2.65c0,.24,0,.42.02.56s.03.24.04.31h-1.01c-.01-.07-.03-.15-.04-.26-.01-.11-.02-.26-.02-.45-.06.1-.14.19-.23.3s-.21.2-.35.29-.3.16-.49.21c-.19.05-.4.08-.63.08-.27,0-.52-.04-.73-.13s-.4-.2-.56-.35c-.15-.14-.27-.31-.36-.5-.08-.19-.13-.39-.13-.61ZM109.83,46.81c.21,0,.41-.03.6-.08s.35-.14.48-.26c.14-.12.24-.28.32-.48.08-.2.12-.45.12-.73v-.24l-1.62.24c-.22.04-.4.12-.55.25-.15.13-.22.31-.22.54,0,.2.08.38.23.53.15.16.36.24.63.24Z"/>
    <path d="M114,47.52v-5.29h.99v.7c.17-.29.4-.51.7-.65.3-.14.6-.21.91-.21.33,0,.64.08.93.24.29.16.51.42.65.76.21-.38.48-.64.79-.79.31-.14.64-.21.98-.21.23,0,.45.04.67.12.22.08.42.2.59.37s.31.37.41.63.15.55.15.9v3.43h-1.02v-3.32c0-.34-.09-.63-.27-.86-.18-.23-.46-.35-.85-.35-.37,0-.66.13-.89.38s-.34.57-.34.95v3.2h-1.03v-3.32c0-.34-.09-.63-.26-.86-.18-.23-.46-.35-.86-.35-.37,0-.67.12-.9.37-.22.25-.34.57-.34.97v3.19h-1.02Z"/>
    <path d="M128.04,46.01c-.07.23-.18.45-.32.65-.14.2-.32.38-.52.53s-.43.27-.69.36-.54.13-.85.13c-.35,0-.69-.06-1.01-.19-.32-.12-.61-.31-.85-.55-.25-.24-.44-.54-.58-.89-.14-.35-.21-.75-.21-1.2,0-.42.07-.8.21-1.14.14-.34.32-.63.56-.88.23-.25.5-.44.81-.57s.63-.2.96-.2c.4,0,.76.07,1.08.2s.58.32.8.57c.21.24.38.53.49.87s.17.72.17,1.13c0,.07,0,.13,0,.19,0,.06,0,.11-.02.14h-3.98c0,.23.05.45.13.65.08.2.19.37.34.51.14.14.31.25.51.33.19.08.4.12.62.12.43,0,.76-.1.99-.31.23-.21.39-.46.5-.76l.89.31ZM126.99,44.33c-.01-.38-.14-.7-.38-.96-.24-.26-.6-.39-1.07-.39-.22,0-.42.04-.59.12-.17.08-.32.18-.44.31s-.22.27-.29.43-.11.33-.12.5h2.89Z"/>
    <path d="M129.83,45.81c.04.28.16.51.36.7.21.19.5.29.87.29.29,0,.52-.07.67-.21.15-.14.23-.3.23-.5,0-.17-.06-.31-.18-.43s-.29-.2-.51-.25l-.9-.2c-.42-.09-.74-.26-.97-.53-.23-.26-.35-.58-.35-.96,0-.23.05-.44.15-.64.1-.2.23-.38.4-.53.17-.15.37-.27.6-.36.23-.09.47-.13.73-.13.36,0,.66.05.91.15s.45.23.6.38.27.31.35.47c.08.16.13.3.16.42l-.91.34c-.01-.07-.04-.15-.08-.25-.04-.1-.1-.2-.18-.29s-.19-.17-.33-.24c-.14-.07-.31-.1-.52-.1-.26,0-.48.07-.64.21-.16.14-.24.31-.24.49,0,.34.2.55.6.64l.86.19c.48.1.85.29,1.09.57.25.28.37.61.37,1.01,0,.19-.04.38-.12.57-.08.19-.2.37-.36.53-.16.16-.36.29-.6.39-.24.1-.53.15-.86.15-.37,0-.68-.05-.94-.15-.26-.1-.48-.23-.65-.39-.17-.15-.3-.32-.4-.5-.09-.18-.15-.35-.17-.5l.94-.33Z"/>
    <path d="M136.2,44.03c0,.6-.05,1.16-.16,1.67-.11.51-.25.98-.44,1.41s-.41.82-.67,1.18c-.26.36-.53.69-.83.99l-.63-.55c.56-.62,1-1.32,1.33-2.09.33-.77.5-1.64.5-2.61,0-.48-.04-.94-.13-1.38-.08-.43-.21-.84-.36-1.23s-.35-.75-.58-1.1c-.23-.34-.48-.67-.76-.99l.63-.55c.29.3.57.63.83.99.26.36.48.75.67,1.18.19.43.33.9.44,1.41.11.51.16,1.07.16,1.67Z"/>
  </g>
  <g>
    <rect x="544.65" y="139.88" width="101.35" height="22.02"/>
    <g>
      <path class="cls-3" d="M581.99,148.7c-.13-.02-.26-.03-.39-.03-.37,0-.67.11-.9.34-.23.23-.34.6-.34,1.11v2.36h-.89v-4.71h.87v.82c.08-.18.18-.33.29-.45s.23-.21.35-.27c.12-.07.24-.12.37-.14.13-.03.25-.04.36-.04.06,0,.12,0,.17,0,.05,0,.09.01.12.02v.98Z"/>
      <path class="cls-3" d="M586.95,151.14c-.06.21-.16.4-.28.58s-.27.34-.45.47c-.17.13-.37.24-.59.32-.22.08-.46.12-.73.12-.3,0-.59-.06-.87-.17-.28-.11-.52-.27-.73-.49-.21-.22-.38-.48-.5-.79s-.18-.67-.18-1.07c0-.37.06-.71.18-1.01.12-.3.28-.57.48-.78.2-.22.43-.39.7-.51.26-.12.54-.18.82-.18.35,0,.66.06.93.18s.5.29.69.5c.18.22.32.48.42.78s.15.64.15,1c0,.06,0,.11,0,.17,0,.05,0,.09-.01.13h-3.43c0,.21.04.4.11.58s.17.33.29.46c.12.13.27.23.44.29.17.07.34.1.53.1.37,0,.66-.09.85-.27.2-.18.34-.41.43-.68l.77.27ZM586.05,149.64c-.01-.34-.12-.63-.33-.86-.21-.23-.51-.35-.92-.35-.19,0-.36.03-.51.1-.15.07-.27.16-.38.27-.1.11-.19.24-.25.39-.06.14-.1.29-.1.44h2.49Z"/>
      <path class="cls-3" d="M590.13,148.48c-.18,0-.36.03-.52.1-.16.07-.31.17-.44.31-.13.14-.23.31-.31.51-.08.21-.11.45-.11.72s.04.5.11.71c.08.21.18.38.3.52.13.14.27.25.44.32.17.07.35.11.53.11.21,0,.4-.03.54-.1.15-.07.27-.15.37-.25.1-.1.17-.2.23-.32.06-.11.1-.22.12-.31l.79.35c-.06.17-.14.34-.25.51-.11.17-.25.33-.42.47-.17.14-.37.26-.6.35-.23.09-.49.13-.79.13-.33,0-.64-.06-.92-.19-.28-.13-.52-.3-.72-.53-.2-.23-.36-.49-.48-.79-.12-.3-.17-.63-.17-.99s.06-.7.17-1.01c.12-.31.28-.57.48-.79s.45-.39.73-.51c.28-.12.58-.19.9-.19.3,0,.57.04.8.13.23.09.43.2.6.35s.3.31.4.49c.1.18.18.36.23.53l-.8.35c-.03-.12-.08-.24-.13-.35-.06-.12-.13-.22-.23-.32s-.22-.17-.36-.24c-.14-.06-.31-.09-.5-.09Z"/>
      <path class="cls-3" d="M597.29,151.14c-.06.21-.16.4-.28.58s-.27.34-.45.47c-.17.13-.37.24-.59.32-.22.08-.46.12-.73.12-.3,0-.59-.06-.87-.17-.28-.11-.52-.27-.73-.49-.21-.22-.38-.48-.5-.79s-.18-.67-.18-1.07c0-.37.06-.71.18-1.01.12-.3.28-.57.48-.78.2-.22.43-.39.7-.51.26-.12.54-.18.82-.18.35,0,.66.06.93.18s.5.29.69.5c.18.22.32.48.42.78s.15.64.15,1c0,.06,0,.11,0,.17,0,.05,0,.09-.01.13h-3.43c0,.21.04.4.11.58s.17.33.29.46c.12.13.27.23.44.29.17.07.34.1.53.1.37,0,.66-.09.85-.27.2-.18.34-.41.43-.68l.77.27ZM596.39,149.64c-.01-.34-.12-.63-.33-.86-.21-.23-.51-.35-.92-.35-.19,0-.36.03-.51.1-.15.07-.27.16-.38.27-.1.11-.19.24-.25.39-.06.14-.1.29-.1.44h2.49Z"/>
      <path class="cls-3" d="M598.27,145.99c0-.19.06-.35.18-.48.12-.13.27-.19.45-.19s.34.06.46.19c.12.13.19.29.19.48s-.06.34-.19.47c-.12.13-.28.19-.46.19s-.33-.06-.45-.19c-.12-.13-.18-.28-.18-.47ZM598.47,152.49v-4.71h.88v4.71h-.88Z"/>
      <path class="cls-3" d="M603.01,152.49h-.9l-1.85-4.71h1l1.3,3.64,1.31-3.64h.96l-1.82,4.71Z"/>
      <path class="cls-3" d="M609.59,151.14c-.06.21-.16.4-.28.58s-.27.34-.45.47c-.17.13-.37.24-.59.32-.22.08-.46.12-.73.12-.3,0-.59-.06-.87-.17-.28-.11-.52-.27-.73-.49-.21-.22-.38-.48-.5-.79s-.18-.67-.18-1.07c0-.37.06-.71.18-1.01.12-.3.28-.57.48-.78.2-.22.43-.39.7-.51.26-.12.54-.18.82-.18.35,0,.66.06.93.18s.5.29.69.5c.18.22.32.48.42.78s.15.64.15,1c0,.06,0,.11,0,.17,0,.05,0,.09-.01.13h-3.43c0,.21.04.4.11.58s.17.33.29.46c.12.13.27.23.44.29.17.07.34.1.53.1.37,0,.66-.09.85-.27.2-.18.34-.41.43-.68l.77.27ZM608.69,149.64c-.01-.34-.12-.63-.33-.86-.21-.23-.51-.35-.92-.35-.19,0-.36.03-.51.1-.15.07-.27.16-.38.27-.1.11-.19.24-.25.39-.06.14-.1.29-.1.44h2.49Z"/>
    </g>
  </g>
  <polygon points="519.37 150.89 557.29 173.94 557.29 127.85 519.37 150.89"/>
  <g>
    <rect class="cls-4" x="387.22" y="243.43" width="7.25" height="7.25"/>
    <g>
      <path d="M401.02,247.73c.02.17.09.31.22.42s.3.17.52.17c.18,0,.31-.04.4-.12.09-.08.14-.18.14-.3,0-.1-.04-.19-.11-.26s-.17-.12-.3-.15l-.54-.12c-.25-.05-.45-.16-.58-.32-.14-.16-.21-.35-.21-.57,0-.14.03-.26.09-.38.06-.12.14-.23.24-.32.1-.09.22-.16.36-.22s.28-.08.44-.08c.21,0,.4.03.54.09.15.06.27.14.36.23.09.09.16.18.21.28s.08.18.1.25l-.55.2s-.02-.09-.05-.15c-.02-.06-.06-.12-.11-.17-.05-.05-.11-.1-.2-.14-.08-.04-.19-.06-.31-.06-.16,0-.29.04-.38.13s-.14.18-.14.29c0,.2.12.33.36.38l.51.11c.29.06.51.17.66.34.15.16.22.37.22.6,0,.12-.02.23-.07.34-.05.11-.12.22-.21.32-.09.1-.21.17-.36.23-.14.06-.32.09-.51.09-.22,0-.41-.03-.56-.09-.16-.06-.29-.14-.39-.23-.1-.09-.18-.19-.24-.3-.06-.11-.09-.21-.1-.3l.56-.2Z"/>
      <path d="M404.56,245.59h.69v.56h-.69v1.65c0,.14.03.25.1.33.07.07.18.11.34.11.04,0,.08,0,.13,0,.05,0,.09-.01.11-.02v.53s-.08.02-.15.04c-.08.02-.17.02-.27.02-.27,0-.49-.08-.65-.23-.16-.16-.24-.38-.24-.67v-1.74h-.61v-.56h.17c.17,0,.3-.05.37-.14.08-.09.12-.21.12-.35v-.51h.57v1Z"/>
      <path d="M405.87,247.9c0-.14.02-.27.07-.38.05-.11.12-.21.2-.29.09-.08.19-.14.31-.19.12-.05.25-.08.38-.11l.86-.12c.1-.01.16-.04.19-.09.03-.04.05-.09.05-.15,0-.15-.05-.29-.16-.4s-.28-.17-.52-.17c-.22,0-.39.06-.51.18-.12.12-.19.27-.21.46l-.59-.14c.02-.15.06-.29.13-.42.07-.13.17-.24.28-.33.11-.09.25-.16.4-.21.15-.05.31-.08.48-.08.24,0,.44.03.61.1s.3.15.41.25c.11.11.18.23.23.37s.07.29.07.44v1.59c0,.14,0,.25.01.34,0,.08.02.14.03.18h-.61s-.02-.09-.02-.16c0-.07-.01-.16-.01-.27-.04.06-.08.12-.14.18-.06.06-.13.12-.21.17s-.18.1-.29.13c-.11.03-.24.05-.38.05-.16,0-.31-.03-.44-.08-.13-.05-.24-.12-.33-.21s-.16-.19-.21-.3c-.05-.12-.08-.24-.08-.36ZM407.02,248.33c.13,0,.25-.02.36-.05.11-.03.21-.09.29-.16s.15-.17.19-.29.07-.27.07-.44v-.14l-.97.14c-.13.02-.24.07-.33.15-.09.08-.13.19-.13.33,0,.12.05.23.14.32.09.09.22.14.38.14Z"/>
      <path d="M411.27,246.21c-.09-.01-.18-.02-.27-.02-.26,0-.47.08-.63.23-.16.15-.24.4-.24.75v1.59h-.62v-3.17h.61v.55c.06-.12.12-.22.2-.3s.16-.14.24-.18c.08-.05.17-.08.26-.09s.17-.03.25-.03c.04,0,.08,0,.12,0,.04,0,.06,0,.08.01v.66Z"/>
      <path d="M412.93,245.59h.69v.56h-.69v1.65c0,.14.03.25.1.33.07.07.18.11.34.11.04,0,.08,0,.13,0,.05,0,.09-.01.11-.02v.53s-.08.02-.15.04c-.08.02-.17.02-.27.02-.27,0-.49-.08-.65-.23-.16-.16-.24-.38-.24-.67v-1.74h-.61v-.56h.17c.17,0,.3-.05.37-.14.08-.09.12-.21.12-.35v-.51h.57v1Z"/>
      <path d="M417.44,245.49c.24,0,.45.04.65.13.2.08.37.2.51.35.14.15.26.33.34.53.08.21.12.43.12.67s-.04.47-.12.67-.19.38-.34.53c-.15.15-.32.27-.51.35-.2.09-.42.13-.65.13s-.45-.04-.65-.13c-.2-.09-.37-.2-.51-.35-.14-.15-.26-.33-.34-.53s-.12-.43-.12-.67.04-.46.12-.67c.08-.2.19-.38.34-.53.15-.15.32-.27.51-.35.2-.09.42-.13.65-.13ZM417.44,248.3c.13,0,.26-.02.38-.07.12-.05.22-.12.32-.22.09-.1.17-.21.22-.36s.08-.3.08-.49-.03-.35-.08-.48c-.05-.14-.12-.26-.22-.35-.09-.1-.2-.17-.32-.22-.12-.05-.24-.07-.38-.07s-.26.02-.38.07c-.12.05-.22.12-.32.22-.09.1-.17.21-.22.35-.05.14-.08.3-.08.48s.03.35.08.49.12.26.22.36c.09.1.2.17.32.22.12.05.24.07.38.07Z"/>
      <path d="M420.68,246.15v2.61h-.64v-2.61h-.59v-.56h.59v-.53c0-.18.03-.33.08-.47.06-.14.13-.25.22-.34.09-.09.2-.16.33-.21.12-.05.26-.07.41-.07.11,0,.19,0,.25.03.06.02.1.03.12.04v.55s-.05-.02-.09-.03c-.04,0-.1-.01-.18-.01-.05,0-.11,0-.17.02s-.11.04-.17.08c-.05.04-.09.1-.12.17-.03.07-.05.16-.05.27v.5h.76v.56h-.76Z"/>
      <path d="M426.22,245.35c-.01-.08-.04-.17-.09-.27-.04-.09-.11-.18-.18-.26-.08-.08-.18-.14-.3-.19-.12-.05-.26-.08-.42-.08-.13,0-.25.02-.36.06-.11.04-.21.09-.29.17s-.14.15-.19.25c-.04.09-.07.2-.07.31,0,.17.05.31.15.43.1.12.25.2.45.25l.7.15c.39.09.69.25.9.47.21.23.31.51.31.84,0,.18-.04.35-.11.52-.07.17-.18.31-.32.44s-.31.23-.51.31c-.2.08-.42.12-.67.12-.28,0-.53-.04-.73-.12-.21-.08-.38-.19-.53-.32s-.25-.28-.33-.44c-.08-.17-.13-.33-.15-.5l.62-.2c.01.13.04.26.1.38s.12.23.22.32c.09.09.21.17.34.22.13.06.29.08.46.08.32,0,.56-.07.72-.22.16-.15.24-.32.24-.53,0-.17-.06-.32-.17-.45-.11-.13-.29-.23-.53-.27l-.67-.15c-.33-.08-.61-.22-.82-.43-.21-.21-.32-.5-.32-.85,0-.18.04-.36.12-.53s.19-.31.33-.44c.14-.13.3-.23.49-.31.19-.08.39-.12.61-.12.26,0,.49.04.67.11.19.07.34.17.47.28.12.11.22.24.29.38s.12.27.15.39l-.58.21Z"/>
      <path d="M427.72,248.75v-4.67h1.63c.29,0,.58.05.85.15.27.1.51.25.71.45s.36.44.48.73c.12.29.18.63.18,1.01s-.06.72-.18,1.01c-.12.29-.28.53-.49.73-.21.2-.45.34-.71.44-.27.1-.55.15-.85.15h-1.62ZM429.33,248.18c.21,0,.42-.04.61-.11s.36-.18.51-.33c.15-.14.26-.33.34-.55.08-.22.12-.48.12-.77s-.04-.55-.12-.77c-.08-.22-.2-.41-.34-.55-.14-.15-.31-.26-.5-.33-.19-.07-.39-.11-.61-.11h-.97v3.52h.96Z"/>
      <path d="M434.08,248.85c-.24,0-.46-.04-.66-.11s-.38-.18-.53-.32-.27-.32-.36-.53-.13-.45-.13-.73v-3.08h.64v3.06c0,.36.09.63.27.82.18.19.44.29.77.29s.58-.1.76-.29c.18-.19.27-.47.27-.82v-3.06h.65v3.08c0,.28-.04.52-.13.73-.09.21-.2.39-.36.53-.15.14-.33.25-.53.32s-.42.11-.66.11Z"/>
    </g>
  </g>
  <g>
    <rect class="cls-5" x="387.22" y="256" width="7.25" height="7.25"/>
    <g>
      <path d="M403.51,260.42c-.04.14-.11.27-.19.39-.09.12-.19.23-.31.32-.12.09-.26.16-.41.21s-.32.08-.51.08c-.21,0-.41-.04-.61-.11-.19-.07-.36-.18-.51-.33-.15-.14-.26-.32-.35-.53s-.13-.45-.13-.72c0-.25.04-.48.12-.68.08-.21.19-.38.33-.53.14-.15.3-.26.48-.34.18-.08.38-.12.57-.12.24,0,.46.04.65.12.19.08.35.19.48.34.13.14.22.32.29.52s.1.43.1.67c0,.04,0,.08,0,.11,0,.04,0,.06,0,.08h-2.38c0,.14.03.27.08.39.05.12.12.22.2.31.09.09.19.15.3.2.12.05.24.07.37.07.26,0,.46-.06.59-.18.14-.12.23-.27.3-.45l.53.18ZM402.89,259.42c0-.23-.09-.42-.23-.58-.15-.16-.36-.23-.64-.23-.13,0-.25.02-.35.07-.1.05-.19.11-.26.18s-.13.16-.17.26c-.04.1-.07.2-.07.3h1.73Z"/>
      <path d="M404.94,261.33h-.62v-3.17h.61v.45c.11-.2.26-.34.43-.42.18-.08.36-.12.54-.12s.35.03.5.1.26.15.36.26c.09.11.16.25.21.4.05.15.07.32.07.49v2.01h-.62v-1.9c0-.11-.01-.21-.04-.31s-.07-.18-.12-.25-.14-.13-.23-.17c-.09-.04-.21-.06-.35-.06-.12,0-.23.02-.32.07-.09.05-.17.11-.23.19-.06.08-.11.17-.14.28-.03.11-.05.22-.05.34v1.83Z"/>
      <path d="M410.25,260.84c-.07.15-.19.29-.36.4-.17.11-.37.17-.62.17-.23,0-.44-.04-.63-.13s-.34-.2-.47-.36c-.13-.15-.23-.33-.3-.53s-.11-.42-.11-.66.04-.44.11-.64c.07-.2.17-.38.31-.53s.29-.27.47-.36.39-.13.61-.13c.14,0,.26.02.37.05.11.03.2.07.28.12s.15.11.2.17c.05.06.09.13.12.19v-2.05h.61v4.18c0,.15,0,.28.01.39,0,.11.01.17.02.2h-.6s-.02-.09-.02-.17c0-.08-.01-.16-.01-.26v-.05ZM408.39,259.73c0,.16.02.31.06.45.04.14.1.26.18.36.08.1.18.18.29.24.11.06.25.09.39.09.14,0,.27-.03.38-.09.11-.06.21-.14.29-.24.08-.1.14-.22.18-.36.04-.14.06-.29.06-.45,0-.33-.08-.59-.24-.8-.16-.2-.38-.3-.67-.3-.14,0-.27.03-.39.08s-.21.13-.3.23-.14.22-.19.35-.07.29-.07.45Z"/>
      <path d="M414.9,258.06c.24,0,.45.04.65.13.2.09.37.2.51.35.14.15.26.33.34.53s.12.43.12.67-.04.47-.12.67c-.08.21-.19.38-.34.53-.15.15-.32.27-.51.35-.2.09-.42.13-.65.13s-.45-.04-.65-.13c-.2-.08-.37-.2-.51-.35-.14-.15-.26-.33-.34-.53-.08-.21-.12-.43-.12-.67s.04-.46.12-.67.19-.38.34-.53c.15-.15.32-.27.51-.35.2-.09.42-.13.65-.13ZM414.9,260.87c.13,0,.26-.02.38-.07.12-.05.22-.12.32-.22.09-.1.17-.22.22-.36.05-.14.08-.3.08-.49s-.03-.35-.08-.48c-.05-.14-.12-.26-.22-.35-.09-.1-.2-.17-.32-.22-.12-.05-.24-.07-.38-.07s-.26.02-.38.07c-.12.05-.22.12-.32.22-.09.1-.17.21-.22.35-.05.14-.08.3-.08.48s.03.35.08.49c.05.14.12.26.22.36.09.1.2.17.32.22.12.05.24.07.38.07Z"/>
      <path d="M418.14,258.72v2.61h-.64v-2.61h-.59v-.56h.59v-.53c0-.17.03-.33.08-.47.06-.14.13-.25.22-.34.09-.09.2-.16.33-.21.12-.05.26-.07.41-.07.11,0,.19,0,.25.03.06.02.1.03.12.04v.55s-.05-.02-.09-.03c-.04,0-.1-.01-.18-.01-.05,0-.11,0-.17.02-.06.01-.11.04-.17.08-.05.04-.09.09-.12.17-.03.07-.05.16-.05.27v.5h.76v.56h-.76Z"/>
      <path d="M423.68,257.92c-.01-.08-.04-.17-.09-.27-.04-.09-.11-.18-.18-.26-.08-.08-.18-.14-.3-.19-.12-.05-.26-.08-.42-.08-.13,0-.25.02-.36.06-.11.04-.21.09-.29.17s-.14.15-.19.25-.07.2-.07.31c0,.17.05.31.15.43.1.12.25.2.45.25l.7.15c.39.09.69.25.9.47.21.23.31.51.31.84,0,.18-.04.35-.11.52-.07.17-.18.31-.32.44-.14.13-.31.23-.51.31-.2.08-.42.12-.67.12-.28,0-.53-.04-.73-.12-.21-.08-.38-.19-.53-.32s-.25-.28-.33-.44-.13-.33-.15-.5l.62-.2c.01.13.04.26.1.38.05.12.12.23.22.32.09.09.21.17.34.22.13.06.29.08.46.08.32,0,.56-.07.72-.22s.24-.32.24-.53c0-.17-.06-.32-.17-.45-.11-.13-.29-.23-.53-.27l-.67-.15c-.33-.07-.61-.22-.82-.43-.21-.21-.32-.5-.32-.85,0-.18.04-.36.12-.53s.19-.31.33-.44c.14-.13.3-.23.49-.31.19-.08.39-.12.61-.12.26,0,.49.04.67.11s.34.17.47.28.22.24.29.38c.07.14.12.27.15.4l-.58.2Z"/>
      <path d="M425.19,261.33v-4.67h1.63c.29,0,.58.05.85.15.27.1.51.25.71.45.2.2.36.44.48.73s.18.63.18,1.01-.06.72-.18,1.01-.28.53-.49.73c-.21.2-.45.34-.71.44-.27.1-.55.15-.85.15h-1.62ZM426.79,260.75c.21,0,.42-.04.61-.11s.36-.18.51-.33.26-.33.34-.55c.08-.22.12-.48.12-.77s-.04-.55-.12-.77c-.08-.22-.2-.41-.34-.55s-.31-.26-.5-.33c-.19-.07-.39-.11-.61-.11h-.97v3.52h.96Z"/>
      <path d="M431.54,261.42c-.24,0-.46-.04-.66-.11-.2-.07-.38-.18-.53-.32s-.27-.32-.36-.53-.13-.45-.13-.73v-3.08h.64v3.06c0,.36.09.63.27.82.18.19.44.29.77.29s.58-.1.76-.29c.18-.19.27-.47.27-.82v-3.06h.65v3.08c0,.28-.04.52-.13.73-.09.21-.2.39-.36.53-.15.14-.33.25-.53.32-.2.07-.42.11-.66.11Z"/>
    </g>
  </g>
  <g>
    <g>
      <g>
        <rect class="cls-7" x="381.33" y="70.04" width="124.49" height="24.58"/>
        <path class="cls-6" d="M502.31,73.54v17.58h-117.49v-17.58h117.49M509.31,66.54h-131.49v31.58h131.49v-31.58h0Z"/>
      </g>
      <g>
        <path class="cls-3" d="M431.08,79.76l1.36-1.13h-2.44v-.93h3.87v.9l-1.43,1.14c.2.02.39.06.58.14.19.07.35.17.49.3.14.13.26.29.34.48s.13.4.13.64-.05.46-.15.67c-.1.21-.24.39-.42.55-.18.16-.4.28-.65.37-.25.09-.54.14-.85.14s-.59-.04-.83-.13c-.24-.09-.45-.2-.62-.33-.18-.13-.32-.29-.43-.46-.11-.18-.18-.36-.22-.55l.96-.39c.05.28.17.5.38.66.21.17.46.25.75.25s.53-.08.71-.23.26-.34.26-.56c0-.29-.1-.5-.31-.62-.2-.12-.43-.18-.66-.18-.08,0-.15,0-.22.01-.07,0-.13.02-.18.04l-.41-.8ZM431.43,86.96l6.66-9.25h1.29l-6.63,9.25h-1.31ZM435.78,84.87l2.53-3.14h1.21v3.26h.91v.93h-.91v1.03h-1.1v-1.03h-2.64v-1.04ZM438.43,83l-1.59,1.99h1.59v-1.99Z"/>
        <path class="cls-3" d="M442.44,86.96v-10.13h6.16v1.3h-4.76v3.26h4.31v1.31h-4.31v4.26h-1.4Z"/>
        <path class="cls-3" d="M451.62,86.96v-6.53h-2.24v-.99c.65-.02,1.18-.19,1.6-.51.42-.32.68-.73.79-1.24h1.23v9.25h-1.37Z"/>
      </g>
    </g>
    <rect class="cls-4" x="384.98" y="73.61" width="17.49" height="17.49"/>
    <path class="cls-3" d="M395.26,79.89c-.02-.14-.07-.29-.14-.45-.07-.16-.18-.3-.31-.43-.13-.13-.3-.24-.5-.33-.2-.08-.43-.13-.7-.13-.22,0-.42.03-.6.1-.18.07-.34.16-.48.28s-.24.25-.31.41c-.07.16-.11.33-.11.51,0,.28.08.52.25.72.17.2.42.34.75.41l1.17.25c.65.15,1.15.41,1.5.79.35.38.52.85.52,1.4,0,.3-.06.59-.19.87-.12.28-.3.52-.54.74-.23.21-.52.38-.85.51s-.7.19-1.12.19c-.47,0-.88-.07-1.23-.21-.35-.14-.64-.32-.88-.54-.24-.22-.42-.47-.56-.74s-.22-.55-.25-.83l1.03-.33c.02.22.08.43.16.63.08.2.21.38.36.53.16.15.35.28.57.37.22.09.48.14.78.14.54,0,.94-.12,1.2-.36s.4-.54.4-.88c0-.28-.09-.53-.29-.75-.19-.22-.48-.38-.88-.46l-1.11-.24c-.56-.12-1.01-.36-1.37-.72-.36-.36-.53-.83-.53-1.41,0-.31.07-.6.2-.88.13-.28.31-.52.54-.74.23-.21.5-.38.82-.51.32-.13.65-.19,1.01-.19.44,0,.82.06,1.13.18s.57.28.78.47.37.4.49.63.2.45.24.66l-.97.34Z"/>
  </g>
  <g>
    <g>
      <g>
        <rect class="cls-7" x="381.33" y="208.12" width="124.49" height="24.58"/>
        <path class="cls-6" d="M502.31,211.62v17.58h-117.49v-17.58h117.49M509.31,204.62h-131.49v31.58h131.49v-31.58h0Z"/>
      </g>
      <g>
        <path class="cls-3" d="M429.19,221v-3.5h-1.23v-.74c.35,0,.65-.11.89-.29s.38-.41.43-.68h1.01v5.21h-1.1ZM428.31,225.04l6.66-9.25h1.29l-6.63,9.25h-1.31ZM433.87,221.83c-.02-.08-.03-.15-.04-.24,0-.08,0-.15,0-.21,0-.23.04-.44.13-.64.09-.2.21-.38.37-.53s.36-.27.59-.37c.23-.09.5-.13.79-.13s.56.04.79.13c.23.09.42.21.59.36.16.15.29.32.37.52.09.2.13.41.13.63,0,.33-.09.63-.27.89-.18.26-.42.49-.73.68l-1.03.64c-.11.08-.2.16-.29.24s-.14.18-.16.29h2.5v.93h-3.83v-.19c0-.43.1-.82.29-1.16s.5-.65.93-.91l.86-.53c.41-.25.61-.55.61-.9,0-.19-.07-.36-.2-.5-.13-.14-.32-.21-.57-.21s-.45.08-.59.23-.22.35-.22.6c0,.03,0,.08,0,.16s.02.15.04.21h-1.06Z"/>
        <path class="cls-3" d="M439.58,225.04v-10.12h6.16v1.3h-4.76v3.26h4.31v1.31h-4.31v4.26h-1.4Z"/>
        <path class="cls-3" d="M448.7,219.59l2.73-2.51h-4.43v-1.29h6.28v1.26l-2.64,2.44c.34,0,.68.06,1.02.17s.64.29.91.52c.27.23.49.53.66.88.17.35.26.77.26,1.24,0,.39-.07.76-.22,1.12-.15.36-.36.67-.65.95-.29.28-.63.5-1.05.66-.42.16-.89.24-1.44.24s-1.01-.08-1.43-.24-.77-.38-1.06-.65c-.29-.27-.52-.58-.68-.93s-.25-.71-.27-1.09l1.37-.31c0,.3.07.58.19.83.11.25.26.46.45.63s.4.3.64.4c.24.1.5.14.78.14.31,0,.59-.05.84-.14.25-.09.45-.21.61-.37.16-.16.29-.34.37-.55.09-.21.13-.43.13-.66,0-.3-.05-.57-.16-.79-.11-.22-.25-.4-.44-.54-.18-.14-.38-.24-.61-.31-.22-.07-.45-.1-.68-.1-.28,0-.55.05-.81.14l-.69-1.16Z"/>
      </g>
    </g>
    <rect class="cls-5" x="384.59" y="211.3" width="17.88" height="17.88"/>
    <path class="cls-3" d="M391.32,225.04v-7.8h4.74v1h-3.66v2.4h3.32v1.01h-3.32v2.39h3.66v1h-4.74Z"/>
  </g>
  <g>
    <line class="cls-1" x1="217.58" y1="115.35" x2="173.52" y2="115.35"/>
    <polygon points="174.34 112.54 169.49 115.35 174.34 118.15 174.34 112.54"/>
  </g>
  <g>
    <rect x="217.59" y="104.34" width="101.35" height="22.02"/>
    <g>
      <path class="cls-3" d="M246.18,114.16c-.13-.02-.26-.03-.39-.03-.37,0-.67.11-.9.34-.23.23-.34.6-.34,1.11v2.36h-.89v-4.71h.87v.82c.08-.18.18-.33.29-.45.11-.12.23-.21.35-.28.12-.07.24-.12.37-.14.13-.03.25-.04.36-.04.06,0,.12,0,.17,0,.05,0,.09.01.12.02v.98Z"/>
      <path class="cls-3" d="M251.14,116.6c-.06.21-.16.4-.28.58s-.27.34-.45.47c-.17.13-.37.24-.59.32-.22.08-.46.12-.73.12-.3,0-.59-.06-.87-.17-.28-.11-.52-.27-.73-.49-.21-.22-.38-.48-.5-.79s-.18-.67-.18-1.07c0-.37.06-.71.18-1.01.12-.3.28-.57.48-.78.2-.22.43-.39.7-.51.26-.12.54-.18.82-.18.35,0,.66.06.93.18s.5.29.69.5c.18.22.32.48.42.78s.15.64.15,1c0,.06,0,.11,0,.17,0,.05,0,.1-.01.13h-3.43c0,.21.04.4.11.58s.17.33.29.46.27.23.44.29c.17.07.34.1.53.1.37,0,.66-.09.85-.27.2-.18.34-.41.43-.68l.77.27ZM250.24,115.1c-.01-.34-.12-.62-.33-.86s-.51-.35-.92-.35c-.19,0-.36.03-.51.1-.15.07-.27.16-.38.27-.1.11-.19.24-.25.39-.06.14-.1.29-.1.44h2.49Z"/>
      <path class="cls-3" d="M252.06,116.68c0-.21.03-.4.1-.56s.17-.31.29-.43c.12-.12.27-.21.44-.28.17-.07.35-.12.55-.16l1.23-.19c.14-.02.23-.06.28-.13.05-.07.07-.14.07-.23,0-.23-.08-.43-.23-.59-.15-.17-.41-.25-.75-.25-.32,0-.56.09-.73.27-.17.18-.27.41-.3.68l-.85-.21c.02-.22.09-.43.19-.62.1-.19.24-.35.4-.49s.36-.24.57-.31c.22-.08.45-.11.7-.11.34,0,.63.05.87.14s.44.22.59.38c.15.16.26.34.33.55s.1.43.1.66v2.36c0,.21,0,.38.02.5s.03.22.04.27h-.87c-.01-.06-.02-.14-.03-.24,0-.1-.01-.23-.01-.4-.05.09-.12.17-.2.27s-.18.18-.3.25c-.12.08-.26.14-.42.19-.16.05-.34.07-.54.07-.23,0-.44-.04-.63-.12-.19-.08-.35-.18-.48-.31s-.24-.28-.31-.45-.11-.35-.11-.54ZM253.71,117.31c.18,0,.36-.02.52-.07.16-.05.3-.13.42-.24.12-.11.21-.25.28-.43.07-.18.1-.4.1-.65v-.22l-1.39.22c-.19.03-.35.11-.47.22s-.19.28-.19.49c0,.18.07.33.2.48s.31.21.54.21Z"/>
      <path class="cls-3" d="M257.75,116.42c.03.25.14.46.31.63s.43.25.75.25c.25,0,.44-.06.58-.19s.2-.27.2-.44c0-.15-.05-.28-.15-.38-.1-.1-.25-.18-.44-.22l-.78-.18c-.36-.08-.64-.24-.84-.47-.2-.24-.3-.52-.3-.85,0-.2.04-.39.13-.57.08-.18.2-.34.34-.48.15-.14.32-.25.52-.32.2-.08.41-.12.63-.12.31,0,.57.05.78.14.21.09.38.2.52.34.13.13.23.27.3.42.07.14.11.27.14.37l-.79.3c-.01-.06-.04-.13-.07-.22-.03-.09-.08-.18-.15-.26-.07-.08-.16-.15-.28-.21s-.27-.09-.45-.09c-.23,0-.41.06-.55.19s-.21.27-.21.44c0,.3.17.49.52.57l.74.17c.42.09.73.26.94.51.21.24.32.54.32.9,0,.17-.03.34-.1.51-.07.17-.17.33-.31.47-.14.14-.31.26-.52.35-.21.09-.45.13-.74.13-.32,0-.58-.05-.81-.14-.22-.09-.41-.21-.56-.34-.15-.14-.26-.29-.34-.45-.08-.16-.13-.31-.15-.45l.8-.29Z"/>
      <path class="cls-3" d="M262.13,116.42c.03.25.14.46.31.63s.43.25.75.25c.25,0,.44-.06.58-.19s.2-.27.2-.44c0-.15-.05-.28-.15-.38-.1-.1-.25-.18-.44-.22l-.78-.18c-.36-.08-.64-.24-.84-.47-.2-.24-.3-.52-.3-.85,0-.2.04-.39.13-.57.08-.18.2-.34.34-.48.15-.14.32-.25.52-.32.2-.08.41-.12.63-.12.31,0,.57.05.78.14.21.09.38.2.52.34.13.13.23.27.3.42.07.14.11.27.14.37l-.79.3c-.01-.06-.04-.13-.07-.22-.03-.09-.08-.18-.15-.26-.07-.08-.16-.15-.28-.21s-.27-.09-.45-.09c-.23,0-.41.06-.55.19s-.21.27-.21.44c0,.3.17.49.52.57l.74.17c.42.09.73.26.94.51.21.24.32.54.32.9,0,.17-.03.34-.1.51-.07.17-.17.33-.31.47-.14.14-.31.26-.52.35-.21.09-.45.13-.74.13-.32,0-.58-.05-.81-.14-.22-.09-.41-.21-.56-.34-.15-.14-.26-.29-.34-.45-.08-.16-.13-.31-.15-.45l.8-.29Z"/>
      <path class="cls-3" d="M270.04,116.6c-.06.21-.16.4-.28.58s-.27.34-.45.47c-.17.13-.37.24-.59.32-.22.08-.46.12-.73.12-.3,0-.59-.06-.87-.17-.28-.11-.52-.27-.73-.49-.21-.22-.38-.48-.5-.79s-.18-.67-.18-1.07c0-.37.06-.71.18-1.01.12-.3.28-.57.48-.78.2-.22.43-.39.7-.51.26-.12.54-.18.82-.18.35,0,.66.06.93.18s.5.29.69.5c.18.22.32.48.42.78s.15.64.15,1c0,.06,0,.11,0,.17,0,.05,0,.1-.01.13h-3.43c0,.21.04.4.11.58s.17.33.29.46.27.23.44.29c.17.07.34.1.53.1.37,0,.66-.09.85-.27.2-.18.34-.41.43-.68l.77.27ZM269.14,115.1c-.01-.34-.12-.62-.33-.86s-.51-.35-.92-.35c-.19,0-.36.03-.51.1-.15.07-.27.16-.38.27-.1.11-.19.24-.25.39-.06.14-.1.29-.1.44h2.49Z"/>
      <path class="cls-3" d="M271.24,117.94v-4.71h.85v.63c.14-.26.35-.46.6-.58.26-.12.52-.19.78-.19.28,0,.55.07.8.22s.44.37.56.68c.18-.34.41-.57.68-.7s.55-.19.84-.19c.2,0,.39.04.58.11.19.07.36.18.51.33.15.15.27.33.36.56.09.23.13.49.13.8v3.06h-.88v-2.96c0-.31-.08-.56-.23-.77-.16-.21-.4-.31-.73-.31-.32,0-.57.11-.76.34-.19.22-.29.51-.29.85v2.85h-.89v-2.96c0-.31-.08-.56-.23-.77-.15-.21-.4-.31-.74-.31-.32,0-.58.11-.77.33-.19.22-.29.51-.29.86v2.84h-.88Z"/>
      <path class="cls-3" d="M279.35,117.94v-7.1h.88v3.05c.11-.21.29-.4.55-.56.26-.16.58-.25.96-.25.35,0,.65.06.91.19s.48.3.65.53c.18.23.31.49.4.79.09.3.13.62.13.96s-.05.68-.14.98c-.09.3-.23.57-.41.79-.18.22-.4.4-.66.53-.26.13-.56.2-.9.2s-.64-.07-.88-.22c-.25-.14-.45-.34-.59-.6v.69h-.88ZM282.92,115.56c0-.51-.12-.91-.36-1.21-.24-.3-.57-.45-.99-.45-.2,0-.38.04-.54.12s-.31.19-.43.33-.21.31-.28.52c-.07.21-.1.44-.1.69s.03.49.1.7c.07.21.16.39.28.54.12.15.26.26.43.34s.35.12.54.12c.41,0,.74-.15.98-.46.24-.31.36-.71.36-1.22Z"/>
      <path class="cls-3" d="M285.02,117.94v-7.1h.89v7.1h-.89Z"/>
      <path class="cls-3" d="M287.64,119.91l1.14-2.49-1.96-4.2h1.02l1.42,3.25,1.36-3.25h.96l-2.96,6.68h-.98Z"/>
    </g>
  </g>
  <g>
    <rect class="cls-6" x="38" y="99.55" width="131.49" height="31.58"/>
    <g>
      <path class="cls-3" d="M98.57,119.97v-10.13h6.16v1.3h-4.76v3.26h4.31v1.31h-4.31v4.26h-1.4Z"/>
      <path class="cls-3" d="M107.76,119.97v-6.53h-2.24v-.99c.65-.02,1.18-.19,1.6-.51.42-.32.68-.73.79-1.24h1.23v9.25h-1.37Z"/>
    </g>
  </g>
  <g>
    <line class="cls-1" x1="217.58" y1="186.5" x2="173.52" y2="186.5"/>
    <polygon points="174.34 183.69 169.49 186.5 174.34 189.3 174.34 183.69"/>
  </g>
  <g>
    <rect x="217.59" y="175.49" width="101.35" height="22.02"/>
    <g>
      <path class="cls-3" d="M246.18,185.31c-.13-.02-.26-.03-.39-.03-.37,0-.67.11-.9.34s-.34.6-.34,1.11v2.36h-.89v-4.71h.87v.82c.08-.18.18-.33.29-.45s.23-.21.35-.27c.12-.07.24-.12.37-.14.13-.03.25-.04.36-.04.06,0,.12,0,.17,0s.09.01.12.02v.98Z"/>
      <path class="cls-3" d="M251.14,187.75c-.06.21-.16.4-.28.58s-.27.34-.45.47c-.17.13-.37.24-.59.32-.22.08-.46.12-.73.12-.3,0-.59-.06-.87-.17-.28-.11-.52-.27-.73-.49-.21-.22-.38-.48-.5-.79s-.18-.67-.18-1.07c0-.37.06-.71.18-1.01.12-.3.28-.57.48-.78.2-.22.43-.39.7-.51.26-.12.54-.18.82-.18.35,0,.66.06.93.18.27.12.5.29.69.5.18.22.32.48.42.78s.15.64.15,1c0,.06,0,.11,0,.17,0,.05,0,.09-.01.13h-3.43c0,.21.04.4.11.58.07.18.17.33.29.46.12.13.27.23.44.29.17.07.34.1.53.1.37,0,.66-.09.85-.27.2-.18.34-.41.43-.68l.77.27ZM250.24,186.25c-.01-.34-.12-.62-.33-.86-.21-.23-.51-.35-.92-.35-.19,0-.36.03-.51.1s-.27.16-.38.27c-.1.11-.19.24-.25.39-.06.14-.1.29-.1.44h2.49Z"/>
      <path class="cls-3" d="M252.06,187.83c0-.21.03-.4.1-.56.07-.17.17-.31.29-.43.12-.12.27-.21.44-.29.17-.07.35-.12.55-.16l1.23-.19c.14-.02.23-.06.28-.13s.07-.14.07-.23c0-.23-.08-.43-.23-.59-.15-.17-.41-.25-.75-.25-.32,0-.56.09-.73.27-.17.18-.27.41-.3.68l-.85-.21c.02-.22.09-.43.19-.62.1-.19.24-.35.4-.49s.36-.24.57-.31.45-.11.7-.11c.34,0,.63.05.87.14s.44.22.59.38c.15.16.26.34.33.55s.1.43.1.66v2.36c0,.21,0,.38.02.5s.03.22.04.27h-.87c-.01-.06-.02-.14-.03-.24,0-.1-.01-.23-.01-.4-.05.08-.12.17-.2.26s-.18.18-.3.25c-.12.08-.26.14-.42.19-.16.05-.34.07-.54.07-.23,0-.44-.04-.63-.12-.19-.08-.35-.18-.48-.31-.13-.13-.24-.28-.31-.45-.07-.17-.11-.35-.11-.54ZM253.71,188.47c.18,0,.36-.02.52-.07.16-.05.3-.13.42-.24.12-.11.21-.25.28-.43s.1-.4.1-.65v-.21l-1.39.21c-.19.03-.35.11-.47.22s-.19.28-.19.49c0,.18.07.33.2.48s.31.21.54.21Z"/>
      <path class="cls-3" d="M257.75,187.58c.03.25.14.46.31.63s.43.25.75.25c.25,0,.44-.06.58-.19s.2-.27.2-.44c0-.15-.05-.28-.15-.38-.1-.1-.25-.18-.44-.23l-.78-.18c-.36-.08-.64-.24-.84-.47-.2-.24-.3-.52-.3-.85,0-.2.04-.39.13-.57.08-.18.2-.34.34-.48.15-.14.32-.25.52-.32.2-.08.41-.12.63-.12.31,0,.57.04.78.14.21.09.38.2.52.34.13.13.23.27.3.42.07.14.11.27.14.37l-.79.3c-.01-.06-.04-.13-.07-.23-.03-.09-.08-.18-.15-.26-.07-.08-.16-.15-.28-.21s-.27-.09-.45-.09c-.23,0-.41.06-.55.19-.14.13-.21.27-.21.44,0,.3.17.49.52.57l.74.17c.42.09.73.26.94.5.21.25.32.54.32.9,0,.17-.03.34-.1.51-.07.17-.17.33-.31.47-.14.14-.31.26-.52.35-.21.09-.45.13-.74.13-.32,0-.58-.05-.81-.14-.22-.09-.41-.21-.56-.34-.15-.14-.26-.29-.34-.45-.08-.16-.13-.31-.15-.45l.8-.29Z"/>
      <path class="cls-3" d="M262.13,187.58c.03.25.14.46.31.63s.43.25.75.25c.25,0,.44-.06.58-.19s.2-.27.2-.44c0-.15-.05-.28-.15-.38-.1-.1-.25-.18-.44-.23l-.78-.18c-.36-.08-.64-.24-.84-.47-.2-.24-.3-.52-.3-.85,0-.2.04-.39.13-.57.08-.18.2-.34.34-.48.15-.14.32-.25.52-.32.2-.08.41-.12.63-.12.31,0,.57.04.78.14.21.09.38.2.52.34.13.13.23.27.3.42.07.14.11.27.14.37l-.79.3c-.01-.06-.04-.13-.07-.23-.03-.09-.08-.18-.15-.26-.07-.08-.16-.15-.28-.21s-.27-.09-.45-.09c-.23,0-.41.06-.55.19-.14.13-.21.27-.21.44,0,.3.17.49.52.57l.74.17c.42.09.73.26.94.5.21.25.32.54.32.9,0,.17-.03.34-.1.51-.07.17-.17.33-.31.47-.14.14-.31.26-.52.35-.21.09-.45.13-.74.13-.32,0-.58-.05-.81-.14-.22-.09-.41-.21-.56-.34-.15-.14-.26-.29-.34-.45-.08-.16-.13-.31-.15-.45l.8-.29Z"/>
      <path class="cls-3" d="M270.04,187.75c-.06.21-.16.4-.28.58s-.27.34-.45.47c-.17.13-.37.24-.59.32-.22.08-.46.12-.73.12-.3,0-.59-.06-.87-.17-.28-.11-.52-.27-.73-.49-.21-.22-.38-.48-.5-.79s-.18-.67-.18-1.07c0-.37.06-.71.18-1.01.12-.3.28-.57.48-.78.2-.22.43-.39.7-.51.26-.12.54-.18.82-.18.35,0,.66.06.93.18.27.12.5.29.69.5.18.22.32.48.42.78s.15.64.15,1c0,.06,0,.11,0,.17,0,.05,0,.09-.01.13h-3.43c0,.21.04.4.11.58.07.18.17.33.29.46.12.13.27.23.44.29.17.07.34.1.53.1.37,0,.66-.09.85-.27.2-.18.34-.41.43-.68l.77.27ZM269.14,186.25c-.01-.34-.12-.62-.33-.86-.21-.23-.51-.35-.92-.35-.19,0-.36.03-.51.1s-.27.16-.38.27c-.1.11-.19.24-.25.39-.06.14-.1.29-.1.44h2.49Z"/>
      <path class="cls-3" d="M271.24,189.09v-4.71h.85v.63c.14-.26.35-.45.6-.58.26-.12.52-.19.78-.19.28,0,.55.07.8.21.25.14.44.37.56.68.18-.34.41-.57.68-.7.27-.13.55-.19.84-.19.2,0,.39.04.58.11s.36.18.51.33c.15.15.27.33.36.56.09.23.13.49.13.8v3.06h-.88v-2.96c0-.31-.08-.56-.23-.77-.16-.21-.4-.31-.73-.31-.32,0-.57.11-.76.34s-.29.51-.29.85v2.85h-.89v-2.96c0-.31-.08-.56-.23-.77s-.4-.31-.74-.31c-.32,0-.58.11-.77.33-.19.22-.29.51-.29.86v2.84h-.88Z"/>
      <path class="cls-3" d="M279.35,189.09v-7.1h.88v3.05c.11-.21.29-.4.55-.56.26-.16.58-.25.96-.25.35,0,.65.06.91.19.26.13.48.3.65.53.18.23.31.49.4.79.09.3.13.62.13.96s-.05.68-.14.99-.23.57-.41.79c-.18.23-.4.4-.66.53s-.56.2-.9.2-.64-.07-.88-.22c-.25-.14-.45-.34-.59-.6v.69h-.88ZM282.92,186.71c0-.51-.12-.91-.36-1.21-.24-.3-.57-.45-.99-.45-.2,0-.38.04-.54.12s-.31.19-.43.33c-.12.14-.21.31-.28.52-.07.21-.1.44-.1.69s.03.49.1.7.16.39.28.53c.12.15.26.26.43.34s.35.12.54.12c.41,0,.74-.15.98-.46.24-.31.36-.72.36-1.23Z"/>
      <path class="cls-3" d="M285.02,189.09v-7.1h.89v7.1h-.89Z"/>
      <path class="cls-3" d="M287.64,191.07l1.14-2.49-1.96-4.2h1.02l1.42,3.25,1.36-3.25h.96l-2.96,6.69h-.98Z"/>
    </g>
  </g>
  <g>
    <rect class="cls-6" x="38" y="170.71" width="131.49" height="31.58"/>
    <g>
      <path class="cls-3" d="M96.06,191.13v-10.13h6.16v1.3h-4.76v3.26h4.31v1.31h-4.31v4.26h-1.4Z"/>
      <path class="cls-3" d="M103.26,185.03c0-.07-.01-.13-.01-.19v-.18c0-.4.07-.78.21-1.14.14-.36.35-.68.62-.96s.61-.5,1.01-.66c.4-.16.85-.24,1.36-.24s.94.08,1.33.23c.39.15.72.36.99.61.27.26.47.56.61.91s.21.71.21,1.09c0,.61-.16,1.15-.47,1.63-.31.48-.74.89-1.27,1.22l-1.83,1.17c-.27.17-.5.36-.71.56-.21.2-.35.45-.42.74h4.76v1.3h-6.48c0-.38.05-.74.14-1.07s.21-.65.39-.96c.18-.3.4-.59.68-.86s.61-.54,1-.79l1.54-1c.44-.28.76-.58.96-.9.2-.32.31-.67.31-1.03,0-.21-.04-.41-.11-.61-.07-.2-.18-.37-.32-.52-.14-.15-.32-.27-.54-.36-.22-.09-.48-.14-.77-.14s-.57.05-.79.15c-.22.1-.41.24-.56.41-.15.17-.26.37-.33.6-.07.23-.11.48-.11.74,0,.07,0,.13,0,.2s.01.14.02.21l-1.4-.17Z"/>
    </g>
  </g>
  <g>
    <rect class="cls-2" x="402.14" y="24.08" width="82.86" height="27.91"/>
    <path d="M414.79,33.33h-1.17v3.19h-1.09v-7.8h2.94c.37,0,.7.06,1,.18.3.12.55.29.75.5.21.21.36.46.47.74.11.28.17.58.17.91,0,.56-.17,1.05-.5,1.45-.33.4-.8.65-1.39.76l1.86,3.27h-1.25l-1.78-3.19ZM415.28,32.36c.44,0,.8-.12,1.07-.36s.41-.56.41-.96-.14-.75-.41-.99-.63-.36-1.07-.36h-1.65v2.67h1.65Z"/>
    <path d="M418.91,35.1c0-.23.04-.45.12-.63.08-.19.19-.35.34-.48.14-.13.31-.24.51-.32.2-.08.41-.14.64-.18l1.43-.21c.16-.02.27-.07.32-.14.05-.07.08-.16.08-.25,0-.26-.09-.48-.27-.67-.18-.19-.47-.28-.87-.28-.37,0-.65.1-.85.3-.2.2-.32.46-.35.76l-.99-.23c.03-.25.1-.48.23-.69.12-.21.28-.39.47-.54.19-.15.41-.27.67-.35s.52-.13.81-.13c.4,0,.73.05,1.01.16s.51.25.68.42c.18.18.3.38.38.62.08.23.12.48.12.74v2.65c0,.24,0,.42.02.56s.03.24.04.31h-1.01c-.01-.07-.03-.15-.04-.26-.01-.11-.02-.26-.02-.45-.06.1-.14.19-.23.3s-.21.2-.35.29-.3.16-.49.21c-.19.05-.4.08-.63.08-.27,0-.52-.04-.73-.13s-.4-.2-.56-.35c-.15-.14-.27-.31-.36-.5-.08-.19-.13-.39-.13-.61ZM420.82,35.81c.21,0,.41-.03.6-.08s.35-.14.48-.26c.14-.12.24-.28.32-.48.08-.2.12-.45.12-.73v-.24l-1.62.24c-.22.04-.4.12-.55.25-.15.13-.22.31-.22.54,0,.2.08.38.23.53.15.16.36.24.63.24Z"/>
    <path d="M428.7,35.71c-.12.26-.32.48-.6.67-.27.19-.62.28-1.04.28-.39,0-.74-.07-1.05-.21-.31-.14-.57-.34-.79-.59-.22-.25-.38-.55-.5-.89-.12-.34-.18-.71-.18-1.11,0-.37.06-.73.18-1.06.12-.33.29-.63.51-.88.22-.25.48-.45.79-.6.31-.15.65-.23,1.02-.23.23,0,.44.03.62.08.18.05.34.12.47.2.13.08.24.18.33.29.09.11.15.21.2.32v-3.42h1.02v6.99c0,.26,0,.47.02.65.01.18.03.29.03.33h-1c-.01-.06-.03-.15-.04-.28-.01-.13-.02-.27-.02-.43v-.09ZM425.61,33.85c0,.27.03.52.1.75.07.23.17.43.3.6.13.17.29.3.48.4.19.1.41.14.66.14.23,0,.45-.05.64-.15.19-.1.35-.23.48-.4.13-.17.23-.37.3-.61.07-.23.1-.49.1-.76,0-.55-.13-.99-.4-1.33s-.64-.51-1.12-.51c-.23,0-.45.05-.64.14s-.36.22-.5.38-.24.36-.31.59c-.07.23-.11.48-.11.75Z"/>
    <path d="M431.23,29.22c0-.21.07-.39.21-.53.14-.14.32-.21.52-.21s.39.07.53.21c.14.14.21.32.21.53s-.07.38-.21.52c-.14.14-.32.21-.53.21s-.38-.07-.52-.21c-.14-.14-.21-.32-.21-.52ZM431.46,36.52v-5.29h1.02v5.29h-1.02Z"/>
    <path d="M436.51,31.06c.4,0,.76.07,1.09.21s.62.34.86.59c.24.25.43.54.56.88.13.34.2.71.2,1.12s-.07.78-.2,1.12c-.13.34-.32.64-.56.89-.24.25-.53.45-.86.59-.33.14-.69.21-1.09.21s-.76-.07-1.09-.21c-.33-.14-.62-.34-.86-.59-.24-.25-.43-.55-.56-.89-.13-.34-.2-.72-.2-1.12s.07-.78.2-1.12c.13-.34.32-.64.56-.88.24-.25.53-.45.86-.59s.69-.21,1.09-.21ZM436.51,35.76c.22,0,.43-.04.63-.12.2-.08.37-.2.53-.36.15-.16.28-.36.36-.59.09-.23.13-.51.13-.81s-.04-.58-.13-.81c-.09-.23-.21-.43-.36-.59-.15-.16-.33-.28-.53-.36-.2-.08-.41-.12-.63-.12s-.43.04-.63.12c-.2.08-.37.2-.53.36-.15.16-.28.36-.36.59-.09.23-.13.5-.13.81s.04.58.13.81c.09.24.21.43.36.59.15.16.33.28.53.36.2.08.41.12.63.12Z"/>
    <path d="M444.47,33.33v3.19h-1.08v-7.8h2.84c.36,0,.69.06.98.18.3.12.55.28.76.49s.37.45.49.73c.12.28.18.58.18.91s-.06.64-.18.92-.28.52-.49.73c-.21.2-.46.36-.76.48-.3.12-.63.18-.98.18h-1.76ZM446.03,32.36c.47,0,.84-.12,1.11-.36s.4-.56.4-.96-.13-.75-.4-.99-.64-.36-1.11-.36h-1.56v2.67h1.56Z"/>
    <path d="M449.19,35.1c0-.23.04-.45.12-.63.08-.19.19-.35.34-.48.14-.13.31-.24.51-.32.2-.08.41-.14.64-.18l1.43-.21c.16-.02.27-.07.32-.14.05-.07.08-.16.08-.25,0-.26-.09-.48-.27-.67-.18-.19-.47-.28-.87-.28-.37,0-.65.1-.85.3-.2.2-.32.46-.35.76l-.99-.23c.03-.25.1-.48.23-.69.12-.21.28-.39.47-.54.19-.15.41-.27.67-.35s.52-.13.81-.13c.4,0,.73.05,1.01.16s.51.25.68.42c.18.18.3.38.38.62.08.23.12.48.12.74v2.65c0,.24,0,.42.02.56s.03.24.04.31h-1.01c-.01-.07-.03-.15-.04-.26-.01-.11-.02-.26-.02-.45-.06.1-.14.19-.23.3s-.21.2-.35.29-.3.16-.49.21c-.19.05-.4.08-.63.08-.27,0-.52-.04-.73-.13s-.4-.2-.56-.35c-.15-.14-.27-.31-.36-.5-.08-.19-.13-.39-.13-.61ZM451.1,35.81c.21,0,.41-.03.6-.08s.35-.14.48-.26c.14-.12.24-.28.32-.48.08-.2.12-.45.12-.73v-.24l-1.62.24c-.22.04-.4.12-.55.25-.15.13-.22.31-.22.54,0,.2.08.38.23.53.15.16.36.24.63.24Z"/>
    <path d="M457.49,32.02c-.21,0-.41.04-.6.12-.19.08-.36.19-.51.35-.15.15-.27.35-.36.58-.09.23-.13.5-.13.81s.04.57.13.8c.09.23.21.43.35.58.15.16.32.28.52.36.2.08.4.12.62.12.25,0,.46-.04.63-.11.17-.07.31-.17.43-.28s.2-.23.27-.36.11-.24.14-.35l.91.4c-.07.19-.16.38-.29.58s-.29.37-.48.53c-.2.16-.43.29-.7.39-.27.1-.57.15-.92.15-.39,0-.75-.07-1.07-.21-.33-.14-.61-.34-.84-.59-.23-.25-.42-.55-.56-.89s-.2-.71-.2-1.12.07-.79.2-1.13c.14-.34.32-.64.56-.88.24-.25.52-.44.85-.58.33-.14.68-.21,1.05-.21.35,0,.66.05.93.15.27.1.5.23.69.39.19.16.35.34.47.54.12.2.21.4.26.6l-.94.4c-.04-.13-.09-.26-.15-.4-.07-.13-.16-.25-.27-.36-.11-.11-.25-.19-.41-.26-.16-.07-.36-.1-.58-.1Z"/>
    <path d="M463.59,33.46l2.3,3.06h-1.3l-1.73-2.33-.74.74v1.59h-1.02v-7.96h1.02v5.02l2.29-2.34h1.43l-2.25,2.23Z"/>
    <path d="M471.21,35.01c-.07.23-.18.45-.32.65-.14.2-.32.38-.52.53s-.43.27-.69.36-.54.13-.85.13c-.35,0-.69-.06-1.01-.19-.32-.12-.61-.31-.85-.55-.25-.24-.44-.54-.58-.89-.14-.35-.21-.75-.21-1.2,0-.42.07-.8.21-1.14.14-.34.32-.63.56-.88.23-.25.5-.44.81-.57s.63-.2.96-.2c.4,0,.76.07,1.08.2s.58.32.8.57c.21.24.38.53.49.87s.17.72.17,1.13c0,.07,0,.13,0,.19,0,.06,0,.11-.02.14h-3.98c0,.23.05.45.13.65.08.2.19.37.34.51.14.14.31.25.51.33.19.08.4.12.62.12.43,0,.76-.1.99-.31.23-.21.39-.46.5-.76l.89.31ZM470.17,33.33c-.01-.38-.14-.7-.38-.96-.24-.26-.6-.39-1.07-.39-.22,0-.42.04-.59.12-.17.08-.32.18-.44.31s-.22.27-.29.43-.11.33-.12.5h2.89Z"/>
    <path d="M473.95,31.23h1.14v.94h-1.14v2.75c0,.24.05.42.17.54.11.12.3.18.57.18.07,0,.14,0,.22-.01.08,0,.14-.02.19-.03v.88s-.13.04-.25.06c-.12.03-.28.04-.45.04-.46,0-.81-.13-1.08-.39-.26-.26-.4-.63-.4-1.12v-2.9h-1.01v-.94h.29c.29,0,.49-.08.62-.23.13-.15.19-.35.19-.58v-.86h.95v1.67Z"/>
    <path d="M408.5,44.03c0-.6.05-1.16.16-1.67.11-.51.25-.98.44-1.41.19-.43.41-.82.67-1.18.26-.36.53-.69.82-.99l.63.55c-.56.63-1.01,1.33-1.34,2.1-.33.77-.49,1.63-.49,2.6s.16,1.84.49,2.61c.33.77.77,1.47,1.34,2.09l-.63.55c-.29-.3-.57-.63-.82-.99-.26-.36-.48-.75-.67-1.18s-.33-.9-.44-1.41c-.11-.51-.16-1.07-.16-1.67Z"/>
    <path d="M416.91,41.42c-.17.13-.4.35-.7.64-.3.3-.61.69-.92,1.19-.32.5-.6,1.09-.86,1.79-.26.7-.43,1.52-.52,2.47h-1.11c.04-.51.11-1,.21-1.45.11-.45.23-.87.37-1.25.14-.38.3-.74.47-1.06.17-.32.35-.61.52-.86.4-.59.85-1.1,1.35-1.52h-4.01v-.99h5.2v1.03Z"/>
    <path d="M416.52,46.81c0-.21.07-.39.22-.54.15-.15.33-.23.54-.23s.39.08.54.23c.15.15.23.33.23.54s-.08.39-.23.54c-.15.15-.33.22-.54.22s-.39-.07-.54-.22c-.15-.15-.22-.33-.22-.54Z"/>
    <path d="M420.24,45.27c.04.44.2.8.5,1.07.29.27.66.41,1.11.41.21,0,.41-.03.6-.1.19-.07.35-.16.48-.29s.24-.28.32-.46c.08-.18.12-.37.12-.59,0-.24-.04-.46-.13-.64-.08-.19-.2-.34-.34-.46-.14-.12-.3-.21-.49-.27-.19-.06-.38-.09-.59-.09-.26,0-.5.05-.73.14-.23.09-.42.22-.57.38-.19-.07-.37-.14-.53-.21-.17-.07-.34-.14-.52-.2l.92-3.54h3.76v.99h-3.05l-.53,2.05c.16-.18.37-.31.64-.4.26-.09.54-.13.81-.13.35,0,.67.06.97.17.29.11.55.27.76.47.22.2.38.45.51.74.12.29.18.62.18.99,0,.34-.06.65-.19.95-.12.29-.3.55-.53.77-.23.22-.5.39-.83.52-.32.13-.68.19-1.08.19s-.73-.06-1.04-.17-.58-.27-.81-.46-.41-.42-.55-.68-.21-.52-.24-.8l1.03-.31Z"/>
    <path d="M425.73,47.52v-5.29h.99v.7c.17-.29.4-.51.7-.65.3-.14.6-.21.91-.21.33,0,.64.08.93.24.29.16.51.42.65.76.21-.38.48-.64.79-.79.31-.14.64-.21.98-.21.23,0,.45.04.67.12.22.08.42.2.59.37s.31.37.41.63.15.55.15.9v3.43h-1.02v-3.32c0-.34-.09-.63-.27-.86-.18-.23-.46-.35-.85-.35-.37,0-.66.13-.89.38s-.34.57-.34.95v3.2h-1.03v-3.32c0-.34-.09-.63-.26-.86-.18-.23-.46-.35-.86-.35-.37,0-.67.12-.9.37-.22.25-.34.57-.34.97v3.19h-1.02Z"/>
    <path d="M435.6,45.81c.04.28.16.51.36.7.21.19.5.29.87.29.29,0,.52-.07.67-.21.15-.14.23-.3.23-.5,0-.17-.06-.31-.18-.43s-.29-.2-.51-.25l-.9-.2c-.42-.09-.74-.26-.97-.53-.23-.26-.35-.58-.35-.96,0-.23.05-.44.15-.64.1-.2.23-.38.4-.53.17-.15.37-.27.6-.36.23-.09.47-.13.73-.13.36,0,.66.05.91.15s.45.23.6.38.27.31.35.47c.08.16.13.3.16.42l-.91.34c-.01-.07-.04-.15-.08-.25-.04-.1-.1-.2-.18-.29s-.19-.17-.33-.24c-.14-.07-.31-.1-.52-.1-.26,0-.48.07-.64.21-.16.14-.24.31-.24.49,0,.34.2.55.6.64l.86.19c.48.1.85.29,1.09.57.25.28.37.61.37,1.01,0,.19-.04.38-.12.57-.08.19-.2.37-.36.53-.16.16-.36.29-.6.39-.24.1-.53.15-.86.15-.37,0-.68-.05-.94-.15-.26-.1-.48-.23-.65-.39-.17-.15-.3-.32-.4-.5-.09-.18-.15-.35-.17-.5l.94-.33Z"/>
    <path d="M444.27,43.16v4.36h-1.07v-4.36h-.98v-.94h.98v-.89c0-.29.05-.55.14-.78s.22-.42.37-.57c.16-.15.34-.27.55-.35.21-.08.43-.12.68-.12.18,0,.32.01.42.04s.17.05.19.07v.92s-.08-.03-.15-.04c-.07-.01-.17-.02-.3-.02-.09,0-.18.01-.28.04-.1.03-.19.07-.27.14-.08.07-.15.16-.2.27-.05.12-.08.27-.08.45v.84h1.28v.94h-1.28Z"/>
    <path d="M449.59,43.27c-.15-.02-.3-.03-.45-.03-.43,0-.78.13-1.05.38s-.4.67-.4,1.25v2.65h-1.03v-5.29h1.01v.92c.1-.21.21-.37.34-.5s.26-.23.4-.31c.14-.08.28-.13.43-.16.15-.03.29-.04.42-.04.07,0,.14,0,.2.01.06,0,.11.02.14.02v1.1Z"/>
    <path d="M450.36,46.1c0-.23.04-.45.12-.63.08-.19.19-.35.34-.48.14-.13.31-.24.51-.32.2-.08.41-.14.64-.18l1.43-.21c.16-.02.27-.07.32-.14.05-.07.08-.16.08-.25,0-.26-.09-.48-.27-.67-.18-.19-.47-.28-.87-.28-.37,0-.65.1-.85.3-.2.2-.32.46-.35.76l-.99-.23c.03-.25.1-.48.23-.69.12-.21.28-.39.47-.54.19-.15.41-.27.67-.35s.52-.13.81-.13c.4,0,.73.05,1.01.16s.51.25.68.42c.18.18.3.38.38.62.08.23.12.48.12.74v2.65c0,.24,0,.42.02.56s.03.24.04.31h-1.01c-.01-.07-.03-.15-.04-.26-.01-.11-.02-.26-.02-.45-.06.1-.14.19-.23.3s-.21.2-.35.29-.3.16-.49.21c-.19.05-.4.08-.63.08-.27,0-.52-.04-.73-.13s-.4-.2-.56-.35c-.15-.14-.27-.31-.36-.5-.08-.19-.13-.39-.13-.61ZM452.27,46.81c.21,0,.41-.03.6-.08s.35-.14.48-.26c.14-.12.24-.28.32-.48.08-.2.12-.45.12-.73v-.24l-1.62.24c-.22.04-.4.12-.55.25-.15.13-.22.31-.22.54,0,.2.08.38.23.53.15.16.36.24.63.24Z"/>
    <path d="M456.44,47.52v-5.29h.99v.7c.17-.29.4-.51.7-.65.3-.14.6-.21.91-.21.33,0,.64.08.93.24.29.16.51.42.65.76.21-.38.48-.64.79-.79.31-.14.64-.21.98-.21.23,0,.45.04.67.12.22.08.42.2.59.37s.31.37.41.63.15.55.15.9v3.43h-1.02v-3.32c0-.34-.09-.63-.27-.86-.18-.23-.46-.35-.85-.35-.37,0-.66.13-.89.38s-.34.57-.34.95v3.2h-1.03v-3.32c0-.34-.09-.63-.26-.86-.18-.23-.46-.35-.86-.35-.37,0-.67.12-.9.37-.22.25-.34.57-.34.97v3.19h-1.02Z"/>
    <path d="M470.48,46.01c-.07.23-.18.45-.32.65-.14.2-.32.38-.52.53s-.43.27-.69.36-.54.13-.85.13c-.35,0-.69-.06-1.01-.19-.32-.12-.61-.31-.85-.55-.25-.24-.44-.54-.58-.89-.14-.35-.21-.75-.21-1.2,0-.42.07-.8.21-1.14.14-.34.32-.63.56-.88.23-.25.5-.44.81-.57s.63-.2.96-.2c.4,0,.76.07,1.08.2s.58.32.8.57c.21.24.38.53.49.87s.17.72.17,1.13c0,.07,0,.13,0,.19,0,.06,0,.11-.02.14h-3.98c0,.23.05.45.13.65.08.2.19.37.34.51.14.14.31.25.51.33.19.08.4.12.62.12.43,0,.76-.1.99-.31.23-.21.39-.46.5-.76l.89.31ZM469.43,44.33c-.01-.38-.14-.7-.38-.96-.24-.26-.6-.39-1.07-.39-.22,0-.42.04-.59.12-.17.08-.32.18-.44.31s-.22.27-.29.43-.11.33-.12.5h2.89Z"/>
    <path d="M472.27,45.81c.04.28.16.51.36.7.21.19.5.29.87.29.29,0,.52-.07.67-.21.15-.14.23-.3.23-.5,0-.17-.06-.31-.18-.43s-.29-.2-.51-.25l-.9-.2c-.42-.09-.74-.26-.97-.53-.23-.26-.35-.58-.35-.96,0-.23.05-.44.15-.64.1-.2.23-.38.4-.53.17-.15.37-.27.6-.36.23-.09.47-.13.73-.13.36,0,.66.05.91.15s.45.23.6.38.27.31.35.47c.08.16.13.3.16.42l-.91.34c-.01-.07-.04-.15-.08-.25-.04-.1-.1-.2-.18-.29s-.19-.17-.33-.24c-.14-.07-.31-.1-.52-.1-.26,0-.48.07-.64.21-.16.14-.24.31-.24.49,0,.34.2.55.6.64l.86.19c.48.1.85.29,1.09.57.25.28.37.61.37,1.01,0,.19-.04.38-.12.57-.08.19-.2.37-.36.53-.16.16-.36.29-.6.39-.24.1-.53.15-.86.15-.37,0-.68-.05-.94-.15-.26-.1-.48-.23-.65-.39-.17-.15-.3-.32-.4-.5-.09-.18-.15-.35-.17-.5l.94-.33Z"/>
    <path d="M478.64,44.03c0,.6-.05,1.16-.16,1.67-.11.51-.25.98-.44,1.41s-.41.82-.67,1.18c-.26.36-.53.69-.83.99l-.63-.55c.56-.62,1-1.32,1.33-2.09.33-.77.5-1.64.5-2.61,0-.48-.04-.94-.13-1.38-.08-.43-.21-.84-.36-1.23s-.35-.75-.58-1.1c-.23-.34-.48-.67-.76-.99l.63-.55c.29.3.57.63.83.99.26.36.48.75.67,1.18.19.43.33.9.44,1.41.11.51.16,1.07.16,1.67Z"/>
  </g>
  <g>
    <rect class="cls-7" x="381.33" y="138.6" width="62.09" height="24.58"/>
    <path class="cls-6" d="M439.91,142.1v17.58h-55.09v-17.58h55.09M446.91,135.1h-69.09v31.58h69.09v-31.58h0Z"/>
  </g>
  <g>
    <path class="cls-3" d="M408.46,151.48v-3.5h-1.23v-.74c.35,0,.65-.11.89-.29s.38-.41.43-.68h1.01v5.21h-1.1ZM407.61,155.52l6.66-9.25h1.29l-6.63,9.25h-1.31ZM412.22,153.43l2.53-3.14h1.21v3.26h.91v.93h-.91v1.03h-1.1v-1.03h-2.64v-1.04ZM414.86,151.56l-1.58,1.99h1.58v-1.99Z"/>
    <path class="cls-3" d="M418.88,155.52v-10.13h6.16v1.3h-4.76v3.26h4.31v1.31h-4.31v4.26h-1.4Z"/>
    <path class="cls-3" d="M428.06,155.52v-6.53h-2.24v-.99c.65-.02,1.18-.19,1.6-.51.42-.32.68-.73.79-1.24h1.23v9.25h-1.37Z"/>
  </g>
  <rect class="cls-5" x="384.92" y="141.78" width="17.88" height="17.88"/>
  <path class="cls-3" d="M391.66,155.52v-7.8h4.74v1h-3.66v2.4h3.32v1.01h-3.32v2.39h3.66v1h-4.74Z"/>
  <g>
    <rect class="cls-7" x="443.84" y="138.6" width="61.97" height="24.58"/>
    <path class="cls-6" d="M502.31,142.1v17.58h-54.97v-17.58h54.97M509.31,135.1h-68.97v31.58h68.97v-31.58h0Z"/>
  </g>
  <g>
    <path class="cls-3" d="M471,151.48v-3.5h-1.23v-.74c.35,0,.65-.11.89-.29s.38-.41.43-.68h1.01v5.21h-1.1ZM470.13,155.52l6.66-9.25h1.29l-6.63,9.25h-1.31ZM475.69,152.3c-.02-.08-.03-.15-.04-.24,0-.08,0-.15,0-.21,0-.23.04-.44.13-.64s.21-.38.37-.53.36-.27.59-.36.5-.14.79-.14.56.04.79.14.42.21.59.36c.16.15.29.32.37.52.09.2.13.41.13.63,0,.33-.09.63-.27.89-.18.26-.42.49-.73.68l-1.03.64c-.11.08-.2.16-.29.24-.08.09-.14.18-.16.29h2.5v.93h-3.83v-.19c0-.43.1-.82.29-1.16.19-.35.5-.65.93-.91l.86-.53c.41-.25.61-.55.61-.9,0-.19-.07-.36-.2-.5-.13-.14-.32-.21-.57-.21s-.45.08-.59.23-.22.35-.22.6c0,.03,0,.08,0,.16s.02.15.04.21h-1.06Z"/>
    <path class="cls-3" d="M481.4,155.52v-10.13h6.16v1.3h-4.76v3.26h4.31v1.31h-4.31v4.26h-1.4Z"/>
    <path class="cls-3" d="M488.6,149.42c0-.07-.01-.13-.01-.19v-.18c0-.4.07-.78.21-1.14.14-.36.35-.68.62-.96s.61-.5,1.01-.66c.4-.16.85-.24,1.36-.24s.94.08,1.33.23.72.36.99.61c.27.26.47.56.61.91s.21.71.21,1.09c0,.61-.16,1.15-.47,1.64-.31.48-.74.89-1.27,1.22l-1.83,1.17c-.27.17-.5.36-.71.56-.21.21-.35.45-.42.74h4.76v1.3h-6.48c0-.38.05-.74.14-1.07.08-.33.21-.65.39-.96.18-.3.4-.59.68-.86.28-.27.61-.54,1-.79l1.54-1c.44-.28.76-.58.96-.9.2-.32.31-.67.31-1.03,0-.21-.04-.41-.11-.61-.07-.2-.18-.37-.32-.52-.14-.15-.32-.27-.54-.36-.22-.09-.48-.14-.77-.14s-.57.05-.79.15-.41.24-.56.41c-.15.17-.26.37-.33.6-.07.23-.11.48-.11.74,0,.07,0,.13,0,.2,0,.07.01.14.02.21l-1.4-.17Z"/>
  </g>
  <rect class="cls-4" x="447.01" y="142.17" width="17.49" height="17.49"/>
  <path class="cls-3" d="M457.38,148.45c-.02-.14-.07-.29-.14-.45-.07-.16-.18-.3-.31-.43-.13-.13-.3-.24-.5-.32-.2-.08-.43-.13-.7-.13-.22,0-.42.03-.6.1-.18.07-.34.16-.48.28s-.24.25-.31.41c-.07.16-.11.33-.11.51,0,.28.08.52.25.72.17.2.42.34.75.41l1.17.25c.65.15,1.15.41,1.5.79.35.38.52.85.52,1.4,0,.3-.06.59-.19.87-.12.28-.3.52-.54.74s-.52.38-.85.51-.7.19-1.12.19c-.47,0-.88-.07-1.23-.21s-.64-.32-.88-.54-.42-.47-.56-.74c-.13-.28-.22-.55-.25-.83l1.03-.33c.02.22.08.43.16.63.08.2.21.38.36.53.16.15.35.28.57.37.22.09.48.14.78.14.54,0,.94-.12,1.2-.36s.4-.54.4-.88c0-.28-.09-.53-.29-.75-.19-.22-.48-.38-.88-.46l-1.11-.24c-.56-.12-1.01-.37-1.37-.72s-.53-.83-.53-1.41c0-.31.07-.6.2-.88.13-.28.31-.52.54-.74.23-.21.5-.38.82-.51s.65-.19,1.01-.19c.44,0,.82.06,1.13.18s.57.28.78.47c.21.19.37.4.49.63.12.23.2.45.24.66l-.97.34Z"/>
  <g>
    <line class="cls-1" x1="335.49" y1="115.35" x2="324.32" y2="115.35"/>
    <polygon points="325.41 111.61 318.93 115.35 325.41 119.09 325.41 111.61"/>
  </g>
  <line class="cls-1" x1="335.49" y1="115.35" x2="384.98" y2="150.72"/>
  <line class="cls-1" x1="335.49" y1="186.44" x2="384.59" y2="220.24"/>
  <line class="cls-1" x1="335.49" y1="115.35" x2="384.59" y2="82.35"/>
  <g>
    <line class="cls-1" x1="335.49" y1="186.5" x2="324.32" y2="186.5"/>
    <polygon points="325.41 182.76 318.93 186.5 325.41 190.24 325.41 182.76"/>
  </g>
  <line class="cls-1" x1="335.49" y1="186.44" x2="447.01" y2="151.7"/>
</svg>