<?xml version="1.0" encoding="UTF-8"?>
<svg id="Layer_1" data-name="Layer 1" xmlns="http://www.w3.org/2000/svg" viewBox="0 0 684 275.52">
  <defs>
    <style>
      .cls-1, .cls-2, .cls-3, .cls-4 {
        fill: none;
        stroke-miterlimit: 10;
      }

      .cls-1, .cls-3 {
        stroke: #000;
      }

      .cls-5 {
        fill: #fff;
      }

      .cls-2 {
        stroke: #ffcb30;
      }

      .cls-3 {
        stroke-linecap: square;
      }

      .cls-6 {
        fill: #d90000;
      }

      .cls-7 {
        fill: #7fb842;
      }

      .cls-4 {
        stroke: #d90000;
      }

      .cls-8 {
        fill: #0082fc;
      }
    </style>
  </defs>
  <g>
    <path d="M17.41,182.22v1.48h4.06v1.39h-9.93v-3.74c0-.47.08-.89.23-1.27.15-.38.36-.7.63-.96.27-.26.58-.46.94-.6.36-.14.74-.21,1.16-.21.72,0,1.33.21,1.84.64s.83,1.02.97,1.77l4.16-2.37v1.6l-4.06,2.27ZM16.17,181.61c0-.56-.15-1.01-.46-1.36-.3-.35-.71-.52-1.22-.52s-.95.17-1.26.52c-.31.35-.46.8-.46,1.36v2.1h3.4v-2.1Z"/>
    <path d="M19.66,177.21c-.3,0-.57-.05-.81-.15-.24-.1-.44-.25-.61-.43-.17-.18-.3-.4-.41-.65s-.18-.52-.22-.81l-.27-1.82c-.03-.21-.09-.34-.18-.41-.09-.07-.2-.1-.32-.1-.33,0-.61.11-.85.34-.24.23-.36.6-.36,1.11,0,.47.13.83.38,1.08.26.25.58.4.97.45l-.29,1.26c-.32-.04-.61-.13-.88-.29s-.5-.35-.69-.6c-.19-.24-.34-.52-.45-.85-.11-.32-.16-.67-.16-1.03,0-.5.07-.93.2-1.29.14-.35.32-.64.54-.87.22-.22.49-.39.78-.49.3-.1.61-.15.94-.15h3.37c.3,0,.54,0,.71-.03.18-.02.31-.04.39-.06v1.29c-.08.02-.2.03-.34.05s-.33.02-.57.02c.12.07.25.17.38.29.13.12.25.27.36.45s.2.38.27.62c.07.24.1.51.1.8,0,.35-.06.66-.17.93s-.26.51-.44.71c-.18.2-.39.35-.64.46-.24.11-.5.16-.77.16ZM20.57,174.78c0-.27-.03-.52-.1-.76-.07-.24-.18-.44-.34-.62-.15-.17-.36-.31-.62-.41-.26-.1-.57-.15-.93-.15h-.31l.31,2.06c.05.28.15.51.31.7.16.19.39.28.69.28.25,0,.48-.1.68-.29.2-.2.3-.46.3-.8Z"/>
    <path d="M20.44,164.81c.33.16.61.41.85.76.24.35.36.79.36,1.32,0,.49-.09.94-.27,1.33-.18.39-.43.73-.76,1-.32.28-.7.49-1.13.64-.43.15-.9.22-1.41.22-.48,0-.93-.08-1.35-.23s-.8-.37-1.12-.65c-.32-.28-.58-.62-.77-1.01-.19-.39-.29-.83-.29-1.3,0-.3.03-.56.1-.79.07-.23.15-.43.26-.6s.23-.31.36-.42c.14-.11.27-.2.41-.25h-4.35v-1.3h8.89c.33,0,.6,0,.83-.03.22-.02.36-.03.42-.04v1.27c-.07.02-.19.04-.36.05-.16.01-.35.02-.55.02h-.11ZM18.08,168.75c.34,0,.67-.04.96-.13.29-.09.55-.22.76-.38s.38-.37.5-.62.18-.52.18-.84c0-.3-.06-.57-.19-.81s-.3-.45-.51-.62-.47-.3-.77-.38-.62-.13-.97-.13c-.7,0-1.26.17-1.69.51-.43.34-.64.81-.64,1.42,0,.3.06.57.17.82.12.25.28.46.49.63s.46.31.75.4.61.14.95.14Z"/>
    <path d="M12.18,161.8c-.27,0-.5-.09-.68-.27-.18-.18-.27-.4-.27-.67s.09-.5.27-.68c.18-.18.41-.27.68-.27s.48.09.67.27c.18.18.27.41.27.68s-.09.48-.27.67c-.18.18-.4.27-.67.27ZM21.46,161.51h-6.73v-1.3h6.73v1.3Z"/>
    <path d="M14.52,155.23c0-.5.09-.97.27-1.39s.43-.78.75-1.09.69-.55,1.13-.71.91-.25,1.42-.25.99.08,1.43.25c.44.17.82.41,1.13.71s.57.67.75,1.09c.18.42.27.88.27,1.39s-.09.97-.27,1.39c-.18.42-.43.78-.75,1.09s-.7.55-1.13.71c-.44.17-.91.25-1.43.25s-.99-.08-1.42-.25-.81-.41-1.13-.71-.57-.67-.75-1.09-.27-.88-.27-1.39ZM20.5,155.23c0-.28-.05-.55-.15-.8-.1-.25-.26-.48-.46-.67-.21-.2-.46-.35-.76-.46s-.64-.17-1.04-.17-.74.06-1.03.17-.54.27-.75.46c-.21.2-.36.42-.46.67-.1.25-.15.52-.15.8s.05.55.15.8c.1.25.26.48.46.67.21.2.46.35.75.46.29.11.64.17,1.03.17s.74-.06,1.04-.17c.3-.11.55-.27.76-.46.21-.2.36-.42.46-.67s.15-.52.15-.8Z"/>
    <path d="M21.67,142.16c0,.64-.11,1.26-.34,1.85-.23.59-.56,1.12-1,1.57s-.98.82-1.62,1.09c-.64.28-1.38.41-2.21.41s-1.57-.14-2.21-.42c-.64-.28-1.18-.65-1.62-1.11s-.77-.99-1-1.58c-.23-.59-.34-1.2-.34-1.81,0-.57.07-1.09.22-1.57s.36-.9.63-1.27c.27-.37.6-.69.99-.95.39-.26.83-.45,1.3-.58l.45,1.27c-.76.19-1.33.54-1.74,1.07-.4.53-.6,1.2-.6,2.02,0,.45.08.88.25,1.31s.41.8.73,1.13c.33.33.74.6,1.23.79.49.2,1.06.29,1.7.29s1.21-.1,1.7-.29c.49-.2.9-.46,1.23-.79.33-.33.58-.71.74-1.13s.25-.86.25-1.31c0-.42-.06-.8-.18-1.15-.12-.35-.29-.65-.5-.92-.21-.27-.46-.49-.76-.67s-.61-.32-.94-.43l.45-1.22c.47.13.9.33,1.29.59.39.26.73.58,1.01.94.28.37.5.79.66,1.27.16.48.24,1.01.24,1.57Z"/>
    <path d="M21.46,134.96v1.32h-10.14v-1.32h4.19c-.35-.24-.61-.55-.76-.91-.15-.36-.22-.74-.22-1.13s.07-.75.2-1.06c.13-.3.32-.56.56-.76s.52-.35.85-.45c.33-.1.68-.15,1.05-.15h4.27v1.32h-4.05c-.23,0-.45.03-.66.08-.21.05-.38.14-.54.27s-.28.29-.36.49c-.09.2-.13.45-.13.73,0,.25.05.47.14.67.09.19.22.35.38.48.16.13.34.23.56.3.21.07.45.11.7.12h3.96Z"/>
    <path d="M19.66,128.96c-.3,0-.57-.05-.81-.15-.24-.1-.44-.25-.61-.43-.17-.18-.3-.4-.41-.65s-.18-.52-.22-.81l-.27-1.82c-.03-.21-.09-.34-.18-.41-.09-.07-.2-.1-.32-.1-.33,0-.61.11-.85.34-.24.23-.36.6-.36,1.11,0,.47.13.83.38,1.08.26.25.58.4.97.45l-.29,1.26c-.32-.04-.61-.13-.88-.29s-.5-.35-.69-.6c-.19-.24-.34-.52-.45-.85-.11-.32-.16-.67-.16-1.03,0-.5.07-.93.2-1.29.14-.35.32-.64.54-.87.22-.22.49-.39.78-.49.3-.1.61-.15.94-.15h3.37c.3,0,.54,0,.71-.03.18-.02.31-.04.39-.06v1.29c-.08.02-.2.03-.34.05s-.33.02-.57.02c.12.07.25.17.38.29.13.12.25.27.36.45s.2.38.27.62c.07.24.1.51.1.8,0,.35-.06.66-.17.93s-.26.51-.44.71c-.18.2-.39.35-.64.46-.24.11-.5.16-.77.16ZM20.57,126.52c0-.27-.03-.52-.1-.76-.07-.24-.18-.44-.34-.62-.15-.17-.36-.31-.62-.41-.26-.1-.57-.15-.93-.15h-.31l.31,2.06c.05.28.15.51.31.7.16.19.39.28.69.28.25,0,.48-.1.68-.29.2-.2.3-.46.3-.8Z"/>
    <path d="M21.46,120.06v1.32h-6.73v-1.29h.97c-.42-.24-.72-.55-.9-.92-.18-.37-.27-.76-.27-1.15s.07-.75.2-1.06c.13-.3.32-.55.56-.76.24-.2.52-.35.85-.45.33-.1.68-.15,1.05-.15h4.27v1.32h-4.05c-.23,0-.45.03-.66.08-.21.05-.38.14-.54.27s-.28.29-.36.49c-.09.2-.13.45-.13.73,0,.26.05.49.15.69.1.2.23.36.4.49.17.13.36.23.59.29.22.07.46.1.71.1h3.89Z"/>
    <path d="M21.46,112.37v1.32h-6.73v-1.29h.97c-.42-.24-.72-.55-.9-.92-.18-.37-.27-.76-.27-1.15s.07-.75.2-1.06c.13-.3.32-.55.56-.76.24-.2.52-.35.85-.45.33-.1.68-.15,1.05-.15h4.27v1.32h-4.05c-.23,0-.45.03-.66.08-.21.05-.38.14-.54.27-.15.13-.28.29-.36.49-.09.2-.13.45-.13.74,0,.26.05.49.15.69.1.2.23.36.4.49s.36.23.59.29c.22.07.46.1.71.1h3.89Z"/>
    <path d="M19.55,100.04c.3.09.58.23.83.41.26.18.48.4.67.66s.34.55.46.88c.11.33.17.69.17,1.08,0,.45-.08.88-.24,1.29-.16.41-.39.77-.7,1.08-.31.31-.69.56-1.13.74-.45.18-.96.27-1.53.27-.53,0-1.02-.09-1.45-.27-.43-.18-.81-.41-1.12-.71s-.55-.64-.73-1.03c-.17-.39-.26-.8-.26-1.22,0-.51.09-.97.26-1.38s.41-.74.72-1.02c.31-.27.68-.48,1.11-.62.43-.15.91-.22,1.43-.22.08,0,.16,0,.24,0,.07,0,.13.01.18.02v5.07c.3,0,.57-.07.83-.17s.47-.25.65-.43.32-.4.42-.64c.1-.25.15-.51.15-.79,0-.55-.13-.97-.39-1.26-.26-.29-.58-.5-.97-.63l.39-1.13ZM17.41,101.37c-.49.02-.89.18-1.23.49-.33.31-.5.76-.5,1.36,0,.28.05.53.15.75.1.22.23.41.39.56s.35.28.55.37c.21.09.42.14.63.15v-3.68Z"/>
    <path d="M21.46,98.41h-10.14v-1.32h10.14v1.32Z"/>
  </g>
  <polyline class="cls-1" points="674.72 223.96 68.49 223.96 68.49 44.71"/>
  <g>
    <line class="cls-3" x1="68.49" y1="44.71" x2="364.8" y2="44.71"/>
    <polygon points="363.34 49.69 371.98 44.71 363.34 39.72 363.34 49.69"/>
  </g>
  <g>
    <line class="cls-1" x1="371.91" y1="45.27" x2="667.54" y2="45.27"/>
    <polygon points="666.08 50.25 674.72 45.27 666.08 40.28 666.08 50.25"/>
  </g>
  <line class="cls-2" x1="371.63" y1="223.96" x2="371.63" y2="44.71"/>
  <line class="cls-2" x1="675" y1="223.96" x2="675" y2="44.71"/>
  <g>
    <path d="M358.64,241.66v8.65h-1.37v-8.65h-3.32v-1.27h8.01v1.27h-3.32Z"/>
    <path d="M363.03,241.03c0-.27.09-.5.27-.68.18-.18.4-.27.67-.27s.5.09.68.27c.18.18.27.41.27.68s-.09.48-.27.67c-.18.18-.41.27-.68.27s-.48-.09-.67-.27c-.18-.18-.27-.4-.27-.67ZM363.32,250.31v-6.73h1.3v6.73h-1.3Z"/>
    <path d="M366.64,250.31v-6.73h1.26v.9c.21-.37.51-.65.89-.83.38-.18.76-.27,1.15-.27.42,0,.81.1,1.18.31s.65.53.83.97c.27-.49.61-.82,1.01-1,.4-.18.82-.27,1.25-.27.29,0,.57.05.85.15.28.1.53.26.75.47s.39.48.52.8c.13.32.2.7.2,1.14v4.37h-1.3v-4.23c0-.44-.11-.81-.34-1.1-.23-.29-.59-.44-1.08-.44-.47,0-.84.16-1.13.48-.29.32-.43.73-.43,1.21v4.07h-1.32v-4.23c0-.44-.11-.81-.34-1.1s-.59-.44-1.09-.44c-.48,0-.86.16-1.14.48-.29.32-.43.73-.43,1.23v4.06h-1.3Z"/>
    <path d="M384.42,248.4c-.09.3-.23.58-.41.83-.18.26-.4.48-.66.67-.26.19-.55.34-.88.46s-.69.17-1.08.17c-.45,0-.88-.08-1.29-.24-.41-.16-.77-.39-1.08-.7-.31-.31-.56-.69-.74-1.13-.18-.45-.27-.96-.27-1.53,0-.53.09-1.02.27-1.45.18-.43.41-.81.71-1.12s.64-.55,1.03-.73c.39-.17.8-.26,1.22-.26.51,0,.97.09,1.38.26.41.17.74.41,1.02.72.27.31.48.68.62,1.11.14.43.22.91.22,1.43,0,.08,0,.16,0,.24,0,.07-.01.13-.02.18h-5.07c0,.3.06.57.17.83.1.25.25.47.43.65.18.18.4.32.64.42.25.1.51.15.79.15.55,0,.97-.13,1.26-.39.29-.26.5-.58.63-.97l1.13.39ZM383.09,246.26c-.02-.49-.18-.89-.49-1.23-.31-.33-.76-.5-1.36-.5-.28,0-.53.05-.75.15-.22.1-.41.23-.56.39s-.28.35-.37.55c-.09.21-.14.42-.15.63h3.68Z"/>
  </g>
  <path d="M48.82,94.83l3.34-4.67h1.62v4.93h1.33v1.09h-1.33v1.75h-1.14v-1.75h-3.82v-1.36ZM52.63,91.29l-2.74,3.8h2.74v-3.8Z"/>
  <g>
    <path d="M39.82,178.84c0-.06-.01-.11-.01-.16v-.15c0-.34.06-.66.18-.96.12-.3.29-.57.52-.8.23-.23.51-.42.85-.55.34-.14.72-.2,1.14-.2s.79.06,1.12.19c.33.13.6.3.83.52.22.22.39.47.51.76.12.29.17.6.17.92,0,.51-.13.97-.4,1.37-.26.4-.62.75-1.07,1.03l-1.54.98c-.22.14-.42.3-.6.47-.18.17-.29.38-.35.62h4v1.09h-5.45c0-.32.05-.62.11-.9.07-.28.18-.55.32-.8s.34-.5.57-.73c.23-.23.51-.45.84-.67l1.3-.84c.37-.23.64-.48.81-.76.17-.27.26-.56.26-.86,0-.18-.03-.35-.09-.51-.06-.16-.15-.31-.27-.44s-.27-.23-.46-.31-.4-.11-.65-.11-.48.04-.67.13-.34.2-.47.34c-.12.14-.22.31-.28.5-.06.19-.09.4-.09.62,0,.06,0,.11,0,.17,0,.06.01.12.02.18l-1.18-.14Z"/>
    <path d="M46.26,180.08c0-.54.05-1.04.16-1.52.1-.48.28-.91.54-1.3s.58-.69.97-.91c.39-.22.86-.34,1.42-.34s1.02.11,1.42.34c.39.22.72.53.97.91.26.38.44.82.54,1.3.1.48.16.99.16,1.52s-.05,1.04-.16,1.52c-.1.48-.28.91-.54,1.3-.26.38-.58.69-.97.91-.39.22-.86.34-1.42.34s-1.02-.11-1.42-.34c-.39-.22-.72-.53-.97-.91-.26-.38-.44-.82-.54-1.3-.1-.48-.16-.99-.16-1.52ZM47.43,180.08c0,1.2.23,2.04.68,2.52.15.16.33.28.52.37.2.09.43.13.71.13s.52-.04.71-.13c.2-.09.37-.21.52-.37.46-.48.68-1.32.68-2.52s-.23-2.04-.68-2.52c-.15-.16-.33-.28-.52-.37-.2-.09-.43-.13-.71-.13s-.52.04-.71.13c-.2.09-.37.21-.52.37-.46.48-.68,1.32-.68,2.52Z"/>
  </g>
  <g>
    <path d="M155.98,34.12c-.64,0-1.26-.11-1.85-.34-.59-.23-1.12-.56-1.57-1s-.82-.98-1.09-1.62c-.28-.64-.41-1.38-.41-2.21s.14-1.57.42-2.21c.28-.64.65-1.18,1.11-1.62s.99-.77,1.58-1c.59-.23,1.2-.34,1.81-.34.57,0,1.09.07,1.57.22s.9.36,1.27.63c.37.27.69.6.95.99.26.39.45.83.58,1.3l-1.27.45c-.19-.76-.54-1.33-1.07-1.74-.53-.4-1.2-.6-2.02-.6-.45,0-.88.08-1.31.25s-.8.41-1.13.73c-.33.33-.6.74-.79,1.23-.2.49-.29,1.06-.29,1.7s.1,1.21.29,1.7c.2.49.46.9.79,1.23.33.33.71.58,1.13.74s.86.25,1.31.25c.42,0,.8-.06,1.15-.18.35-.12.65-.29.92-.5.27-.21.49-.46.67-.76s.32-.61.43-.94l1.22.45c-.13.47-.33.9-.59,1.29-.26.39-.58.73-.94,1.01-.37.28-.79.5-1.27.66-.48.16-1.01.24-1.57.24Z"/>
    <path d="M164.96,26.97c.5,0,.97.09,1.39.27s.78.43,1.09.75.55.69.71,1.13.25.91.25,1.42-.08.99-.25,1.43c-.17.44-.41.82-.71,1.13s-.67.57-1.09.75c-.42.18-.88.27-1.39.27s-.97-.09-1.39-.27c-.42-.18-.78-.43-1.09-.75s-.55-.7-.71-1.13c-.17-.44-.25-.91-.25-1.43s.08-.99.25-1.42.41-.81.71-1.13.67-.57,1.09-.75.88-.27,1.39-.27ZM164.96,32.95c.28,0,.55-.05.8-.15.25-.1.48-.26.67-.46.2-.21.35-.46.46-.76s.17-.64.17-1.04-.06-.74-.17-1.03-.27-.54-.46-.75c-.2-.21-.42-.36-.67-.46-.25-.1-.52-.15-.8-.15s-.55.05-.8.15c-.25.1-.48.26-.67.46-.2.21-.35.46-.46.75-.11.29-.17.64-.17,1.03s.06.74.17,1.04c.11.3.27.55.46.76.2.21.42.36.67.46s.52.15.8.15Z"/>
    <path d="M171.26,33.92h-1.32v-6.73h1.29v.97c.24-.42.55-.72.92-.9.37-.18.76-.27,1.15-.27s.75.07,1.06.2c.3.13.56.32.76.56s.35.52.45.85c.1.33.15.68.15,1.05v4.27h-1.32v-4.05c0-.23-.03-.45-.08-.66-.05-.21-.14-.38-.27-.54s-.29-.28-.49-.36c-.2-.09-.45-.13-.73-.13-.26,0-.49.05-.69.15-.2.1-.36.23-.49.4-.13.17-.23.36-.29.59-.07.22-.1.46-.1.71v3.89Z"/>
    <path d="M178.96,33.92h-1.32v-6.73h1.29v.97c.24-.42.55-.72.92-.9.37-.18.76-.27,1.15-.27s.75.07,1.06.2c.3.13.56.32.76.56s.35.52.45.85c.1.33.15.68.15,1.05v4.27h-1.32v-4.05c0-.23-.03-.45-.08-.66-.05-.21-.14-.38-.27-.54s-.29-.28-.49-.36c-.2-.09-.45-.13-.73-.13-.26,0-.49.05-.69.15-.2.1-.36.23-.49.4-.13.17-.23.36-.29.59-.07.22-.1.46-.1.71v3.89Z"/>
    <path d="M191.29,32c-.09.3-.23.58-.41.83-.18.26-.4.48-.66.67-.26.19-.55.34-.88.46s-.69.17-1.08.17c-.45,0-.88-.08-1.29-.24-.41-.16-.77-.39-1.08-.7-.31-.31-.56-.69-.74-1.13-.18-.45-.27-.96-.27-1.53,0-.53.09-1.02.27-1.45.18-.43.41-.81.71-1.12s.64-.55,1.03-.73c.39-.17.8-.26,1.22-.26.51,0,.97.09,1.38.26.41.17.74.41,1.02.72.27.31.48.68.62,1.11.14.43.22.91.22,1.43,0,.08,0,.16,0,.24,0,.07-.01.13-.02.18h-5.07c0,.3.06.57.17.83.1.25.25.47.43.65.18.18.4.32.64.42.25.1.51.15.79.15.55,0,.97-.13,1.26-.39.29-.26.5-.58.63-.97l1.13.39ZM189.96,29.86c-.02-.49-.18-.89-.49-1.23-.31-.33-.76-.5-1.36-.5-.28,0-.53.05-.75.15-.22.1-.41.23-.56.39s-.28.35-.37.55c-.09.21-.14.42-.15.63h3.68Z"/>
    <path d="M195.84,28.19c-.27,0-.53.05-.77.15-.24.1-.46.25-.65.44-.19.2-.34.44-.46.73-.11.29-.17.64-.17,1.03s.06.72.17,1.01c.11.29.26.54.45.74.19.2.41.35.66.46.25.1.51.15.78.15.32,0,.59-.05.81-.14.22-.09.4-.21.55-.35.14-.14.26-.29.34-.46.08-.16.15-.31.18-.44l1.16.5c-.08.24-.21.49-.36.73-.16.25-.36.47-.62.68-.25.21-.55.37-.89.5-.34.13-.73.19-1.17.19-.49,0-.95-.09-1.36-.27-.42-.18-.77-.43-1.07-.76-.3-.32-.53-.7-.71-1.13-.17-.43-.26-.91-.26-1.42s.09-1,.26-1.44c.17-.44.41-.81.71-1.13.3-.31.66-.56,1.08-.73.42-.18.86-.27,1.34-.27.45,0,.84.06,1.18.19s.63.29.88.5c.25.21.45.44.59.69.15.26.26.51.34.76l-1.19.5c-.05-.17-.11-.34-.2-.5s-.2-.32-.34-.46c-.14-.14-.32-.25-.52-.34-.21-.09-.45-.13-.74-.13Z"/>
    <path d="M202.27,27.18h1.46v1.19h-1.46v3.5c0,.31.07.54.21.69.14.15.38.23.73.23.08,0,.18,0,.28-.01.1,0,.18-.02.24-.04v1.12c-.06.02-.16.04-.32.08-.16.03-.35.05-.57.05-.58,0-1.04-.17-1.37-.5-.34-.33-.5-.81-.5-1.42v-3.7h-1.29v-1.19h.36c.36,0,.63-.1.79-.29.16-.2.25-.44.25-.74v-1.09h1.2v2.13Z"/>
    <path d="M204.86,24.63c0-.27.09-.5.27-.68.18-.18.4-.27.67-.27s.5.09.68.27c.18.18.27.41.27.68s-.09.48-.27.67c-.18.18-.41.27-.68.27s-.48-.09-.67-.27c-.18-.18-.27-.4-.27-.67ZM205.16,33.92v-6.73h1.3v6.73h-1.3Z"/>
    <path d="M211.44,26.97c.5,0,.97.09,1.39.27s.78.43,1.09.75.55.69.71,1.13.25.91.25,1.42-.08.99-.25,1.43c-.17.44-.41.82-.71,1.13s-.67.57-1.09.75c-.42.18-.88.27-1.39.27s-.97-.09-1.39-.27c-.42-.18-.78-.43-1.09-.75s-.55-.7-.71-1.13c-.17-.44-.25-.91-.25-1.43s.08-.99.25-1.42.41-.81.71-1.13.67-.57,1.09-.75.88-.27,1.39-.27ZM211.44,32.95c.28,0,.55-.05.8-.15.25-.1.48-.26.67-.46.2-.21.35-.46.46-.76s.17-.64.17-1.04-.06-.74-.17-1.03-.27-.54-.46-.75c-.2-.21-.42-.36-.67-.46-.25-.1-.52-.15-.8-.15s-.55.05-.8.15c-.25.1-.48.26-.67.46-.2.21-.35.46-.46.75-.11.29-.17.64-.17,1.03s.06.74.17,1.04c.11.3.27.55.46.76.2.21.42.36.67.46s.52.15.8.15Z"/>
    <path d="M217.75,33.92h-1.32v-6.73h1.29v.97c.24-.42.55-.72.92-.9.37-.18.76-.27,1.15-.27s.75.07,1.06.2c.3.13.55.32.76.56.2.24.35.52.45.85.1.33.15.68.15,1.05v4.27h-1.32v-4.05c0-.23-.03-.45-.08-.66-.05-.21-.14-.38-.27-.54-.13-.15-.29-.28-.49-.36-.2-.09-.45-.13-.74-.13-.26,0-.49.05-.69.15-.2.1-.36.23-.49.4-.13.17-.23.36-.29.59-.07.22-.1.46-.1.71v3.89Z"/>
    <path d="M227.94,33.92v-9.93h1.4v9.93h-1.4Z"/>
    <path d="M232.87,33.92h-1.32v-6.73h1.29v.97c.24-.42.55-.72.92-.9.37-.18.76-.27,1.15-.27s.75.07,1.06.2c.3.13.55.32.76.56.2.24.35.52.45.85.1.33.15.68.15,1.05v4.27h-1.32v-4.05c0-.23-.03-.45-.08-.66-.05-.21-.14-.38-.27-.54-.13-.15-.29-.28-.49-.36-.2-.09-.45-.13-.74-.13-.26,0-.49.05-.69.15-.2.1-.36.23-.49.4s-.23.36-.29.59c-.07.22-.1.46-.1.71v3.89Z"/>
    <path d="M241.04,27.18h1.46v1.19h-1.46v3.5c0,.31.07.54.21.69.14.15.38.23.73.23.08,0,.18,0,.28-.01.1,0,.18-.02.24-.04v1.12c-.06.02-.16.04-.32.08-.16.03-.35.05-.57.05-.58,0-1.04-.17-1.37-.5s-.5-.81-.5-1.42v-3.7h-1.29v-1.19h.36c.36,0,.63-.1.79-.29.16-.2.25-.44.25-.74v-1.09h1.2v2.13Z"/>
    <path d="M249.81,32c-.09.3-.23.58-.41.83-.18.26-.4.48-.66.67s-.55.34-.88.46c-.33.11-.69.17-1.08.17-.45,0-.88-.08-1.29-.24-.41-.16-.77-.39-1.08-.7-.31-.31-.56-.69-.74-1.13-.18-.45-.27-.96-.27-1.53,0-.53.09-1.02.27-1.45.18-.43.41-.81.71-1.12s.64-.55,1.03-.73c.39-.17.8-.26,1.22-.26.51,0,.97.09,1.38.26s.74.41,1.02.72c.27.31.48.68.62,1.11.15.43.22.91.22,1.43,0,.08,0,.16,0,.24,0,.07-.01.13-.02.18h-5.07c0,.3.07.57.17.83s.25.47.43.65.4.32.64.42c.25.1.51.15.79.15.55,0,.97-.13,1.26-.39.29-.26.5-.58.63-.97l1.13.39ZM248.48,29.86c-.02-.49-.18-.89-.49-1.23-.31-.33-.76-.5-1.36-.5-.28,0-.53.05-.75.15-.22.1-.41.23-.56.39s-.28.35-.37.55c-.09.21-.14.42-.15.63h3.68Z"/>
    <path d="M255.17,28.51c-.2-.03-.39-.04-.57-.04-.55,0-1,.16-1.34.48-.34.32-.51.85-.51,1.59v3.37h-1.32v-6.73h1.29v1.18c.12-.26.26-.47.43-.64.16-.16.33-.29.51-.39.18-.1.36-.17.55-.2s.36-.06.53-.06c.09,0,.18,0,.26.01.08,0,.14.02.18.03v1.4Z"/>
    <path d="M259.99,33.92h-1.33l-2.73-6.73h1.48l1.92,5.19,1.93-5.19h1.41l-2.69,6.73Z"/>
    <path d="M263.29,32.11c0-.3.05-.57.15-.81.1-.24.25-.44.43-.61.18-.17.4-.3.65-.41s.52-.18.81-.22l1.82-.27c.21-.03.34-.09.41-.18.07-.09.11-.2.11-.32,0-.33-.11-.61-.34-.85-.23-.24-.6-.36-1.11-.36-.47,0-.83.13-1.08.38-.25.26-.4.58-.45.97l-1.26-.29c.04-.32.13-.61.29-.88s.35-.5.59-.69c.24-.19.53-.34.85-.45.32-.11.67-.16,1.03-.16.5,0,.93.07,1.29.2.35.14.64.32.87.54.22.22.39.49.49.78s.15.61.15.94v3.37c0,.3,0,.54.03.71.02.18.04.31.06.39h-1.29c-.02-.08-.04-.2-.05-.34-.01-.14-.02-.33-.02-.57-.08.12-.17.25-.29.38-.12.13-.27.25-.45.36-.18.11-.38.2-.62.27-.24.07-.51.1-.8.1-.35,0-.66-.06-.93-.17-.28-.11-.51-.26-.71-.44-.2-.18-.35-.39-.46-.64-.11-.24-.16-.5-.16-.77ZM265.73,33.02c.27,0,.53-.03.76-.1.24-.07.44-.18.62-.34s.31-.36.41-.62.15-.57.15-.93v-.31l-2.06.31c-.28.05-.51.15-.7.31-.19.16-.28.39-.28.69,0,.25.1.48.29.68.2.2.46.3.8.3Z"/>
    <path d="M270.88,33.92v-10.14h1.32v10.14h-1.32Z"/>
  </g>
  <g>
    <path d="M458.72,34.12c-.64,0-1.26-.11-1.85-.34-.59-.23-1.12-.56-1.57-1s-.82-.98-1.09-1.62c-.28-.64-.41-1.38-.41-2.21s.14-1.57.42-2.21c.28-.64.65-1.18,1.11-1.62s.99-.77,1.58-1c.59-.23,1.2-.34,1.81-.34.57,0,1.09.07,1.57.22s.9.36,1.27.63c.37.27.69.6.95.99.26.39.45.83.58,1.3l-1.27.45c-.19-.76-.54-1.33-1.07-1.74-.53-.4-1.2-.6-2.02-.6-.45,0-.88.08-1.31.25s-.8.41-1.13.73c-.33.33-.6.74-.79,1.23-.2.49-.29,1.06-.29,1.7s.1,1.21.29,1.7c.2.49.46.9.79,1.23.33.33.71.58,1.13.74s.86.25,1.31.25c.42,0,.8-.06,1.15-.18.35-.12.65-.29.92-.5.27-.21.49-.46.67-.76s.32-.61.43-.94l1.22.45c-.13.47-.33.9-.59,1.29-.26.39-.58.73-.94,1.01-.37.28-.79.5-1.27.66-.48.16-1.01.24-1.57.24Z"/>
    <path d="M467.7,26.97c.5,0,.97.09,1.39.27s.78.43,1.09.75.55.69.71,1.13.25.91.25,1.42-.08.99-.25,1.43c-.17.44-.41.82-.71,1.13s-.67.57-1.09.75c-.42.18-.88.27-1.39.27s-.97-.09-1.39-.27c-.42-.18-.78-.43-1.09-.75s-.55-.7-.71-1.13c-.17-.44-.25-.91-.25-1.43s.08-.99.25-1.42.41-.81.71-1.13.67-.57,1.09-.75.88-.27,1.39-.27ZM467.7,32.95c.28,0,.55-.05.8-.15.25-.1.48-.26.67-.46.2-.21.35-.46.46-.76s.17-.64.17-1.04-.06-.74-.17-1.03-.27-.54-.46-.75c-.2-.21-.42-.36-.67-.46-.25-.1-.52-.15-.8-.15s-.55.05-.8.15c-.25.1-.48.26-.67.46-.2.21-.35.46-.46.75-.11.29-.17.64-.17,1.03s.06.74.17,1.04c.11.3.27.55.46.76.2.21.42.36.67.46s.52.15.8.15Z"/>
    <path d="M474,33.92h-1.32v-6.73h1.29v.97c.24-.42.55-.72.92-.9.37-.18.76-.27,1.15-.27s.75.07,1.06.2c.3.13.56.32.76.56s.35.52.45.85c.1.33.15.68.15,1.05v4.27h-1.32v-4.05c0-.23-.03-.45-.08-.66-.05-.21-.14-.38-.27-.54s-.29-.28-.49-.36c-.2-.09-.45-.13-.73-.13-.26,0-.49.05-.69.15-.2.1-.36.23-.49.4-.13.17-.23.36-.29.59-.07.22-.1.46-.1.71v3.89Z"/>
    <path d="M481.7,33.92h-1.32v-6.73h1.29v.97c.24-.42.55-.72.92-.9.37-.18.76-.27,1.15-.27s.75.07,1.06.2c.3.13.56.32.76.56s.35.52.45.85c.1.33.15.68.15,1.05v4.27h-1.32v-4.05c0-.23-.03-.45-.08-.66-.05-.21-.14-.38-.27-.54s-.29-.28-.49-.36c-.2-.09-.45-.13-.73-.13-.26,0-.49.05-.69.15-.2.1-.36.23-.49.4-.13.17-.23.36-.29.59-.07.22-.1.46-.1.71v3.89Z"/>
    <path d="M494.03,32c-.09.3-.23.58-.41.83-.18.26-.4.48-.66.67-.26.19-.55.34-.88.46s-.69.17-1.08.17c-.45,0-.88-.08-1.29-.24-.41-.16-.77-.39-1.08-.7-.31-.31-.56-.69-.74-1.13-.18-.45-.27-.96-.27-1.53,0-.53.09-1.02.27-1.45.18-.43.41-.81.71-1.12s.64-.55,1.03-.73c.39-.17.8-.26,1.22-.26.51,0,.97.09,1.38.26.41.17.74.41,1.02.72.27.31.48.68.62,1.11.14.43.22.91.22,1.43,0,.08,0,.16,0,.24,0,.07-.01.13-.02.18h-5.07c0,.3.06.57.17.83.1.25.25.47.43.65.18.18.4.32.64.42.25.1.51.15.79.15.55,0,.97-.13,1.26-.39.29-.26.5-.58.63-.97l1.13.39ZM492.7,29.86c-.02-.49-.18-.89-.49-1.23-.31-.33-.76-.5-1.36-.5-.28,0-.53.05-.75.15-.22.1-.41.23-.56.39s-.28.35-.37.55c-.09.21-.14.42-.15.63h3.68Z"/>
    <path d="M498.58,28.19c-.27,0-.53.05-.77.15-.24.1-.46.25-.65.44-.19.2-.34.44-.46.73-.11.29-.17.64-.17,1.03s.06.72.17,1.01c.11.29.26.54.45.74.19.2.41.35.66.46.25.1.51.15.78.15.32,0,.59-.05.81-.14.22-.09.4-.21.55-.35.14-.14.26-.29.34-.46.08-.16.15-.31.18-.44l1.16.5c-.08.24-.21.49-.36.73-.16.25-.36.47-.62.68-.25.21-.55.37-.89.5-.34.13-.73.19-1.17.19-.49,0-.95-.09-1.36-.27-.42-.18-.77-.43-1.07-.76-.3-.32-.53-.7-.71-1.13-.17-.43-.26-.91-.26-1.42s.09-1,.26-1.44c.17-.44.41-.81.71-1.13.3-.31.66-.56,1.08-.73.42-.18.86-.27,1.34-.27.45,0,.84.06,1.18.19s.63.29.88.5c.25.21.45.44.59.69.15.26.26.51.34.76l-1.19.5c-.05-.17-.11-.34-.2-.5s-.2-.32-.34-.46c-.14-.14-.32-.25-.52-.34-.21-.09-.45-.13-.74-.13Z"/>
    <path d="M505.01,27.18h1.46v1.19h-1.46v3.5c0,.31.07.54.21.69.14.15.38.23.73.23.08,0,.18,0,.28-.01.1,0,.18-.02.24-.04v1.12c-.06.02-.16.04-.32.08-.16.03-.35.05-.57.05-.58,0-1.04-.17-1.37-.5-.34-.33-.5-.81-.5-1.42v-3.7h-1.29v-1.19h.36c.36,0,.63-.1.79-.29.16-.2.25-.44.25-.74v-1.09h1.2v2.13Z"/>
    <path d="M507.6,24.63c0-.27.09-.5.27-.68.18-.18.4-.27.67-.27s.5.09.68.27c.18.18.27.41.27.68s-.09.48-.27.67c-.18.18-.41.27-.68.27s-.48-.09-.67-.27c-.18-.18-.27-.4-.27-.67ZM507.9,33.92v-6.73h1.3v6.73h-1.3Z"/>
    <path d="M514.18,26.97c.5,0,.97.09,1.39.27s.78.43,1.09.75.55.69.71,1.13.25.91.25,1.42-.08.99-.25,1.43c-.17.44-.41.82-.71,1.13s-.67.57-1.09.75c-.42.18-.88.27-1.39.27s-.97-.09-1.39-.27c-.42-.18-.78-.43-1.09-.75s-.55-.7-.71-1.13c-.17-.44-.25-.91-.25-1.43s.08-.99.25-1.42.41-.81.71-1.13.67-.57,1.09-.75.88-.27,1.39-.27ZM514.18,32.95c.28,0,.55-.05.8-.15.25-.1.48-.26.67-.46.2-.21.35-.46.46-.76s.17-.64.17-1.04-.06-.74-.17-1.03-.27-.54-.46-.75c-.2-.21-.42-.36-.67-.46-.25-.1-.52-.15-.8-.15s-.55.05-.8.15c-.25.1-.48.26-.67.46-.2.21-.35.46-.46.75-.11.29-.17.64-.17,1.03s.06.74.17,1.04c.11.3.27.55.46.76.2.21.42.36.67.46s.52.15.8.15Z"/>
    <path d="M520.49,33.92h-1.32v-6.73h1.29v.97c.24-.42.55-.72.92-.9.37-.18.76-.27,1.15-.27s.75.07,1.06.2c.3.13.55.32.76.56.2.24.35.52.45.85.1.33.15.68.15,1.05v4.27h-1.32v-4.05c0-.23-.03-.45-.08-.66-.05-.21-.14-.38-.27-.54-.13-.15-.29-.28-.49-.36-.2-.09-.45-.13-.74-.13-.26,0-.49.05-.69.15-.2.1-.36.23-.49.4-.13.17-.23.36-.29.59-.07.22-.1.46-.1.71v3.89Z"/>
    <path d="M530.68,33.92v-9.93h1.4v9.93h-1.4Z"/>
    <path d="M535.61,33.92h-1.32v-6.73h1.29v.97c.24-.42.55-.72.92-.9.37-.18.76-.27,1.15-.27s.75.07,1.06.2c.3.13.55.32.76.56.2.24.35.52.45.85.1.33.15.68.15,1.05v4.27h-1.32v-4.05c0-.23-.03-.45-.08-.66-.05-.21-.14-.38-.27-.54-.13-.15-.29-.28-.49-.36-.2-.09-.45-.13-.74-.13-.26,0-.49.05-.69.15-.2.1-.36.23-.49.4-.13.17-.23.36-.29.59-.07.22-.1.46-.1.71v3.89Z"/>
    <path d="M543.78,27.18h1.46v1.19h-1.46v3.5c0,.31.07.54.21.69.14.15.38.23.73.23.08,0,.18,0,.28-.01.1,0,.18-.02.24-.04v1.12c-.06.02-.16.04-.32.08-.16.03-.35.05-.57.05-.58,0-1.04-.17-1.37-.5s-.5-.81-.5-1.42v-3.7h-1.29v-1.19h.36c.36,0,.63-.1.79-.29.16-.2.25-.44.25-.74v-1.09h1.2v2.13Z"/>
    <path d="M552.55,32c-.09.3-.23.58-.41.83-.18.26-.4.48-.66.67s-.55.34-.88.46c-.33.11-.69.17-1.08.17-.45,0-.88-.08-1.29-.24-.41-.16-.77-.39-1.08-.7-.31-.31-.56-.69-.74-1.13-.18-.45-.27-.96-.27-1.53,0-.53.09-1.02.27-1.45.18-.43.41-.81.71-1.12s.64-.55,1.03-.73c.39-.17.8-.26,1.22-.26.51,0,.97.09,1.38.26s.74.41,1.02.72c.27.31.48.68.62,1.11.15.43.22.91.22,1.43,0,.08,0,.16,0,.24,0,.07-.01.13-.02.18h-5.07c0,.3.07.57.17.83s.25.47.43.65.4.32.64.42c.25.1.51.15.79.15.55,0,.97-.13,1.26-.39.29-.26.5-.58.63-.97l1.13.39ZM551.22,29.86c-.02-.49-.18-.89-.49-1.23-.31-.33-.76-.5-1.36-.5-.28,0-.53.05-.75.15-.22.1-.41.23-.56.39s-.28.35-.37.55c-.09.21-.14.42-.15.63h3.68Z"/>
    <path d="M557.91,28.51c-.2-.03-.39-.04-.57-.04-.55,0-1,.16-1.34.48-.34.32-.51.85-.51,1.59v3.37h-1.32v-6.73h1.29v1.18c.12-.26.26-.47.43-.64.16-.16.33-.29.51-.39.18-.1.36-.17.55-.2s.36-.06.53-.06c.09,0,.18,0,.26.01.08,0,.14.02.18.03v1.4Z"/>
    <path d="M562.73,33.92h-1.33l-2.73-6.73h1.48l1.92,5.19,1.93-5.19h1.41l-2.69,6.73Z"/>
    <path d="M566.03,32.11c0-.3.05-.57.15-.81.1-.24.25-.44.43-.61.18-.17.4-.3.65-.41s.52-.18.81-.22l1.82-.27c.21-.03.34-.09.41-.18.07-.09.11-.2.11-.32,0-.33-.11-.61-.34-.85-.23-.24-.6-.36-1.11-.36-.47,0-.83.13-1.08.38-.25.26-.4.58-.45.97l-1.26-.29c.04-.32.13-.61.29-.88s.35-.5.59-.69c.24-.19.53-.34.85-.45.32-.11.67-.16,1.03-.16.5,0,.93.07,1.29.2.35.14.64.32.87.54.22.22.39.49.49.78s.15.61.15.94v3.37c0,.3,0,.54.03.71.02.18.04.31.06.39h-1.29c-.02-.08-.04-.2-.05-.34-.01-.14-.02-.33-.02-.57-.08.12-.17.25-.29.38-.12.13-.27.25-.45.36-.18.11-.38.2-.62.27-.24.07-.51.1-.8.1-.35,0-.66-.06-.93-.17-.28-.11-.51-.26-.71-.44-.2-.18-.35-.39-.46-.64-.11-.24-.16-.5-.16-.77ZM568.46,33.02c.27,0,.53-.03.76-.1.24-.07.44-.18.62-.34s.31-.36.41-.62.15-.57.15-.93v-.31l-2.06.31c-.28.05-.51.15-.7.31-.19.16-.28.39-.28.69,0,.25.1.48.29.68.2.2.46.3.8.3Z"/>
    <path d="M573.62,33.92v-10.14h1.32v10.14h-1.32Z"/>
  </g>
  <g>
    <g>
      <line class="cls-4" x1="68.35" y1="92.71" x2="252.58" y2="92.71"/>
      <polygon class="cls-6" points="251.12 97.69 259.76 92.71 251.12 87.72 251.12 97.69"/>
    </g>
    <rect class="cls-8" x="68.49" y="102.28" width="45.96" height="20.42"/>
    <rect class="cls-7" x="116.93" y="102.28" width="45.96" height="20.42"/>
    <rect class="cls-8" x="165.37" y="102.28" width="45.96" height="20.42"/>
    <rect class="cls-7" x="213.8" y="102.28" width="45.96" height="20.42"/>
    <g>
      <path d="M121.67,87.29c-.55,0-1.08-.1-1.59-.29-.51-.2-.96-.48-1.34-.86-.39-.38-.7-.84-.94-1.39-.24-.55-.35-1.18-.35-1.9s.12-1.34.36-1.89c.24-.55.56-1.01.95-1.39s.85-.66,1.36-.86c.51-.2,1.03-.29,1.55-.29.49,0,.94.06,1.34.19.41.13.77.31,1.09.54.32.23.59.52.81.85.22.34.39.71.5,1.12l-1.09.38c-.16-.65-.47-1.14-.92-1.49-.45-.34-1.03-.52-1.73-.52-.38,0-.76.07-1.12.21-.36.14-.69.35-.97.63-.28.28-.51.63-.68,1.05s-.25.91-.25,1.46.08,1.04.25,1.46.39.77.68,1.06.61.5.97.64c.36.14.74.21,1.12.21.36,0,.69-.05.98-.16.3-.1.56-.25.79-.43.23-.18.42-.4.58-.65.16-.25.28-.52.37-.81l1.04.38c-.11.4-.28.77-.5,1.1-.22.34-.49.62-.81.86-.32.24-.68.43-1.09.56-.41.14-.86.2-1.35.2Z"/>
      <path d="M129.37,81.16c.43,0,.83.08,1.19.23.36.16.67.37.94.64.26.27.47.59.61.97s.22.78.22,1.22-.07.85-.22,1.22-.35.7-.61.97c-.26.27-.58.49-.94.64-.36.16-.76.23-1.19.23s-.83-.08-1.19-.23c-.36-.16-.67-.37-.94-.64-.26-.27-.47-.6-.61-.97s-.22-.78-.22-1.22.07-.85.22-1.22.35-.69.61-.97c.26-.27.58-.49.94-.64.36-.16.76-.23,1.19-.23ZM129.37,86.29c.24,0,.47-.04.68-.13.22-.09.41-.22.58-.4.17-.18.3-.39.4-.65.1-.26.14-.55.14-.89s-.05-.63-.14-.88c-.1-.25-.23-.47-.4-.64s-.36-.31-.58-.4c-.22-.09-.44-.13-.68-.13s-.47.04-.68.13c-.22.09-.41.22-.58.4s-.3.39-.4.64c-.1.25-.14.55-.14.88s.05.63.14.89c.1.26.23.47.4.65.17.18.36.31.58.4s.44.13.68.13Z"/>
      <path d="M134.79,87.12h-1.13v-5.77h1.1v.83c.21-.36.47-.62.79-.77s.65-.23.98-.23.65.06.91.17c.26.12.48.28.65.48.17.2.3.45.38.73.08.28.13.58.13.9v3.66h-1.13v-3.47c0-.2-.02-.39-.07-.56-.04-.18-.12-.33-.23-.46s-.25-.24-.42-.31c-.17-.08-.38-.11-.63-.11-.22,0-.42.04-.59.13-.17.08-.31.2-.42.34-.11.14-.2.31-.25.5-.06.19-.08.4-.08.61v3.34Z"/>
      <path d="M141.39,87.12h-1.13v-5.77h1.1v.83c.21-.36.47-.62.79-.77s.65-.23.98-.23.65.06.91.17c.26.12.48.28.65.48.17.2.3.45.38.73.08.28.13.58.13.9v3.66h-1.13v-3.47c0-.2-.02-.39-.07-.56-.04-.18-.12-.33-.23-.46s-.25-.24-.42-.31c-.17-.08-.38-.11-.63-.11-.22,0-.42.04-.59.13-.17.08-.31.2-.42.34-.11.14-.2.31-.25.5-.06.19-.08.4-.08.61v3.34Z"/>
      <path d="M151.97,85.47c-.08.26-.2.49-.35.71-.16.22-.34.41-.56.58-.22.16-.47.29-.75.39-.28.1-.59.14-.92.14-.38,0-.75-.07-1.1-.2-.35-.14-.66-.34-.93-.6s-.48-.59-.64-.97c-.16-.38-.23-.82-.23-1.31,0-.46.08-.87.23-1.24.15-.37.35-.69.61-.96.25-.27.55-.48.88-.62.34-.15.68-.22,1.04-.22.44,0,.83.07,1.18.22.35.15.64.35.87.62.23.26.41.58.53.95s.19.78.19,1.23c0,.07,0,.14,0,.2,0,.06-.01.12-.02.16h-4.34c0,.26.06.49.14.71.09.22.21.4.37.56.16.16.34.28.55.36s.44.13.68.13c.47,0,.83-.11,1.08-.34.25-.22.43-.5.54-.83l.97.34ZM150.83,83.63c-.02-.42-.16-.77-.42-1.05-.26-.28-.65-.43-1.16-.43-.24,0-.45.04-.64.13s-.35.2-.48.34c-.13.14-.24.3-.32.47-.08.18-.12.36-.13.54h3.16Z"/>
      <path d="M155.88,82.21c-.23,0-.45.04-.66.13s-.39.21-.56.38-.29.38-.39.63c-.1.25-.14.55-.14.88s.05.62.14.87c.1.25.22.46.38.64.16.17.35.3.56.39.22.09.44.13.67.13.27,0,.5-.04.69-.12.19-.08.34-.18.47-.3.12-.12.22-.25.29-.39.07-.14.12-.27.16-.38l1,.43c-.07.21-.18.42-.31.63-.14.21-.31.41-.53.58-.22.18-.47.32-.76.43-.29.11-.63.16-1,.16-.42,0-.81-.08-1.17-.23-.36-.16-.66-.37-.92-.65-.26-.28-.46-.6-.61-.97-.15-.37-.22-.78-.22-1.22s.07-.86.22-1.24c.15-.38.35-.7.61-.97.26-.27.57-.48.92-.63.36-.15.74-.23,1.15-.23.38,0,.72.05,1.01.16s.54.25.76.43c.21.18.38.37.51.59.13.22.22.44.29.65l-1.02.43c-.04-.14-.1-.29-.17-.43-.07-.14-.17-.27-.29-.39-.12-.12-.27-.21-.45-.29-.18-.08-.39-.11-.64-.11Z"/>
      <path d="M161.4,81.34h1.25v1.02h-1.25v3c0,.26.06.46.18.59.12.13.33.2.62.2.07,0,.15,0,.24-.01.09,0,.16-.02.2-.04v.96s-.14.04-.28.07c-.14.03-.3.04-.49.04-.5,0-.89-.14-1.18-.43-.29-.28-.43-.69-.43-1.22v-3.17h-1.1v-1.02h.31c.31,0,.54-.08.68-.25s.21-.38.21-.64v-.94h1.03v1.82Z"/>
      <path d="M163.63,79.16c0-.23.08-.43.23-.58.16-.16.35-.23.57-.23s.43.08.58.23c.16.16.23.35.23.58s-.08.41-.23.57c-.16.16-.35.23-.58.23s-.41-.08-.57-.23c-.16-.16-.23-.35-.23-.57ZM163.88,87.12v-5.77h1.12v5.77h-1.12Z"/>
      <path d="M169.28,81.16c.43,0,.83.08,1.19.23.36.16.67.37.94.64.26.27.47.59.61.97s.22.78.22,1.22-.07.85-.22,1.22-.35.7-.61.97c-.26.27-.58.49-.94.64-.36.16-.76.23-1.19.23s-.83-.08-1.19-.23c-.36-.16-.67-.37-.94-.64-.26-.27-.47-.6-.61-.97s-.22-.78-.22-1.22.07-.85.22-1.22.35-.69.61-.97c.26-.27.58-.49.94-.64.36-.16.76-.23,1.19-.23ZM169.28,86.29c.24,0,.47-.04.68-.13.22-.09.41-.22.58-.4.17-.18.3-.39.4-.65.1-.26.14-.55.14-.89s-.05-.63-.14-.88c-.1-.25-.23-.47-.4-.64s-.36-.31-.58-.4c-.22-.09-.44-.13-.68-.13s-.47.04-.68.13c-.22.09-.41.22-.58.4s-.3.39-.4.64c-.1.25-.14.55-.14.88s.05.63.14.89c.1.26.23.47.4.65.17.18.36.31.58.4s.44.13.68.13Z"/>
      <path d="M174.69,87.12h-1.13v-5.77h1.1v.83c.21-.36.47-.62.79-.77s.65-.23.98-.23.65.06.91.17c.26.12.48.28.65.48.17.2.3.45.38.73.08.28.13.58.13.9v3.66h-1.13v-3.47c0-.2-.02-.39-.07-.56-.04-.18-.12-.33-.23-.46s-.25-.24-.42-.31c-.17-.08-.38-.11-.63-.11-.22,0-.42.04-.59.13-.17.08-.31.2-.42.34-.11.14-.2.31-.25.5-.06.19-.08.4-.08.61v3.34Z"/>
      <path d="M183.43,87.12v-8.51h5.17v1.09h-4v2.62h3.62v1.1h-3.62v2.6h4v1.09h-5.17Z"/>
      <path d="M192.68,87.12h-1.14l-2.34-5.77h1.27l1.64,4.45,1.66-4.45h1.21l-2.3,5.77Z"/>
      <path d="M200.88,85.47c-.08.26-.2.49-.35.71-.16.22-.34.41-.56.58-.22.16-.47.29-.75.39-.28.1-.59.14-.92.14-.38,0-.75-.07-1.1-.2-.35-.14-.66-.34-.93-.6-.27-.26-.48-.59-.64-.97-.16-.38-.23-.82-.23-1.31,0-.46.08-.87.23-1.24.15-.37.35-.69.61-.96.25-.27.55-.48.88-.62.34-.15.68-.22,1.04-.22.44,0,.83.07,1.18.22.35.15.64.35.87.62.23.26.41.58.53.95s.19.78.19,1.23c0,.07,0,.14,0,.2,0,.06,0,.12-.02.16h-4.34c0,.26.06.49.14.71.09.22.21.4.37.56.16.16.34.28.55.36s.44.13.68.13c.47,0,.83-.11,1.08-.34.25-.22.43-.5.54-.83l.97.34ZM199.74,83.63c-.02-.42-.16-.77-.42-1.05-.26-.28-.65-.43-1.16-.43-.24,0-.45.04-.64.13-.19.08-.35.2-.48.34-.13.14-.24.3-.32.47-.08.18-.12.36-.13.54h3.16Z"/>
      <path d="M203.41,87.12h-1.13v-5.77h1.1v.83c.21-.36.47-.62.79-.77.32-.15.65-.23.98-.23s.65.06.91.17c.26.12.48.28.65.48.17.2.3.45.38.73.08.28.13.58.13.9v3.66h-1.13v-3.47c0-.2-.02-.39-.07-.56-.04-.18-.12-.33-.23-.46-.11-.13-.25-.24-.42-.31-.17-.08-.38-.11-.63-.11-.22,0-.42.04-.59.13s-.31.2-.42.34c-.11.14-.2.31-.25.5-.06.19-.08.4-.08.61v3.34Z"/>
      <path d="M210.42,81.34h1.25v1.02h-1.25v3c0,.26.06.46.18.59s.33.2.62.2c.07,0,.15,0,.24-.01s.16-.02.2-.04v.96s-.14.04-.28.07c-.14.03-.3.04-.49.04-.5,0-.89-.14-1.18-.43-.29-.28-.43-.69-.43-1.22v-3.17h-1.1v-1.02h.31c.31,0,.54-.08.68-.25.14-.17.21-.38.21-.64v-.94h1.03v1.82Z"/>
    </g>
    <g>
      <path class="cls-5" d="M84.96,116.41c-.55,0-1.08-.1-1.59-.29-.51-.2-.96-.48-1.34-.86-.39-.38-.7-.84-.94-1.39-.24-.55-.35-1.18-.35-1.9s.12-1.34.36-1.89c.24-.55.56-1.01.95-1.39.4-.38.85-.66,1.36-.86.51-.2,1.03-.29,1.55-.29.49,0,.94.06,1.34.19.41.13.77.31,1.09.54.32.23.59.52.81.85.22.34.39.71.5,1.12l-1.09.38c-.16-.65-.47-1.14-.92-1.49-.45-.34-1.03-.52-1.73-.52-.38,0-.76.07-1.12.21-.36.14-.69.35-.97.63-.28.28-.51.63-.68,1.05-.17.42-.25.91-.25,1.46s.08,1.04.25,1.46c.17.42.39.77.68,1.06.28.28.61.5.97.64.36.14.74.21,1.12.21.36,0,.69-.05.98-.16.3-.1.56-.25.79-.43s.42-.4.58-.65c.16-.25.28-.52.37-.81l1.04.38c-.11.4-.28.77-.5,1.1-.22.34-.49.62-.81.86-.32.24-.68.43-1.09.56-.41.14-.86.2-1.35.2Z"/>
      <path class="cls-5" d="M95.16,113.3l-4.94,2.46v-1.14l3.74-1.84-3.74-1.84v-1.14l4.94,2.47v1.02Z"/>
      <path class="cls-5" d="M97.83,112.75v3.48h-1.18v-8.51h3.1c.39,0,.75.06,1.07.19s.6.31.83.53c.23.23.41.49.53.8s.19.64.19,1-.06.69-.19,1-.31.57-.53.79-.5.39-.83.52-.68.19-1.07.19h-1.92ZM99.54,111.69c.51,0,.91-.13,1.21-.39.29-.26.44-.61.44-1.05s-.15-.82-.44-1.08c-.29-.26-.69-.4-1.21-.4h-1.7v2.92h1.7Z"/>
    </g>
    <g>
      <path class="cls-5" d="M181.83,116.41c-.55,0-1.08-.1-1.59-.29-.51-.2-.96-.48-1.34-.86-.39-.38-.7-.84-.94-1.39-.24-.55-.35-1.18-.35-1.9s.12-1.34.36-1.89c.24-.55.56-1.01.95-1.39.4-.38.85-.66,1.36-.86.51-.2,1.03-.29,1.55-.29.49,0,.94.06,1.34.19.41.13.77.31,1.09.54.32.23.59.52.81.85.22.34.39.71.5,1.12l-1.09.38c-.16-.65-.47-1.14-.92-1.49-.45-.34-1.03-.52-1.73-.52-.38,0-.76.07-1.12.21-.36.14-.69.35-.97.63-.28.28-.51.63-.68,1.05-.17.42-.25.91-.25,1.46s.08,1.04.25,1.46c.17.42.39.77.68,1.06.28.28.61.5.97.64.36.14.74.21,1.12.21.36,0,.69-.05.98-.16.3-.1.56-.25.79-.43s.42-.4.58-.65c.16-.25.28-.52.37-.81l1.04.38c-.11.4-.28.77-.5,1.1-.22.34-.49.62-.81.86-.32.24-.68.43-1.09.56-.41.14-.86.2-1.35.2Z"/>
      <path class="cls-5" d="M192.03,113.3l-4.94,2.46v-1.14l3.74-1.84-3.74-1.84v-1.14l4.94,2.47v1.02Z"/>
      <path class="cls-5" d="M194.71,112.75v3.48h-1.18v-8.51h3.1c.39,0,.75.06,1.07.19s.6.31.83.53c.23.23.41.49.53.8s.19.64.19,1-.06.69-.19,1-.31.57-.53.79-.5.39-.83.52-.68.19-1.07.19h-1.92ZM196.41,111.69c.51,0,.91-.13,1.21-.39.29-.26.44-.61.44-1.05s-.15-.82-.44-1.08c-.29-.26-.69-.4-1.21-.4h-1.7v2.92h1.7Z"/>
    </g>
    <g>
      <path class="cls-5" d="M129.02,112.75v3.48h-1.18v-8.51h3.1c.39,0,.75.06,1.07.19s.6.31.83.53c.23.23.41.49.53.8s.19.64.19,1-.06.69-.19,1-.31.57-.53.79-.5.39-.83.52-.68.19-1.07.19h-1.92ZM130.72,111.69c.51,0,.91-.13,1.21-.39.29-.26.44-.61.44-1.05s-.15-.82-.44-1.08c-.29-.26-.69-.4-1.21-.4h-1.7v2.92h1.7Z"/>
      <path class="cls-5" d="M134.47,113.28v-.98h3.25v.98h-3.25Z"/>
      <path class="cls-5" d="M143.62,113.3l-4.94,2.46v-1.14l3.74-1.84-3.74-1.84v-1.14l4.94,2.47v1.02Z"/>
      <path class="cls-5" d="M148.81,116.41c-.55,0-1.08-.1-1.59-.29-.51-.2-.96-.48-1.34-.86-.39-.38-.7-.84-.94-1.39-.24-.55-.35-1.18-.35-1.9s.12-1.34.36-1.89c.24-.55.56-1.01.95-1.39.4-.38.85-.66,1.36-.86.51-.2,1.03-.29,1.55-.29.49,0,.94.06,1.34.19.41.13.77.31,1.09.54.32.23.59.52.81.85.22.34.39.71.5,1.12l-1.09.38c-.16-.65-.47-1.14-.92-1.49-.45-.34-1.03-.52-1.73-.52-.38,0-.76.07-1.12.21-.36.14-.69.35-.97.63-.28.28-.51.63-.68,1.05-.17.42-.25.91-.25,1.46s.08,1.04.25,1.46c.17.42.39.77.68,1.06.28.28.61.5.97.64.36.14.74.21,1.12.21.36,0,.69-.05.98-.16.3-.1.56-.25.79-.43s.42-.4.58-.65c.16-.25.28-.52.37-.81l1.04.38c-.11.4-.28.77-.5,1.1-.22.34-.49.62-.81.86-.32.24-.68.43-1.09.56-.41.14-.86.2-1.35.2Z"/>
    </g>
    <g>
      <path class="cls-5" d="M225.9,112.75v3.48h-1.18v-8.51h3.1c.39,0,.75.06,1.07.19s.6.31.83.53c.23.23.41.49.53.8s.19.64.19,1-.06.69-.19,1-.31.57-.53.79-.5.39-.83.52-.68.19-1.07.19h-1.92ZM227.6,111.69c.51,0,.91-.13,1.21-.39.29-.26.44-.61.44-1.05s-.15-.82-.44-1.08c-.29-.26-.69-.4-1.21-.4h-1.7v2.92h1.7Z"/>
      <path class="cls-5" d="M231.35,113.28v-.98h3.25v.98h-3.25Z"/>
      <path class="cls-5" d="M240.5,113.3l-4.94,2.46v-1.14l3.74-1.84-3.74-1.84v-1.14l4.94,2.47v1.02Z"/>
      <path class="cls-5" d="M245.69,116.41c-.55,0-1.08-.1-1.59-.29-.51-.2-.96-.48-1.34-.86-.39-.38-.7-.84-.94-1.39-.24-.55-.35-1.18-.35-1.9s.12-1.34.36-1.89c.24-.55.56-1.01.95-1.39.4-.38.85-.66,1.36-.86.51-.2,1.03-.29,1.55-.29.49,0,.94.06,1.34.19.41.13.77.31,1.09.54.32.23.59.52.81.85.22.34.39.71.5,1.12l-1.09.38c-.16-.65-.47-1.14-.92-1.49-.45-.34-1.03-.52-1.73-.52-.38,0-.76.07-1.12.21-.36.14-.69.35-.97.63-.28.28-.51.63-.68,1.05-.17.42-.25.91-.25,1.46s.08,1.04.25,1.46c.17.42.39.77.68,1.06.28.28.61.5.97.64.36.14.74.21,1.12.21.36,0,.69-.05.98-.16.3-.1.56-.25.79-.43s.42-.4.58-.65c.16-.25.28-.52.37-.81l1.04.38c-.11.4-.28.77-.5,1.1-.22.34-.49.62-.81.86-.32.24-.68.43-1.09.56-.41.14-.86.2-1.35.2Z"/>
    </g>
  </g>
  <g>
    <g>
      <line class="cls-4" x1="371.35" y1="171.76" x2="555.59" y2="171.76"/>
      <polygon class="cls-6" points="554.13 176.75 562.76 171.76 554.13 166.77 554.13 176.75"/>
    </g>
    <rect class="cls-8" x="371.49" y="181.34" width="45.96" height="20.42"/>
    <rect class="cls-7" x="419.93" y="181.34" width="45.96" height="20.42"/>
    <rect class="cls-8" x="468.37" y="181.34" width="45.96" height="20.42"/>
    <rect class="cls-7" x="516.81" y="181.34" width="45.96" height="20.42"/>
    <g>
      <path d="M424.67,166.35c-.55,0-1.08-.1-1.59-.29-.51-.2-.96-.48-1.34-.86-.39-.38-.7-.84-.94-1.39-.24-.55-.35-1.18-.35-1.9s.12-1.34.36-1.89c.24-.55.56-1.01.95-1.39s.85-.66,1.36-.86c.51-.2,1.03-.29,1.55-.29.49,0,.94.06,1.34.19.41.13.77.31,1.09.54.32.23.59.52.81.85.22.34.39.71.5,1.12l-1.09.38c-.16-.65-.47-1.14-.92-1.49-.45-.34-1.03-.52-1.73-.52-.38,0-.76.07-1.12.21-.36.14-.69.35-.97.63-.28.28-.51.63-.68,1.05s-.25.91-.25,1.46.08,1.04.25,1.46.39.77.68,1.06.61.5.97.64c.36.14.74.21,1.12.21.36,0,.69-.05.98-.16.3-.1.56-.25.79-.43.23-.18.42-.4.58-.65.16-.25.28-.52.37-.81l1.04.38c-.11.4-.28.77-.5,1.1-.22.34-.49.62-.81.86-.32.24-.68.43-1.09.56-.41.14-.86.2-1.35.2Z"/>
      <path d="M432.38,160.22c.43,0,.83.08,1.19.23.36.16.67.37.94.64.26.27.47.59.61.97s.22.78.22,1.22-.07.85-.22,1.22-.35.7-.61.97c-.26.27-.58.49-.94.64-.36.16-.76.23-1.19.23s-.83-.08-1.19-.23c-.36-.16-.67-.37-.94-.64-.26-.27-.47-.6-.61-.97s-.22-.78-.22-1.22.07-.85.22-1.22.35-.69.61-.97c.26-.27.58-.49.94-.64.36-.16.76-.23,1.19-.23ZM432.38,165.34c.24,0,.47-.04.68-.13.22-.09.41-.22.58-.4.17-.18.3-.39.4-.65.1-.26.14-.55.14-.89s-.05-.63-.14-.88c-.1-.25-.23-.47-.4-.64s-.36-.31-.58-.4c-.22-.09-.44-.13-.68-.13s-.47.04-.68.13c-.22.09-.41.22-.58.4s-.3.39-.4.64c-.1.25-.14.55-.14.88s.05.63.14.89c.1.26.23.47.4.65.17.18.36.31.58.4s.44.13.68.13Z"/>
      <path d="M437.79,166.17h-1.13v-5.77h1.1v.83c.21-.36.47-.62.79-.77s.65-.23.98-.23.65.06.91.17c.26.12.48.28.65.48.17.2.3.45.38.73.08.28.13.58.13.9v3.66h-1.13v-3.47c0-.2-.02-.39-.07-.56-.04-.18-.12-.33-.23-.46s-.25-.24-.42-.31c-.17-.08-.38-.11-.63-.11-.22,0-.42.04-.59.13-.17.08-.31.2-.42.34-.11.14-.2.31-.25.5-.06.19-.08.4-.08.61v3.34Z"/>
      <path d="M444.4,166.17h-1.13v-5.77h1.1v.83c.21-.36.47-.62.79-.77s.65-.23.98-.23.65.06.91.17c.26.12.48.28.65.48.17.2.3.45.38.73.08.28.13.58.13.9v3.66h-1.13v-3.47c0-.2-.02-.39-.07-.56-.04-.18-.12-.33-.23-.46s-.25-.24-.42-.31c-.17-.08-.38-.11-.63-.11-.22,0-.42.04-.59.13-.17.08-.31.2-.42.34-.11.14-.2.31-.25.5-.06.19-.08.4-.08.61v3.34Z"/>
      <path d="M454.97,164.52c-.08.26-.2.49-.35.71-.16.22-.34.41-.56.58-.22.16-.47.29-.75.39-.28.1-.59.14-.92.14-.38,0-.75-.07-1.1-.2-.35-.14-.66-.34-.93-.6s-.48-.59-.64-.97c-.16-.38-.23-.82-.23-1.31,0-.46.08-.87.23-1.24.15-.37.35-.69.61-.96.25-.27.55-.48.88-.62.34-.15.68-.22,1.04-.22.44,0,.83.07,1.18.22.35.15.64.35.87.62.23.26.41.58.53.95s.19.78.19,1.23c0,.07,0,.14,0,.2,0,.06-.01.12-.02.16h-4.34c0,.26.06.49.14.71.09.22.21.4.37.56.16.16.34.28.55.36s.44.13.68.13c.47,0,.83-.11,1.08-.34.25-.22.43-.5.54-.83l.97.34ZM453.83,162.69c-.02-.42-.16-.77-.42-1.05-.26-.28-.65-.43-1.16-.43-.24,0-.45.04-.64.13s-.35.2-.48.34c-.13.14-.24.3-.32.47-.08.18-.12.36-.13.54h3.16Z"/>
      <path d="M458.88,161.26c-.23,0-.45.04-.66.13s-.39.21-.56.38-.29.38-.39.63c-.1.25-.14.55-.14.88s.05.62.14.87c.1.25.22.46.38.64.16.17.35.3.56.39.22.09.44.13.67.13.27,0,.5-.04.69-.12.19-.08.34-.18.47-.3.12-.12.22-.25.29-.39.07-.14.12-.27.16-.38l1,.43c-.07.21-.18.42-.31.63-.14.21-.31.41-.53.58-.22.18-.47.32-.76.43-.29.11-.63.16-1,.16-.42,0-.81-.08-1.17-.23-.36-.16-.66-.37-.92-.65-.26-.28-.46-.6-.61-.97-.15-.37-.22-.78-.22-1.22s.07-.86.22-1.24c.15-.38.35-.7.61-.97.26-.27.57-.48.92-.63.36-.15.74-.23,1.15-.23.38,0,.72.05,1.01.16s.54.25.76.43c.21.18.38.37.51.59.13.22.22.44.29.65l-1.02.43c-.04-.14-.1-.29-.17-.43-.07-.14-.17-.27-.29-.39-.12-.12-.27-.21-.45-.29-.18-.08-.39-.11-.64-.11Z"/>
      <path d="M464.4,160.4h1.25v1.02h-1.25v3c0,.26.06.46.18.59.12.13.33.2.62.2.07,0,.15,0,.24-.01.09,0,.16-.02.2-.04v.96s-.14.04-.28.07c-.14.03-.3.04-.49.04-.5,0-.89-.14-1.18-.43-.29-.28-.43-.69-.43-1.22v-3.17h-1.1v-1.02h.31c.31,0,.54-.08.68-.25s.21-.38.21-.64v-.94h1.03v1.82Z"/>
      <path d="M466.63,158.21c0-.23.08-.43.23-.58.16-.16.35-.23.57-.23s.43.08.58.23c.16.16.23.35.23.58s-.08.41-.23.57c-.16.16-.35.23-.58.23s-.41-.08-.57-.23c-.16-.16-.23-.35-.23-.57ZM466.89,166.17v-5.77h1.12v5.77h-1.12Z"/>
      <path d="M472.28,160.22c.43,0,.83.08,1.19.23.36.16.67.37.94.64.26.27.47.59.61.97s.22.78.22,1.22-.07.85-.22,1.22-.35.7-.61.97c-.26.27-.58.49-.94.64-.36.16-.76.23-1.19.23s-.83-.08-1.19-.23c-.36-.16-.67-.37-.94-.64-.26-.27-.47-.6-.61-.97s-.22-.78-.22-1.22.07-.85.22-1.22.35-.69.61-.97c.26-.27.58-.49.94-.64.36-.16.76-.23,1.19-.23ZM472.28,165.34c.24,0,.47-.04.68-.13.22-.09.41-.22.58-.4.17-.18.3-.39.4-.65.1-.26.14-.55.14-.89s-.05-.63-.14-.88c-.1-.25-.23-.47-.4-.64s-.36-.31-.58-.4c-.22-.09-.44-.13-.68-.13s-.47.04-.68.13c-.22.09-.41.22-.58.4s-.3.39-.4.64c-.1.25-.14.55-.14.88s.05.63.14.89c.1.26.23.47.4.65.17.18.36.31.58.4s.44.13.68.13Z"/>
      <path d="M477.7,166.17h-1.13v-5.77h1.1v.83c.21-.36.47-.62.79-.77s.65-.23.98-.23.65.06.91.17c.26.12.48.28.65.48.17.2.3.45.38.73.08.28.13.58.13.9v3.66h-1.13v-3.47c0-.2-.02-.39-.07-.56-.04-.18-.12-.33-.23-.46s-.25-.24-.42-.31c-.17-.08-.38-.11-.63-.11-.22,0-.42.04-.59.13-.17.08-.31.2-.42.34-.11.14-.2.31-.25.5-.06.19-.08.4-.08.61v3.34Z"/>
      <path d="M486.43,166.17v-8.51h5.17v1.09h-4v2.62h3.62v1.1h-3.62v2.6h4v1.09h-5.17Z"/>
      <path d="M495.68,166.17h-1.14l-2.34-5.77h1.27l1.64,4.45,1.66-4.45h1.21l-2.3,5.77Z"/>
      <path d="M503.89,164.52c-.08.26-.2.49-.35.71-.16.22-.34.41-.56.58-.22.16-.47.29-.75.39-.28.1-.59.14-.92.14-.38,0-.75-.07-1.1-.2-.35-.14-.66-.34-.93-.6-.27-.26-.48-.59-.64-.97-.16-.38-.23-.82-.23-1.31,0-.46.08-.87.23-1.24.15-.37.35-.69.61-.96.25-.27.55-.48.88-.62.34-.15.68-.22,1.04-.22.44,0,.83.07,1.18.22.35.15.64.35.87.62.23.26.41.58.53.95s.19.78.19,1.23c0,.07,0,.14,0,.2,0,.06,0,.12-.02.16h-4.34c0,.26.06.49.14.71.09.22.21.4.37.56.16.16.34.28.55.36s.44.13.68.13c.47,0,.83-.11,1.08-.34.25-.22.43-.5.54-.83l.97.34ZM502.75,162.69c-.02-.42-.16-.77-.42-1.05-.26-.28-.65-.43-1.16-.43-.24,0-.45.04-.64.13-.19.08-.35.2-.48.34-.13.14-.24.3-.32.47-.08.18-.12.36-.13.54h3.16Z"/>
      <path d="M506.41,166.17h-1.13v-5.77h1.1v.83c.21-.36.47-.62.79-.77.32-.15.65-.23.98-.23s.65.06.91.17c.26.12.48.28.65.48.17.2.3.45.38.73.08.28.13.58.13.9v3.66h-1.13v-3.47c0-.2-.02-.39-.07-.56-.04-.18-.12-.33-.23-.46-.11-.13-.25-.24-.42-.31-.17-.08-.38-.11-.63-.11-.22,0-.42.04-.59.13s-.31.2-.42.34c-.11.14-.2.31-.25.5-.06.19-.08.4-.08.61v3.34Z"/>
      <path d="M513.42,160.4h1.25v1.02h-1.25v3c0,.26.06.46.18.59s.33.2.62.2c.07,0,.15,0,.24-.01s.16-.02.2-.04v.96s-.14.04-.28.07c-.14.03-.3.04-.49.04-.5,0-.89-.14-1.18-.43-.29-.28-.43-.69-.43-1.22v-3.17h-1.1v-1.02h.31c.31,0,.54-.08.68-.25.14-.17.21-.38.21-.64v-.94h1.03v1.82Z"/>
    </g>
    <g>
      <path class="cls-5" d="M387.96,195.46c-.55,0-1.08-.1-1.59-.29-.51-.2-.96-.48-1.34-.86-.39-.38-.7-.84-.94-1.39-.24-.55-.35-1.18-.35-1.9s.12-1.34.36-1.89c.24-.55.56-1.01.95-1.39.4-.38.85-.66,1.36-.86.51-.2,1.03-.29,1.55-.29.49,0,.94.06,1.34.19.41.13.77.31,1.09.54.32.23.59.52.81.85.22.34.39.71.5,1.12l-1.09.38c-.16-.65-.47-1.14-.92-1.49-.45-.34-1.03-.52-1.73-.52-.38,0-.76.07-1.12.21-.36.14-.69.35-.97.63-.28.28-.51.63-.68,1.05-.17.42-.25.91-.25,1.46s.08,1.04.25,1.46c.17.42.39.77.68,1.06.28.28.61.5.97.64.36.14.74.21,1.12.21.36,0,.69-.05.98-.16.3-.1.56-.25.79-.43s.42-.4.58-.65c.16-.25.28-.52.37-.81l1.04.38c-.11.4-.28.77-.5,1.1-.22.34-.49.62-.81.86-.32.24-.68.43-1.09.56-.41.14-.86.2-1.35.2Z"/>
      <path class="cls-5" d="M398.16,192.35l-4.94,2.46v-1.14l3.74-1.84-3.74-1.84v-1.14l4.94,2.47v1.02Z"/>
      <path class="cls-5" d="M400.83,191.8v3.48h-1.18v-8.51h3.1c.39,0,.75.06,1.07.19s.6.31.83.53c.23.23.41.49.53.8s.19.64.19,1-.06.69-.19,1-.31.57-.53.79-.5.39-.83.52-.68.19-1.07.19h-1.92ZM402.54,190.75c.51,0,.91-.13,1.21-.39.29-.26.44-.61.44-1.05s-.15-.82-.44-1.08c-.29-.26-.69-.4-1.21-.4h-1.7v2.92h1.7Z"/>
    </g>
    <g>
      <path class="cls-5" d="M484.84,195.46c-.55,0-1.08-.1-1.59-.29-.51-.2-.96-.48-1.34-.86-.39-.38-.7-.84-.94-1.39-.24-.55-.35-1.18-.35-1.9s.12-1.34.36-1.89c.24-.55.56-1.01.95-1.39.4-.38.85-.66,1.36-.86.51-.2,1.03-.29,1.55-.29.49,0,.94.06,1.34.19.41.13.77.31,1.09.54.32.23.59.52.81.85.22.34.39.71.5,1.12l-1.09.38c-.16-.65-.47-1.14-.92-1.49-.45-.34-1.03-.52-1.73-.52-.38,0-.76.07-1.12.21-.36.14-.69.35-.97.63-.28.28-.51.63-.68,1.05-.17.42-.25.91-.25,1.46s.08,1.04.25,1.46c.17.42.39.77.68,1.06.28.28.61.5.97.64.36.14.74.21,1.12.21.36,0,.69-.05.98-.16.3-.1.56-.25.79-.43s.42-.4.58-.65c.16-.25.28-.52.37-.81l1.04.38c-.11.4-.28.77-.5,1.1-.22.34-.49.62-.81.86-.32.24-.68.43-1.09.56-.41.14-.86.2-1.35.2Z"/>
      <path class="cls-5" d="M495.04,192.35l-4.94,2.46v-1.14l3.74-1.84-3.74-1.84v-1.14l4.94,2.47v1.02Z"/>
      <path class="cls-5" d="M497.71,191.8v3.48h-1.18v-8.51h3.1c.39,0,.75.06,1.07.19s.6.31.83.53c.23.23.41.49.53.8s.19.64.19,1-.06.69-.19,1-.31.57-.53.79-.5.39-.83.52-.68.19-1.07.19h-1.92ZM499.42,190.75c.51,0,.91-.13,1.21-.39.29-.26.44-.61.44-1.05s-.15-.82-.44-1.08c-.29-.26-.69-.4-1.21-.4h-1.7v2.92h1.7Z"/>
    </g>
    <g>
      <path class="cls-5" d="M432.02,191.8v3.48h-1.18v-8.51h3.1c.39,0,.75.06,1.07.19s.6.31.83.53c.23.23.41.49.53.8s.19.64.19,1-.06.69-.19,1-.31.57-.53.79-.5.39-.83.52-.68.19-1.07.19h-1.92ZM433.73,190.75c.51,0,.91-.13,1.21-.39.29-.26.44-.61.44-1.05s-.15-.82-.44-1.08c-.29-.26-.69-.4-1.21-.4h-1.7v2.92h1.7Z"/>
      <path class="cls-5" d="M437.47,192.33v-.98h3.25v.98h-3.25Z"/>
      <path class="cls-5" d="M446.63,192.35l-4.94,2.46v-1.14l3.74-1.84-3.74-1.84v-1.14l4.94,2.47v1.02Z"/>
      <path class="cls-5" d="M451.81,195.46c-.55,0-1.08-.1-1.59-.29-.51-.2-.96-.48-1.34-.86-.39-.38-.7-.84-.94-1.39-.24-.55-.35-1.18-.35-1.9s.12-1.34.36-1.89c.24-.55.56-1.01.95-1.39.4-.38.85-.66,1.36-.86.51-.2,1.03-.29,1.55-.29.49,0,.94.06,1.34.19.41.13.77.31,1.09.54.32.23.59.52.81.85.22.34.39.71.5,1.12l-1.09.38c-.16-.65-.47-1.14-.92-1.49-.45-.34-1.03-.52-1.73-.52-.38,0-.76.07-1.12.21-.36.14-.69.35-.97.63-.28.28-.51.63-.68,1.05-.17.42-.25.91-.25,1.46s.08,1.04.25,1.46c.17.42.39.77.68,1.06.28.28.61.5.97.64.36.14.74.21,1.12.21.36,0,.69-.05.98-.16.3-.1.56-.25.79-.43s.42-.4.58-.65c.16-.25.28-.52.37-.81l1.04.38c-.11.4-.28.77-.5,1.1-.22.34-.49.62-.81.86-.32.24-.68.43-1.09.56-.41.14-.86.2-1.35.2Z"/>
    </g>
    <g>
      <path class="cls-5" d="M528.9,191.8v3.48h-1.18v-8.51h3.1c.39,0,.75.06,1.07.19s.6.31.83.53c.23.23.41.49.53.8s.19.64.19,1-.06.69-.19,1-.31.57-.53.79-.5.39-.83.52-.68.19-1.07.19h-1.92ZM530.6,190.75c.51,0,.91-.13,1.21-.39.29-.26.44-.61.44-1.05s-.15-.82-.44-1.08c-.29-.26-.69-.4-1.21-.4h-1.7v2.92h1.7Z"/>
      <path class="cls-5" d="M534.35,192.33v-.98h3.25v.98h-3.25Z"/>
      <path class="cls-5" d="M543.5,192.35l-4.94,2.46v-1.14l3.74-1.84-3.74-1.84v-1.14l4.94,2.47v1.02Z"/>
      <path class="cls-5" d="M548.69,195.46c-.55,0-1.08-.1-1.59-.29-.51-.2-.96-.48-1.34-.86-.39-.38-.7-.84-.94-1.39-.24-.55-.35-1.18-.35-1.9s.12-1.34.36-1.89c.24-.55.56-1.01.95-1.39.4-.38.85-.66,1.36-.86.51-.2,1.03-.29,1.55-.29.49,0,.94.06,1.34.19s.77.31,1.09.54c.32.23.59.52.81.85.22.34.39.71.5,1.12l-1.09.38c-.16-.65-.47-1.14-.92-1.49-.45-.34-1.03-.52-1.73-.52-.38,0-.76.07-1.12.21s-.69.35-.97.63c-.29.28-.51.63-.68,1.05-.17.42-.25.91-.25,1.46s.08,1.04.25,1.46c.17.42.39.77.68,1.06.28.28.61.5.97.64s.74.21,1.12.21c.36,0,.69-.05.98-.16.29-.1.56-.25.79-.43.23-.18.42-.4.58-.65s.28-.52.37-.81l1.04.38c-.11.4-.28.77-.5,1.1-.22.34-.49.62-.81.86-.32.24-.68.43-1.09.56-.41.14-.86.2-1.35.2Z"/>
    </g>
  </g>
  <g>
    <line x1="212.27" y1="162.28" x2="212.27" y2="129.79"/>
    <g>
      <line class="cls-3" x1="212.27" y1="162.28" x2="212.27" y2="136.97"/>
      <polygon points="217.26 138.43 212.27 129.79 207.29 138.43 217.26 138.43"/>
    </g>
  </g>
  <g>
    <path d="M195.32,172.64v-5.48h-1.88v-.83c.54-.02.99-.16,1.34-.43.35-.27.57-.61.66-1.04h1.03v7.78h-1.15Z"/>
    <path d="M199.01,170.19c.04.48.22.87.54,1.16s.72.44,1.21.44c.23,0,.45-.04.65-.11.2-.07.38-.18.53-.32.15-.14.27-.31.35-.5.09-.19.13-.41.13-.65,0-.26-.05-.5-.14-.7-.09-.2-.21-.37-.37-.5s-.33-.23-.53-.3c-.2-.07-.42-.1-.64-.1-.28,0-.54.05-.79.15-.25.1-.46.24-.62.41-.21-.08-.4-.16-.58-.23-.18-.08-.37-.15-.57-.22l1.01-3.86h4.1v1.08h-3.32l-.58,2.23c.18-.19.41-.34.7-.43.29-.1.58-.14.89-.14.38,0,.74.06,1.06.18.32.12.6.29.83.51.24.22.42.49.55.81s.2.68.2,1.08c0,.37-.07.71-.2,1.03-.14.32-.33.6-.58.84s-.55.43-.9.57c-.35.14-.74.21-1.18.21s-.79-.06-1.13-.19c-.34-.12-.64-.29-.89-.5s-.45-.46-.6-.74c-.15-.28-.23-.57-.26-.88l1.13-.34Z"/>
    <path d="M204.73,168.75c0-.54.05-1.04.16-1.52.1-.48.28-.91.54-1.3s.58-.69.97-.91c.39-.22.86-.34,1.42-.34s1.02.11,1.42.34c.39.22.72.53.97.91.26.38.44.82.54,1.3.1.48.16.99.16,1.52s-.05,1.04-.16,1.52c-.1.48-.28.91-.54,1.3-.26.38-.58.69-.97.91-.39.22-.86.34-1.42.34s-1.02-.11-1.42-.34c-.39-.22-.72-.53-.97-.91-.26-.38-.44-.82-.54-1.3-.1-.48-.16-.99-.16-1.52ZM205.9,168.75c0,1.2.23,2.04.68,2.52.15.16.33.28.52.37.2.09.43.13.71.13s.52-.04.71-.13c.2-.09.37-.21.52-.37.46-.48.68-1.32.68-2.52s-.23-2.04-.68-2.52c-.15-.16-.33-.28-.52-.37-.2-.09-.43-.13-.71-.13s-.52.04-.71.13c-.2.09-.37.21-.52.37-.46.48-.68,1.32-.68,2.52Z"/>
    <path d="M217.18,172.76c-.29,0-.56-.04-.8-.13s-.46-.22-.65-.39c-.18-.17-.33-.39-.43-.64s-.16-.55-.16-.89v-3.74h.78v3.71c0,.43.11.77.33,1s.53.35.93.35.71-.12.93-.35.33-.57.33-1v-3.71h.78v3.74c0,.34-.05.63-.16.89s-.25.47-.43.64c-.18.17-.4.3-.65.39s-.52.13-.8.13Z"/>
    <path d="M223.61,168.51c-.02-.1-.05-.21-.1-.32s-.13-.22-.22-.32c-.1-.1-.22-.17-.36-.24s-.31-.09-.51-.09c-.16,0-.31.02-.44.07-.13.05-.25.12-.35.2s-.17.19-.23.3c-.05.12-.08.24-.08.37,0,.2.06.38.18.52s.3.25.54.3l.85.18c.47.11.84.3,1.09.58s.38.62.38,1.02c0,.22-.04.43-.14.63-.09.2-.22.38-.39.54-.17.15-.38.28-.62.37-.24.09-.51.14-.82.14-.34,0-.64-.05-.89-.15-.25-.1-.47-.23-.64-.39s-.31-.34-.4-.54c-.1-.2-.16-.4-.18-.6l.75-.24c.02.16.05.31.12.46.06.15.15.28.26.39s.25.2.42.27c.16.07.35.1.56.1.39,0,.68-.09.88-.26.19-.18.29-.39.29-.64,0-.2-.07-.38-.21-.55s-.35-.27-.64-.33l-.81-.18c-.41-.09-.74-.27-1-.52-.26-.26-.39-.6-.39-1.03,0-.22.05-.44.14-.64.1-.2.23-.38.4-.54.17-.15.37-.28.6-.37.23-.09.47-.14.74-.14.32,0,.59.04.82.13s.42.2.57.34c.15.14.27.29.36.46.08.17.14.33.18.48l-.7.25Z"/>
  </g>
</svg>