<?xml version="1.0" encoding="UTF-8"?>
<svg id="Layer_1" data-name="Layer 1" xmlns="http://www.w3.org/2000/svg" viewBox="0 0 684 396">
  <defs>
    <style>
      .cls-1 {
        fill: #fff;
      }

      .cls-2 {
        fill: #ffcb0f;
      }

      .cls-3 {
        fill: #7fb842;
      }

      .cls-4 {
        fill: none;
        stroke: #646569;
        stroke-dasharray: 1 3 1 3 1 3;
        stroke-miterlimit: 10;
      }

      .cls-5 {
        fill: #0082fc;
      }
    </style>
  </defs>
  <line class="cls-4" x1="48.45" y1="357.47" x2="48.45" y2="31.77"/>
  <g>
    <path d="M43.46,16.21c-.45,0-.88-.08-1.3-.24s-.78-.39-1.1-.7c-.32-.31-.57-.69-.76-1.14-.19-.45-.29-.97-.29-1.55s.1-1.1.29-1.54c.2-.45.46-.83.78-1.13s.69-.54,1.11-.7.84-.24,1.27-.24c.4,0,.76.05,1.1.16s.63.25.89.44c.26.19.48.42.66.7s.32.58.41.91l-.89.31c-.13-.53-.38-.93-.75-1.22-.37-.28-.84-.42-1.42-.42-.31,0-.62.06-.92.17-.3.11-.56.29-.79.51-.23.23-.42.51-.55.86-.14.34-.21.74-.21,1.19s.07.85.21,1.19c.14.34.32.63.55.86.23.23.5.41.79.52.3.11.6.17.92.17.29,0,.56-.04.8-.13.24-.08.46-.2.64-.35.19-.15.34-.32.47-.53.13-.21.23-.43.3-.66l.85.31c-.09.33-.23.63-.41.9s-.4.51-.66.71c-.26.2-.56.35-.89.46-.34.11-.7.17-1.1.17Z"/>
    <path d="M47.87,16.06v-6.95h.98v6.95h-.98Z"/>
    <path d="M55.96,16.06l-.09-.98c-.08.14-.18.27-.31.41-.13.13-.29.26-.48.36s-.4.19-.64.26c-.24.06-.5.1-.8.1-.44,0-.86-.08-1.26-.24s-.76-.39-1.08-.7c-.31-.31-.56-.69-.75-1.14-.19-.45-.28-.97-.28-1.56s.1-1.11.29-1.56.46-.83.78-1.13.69-.53,1.1-.69.83-.24,1.26-.24c.38,0,.73.05,1.06.15s.63.24.89.43c.26.18.49.4.69.66s.34.54.44.86l-.87.37c-.16-.5-.43-.89-.81-1.17s-.85-.42-1.39-.42c-.31,0-.62.05-.91.17-.29.11-.55.28-.78.51-.23.23-.41.51-.55.86-.14.34-.21.74-.21,1.2s.07.87.2,1.21c.13.34.31.63.54.86s.48.4.77.51.59.17.91.17c.39,0,.71-.06.98-.18.27-.12.49-.27.66-.46.17-.18.29-.38.37-.59.08-.21.12-.41.14-.58h-2.41v-.86h3.32v3.4h-.77Z"/>
    <path d="M17.76,21.27c-.14-.02-.27-.03-.4-.03-.39,0-.7.11-.94.34s-.36.6-.36,1.11v2.36h-.92v-4.71h.9v.82c.08-.18.18-.33.3-.45.11-.11.23-.21.36-.27.12-.07.25-.12.38-.14.13-.03.25-.04.37-.04.07,0,.13,0,.18,0,.05,0,.1.01.12.02v.98Z"/>
    <path d="M22.89,23.71c-.07.21-.16.4-.29.58-.13.18-.28.34-.46.47-.18.13-.38.24-.61.32-.23.08-.48.12-.75.12-.31,0-.61-.06-.9-.17-.29-.11-.54-.28-.76-.49-.22-.22-.39-.48-.52-.79-.13-.31-.19-.67-.19-1.07,0-.37.06-.71.19-1.01.12-.3.29-.57.5-.79s.45-.39.72-.51c.27-.12.56-.18.85-.18.36,0,.68.06.97.18.28.12.52.29.71.51.19.21.33.47.44.78.1.3.15.64.15,1,0,.06,0,.12,0,.17,0,.05,0,.09-.01.13h-3.55c0,.21.05.4.12.58.07.18.17.33.3.46.13.13.28.23.45.29.17.07.36.1.55.1.38,0,.68-.09.88-.27s.35-.41.44-.68l.79.27ZM21.96,22.21c-.01-.34-.13-.62-.34-.86-.22-.23-.53-.35-.95-.35-.2,0-.37.03-.52.1-.15.07-.28.16-.39.27-.11.12-.19.24-.26.39s-.1.29-.11.44h2.58Z"/>
    <path d="M25.37,21.18v3.88h-.95v-3.88h-.87v-.83h.87v-.79c0-.26.04-.49.12-.7.08-.2.19-.37.33-.51.14-.14.3-.24.49-.31.19-.07.39-.1.6-.1.16,0,.28.01.38.04.09.03.15.05.17.06v.82s-.07-.03-.13-.04c-.06-.01-.15-.02-.27-.02-.08,0-.16.01-.25.03-.09.02-.17.06-.25.12s-.14.14-.18.25-.07.24-.07.4v.75h1.14v.83h-1.14Z"/>
    <path d="M31.62,23.71c-.07.21-.16.4-.29.58-.13.18-.28.34-.46.47-.18.13-.38.24-.61.32-.23.08-.48.12-.75.12-.31,0-.61-.06-.9-.17-.29-.11-.54-.28-.76-.49-.22-.22-.39-.48-.52-.79-.13-.31-.19-.67-.19-1.07,0-.37.06-.71.19-1.01.12-.3.29-.57.5-.79s.45-.39.72-.51c.27-.12.56-.18.85-.18.36,0,.68.06.97.18.28.12.52.29.71.51.19.21.33.47.44.78.1.3.15.64.15,1,0,.06,0,.12,0,.17,0,.05,0,.09-.01.13h-3.55c0,.21.05.4.12.58.07.18.17.33.3.46.13.13.28.23.45.29.17.07.36.1.55.1.38,0,.68-.09.88-.27s.35-.41.44-.68l.79.27ZM30.69,22.21c-.01-.34-.13-.62-.34-.86-.22-.23-.53-.35-.95-.35-.2,0-.37.03-.52.1-.15.07-.28.16-.39.27-.11.12-.19.24-.26.39s-.1.29-.11.44h2.58Z"/>
    <path d="M35.47,21.27c-.14-.02-.27-.03-.4-.03-.39,0-.7.11-.94.34s-.36.6-.36,1.11v2.36h-.92v-4.71h.9v.82c.08-.18.18-.33.3-.45.11-.11.23-.21.36-.27.12-.07.25-.12.38-.14.13-.03.25-.04.37-.04.07,0,.13,0,.18,0,.05,0,.1.01.12.02v.98Z"/>
    <path d="M40.6,23.71c-.07.21-.16.4-.29.58-.13.18-.28.34-.46.47-.18.13-.38.24-.61.32-.23.08-.48.12-.75.12-.31,0-.61-.06-.9-.17-.29-.11-.54-.28-.76-.49-.22-.22-.39-.48-.52-.79-.13-.31-.19-.67-.19-1.07,0-.37.06-.71.19-1.01.12-.3.29-.57.5-.79s.45-.39.72-.51c.27-.12.56-.18.85-.18.36,0,.68.06.97.18.28.12.52.29.71.51.19.21.33.47.44.78.1.3.15.64.15,1,0,.06,0,.12,0,.17,0,.05,0,.09-.01.13h-3.55c0,.21.05.4.12.58.07.18.17.33.3.46.13.13.28.23.45.29.17.07.36.1.55.1.38,0,.68-.09.88-.27s.35-.41.44-.68l.79.27ZM39.67,22.21c-.01-.34-.13-.62-.34-.86-.22-.23-.53-.35-.95-.35-.2,0-.37.03-.52.1-.15.07-.28.16-.39.27-.11.12-.19.24-.26.39s-.1.29-.11.44h2.58Z"/>
    <path d="M42.75,25.06h-.92v-4.71h.9v.68c.17-.29.39-.5.65-.63.26-.12.53-.19.8-.19s.53.05.74.14c.21.1.39.23.53.39s.25.36.31.59c.07.23.1.47.1.74v2.99h-.92v-2.83c0-.16-.02-.32-.05-.46-.04-.14-.1-.27-.19-.38-.09-.11-.2-.19-.34-.25-.14-.06-.31-.09-.51-.09-.18,0-.34.03-.48.1-.14.07-.25.16-.34.28-.09.12-.16.25-.21.41s-.07.32-.07.5v2.73Z"/>
    <path d="M49.36,21.05c-.19,0-.37.03-.54.1-.17.07-.32.17-.46.31-.13.14-.24.31-.32.51-.08.21-.12.45-.12.72s.04.51.12.71c.08.21.18.38.31.52s.28.25.46.32c.18.07.36.11.55.11.22,0,.41-.03.56-.1.15-.06.28-.15.38-.24.1-.1.18-.21.24-.32s.1-.22.13-.31l.81.35c-.06.17-.14.34-.25.52-.11.17-.25.33-.43.47-.18.14-.38.26-.62.35-.24.09-.51.13-.82.13-.35,0-.67-.06-.96-.19-.29-.13-.54-.3-.75-.53-.21-.22-.37-.49-.5-.79s-.18-.64-.18-1,.06-.7.18-1.01c.12-.31.29-.57.5-.79.21-.22.46-.39.75-.51.29-.12.6-.19.94-.19.31,0,.59.04.83.13.24.09.44.21.62.35.17.14.31.31.42.49s.18.36.24.53l-.83.35c-.03-.12-.08-.24-.14-.35-.06-.12-.14-.22-.24-.32-.1-.09-.22-.17-.37-.23-.14-.06-.32-.09-.52-.09Z"/>
    <path d="M56.75,23.71c-.07.21-.16.4-.29.58-.13.18-.28.34-.46.47-.18.13-.38.24-.61.32-.23.08-.48.12-.75.12-.31,0-.61-.06-.9-.17-.29-.11-.54-.28-.76-.49-.22-.22-.39-.48-.52-.79-.13-.31-.19-.67-.19-1.07,0-.37.06-.71.19-1.01.12-.3.29-.57.5-.79s.45-.39.72-.51c.27-.12.56-.18.85-.18.36,0,.68.06.97.18.28.12.52.29.71.51.19.21.33.47.44.78.1.3.15.64.15,1,0,.06,0,.12,0,.17,0,.05,0,.09-.01.13h-3.55c0,.21.05.4.12.58.07.18.17.33.3.46.13.13.28.23.45.29.17.07.36.1.55.1.38,0,.68-.09.88-.27s.35-.41.44-.68l.79.27ZM55.82,22.21c-.01-.34-.13-.62-.34-.86-.22-.23-.53-.35-.95-.35-.2,0-.37.03-.52.1-.15.07-.28.16-.39.27-.11.12-.19.24-.26.39s-.1.29-.11.44h2.58Z"/>
    <path d="M60.41,26.92v-6.58h.89v.73c.13-.23.33-.43.6-.6.27-.16.59-.25.98-.25.35,0,.66.06.94.19.27.13.5.3.68.53s.32.48.41.78c.09.3.14.62.14.96s-.05.68-.15.98c-.1.3-.24.56-.43.79-.19.23-.42.4-.69.53s-.58.19-.93.19c-.37,0-.68-.08-.94-.23-.26-.15-.46-.33-.59-.54v2.5h-.91ZM64.1,22.7c0-.23-.03-.45-.1-.65s-.16-.37-.27-.52c-.12-.15-.26-.26-.44-.35-.17-.08-.37-.13-.58-.13s-.4.04-.57.13c-.17.09-.32.2-.45.35s-.22.32-.28.52-.1.42-.1.65.03.47.1.67.16.38.28.53.27.26.45.34c.17.08.36.12.57.12s.41-.04.58-.12c.17-.08.32-.2.44-.34s.21-.32.28-.53.1-.43.1-.67Z"/>
    <path d="M68.34,20.2c.35,0,.68.06.97.19.29.13.55.3.76.53.22.22.38.48.5.79.12.3.18.63.18.99s-.06.69-.18,1c-.12.31-.28.57-.5.79-.21.22-.47.4-.76.52-.29.13-.62.19-.97.19s-.68-.06-.97-.19c-.29-.13-.55-.3-.76-.52-.22-.22-.38-.49-.5-.79-.12-.31-.18-.64-.18-1s.06-.69.18-.99c.12-.3.28-.57.5-.79.22-.22.47-.4.76-.53.29-.13.62-.19.97-.19ZM68.34,24.38c.2,0,.38-.04.56-.11.18-.07.33-.18.47-.32.14-.14.25-.32.32-.53.08-.21.12-.45.12-.73s-.04-.51-.12-.72c-.08-.21-.19-.38-.32-.52-.14-.14-.29-.25-.47-.32-.18-.07-.36-.11-.56-.11s-.38.04-.56.11c-.18.07-.33.18-.47.32-.14.14-.25.32-.32.52-.08.21-.12.45-.12.72s.04.52.12.73c.08.21.19.39.32.53.14.14.29.25.47.32.18.07.36.11.56.11Z"/>
    <path d="M71.7,18.56c0-.19.06-.35.19-.47.13-.13.28-.19.47-.19s.35.06.48.19.19.29.19.47-.06.34-.19.47c-.13.13-.29.19-.48.19s-.34-.06-.47-.19-.19-.28-.19-.47ZM71.9,25.06v-4.71h.91v4.71h-.91Z"/>
    <path d="M75.25,25.06h-.92v-4.71h.9v.68c.17-.29.39-.5.65-.63.26-.12.53-.19.8-.19s.53.05.74.14c.21.1.39.23.53.39s.25.36.31.59c.07.23.1.47.1.74v2.99h-.92v-2.83c0-.16-.02-.32-.05-.46-.04-.14-.1-.27-.19-.38-.09-.11-.2-.19-.34-.25-.14-.06-.31-.09-.51-.09-.18,0-.34.03-.48.1-.14.07-.25.16-.34.28-.09.12-.16.25-.21.41s-.07.32-.07.5v2.73Z"/>
    <path d="M81.07,20.34h1.02v.83h-1.02v2.45c0,.22.05.38.15.49.1.11.27.16.51.16.06,0,.12,0,.2,0,.07,0,.13-.02.17-.03v.79s-.11.03-.23.05c-.11.02-.25.04-.4.04-.41,0-.73-.12-.96-.35-.24-.23-.35-.56-.35-1v-2.59h-.9v-.83h.25c.25,0,.44-.07.55-.21.11-.14.17-.31.17-.52v-.76h.84v1.49Z"/>
  </g>
  <g>
    <path d="M611.43,16.21c-.45,0-.88-.08-1.3-.24s-.78-.39-1.1-.7c-.32-.31-.57-.69-.76-1.14-.19-.45-.29-.97-.29-1.55s.1-1.1.29-1.54c.2-.45.46-.83.78-1.13s.69-.54,1.11-.7.84-.24,1.27-.24c.4,0,.76.05,1.1.16s.63.25.89.44c.26.19.48.42.66.7s.32.58.41.91l-.89.31c-.13-.53-.38-.93-.75-1.22-.37-.28-.84-.42-1.42-.42-.31,0-.62.06-.92.17-.3.11-.56.29-.79.51-.23.23-.42.51-.55.86-.14.34-.21.74-.21,1.19s.07.85.21,1.19c.14.34.32.63.55.86.23.23.5.41.79.52.3.11.6.17.92.17.29,0,.56-.04.8-.13.24-.08.46-.2.64-.35.19-.15.34-.32.47-.53.13-.21.23-.43.3-.66l.85.31c-.09.33-.23.63-.41.9s-.4.51-.66.71c-.26.2-.56.35-.89.46-.34.11-.7.17-1.1.17Z"/>
    <path d="M615.84,16.06v-6.95h.98v6.95h-.98Z"/>
    <path d="M623.93,16.06l-.09-.98c-.08.14-.18.27-.31.41-.13.13-.29.26-.48.36s-.4.19-.64.26c-.24.06-.5.1-.8.1-.44,0-.86-.08-1.26-.24s-.76-.39-1.08-.7c-.31-.31-.56-.69-.75-1.14-.19-.45-.28-.97-.28-1.56s.1-1.11.29-1.56.46-.83.78-1.13.69-.53,1.1-.69.83-.24,1.26-.24c.38,0,.73.05,1.06.15s.63.24.89.43c.26.18.49.4.69.66s.34.54.44.86l-.87.37c-.16-.5-.43-.89-.81-1.17s-.85-.42-1.39-.42c-.31,0-.62.05-.91.17-.29.11-.55.28-.78.51-.23.23-.41.51-.55.86-.14.34-.21.74-.21,1.2s.07.87.2,1.21c.13.34.31.63.54.86s.48.4.77.51.59.17.91.17c.39,0,.71-.06.98-.18.27-.12.49-.27.66-.46.17-.18.29-.38.37-.59.08-.21.12-.41.14-.58h-2.41v-.86h3.32v3.4h-.77Z"/>
    <path d="M570.08,23.54c.03.25.14.46.32.63.18.17.44.25.77.25.26,0,.46-.06.6-.19.14-.12.21-.27.21-.44,0-.15-.05-.28-.16-.38s-.25-.18-.45-.23l-.8-.18c-.37-.08-.66-.24-.87-.47-.21-.24-.31-.52-.31-.85,0-.2.04-.39.13-.57.09-.18.21-.34.36-.48.15-.14.33-.24.53-.32.21-.08.42-.12.65-.12.32,0,.59.05.81.14.22.09.4.2.53.34.14.13.24.27.31.42.07.14.12.27.14.37l-.81.3c-.01-.06-.04-.13-.07-.23-.03-.09-.08-.18-.16-.26-.07-.08-.17-.15-.29-.21s-.28-.09-.46-.09c-.24,0-.42.06-.57.19-.14.13-.22.27-.22.44,0,.3.18.49.54.57l.76.17c.43.09.76.26.98.5s.33.54.33.9c0,.17-.04.34-.11.51-.07.17-.18.33-.32.47-.14.14-.32.26-.53.35-.22.09-.47.13-.76.13-.33,0-.61-.05-.84-.14-.23-.09-.42-.21-.58-.34s-.27-.29-.35-.45c-.08-.16-.13-.31-.15-.45l.83-.29Z"/>
    <path d="M574.28,27.03l1.18-2.49-2.03-4.2h1.06l1.47,3.25,1.41-3.25h.99l-3.07,6.68h-1.01Z"/>
    <path d="M580.21,25.06h-.92v-4.71h.9v.68c.17-.29.39-.5.65-.63.26-.12.53-.19.8-.19s.53.05.74.14c.21.1.39.23.53.39s.25.36.31.59c.07.23.1.47.1.74v2.99h-.92v-2.83c0-.16-.02-.32-.05-.46-.04-.14-.1-.27-.19-.38-.09-.11-.2-.19-.34-.25-.14-.06-.31-.09-.51-.09-.18,0-.34.03-.48.1-.14.07-.25.16-.34.28-.09.12-.16.25-.21.41s-.07.32-.07.5v2.73Z"/>
    <path d="M586.82,21.05c-.19,0-.37.03-.54.1-.17.07-.32.17-.46.31-.13.14-.24.31-.32.51-.08.21-.12.45-.12.72s.04.51.12.71c.08.21.18.38.31.52s.28.25.46.32c.18.07.36.11.55.11.22,0,.41-.03.56-.1.15-.06.28-.15.38-.24.1-.1.18-.21.24-.32s.1-.22.13-.31l.81.35c-.06.17-.14.34-.25.52-.11.17-.25.33-.43.47-.18.14-.38.26-.62.35-.24.09-.51.13-.82.13-.35,0-.67-.06-.96-.19-.29-.13-.54-.3-.75-.53-.21-.22-.37-.49-.5-.79s-.18-.64-.18-1,.06-.7.18-1.01c.12-.31.29-.57.5-.79.21-.22.46-.39.75-.51.29-.12.6-.19.94-.19.31,0,.59.04.83.13.24.09.44.21.62.35.17.14.31.31.42.49s.18.36.24.53l-.83.35c-.03-.12-.08-.24-.14-.35-.06-.12-.14-.22-.24-.32-.1-.09-.22-.17-.37-.23-.14-.06-.32-.09-.52-.09Z"/>
    <path d="M590.96,25.06h-.92v-7.1h.92v2.93c.17-.25.38-.43.64-.53.25-.11.52-.16.79-.16s.53.05.74.14c.21.1.39.23.53.39s.25.36.31.59c.07.23.1.47.1.74v2.99h-.92v-2.83c0-.16-.02-.32-.05-.46-.04-.14-.1-.27-.19-.38-.09-.11-.2-.19-.34-.25-.14-.06-.31-.09-.51-.09-.18,0-.33.03-.47.1-.13.07-.25.15-.34.27-.09.11-.16.24-.21.39s-.08.31-.08.49v2.77Z"/>
    <path d="M598.14,21.27c-.14-.02-.27-.03-.4-.03-.39,0-.7.11-.94.34s-.36.6-.36,1.11v2.36h-.92v-4.71h.9v.82c.08-.18.18-.33.3-.45.11-.11.23-.21.36-.27.12-.07.25-.12.38-.14.13-.03.25-.04.37-.04.07,0,.13,0,.18,0,.05,0,.1.01.12.02v.98Z"/>
    <path d="M601.19,20.2c.35,0,.68.06.97.19.29.13.55.3.76.53.22.22.38.48.5.79.12.3.18.63.18.99s-.06.69-.18,1c-.12.31-.28.57-.5.79-.21.22-.47.4-.76.52-.29.13-.62.19-.97.19s-.68-.06-.97-.19c-.29-.13-.55-.3-.76-.52-.22-.22-.38-.49-.5-.79-.12-.31-.18-.64-.18-1s.06-.69.18-.99c.12-.3.28-.57.5-.79.22-.22.47-.4.76-.53.29-.13.62-.19.97-.19ZM601.19,24.38c.2,0,.38-.04.56-.11.18-.07.33-.18.47-.32.14-.14.25-.32.32-.53.08-.21.12-.45.12-.73s-.04-.51-.12-.72c-.08-.21-.19-.38-.32-.52-.14-.14-.29-.25-.47-.32-.18-.07-.36-.11-.56-.11s-.38.04-.56.11c-.18.07-.33.18-.47.32-.14.14-.25.32-.32.52-.08.21-.12.45-.12.72s.04.52.12.73c.08.21.19.39.32.53.14.14.29.25.47.32.18.07.36.11.56.11Z"/>
    <path d="M605.7,25.06h-.92v-4.71h.9v.68c.17-.29.39-.5.65-.63.26-.12.53-.19.8-.19s.53.05.74.14c.21.1.39.23.53.39s.25.36.31.59c.07.23.1.47.1.74v2.99h-.92v-2.83c0-.16-.02-.32-.05-.46-.04-.14-.1-.27-.19-.38-.09-.11-.2-.19-.34-.25-.14-.06-.31-.09-.51-.09-.18,0-.34.03-.48.1-.14.07-.25.16-.34.28-.09.12-.16.25-.21.41s-.07.32-.07.5v2.73Z"/>
    <path d="M610.05,18.56c0-.19.06-.35.19-.47.13-.13.28-.19.47-.19s.35.06.48.19.19.29.19.47-.06.34-.19.47c-.13.13-.29.19-.48.19s-.34-.06-.47-.19-.19-.28-.19-.47ZM610.26,25.06v-4.71h.91v4.71h-.91Z"/>
    <path d="M612.25,25.06v-.8l2.59-3.08h-2.55v-.83h3.7v.8l-2.59,3.08h2.64v.83h-3.78Z"/>
    <path d="M616.95,23.79c0-.21.04-.4.11-.56.07-.17.17-.31.3-.43.13-.12.28-.21.46-.28.18-.07.37-.12.57-.16l1.27-.19c.14-.02.24-.06.29-.13.05-.07.07-.14.07-.23,0-.23-.08-.43-.24-.59-.16-.17-.42-.25-.78-.25-.33,0-.58.09-.75.27s-.28.41-.31.68l-.88-.21c.03-.22.09-.43.2-.62s.25-.35.42-.48c.17-.13.37-.24.59-.31.23-.07.47-.11.72-.11.35,0,.65.05.9.14.25.1.45.22.61.38.16.16.27.34.34.55.07.21.11.43.11.66v2.36c0,.21,0,.38.02.5.01.12.03.22.04.28h-.9c-.01-.06-.02-.14-.03-.24,0-.1-.01-.23-.01-.4-.05.08-.12.17-.21.26s-.19.18-.31.25-.27.14-.44.19c-.17.05-.35.07-.56.07-.24,0-.46-.04-.65-.12-.19-.08-.36-.18-.49-.31-.14-.13-.24-.28-.32-.45-.08-.17-.11-.35-.11-.54ZM618.66,24.43c.19,0,.37-.02.53-.07.17-.05.31-.13.43-.24s.22-.25.29-.43c.07-.18.11-.4.11-.65v-.22l-1.44.22c-.2.03-.36.11-.49.22-.13.11-.2.28-.2.48,0,.18.07.34.21.48.14.14.32.21.56.21Z"/>
    <path d="M623.63,20.34h1.02v.83h-1.02v2.45c0,.22.05.38.15.49.1.11.27.16.51.16.06,0,.12,0,.2,0,.07,0,.13-.02.17-.03v.79s-.11.03-.23.05c-.11.02-.25.04-.4.04-.41,0-.73-.12-.96-.35-.24-.23-.35-.56-.35-1v-2.59h-.9v-.83h.25c.25,0,.44-.07.55-.21.11-.14.17-.31.17-.52v-.76h.84v1.49Z"/>
    <path d="M625.56,18.56c0-.19.06-.35.19-.47.13-.13.28-.19.47-.19s.35.06.48.19.19.29.19.47-.06.34-.19.47c-.13.13-.29.19-.48.19s-.34-.06-.47-.19-.19-.28-.19-.47ZM625.76,25.06v-4.71h.91v4.71h-.91Z"/>
    <path d="M630.26,20.2c.35,0,.68.06.97.19.29.13.55.3.76.53.22.22.38.48.5.79.12.3.18.63.18.99s-.06.69-.18,1c-.12.31-.28.57-.5.79-.21.22-.47.4-.76.52-.29.13-.62.19-.97.19s-.68-.06-.97-.19c-.29-.13-.55-.3-.76-.52-.22-.22-.38-.49-.5-.79-.12-.31-.18-.64-.18-1s.06-.69.18-.99c.12-.3.28-.57.5-.79.22-.22.47-.4.76-.53.29-.13.62-.19.97-.19ZM630.26,24.38c.2,0,.38-.04.56-.11.18-.07.33-.18.47-.32.14-.14.25-.32.32-.53.08-.21.12-.45.12-.73s-.04-.51-.12-.72c-.08-.21-.19-.38-.32-.52-.14-.14-.29-.25-.47-.32-.18-.07-.36-.11-.56-.11s-.38.04-.56.11c-.18.07-.33.18-.47.32-.14.14-.25.32-.32.52-.08.21-.12.45-.12.72s.04.52.12.73c.08.21.19.39.32.53.14.14.29.25.47.32.18.07.36.11.56.11Z"/>
    <path d="M634.78,25.06h-.92v-4.71h.9v.68c.17-.29.39-.5.65-.63.26-.12.53-.19.8-.19s.53.05.74.14c.21.1.39.23.53.39s.25.36.31.59c.07.23.1.47.1.74v2.99h-.92v-2.83c0-.16-.02-.32-.05-.46-.04-.14-.1-.27-.19-.38-.09-.11-.2-.19-.34-.25-.14-.06-.31-.09-.51-.09-.18,0-.34.03-.48.1-.14.07-.25.16-.34.28-.09.12-.16.25-.21.41s-.07.32-.07.5v2.73Z"/>
    <path d="M641.81,26.92v-6.58h.89v.73c.13-.23.33-.43.6-.6.27-.16.59-.25.98-.25.35,0,.66.06.94.19.27.13.5.3.68.53s.32.48.41.78c.09.3.14.62.14.96s-.05.68-.15.98c-.1.3-.24.56-.43.79-.19.23-.42.4-.69.53s-.58.19-.93.19c-.37,0-.68-.08-.94-.23-.26-.15-.46-.33-.59-.54v2.5h-.91ZM645.51,22.7c0-.23-.03-.45-.1-.65s-.16-.37-.27-.52c-.12-.15-.26-.26-.44-.35-.17-.08-.37-.13-.58-.13s-.4.04-.57.13c-.17.09-.32.2-.45.35s-.22.32-.28.52-.1.42-.1.65.03.47.1.67.16.38.28.53.27.26.45.34c.17.08.36.12.57.12s.41-.04.58-.12c.17-.08.32-.2.44-.34s.21-.32.28-.53.1-.43.1-.67Z"/>
    <path d="M649.74,20.2c.35,0,.68.06.97.19.29.13.55.3.76.53.22.22.38.48.5.79.12.3.18.63.18.99s-.06.69-.18,1c-.12.31-.28.57-.5.79-.21.22-.47.4-.76.52-.29.13-.62.19-.97.19s-.68-.06-.97-.19c-.29-.13-.55-.3-.76-.52-.22-.22-.38-.49-.5-.79-.12-.31-.18-.64-.18-1s.06-.69.18-.99c.12-.3.28-.57.5-.79.22-.22.47-.4.76-.53.29-.13.62-.19.97-.19ZM649.74,24.38c.2,0,.38-.04.56-.11.18-.07.33-.18.47-.32.14-.14.25-.32.32-.53.08-.21.12-.45.12-.73s-.04-.51-.12-.72c-.08-.21-.19-.38-.32-.52-.14-.14-.29-.25-.47-.32-.18-.07-.36-.11-.56-.11s-.38.04-.56.11c-.18.07-.33.18-.47.32-.14.14-.25.32-.32.52-.08.21-.12.45-.12.72s.04.52.12.73c.08.21.19.39.32.53.14.14.29.25.47.32.18.07.36.11.56.11Z"/>
    <path d="M653.1,18.56c0-.19.06-.35.19-.47.13-.13.28-.19.47-.19s.35.06.48.19.19.29.19.47-.06.34-.19.47c-.13.13-.29.19-.48.19s-.34-.06-.47-.19-.19-.28-.19-.47ZM653.31,25.06v-4.71h.91v4.71h-.91Z"/>
    <path d="M656.66,25.06h-.92v-4.71h.9v.68c.17-.29.39-.5.65-.63.26-.12.53-.19.8-.19s.53.05.74.14c.21.1.39.23.53.39s.25.36.31.59c.07.23.1.47.1.74v2.99h-.92v-2.83c0-.16-.02-.32-.05-.46-.04-.14-.1-.27-.19-.38-.09-.11-.2-.19-.34-.25-.14-.06-.31-.09-.51-.09-.18,0-.34.03-.48.1-.14.07-.25.16-.34.28-.09.12-.16.25-.21.41s-.07.32-.07.5v2.73Z"/>
    <path d="M662.48,20.34h1.02v.83h-1.02v2.45c0,.22.05.38.15.49.1.11.27.16.51.16.06,0,.12,0,.2,0,.07,0,.13-.02.17-.03v.79s-.11.03-.23.05c-.11.02-.25.04-.4.04-.41,0-.73-.12-.96-.35-.24-.23-.35-.56-.35-1v-2.59h-.9v-.83h.25c.25,0,.44-.07.55-.21.11-.14.17-.31.17-.52v-.76h.84v1.49Z"/>
  </g>
  <g>
    <rect class="cls-5" x="51.3" y="337.84" width="563.22" height="14.54"/>
    <g>
      <path class="cls-1" d="M292.18,348.31c-.45,0-.88-.08-1.3-.24s-.78-.39-1.1-.7c-.32-.31-.57-.69-.76-1.14-.19-.45-.29-.97-.29-1.55s.1-1.1.29-1.54c.2-.45.46-.82.78-1.13.32-.31.69-.54,1.11-.7s.84-.24,1.27-.24c.4,0,.76.05,1.1.16.33.11.63.25.89.44.26.19.48.42.66.7.18.28.32.58.41.91l-.89.31c-.13-.53-.38-.94-.75-1.22-.37-.28-.84-.42-1.42-.42-.31,0-.62.06-.92.17-.3.11-.56.29-.79.51-.23.23-.42.51-.55.86-.14.34-.21.74-.21,1.19s.07.85.21,1.19c.14.34.32.63.55.86s.5.41.79.52c.3.12.6.17.92.17.29,0,.56-.04.8-.13.24-.08.46-.2.64-.35.19-.15.34-.32.47-.53.13-.21.23-.43.3-.66l.85.31c-.09.33-.23.63-.41.9-.18.28-.4.51-.66.71-.26.2-.56.35-.89.46-.34.11-.7.17-1.1.17Z"/>
      <path class="cls-1" d="M296.59,348.16v-6.95h.98v6.95h-.98Z"/>
      <path class="cls-1" d="M304.68,348.16l-.09-.98c-.08.14-.18.27-.31.41-.13.13-.29.25-.48.36-.19.11-.4.19-.64.26-.24.07-.5.1-.8.1-.44,0-.86-.08-1.26-.24-.41-.16-.76-.39-1.08-.7-.31-.31-.56-.69-.75-1.14-.19-.45-.28-.97-.28-1.56s.1-1.11.29-1.56.46-.83.78-1.13c.32-.3.69-.53,1.1-.69.41-.16.83-.23,1.26-.23.38,0,.73.05,1.06.15.33.1.63.24.89.43s.49.4.69.66c.19.26.34.54.44.86l-.87.37c-.16-.5-.43-.89-.81-1.17s-.85-.42-1.39-.42c-.31,0-.62.06-.91.17-.29.11-.55.28-.78.51-.23.23-.41.51-.55.86s-.21.74-.21,1.2.07.87.2,1.21c.13.34.31.63.54.86s.48.4.77.51c.29.12.59.17.91.17.39,0,.71-.06.98-.18.27-.12.49-.27.66-.46.17-.18.29-.38.37-.59.08-.21.12-.41.14-.58h-2.41v-.86h3.32v3.4h-.77Z"/>
      <path class="cls-1" d="M308.65,348.94v-.77h5.02v.77h-5.02Z"/>
      <path class="cls-1" d="M318.6,343.09c-.02-.12-.06-.26-.13-.4-.07-.14-.16-.27-.27-.39-.12-.12-.26-.21-.44-.29-.18-.07-.39-.11-.63-.11-.2,0-.38.03-.54.09-.16.06-.31.14-.43.24-.12.11-.21.23-.28.37-.07.14-.1.29-.1.46,0,.25.08.46.23.64s.37.3.67.37l1.04.22c.58.13,1.03.37,1.34.71s.47.75.47,1.25c0,.27-.06.53-.17.77-.11.25-.27.47-.48.66-.21.19-.46.34-.75.46s-.63.17-1,.17c-.42,0-.78-.06-1.09-.19s-.57-.28-.78-.48c-.21-.2-.38-.42-.5-.66-.12-.25-.19-.49-.23-.74l.92-.29c.02.2.07.38.14.56.07.18.18.34.32.47.14.14.31.25.51.33.2.08.43.12.69.12.48,0,.83-.11,1.07-.32.24-.22.36-.48.36-.78,0-.25-.08-.47-.25-.67s-.43-.33-.78-.41l-.99-.22c-.5-.11-.9-.33-1.22-.64-.32-.32-.47-.74-.47-1.26,0-.28.06-.54.18-.79.12-.25.28-.47.49-.66s.45-.34.73-.46c.28-.12.58-.17.9-.17.39,0,.73.05,1,.16.28.11.51.25.7.42s.33.36.44.56c.1.2.18.4.21.59l-.86.3Z"/>
      <path class="cls-1" d="M319.97,341.21h1.16l1.8,3.1,1.8-3.1h1.1l-2.45,3.98v2.97h-.96v-2.97l-2.45-3.98Z"/>
      <path class="cls-1" d="M331.57,348.16l-3.75-5.67v5.67h-.96v-6.95h1.28l3.47,5.33v-5.33h.96v6.95h-1Z"/>
      <path class="cls-1" d="M337.43,348.31c-.45,0-.88-.08-1.3-.24s-.78-.39-1.1-.7c-.32-.31-.57-.69-.76-1.14-.19-.45-.29-.97-.29-1.55s.1-1.1.29-1.54c.2-.45.46-.82.78-1.13.32-.31.69-.54,1.11-.7s.84-.24,1.27-.24c.4,0,.76.05,1.1.16.33.11.63.25.89.44.26.19.48.42.66.7.18.28.32.58.41.91l-.89.31c-.13-.53-.38-.94-.75-1.22-.37-.28-.84-.42-1.42-.42-.31,0-.62.06-.92.17-.3.11-.56.29-.79.51-.23.23-.42.51-.55.86-.14.34-.21.74-.21,1.19s.07.85.21,1.19c.14.34.32.63.55.86s.5.41.79.52c.3.12.6.17.92.17.29,0,.56-.04.8-.13.24-.08.46-.2.64-.35.19-.15.34-.32.47-.53.13-.21.23-.43.3-.66l.85.31c-.09.33-.23.63-.41.9-.18.28-.4.51-.66.71-.26.2-.56.35-.89.46-.34.11-.7.17-1.1.17Z"/>
      <path class="cls-1" d="M341.27,348.94v-.77h5.02v.77h-5.02Z"/>
      <path class="cls-1" d="M347.65,348.16v-6.95h2.43c.44,0,.86.08,1.26.23.4.15.75.37,1.05.67.3.29.54.66.72,1.09s.27.94.27,1.5-.09,1.07-.27,1.5c-.18.43-.42.79-.73,1.08-.31.29-.66.51-1.06.66-.4.15-.82.22-1.26.22h-2.41ZM350.03,347.31c.32,0,.62-.05.91-.16s.54-.27.75-.49.39-.49.51-.81c.12-.33.19-.71.19-1.15s-.06-.82-.19-1.15-.29-.6-.5-.82c-.21-.22-.46-.38-.75-.5s-.59-.17-.91-.17h-1.44v5.24h1.42Z"/>
      <path class="cls-1" d="M354.79,348.16v-6.95h4.23v.89h-3.26v2.14h2.96v.9h-2.96v2.13h3.26v.89h-4.23Z"/>
      <path class="cls-1" d="M360.48,348.16v-6.95h.96v6.05h3.28v.9h-4.25Z"/>
      <path class="cls-1" d="M370.26,346.22h-3.08l-.74,1.94h-1.03l2.76-6.95h1.11l2.76,6.95h-1.04l-.75-1.94ZM367.53,345.33h2.39l-1.21-3.12-1.19,3.12Z"/>
      <path class="cls-1" d="M371.57,341.21h1.16l1.8,3.1,1.8-3.1h1.1l-2.45,3.98v2.97h-.96v-2.97l-2.45-3.98Z"/>
    </g>
  </g>
  <g>
    <rect class="cls-2" x="448.15" y="247.71" width="143.1" height="22.02"/>
    <polygon class="cls-2" points="428.01 259.46 465.93 282.51 465.93 236.42 428.01 259.46"/>
    <polygon class="cls-2" points="614.52 259.46 576.6 282.51 576.6 236.42 614.52 259.46"/>
    <g>
      <path class="cls-1" d="M463.47,261.92c-.45,0-.88-.08-1.3-.24s-.78-.39-1.1-.7c-.32-.31-.57-.69-.76-1.14-.19-.45-.29-.97-.29-1.55s.1-1.1.29-1.54c.2-.45.46-.82.78-1.13.32-.31.69-.54,1.11-.7s.84-.24,1.27-.24c.4,0,.76.05,1.1.16.33.11.63.25.89.44.26.19.48.42.66.7.18.28.32.58.41.91l-.89.31c-.13-.53-.38-.94-.75-1.22-.37-.28-.84-.42-1.42-.42-.31,0-.62.06-.92.17-.3.11-.56.29-.79.51-.23.23-.42.51-.55.86-.14.34-.21.74-.21,1.19s.07.85.21,1.19c.14.34.32.63.55.86s.5.41.79.52c.3.12.6.17.92.17.29,0,.56-.04.8-.13.24-.08.46-.2.64-.35.19-.15.34-.32.47-.53.13-.21.23-.43.3-.66l.85.31c-.09.33-.23.63-.41.9-.18.28-.4.51-.66.71-.26.2-.56.35-.89.46-.34.11-.7.17-1.1.17Z"/>
      <path class="cls-1" d="M467.87,261.77v-6.95h.98v6.95h-.98Z"/>
      <path class="cls-1" d="M474.27,256.7c-.02-.12-.06-.26-.13-.4-.07-.14-.16-.27-.27-.39-.12-.12-.26-.21-.44-.29-.18-.07-.39-.11-.63-.11-.2,0-.38.03-.54.09-.16.06-.31.14-.43.24-.12.11-.21.23-.28.37-.07.14-.1.29-.1.46,0,.25.08.46.23.64s.37.3.67.37l1.04.22c.58.13,1.03.37,1.34.71s.47.75.47,1.25c0,.27-.06.53-.17.77-.11.25-.27.47-.48.66-.21.19-.46.34-.75.46s-.63.17-1,.17c-.42,0-.78-.06-1.09-.19s-.57-.28-.78-.48c-.21-.2-.38-.42-.5-.66-.12-.25-.19-.49-.23-.74l.92-.29c.02.2.07.38.14.56.07.18.18.34.32.47.14.14.31.25.51.33.2.08.43.12.69.12.48,0,.83-.11,1.07-.32.24-.22.36-.48.36-.78,0-.25-.08-.47-.25-.67s-.43-.33-.78-.41l-.99-.22c-.5-.11-.9-.33-1.22-.64-.32-.32-.47-.74-.47-1.26,0-.28.06-.54.18-.79.12-.25.28-.47.49-.66s.45-.34.73-.46c.28-.12.58-.17.9-.17.39,0,.73.05,1,.16.28.11.51.25.7.42s.33.36.44.56c.1.2.18.4.21.59l-.86.3Z"/>
      <path class="cls-1" d="M476.13,262.54v-.77h5.02v.77h-5.02Z"/>
      <path class="cls-1" d="M486.08,256.7c-.02-.12-.06-.26-.13-.4-.07-.14-.16-.27-.27-.39-.12-.12-.26-.21-.44-.29-.18-.07-.39-.11-.63-.11-.2,0-.38.03-.54.09-.16.06-.31.14-.43.24-.12.11-.21.23-.28.37-.07.14-.1.29-.1.46,0,.25.08.46.23.64s.37.3.67.37l1.04.22c.58.13,1.03.37,1.34.71s.47.75.47,1.25c0,.27-.06.53-.17.77-.11.25-.27.47-.48.66-.21.19-.46.34-.75.46s-.63.17-1,.17c-.42,0-.78-.06-1.09-.19s-.57-.28-.78-.48c-.21-.2-.38-.42-.5-.66-.12-.25-.19-.49-.23-.74l.92-.29c.02.2.07.38.14.56.07.18.18.34.32.47.14.14.31.25.51.33.2.08.43.12.69.12.48,0,.83-.11,1.07-.32.24-.22.36-.48.36-.78,0-.25-.08-.47-.25-.67s-.43-.33-.78-.41l-.99-.22c-.5-.11-.9-.33-1.22-.64-.32-.32-.47-.74-.47-1.26,0-.28.06-.54.18-.79.12-.25.28-.47.49-.66s.45-.34.73-.46c.28-.12.58-.17.9-.17.39,0,.73.05,1,.16.28.11.51.25.7.42s.33.36.44.56c.1.2.18.4.21.59l-.86.3Z"/>
      <path class="cls-1" d="M488.35,263.74l1.18-2.49-2.03-4.2h1.06l1.47,3.25,1.41-3.25h.99l-3.07,6.68h-1.01Z"/>
      <path class="cls-1" d="M494.28,261.77h-.92v-4.71h.9v.68c.17-.29.39-.5.65-.63s.53-.19.8-.19.53.05.74.14c.21.09.39.23.53.39.14.17.25.36.31.59.07.23.1.47.1.74v2.99h-.92v-2.83c0-.16-.02-.32-.05-.46-.04-.14-.1-.27-.19-.38s-.2-.19-.34-.25-.31-.09-.51-.09c-.18,0-.34.03-.48.1-.14.07-.25.16-.34.28-.09.12-.16.25-.21.41-.05.16-.07.32-.07.5v2.73Z"/>
      <path class="cls-1" d="M500.89,257.76c-.19,0-.37.03-.54.1-.17.07-.32.17-.46.31s-.24.31-.32.51c-.08.21-.12.45-.12.72s.04.5.12.71c.08.21.18.38.31.52s.28.25.46.32c.18.07.36.11.55.11.22,0,.41-.03.56-.1s.28-.15.38-.25.18-.2.24-.32c.06-.11.1-.22.13-.31l.81.35c-.06.17-.14.34-.25.51s-.25.33-.43.48c-.18.14-.38.26-.62.35-.24.09-.51.13-.82.13-.35,0-.67-.06-.96-.19s-.54-.3-.75-.53c-.21-.23-.37-.49-.5-.79-.12-.3-.18-.63-.18-.99s.06-.7.18-1.01.29-.57.5-.79c.21-.22.46-.39.75-.51s.6-.19.94-.19c.31,0,.59.04.83.13.24.09.44.2.62.35.17.14.31.31.42.49s.18.36.24.53l-.83.35c-.03-.12-.08-.24-.14-.35s-.14-.22-.24-.32-.22-.17-.37-.24c-.14-.06-.32-.09-.52-.09Z"/>
      <path class="cls-1" d="M503.76,262.54v-.77h5.02v.77h-5.02Z"/>
      <path class="cls-1" d="M510.14,261.77v-6.95h2.43c.44,0,.86.08,1.26.23.4.15.75.37,1.05.67.3.29.54.66.72,1.09s.27.94.27,1.5-.09,1.07-.27,1.5c-.18.43-.42.79-.73,1.08-.31.29-.66.51-1.06.66-.4.15-.82.22-1.26.22h-2.41ZM512.52,260.92c.32,0,.62-.05.91-.16s.54-.27.75-.49.39-.49.51-.81c.12-.33.19-.71.19-1.15s-.06-.82-.19-1.15-.29-.6-.5-.82c-.21-.22-.46-.38-.75-.5s-.59-.17-.91-.17h-1.44v5.24h1.42Z"/>
      <path class="cls-1" d="M521.32,260.43c-.07.21-.16.4-.29.58-.13.18-.28.34-.46.47s-.38.24-.61.32c-.23.08-.48.12-.75.12-.31,0-.61-.06-.9-.17-.29-.11-.54-.27-.76-.49s-.39-.48-.52-.79c-.13-.31-.19-.67-.19-1.07,0-.37.06-.71.19-1.01s.29-.57.5-.78.45-.39.72-.51.56-.18.85-.18c.36,0,.68.06.97.18s.52.29.71.5c.19.22.33.48.44.78.1.3.15.64.15,1,0,.06,0,.11,0,.17,0,.05,0,.1-.01.13h-3.55c0,.21.05.4.12.58.07.18.17.33.3.46.13.13.28.23.45.29.17.07.36.1.55.1.38,0,.68-.09.88-.27.2-.18.35-.41.44-.68l.79.27ZM520.39,258.93c-.01-.34-.13-.62-.34-.86s-.53-.35-.95-.35c-.2,0-.37.03-.52.1-.15.07-.28.16-.39.27-.11.11-.19.24-.26.39-.07.14-.1.29-.11.44h2.58Z"/>
      <path class="cls-1" d="M522.57,261.77v-7.1h.92v7.1h-.92Z"/>
      <path class="cls-1" d="M524.75,260.5c0-.21.04-.4.11-.56.07-.17.17-.31.3-.43.13-.12.28-.21.46-.28.18-.07.37-.12.57-.16l1.27-.19c.14-.02.24-.06.29-.13.05-.07.07-.14.07-.23,0-.23-.08-.43-.24-.59-.16-.17-.42-.25-.78-.25-.33,0-.58.09-.75.27s-.28.41-.31.68l-.88-.21c.03-.22.09-.43.2-.62s.25-.35.42-.49.37-.24.59-.31c.23-.08.47-.11.72-.11.35,0,.65.05.9.14s.45.22.61.38.27.34.34.55c.07.21.11.43.11.66v2.36c0,.21,0,.38.02.5.01.12.03.22.04.27h-.9c-.01-.06-.02-.14-.03-.24s-.01-.23-.01-.4c-.05.09-.12.17-.21.27s-.19.18-.31.25c-.12.08-.27.14-.44.19s-.35.07-.56.07c-.24,0-.46-.04-.65-.12-.19-.08-.36-.18-.49-.31-.14-.13-.24-.28-.32-.45s-.11-.35-.11-.54ZM526.46,261.14c.19,0,.37-.02.53-.07.17-.05.31-.13.43-.24.12-.11.22-.25.29-.43.07-.18.11-.4.11-.65v-.22l-1.44.22c-.2.03-.36.11-.49.22s-.2.28-.2.49c0,.18.07.33.21.48.14.14.32.21.56.21Z"/>
      <path class="cls-1" d="M530.24,263.74l1.18-2.49-2.03-4.2h1.06l1.47,3.25,1.41-3.25h.99l-3.07,6.68h-1.01Z"/>
      <path class="cls-1" d="M538.88,257.89v3.88h-.95v-3.88h-.87v-.83h.87v-.79c0-.26.04-.49.12-.7.08-.2.19-.37.33-.51s.3-.24.49-.31c.19-.07.39-.1.6-.1.16,0,.28.01.38.04.09.03.15.04.17.06v.82s-.07-.03-.13-.04c-.06-.01-.15-.02-.27-.02-.08,0-.16.01-.25.03-.09.02-.17.06-.25.12s-.14.14-.18.24c-.05.11-.07.24-.07.4v.75h1.14v.83h-1.14Z"/>
      <path class="cls-1" d="M543.04,256.91c.35,0,.68.06.97.19.29.13.55.3.76.52.22.22.38.49.5.79.12.3.18.64.18,1s-.06.69-.18,1c-.12.31-.28.57-.5.79-.21.22-.47.4-.76.52-.29.13-.62.19-.97.19s-.68-.06-.97-.19-.55-.3-.76-.52-.38-.49-.5-.79c-.12-.31-.18-.64-.18-1s.06-.69.18-1c.12-.3.28-.57.5-.79s.47-.4.76-.52.62-.19.97-.19ZM543.04,261.09c.2,0,.38-.04.56-.11s.33-.18.47-.32c.14-.14.25-.32.32-.53.08-.21.12-.45.12-.72s-.04-.51-.12-.72c-.08-.21-.19-.38-.32-.52-.14-.14-.29-.25-.47-.32s-.36-.11-.56-.11-.38.04-.56.11c-.18.07-.33.18-.47.32-.14.14-.25.32-.32.52-.08.21-.12.45-.12.72s.04.52.12.72c.08.21.19.39.32.53.14.14.29.25.47.32.18.07.36.11.56.11Z"/>
      <path class="cls-1" d="M549.26,257.98c-.14-.02-.27-.03-.4-.03-.39,0-.7.11-.94.34-.24.23-.36.6-.36,1.11v2.36h-.92v-4.71h.9v.82c.08-.18.18-.33.3-.45.11-.12.23-.21.36-.28s.25-.12.38-.14c.13-.03.25-.04.37-.04.07,0,.13,0,.18,0,.05,0,.1.01.12.02v.98Z"/>
      <path class="cls-1" d="M555.8,261.92c-.45,0-.88-.08-1.3-.24s-.78-.39-1.1-.7c-.32-.31-.57-.69-.76-1.14-.19-.45-.29-.97-.29-1.55s.1-1.1.29-1.54c.2-.45.46-.82.78-1.13.32-.31.69-.54,1.11-.7s.84-.24,1.27-.24c.4,0,.76.05,1.1.16.33.11.63.25.89.44.26.19.48.42.66.7.18.28.32.58.41.91l-.89.31c-.13-.53-.38-.94-.75-1.22-.37-.28-.84-.42-1.42-.42-.31,0-.62.06-.92.17-.3.11-.56.29-.79.51-.23.23-.42.51-.55.86-.14.34-.21.74-.21,1.19s.07.85.21,1.19c.14.34.32.63.55.86s.5.41.79.52c.3.12.6.17.92.17.29,0,.56-.04.8-.13.24-.08.46-.2.64-.35.19-.15.34-.32.47-.53.13-.21.23-.43.3-.66l.85.31c-.09.33-.23.63-.41.9-.18.28-.4.51-.66.71-.26.2-.56.35-.89.46-.34.11-.7.17-1.1.17Z"/>
      <path class="cls-1" d="M560.2,261.77v-6.95h.98v6.95h-.98Z"/>
      <path class="cls-1" d="M566.59,256.7c-.02-.12-.06-.26-.13-.4-.07-.14-.16-.27-.27-.39-.12-.12-.26-.21-.44-.29-.18-.07-.39-.11-.63-.11-.2,0-.38.03-.54.09-.16.06-.31.14-.43.24-.12.11-.21.23-.28.37-.07.14-.1.29-.1.46,0,.25.08.46.23.64s.37.3.67.37l1.04.22c.58.13,1.03.37,1.34.71s.47.75.47,1.25c0,.27-.06.53-.17.77-.11.25-.27.47-.48.66-.21.19-.46.34-.75.46s-.63.17-1,.17c-.42,0-.78-.06-1.09-.19s-.57-.28-.78-.48c-.21-.2-.38-.42-.5-.66-.12-.25-.19-.49-.23-.74l.92-.29c.02.2.07.38.14.56.07.18.18.34.32.47.14.14.31.25.51.33.2.08.43.12.69.12.48,0,.83-.11,1.07-.32.24-.22.36-.48.36-.78,0-.25-.08-.47-.25-.67s-.43-.33-.78-.41l-.99-.22c-.5-.11-.9-.33-1.22-.64-.32-.32-.47-.74-.47-1.26,0-.28.06-.54.18-.79.12-.25.28-.47.49-.66s.45-.34.73-.46c.28-.12.58-.17.9-.17.39,0,.73.05,1,.16.28.11.51.25.7.42s.33.36.44.56c.1.2.18.4.21.59l-.86.3Z"/>
      <path class="cls-1" d="M571.38,257.05h1.41l.35-1.64h.82l-.35,1.64h1.39l.35-1.64h.82l-.35,1.64h1.32v.75h-1.48l-.33,1.57h1.33v.74h-1.5l-.35,1.66h-.82l.35-1.66h-1.39l-.35,1.66h-.82l.35-1.66h-1.24v-.74h1.4l.33-1.57h-1.25v-.75ZM573.12,259.37h1.39l.33-1.57h-1.39l-.33,1.57Z"/>
      <path class="cls-1" d="M579.27,258.02l1.87-1.72h-3.04v-.88h4.31v.86l-1.81,1.68c.24,0,.47.04.7.12.23.08.44.2.63.36.19.16.34.36.46.6.12.24.18.53.18.85,0,.27-.05.52-.15.77-.1.24-.25.46-.45.65-.2.19-.44.34-.72.45s-.61.17-.99.17-.69-.06-.98-.17c-.29-.11-.53-.26-.73-.45-.2-.19-.35-.4-.47-.64s-.17-.49-.19-.75l.94-.22c0,.21.05.4.13.57.08.17.18.31.31.43.13.12.27.21.44.27.17.07.34.1.53.1.22,0,.41-.03.58-.09s.31-.15.42-.25.2-.23.25-.38c.06-.14.09-.29.09-.45,0-.21-.04-.39-.11-.54s-.17-.27-.3-.37c-.12-.1-.26-.17-.42-.21-.15-.05-.31-.07-.46-.07-.19,0-.38.03-.56.1l-.47-.79Z"/>
    </g>
  </g>
  <g>
    <rect x="262.61" y="184.13" width="328.64" height="22.02"/>
    <polygon points="237.33 195.88 275.25 218.93 275.25 172.84 237.33 195.88"/>
    <polygon points="614.52 195.88 576.6 218.93 576.6 172.84 614.52 195.88"/>
    <g>
      <path class="cls-1" d="M369.15,198.33c-.45,0-.88-.08-1.3-.24s-.78-.39-1.1-.7c-.32-.31-.57-.69-.76-1.14-.19-.45-.29-.97-.29-1.55s.1-1.1.29-1.54c.2-.45.46-.83.78-1.13s.69-.54,1.11-.7.84-.24,1.27-.24c.4,0,.76.05,1.1.16s.63.25.89.44c.26.19.48.42.66.7s.32.58.41.91l-.89.31c-.13-.53-.38-.93-.75-1.22-.37-.28-.84-.42-1.42-.42-.31,0-.62.06-.92.17-.3.11-.56.29-.79.51-.23.23-.42.51-.55.86-.14.34-.21.74-.21,1.19s.07.85.21,1.19c.14.34.32.63.55.86.23.23.5.41.79.52.3.11.6.17.92.17.29,0,.56-.04.8-.13.24-.08.46-.2.64-.35.19-.15.34-.32.47-.53.13-.21.23-.43.3-.66l.85.31c-.09.33-.23.63-.41.9s-.4.51-.66.71c-.26.2-.56.35-.89.46-.34.11-.7.17-1.1.17Z"/>
      <path class="cls-1" d="M373.56,198.19v-6.95h.98v6.95h-.98Z"/>
      <path class="cls-1" d="M379.95,193.12c-.02-.12-.06-.26-.13-.4-.07-.14-.16-.27-.27-.39-.12-.12-.26-.21-.44-.29s-.39-.11-.63-.11c-.2,0-.38.03-.54.09-.16.06-.31.14-.43.24-.12.11-.21.23-.28.37-.07.14-.1.29-.1.46,0,.25.08.46.23.64s.37.3.67.37l1.04.22c.58.13,1.03.37,1.34.71s.47.75.47,1.24c0,.27-.06.53-.17.77-.11.25-.27.47-.48.66s-.46.34-.75.46c-.29.12-.63.17-1,.17-.42,0-.78-.06-1.09-.19-.31-.12-.57-.29-.78-.48-.21-.2-.38-.42-.5-.66-.12-.25-.19-.49-.23-.74l.92-.29c.02.2.07.38.14.56.07.18.18.34.32.48s.31.25.51.33c.2.08.43.12.69.12.48,0,.83-.11,1.07-.32.24-.22.36-.48.36-.79,0-.25-.08-.47-.25-.67s-.43-.33-.78-.41l-.99-.21c-.5-.11-.9-.33-1.22-.64-.32-.32-.47-.74-.47-1.26,0-.27.06-.54.18-.78.12-.25.28-.47.49-.66.21-.19.45-.34.73-.46s.58-.17.9-.17c.39,0,.73.05,1,.16.28.11.51.25.7.42s.33.36.44.56c.1.2.18.4.21.59l-.86.3Z"/>
      <path class="cls-1" d="M381.82,198.96v-.77h5.02v.77h-5.02Z"/>
      <path class="cls-1" d="M391.77,193.12c-.02-.12-.06-.26-.13-.4-.07-.14-.16-.27-.27-.39-.12-.12-.26-.21-.44-.29s-.39-.11-.63-.11c-.2,0-.38.03-.54.09-.16.06-.31.14-.43.24-.12.11-.21.23-.28.37-.07.14-.1.29-.1.46,0,.25.08.46.23.64s.37.3.67.37l1.04.22c.58.13,1.03.37,1.34.71s.47.75.47,1.24c0,.27-.06.53-.17.77-.11.25-.27.47-.48.66s-.46.34-.75.46c-.29.12-.63.17-1,.17-.42,0-.78-.06-1.09-.19-.31-.12-.57-.29-.78-.48-.21-.2-.38-.42-.5-.66-.12-.25-.19-.49-.23-.74l.92-.29c.02.2.07.38.14.56.07.18.18.34.32.48s.31.25.51.33c.2.08.43.12.69.12.48,0,.83-.11,1.07-.32.24-.22.36-.48.36-.79,0-.25-.08-.47-.25-.67s-.43-.33-.78-.41l-.99-.21c-.5-.11-.9-.33-1.22-.64-.32-.32-.47-.74-.47-1.26,0-.27.06-.54.18-.78.12-.25.28-.47.49-.66.21-.19.45-.34.73-.46s.58-.17.9-.17c.39,0,.73.05,1,.16.28.11.51.25.7.42s.33.36.44.56c.1.2.18.4.21.59l-.86.3Z"/>
      <path class="cls-1" d="M394.04,200.16l1.18-2.49-2.03-4.2h1.06l1.47,3.25,1.41-3.25h.99l-3.07,6.68h-1.01Z"/>
      <path class="cls-1" d="M399.97,198.19h-.92v-4.71h.9v.68c.17-.29.39-.5.65-.63.26-.12.53-.19.8-.19s.53.05.74.14c.21.1.39.23.53.39s.25.36.31.59c.07.23.1.47.1.74v2.99h-.92v-2.83c0-.16-.02-.32-.05-.46-.04-.14-.1-.27-.19-.38-.09-.11-.2-.19-.34-.25-.14-.06-.31-.09-.51-.09-.18,0-.34.03-.48.1-.14.07-.25.16-.34.28-.09.12-.16.25-.21.41s-.07.32-.07.5v2.73Z"/>
      <path class="cls-1" d="M406.58,194.18c-.19,0-.37.03-.54.1-.17.07-.32.17-.46.31-.13.14-.24.31-.32.51-.08.21-.12.45-.12.72s.04.51.12.71c.08.21.18.38.31.52s.28.25.46.32c.18.07.36.11.55.11.22,0,.41-.03.56-.1.15-.06.28-.15.38-.24.1-.1.18-.21.24-.32s.1-.22.13-.31l.81.35c-.06.17-.14.34-.25.52-.11.17-.25.33-.43.47-.18.14-.38.26-.62.35-.24.09-.51.13-.82.13-.35,0-.67-.06-.96-.19-.29-.13-.54-.3-.75-.53-.21-.22-.37-.49-.5-.79s-.18-.64-.18-1,.06-.7.18-1.01c.12-.31.29-.57.5-.79.21-.22.46-.39.75-.51.29-.12.6-.19.94-.19.31,0,.59.04.83.13.24.09.44.21.62.35.17.14.31.31.42.49s.18.36.24.53l-.83.35c-.03-.12-.08-.24-.14-.35-.06-.12-.14-.22-.24-.32-.1-.09-.22-.17-.37-.23-.14-.06-.32-.09-.52-.09Z"/>
      <path class="cls-1" d="M409.45,198.96v-.77h5.02v.77h-5.02Z"/>
      <path class="cls-1" d="M415.83,198.19v-6.95h2.43c.44,0,.86.08,1.26.23.4.15.75.37,1.05.67.3.29.54.66.72,1.09.18.43.27.94.27,1.5s-.09,1.07-.27,1.5-.42.79-.73,1.08c-.31.29-.66.51-1.06.66-.4.15-.82.22-1.26.22h-2.41ZM418.21,197.33c.32,0,.62-.05.91-.16.29-.11.54-.27.75-.48.22-.22.39-.49.51-.81.12-.33.19-.71.19-1.15s-.06-.82-.19-1.15-.29-.6-.5-.82c-.21-.22-.46-.38-.75-.5-.28-.11-.59-.17-.91-.17h-1.44v5.24h1.42Z"/>
      <path class="cls-1" d="M427.01,196.84c-.07.21-.16.4-.29.58-.13.18-.28.34-.46.47-.18.13-.38.24-.61.32-.23.08-.48.12-.75.12-.31,0-.61-.06-.9-.17-.29-.11-.54-.28-.76-.49-.22-.22-.39-.48-.52-.79-.13-.31-.19-.67-.19-1.07,0-.37.06-.71.19-1.01.12-.3.29-.57.5-.79s.45-.39.72-.51c.27-.12.56-.18.85-.18.36,0,.68.06.97.18.28.12.52.29.71.51.19.21.33.47.44.78.1.3.15.64.15,1,0,.06,0,.12,0,.17,0,.05,0,.09-.01.13h-3.55c0,.21.05.4.12.58.07.18.17.33.3.46.13.13.28.23.45.29.17.07.36.1.55.1.38,0,.68-.09.88-.27s.35-.41.44-.68l.79.27ZM426.08,195.34c-.01-.34-.13-.62-.34-.86-.22-.23-.53-.35-.95-.35-.2,0-.37.03-.52.1-.15.07-.28.16-.39.27-.11.12-.19.24-.26.39s-.1.29-.11.44h2.58Z"/>
      <path class="cls-1" d="M428.25,198.19v-7.1h.92v7.1h-.92Z"/>
      <path class="cls-1" d="M430.44,196.92c0-.21.04-.4.11-.56.07-.17.17-.31.3-.43.13-.12.28-.21.46-.28.18-.07.37-.12.57-.16l1.27-.19c.14-.02.24-.06.29-.13.05-.07.07-.14.07-.23,0-.23-.08-.43-.24-.59-.16-.17-.42-.25-.78-.25-.33,0-.58.09-.75.27s-.28.41-.31.68l-.88-.21c.03-.22.09-.43.2-.62s.25-.35.42-.48c.17-.13.37-.24.59-.31.23-.07.47-.11.72-.11.35,0,.65.05.9.14.25.1.45.22.61.38.16.16.27.34.34.55.07.21.11.43.11.66v2.36c0,.21,0,.38.02.5.01.12.03.22.04.28h-.9c-.01-.06-.02-.14-.03-.24,0-.1-.01-.23-.01-.4-.05.08-.12.17-.21.26s-.19.18-.31.25-.27.14-.44.19c-.17.05-.35.07-.56.07-.24,0-.46-.04-.65-.12-.19-.08-.36-.18-.49-.31-.14-.13-.24-.28-.32-.45-.08-.17-.11-.35-.11-.54ZM432.15,197.56c.19,0,.37-.02.53-.07.17-.05.31-.13.43-.24s.22-.25.29-.43c.07-.18.11-.4.11-.65v-.22l-1.44.22c-.2.03-.36.11-.49.22-.13.11-.2.28-.2.48,0,.18.07.34.21.48.14.14.32.21.56.21Z"/>
      <path class="cls-1" d="M435.93,200.16l1.18-2.49-2.03-4.2h1.06l1.47,3.25,1.41-3.25h.99l-3.07,6.68h-1.01Z"/>
      <path class="cls-1" d="M444.57,194.3v3.88h-.95v-3.88h-.87v-.83h.87v-.79c0-.26.04-.49.12-.7.08-.2.19-.37.33-.51.14-.14.3-.24.49-.31.19-.07.39-.1.6-.1.16,0,.28.01.38.04.09.03.15.05.17.06v.82s-.07-.03-.13-.04c-.06-.01-.15-.02-.27-.02-.08,0-.16.01-.25.03-.09.02-.17.06-.25.12s-.14.14-.18.25-.07.24-.07.4v.75h1.14v.83h-1.14Z"/>
      <path class="cls-1" d="M448.73,193.33c.35,0,.68.06.97.19.29.13.55.3.76.53.22.22.38.48.5.79.12.3.18.63.18.99s-.06.69-.18,1c-.12.31-.28.57-.5.79-.21.22-.47.4-.76.52-.29.13-.62.19-.97.19s-.68-.06-.97-.19c-.29-.13-.55-.3-.76-.52-.22-.22-.38-.49-.5-.79-.12-.31-.18-.64-.18-1s.06-.69.18-.99c.12-.3.28-.57.5-.79.22-.22.47-.4.76-.53.29-.13.62-.19.97-.19ZM448.73,197.51c.2,0,.38-.04.56-.11.18-.07.33-.18.47-.32.14-.14.25-.32.32-.53.08-.21.12-.45.12-.73s-.04-.51-.12-.72c-.08-.21-.19-.38-.32-.52-.14-.14-.29-.25-.47-.32-.18-.07-.36-.11-.56-.11s-.38.04-.56.11c-.18.07-.33.18-.47.32-.14.14-.25.32-.32.52-.08.21-.12.45-.12.72s.04.52.12.73c.08.21.19.39.32.53.14.14.29.25.47.32.18.07.36.11.56.11Z"/>
      <path class="cls-1" d="M454.94,194.4c-.14-.02-.27-.03-.4-.03-.39,0-.7.11-.94.34s-.36.6-.36,1.11v2.36h-.92v-4.71h.9v.82c.08-.18.18-.33.3-.45.11-.11.23-.21.36-.27.12-.07.25-.12.38-.14.13-.03.25-.04.37-.04.07,0,.13,0,.18,0,.05,0,.1.01.12.02v.98Z"/>
      <path class="cls-1" d="M461.48,198.33c-.45,0-.88-.08-1.3-.24s-.78-.39-1.1-.7c-.32-.31-.57-.69-.76-1.14-.19-.45-.29-.97-.29-1.55s.1-1.1.29-1.54c.2-.45.46-.83.78-1.13s.69-.54,1.11-.7.84-.24,1.27-.24c.4,0,.76.05,1.1.16s.63.25.89.44c.26.19.48.42.66.7s.32.58.41.91l-.89.31c-.13-.53-.38-.93-.75-1.22-.37-.28-.84-.42-1.42-.42-.31,0-.62.06-.92.17-.3.11-.56.29-.79.51-.23.23-.42.51-.55.86-.14.34-.21.74-.21,1.19s.07.85.21,1.19c.14.34.32.63.55.86.23.23.5.41.79.52.3.11.6.17.92.17.29,0,.56-.04.8-.13.24-.08.46-.2.64-.35.19-.15.34-.32.47-.53.13-.21.23-.43.3-.66l.85.31c-.09.33-.23.63-.41.9s-.4.51-.66.71c-.26.2-.56.35-.89.46-.34.11-.7.17-1.1.17Z"/>
      <path class="cls-1" d="M465.89,198.19v-6.95h.98v6.95h-.98Z"/>
      <path class="cls-1" d="M472.28,193.12c-.02-.12-.06-.26-.13-.4-.07-.14-.16-.27-.27-.39-.12-.12-.26-.21-.44-.29s-.39-.11-.63-.11c-.2,0-.38.03-.54.09-.16.06-.31.14-.43.24-.12.11-.21.23-.28.37-.07.14-.1.29-.1.46,0,.25.08.46.23.64s.37.3.67.37l1.04.22c.58.13,1.03.37,1.34.71s.47.75.47,1.24c0,.27-.06.53-.17.77-.11.25-.27.47-.48.66s-.46.34-.75.46c-.29.12-.63.17-1,.17-.42,0-.78-.06-1.09-.19-.31-.12-.57-.29-.78-.48-.21-.2-.38-.42-.5-.66-.12-.25-.19-.49-.23-.74l.92-.29c.02.2.07.38.14.56.07.18.18.34.32.48s.31.25.51.33c.2.08.43.12.69.12.48,0,.83-.11,1.07-.32.24-.22.36-.48.36-.79,0-.25-.08-.47-.25-.67s-.43-.33-.78-.41l-.99-.21c-.5-.11-.9-.33-1.22-.64-.32-.32-.47-.74-.47-1.26,0-.27.06-.54.18-.78.12-.25.28-.47.49-.66.21-.19.45-.34.73-.46s.58-.17.9-.17c.39,0,.73.05,1,.16.28.11.51.25.7.42s.33.36.44.56c.1.2.18.4.21.59l-.86.3Z"/>
      <path class="cls-1" d="M477.06,193.47h1.41l.35-1.64h.82l-.35,1.64h1.39l.35-1.64h.82l-.35,1.64h1.32v.74h-1.48l-.33,1.57h1.33v.75h-1.5l-.35,1.66h-.82l.35-1.66h-1.39l-.35,1.66h-.82l.35-1.66h-1.24v-.75h1.4l.33-1.57h-1.25v-.74ZM478.81,195.79h1.39l.33-1.57h-1.39l-.33,1.57Z"/>
      <path class="cls-1" d="M483.83,194s0-.09,0-.13v-.12c0-.27.05-.54.15-.78.1-.25.24-.47.43-.66s.42-.34.69-.45c.28-.11.58-.17.93-.17s.64.05.91.16c.27.1.49.25.68.42.18.18.32.38.42.62s.14.49.14.75c0,.42-.11.79-.32,1.12s-.51.61-.87.84l-1.25.8c-.18.12-.35.25-.49.39-.14.14-.24.31-.28.5h3.26v.89h-4.45c0-.26.04-.51.09-.74.05-.23.14-.45.26-.66.12-.21.28-.41.46-.59s.42-.37.69-.54l1.06-.69c.3-.19.52-.4.66-.62s.21-.46.21-.71c0-.14-.03-.28-.07-.42-.05-.13-.12-.25-.22-.36-.1-.1-.22-.19-.37-.25-.15-.06-.33-.09-.53-.09s-.39.03-.54.1c-.15.07-.28.16-.38.28-.1.12-.18.25-.22.41-.05.16-.07.33-.07.51,0,.05,0,.09,0,.14,0,.04,0,.09.01.15l-.96-.12Z"/>
    </g>
  </g>
  <g>
    <rect class="cls-3" x="79.15" y="120.55" width="512.1" height="22.02"/>
    <polygon class="cls-3" points="53.87 132.3 91.79 155.35 91.79 109.26 53.87 132.3"/>
    <polygon class="cls-3" points="614.52 132.3 576.6 155.35 576.6 109.26 614.52 132.3"/>
    <g>
      <path class="cls-1" d="M278.25,134.75c-.45,0-.88-.08-1.3-.24s-.78-.39-1.1-.7c-.32-.31-.57-.69-.76-1.14-.19-.45-.29-.97-.29-1.55s.1-1.1.29-1.54c.2-.45.46-.83.78-1.13s.69-.54,1.11-.7.84-.24,1.27-.24c.4,0,.76.05,1.1.16s.63.25.89.44c.26.19.48.42.66.7s.32.58.41.91l-.89.31c-.13-.53-.38-.93-.75-1.22-.37-.28-.84-.42-1.42-.42-.31,0-.62.06-.92.17-.3.11-.56.29-.79.51-.23.23-.42.51-.55.86-.14.34-.21.74-.21,1.19s.07.85.21,1.19c.14.34.32.63.55.86.23.23.5.41.79.52.3.11.6.17.92.17.29,0,.56-.04.8-.13.24-.08.46-.2.64-.35.19-.15.34-.32.47-.53.13-.21.23-.43.3-.66l.85.31c-.09.33-.23.63-.41.9s-.4.51-.66.71c-.26.2-.56.35-.89.46-.34.11-.7.17-1.1.17Z"/>
      <path class="cls-1" d="M282.65,134.61v-6.95h.98v6.95h-.98Z"/>
      <path class="cls-1" d="M289.04,129.54c-.02-.12-.06-.26-.13-.4-.07-.14-.16-.27-.27-.39-.12-.12-.26-.21-.44-.29s-.39-.11-.63-.11c-.2,0-.38.03-.54.09-.16.06-.31.14-.43.24-.12.11-.21.23-.28.37-.07.14-.1.29-.1.46,0,.25.08.46.23.64s.37.3.67.37l1.04.22c.58.13,1.03.37,1.34.71s.47.75.47,1.24c0,.27-.06.53-.17.77-.11.25-.27.47-.48.66s-.46.34-.75.46c-.29.12-.63.17-1,.17-.42,0-.78-.06-1.09-.19-.31-.12-.57-.29-.78-.48-.21-.2-.38-.42-.5-.66-.12-.25-.19-.49-.23-.74l.92-.29c.02.2.07.38.14.56.07.18.18.34.32.48s.31.25.51.33c.2.08.43.12.69.12.48,0,.83-.11,1.07-.32.24-.22.36-.48.36-.79,0-.25-.08-.47-.25-.67s-.43-.33-.78-.41l-.99-.21c-.5-.11-.9-.33-1.22-.64-.32-.32-.47-.74-.47-1.26,0-.27.06-.54.18-.78.12-.25.28-.47.49-.66.21-.19.45-.34.73-.46s.58-.17.9-.17c.39,0,.73.05,1,.16.28.11.51.25.7.42s.33.36.44.56c.1.2.18.4.21.59l-.86.3Z"/>
      <path class="cls-1" d="M290.91,135.38v-.77h5.02v.77h-5.02Z"/>
      <path class="cls-1" d="M300.86,129.54c-.02-.12-.06-.26-.13-.4-.07-.14-.16-.27-.27-.39-.12-.12-.26-.21-.44-.29s-.39-.11-.63-.11c-.2,0-.38.03-.54.09-.16.06-.31.14-.43.24-.12.11-.21.23-.28.37-.07.14-.1.29-.1.46,0,.25.08.46.23.64s.37.3.67.37l1.04.22c.58.13,1.03.37,1.34.71s.47.75.47,1.24c0,.27-.06.53-.17.77-.11.25-.27.47-.48.66s-.46.34-.75.46c-.29.12-.63.17-1,.17-.42,0-.78-.06-1.09-.19-.31-.12-.57-.29-.78-.48-.21-.2-.38-.42-.5-.66-.12-.25-.19-.49-.23-.74l.92-.29c.02.2.07.38.14.56.07.18.18.34.32.48s.31.25.51.33c.2.08.43.12.69.12.48,0,.83-.11,1.07-.32.24-.22.36-.48.36-.79,0-.25-.08-.47-.25-.67s-.43-.33-.78-.41l-.99-.21c-.5-.11-.9-.33-1.22-.64-.32-.32-.47-.74-.47-1.26,0-.27.06-.54.18-.78.12-.25.28-.47.49-.66.21-.19.45-.34.73-.46s.58-.17.9-.17c.39,0,.73.05,1,.16.28.11.51.25.7.42s.33.36.44.56c.1.2.18.4.21.59l-.86.3Z"/>
      <path class="cls-1" d="M303.13,136.58l1.18-2.49-2.03-4.2h1.06l1.47,3.25,1.41-3.25h.99l-3.07,6.68h-1.01Z"/>
      <path class="cls-1" d="M309.06,134.61h-.92v-4.71h.9v.68c.17-.29.39-.5.65-.63.26-.12.53-.19.8-.19s.53.05.74.14c.21.1.39.23.53.39s.25.36.31.59c.07.23.1.47.1.74v2.99h-.92v-2.83c0-.16-.02-.32-.05-.46-.04-.14-.1-.27-.19-.38-.09-.11-.2-.19-.34-.25-.14-.06-.31-.09-.51-.09-.18,0-.34.03-.48.1-.14.07-.25.16-.34.28-.09.12-.16.25-.21.41s-.07.32-.07.5v2.73Z"/>
      <path class="cls-1" d="M315.67,130.6c-.19,0-.37.03-.54.1-.17.07-.32.17-.46.31-.13.14-.24.31-.32.51-.08.21-.12.45-.12.72s.04.51.12.71c.08.21.18.38.31.52s.28.25.46.32c.18.07.36.11.55.11.22,0,.41-.03.56-.1.15-.06.28-.15.38-.24.1-.1.18-.21.24-.32s.1-.22.13-.31l.81.35c-.06.17-.14.34-.25.52-.11.17-.25.33-.43.47-.18.14-.38.26-.62.35-.24.09-.51.13-.82.13-.35,0-.67-.06-.96-.19-.29-.13-.54-.3-.75-.53-.21-.22-.37-.49-.5-.79s-.18-.64-.18-1,.06-.7.18-1.01c.12-.31.29-.57.5-.79.21-.22.46-.39.75-.51.29-.12.6-.19.94-.19.31,0,.59.04.83.13.24.09.44.21.62.35.17.14.31.31.42.49s.18.36.24.53l-.83.35c-.03-.12-.08-.24-.14-.35-.06-.12-.14-.22-.24-.32-.1-.09-.22-.17-.37-.23-.14-.06-.32-.09-.52-.09Z"/>
      <path class="cls-1" d="M318.54,135.38v-.77h5.02v.77h-5.02Z"/>
      <path class="cls-1" d="M324.92,134.61v-6.95h2.43c.44,0,.86.08,1.26.23.4.15.75.37,1.05.67.3.29.54.66.72,1.09.18.43.27.94.27,1.5s-.09,1.07-.27,1.5-.42.79-.73,1.08c-.31.29-.66.51-1.06.66-.4.15-.82.22-1.26.22h-2.41ZM327.3,133.75c.32,0,.62-.05.91-.16.29-.11.54-.27.75-.48.22-.22.39-.49.51-.81.12-.33.19-.71.19-1.15s-.06-.82-.19-1.15-.29-.6-.5-.82c-.21-.22-.46-.38-.75-.5-.28-.11-.59-.17-.91-.17h-1.44v5.24h1.42Z"/>
      <path class="cls-1" d="M336.1,133.26c-.07.21-.16.4-.29.58-.13.18-.28.34-.46.47-.18.13-.38.24-.61.32-.23.08-.48.12-.75.12-.31,0-.61-.06-.9-.17-.29-.11-.54-.28-.76-.49-.22-.22-.39-.48-.52-.79-.13-.31-.19-.67-.19-1.07,0-.37.06-.71.19-1.01.12-.3.29-.57.5-.79s.45-.39.72-.51c.27-.12.56-.18.85-.18.36,0,.68.06.97.18.28.12.52.29.71.51.19.21.33.47.44.78.1.3.15.64.15,1,0,.06,0,.12,0,.17,0,.05,0,.09-.01.13h-3.55c0,.21.05.4.12.58.07.18.17.33.3.46.13.13.28.23.45.29.17.07.36.1.55.1.38,0,.68-.09.88-.27s.35-.41.44-.68l.79.27ZM335.17,131.76c-.01-.34-.13-.62-.34-.86-.22-.23-.53-.35-.95-.35-.2,0-.37.03-.52.1-.15.07-.28.16-.39.27-.11.12-.19.24-.26.39s-.1.29-.11.44h2.58Z"/>
      <path class="cls-1" d="M337.35,134.61v-7.1h.92v7.1h-.92Z"/>
      <path class="cls-1" d="M339.53,133.34c0-.21.04-.4.11-.56.07-.17.17-.31.3-.43.13-.12.28-.21.46-.28.18-.07.37-.12.57-.16l1.27-.19c.14-.02.24-.06.29-.13.05-.07.07-.14.07-.23,0-.23-.08-.43-.24-.59-.16-.17-.42-.25-.78-.25-.33,0-.58.09-.75.27s-.28.41-.31.68l-.88-.21c.03-.22.09-.43.2-.62s.25-.35.42-.48c.17-.13.37-.24.59-.31.23-.07.47-.11.72-.11.35,0,.65.05.9.14.25.1.45.22.61.38.16.16.27.34.34.55.07.21.11.43.11.66v2.36c0,.21,0,.38.02.5.01.12.03.22.04.28h-.9c-.01-.06-.02-.14-.03-.24,0-.1-.01-.23-.01-.4-.05.08-.12.17-.21.26s-.19.18-.31.25-.27.14-.44.19c-.17.05-.35.07-.56.07-.24,0-.46-.04-.65-.12-.19-.08-.36-.18-.49-.31-.14-.13-.24-.28-.32-.45-.08-.17-.11-.35-.11-.54ZM341.24,133.98c.19,0,.37-.02.53-.07.17-.05.31-.13.43-.24s.22-.25.29-.43c.07-.18.11-.4.11-.65v-.22l-1.44.22c-.2.03-.36.11-.49.22-.13.11-.2.28-.2.48,0,.18.07.34.21.48.14.14.32.21.56.21Z"/>
      <path class="cls-1" d="M345.02,136.58l1.18-2.49-2.03-4.2h1.06l1.47,3.25,1.41-3.25h.99l-3.07,6.68h-1.01Z"/>
      <path class="cls-1" d="M353.66,130.72v3.88h-.95v-3.88h-.87v-.83h.87v-.79c0-.26.04-.49.12-.7.08-.2.19-.37.33-.51.14-.14.3-.24.49-.31.19-.07.39-.1.6-.1.16,0,.28.01.38.04.09.03.15.05.17.06v.82s-.07-.03-.13-.04c-.06-.01-.15-.02-.27-.02-.08,0-.16.01-.25.03-.09.02-.17.06-.25.12s-.14.14-.18.25-.07.24-.07.4v.75h1.14v.83h-1.14Z"/>
      <path class="cls-1" d="M357.82,129.74c.35,0,.68.06.97.19.29.13.55.3.76.53.22.22.38.48.5.79.12.3.18.63.18.99s-.06.69-.18,1c-.12.31-.28.57-.5.79-.21.22-.47.4-.76.52-.29.13-.62.19-.97.19s-.68-.06-.97-.19c-.29-.13-.55-.3-.76-.52-.22-.22-.38-.49-.5-.79-.12-.31-.18-.64-.18-1s.06-.69.18-.99c.12-.3.28-.57.5-.79.22-.22.47-.4.76-.53.29-.13.62-.19.97-.19ZM357.82,133.93c.2,0,.38-.04.56-.11.18-.07.33-.18.47-.32.14-.14.25-.32.32-.53.08-.21.12-.45.12-.73s-.04-.51-.12-.72c-.08-.21-.19-.38-.32-.52-.14-.14-.29-.25-.47-.32-.18-.07-.36-.11-.56-.11s-.38.04-.56.11c-.18.07-.33.18-.47.32-.14.14-.25.32-.32.52-.08.21-.12.45-.12.72s.04.52.12.73c.08.21.19.39.32.53.14.14.29.25.47.32.18.07.36.11.56.11Z"/>
      <path class="cls-1" d="M364.04,130.82c-.14-.02-.27-.03-.4-.03-.39,0-.7.11-.94.34s-.36.6-.36,1.11v2.36h-.92v-4.71h.9v.82c.08-.18.18-.33.3-.45.11-.11.23-.21.36-.27.12-.07.25-.12.38-.14.13-.03.25-.04.37-.04.07,0,.13,0,.18,0,.05,0,.1.01.12.02v.98Z"/>
      <path class="cls-1" d="M370.57,134.75c-.45,0-.88-.08-1.3-.24s-.78-.39-1.1-.7c-.32-.31-.57-.69-.76-1.14-.19-.45-.29-.97-.29-1.55s.1-1.1.29-1.54c.2-.45.46-.83.78-1.13s.69-.54,1.11-.7.84-.24,1.27-.24c.4,0,.76.05,1.1.16s.63.25.89.44c.26.19.48.42.66.7s.32.58.41.91l-.89.31c-.13-.53-.38-.93-.75-1.22-.37-.28-.84-.42-1.42-.42-.31,0-.62.06-.92.17-.3.11-.56.29-.79.51-.23.23-.42.51-.55.86-.14.34-.21.74-.21,1.19s.07.85.21,1.19c.14.34.32.63.55.86.23.23.5.41.79.52.3.11.6.17.92.17.29,0,.56-.04.8-.13.24-.08.46-.2.64-.35.19-.15.34-.32.47-.53.13-.21.23-.43.3-.66l.85.31c-.09.33-.23.63-.41.9s-.4.51-.66.71c-.26.2-.56.35-.89.46-.34.11-.7.17-1.1.17Z"/>
      <path class="cls-1" d="M374.98,134.61v-6.95h.98v6.95h-.98Z"/>
      <path class="cls-1" d="M381.37,129.54c-.02-.12-.06-.26-.13-.4-.07-.14-.16-.27-.27-.39-.12-.12-.26-.21-.44-.29s-.39-.11-.63-.11c-.2,0-.38.03-.54.09-.16.06-.31.14-.43.24-.12.11-.21.23-.28.37-.07.14-.1.29-.1.46,0,.25.08.46.23.64s.37.3.67.37l1.04.22c.58.13,1.03.37,1.34.71s.47.75.47,1.24c0,.27-.06.53-.17.77-.11.25-.27.47-.48.66s-.46.34-.75.46c-.29.12-.63.17-1,.17-.42,0-.78-.06-1.09-.19-.31-.12-.57-.29-.78-.48-.21-.2-.38-.42-.5-.66-.12-.25-.19-.49-.23-.74l.92-.29c.02.2.07.38.14.56.07.18.18.34.32.48s.31.25.51.33c.2.08.43.12.69.12.48,0,.83-.11,1.07-.32.24-.22.36-.48.36-.79,0-.25-.08-.47-.25-.67s-.43-.33-.78-.41l-.99-.21c-.5-.11-.9-.33-1.22-.64-.32-.32-.47-.74-.47-1.26,0-.27.06-.54.18-.78.12-.25.28-.47.49-.66.21-.19.45-.34.73-.46s.58-.17.9-.17c.39,0,.73.05,1,.16.28.11.51.25.7.42s.33.36.44.56c.1.2.18.4.21.59l-.86.3Z"/>
      <path class="cls-1" d="M386.16,129.89h1.41l.35-1.64h.82l-.35,1.64h1.39l.35-1.64h.82l-.35,1.64h1.32v.74h-1.48l-.33,1.57h1.33v.75h-1.5l-.35,1.66h-.82l.35-1.66h-1.39l-.35,1.66h-.82l.35-1.66h-1.24v-.75h1.4l.33-1.57h-1.25v-.74ZM387.9,132.2h1.39l.33-1.57h-1.39l-.33,1.57Z"/>
      <path class="cls-1" d="M394.37,134.61v-4.48h-1.54v-.68c.44-.01.81-.13,1.1-.35.29-.22.47-.5.54-.85h.84v6.35h-.94Z"/>
    </g>
  </g>
  <g>
    <rect class="cls-3" x="50.72" y="312.07" width="186.61" height="14.54"/>
    <g>
      <path class="cls-1" d="M119.79,322.54c-.45,0-.88-.08-1.3-.24s-.78-.39-1.1-.7c-.32-.31-.57-.69-.76-1.14-.19-.45-.29-.97-.29-1.55s.1-1.1.29-1.54.46-.83.78-1.13c.32-.31.69-.54,1.11-.7s.84-.24,1.27-.24c.4,0,.76.05,1.1.16.33.1.63.25.89.44.26.19.48.42.66.7.18.27.32.58.41.91l-.89.31c-.13-.53-.38-.93-.75-1.21s-.84-.42-1.42-.42c-.31,0-.62.06-.92.17-.3.11-.56.29-.79.51-.23.23-.42.52-.55.86-.14.34-.21.74-.21,1.19s.07.85.21,1.19c.14.34.32.63.55.86.23.23.5.4.79.52.3.11.6.17.92.17.29,0,.56-.04.8-.13.24-.08.46-.2.64-.35.19-.15.34-.32.47-.53.13-.21.23-.43.3-.66l.85.31c-.09.33-.23.63-.41.9-.18.27-.4.51-.66.71-.26.2-.56.35-.89.46s-.7.17-1.1.17Z"/>
      <path class="cls-1" d="M124.2,322.39v-6.95h.98v6.95h-.98Z"/>
      <path class="cls-1" d="M130.59,317.33c-.02-.12-.06-.26-.13-.4-.07-.14-.16-.27-.27-.39s-.26-.21-.44-.29c-.18-.08-.39-.11-.63-.11-.2,0-.38.03-.54.09-.16.06-.31.14-.43.25-.12.1-.21.23-.28.37-.07.14-.1.29-.1.46,0,.25.08.46.23.64s.37.3.67.37l1.04.23c.58.13,1.03.37,1.34.71s.47.75.47,1.24c0,.27-.06.53-.17.78s-.27.47-.48.66-.46.34-.75.46-.63.17-1,.17c-.42,0-.78-.06-1.09-.19s-.57-.28-.78-.48c-.21-.2-.38-.42-.5-.66-.12-.24-.19-.49-.23-.74l.92-.29c.02.2.07.38.14.56.07.18.18.34.32.48.14.14.31.25.51.33s.43.12.69.12c.48,0,.83-.11,1.07-.32.24-.22.36-.48.36-.78,0-.25-.08-.47-.25-.67s-.43-.34-.78-.41l-.99-.22c-.5-.11-.9-.33-1.22-.64s-.47-.74-.47-1.26c0-.27.06-.54.18-.78.12-.25.28-.47.49-.66.21-.19.45-.34.73-.46.28-.11.58-.17.9-.17.39,0,.73.05,1,.16.28.11.51.25.7.42s.33.36.44.56c.1.2.18.4.21.59l-.86.3Z"/>
      <path class="cls-1" d="M135.38,317.68h1.41l.35-1.64h.82l-.35,1.64h1.39l.35-1.64h.82l-.35,1.64h1.32v.74h-1.48l-.33,1.57h1.33v.75h-1.5l-.35,1.66h-.82l.35-1.66h-1.39l-.35,1.66h-.82l.35-1.66h-1.24v-.75h1.4l.33-1.57h-1.25v-.74ZM137.12,319.99h1.39l.33-1.57h-1.39l-.33,1.57Z"/>
      <path class="cls-1" d="M143.59,322.39v-4.48h-1.54v-.68c.44-.01.81-.13,1.1-.35.29-.22.47-.5.54-.85h.84v6.35h-.94Z"/>
      <path class="cls-1" d="M152.61,321.05c-.07.21-.16.4-.29.58-.13.18-.28.34-.46.47s-.38.24-.61.32c-.23.08-.48.12-.75.12-.31,0-.61-.05-.9-.17-.29-.11-.54-.27-.76-.49s-.39-.48-.52-.79c-.13-.31-.19-.67-.19-1.07,0-.37.06-.71.19-1.01s.29-.57.5-.78.45-.39.72-.51c.27-.12.56-.18.85-.18.36,0,.68.06.97.18.28.12.52.29.71.5.19.22.33.48.44.78.1.3.15.64.15,1,0,.06,0,.11,0,.17,0,.05,0,.09-.01.13h-3.55c0,.21.05.4.12.58.07.18.17.33.3.46.13.13.28.23.45.29.17.07.36.1.55.1.38,0,.68-.09.88-.28.2-.18.35-.41.44-.68l.79.27ZM151.67,319.55c-.01-.34-.13-.63-.34-.86s-.53-.35-.95-.35c-.2,0-.37.04-.52.1s-.28.16-.39.27c-.11.11-.19.24-.26.39-.07.14-.1.29-.11.44h2.58Z"/>
      <path class="cls-1" d="M155.92,322.39h-.93l-1.91-4.71h1.04l1.34,3.64,1.35-3.64h.99l-1.88,4.71Z"/>
      <path class="cls-1" d="M162.71,321.05c-.07.21-.16.4-.29.58-.13.18-.28.34-.46.47s-.38.24-.61.32c-.23.08-.48.12-.75.12-.31,0-.61-.05-.9-.17-.29-.11-.54-.27-.76-.49s-.39-.48-.52-.79c-.13-.31-.19-.67-.19-1.07,0-.37.06-.71.19-1.01s.29-.57.5-.78.45-.39.72-.51c.27-.12.56-.18.85-.18.36,0,.68.06.97.18.28.12.52.29.71.5.19.22.33.48.44.78.1.3.15.64.15,1,0,.06,0,.11,0,.17,0,.05,0,.09-.01.13h-3.55c0,.21.05.4.12.58.07.18.17.33.3.46.13.13.28.23.45.29.17.07.36.1.55.1.38,0,.68-.09.88-.28.2-.18.35-.41.44-.68l.79.27ZM161.78,319.55c-.01-.34-.13-.63-.34-.86s-.53-.35-.95-.35c-.2,0-.37.04-.52.1s-.28.16-.39.27c-.11.11-.19.24-.26.39-.07.14-.1.29-.11.44h2.58Z"/>
      <path class="cls-1" d="M164.87,322.39h-.92v-4.71h.9v.68c.17-.29.39-.5.65-.63.26-.12.53-.19.8-.19s.53.05.74.14c.21.09.39.23.53.39.14.17.25.37.31.59s.1.47.1.73v2.99h-.92v-2.83c0-.16-.02-.32-.05-.46-.04-.14-.1-.27-.19-.38s-.2-.19-.34-.25-.31-.09-.51-.09c-.18,0-.34.04-.48.1-.14.07-.25.16-.34.28-.09.12-.16.25-.21.41-.05.16-.07.32-.07.5v2.72Z"/>
      <path class="cls-1" d="M170.69,317.68h1.02v.83h-1.02v2.45c0,.22.05.38.15.49.1.11.27.16.51.16.06,0,.12,0,.2,0s.13-.02.17-.03v.78s-.11.03-.23.05-.25.03-.4.03c-.41,0-.73-.12-.96-.35-.24-.23-.35-.56-.35-1v-2.59h-.9v-.83h.25c.25,0,.44-.07.55-.21s.17-.31.17-.52v-.76h.84v1.49Z"/>
    </g>
  </g>
  <g>
    <rect x="239.61" y="312.07" width="186.61" height="14.54"/>
    <g>
      <path class="cls-1" d="M307.85,322.54c-.45,0-.88-.08-1.3-.24s-.78-.39-1.1-.7c-.32-.31-.57-.69-.76-1.14-.19-.45-.29-.97-.29-1.55s.1-1.1.29-1.54.46-.83.78-1.13c.32-.31.69-.54,1.11-.7s.84-.24,1.27-.24c.4,0,.76.05,1.1.16.33.1.63.25.89.44.26.19.48.42.66.7.18.27.32.58.41.91l-.89.31c-.13-.53-.38-.93-.75-1.21s-.84-.42-1.42-.42c-.31,0-.62.06-.92.17-.3.11-.56.29-.79.51-.23.23-.42.52-.55.86-.14.34-.21.74-.21,1.19s.07.85.21,1.19c.14.34.32.63.55.86.23.23.5.4.79.52.3.11.6.17.92.17.29,0,.56-.04.8-.13.24-.08.46-.2.64-.35.19-.15.34-.32.47-.53.13-.21.23-.43.3-.66l.85.31c-.09.33-.23.63-.41.9-.18.27-.4.51-.66.71-.26.2-.56.35-.89.46s-.7.17-1.1.17Z"/>
      <path class="cls-1" d="M312.26,322.39v-6.95h.98v6.95h-.98Z"/>
      <path class="cls-1" d="M318.65,317.33c-.02-.12-.06-.26-.13-.4-.07-.14-.16-.27-.27-.39s-.26-.21-.44-.29c-.18-.08-.39-.11-.63-.11-.2,0-.38.03-.54.09-.16.06-.31.14-.43.25-.12.1-.21.23-.28.37-.07.14-.1.29-.1.46,0,.25.08.46.23.64s.37.3.67.37l1.04.23c.58.13,1.03.37,1.34.71s.47.75.47,1.24c0,.27-.06.53-.17.78s-.27.47-.48.66-.46.34-.75.46-.63.17-1,.17c-.42,0-.78-.06-1.09-.19s-.57-.28-.78-.48c-.21-.2-.38-.42-.5-.66-.12-.24-.19-.49-.23-.74l.92-.29c.02.2.07.38.14.56.07.18.18.34.32.48.14.14.31.25.51.33s.43.12.69.12c.48,0,.83-.11,1.07-.32.24-.22.36-.48.36-.78,0-.25-.08-.47-.25-.67s-.43-.34-.78-.41l-.99-.22c-.5-.11-.9-.33-1.22-.64s-.47-.74-.47-1.26c0-.27.06-.54.18-.78.12-.25.28-.47.49-.66.21-.19.45-.34.73-.46.28-.11.58-.17.9-.17.39,0,.73.05,1,.16.28.11.51.25.7.42s.33.36.44.56c.1.2.18.4.21.59l-.86.3Z"/>
      <path class="cls-1" d="M323.44,317.68h1.41l.35-1.64h.82l-.35,1.64h1.39l.35-1.64h.82l-.35,1.64h1.32v.74h-1.48l-.33,1.57h1.33v.75h-1.5l-.35,1.66h-.82l.35-1.66h-1.39l-.35,1.66h-.82l.35-1.66h-1.24v-.75h1.4l.33-1.57h-1.25v-.74ZM325.18,319.99h1.39l.33-1.57h-1.39l-.33,1.57Z"/>
      <path class="cls-1" d="M330.21,318.21s0-.09,0-.13v-.12c0-.27.05-.54.15-.78.1-.25.24-.47.43-.66s.42-.34.69-.45c.28-.11.58-.17.93-.17s.64.05.91.16c.27.1.49.24.68.42s.32.38.42.62c.09.24.14.49.14.75,0,.42-.11.79-.32,1.12s-.51.61-.87.84l-1.25.8c-.18.12-.35.25-.49.39s-.24.31-.28.5h3.26v.89h-4.45c0-.26.04-.51.09-.74.05-.23.14-.45.26-.66.12-.21.28-.41.46-.59.19-.19.42-.37.69-.54l1.06-.69c.3-.19.52-.4.66-.62.14-.22.21-.46.21-.71,0-.14-.03-.28-.07-.42s-.12-.25-.22-.36c-.1-.11-.22-.19-.37-.25s-.33-.09-.53-.09-.39.04-.54.1-.28.16-.38.28c-.1.12-.18.25-.22.41-.05.16-.07.33-.07.51,0,.04,0,.09,0,.14,0,.04,0,.09.01.15l-.96-.12Z"/>
      <path class="cls-1" d="M342.31,321.05c-.07.21-.16.4-.29.58-.13.18-.28.34-.46.47s-.38.24-.61.32c-.23.08-.48.12-.75.12-.31,0-.61-.05-.9-.17-.29-.11-.54-.27-.76-.49s-.39-.48-.52-.79c-.13-.31-.19-.67-.19-1.07,0-.37.06-.71.19-1.01s.29-.57.5-.78.45-.39.72-.51c.27-.12.56-.18.85-.18.36,0,.68.06.97.18.28.12.52.29.71.5.19.22.33.48.44.78.1.3.15.64.15,1,0,.06,0,.11,0,.17,0,.05,0,.09-.01.13h-3.55c0,.21.05.4.12.58.07.18.17.33.3.46.13.13.28.23.45.29.17.07.36.1.55.1.38,0,.68-.09.88-.28.2-.18.35-.41.44-.68l.79.27ZM341.38,319.55c-.01-.34-.13-.63-.34-.86s-.53-.35-.95-.35c-.2,0-.37.04-.52.1s-.28.16-.39.27c-.11.11-.19.24-.26.39-.07.14-.1.29-.11.44h2.58Z"/>
      <path class="cls-1" d="M345.62,322.39h-.93l-1.91-4.71h1.04l1.34,3.64,1.35-3.64h.99l-1.88,4.71Z"/>
      <path class="cls-1" d="M352.42,321.05c-.07.21-.16.4-.29.58-.13.18-.28.34-.46.47s-.38.24-.61.32c-.23.08-.48.12-.75.12-.31,0-.61-.05-.9-.17-.29-.11-.54-.27-.76-.49s-.39-.48-.52-.79c-.13-.31-.19-.67-.19-1.07,0-.37.06-.71.19-1.01s.29-.57.5-.78.45-.39.72-.51c.27-.12.56-.18.85-.18.36,0,.68.06.97.18.28.12.52.29.71.5.19.22.33.48.44.78.1.3.15.64.15,1,0,.06,0,.11,0,.17,0,.05,0,.09-.01.13h-3.55c0,.21.05.4.12.58.07.18.17.33.3.46.13.13.28.23.45.29.17.07.36.1.55.1.38,0,.68-.09.88-.28.2-.18.35-.41.44-.68l.79.27ZM351.49,319.55c-.01-.34-.13-.63-.34-.86s-.53-.35-.95-.35c-.2,0-.37.04-.52.1s-.28.16-.39.27c-.11.11-.19.24-.26.39-.07.14-.1.29-.11.44h2.58Z"/>
      <path class="cls-1" d="M354.57,322.39h-.92v-4.71h.9v.68c.17-.29.39-.5.65-.63.26-.12.53-.19.8-.19s.53.05.74.14c.21.09.39.23.53.39.14.17.25.37.31.59s.1.47.1.73v2.99h-.92v-2.83c0-.16-.02-.32-.05-.46-.04-.14-.1-.27-.19-.38s-.2-.19-.34-.25-.31-.09-.51-.09c-.18,0-.34.04-.48.1-.14.07-.25.16-.34.28-.09.12-.16.25-.21.41-.05.16-.07.32-.07.5v2.72Z"/>
      <path class="cls-1" d="M360.4,317.68h1.02v.83h-1.02v2.45c0,.22.05.38.15.49.1.11.27.16.51.16.06,0,.12,0,.2,0s.13-.02.17-.03v.78s-.11.03-.23.05-.25.03-.4.03c-.41,0-.73-.12-.96-.35-.24-.23-.35-.56-.35-1v-2.59h-.9v-.83h.25c.25,0,.44-.07.55-.21s.17-.31.17-.52v-.76h.84v1.49Z"/>
    </g>
  </g>
  <g>
    <rect class="cls-2" x="428.01" y="312.07" width="186.61" height="14.54"/>
    <g>
      <path class="cls-1" d="M496.24,322.54c-.45,0-.88-.08-1.3-.24s-.78-.39-1.1-.7c-.32-.31-.57-.69-.76-1.14-.19-.45-.29-.97-.29-1.55s.1-1.1.29-1.54.46-.83.78-1.13c.32-.31.69-.54,1.11-.7s.84-.24,1.27-.24c.4,0,.76.05,1.1.16.33.1.63.25.89.44.26.19.48.42.66.7.18.27.32.58.41.91l-.89.31c-.13-.53-.38-.93-.75-1.21s-.84-.42-1.42-.42c-.31,0-.62.06-.92.17-.3.11-.56.29-.79.51-.23.23-.42.52-.55.86-.14.34-.21.74-.21,1.19s.07.85.21,1.19c.14.34.32.63.55.86.23.23.5.4.79.52.3.11.6.17.92.17.29,0,.56-.04.8-.13.24-.08.46-.2.64-.35.19-.15.34-.32.47-.53.13-.21.23-.43.3-.66l.85.31c-.09.33-.23.63-.41.9-.18.27-.4.51-.66.71-.26.2-.56.35-.89.46s-.7.17-1.1.17Z"/>
      <path class="cls-1" d="M500.65,322.39v-6.95h.98v6.95h-.98Z"/>
      <path class="cls-1" d="M507.04,317.33c-.02-.12-.06-.26-.13-.4-.07-.14-.16-.27-.27-.39s-.26-.21-.44-.29c-.18-.08-.39-.11-.63-.11-.2,0-.38.03-.54.09-.16.06-.31.14-.43.25-.12.1-.21.23-.28.37-.07.14-.1.29-.1.46,0,.25.08.46.23.64s.37.3.67.37l1.04.23c.58.13,1.03.37,1.34.71s.47.75.47,1.24c0,.27-.06.53-.17.78s-.27.47-.48.66-.46.34-.75.46-.63.17-1,.17c-.42,0-.78-.06-1.09-.19s-.57-.28-.78-.48c-.21-.2-.38-.42-.5-.66-.12-.24-.19-.49-.23-.74l.92-.29c.02.2.07.38.14.56.07.18.18.34.32.48.14.14.31.25.51.33s.43.12.69.12c.48,0,.83-.11,1.07-.32.24-.22.36-.48.36-.78,0-.25-.08-.47-.25-.67s-.43-.34-.78-.41l-.99-.22c-.5-.11-.9-.33-1.22-.64s-.47-.74-.47-1.26c0-.27.06-.54.18-.78.12-.25.28-.47.49-.66.21-.19.45-.34.73-.46.28-.11.58-.17.9-.17.39,0,.73.05,1,.16.28.11.51.25.7.42s.33.36.44.56c.1.2.18.4.21.59l-.86.3Z"/>
      <path class="cls-1" d="M511.82,317.68h1.41l.35-1.64h.82l-.35,1.64h1.39l.35-1.64h.82l-.35,1.64h1.32v.74h-1.48l-.33,1.57h1.33v.75h-1.5l-.35,1.66h-.82l.35-1.66h-1.39l-.35,1.66h-.82l.35-1.66h-1.24v-.75h1.4l.33-1.57h-1.25v-.74ZM513.56,319.99h1.39l.33-1.57h-1.39l-.33,1.57Z"/>
      <path class="cls-1" d="M519.72,318.65l1.87-1.73h-3.04v-.88h4.31v.86l-1.81,1.68c.24,0,.47.04.7.12.23.08.44.2.63.36s.34.36.46.6c.12.24.18.53.18.85,0,.27-.05.52-.15.77-.1.25-.25.46-.45.65s-.44.34-.72.45-.61.17-.99.17-.69-.05-.98-.17c-.29-.11-.53-.26-.73-.45s-.35-.4-.47-.64c-.11-.24-.17-.49-.19-.75l.94-.22c0,.21.05.4.13.57.08.17.18.31.31.43.13.12.27.21.44.27.17.07.34.1.53.1.22,0,.41-.03.58-.09s.31-.15.42-.25.2-.23.25-.38c.06-.14.09-.29.09-.45,0-.21-.04-.39-.11-.54s-.17-.27-.3-.37c-.12-.09-.26-.16-.42-.21-.15-.04-.31-.07-.46-.07-.19,0-.38.03-.56.1l-.47-.79Z"/>
      <path class="cls-1" d="M530.74,321.05c-.07.21-.16.4-.29.58-.13.18-.28.34-.46.47s-.38.24-.61.32c-.23.08-.48.12-.75.12-.31,0-.61-.05-.9-.17-.29-.11-.54-.27-.76-.49s-.39-.48-.52-.79c-.13-.31-.19-.67-.19-1.07,0-.37.06-.71.19-1.01s.29-.57.5-.78.45-.39.72-.51c.27-.12.56-.18.85-.18.36,0,.68.06.97.18.28.12.52.29.71.5.19.22.33.48.44.78.1.3.15.64.15,1,0,.06,0,.11,0,.17,0,.05,0,.09-.01.13h-3.55c0,.21.05.4.12.58.07.18.17.33.3.46.13.13.28.23.45.29.17.07.36.1.55.1.38,0,.68-.09.88-.28.2-.18.35-.41.44-.68l.79.27ZM529.81,319.55c-.01-.34-.13-.63-.34-.86s-.53-.35-.95-.35c-.2,0-.37.04-.52.1s-.28.16-.39.27c-.11.11-.19.24-.26.39-.07.14-.1.29-.11.44h2.58Z"/>
      <path class="cls-1" d="M534.05,322.39h-.93l-1.91-4.71h1.04l1.34,3.64,1.35-3.64h.99l-1.88,4.71Z"/>
      <path class="cls-1" d="M540.85,321.05c-.07.21-.16.4-.29.58-.13.18-.28.34-.46.47s-.38.24-.61.32c-.23.08-.48.12-.75.12-.31,0-.61-.05-.9-.17-.29-.11-.54-.27-.76-.49s-.39-.48-.52-.79c-.13-.31-.19-.67-.19-1.07,0-.37.06-.71.19-1.01s.29-.57.5-.78.45-.39.72-.51c.27-.12.56-.18.85-.18.36,0,.68.06.97.18.28.12.52.29.71.5.19.22.33.48.44.78.1.3.15.64.15,1,0,.06,0,.11,0,.17,0,.05,0,.09-.01.13h-3.55c0,.21.05.4.12.58.07.18.17.33.3.46.13.13.28.23.45.29.17.07.36.1.55.1.38,0,.68-.09.88-.28.2-.18.35-.41.44-.68l.79.27ZM539.92,319.55c-.01-.34-.13-.63-.34-.86s-.53-.35-.95-.35c-.2,0-.37.04-.52.1s-.28.16-.39.27c-.11.11-.19.24-.26.39-.07.14-.1.29-.11.44h2.58Z"/>
      <path class="cls-1" d="M543.01,322.39h-.92v-4.71h.9v.68c.17-.29.39-.5.65-.63.26-.12.53-.19.8-.19s.53.05.74.14c.21.09.39.23.53.39.14.17.25.37.31.59s.1.47.1.73v2.99h-.92v-2.83c0-.16-.02-.32-.05-.46-.04-.14-.1-.27-.19-.38s-.2-.19-.34-.25-.31-.09-.51-.09c-.18,0-.34.04-.48.1-.14.07-.25.16-.34.28-.09.12-.16.25-.21.41-.05.16-.07.32-.07.5v2.72Z"/>
      <path class="cls-1" d="M548.83,317.68h1.02v.83h-1.02v2.45c0,.22.05.38.15.49.1.11.27.16.51.16.06,0,.12,0,.2,0s.13-.02.17-.03v.78s-.11.03-.23.05-.25.03-.4.03c-.41,0-.73-.12-.96-.35-.24-.23-.35-.56-.35-1v-2.59h-.9v-.83h.25c.25,0,.44-.07.55-.21s.17-.31.17-.52v-.76h.84v1.49Z"/>
    </g>
  </g>
  <line class="cls-4" x1="616.42" y1="31.77" x2="616.42" y2="357.47"/>
  <g>
    <rect class="cls-5" x="79.15" y="69.75" width="512.1" height="22.02"/>
    <g>
      <path class="cls-1" d="M296.74,82.5c-.45,0-.88-.08-1.3-.24s-.78-.39-1.1-.7c-.32-.31-.57-.69-.76-1.14-.19-.45-.29-.97-.29-1.55s.1-1.1.29-1.54c.2-.45.46-.82.78-1.13.32-.31.69-.54,1.11-.7s.84-.24,1.27-.24c.4,0,.76.05,1.1.16.33.11.63.25.89.44.26.19.48.42.66.7.18.28.32.58.41.91l-.89.31c-.13-.53-.38-.94-.75-1.22-.37-.28-.84-.42-1.42-.42-.31,0-.62.06-.92.17-.3.11-.56.29-.79.51-.23.23-.42.51-.55.86-.14.34-.21.74-.21,1.19s.07.85.21,1.19c.14.34.32.63.55.86s.5.41.79.52c.3.12.6.17.92.17.29,0,.56-.04.8-.13.24-.08.46-.2.64-.35.19-.15.34-.32.47-.53.13-.21.23-.43.3-.66l.85.31c-.09.33-.23.63-.41.9-.18.28-.4.51-.66.71-.26.2-.56.35-.89.46-.34.11-.7.17-1.1.17Z"/>
      <path class="cls-1" d="M301.14,82.35v-6.95h.98v6.95h-.98Z"/>
      <path class="cls-1" d="M307.53,77.28c-.02-.12-.06-.26-.13-.4-.07-.14-.16-.27-.27-.39-.12-.12-.26-.21-.44-.29-.18-.07-.39-.11-.63-.11-.2,0-.38.03-.54.09-.16.06-.31.14-.43.24-.12.11-.21.23-.28.37-.07.14-.1.29-.1.46,0,.25.08.46.23.64s.37.3.67.37l1.04.22c.58.13,1.03.37,1.34.71s.47.75.47,1.25c0,.27-.06.53-.17.77-.11.25-.27.47-.48.66-.21.19-.46.34-.75.46s-.63.17-1,.17c-.42,0-.78-.06-1.09-.19s-.57-.28-.78-.48c-.21-.2-.38-.42-.5-.66-.12-.25-.19-.49-.23-.74l.92-.29c.02.2.07.38.14.56.07.18.18.34.32.47.14.14.31.25.51.33.2.08.43.12.69.12.48,0,.83-.11,1.07-.32.24-.22.36-.48.36-.78,0-.25-.08-.47-.25-.67s-.43-.33-.78-.41l-.99-.22c-.5-.11-.9-.33-1.22-.64-.32-.32-.47-.74-.47-1.26,0-.28.06-.54.18-.79.12-.25.28-.47.49-.66s.45-.34.73-.46c.28-.12.58-.17.9-.17.39,0,.73.05,1,.16.28.11.51.25.7.42s.33.36.44.56c.1.2.18.4.21.59l-.86.3Z"/>
      <path class="cls-1" d="M309.4,83.12v-.77h5.02v.77h-5.02Z"/>
      <path class="cls-1" d="M319.35,77.28c-.02-.12-.06-.26-.13-.4-.07-.14-.16-.27-.27-.39-.12-.12-.26-.21-.44-.29-.18-.07-.39-.11-.63-.11-.2,0-.38.03-.54.09-.16.06-.31.14-.43.24-.12.11-.21.23-.28.37-.07.14-.1.29-.1.46,0,.25.08.46.23.64s.37.3.67.37l1.04.22c.58.13,1.03.37,1.34.71s.47.75.47,1.25c0,.27-.06.53-.17.77-.11.25-.27.47-.48.66-.21.19-.46.34-.75.46s-.63.17-1,.17c-.42,0-.78-.06-1.09-.19s-.57-.28-.78-.48c-.21-.2-.38-.42-.5-.66-.12-.25-.19-.49-.23-.74l.92-.29c.02.2.07.38.14.56.07.18.18.34.32.47.14.14.31.25.51.33.2.08.43.12.69.12.48,0,.83-.11,1.07-.32.24-.22.36-.48.36-.78,0-.25-.08-.47-.25-.67s-.43-.33-.78-.41l-.99-.22c-.5-.11-.9-.33-1.22-.64-.32-.32-.47-.74-.47-1.26,0-.28.06-.54.18-.79.12-.25.28-.47.49-.66s.45-.34.73-.46c.28-.12.58-.17.9-.17.39,0,.73.05,1,.16.28.11.51.25.7.42s.33.36.44.56c.1.2.18.4.21.59l-.86.3Z"/>
      <path class="cls-1" d="M321.62,84.32l1.18-2.49-2.03-4.2h1.06l1.47,3.25,1.41-3.25h.99l-3.07,6.68h-1.01Z"/>
      <path class="cls-1" d="M327.55,82.35h-.92v-4.71h.9v.68c.17-.29.39-.5.65-.63s.53-.19.8-.19.53.05.74.14c.21.09.39.23.53.39.14.17.25.36.31.59.07.23.1.47.1.74v2.99h-.92v-2.83c0-.16-.02-.32-.05-.46-.04-.14-.1-.27-.19-.38s-.2-.19-.34-.25-.31-.09-.51-.09c-.18,0-.34.03-.48.1-.14.07-.25.16-.34.28-.09.12-.16.25-.21.41-.05.16-.07.32-.07.5v2.73Z"/>
      <path class="cls-1" d="M334.16,78.34c-.19,0-.37.03-.54.1-.17.07-.32.17-.46.31s-.24.31-.32.51c-.08.21-.12.45-.12.72s.04.5.12.71c.08.21.18.38.31.52s.28.25.46.32c.18.07.36.11.55.11.22,0,.41-.03.56-.1s.28-.15.38-.25.18-.2.24-.32c.06-.11.1-.22.13-.31l.81.35c-.06.17-.14.34-.25.51s-.25.33-.43.48c-.18.14-.38.26-.62.35-.24.09-.51.13-.82.13-.35,0-.67-.06-.96-.19s-.54-.3-.75-.53c-.21-.23-.37-.49-.5-.79-.12-.3-.18-.63-.18-.99s.06-.7.18-1.01.29-.57.5-.79c.21-.22.46-.39.75-.51s.6-.19.94-.19c.31,0,.59.04.83.13.24.09.44.2.62.35.17.14.31.31.42.49s.18.36.24.53l-.83.35c-.03-.12-.08-.24-.14-.35s-.14-.22-.24-.32-.22-.17-.37-.24c-.14-.06-.32-.09-.52-.09Z"/>
      <path class="cls-1" d="M337.03,83.12v-.77h5.02v.77h-5.02Z"/>
      <path class="cls-1" d="M343.41,82.35v-6.95h2.43c.44,0,.86.08,1.26.23.4.15.75.37,1.05.67.3.29.54.66.72,1.09s.27.94.27,1.5-.09,1.07-.27,1.5c-.18.43-.42.79-.73,1.08-.31.29-.66.51-1.06.66-.4.15-.82.22-1.26.22h-2.41ZM345.79,81.5c.32,0,.62-.05.91-.16s.54-.27.75-.49.39-.49.51-.81c.12-.33.19-.71.19-1.15s-.06-.82-.19-1.15-.29-.6-.5-.82c-.21-.22-.46-.38-.75-.5s-.59-.17-.91-.17h-1.44v5.24h1.42Z"/>
      <path class="cls-1" d="M354.59,81.01c-.07.21-.16.4-.29.58-.13.18-.28.34-.46.47s-.38.24-.61.32c-.23.08-.48.12-.75.12-.31,0-.61-.06-.9-.17-.29-.11-.54-.27-.76-.49s-.39-.48-.52-.79c-.13-.31-.19-.67-.19-1.07,0-.37.06-.71.19-1.01s.29-.57.5-.78.45-.39.72-.51.56-.18.85-.18c.36,0,.68.06.97.18s.52.29.71.5c.19.22.33.48.44.78.1.3.15.64.15,1,0,.06,0,.11,0,.17,0,.05,0,.1-.01.13h-3.55c0,.21.05.4.12.58.07.18.17.33.3.46.13.13.28.23.45.29.17.07.36.1.55.1.38,0,.68-.09.88-.27.2-.18.35-.41.44-.68l.79.27ZM353.66,79.51c-.01-.34-.13-.62-.34-.86s-.53-.35-.95-.35c-.2,0-.37.03-.52.1-.15.07-.28.16-.39.27-.11.11-.19.24-.26.39-.07.14-.1.29-.11.44h2.58Z"/>
      <path class="cls-1" d="M355.84,82.35v-7.1h.92v7.1h-.92Z"/>
      <path class="cls-1" d="M358.02,81.09c0-.21.04-.4.11-.56.07-.17.17-.31.3-.43.13-.12.28-.21.46-.28.18-.07.37-.12.57-.16l1.27-.19c.14-.02.24-.06.29-.13.05-.07.07-.14.07-.23,0-.23-.08-.43-.24-.59-.16-.17-.42-.25-.78-.25-.33,0-.58.09-.75.27s-.28.41-.31.68l-.88-.21c.03-.22.09-.43.2-.62s.25-.35.42-.49.37-.24.59-.31c.23-.08.47-.11.72-.11.35,0,.65.05.9.14s.45.22.61.38.27.34.34.55c.07.21.11.43.11.66v2.36c0,.21,0,.38.02.5.01.12.03.22.04.27h-.9c-.01-.06-.02-.14-.03-.24s-.01-.23-.01-.4c-.05.09-.12.17-.21.27s-.19.18-.31.25c-.12.08-.27.14-.44.19s-.35.07-.56.07c-.24,0-.46-.04-.65-.12-.19-.08-.36-.18-.49-.31-.14-.13-.24-.28-.32-.45s-.11-.35-.11-.54ZM359.73,81.72c.19,0,.37-.02.53-.07.17-.05.31-.13.43-.24.12-.11.22-.25.29-.43.07-.18.11-.4.11-.65v-.22l-1.44.22c-.2.03-.36.11-.49.22s-.2.28-.2.49c0,.18.07.33.21.48.14.14.32.21.56.21Z"/>
      <path class="cls-1" d="M363.51,84.32l1.18-2.49-2.03-4.2h1.06l1.47,3.25,1.41-3.25h.99l-3.07,6.68h-1.01Z"/>
    </g>
  </g>
  <polygon class="cls-5" points="53.87 80.75 91.79 103.8 91.79 57.71 53.87 80.75"/>
  <polygon class="cls-5" points="614.52 82.35 576.6 105.4 576.6 59.31 614.52 82.35"/>
</svg>