<?xml version="1.0" encoding="UTF-8"?>
<svg id="Layer_1" data-name="Layer 1" xmlns="http://www.w3.org/2000/svg" viewBox="0 0 2085 724.66">
  <defs>
    <style>
      .cls-1 {
        stroke: #000;
        stroke-miterlimit: 10;
      }

      .cls-1, .cls-2 {
        fill: none;
      }

      .cls-3 {
        fill: #0082fc;
      }
    </style>
  </defs>
  <g>
    <path class="cls-1" d="M2015.46,364.29c-150.85,154.86-306.09,309.33-482.41,309.33s-329.84-154.5-478.57-309.33"/>
    <path class="cls-1" d="M99,364.29C252.41,208.78,406.26,52.81,577.66,53c178.91.2,327.56,155.91,476.82,311.29"/>
  </g>
  <circle class="cls-3" cx="99" cy="360.94" r="20.57"/>
  <circle class="cls-3" cx="1059.01" cy="360.94" r="20.57"/>
  <circle class="cls-3" cx="2019.02" cy="360.94" r="20.57"/>
  <circle class="cls-3" cx="577.66" cy="53" r="20.57"/>
  <circle class="cls-3" cx="1534.97" cy="673.62" r="20.57"/>
  <g>
    <rect class="cls-2" x="76.37" y="403.37" width="45.26" height="51.43"/>
    <path class="cls-3" d="M99.01,440.24c-3.87,0-6.88-1.64-9.03-4.92-2.15-3.28-3.22-7.86-3.22-13.73s1.08-10.44,3.23-13.75c2.16-3.3,5.16-4.96,9.02-4.96s6.82,1.65,8.98,4.96c2.16,3.3,3.25,7.89,3.25,13.75s-1.07,10.45-3.22,13.73c-2.15,3.28-5.15,4.92-9.01,4.92ZM99.01,437.16c2.8,0,4.98-1.37,6.54-4.11,1.56-2.74,2.34-6.56,2.34-11.46s-.78-8.75-2.34-11.51-3.74-4.14-6.54-4.14-5,1.38-6.57,4.14-2.34,6.6-2.34,11.51.78,8.72,2.34,11.46c1.56,2.74,3.75,4.11,6.57,4.11Z"/>
  </g>
  <g>
    <rect class="cls-2" x="507.18" y="95.69" width="139.11" height="51.43"/>
    <path class="cls-3" d="M564.07,132.21c-1.9.11-3.37-.31-4.38-1.26-1.02-.95-1.53-2.4-1.53-4.36v-18.97h-11.33v24.44h-3.3v-24.44h-4.49v-2.86h27.17v2.86h-4.76v18.24c0,1.38.24,2.32.71,2.8.47.48,1.23.67,2.27.57.34-.02.59-.03.74-.05.15-.02.31-.05.48-.1l.68,2.81c-.26.07-.59.13-.99.21-.4.07-.83.11-1.28.11Z"/>
    <path class="cls-3" d="M583.45,93.98l-11.72,43.55h-3.1l11.72-43.55h3.1Z"/>
    <path class="cls-3" d="M588.8,132.06v-2.54l11.94-13.33c1.5-1.69,2.72-3.15,3.66-4.37.94-1.22,1.64-2.36,2.08-3.41s.66-2.14.66-3.28c0-2.07-.7-3.73-2.1-4.99-1.4-1.26-3.16-1.89-5.27-1.89s-3.99.69-5.33,2.08c-1.34,1.38-2.01,3.14-2.01,5.27h-3.34c0-2.02.47-3.81,1.4-5.37.94-1.56,2.22-2.79,3.85-3.69,1.63-.9,3.47-1.34,5.54-1.34s3.87.44,5.46,1.31c1.59.87,2.84,2.06,3.75,3.55.91,1.5,1.37,3.17,1.37,5.03,0,1.33-.23,2.62-.7,3.86-.46,1.24-1.27,2.63-2.42,4.19-1.15,1.55-2.74,3.45-4.77,5.7l-8.89,9.89v.24h17.9v3.1h-22.75Z"/>
  </g>
  <g>
    <rect class="cls-2" x="984.92" y="409.71" width="139.11" height="51.43"/>
    <path class="cls-3" d="M1065.86,446.24c-1.9.11-3.37-.31-4.38-1.26s-1.53-2.4-1.53-4.36v-18.97h-11.33v24.44h-3.3v-24.44h-4.49v-2.86h27.17v2.86h-4.76v18.24c0,1.38.24,2.32.71,2.8.47.48,1.23.67,2.27.57.34-.02.59-.03.74-.05.15-.02.31-.05.48-.1l.68,2.81c-.26.07-.59.13-.99.21s-.83.11-1.28.11Z"/>
  </g>
  <g>
    <rect class="cls-2" x="1465.41" y="579.89" width="139.11" height="51.43"/>
    <path class="cls-3" d="M1496.36,616.75c-2.26,0-4.28-.41-6.05-1.22s-3.18-1.94-4.21-3.39c-1.03-1.45-1.58-3.12-1.62-5.03h3.49c.07,1.32.47,2.47,1.22,3.45.75.98,1.74,1.75,2.98,2.28s2.62.81,4.15.81c1.66,0,3.13-.31,4.41-.93,1.28-.62,2.27-1.46,2.99-2.54s1.07-2.3,1.07-3.69c0-2.18-.83-3.96-2.48-5.32-1.65-1.37-3.89-2.05-6.73-2.05h-2.15v-3.08h2.15c2.33,0,4.24-.62,5.75-1.87,1.5-1.25,2.26-2.91,2.26-4.99s-.66-3.6-1.98-4.86c-1.32-1.25-3.06-1.88-5.22-1.88-1.4,0-2.68.27-3.84.81-1.16.54-2.1,1.3-2.81,2.28-.71.98-1.08,2.14-1.11,3.48h-3.37c.05-1.89.57-3.56,1.58-5,1-1.45,2.34-2.58,4.02-3.39,1.68-.81,3.54-1.22,5.59-1.22s4.01.44,5.59,1.32,2.8,2.05,3.66,3.5c.86,1.46,1.29,3.06,1.29,4.8,0,2.07-.56,3.83-1.68,5.3s-2.64,2.48-4.57,3.05v.24c2.33.46,4.16,1.48,5.49,3.08,1.33,1.6,2,3.54,2,5.83,0,1.95-.51,3.7-1.54,5.24s-2.43,2.75-4.21,3.65-3.82,1.34-6.12,1.34Z"/>
    <path class="cls-3" d="M1537.45,616.41c-1.9.11-3.37-.31-4.38-1.26-1.02-.95-1.53-2.4-1.53-4.36v-18.97h-11.33v24.44h-3.3v-24.44h-4.49v-2.86h27.17v2.86h-4.76v18.24c0,1.38.24,2.32.71,2.8.47.48,1.23.67,2.27.57.34-.02.59-.03.75-.05.15-.02.31-.05.48-.1l.68,2.81c-.26.07-.59.13-.99.21-.4.07-.83.11-1.28.11Z"/>
    <path class="cls-3" d="M1556.83,578.18l-11.72,43.55h-3.1l11.72-43.55h3.1Z"/>
    <path class="cls-3" d="M1562.18,616.26v-2.54l11.94-13.33c1.5-1.69,2.72-3.15,3.66-4.37s1.64-2.36,2.08-3.41.66-2.14.66-3.28c0-2.07-.7-3.73-2.1-4.99-1.4-1.26-3.16-1.89-5.27-1.89s-3.99.69-5.33,2.08c-1.34,1.38-2.01,3.14-2.01,5.27h-3.34c0-2.02.47-3.81,1.4-5.37.94-1.56,2.22-2.79,3.84-3.69,1.63-.9,3.47-1.34,5.54-1.34s3.87.44,5.46,1.31c1.59.87,2.84,2.06,3.75,3.55.91,1.5,1.37,3.17,1.37,5.03,0,1.33-.23,2.62-.7,3.86-.46,1.24-1.27,2.63-2.42,4.19-1.15,1.55-2.74,3.45-4.77,5.7l-8.89,9.89v.24h17.9v3.1h-22.75Z"/>
  </g>
  <g>
    <rect class="cls-2" x="1945.9" y="271.51" width="139.11" height="51.43"/>
    <path class="cls-3" d="M1989.52,307.89v-2.54l11.94-13.33c1.5-1.69,2.72-3.15,3.66-4.37s1.64-2.36,2.08-3.41.66-2.14.66-3.28c0-2.07-.7-3.73-2.1-4.99-1.4-1.26-3.16-1.89-5.27-1.89s-3.99.69-5.33,2.08c-1.34,1.38-2.01,3.14-2.01,5.27h-3.34c0-2.02.47-3.81,1.4-5.37s2.22-2.79,3.85-3.69c1.63-.9,3.47-1.34,5.54-1.34s3.87.44,5.46,1.31c1.59.87,2.84,2.06,3.75,3.55.91,1.5,1.37,3.17,1.37,5.03,0,1.33-.23,2.62-.7,3.86-.46,1.24-1.27,2.63-2.42,4.19-1.15,1.55-2.74,3.45-4.77,5.7l-8.89,9.89v.24h17.9v3.1h-22.75Z"/>
    <path class="cls-3" d="M2042.18,308.04c-1.9.11-3.37-.31-4.38-1.26-1.02-.95-1.53-2.4-1.53-4.36v-18.97h-11.33v24.44h-3.3v-24.44h-4.49v-2.86h27.17v2.86h-4.76v18.24c0,1.38.24,2.32.71,2.8.47.48,1.23.67,2.27.57.34-.02.59-.03.74-.05.15-.02.31-.05.48-.1l.68,2.81c-.26.07-.59.13-.99.21-.4.07-.83.11-1.28.11Z"/>
  </g>
</svg>