<?xml version="1.0" encoding="UTF-8"?>
<svg id="Layer_1" data-name="Layer 1" xmlns="http://www.w3.org/2000/svg" viewBox="0 0 342 396">
  <defs>
    <style>
      .cls-1 {
        stroke: #000;
        stroke-miterlimit: 10;
        stroke-width: .75px;
      }

      .cls-1, .cls-2 {
        fill: none;
      }

      .cls-3 {
        fill: #fff;
      }

      .cls-4 {
        fill: #0082fc;
      }
    </style>
  </defs>
  <g>
    <g>
      <circle class="cls-4" cx="171" cy="345.19" r="40.44"/>
      <g>
        <rect class="cls-2" x="137.71" y="341.72" width="66.57" height="12.6"/>
        <path class="cls-3" d="M148.32,349.11c-.46,0-.9-.08-1.33-.25-.42-.16-.8-.4-1.12-.71-.32-.31-.58-.7-.78-1.16-.2-.46-.29-.99-.29-1.58s.1-1.12.3-1.58.46-.84.79-1.15c.33-.31.71-.55,1.13-.72.42-.16.86-.25,1.29-.25.41,0,.78.05,1.12.16.34.11.64.26.91.45s.49.43.67.71c.18.28.32.59.42.93l-.91.32c-.13-.54-.39-.95-.76-1.24-.38-.29-.86-.43-1.45-.43-.32,0-.63.06-.93.17-.3.12-.57.29-.81.52-.24.23-.42.52-.56.88-.14.35-.21.76-.21,1.22s.07.86.21,1.21c.14.35.33.64.56.88.24.24.51.41.81.53.3.12.62.17.93.17.3,0,.57-.04.82-.13.25-.09.46-.21.66-.35.19-.15.35-.33.48-.54s.23-.44.31-.68l.87.32c-.09.33-.23.64-.42.92-.19.28-.41.52-.67.72-.26.2-.57.36-.91.47-.34.11-.72.17-1.12.17Z"/>
        <path class="cls-3" d="M154.61,344c.36,0,.69.06.99.19.3.13.56.31.78.54s.39.5.51.81c.12.31.18.65.18,1.01s-.06.71-.18,1.02c-.12.31-.29.58-.51.81s-.48.41-.78.54c-.3.13-.63.19-.99.19s-.69-.06-.99-.19-.56-.31-.78-.54-.39-.5-.51-.81c-.12-.31-.18-.65-.18-1.02s.06-.71.18-1.01c.12-.31.29-.58.51-.81s.48-.4.78-.54c.3-.13.63-.19.99-.19ZM154.61,348.27c.2,0,.39-.04.57-.11.18-.07.34-.18.48-.33.14-.15.25-.33.33-.54s.12-.46.12-.74-.04-.52-.12-.73-.19-.39-.33-.54c-.14-.15-.3-.26-.48-.33-.18-.07-.37-.11-.57-.11s-.39.04-.57.11c-.18.07-.34.18-.48.33-.14.15-.25.33-.33.54-.08.21-.12.46-.12.73s.04.53.12.74c.08.21.19.39.33.54.14.15.3.26.48.33s.37.11.57.11Z"/>
        <path class="cls-3" d="M159.31,348.96h-.94v-4.81h.92v.69c.17-.3.39-.51.66-.64.27-.13.54-.19.82-.19s.54.05.75.15c.22.1.4.23.54.4.14.17.25.37.32.6.07.23.1.48.1.75v3.05h-.94v-2.89c0-.17-.02-.32-.06-.47-.04-.15-.1-.27-.19-.39-.09-.11-.21-.2-.35-.26s-.32-.1-.52-.1c-.19,0-.35.04-.49.1-.14.07-.26.17-.35.29-.09.12-.16.26-.21.42-.05.16-.07.33-.07.51v2.78Z"/>
        <path class="cls-3" d="M165.03,348.96h-.94v-4.81h.92v.69c.17-.3.39-.51.66-.64.27-.13.54-.19.82-.19s.54.05.75.15c.22.1.4.23.54.4.14.17.25.37.32.6.07.23.1.48.1.75v3.05h-.94v-2.89c0-.17-.02-.32-.06-.47-.04-.15-.1-.27-.19-.39-.09-.11-.21-.2-.35-.26s-.32-.1-.52-.1c-.19,0-.35.04-.49.1-.14.07-.26.17-.35.29-.09.12-.16.26-.21.42-.05.16-.07.33-.07.51v2.78Z"/>
        <path class="cls-3" d="M174,347.59c-.07.21-.17.41-.29.6-.13.18-.29.34-.47.48-.18.14-.39.25-.62.32-.23.08-.49.12-.77.12-.32,0-.63-.06-.92-.17-.29-.11-.55-.28-.78-.5s-.4-.49-.53-.81c-.13-.32-.2-.68-.2-1.09,0-.38.06-.73.19-1.04.13-.31.29-.58.51-.8.21-.22.45-.4.73-.52s.57-.19.87-.19c.37,0,.7.06.99.19s.53.29.72.52c.19.22.34.48.45.79s.15.65.15,1.02c0,.06,0,.12,0,.17,0,.05,0,.1-.01.13h-3.62c0,.21.05.41.12.59.07.18.17.33.3.46s.28.23.46.3c.18.07.37.1.57.1.39,0,.69-.09.9-.28.21-.19.36-.42.45-.69l.81.28ZM173.05,346.06c-.01-.35-.13-.64-.35-.88-.22-.24-.54-.35-.97-.35-.2,0-.38.03-.54.1-.16.07-.29.16-.4.28-.11.12-.2.25-.27.4-.07.15-.1.3-.11.45h2.63Z"/>
        <path class="cls-3" d="M177.35,344.87c-.19,0-.38.03-.55.1-.17.07-.33.17-.46.31s-.25.31-.32.52c-.08.21-.12.46-.12.73s.04.52.12.73c.08.21.19.39.32.53.13.14.29.25.47.32.18.07.37.11.56.11.23,0,.42-.03.58-.1.16-.07.29-.15.39-.25.1-.1.19-.21.25-.33s.1-.22.13-.31l.83.36c-.06.17-.15.35-.26.52-.11.18-.26.34-.44.49-.18.15-.39.26-.63.35-.24.09-.52.13-.83.13-.35,0-.68-.06-.97-.19-.3-.13-.55-.31-.77-.54-.21-.23-.38-.5-.5-.81s-.18-.65-.18-1.02.06-.72.18-1.03.29-.58.51-.81c.22-.22.47-.4.77-.52.3-.13.62-.19.96-.19.32,0,.6.04.84.13.24.09.45.21.63.35.18.15.32.31.42.5.11.18.19.37.24.54l-.85.36c-.03-.12-.08-.24-.14-.36-.06-.12-.14-.23-.25-.32s-.23-.18-.38-.24c-.15-.06-.32-.09-.53-.09Z"/>
        <path class="cls-3" d="M181.99,344.15h1.04v.85h-1.04v2.5c0,.22.05.38.15.5.1.11.27.17.52.17.06,0,.13,0,.2-.01.07,0,.13-.02.17-.03v.8s-.12.03-.23.06c-.11.02-.25.03-.41.03-.41,0-.74-.12-.98-.35-.24-.24-.36-.57-.36-1.01v-2.64h-.92v-.85h.26c.26,0,.45-.07.57-.21.12-.14.17-.32.17-.53v-.78h.86v1.52Z"/>
        <path class="cls-3" d="M184.17,342.33c0-.19.07-.35.2-.49.13-.13.29-.19.47-.19s.36.06.49.19c.13.13.2.29.2.49s-.07.34-.2.48c-.13.13-.29.19-.49.19s-.34-.06-.47-.19c-.13-.13-.2-.29-.2-.48ZM184.38,348.96v-4.81h.93v4.81h-.93Z"/>
        <path class="cls-3" d="M189.07,344c.36,0,.69.06.99.19.3.13.56.31.78.54s.39.5.51.81c.12.31.18.65.18,1.01s-.06.71-.18,1.02c-.12.31-.29.58-.51.81s-.48.41-.78.54c-.3.13-.63.19-.99.19s-.69-.06-.99-.19-.56-.31-.78-.54-.39-.5-.51-.81c-.12-.31-.18-.65-.18-1.02s.06-.71.18-1.01c.12-.31.29-.58.51-.81s.48-.4.78-.54c.3-.13.63-.19.99-.19ZM189.07,348.27c.2,0,.39-.04.57-.11.18-.07.34-.18.48-.33.14-.15.25-.33.33-.54s.12-.46.12-.74-.04-.52-.12-.73-.19-.39-.33-.54c-.14-.15-.3-.26-.48-.33-.18-.07-.37-.11-.57-.11s-.39.04-.57.11c-.18.07-.34.18-.48.33-.14.15-.25.33-.33.54-.08.21-.12.46-.12.73s.04.53.12.74c.08.21.19.39.33.54.14.15.3.26.48.33s.37.11.57.11Z"/>
        <path class="cls-3" d="M193.77,348.96h-.94v-4.81h.92v.69c.17-.3.39-.51.66-.64.27-.13.54-.19.82-.19s.54.05.75.15c.22.1.4.23.54.4.14.17.25.37.32.6.07.23.1.48.1.75v3.05h-.94v-2.89c0-.17-.02-.32-.06-.47-.04-.15-.1-.27-.19-.39-.09-.11-.21-.2-.35-.26s-.32-.1-.52-.1c-.19,0-.35.04-.49.1-.14.07-.26.17-.35.29-.09.12-.16.26-.21.42-.05.16-.07.33-.07.51v2.78Z"/>
      </g>
    </g>
    <g>
      <circle class="cls-4" cx="171" cy="47.95" r="40.44"/>
      <g>
        <rect class="cls-2" x="130.67" y="44.48" width="80.67" height="12.6"/>
        <path class="cls-3" d="M154.38,46.55c-.02-.13-.06-.26-.13-.41s-.16-.28-.28-.4c-.12-.12-.27-.22-.45-.29-.18-.08-.39-.11-.64-.11-.2,0-.38.03-.55.09-.17.06-.31.14-.44.25-.12.11-.22.23-.29.38-.07.14-.1.3-.1.46,0,.25.08.47.23.66.15.18.38.31.68.38l1.06.23c.59.13,1.05.37,1.37.72.32.35.48.77.48,1.27,0,.27-.06.54-.17.79s-.28.48-.49.67c-.21.19-.47.35-.77.46-.3.12-.64.17-1.02.17-.43,0-.8-.06-1.12-.19-.32-.13-.58-.29-.8-.49s-.38-.42-.5-.67-.2-.5-.23-.75l.94-.3c.02.2.07.39.14.57.08.18.19.35.33.49s.32.25.52.33c.2.08.44.12.7.12.49,0,.85-.11,1.1-.33.24-.22.37-.49.37-.8,0-.25-.09-.48-.26-.69-.17-.2-.44-.34-.8-.42l-1.01-.22c-.51-.11-.92-.33-1.25-.66-.32-.32-.49-.75-.49-1.28,0-.28.06-.55.18-.8.12-.25.28-.48.5-.67.21-.19.46-.35.74-.46.29-.12.59-.17.92-.17.4,0,.74.05,1.03.17s.52.25.71.42c.19.17.34.36.45.57s.18.41.22.6l-.88.31Z"/>
        <path class="cls-3" d="M158.68,47.63c-.19,0-.38.03-.55.1-.17.07-.33.17-.46.32-.14.14-.25.31-.32.52-.08.21-.12.46-.12.74s.04.51.12.72c.08.21.19.39.32.53.13.14.29.25.47.33.18.07.37.11.56.11.23,0,.42-.03.58-.1.16-.07.29-.15.39-.25s.19-.21.25-.33c.06-.12.1-.22.13-.31l.83.36c-.06.17-.15.35-.26.53s-.26.34-.44.49c-.18.15-.39.26-.63.35s-.52.13-.83.13c-.35,0-.68-.06-.97-.19-.3-.13-.55-.31-.77-.54-.21-.23-.38-.5-.5-.81-.12-.31-.18-.65-.18-1.01s.06-.72.18-1.03.29-.58.51-.8.47-.4.77-.53c.3-.13.62-.19.96-.19.32,0,.6.04.84.13s.45.21.63.35c.18.15.32.31.42.5.11.18.19.37.24.54l-.85.36c-.03-.12-.08-.24-.14-.36-.06-.12-.14-.23-.25-.32s-.23-.18-.38-.24-.32-.09-.53-.09Z"/>
        <path class="cls-3" d="M161.76,50.43c0-.21.04-.41.11-.58.07-.17.17-.32.3-.43.13-.12.29-.22.46-.29s.37-.13.58-.16l1.3-.19c.15-.02.25-.06.29-.13.05-.07.08-.14.08-.23,0-.23-.08-.44-.25-.61s-.43-.25-.79-.25c-.33,0-.59.09-.77.28-.18.18-.29.41-.32.69l-.9-.21c.03-.23.1-.44.21-.63.11-.19.25-.36.43-.5.17-.14.38-.24.6-.32.23-.08.47-.11.74-.11.36,0,.67.05.92.14.25.1.46.23.62.38.16.16.28.35.35.56.07.21.11.44.11.67v2.41c0,.21,0,.38.02.51s.03.22.04.28h-.92c-.01-.06-.03-.14-.04-.24s-.01-.24-.01-.41c-.05.09-.12.18-.21.27-.09.09-.19.18-.32.26s-.27.14-.45.2c-.17.05-.36.07-.57.07-.25,0-.47-.04-.67-.12-.2-.08-.37-.18-.5-.31-.14-.13-.25-.28-.33-.46-.08-.17-.12-.36-.12-.55ZM163.5,51.08c.19,0,.38-.02.54-.07.17-.05.32-.13.44-.24.12-.11.22-.26.29-.44.07-.18.11-.4.11-.67v-.22l-1.47.22c-.2.03-.37.11-.5.23-.13.12-.2.28-.2.5,0,.18.07.34.21.48.14.14.33.21.57.21Z"/>
        <path class="cls-3" d="M168.33,51.72h-.94v-4.81h.92v.69c.17-.3.39-.51.66-.64.27-.13.54-.19.82-.19s.54.05.75.14c.22.1.4.23.54.4s.25.37.32.61c.07.23.1.48.1.75v3.05h-.94v-2.89c0-.17-.02-.32-.06-.47-.04-.15-.1-.27-.19-.38-.09-.11-.21-.2-.35-.26s-.32-.1-.52-.1c-.19,0-.35.04-.49.11s-.26.17-.35.29c-.09.12-.16.26-.21.42-.05.16-.07.33-.07.51v2.78Z"/>
        <path class="cls-3" d="M174.05,51.72h-.94v-4.81h.92v.69c.17-.3.39-.51.66-.64.27-.13.54-.19.82-.19s.54.05.75.14c.22.1.4.23.54.4s.25.37.32.61c.07.23.1.48.1.75v3.05h-.94v-2.89c0-.17-.02-.32-.06-.47-.04-.15-.1-.27-.19-.38-.09-.11-.21-.2-.35-.26s-.32-.1-.52-.1c-.19,0-.35.04-.49.11s-.26.17-.35.29c-.09.12-.16.26-.21.42-.05.16-.07.33-.07.51v2.78Z"/>
        <path class="cls-3" d="M178.62,45.09c0-.19.07-.36.2-.49s.29-.2.47-.2.36.07.49.2.2.29.2.49-.07.34-.2.47-.29.2-.49.2-.34-.07-.47-.2-.2-.29-.2-.47ZM178.83,51.72v-4.81h.93v4.81h-.93Z"/>
        <path class="cls-3" d="M182.4,51.72h-.94v-4.81h.92v.69c.17-.3.39-.51.66-.64.27-.13.54-.19.82-.19s.54.05.75.14c.22.1.4.23.54.4s.25.37.32.61c.07.23.1.48.1.75v3.05h-.94v-2.89c0-.17-.02-.32-.06-.47-.04-.15-.1-.27-.19-.38-.09-.11-.21-.2-.35-.26s-.32-.1-.52-.1c-.19,0-.35.04-.49.11s-.26.17-.35.29c-.09.12-.16.26-.21.42-.05.16-.07.33-.07.51v2.78Z"/>
        <path class="cls-3" d="M187.75,51.77c.03.34.17.62.4.84.24.22.54.33.91.33.51,0,.88-.13,1.12-.39.24-.26.35-.65.35-1.17v-.69c-.11.22-.3.41-.55.56-.25.15-.56.23-.92.23-.32,0-.62-.06-.88-.17-.27-.12-.5-.28-.7-.48-.2-.2-.35-.45-.46-.74-.11-.29-.17-.6-.17-.94s.05-.63.16-.92c.11-.28.26-.53.45-.74s.42-.38.69-.5c.27-.12.57-.19.91-.19.37,0,.68.07.93.2.25.13.43.32.55.56v-.67h.93v4.45c0,.31-.04.61-.12.9s-.21.55-.41.77c-.19.22-.44.4-.75.54s-.69.21-1.14.21c-.3,0-.58-.04-.83-.13s-.48-.21-.68-.38c-.2-.16-.36-.35-.48-.57s-.2-.46-.22-.71l.91-.21ZM189.19,50.7c.41,0,.74-.14.99-.42.25-.28.38-.65.38-1.12s-.13-.84-.38-1.12c-.25-.28-.58-.42-.99-.42s-.76.14-1.01.42c-.25.28-.38.65-.38,1.12s.12.85.38,1.12c.25.28.59.42,1.01.42Z"/>
      </g>
    </g>
    <g>
      <circle class="cls-4" cx="275.61" cy="91.22" r="40.44"/>
      <g>
        <rect class="cls-2" x="226.76" y="87.75" width="97.7" height="12.6"/>
        <path class="cls-3" d="M243.3,89.82c-.02-.13-.06-.26-.13-.41-.07-.14-.16-.27-.28-.4-.12-.12-.27-.22-.45-.29-.18-.08-.39-.11-.64-.11-.2,0-.38.03-.55.09-.17.06-.31.14-.44.25-.12.11-.22.23-.29.38-.07.14-.1.3-.1.46,0,.25.08.47.23.66.15.18.38.31.68.38l1.06.23c.59.13,1.05.37,1.37.72.32.35.48.77.48,1.27,0,.27-.06.54-.17.79-.11.25-.28.48-.49.67-.21.19-.47.35-.77.47s-.64.17-1.02.17c-.43,0-.8-.06-1.12-.19s-.58-.29-.8-.49c-.22-.2-.38-.43-.5-.68s-.2-.5-.23-.75l.94-.3c.02.2.07.39.14.57.08.18.19.35.33.48.14.14.32.25.52.33.2.08.44.12.7.12.49,0,.85-.11,1.1-.33.24-.22.37-.49.37-.8,0-.25-.09-.48-.26-.69-.17-.2-.44-.34-.8-.42l-1.01-.22c-.51-.11-.92-.33-1.25-.66-.32-.32-.49-.75-.49-1.28,0-.28.06-.55.18-.8.12-.25.28-.48.5-.67.21-.19.46-.35.74-.46.29-.12.59-.18.92-.18.4,0,.74.06,1.03.17.28.11.52.25.71.43.19.17.34.36.45.57.11.21.18.41.22.6l-.88.31Z"/>
        <path class="cls-3" d="M245.51,97l1.2-2.54-2.07-4.28h1.08l1.5,3.32,1.44-3.32h1.01l-3.13,6.82h-1.03Z"/>
        <path class="cls-3" d="M251.61,94.99h-.94v-4.81h.92v.69c.17-.3.39-.51.66-.64.27-.13.54-.19.82-.19s.54.05.75.15c.22.1.4.23.54.4.14.17.25.37.32.6.07.23.1.48.1.75v3.05h-.94v-2.89c0-.17-.02-.32-.06-.47-.04-.15-.1-.27-.19-.39-.09-.11-.21-.2-.35-.26s-.32-.1-.52-.1c-.19,0-.35.04-.49.1-.14.07-.26.17-.35.29-.09.12-.16.26-.21.42-.05.16-.07.33-.07.51v2.78Z"/>
        <path class="cls-3" d="M258.41,90.9c-.19,0-.38.03-.55.1-.17.07-.33.17-.46.31s-.25.31-.32.52c-.08.21-.12.46-.12.73s.04.52.12.73c.08.21.19.39.32.53.13.14.29.25.47.32.18.07.37.11.56.11.23,0,.42-.03.58-.1.16-.07.29-.15.39-.25.1-.1.19-.21.25-.33s.1-.22.13-.31l.83.36c-.06.17-.15.35-.26.52-.11.18-.26.34-.44.49-.18.15-.39.26-.63.35-.24.09-.52.13-.83.13-.35,0-.68-.06-.97-.19-.3-.13-.55-.31-.77-.54-.21-.23-.38-.5-.5-.81s-.18-.65-.18-1.02.06-.72.18-1.03.29-.58.51-.81c.22-.22.47-.4.77-.52.3-.13.62-.19.96-.19.32,0,.6.04.84.13.24.09.45.21.63.35.18.15.32.31.42.5.11.18.19.37.24.54l-.85.36c-.03-.12-.08-.24-.14-.36-.06-.12-.14-.23-.25-.32s-.23-.18-.38-.24c-.15-.06-.32-.09-.53-.09Z"/>
        <path class="cls-3" d="M262.73,94.99h-.94v-7.24h.94v2.99c.17-.25.39-.43.65-.54.26-.11.53-.16.81-.16s.54.05.75.15c.22.1.4.23.54.4.14.17.25.37.32.6.07.23.1.48.1.75v3.05h-.94v-2.89c0-.17-.02-.32-.06-.47-.04-.15-.1-.27-.19-.39-.09-.11-.21-.2-.35-.26s-.32-.1-.52-.1c-.18,0-.34.03-.48.1-.14.07-.25.16-.34.27-.09.11-.17.25-.21.4s-.08.32-.08.5v2.83Z"/>
        <path class="cls-3" d="M270.18,91.13c-.14-.02-.28-.03-.41-.03-.39,0-.71.12-.95.35-.24.23-.37.61-.37,1.13v2.41h-.94v-4.81h.92v.84c.09-.19.19-.34.31-.45.12-.12.24-.21.36-.28.13-.07.26-.12.39-.15.13-.03.26-.04.38-.04.07,0,.13,0,.18.01s.1.01.12.02v1Z"/>
        <path class="cls-3" d="M273.34,90.03c.36,0,.69.06.99.19.3.13.56.31.78.54s.39.5.51.81c.12.31.18.65.18,1.01s-.06.71-.18,1.02c-.12.31-.29.58-.51.81s-.48.41-.78.54c-.3.13-.63.19-.99.19s-.69-.06-.99-.19-.56-.31-.78-.54-.39-.5-.51-.81c-.12-.31-.18-.65-.18-1.02s.06-.71.18-1.01c.12-.31.29-.58.51-.81s.48-.4.78-.54c.3-.13.63-.19.99-.19ZM273.34,94.3c.2,0,.39-.04.57-.11.18-.07.34-.18.48-.33.14-.15.25-.33.33-.54s.12-.46.12-.74-.04-.52-.12-.73-.19-.39-.33-.54c-.14-.15-.3-.26-.48-.33-.18-.07-.37-.11-.57-.11s-.39.04-.57.11c-.18.07-.34.18-.48.33-.14.15-.25.33-.33.54-.08.21-.12.46-.12.73s.04.53.12.74c.08.21.19.39.33.54.14.15.3.26.48.33s.37.11.57.11Z"/>
        <path class="cls-3" d="M278.04,94.99h-.94v-4.81h.92v.69c.17-.3.39-.51.66-.64.27-.13.54-.19.82-.19s.54.05.75.15c.22.1.4.23.54.4.14.17.25.37.32.6.07.23.1.48.1.75v3.05h-.94v-2.89c0-.17-.02-.32-.06-.47-.04-.15-.1-.27-.19-.39-.09-.11-.21-.2-.35-.26s-.32-.1-.52-.1c-.19,0-.35.04-.49.1-.14.07-.26.17-.35.29-.09.12-.16.26-.21.42-.05.16-.07.33-.07.51v2.78Z"/>
        <path class="cls-3" d="M282.61,88.36c0-.19.07-.35.2-.49.13-.13.29-.19.47-.19s.36.06.49.19c.13.13.2.29.2.49s-.07.34-.2.48c-.13.13-.29.19-.49.19s-.34-.06-.47-.19c-.13-.13-.2-.29-.2-.48ZM282.82,94.99v-4.81h.93v4.81h-.93Z"/>
        <path class="cls-3" d="M285.05,94.99v-.82l2.64-3.14h-2.6v-.85h3.77v.82l-2.64,3.14h2.69v.85h-3.86Z"/>
        <path class="cls-3" d="M289.91,93.7c0-.21.04-.4.11-.58.07-.17.17-.31.3-.43.13-.12.29-.22.46-.29s.37-.13.58-.16l1.3-.19c.15-.02.25-.06.29-.13.05-.07.08-.14.08-.23,0-.23-.08-.44-.25-.6-.16-.17-.43-.26-.79-.26-.33,0-.59.09-.77.28-.18.18-.29.41-.32.69l-.9-.21c.03-.23.1-.44.21-.63.11-.19.25-.36.43-.5.17-.14.38-.24.6-.32.23-.08.47-.11.74-.11.36,0,.67.05.92.15.25.1.46.23.62.38.16.16.28.35.35.56s.11.44.11.67v2.41c0,.21,0,.38.02.51.01.13.03.22.04.28h-.92c-.01-.06-.03-.14-.04-.24,0-.1-.01-.24-.01-.41-.05.09-.12.18-.21.27-.09.09-.19.18-.32.26s-.27.15-.45.2c-.17.05-.36.07-.57.07-.25,0-.47-.04-.67-.12-.2-.08-.37-.18-.5-.31-.14-.13-.25-.28-.33-.46-.08-.17-.12-.36-.12-.55ZM291.65,94.35c.19,0,.38-.02.54-.07.17-.05.32-.13.44-.24.12-.11.22-.26.29-.44.07-.18.11-.4.11-.67v-.22l-1.47.22c-.2.03-.37.11-.5.23-.13.12-.2.28-.2.5,0,.18.07.34.21.48.14.14.33.21.57.21Z"/>
        <path class="cls-3" d="M296.8,90.18h1.04v.85h-1.04v2.5c0,.22.05.38.15.5.1.11.27.17.52.17.06,0,.13,0,.2-.01.07,0,.13-.02.17-.03v.8s-.12.03-.23.06c-.11.02-.25.03-.41.03-.41,0-.74-.12-.98-.35-.24-.24-.36-.57-.36-1.01v-2.64h-.92v-.85h.26c.26,0,.45-.07.57-.21.12-.14.17-.32.17-.53v-.78h.86v1.52Z"/>
        <path class="cls-3" d="M298.98,88.36c0-.19.07-.35.2-.49.13-.13.29-.19.47-.19s.36.06.49.19c.13.13.2.29.2.49s-.07.34-.2.48c-.13.13-.29.19-.49.19s-.34-.06-.47-.19c-.13-.13-.2-.29-.2-.48ZM299.19,94.99v-4.81h.93v4.81h-.93Z"/>
        <path class="cls-3" d="M303.88,90.03c.36,0,.69.06.99.19.3.13.56.31.78.54s.39.5.51.81c.12.31.18.65.18,1.01s-.06.71-.18,1.02c-.12.31-.29.58-.51.81s-.48.41-.78.54c-.3.13-.63.19-.99.19s-.69-.06-.99-.19-.56-.31-.78-.54-.39-.5-.51-.81c-.12-.31-.18-.65-.18-1.02s.06-.71.18-1.01c.12-.31.29-.58.51-.81s.48-.4.78-.54c.3-.13.63-.19.99-.19ZM303.88,94.3c.2,0,.39-.04.57-.11.18-.07.34-.18.48-.33.14-.15.25-.33.33-.54s.12-.46.12-.74-.04-.52-.12-.73-.19-.39-.33-.54c-.14-.15-.3-.26-.48-.33-.18-.07-.37-.11-.57-.11s-.39.04-.57.11c-.18.07-.34.18-.48.33-.14.15-.25.33-.33.54-.08.21-.12.46-.12.73s.04.53.12.74c.08.21.19.39.33.54.14.15.3.26.48.33s.37.11.57.11Z"/>
        <path class="cls-3" d="M308.58,94.99h-.94v-4.81h.92v.69c.17-.3.39-.51.66-.64.27-.13.54-.19.82-.19s.54.05.75.15c.22.1.4.23.54.4.14.17.25.37.32.6.07.23.1.48.1.75v3.05h-.94v-2.89c0-.17-.02-.32-.06-.47-.04-.15-.1-.27-.19-.39-.09-.11-.21-.2-.35-.26s-.32-.1-.52-.1c-.19,0-.35.04-.49.1-.14.07-.26.17-.35.29-.09.12-.16.26-.21.42-.05.16-.07.33-.07.51v2.78Z"/>
      </g>
    </g>
    <g>
      <circle class="cls-4" cx="67.48" cy="91.22" r="40.44"/>
      <g>
        <rect class="cls-2" x="27.25" y="80.06" width="80.46" height="27.98"/>
        <path class="cls-3" d="M40.45,87.3v-7.09h1v7.09h-1Z"/>
        <path class="cls-3" d="M43.65,85.75c.03.25.14.47.33.64.19.17.45.26.79.26.27,0,.47-.06.61-.19.14-.13.21-.28.21-.45,0-.15-.05-.28-.16-.39-.11-.11-.26-.18-.46-.23l-.82-.18c-.38-.08-.67-.24-.88-.48-.21-.24-.32-.53-.32-.87,0-.21.04-.4.13-.58.09-.18.21-.35.37-.48.15-.14.33-.25.54-.33s.43-.12.67-.12c.33,0,.6.05.83.14.22.09.41.21.54.34.14.14.25.28.31.43.07.15.12.27.15.38l-.83.31c-.01-.06-.04-.14-.07-.23s-.09-.18-.16-.27c-.07-.08-.17-.15-.3-.21-.13-.06-.28-.09-.47-.09-.24,0-.43.06-.58.2-.15.13-.22.28-.22.44,0,.31.18.5.55.58l.78.17c.44.09.77.27,1,.52.22.25.33.55.33.92,0,.17-.04.35-.11.52s-.18.33-.33.48-.33.26-.54.35c-.22.09-.48.13-.78.13-.33,0-.62-.05-.85-.14-.24-.09-.43-.21-.59-.35-.16-.14-.28-.29-.36-.46s-.13-.31-.16-.46l.85-.3Z"/>
        <path class="cls-3" d="M49.93,82.34c.36,0,.69.06.99.19.3.13.56.31.78.54s.39.5.51.81c.12.31.18.65.18,1.01s-.06.71-.18,1.02c-.12.31-.29.58-.51.81s-.48.41-.78.54c-.3.13-.63.19-.99.19s-.69-.06-.99-.19-.56-.31-.78-.54-.39-.5-.51-.81c-.12-.31-.18-.65-.18-1.02s.06-.71.18-1.01c.12-.31.29-.58.51-.81s.48-.4.78-.54c.3-.13.63-.19.99-.19ZM49.93,86.61c.2,0,.39-.04.57-.11.18-.07.34-.18.48-.33.14-.15.25-.33.33-.54s.12-.46.12-.74-.04-.52-.12-.73-.19-.39-.33-.54c-.14-.15-.3-.26-.48-.33-.18-.07-.37-.11-.57-.11s-.39.04-.57.11c-.18.07-.34.18-.48.33-.14.15-.25.33-.33.54-.08.21-.12.46-.12.73s.04.53.12.74c.08.21.19.39.33.54.14.15.3.26.48.33s.37.11.57.11Z"/>
        <path class="cls-3" d="M55.71,83.21c-.19,0-.38.03-.55.1-.17.07-.33.17-.46.31s-.25.31-.32.52c-.08.21-.12.46-.12.73s.04.52.12.73c.08.21.19.39.32.53.13.14.29.25.47.32.18.07.37.11.56.11.23,0,.42-.03.58-.1.16-.07.29-.15.39-.25.1-.1.19-.21.25-.33s.1-.22.13-.31l.83.36c-.06.17-.15.35-.26.52-.11.18-.26.34-.44.49-.18.15-.39.26-.63.35-.24.09-.52.13-.83.13-.35,0-.68-.06-.97-.19-.3-.13-.55-.31-.77-.54-.21-.23-.38-.5-.5-.81s-.18-.65-.18-1.02.06-.72.18-1.03.29-.58.51-.81c.22-.22.47-.4.77-.52.3-.13.62-.19.96-.19.32,0,.6.04.84.13.24.09.45.21.63.35.18.15.32.31.42.5.11.18.19.37.24.54l-.85.36c-.03-.12-.08-.24-.14-.36-.06-.12-.14-.23-.25-.32s-.23-.18-.38-.24c-.15-.06-.32-.09-.53-.09Z"/>
        <path class="cls-3" d="M60.03,87.3h-.94v-7.24h.94v2.99c.17-.25.39-.43.65-.54.26-.11.53-.16.81-.16s.54.05.75.15c.22.1.4.23.54.4.14.17.25.37.32.6.07.23.1.48.1.75v3.05h-.94v-2.89c0-.17-.02-.32-.06-.47-.04-.15-.1-.27-.19-.39-.09-.11-.21-.2-.35-.26s-.32-.1-.52-.1c-.18,0-.34.03-.48.1-.14.07-.25.16-.34.27-.09.11-.17.25-.21.4s-.08.32-.08.5v2.83Z"/>
        <path class="cls-3" d="M67.48,83.44c-.14-.02-.28-.03-.41-.03-.39,0-.71.12-.95.35-.24.23-.37.61-.37,1.13v2.41h-.94v-4.81h.92v.84c.09-.19.19-.34.31-.45.12-.12.24-.21.36-.28.13-.07.26-.12.39-.15.13-.03.26-.04.38-.04.07,0,.13,0,.18.01s.1.01.12.02v1Z"/>
        <path class="cls-3" d="M70.64,82.34c.36,0,.69.06.99.19.3.13.56.31.78.54s.39.5.51.81c.12.31.18.65.18,1.01s-.06.71-.18,1.02c-.12.31-.29.58-.51.81s-.48.41-.78.54c-.3.13-.63.19-.99.19s-.69-.06-.99-.19-.56-.31-.78-.54-.39-.5-.51-.81c-.12-.31-.18-.65-.18-1.02s.06-.71.18-1.01c.12-.31.29-.58.51-.81s.48-.4.78-.54c.3-.13.63-.19.99-.19ZM70.64,86.61c.2,0,.39-.04.57-.11.18-.07.34-.18.48-.33.14-.15.25-.33.33-.54s.12-.46.12-.74-.04-.52-.12-.73-.19-.39-.33-.54c-.14-.15-.3-.26-.48-.33-.18-.07-.37-.11-.57-.11s-.39.04-.57.11c-.18.07-.34.18-.48.33-.14.15-.25.33-.33.54-.08.21-.12.46-.12.73s.04.53.12.74c.08.21.19.39.33.54.14.15.3.26.48.33s.37.11.57.11Z"/>
        <path class="cls-3" d="M75.34,87.3h-.94v-4.81h.92v.69c.17-.3.39-.51.66-.64.27-.13.54-.19.82-.19s.54.05.75.15c.22.1.4.23.54.4.14.17.25.37.32.6.07.23.1.48.1.75v3.05h-.94v-2.89c0-.17-.02-.32-.06-.47-.04-.15-.1-.27-.19-.39-.09-.11-.21-.2-.35-.26s-.32-.1-.52-.1c-.19,0-.35.04-.49.1-.14.07-.26.17-.35.29-.09.12-.16.26-.21.42-.05.16-.07.33-.07.51v2.78Z"/>
        <path class="cls-3" d="M82.18,82.34c.36,0,.69.06.99.19.3.13.56.31.78.54s.39.5.51.81c.12.31.18.65.18,1.01s-.06.71-.18,1.02c-.12.31-.29.58-.51.81s-.48.41-.78.54c-.3.13-.63.19-.99.19s-.69-.06-.99-.19-.56-.31-.78-.54-.39-.5-.51-.81c-.12-.31-.18-.65-.18-1.02s.06-.71.18-1.01c.12-.31.29-.58.51-.81s.48-.4.78-.54c.3-.13.63-.19.99-.19ZM82.18,86.61c.2,0,.39-.04.57-.11.18-.07.34-.18.48-.33.14-.15.25-.33.33-.54s.12-.46.12-.74-.04-.52-.12-.73-.19-.39-.33-.54c-.14-.15-.3-.26-.48-.33-.18-.07-.37-.11-.57-.11s-.39.04-.57.11c-.18.07-.34.18-.48.33-.14.15-.25.33-.33.54-.08.21-.12.46-.12.73s.04.53.12.74c.08.21.19.39.33.54.14.15.3.26.48.33s.37.11.57.11Z"/>
        <path class="cls-3" d="M89.11,86.72c-.13.25-.33.44-.6.56s-.54.17-.82.17-.53-.05-.75-.15-.41-.24-.56-.41c-.15-.17-.27-.38-.36-.61s-.12-.49-.12-.76v-3.03h.94v2.89c0,.17.02.32.06.48.04.15.1.28.19.4.09.11.2.2.33.27.14.07.3.1.5.1.38,0,.67-.11.85-.34.19-.23.29-.52.29-.89v-2.9h.94v3.92c0,.19,0,.37.01.52,0,.16.02.28.04.37h-.9c-.01-.05-.02-.14-.03-.25,0-.12-.01-.23-.01-.33Z"/>
        <path class="cls-3" d="M92.1,85.75c.03.25.14.47.33.64.19.17.45.26.79.26.27,0,.47-.06.61-.19.14-.13.21-.28.21-.45,0-.15-.05-.28-.16-.39-.11-.11-.26-.18-.46-.23l-.82-.18c-.38-.08-.67-.24-.88-.48-.21-.24-.32-.53-.32-.87,0-.21.04-.4.13-.58.09-.18.21-.35.37-.48.15-.14.33-.25.54-.33s.43-.12.67-.12c.33,0,.6.05.83.14.22.09.41.21.54.34.14.14.25.28.31.43.07.15.12.27.15.38l-.83.31c-.01-.06-.04-.14-.07-.23s-.09-.18-.16-.27c-.07-.08-.17-.15-.3-.21-.13-.06-.28-.09-.47-.09-.24,0-.43.06-.58.2-.15.13-.22.28-.22.44,0,.31.18.5.55.58l.78.17c.44.09.77.27,1,.52.22.25.33.55.33.92,0,.17-.04.35-.11.52s-.18.33-.33.48-.33.26-.54.35c-.22.09-.48.13-.78.13-.33,0-.62-.05-.85-.14-.24-.09-.43-.21-.59-.35-.16-.14-.28-.29-.36-.46s-.13-.31-.16-.46l.85-.3Z"/>
        <path class="cls-3" d="M40.62,91.21c.34,0,.64.05.91.15.26.1.49.23.67.4s.32.37.42.6.14.49.14.77c0,.38-.1.7-.29.96-.2.26-.45.45-.76.56.2.05.38.14.54.25s.29.24.41.39c.11.15.19.32.25.5.06.18.08.38.08.57,0,.28-.05.54-.16.78-.11.24-.26.44-.45.61s-.42.3-.69.4-.56.15-.89.15h-2.48v-7.09h2.31ZM40.51,94.31c.4,0,.71-.1.93-.31.22-.21.33-.48.33-.81s-.12-.61-.35-.81c-.23-.2-.55-.3-.96-.3h-1.18v2.24h1.22ZM40.65,97.44c.4,0,.72-.1.96-.31.24-.2.37-.48.37-.83s-.11-.62-.32-.83c-.21-.22-.54-.32-.97-.32h-1.4v2.29h1.36Z"/>
        <path class="cls-3" d="M47,94.44c-.14-.02-.28-.03-.41-.03-.39,0-.71.12-.95.35-.24.23-.37.61-.37,1.13v2.41h-.94v-4.81h.92v.84c.09-.19.19-.34.31-.45.12-.12.24-.21.36-.28.13-.07.26-.12.39-.15.13-.03.26-.04.38-.04.07,0,.13,0,.18.01s.1.01.12.02v1Z"/>
        <path class="cls-3" d="M50.16,93.34c.36,0,.69.06.99.19.3.13.56.31.78.54s.39.5.51.81c.12.31.18.65.18,1.01s-.06.71-.18,1.02c-.12.31-.29.58-.51.81s-.48.41-.78.54c-.3.13-.63.19-.99.19s-.69-.06-.99-.19-.56-.31-.78-.54-.39-.5-.51-.81c-.12-.31-.18-.65-.18-1.02s.06-.71.18-1.01c.12-.31.29-.58.51-.81s.48-.4.78-.54c.3-.13.63-.19.99-.19ZM50.16,97.61c.2,0,.39-.04.57-.11.18-.07.34-.18.48-.33.14-.15.25-.33.33-.54s.12-.46.12-.74-.04-.52-.12-.73-.19-.39-.33-.54c-.14-.15-.3-.26-.48-.33-.18-.07-.37-.11-.57-.11s-.39.04-.57.11c-.18.07-.34.18-.48.33-.14.15-.25.33-.33.54-.08.21-.12.46-.12.73s.04.53.12.74c.08.21.19.39.33.54.14.15.3.26.48.33s.37.11.57.11Z"/>
        <path class="cls-3" d="M53.62,97.01c0-.21.04-.4.11-.58.07-.17.17-.31.3-.43.13-.12.29-.22.46-.29s.37-.13.58-.16l1.3-.19c.15-.02.25-.06.29-.13.05-.07.08-.14.08-.23,0-.23-.08-.44-.25-.6-.16-.17-.43-.26-.79-.26-.33,0-.59.09-.77.28-.18.18-.29.41-.32.69l-.9-.21c.03-.23.1-.44.21-.63.11-.19.25-.36.43-.5.17-.14.38-.24.6-.32.23-.08.47-.11.74-.11.36,0,.67.05.92.15.25.1.46.23.62.38.16.16.28.35.35.56s.11.44.11.67v2.41c0,.21,0,.38.02.51.01.13.03.22.04.28h-.92c-.01-.06-.03-.14-.04-.24,0-.1-.01-.24-.01-.41-.05.09-.12.18-.21.27-.09.09-.19.18-.32.26s-.27.15-.45.2c-.17.05-.36.07-.57.07-.25,0-.47-.04-.67-.12-.2-.08-.37-.18-.5-.31-.14-.13-.25-.28-.33-.46-.08-.17-.12-.36-.12-.55ZM55.36,97.66c.19,0,.38-.02.54-.07.17-.05.32-.13.44-.24.12-.11.22-.26.29-.44.07-.18.11-.4.11-.67v-.22l-1.47.22c-.2.03-.37.11-.5.23-.13.12-.2.28-.2.5,0,.18.07.34.21.48.14.14.33.21.57.21Z"/>
        <path class="cls-3" d="M62.62,97.57c-.11.23-.29.44-.54.6s-.57.25-.95.25c-.35,0-.67-.06-.95-.19-.28-.13-.52-.31-.72-.54-.2-.23-.35-.5-.46-.81-.11-.31-.16-.65-.16-1,0-.34.05-.66.17-.96.11-.3.26-.57.46-.8s.44-.41.72-.55.59-.21.93-.21c.21,0,.4.02.57.07.16.05.3.11.42.19s.22.16.3.26.14.19.18.29v-3.11h.93v6.35c0,.23,0,.43.02.59.01.16.02.26.03.3h-.91c-.01-.05-.02-.14-.04-.25,0-.12-.01-.25-.01-.4v-.08ZM59.81,95.88c0,.25.03.48.09.69s.16.39.28.54c.12.15.27.27.44.36.17.09.37.13.6.13.21,0,.41-.04.58-.13.17-.09.32-.21.44-.37.12-.15.21-.34.28-.55.06-.21.09-.44.09-.69,0-.5-.12-.9-.37-1.21s-.58-.46-1.01-.46c-.21,0-.41.04-.58.12-.18.08-.33.2-.45.35-.12.15-.22.33-.29.53-.07.21-.1.43-.1.68Z"/>
        <path class="cls-3" d="M67.25,94.21c-.19,0-.38.03-.55.1-.17.07-.33.17-.46.31s-.25.31-.32.52c-.08.21-.12.46-.12.73s.04.52.12.73c.08.21.19.39.32.53.13.14.29.25.47.32.18.07.37.11.56.11.23,0,.42-.03.58-.1.16-.07.29-.15.39-.25.1-.1.19-.21.25-.33s.1-.22.13-.31l.83.36c-.06.17-.15.35-.26.52-.11.18-.26.34-.44.49-.18.15-.39.26-.63.35-.24.09-.52.13-.83.13-.35,0-.68-.06-.97-.19-.3-.13-.55-.31-.77-.54-.21-.23-.38-.5-.5-.81s-.18-.65-.18-1.02.06-.72.18-1.03.29-.58.51-.81c.22-.22.47-.4.77-.52.3-.13.62-.19.96-.19.32,0,.6.04.84.13.24.09.45.21.63.35.18.15.32.31.42.5.11.18.19.37.24.54l-.85.36c-.03-.12-.08-.24-.14-.36-.06-.12-.14-.23-.25-.32s-.23-.18-.38-.24c-.15-.06-.32-.09-.53-.09Z"/>
        <path class="cls-3" d="M70.33,97.01c0-.21.04-.4.11-.58.07-.17.17-.31.3-.43.13-.12.29-.22.46-.29s.37-.13.58-.16l1.3-.19c.15-.02.25-.06.29-.13.05-.07.08-.14.08-.23,0-.23-.08-.44-.25-.6-.16-.17-.43-.26-.79-.26-.33,0-.59.09-.77.28-.18.18-.29.41-.32.69l-.9-.21c.03-.23.1-.44.21-.63.11-.19.25-.36.43-.5.17-.14.38-.24.6-.32.23-.08.47-.11.74-.11.36,0,.67.05.92.15.25.1.46.23.62.38.16.16.28.35.35.56s.11.44.11.67v2.41c0,.21,0,.38.02.51.01.13.03.22.04.28h-.92c-.01-.06-.03-.14-.04-.24,0-.1-.01-.24-.01-.41-.05.09-.12.18-.21.27-.09.09-.19.18-.32.26s-.27.15-.45.2c-.17.05-.36.07-.57.07-.25,0-.47-.04-.67-.12-.2-.08-.37-.18-.5-.31-.14-.13-.25-.28-.33-.46-.08-.17-.12-.36-.12-.55ZM72.07,97.66c.19,0,.38-.02.54-.07.17-.05.32-.13.44-.24.12-.11.22-.26.29-.44.07-.18.11-.4.11-.67v-.22l-1.47.22c-.2.03-.37.11-.5.23-.13.12-.2.28-.2.5,0,.18.07.34.21.48.14.14.33.21.57.21Z"/>
        <path class="cls-3" d="M76.36,96.75c.03.25.14.47.33.64.19.17.45.26.79.26.27,0,.47-.06.61-.19.14-.13.21-.28.21-.45,0-.15-.05-.28-.16-.39-.11-.11-.26-.18-.46-.23l-.82-.18c-.38-.08-.67-.24-.88-.48-.21-.24-.32-.53-.32-.87,0-.21.04-.4.13-.58.09-.18.21-.35.37-.48.15-.14.33-.25.54-.33s.43-.12.67-.12c.33,0,.6.05.83.14.22.09.41.21.54.34.14.14.25.28.31.43.07.15.12.27.15.38l-.83.31c-.01-.06-.04-.14-.07-.23s-.09-.18-.16-.27c-.07-.08-.17-.15-.3-.21-.13-.06-.28-.09-.47-.09-.24,0-.43.06-.58.2-.15.13-.22.28-.22.44,0,.31.18.5.55.58l.78.17c.44.09.77.27,1,.52.22.25.33.55.33.92,0,.17-.04.35-.11.52s-.18.33-.33.48-.33.26-.54.35c-.22.09-.48.13-.78.13-.33,0-.62-.05-.85-.14-.24-.09-.43-.21-.59-.35-.16-.14-.28-.29-.36-.46s-.13-.31-.16-.46l.85-.3Z"/>
        <path class="cls-3" d="M81.83,93.49h1.04v.85h-1.04v2.5c0,.22.05.38.15.5.1.11.27.17.52.17.06,0,.13,0,.2-.01.07,0,.13-.02.17-.03v.8s-.12.03-.23.06c-.11.02-.25.03-.41.03-.41,0-.74-.12-.98-.35-.24-.24-.36-.57-.36-1.01v-2.64h-.92v-.85h.26c.26,0,.45-.07.57-.21.12-.14.17-.32.17-.53v-.78h.86v1.52Z"/>
        <path class="cls-3" d="M84.01,91.67c0-.19.07-.35.2-.49.13-.13.29-.19.47-.19s.36.06.49.19c.13.13.2.29.2.49s-.07.34-.2.48c-.13.13-.29.19-.49.19s-.34-.06-.47-.19c-.13-.13-.2-.29-.2-.48ZM84.22,98.3v-4.81h.93v4.81h-.93Z"/>
        <path class="cls-3" d="M87.79,98.3h-.94v-4.81h.92v.69c.17-.3.39-.51.66-.64.27-.13.54-.19.82-.19s.54.05.75.15c.22.1.4.23.54.4.14.17.25.37.32.6.07.23.1.48.1.75v3.05h-.94v-2.89c0-.17-.02-.32-.06-.47-.04-.15-.1-.27-.19-.39-.09-.11-.21-.2-.35-.26s-.32-.1-.52-.1c-.19,0-.35.04-.49.1-.14.07-.26.17-.35.29-.09.12-.16.26-.21.42-.05.16-.07.33-.07.51v2.78Z"/>
        <path class="cls-3" d="M93.13,98.35c.03.34.17.62.4.85.24.22.54.33.91.33.51,0,.88-.13,1.12-.39.24-.26.35-.65.35-1.17v-.69c-.11.22-.3.41-.55.56-.25.15-.56.23-.92.23-.32,0-.62-.06-.88-.17-.27-.12-.5-.28-.7-.48-.2-.2-.35-.45-.46-.74s-.17-.6-.17-.94.05-.63.16-.92c.11-.28.26-.53.45-.74s.42-.38.69-.5c.27-.12.57-.19.91-.19.37,0,.68.07.93.2.25.13.43.32.55.56v-.67h.93v4.45c0,.31-.04.6-.12.9s-.21.55-.41.77c-.19.22-.44.4-.75.54-.31.14-.69.2-1.14.2-.3,0-.58-.04-.83-.13s-.48-.21-.68-.38c-.2-.16-.36-.35-.48-.56-.12-.22-.2-.46-.22-.72l.91-.21ZM94.58,97.28c.41,0,.74-.14.99-.42.25-.28.38-.65.38-1.12s-.13-.84-.38-1.12c-.25-.28-.58-.42-.99-.42s-.76.14-1.01.42c-.25.28-.38.65-.38,1.12s.12.85.38,1.12c.25.28.59.42,1.01.42Z"/>
      </g>
    </g>
    <g>
      <g>
        <circle class="cls-4" cx="171.54" cy="196.57" r="40.44"/>
        <g>
          <rect class="cls-2" x="149.06" y="193.1" width="44.96" height="12.6"/>
          <path class="cls-3" d="M157.2,195.17c-.02-.13-.06-.26-.13-.41-.07-.14-.16-.27-.28-.4-.12-.12-.27-.22-.45-.29-.18-.08-.39-.11-.64-.11-.2,0-.38.03-.55.09-.17.06-.31.14-.44.25-.12.11-.22.23-.29.38-.07.14-.1.3-.1.46,0,.25.08.47.23.66.15.18.38.31.68.38l1.06.23c.59.13,1.05.37,1.37.72.32.35.48.77.48,1.27,0,.27-.06.54-.17.79-.11.25-.28.48-.49.67-.21.19-.47.35-.77.47s-.64.17-1.02.17c-.43,0-.8-.06-1.12-.19s-.58-.29-.8-.49c-.22-.2-.38-.43-.5-.68s-.2-.5-.23-.75l.94-.3c.02.2.07.39.14.57.08.18.19.35.33.48.14.14.32.25.52.33.2.08.44.12.7.12.49,0,.85-.11,1.1-.33.24-.22.37-.49.37-.8,0-.25-.09-.48-.26-.69-.17-.2-.44-.34-.8-.42l-1.01-.22c-.51-.11-.92-.33-1.25-.66-.32-.32-.49-.75-.49-1.28,0-.28.06-.55.18-.8.12-.25.28-.48.5-.67.21-.19.46-.35.74-.46.29-.12.59-.18.92-.18.4,0,.74.06,1.03.17.28.11.52.25.71.43.19.17.34.36.45.57.11.21.18.41.22.6l-.88.31Z"/>
          <path class="cls-3" d="M160.75,195.53h1.04v.85h-1.04v2.5c0,.22.05.38.15.5.1.11.27.17.52.17.06,0,.13,0,.2-.01.07,0,.13-.02.17-.03v.8s-.12.03-.23.06c-.11.02-.25.03-.41.03-.41,0-.74-.12-.98-.35-.24-.24-.36-.57-.36-1.01v-2.64h-.92v-.85h.26c.26,0,.45-.07.57-.21.12-.14.17-.32.17-.53v-.78h.86v1.52Z"/>
          <path class="cls-3" d="M162.84,199.05c0-.21.04-.4.11-.58.07-.17.17-.31.3-.43.13-.12.29-.22.46-.29s.37-.13.58-.16l1.3-.19c.15-.02.25-.06.29-.13.05-.07.08-.14.08-.23,0-.23-.08-.44-.25-.6-.16-.17-.43-.26-.79-.26-.33,0-.59.09-.77.28-.18.18-.29.41-.32.69l-.9-.21c.03-.23.1-.44.21-.63.11-.19.25-.36.43-.5.17-.14.38-.24.6-.32.23-.08.47-.11.74-.11.36,0,.67.05.92.15.25.1.46.23.62.38.16.16.28.35.35.56s.11.44.11.67v2.41c0,.21,0,.38.02.51.01.13.03.22.04.28h-.92c-.01-.06-.03-.14-.04-.24,0-.1-.01-.24-.01-.41-.05.09-.12.18-.21.27-.09.09-.19.18-.32.26s-.27.15-.45.2c-.17.05-.36.07-.57.07-.25,0-.47-.04-.67-.12-.2-.08-.37-.18-.5-.31-.14-.13-.25-.28-.33-.46-.08-.17-.12-.36-.12-.55ZM164.58,199.7c.19,0,.38-.02.54-.07.17-.05.32-.13.44-.24.12-.11.22-.26.29-.44.07-.18.11-.4.11-.67v-.22l-1.47.22c-.2.03-.37.11-.5.23-.13.12-.2.28-.2.5,0,.18.07.34.21.48.14.14.33.21.57.21Z"/>
          <path class="cls-3" d="M169.41,200.34h-.94v-4.81h.92v.69c.17-.3.39-.51.66-.64.27-.13.54-.19.82-.19s.54.05.75.15c.22.1.4.23.54.4.14.17.25.37.32.6.07.23.1.48.1.75v3.05h-.94v-2.89c0-.17-.02-.32-.06-.47-.04-.15-.1-.27-.19-.39-.09-.11-.21-.2-.35-.26s-.32-.1-.52-.1c-.19,0-.35.04-.49.1-.14.07-.26.17-.35.29-.09.12-.16.26-.21.42-.05.16-.07.33-.07.51v2.78Z"/>
          <path class="cls-3" d="M177.56,199.61c-.11.23-.29.44-.54.6s-.57.25-.95.25c-.35,0-.67-.06-.95-.19-.28-.13-.52-.31-.72-.54-.2-.23-.35-.5-.46-.81-.11-.31-.16-.65-.16-1,0-.34.05-.66.17-.96.11-.3.26-.57.46-.8s.44-.41.72-.55.59-.21.93-.21c.21,0,.4.02.57.07.16.05.3.11.42.19s.22.16.3.26.14.19.18.29v-3.11h.93v6.35c0,.23,0,.43.02.59.01.16.02.26.03.3h-.91c-.01-.05-.02-.14-.04-.25,0-.12-.01-.25-.01-.4v-.08ZM174.75,197.92c0,.25.03.48.09.69s.16.39.28.54c.12.15.27.27.44.36.17.09.37.13.6.13.21,0,.41-.04.58-.13.17-.09.32-.21.44-.37.12-.15.21-.34.28-.55.06-.21.09-.44.09-.69,0-.5-.12-.9-.37-1.21s-.58-.46-1.01-.46c-.21,0-.41.04-.58.12-.18.08-.33.2-.45.35-.12.15-.22.33-.29.53-.07.21-.1.43-.1.68Z"/>
          <path class="cls-3" d="M180.17,200.34v-7.24h.93v3.11c.11-.21.31-.4.58-.57.27-.17.61-.25,1.01-.25.37,0,.69.07.96.2s.5.31.69.54.33.5.42.8c.09.31.14.63.14.98s-.05.7-.15,1.01c-.1.31-.25.58-.43.81-.19.23-.42.41-.7.55s-.59.2-.96.2-.67-.07-.93-.22c-.26-.15-.47-.35-.62-.61v.7h-.93ZM183.94,197.91c0-.52-.13-.93-.38-1.23-.25-.3-.6-.46-1.04-.46-.21,0-.4.04-.58.12s-.33.19-.46.33c-.13.14-.23.32-.29.53-.07.21-.11.44-.11.7s.04.5.11.71c.07.21.17.4.29.55.13.15.28.26.46.34s.37.12.58.12c.43,0,.78-.16,1.03-.47.26-.31.39-.73.39-1.25Z"/>
          <path class="cls-3" d="M186.17,202.35l1.2-2.54-2.07-4.28h1.08l1.5,3.32,1.44-3.32h1.01l-3.13,6.82h-1.03Z"/>
        </g>
      </g>
      <g>
        <circle class="cls-4" cx="45" cy="196.57" r="40.44"/>
        <g>
          <rect class="cls-2" x="11.56" y="193.1" width="66.89" height="12.6"/>
          <path class="cls-3" d="M23.67,198.36h-3.14l-.75,1.98h-1.05l2.82-7.09h1.13l2.82,7.09h-1.06l-.77-1.98ZM20.88,197.45h2.44l-1.23-3.18-1.21,3.18Z"/>
          <path class="cls-3" d="M29.87,199.61c-.11.23-.29.44-.54.6s-.57.25-.95.25c-.35,0-.67-.06-.95-.19-.28-.13-.52-.31-.72-.54-.2-.23-.35-.5-.46-.81-.11-.31-.16-.65-.16-1,0-.34.05-.66.17-.96.11-.3.26-.57.46-.8s.44-.41.72-.55.59-.21.93-.21c.21,0,.4.02.57.07.16.05.3.11.42.19s.22.16.3.26.14.19.18.29v-3.11h.93v6.35c0,.23,0,.43.02.59.01.16.02.26.03.3h-.91c-.01-.05-.02-.14-.04-.25,0-.12-.01-.25-.01-.4v-.08ZM27.06,197.92c0,.25.03.48.09.69s.16.39.28.54c.12.15.27.27.44.36.17.09.37.13.6.13.21,0,.41-.04.58-.13.17-.09.32-.21.44-.37.12-.15.21-.34.28-.55.06-.21.09-.44.09-.69,0-.5-.12-.9-.37-1.21s-.58-.46-1.01-.46c-.21,0-.41.04-.58.12-.18.08-.33.2-.45.35-.12.15-.22.33-.29.53-.07.21-.1.43-.1.68Z"/>
          <path class="cls-3" d="M34.68,200.34h-.95l-1.95-4.81h1.06l1.37,3.71,1.38-3.71h1.01l-1.92,4.81Z"/>
          <path class="cls-3" d="M41.79,198.97c-.07.21-.17.41-.29.6-.13.18-.29.34-.47.48-.18.14-.39.25-.62.32-.23.08-.49.12-.77.12-.32,0-.63-.06-.92-.17-.29-.11-.55-.28-.78-.5s-.4-.49-.53-.81c-.13-.32-.2-.68-.2-1.09,0-.38.06-.73.19-1.04.13-.31.29-.58.51-.8.21-.22.45-.4.73-.52s.57-.19.87-.19c.37,0,.7.06.99.19s.53.29.72.52c.19.22.34.48.45.79s.15.65.15,1.02c0,.06,0,.12,0,.17,0,.05,0,.1-.01.13h-3.62c0,.21.05.41.12.59.07.18.17.33.3.46s.28.23.46.3c.18.07.37.1.57.1.39,0,.69-.09.9-.28.21-.19.36-.42.45-.69l.81.28ZM40.84,197.44c-.01-.35-.13-.64-.35-.88-.22-.24-.54-.35-.97-.35-.2,0-.38.03-.54.1-.16.07-.29.16-.4.28-.11.12-.2.25-.27.4-.07.15-.1.3-.11.45h2.63Z"/>
          <path class="cls-3" d="M45.79,196.48c-.14-.02-.28-.03-.41-.03-.39,0-.71.12-.95.35-.24.23-.37.61-.37,1.13v2.41h-.94v-4.81h.92v.84c.09-.19.19-.34.31-.45.12-.12.24-.21.36-.28.13-.07.26-.12.39-.15.13-.03.26-.04.38-.04.07,0,.13,0,.18.01s.1.01.12.02v1Z"/>
          <path class="cls-3" d="M48.4,195.53h1.04v.85h-1.04v2.5c0,.22.05.38.15.5.1.11.27.17.52.17.06,0,.13,0,.2-.01.07,0,.13-.02.17-.03v.8s-.12.03-.23.06c-.11.02-.25.03-.41.03-.41,0-.74-.12-.98-.35-.24-.24-.36-.57-.36-1.01v-2.64h-.92v-.85h.26c.26,0,.45-.07.57-.21.12-.14.17-.32.17-.53v-.78h.86v1.52Z"/>
          <path class="cls-3" d="M50.58,193.71c0-.19.07-.35.2-.49.13-.13.29-.19.47-.19s.36.06.49.19c.13.13.2.29.2.49s-.07.34-.2.48c-.13.13-.29.19-.49.19s-.34-.06-.47-.19c-.13-.13-.2-.29-.2-.48ZM50.79,200.34v-4.81h.93v4.81h-.93Z"/>
          <path class="cls-3" d="M53.82,198.79c.03.25.14.47.33.64.19.17.45.26.79.26.27,0,.47-.06.61-.19.14-.13.21-.28.21-.45,0-.15-.05-.28-.16-.39-.11-.11-.26-.18-.46-.23l-.82-.18c-.38-.08-.67-.24-.88-.48-.21-.24-.32-.53-.32-.87,0-.21.04-.4.13-.58.09-.18.21-.35.37-.48.15-.14.33-.25.54-.33s.43-.12.67-.12c.33,0,.6.05.83.14.22.09.41.21.54.34.14.14.25.28.31.43.07.15.12.27.15.38l-.83.31c-.01-.06-.04-.14-.07-.23s-.09-.18-.16-.27c-.07-.08-.17-.15-.3-.21-.13-.06-.28-.09-.47-.09-.24,0-.43.06-.58.2-.15.13-.22.28-.22.44,0,.31.18.5.55.58l.78.17c.44.09.77.27,1,.52.22.25.33.55.33.92,0,.17-.04.35-.11.52s-.18.33-.33.48-.33.26-.54.35c-.22.09-.48.13-.78.13-.33,0-.62-.05-.85-.14-.24-.09-.43-.21-.59-.35-.16-.14-.28-.29-.36-.46s-.13-.31-.16-.46l.85-.3Z"/>
          <path class="cls-3" d="M57.83,193.71c0-.19.07-.35.2-.49.13-.13.29-.19.47-.19s.36.06.49.19c.13.13.2.29.2.49s-.07.34-.2.48c-.13.13-.29.19-.49.19s-.34-.06-.47-.19c-.13-.13-.2-.29-.2-.48ZM58.04,200.34v-4.81h.93v4.81h-.93Z"/>
          <path class="cls-3" d="M61.61,200.34h-.94v-4.81h.92v.69c.17-.3.39-.51.66-.64.27-.13.54-.19.82-.19s.54.05.75.15c.22.1.4.23.54.4.14.17.25.37.32.6.07.23.1.48.1.75v3.05h-.94v-2.89c0-.17-.02-.32-.06-.47-.04-.15-.1-.27-.19-.39-.09-.11-.21-.2-.35-.26s-.32-.1-.52-.1c-.19,0-.35.04-.49.1-.14.07-.26.17-.35.29-.09.12-.16.26-.21.42-.05.16-.07.33-.07.51v2.78Z"/>
          <path class="cls-3" d="M66.95,200.39c.03.34.17.62.4.85.24.22.54.33.91.33.51,0,.88-.13,1.12-.39.24-.26.35-.65.35-1.17v-.69c-.11.22-.3.41-.55.56-.25.15-.56.23-.92.23-.32,0-.62-.06-.88-.17-.27-.12-.5-.28-.7-.48-.2-.2-.35-.45-.46-.74s-.17-.6-.17-.94.05-.63.16-.92c.11-.28.26-.53.45-.74s.42-.38.69-.5c.27-.12.57-.19.91-.19.37,0,.68.07.93.2.25.13.43.32.55.56v-.67h.93v4.45c0,.31-.04.6-.12.9s-.21.55-.41.77c-.19.22-.44.4-.75.54-.31.14-.69.2-1.14.2-.3,0-.58-.04-.83-.13s-.48-.21-.68-.38c-.2-.16-.36-.35-.48-.56-.12-.22-.2-.46-.22-.72l.91-.21ZM68.4,199.32c.41,0,.74-.14.99-.42.25-.28.38-.65.38-1.12s-.13-.84-.38-1.12c-.25-.28-.58-.42-.99-.42s-.76.14-1.01.42c-.25.28-.38.65-.38,1.12s.12.85.38,1.12c.25.28.59.42,1.01.42Z"/>
        </g>
      </g>
      <g>
        <circle class="cls-4" cx="298.09" cy="196.57" r="40.44"/>
        <g>
          <rect class="cls-2" x="266.86" y="193.1" width="62.47" height="12.6"/>
          <path class="cls-3" d="M278.67,200.34v-7.09h1v7.09h-1Z"/>
          <path class="cls-3" d="M282.41,200.34h-.94v-4.81h.92v.69c.17-.3.39-.51.66-.64.27-.13.54-.19.82-.19s.54.05.75.15c.22.1.4.23.54.4.14.17.25.37.32.6.07.23.1.48.1.75v3.05h-.94v-2.89c0-.17-.02-.32-.06-.47-.04-.15-.1-.27-.19-.39-.09-.11-.21-.2-.35-.26s-.32-.1-.52-.1c-.19,0-.35.04-.49.1-.14.07-.26.17-.35.29-.09.12-.16.26-.21.42-.05.16-.07.33-.07.51v2.78Z"/>
          <path class="cls-3" d="M286.98,193.71c0-.19.07-.35.2-.49.13-.13.29-.19.47-.19s.36.06.49.19c.13.13.2.29.2.49s-.07.34-.2.48c-.13.13-.29.19-.49.19s-.34-.06-.47-.19c-.13-.13-.2-.29-.2-.48ZM287.19,200.34v-4.81h.93v4.81h-.93Z"/>
          <path class="cls-3" d="M291.08,195.53h1.04v.85h-1.04v2.5c0,.22.05.38.15.5.1.11.27.17.52.17.06,0,.13,0,.2-.01.07,0,.13-.02.17-.03v.8s-.12.03-.23.06c-.11.02-.25.03-.41.03-.41,0-.74-.12-.98-.35-.24-.24-.36-.57-.36-1.01v-2.64h-.92v-.85h.26c.26,0,.45-.07.57-.21.12-.14.17-.32.17-.53v-.78h.86v1.52Z"/>
          <path class="cls-3" d="M293.26,193.71c0-.19.07-.35.2-.49.13-.13.29-.19.47-.19s.36.06.49.19c.13.13.2.29.2.49s-.07.34-.2.48c-.13.13-.29.19-.49.19s-.34-.06-.47-.19c-.13-.13-.2-.29-.2-.48ZM293.47,200.34v-4.81h.93v4.81h-.93Z"/>
          <path class="cls-3" d="M295.8,199.05c0-.21.04-.4.11-.58.07-.17.17-.31.3-.43.13-.12.29-.22.46-.29s.37-.13.58-.16l1.3-.19c.15-.02.25-.06.29-.13.05-.07.08-.14.08-.23,0-.23-.08-.44-.25-.6-.16-.17-.43-.26-.79-.26-.33,0-.59.09-.77.28-.18.18-.29.41-.32.69l-.9-.21c.03-.23.1-.44.21-.63.11-.19.25-.36.43-.5.17-.14.38-.24.6-.32.23-.08.47-.11.74-.11.36,0,.67.05.92.15.25.1.46.23.62.38.16.16.28.35.35.56s.11.44.11.67v2.41c0,.21,0,.38.02.51.01.13.03.22.04.28h-.92c-.01-.06-.03-.14-.04-.24,0-.1-.01-.24-.01-.41-.05.09-.12.18-.21.27-.09.09-.19.18-.32.26s-.27.15-.45.2c-.17.05-.36.07-.57.07-.25,0-.47-.04-.67-.12-.2-.08-.37-.18-.5-.31-.14-.13-.25-.28-.33-.46-.08-.17-.12-.36-.12-.55ZM297.54,199.7c.19,0,.38-.02.54-.07.17-.05.32-.13.44-.24.12-.11.22-.26.29-.44.07-.18.11-.4.11-.67v-.22l-1.47.22c-.2.03-.37.11-.5.23-.13.12-.2.28-.2.5,0,.18.07.34.21.48.14.14.33.21.57.21Z"/>
          <path class="cls-3" d="M302.69,195.53h1.04v.85h-1.04v2.5c0,.22.05.38.15.5.1.11.27.17.52.17.06,0,.13,0,.2-.01.07,0,.13-.02.17-.03v.8s-.12.03-.23.06c-.11.02-.25.03-.41.03-.41,0-.74-.12-.98-.35-.24-.24-.36-.57-.36-1.01v-2.64h-.92v-.85h.26c.26,0,.45-.07.57-.21.12-.14.17-.32.17-.53v-.78h.86v1.52Z"/>
          <path class="cls-3" d="M304.87,193.71c0-.19.07-.35.2-.49.13-.13.29-.19.47-.19s.36.06.49.19c.13.13.2.29.2.49s-.07.34-.2.48c-.13.13-.29.19-.49.19s-.34-.06-.47-.19c-.13-.13-.2-.29-.2-.48ZM305.08,200.34v-4.81h.93v4.81h-.93Z"/>
          <path class="cls-3" d="M308.65,200.34h-.94v-4.81h.92v.69c.17-.3.39-.51.66-.64.27-.13.54-.19.82-.19s.54.05.75.15c.22.1.4.23.54.4.14.17.25.37.32.6.07.23.1.48.1.75v3.05h-.94v-2.89c0-.17-.02-.32-.06-.47-.04-.15-.1-.27-.19-.39-.09-.11-.21-.2-.35-.26s-.32-.1-.52-.1c-.19,0-.35.04-.49.1-.14.07-.26.17-.35.29-.09.12-.16.26-.21.42-.05.16-.07.33-.07.51v2.78Z"/>
          <path class="cls-3" d="M313.99,200.39c.03.34.17.62.4.85.24.22.54.33.91.33.51,0,.88-.13,1.12-.39.24-.26.35-.65.35-1.17v-.69c-.11.22-.3.41-.55.56-.25.15-.56.23-.92.23-.32,0-.62-.06-.88-.17-.27-.12-.5-.28-.7-.48-.2-.2-.35-.45-.46-.74s-.17-.6-.17-.94.05-.63.16-.92c.11-.28.26-.53.45-.74s.42-.38.69-.5c.27-.12.57-.19.91-.19.37,0,.68.07.93.2.25.13.43.32.55.56v-.67h.93v4.45c0,.31-.04.6-.12.9s-.21.55-.41.77c-.19.22-.44.4-.75.54-.31.14-.69.2-1.14.2-.3,0-.58-.04-.83-.13s-.48-.21-.68-.38c-.2-.16-.36-.35-.48-.56-.12-.22-.2-.46-.22-.72l.91-.21ZM315.44,199.32c.41,0,.74-.14.99-.42.25-.28.38-.65.38-1.12s-.13-.84-.38-1.12c-.25-.28-.58-.42-.99-.42s-.76.14-1.01.42c-.25.28-.38.65-.38,1.12s.12.85.38,1.12c.25.28.59.42,1.01.42Z"/>
        </g>
      </g>
    </g>
  </g>
  <g>
    <line class="cls-1" x1="92.53" y1="199.4" x2="123.96" y2="199.4"/>
    <polygon points="93.35 202.21 88.5 199.4 93.35 196.6 93.35 202.21"/>
    <polygon points="123.14 202.21 128 199.4 123.14 196.6 123.14 202.21"/>
  </g>
  <g>
    <line class="cls-1" x1="250.52" y1="199.4" x2="219.81" y2="199.4"/>
    <polygon points="249.7 196.6 254.56 199.4 249.7 202.21 249.7 196.6"/>
    <polygon points="220.63 196.6 215.77 199.4 220.63 202.21 220.63 196.6"/>
  </g>
  <g>
    <line class="cls-1" x1="171" y1="295.88" x2="171" y2="245.58"/>
    <polygon points="173.8 295.06 171 299.92 168.2 295.06 173.8 295.06"/>
    <polygon points="173.8 246.4 171 241.54 168.2 246.4 173.8 246.4"/>
  </g>
  <g>
    <line class="cls-1" x1="171.54" y1="148.07" x2="171.54" y2="96.2"/>
    <polygon points="174.35 147.25 171.54 152.11 168.74 147.25 174.35 147.25"/>
    <polygon points="174.35 97.02 171.54 92.17 168.74 97.02 174.35 97.02"/>
  </g>
  <g>
    <line class="cls-1" x1="65.71" y1="244.05" x2="133.8" y2="312.15"/>
    <polygon points="64.31 246.62 62.86 241.2 68.28 242.65 64.31 246.62"/>
    <polygon points="131.24 313.55 136.66 315 135.21 309.58 131.24 313.55"/>
  </g>
  <g>
    <line class="cls-1" x1="209.45" y1="312.15" x2="277.54" y2="244.05"/>
    <polygon points="212.01 313.55 206.59 315 208.04 309.58 212.01 313.55"/>
    <polygon points="278.94 246.62 280.39 241.2 274.97 242.65 278.94 246.62"/>
  </g>
  <g>
    <line class="cls-1" x1="135.98" y1="162.61" x2="101.97" y2="128.6"/>
    <polygon points="137.39 160.05 138.84 165.47 133.42 164.02 137.39 160.05"/>
    <polygon points="104.53 127.19 99.11 125.74 100.57 131.16 104.53 127.19"/>
  </g>
  <g>
    <line class="cls-1" x1="246.84" y1="128.6" x2="212.82" y2="162.61"/>
    <polygon points="244.27 127.19 249.69 125.74 248.24 131.16 244.27 127.19"/>
    <polygon points="211.42 160.05 209.97 165.47 215.38 164.02 211.42 160.05"/>
  </g>
</svg>