<?xml version="1.0" encoding="UTF-8"?>
<svg id="Layer_1" data-name="Layer 1" xmlns="http://www.w3.org/2000/svg" viewBox="0 0 697.64 48.28">
  <defs>
    <style>
      .cls-1 {
        fill: none;
        stroke: #0082fc;
        stroke-miterlimit: 10;
      }
    </style>
  </defs>
  <g>
    <path d="M16.29,20.52v-8.73h5.08v.74h-4.25v3.32h3.84v.74h-3.84v3.93h-.83Z"/>
    <path d="M22.79,20.52v-6.55h.77v1.02h.06c.13-.34.36-.6.68-.81s.69-.3,1.1-.3c.06,0,.13,0,.21,0s.14,0,.19,0v.8s-.09-.01-.18-.02-.19-.02-.29-.02c-.51,0-.93.16-1.26.47s-.5.71-.5,1.2v4.2h-.8Z"/>
    <path d="M29.55,20.66c-.61,0-1.14-.14-1.59-.43s-.79-.68-1.04-1.19-.37-1.09-.37-1.75.12-1.25.36-1.76.58-.91,1.01-1.21.93-.44,1.5-.44c.48,0,.93.12,1.35.35s.77.59,1.04,1.07.4,1.09.4,1.83v.35h-4.86c.02.75.22,1.34.62,1.79s.92.67,1.58.67c.46,0,.83-.11,1.12-.32s.5-.46.62-.75l.76.24c-.15.41-.44.77-.87,1.08s-.98.46-1.64.46ZM27.36,16.8h4.05c-.04-.64-.24-1.16-.59-1.58s-.81-.62-1.4-.62c-.39,0-.74.1-1.04.3s-.54.47-.72.8-.28.7-.3,1.1Z"/>
    <path d="M39.07,22.97h-.79v-3.67h-.06c-.09.2-.21.41-.38.62s-.38.39-.65.53-.6.21-.99.21c-.54,0-1-.14-1.41-.42s-.72-.68-.94-1.19-.34-1.1-.34-1.78.11-1.27.34-1.77.54-.9.95-1.18.87-.42,1.4-.42c.4,0,.73.07,1,.21s.48.32.64.52.29.41.37.61h.09v-1.26h.77v9ZM36.3,19.94c.42,0,.78-.12,1.08-.35s.52-.55.67-.95.23-.87.23-1.39-.08-.98-.23-1.38-.38-.71-.67-.94-.65-.34-1.08-.34-.79.12-1.09.35-.52.55-.67.95-.23.85-.23,1.35.08.96.23,1.36.38.73.67.96.66.36,1.08.36Z"/>
    <path d="M43.32,20.61c-.66,0-1.2-.21-1.62-.62s-.62-1.01-.62-1.78v-4.24h.8v4.18c0,.54.15.96.45,1.27s.7.47,1.21.47.95-.16,1.29-.49.52-.77.52-1.34v-4.08h.8v6.55h-.77v-1.21c-.2.46-.48.79-.84,1s-.76.3-1.2.3Z"/>
    <path d="M50.8,20.66c-.61,0-1.14-.14-1.59-.43s-.79-.68-1.04-1.19-.37-1.09-.37-1.75.12-1.25.36-1.76.58-.91,1.01-1.21.93-.44,1.5-.44c.48,0,.93.12,1.35.35s.77.59,1.04,1.07.4,1.09.4,1.83v.35h-4.86c.02.75.22,1.34.62,1.79s.92.67,1.58.67c.46,0,.83-.11,1.12-.32s.5-.46.62-.75l.76.24c-.15.41-.44.77-.87,1.08s-.98.46-1.64.46ZM48.61,16.8h4.05c-.04-.64-.24-1.16-.59-1.58s-.81-.62-1.4-.62c-.39,0-.74.1-1.04.3s-.54.47-.72.8-.28.7-.3,1.1Z"/>
    <path d="M55.9,16.44v4.08h-.8v-6.55h.77v1.21c.21-.45.48-.78.84-.99s.76-.31,1.21-.31c.66,0,1.2.21,1.62.62s.62,1.01.62,1.78v4.24h-.79v-4.18c0-.54-.15-.96-.45-1.27s-.7-.47-1.21-.47-.95.16-1.29.49-.52.77-.52,1.34Z"/>
    <path d="M64.72,20.65c-.57,0-1.07-.14-1.51-.43s-.77-.68-1.02-1.19-.37-1.09-.37-1.75.12-1.26.37-1.77.59-.91,1.02-1.19.94-.43,1.51-.43c.44,0,.83.08,1.18.25s.63.38.86.63.38.52.47.79l-.76.23c-.05-.16-.15-.34-.3-.52s-.34-.34-.59-.47-.53-.19-.86-.19c-.45,0-.82.12-1.13.36s-.55.56-.71.97-.25.85-.25,1.34.08.93.25,1.33.4.72.71.96.69.36,1.13.36c.34,0,.63-.07.88-.2s.45-.29.6-.48.25-.37.3-.54l.75.23c-.08.27-.24.54-.47.8s-.52.48-.87.65-.75.25-1.19.25Z"/>
    <path d="M68.44,22.88l.22-.69.09.03c.35.11.65.1.91-.03s.47-.43.64-.9l.26-.71-2.51-6.6h.87l1.51,4.12c.11.29.21.58.29.88s.17.58.25.86c.09-.29.17-.57.26-.86s.19-.58.3-.88l1.52-4.12h.86l-2.91,7.62c-.37.95-.96,1.43-1.79,1.43-.16,0-.31-.01-.44-.04s-.24-.06-.32-.09Z"/>
    <path d="M34.26,34.92v-8.73h.83v3.9h4.91v-3.9h.83v8.73h-.83v-4.09h-4.91v4.09h-.83Z"/>
    <path d="M45.55,35.06c-.57,0-1.07-.14-1.51-.43s-.77-.68-1.02-1.19-.37-1.09-.37-1.76.12-1.26.37-1.77.59-.91,1.02-1.2.94-.43,1.51-.43,1.07.14,1.5.43.78.69,1.02,1.2.37,1.1.37,1.77-.12,1.25-.37,1.76-.59.91-1.02,1.19-.94.43-1.5.43ZM45.55,34.34c.45,0,.83-.12,1.14-.36s.55-.56.71-.97.25-.85.25-1.33-.08-.93-.25-1.34-.4-.73-.71-.97-.69-.37-1.14-.37-.82.12-1.13.37-.55.57-.71.97-.25.85-.25,1.34.08.93.24,1.33.4.72.71.97.69.36,1.14.36Z"/>
    <path d="M50.11,37.37v-9h.77v1.26h.09c.09-.2.21-.4.37-.61s.37-.38.64-.52.6-.21,1-.21c.53,0,1,.14,1.4.42s.72.68.95,1.18.34,1.1.34,1.77-.11,1.27-.34,1.78-.54.91-.94,1.19-.87.42-1.41.42c-.39,0-.72-.07-.99-.21s-.48-.32-.64-.53-.29-.42-.38-.62h-.06v3.67h-.8ZM52.87,34.34c.43,0,.79-.12,1.08-.36s.52-.56.68-.96.23-.86.23-1.36-.08-.95-.23-1.35-.38-.72-.67-.95-.66-.35-1.09-.35-.78.11-1.08.34-.52.54-.67.94-.23.86-.23,1.38.08.98.23,1.39.38.72.68.95.65.35,1.07.35Z"/>
  </g>
  <g>
    <path d="M130.08,27.84c-.73,0-1.39-.18-1.96-.55s-1.02-.89-1.34-1.56-.49-1.46-.49-2.37.16-1.71.49-2.38.77-1.19,1.34-1.56,1.22-.55,1.96-.55c.62,0,1.17.13,1.66.38s.88.59,1.2,1.03.51.92.61,1.46h-.83c-.08-.4-.24-.75-.49-1.07s-.55-.56-.91-.74-.78-.27-1.23-.27c-.55,0-1.05.14-1.5.43s-.81.7-1.08,1.25-.4,1.23-.4,2.03.13,1.48.4,2.03.63.97,1.08,1.25.95.42,1.49.42c.46,0,.87-.09,1.23-.27s.67-.43.91-.74.4-.67.49-1.06h.83c-.09.53-.29,1.01-.6,1.44s-.71.78-1.2,1.03-1.04.38-1.67.38Z"/>
    <path d="M138.05,27.87c-.89,0-1.61-.22-2.14-.65s-.83-1-.87-1.71h.85c.04.52.27.92.68,1.19s.91.41,1.49.41c.43,0,.82-.07,1.15-.22s.6-.35.79-.6.29-.56.29-.91c0-.44-.17-.77-.5-1s-.77-.43-1.32-.59l-1.03-.3c-.7-.2-1.23-.49-1.61-.85s-.56-.83-.56-1.38c0-.47.13-.89.38-1.25s.59-.64,1.03-.84.92-.3,1.46-.3,1.04.1,1.46.3.75.48,1,.83.38.74.4,1.19h-.81c-.05-.48-.26-.87-.64-1.15s-.85-.42-1.42-.42-1.08.15-1.46.45-.57.69-.57,1.15c0,.3.08.55.25.75s.39.37.65.5.54.23.82.32l.91.26c.38.11.75.25,1.11.43s.67.43.91.73.36.7.36,1.18-.12.89-.36,1.27-.59.67-1.05.88-1,.33-1.63.33Z"/>
    <path d="M149,27.87c-.89,0-1.61-.22-2.14-.65s-.83-1-.87-1.71h.85c.04.52.27.92.68,1.19s.91.41,1.49.41c.43,0,.82-.07,1.15-.22s.6-.35.79-.6.29-.56.29-.91c0-.44-.17-.77-.5-1s-.77-.43-1.32-.59l-1.03-.3c-.7-.2-1.23-.49-1.61-.85s-.56-.83-.56-1.38c0-.47.13-.89.38-1.25s.59-.64,1.03-.84.92-.3,1.46-.3,1.04.1,1.46.3.75.48,1,.83.38.74.4,1.19h-.81c-.05-.48-.26-.87-.64-1.15s-.85-.42-1.42-.42-1.08.15-1.46.45-.57.69-.57,1.15c0,.3.08.55.25.75s.39.37.65.5.54.23.82.32l.91.26c.38.11.75.25,1.11.43s.67.43.91.73.36.7.36,1.18-.12.89-.36,1.27-.59.67-1.05.88-1,.33-1.63.33Z"/>
    <path d="M156.02,21.17v.69h-1.35v4.31c0,.66.29.96.88.9.05,0,.12,0,.2-.02s.16-.03.23-.04l.16.69c-.17.05-.37.09-.6.09-.52.04-.93-.09-1.22-.37s-.45-.68-.45-1.19v-4.37h-.97v-.69h.97v-1.56h.8v1.56h1.35Z"/>
    <path d="M159.94,27.87c-.61,0-1.14-.14-1.59-.43s-.79-.68-1.04-1.19-.37-1.09-.37-1.75.12-1.25.36-1.76.58-.91,1.01-1.21.93-.44,1.5-.44c.48,0,.93.12,1.35.35s.77.59,1.04,1.07.4,1.09.4,1.83v.35h-4.86c.02.75.22,1.34.62,1.79s.92.67,1.58.67c.46,0,.83-.11,1.12-.32s.5-.46.62-.75l.76.24c-.15.41-.44.77-.87,1.08s-.98.46-1.64.46ZM157.75,24h4.05c-.04-.64-.24-1.16-.59-1.58s-.81-.62-1.4-.62c-.39,0-.74.1-1.04.3s-.54.47-.72.8-.28.7-.3,1.1Z"/>
    <path d="M164.24,30.17v-9h.77v1.26h.09c.09-.2.21-.4.37-.61s.37-.38.64-.52.6-.21,1-.21c.53,0,1,.14,1.4.42s.72.68.95,1.18.34,1.1.34,1.77-.11,1.27-.34,1.78-.54.91-.94,1.19-.87.42-1.41.42c-.39,0-.72-.07-.99-.21s-.48-.32-.64-.53-.29-.42-.38-.62h-.06v3.67h-.8ZM167.01,27.14c.43,0,.79-.12,1.08-.36s.52-.56.68-.96.23-.86.23-1.36-.08-.95-.23-1.35-.38-.72-.67-.95-.66-.35-1.09-.35-.78.11-1.08.34-.52.54-.67.94-.23.86-.23,1.38.08.98.23,1.39.38.72.68.95.65.35,1.07.35Z"/>
    <path d="M177.55,27.84c-.93,0-1.65-.39-2.17-1.18s-.77-1.89-.77-3.3.26-2.51.78-3.3,1.24-1.19,2.17-1.19,1.64.4,2.16,1.19.78,1.89.78,3.3-.26,2.51-.77,3.3-1.24,1.18-2.16,1.18ZM177.55,27.1c.67,0,1.2-.33,1.57-.99s.56-1.58.56-2.75-.19-2.1-.56-2.76-.9-.99-1.57-.99-1.2.33-1.58.99-.56,1.58-.56,2.76.19,2.09.56,2.75.9.99,1.58.99Z"/>
  </g>
  <g>
    <path d="M233.63,20.52v-8.73h5.08v.74h-4.25v3.32h3.84v.74h-3.84v3.93h-.83Z"/>
    <path d="M240.13,20.52v-6.55h.77v1.02h.06c.13-.34.36-.6.68-.81s.69-.3,1.1-.3c.06,0,.13,0,.21,0s.14,0,.19,0v.8s-.09-.01-.18-.02-.19-.02-.29-.02c-.51,0-.93.16-1.26.47s-.5.71-.5,1.2v4.2h-.8Z"/>
    <path d="M246.9,20.66c-.61,0-1.14-.14-1.59-.43s-.79-.68-1.04-1.19-.37-1.09-.37-1.75.12-1.25.36-1.76.58-.91,1.01-1.21.93-.44,1.5-.44c.48,0,.93.12,1.35.35s.77.59,1.04,1.07.4,1.09.4,1.83v.35h-4.86c.02.75.22,1.34.62,1.79s.92.67,1.58.67c.46,0,.83-.11,1.12-.32s.5-.46.62-.75l.76.24c-.15.41-.44.77-.87,1.08s-.98.46-1.64.46ZM244.7,16.8h4.05c-.04-.64-.24-1.16-.59-1.58s-.81-.62-1.4-.62c-.39,0-.74.1-1.04.3s-.54.47-.72.8-.28.7-.3,1.1Z"/>
    <path d="M256.41,22.97h-.79v-3.67h-.06c-.09.2-.21.41-.38.62s-.38.39-.65.53-.6.21-.99.21c-.54,0-1-.14-1.41-.42s-.72-.68-.94-1.19-.34-1.1-.34-1.78.11-1.27.34-1.77.54-.9.95-1.18.87-.42,1.4-.42c.4,0,.73.07,1,.21s.48.32.64.52.29.41.37.61h.09v-1.26h.77v9ZM253.65,19.94c.42,0,.78-.12,1.08-.35s.52-.55.67-.95.23-.87.23-1.39-.08-.98-.23-1.38-.38-.71-.67-.94-.65-.34-1.08-.34-.79.12-1.09.35-.52.55-.67.95-.23.85-.23,1.35.08.96.23,1.36.38.73.67.96.66.36,1.08.36Z"/>
    <path d="M260.66,20.61c-.66,0-1.2-.21-1.62-.62s-.62-1.01-.62-1.78v-4.24h.8v4.18c0,.54.15.96.45,1.27s.7.47,1.21.47.95-.16,1.29-.49.52-.77.52-1.34v-4.08h.8v6.55h-.77v-1.21c-.2.46-.48.79-.84,1s-.76.3-1.2.3Z"/>
    <path d="M268.14,20.66c-.61,0-1.14-.14-1.59-.43s-.79-.68-1.04-1.19-.37-1.09-.37-1.75.12-1.25.36-1.76.58-.91,1.01-1.21.93-.44,1.5-.44c.48,0,.93.12,1.35.35s.77.59,1.04,1.07.4,1.09.4,1.83v.35h-4.86c.02.75.22,1.34.62,1.79s.92.67,1.58.67c.46,0,.83-.11,1.12-.32s.5-.46.62-.75l.76.24c-.15.41-.44.77-.87,1.08s-.98.46-1.64.46ZM265.95,16.8h4.05c-.04-.64-.24-1.16-.59-1.58s-.81-.62-1.4-.62c-.39,0-.74.1-1.04.3s-.54.47-.72.8-.28.7-.3,1.1Z"/>
    <path d="M273.24,16.44v4.08h-.8v-6.55h.77v1.21c.21-.45.48-.78.84-.99s.76-.31,1.21-.31c.66,0,1.2.21,1.62.62s.62,1.01.62,1.78v4.24h-.79v-4.18c0-.54-.15-.96-.45-1.27s-.7-.47-1.21-.47-.95.16-1.29.49-.52.77-.52,1.34Z"/>
    <path d="M282.06,20.65c-.57,0-1.07-.14-1.51-.43s-.77-.68-1.02-1.19-.37-1.09-.37-1.75.12-1.26.37-1.77.59-.91,1.02-1.19.94-.43,1.51-.43c.44,0,.83.08,1.18.25s.63.38.86.63.38.52.47.79l-.76.23c-.05-.16-.15-.34-.3-.52s-.34-.34-.59-.47-.53-.19-.86-.19c-.45,0-.82.12-1.13.36s-.55.56-.71.97-.25.85-.25,1.34.08.93.25,1.33.4.72.71.96.69.36,1.13.36c.34,0,.63-.07.88-.2s.45-.29.6-.48.25-.37.3-.54l.75.23c-.08.27-.24.54-.47.8s-.52.48-.87.65-.75.25-1.19.25Z"/>
    <path d="M285.78,22.88l.22-.69.09.03c.35.11.65.1.91-.03s.47-.43.64-.9l.26-.71-2.51-6.6h.87l1.51,4.12c.11.29.21.58.29.88s.17.58.25.86c.09-.29.17-.57.26-.86s.19-.58.3-.88l1.52-4.12h.86l-2.91,7.62c-.37.95-.96,1.43-1.79,1.43-.16,0-.31-.01-.44-.04s-.24-.06-.32-.09Z"/>
    <path d="M251.61,34.92v-8.73h.83v3.9h4.91v-3.9h.83v8.73h-.83v-4.09h-4.91v4.09h-.83Z"/>
    <path d="M262.89,35.06c-.57,0-1.07-.14-1.51-.43s-.77-.68-1.02-1.19-.37-1.09-.37-1.76.12-1.26.37-1.77.59-.91,1.02-1.2.94-.43,1.51-.43,1.07.14,1.5.43.78.69,1.02,1.2.37,1.1.37,1.77-.12,1.25-.37,1.76-.59.91-1.02,1.19-.94.43-1.5.43ZM262.89,34.34c.45,0,.83-.12,1.14-.36s.55-.56.71-.97.25-.85.25-1.33-.08-.93-.25-1.34-.4-.73-.71-.97-.69-.37-1.14-.37-.82.12-1.13.37-.55.57-.71.97-.25.85-.25,1.34.08.93.24,1.33.4.72.71.97.69.36,1.14.36Z"/>
    <path d="M267.45,37.37v-9h.77v1.26h.09c.09-.2.21-.4.37-.61s.37-.38.64-.52.6-.21,1-.21c.53,0,1,.14,1.4.42s.72.68.95,1.18.34,1.1.34,1.77-.11,1.27-.34,1.78-.54.91-.94,1.19-.87.42-1.41.42c-.39,0-.72-.07-.99-.21s-.48-.32-.64-.53-.29-.42-.38-.62h-.06v3.67h-.8ZM270.22,34.34c.43,0,.79-.12,1.08-.36s.52-.56.68-.96.23-.86.23-1.36-.08-.95-.23-1.35-.38-.72-.67-.95-.66-.35-1.09-.35-.78.11-1.08.34-.52.54-.67.94-.23.86-.23,1.38.08.98.23,1.39.38.72.68.95.65.35,1.07.35Z"/>
  </g>
  <g>
    <path d="M452.17,27.79c-.18,0-.33-.06-.45-.18s-.18-.27-.18-.45.06-.33.18-.45.27-.18.45-.18.33.06.45.18.18.27.18.45-.06.33-.18.45-.27.18-.45.18Z"/>
    <path d="M455.55,27.79c-.18,0-.33-.06-.45-.18s-.18-.27-.18-.45.06-.33.18-.45.27-.18.45-.18.33.06.45.18.18.27.18.45-.06.33-.18.45-.27.18-.45.18Z"/>
    <path d="M458.94,27.79c-.18,0-.33-.06-.45-.18s-.18-.27-.18-.45.06-.33.18-.45.27-.18.45-.18.33.06.45.18.18.27.18.45-.06.33-.18.45-.27.18-.45.18Z"/>
  </g>
  <rect class="cls-1" x="4.17" y="4.17" width="81.09" height="40.58"/>
  <rect class="cls-1" x="221.52" y="4.17" width="81.09" height="40.58"/>
  <g>
    <path d="M487.64,20.52v-8.73h5.08v.74h-4.25v3.32h3.84v.74h-3.84v3.93h-.83Z"/>
    <path d="M494.14,20.52v-6.55h.77v1.02h.06c.13-.34.36-.6.68-.81s.69-.3,1.1-.3c.06,0,.13,0,.21,0s.14,0,.19,0v.8s-.09-.01-.18-.02-.19-.02-.29-.02c-.51,0-.93.16-1.26.47s-.5.71-.5,1.2v4.2h-.8Z"/>
    <path d="M500.91,20.66c-.61,0-1.14-.14-1.59-.43s-.79-.68-1.04-1.19-.37-1.09-.37-1.75.12-1.25.36-1.76.58-.91,1.01-1.21.93-.44,1.5-.44c.48,0,.93.12,1.35.35s.77.59,1.04,1.07.4,1.09.4,1.83v.35h-4.86c.02.75.22,1.34.62,1.79s.92.67,1.58.67c.46,0,.83-.11,1.12-.32s.5-.46.62-.75l.76.24c-.15.41-.44.77-.87,1.08s-.98.46-1.64.46ZM498.72,16.8h4.05c-.04-.64-.24-1.16-.59-1.58s-.81-.62-1.4-.62c-.39,0-.74.1-1.04.3s-.54.47-.72.8-.28.7-.3,1.1Z"/>
    <path d="M510.42,22.97h-.79v-3.67h-.06c-.09.2-.21.41-.38.62s-.38.39-.65.53-.6.21-.99.21c-.54,0-1-.14-1.41-.42s-.72-.68-.94-1.19-.34-1.1-.34-1.78.11-1.27.34-1.77.54-.9.95-1.18.87-.42,1.4-.42c.4,0,.73.07,1,.21s.48.32.64.52.29.41.37.61h.09v-1.26h.77v9ZM507.66,19.94c.42,0,.78-.12,1.08-.35s.52-.55.67-.95.23-.87.23-1.39-.08-.98-.23-1.38-.38-.71-.67-.94-.65-.34-1.08-.34-.79.12-1.09.35-.52.55-.67.95-.23.85-.23,1.35.08.96.23,1.36.38.73.67.96.66.36,1.08.36Z"/>
    <path d="M514.68,20.61c-.66,0-1.2-.21-1.62-.62s-.62-1.01-.62-1.78v-4.24h.8v4.18c0,.54.15.96.45,1.27s.7.47,1.21.47.95-.16,1.29-.49.52-.77.52-1.34v-4.08h.8v6.55h-.77v-1.21c-.2.46-.48.79-.84,1s-.76.3-1.2.3Z"/>
    <path d="M522.15,20.66c-.61,0-1.14-.14-1.59-.43s-.79-.68-1.04-1.19-.37-1.09-.37-1.75.12-1.25.36-1.76.58-.91,1.01-1.21.93-.44,1.5-.44c.48,0,.93.12,1.35.35s.77.59,1.04,1.07.4,1.09.4,1.83v.35h-4.86c.02.75.22,1.34.62,1.79s.92.67,1.58.67c.46,0,.83-.11,1.12-.32s.5-.46.62-.75l.76.24c-.15.41-.44.77-.87,1.08s-.98.46-1.64.46ZM519.96,16.8h4.05c-.04-.64-.24-1.16-.59-1.58s-.81-.62-1.4-.62c-.39,0-.74.1-1.04.3s-.54.47-.72.8-.28.7-.3,1.1Z"/>
    <path d="M527.25,16.44v4.08h-.8v-6.55h.77v1.21c.21-.45.48-.78.84-.99s.76-.31,1.21-.31c.66,0,1.2.21,1.62.62s.62,1.01.62,1.78v4.24h-.79v-4.18c0-.54-.15-.96-.45-1.27s-.7-.47-1.21-.47-.95.16-1.29.49-.52.77-.52,1.34Z"/>
    <path d="M536.07,20.65c-.57,0-1.07-.14-1.51-.43s-.77-.68-1.02-1.19-.37-1.09-.37-1.75.12-1.26.37-1.77.59-.91,1.02-1.19.94-.43,1.51-.43c.44,0,.83.08,1.18.25s.63.38.86.63.38.52.47.79l-.76.23c-.05-.16-.15-.34-.3-.52s-.34-.34-.59-.47-.53-.19-.86-.19c-.45,0-.82.12-1.13.36s-.55.56-.71.97-.25.85-.25,1.34.08.93.25,1.33.4.72.71.96.69.36,1.13.36c.34,0,.63-.07.88-.2s.45-.29.6-.48.25-.37.3-.54l.75.23c-.08.27-.24.54-.47.8s-.52.48-.87.65-.75.25-1.19.25Z"/>
    <path d="M539.8,22.88l.22-.69.09.03c.35.11.65.1.91-.03s.47-.43.64-.9l.26-.71-2.51-6.6h.87l1.51,4.12c.11.29.21.58.29.88s.17.58.25.86c.09-.29.17-.57.26-.86s.19-.58.3-.88l1.52-4.12h.86l-2.91,7.62c-.37.95-.96,1.43-1.79,1.43-.16,0-.31-.01-.44-.04s-.24-.06-.32-.09Z"/>
    <path d="M505.62,34.92v-8.73h.83v3.9h4.91v-3.9h.83v8.73h-.83v-4.09h-4.91v4.09h-.83Z"/>
    <path d="M516.9,35.06c-.57,0-1.07-.14-1.51-.43s-.77-.68-1.02-1.19-.37-1.09-.37-1.76.12-1.26.37-1.77.59-.91,1.02-1.2.94-.43,1.51-.43,1.07.14,1.5.43.78.69,1.02,1.2.37,1.1.37,1.77-.12,1.25-.37,1.76-.59.91-1.02,1.19-.94.43-1.5.43ZM516.9,34.34c.45,0,.83-.12,1.14-.36s.55-.56.71-.97.25-.85.25-1.33-.08-.93-.25-1.34-.4-.73-.71-.97-.69-.37-1.14-.37-.82.12-1.13.37-.55.57-.71.97-.25.85-.25,1.34.08.93.24,1.33.4.72.71.97.69.36,1.14.36Z"/>
    <path d="M521.46,37.37v-9h.77v1.26h.09c.09-.2.21-.4.37-.61s.37-.38.64-.52.6-.21,1-.21c.53,0,1,.14,1.4.42s.72.68.95,1.18.34,1.1.34,1.77-.11,1.27-.34,1.78-.54.91-.94,1.19-.87.42-1.41.42c-.39,0-.72-.07-.99-.21s-.48-.32-.64-.53-.29-.42-.38-.62h-.06v3.67h-.8ZM524.23,34.34c.43,0,.79-.12,1.08-.36s.52-.56.68-.96.23-.86.23-1.36-.08-.95-.23-1.35-.38-.72-.67-.95-.66-.35-1.09-.35-.78.11-1.08.34-.52.54-.67.94-.23.86-.23,1.38.08.98.23,1.39.38.72.68.95.65.35,1.07.35Z"/>
  </g>
  <rect class="cls-1" x="475.53" y="4.17" width="81.09" height="40.58"/>
  <rect class="cls-1" x="85.27" y="4.17" width="136.25" height="40.58"/>
  <g>
    <path d="M348.77,27.84c-.73,0-1.39-.18-1.96-.55s-1.02-.89-1.34-1.56-.49-1.46-.49-2.37.16-1.71.49-2.38.77-1.19,1.34-1.56,1.22-.55,1.96-.55c.62,0,1.17.13,1.66.38s.88.59,1.2,1.03.51.92.61,1.46h-.83c-.08-.4-.24-.75-.49-1.07s-.55-.56-.91-.74-.78-.27-1.23-.27c-.55,0-1.05.14-1.5.43s-.81.7-1.08,1.25-.4,1.23-.4,2.03.13,1.48.4,2.03.63.97,1.08,1.25.95.42,1.49.42c.46,0,.87-.09,1.23-.27s.67-.43.91-.74.4-.67.49-1.06h.83c-.09.53-.29,1.01-.6,1.44s-.71.78-1.2,1.03-1.04.38-1.67.38Z"/>
    <path d="M356.73,27.87c-.89,0-1.61-.22-2.14-.65s-.83-1-.87-1.71h.85c.04.52.27.92.68,1.19s.91.41,1.49.41c.43,0,.82-.07,1.15-.22s.6-.35.79-.6.29-.56.29-.91c0-.44-.17-.77-.5-1s-.77-.43-1.32-.59l-1.03-.3c-.7-.2-1.23-.49-1.61-.85s-.56-.83-.56-1.38c0-.47.13-.89.38-1.25s.59-.64,1.03-.84.92-.3,1.46-.3,1.04.1,1.46.3.75.48,1,.83.38.74.4,1.19h-.81c-.05-.48-.26-.87-.64-1.15s-.85-.42-1.42-.42-1.08.15-1.46.45-.57.69-.57,1.15c0,.3.08.55.25.75s.39.37.65.5.54.23.82.32l.91.26c.38.11.75.25,1.11.43s.67.43.91.73.36.7.36,1.18-.12.89-.36,1.27-.59.67-1.05.88-1,.33-1.63.33Z"/>
    <path d="M367.69,27.87c-.89,0-1.61-.22-2.14-.65s-.83-1-.87-1.71h.85c.04.52.27.92.68,1.19s.91.41,1.49.41c.43,0,.82-.07,1.15-.22s.6-.35.79-.6.29-.56.29-.91c0-.44-.17-.77-.5-1s-.77-.43-1.32-.59l-1.03-.3c-.7-.2-1.23-.49-1.61-.85s-.56-.83-.56-1.38c0-.47.13-.89.38-1.25s.59-.64,1.03-.84.92-.3,1.46-.3,1.04.1,1.46.3.75.48,1,.83.38.74.4,1.19h-.81c-.05-.48-.26-.87-.64-1.15s-.85-.42-1.42-.42-1.08.15-1.46.45-.57.69-.57,1.15c0,.3.08.55.25.75s.39.37.65.5.54.23.82.32l.91.26c.38.11.75.25,1.11.43s.67.43.91.73.36.7.36,1.18-.12.89-.36,1.27-.59.67-1.05.88-1,.33-1.63.33Z"/>
    <path d="M374.71,21.17v.69h-1.35v4.31c0,.66.29.96.88.9.05,0,.12,0,.2-.02s.16-.03.23-.04l.16.69c-.17.05-.37.09-.6.09-.52.04-.93-.09-1.22-.37s-.45-.68-.45-1.19v-4.37h-.97v-.69h.97v-1.56h.8v1.56h1.35Z"/>
    <path d="M378.63,27.87c-.61,0-1.14-.14-1.59-.43s-.79-.68-1.04-1.19-.37-1.09-.37-1.75.12-1.25.36-1.76.58-.91,1.01-1.21.93-.44,1.5-.44c.48,0,.93.12,1.35.35s.77.59,1.04,1.07.4,1.09.4,1.83v.35h-4.86c.02.75.22,1.34.62,1.79s.92.67,1.58.67c.46,0,.83-.11,1.12-.32s.5-.46.62-.75l.76.24c-.15.41-.44.77-.87,1.08s-.98.46-1.64.46ZM376.44,24h4.05c-.04-.64-.24-1.16-.59-1.58s-.81-.62-1.4-.62c-.39,0-.74.1-1.04.3s-.54.47-.72.8-.28.7-.3,1.1Z"/>
    <path d="M382.93,30.17v-9h.77v1.26h.09c.09-.2.21-.4.37-.61s.37-.38.64-.52.6-.21,1-.21c.53,0,1,.14,1.4.42s.72.68.95,1.18.34,1.1.34,1.77-.11,1.27-.34,1.78-.54.91-.94,1.19-.87.42-1.41.42c-.39,0-.72-.07-.99-.21s-.48-.32-.64-.53-.29-.42-.38-.62h-.06v3.67h-.8ZM385.69,27.14c.43,0,.79-.12,1.08-.36s.52-.56.68-.96.23-.86.23-1.36-.08-.95-.23-1.35-.38-.72-.67-.95-.66-.35-1.09-.35-.78.11-1.08.34-.52.54-.67.94-.23.86-.23,1.38.08.98.23,1.39.38.72.68.95.65.35,1.07.35Z"/>
    <path d="M396.09,18.99v8.73h-.82v-7.95h-.06l-2.03,1.51v-.9l1.87-1.39h1.04Z"/>
  </g>
  <rect class="cls-1" x="302.61" y="4.17" width="136.25" height="40.58"/>
  <g>
    <path d="M601.61,27.84c-.73,0-1.39-.18-1.96-.55s-1.02-.89-1.34-1.56-.49-1.46-.49-2.37.16-1.71.49-2.38.77-1.19,1.34-1.56,1.22-.55,1.96-.55c.62,0,1.17.13,1.66.38s.88.59,1.2,1.03.51.92.61,1.46h-.83c-.08-.4-.24-.75-.49-1.07s-.55-.56-.91-.74-.78-.27-1.23-.27c-.55,0-1.05.14-1.5.43s-.81.7-1.08,1.25-.4,1.23-.4,2.03.13,1.48.4,2.03.63.97,1.08,1.25.95.42,1.49.42c.46,0,.87-.09,1.23-.27s.67-.43.91-.74.4-.67.49-1.06h.83c-.09.53-.29,1.01-.6,1.44s-.71.78-1.2,1.03-1.04.38-1.67.38Z"/>
    <path d="M609.58,27.87c-.89,0-1.61-.22-2.14-.65s-.83-1-.87-1.71h.85c.04.52.27.92.68,1.19s.91.41,1.49.41c.43,0,.82-.07,1.15-.22s.6-.35.79-.6.29-.56.29-.91c0-.44-.17-.77-.5-1s-.77-.43-1.32-.59l-1.03-.3c-.7-.2-1.23-.49-1.61-.85s-.56-.83-.56-1.38c0-.47.13-.89.38-1.25s.59-.64,1.03-.84.92-.3,1.46-.3,1.04.1,1.46.3.75.48,1,.83.38.74.4,1.19h-.81c-.05-.48-.26-.87-.64-1.15s-.85-.42-1.42-.42-1.08.15-1.46.45-.57.69-.57,1.15c0,.3.08.55.25.75s.39.37.65.5.54.23.82.32l.91.26c.38.11.75.25,1.11.43s.67.43.91.73.36.7.36,1.18-.12.89-.36,1.27-.59.67-1.05.88-1,.33-1.63.33Z"/>
    <path d="M620.53,27.87c-.89,0-1.61-.22-2.14-.65s-.83-1-.87-1.71h.85c.04.52.27.92.68,1.19s.91.41,1.49.41c.43,0,.82-.07,1.15-.22s.6-.35.79-.6.29-.56.29-.91c0-.44-.17-.77-.5-1s-.77-.43-1.32-.59l-1.03-.3c-.7-.2-1.23-.49-1.61-.85s-.56-.83-.56-1.38c0-.47.13-.89.38-1.25s.59-.64,1.03-.84.92-.3,1.46-.3,1.04.1,1.46.3.75.48,1,.83.38.74.4,1.19h-.81c-.05-.48-.26-.87-.64-1.15s-.85-.42-1.42-.42-1.08.15-1.46.45-.57.69-.57,1.15c0,.3.08.55.25.75s.39.37.65.5.54.23.82.32l.91.26c.38.11.75.25,1.11.43s.67.43.91.73.36.7.36,1.18-.12.89-.36,1.27-.59.67-1.05.88-1,.33-1.63.33Z"/>
    <path d="M627.55,21.17v.69h-1.35v4.31c0,.66.29.96.88.9.05,0,.12,0,.2-.02s.16-.03.23-.04l.16.69c-.17.05-.37.09-.6.09-.52.04-.93-.09-1.22-.37s-.45-.68-.45-1.19v-4.37h-.97v-.69h.97v-1.56h.8v1.56h1.35Z"/>
    <path d="M631.47,27.87c-.61,0-1.14-.14-1.59-.43s-.79-.68-1.04-1.19-.37-1.09-.37-1.75.12-1.25.36-1.76.58-.91,1.01-1.21.93-.44,1.5-.44c.48,0,.93.12,1.35.35s.77.59,1.04,1.07.4,1.09.4,1.83v.35h-4.86c.02.75.22,1.34.62,1.79s.92.67,1.58.67c.46,0,.83-.11,1.12-.32s.5-.46.62-.75l.76.24c-.15.41-.44.77-.87,1.08s-.98.46-1.64.46ZM629.28,24h4.05c-.04-.64-.24-1.16-.59-1.58s-.81-.62-1.4-.62c-.39,0-.74.1-1.04.3s-.54.47-.72.8-.28.7-.3,1.1Z"/>
    <path d="M635.77,30.17v-9h.77v1.26h.09c.09-.2.21-.4.37-.61s.37-.38.64-.52.6-.21,1-.21c.53,0,1,.14,1.4.42s.72.68.95,1.18.34,1.1.34,1.77-.11,1.27-.34,1.78-.54.91-.94,1.19-.87.42-1.41.42c-.39,0-.72-.07-.99-.21s-.48-.32-.64-.53-.29-.42-.38-.62h-.06v3.67h-.8ZM638.54,27.14c.43,0,.79-.12,1.08-.36s.52-.56.68-.96.23-.86.23-1.36-.08-.95-.23-1.35-.38-.72-.67-.95-.66-.35-1.09-.35-.78.11-1.08.34-.52.54-.67.94-.23.86-.23,1.38.08.98.23,1.39.38.72.68.95.65.35,1.07.35Z"/>
    <path d="M647.17,23.64v4.08h-.8v-6.55h.77v1.21c.21-.45.48-.78.84-.99s.76-.31,1.21-.31c.66,0,1.2.21,1.62.62s.62,1.01.62,1.78v4.24h-.79v-4.18c0-.54-.15-.96-.45-1.27s-.7-.47-1.21-.47-.95.16-1.29.49-.52.77-.52,1.34Z"/>
  </g>
  <rect class="cls-1" x="556.62" y="4.17" width="136.25" height="40.58"/>
  <rect class="cls-1" x="438.86" y="4.17" width="36.67" height="40.58"/>
</svg>