<?xml version="1.0" encoding="UTF-8"?>
<svg id="Layer_1" data-name="Layer 1" xmlns="http://www.w3.org/2000/svg" viewBox="0 0 4623.2 724.66">
  <defs>
    <style>
      .cls-1 {
        fill: none;
        stroke-width: 3px;
      }

      .cls-1, .cls-2 {
        stroke: #000;
      }

      .cls-3 {
        fill: #d2d0cd;
      }

      .cls-2 {
        stroke-width: .75px;
      }

      .cls-4 {
        opacity: .8;
      }

      .cls-5 {
        fill: #0082fc;
      }
    </style>
  </defs>
  <line class="cls-2" x1="284.79" y1="362.33" x2="4392.45" y2="362.33"/>
  <line class="cls-2" x1="284.79" y1="362.33" x2="4392.45" y2="362.33"/>
  <g class="cls-4">
    <path class="cls-1" d="M669.45,363.53c-11.23,110.71-27.16,310.53-46.23,310.47-30.6-.08-56.41-621-90.37-621s-57.46,620.21-91.77,620.62c-32.82.38-58.93-619.75-91.37-619.75-17.71,0-37.11,207.88-45.48,307.08"/>
    <path class="cls-1" d="M1034.67,363.53c-11.23,110.71-27.16,310.53-46.23,310.47-30.6-.08-56.41-621-90.37-621s-57.46,620.21-91.77,620.62c-32.82.38-58.93-619.75-91.37-619.75-17.71,0-37.11,207.88-45.48,307.08"/>
  </g>
  <g class="cls-4">
    <path class="cls-1" d="M1399.89,363.53c-11.23,110.71-27.16,310.53-46.23,310.47-30.6-.08-56.41-621-90.37-621s-57.46,620.21-91.77,620.62c-32.82.38-58.93-619.75-91.37-619.75-17.71,0-37.11,207.88-45.48,307.08"/>
    <path class="cls-1" d="M1765.1,363.53c-11.23,110.71-27.16,310.53-46.23,310.47-30.6-.08-56.41-621-90.37-621s-57.46,620.21-91.77,620.62c-32.82.38-58.93-619.75-91.37-619.75-17.71,0-37.11,207.88-45.48,307.08"/>
  </g>
  <g class="cls-4">
    <path class="cls-1" d="M2130.32,363.53c-11.23,110.71-27.16,310.53-46.23,310.47-30.6-.08-56.41-621-90.37-621s-57.46,620.21-91.77,620.62c-32.82.38-58.93-619.75-91.37-619.75-17.71,0-37.11,207.88-45.48,307.08"/>
    <path class="cls-1" d="M2221.35,363.88c-14.69-154.99-29.33-310.02-45.55-310.02-17.71,0-37.11,207.88-45.48,307.08"/>
  </g>
  <g class="cls-4">
    <path class="cls-1" d="M3960.48,360.5c11.23-110.71,27.16-310.53,46.23-310.47,30.6.08,56.41,621,90.37,621,34.74,0,57.46-620.21,91.77-620.62,32.82-.38,58.93,619.75,91.37,619.75,17.71,0,37.11-207.88,45.48-307.08"/>
    <path class="cls-1" d="M3595.26,360.5c11.23-110.71,27.16-310.53,46.23-310.47,30.6.08,56.41,621,90.37,621,34.74,0,57.46-620.21,91.77-620.62,32.82-.38,58.93,619.75,91.37,619.75,17.71,0,37.11-207.88,45.48-307.08"/>
  </g>
  <g class="cls-4">
    <path class="cls-1" d="M3230.04,360.5c11.23-110.71,27.16-310.53,46.23-310.47,30.6.08,56.41,621,90.37,621,34.74,0,57.46-620.21,91.77-620.62,32.82-.38,58.93,619.75,91.37,619.75,17.71,0,37.11-207.88,45.48-307.08"/>
    <path class="cls-1" d="M2864.83,360.5c11.23-110.71,27.16-310.53,46.23-310.47,30.6.08,56.41,621,90.37,621,34.74,0,57.46-620.21,91.77-620.62,32.82-.38,58.93,619.75,91.37,619.75,17.71,0,37.11-207.88,45.48-307.08"/>
  </g>
  <g class="cls-4">
    <path class="cls-1" d="M2499.61,360.5c11.23-110.71,27.16-310.53,46.23-310.47,30.6.08,56.41,621,90.37,621,34.74,0,57.46-620.21,91.77-620.62,32.82-.38,58.93,619.75,91.37,619.75,17.71,0,37.11-207.88,45.48-307.08"/>
    <path class="cls-1" d="M2408.58,360.15c14.69,154.99,29.33,310.02,45.55,310.02,17.71,0,37.11-207.88,45.48-307.08"/>
  </g>
  <rect class="cls-3" x="38.6" y="259.74" width="265.64" height="203.93" rx="1.19" ry="1.19"/>
  <rect class="cls-3" x="2185.26" y="259.74" width="265.64" height="203.93" rx="1.19" ry="1.19"/>
  <rect class="cls-3" x="4325.7" y="259.74" width="265.64" height="203.93" rx="1.19" ry="1.19"/>
  <g>
    <path class="cls-5" d="M86.07,378.04h-10.74v-36.38h11.38c3.47,0,6.44.72,8.91,2.17,2.47,1.45,4.37,3.52,5.69,6.23,1.32,2.7,1.98,5.93,1.98,9.69,0,5.73-1.5,10.21-4.49,13.44-3,3.23-7.23,4.85-12.72,4.85ZM78.79,374.94h7.08c4.64,0,8.14-1.34,10.5-4.03,2.36-2.69,3.54-6.4,3.54-11.16s-1.14-8.34-3.43-11c-2.29-2.66-5.62-3.99-10-3.99h-7.69v30.18Z"/>
    <path class="cls-5" d="M121.71,378.63c-2.56,0-4.77-.6-6.63-1.79-1.86-1.2-3.3-2.85-4.32-4.97-1.02-2.12-1.53-4.55-1.53-7.3s.5-5.19,1.5-7.32c1-2.13,2.4-3.81,4.2-5.03,1.8-1.22,3.89-1.83,6.26-1.83,1.99,0,3.87.49,5.64,1.46,1.77.98,3.21,2.47,4.32,4.47,1.11,2,1.66,4.55,1.66,7.64v1.44h-20.24c.06,3.11.92,5.59,2.56,7.46,1.64,1.86,3.84,2.79,6.59,2.79,1.9,0,3.47-.44,4.69-1.32s2.08-1.92,2.59-3.12l3.15,1c-.62,1.71-1.83,3.21-3.63,4.49-1.8,1.29-4.07,1.93-6.82,1.93ZM112.58,362.54h16.89c-.18-2.65-.99-4.85-2.44-6.58-1.45-1.73-3.39-2.6-5.83-2.6-1.64,0-3.09.42-4.35,1.25-1.25.83-2.25,1.94-3,3.33-.75,1.39-1.17,2.93-1.27,4.6Z"/>
    <path class="cls-5" d="M146.59,378.04l-10.42-27.29h3.61l6.3,17.16c.46,1.21.86,2.41,1.22,3.63.36,1.21.72,2.41,1.1,3.6.36-1.19.72-2.39,1.07-3.6.36-1.21.76-2.42,1.22-3.63l6.3-17.16h3.59l-10.42,27.29h-3.56Z"/>
    <path class="cls-5" d="M168.15,345.7c-.67,0-1.24-.23-1.71-.68-.47-.46-.71-1-.71-1.64s.24-1.18.71-1.64c.47-.46,1.04-.68,1.71-.68s1.24.23,1.71.68c.47.46.71,1,.71,1.64s-.24,1.18-.71,1.64c-.47.46-1.04.68-1.71.68ZM166.46,378.04v-27.29h3.32v27.29h-3.32Z"/>
    <path class="cls-5" d="M188.78,378.56c-2.38,0-4.47-.59-6.27-1.78-1.81-1.19-3.22-2.84-4.25-4.94-1.03-2.11-1.54-4.54-1.54-7.31s.51-5.26,1.54-7.37c1.03-2.12,2.44-3.77,4.25-4.97,1.81-1.2,3.9-1.79,6.27-1.79,1.84,0,3.47.35,4.91,1.05,1.43.7,2.62,1.58,3.56,2.64.94,1.06,1.59,2.15,1.95,3.27l-3.15.98c-.21-.68-.62-1.41-1.23-2.17-.61-.76-1.42-1.42-2.44-1.95-1.02-.54-2.22-.81-3.6-.81-1.86,0-3.43.5-4.72,1.5-1.29,1-2.28,2.34-2.97,4.03-.68,1.69-1.03,3.55-1.03,5.6s.34,3.87,1.03,5.54c.68,1.68,1.67,3.01,2.97,4.02,1.29,1,2.87,1.5,4.72,1.5,1.42,0,2.64-.28,3.66-.83,1.03-.55,1.86-1.22,2.49-2.01.63-.79,1.05-1.53,1.25-2.23l3.12.98c-.34,1.12-.99,2.23-1.94,3.32-.95,1.09-2.16,1.99-3.61,2.7-1.46.71-3.11,1.06-4.97,1.06Z"/>
    <path class="cls-5" d="M217.15,378.63c-2.56,0-4.77-.6-6.63-1.79-1.86-1.2-3.3-2.85-4.32-4.97-1.02-2.12-1.53-4.55-1.53-7.3s.5-5.19,1.5-7.32c1-2.13,2.4-3.81,4.2-5.03,1.8-1.22,3.89-1.83,6.26-1.83,1.99,0,3.87.49,5.64,1.46,1.77.98,3.21,2.47,4.32,4.47,1.11,2,1.66,4.55,1.66,7.64v1.44h-20.24c.06,3.11.92,5.59,2.56,7.46,1.64,1.86,3.84,2.79,6.59,2.79,1.9,0,3.47-.44,4.69-1.32s2.08-1.92,2.59-3.12l3.15,1c-.62,1.71-1.83,3.21-3.63,4.49-1.8,1.29-4.07,1.93-6.82,1.93ZM208.02,362.54h16.89c-.18-2.65-.99-4.85-2.44-6.58-1.45-1.73-3.39-2.6-5.83-2.6-1.64,0-3.09.42-4.35,1.25-1.25.83-2.25,1.94-3,3.33-.75,1.39-1.17,2.93-1.27,4.6Z"/>
    <path class="cls-5" d="M246.35,378.04l13.33-36.38h4.1l13.45,36.38h-3.66l-3.93-10.82h-15.75l-3.86,10.82h-3.69ZM254.99,364.15h13.53l-3.59-9.89c-.44-1.2-.92-2.6-1.44-4.17-.52-1.58-1.12-3.45-1.78-5.62-.65,2.18-1.24,4.07-1.77,5.66-.53,1.6-1,2.97-1.4,4.13l-3.54,9.89Z"/>
  </g>
  <g>
    <path d="M2230.21,378.04h-10.74v-36.38h11.38c3.47,0,6.44.72,8.91,2.17,2.47,1.45,4.37,3.52,5.69,6.23,1.32,2.7,1.98,5.93,1.98,9.69,0,5.73-1.5,10.21-4.49,13.44-3,3.23-7.23,4.85-12.72,4.85ZM2222.93,374.94h7.08c4.64,0,8.14-1.34,10.5-4.03s3.54-6.4,3.54-11.16-1.14-8.34-3.43-11c-2.29-2.66-5.62-3.99-10-3.99h-7.69v30.18Z"/>
    <path d="M2265.85,378.63c-2.56,0-4.76-.6-6.63-1.79-1.86-1.2-3.3-2.85-4.32-4.97-1.02-2.12-1.53-4.55-1.53-7.3s.5-5.19,1.5-7.32c1-2.13,2.4-3.81,4.2-5.03,1.8-1.22,3.89-1.83,6.26-1.83,1.99,0,3.87.49,5.64,1.46s3.21,2.47,4.32,4.47,1.66,4.55,1.66,7.64v1.44h-20.24c.07,3.11.92,5.59,2.56,7.46,1.64,1.86,3.84,2.79,6.59,2.79,1.9,0,3.47-.44,4.69-1.32s2.08-1.92,2.59-3.12l3.15,1c-.62,1.71-1.83,3.21-3.62,4.49-1.8,1.29-4.07,1.93-6.82,1.93ZM2256.72,362.54h16.89c-.18-2.65-.99-4.85-2.44-6.58-1.45-1.73-3.39-2.6-5.83-2.6-1.64,0-3.09.42-4.35,1.25s-2.25,1.94-3,3.33c-.75,1.39-1.17,2.93-1.27,4.6Z"/>
    <path d="M2290.73,378.04l-10.42-27.29h3.61l6.3,17.16c.46,1.21.86,2.41,1.22,3.63.36,1.21.72,2.41,1.1,3.6.36-1.19.72-2.39,1.07-3.6.36-1.21.76-2.42,1.22-3.63l6.3-17.16h3.59l-10.42,27.29h-3.56Z"/>
    <path d="M2312.29,345.7c-.67,0-1.24-.23-1.71-.68-.47-.46-.71-1-.71-1.64s.24-1.18.71-1.64c.47-.46,1.04-.68,1.71-.68s1.24.23,1.71.68c.47.46.71,1,.71,1.64s-.24,1.18-.71,1.64c-.47.46-1.04.68-1.71.68ZM2310.6,378.04v-27.29h3.32v27.29h-3.32Z"/>
    <path d="M2332.92,378.56c-2.38,0-4.47-.59-6.27-1.78-1.81-1.19-3.22-2.84-4.25-4.94-1.03-2.11-1.54-4.54-1.54-7.31s.51-5.26,1.54-7.37c1.03-2.12,2.44-3.77,4.25-4.97,1.81-1.2,3.9-1.79,6.27-1.79,1.84,0,3.47.35,4.91,1.05,1.43.7,2.62,1.58,3.56,2.64.94,1.06,1.59,2.15,1.95,3.27l-3.15.98c-.21-.68-.62-1.41-1.23-2.17-.61-.76-1.42-1.42-2.44-1.95-1.02-.54-2.22-.81-3.6-.81-1.86,0-3.43.5-4.72,1.5-1.29,1-2.28,2.34-2.97,4.03-.68,1.69-1.03,3.55-1.03,5.6s.34,3.87,1.03,5.54c.68,1.68,1.67,3.01,2.97,4.02,1.29,1,2.87,1.5,4.72,1.5,1.42,0,2.64-.28,3.66-.83,1.03-.55,1.86-1.22,2.49-2.01.63-.79,1.05-1.53,1.25-2.23l3.12.98c-.34,1.12-.99,2.23-1.94,3.32-.95,1.09-2.16,1.99-3.61,2.7-1.46.71-3.11,1.06-4.97,1.06Z"/>
    <path d="M2361.29,378.63c-2.56,0-4.76-.6-6.63-1.79-1.86-1.2-3.3-2.85-4.32-4.97-1.02-2.12-1.53-4.55-1.53-7.3s.5-5.19,1.5-7.32c1-2.13,2.4-3.81,4.2-5.03,1.8-1.22,3.89-1.83,6.26-1.83,1.99,0,3.87.49,5.64,1.46s3.21,2.47,4.32,4.47,1.66,4.55,1.66,7.64v1.44h-20.24c.07,3.11.92,5.59,2.56,7.46,1.64,1.86,3.84,2.79,6.59,2.79,1.9,0,3.47-.44,4.69-1.32s2.08-1.92,2.59-3.12l3.15,1c-.62,1.71-1.83,3.21-3.62,4.49-1.8,1.29-4.07,1.93-6.82,1.93ZM2352.16,362.54h16.89c-.18-2.65-.99-4.85-2.44-6.58-1.45-1.73-3.39-2.6-5.83-2.6-1.64,0-3.09.42-4.35,1.25s-2.25,1.94-3,3.33c-.75,1.39-1.17,2.93-1.27,4.6Z"/>
    <path d="M2393.9,378.04v-36.38h12.38c3.55,0,6.22.9,8.01,2.71s2.69,4.07,2.69,6.79c0,2.28-.56,4.07-1.67,5.37-1.12,1.3-2.5,2.17-4.14,2.59v.29c1.16.08,2.29.49,3.39,1.23,1.11.74,2.02,1.77,2.75,3.1.72,1.33,1.09,2.9,1.09,4.72,0,2.77-.93,5.05-2.78,6.86s-4.74,2.71-8.64,2.71h-13.06ZM2397.37,358.1h9.16c2.13,0,3.85-.65,5.15-1.95,1.3-1.3,1.95-2.94,1.95-4.91s-.62-3.46-1.87-4.66c-1.25-1.2-3.1-1.81-5.55-1.81h-8.84v13.33ZM2397.37,374.94h9.52c2.77,0,4.82-.61,6.15-1.84,1.33-1.23,2-2.78,2-4.65,0-1.37-.33-2.61-1-3.72-.67-1.11-1.6-2-2.79-2.66-1.2-.66-2.6-.99-4.21-.99h-9.67v13.87Z"/>
  </g>
  <g>
    <path class="cls-5" d="M4373.17,378.04h-10.74v-36.38h11.38c3.47,0,6.44.72,8.91,2.17,2.47,1.45,4.37,3.52,5.69,6.23,1.32,2.7,1.98,5.93,1.98,9.69,0,5.73-1.5,10.21-4.49,13.44-3,3.23-7.24,4.85-12.72,4.85ZM4365.89,374.94h7.08c4.64,0,8.14-1.34,10.5-4.03,2.36-2.69,3.54-6.4,3.54-11.16s-1.14-8.34-3.43-11c-2.29-2.66-5.62-3.99-10-3.99h-7.69v30.18Z"/>
    <path class="cls-5" d="M4408.81,378.63c-2.56,0-4.77-.6-6.63-1.79-1.86-1.2-3.3-2.85-4.32-4.97-1.02-2.12-1.53-4.55-1.53-7.3s.5-5.19,1.5-7.32c1-2.13,2.4-3.81,4.2-5.03s3.89-1.83,6.26-1.83c1.99,0,3.87.49,5.64,1.46,1.77.98,3.21,2.47,4.32,4.47,1.11,2,1.66,4.55,1.66,7.64v1.44h-20.24c.06,3.11.92,5.59,2.56,7.46,1.64,1.86,3.84,2.79,6.59,2.79,1.9,0,3.47-.44,4.69-1.32s2.08-1.92,2.59-3.12l3.15,1c-.62,1.71-1.83,3.21-3.63,4.49-1.8,1.29-4.07,1.93-6.82,1.93ZM4399.68,362.54h16.89c-.18-2.65-.99-4.85-2.44-6.58-1.45-1.73-3.39-2.6-5.83-2.6-1.64,0-3.09.42-4.35,1.25-1.25.83-2.25,1.94-3,3.33-.75,1.39-1.17,2.93-1.27,4.6Z"/>
    <path class="cls-5" d="M4433.69,378.04l-10.42-27.29h3.61l6.3,17.16c.46,1.21.86,2.41,1.22,3.63.36,1.21.72,2.41,1.1,3.6.36-1.19.72-2.39,1.07-3.6.36-1.21.76-2.42,1.22-3.63l6.3-17.16h3.59l-10.42,27.29h-3.56Z"/>
    <path class="cls-5" d="M4455.25,345.7c-.67,0-1.24-.23-1.71-.68-.47-.46-.71-1-.71-1.64s.24-1.18.71-1.64c.47-.46,1.04-.68,1.71-.68s1.24.23,1.71.68c.47.46.71,1,.71,1.64s-.24,1.18-.71,1.64c-.47.46-1.04.68-1.71.68ZM4453.56,378.04v-27.29h3.32v27.29h-3.32Z"/>
    <path class="cls-5" d="M4475.88,378.56c-2.38,0-4.47-.59-6.27-1.78-1.81-1.19-3.22-2.84-4.25-4.94-1.03-2.11-1.54-4.54-1.54-7.31s.51-5.26,1.54-7.37c1.03-2.12,2.44-3.77,4.25-4.97,1.81-1.2,3.9-1.79,6.27-1.79,1.84,0,3.47.35,4.91,1.05,1.43.7,2.62,1.58,3.56,2.64.94,1.06,1.59,2.15,1.95,3.27l-3.15.98c-.21-.68-.62-1.41-1.23-2.17-.61-.76-1.42-1.42-2.44-1.95s-2.22-.81-3.6-.81c-1.86,0-3.43.5-4.72,1.5-1.29,1-2.28,2.34-2.97,4.03-.68,1.69-1.03,3.55-1.03,5.6s.34,3.87,1.03,5.54c.68,1.68,1.67,3.01,2.97,4.02,1.29,1,2.87,1.5,4.72,1.5,1.42,0,2.64-.28,3.66-.83,1.03-.55,1.86-1.22,2.49-2.01.63-.79,1.05-1.53,1.25-2.23l3.12.98c-.34,1.12-.99,2.23-1.94,3.32-.95,1.09-2.16,1.99-3.61,2.7-1.46.71-3.11,1.06-4.97,1.06Z"/>
    <path class="cls-5" d="M4504.25,378.63c-2.56,0-4.77-.6-6.63-1.79-1.86-1.2-3.3-2.85-4.32-4.97-1.02-2.12-1.53-4.55-1.53-7.3s.5-5.19,1.5-7.32c1-2.13,2.4-3.81,4.2-5.03s3.89-1.83,6.26-1.83c1.99,0,3.87.49,5.64,1.46,1.77.98,3.21,2.47,4.32,4.47,1.11,2,1.66,4.55,1.66,7.64v1.44h-20.24c.06,3.11.92,5.59,2.56,7.46,1.64,1.86,3.84,2.79,6.59,2.79,1.9,0,3.47-.44,4.69-1.32s2.08-1.92,2.59-3.12l3.15,1c-.62,1.71-1.83,3.21-3.63,4.49-1.8,1.29-4.07,1.93-6.82,1.93ZM4495.12,362.54h16.89c-.18-2.65-.99-4.85-2.44-6.58-1.45-1.73-3.39-2.6-5.83-2.6-1.64,0-3.09.42-4.35,1.25-1.25.83-2.25,1.94-3,3.33-.75,1.39-1.17,2.93-1.27,4.6Z"/>
    <path class="cls-5" d="M4533.45,378.04l13.33-36.38h4.1l13.45,36.38h-3.66l-3.93-10.82h-15.75l-3.86,10.82h-3.69ZM4542.09,364.15h13.53l-3.59-9.89c-.44-1.2-.92-2.6-1.44-4.17-.52-1.58-1.12-3.45-1.78-5.62-.65,2.18-1.24,4.07-1.77,5.66-.53,1.6-1,2.97-1.4,4.13l-3.54,9.89Z"/>
  </g>
</svg>