<?xml version="1.0" encoding="UTF-8"?>
<svg id="Layer_1" data-name="Layer 1" xmlns="http://www.w3.org/2000/svg" viewBox="0 0 684 222.89">
  <defs>
    <style>
      .cls-1 {
        stroke: #0082fc;
        stroke-linecap: round;
        stroke-linejoin: round;
        stroke-width: 3px;
      }

      .cls-1, .cls-2, .cls-3, .cls-4 {
        fill: none;
      }

      .cls-2, .cls-3 {
        stroke: #000;
        stroke-miterlimit: 10;
      }

      .cls-3 {
        stroke-width: .75px;
      }

      .cls-5 {
        fill: #fff;
      }

      .cls-6 {
        fill: #646569;
      }

      .cls-7 {
        fill: #d90000;
      }

      .cls-8 {
        fill: #0082fc;
      }
    </style>
  </defs>
  <g>
    <rect class="cls-4" x="83.59" y="11.6" width="124.64" height="48.75"/>
    <path class="cls-6" d="M139.79,33.73c-.02-.06-.03-.15-.04-.28,0-.13-.01-.24-.01-.32-.16.26-.39.44-.69.56s-.6.17-.91.17c-.36,0-.68-.06-.97-.19-.28-.12-.52-.29-.71-.51-.19-.21-.34-.46-.44-.74-.1-.28-.15-.58-.15-.9v-3.78h1.83v3.39c0,.29.08.53.23.73.16.2.4.3.73.3.3,0,.55-.09.73-.28.18-.19.27-.43.27-.74v-3.41h1.83v4.91c0,.27,0,.51.02.7.02.2.03.32.04.37h-1.76Z"/>
    <path class="cls-6" d="M143.09,36.02v-8.27h1.77v.61c.13-.19.34-.37.65-.52s.67-.24,1.11-.24.82.08,1.17.24c.35.16.64.37.87.65s.42.61.55.99c.13.38.19.8.19,1.25s-.07.88-.21,1.26-.34.72-.59.99c-.25.28-.55.49-.9.65-.35.16-.73.23-1.15.23-.38,0-.72-.06-1-.17s-.49-.26-.63-.43v2.75h-1.83ZM147.61,30.74c0-.25-.04-.47-.11-.65-.07-.18-.17-.34-.3-.46s-.27-.22-.44-.28c-.17-.06-.34-.09-.51-.09s-.35.03-.51.09c-.16.06-.31.15-.43.28-.12.12-.22.28-.29.46-.07.18-.11.4-.11.65s.04.46.11.65c.07.18.17.34.29.46s.27.22.43.28.33.1.51.1.35-.03.51-.09c.16-.06.31-.15.44-.28.13-.12.23-.28.3-.47s.11-.41.11-.66Z"/>
    <path class="cls-6" d="M150.58,36.02v-8.27h1.77v.61c.13-.19.34-.37.65-.52s.67-.24,1.11-.24.82.08,1.17.24c.34.16.63.37.87.65.24.28.42.61.55.99.13.38.19.8.19,1.25s-.07.88-.21,1.26c-.14.38-.34.72-.59.99-.25.28-.55.49-.9.65-.35.16-.73.23-1.15.23-.38,0-.72-.06-1-.17s-.49-.26-.62-.43v2.75h-1.83ZM155.09,30.74c0-.25-.04-.47-.11-.65-.07-.18-.17-.34-.3-.46-.13-.12-.28-.22-.44-.28-.16-.06-.33-.09-.51-.09s-.35.03-.51.09c-.17.06-.31.15-.43.28-.12.12-.22.28-.29.46-.07.18-.11.4-.11.65s.04.46.11.65.17.34.29.46c.12.12.27.22.43.28s.33.1.51.1.35-.03.51-.09c.16-.06.31-.15.44-.28.13-.12.23-.28.3-.47s.11-.41.11-.66Z"/>
    <path class="cls-6" d="M163.5,32.01c-.07.26-.18.5-.34.73s-.35.44-.58.61c-.23.17-.5.31-.81.41s-.65.15-1.03.15c-.41,0-.8-.07-1.18-.22s-.71-.35-1-.62c-.29-.27-.52-.61-.69-1-.17-.39-.25-.84-.25-1.35s.08-.92.25-1.3c.16-.39.38-.72.66-.99.28-.27.6-.48.96-.63.36-.15.73-.22,1.12-.22.93,0,1.66.27,2.2.81s.8,1.29.8,2.26c0,.13,0,.25-.01.37,0,.12-.02.18-.02.2h-4.16c0,.17.05.32.13.46.08.14.18.26.3.37.12.1.27.18.43.24.16.06.33.08.51.08.34,0,.6-.07.79-.22s.33-.33.42-.57l1.53.43ZM161.84,30.03c0-.11-.03-.23-.08-.35-.04-.12-.11-.23-.21-.32-.1-.1-.22-.18-.37-.24-.15-.06-.33-.1-.55-.1-.19,0-.36.03-.5.1-.14.06-.27.14-.37.24-.1.1-.18.2-.23.32-.05.12-.08.24-.09.35h2.39Z"/>
    <path class="cls-6" d="M168.59,29.56c-.11-.02-.21-.04-.3-.05-.1,0-.19-.01-.28-.01-.18,0-.36.03-.53.08s-.32.15-.45.28c-.13.13-.23.3-.31.51-.08.21-.11.46-.11.76v2.61h-1.83v-5.98h1.77v.81c.08-.17.18-.31.31-.42.12-.11.26-.2.4-.26.14-.06.29-.11.44-.14s.28-.04.4-.04c.19,0,.35.02.48.06v1.8Z"/>
    <path class="cls-6" d="M172.59,33.73v-8.71h1.79v3.3c.13-.18.35-.35.66-.49.31-.14.67-.22,1.08-.22.43,0,.82.08,1.17.24.35.16.64.37.87.65s.42.61.55.99c.13.38.19.8.19,1.25s-.07.88-.21,1.26-.34.72-.59.99c-.25.28-.55.49-.9.65-.35.16-.73.23-1.15.23s-.75-.08-1.04-.23-.51-.34-.64-.58v.67h-1.77ZM177.07,30.74c0-.25-.04-.47-.11-.66s-.17-.34-.29-.46-.27-.21-.43-.27c-.16-.06-.33-.09-.51-.09s-.35.03-.51.09c-.17.06-.31.15-.43.27-.12.12-.22.27-.3.46s-.11.41-.11.66.04.46.11.65.18.34.3.46c.12.12.27.22.43.28.16.06.33.1.51.1s.35-.03.51-.09c.17-.06.31-.15.43-.28.12-.12.22-.28.29-.47s.11-.41.11-.66Z"/>
    <path class="cls-6" d="M182.82,27.57c.45,0,.87.08,1.25.23.39.16.72.38,1,.66.28.28.51.61.67,1s.25.81.25,1.28-.08.89-.25,1.28c-.16.39-.39.72-.67,1-.29.28-.62.5-1,.66-.38.16-.8.23-1.25.23s-.87-.08-1.25-.23c-.38-.16-.72-.38-1-.66-.29-.28-.51-.62-.67-1-.16-.39-.25-.82-.25-1.28s.08-.89.25-1.28.39-.72.67-1c.29-.28.62-.5,1-.66.39-.16.8-.23,1.25-.23ZM182.82,32.23c.18,0,.34-.03.51-.09.16-.06.3-.15.43-.28s.22-.28.3-.46.12-.4.12-.66-.04-.47-.12-.66-.18-.34-.3-.46c-.12-.12-.27-.21-.43-.27-.16-.06-.33-.09-.51-.09s-.33.03-.5.09c-.16.06-.31.15-.43.27s-.22.27-.3.46-.11.41-.11.66.04.47.11.66.18.34.3.47c.12.12.27.22.43.28.17.06.33.09.5.09Z"/>
    <path class="cls-6" d="M191.04,33.73c-.02-.06-.03-.15-.04-.28,0-.13-.01-.24-.01-.32-.16.26-.39.44-.69.56s-.6.17-.91.17c-.36,0-.68-.06-.97-.19-.28-.12-.52-.29-.71-.51-.19-.21-.34-.46-.44-.74-.1-.28-.15-.58-.15-.9v-3.78h1.83v3.39c0,.29.08.53.23.73.16.2.4.3.73.3.3,0,.55-.09.73-.28.18-.19.27-.43.27-.74v-3.41h1.83v4.91c0,.27,0,.51.02.7.02.2.03.32.04.37h-1.76Z"/>
    <path class="cls-6" d="M196.17,33.73h-1.83v-5.98h1.77v.69c.08-.14.18-.27.31-.37.13-.1.27-.19.42-.26s.3-.12.47-.16c.17-.04.32-.05.48-.05.38,0,.7.06.97.19.27.12.5.29.68.51.18.22.31.47.4.76s.13.6.13.93v3.75h-1.83v-3.44c0-.3-.08-.54-.23-.74s-.4-.29-.74-.29c-.3,0-.54.1-.72.29-.18.2-.27.45-.27.75v3.43Z"/>
    <path class="cls-6" d="M207.39,32.66c0,.27,0,.5.02.69.01.19.02.32.03.38h-1.76s-.02-.12-.03-.23-.02-.23-.02-.35c-.14.21-.35.38-.63.51-.29.13-.61.2-.97.2-.42,0-.82-.08-1.18-.23-.36-.16-.67-.37-.94-.65-.26-.28-.47-.61-.62-.99s-.22-.81-.22-1.26.07-.85.22-1.23.34-.71.6-.99c.26-.28.56-.5.91-.66.35-.16.74-.24,1.17-.24.26,0,.48.02.66.07s.34.1.47.16c.13.06.23.13.31.2s.13.14.17.19v-3.2h1.8v7.64ZM202.91,30.74c0,.25.04.46.11.65s.17.34.29.46c.12.12.27.22.43.28.16.06.33.1.51.1s.35-.03.51-.1c.17-.06.31-.16.43-.28.12-.12.22-.28.29-.46s.11-.4.11-.65-.04-.47-.11-.65c-.07-.18-.17-.34-.29-.46-.12-.12-.27-.22-.43-.28-.16-.06-.33-.09-.51-.09s-.35.03-.51.09c-.17.06-.31.15-.43.28s-.22.28-.29.46c-.07.18-.11.4-.11.65Z"/>
    <path class="cls-6" d="M141.14,45.42c-.07.23-.18.45-.32.65-.14.2-.32.38-.52.53-.2.15-.43.27-.69.36-.26.09-.54.13-.85.13-.35,0-.69-.06-1.01-.19-.32-.12-.61-.31-.85-.55-.25-.24-.44-.54-.58-.89-.14-.35-.21-.75-.21-1.2,0-.42.07-.8.21-1.14s.32-.63.56-.88c.23-.25.5-.44.81-.57.31-.14.63-.2.96-.2.4,0,.76.07,1.08.2s.58.32.8.57.38.53.49.88.17.72.17,1.13c0,.07,0,.13,0,.19s0,.11-.02.14h-3.98c0,.24.05.45.13.65.08.2.19.37.34.51.14.14.31.25.51.33.19.08.4.12.62.12.43,0,.76-.1.99-.31.23-.21.39-.46.5-.76l.89.31ZM140.1,43.74c-.02-.38-.14-.7-.38-.96-.24-.26-.6-.39-1.07-.39-.22,0-.42.04-.59.12s-.32.18-.44.31c-.12.13-.22.27-.29.43-.07.16-.11.33-.12.5h2.89Z"/>
    <path class="cls-6" d="M142.38,46.23c0-.21.07-.39.22-.54s.33-.23.54-.23.39.08.54.23c.15.15.22.33.22.54s-.08.39-.22.54c-.15.15-.33.22-.54.22s-.39-.07-.54-.22-.22-.33-.22-.54Z"/>
    <path class="cls-6" d="M146.18,46.99c.04.37.19.68.45.93.26.25.59.37,1,.37.56,0,.97-.14,1.23-.43s.39-.71.39-1.29v-.76c-.12.24-.33.45-.61.62-.28.17-.62.25-1.01.25-.35,0-.68-.06-.97-.19-.3-.13-.55-.3-.77-.53-.22-.22-.38-.49-.51-.81s-.18-.66-.18-1.03.06-.69.18-1.01c.12-.31.28-.58.5-.81s.47-.41.76-.55.63-.2,1-.2c.41,0,.75.07,1.02.22s.47.35.6.62v-.74h1.02v4.89c0,.34-.04.67-.13.98-.09.32-.24.6-.45.85-.21.25-.48.44-.82.59s-.76.23-1.25.23c-.33,0-.64-.05-.92-.15-.28-.1-.53-.24-.75-.41-.22-.18-.39-.38-.53-.62s-.22-.5-.25-.79l1-.23ZM147.77,45.81c.45,0,.81-.15,1.09-.46.28-.31.42-.72.42-1.23s-.14-.92-.42-1.23c-.28-.31-.64-.46-1.09-.46s-.83.15-1.11.46c-.28.31-.42.72-.42,1.23s.14.93.41,1.24c.28.3.65.46,1.12.46Z"/>
    <path class="cls-6" d="M151.81,46.23c0-.21.07-.39.22-.54.15-.15.33-.23.54-.23s.39.08.54.23.23.33.23.54-.08.39-.23.54-.33.22-.54.22-.39-.07-.54-.22c-.15-.15-.22-.33-.22-.54Z"/>
    <path class="cls-6" d="M157.33,42.23c0-.05-.01-.1-.01-.15v-.14c0-.31.06-.6.17-.88.11-.28.27-.52.48-.74.21-.21.47-.38.78-.51.31-.12.66-.19,1.04-.19s.72.06,1.02.18c.3.12.55.28.76.47.21.2.36.43.47.7s.16.55.16.84c0,.47-.12.89-.36,1.26-.24.37-.57.68-.98.94l-1.41.9c-.21.13-.39.28-.55.43-.16.16-.27.35-.32.57h3.66v1h-4.99c0-.29.04-.57.1-.83.06-.26.16-.5.3-.74.14-.23.31-.46.52-.67s.47-.41.77-.61l1.19-.77c.34-.21.58-.44.74-.69.16-.25.24-.51.24-.79,0-.16-.03-.32-.08-.47-.06-.15-.14-.28-.25-.4-.11-.12-.25-.21-.42-.28-.17-.07-.37-.1-.59-.1s-.44.04-.61.12-.32.18-.43.31c-.11.13-.2.29-.25.46s-.08.37-.08.57c0,.05,0,.1,0,.15,0,.05,0,.11.02.17l-1.08-.13Z"/>
    <path class="cls-6" d="M163.06,44.08l3.06-4.28h1.48v4.52h1.22v1h-1.22v1.61h-1.04v-1.61h-3.5v-1.24ZM166.56,40.84l-2.51,3.49h2.51v-3.49Z"/>
    <path class="cls-6" d="M169.54,43.37c0-.49.05-.96.14-1.4.09-.44.26-.84.5-1.19.23-.35.53-.63.89-.84s.79-.31,1.3-.31.94.1,1.3.31.66.48.89.84c.24.35.4.75.5,1.19.1.44.14.91.14,1.4s-.05.96-.14,1.4c-.1.44-.26.84-.5,1.19-.24.35-.53.63-.89.84s-.79.31-1.3.31-.94-.1-1.3-.31-.66-.48-.89-.84c-.23-.35-.4-.75-.5-1.19-.09-.44-.14-.91-.14-1.4ZM170.61,43.37c0,1.1.21,1.87.63,2.31.14.15.3.26.48.34.18.08.4.12.65.12s.47-.04.65-.12.34-.19.48-.34c.42-.44.63-1.21.63-2.31s-.21-1.87-.63-2.31c-.14-.15-.3-.26-.48-.34-.18-.08-.4-.12-.65-.12s-.47.04-.65.12c-.18.08-.34.19-.48.34-.42.44-.63,1.21-.63,2.31Z"/>
    <path class="cls-6" d="M177.69,42.73l2.1-1.94h-3.41v-.99h4.84v.97l-2.04,1.88c.26,0,.53.04.79.13.26.09.5.22.71.4s.38.41.51.68.2.59.2.96c0,.3-.06.59-.17.86-.11.28-.28.52-.5.73-.22.21-.49.38-.81.51-.32.12-.69.19-1.11.19s-.78-.06-1.1-.19c-.32-.12-.6-.29-.82-.5-.22-.21-.4-.45-.52-.71s-.19-.55-.21-.84l1.06-.24c0,.24.05.45.14.64.09.19.2.35.35.48s.31.24.5.31c.19.07.39.11.6.11.24,0,.46-.03.65-.1.19-.07.35-.17.47-.29.12-.12.22-.26.29-.42.07-.16.1-.33.1-.51,0-.24-.04-.44-.13-.61-.08-.17-.2-.31-.34-.41-.14-.11-.29-.19-.47-.24-.17-.05-.35-.08-.52-.08-.21,0-.42.04-.63.11l-.53-.89Z"/>
    <path class="cls-6" d="M192.93,46.93v-6.07l-2.66,6.07h-.99l-2.64-6.07v6.07h-1.07v-7.8h1.46l2.75,6.35,2.77-6.35h1.44v7.8h-1.07Z"/>
    <path class="cls-6" d="M201.03,46.93v-3.46h-3.98v3.46h-1.08v-7.8h1.08v3.33h3.98v-3.33h1.08v7.8h-1.08Z"/>
    <path class="cls-6" d="M203.54,46.93v-.9l2.9-3.45h-2.86v-.93h4.15v.9l-2.9,3.45h2.96v.94h-4.25Z"/>
  </g>
  <g>
    <rect class="cls-4" x="83.59" y="96.94" width="124.64" height="48.75"/>
    <path class="cls-6" d="M127.07,114.59c-.19,0-.37.03-.54.1-.16.06-.31.16-.43.29s-.22.28-.29.47-.11.4-.11.64.04.45.11.63.18.33.3.46.27.22.44.29c.17.06.35.1.54.1.35,0,.63-.09.84-.28.2-.18.34-.39.4-.61l1.61.49c-.06.26-.17.52-.33.77s-.35.47-.6.66c-.24.19-.52.35-.84.47s-.68.18-1.08.18c-.45,0-.87-.08-1.26-.23s-.73-.38-1.02-.66c-.29-.28-.52-.61-.69-1-.17-.38-.25-.81-.25-1.28s.08-.89.25-1.28c.16-.39.39-.72.67-1s.62-.5,1-.66c.38-.16.79-.23,1.23-.23.41,0,.78.06,1.11.17s.61.27.85.46c.24.19.44.42.59.67s.26.51.32.78l-1.64.49c-.03-.11-.08-.22-.14-.33-.06-.11-.14-.2-.24-.29-.1-.08-.21-.15-.35-.2-.14-.05-.29-.07-.47-.07Z"/>
    <path class="cls-6" d="M132.89,119.07h-1.83v-8.71h1.83v3.12c.18-.18.42-.32.7-.41.28-.09.56-.13.82-.13.39,0,.73.06,1.02.19.29.12.52.29.71.51.18.22.32.47.41.76.09.29.13.6.13.93v3.75h-1.83v-3.44c0-.3-.08-.54-.23-.74-.16-.2-.4-.29-.74-.29-.29,0-.52.09-.7.27-.18.18-.27.41-.29.69v3.51Z"/>
    <path class="cls-6" d="M137.86,117.42c0-.26.05-.5.14-.71.09-.21.22-.39.38-.54.16-.15.35-.27.56-.36.21-.09.44-.16.69-.2l1.41-.22c.16-.02.27-.07.34-.14s.1-.16.1-.26c0-.18-.08-.33-.22-.46-.15-.13-.37-.19-.66-.19-.32,0-.57.09-.74.27-.17.18-.27.38-.28.61l-1.59-.32c.02-.22.08-.44.19-.67.11-.23.27-.44.49-.64.21-.19.48-.35.8-.48.32-.13.7-.19,1.14-.19.48,0,.89.06,1.23.19.34.12.61.29.82.51.21.21.37.46.46.74s.14.57.14.88v2.92c0,.23,0,.44.03.61.02.18.03.28.04.31h-1.65s-.02-.09-.04-.2c-.02-.11-.02-.27-.02-.48-.16.26-.38.46-.66.61s-.62.23-1.02.23c-.33,0-.62-.05-.88-.15-.26-.1-.47-.23-.65-.4-.18-.17-.31-.36-.4-.58-.09-.22-.14-.45-.14-.69ZM140.38,117.91c.14,0,.27-.02.4-.05.13-.04.25-.1.35-.19.1-.09.18-.21.25-.37s.1-.34.1-.58v-.26l-1.13.18c-.19.03-.35.1-.48.2-.13.1-.19.25-.19.46,0,.16.05.3.16.43s.29.19.55.19Z"/>
    <path class="cls-6" d="M146.62,119.07h-1.83v-5.98h1.77v.69c.08-.14.18-.27.31-.37.13-.1.27-.19.42-.26.15-.07.3-.12.47-.16s.32-.05.47-.05c.38,0,.7.06.97.19.27.12.5.29.68.51.18.22.31.47.4.76.08.29.13.6.13.93v3.75h-1.83v-3.44c0-.3-.08-.54-.23-.74-.16-.2-.4-.29-.74-.29-.3,0-.55.1-.72.29-.18.2-.26.45-.26.75v3.43Z"/>
    <path class="cls-6" d="M153.78,119.07h-1.83v-5.98h1.77v.69c.08-.14.18-.27.31-.37.13-.1.27-.19.42-.26.15-.07.3-.12.47-.16s.32-.05.47-.05c.38,0,.7.06.97.19.27.12.5.29.68.51.18.22.31.47.4.76.08.29.13.6.13.93v3.75h-1.83v-3.44c0-.3-.08-.54-.23-.74-.16-.2-.4-.29-.74-.29-.3,0-.55.1-.72.29-.18.2-.26.45-.26.75v3.43Z"/>
    <path class="cls-6" d="M164.54,117.35c-.07.26-.19.5-.34.73-.15.23-.34.44-.58.61-.23.17-.5.31-.81.41-.31.1-.65.15-1.03.15-.41,0-.8-.07-1.18-.22-.38-.14-.71-.35-1-.63s-.52-.61-.69-1-.25-.84-.25-1.35.08-.92.25-1.31.38-.72.66-.99c.28-.27.6-.48.96-.63.36-.15.73-.22,1.12-.22.93,0,1.66.27,2.2.81.53.54.8,1.29.8,2.26,0,.13,0,.25-.01.37s-.02.18-.02.2h-4.16c0,.17.05.32.13.46.08.14.18.26.3.37s.27.18.43.24c.16.06.33.08.5.08.34,0,.6-.07.79-.22.19-.14.33-.33.42-.57l1.53.43ZM162.88,115.36c0-.11-.04-.23-.08-.35-.04-.12-.12-.23-.21-.32-.1-.1-.22-.18-.37-.24-.15-.06-.33-.1-.55-.1-.19,0-.36.03-.51.1-.14.06-.27.14-.37.24-.1.1-.18.2-.23.32-.05.12-.08.24-.09.35h2.39Z"/>
    <path class="cls-6" d="M165.83,119.07v-8.71h1.83v8.71h-1.83Z"/>
    <path class="cls-6" d="M174.99,114.59c-.19,0-.37.03-.54.1-.16.06-.31.16-.43.29s-.22.28-.29.47-.11.4-.11.64.04.45.11.63.18.33.3.46.27.22.44.29c.17.06.35.1.54.1.35,0,.63-.09.84-.28.2-.18.34-.39.4-.61l1.61.49c-.06.26-.17.52-.33.77s-.35.47-.6.66c-.24.19-.52.35-.84.47s-.68.18-1.08.18c-.45,0-.87-.08-1.26-.23s-.73-.38-1.02-.66c-.29-.28-.52-.61-.69-1-.17-.38-.25-.81-.25-1.28s.08-.89.25-1.28c.16-.39.39-.72.67-1s.62-.5,1-.66c.38-.16.79-.23,1.23-.23.41,0,.78.06,1.11.17s.61.27.85.46c.24.19.44.42.59.67s.26.51.32.78l-1.64.49c-.03-.11-.08-.22-.14-.33-.06-.11-.14-.2-.24-.29-.1-.08-.21-.15-.35-.2-.14-.05-.29-.07-.47-.07Z"/>
    <path class="cls-6" d="M184.42,117.35c-.07.26-.18.5-.34.73-.15.23-.34.44-.58.61-.23.17-.5.31-.81.41-.31.1-.65.15-1.03.15-.41,0-.8-.07-1.18-.22s-.71-.35-1-.63-.52-.61-.69-1c-.17-.39-.25-.84-.25-1.35s.08-.92.25-1.31c.16-.39.38-.72.66-.99.28-.27.6-.48.96-.63.36-.15.73-.22,1.12-.22.93,0,1.66.27,2.2.81.53.54.8,1.29.8,2.26,0,.13,0,.25-.01.37,0,.12-.02.18-.02.2h-4.16c0,.17.05.32.13.46.08.14.18.26.3.37.12.1.27.18.43.24.16.06.33.08.5.08.34,0,.6-.07.79-.22.19-.14.33-.33.41-.57l1.53.43ZM182.76,115.36c0-.11-.03-.23-.08-.35-.04-.12-.11-.23-.21-.32s-.22-.18-.37-.24c-.15-.06-.33-.1-.55-.1-.19,0-.36.03-.5.1-.14.06-.27.14-.37.24-.1.1-.18.2-.23.32-.05.12-.08.24-.09.35h2.39Z"/>
    <path class="cls-6" d="M187.54,119.07h-1.83v-5.98h1.77v.69c.08-.14.18-.27.31-.37.13-.1.27-.19.42-.26.15-.07.3-.12.47-.16s.32-.05.47-.05c.38,0,.7.06.97.19.27.12.5.29.68.51.18.22.31.47.4.76.08.29.13.6.13.93v3.75h-1.83v-3.44c0-.3-.08-.54-.23-.74-.16-.2-.4-.29-.74-.29-.3,0-.55.1-.72.29-.18.2-.26.45-.26.75v3.43Z"/>
    <path class="cls-6" d="M195.05,113.09h1.17v1.6h-1.17v2.24c0,.25.06.42.18.5.12.08.28.13.48.13.1,0,.19,0,.27-.02.08-.01.15-.03.21-.04v1.52s-.14.05-.29.1c-.15.05-.37.07-.66.07-.62,0-1.12-.17-1.47-.51s-.53-.81-.53-1.41v-2.56h-1.06v-1.6h.3c.31,0,.55-.09.7-.28.15-.18.23-.42.23-.7v-.77h1.64v1.74Z"/>
    <path class="cls-6" d="M201.26,114.89c-.1-.02-.21-.04-.3-.05-.1,0-.19-.01-.28-.01-.18,0-.36.03-.53.08-.17.06-.32.15-.45.28-.13.13-.23.3-.31.51s-.11.46-.11.76v2.61h-1.83v-5.98h1.77v.81c.08-.17.18-.31.31-.42s.26-.2.4-.26c.14-.06.29-.11.44-.14.15-.03.28-.04.4-.04.18,0,.34.02.48.06v1.8Z"/>
    <path class="cls-6" d="M207.75,117.35c-.07.26-.18.5-.34.73-.15.23-.35.44-.58.61s-.5.31-.81.41c-.31.1-.65.15-1.03.15-.41,0-.8-.07-1.18-.22s-.71-.35-1-.63c-.29-.27-.52-.61-.69-1s-.25-.84-.25-1.35.08-.92.25-1.31c.16-.39.38-.72.66-.99.28-.27.6-.48.96-.63.36-.15.73-.22,1.12-.22.93,0,1.66.27,2.2.81.53.54.8,1.29.8,2.26,0,.13,0,.25-.01.37,0,.12-.02.18-.02.2h-4.16c0,.17.05.32.13.46.08.14.18.26.3.37s.27.18.43.24.33.08.51.08c.34,0,.6-.07.79-.22.19-.14.33-.33.42-.57l1.53.43ZM206.09,115.36c0-.11-.03-.23-.08-.35-.04-.12-.11-.23-.21-.32-.1-.1-.22-.18-.37-.24-.15-.06-.33-.1-.55-.1-.19,0-.36.03-.5.1-.14.06-.27.14-.37.24s-.18.2-.23.32c-.05.12-.08.24-.09.35h2.39Z"/>
    <path class="cls-6" d="M141.4,130.76c-.07.23-.18.45-.32.65s-.32.38-.52.53c-.2.15-.43.27-.69.36-.26.09-.54.13-.85.13-.35,0-.69-.06-1.01-.19s-.61-.31-.85-.55c-.25-.24-.44-.54-.58-.89s-.21-.75-.21-1.2c0-.42.07-.8.21-1.14.14-.34.32-.63.55-.88.23-.25.5-.44.81-.57s.63-.2.96-.2c.4,0,.76.07,1.08.2.32.14.58.32.8.57s.38.53.49.87c.11.34.17.72.17,1.13,0,.07,0,.13,0,.19,0,.06,0,.11-.02.14h-3.98c0,.23.05.45.13.65.08.2.19.37.33.51.14.14.31.25.51.33.19.08.4.12.62.12.43,0,.76-.1.99-.31.23-.21.39-.46.5-.76l.89.31ZM140.36,129.08c-.01-.38-.14-.7-.38-.96s-.6-.39-1.07-.39c-.22,0-.42.04-.59.12-.17.08-.32.18-.44.31-.12.13-.22.27-.29.43-.07.16-.11.33-.12.5h2.89Z"/>
    <path class="cls-6" d="M142.65,131.56c0-.21.07-.39.22-.54s.33-.23.54-.23.39.08.54.23.22.33.22.54-.07.39-.22.54c-.15.15-.33.22-.54.22s-.39-.07-.54-.22c-.15-.15-.22-.33-.22-.54Z"/>
    <path class="cls-6" d="M146.44,132.32c.04.37.18.68.45.93s.59.37,1,.37c.56,0,.97-.14,1.23-.43.26-.29.39-.71.39-1.29v-.76c-.12.24-.33.45-.6.62-.28.17-.62.25-1.01.25-.35,0-.68-.06-.97-.19s-.55-.3-.77-.53c-.22-.22-.38-.49-.51-.81-.12-.31-.18-.66-.18-1.03s.06-.69.18-1.01c.12-.31.28-.58.49-.81.21-.23.47-.41.76-.55s.63-.2,1-.2c.41,0,.75.07,1.02.22s.47.35.61.62v-.74h1.02v4.9c0,.34-.04.67-.13.98-.09.32-.24.6-.45.85s-.48.44-.82.59c-.34.15-.75.23-1.25.23-.33,0-.64-.05-.92-.15s-.53-.24-.75-.41c-.22-.18-.39-.38-.53-.62-.14-.24-.22-.5-.25-.79l1-.23ZM148.04,131.15c.45,0,.81-.15,1.09-.46.28-.31.42-.72.42-1.23s-.14-.92-.42-1.23c-.28-.31-.64-.46-1.09-.46s-.83.15-1.11.46c-.28.31-.42.72-.42,1.23s.14.93.41,1.24c.27.3.65.46,1.12.46Z"/>
    <path class="cls-6" d="M152.07,131.56c0-.21.07-.39.22-.54.15-.15.33-.23.54-.23s.39.08.54.23c.15.15.23.33.23.54s-.08.39-.23.54c-.15.15-.33.22-.54.22s-.39-.07-.54-.22c-.15-.15-.22-.33-.22-.54Z"/>
    <path class="cls-6" d="M157.6,127.57c0-.05-.01-.1-.01-.15v-.14c0-.31.06-.6.17-.88s.27-.52.48-.74c.21-.21.47-.38.78-.51.31-.12.66-.19,1.04-.19s.72.06,1.02.18c.3.12.55.28.76.47.21.2.36.43.47.7.11.27.16.55.16.84,0,.47-.12.89-.36,1.26-.24.37-.57.68-.98.94l-1.41.9c-.21.13-.39.28-.55.43-.16.16-.27.35-.32.57h3.66v1h-4.99c0-.29.04-.57.1-.83.06-.26.16-.5.3-.74.13-.23.31-.46.52-.67s.47-.41.77-.61l1.19-.77c.34-.21.58-.44.74-.69.16-.25.24-.51.24-.79,0-.16-.03-.32-.08-.47-.06-.15-.14-.28-.25-.4s-.25-.21-.42-.28c-.17-.07-.37-.1-.59-.1s-.44.04-.61.12c-.17.08-.31.18-.43.31s-.2.29-.25.46c-.05.18-.08.37-.08.57,0,.05,0,.1,0,.15,0,.05,0,.11.02.17l-1.08-.13Z"/>
    <path class="cls-6" d="M163.33,129.42l3.06-4.28h1.49v4.52h1.22v1h-1.22v1.61h-1.05v-1.61h-3.5v-1.24ZM166.82,126.17l-2.51,3.49h2.51v-3.49Z"/>
    <path class="cls-6" d="M169.81,128.71c0-.49.05-.96.14-1.4.09-.44.26-.84.49-1.19.24-.35.53-.63.89-.84.36-.21.79-.31,1.3-.31s.94.1,1.3.31c.36.21.66.48.89.84.23.35.4.75.49,1.19.1.44.14.91.14,1.4s-.05.96-.14,1.4c-.09.44-.26.84-.49,1.19-.24.35-.53.63-.89.84s-.79.31-1.3.31-.94-.1-1.3-.31c-.36-.21-.66-.48-.89-.84-.23-.35-.4-.75-.49-1.19-.1-.44-.14-.91-.14-1.4ZM170.87,128.71c0,1.1.21,1.87.63,2.31.14.15.3.26.48.34.18.08.4.12.65.12s.47-.04.65-.12c.18-.08.34-.19.48-.34.42-.44.63-1.21.63-2.31s-.21-1.87-.63-2.31c-.14-.15-.3-.26-.48-.34s-.4-.12-.65-.12-.47.04-.65.12-.34.19-.48.34c-.42.44-.63,1.21-.63,2.31Z"/>
    <path class="cls-6" d="M176.48,127.57c0-.05-.01-.1-.01-.15v-.14c0-.31.06-.6.17-.88s.27-.52.48-.74c.21-.21.47-.38.78-.51.31-.12.66-.19,1.04-.19s.72.06,1.02.18c.3.12.55.28.76.47.21.2.36.43.47.7.11.27.16.55.16.84,0,.47-.12.89-.36,1.26-.24.37-.57.68-.98.94l-1.41.9c-.21.13-.39.28-.55.43-.16.16-.27.35-.32.57h3.66v1h-4.99c0-.29.04-.57.1-.83.06-.26.16-.5.3-.74.13-.23.31-.46.52-.67s.47-.41.77-.61l1.19-.77c.34-.21.58-.44.74-.69.16-.25.24-.51.24-.79,0-.16-.03-.32-.08-.47-.06-.15-.14-.28-.25-.4s-.25-.21-.42-.28c-.17-.07-.37-.1-.59-.1s-.44.04-.61.12c-.17.08-.31.18-.43.31s-.2.29-.25.46c-.05.18-.08.37-.08.57,0,.05,0,.1,0,.15,0,.05,0,.11.02.17l-1.08-.13Z"/>
    <path class="cls-6" d="M192.93,132.27v-6.07l-2.66,6.07h-.99l-2.64-6.07v6.07h-1.07v-7.8h1.46l2.75,6.35,2.77-6.35h1.44v7.8h-1.07Z"/>
    <path class="cls-6" d="M201.03,132.27v-3.46h-3.98v3.46h-1.08v-7.8h1.08v3.33h3.98v-3.33h1.08v7.8h-1.08Z"/>
    <path class="cls-6" d="M203.54,132.27v-.9l2.9-3.45h-2.86v-.94h4.15v.9l-2.9,3.45h2.96v.94h-4.25Z"/>
  </g>
  <g>
    <rect class="cls-4" x="83.59" y="160.32" width="124.64" height="48.75"/>
    <path class="cls-6" d="M137.28,182.45v-8.71h1.83v8.71h-1.83Z"/>
    <path class="cls-6" d="M143.47,176.29c.45,0,.87.08,1.25.23.39.16.72.38,1,.66.28.28.51.61.67,1s.25.81.25,1.28-.08.89-.25,1.28-.39.72-.67,1c-.29.28-.62.5-1,.66-.38.16-.8.23-1.25.23s-.87-.08-1.25-.23c-.38-.16-.72-.38-1-.66s-.51-.62-.67-1-.25-.82-.25-1.28.08-.89.25-1.28.39-.72.67-1,.62-.5,1-.66c.39-.16.8-.23,1.25-.23ZM143.47,180.94c.18,0,.34-.03.51-.09.16-.06.3-.15.43-.28.12-.12.22-.28.3-.46s.12-.4.12-.66-.04-.47-.12-.66-.18-.34-.3-.46c-.12-.12-.27-.21-.43-.27-.16-.06-.33-.09-.51-.09s-.33.03-.5.09c-.16.06-.31.15-.43.27-.12.12-.22.27-.3.46s-.11.41-.11.66.04.47.11.66.18.34.3.47c.12.12.27.22.43.28.17.06.33.09.5.09Z"/>
    <path class="cls-6" d="M153.16,176.47l1.17,3.55,1-3.55h1.79l-1.85,5.98h-1.82l-1.3-3.86-1.28,3.86h-1.85l-1.88-5.98h1.9l1,3.54,1.18-3.54h1.94Z"/>
    <path class="cls-6" d="M163.5,180.73c-.07.26-.18.5-.34.73-.15.23-.34.44-.58.61s-.5.31-.81.41c-.31.1-.65.15-1.03.15-.41,0-.8-.07-1.18-.22-.38-.14-.71-.35-1-.63-.29-.27-.52-.61-.69-1-.17-.39-.25-.84-.25-1.35s.08-.92.25-1.31.38-.72.66-.99c.28-.27.6-.48.96-.63.36-.15.73-.22,1.12-.22.93,0,1.66.27,2.2.81.53.54.8,1.29.8,2.26,0,.13,0,.25-.01.37s-.02.18-.02.2h-4.16c0,.17.05.32.13.46.08.14.18.26.3.37.12.1.27.18.43.24s.33.08.51.08c.34,0,.6-.07.79-.22.19-.14.33-.33.42-.57l1.53.43ZM161.84,178.74c0-.11-.03-.23-.08-.35-.04-.12-.12-.23-.21-.32s-.22-.18-.37-.24c-.15-.06-.33-.1-.55-.1-.19,0-.36.03-.51.1-.14.06-.27.14-.37.24-.1.1-.18.2-.23.32-.05.12-.08.24-.09.35h2.39Z"/>
    <path class="cls-6" d="M168.59,178.27c-.1-.02-.2-.04-.3-.05-.1,0-.19-.01-.28-.01-.19,0-.36.03-.53.08-.17.06-.32.15-.45.28-.13.13-.23.3-.31.51s-.12.46-.12.76v2.61h-1.83v-5.98h1.77v.81c.08-.17.18-.31.31-.42s.26-.2.4-.26c.14-.06.29-.11.44-.14.15-.03.28-.04.4-.04.18,0,.34.02.48.06v1.8Z"/>
    <path class="cls-6" d="M172.59,182.45v-8.71h1.79v3.3c.13-.18.35-.35.66-.49s.67-.22,1.08-.22c.43,0,.82.08,1.17.23s.64.37.87.65c.24.28.42.61.55.99.13.38.19.8.19,1.25s-.07.88-.21,1.26c-.14.39-.34.72-.59.99-.25.28-.55.49-.9.65-.35.16-.73.23-1.15.23s-.75-.08-1.04-.23-.51-.34-.64-.58v.67h-1.77ZM177.07,179.45c0-.25-.04-.47-.11-.66s-.17-.34-.29-.46c-.12-.12-.27-.21-.43-.27s-.33-.09-.51-.09-.35.03-.51.09c-.17.06-.31.15-.43.27-.12.12-.22.27-.3.46s-.12.41-.12.66.04.47.12.65c.08.18.18.34.3.46.12.12.27.22.43.28.16.06.33.1.51.1s.35-.03.51-.09.31-.15.43-.28c.12-.12.22-.28.29-.47s.11-.41.11-.66Z"/>
    <path class="cls-6" d="M182.82,176.29c.45,0,.87.08,1.25.23.39.16.72.38,1.01.66.28.28.51.61.67,1,.17.38.25.81.25,1.28s-.08.89-.25,1.28c-.16.39-.39.72-.67,1-.29.28-.62.5-1.01.66-.38.16-.8.23-1.25.23s-.87-.08-1.25-.23-.72-.38-1-.66c-.29-.28-.51-.62-.67-1-.17-.39-.25-.82-.25-1.28s.08-.89.25-1.28c.16-.38.39-.72.67-1,.28-.28.62-.5,1-.66s.8-.23,1.25-.23ZM182.82,180.94c.18,0,.34-.03.5-.09.16-.06.3-.15.43-.28.12-.12.22-.28.3-.46s.11-.4.11-.66-.04-.47-.11-.66-.18-.34-.3-.46c-.12-.12-.27-.21-.43-.27-.16-.06-.33-.09-.5-.09s-.34.03-.5.09-.31.15-.43.27c-.12.12-.22.27-.3.46s-.11.41-.11.66.04.47.11.66.18.34.3.47c.12.12.27.22.43.28s.33.09.5.09Z"/>
    <path class="cls-6" d="M191.04,182.45c-.02-.06-.03-.15-.04-.28s-.01-.24-.01-.32c-.16.26-.39.44-.69.56s-.6.17-.91.17c-.36,0-.68-.06-.97-.19-.29-.12-.52-.29-.72-.51-.19-.21-.34-.46-.44-.74-.1-.28-.15-.58-.15-.9v-3.78h1.83v3.39c0,.29.08.53.23.73.16.2.4.3.73.3.3,0,.55-.09.73-.28.18-.19.27-.43.27-.74v-3.4h1.83v4.91c0,.27,0,.51.03.7.02.2.03.32.04.37h-1.76Z"/>
    <path class="cls-6" d="M196.17,182.45h-1.83v-5.98h1.77v.69c.08-.14.19-.27.31-.37.13-.1.27-.19.42-.26.15-.07.3-.12.47-.16s.32-.05.48-.05c.38,0,.7.06.97.19s.5.29.68.51c.18.22.31.47.4.76.08.29.13.6.13.93v3.75h-1.83v-3.44c0-.3-.08-.54-.23-.74-.16-.2-.4-.29-.74-.29-.3,0-.54.1-.72.29-.18.2-.26.45-.26.75v3.43Z"/>
    <path class="cls-6" d="M207.39,181.38c0,.27,0,.5.02.69s.02.31.03.38h-1.76s-.02-.12-.03-.23-.02-.23-.02-.35c-.14.21-.35.38-.63.51-.29.13-.61.2-.97.2-.42,0-.82-.08-1.18-.23-.36-.16-.67-.37-.94-.65-.26-.28-.47-.61-.62-.99-.15-.38-.22-.81-.22-1.26s.07-.85.22-1.23.34-.71.6-.99c.26-.28.56-.5.91-.66s.74-.23,1.17-.23c.26,0,.48.02.66.07.19.04.34.1.47.16.13.06.23.13.31.2s.13.14.17.19v-3.2h1.8v7.64ZM202.91,179.45c0,.25.04.47.11.65.07.18.17.34.29.46.12.12.27.22.43.28.17.06.33.1.51.1s.35-.03.51-.1c.16-.06.31-.16.43-.28.12-.12.22-.28.29-.46.07-.18.11-.4.11-.65s-.04-.47-.11-.65c-.07-.18-.17-.34-.29-.46-.12-.12-.27-.22-.43-.28s-.33-.09-.51-.09-.35.03-.51.09-.31.15-.43.28c-.12.12-.22.28-.29.46-.07.18-.11.4-.11.65Z"/>
    <path class="cls-6" d="M143.34,194.14c-.07.23-.18.45-.32.65-.14.2-.31.38-.52.53-.2.15-.43.27-.69.36-.26.09-.54.13-.85.13-.35,0-.69-.06-1.01-.19-.32-.12-.61-.31-.85-.55-.25-.24-.44-.54-.58-.89-.14-.35-.21-.75-.21-1.2,0-.42.07-.8.21-1.14.14-.34.32-.63.55-.88.23-.25.5-.44.81-.57.31-.14.63-.2.96-.2.4,0,.77.07,1.08.2s.58.32.8.57c.21.24.38.53.49.87s.17.72.17,1.13c0,.07,0,.13,0,.19,0,.06,0,.11-.02.14h-3.98c0,.23.05.45.13.65.08.2.19.37.33.51s.31.25.51.33c.19.08.4.12.62.12.43,0,.76-.1.99-.31.23-.21.39-.46.49-.76l.89.31ZM142.29,192.46c-.01-.38-.14-.7-.38-.96s-.6-.39-1.07-.39c-.22,0-.42.04-.59.12-.17.08-.32.18-.44.31-.12.13-.22.27-.29.43-.07.16-.11.33-.12.5h2.89Z"/>
    <path class="cls-6" d="M144.58,194.94c0-.21.07-.39.22-.54.15-.15.33-.23.54-.23s.39.08.54.23.23.33.23.54-.08.39-.23.54c-.15.15-.33.22-.54.22s-.39-.07-.54-.22c-.15-.15-.22-.33-.22-.54Z"/>
    <path class="cls-6" d="M148.38,195.7c.04.37.18.68.45.93.26.25.59.37,1,.37.56,0,.97-.14,1.23-.43.26-.29.39-.71.39-1.29v-.76c-.12.24-.33.45-.6.62-.28.17-.62.25-1.01.25-.35,0-.68-.06-.97-.19s-.55-.3-.77-.53c-.22-.22-.38-.49-.51-.81-.12-.31-.18-.66-.18-1.03s.06-.69.18-1.01c.12-.31.28-.58.49-.81.21-.23.47-.41.77-.55s.63-.2,1-.2c.41,0,.75.07,1.02.22s.47.35.61.62v-.74h1.02v4.9c0,.34-.04.67-.13.98-.09.32-.24.6-.45.85s-.48.44-.82.59-.75.23-1.25.23c-.33,0-.64-.05-.92-.15-.28-.1-.53-.24-.75-.41-.22-.18-.39-.38-.53-.62-.14-.24-.22-.5-.25-.79l1-.23ZM149.97,194.53c.45,0,.81-.15,1.09-.46.28-.31.42-.72.42-1.23s-.14-.92-.42-1.23c-.28-.31-.64-.46-1.09-.46s-.83.15-1.11.46c-.28.31-.42.72-.42,1.23s.14.93.41,1.24c.27.3.65.46,1.12.46Z"/>
    <path class="cls-6" d="M154.01,194.94c0-.21.07-.39.22-.54s.33-.23.54-.23.39.08.54.23c.15.15.22.33.22.54s-.08.39-.22.54c-.15.15-.33.22-.54.22s-.39-.07-.54-.22c-.15-.15-.22-.33-.22-.54Z"/>
    <path class="cls-6" d="M159.53,190.95c0-.05-.01-.1-.01-.15v-.14c0-.31.05-.6.16-.88.11-.28.27-.52.48-.74.21-.21.47-.38.78-.51.31-.12.66-.19,1.04-.19s.72.06,1.02.18c.3.12.55.28.76.47.21.2.36.43.47.7.11.27.16.55.16.84,0,.47-.12.89-.36,1.26-.24.37-.57.68-.98.94l-1.41.9c-.21.13-.39.28-.55.43-.16.16-.27.35-.32.57h3.66v1h-4.99c0-.29.04-.57.11-.83.06-.26.16-.5.3-.74.13-.23.31-.46.52-.67.21-.21.47-.41.77-.61l1.19-.77c.34-.21.58-.44.74-.69.16-.25.24-.51.24-.79,0-.16-.03-.32-.08-.47s-.14-.28-.25-.4c-.11-.12-.25-.21-.42-.28-.17-.07-.37-.1-.59-.1s-.44.04-.61.12-.32.18-.43.31c-.11.13-.2.29-.25.46-.05.18-.08.37-.08.57,0,.05,0,.1,0,.15s0,.11.02.17l-1.08-.13Z"/>
    <path class="cls-6" d="M165.26,192.8l3.06-4.28h1.49v4.52h1.22v1h-1.22v1.61h-1.05v-1.61h-3.5v-1.24ZM168.76,189.55l-2.51,3.49h2.51v-3.49Z"/>
    <path class="cls-6" d="M171.74,192.08c0-.49.05-.96.14-1.4s.26-.84.5-1.19.53-.63.89-.84c.36-.21.79-.31,1.3-.31s.94.1,1.3.31c.36.21.66.48.89.84s.4.75.5,1.19.14.91.14,1.4-.05.96-.14,1.4-.26.84-.5,1.19-.53.63-.89.84-.79.31-1.3.31-.94-.1-1.3-.31c-.36-.21-.66-.48-.89-.84s-.4-.75-.5-1.19-.14-.91-.14-1.4ZM172.81,192.08c0,1.1.21,1.87.63,2.31.14.15.3.26.48.34.18.08.4.12.65.12s.47-.04.66-.12c.18-.08.34-.19.48-.34.42-.44.63-1.21.63-2.31s-.21-1.87-.63-2.31c-.14-.15-.3-.26-.48-.34-.18-.08-.4-.12-.66-.12s-.47.04-.65.12-.34.19-.48.34c-.42.44-.63,1.21-.63,2.31Z"/>
    <path class="cls-6" d="M179.95,195.65v-5.03h-1.73v-.76c.5-.01.91-.14,1.23-.39.32-.25.52-.56.6-.95h.95v7.13h-1.06Z"/>
    <path class="cls-6" d="M192.93,195.65v-6.07l-2.66,6.07h-.99l-2.64-6.07v6.07h-1.07v-7.8h1.46l2.75,6.35,2.77-6.35h1.44v7.8h-1.07Z"/>
    <path class="cls-6" d="M201.03,195.65v-3.46h-3.98v3.46h-1.08v-7.8h1.08v3.33h3.98v-3.33h1.08v7.8h-1.08Z"/>
    <path class="cls-6" d="M203.54,195.65v-.9l2.9-3.45h-2.86v-.94h4.15v.9l-2.9,3.45h2.96v.94h-4.25Z"/>
  </g>
  <g>
    <g>
      <line class="cls-1" x1="54.87" y1="30.67" x2="54.87" y2="187.92"/>
      <polygon class="cls-8" points="50.38 31.98 54.87 24.21 59.36 31.98 50.38 31.98"/>
      <polygon class="cls-8" points="50.38 186.61 54.87 194.38 59.36 186.61 50.38 186.61"/>
    </g>
    <g>
      <rect class="cls-5" x="7.82" y="97.96" width="94.1" height="22.67" transform="translate(-54.42 164.17) rotate(-90)"/>
      <g>
        <rect class="cls-4" x="43.54" y="62.24" width="22.67" height="94.1"/>
        <path class="cls-6" d="M59.77,135.57c0,.6-.11,1.17-.32,1.72s-.52,1.03-.93,1.45-.91.76-1.51,1.01c-.6.26-1.28.38-2.05.38s-1.45-.13-2.04-.39c-.59-.26-1.09-.6-1.5-1.03-.41-.43-.72-.92-.93-1.47s-.32-1.11-.32-1.68c0-.53.07-1.01.21-1.46s.33-.83.58-1.18.56-.64.92-.88c.36-.24.77-.42,1.21-.54l.42,1.18c-.7.17-1.24.5-1.61.99s-.56,1.11-.56,1.88c0,.42.08.82.23,1.21s.38.75.68,1.05c.3.31.68.55,1.14.73.46.18.98.27,1.58.27s1.12-.09,1.58-.27c.45-.18.83-.43,1.14-.73.31-.31.54-.66.69-1.05s.23-.8.23-1.21c0-.39-.06-.75-.17-1.07s-.27-.6-.46-.85c-.2-.25-.43-.45-.7-.62-.27-.17-.57-.3-.88-.4l.42-1.13c.43.12.83.3,1.2.55s.67.53.93.88c.26.34.46.74.61,1.18.15.45.22.93.22,1.46Z"/>
        <path class="cls-6" d="M59.57,123.84h-4.09v4.7h4.09v1.27h-9.21v-1.27h3.94v-4.7h-3.94v-1.27h9.21v1.27Z"/>
        <path class="cls-6" d="M57,114.85v4.08l2.57.97v1.36l-9.21-3.66v-1.47l9.21-3.66v1.38l-2.57,1ZM55.82,118.48v-3.17l-4.13,1.6,4.13,1.57Z"/>
        <path class="cls-6" d="M59.57,104.93l-7.51,4.97h7.51v1.27h-9.21v-1.7l7.07-4.6h-7.07v-1.27h9.21v1.33Z"/>
        <path class="cls-6" d="M59.57,95.02l-7.51,4.97h7.51v1.27h-9.21v-1.7l7.07-4.6h-7.07v-1.27h9.21v1.33Z"/>
        <path class="cls-6" d="M59.57,91.36h-9.21v-5.6h1.18v4.32h2.83v-3.92h1.19v3.92h2.82v-4.32h1.18v5.6Z"/>
        <path class="cls-6" d="M59.57,83.82h-9.21v-1.27h8.01v-4.35h1.19v5.62Z"/>
      </g>
    </g>
  </g>
  <rect class="cls-2" x="21.79" y="18.83" width="637.69" height="183.31"/>
  <line class="cls-2" x1="219.91" y1="18.83" x2="219.91" y2="202.7"/>
  <line class="cls-2" x1="219.91" y1="36.17" x2="659.48" y2="36.17"/>
  <line class="cls-2" x1="219.91" y1="111.31" x2="659.48" y2="111.31"/>
  <line class="cls-2" x1="219.91" y1="184.69" x2="659.48" y2="184.69"/>
  <g>
    <line class="cls-3" x1="284.87" y1="110.68" x2="284.87" y2="74.87"/>
    <polygon points="287.68 75.69 284.87 70.83 282.07 75.69 287.68 75.69"/>
  </g>
  <g>
    <line class="cls-3" x1="517.25" y1="111.4" x2="517.25" y2="147.21"/>
    <polygon points="514.45 146.39 517.25 151.24 520.06 146.39 514.45 146.39"/>
  </g>
  <rect class="cls-8" x="234.24" y="47.52" width="101.27" height="12.99"/>
  <path class="cls-5" d="M284.92,57.58v-4.64h-1.71v-1.16c.26,0,.51-.04.74-.11.23-.07.42-.17.59-.29s.31-.26.41-.42c.11-.16.17-.33.2-.52h1.48v7.14h-1.73Z"/>
  <g>
    <rect class="cls-8" x="464.98" y="161.24" width="101.27" height="12.99"/>
    <path class="cls-5" d="M511.67,167.74c0-.44.04-.88.13-1.31.08-.43.25-.84.5-1.21.23-.36.55-.65.95-.88.4-.23.89-.34,1.47-.34s1.08.11,1.48.34c.4.23.72.52.95.88.25.37.42.78.5,1.21.08.43.13.87.13,1.31s-.04.88-.13,1.31c-.08.43-.25.84-.5,1.21-.23.35-.55.64-.95.87s-.89.35-1.48.35-1.07-.12-1.47-.35-.72-.52-.95-.87c-.25-.37-.42-.78-.5-1.21-.08-.43-.13-.87-.13-1.31ZM513.41,167.74c0,.29.02.56.06.83.04.27.11.51.21.72.1.2.24.36.4.48.17.12.38.18.64.18s.49-.06.65-.18c.16-.12.29-.28.4-.48.1-.21.17-.45.21-.72.04-.27.06-.54.06-.83s-.02-.56-.06-.83c-.04-.27-.11-.51-.21-.72-.1-.2-.23-.36-.4-.48-.16-.12-.38-.18-.65-.18s-.48.06-.64.18c-.17.12-.3.28-.4.48-.1.21-.17.45-.21.72-.04.27-.06.54-.06.83Z"/>
  </g>
  <g>
    <rect class="cls-4" x="297.5" y="56.38" width="124.64" height="48.75"/>
    <path class="cls-7" d="M300.17,74.54v-2.15h.9v2.15h2.07v.87h-2.07v2.17h-.9v-2.17h-2.06v-.87h2.06Z"/>
    <path class="cls-6" d="M308.76,73.78v4.36h-1.07v-4.36h-.98v-.94h.98v-.89c0-.29.04-.55.14-.78.09-.23.22-.42.37-.57.16-.15.34-.27.55-.35.21-.08.43-.12.68-.12.18,0,.32.01.42.04.11.03.17.05.19.07v.92s-.08-.03-.15-.04c-.07-.01-.17-.02-.3-.02-.09,0-.18.01-.28.04-.1.03-.19.07-.27.14s-.15.16-.2.27c-.05.12-.08.27-.08.45v.84h1.28v.94h-1.28Z"/>
    <path class="cls-6" d="M314.08,73.89c-.15-.02-.3-.03-.45-.03-.43,0-.78.13-1.05.38s-.4.67-.4,1.25v2.65h-1.03v-5.29h1.01v.92c.1-.21.21-.37.34-.5.13-.13.26-.23.4-.31.14-.08.28-.13.43-.16s.29-.04.42-.04c.07,0,.14,0,.2.01.06,0,.11.02.14.02v1.1Z"/>
    <path class="cls-6" d="M319.79,76.63c-.07.23-.18.45-.32.65-.14.2-.32.38-.52.53-.2.15-.43.27-.69.36-.26.09-.54.13-.85.13-.35,0-.69-.06-1.01-.19-.32-.12-.61-.31-.85-.55-.25-.24-.44-.54-.58-.89-.14-.35-.21-.75-.21-1.2,0-.42.07-.8.21-1.14.14-.34.32-.63.56-.88.23-.25.5-.44.81-.57.31-.14.63-.2.96-.2.4,0,.76.07,1.08.2s.58.32.8.57.38.53.49.87.17.72.17,1.13c0,.07,0,.13,0,.19,0,.06,0,.11-.02.14h-3.98c0,.23.05.45.13.65.08.2.19.37.34.51s.31.25.51.33c.19.08.4.12.62.12.43,0,.76-.1.99-.31.23-.21.39-.46.5-.76l.89.31ZM318.75,74.95c-.02-.38-.14-.7-.38-.96-.24-.26-.6-.39-1.07-.39-.22,0-.42.04-.59.12-.17.08-.32.18-.44.31-.12.13-.22.27-.29.43-.07.16-.11.33-.12.5h2.89Z"/>
    <path class="cls-6" d="M324.86,80.23v-2.84c-.14.27-.35.49-.63.65-.28.16-.62.24-1.02.24s-.73-.07-1.03-.22c-.31-.15-.57-.35-.79-.6-.22-.26-.39-.55-.51-.89-.12-.34-.18-.7-.18-1.09s.06-.73.17-1.06c.11-.33.28-.63.49-.88s.47-.45.78-.6c.31-.15.66-.22,1.04-.22.23,0,.43.03.62.08.18.05.35.13.49.21s.26.19.36.3c.1.11.17.23.23.35v-.81h1v7.38h-1.02ZM321.76,75.48c0,.27.04.52.11.75.07.23.18.43.31.6.13.17.3.3.49.4.19.1.4.14.64.14s.45-.05.64-.14c.19-.1.36-.23.49-.4.14-.17.25-.37.32-.6s.11-.48.11-.75-.04-.52-.11-.75c-.07-.23-.18-.42-.32-.58-.14-.16-.3-.29-.49-.38-.19-.09-.4-.14-.64-.14-.48,0-.86.17-1.14.51s-.41.79-.41,1.34Z"/>
    <path class="cls-6" d="M331.02,77.5c-.15.28-.37.48-.66.61-.29.13-.59.19-.9.19s-.58-.06-.83-.17-.45-.26-.62-.45c-.17-.19-.3-.41-.39-.67-.09-.26-.14-.54-.14-.84v-3.33h1.03v3.18c0,.18.02.36.07.52.04.17.11.31.21.43.09.12.22.22.37.3s.33.11.56.11c.42,0,.73-.12.94-.37.21-.25.31-.58.31-.98v-3.19h1.03v4.31c0,.21,0,.41.02.58.01.17.02.31.04.4h-.99c-.02-.06-.03-.15-.03-.28,0-.13-.01-.25-.01-.36Z"/>
    <path class="cls-6" d="M338.37,76.63c-.07.23-.18.45-.32.65-.14.2-.31.38-.52.53-.2.15-.43.27-.69.36-.26.09-.54.13-.85.13-.35,0-.69-.06-1.01-.19-.32-.12-.61-.31-.85-.55-.25-.24-.44-.54-.58-.89-.14-.35-.21-.75-.21-1.2,0-.42.07-.8.21-1.14.14-.34.32-.63.55-.88.23-.25.5-.44.81-.57.31-.14.63-.2.96-.2.4,0,.77.07,1.08.2s.58.32.8.57c.21.24.38.53.49.87s.17.72.17,1.13c0,.07,0,.13,0,.19,0,.06,0,.11-.02.14h-3.98c0,.23.05.45.13.65.08.2.19.37.33.51s.31.25.51.33c.19.08.4.12.62.12.43,0,.76-.1.99-.31.23-.21.39-.46.49-.76l.89.31ZM337.32,74.95c-.01-.38-.14-.7-.38-.96s-.6-.39-1.07-.39c-.22,0-.42.04-.59.12-.17.08-.32.18-.44.31-.12.13-.22.27-.29.43-.07.16-.11.33-.12.5h2.89Z"/>
    <path class="cls-6" d="M340.76,78.14h-1.03v-5.29h1.01v.76c.19-.33.43-.56.73-.7s.59-.21.9-.21.59.05.83.16c.24.11.44.25.59.44s.28.41.35.67c.08.26.12.53.12.83v3.35h-1.03v-3.18c0-.18-.02-.36-.06-.52-.04-.16-.11-.3-.21-.42s-.23-.22-.38-.29c-.16-.07-.35-.1-.58-.1-.21,0-.38.04-.54.12-.15.08-.28.18-.38.31-.1.13-.18.29-.23.46-.05.18-.08.36-.08.56v3.06Z"/>
    <path class="cls-6" d="M348.13,73.64c-.21,0-.41.04-.61.12-.19.08-.36.19-.51.35-.15.15-.27.35-.36.58s-.13.5-.13.81.04.57.13.8.21.43.35.58c.15.16.32.28.52.36.2.08.4.12.62.12.25,0,.46-.04.63-.11.17-.07.32-.17.43-.27.11-.11.2-.23.27-.36.07-.13.11-.24.14-.35l.91.4c-.07.19-.16.38-.29.58-.12.19-.29.37-.48.53-.2.16-.43.29-.7.39s-.57.15-.92.15c-.39,0-.75-.07-1.07-.21-.33-.14-.61-.34-.84-.59-.24-.25-.42-.55-.56-.89-.13-.34-.2-.71-.2-1.12s.07-.79.2-1.13c.14-.34.32-.64.56-.89s.52-.44.85-.58c.33-.14.68-.21,1.05-.21.35,0,.66.05.93.15s.5.23.69.39c.19.16.35.34.47.54s.21.4.26.6l-.93.4c-.04-.13-.09-.26-.15-.4-.07-.13-.16-.25-.27-.36-.11-.11-.25-.19-.41-.26-.16-.07-.36-.1-.58-.1Z"/>
    <path class="cls-6" d="M351.92,80.35l1.32-2.79-2.28-4.71h1.19l1.65,3.65,1.58-3.65h1.11l-3.44,7.5h-1.13Z"/>
    <path class="cls-6" d="M363.95,77.33c-.12.26-.32.48-.6.67s-.62.28-1.04.28c-.39,0-.74-.07-1.05-.21-.31-.14-.57-.34-.79-.59-.22-.25-.38-.55-.5-.89-.12-.34-.18-.71-.18-1.11,0-.37.06-.73.18-1.06.12-.33.29-.63.51-.88.22-.25.48-.45.79-.6.31-.15.65-.23,1.02-.23.23,0,.44.03.62.08s.33.12.47.2c.13.08.24.18.33.29.09.11.15.21.2.32v-3.42h1.02v6.98c0,.26,0,.47.02.65.01.18.03.29.03.33h-1c-.01-.06-.03-.15-.04-.28-.01-.13-.02-.27-.02-.43v-.09ZM360.85,75.48c0,.27.04.52.11.75.07.23.17.43.3.6.13.17.29.3.48.4.19.1.41.14.66.14s.45-.05.64-.15c.19-.1.35-.23.48-.4.13-.17.23-.37.3-.6.07-.23.1-.49.1-.76,0-.55-.13-.99-.4-1.33-.27-.34-.64-.51-1.12-.51-.23,0-.45.05-.64.14s-.36.22-.5.38-.24.36-.31.59c-.07.23-.11.48-.11.75Z"/>
    <path class="cls-6" d="M371.31,76.63c-.07.23-.18.45-.32.65s-.32.38-.52.53c-.2.15-.43.27-.69.36-.26.09-.54.13-.85.13-.35,0-.69-.06-1.01-.19s-.61-.31-.85-.55c-.25-.24-.44-.54-.58-.89s-.21-.75-.21-1.2c0-.42.07-.8.21-1.14.14-.34.32-.63.55-.88.23-.25.5-.44.81-.57s.63-.2.96-.2c.4,0,.76.07,1.08.2.32.14.58.32.8.57s.38.53.49.87c.11.34.17.72.17,1.13,0,.07,0,.13,0,.19,0,.06,0,.11-.02.14h-3.98c0,.23.05.45.13.65.08.2.19.37.33.51.14.14.31.25.51.33.19.08.4.12.62.12.43,0,.76-.1.99-.31.23-.21.39-.46.5-.76l.89.31ZM370.27,74.95c-.01-.38-.14-.7-.38-.96s-.6-.39-1.07-.39c-.22,0-.42.04-.59.12-.17.08-.32.18-.44.31-.12.13-.22.27-.29.43-.07.16-.11.33-.12.5h2.89Z"/>
    <path class="cls-6" d="M375.09,78.14h-1.04l-2.15-5.29h1.17l1.51,4.08,1.52-4.08h1.11l-2.11,5.29Z"/>
    <path class="cls-6" d="M377.96,70.84c0-.21.07-.39.21-.53.14-.14.32-.21.52-.21s.39.07.53.21c.14.14.21.32.21.53s-.07.38-.21.52c-.14.14-.32.21-.53.21s-.38-.07-.52-.21c-.14-.14-.21-.32-.21-.52ZM378.19,78.14v-5.29h1.02v5.29h-1.02Z"/>
    <path class="cls-6" d="M380.64,76.72c0-.23.04-.45.12-.63.08-.19.19-.35.33-.48.14-.13.31-.24.51-.32.2-.08.41-.14.64-.18l1.43-.21c.16-.02.27-.07.33-.14.05-.07.08-.16.08-.25,0-.26-.09-.48-.27-.67s-.47-.28-.88-.28c-.37,0-.65.1-.85.3-.2.2-.31.46-.35.76l-.99-.23c.03-.25.11-.48.23-.69.12-.21.28-.39.47-.54.19-.15.41-.27.67-.35.25-.08.52-.13.81-.13.4,0,.73.05,1.01.16.28.11.51.25.68.42.18.18.3.38.38.62.08.23.12.48.12.74v2.65c0,.23,0,.42.02.56.02.14.03.24.04.31h-1.01c-.02-.07-.03-.15-.04-.26-.01-.11-.02-.26-.02-.45-.06.1-.14.19-.23.3-.09.1-.21.2-.35.29-.14.09-.3.16-.49.21s-.4.08-.63.08c-.27,0-.51-.04-.73-.13-.22-.09-.4-.2-.55-.35-.15-.14-.27-.31-.36-.5-.08-.19-.13-.39-.13-.6ZM382.56,77.43c.21,0,.41-.03.6-.08.19-.05.35-.14.48-.26.14-.12.24-.28.33-.48.08-.2.12-.45.12-.73v-.24l-1.62.24c-.22.04-.4.12-.55.25-.15.13-.22.31-.22.54,0,.2.08.38.23.53s.36.24.63.24Z"/>
    <path class="cls-6" d="M388.11,72.85h1.14v.94h-1.14v2.75c0,.24.05.42.17.54s.3.18.57.18c.07,0,.14,0,.22-.01.08,0,.14-.02.19-.03v.88s-.13.03-.25.06c-.12.03-.28.04-.45.04-.46,0-.81-.13-1.08-.39-.26-.26-.4-.63-.4-1.12v-2.9h-1.01v-.94h.29c.29,0,.49-.08.62-.23s.19-.35.19-.58v-.86h.95v1.67Z"/>
    <path class="cls-6" d="M390.4,70.84c0-.21.07-.39.21-.53s.32-.21.52-.21.39.07.53.21c.14.14.21.32.21.53s-.07.38-.21.52c-.14.14-.32.21-.53.21s-.38-.07-.52-.21-.21-.32-.21-.52ZM390.63,78.14v-5.29h1.02v5.29h-1.02Z"/>
    <path class="cls-6" d="M395.68,72.68c.4,0,.76.07,1.09.21.33.14.62.34.86.59.24.25.43.54.56.89.13.34.2.71.2,1.12s-.07.78-.2,1.12-.32.64-.56.89c-.24.25-.53.45-.86.59-.33.14-.69.21-1.09.21s-.76-.07-1.09-.21c-.33-.14-.62-.34-.86-.59-.24-.25-.43-.55-.56-.89s-.2-.72-.2-1.12.07-.78.2-1.12c.13-.34.32-.64.56-.89.24-.25.53-.45.86-.59.33-.14.69-.21,1.09-.21ZM395.68,77.38c.22,0,.43-.04.63-.12s.37-.2.53-.36c.15-.16.28-.36.36-.59s.13-.51.13-.81-.04-.58-.13-.81-.21-.43-.36-.59-.33-.28-.53-.36c-.2-.08-.41-.12-.63-.12s-.43.04-.63.12c-.2.08-.37.2-.53.36s-.28.36-.36.59-.13.5-.13.81.04.58.13.81.21.43.36.59c.15.16.33.28.53.36s.41.12.63.12Z"/>
    <path class="cls-6" d="M400.74,78.14h-1.03v-5.29h1.01v.76c.19-.33.43-.56.73-.7.29-.14.59-.21.9-.21s.59.05.83.16c.24.11.44.25.59.44.16.19.28.41.35.67.08.26.12.53.12.83v3.35h-1.03v-3.18c0-.18-.02-.36-.06-.52-.04-.16-.11-.3-.21-.42-.1-.12-.23-.22-.38-.29-.16-.07-.35-.1-.58-.1-.21,0-.38.04-.54.12s-.28.18-.38.31c-.1.13-.18.29-.23.46-.05.18-.08.36-.08.56v3.06Z"/>
    <path class="cls-6" d="M298.11,87.85c0-.6.05-1.16.16-1.67.11-.51.25-.98.44-1.41.19-.43.41-.82.67-1.18.26-.36.53-.69.82-.99l.63.55c-.56.63-1.01,1.33-1.34,2.1s-.49,1.63-.49,2.6.16,1.84.49,2.61.77,1.47,1.34,2.09l-.63.55c-.29-.3-.57-.63-.82-.99-.26-.36-.48-.75-.67-1.18-.19-.43-.33-.9-.44-1.41-.11-.51-.16-1.07-.16-1.67Z"/>
    <path class="cls-6" d="M301.38,89.92c0-.23.04-.45.12-.63.08-.19.19-.35.33-.48.14-.13.31-.24.51-.32.2-.08.41-.14.64-.18l1.43-.21c.16-.02.27-.07.33-.14.05-.07.08-.16.08-.25,0-.26-.09-.48-.27-.67s-.47-.28-.88-.28c-.37,0-.65.1-.85.3-.2.2-.31.46-.35.76l-.99-.23c.03-.25.11-.48.23-.69.12-.21.28-.39.47-.54.19-.15.41-.27.67-.35.25-.08.52-.13.81-.13.4,0,.73.05,1.01.16.28.11.51.25.68.42.18.18.3.38.38.62.08.23.12.48.12.74v2.65c0,.23,0,.42.02.56.02.14.03.24.04.31h-1.01c-.02-.07-.03-.15-.04-.26-.01-.11-.02-.26-.02-.45-.06.1-.14.19-.23.3-.09.1-.21.2-.35.29-.14.09-.3.16-.49.21s-.4.08-.63.08c-.27,0-.51-.04-.73-.13-.22-.09-.4-.2-.55-.35-.15-.14-.27-.31-.36-.5-.08-.19-.13-.39-.13-.6ZM303.29,90.63c.21,0,.41-.03.6-.08.19-.05.35-.14.48-.26.14-.12.24-.28.33-.48.08-.2.12-.45.12-.73v-.24l-1.62.24c-.22.04-.4.12-.55.25-.15.13-.22.31-.22.54,0,.2.08.38.23.53s.36.24.63.24Z"/>
    <path class="cls-6" d="M308.85,86.05h1.14v.94h-1.14v2.75c0,.24.05.42.17.54s.3.18.57.18c.07,0,.14,0,.22-.01.08,0,.14-.02.19-.03v.88s-.13.03-.25.06c-.12.03-.28.04-.45.04-.46,0-.81-.13-1.08-.39-.26-.26-.4-.63-.4-1.12v-2.9h-1.01v-.94h.29c.29,0,.49-.08.62-.23s.19-.35.19-.58v-.86h.95v1.67Z"/>
    <path class="cls-6" d="M314.11,91.34v-7.96h1.03v7.96h-1.03Z"/>
    <path class="cls-6" d="M321.52,89.83c-.07.23-.18.45-.32.65-.14.2-.32.38-.52.53-.2.15-.43.27-.69.36-.26.09-.54.13-.85.13-.35,0-.69-.06-1.01-.19-.32-.12-.61-.31-.85-.55-.25-.24-.44-.54-.58-.89-.14-.35-.21-.75-.21-1.2,0-.42.07-.8.21-1.14.14-.34.32-.63.56-.88.23-.25.5-.44.81-.57.31-.14.63-.2.96-.2.4,0,.76.07,1.08.2s.58.32.8.57.38.53.49.87.17.72.17,1.13c0,.07,0,.13,0,.19,0,.06,0,.11-.02.14h-3.98c0,.23.05.45.13.65.08.2.19.37.34.51s.31.25.51.33c.19.08.4.12.62.12.43,0,.76-.1.99-.31.23-.21.39-.46.5-.76l.89.31ZM320.47,88.15c-.02-.38-.14-.7-.38-.96-.24-.26-.6-.39-1.07-.39-.22,0-.42.04-.59.12-.17.08-.32.18-.44.31-.12.13-.22.27-.29.43-.07.16-.11.33-.12.5h2.89Z"/>
    <path class="cls-6" d="M322.54,89.92c0-.23.04-.45.12-.63s.19-.35.33-.48c.14-.13.31-.24.51-.32.2-.08.41-.14.64-.18l1.43-.21c.16-.02.27-.07.32-.14s.08-.16.08-.25c0-.26-.09-.48-.27-.67s-.47-.28-.87-.28c-.37,0-.65.1-.85.3-.2.2-.32.46-.35.76l-.99-.23c.03-.25.1-.48.23-.69.12-.21.28-.39.47-.54.19-.15.41-.27.67-.35.25-.08.52-.13.81-.13.4,0,.73.05,1.01.16s.51.25.68.42c.18.18.3.38.38.62.08.23.12.48.12.74v2.65c0,.23,0,.42.02.56.01.14.03.24.04.31h-1.01c-.01-.07-.03-.15-.04-.26-.01-.11-.02-.26-.02-.45-.06.1-.13.19-.23.3s-.21.2-.35.29c-.14.09-.3.16-.49.21-.19.06-.4.08-.63.08-.27,0-.51-.04-.73-.13-.22-.09-.4-.2-.56-.35-.15-.14-.27-.31-.36-.5-.08-.19-.13-.39-.13-.6ZM324.45,90.63c.21,0,.41-.03.6-.08.19-.05.35-.14.48-.26.14-.12.24-.28.33-.48.08-.2.12-.45.12-.73v-.24l-1.62.24c-.22.04-.4.12-.55.25-.15.13-.22.31-.22.54,0,.2.08.38.23.53.15.16.36.24.63.24Z"/>
    <path class="cls-6" d="M329.06,89.63c.04.28.16.51.36.7.21.19.5.29.87.29.29,0,.52-.07.67-.21.15-.14.23-.3.23-.5,0-.17-.06-.31-.18-.43-.12-.12-.29-.2-.51-.25l-.9-.2c-.42-.09-.74-.26-.97-.53-.23-.26-.35-.58-.35-.96,0-.23.05-.44.15-.64.1-.2.23-.38.4-.53.17-.15.37-.27.6-.36.23-.09.47-.13.73-.13.36,0,.66.05.91.15.25.1.45.23.6.38.15.15.27.31.35.47.08.16.13.3.16.42l-.91.34c-.01-.07-.04-.15-.08-.25-.04-.1-.1-.2-.18-.29-.08-.09-.19-.17-.33-.24-.14-.07-.31-.1-.52-.1-.26,0-.48.07-.64.21s-.24.31-.24.49c0,.34.2.55.6.64l.86.19c.48.1.85.29,1.09.57s.37.61.37,1.01c0,.19-.04.38-.12.57-.08.19-.2.37-.36.53-.16.16-.36.29-.6.39s-.53.15-.86.15c-.37,0-.68-.05-.94-.15-.26-.1-.48-.23-.65-.39-.17-.15-.3-.32-.4-.5s-.15-.35-.17-.5l.93-.33Z"/>
    <path class="cls-6" d="M334.98,86.05h1.14v.94h-1.14v2.75c0,.24.05.42.17.54.11.12.3.18.57.18.07,0,.14,0,.22-.01s.14-.02.19-.03v.88s-.13.03-.25.06c-.12.03-.28.04-.45.04-.46,0-.81-.13-1.08-.39-.26-.26-.4-.63-.4-1.12v-2.9h-1.01v-.94h.29c.29,0,.49-.08.62-.23s.19-.35.19-.58v-.86h.95v1.67Z"/>
    <path class="cls-6" d="M341.37,91.34v-5.03h-1.73v-.76c.5-.01.91-.14,1.23-.39s.52-.56.61-.95h.95v7.13h-1.06Z"/>
    <path class="cls-6" d="M346.33,91.5c-.41,0-.78-.05-1.09-.16-.32-.11-.59-.25-.81-.43-.22-.18-.39-.4-.51-.65-.12-.25-.18-.52-.18-.8,0-.44.13-.81.39-1.12.26-.3.58-.52.96-.64-.16-.06-.31-.14-.46-.25s-.27-.24-.37-.38c-.1-.14-.18-.3-.25-.48-.06-.18-.09-.36-.09-.56,0-.29.06-.56.18-.8.12-.24.29-.45.51-.63.22-.18.47-.31.76-.41.29-.1.61-.14.95-.14s.65.05.95.14c.29.1.55.23.76.41.22.18.38.39.51.63.12.24.18.51.18.8,0,.39-.11.73-.33,1.03s-.5.51-.83.64c.38.12.7.34.96.64.26.3.39.68.39,1.12,0,.29-.06.55-.18.8-.12.25-.29.47-.51.65-.22.18-.49.33-.81.43-.32.11-.68.16-1.09.16ZM346.33,90.57c.48,0,.85-.12,1.11-.35.26-.23.39-.52.39-.85s-.13-.63-.39-.87-.63-.35-1.11-.35-.84.12-1.11.35-.39.52-.39.87.13.62.39.85c.26.23.63.35,1.11.35ZM346.33,87.25c.38,0,.7-.12.95-.32.25-.21.37-.49.37-.84,0-.32-.12-.59-.36-.81-.24-.22-.56-.33-.96-.33s-.72.11-.96.33c-.24.22-.36.49-.36.81,0,.35.12.63.37.84.25.21.56.32.95.32Z"/>
    <path class="cls-6" d="M350.83,89.09c.04.44.2.8.5,1.07.29.27.66.41,1.11.41.21,0,.41-.03.6-.1.19-.07.35-.16.48-.29.14-.13.24-.28.32-.46.08-.18.12-.37.12-.59,0-.24-.04-.46-.13-.64-.08-.19-.2-.34-.34-.46s-.3-.21-.49-.27c-.19-.06-.38-.09-.59-.09-.26,0-.5.05-.73.14-.23.09-.42.22-.57.38-.19-.07-.37-.14-.53-.21s-.34-.14-.52-.2l.92-3.54h3.76v.99h-3.05l-.53,2.05c.16-.18.38-.31.64-.4.26-.09.54-.13.81-.13.35,0,.67.06.97.17.29.11.55.27.77.47.22.2.38.45.51.74.12.29.18.62.18.99,0,.34-.06.65-.19.95-.12.29-.3.55-.53.77-.23.22-.5.39-.83.52-.32.13-.68.19-1.08.19s-.73-.06-1.04-.17c-.31-.11-.58-.27-.81-.46-.23-.19-.41-.42-.55-.68-.14-.26-.21-.52-.24-.8l1.03-.31Z"/>
    <path class="cls-6" d="M358.81,88.28l2.3,3.06h-1.3l-1.73-2.33-.74.74v1.6h-1.02v-7.96h1.02v5.02l2.29-2.34h1.43l-2.26,2.23Z"/>
    <path class="cls-6" d="M367.27,91.34v-3.46h-3.98v3.46h-1.08v-7.8h1.08v3.33h3.98v-3.33h1.08v7.8h-1.08Z"/>
    <path class="cls-6" d="M369.77,91.34v-.9l2.9-3.45h-2.86v-.94h4.15v.9l-2.9,3.45h2.96v.94h-4.25Z"/>
    <path class="cls-6" d="M377.18,87.85c0,.6-.05,1.16-.16,1.67-.11.51-.25.98-.44,1.41-.19.43-.41.82-.67,1.18-.26.36-.53.69-.83.99l-.63-.55c.56-.62,1-1.32,1.33-2.09s.49-1.64.49-2.61c0-.48-.04-.94-.13-1.38-.08-.43-.21-.84-.36-1.23-.16-.39-.35-.75-.58-1.1-.23-.34-.48-.67-.76-.99l.63-.55c.29.3.57.63.83.99.26.36.48.75.67,1.18s.33.9.44,1.41c.11.51.16,1.06.16,1.67Z"/>
  </g>
  <g>
    <rect class="cls-4" x="527.17" y="116.95" width="124.64" height="48.75"/>
    <path class="cls-7" d="M527.66,136v-.9h2.98v.9h-2.98Z"/>
    <path class="cls-6" d="M535.6,134.35v4.36h-1.07v-4.36h-.98v-.94h.98v-.89c0-.29.05-.55.14-.78s.22-.42.37-.57c.16-.15.34-.27.55-.35.21-.08.43-.12.68-.12.18,0,.32.01.42.04.11.03.17.05.19.07v.92s-.08-.03-.15-.04c-.07-.01-.17-.02-.3-.02-.09,0-.18.01-.28.04-.1.03-.19.07-.28.14-.08.07-.15.16-.2.27-.05.12-.08.27-.08.45v.84h1.28v.94h-1.28Z"/>
    <path class="cls-6" d="M540.93,134.46c-.15-.02-.3-.03-.45-.03-.43,0-.78.13-1.05.38s-.4.67-.4,1.25v2.65h-1.03v-5.29h1.01v.92c.09-.21.21-.37.33-.5s.26-.23.4-.31c.14-.08.28-.13.43-.16.15-.03.29-.04.42-.04.07,0,.14,0,.2.01.06,0,.11.02.14.02v1.1Z"/>
    <path class="cls-6" d="M546.64,137.2c-.07.23-.18.45-.32.65-.14.2-.31.38-.52.53s-.43.27-.69.36-.54.13-.85.13c-.35,0-.69-.06-1.01-.19-.32-.12-.61-.31-.85-.55-.25-.24-.44-.54-.58-.89-.14-.35-.21-.75-.21-1.2,0-.42.07-.8.21-1.14.14-.34.32-.63.55-.88.23-.25.5-.44.81-.57.31-.14.63-.2.96-.2.4,0,.77.07,1.08.2s.58.32.8.57c.21.24.38.53.49.87s.17.72.17,1.13c0,.07,0,.13,0,.19,0,.06,0,.11-.02.14h-3.98c0,.23.05.45.13.65.08.2.19.37.33.51.14.14.31.25.51.33.19.08.4.12.62.12.43,0,.76-.1.99-.31.23-.21.39-.46.49-.76l.89.31ZM545.59,135.51c-.01-.38-.14-.7-.38-.96-.24-.26-.6-.39-1.07-.39-.22,0-.42.04-.59.12-.17.08-.32.18-.44.31s-.22.27-.29.43-.11.33-.12.5h2.89Z"/>
    <path class="cls-6" d="M551.71,140.79v-2.84c-.14.27-.35.49-.63.65-.28.16-.62.24-1.02.24s-.73-.07-1.03-.22c-.31-.15-.57-.35-.79-.6-.22-.26-.39-.55-.51-.89-.12-.34-.18-.7-.18-1.09s.06-.73.17-1.06c.11-.33.28-.63.49-.88.21-.25.47-.45.78-.6.31-.15.66-.22,1.04-.22.23,0,.43.03.62.08.18.05.35.13.49.21.14.09.26.19.36.3.09.11.17.23.23.35v-.81h1v7.38h-1.02ZM548.61,136.04c0,.27.04.52.11.75.07.23.18.43.31.6.14.17.3.3.49.4.19.1.4.14.64.14s.45-.05.64-.14c.19-.09.36-.23.5-.4.14-.17.25-.37.32-.6.07-.23.11-.48.11-.75s-.04-.52-.11-.75c-.07-.23-.18-.42-.32-.58-.14-.16-.3-.29-.5-.38-.19-.09-.4-.14-.64-.14-.48,0-.86.17-1.14.51-.28.34-.41.79-.41,1.34Z"/>
    <path class="cls-6" d="M557.87,138.06c-.15.28-.37.48-.66.61-.29.13-.59.19-.9.19s-.58-.05-.83-.17c-.25-.11-.45-.26-.62-.45-.17-.19-.3-.41-.39-.67-.09-.26-.14-.54-.14-.84v-3.33h1.03v3.18c0,.18.02.36.07.52.04.17.11.31.21.43.1.12.22.22.37.3s.34.11.56.11c.42,0,.73-.12.94-.37.21-.25.31-.58.31-.98v-3.19h1.03v4.31c0,.21,0,.41.02.58.01.17.02.31.04.4h-.99c-.01-.06-.03-.15-.03-.28,0-.13,0-.25,0-.36Z"/>
    <path class="cls-6" d="M565.22,137.2c-.07.23-.18.45-.32.65-.14.2-.32.38-.52.53s-.43.27-.69.36-.54.13-.85.13c-.35,0-.69-.06-1.01-.19-.32-.12-.61-.31-.85-.55-.25-.24-.44-.54-.58-.89-.14-.35-.21-.75-.21-1.2,0-.42.07-.8.21-1.14.14-.34.32-.63.56-.88.23-.25.5-.44.81-.57.31-.14.63-.2.96-.2.4,0,.76.07,1.08.2s.58.32.8.57.38.53.49.87.17.72.17,1.13c0,.07,0,.13,0,.19,0,.06,0,.11-.02.14h-3.98c0,.23.05.45.13.65.08.2.19.37.34.51.14.14.31.25.51.33s.4.12.62.12c.43,0,.76-.1.99-.31.23-.21.39-.46.5-.76l.89.31ZM564.17,135.51c-.02-.38-.14-.7-.38-.96-.24-.26-.6-.39-1.07-.39-.22,0-.42.04-.59.12-.17.08-.32.18-.44.31s-.22.27-.29.43-.11.33-.12.5h2.89Z"/>
    <path class="cls-6" d="M567.6,138.7h-1.03v-5.29h1.01v.76c.19-.33.43-.56.73-.7.29-.14.59-.21.9-.21s.59.05.83.16.44.25.59.44c.16.19.28.41.35.67.08.26.12.53.12.83v3.35h-1.03v-3.18c0-.18-.02-.36-.06-.52-.04-.16-.11-.3-.21-.42s-.23-.22-.38-.29-.35-.1-.58-.1c-.21,0-.38.04-.54.12s-.28.18-.38.31c-.1.13-.18.29-.23.46-.05.18-.08.36-.08.56v3.06Z"/>
    <path class="cls-6" d="M574.97,134.2c-.21,0-.42.04-.6.12-.19.08-.36.19-.51.35-.15.15-.27.35-.36.58-.09.23-.13.5-.13.81s.04.57.13.8c.09.23.21.43.35.58.15.16.32.28.52.36.2.08.4.12.62.12.25,0,.46-.04.63-.11s.31-.17.43-.28.2-.23.27-.36.11-.24.14-.35l.91.4c-.07.19-.16.38-.29.58-.12.19-.29.37-.48.53-.2.16-.43.29-.7.39-.27.1-.57.15-.92.15-.39,0-.75-.07-1.07-.21-.33-.14-.61-.34-.84-.59s-.42-.55-.55-.89c-.14-.34-.2-.71-.2-1.12s.07-.79.2-1.13c.13-.34.32-.64.56-.88.24-.25.52-.44.85-.58.33-.14.68-.21,1.05-.21.35,0,.66.05.93.15.27.1.5.23.69.39.2.16.35.34.47.54.12.2.21.4.26.6l-.94.4c-.04-.13-.09-.26-.15-.4s-.16-.25-.27-.36-.25-.19-.41-.26c-.16-.07-.36-.1-.58-.1Z"/>
    <path class="cls-6" d="M578.77,140.91l1.32-2.79-2.28-4.71h1.19l1.65,3.65,1.58-3.65h1.11l-3.44,7.5h-1.13Z"/>
    <path class="cls-6" d="M590.79,137.9c-.12.26-.32.48-.6.67-.27.19-.62.28-1.04.28-.39,0-.74-.07-1.04-.21-.31-.14-.57-.34-.79-.59-.22-.25-.38-.55-.5-.89-.12-.34-.18-.71-.18-1.11,0-.37.06-.73.18-1.06.12-.33.29-.63.51-.88.22-.25.48-.45.79-.6.31-.15.65-.23,1.02-.23.23,0,.44.03.62.08.18.05.34.12.47.2.13.08.24.18.33.29.09.11.15.21.2.32v-3.42h1.02v6.99c0,.26,0,.47.02.65.01.18.03.29.03.33h-1c-.01-.06-.03-.15-.04-.28-.01-.13-.02-.27-.02-.43v-.09ZM587.7,136.04c0,.27.03.52.1.75.07.23.17.43.3.6.13.17.29.3.48.4.19.1.41.14.66.14.23,0,.45-.05.64-.15.19-.1.35-.23.48-.4.13-.17.23-.37.3-.61.07-.23.11-.49.11-.76,0-.55-.13-.99-.4-1.33s-.64-.51-1.12-.51c-.24,0-.45.05-.64.14s-.36.22-.5.38-.24.36-.31.59c-.07.23-.11.48-.11.75Z"/>
    <path class="cls-6" d="M598.16,137.2c-.07.23-.18.45-.32.65-.14.2-.32.38-.52.53-.2.15-.43.27-.69.36-.26.09-.54.13-.85.13-.35,0-.69-.06-1.01-.19-.32-.12-.61-.31-.85-.55-.25-.24-.44-.54-.58-.89-.14-.35-.21-.75-.21-1.2,0-.42.07-.8.21-1.14.14-.34.32-.63.56-.88.23-.25.5-.44.81-.57s.63-.2.96-.2c.4,0,.76.07,1.08.2.32.14.59.32.8.57.21.24.38.53.49.87.11.34.17.72.17,1.13,0,.07,0,.13,0,.19,0,.06,0,.11-.02.14h-3.98c0,.23.05.45.13.65.08.2.19.37.34.51.14.14.31.25.51.33.19.08.4.12.62.12.43,0,.76-.1.99-.31.23-.21.39-.46.5-.76l.89.31ZM597.12,135.51c-.01-.38-.14-.7-.38-.96-.24-.26-.6-.39-1.07-.39-.22,0-.42.04-.59.12-.17.08-.32.18-.44.31s-.22.27-.29.43c-.07.16-.11.33-.12.5h2.89Z"/>
    <path class="cls-6" d="M601.93,138.7h-1.04l-2.14-5.29h1.17l1.51,4.08,1.52-4.08h1.11l-2.11,5.29Z"/>
    <path class="cls-6" d="M604.8,131.41c0-.21.07-.39.21-.53.14-.14.32-.21.52-.21s.39.07.53.21.21.32.21.53-.07.38-.21.52-.32.21-.53.21-.38-.07-.52-.21c-.14-.14-.21-.32-.21-.52ZM605.04,138.7v-5.29h1.02v5.29h-1.02Z"/>
    <path class="cls-6" d="M607.49,137.28c0-.23.04-.45.12-.63.08-.19.19-.35.34-.48.14-.13.31-.24.51-.32.2-.08.41-.14.64-.18l1.43-.21c.16-.02.27-.07.32-.14s.08-.16.08-.25c0-.26-.09-.48-.27-.67-.18-.19-.47-.28-.87-.28-.37,0-.65.1-.85.3-.2.2-.32.46-.35.76l-.99-.23c.03-.25.1-.48.22-.69s.28-.39.47-.54.41-.27.67-.35c.25-.08.52-.13.81-.13.4,0,.73.05,1.01.16.28.11.51.25.68.42.18.18.3.38.38.62s.12.48.12.74v2.65c0,.24,0,.42.02.56.01.14.03.24.04.31h-1.01c-.01-.07-.03-.15-.04-.26s-.02-.26-.02-.45c-.06.1-.14.19-.23.3-.1.1-.21.2-.35.29s-.3.16-.49.21c-.19.05-.4.08-.63.08-.27,0-.52-.04-.73-.13s-.4-.2-.56-.35c-.15-.14-.27-.31-.36-.5s-.13-.39-.13-.61ZM609.4,138c.21,0,.41-.03.6-.08.19-.05.35-.14.48-.26.14-.12.24-.28.32-.48.08-.2.12-.45.12-.73v-.24l-1.62.24c-.22.04-.4.12-.55.25-.15.13-.22.31-.22.54,0,.2.08.38.23.53.15.16.36.24.63.24Z"/>
    <path class="cls-6" d="M614.96,133.41h1.14v.94h-1.14v2.75c0,.24.05.42.17.54.11.12.3.18.57.18.07,0,.14,0,.22-.01.08,0,.14-.02.19-.03v.88s-.13.04-.25.06c-.12.03-.28.04-.45.04-.46,0-.81-.13-1.08-.39-.26-.26-.4-.63-.4-1.12v-2.9h-1.01v-.94h.29c.29,0,.49-.08.62-.23.13-.15.19-.35.19-.58v-.86h.95v1.67Z"/>
    <path class="cls-6" d="M617.25,131.41c0-.21.07-.39.21-.53s.32-.21.52-.21.39.07.53.21c.14.14.21.32.21.53s-.07.38-.21.52c-.14.14-.32.21-.53.21s-.38-.07-.52-.21-.21-.32-.21-.52ZM617.48,138.7v-5.29h1.02v5.29h-1.02Z"/>
    <path class="cls-6" d="M622.53,133.25c.4,0,.76.07,1.09.21s.62.34.86.59c.24.25.43.54.56.88.13.34.2.71.2,1.12s-.07.78-.2,1.12c-.13.34-.32.64-.56.89s-.53.45-.86.59c-.33.14-.69.21-1.09.21s-.76-.07-1.09-.21c-.33-.14-.62-.34-.86-.59s-.43-.55-.56-.89c-.13-.34-.2-.72-.2-1.12s.07-.78.2-1.12c.13-.34.32-.64.56-.88.24-.25.53-.45.86-.59s.69-.21,1.09-.21ZM622.53,137.94c.22,0,.43-.04.63-.12.2-.08.37-.2.53-.36.15-.16.28-.36.36-.59.09-.23.13-.51.13-.81s-.04-.58-.13-.81c-.09-.23-.21-.43-.36-.59-.15-.16-.33-.28-.53-.36-.2-.08-.41-.12-.63-.12s-.43.04-.63.12c-.2.08-.37.2-.53.36-.15.16-.28.36-.36.59-.09.23-.13.5-.13.81s.04.58.13.81c.09.24.21.43.36.59.15.16.33.28.53.36.2.08.41.12.63.12Z"/>
    <path class="cls-6" d="M627.59,138.7h-1.04v-5.29h1.01v.76c.19-.33.43-.56.73-.7.29-.14.59-.21.9-.21s.59.05.83.16.44.25.59.44c.16.19.28.41.35.67s.12.53.12.83v3.35h-1.04v-3.18c0-.18-.02-.36-.06-.52-.04-.16-.11-.3-.21-.42-.1-.12-.23-.22-.38-.29-.16-.07-.35-.1-.58-.1-.21,0-.38.04-.54.12-.15.08-.28.18-.38.31s-.18.29-.23.46c-.05.18-.08.36-.08.56v3.06Z"/>
    <path class="cls-6" d="M527.77,148.42c0-.6.05-1.16.16-1.67.11-.51.25-.98.44-1.41.19-.43.41-.82.67-1.18.26-.36.53-.69.83-.99l.63.55c-.56.63-1.01,1.33-1.34,2.1-.33.77-.49,1.63-.49,2.6s.16,1.84.49,2.61c.33.77.77,1.47,1.34,2.09l-.63.55c-.29-.3-.57-.63-.83-.99-.26-.36-.48-.75-.67-1.18s-.33-.9-.44-1.41c-.11-.51-.16-1.07-.16-1.67Z"/>
    <path class="cls-6" d="M531.04,150.48c0-.23.04-.45.12-.63.08-.19.19-.35.34-.48.14-.13.31-.24.51-.32.2-.08.41-.14.64-.18l1.43-.21c.16-.02.27-.07.33-.14.05-.07.08-.16.08-.25,0-.26-.09-.48-.27-.67-.18-.19-.47-.28-.88-.28-.37,0-.65.1-.85.3-.2.2-.32.46-.35.76l-.99-.23c.03-.25.1-.48.23-.69s.28-.39.47-.54c.19-.15.41-.27.67-.35s.52-.13.81-.13c.4,0,.73.05,1.01.16s.51.25.68.42c.18.18.3.38.38.62.08.23.12.48.12.74v2.65c0,.24,0,.42.02.56s.03.24.04.31h-1.01c-.01-.07-.03-.15-.04-.26,0-.11-.02-.26-.02-.45-.06.1-.14.19-.23.3s-.21.2-.35.29c-.14.09-.3.16-.49.21-.19.05-.4.08-.63.08-.27,0-.52-.04-.73-.13-.22-.09-.4-.2-.55-.35-.15-.14-.27-.31-.36-.5s-.13-.39-.13-.61ZM532.95,151.2c.21,0,.41-.03.6-.08s.35-.14.48-.26c.13-.12.24-.28.32-.48.08-.2.12-.45.12-.73v-.24l-1.62.24c-.22.04-.4.12-.55.25-.15.13-.22.31-.22.54,0,.2.08.38.23.53.15.16.36.24.63.24Z"/>
    <path class="cls-6" d="M538.51,146.61h1.14v.94h-1.14v2.75c0,.24.05.42.17.54.11.12.3.18.57.18.07,0,.14,0,.22-.01.08,0,.14-.02.19-.03v.88s-.13.04-.25.06c-.12.03-.28.04-.45.04-.46,0-.81-.13-1.08-.39-.26-.26-.4-.63-.4-1.12v-2.9h-1.01v-.94h.29c.29,0,.49-.08.62-.23.13-.15.19-.35.19-.58v-.86h.95v1.67Z"/>
    <path class="cls-6" d="M543.78,151.9v-7.96h1.03v7.96h-1.03Z"/>
    <path class="cls-6" d="M551.18,150.4c-.07.23-.18.45-.32.65-.14.2-.32.38-.52.53-.2.15-.43.27-.69.36-.26.09-.54.13-.85.13-.35,0-.69-.06-1.01-.19-.32-.12-.61-.31-.85-.55-.25-.24-.44-.54-.58-.89-.14-.35-.21-.75-.21-1.2,0-.42.07-.8.21-1.14.14-.34.32-.63.55-.88.23-.25.5-.44.81-.57s.63-.2.96-.2c.4,0,.76.07,1.08.2.32.14.58.32.8.57s.38.53.49.87c.11.34.17.72.17,1.13,0,.07,0,.13,0,.19,0,.06,0,.11-.02.14h-3.98c0,.23.05.45.13.65.08.2.19.37.33.51s.31.25.51.33.4.12.62.12c.43,0,.76-.1.99-.31s.39-.46.5-.76l.89.31ZM550.13,148.71c-.01-.38-.14-.7-.38-.96-.24-.26-.6-.39-1.07-.39-.22,0-.42.04-.59.12-.17.08-.32.18-.44.31s-.22.27-.29.43c-.07.16-.11.33-.12.5h2.89Z"/>
    <path class="cls-6" d="M552.2,150.48c0-.23.04-.45.12-.63.08-.19.19-.35.33-.48.14-.13.31-.24.51-.32s.41-.14.64-.18l1.43-.21c.16-.02.27-.07.33-.14.05-.07.08-.16.08-.25,0-.26-.09-.48-.27-.67-.18-.19-.47-.28-.88-.28-.37,0-.65.1-.85.3-.2.2-.31.46-.35.76l-.99-.23c.03-.25.11-.48.23-.69.12-.21.28-.39.47-.54.19-.15.41-.27.67-.35.25-.08.52-.13.81-.13.4,0,.73.05,1.01.16.28.11.51.25.68.42.18.18.3.38.38.62.08.23.12.48.12.74v2.65c0,.24,0,.42.02.56.02.14.03.24.04.31h-1.01c-.02-.07-.03-.15-.04-.26-.01-.11-.02-.26-.02-.45-.06.1-.14.19-.23.3-.09.1-.21.2-.35.29s-.3.16-.49.21c-.19.05-.4.08-.63.08-.27,0-.51-.04-.73-.13s-.4-.2-.55-.35c-.15-.14-.27-.31-.36-.5-.08-.19-.13-.39-.13-.61ZM554.12,151.2c.21,0,.41-.03.6-.08.19-.05.35-.14.48-.26.14-.12.24-.28.33-.48.08-.2.12-.45.12-.73v-.24l-1.62.24c-.22.04-.4.12-.55.25-.15.13-.22.31-.22.54,0,.2.08.38.23.53.15.16.36.24.63.24Z"/>
    <path class="cls-6" d="M558.73,150.2c.04.28.16.51.36.7.21.19.5.29.87.29.29,0,.52-.07.67-.21.15-.14.23-.3.23-.5,0-.17-.06-.31-.18-.43s-.29-.2-.51-.25l-.9-.2c-.42-.09-.74-.26-.97-.53-.23-.26-.35-.58-.35-.96,0-.23.05-.44.15-.64.1-.2.23-.38.4-.53.17-.15.37-.27.6-.36.23-.09.47-.13.73-.13.36,0,.66.05.91.15s.45.23.6.38.27.31.35.47c.08.16.13.3.16.42l-.91.34c-.01-.07-.04-.15-.08-.25-.04-.1-.1-.2-.18-.29s-.19-.17-.33-.24c-.14-.07-.31-.1-.52-.1-.26,0-.48.07-.64.21-.16.14-.24.31-.24.49,0,.34.2.55.6.64l.86.19c.48.1.85.29,1.09.57.25.28.37.61.37,1.01,0,.19-.04.38-.12.57-.08.19-.2.37-.36.53-.16.16-.36.29-.6.39-.24.1-.53.15-.86.15-.37,0-.68-.05-.94-.15-.26-.1-.48-.23-.65-.39-.17-.15-.3-.32-.4-.5s-.15-.35-.17-.5l.93-.33Z"/>
    <path class="cls-6" d="M564.64,146.61h1.14v.94h-1.14v2.75c0,.24.05.42.16.54.11.12.3.18.57.18.07,0,.14,0,.22-.01.08,0,.14-.02.19-.03v.88s-.13.04-.25.06-.28.04-.45.04c-.46,0-.81-.13-1.08-.39-.26-.26-.4-.63-.4-1.12v-2.9h-1.01v-.94h.29c.29,0,.49-.08.62-.23.13-.15.19-.35.19-.58v-.86h.95v1.67Z"/>
    <path class="cls-6" d="M571.04,151.9v-5.03h-1.73v-.76c.5-.01.91-.14,1.23-.39.32-.25.53-.56.61-.95h.95v7.13h-1.06Z"/>
    <path class="cls-6" d="M576,152.07c-.41,0-.78-.05-1.1-.16-.32-.11-.59-.25-.81-.43-.22-.18-.39-.4-.51-.65-.12-.25-.18-.52-.18-.8,0-.44.13-.81.39-1.12s.58-.52.96-.64c-.16-.06-.31-.14-.46-.25-.14-.11-.27-.24-.37-.38-.1-.14-.18-.3-.25-.48s-.09-.36-.09-.56c0-.29.06-.56.18-.8.12-.24.29-.45.51-.63.22-.18.47-.31.76-.41.29-.1.61-.14.95-.14s.65.05.95.14c.29.09.55.23.76.41.22.18.38.39.51.63.12.24.18.51.18.8,0,.39-.11.73-.33,1.03-.22.3-.5.51-.83.64.38.12.7.34.96.64.26.3.39.68.39,1.12,0,.29-.06.55-.18.8-.12.25-.29.47-.51.65-.22.18-.49.33-.81.43-.32.11-.68.16-1.09.16ZM576,151.13c.48,0,.85-.12,1.11-.35.26-.23.39-.52.39-.85s-.13-.63-.39-.87c-.26-.23-.63-.35-1.11-.35s-.85.12-1.11.35c-.26.24-.39.52-.39.87s.13.62.38.85c.26.23.63.35,1.11.35ZM576,147.81c.38,0,.7-.12.95-.32s.37-.49.37-.84c0-.32-.12-.59-.36-.81-.24-.22-.56-.33-.96-.33s-.72.11-.96.33c-.24.22-.36.49-.36.81,0,.35.12.63.37.84.25.21.57.32.95.32Z"/>
    <path class="cls-6" d="M580.49,149.66c.04.44.2.8.5,1.07.29.27.66.41,1.11.41.21,0,.41-.03.6-.1.19-.07.35-.16.48-.29.14-.13.24-.28.33-.46.08-.18.12-.37.12-.59,0-.24-.04-.46-.13-.64-.08-.19-.2-.34-.34-.46-.14-.12-.3-.21-.49-.27-.19-.06-.38-.09-.59-.09-.26,0-.5.05-.73.14-.23.09-.42.22-.57.38-.19-.07-.37-.14-.53-.21-.16-.07-.34-.14-.52-.2l.92-3.54h3.76v.99h-3.05l-.53,2.05c.16-.18.37-.31.64-.4.26-.09.54-.13.81-.13.35,0,.67.06.97.17.29.11.55.27.76.47.22.2.38.45.51.74.12.29.18.62.18.99,0,.34-.06.65-.19.95s-.3.55-.53.77c-.23.22-.5.39-.83.52-.32.13-.68.19-1.08.19s-.73-.06-1.04-.17c-.31-.11-.58-.27-.81-.46s-.41-.42-.55-.68-.21-.52-.24-.8l1.03-.31Z"/>
    <path class="cls-6" d="M588.47,148.84l2.3,3.06h-1.3l-1.73-2.33-.74.74v1.59h-1.02v-7.96h1.02v5.02l2.29-2.34h1.43l-2.25,2.23Z"/>
    <path class="cls-6" d="M596.93,151.9v-3.46h-3.98v3.46h-1.08v-7.8h1.08v3.33h3.98v-3.33h1.08v7.8h-1.08Z"/>
    <path class="cls-6" d="M599.44,151.9v-.9l2.9-3.45h-2.86v-.94h4.15v.9l-2.9,3.45h2.96v.93h-4.25Z"/>
    <path class="cls-6" d="M606.84,148.42c0,.6-.05,1.16-.16,1.67-.11.51-.25.98-.44,1.41-.19.43-.41.82-.67,1.18-.26.36-.53.69-.83.99l-.63-.55c.56-.62,1-1.32,1.33-2.09.33-.77.5-1.64.5-2.61,0-.48-.04-.94-.13-1.38-.08-.43-.21-.84-.36-1.23-.16-.39-.35-.75-.58-1.1-.23-.34-.48-.67-.76-.99l.63-.55c.29.3.57.63.83.99.26.36.48.75.67,1.18.19.43.33.9.44,1.41.11.51.16,1.07.16,1.67Z"/>
  </g>
</svg>