<?xml version="1.0" encoding="UTF-8"?>
<svg id="Layer_1" data-name="Layer 1" xmlns="http://www.w3.org/2000/svg" viewBox="0 0 342 396">
  <defs>
    <style>
      .cls-1 {
        fill: #cbe6ff;
      }

      .cls-2 {
        fill: #fff;
      }

      .cls-3 {
        fill: #646569;
      }

      .cls-4 {
        fill: none;
      }

      .cls-5 {
        fill: #64b4ff;
      }

      .cls-6 {
        fill: #666;
      }

      .cls-7 {
        fill: #92d050;
      }

      .cls-8 {
        fill: #98cdff;
      }

      .cls-9 {
        fill: #999;
      }

      .cls-10 {
        fill: #3e434a;
      }

      .cls-11 {
        fill: #0082fc;
      }
    </style>
  </defs>
  <rect class="cls-11" x="73.75" y="18.07" width="241.74" height="181.86"/>
  <rect class="cls-10" x="73.43" y="204.01" width="241.74" height="136.58"/>
  <rect class="cls-2" x="82.9" y="193.21" width="223.72" height="16.03"/>
  <g>
    <rect class="cls-4" x="85.4" y="27.04" width="51.88" height="12.99"/>
    <path class="cls-2" d="M86.31,33.95v-6.91h.66v3.08h3.89v-3.08h.66v6.91h-.66v-3.24h-3.89v3.24h-.66Z"/>
    <path class="cls-2" d="M96.04,34.04c-.58,0-1.1-.15-1.55-.44-.45-.29-.81-.7-1.06-1.23-.26-.53-.38-1.16-.38-1.88s.13-1.35.38-1.88c.26-.53.61-.94,1.06-1.23.45-.29.97-.44,1.55-.44s1.1.15,1.55.44.8.7,1.06,1.23c.26.53.38,1.16.38,1.88s-.13,1.35-.38,1.88c-.25.53-.61.94-1.06,1.23s-.97.44-1.55.44ZM96.04,33.42c.45,0,.85-.12,1.2-.35s.63-.57.84-1c.21-.44.31-.96.31-1.57s-.1-1.14-.31-1.58c-.21-.44-.49-.77-.84-1.01s-.75-.35-1.2-.35-.86.12-1.21.35-.64.57-.84,1.01c-.21.44-.31.97-.31,1.58s.1,1.13.31,1.57c.21.44.49.77.84,1.01.36.23.76.35,1.21.35Z"/>
    <path class="cls-2" d="M102.63,34.06c-.71,0-1.27-.17-1.7-.52s-.65-.79-.69-1.35h.67c.03.41.21.73.54.94.33.22.72.32,1.18.32.34,0,.65-.06.91-.17.26-.11.47-.27.62-.48s.23-.44.23-.72c0-.35-.13-.61-.39-.79s-.61-.34-1.04-.47l-.82-.24c-.55-.16-.97-.39-1.27-.67s-.45-.65-.45-1.09c0-.37.1-.7.3-.99s.47-.51.81-.67c.34-.16.73-.24,1.16-.24s.82.08,1.15.24c.33.16.59.38.79.65s.3.59.31.94h-.64c-.04-.38-.21-.69-.51-.91s-.67-.33-1.12-.33-.86.12-1.16.36c-.3.24-.45.54-.45.91,0,.24.07.44.2.6.13.16.31.29.51.39s.42.19.65.25l.72.21c.3.08.59.2.88.34.29.15.53.34.72.58s.29.55.29.93-.1.71-.29,1c-.19.29-.47.53-.83.7-.36.17-.79.26-1.29.26Z"/>
    <path class="cls-2" d="M106.14,27.62v-.59h5.04v.59h-2.19v6.32h-.66v-6.32h-2.19Z"/>
  </g>
  <g>
    <rect class="cls-4" x="85.4" y="322.23" width="106.44" height="12.99"/>
    <path class="cls-2" d="M89,329.23c-.58,0-1.1-.15-1.55-.44-.45-.29-.81-.7-1.06-1.23-.26-.53-.38-1.16-.38-1.88s.13-1.35.38-1.88c.26-.53.61-.94,1.06-1.23.45-.29.97-.44,1.55-.44.49,0,.93.1,1.31.3.39.2.7.47.95.81.25.34.41.73.48,1.15h-.66c-.07-.32-.19-.6-.39-.85-.19-.25-.43-.45-.72-.59-.29-.14-.62-.21-.98-.21-.43,0-.83.11-1.19.34s-.64.56-.85.99c-.21.44-.32.97-.32,1.61s.11,1.17.32,1.61c.21.44.5.76.85.99.36.22.75.33,1.18.33.36,0,.69-.07.98-.22.29-.14.53-.34.72-.59.19-.25.32-.53.39-.84h.66c-.07.42-.23.8-.48,1.14s-.56.61-.95.82-.83.3-1.32.3Z"/>
    <path class="cls-2" d="M95.92,329.23c-.58,0-1.1-.15-1.55-.44-.45-.29-.81-.7-1.06-1.23-.26-.53-.38-1.16-.38-1.88s.13-1.35.38-1.88c.26-.53.61-.94,1.06-1.23.45-.29.97-.44,1.55-.44s1.1.14,1.55.44.8.7,1.06,1.23c.26.53.38,1.16.38,1.88s-.13,1.35-.38,1.88c-.25.53-.61.94-1.06,1.23-.45.29-.97.44-1.55.44ZM95.92,328.61c.45,0,.85-.12,1.2-.35s.63-.57.84-1c.21-.44.31-.96.31-1.58s-.1-1.14-.31-1.58c-.21-.44-.49-.77-.84-1.01-.35-.23-.75-.35-1.2-.35s-.86.12-1.21.35c-.36.23-.64.57-.84,1.01-.21.44-.31.97-.31,1.58s.1,1.13.31,1.57c.21.44.49.77.84,1.01s.76.35,1.21.35Z"/>
    <path class="cls-2" d="M100.44,329.14v-6.91h.76l3.15,4.7c.11.17.25.38.4.63.15.25.31.51.46.8-.02-.3-.03-.59-.04-.85,0-.27,0-.5,0-.7v-4.57h.66v6.91h-.76l-2.94-4.37c-.16-.24-.32-.49-.48-.75s-.36-.59-.59-.99c.02.37.03.71.04,1,.01.3.02.54.02.73v4.37h-.66Z"/>
    <path class="cls-2" d="M107.24,322.82v-.59h5.04v.59h-2.19v6.32h-.66v-6.32h-2.19Z"/>
    <path class="cls-2" d="M113.69,329.14v-6.91h2.25c.73,0,1.29.2,1.67.58.38.39.57.89.57,1.5,0,.46-.11.86-.33,1.19-.22.34-.54.58-.97.72l1.59,2.92h-.76l-1.5-2.79c-.08,0-.17,0-.25,0h-1.6v2.78h-.66ZM114.35,325.77h1.57c.54,0,.94-.13,1.2-.39.27-.26.4-.62.4-1.06s-.13-.81-.4-1.08c-.27-.27-.67-.41-1.21-.41h-1.57v2.95Z"/>
    <path class="cls-2" d="M122.41,329.23c-.58,0-1.1-.15-1.55-.44-.45-.29-.81-.7-1.06-1.23-.26-.53-.38-1.16-.38-1.88s.13-1.35.38-1.88c.26-.53.61-.94,1.06-1.23.45-.29.97-.44,1.55-.44s1.1.14,1.55.44.8.7,1.06,1.23c.26.53.38,1.16.38,1.88s-.13,1.35-.38,1.88c-.25.53-.61.94-1.06,1.23-.45.29-.97.44-1.55.44ZM122.41,328.61c.45,0,.85-.12,1.2-.35s.63-.57.84-1c.21-.44.31-.96.31-1.58s-.1-1.14-.31-1.58c-.21-.44-.49-.77-.84-1.01-.35-.23-.75-.35-1.2-.35s-.86.12-1.21.35c-.36.23-.64.57-.84,1.01-.21.44-.31.97-.31,1.58s.1,1.13.31,1.57c.21.44.49.77.84,1.01s.76.35,1.21.35Z"/>
    <path class="cls-2" d="M126.92,329.14v-6.91h.66v6.32h3.28v.59h-3.95Z"/>
    <path class="cls-2" d="M132.29,329.14v-6.91h.66v6.32h3.28v.59h-3.95Z"/>
    <path class="cls-2" d="M137.65,329.14v-6.91h4.04v.59h-3.38v2.55h3.16v.59h-3.16v2.59h3.44v.59h-4.1Z"/>
    <path class="cls-2" d="M143.3,329.14v-6.91h2.25c.73,0,1.29.2,1.67.58.38.39.57.89.57,1.5,0,.46-.11.86-.33,1.19-.22.34-.54.58-.97.72l1.59,2.92h-.76l-1.5-2.79c-.08,0-.17,0-.25,0h-1.6v2.78h-.66ZM143.96,325.77h1.57c.54,0,.94-.13,1.2-.39.27-.26.4-.62.4-1.06s-.13-.81-.4-1.08c-.27-.27-.67-.41-1.21-.41h-1.57v2.95Z"/>
  </g>
  <rect class="cls-1" x="82.9" y="50.53" width="223.72" height="24.7"/>
  <g>
    <rect class="cls-4" x="82.71" y="59.91" width="223.72" height="11.5"/>
    <path class="cls-11" d="M133.75,66.91c-.61,0-1.14-.15-1.59-.44s-.81-.7-1.06-1.23-.38-1.16-.38-1.88.13-1.35.38-1.88c.25-.53.6-.94,1.05-1.23.45-.29.96-.44,1.55-.44.5,0,.95.1,1.34.31.39.21.71.48.95.82.25.34.41.72.48,1.12h-.68c-.08-.3-.21-.58-.4-.83s-.42-.45-.71-.59c-.28-.15-.61-.22-.99-.22-.45,0-.84.12-1.2.35-.35.23-.63.57-.84,1s-.31.97-.31,1.58.1,1.13.31,1.57.49.77.84,1.01c.36.23.77.35,1.23.35.42,0,.79-.09,1.11-.27.32-.18.57-.44.75-.78s.27-.73.28-1.19h-1.99v-.58h2.64v.57c0,.58-.12,1.09-.35,1.52s-.56.76-.98,1c-.42.24-.9.35-1.44.35Z"/>
    <path class="cls-11" d="M140.07,66.93c-.49,0-.91-.11-1.26-.34-.35-.23-.63-.54-.82-.94-.19-.4-.29-.86-.29-1.39s.09-.99.29-1.39.46-.72.8-.96.74-.35,1.19-.35c.38,0,.73.09,1.07.28.34.19.61.47.82.85.21.38.32.86.32,1.45v.27h-3.84c.01.59.17,1.06.49,1.42.31.35.73.53,1.25.53.36,0,.66-.08.89-.25.23-.17.4-.36.49-.59l.6.19c-.12.32-.35.61-.69.85-.34.24-.77.37-1.3.37ZM138.34,63.87h3.21c-.03-.5-.19-.92-.46-1.25-.28-.33-.65-.49-1.11-.49-.31,0-.59.08-.83.24s-.43.37-.57.63c-.14.26-.22.56-.24.87Z"/>
    <path class="cls-11" d="M144.11,63.58v3.23h-.63v-5.19h.61v.96c.16-.36.38-.62.67-.78.29-.16.6-.24.96-.24.53,0,.95.16,1.28.49s.49.8.49,1.41v3.35h-.63v-3.31c0-.42-.12-.76-.36-1-.24-.25-.56-.37-.96-.37s-.75.13-1.02.39c-.27.26-.41.61-.41,1.06Z"/>
    <path class="cls-11" d="M151.17,66.93c-.49,0-.91-.11-1.26-.34-.35-.23-.63-.54-.82-.94-.19-.4-.29-.86-.29-1.39s.09-.99.29-1.39.46-.72.8-.96.74-.35,1.19-.35c.38,0,.73.09,1.07.28.34.19.61.47.82.85.21.38.32.86.32,1.45v.27h-3.84c.01.59.17,1.06.49,1.42.31.35.73.53,1.25.53.36,0,.66-.08.89-.25.23-.17.4-.36.49-.59l.6.19c-.12.32-.35.61-.69.85-.34.24-.77.37-1.3.37ZM149.43,63.87h3.21c-.03-.5-.19-.92-.46-1.25-.28-.33-.65-.49-1.11-.49-.31,0-.59.08-.83.24s-.43.37-.57.63c-.14.26-.22.56-.24.87Z"/>
    <path class="cls-11" d="M154.57,66.82v-5.19h.61v.81h.05c.1-.27.28-.48.54-.64s.55-.24.87-.24c.05,0,.1,0,.17,0,.06,0,.11,0,.15,0v.63s-.07,0-.14-.02c-.07,0-.15-.01-.23-.01-.4,0-.73.12-.99.37-.26.25-.39.56-.39.95v3.33h-.63Z"/>
    <path class="cls-11" d="M158.4,60.67c-.13,0-.24-.04-.32-.13-.09-.09-.13-.19-.13-.31s.04-.22.13-.31c.09-.09.2-.13.32-.13s.24.04.32.13c.09.09.13.19.13.31s-.04.22-.13.31c-.09.09-.2.13-.32.13ZM158.08,66.82v-5.19h.63v5.19h-.63Z"/>
    <path class="cls-11" d="M162.32,66.92c-.45,0-.85-.11-1.19-.34-.34-.23-.61-.54-.81-.94-.2-.4-.29-.86-.29-1.39s.1-1,.29-1.4.46-.72.81-.94c.34-.23.74-.34,1.19-.34.35,0,.66.07.93.2s.5.3.68.5c.18.2.3.41.37.62l-.6.19c-.04-.13-.12-.27-.23-.41-.12-.15-.27-.27-.46-.37-.19-.1-.42-.15-.68-.15-.35,0-.65.1-.9.29-.25.19-.43.45-.56.77-.13.32-.19.67-.19,1.06s.06.73.19,1.05c.13.32.32.57.56.76.25.19.54.29.9.29.27,0,.5-.05.7-.16.19-.11.35-.23.47-.38.12-.15.2-.29.24-.42l.59.19c-.06.21-.19.42-.37.63-.18.21-.41.38-.69.51-.28.13-.59.2-.94.2Z"/>
    <path class="cls-11" d="M167.76,66.82l2.53-6.91h.78l2.56,6.91h-.7l-.75-2.05h-2.99l-.73,2.05h-.7ZM169.4,64.18h2.57l-.68-1.88c-.08-.23-.17-.49-.27-.79-.1-.3-.21-.66-.34-1.07-.12.41-.24.77-.34,1.08-.1.3-.19.56-.27.78l-.67,1.88Z"/>
    <path class="cls-11" d="M176.66,66.92c-.45,0-.85-.11-1.19-.34-.34-.23-.61-.54-.81-.94-.2-.4-.29-.86-.29-1.39s.1-1,.29-1.4.46-.72.81-.94c.34-.23.74-.34,1.19-.34.35,0,.66.07.93.2s.5.3.68.5c.18.2.3.41.37.62l-.6.19c-.04-.13-.12-.27-.23-.41-.12-.15-.27-.27-.46-.37-.19-.1-.42-.15-.68-.15-.35,0-.65.1-.9.29-.25.19-.43.45-.56.77-.13.32-.19.67-.19,1.06s.06.73.19,1.05c.13.32.32.57.56.76.25.19.54.29.9.29.27,0,.5-.05.7-.16.19-.11.35-.23.47-.38.12-.15.2-.29.24-.42l.59.19c-.06.21-.19.42-.37.63-.18.21-.41.38-.69.51-.28.13-.59.2-.94.2Z"/>
    <path class="cls-11" d="M181.97,66.92c-.45,0-.85-.11-1.19-.34-.34-.23-.61-.54-.81-.94-.2-.4-.29-.86-.29-1.39s.1-1,.29-1.4.46-.72.81-.94c.34-.23.74-.34,1.19-.34.35,0,.66.07.93.2s.5.3.68.5c.18.2.3.41.37.62l-.6.19c-.04-.13-.12-.27-.23-.41-.12-.15-.27-.27-.46-.37-.19-.1-.42-.15-.68-.15-.35,0-.65.1-.9.29-.25.19-.43.45-.56.77-.13.32-.19.67-.19,1.06s.06.73.19,1.05c.13.32.32.57.56.76.25.19.54.29.9.29.27,0,.5-.05.7-.16.19-.11.35-.23.47-.38.12-.15.2-.29.24-.42l.59.19c-.06.21-.19.42-.37.63-.18.21-.41.38-.69.51-.28.13-.59.2-.94.2Z"/>
    <path class="cls-11" d="M187.36,66.93c-.49,0-.91-.11-1.26-.34-.35-.23-.63-.54-.82-.94-.19-.4-.29-.86-.29-1.39s.09-.99.29-1.39.46-.72.8-.96.74-.35,1.19-.35c.38,0,.73.09,1.07.28.34.19.61.47.82.85.21.38.32.86.32,1.45v.27h-3.84c.01.59.17,1.06.49,1.42.31.35.73.53,1.25.53.36,0,.66-.08.89-.25.23-.17.4-.36.49-.59l.6.19c-.12.32-.35.61-.69.85-.34.24-.77.37-1.3.37ZM185.62,63.87h3.21c-.03-.5-.19-.92-.46-1.25-.28-.33-.65-.49-1.11-.49-.31,0-.59.08-.83.24s-.43.37-.57.63c-.14.26-.22.56-.24.87Z"/>
    <path class="cls-11" d="M192.42,66.93c-.51,0-.93-.12-1.26-.35-.33-.23-.54-.56-.64-1l.6-.14c.07.31.22.55.44.7.22.15.5.23.85.23.39,0,.71-.09.94-.26.24-.18.36-.4.36-.66,0-.42-.28-.7-.84-.83l-.84-.2c-.89-.21-1.33-.67-1.33-1.38,0-.29.08-.55.23-.77s.37-.39.65-.52c.27-.12.58-.19.93-.19.49,0,.88.11,1.16.33.29.22.49.52.61.89l-.58.15c-.08-.24-.21-.44-.4-.59-.19-.16-.45-.23-.79-.23s-.63.08-.85.25-.33.38-.33.63c0,.43.31.71.93.86l.79.19c.88.21,1.31.67,1.31,1.36,0,.3-.08.56-.25.79s-.39.41-.68.54c-.29.13-.63.19-1.01.19Z"/>
    <path class="cls-11" d="M197.32,66.93c-.51,0-.93-.12-1.26-.35-.33-.23-.54-.56-.64-1l.6-.14c.07.31.22.55.44.7.22.15.5.23.85.23.39,0,.71-.09.94-.26.24-.18.36-.4.36-.66,0-.42-.28-.7-.84-.83l-.84-.2c-.89-.21-1.33-.67-1.33-1.38,0-.29.08-.55.23-.77s.37-.39.65-.52c.27-.12.58-.19.93-.19.49,0,.88.11,1.16.33.29.22.49.52.61.89l-.58.15c-.08-.24-.21-.44-.4-.59-.19-.16-.45-.23-.79-.23s-.63.08-.85.25-.33.38-.33.63c0,.43.31.71.93.86l.79.19c.88.21,1.31.67,1.31,1.36,0,.3-.08.56-.25.79s-.39.41-.68.54c-.29.13-.63.19-1.01.19Z"/>
    <path class="cls-11" d="M203.36,66.82v-6.91h2.25c.49,0,.9.09,1.23.28.33.19.58.44.75.77s.25.69.25,1.09-.08.77-.25,1.1c-.17.32-.42.58-.75.77-.33.19-.74.28-1.22.28h-1.6v2.63h-.66ZM204.02,63.6h1.57c.54,0,.94-.15,1.2-.44.27-.29.4-.67.4-1.12s-.13-.81-.4-1.11c-.27-.29-.67-.44-1.21-.44h-1.57v3.11Z"/>
    <path class="cls-11" d="M209.21,66.82v-5.19h.61v.81h.05c.1-.27.28-.48.54-.64s.55-.24.87-.24c.05,0,.1,0,.17,0,.06,0,.11,0,.15,0v.63s-.07,0-.14-.02c-.07,0-.15-.01-.23-.01-.4,0-.73.12-.99.37-.26.25-.39.56-.39.95v3.33h-.63Z"/>
    <path class="cls-11" d="M214.49,66.93c-.45,0-.85-.11-1.19-.34-.34-.23-.61-.54-.81-.94-.2-.4-.29-.87-.29-1.39s.1-1,.29-1.4c.2-.4.46-.72.81-.95.34-.23.74-.34,1.19-.34s.84.11,1.19.34c.34.23.61.54.81.95.2.4.29.87.29,1.4s-.1.99-.29,1.39c-.19.4-.46.72-.81.94-.35.23-.74.34-1.19.34ZM214.49,66.36c.36,0,.66-.1.9-.29.25-.19.43-.45.56-.77s.2-.67.2-1.05-.07-.74-.2-1.06c-.13-.32-.32-.58-.57-.77-.25-.19-.55-.29-.9-.29s-.65.1-.9.29-.43.45-.56.77c-.13.32-.19.67-.19,1.06s.06.73.19,1.05c.13.32.32.57.56.77.25.19.55.29.9.29Z"/>
    <path class="cls-11" d="M220.25,61.63v.55h-1.22v4.64h-.63v-4.64h-1.02v-.55h1.02v-.74c0-.28.06-.52.19-.71s.29-.34.5-.44c.21-.1.43-.15.67-.15.16,0,.3.01.42.04.11.03.2.05.27.08l-.18.54s-.11-.03-.18-.05c-.07-.02-.16-.03-.26-.03-.26,0-.45.07-.59.22-.14.15-.2.35-.2.62v.62h1.22Z"/>
    <path class="cls-11" d="M221.69,60.67c-.13,0-.24-.04-.32-.13-.09-.09-.13-.19-.13-.31s.04-.22.13-.31c.09-.09.2-.13.32-.13s.24.04.32.13c.09.09.13.19.13.31s-.04.22-.13.31c-.09.09-.2.13-.32.13ZM221.37,66.82v-5.19h.63v5.19h-.63Z"/>
    <path class="cls-11" d="M224.22,59.91v6.91h-.63v-6.91h.63Z"/>
    <path class="cls-11" d="M227.91,66.93c-.49,0-.91-.11-1.26-.34-.35-.23-.63-.54-.82-.94-.19-.4-.29-.86-.29-1.39s.09-.99.29-1.39.46-.72.8-.96.74-.35,1.19-.35c.38,0,.73.09,1.07.28.34.19.61.47.82.85.21.38.32.86.32,1.45v.27h-3.84c.01.59.17,1.06.49,1.42.31.35.73.53,1.25.53.36,0,.66-.08.89-.25.23-.17.4-.36.49-.59l.6.19c-.12.32-.35.61-.69.85-.34.24-.77.37-1.3.37ZM226.17,63.87h3.21c-.03-.5-.19-.92-.46-1.25-.28-.33-.65-.49-1.11-.49-.31,0-.59.08-.83.24s-.43.37-.57.63c-.14.26-.22.56-.24.87Z"/>
    <path class="cls-11" d="M234.23,63.5c0-.5.05-1.01.14-1.54.09-.53.23-1.05.39-1.55.17-.5.37-.96.6-1.36h.62c-.35.72-.63,1.47-.82,2.25-.19.78-.29,1.51-.29,2.21,0,.65.09,1.32.27,1.99s.46,1.4.84,2.18h-.62c-.75-1.38-1.13-2.77-1.13-4.17Z"/>
    <path class="cls-11" d="M240.13,66.91c-.61,0-1.14-.15-1.59-.44s-.81-.7-1.06-1.23-.38-1.16-.38-1.88.13-1.35.38-1.88c.25-.53.6-.94,1.05-1.23.45-.29.96-.44,1.55-.44.5,0,.95.1,1.34.31.39.21.71.48.95.82.25.34.41.72.48,1.12h-.68c-.08-.3-.21-.58-.4-.83s-.42-.45-.71-.59c-.28-.15-.61-.22-.99-.22-.45,0-.84.12-1.2.35-.35.23-.63.57-.84,1s-.31.97-.31,1.58.1,1.13.31,1.57.49.77.84,1.01c.36.23.77.35,1.23.35.42,0,.79-.09,1.11-.27.32-.18.57-.44.75-.78s.27-.73.28-1.19h-1.99v-.58h2.64v.57c0,.58-.12,1.09-.35,1.52s-.56.76-.98,1c-.42.24-.9.35-1.44.35Z"/>
    <path class="cls-11" d="M243.61,66.82l2.53-6.91h.78l2.56,6.91h-.7l-.75-2.05h-2.99l-.73,2.05h-.7ZM245.25,64.18h2.57l-.68-1.88c-.08-.23-.17-.49-.27-.79-.1-.3-.21-.66-.34-1.07-.12.41-.24.77-.34,1.08-.1.3-.19.56-.27.78l-.67,1.88Z"/>
    <path class="cls-11" d="M250.66,66.82v-6.91h2.25c.49,0,.9.09,1.23.28.33.19.58.44.75.77s.25.69.25,1.09-.08.77-.25,1.1c-.17.32-.42.58-.75.77-.33.19-.74.28-1.22.28h-1.6v2.63h-.66ZM251.32,63.6h1.57c.54,0,.94-.15,1.2-.44.27-.29.4-.67.4-1.12s-.13-.81-.4-1.11c-.27-.29-.67-.44-1.21-.44h-1.57v3.11Z"/>
    <path class="cls-11" d="M256.22,67.68c.39-.79.67-1.53.85-2.21.18-.68.27-1.33.27-1.97,0-.69-.1-1.43-.29-2.21s-.47-1.53-.82-2.25h.62c.23.41.42.86.59,1.36s.3,1.02.4,1.55c.09.53.14,1.05.14,1.54,0,.7-.1,1.41-.29,2.11-.2.71-.48,1.4-.84,2.07h-.62Z"/>
  </g>
  <rect class="cls-8" x="82.9" y="85.74" width="223.72" height="24.7"/>
  <g>
    <rect class="cls-4" x="82.71" y="95.11" width="223.72" height="11.5"/>
    <path class="cls-2" d="M128.73,102.12c-.61,0-1.14-.15-1.59-.44s-.81-.7-1.06-1.23-.38-1.16-.38-1.88.13-1.35.38-1.88c.25-.53.6-.94,1.05-1.23.45-.29.96-.44,1.55-.44.5,0,.95.1,1.34.31.39.21.71.48.95.82.25.34.41.72.48,1.12h-.68c-.08-.3-.21-.58-.4-.83s-.42-.45-.71-.59c-.28-.15-.61-.22-.99-.22-.45,0-.84.12-1.2.35-.35.23-.63.57-.84,1s-.31.97-.31,1.58.1,1.13.31,1.57.49.77.84,1.01c.36.23.77.35,1.23.35.42,0,.79-.09,1.11-.27.32-.18.57-.44.75-.78s.27-.73.28-1.19h-1.99v-.58h2.64v.57c0,.58-.12,1.09-.35,1.52s-.56.76-.98,1c-.42.24-.9.35-1.44.35Z"/>
    <path class="cls-2" d="M135.06,102.14c-.49,0-.91-.11-1.26-.34-.35-.23-.63-.54-.82-.94-.19-.4-.29-.86-.29-1.39s.09-.99.29-1.39.46-.72.8-.96.74-.35,1.19-.35c.38,0,.73.09,1.07.28.34.19.61.47.82.85.21.38.32.86.32,1.45v.27h-3.84c.01.59.17,1.06.49,1.42.31.35.73.53,1.25.53.36,0,.66-.08.89-.25.23-.17.4-.36.49-.59l.6.19c-.12.32-.35.61-.69.85-.34.24-.77.37-1.3.37ZM133.32,99.08h3.21c-.03-.5-.19-.92-.46-1.25-.28-.33-.65-.49-1.11-.49-.31,0-.59.08-.83.24s-.43.37-.57.63c-.14.26-.22.56-.24.87Z"/>
    <path class="cls-2" d="M139.09,98.79v3.23h-.63v-5.19h.61v.96c.16-.36.38-.62.67-.78.29-.16.6-.24.96-.24.53,0,.95.16,1.28.49s.49.8.49,1.41v3.35h-.63v-3.31c0-.42-.12-.76-.36-1-.24-.25-.56-.37-.96-.37s-.75.13-1.02.39c-.27.26-.41.61-.41,1.06Z"/>
    <path class="cls-2" d="M146.15,102.14c-.49,0-.91-.11-1.26-.34-.35-.23-.63-.54-.82-.94-.19-.4-.29-.86-.29-1.39s.09-.99.29-1.39.46-.72.8-.96.74-.35,1.19-.35c.38,0,.73.09,1.07.28.34.19.61.47.82.85.21.38.32.86.32,1.45v.27h-3.84c.01.59.17,1.06.49,1.42.31.35.73.53,1.25.53.36,0,.66-.08.89-.25.23-.17.4-.36.49-.59l.6.19c-.12.32-.35.61-.69.85-.34.24-.77.37-1.3.37ZM144.42,99.08h3.21c-.03-.5-.19-.92-.46-1.25-.28-.33-.65-.49-1.11-.49-.31,0-.59.08-.83.24s-.43.37-.57.63c-.14.26-.22.56-.24.87Z"/>
    <path class="cls-2" d="M149.56,102.03v-5.19h.61v.81h.05c.1-.27.28-.48.54-.64s.55-.24.87-.24c.05,0,.1,0,.17,0,.06,0,.11,0,.15,0v.63s-.07,0-.14-.02c-.07,0-.15-.01-.23-.01-.4,0-.73.12-.99.37-.26.25-.39.56-.39.95v3.33h-.63Z"/>
    <path class="cls-2" d="M153.39,95.88c-.13,0-.24-.04-.32-.13-.09-.09-.13-.19-.13-.31s.04-.22.13-.31c.09-.09.2-.13.32-.13s.24.04.32.13c.09.09.13.19.13.31s-.04.22-.13.31c-.09.09-.2.13-.32.13ZM153.07,102.03v-5.19h.63v5.19h-.63Z"/>
    <path class="cls-2" d="M157.31,102.12c-.45,0-.85-.11-1.19-.34-.34-.23-.61-.54-.81-.94-.2-.4-.29-.86-.29-1.39s.1-1,.29-1.4.46-.72.81-.94c.34-.23.74-.34,1.19-.34.35,0,.66.07.93.2s.5.3.68.5c.18.2.3.41.37.62l-.6.19c-.04-.13-.12-.27-.23-.41-.12-.15-.27-.27-.46-.37-.19-.1-.42-.15-.68-.15-.35,0-.65.1-.9.29-.25.19-.43.45-.56.77-.13.32-.19.67-.19,1.06s.06.73.19,1.05c.13.32.32.57.56.76.25.19.54.29.9.29.27,0,.5-.05.7-.16.19-.11.35-.23.47-.38.12-.15.2-.29.24-.42l.59.19c-.06.21-.19.42-.37.63-.18.21-.41.38-.69.51-.28.13-.59.2-.94.2Z"/>
    <path class="cls-2" d="M162.74,102.03l2.53-6.91h.78l2.56,6.91h-.7l-.75-2.05h-2.99l-.73,2.05h-.7ZM164.38,99.39h2.57l-.68-1.88c-.08-.23-.17-.49-.27-.79-.1-.3-.21-.66-.34-1.07-.12.41-.24.77-.34,1.08-.1.3-.19.56-.27.78l-.67,1.88Z"/>
    <path class="cls-2" d="M171.28,96.84v.55h-1.07v3.41c0,.52.23.76.7.71.04,0,.1,0,.16-.02.06-.01.12-.02.18-.03l.13.54c-.13.04-.29.07-.47.07-.41.03-.73-.07-.97-.29-.23-.22-.35-.54-.35-.94v-3.46h-.77v-.55h.77v-1.23h.63v1.23h1.07Z"/>
    <path class="cls-2" d="M173.89,96.84v.55h-1.07v3.41c0,.52.23.76.7.71.04,0,.1,0,.16-.02.06-.01.12-.02.18-.03l.13.54c-.13.04-.29.07-.47.07-.41.03-.73-.07-.97-.29-.23-.22-.35-.54-.35-.94v-3.46h-.77v-.55h.77v-1.23h.63v1.23h1.07Z"/>
    <path class="cls-2" d="M174.97,102.03v-5.19h.61v.81h.05c.1-.27.28-.48.54-.64s.55-.24.87-.24c.05,0,.1,0,.17,0,.06,0,.11,0,.15,0v.63s-.07,0-.14-.02c-.07,0-.15-.01-.23-.01-.4,0-.73.12-.99.37-.26.25-.39.56-.39.95v3.33h-.63Z"/>
    <path class="cls-2" d="M178.81,95.88c-.13,0-.24-.04-.32-.13-.09-.09-.13-.19-.13-.31s.04-.22.13-.31c.09-.09.2-.13.32-.13s.24.04.32.13c.09.09.13.19.13.31s-.04.22-.13.31c-.09.09-.2.13-.32.13ZM178.49,102.03v-5.19h.63v5.19h-.63Z"/>
    <path class="cls-2" d="M182.98,102.14c-.31,0-.57-.06-.78-.17s-.38-.25-.51-.42c-.13-.17-.23-.33-.3-.49h-.07v.97h-.61v-6.91h.63v2.72h.05c.07-.16.17-.32.29-.48.13-.16.29-.3.51-.42.21-.11.47-.17.79-.17.42,0,.79.11,1.11.34.32.22.57.54.75.94.18.4.27.87.27,1.4s-.09,1.01-.27,1.41c-.18.4-.43.72-.75.94-.32.22-.69.34-1.12.34ZM182.89,101.57c.34,0,.62-.09.86-.28s.41-.44.54-.76c.12-.32.18-.68.18-1.08s-.06-.75-.18-1.07-.3-.57-.53-.75c-.24-.19-.52-.28-.86-.28s-.62.09-.85.27c-.23.18-.41.43-.53.74s-.18.68-.18,1.09.06.78.19,1.1c.12.32.3.57.54.75s.52.27.85.27Z"/>
    <path class="cls-2" d="M188.2,102.09c-.53,0-.95-.16-1.28-.49-.33-.33-.49-.8-.49-1.41v-3.35h.63v3.31c0,.42.12.76.36,1,.24.25.56.37.96.37s.75-.13,1.02-.39.41-.61.41-1.06v-3.23h.63v5.19h-.61v-.96c-.16.36-.38.63-.67.79-.28.16-.6.24-.95.24Z"/>
    <path class="cls-2" d="M193.77,96.84v.55h-1.07v3.41c0,.52.23.76.7.71.04,0,.1,0,.16-.02.06-.01.12-.02.18-.03l.13.54c-.13.04-.29.07-.47.07-.41.03-.73-.07-.97-.29-.23-.22-.35-.54-.35-.94v-3.46h-.77v-.55h.77v-1.23h.63v1.23h1.07Z"/>
    <path class="cls-2" d="M196.88,102.14c-.49,0-.91-.11-1.26-.34-.35-.23-.63-.54-.82-.94-.19-.4-.29-.86-.29-1.39s.09-.99.29-1.39.46-.72.8-.96.74-.35,1.19-.35c.38,0,.73.09,1.07.28.34.19.61.47.82.85.21.38.32.86.32,1.45v.27h-3.84c.01.59.17,1.06.49,1.42.31.35.73.53,1.25.53.36,0,.66-.08.89-.25.23-.17.4-.36.49-.59l.6.19c-.12.32-.35.61-.69.85-.34.24-.77.37-1.3.37ZM195.14,99.08h3.21c-.03-.5-.19-.92-.46-1.25-.28-.33-.65-.49-1.11-.49-.31,0-.59.08-.83.24s-.43.37-.57.63c-.14.26-.22.56-.24.87Z"/>
    <path class="cls-2" d="M203.07,102.03v-6.91h2.25c.49,0,.9.09,1.23.28.33.19.58.44.75.77s.25.69.25,1.09-.08.77-.25,1.1c-.17.32-.42.58-.75.77-.33.19-.74.28-1.22.28h-1.6v2.63h-.66ZM203.73,98.81h1.57c.54,0,.94-.15,1.2-.44.27-.29.4-.67.4-1.12s-.13-.81-.4-1.11c-.27-.29-.67-.44-1.21-.44h-1.57v3.11Z"/>
    <path class="cls-2" d="M208.92,102.03v-5.19h.61v.81h.05c.1-.27.28-.48.54-.64s.55-.24.87-.24c.05,0,.1,0,.17,0,.06,0,.11,0,.15,0v.63s-.07,0-.14-.02c-.07,0-.15-.01-.23-.01-.4,0-.73.12-.99.37-.26.25-.39.56-.39.95v3.33h-.63Z"/>
    <path class="cls-2" d="M214.2,102.14c-.45,0-.85-.11-1.19-.34-.34-.23-.61-.54-.81-.94-.2-.4-.29-.87-.29-1.39s.1-1,.29-1.4c.2-.4.46-.72.81-.95.34-.23.74-.34,1.19-.34s.84.11,1.19.34c.34.23.61.54.81.95.2.4.29.87.29,1.4s-.1.99-.29,1.39c-.19.4-.46.72-.81.94-.35.23-.74.34-1.19.34ZM214.2,101.57c.36,0,.66-.1.9-.29.25-.19.43-.45.56-.77s.2-.67.2-1.05-.07-.74-.2-1.06c-.13-.32-.32-.58-.57-.77-.25-.19-.55-.29-.9-.29s-.65.1-.9.29-.43.45-.56.77c-.13.32-.19.67-.19,1.06s.06.73.19,1.05c.13.32.32.57.56.77.25.19.55.29.9.29Z"/>
    <path class="cls-2" d="M219.96,96.84v.55h-1.22v4.64h-.63v-4.64h-1.02v-.55h1.02v-.74c0-.28.06-.52.19-.71s.29-.34.5-.44c.21-.1.43-.15.67-.15.16,0,.3.01.42.04.11.03.2.05.27.08l-.18.54s-.11-.03-.18-.05c-.07-.02-.16-.03-.26-.03-.26,0-.45.07-.59.22-.14.15-.2.35-.2.62v.62h1.22Z"/>
    <path class="cls-2" d="M221.4,95.88c-.13,0-.24-.04-.32-.13-.09-.09-.13-.19-.13-.31s.04-.22.13-.31c.09-.09.2-.13.32-.13s.24.04.32.13c.09.09.13.19.13.31s-.04.22-.13.31c-.09.09-.2.13-.32.13ZM221.08,102.03v-5.19h.63v5.19h-.63Z"/>
    <path class="cls-2" d="M223.93,95.11v6.91h-.63v-6.91h.63Z"/>
    <path class="cls-2" d="M227.61,102.14c-.49,0-.91-.11-1.26-.34-.35-.23-.63-.54-.82-.94-.19-.4-.29-.86-.29-1.39s.09-.99.29-1.39.46-.72.8-.96.74-.35,1.19-.35c.38,0,.73.09,1.07.28.34.19.61.47.82.85.21.38.32.86.32,1.45v.27h-3.84c.01.59.17,1.06.49,1.42.31.35.73.53,1.25.53.36,0,.66-.08.89-.25.23-.17.4-.36.49-.59l.6.19c-.12.32-.35.61-.69.85-.34.24-.77.37-1.3.37ZM225.88,99.08h3.21c-.03-.5-.19-.92-.46-1.25-.28-.33-.65-.49-1.11-.49-.31,0-.59.08-.83.24s-.43.37-.57.63c-.14.26-.22.56-.24.87Z"/>
    <path class="cls-2" d="M233.94,98.71c0-.5.05-1.01.14-1.54.09-.53.23-1.05.39-1.55.17-.5.37-.96.6-1.36h.62c-.35.72-.63,1.47-.82,2.25-.19.78-.29,1.51-.29,2.21,0,.65.09,1.32.27,1.99s.46,1.4.84,2.18h-.62c-.75-1.38-1.13-2.77-1.13-4.17Z"/>
    <path class="cls-2" d="M239.84,102.12c-.61,0-1.14-.15-1.59-.44s-.81-.7-1.06-1.23-.38-1.16-.38-1.88.13-1.35.38-1.88c.25-.53.6-.94,1.05-1.23.45-.29.96-.44,1.55-.44.5,0,.95.1,1.34.31.39.21.71.48.95.82.25.34.41.72.48,1.12h-.68c-.08-.3-.21-.58-.4-.83s-.42-.45-.71-.59c-.28-.15-.61-.22-.99-.22-.45,0-.84.12-1.2.35-.35.23-.63.57-.84,1s-.31.97-.31,1.58.1,1.13.31,1.57.49.77.84,1.01c.36.23.77.35,1.23.35.42,0,.79-.09,1.11-.27.32-.18.57-.44.75-.78s.27-.73.28-1.19h-1.99v-.58h2.64v.57c0,.58-.12,1.09-.35,1.52s-.56.76-.98,1c-.42.24-.9.35-1.44.35Z"/>
    <path class="cls-2" d="M243.32,102.03l2.53-6.91h.78l2.56,6.91h-.7l-.75-2.05h-2.99l-.73,2.05h-.7ZM244.96,99.39h2.57l-.68-1.88c-.08-.23-.17-.49-.27-.79-.1-.3-.21-.66-.34-1.07-.12.41-.24.77-.34,1.08-.1.3-.19.56-.27.78l-.67,1.88Z"/>
    <path class="cls-2" d="M249.15,95.7v-.59h5.04v.59h-2.19v6.32h-.66v-6.32h-2.19Z"/>
    <path class="cls-2" d="M255.19,95.7v-.59h5.04v.59h-2.19v6.32h-.66v-6.32h-2.19Z"/>
    <path class="cls-2" d="M261.24,102.88c.39-.79.67-1.53.85-2.21.18-.68.27-1.33.27-1.97,0-.69-.1-1.43-.29-2.21s-.47-1.53-.82-2.25h.62c.23.41.42.86.59,1.36s.3,1.02.4,1.55c.09.53.14,1.05.14,1.54,0,.7-.1,1.41-.29,2.11-.2.71-.48,1.4-.84,2.07h-.62Z"/>
  </g>
  <rect class="cls-5" x="82.9" y="156.15" width="223.72" height="24.7"/>
  <g>
    <rect class="cls-4" x="82.71" y="158.87" width="223.72" height="20.37"/>
    <path class="cls-2" d="M102.92,165.79v-6.91h.66v6.32h3.28v.59h-3.95Z"/>
    <path class="cls-2" d="M110.18,165.9c-.45,0-.85-.11-1.19-.34-.34-.23-.61-.54-.81-.94-.2-.4-.29-.87-.29-1.39s.1-1,.29-1.4c.2-.4.46-.72.81-.95.34-.23.74-.34,1.19-.34s.84.11,1.19.34c.34.23.61.54.81.95.2.4.29.87.29,1.4s-.1.99-.29,1.39c-.19.4-.46.72-.81.94-.35.23-.74.34-1.19.34ZM110.18,165.33c.36,0,.66-.1.9-.29.25-.19.43-.45.56-.77s.2-.67.2-1.05-.07-.74-.2-1.06c-.13-.32-.32-.58-.57-.77-.25-.19-.55-.29-.9-.29s-.65.1-.9.29-.43.45-.56.77c-.13.32-.19.67-.19,1.06s.06.73.19,1.05c.13.32.32.57.56.77.25.19.55.29.9.29Z"/>
    <path class="cls-2" d="M115.78,167.84c-.53,0-.96-.1-1.3-.3s-.58-.45-.73-.76l.52-.32c.11.2.28.39.51.56.23.17.56.26,1,.26.46,0,.83-.11,1.1-.34.28-.23.42-.58.42-1.06v-1.16h-.06c-.07.16-.17.32-.3.48s-.3.28-.51.38c-.21.1-.47.15-.78.15-.41,0-.78-.1-1.1-.3s-.57-.49-.75-.87-.27-.84-.27-1.37.09-.99.27-1.39c.18-.4.43-.71.75-.93.32-.22.69-.33,1.12-.33.32,0,.58.06.79.17.21.11.38.25.51.42.13.16.23.32.29.48h.06v-1h.61v5.31c0,.44-.09.8-.28,1.09-.19.28-.44.5-.77.63s-.69.21-1.11.21ZM115.74,165.16c.5,0,.88-.18,1.16-.53.28-.35.41-.84.41-1.46,0-.4-.06-.75-.18-1.07s-.3-.56-.53-.74c-.23-.18-.52-.27-.85-.27s-.63.09-.87.28c-.24.18-.42.43-.54.74-.12.31-.18.66-.18,1.05,0,.59.14,1.07.41,1.44s.66.55,1.17.55Z"/>
    <path class="cls-2" d="M119.84,159.64c-.13,0-.24-.04-.32-.13-.09-.09-.13-.19-.13-.31s.04-.22.13-.31c.09-.09.2-.13.32-.13s.24.04.32.13c.09.09.13.19.13.31s-.04.22-.13.31c-.09.09-.2.13-.32.13ZM119.52,165.79v-5.19h.63v5.19h-.63Z"/>
    <path class="cls-2" d="M123.76,165.88c-.45,0-.85-.11-1.19-.34-.34-.23-.61-.54-.81-.94-.2-.4-.29-.86-.29-1.39s.1-1,.29-1.4.46-.72.81-.94c.34-.23.74-.34,1.19-.34.35,0,.66.07.93.2s.5.3.68.5c.18.2.3.41.37.62l-.6.19c-.04-.13-.12-.27-.23-.41-.12-.15-.27-.27-.46-.37-.19-.1-.42-.15-.68-.15-.35,0-.65.1-.9.29-.25.19-.43.45-.56.77-.13.32-.19.67-.19,1.06s.06.73.19,1.05c.13.32.32.57.56.76.25.19.54.29.9.29.27,0,.5-.05.7-.16.19-.11.35-.23.47-.38.12-.15.2-.29.24-.42l.59.19c-.06.21-.19.42-.37.63-.18.21-.41.38-.69.51-.28.13-.59.2-.94.2Z"/>
    <path class="cls-2" d="M128.5,165.9c-.32,0-.6-.06-.86-.18-.26-.12-.46-.3-.62-.53-.15-.23-.23-.52-.23-.85s.08-.61.25-.81c.17-.2.41-.36.71-.46s.64-.18,1.03-.23c.43-.05.76-.1,1-.14.24-.04.35-.16.35-.36v-.12c0-.35-.1-.62-.32-.82-.21-.2-.51-.3-.9-.3s-.67.08-.9.24c-.23.16-.39.35-.48.57l-.6-.2c.11-.28.28-.51.48-.68.21-.17.44-.29.7-.37.26-.08.52-.12.79-.12.2,0,.41.03.63.08.22.05.42.15.6.27.19.13.34.3.45.53.11.22.17.51.17.85v3.52h-.62v-.82h-.05c-.11.24-.31.45-.57.65-.27.19-.61.29-1.03.29ZM128.59,165.34c.32,0,.59-.07.82-.21.23-.14.41-.33.54-.56.13-.23.19-.49.19-.77v-.74c-.06.06-.17.1-.33.15-.16.04-.34.08-.53.1-.19.03-.35.05-.49.07-.44.05-.77.15-1.01.3-.24.15-.36.38-.36.68s.11.55.33.72c.22.17.5.26.83.26Z"/>
    <path class="cls-2" d="M132.99,158.87v6.91h-.63v-6.91h.63Z"/>
    <path class="cls-2" d="M137.37,165.79v-6.91h.66v6.32h3.28v.59h-3.95Z"/>
    <path class="cls-2" d="M142.93,159.64c-.13,0-.24-.04-.32-.13-.09-.09-.13-.19-.13-.31s.04-.22.13-.31c.09-.09.2-.13.32-.13s.24.04.32.13c.09.09.13.19.13.31s-.04.22-.13.31c-.09.09-.2.13-.32.13ZM142.61,165.79v-5.19h.63v5.19h-.63Z"/>
    <path class="cls-2" d="M145.46,162.55v3.23h-.63v-5.19h.61v.96c.16-.36.38-.62.67-.78.29-.16.6-.24.96-.24.53,0,.95.16,1.28.49s.49.8.49,1.41v3.35h-.63v-3.31c0-.42-.12-.76-.36-1-.24-.25-.56-.37-.96-.37s-.75.13-1.02.39c-.27.26-.41.61-.41,1.06Z"/>
    <path class="cls-2" d="M150.42,165.79v-6.91h.63v4.16h.07l2.4-2.43h.79l-2.2,2.23,2.34,2.96h-.81l-2-2.55-.59.56v1.99h-.63Z"/>
    <path class="cls-2" d="M160.92,165.88c-.58,0-1.1-.15-1.55-.44-.45-.29-.81-.7-1.06-1.23-.26-.53-.38-1.16-.38-1.88s.13-1.35.38-1.88c.26-.53.61-.94,1.06-1.23.45-.29.97-.44,1.55-.44.49,0,.93.1,1.31.3.39.2.7.47.95.81.25.34.41.73.48,1.15h-.66c-.07-.32-.19-.6-.39-.85-.19-.25-.43-.44-.72-.59-.29-.14-.62-.21-.98-.21-.43,0-.83.11-1.19.34s-.64.56-.85.99-.32.97-.32,1.6.11,1.17.32,1.6c.21.44.5.77.85.99.36.22.75.33,1.18.33.36,0,.69-.07.98-.22.29-.14.53-.34.72-.59.19-.25.32-.53.39-.84h.66c-.07.42-.23.8-.48,1.14s-.56.61-.95.82-.83.3-1.32.3Z"/>
    <path class="cls-2" d="M167.05,165.9c-.45,0-.85-.11-1.19-.34-.34-.23-.61-.54-.81-.94-.2-.4-.29-.87-.29-1.39s.1-1,.29-1.4c.2-.4.46-.72.81-.95.34-.23.74-.34,1.19-.34s.84.11,1.19.34c.34.23.61.54.81.95.2.4.29.87.29,1.4s-.1.99-.29,1.39c-.19.4-.46.72-.81.94-.35.23-.74.34-1.19.34ZM167.05,165.33c.36,0,.66-.1.9-.29.25-.19.43-.45.56-.77s.2-.67.2-1.05-.07-.74-.2-1.06c-.13-.32-.32-.58-.57-.77-.25-.19-.55-.29-.9-.29s-.65.1-.9.29-.43.45-.56.77c-.13.32-.19.67-.19,1.06s.06.73.19,1.05c.13.32.32.57.56.77.25.19.55.29.9.29Z"/>
    <path class="cls-2" d="M171.29,162.55v3.23h-.63v-5.19h.61v.96c.16-.36.38-.62.67-.78.29-.16.6-.24.96-.24.53,0,.95.16,1.28.49s.49.8.49,1.41v3.35h-.63v-3.31c0-.42-.12-.76-.36-1-.24-.25-.56-.37-.96-.37s-.75.13-1.02.39c-.27.26-.41.61-.41,1.06Z"/>
    <path class="cls-2" d="M178,160.6v.55h-1.07v3.41c0,.52.23.76.7.71.04,0,.1,0,.16-.02.06-.01.12-.02.18-.03l.13.54c-.13.04-.29.07-.47.07-.41.03-.73-.07-.97-.29-.23-.22-.35-.54-.35-.94v-3.46h-.77v-.55h.77v-1.23h.63v1.23h1.07Z"/>
    <path class="cls-2" d="M179.08,165.79v-5.19h.61v.81h.05c.1-.27.28-.48.54-.64s.55-.24.87-.24c.05,0,.1,0,.17,0,.06,0,.11,0,.15,0v.63s-.07,0-.14-.02c-.07,0-.15-.01-.23-.01-.4,0-.73.12-.99.37-.26.25-.39.56-.39.95v3.33h-.63Z"/>
    <path class="cls-2" d="M184.36,165.9c-.45,0-.85-.11-1.19-.34-.34-.23-.61-.54-.81-.94-.2-.4-.29-.87-.29-1.39s.1-1,.29-1.4c.2-.4.46-.72.81-.95.34-.23.74-.34,1.19-.34s.84.11,1.19.34c.34.23.61.54.81.95.2.4.29.87.29,1.4s-.1.99-.29,1.39c-.19.4-.46.72-.81.94-.35.23-.74.34-1.19.34ZM184.36,165.33c.36,0,.66-.1.9-.29.25-.19.43-.45.56-.77s.2-.67.2-1.05-.07-.74-.2-1.06c-.13-.32-.32-.58-.57-.77-.25-.19-.55-.29-.9-.29s-.65.1-.9.29-.43.45-.56.77c-.13.32-.19.67-.19,1.06s.06.73.19,1.05c.13.32.32.57.56.77.25.19.55.29.9.29Z"/>
    <path class="cls-2" d="M188.6,158.87v6.91h-.63v-6.91h.63Z"/>
    <path class="cls-2" d="M194.71,165.88c-.43,0-.8-.08-1.12-.25-.32-.17-.56-.39-.74-.67-.18-.28-.26-.6-.26-.95,0-.27.05-.51.16-.72s.26-.41.46-.59.44-.39.73-.6l.07-.05c-.27-.32-.48-.61-.64-.87-.16-.26-.24-.54-.24-.86,0-.29.07-.56.2-.78.14-.23.33-.41.57-.54.24-.13.52-.19.84-.19s.6.06.83.19c.24.13.42.3.55.52.13.22.2.46.2.74,0,.31-.08.58-.25.83-.17.24-.4.48-.69.7l-.5.38,1.66,2.04c.1-.18.18-.38.24-.59.06-.21.1-.44.11-.69h.61c-.01.44-.08.79-.2,1.08-.12.28-.24.51-.37.68l.9,1.11h-.76l-.53-.64c-.21.23-.48.4-.8.54-.32.13-.67.2-1.03.2ZM196.17,164.69l-1.78-2.18-.28.2c-.33.24-.56.47-.69.67-.13.2-.2.42-.2.65,0,.37.14.68.41.93.27.24.61.37,1.03.37.29,0,.56-.06.82-.17.26-.11.48-.27.68-.47ZM194.5,161.69l.46-.34c.19-.14.36-.3.5-.48.15-.17.22-.38.22-.63,0-.26-.09-.48-.26-.64s-.39-.25-.67-.25c-.29,0-.53.09-.72.27-.19.18-.28.41-.28.69,0,.23.07.45.2.65s.31.44.54.72Z"/>
    <path class="cls-2" d="M200.93,165.79l2.53-6.91h.78l2.56,6.91h-.7l-.75-2.05h-2.99l-.73,2.05h-.7ZM202.57,163.15h2.57l-.68-1.88c-.08-.23-.17-.49-.27-.79-.1-.3-.21-.66-.34-1.07-.12.41-.24.77-.34,1.08-.1.3-.19.56-.27.78l-.67,1.88Z"/>
    <path class="cls-2" d="M209.66,165.9c-.42,0-.79-.11-1.11-.34-.32-.22-.57-.54-.74-.94-.18-.4-.27-.87-.27-1.41s.09-1,.27-1.4c.18-.4.43-.71.75-.94.32-.22.69-.34,1.11-.34.32,0,.58.06.79.17.21.11.38.25.51.42.13.16.23.32.29.48h.05v-2.72h.63v6.91h-.61v-.97h-.07c-.07.16-.17.33-.3.49s-.3.31-.51.42-.47.17-.79.17ZM209.74,165.33c.33,0,.62-.09.85-.27s.41-.43.53-.75c.12-.32.18-.69.18-1.1s-.06-.77-.18-1.09c-.12-.32-.3-.56-.53-.74s-.52-.27-.85-.27-.63.09-.86.28c-.23.19-.41.44-.53.75-.12.32-.18.67-.18,1.07s.06.76.18,1.08c.12.32.3.57.53.76s.52.28.86.28Z"/>
    <path class="cls-2" d="M214.89,165.9c-.32,0-.6-.06-.86-.18-.26-.12-.46-.3-.62-.53-.15-.23-.23-.52-.23-.85s.08-.61.25-.81c.17-.2.41-.36.71-.46s.64-.18,1.03-.23c.43-.05.76-.1,1-.14.24-.04.35-.16.35-.36v-.12c0-.35-.1-.62-.32-.82-.21-.2-.51-.3-.9-.3s-.67.08-.9.24c-.23.16-.39.35-.48.57l-.6-.2c.11-.28.28-.51.48-.68.21-.17.44-.29.7-.37.26-.08.52-.12.79-.12.2,0,.41.03.63.08.22.05.42.15.6.27.19.13.34.3.45.53.11.22.17.51.17.85v3.52h-.62v-.82h-.05c-.11.24-.31.45-.57.65-.27.19-.61.29-1.03.29ZM214.98,165.34c.32,0,.59-.07.82-.21.23-.14.41-.33.54-.56.13-.23.19-.49.19-.77v-.74c-.06.06-.17.1-.33.15-.16.04-.34.08-.53.1-.19.03-.35.05-.49.07-.44.05-.77.15-1.01.3-.24.15-.36.38-.36.68s.11.55.33.72c.22.17.5.26.83.26Z"/>
    <path class="cls-2" d="M218.74,167.72v-7.12h.61v1h.07c.07-.16.17-.32.29-.48.13-.16.29-.3.51-.42.21-.11.47-.17.79-.17.42,0,.79.11,1.11.34.32.22.57.54.75.94.18.4.27.87.27,1.4s-.09,1.01-.27,1.41c-.18.4-.43.72-.75.94-.32.22-.69.34-1.12.34-.31,0-.57-.06-.78-.17s-.38-.25-.51-.42c-.13-.17-.23-.33-.3-.49h-.05v2.91h-.63ZM220.93,165.33c.34,0,.62-.09.86-.28s.41-.44.54-.76c.12-.32.18-.68.18-1.08s-.06-.75-.18-1.07-.3-.57-.53-.75c-.24-.19-.52-.28-.86-.28s-.62.09-.85.27c-.23.18-.41.43-.53.74s-.18.68-.18,1.09.06.78.19,1.1c.12.32.3.57.54.75s.52.27.85.27Z"/>
    <path class="cls-2" d="M226.22,160.6v.55h-1.07v3.41c0,.52.23.76.7.71.04,0,.1,0,.16-.02.06-.01.12-.02.18-.03l.13.54c-.13.04-.29.07-.47.07-.41.03-.73-.07-.97-.29-.23-.22-.35-.54-.35-.94v-3.46h-.77v-.55h.77v-1.23h.63v1.23h1.07Z"/>
    <path class="cls-2" d="M228.72,165.9c-.32,0-.6-.06-.86-.18-.26-.12-.46-.3-.62-.53-.15-.23-.23-.52-.23-.85s.08-.61.25-.81c.17-.2.41-.36.71-.46s.64-.18,1.03-.23c.43-.05.76-.1,1-.14.24-.04.35-.16.35-.36v-.12c0-.35-.1-.62-.32-.82-.21-.2-.51-.3-.9-.3s-.67.08-.9.24c-.23.16-.39.35-.48.57l-.6-.2c.11-.28.28-.51.48-.68.21-.17.44-.29.7-.37.26-.08.52-.12.79-.12.2,0,.41.03.63.08.22.05.42.15.6.27.19.13.34.3.45.53.11.22.17.51.17.85v3.52h-.62v-.82h-.05c-.11.24-.31.45-.57.65-.27.19-.61.29-1.03.29ZM228.81,165.34c.32,0,.59-.07.82-.21.23-.14.41-.33.54-.56.13-.23.19-.49.19-.77v-.74c-.06.06-.17.1-.33.15-.16.04-.34.08-.53.1-.19.03-.35.05-.49.07-.44.05-.77.15-1.01.3-.24.15-.36.38-.36.68s.11.55.33.72c.22.17.5.26.83.26Z"/>
    <path class="cls-2" d="M234.33,160.6v.55h-1.07v3.41c0,.52.23.76.7.71.04,0,.1,0,.16-.02.06-.01.12-.02.18-.03l.13.54c-.13.04-.29.07-.47.07-.41.03-.73-.07-.97-.29-.23-.22-.35-.54-.35-.94v-3.46h-.77v-.55h.77v-1.23h.63v1.23h1.07Z"/>
    <path class="cls-2" d="M235.73,159.64c-.13,0-.24-.04-.32-.13-.09-.09-.13-.19-.13-.31s.04-.22.13-.31c.09-.09.2-.13.32-.13s.24.04.32.13c.09.09.13.19.13.31s-.04.22-.13.31c-.09.09-.2.13-.32.13ZM235.41,165.79v-5.19h.63v5.19h-.63Z"/>
    <path class="cls-2" d="M239.65,165.9c-.45,0-.85-.11-1.19-.34-.34-.23-.61-.54-.81-.94-.2-.4-.29-.87-.29-1.39s.1-1,.29-1.4c.2-.4.46-.72.81-.95.34-.23.74-.34,1.19-.34s.84.11,1.19.34c.34.23.61.54.81.95.2.4.29.87.29,1.4s-.1.99-.29,1.39c-.19.4-.46.72-.81.94-.35.23-.74.34-1.19.34ZM239.65,165.33c.36,0,.66-.1.9-.29.25-.19.43-.45.56-.77s.2-.67.2-1.05-.07-.74-.2-1.06c-.13-.32-.32-.58-.57-.77-.25-.19-.55-.29-.9-.29s-.65.1-.9.29-.43.45-.56.77c-.13.32-.19.67-.19,1.06s.06.73.19,1.05c.13.32.32.57.56.77.25.19.55.29.9.29Z"/>
    <path class="cls-2" d="M243.89,162.55v3.23h-.63v-5.19h.61v.96c.16-.36.38-.62.67-.78.29-.16.6-.24.96-.24.53,0,.95.16,1.28.49s.49.8.49,1.41v3.35h-.63v-3.31c0-.42-.12-.76-.36-1-.24-.25-.56-.37-.96-.37s-.75.13-1.02.39c-.27.26-.41.61-.41,1.06Z"/>
    <path class="cls-2" d="M251.64,165.79v-6.91h2.25c.49,0,.9.09,1.23.28.33.19.58.44.75.77s.25.69.25,1.09-.08.77-.25,1.1c-.17.32-.42.58-.75.77-.33.19-.74.28-1.22.28h-1.6v2.63h-.66ZM252.3,162.57h1.57c.54,0,.94-.15,1.2-.44.27-.29.4-.67.4-1.12s-.13-.81-.4-1.11c-.27-.29-.67-.44-1.21-.44h-1.57v3.11Z"/>
    <path class="cls-2" d="M257.48,165.79v-5.19h.61v.81h.05c.1-.27.28-.48.54-.64s.55-.24.87-.24c.05,0,.1,0,.17,0,.06,0,.11,0,.15,0v.63s-.07,0-.14-.02c-.07,0-.15-.01-.23-.01-.4,0-.73.12-.99.37-.26.25-.39.56-.39.95v3.33h-.63Z"/>
    <path class="cls-2" d="M262.76,165.9c-.45,0-.85-.11-1.19-.34-.34-.23-.61-.54-.81-.94-.2-.4-.29-.87-.29-1.39s.1-1,.29-1.4c.2-.4.46-.72.81-.95.34-.23.74-.34,1.19-.34s.84.11,1.19.34c.34.23.61.54.81.95.2.4.29.87.29,1.4s-.1.99-.29,1.39c-.19.4-.46.72-.81.94-.35.23-.74.34-1.19.34ZM262.76,165.33c.36,0,.66-.1.9-.29.25-.19.43-.45.56-.77s.2-.67.2-1.05-.07-.74-.2-1.06c-.13-.32-.32-.58-.57-.77-.25-.19-.55-.29-.9-.29s-.65.1-.9.29-.43.45-.56.77c-.13.32-.19.67-.19,1.06s.06.73.19,1.05c.13.32.32.57.56.77.25.19.55.29.9.29Z"/>
    <path class="cls-2" d="M268.12,160.6v.55h-1.07v3.41c0,.52.23.76.7.71.04,0,.1,0,.16-.02.06-.01.12-.02.18-.03l.13.54c-.13.04-.29.07-.47.07-.41.03-.73-.07-.97-.29-.23-.22-.35-.54-.35-.94v-3.46h-.77v-.55h.77v-1.23h.63v1.23h1.07Z"/>
    <path class="cls-2" d="M271.15,165.9c-.45,0-.85-.11-1.19-.34-.34-.23-.61-.54-.81-.94-.2-.4-.29-.87-.29-1.39s.1-1,.29-1.4c.2-.4.46-.72.81-.95.34-.23.74-.34,1.19-.34s.84.11,1.19.34c.34.23.61.54.81.95.2.4.29.87.29,1.4s-.1.99-.29,1.39c-.19.4-.46.72-.81.94-.35.23-.74.34-1.19.34ZM271.15,165.33c.36,0,.66-.1.9-.29.25-.19.43-.45.56-.77s.2-.67.2-1.05-.07-.74-.2-1.06c-.13-.32-.32-.58-.57-.77-.25-.19-.55-.29-.9-.29s-.65.1-.9.29-.43.45-.56.77c-.13.32-.19.67-.19,1.06s.06.73.19,1.05c.13.32.32.57.56.77.25.19.55.29.9.29Z"/>
    <path class="cls-2" d="M276.78,165.88c-.45,0-.85-.11-1.19-.34-.34-.23-.61-.54-.81-.94-.2-.4-.29-.86-.29-1.39s.1-1,.29-1.4.46-.72.81-.94c.34-.23.74-.34,1.19-.34.35,0,.66.07.93.2s.5.3.68.5c.18.2.3.41.37.62l-.6.19c-.04-.13-.12-.27-.23-.41-.12-.15-.27-.27-.46-.37-.19-.1-.42-.15-.68-.15-.35,0-.65.1-.9.29-.25.19-.43.45-.56.77-.13.32-.19.67-.19,1.06s.06.73.19,1.05c.13.32.32.57.56.76.25.19.54.29.9.29.27,0,.5-.05.7-.16.19-.11.35-.23.47-.38.12-.15.2-.29.24-.42l.59.19c-.06.21-.19.42-.37.63-.18.21-.41.38-.69.51-.28.13-.59.2-.94.2Z"/>
    <path class="cls-2" d="M282.09,165.9c-.45,0-.85-.11-1.19-.34-.34-.23-.61-.54-.81-.94-.2-.4-.29-.87-.29-1.39s.1-1,.29-1.4c.2-.4.46-.72.81-.95.34-.23.74-.34,1.19-.34s.84.11,1.19.34c.34.23.61.54.81.95.2.4.29.87.29,1.4s-.1.99-.29,1.39c-.19.4-.46.72-.81.94-.35.23-.74.34-1.19.34ZM282.09,165.33c.36,0,.66-.1.9-.29.25-.19.43-.45.56-.77s.2-.67.2-1.05-.07-.74-.2-1.06c-.13-.32-.32-.58-.57-.77-.25-.19-.55-.29-.9-.29s-.65.1-.9.29-.43.45-.56.77c-.13.32-.19.67-.19,1.06s.06.73.19,1.05c.13.32.32.57.56.77.25.19.55.29.9.29Z"/>
    <path class="cls-2" d="M286.33,158.87v6.91h-.63v-6.91h.63Z"/>
    <path class="cls-2" d="M177.14,173.87c0-.5.05-1.01.14-1.54.09-.53.23-1.05.39-1.55.17-.5.37-.96.6-1.36h.62c-.35.72-.63,1.47-.82,2.25-.19.78-.29,1.51-.29,2.21,0,.65.09,1.32.27,1.99s.46,1.4.84,2.18h-.62c-.75-1.38-1.13-2.77-1.13-4.17Z"/>
    <path class="cls-2" d="M180.32,177.19v-6.91h.66v6.32h3.28v.59h-3.95Z"/>
    <path class="cls-2" d="M185.54,177.19v-.48l2.27-2.53c.29-.32.52-.6.7-.83.18-.23.31-.45.39-.65.08-.2.12-.41.12-.62,0-.39-.13-.71-.4-.95-.27-.24-.6-.36-1-.36s-.76.13-1.01.39c-.25.26-.38.6-.38,1h-.64c0-.38.09-.72.27-1.02s.42-.53.73-.7c.31-.17.66-.26,1.05-.26s.74.08,1.04.25c.3.17.54.39.71.68.17.28.26.6.26.96,0,.25-.04.5-.13.73-.09.23-.24.5-.46.8-.22.3-.52.66-.91,1.08l-1.69,1.88v.05h3.4v.59h-4.32Z"/>
    <path class="cls-2" d="M194.2,177.28c-.58,0-1.1-.15-1.55-.44-.45-.29-.81-.7-1.06-1.23-.26-.53-.38-1.16-.38-1.88s.13-1.35.38-1.88c.26-.53.61-.94,1.06-1.23.45-.29.97-.44,1.55-.44.49,0,.93.1,1.31.3.39.2.7.47.95.81.25.34.41.73.48,1.15h-.66c-.07-.32-.19-.6-.39-.85-.19-.25-.43-.44-.72-.59-.29-.14-.62-.21-.98-.21-.43,0-.83.11-1.19.34s-.64.56-.85.99-.32.97-.32,1.6.11,1.17.32,1.6c.21.44.5.77.85.99.36.22.75.33,1.18.33.36,0,.69-.07.98-.22.29-.14.53-.34.72-.59.19-.25.32-.53.39-.84h.66c-.07.42-.23.8-.48,1.14s-.56.61-.95.82c-.38.2-.83.3-1.32.3Z"/>
    <path class="cls-2" d="M197.63,177.19l2.53-6.91h.78l2.56,6.91h-.7l-.75-2.05h-2.99l-.73,2.05h-.7ZM199.27,174.55h2.57l-.68-1.88c-.08-.23-.17-.49-.27-.79-.1-.3-.21-.66-.34-1.07-.12.41-.24.77-.34,1.08-.1.3-.19.56-.27.78l-.67,1.88Z"/>
    <path class="cls-2" d="M204.67,177.19v-6.91h2.25c.49,0,.9.09,1.23.28.33.19.58.44.75.77s.25.69.25,1.09-.08.77-.25,1.1c-.17.32-.42.58-.75.77-.33.19-.74.28-1.22.28h-1.6v2.63h-.66ZM205.33,173.97h1.57c.54,0,.94-.15,1.2-.44.27-.29.4-.67.4-1.12s-.13-.81-.4-1.11c-.27-.29-.67-.44-1.21-.44h-1.57v3.11Z"/>
    <path class="cls-2" d="M210.24,178.04c.39-.79.67-1.53.85-2.21.18-.68.27-1.33.27-1.97,0-.69-.1-1.43-.29-2.21s-.47-1.53-.82-2.25h.62c.23.41.42.86.59,1.36s.3,1.02.4,1.55c.09.53.14,1.05.14,1.54,0,.7-.1,1.41-.29,2.11-.2.71-.48,1.4-.84,2.07h-.62Z"/>
  </g>
  <g>
    <rect class="cls-4" x="82.9" y="197.74" width="223.72" height="11.5"/>
    <path d="M141.66,204.65v-6.91h.66v3.08h3.89v-3.08h.66v6.91h-.66v-3.24h-3.89v3.24h-.66Z"/>
    <path d="M150.6,204.77c-.45,0-.85-.11-1.19-.34-.34-.23-.61-.54-.81-.94-.2-.4-.29-.87-.29-1.39s.1-1,.29-1.4c.2-.4.46-.72.81-.95.34-.23.74-.34,1.19-.34s.84.11,1.19.34c.34.23.61.54.81.95.2.4.29.87.29,1.4s-.1.99-.29,1.39c-.19.4-.46.72-.81.94-.35.23-.74.34-1.19.34ZM150.6,204.2c.36,0,.66-.1.9-.29.25-.19.43-.45.56-.76.13-.32.2-.67.2-1.05s-.07-.74-.2-1.06-.32-.58-.57-.77c-.25-.19-.55-.29-.9-.29s-.65.1-.9.29c-.25.19-.43.45-.56.77s-.19.67-.19,1.06.06.73.19,1.05c.13.32.32.57.56.76.25.19.55.29.9.29Z"/>
    <path d="M155.86,204.77c-.51,0-.93-.12-1.26-.35-.33-.23-.54-.56-.64-1l.6-.14c.07.31.22.54.44.7.22.15.5.23.85.23.39,0,.71-.09.94-.26.24-.18.36-.4.36-.66,0-.42-.28-.7-.84-.83l-.84-.2c-.89-.21-1.33-.67-1.33-1.38,0-.29.08-.55.23-.76.16-.22.37-.39.65-.52.27-.12.58-.19.93-.19.49,0,.88.11,1.16.33.29.22.49.52.61.89l-.58.15c-.08-.24-.21-.43-.4-.59-.19-.16-.45-.23-.79-.23s-.63.08-.85.25-.33.38-.33.63c0,.43.31.71.93.86l.79.19c.88.21,1.31.66,1.31,1.36,0,.3-.08.56-.25.79-.16.23-.39.41-.68.54-.29.13-.63.2-1.01.2Z"/>
    <path d="M160.86,199.47v.55h-1.07v3.41c0,.52.23.76.7.71.04,0,.1,0,.16-.02.06-.01.12-.02.18-.04l.13.54c-.13.04-.29.07-.47.07-.41.03-.73-.07-.97-.29-.23-.22-.35-.54-.35-.94v-3.46h-.77v-.55h.77v-1.23h.63v1.23h1.07Z"/>
    <path d="M167.43,204.75c-.58,0-1.1-.15-1.55-.44-.45-.29-.81-.7-1.06-1.23-.26-.53-.38-1.16-.38-1.88s.13-1.35.38-1.88c.26-.53.61-.94,1.06-1.23.45-.29.97-.44,1.55-.44.49,0,.93.1,1.31.3.39.2.7.47.95.81.25.34.41.73.48,1.15h-.66c-.07-.32-.19-.6-.39-.85-.19-.25-.43-.45-.72-.59-.29-.14-.62-.21-.98-.21-.43,0-.83.11-1.19.34s-.64.56-.85.99c-.21.44-.32.97-.32,1.61s.11,1.17.32,1.61c.21.44.5.76.85.99.36.22.75.33,1.18.33.36,0,.69-.07.98-.22.29-.14.53-.34.72-.59.19-.25.32-.53.39-.84h.66c-.07.42-.23.8-.48,1.14s-.56.61-.95.82-.83.3-1.32.3Z"/>
    <path d="M173.55,204.77c-.45,0-.85-.11-1.19-.34-.34-.23-.61-.54-.81-.94-.2-.4-.29-.87-.29-1.39s.1-1,.29-1.4c.2-.4.46-.72.81-.95.34-.23.74-.34,1.19-.34s.84.11,1.19.34c.34.23.61.54.81.95.2.4.29.87.29,1.4s-.1.99-.29,1.39c-.19.4-.46.72-.81.94-.35.23-.74.34-1.19.34ZM173.55,204.2c.36,0,.66-.1.9-.29.25-.19.43-.45.56-.76.13-.32.2-.67.2-1.05s-.07-.74-.2-1.06-.32-.58-.57-.77c-.25-.19-.55-.29-.9-.29s-.65.1-.9.29c-.25.19-.43.45-.56.77s-.19.67-.19,1.06.06.73.19,1.05c.13.32.32.57.56.76.25.19.55.29.9.29Z"/>
    <path d="M177.79,201.42v3.23h-.63v-5.19h.61v.96c.16-.36.38-.62.67-.78.29-.16.6-.24.96-.24.53,0,.95.16,1.28.49.33.33.49.8.49,1.41v3.35h-.63v-3.31c0-.42-.12-.76-.36-1-.24-.25-.56-.37-.96-.37s-.75.13-1.02.39c-.27.26-.41.61-.41,1.06Z"/>
    <path d="M184.51,199.47v.55h-1.07v3.41c0,.52.23.76.7.71.04,0,.1,0,.16-.02.06-.01.12-.02.18-.04l.13.54c-.13.04-.29.07-.47.07-.41.03-.73-.07-.97-.29-.23-.22-.35-.54-.35-.94v-3.46h-.77v-.55h.77v-1.23h.63v1.23h1.07Z"/>
    <path d="M185.59,204.65v-5.19h.61v.81h.05c.1-.27.28-.48.54-.64s.55-.24.87-.24c.05,0,.1,0,.17,0,.06,0,.11,0,.15,0v.63s-.07,0-.14-.02c-.07,0-.15-.01-.23-.01-.4,0-.73.12-.99.37-.26.25-.39.57-.39.95v3.33h-.63Z"/>
    <path d="M190.87,204.77c-.45,0-.85-.11-1.19-.34-.34-.23-.61-.54-.81-.94-.2-.4-.29-.87-.29-1.39s.1-1,.29-1.4c.2-.4.46-.72.81-.95.34-.23.74-.34,1.19-.34s.84.11,1.19.34c.34.23.61.54.81.95.2.4.29.87.29,1.4s-.1.99-.29,1.39c-.19.4-.46.72-.81.94-.35.23-.74.34-1.19.34ZM190.87,204.2c.36,0,.66-.1.9-.29.25-.19.43-.45.56-.76.13-.32.2-.67.2-1.05s-.07-.74-.2-1.06-.32-.58-.57-.77c-.25-.19-.55-.29-.9-.29s-.65.1-.9.29c-.25.19-.43.45-.56.77s-.19.67-.19,1.06.06.73.19,1.05c.13.32.32.57.56.76.25.19.55.29.9.29Z"/>
    <path d="M195.1,197.74v6.91h-.63v-6.91h.63Z"/>
    <path d="M197.32,197.74v6.91h-.63v-6.91h.63Z"/>
    <path d="M201.01,204.77c-.49,0-.91-.11-1.26-.34-.35-.23-.63-.54-.82-.94-.19-.4-.29-.86-.29-1.39s.09-.99.29-1.39.46-.72.8-.96c.34-.23.74-.35,1.19-.35.38,0,.73.09,1.07.28.34.19.61.47.82.85.21.38.32.87.32,1.45v.27h-3.84c.01.59.17,1.06.49,1.42.31.35.73.53,1.25.53.36,0,.66-.08.89-.25.23-.17.4-.37.49-.59l.6.19c-.12.32-.35.61-.69.85-.34.24-.77.37-1.3.37ZM199.27,201.71h3.21c-.03-.5-.19-.92-.46-1.25-.28-.33-.65-.49-1.11-.49-.31,0-.59.08-.83.24s-.43.37-.57.63c-.14.26-.22.56-.24.88Z"/>
    <path d="M204.41,204.65v-5.19h.61v.81h.05c.1-.27.28-.48.54-.64s.55-.24.87-.24c.05,0,.1,0,.17,0,.06,0,.11,0,.15,0v.63s-.07,0-.14-.02c-.07,0-.15-.01-.23-.01-.4,0-.73.12-.99.37-.26.25-.39.57-.39.95v3.33h-.63Z"/>
    <path d="M211.28,197.74v6.91h-.66v-6.91h.66Z"/>
    <path d="M213.62,201.42v3.23h-.63v-5.19h.61v.96c.16-.36.38-.62.67-.78.29-.16.6-.24.96-.24.53,0,.95.16,1.28.49.33.33.49.8.49,1.41v3.35h-.63v-3.31c0-.42-.12-.76-.36-1-.24-.25-.56-.37-.96-.37s-.75.13-1.02.39c-.27.26-.41.61-.41,1.06Z"/>
    <path d="M220.33,199.47v.55h-1.07v3.41c0,.52.23.76.7.71.04,0,.1,0,.16-.02.06-.01.12-.02.18-.04l.13.54c-.13.04-.29.07-.47.07-.41.03-.73-.07-.97-.29-.23-.22-.35-.54-.35-.94v-3.46h-.77v-.55h.77v-1.23h.63v1.23h1.07Z"/>
    <path d="M223.44,204.77c-.49,0-.91-.11-1.26-.34-.35-.23-.63-.54-.82-.94-.19-.4-.29-.86-.29-1.39s.09-.99.29-1.39.46-.72.8-.96c.34-.23.74-.35,1.19-.35.38,0,.73.09,1.07.28.34.19.61.47.82.85.21.38.32.87.32,1.45v.27h-3.84c.01.59.17,1.06.49,1.42.31.35.73.53,1.25.53.36,0,.66-.08.89-.25.23-.17.4-.37.49-.59l.6.19c-.12.32-.35.61-.69.85-.34.24-.77.37-1.3.37ZM221.7,201.71h3.21c-.03-.5-.19-.92-.46-1.25-.28-.33-.65-.49-1.11-.49-.31,0-.59.08-.83.24s-.43.37-.57.63c-.14.26-.22.56-.24.88Z"/>
    <path d="M226.84,204.65v-5.19h.61v.81h.05c.1-.27.28-.48.54-.64s.55-.24.87-.24c.05,0,.1,0,.17,0,.06,0,.11,0,.15,0v.63s-.07,0-.14-.02c-.07,0-.15-.01-.23-.01-.4,0-.73.12-.99.37-.26.25-.39.57-.39.95v3.33h-.63Z"/>
    <path d="M232.56,199.47v.55h-1.22v4.64h-.63v-4.64h-1.02v-.55h1.02v-.74c0-.28.06-.52.19-.71.13-.19.29-.34.5-.44.21-.1.43-.15.67-.15.16,0,.3.01.42.04s.2.05.27.08l-.18.54s-.11-.03-.18-.05c-.07-.02-.16-.03-.26-.03-.26,0-.45.07-.59.22-.14.15-.2.35-.2.62v.62h1.22Z"/>
    <path d="M234.89,204.77c-.32,0-.6-.06-.86-.18-.26-.12-.46-.3-.62-.53-.15-.23-.23-.52-.23-.85s.08-.61.25-.81c.17-.2.41-.36.71-.46.3-.1.64-.18,1.03-.22.43-.05.76-.1,1-.14.24-.04.35-.16.35-.36v-.12c0-.35-.1-.62-.32-.82-.21-.2-.51-.3-.9-.3s-.67.08-.9.24c-.23.16-.39.35-.48.57l-.6-.2c.11-.28.28-.51.48-.68s.44-.29.7-.37c.26-.08.52-.12.79-.12.2,0,.41.03.63.08.22.05.42.15.6.27.19.13.34.3.45.53.11.22.17.51.17.85v3.52h-.62v-.82h-.05c-.11.24-.31.45-.57.65-.27.19-.61.29-1.03.29ZM234.99,204.21c.32,0,.59-.07.82-.21.23-.14.41-.33.54-.56.13-.23.19-.49.19-.77v-.74c-.06.06-.17.1-.33.15-.16.04-.34.08-.53.1s-.35.05-.49.07c-.44.05-.77.15-1.01.3-.24.15-.36.38-.36.68s.11.55.33.72c.22.17.5.26.83.26Z"/>
    <path d="M240.77,204.75c-.45,0-.85-.11-1.19-.34-.34-.23-.61-.54-.81-.94s-.29-.86-.29-1.39.1-1,.29-1.4.46-.72.81-.94c.34-.23.74-.34,1.19-.34.35,0,.66.07.93.2.27.13.5.3.68.5.18.2.3.41.37.62l-.6.19c-.04-.13-.12-.27-.23-.41s-.27-.27-.46-.37c-.19-.1-.42-.15-.68-.15-.35,0-.65.1-.9.29-.25.19-.43.45-.56.76-.13.32-.19.68-.19,1.06s.06.74.19,1.05.32.57.56.76.54.29.9.29c.27,0,.5-.05.7-.16.19-.11.35-.23.47-.38.12-.15.2-.29.24-.42l.59.19c-.06.21-.19.42-.37.63s-.41.38-.69.51c-.28.13-.59.2-.94.2Z"/>
    <path d="M246.16,204.77c-.49,0-.91-.11-1.26-.34-.35-.23-.63-.54-.82-.94-.19-.4-.29-.86-.29-1.39s.09-.99.29-1.39.46-.72.8-.96c.34-.23.74-.35,1.19-.35.38,0,.73.09,1.07.28.34.19.61.47.82.85.21.38.32.87.32,1.45v.27h-3.84c.01.59.17,1.06.49,1.42.31.35.73.53,1.25.53.36,0,.66-.08.89-.25.23-.17.4-.37.49-.59l.6.19c-.12.32-.35.61-.69.85-.34.24-.77.37-1.3.37ZM244.43,201.71h3.21c-.03-.5-.19-.92-.46-1.25-.28-.33-.65-.49-1.11-.49-.31,0-.59.08-.83.24s-.43.37-.57.63c-.14.26-.22.56-.24.88Z"/>
  </g>
  <rect class="cls-6" x="82.9" y="288.66" width="223.72" height="24.7"/>
  <g>
    <rect class="cls-4" x="82.71" y="297.11" width="223.72" height="11.5"/>
    <path class="cls-2" d="M163.6,304.02v-6.91h2.25c.49,0,.9.09,1.23.28s.58.45.75.77c.17.32.25.69.25,1.09s-.08.77-.25,1.1-.42.58-.75.77-.74.28-1.22.28h-1.6v2.62h-.66ZM164.25,300.8h1.57c.54,0,.94-.15,1.2-.44.27-.29.4-.67.4-1.12s-.13-.81-.4-1.11c-.27-.29-.67-.44-1.21-.44h-1.57v3.11Z"/>
    <path class="cls-2" d="M170.07,300.79v3.23h-.63v-6.91h.63v2.64c.16-.34.38-.59.66-.75s.59-.23.94-.23c.53,0,.95.16,1.28.49.33.33.49.8.49,1.41v3.35h-.63v-3.31c0-.42-.12-.76-.36-1-.24-.25-.56-.37-.96-.37s-.75.13-1.02.39c-.27.26-.41.61-.41,1.06Z"/>
    <path class="cls-2" d="M174.73,305.89l.17-.55.07.02c.28.09.51.08.72-.03s.37-.34.5-.71l.21-.57-1.99-5.23h.69l1.2,3.26c.09.23.16.46.23.69.07.23.13.46.2.68.07-.23.14-.45.21-.68.07-.23.15-.46.23-.69l1.2-3.26h.68l-2.3,6.03c-.29.75-.76,1.13-1.42,1.13-.13,0-.24-.01-.35-.03s-.19-.05-.25-.07Z"/>
    <path class="cls-2" d="M181.82,304.13c-.51,0-.93-.12-1.26-.35-.33-.23-.54-.56-.64-1l.6-.14c.07.31.22.54.44.7.22.15.5.23.85.23.39,0,.71-.09.94-.26.24-.18.36-.4.36-.66,0-.42-.28-.7-.84-.83l-.84-.2c-.89-.21-1.33-.67-1.33-1.38,0-.29.08-.55.23-.76.16-.22.37-.39.65-.52.27-.12.58-.19.93-.19.49,0,.88.11,1.16.33.29.22.49.52.61.89l-.58.15c-.08-.24-.21-.43-.4-.59-.19-.16-.45-.23-.79-.23s-.63.08-.85.25-.33.38-.33.63c0,.43.31.71.93.86l.79.19c.88.21,1.31.66,1.31,1.36,0,.3-.08.56-.25.79-.16.23-.39.41-.68.54-.29.13-.63.2-1.01.2Z"/>
    <path class="cls-2" d="M185.39,297.87c-.13,0-.24-.04-.32-.13-.09-.09-.13-.19-.13-.31s.04-.22.13-.31c.09-.09.2-.13.32-.13s.24.04.32.13c.09.09.13.19.13.31s-.04.22-.13.31c-.09.09-.2.13-.32.13ZM185.07,304.02v-5.19h.63v5.19h-.63Z"/>
    <path class="cls-2" d="M189.31,304.12c-.45,0-.85-.11-1.19-.34-.34-.23-.61-.54-.81-.94s-.29-.86-.29-1.39.1-1,.29-1.4.46-.72.81-.94c.34-.23.74-.34,1.19-.34.35,0,.66.07.93.2.27.13.5.3.68.5.18.2.3.41.37.62l-.6.19c-.04-.13-.12-.27-.23-.41s-.27-.27-.46-.37c-.19-.1-.42-.15-.68-.15-.35,0-.65.1-.9.29-.25.19-.43.45-.56.76-.13.32-.19.68-.19,1.06s.06.74.19,1.05.32.57.56.76.54.29.9.29c.27,0,.5-.05.7-.16.19-.11.35-.23.47-.38.12-.15.2-.29.24-.42l.59.19c-.06.21-.19.42-.37.63s-.41.38-.69.51c-.28.13-.59.2-.94.2Z"/>
    <path class="cls-2" d="M194.05,304.14c-.32,0-.6-.06-.86-.18-.26-.12-.46-.3-.62-.53-.15-.23-.23-.52-.23-.85s.08-.61.25-.81c.17-.2.41-.36.71-.46.3-.1.64-.18,1.03-.22.43-.05.76-.1,1-.14.24-.04.35-.16.35-.36v-.12c0-.35-.1-.62-.32-.82-.21-.2-.51-.3-.9-.3s-.67.08-.9.24c-.23.16-.39.35-.48.57l-.6-.2c.11-.28.28-.51.48-.68s.44-.29.7-.37c.26-.08.52-.12.79-.12.2,0,.41.03.63.08.22.05.42.15.6.27.19.13.34.3.45.53.11.22.17.51.17.85v3.52h-.62v-.82h-.05c-.11.24-.31.45-.57.65-.27.19-.61.29-1.03.29ZM194.15,303.57c.32,0,.59-.07.82-.21.23-.14.41-.33.54-.56.13-.23.19-.49.19-.77v-.74c-.06.06-.17.1-.33.15-.16.04-.34.08-.53.1s-.35.05-.49.07c-.44.05-.77.15-1.01.3-.24.15-.36.38-.36.68s.11.55.33.72c.22.17.5.26.83.26Z"/>
    <path class="cls-2" d="M198.54,297.11v6.91h-.63v-6.91h.63Z"/>
    <path class="cls-2" d="M202.92,304.02v-6.91h.66v6.32h3.28v.59h-3.95Z"/>
    <path class="cls-2" d="M209.52,304.14c-.32,0-.6-.06-.86-.18-.26-.12-.46-.3-.62-.53-.15-.23-.23-.52-.23-.85s.08-.61.25-.81c.17-.2.41-.36.71-.46.3-.1.64-.18,1.03-.22.43-.05.76-.1,1-.14.24-.04.35-.16.35-.36v-.12c0-.35-.1-.62-.32-.82-.21-.2-.51-.3-.9-.3s-.67.08-.9.24c-.23.16-.39.35-.48.57l-.6-.2c.11-.28.28-.51.48-.68s.44-.29.7-.37c.26-.08.52-.12.79-.12.2,0,.41.03.63.08.22.05.42.15.6.27.19.13.34.3.45.53.11.22.17.51.17.85v3.52h-.62v-.82h-.05c-.11.24-.31.45-.57.65-.27.19-.61.29-1.03.29ZM209.62,303.57c.32,0,.59-.07.82-.21.23-.14.41-.33.54-.56.13-.23.19-.49.19-.77v-.74c-.06.06-.17.1-.33.15-.16.04-.34.08-.53.1s-.35.05-.49.07c-.44.05-.77.15-1.01.3-.24.15-.36.38-.36.68s.11.55.33.72c.22.17.5.26.83.26Z"/>
    <path class="cls-2" d="M213.07,305.89l.17-.55.07.02c.28.09.51.08.72-.03s.37-.34.5-.71l.21-.57-1.99-5.23h.69l1.2,3.26c.09.23.16.46.23.69.07.23.13.46.2.68.07-.23.14-.45.21-.68.07-.23.15-.46.23-.69l1.2-3.26h.68l-2.3,6.03c-.29.75-.76,1.13-1.42,1.13-.13,0-.24-.01-.35-.03s-.19-.05-.25-.07Z"/>
    <path class="cls-2" d="M220.42,304.13c-.49,0-.91-.11-1.26-.34-.35-.23-.63-.54-.82-.94-.19-.4-.29-.86-.29-1.39s.09-.99.29-1.39.46-.72.8-.96c.34-.23.74-.35,1.19-.35.38,0,.73.09,1.07.28.34.19.61.47.82.85.21.38.32.87.32,1.45v.27h-3.84c.01.59.17,1.06.49,1.42.31.35.73.53,1.25.53.36,0,.66-.08.89-.25.23-.17.4-.37.49-.59l.6.19c-.12.32-.35.61-.69.85-.34.24-.77.37-1.3.37ZM218.69,301.07h3.21c-.03-.5-.19-.92-.46-1.25-.28-.33-.65-.49-1.11-.49-.31,0-.59.08-.83.24s-.43.37-.57.63c-.14.26-.22.56-.24.88Z"/>
    <path class="cls-2" d="M223.83,304.02v-5.19h.61v.81h.05c.1-.27.28-.48.54-.64s.55-.24.87-.24c.05,0,.1,0,.17,0,.06,0,.11,0,.15,0v.63s-.07,0-.14-.02c-.07,0-.15-.01-.23-.01-.4,0-.73.12-.99.37-.26.25-.39.57-.39.95v3.33h-.63Z"/>
  </g>
  <rect class="cls-8" x="82.71" y="120.94" width="93.17" height="24.7"/>
  <rect class="cls-5" x="182.79" y="120.94" width="123.83" height="24.7"/>
  <g>
    <rect class="cls-4" x="82.71" y="124.03" width="93.17" height="19.4"/>
    <path class="cls-2" d="M91.51,130.95l2.53-6.91h.78l2.56,6.91h-.7l-.75-2.05h-2.99l-.73,2.05h-.7ZM93.15,128.31h2.57l-.68-1.88c-.08-.23-.17-.49-.27-.79-.1-.3-.21-.66-.34-1.07-.12.41-.24.77-.34,1.08-.1.3-.19.56-.27.78l-.67,1.88Z"/>
    <path class="cls-2" d="M100.05,125.76v.55h-1.07v3.41c0,.52.23.76.7.71.04,0,.1,0,.16-.02.06-.01.12-.02.18-.03l.13.54c-.13.04-.29.07-.47.07-.41.03-.73-.07-.97-.29-.23-.22-.35-.54-.35-.94v-3.46h-.77v-.55h.77v-1.23h.63v1.23h1.07Z"/>
    <path class="cls-2" d="M102.67,125.76v.55h-1.07v3.41c0,.52.23.76.7.71.04,0,.1,0,.16-.02.06-.01.12-.02.18-.03l.13.54c-.13.04-.29.07-.47.07-.41.03-.73-.07-.97-.29-.23-.22-.35-.54-.35-.94v-3.46h-.77v-.55h.77v-1.23h.63v1.23h1.07Z"/>
    <path class="cls-2" d="M103.75,130.95v-5.19h.61v.81h.05c.1-.27.28-.48.54-.64s.55-.24.87-.24c.05,0,.1,0,.17,0,.06,0,.11,0,.15,0v.63s-.07,0-.14-.02c-.07,0-.15-.01-.23-.01-.4,0-.73.12-.99.37-.26.25-.39.56-.39.95v3.33h-.63Z"/>
    <path class="cls-2" d="M107.58,124.8c-.13,0-.24-.04-.32-.13-.09-.09-.13-.19-.13-.31s.04-.22.13-.31c.09-.09.2-.13.32-.13s.24.04.32.13c.09.09.13.19.13.31s-.04.22-.13.31c-.09.09-.2.13-.32.13ZM107.26,130.95v-5.19h.63v5.19h-.63Z"/>
    <path class="cls-2" d="M111.75,131.06c-.31,0-.57-.06-.78-.17s-.38-.25-.51-.42c-.13-.17-.23-.33-.3-.49h-.07v.97h-.61v-6.91h.63v2.72h.05c.07-.16.17-.32.29-.48.13-.16.29-.3.51-.42.21-.11.47-.17.79-.17.42,0,.79.11,1.11.34.32.22.57.54.75.94.18.4.27.87.27,1.4s-.09,1.01-.27,1.41c-.18.4-.43.72-.75.94-.32.22-.69.34-1.12.34ZM111.67,130.49c.34,0,.62-.09.86-.28s.41-.44.54-.76c.12-.32.18-.68.18-1.08s-.06-.75-.18-1.07-.3-.57-.53-.75c-.24-.19-.52-.28-.86-.28s-.62.09-.85.27c-.23.18-.41.43-.53.74s-.18.68-.18,1.09.06.78.19,1.1c.12.32.3.57.54.75s.52.27.85.27Z"/>
    <path class="cls-2" d="M116.97,131.02c-.53,0-.95-.16-1.28-.49-.33-.33-.49-.8-.49-1.41v-3.35h.63v3.31c0,.42.12.76.36,1,.24.25.56.37.96.37s.75-.13,1.02-.39.41-.61.41-1.06v-3.23h.63v5.19h-.61v-.96c-.16.36-.38.63-.67.79-.28.16-.6.24-.95.24Z"/>
    <path class="cls-2" d="M122.54,125.76v.55h-1.07v3.41c0,.52.23.76.7.71.04,0,.1,0,.16-.02.06-.01.12-.02.18-.03l.13.54c-.13.04-.29.07-.47.07-.41.03-.73-.07-.97-.29-.23-.22-.35-.54-.35-.94v-3.46h-.77v-.55h.77v-1.23h.63v1.23h1.07Z"/>
    <path class="cls-2" d="M125.65,131.06c-.49,0-.91-.11-1.26-.34-.35-.23-.63-.54-.82-.94-.19-.4-.29-.86-.29-1.39s.09-.99.29-1.39.46-.72.8-.96.74-.35,1.19-.35c.38,0,.73.09,1.07.28.34.19.61.47.82.85.21.38.32.86.32,1.45v.27h-3.84c.01.59.17,1.06.49,1.42.31.35.73.53,1.25.53.36,0,.66-.08.89-.25.23-.17.4-.36.49-.59l.6.19c-.12.32-.35.61-.69.85-.34.24-.77.37-1.3.37ZM123.91,128h3.21c-.03-.5-.19-.92-.46-1.25-.28-.33-.65-.49-1.11-.49-.31,0-.59.08-.83.24s-.43.37-.57.63c-.14.26-.22.56-.24.87Z"/>
    <path class="cls-2" d="M131.84,130.95v-6.91h2.25c.49,0,.9.09,1.23.28.33.19.58.44.75.77s.25.69.25,1.09-.08.77-.25,1.1c-.17.32-.42.58-.75.77-.33.19-.74.28-1.22.28h-1.6v2.63h-.66ZM132.5,127.73h1.57c.54,0,.94-.15,1.2-.44.27-.29.4-.67.4-1.12s-.13-.81-.4-1.11c-.27-.29-.67-.44-1.21-.44h-1.57v3.11Z"/>
    <path class="cls-2" d="M137.69,130.95v-5.19h.61v.81h.05c.1-.27.28-.48.54-.64s.55-.24.87-.24c.05,0,.1,0,.17,0,.06,0,.11,0,.15,0v.63s-.07,0-.14-.02c-.07,0-.15-.01-.23-.01-.4,0-.73.12-.99.37-.26.25-.39.56-.39.95v3.33h-.63Z"/>
    <path class="cls-2" d="M142.97,131.06c-.45,0-.85-.11-1.19-.34-.34-.23-.61-.54-.81-.94-.2-.4-.29-.87-.29-1.39s.1-1,.29-1.4c.2-.4.46-.72.81-.95.34-.23.74-.34,1.19-.34s.84.11,1.19.34c.34.23.61.54.81.95.2.4.29.87.29,1.4s-.1.99-.29,1.39c-.19.4-.46.72-.81.94-.35.23-.74.34-1.19.34ZM142.97,130.49c.36,0,.66-.1.9-.29.25-.19.43-.45.56-.77s.2-.67.2-1.05-.07-.74-.2-1.06c-.13-.32-.32-.58-.57-.77-.25-.19-.55-.29-.9-.29s-.65.1-.9.29-.43.45-.56.77c-.13.32-.19.67-.19,1.06s.06.73.19,1.05c.13.32.32.57.56.77.25.19.55.29.9.29Z"/>
    <path class="cls-2" d="M148.33,125.76v.55h-1.07v3.41c0,.52.23.76.7.71.04,0,.1,0,.16-.02.06-.01.12-.02.18-.03l.13.54c-.13.04-.29.07-.47.07-.41.03-.73-.07-.97-.29-.23-.22-.35-.54-.35-.94v-3.46h-.77v-.55h.77v-1.23h.63v1.23h1.07Z"/>
    <path class="cls-2" d="M151.35,131.06c-.45,0-.85-.11-1.19-.34-.34-.23-.61-.54-.81-.94-.2-.4-.29-.87-.29-1.39s.1-1,.29-1.4c.2-.4.46-.72.81-.95.34-.23.74-.34,1.19-.34s.84.11,1.19.34c.34.23.61.54.81.95.2.4.29.87.29,1.4s-.1.99-.29,1.39c-.19.4-.46.72-.81.94-.35.23-.74.34-1.19.34ZM151.35,130.49c.36,0,.66-.1.9-.29.25-.19.43-.45.56-.77s.2-.67.2-1.05-.07-.74-.2-1.06c-.13-.32-.32-.58-.57-.77-.25-.19-.55-.29-.9-.29s-.65.1-.9.29-.43.45-.56.77c-.13.32-.19.67-.19,1.06s.06.73.19,1.05c.13.32.32.57.56.77.25.19.55.29.9.29Z"/>
    <path class="cls-2" d="M156.98,131.04c-.45,0-.85-.11-1.19-.34-.34-.23-.61-.54-.81-.94-.2-.4-.29-.86-.29-1.39s.1-1,.29-1.4.46-.72.81-.94c.34-.23.74-.34,1.19-.34.35,0,.66.07.93.2s.5.3.68.5c.18.2.3.41.37.62l-.6.19c-.04-.13-.12-.27-.23-.41-.12-.15-.27-.27-.46-.37-.19-.1-.42-.15-.68-.15-.35,0-.65.1-.9.29-.25.19-.43.45-.56.77-.13.32-.19.67-.19,1.06s.06.73.19,1.05c.13.32.32.57.56.76.25.19.54.29.9.29.27,0,.5-.05.7-.16.19-.11.35-.23.47-.38.12-.15.2-.29.24-.42l.59.19c-.06.21-.19.42-.37.63-.18.21-.41.38-.69.51-.28.13-.59.2-.94.2Z"/>
    <path class="cls-2" d="M162.29,131.06c-.45,0-.85-.11-1.19-.34-.34-.23-.61-.54-.81-.94-.2-.4-.29-.87-.29-1.39s.1-1,.29-1.4c.2-.4.46-.72.81-.95.34-.23.74-.34,1.19-.34s.84.11,1.19.34c.34.23.61.54.81.95.2.4.29.87.29,1.4s-.1.99-.29,1.39c-.19.4-.46.72-.81.94-.35.23-.74.34-1.19.34ZM162.29,130.49c.36,0,.66-.1.9-.29.25-.19.43-.45.56-.77s.2-.67.2-1.05-.07-.74-.2-1.06c-.13-.32-.32-.58-.57-.77-.25-.19-.55-.29-.9-.29s-.65.1-.9.29-.43.45-.56.77c-.13.32-.19.67-.19,1.06s.06.73.19,1.05c.13.32.32.57.56.77.25.19.55.29.9.29Z"/>
    <path class="cls-2" d="M166.54,124.03v6.91h-.63v-6.91h.63Z"/>
    <path class="cls-2" d="M118.19,139.03c0-.5.05-1.01.14-1.54.09-.53.23-1.05.39-1.55.17-.5.37-.96.6-1.36h.62c-.35.72-.63,1.47-.82,2.25-.19.78-.29,1.51-.29,2.21,0,.65.09,1.32.27,1.99s.46,1.4.84,2.18h-.62c-.75-1.38-1.13-2.77-1.13-4.17Z"/>
    <path class="cls-2" d="M120.72,142.35l2.53-6.91h.78l2.56,6.91h-.7l-.75-2.05h-2.99l-.73,2.05h-.7ZM122.36,139.71h2.57l-.68-1.88c-.08-.23-.17-.49-.27-.79-.1-.3-.21-.66-.34-1.07-.12.41-.24.77-.34,1.08-.1.3-.19.56-.27.78l-.67,1.88Z"/>
    <path class="cls-2" d="M126.54,136.02v-.59h5.04v.59h-2.19v6.32h-.66v-6.32h-2.19Z"/>
    <path class="cls-2" d="M132.58,136.02v-.59h5.04v.59h-2.19v6.32h-.66v-6.32h-2.19Z"/>
    <path class="cls-2" d="M138.64,143.2c.39-.79.67-1.53.85-2.21.18-.68.27-1.33.27-1.97,0-.69-.1-1.43-.29-2.21s-.47-1.53-.82-2.25h.62c.23.41.42.86.59,1.36s.3,1.02.4,1.55c.09.53.14,1.05.14,1.54,0,.7-.1,1.41-.29,2.11-.2.71-.48,1.4-.84,2.07h-.62Z"/>
  </g>
  <g>
    <rect class="cls-4" x="182.79" y="124.03" width="124.31" height="18.92"/>
    <path class="cls-2" d="M189.22,131.06c-.71,0-1.27-.17-1.7-.52s-.65-.79-.69-1.35h.67c.03.41.21.73.54.94.33.22.72.32,1.18.32.34,0,.65-.06.91-.17.26-.11.47-.27.62-.48s.23-.44.23-.72c0-.35-.13-.61-.39-.79s-.61-.34-1.04-.47l-.82-.24c-.55-.16-.97-.39-1.27-.67s-.45-.65-.45-1.09c0-.37.1-.7.3-.99s.47-.51.81-.67c.34-.16.73-.24,1.16-.24s.82.08,1.15.24c.33.16.59.38.79.65s.3.59.31.94h-.64c-.04-.38-.21-.69-.51-.91s-.67-.33-1.12-.33-.86.12-1.16.36c-.3.24-.45.54-.45.91,0,.24.07.44.2.6.13.16.31.29.51.39s.42.19.65.25l.72.21c.3.08.59.2.88.34.29.15.53.34.72.58s.29.55.29.93-.1.71-.29,1c-.19.29-.47.53-.83.7-.36.17-.79.26-1.29.26Z"/>
    <path class="cls-2" d="M195.13,131.06c-.49,0-.91-.11-1.26-.34-.35-.23-.63-.54-.82-.94-.19-.4-.29-.86-.29-1.39s.09-.99.29-1.39.46-.72.8-.96.74-.35,1.19-.35c.38,0,.73.09,1.07.28.34.19.61.47.82.85.21.38.32.86.32,1.45v.27h-3.84c.01.59.17,1.06.49,1.42.31.35.73.53,1.25.53.36,0,.66-.08.89-.25.23-.17.4-.36.49-.59l.6.19c-.12.32-.35.61-.69.85-.34.24-.77.37-1.3.37ZM193.4,128h3.21c-.03-.5-.19-.92-.46-1.25-.28-.33-.65-.49-1.11-.49-.31,0-.59.08-.83.24s-.43.37-.57.63c-.14.26-.22.56-.24.87Z"/>
    <path class="cls-2" d="M200.56,131.04c-.45,0-.85-.11-1.19-.34-.34-.23-.61-.54-.81-.94-.2-.4-.29-.86-.29-1.39s.1-1,.29-1.4.46-.72.81-.94c.34-.23.74-.34,1.19-.34.35,0,.66.07.93.2s.5.3.68.5c.18.2.3.41.37.62l-.6.19c-.04-.13-.12-.27-.23-.41-.12-.15-.27-.27-.46-.37-.19-.1-.42-.15-.68-.15-.35,0-.65.1-.9.29-.25.19-.43.45-.56.77-.13.32-.19.67-.19,1.06s.06.73.19,1.05c.13.32.32.57.56.76.25.19.54.29.9.29.27,0,.5-.05.7-.16.19-.11.35-.23.47-.38.12-.15.2-.29.24-.42l.59.19c-.06.21-.19.42-.37.63-.18.21-.41.38-.69.51-.28.13-.59.2-.94.2Z"/>
    <path class="cls-2" d="M205.62,131.02c-.53,0-.95-.16-1.28-.49-.33-.33-.49-.8-.49-1.41v-3.35h.63v3.31c0,.42.12.76.36,1,.24.25.56.37.96.37s.75-.13,1.02-.39.41-.61.41-1.06v-3.23h.63v5.19h-.61v-.96c-.16.36-.38.63-.67.79-.28.16-.6.24-.95.24Z"/>
    <path class="cls-2" d="M209.44,130.95v-5.19h.61v.81h.05c.1-.27.28-.48.54-.64s.55-.24.87-.24c.05,0,.1,0,.17,0,.06,0,.11,0,.15,0v.63s-.07,0-.14-.02c-.07,0-.15-.01-.23-.01-.4,0-.73.12-.99.37-.26.25-.39.56-.39.95v3.33h-.63Z"/>
    <path class="cls-2" d="M213.27,124.8c-.13,0-.24-.04-.32-.13-.09-.09-.13-.19-.13-.31s.04-.22.13-.31c.09-.09.2-.13.32-.13s.24.04.32.13c.09.09.13.19.13.31s-.04.22-.13.31c-.09.09-.2.13-.32.13ZM212.95,130.95v-5.19h.63v5.19h-.63Z"/>
    <path class="cls-2" d="M216.92,125.76v.55h-1.07v3.41c0,.52.23.76.7.71.04,0,.1,0,.16-.02.06-.01.12-.02.18-.03l.13.54c-.13.04-.29.07-.47.07-.41.03-.73-.07-.97-.29-.23-.22-.35-.54-.35-.94v-3.46h-.77v-.55h.77v-1.23h.63v1.23h1.07Z"/>
    <path class="cls-2" d="M218.05,132.81l.17-.55.07.02c.28.09.51.08.72-.03.2-.1.37-.34.5-.71l.21-.57-1.99-5.23h.69l1.2,3.26c.09.23.16.46.23.69.07.23.13.46.2.68.07-.23.14-.45.21-.68.07-.23.15-.46.23-.69l1.2-3.26h.68l-2.3,6.03c-.29.75-.76,1.13-1.42,1.13-.13,0-.24-.01-.35-.03-.11-.02-.19-.05-.25-.07Z"/>
    <path class="cls-2" d="M226.28,130.95v-6.91h.94l1.93,4.74c.07.17.15.39.24.66.09.27.18.53.26.78.08-.25.17-.51.26-.77.09-.27.17-.49.25-.67l1.92-4.74h.94v6.91h-.65v-4.39c0-.24,0-.53,0-.85,0-.32,0-.64.01-.95-.11.34-.23.67-.35,1-.12.32-.22.59-.3.8l-1.79,4.39h-.58l-1.81-4.39c-.08-.2-.18-.47-.3-.79s-.23-.66-.36-1.01c0,.29.01.6.02.93,0,.33,0,.61,0,.87v4.39h-.63Z"/>
    <path class="cls-2" d="M236.08,131.06c-.32,0-.6-.06-.86-.18-.26-.12-.46-.3-.62-.53-.15-.23-.23-.52-.23-.85s.08-.61.25-.81c.17-.2.41-.36.71-.46s.64-.18,1.03-.23c.43-.05.76-.1,1-.14.24-.04.35-.16.35-.36v-.12c0-.35-.1-.62-.32-.82-.21-.2-.51-.3-.9-.3s-.67.08-.9.24c-.23.16-.39.35-.48.57l-.6-.2c.11-.28.28-.51.48-.68.21-.17.44-.29.7-.37.26-.08.52-.12.79-.12.2,0,.41.03.63.08.22.05.42.15.6.27.19.13.34.3.45.53.11.22.17.51.17.85v3.52h-.62v-.82h-.05c-.11.24-.31.45-.57.65-.27.19-.61.29-1.03.29ZM236.17,130.5c.32,0,.59-.07.82-.21.23-.14.41-.33.54-.56.13-.23.19-.49.19-.77v-.74c-.06.06-.17.1-.33.15-.16.04-.34.08-.53.1-.19.03-.35.05-.49.07-.44.05-.77.15-1.01.3-.24.15-.36.38-.36.68s.11.55.33.72c.22.17.5.26.83.26Z"/>
    <path class="cls-2" d="M240.56,127.71v3.23h-.63v-5.19h.61v.96c.16-.36.38-.62.67-.78.29-.16.6-.24.96-.24.53,0,.95.16,1.28.49s.49.8.49,1.41v3.35h-.63v-3.31c0-.42-.12-.76-.36-1-.24-.25-.56-.37-.96-.37s-.75.13-1.02.39c-.27.26-.41.61-.41,1.06Z"/>
    <path class="cls-2" d="M246.88,131.06c-.32,0-.6-.06-.86-.18-.26-.12-.46-.3-.62-.53-.15-.23-.23-.52-.23-.85s.08-.61.25-.81c.17-.2.41-.36.71-.46s.64-.18,1.03-.23c.43-.05.76-.1,1-.14.24-.04.35-.16.35-.36v-.12c0-.35-.1-.62-.32-.82-.21-.2-.51-.3-.9-.3s-.67.08-.9.24c-.23.16-.39.35-.48.57l-.6-.2c.11-.28.28-.51.48-.68.21-.17.44-.29.7-.37.26-.08.52-.12.79-.12.2,0,.41.03.63.08.22.05.42.15.6.27.19.13.34.3.45.53.11.22.17.51.17.85v3.52h-.62v-.82h-.05c-.11.24-.31.45-.57.65-.27.19-.61.29-1.03.29ZM246.98,130.5c.32,0,.59-.07.82-.21.23-.14.41-.33.54-.56.13-.23.19-.49.19-.77v-.74c-.06.06-.17.1-.33.15-.16.04-.34.08-.53.1-.19.03-.35.05-.49.07-.44.05-.77.15-1.01.3-.24.15-.36.38-.36.68s.11.55.33.72c.22.17.5.26.83.26Z"/>
    <path class="cls-2" d="M252.72,133c-.53,0-.96-.1-1.3-.3s-.58-.45-.73-.76l.52-.32c.11.2.28.39.51.56.23.17.56.26,1,.26.46,0,.83-.11,1.1-.34.28-.23.42-.58.42-1.06v-1.16h-.06c-.07.16-.17.32-.3.48s-.3.28-.51.38c-.21.1-.47.15-.78.15-.41,0-.78-.1-1.1-.3s-.57-.49-.75-.87-.27-.84-.27-1.37.09-.99.27-1.39c.18-.4.43-.71.75-.93.32-.22.69-.33,1.12-.33.32,0,.58.06.79.17.21.11.38.25.51.42.13.16.23.32.29.48h.06v-1h.61v5.31c0,.44-.09.8-.28,1.09-.19.28-.44.5-.77.63s-.69.21-1.11.21ZM252.69,130.32c.5,0,.88-.18,1.16-.53.28-.35.41-.84.41-1.46,0-.4-.06-.75-.18-1.07s-.3-.56-.53-.74c-.23-.18-.52-.27-.85-.27s-.63.09-.87.28c-.24.18-.42.43-.54.74-.12.31-.18.66-.18,1.05,0,.59.14,1.07.41,1.44s.66.55,1.17.55Z"/>
    <path class="cls-2" d="M258.56,131.06c-.49,0-.91-.11-1.26-.34-.35-.23-.63-.54-.82-.94-.19-.4-.29-.86-.29-1.39s.09-.99.29-1.39.46-.72.8-.96.74-.35,1.19-.35c.38,0,.73.09,1.07.28.34.19.61.47.82.85.21.38.32.86.32,1.45v.27h-3.84c.01.59.17,1.06.49,1.42.31.35.73.53,1.25.53.36,0,.66-.08.89-.25.23-.17.4-.36.49-.59l.6.19c-.12.32-.35.61-.69.85-.34.24-.77.37-1.3.37ZM256.83,128h3.21c-.03-.5-.19-.92-.46-1.25-.28-.33-.65-.49-1.11-.49-.31,0-.59.08-.83.24s-.43.37-.57.63c-.14.26-.22.56-.24.87Z"/>
    <path class="cls-2" d="M261.97,130.95v-5.19h.61v.81h.05c.1-.27.28-.48.54-.64s.55-.24.87-.24c.05,0,.1,0,.17,0,.06,0,.11,0,.15,0v.63s-.07,0-.14-.02c-.07,0-.15-.01-.23-.01-.4,0-.73.12-.99.37-.26.25-.39.56-.39.95v3.33h-.63Z"/>
    <path class="cls-2" d="M268.17,130.95v-6.91h2.25c.49,0,.9.09,1.23.28.33.19.58.44.75.77s.25.69.25,1.09-.08.77-.25,1.1c-.17.32-.42.58-.75.77-.33.19-.74.28-1.22.28h-1.6v2.63h-.66ZM268.83,127.73h1.57c.54,0,.94-.15,1.2-.44.27-.29.4-.67.4-1.12s-.13-.81-.4-1.11c-.27-.29-.67-.44-1.21-.44h-1.57v3.11Z"/>
    <path class="cls-2" d="M274.02,130.95v-5.19h.61v.81h.05c.1-.27.28-.48.54-.64s.55-.24.87-.24c.05,0,.1,0,.17,0,.06,0,.11,0,.15,0v.63s-.07,0-.14-.02c-.07,0-.15-.01-.23-.01-.4,0-.73.12-.99.37-.26.25-.39.56-.39.95v3.33h-.63Z"/>
    <path class="cls-2" d="M279.3,131.06c-.45,0-.85-.11-1.19-.34-.34-.23-.61-.54-.81-.94-.2-.4-.29-.87-.29-1.39s.1-1,.29-1.4c.2-.4.46-.72.81-.95.34-.23.74-.34,1.19-.34s.84.11,1.19.34c.34.23.61.54.81.95.2.4.29.87.29,1.4s-.1.99-.29,1.39c-.19.4-.46.72-.81.94-.35.23-.74.34-1.19.34ZM279.3,130.49c.36,0,.66-.1.9-.29.25-.19.43-.45.56-.77s.2-.67.2-1.05-.07-.74-.2-1.06c-.13-.32-.32-.58-.57-.77-.25-.19-.55-.29-.9-.29s-.65.1-.9.29-.43.45-.56.77c-.13.32-.19.67-.19,1.06s.06.73.19,1.05c.13.32.32.57.56.77.25.19.55.29.9.29Z"/>
    <path class="cls-2" d="M284.66,125.76v.55h-1.07v3.41c0,.52.23.76.7.71.04,0,.1,0,.16-.02.06-.01.12-.02.18-.03l.13.54c-.13.04-.29.07-.47.07-.41.03-.73-.07-.97-.29-.23-.22-.35-.54-.35-.94v-3.46h-.77v-.55h.77v-1.23h.63v1.23h1.07Z"/>
    <path class="cls-2" d="M287.68,131.06c-.45,0-.85-.11-1.19-.34-.34-.23-.61-.54-.81-.94-.2-.4-.29-.87-.29-1.39s.1-1,.29-1.4c.2-.4.46-.72.81-.95.34-.23.74-.34,1.19-.34s.84.11,1.19.34c.34.23.61.54.81.95.2.4.29.87.29,1.4s-.1.99-.29,1.39c-.19.4-.46.72-.81.94-.35.23-.74.34-1.19.34ZM287.68,130.49c.36,0,.66-.1.9-.29.25-.19.43-.45.56-.77s.2-.67.2-1.05-.07-.74-.2-1.06c-.13-.32-.32-.58-.57-.77-.25-.19-.55-.29-.9-.29s-.65.1-.9.29-.43.45-.56.77c-.13.32-.19.67-.19,1.06s.06.73.19,1.05c.13.32.32.57.56.77.25.19.55.29.9.29Z"/>
    <path class="cls-2" d="M293.31,131.04c-.45,0-.85-.11-1.19-.34-.34-.23-.61-.54-.81-.94-.2-.4-.29-.86-.29-1.39s.1-1,.29-1.4.46-.72.81-.94c.34-.23.74-.34,1.19-.34.35,0,.66.07.93.2s.5.3.68.5c.18.2.3.41.37.62l-.6.19c-.04-.13-.12-.27-.23-.41-.12-.15-.27-.27-.46-.37-.19-.1-.42-.15-.68-.15-.35,0-.65.1-.9.29-.25.19-.43.45-.56.77-.13.32-.19.67-.19,1.06s.06.73.19,1.05c.13.32.32.57.56.76.25.19.54.29.9.29.27,0,.5-.05.7-.16.19-.11.35-.23.47-.38.12-.15.2-.29.24-.42l.59.19c-.06.21-.19.42-.37.63-.18.21-.41.38-.69.51-.28.13-.59.2-.94.2Z"/>
    <path class="cls-2" d="M298.63,131.06c-.45,0-.85-.11-1.19-.34-.34-.23-.61-.54-.81-.94-.2-.4-.29-.87-.29-1.39s.1-1,.29-1.4c.2-.4.46-.72.81-.95.34-.23.74-.34,1.19-.34s.84.11,1.19.34c.34.23.61.54.81.95.2.4.29.87.29,1.4s-.1.99-.29,1.39c-.19.4-.46.72-.81.94-.35.23-.74.34-1.19.34ZM298.63,130.49c.36,0,.66-.1.9-.29.25-.19.43-.45.56-.77s.2-.67.2-1.05-.07-.74-.2-1.06c-.13-.32-.32-.58-.57-.77-.25-.19-.55-.29-.9-.29s-.65.1-.9.29-.43.45-.56.77c-.13.32-.19.67-.19,1.06s.06.73.19,1.05c.13.32.32.57.56.77.25.19.55.29.9.29Z"/>
    <path class="cls-2" d="M302.87,124.03v6.91h-.63v-6.91h.63Z"/>
    <path class="cls-2" d="M232.42,139.03c0-.5.05-1.01.14-1.54.09-.53.23-1.05.39-1.55.17-.5.37-.96.6-1.36h.62c-.35.72-.63,1.47-.82,2.25-.19.78-.29,1.51-.29,2.21,0,.65.09,1.32.27,1.99s.46,1.4.84,2.18h-.62c-.75-1.38-1.13-2.77-1.13-4.17Z"/>
    <path class="cls-2" d="M237.68,142.46c-.71,0-1.27-.17-1.7-.52s-.65-.79-.69-1.35h.67c.03.41.21.73.54.94.33.22.72.32,1.18.32.34,0,.65-.06.91-.17.26-.11.47-.27.62-.48s.23-.44.23-.72c0-.35-.13-.61-.39-.79s-.61-.34-1.04-.47l-.82-.24c-.55-.16-.97-.39-1.27-.67s-.45-.65-.45-1.09c0-.37.1-.7.3-.99s.47-.51.81-.67c.34-.16.73-.24,1.16-.24s.82.08,1.15.24c.33.16.59.38.79.65s.3.59.31.94h-.64c-.04-.38-.21-.69-.51-.91s-.67-.33-1.12-.33-.86.12-1.16.36c-.3.24-.45.54-.45.91,0,.24.07.44.2.6.13.16.31.29.51.39s.42.19.65.25l.72.21c.3.08.59.2.88.34.29.15.53.34.72.58s.29.55.29.93-.1.71-.29,1c-.19.29-.47.53-.83.7-.36.17-.79.26-1.29.26Z"/>
    <path class="cls-2" d="M241.6,142.35v-6.91h.94l1.93,4.74c.07.17.15.39.24.66.09.27.18.53.26.78.08-.25.17-.51.26-.77.09-.27.17-.49.25-.67l1.92-4.74h.94v6.91h-.65v-4.39c0-.24,0-.53,0-.85,0-.32,0-.64.01-.95-.11.34-.23.67-.35,1-.12.32-.22.59-.3.8l-1.79,4.39h-.58l-1.81-4.39c-.08-.2-.18-.47-.3-.79s-.23-.66-.36-1.01c0,.29.01.6.02.93,0,.33,0,.61,0,.87v4.39h-.63Z"/>
    <path class="cls-2" d="M250.16,142.35v-6.91h2.25c.49,0,.9.09,1.23.28.33.19.58.44.75.77s.25.69.25,1.09-.08.77-.25,1.1c-.17.32-.42.58-.75.77-.33.19-.74.28-1.22.28h-1.6v2.63h-.66ZM250.81,139.13h1.57c.54,0,.94-.15,1.2-.44.27-.29.4-.67.4-1.12s-.13-.81-.4-1.11c-.27-.29-.67-.44-1.21-.44h-1.57v3.11Z"/>
    <path class="cls-2" d="M255.72,143.2c.39-.79.67-1.53.85-2.21.18-.68.27-1.33.27-1.97,0-.69-.1-1.43-.29-2.21s-.47-1.53-.82-2.25h.62c.23.41.42.86.59,1.36s.3,1.02.4,1.55c.09.53.14,1.05.14,1.54,0,.7-.1,1.41-.29,2.11-.2.71-.48,1.4-.84,2.07h-.62Z"/>
  </g>
  <rect class="cls-9" x="82.96" y="221.53" width="115.77" height="24.7"/>
  <g>
    <rect class="cls-4" x="84.81" y="224.28" width="111.59" height="19.2"/>
    <path class="cls-2" d="M89.87,224.28v6.91h-.66v-6.91h.66Z"/>
    <path class="cls-2" d="M93.24,231.3c-.51,0-.93-.12-1.26-.35-.33-.23-.54-.56-.64-1l.6-.14c.07.31.22.54.44.7.22.15.5.23.85.23.39,0,.71-.09.94-.26.24-.18.36-.4.36-.66,0-.42-.28-.7-.84-.83l-.84-.2c-.89-.21-1.33-.67-1.33-1.38,0-.29.08-.55.23-.76.16-.22.37-.39.65-.52.27-.12.58-.19.93-.19.49,0,.88.11,1.16.33.29.22.49.52.61.89l-.58.15c-.08-.24-.21-.43-.4-.59-.19-.16-.45-.23-.79-.23s-.63.08-.85.25-.33.38-.33.63c0,.43.31.71.93.86l.79.19c.88.21,1.31.66,1.31,1.36,0,.3-.08.56-.25.79-.16.23-.39.41-.68.54-.29.13-.63.2-1.01.2Z"/>
    <path class="cls-2" d="M98.51,231.3c-.45,0-.85-.11-1.19-.34-.34-.23-.61-.54-.81-.94-.2-.4-.29-.87-.29-1.39s.1-1,.29-1.4c.2-.4.46-.72.81-.95.34-.23.74-.34,1.19-.34s.84.11,1.19.34c.34.23.61.54.81.95.2.4.29.87.29,1.4s-.1.99-.29,1.39c-.19.4-.46.72-.81.94-.35.23-.74.34-1.19.34ZM98.51,230.73c.36,0,.66-.1.9-.29.25-.19.43-.45.56-.76.13-.32.2-.67.2-1.05s-.07-.74-.2-1.06-.32-.58-.57-.77c-.25-.19-.55-.29-.9-.29s-.65.1-.9.29c-.25.19-.43.45-.56.77s-.19.67-.19,1.06.06.73.19,1.05c.13.32.32.57.56.76.25.19.55.29.9.29Z"/>
    <path class="cls-2" d="M104.14,231.29c-.45,0-.85-.11-1.19-.34-.34-.23-.61-.54-.81-.94s-.29-.86-.29-1.39.1-1,.29-1.4.46-.72.81-.94c.34-.23.74-.34,1.19-.34.35,0,.66.07.93.2.27.13.5.3.68.5.18.2.3.41.37.62l-.6.19c-.04-.13-.12-.27-.23-.41s-.27-.27-.46-.37c-.19-.1-.42-.15-.68-.15-.35,0-.65.1-.9.29-.25.19-.43.45-.56.76-.13.32-.19.68-.19,1.06s.06.74.19,1.05.32.57.56.76.54.29.9.29c.27,0,.5-.05.7-.16.19-.11.35-.23.47-.38.12-.15.2-.29.24-.42l.59.19c-.06.21-.19.42-.37.63s-.41.38-.69.51c-.28.13-.59.2-.94.2Z"/>
    <path class="cls-2" d="M108.06,227.96v3.23h-.63v-6.91h.63v2.64c.16-.34.38-.59.66-.75s.59-.23.94-.23c.53,0,.95.16,1.28.49.33.33.49.8.49,1.41v3.35h-.63v-3.31c0-.42-.12-.76-.36-1-.24-.25-.56-.37-.96-.37s-.75.13-1.02.39c-.27.26-.41.61-.41,1.06Z"/>
    <path class="cls-2" d="M113.03,231.19v-5.19h.61v.81h.05c.1-.27.28-.48.54-.64s.55-.24.87-.24c.05,0,.1,0,.17,0,.06,0,.11,0,.15,0v.63s-.07,0-.14-.02c-.07,0-.15-.01-.23-.01-.4,0-.73.12-.99.37-.26.25-.39.57-.39.95v3.33h-.63Z"/>
    <path class="cls-2" d="M118.3,231.3c-.45,0-.85-.11-1.19-.34-.34-.23-.61-.54-.81-.94-.2-.4-.29-.87-.29-1.39s.1-1,.29-1.4c.2-.4.46-.72.81-.95.34-.23.74-.34,1.19-.34s.84.11,1.19.34c.34.23.61.54.81.95.2.4.29.87.29,1.4s-.1.99-.29,1.39c-.19.4-.46.72-.81.94-.35.23-.74.34-1.19.34ZM118.3,230.73c.36,0,.66-.1.9-.29.25-.19.43-.45.56-.76.13-.32.2-.67.2-1.05s-.07-.74-.2-1.06-.32-.58-.57-.77c-.25-.19-.55-.29-.9-.29s-.65.1-.9.29c-.25.19-.43.45-.56.77s-.19.67-.19,1.06.06.73.19,1.05c.13.32.32.57.56.76.25.19.55.29.9.29Z"/>
    <path class="cls-2" d="M122.54,227.96v3.23h-.63v-5.19h.61v.96c.16-.36.38-.62.67-.78.29-.16.6-.24.96-.24.53,0,.95.16,1.28.49.33.33.49.8.49,1.41v3.35h-.63v-3.31c0-.42-.12-.76-.36-1-.24-.25-.56-.37-.96-.37s-.75.13-1.02.39c-.27.26-.41.61-.41,1.06Z"/>
    <path class="cls-2" d="M129.53,231.3c-.45,0-.85-.11-1.19-.34-.34-.23-.61-.54-.81-.94-.2-.4-.29-.87-.29-1.39s.1-1,.29-1.4c.2-.4.46-.72.81-.95.34-.23.74-.34,1.19-.34s.84.11,1.19.34c.34.23.61.54.81.95.2.4.29.87.29,1.4s-.1.99-.29,1.39c-.19.4-.46.72-.81.94-.35.23-.74.34-1.19.34ZM129.53,230.73c.36,0,.66-.1.9-.29.25-.19.43-.45.56-.76.13-.32.2-.67.2-1.05s-.07-.74-.2-1.06-.32-.58-.57-.77c-.25-.19-.55-.29-.9-.29s-.65.1-.9.29c-.25.19-.43.45-.56.77s-.19.67-.19,1.06.06.73.19,1.05c.13.32.32.57.56.76.25.19.55.29.9.29Z"/>
    <path class="cls-2" d="M134.91,231.26c-.53,0-.95-.16-1.28-.49s-.49-.8-.49-1.41v-3.35h.63v3.31c0,.42.12.76.36,1,.24.25.56.37.96.37s.75-.13,1.02-.39.41-.61.41-1.06v-3.23h.63v5.19h-.61v-.96c-.16.36-.38.63-.67.79-.28.16-.6.24-.95.24Z"/>
    <path class="cls-2" d="M140.38,231.3c-.51,0-.93-.12-1.26-.35-.33-.23-.54-.56-.64-1l.6-.14c.07.31.22.54.44.7.22.15.5.23.85.23.39,0,.71-.09.94-.26.24-.18.36-.4.36-.66,0-.42-.28-.7-.84-.83l-.84-.2c-.89-.21-1.33-.67-1.33-1.38,0-.29.08-.55.23-.76.16-.22.37-.39.65-.52.27-.12.58-.19.93-.19.49,0,.88.11,1.16.33.29.22.49.52.61.89l-.58.15c-.08-.24-.21-.43-.4-.59-.19-.16-.45-.23-.79-.23s-.63.08-.85.25-.33.38-.33.63c0,.43.31.71.93.86l.79.19c.88.21,1.31.66,1.31,1.36,0,.3-.08.56-.25.79-.16.23-.39.41-.68.54-.29.13-.63.2-1.01.2Z"/>
    <path class="cls-2" d="M145.78,231.19l2.53-6.91h.78l2.56,6.91h-.7l-.75-2.05h-2.99l-.73,2.05h-.7ZM147.42,228.55h2.57l-.68-1.88c-.08-.23-.17-.49-.27-.79-.1-.3-.21-.66-.34-1.07-.12.41-.24.77-.34,1.08-.1.3-.19.56-.27.78l-.67,1.88Z"/>
    <path class="cls-2" d="M154.51,231.3c-.42,0-.79-.11-1.11-.34-.32-.22-.57-.54-.74-.94-.18-.4-.27-.87-.27-1.41s.09-1,.27-1.4c.18-.4.43-.71.75-.94.32-.22.69-.34,1.11-.34.32,0,.58.06.79.17.21.11.38.25.51.42.13.16.23.32.29.48h.05v-2.72h.63v6.91h-.61v-.97h-.07c-.07.16-.17.33-.3.49s-.3.31-.51.42c-.21.11-.47.17-.79.17ZM154.59,230.73c.33,0,.62-.09.85-.27.23-.18.41-.43.53-.75.12-.32.18-.69.18-1.1s-.06-.77-.18-1.09c-.12-.32-.3-.56-.53-.74s-.52-.27-.85-.27-.63.09-.86.28c-.23.19-.41.44-.53.75-.12.32-.18.67-.18,1.07s.06.76.18,1.08c.12.32.3.57.53.76s.52.28.86.28Z"/>
    <path class="cls-2" d="M159.74,231.31c-.32,0-.6-.06-.86-.18-.26-.12-.46-.3-.62-.53-.15-.23-.23-.52-.23-.85s.08-.61.25-.81c.17-.2.41-.36.71-.46.3-.1.64-.18,1.03-.22.43-.05.76-.1,1-.14.24-.04.35-.16.35-.36v-.12c0-.35-.1-.62-.32-.82-.21-.2-.51-.3-.9-.3s-.67.08-.9.24c-.23.16-.39.35-.48.57l-.6-.2c.11-.28.28-.51.48-.68s.44-.29.7-.37c.26-.08.52-.12.79-.12.2,0,.41.03.63.08.22.05.42.15.6.27.19.13.34.3.45.53.11.22.17.51.17.85v3.52h-.62v-.82h-.05c-.11.24-.31.45-.57.65-.27.19-.61.29-1.03.29ZM159.83,230.75c.32,0,.59-.07.82-.21.23-.14.41-.33.54-.56.13-.23.19-.49.19-.77v-.74c-.06.06-.17.1-.33.15-.16.04-.34.08-.53.1s-.35.05-.49.07c-.44.05-.77.15-1.01.3-.24.15-.36.38-.36.68s.11.55.33.72c.22.17.5.26.83.26Z"/>
    <path class="cls-2" d="M163.59,233.13v-7.12h.61v1h.07c.07-.16.17-.32.29-.48s.29-.3.51-.42c.21-.11.47-.17.79-.17.42,0,.79.11,1.11.34.32.22.57.54.75.94.18.4.27.87.27,1.4s-.09,1.01-.27,1.41c-.18.4-.43.72-.75.94-.32.22-.69.34-1.12.34-.31,0-.57-.06-.78-.17-.21-.11-.38-.25-.51-.42-.13-.17-.23-.33-.3-.49h-.05v2.91h-.63ZM165.78,230.73c.34,0,.62-.09.86-.28s.41-.44.54-.76c.12-.32.18-.68.18-1.08s-.06-.75-.18-1.07c-.12-.32-.3-.57-.53-.75-.24-.19-.52-.28-.86-.28s-.62.09-.85.27c-.23.18-.41.43-.53.74s-.18.68-.18,1.09.06.78.19,1.1c.12.32.3.57.54.75.23.18.52.27.85.27Z"/>
    <path class="cls-2" d="M171.07,226.01v.55h-1.07v3.41c0,.52.23.76.7.71.04,0,.1,0,.16-.02.06-.01.12-.02.18-.04l.13.54c-.13.04-.29.07-.47.07-.41.03-.73-.07-.97-.29-.23-.22-.35-.54-.35-.94v-3.46h-.77v-.55h.77v-1.23h.63v1.23h1.07Z"/>
    <path class="cls-2" d="M173.57,231.31c-.32,0-.6-.06-.86-.18-.26-.12-.46-.3-.62-.53-.15-.23-.23-.52-.23-.85s.08-.61.25-.81c.17-.2.41-.36.71-.46.3-.1.64-.18,1.03-.22.43-.05.76-.1,1-.14.24-.04.35-.16.35-.36v-.12c0-.35-.1-.62-.32-.82-.21-.2-.51-.3-.9-.3s-.67.08-.9.24c-.23.16-.39.35-.48.57l-.6-.2c.11-.28.28-.51.48-.68s.44-.29.7-.37c.26-.08.52-.12.79-.12.2,0,.41.03.63.08.22.05.42.15.6.27.19.13.34.3.45.53.11.22.17.51.17.85v3.52h-.62v-.82h-.05c-.11.24-.31.45-.57.65-.27.19-.61.29-1.03.29ZM173.66,230.75c.32,0,.59-.07.82-.21.23-.14.41-.33.54-.56.13-.23.19-.49.19-.77v-.74c-.06.06-.17.1-.33.15-.16.04-.34.08-.53.1s-.35.05-.49.07c-.44.05-.77.15-1.01.3-.24.15-.36.38-.36.68s.11.55.33.72c.22.17.5.26.83.26Z"/>
    <path class="cls-2" d="M179.18,226.01v.55h-1.07v3.41c0,.52.23.76.7.71.04,0,.1,0,.16-.02.06-.01.12-.02.18-.04l.13.54c-.13.04-.29.07-.47.07-.41.03-.73-.07-.97-.29-.23-.22-.35-.54-.35-.94v-3.46h-.77v-.55h.77v-1.23h.63v1.23h1.07Z"/>
    <path class="cls-2" d="M180.58,225.04c-.13,0-.24-.04-.32-.13-.09-.09-.13-.19-.13-.31s.04-.22.13-.31c.09-.09.2-.13.32-.13s.24.04.32.13c.09.09.13.19.13.31s-.04.22-.13.31c-.09.09-.2.13-.32.13ZM180.26,231.19v-5.19h.63v5.19h-.63Z"/>
    <path class="cls-2" d="M184.5,231.3c-.45,0-.85-.11-1.19-.34-.34-.23-.61-.54-.81-.94-.2-.4-.29-.87-.29-1.39s.1-1,.29-1.4c.2-.4.46-.72.81-.95.34-.23.74-.34,1.19-.34s.84.11,1.19.34c.34.23.61.54.81.95.2.4.29.87.29,1.4s-.1.99-.29,1.39c-.19.4-.46.72-.81.94-.35.23-.74.34-1.19.34ZM184.5,230.73c.36,0,.66-.1.9-.29.25-.19.43-.45.56-.76.13-.32.2-.67.2-1.05s-.07-.74-.2-1.06-.32-.58-.57-.77c-.25-.19-.55-.29-.9-.29s-.65.1-.9.29c-.25.19-.43.45-.56.77s-.19.67-.19,1.06.06.73.19,1.05c.13.32.32.57.56.76.25.19.55.29.9.29Z"/>
    <path class="cls-2" d="M188.74,227.96v3.23h-.63v-5.19h.61v.96c.16-.36.38-.62.67-.78.29-.16.6-.24.96-.24.53,0,.95.16,1.28.49.33.33.49.8.49,1.41v3.35h-.63v-3.31c0-.42-.12-.76-.36-1-.24-.25-.56-.37-.96-.37s-.75.13-1.02.39c-.27.26-.41.61-.41,1.06Z"/>
    <path class="cls-2" d="M111.06,242.59v-6.91h.66v6.32h3.28v.59h-3.95Z"/>
    <path class="cls-2" d="M117.66,242.71c-.32,0-.6-.06-.86-.18-.26-.12-.46-.3-.62-.53-.15-.23-.23-.52-.23-.85s.08-.61.25-.81c.17-.2.41-.36.71-.46.3-.1.64-.18,1.03-.22.43-.05.76-.1,1-.14.24-.04.35-.16.35-.36v-.12c0-.35-.1-.62-.32-.82-.21-.2-.51-.3-.9-.3s-.67.08-.9.24c-.23.16-.39.35-.48.57l-.6-.2c.11-.28.28-.51.48-.68s.44-.29.7-.37c.26-.08.52-.12.79-.12.2,0,.41.03.63.08.22.05.42.15.6.27.19.13.34.3.45.53.11.22.17.51.17.85v3.52h-.62v-.82h-.05c-.11.24-.31.45-.57.65-.27.19-.61.29-1.03.29ZM117.76,242.15c.32,0,.59-.07.82-.21.23-.14.41-.33.54-.56.13-.23.19-.49.19-.77v-.74c-.06.06-.17.1-.33.15-.16.04-.34.08-.53.1s-.35.05-.49.07c-.44.05-.77.15-1.01.3-.24.15-.36.38-.36.68s.11.55.33.72c.22.17.5.26.83.26Z"/>
    <path class="cls-2" d="M121.21,244.46l.17-.55.07.02c.28.09.51.08.72-.03s.37-.34.5-.71l.21-.57-1.99-5.23h.69l1.2,3.26c.09.23.16.46.23.69.07.23.13.46.2.68.07-.23.14-.45.21-.68.07-.23.15-.46.23-.69l1.2-3.26h.68l-2.3,6.03c-.29.75-.76,1.13-1.42,1.13-.13,0-.24-.01-.35-.03s-.19-.05-.25-.07Z"/>
    <path class="cls-2" d="M128.56,242.7c-.49,0-.91-.11-1.26-.34-.35-.23-.63-.54-.82-.94-.19-.4-.29-.86-.29-1.39s.09-.99.29-1.39.46-.72.8-.96c.34-.23.74-.35,1.19-.35.38,0,.73.09,1.07.28.34.19.61.47.82.85.21.38.32.87.32,1.45v.27h-3.84c.01.59.17,1.06.49,1.42.31.35.73.53,1.25.53.36,0,.66-.08.89-.25.23-.17.4-.37.49-.59l.6.19c-.12.32-.35.61-.69.85-.34.24-.77.37-1.3.37ZM126.83,239.65h3.21c-.03-.5-.19-.92-.46-1.25-.28-.33-.65-.49-1.11-.49-.31,0-.59.08-.83.24s-.43.37-.57.63c-.14.26-.22.56-.24.88Z"/>
    <path class="cls-2" d="M131.97,242.59v-5.19h.61v.81h.05c.1-.27.28-.48.54-.64s.55-.24.87-.24c.05,0,.1,0,.17,0,.06,0,.11,0,.15,0v.63s-.07,0-.14-.02c-.07,0-.15-.01-.23-.01-.4,0-.73.12-.99.37-.26.25-.39.57-.39.95v3.33h-.63Z"/>
    <path class="cls-2" d="M138.3,239.27c0-.5.05-1.01.14-1.54.09-.53.23-1.05.39-1.55.17-.5.37-.96.6-1.36h.62c-.35.72-.63,1.47-.82,2.25-.19.78-.29,1.51-.29,2.21,0,.65.09,1.32.27,1.99s.46,1.4.84,2.18h-.62c-.75-1.38-1.13-2.77-1.13-4.17Z"/>
    <path class="cls-2" d="M142.14,235.68v6.91h-.66v-6.91h.66Z"/>
    <path class="cls-2" d="M146.05,242.71c-.71,0-1.27-.17-1.7-.51-.42-.34-.65-.79-.69-1.35h.67c.03.41.21.73.54.94.33.22.72.32,1.18.32.34,0,.65-.06.91-.17s.47-.27.62-.48.23-.44.23-.72c0-.35-.13-.61-.39-.79-.26-.18-.61-.34-1.04-.47l-.82-.24c-.55-.16-.97-.38-1.27-.67-.3-.29-.45-.65-.45-1.09,0-.37.1-.7.3-.99s.47-.51.81-.67c.34-.16.73-.24,1.16-.24s.82.08,1.15.24c.33.16.59.38.79.65.19.27.3.59.31.94h-.64c-.04-.38-.21-.69-.51-.91s-.67-.33-1.12-.33-.86.12-1.16.36c-.3.24-.45.54-.45.91,0,.24.07.44.2.6.13.16.31.29.51.39s.42.19.65.25l.72.21c.3.08.59.2.88.34.29.15.53.34.72.58.19.24.29.55.29.93s-.1.71-.29,1c-.19.29-.47.53-.83.7-.36.17-.79.26-1.29.26Z"/>
    <path class="cls-2" d="M152.67,242.68c-.58,0-1.1-.15-1.55-.44-.45-.29-.81-.7-1.06-1.23-.26-.53-.38-1.16-.38-1.88s.13-1.35.38-1.88c.26-.53.61-.94,1.06-1.23.45-.29.97-.44,1.55-.44s1.1.14,1.55.44.8.7,1.06,1.23c.26.53.38,1.16.38,1.88s-.13,1.35-.38,1.88c-.25.53-.61.94-1.06,1.23-.45.29-.97.44-1.55.44ZM152.67,242.07c.45,0,.85-.12,1.2-.35s.63-.57.84-1c.21-.44.31-.96.31-1.58s-.1-1.14-.31-1.58c-.21-.44-.49-.77-.84-1.01-.35-.23-.75-.35-1.2-.35s-.86.12-1.21.35c-.36.23-.64.57-.84,1.01-.21.44-.31.97-.31,1.58s.1,1.13.31,1.57c.21.44.49.77.84,1.01s.76.35,1.21.35Z"/>
    <path class="cls-2" d="M156.26,242.59l2.53-6.91h.78l2.56,6.91h-.7l-.75-2.05h-2.99l-.73,2.05h-.7ZM157.9,239.95h2.57l-.68-1.88c-.08-.23-.17-.49-.27-.79-.1-.3-.21-.66-.34-1.07-.12.41-.24.77-.34,1.08-.1.3-.19.56-.27.78l-.67,1.88Z"/>
    <path class="cls-2" d="M163.3,242.59v-6.91h.66v6.32h3.28v.59h-3.95Z"/>
    <path class="cls-2" d="M168.27,243.45c.39-.79.67-1.53.85-2.21s.27-1.33.27-1.97c0-.69-.1-1.43-.29-2.21-.2-.78-.47-1.53-.82-2.25h.62c.23.41.42.86.59,1.36.17.5.3,1.02.4,1.55.09.53.14,1.04.14,1.54,0,.7-.1,1.41-.29,2.11-.2.71-.48,1.4-.84,2.07h-.62Z"/>
  </g>
  <rect class="cls-9" x="82.47" y="255.1" width="116.26" height="24.7"/>
  <rect class="cls-9" x="205.39" y="221.53" width="102.02" height="58.26"/>
  <g>
    <rect class="cls-4" x="82.95" y="264.1" width="115.79" height="11.5"/>
    <path class="cls-2" d="M119.1,271.02v-6.91h.66v6.32h3.28v.59h-3.95Z"/>
    <path class="cls-2" d="M124.66,264.87c-.13,0-.24-.04-.32-.13-.09-.09-.13-.19-.13-.31s.04-.22.13-.31c.09-.09.2-.13.32-.13s.24.04.32.13c.09.09.13.19.13.31s-.04.22-.13.31c-.09.09-.2.13-.32.13ZM124.34,271.02v-5.19h.63v5.19h-.63Z"/>
    <path class="cls-2" d="M127.19,267.78v3.23h-.63v-5.19h.61v.96c.16-.36.38-.62.67-.78.29-.16.6-.24.96-.24.53,0,.95.16,1.28.49.33.33.49.8.49,1.41v3.35h-.63v-3.31c0-.42-.12-.76-.36-1-.24-.25-.56-.37-.96-.37s-.75.13-1.02.39c-.27.26-.41.61-.41,1.06Z"/>
    <path class="cls-2" d="M132.15,271.02v-6.91h.63v4.16h.07l2.4-2.43h.79l-2.2,2.23,2.34,2.96h-.81l-2-2.55-.59.56v1.99h-.63Z"/>
    <path class="cls-2" d="M139.96,271.02v-6.91h.66v6.32h3.28v.59h-3.95Z"/>
    <path class="cls-2" d="M146.57,271.13c-.32,0-.6-.06-.86-.18-.26-.12-.46-.3-.62-.53-.15-.23-.23-.52-.23-.85s.08-.61.25-.81c.17-.2.41-.36.71-.46.3-.1.64-.18,1.03-.22.43-.05.76-.1,1-.14.24-.04.35-.16.35-.36v-.12c0-.35-.1-.62-.32-.82-.21-.2-.51-.3-.9-.3s-.67.08-.9.24c-.23.16-.39.35-.48.57l-.6-.2c.11-.28.28-.51.48-.68s.44-.29.7-.37c.26-.08.52-.12.79-.12.2,0,.41.03.63.08.22.05.42.15.6.27.19.13.34.3.45.53.11.22.17.51.17.85v3.52h-.62v-.82h-.05c-.11.24-.31.45-.57.65-.27.19-.61.29-1.03.29ZM146.66,270.57c.32,0,.59-.07.82-.21.23-.14.41-.33.54-.56.13-.23.19-.49.19-.77v-.74c-.06.06-.17.1-.33.15-.16.04-.34.08-.53.1s-.35.05-.49.07c-.44.05-.77.15-1.01.3-.24.15-.36.38-.36.68s.11.55.33.72c.22.17.5.26.83.26Z"/>
    <path class="cls-2" d="M150.11,272.88l.17-.55.07.02c.28.09.51.08.72-.03s.37-.34.5-.71l.21-.57-1.99-5.23h.69l1.2,3.26c.09.23.16.46.23.69.07.23.13.46.2.68.07-.23.14-.45.21-.68.07-.23.15-.46.23-.69l1.2-3.26h.68l-2.3,6.03c-.29.75-.76,1.13-1.42,1.13-.13,0-.24-.01-.35-.03s-.19-.05-.25-.07Z"/>
    <path class="cls-2" d="M157.47,271.13c-.49,0-.91-.11-1.26-.34-.35-.23-.63-.54-.82-.94-.19-.4-.29-.86-.29-1.39s.09-.99.29-1.39.46-.72.8-.96c.34-.23.74-.35,1.19-.35.38,0,.73.09,1.07.28.34.19.61.47.82.85.21.38.32.87.32,1.45v.27h-3.84c.01.59.17,1.06.49,1.42.31.35.73.53,1.25.53.36,0,.66-.08.89-.25.23-.17.4-.37.49-.59l.6.19c-.12.32-.35.61-.69.85-.34.24-.77.37-1.3.37ZM155.73,268.07h3.21c-.03-.5-.19-.92-.46-1.25-.28-.33-.65-.49-1.11-.49-.31,0-.59.08-.83.24s-.43.37-.57.63c-.14.26-.22.56-.24.88Z"/>
    <path class="cls-2" d="M160.87,271.02v-5.19h.61v.81h.05c.1-.27.28-.48.54-.64s.55-.24.87-.24c.05,0,.1,0,.17,0,.06,0,.11,0,.15,0v.63s-.07,0-.14-.02c-.07,0-.15-.01-.23-.01-.4,0-.73.12-.99.37-.26.25-.39.57-.39.95v3.33h-.63Z"/>
  </g>
  <g>
    <rect class="cls-4" x="205.39" y="247.85" width="101.72" height="21.88"/>
    <path class="cls-2" d="M219.16,254.86c-.58,0-1.1-.15-1.55-.44-.45-.29-.81-.7-1.06-1.23-.26-.53-.38-1.16-.38-1.88s.13-1.35.38-1.88c.26-.53.61-.94,1.06-1.23.45-.29.97-.44,1.55-.44.49,0,.93.1,1.31.3.39.2.7.47.95.81.25.34.41.73.48,1.15h-.66c-.07-.32-.19-.6-.39-.85-.19-.25-.43-.45-.72-.59-.29-.14-.62-.21-.98-.21-.43,0-.83.11-1.19.34s-.64.56-.85.99c-.21.44-.32.97-.32,1.61s.11,1.17.32,1.61c.21.44.5.76.85.99.36.22.75.33,1.18.33.36,0,.69-.07.98-.22.29-.14.53-.34.72-.59.19-.25.32-.53.39-.84h.66c-.07.42-.23.8-.48,1.14s-.56.61-.95.82-.83.3-1.32.3Z"/>
    <path class="cls-2" d="M223.9,251.53v3.23h-.63v-6.91h.63v2.64c.16-.34.38-.59.66-.75s.59-.23.94-.23c.53,0,.95.16,1.28.49.33.33.49.8.49,1.41v3.35h-.63v-3.31c0-.42-.12-.76-.36-1-.24-.25-.56-.37-.96-.37s-.75.13-1.02.39c-.27.26-.41.61-.41,1.06Z"/>
    <path class="cls-2" d="M230.23,254.88c-.32,0-.6-.06-.86-.18-.26-.12-.46-.3-.62-.53-.15-.23-.23-.52-.23-.85s.08-.61.25-.81c.17-.2.41-.36.71-.46.3-.1.64-.18,1.03-.22.43-.05.76-.1,1-.14.24-.04.35-.16.35-.36v-.12c0-.35-.1-.62-.32-.82-.21-.2-.51-.3-.9-.3s-.67.08-.9.24c-.23.16-.39.35-.48.57l-.6-.2c.11-.28.28-.51.48-.68s.44-.29.7-.37c.26-.08.52-.12.79-.12.2,0,.41.03.63.08.22.05.42.15.6.27.19.13.34.3.45.53.11.22.17.51.17.85v3.52h-.62v-.82h-.05c-.11.24-.31.45-.57.65-.27.19-.61.29-1.03.29ZM230.32,254.32c.32,0,.59-.07.82-.21.23-.14.41-.33.54-.56.13-.23.19-.49.19-.77v-.74c-.06.06-.17.1-.33.15-.16.04-.34.08-.53.1s-.35.05-.49.07c-.44.05-.77.15-1.01.3-.24.15-.36.38-.36.68s.11.55.33.72c.22.17.5.26.83.26Z"/>
    <path class="cls-2" d="M234.71,251.53v3.23h-.63v-5.19h.61v.96c.16-.36.38-.62.67-.78.29-.16.6-.24.96-.24.53,0,.95.16,1.28.49.33.33.49.8.49,1.41v3.35h-.63v-3.31c0-.42-.12-.76-.36-1-.24-.25-.56-.37-.96-.37s-.75.13-1.02.39c-.27.26-.41.61-.41,1.06Z"/>
    <path class="cls-2" d="M240.3,251.53v3.23h-.63v-5.19h.61v.96c.16-.36.38-.62.67-.78.29-.16.6-.24.96-.24.53,0,.95.16,1.28.49.33.33.49.8.49,1.41v3.35h-.63v-3.31c0-.42-.12-.76-.36-1-.24-.25-.56-.37-.96-.37s-.75.13-1.02.39c-.27.26-.41.61-.41,1.06Z"/>
    <path class="cls-2" d="M247.36,254.87c-.49,0-.91-.11-1.26-.34-.35-.23-.63-.54-.82-.94-.19-.4-.29-.86-.29-1.39s.09-.99.29-1.39.46-.72.8-.96c.34-.23.74-.35,1.19-.35.38,0,.73.09,1.07.28.34.19.61.47.82.85.21.38.32.87.32,1.45v.27h-3.84c.01.59.17,1.06.49,1.42.31.35.73.53,1.25.53.36,0,.66-.08.89-.25.23-.17.4-.37.49-.59l.6.19c-.12.32-.35.61-.69.85-.34.24-.77.37-1.3.37ZM245.63,251.82h3.21c-.03-.5-.19-.92-.46-1.25-.28-.33-.65-.49-1.11-.49-.31,0-.59.08-.83.24s-.43.37-.57.63c-.14.26-.22.56-.24.88Z"/>
    <path class="cls-2" d="M251.4,247.85v6.91h-.63v-6.91h.63Z"/>
    <path class="cls-2" d="M257.85,254.88c-.71,0-1.27-.17-1.7-.51-.42-.34-.65-.79-.69-1.35h.67c.03.41.21.73.54.94.33.22.72.32,1.18.32.34,0,.65-.06.91-.17s.47-.27.62-.48.23-.44.23-.72c0-.35-.13-.61-.39-.79-.26-.18-.61-.34-1.04-.47l-.82-.24c-.55-.16-.97-.38-1.27-.67-.3-.29-.45-.65-.45-1.09,0-.37.1-.7.3-.99s.47-.51.81-.67c.34-.16.73-.24,1.16-.24s.82.08,1.15.24c.33.16.59.38.79.65.19.27.3.59.31.94h-.64c-.04-.38-.21-.69-.51-.91s-.67-.33-1.12-.33-.86.12-1.16.36c-.3.24-.45.54-.45.91,0,.24.07.44.2.6.13.16.31.29.51.39s.42.19.65.25l.72.21c.3.08.59.2.88.34.29.15.53.34.72.58.19.24.29.55.29.93s-.1.71-.29,1c-.19.29-.47.53-.83.7-.36.17-.79.26-1.29.26Z"/>
    <path class="cls-2" d="M263.68,254.87c-.45,0-.85-.11-1.19-.34-.34-.23-.61-.54-.81-.94-.2-.4-.29-.87-.29-1.39s.1-1,.29-1.4c.2-.4.46-.72.81-.95.34-.23.74-.34,1.19-.34s.84.11,1.19.34c.34.23.61.54.81.95.2.4.29.87.29,1.4s-.1.99-.29,1.39c-.19.4-.46.72-.81.94-.35.23-.74.34-1.19.34ZM263.68,254.3c.36,0,.66-.1.9-.29.25-.19.43-.45.56-.76.13-.32.2-.67.2-1.05s-.07-.74-.2-1.06-.32-.58-.57-.77c-.25-.19-.55-.29-.9-.29s-.65.1-.9.29c-.25.19-.43.45-.56.77s-.19.67-.19,1.06.06.73.19,1.05c.13.32.32.57.56.76.25.19.55.29.9.29Z"/>
    <path class="cls-2" d="M269.06,254.83c-.53,0-.95-.16-1.28-.49s-.49-.8-.49-1.41v-3.35h.63v3.31c0,.42.12.76.36,1,.24.25.56.37.96.37s.75-.13,1.02-.39.41-.61.41-1.06v-3.23h.63v5.19h-.61v-.96c-.16.36-.38.63-.67.79-.28.16-.6.24-.95.24Z"/>
    <path class="cls-2" d="M273.51,251.53v3.23h-.63v-5.19h.61v.96c.16-.36.38-.62.67-.78.29-.16.6-.24.96-.24.53,0,.95.16,1.28.49.33.33.49.8.49,1.41v3.35h-.63v-3.31c0-.42-.12-.76-.36-1-.24-.25-.56-.37-.96-.37s-.75.13-1.02.39c-.27.26-.41.61-.41,1.06Z"/>
    <path class="cls-2" d="M280.33,254.87c-.42,0-.79-.11-1.11-.34-.32-.22-.57-.54-.74-.94-.18-.4-.27-.87-.27-1.41s.09-1,.27-1.4c.18-.4.43-.71.75-.94.32-.22.69-.34,1.11-.34.32,0,.58.06.79.17.21.11.38.25.51.42.13.16.23.32.29.48h.05v-2.72h.63v6.91h-.61v-.97h-.07c-.07.16-.17.33-.3.49s-.3.31-.51.42c-.21.11-.47.17-.79.17ZM280.41,254.3c.33,0,.62-.09.85-.27.23-.18.41-.43.53-.75.12-.32.18-.69.18-1.1s-.06-.77-.18-1.09c-.12-.32-.3-.56-.53-.74s-.52-.27-.85-.27-.63.09-.86.28c-.23.19-.41.44-.53.75-.12.32-.18.67-.18,1.07s.06.76.18,1.08c.12.32.3.57.53.76s.52.28.86.28Z"/>
    <path class="cls-2" d="M284.51,248.62c-.13,0-.24-.04-.32-.13-.09-.09-.13-.19-.13-.31s.04-.22.13-.31c.09-.09.2-.13.32-.13s.24.04.32.13c.09.09.13.19.13.31s-.04.22-.13.31c-.09.09-.2.13-.32.13ZM284.19,254.76v-5.19h.63v5.19h-.63Z"/>
    <path class="cls-2" d="M287.04,251.53v3.23h-.63v-5.19h.61v.96c.16-.36.38-.62.67-.78.29-.16.6-.24.96-.24.53,0,.95.16,1.28.49.33.33.49.8.49,1.41v3.35h-.63v-3.31c0-.42-.12-.76-.36-1-.24-.25-.56-.37-.96-.37s-.75.13-1.02.39c-.27.26-.41.61-.41,1.06Z"/>
    <path class="cls-2" d="M293.98,256.81c-.53,0-.96-.1-1.3-.3-.34-.2-.58-.45-.73-.76l.52-.32c.11.2.28.39.51.56s.56.26,1,.26c.46,0,.83-.11,1.1-.34.28-.23.42-.58.42-1.05v-1.16h-.06c-.07.16-.17.32-.3.47-.13.16-.3.29-.51.39-.21.1-.47.15-.78.15-.41,0-.78-.1-1.1-.3s-.57-.49-.75-.88c-.18-.38-.27-.84-.27-1.37s.09-.99.27-1.39c.18-.4.43-.71.75-.93.32-.22.69-.33,1.12-.33.32,0,.58.06.79.17.21.11.38.25.51.42s.23.32.29.48h.06v-1h.61v5.31c0,.44-.09.8-.28,1.09-.19.28-.44.5-.77.63s-.69.21-1.11.21ZM293.95,254.14c.5,0,.88-.18,1.16-.53.28-.35.41-.84.41-1.46,0-.4-.06-.75-.18-1.07-.12-.31-.3-.56-.53-.73-.23-.18-.52-.27-.85-.27s-.63.09-.87.28c-.24.18-.42.43-.54.75-.12.31-.18.66-.18,1.05,0,.59.14,1.07.41,1.44s.66.55,1.17.55Z"/>
  </g>
  <circle class="cls-11" cx="40.25" cy="125.92" r="22.48"/>
  <g>
    <rect class="cls-4" x="17.77" y="122.45" width="44.96" height="12.6"/>
    <path class="cls-2" d="M32.18,129.36v-6.91h.66v6.32h3.28v.59h-3.95Z"/>
    <path class="cls-2" d="M40.06,129.45c-.58,0-1.1-.15-1.55-.44-.45-.29-.81-.7-1.06-1.23-.26-.53-.38-1.16-.38-1.88s.13-1.35.38-1.88c.26-.53.61-.94,1.06-1.23.45-.29.97-.44,1.55-.44.49,0,.93.1,1.31.3.39.2.7.47.95.81.25.34.41.73.48,1.15h-.66c-.07-.32-.19-.6-.39-.85-.19-.25-.43-.44-.72-.59-.29-.14-.62-.21-.98-.21-.43,0-.83.11-1.19.34s-.64.56-.85.99-.32.97-.32,1.6.11,1.17.32,1.6c.21.44.5.77.85.99.36.22.75.33,1.18.33.36,0,.69-.07.98-.22.29-.14.53-.34.72-.59.19-.25.32-.53.39-.84h.66c-.07.42-.23.8-.48,1.14s-.56.61-.95.82-.83.3-1.32.3Z"/>
    <path class="cls-2" d="M46.37,129.45c-.43,0-.81-.08-1.15-.23s-.6-.37-.8-.65c-.2-.27-.3-.59-.31-.96h.66c.01.25.09.47.23.66.14.19.33.33.57.43s.5.15.79.15c.32,0,.59-.06.84-.18.24-.12.43-.28.57-.48.14-.2.2-.44.2-.7,0-.41-.16-.75-.47-1.01-.31-.26-.74-.39-1.28-.39h-.41v-.58h.41c.44,0,.81-.12,1.09-.35.29-.24.43-.55.43-.95s-.12-.68-.38-.92c-.25-.24-.58-.36-.99-.36-.27,0-.51.05-.73.15-.22.1-.4.25-.53.43-.13.19-.2.41-.21.66h-.64c0-.36.11-.68.3-.95.19-.27.44-.49.76-.64.32-.15.67-.23,1.06-.23s.76.08,1.06.25.53.39.7.67c.16.28.25.58.25.91,0,.39-.11.73-.32,1.01-.21.28-.5.47-.87.58v.05c.44.09.79.28,1.04.58s.38.67.38,1.11c0,.37-.1.7-.29.99-.19.29-.46.52-.8.69-.34.17-.73.25-1.16.25Z"/>
  </g>
  <circle class="cls-11" cx="40.25" cy="276.17" r="22.48"/>
  <g>
    <rect class="cls-4" x="17.77" y="272.69" width="44.96" height="12.6"/>
    <path class="cls-2" d="M32.18,279.6v-6.91h.66v6.32h3.28v.59h-3.95Z"/>
    <path class="cls-2" d="M40.06,279.7c-.58,0-1.1-.15-1.55-.44-.45-.29-.81-.7-1.06-1.23-.26-.53-.38-1.16-.38-1.88s.13-1.35.38-1.88c.26-.53.61-.94,1.06-1.23.45-.29.97-.44,1.55-.44.49,0,.93.1,1.31.3.39.2.7.47.95.81.25.34.41.73.48,1.15h-.66c-.07-.32-.19-.6-.39-.85-.19-.25-.43-.45-.72-.59-.29-.14-.62-.21-.98-.21-.43,0-.83.11-1.19.34s-.64.56-.85.99c-.21.44-.32.97-.32,1.61s.11,1.17.32,1.61c.21.44.5.76.85.99.36.22.75.33,1.18.33.36,0,.69-.07.98-.22.29-.14.53-.34.72-.59.19-.25.32-.53.39-.84h.66c-.07.42-.23.8-.48,1.14s-.56.61-.95.82-.83.3-1.32.3Z"/>
    <path class="cls-2" d="M46.37,279.7c-.43,0-.81-.08-1.15-.23-.34-.16-.6-.37-.8-.65-.2-.28-.3-.59-.31-.96h.66c.01.25.09.47.23.66.14.19.33.33.57.43s.5.15.79.15c.32,0,.59-.06.84-.18.24-.12.43-.28.57-.48.14-.2.2-.44.2-.7,0-.41-.16-.75-.47-1.01-.31-.26-.74-.39-1.28-.39h-.41v-.58h.41c.44,0,.81-.12,1.09-.35.29-.24.43-.55.43-.95s-.12-.68-.38-.92c-.25-.24-.58-.36-.99-.36-.27,0-.51.05-.73.15-.22.1-.4.25-.53.43-.13.19-.2.41-.21.66h-.64c0-.36.11-.68.3-.95s.44-.49.76-.64c.32-.15.67-.23,1.06-.23s.76.08,1.06.25.53.39.7.67c.16.28.25.58.25.91,0,.39-.11.73-.32,1.01-.21.28-.5.47-.87.58v.05c.44.09.79.28,1.04.58.25.3.38.67.38,1.11,0,.37-.1.7-.29,1-.19.29-.46.52-.8.69s-.73.25-1.16.25Z"/>
  </g>
  <rect class="cls-3" x="39.75" y="153.34" width="1" height=".5"/>
  <path class="cls-3" d="M40.75,161.76h-1v-.99h1v.99ZM40.75,157.8h-1v-.99h1v.99Z"/>
  <path class="cls-3" d="M40.75,244.88h-1v-.99h1v.99ZM40.75,240.92h-1v-.99h1v.99ZM40.75,236.97h-1v-.99h1v.99ZM40.75,233.01h-1v-.99h1v.99ZM40.75,229.05h-1v-.99h1v.99ZM40.75,225.09h-1v-.99h1v.99ZM40.75,221.13h-1v-.99h1v.99ZM40.75,217.17h-1v-.99h1v.99ZM40.75,213.22h-1v-.99h1v.99ZM40.75,189.47h-1v-.99h1v.99ZM40.75,185.51h-1v-.99h1v.99ZM40.75,181.55h-1v-.99h1v.99ZM40.75,177.59h-1v-.99h1v.99ZM40.75,173.63h-1v-.99h1v.99ZM40.75,169.68h-1v-.99h1v.99ZM40.75,165.72h-1v-.99h1v.99Z"/>
  <rect class="cls-3" x="39.75" y="247.85" width="1" height=".5"/>
  <rect class="cls-7" x="73.43" y="344.89" width="241.74" height="31.89"/>
  <g>
    <path class="cls-3" d="M37.14,204.45c-.58,0-1.1-.15-1.55-.44-.45-.29-.81-.7-1.06-1.23-.26-.53-.38-1.16-.38-1.88s.13-1.35.38-1.88c.26-.53.61-.94,1.06-1.23.45-.29.97-.44,1.55-.44s1.1.14,1.55.44.8.7,1.06,1.23c.26.53.38,1.16.38,1.88s-.13,1.35-.38,1.88c-.25.53-.61.94-1.06,1.23-.45.29-.97.44-1.55.44ZM37.14,203.84c.45,0,.85-.12,1.2-.35s.63-.57.84-1c.21-.44.31-.96.31-1.58s-.1-1.14-.31-1.58c-.21-.44-.49-.77-.84-1.01-.35-.23-.75-.35-1.2-.35s-.86.12-1.21.35c-.36.23-.64.57-.84,1.01-.21.44-.31.97-.31,1.58s.1,1.13.31,1.57c.21.44.49.77.84,1.01s.76.35,1.21.35Z"/>
    <path class="cls-3" d="M41.75,204.36v-6.91h2.25c.73,0,1.29.2,1.67.58.38.39.57.89.57,1.5,0,.46-.11.86-.33,1.19-.22.34-.54.58-.97.72l1.59,2.92h-.76l-1.5-2.79c-.08,0-.17,0-.25,0h-1.6v2.78h-.66ZM42.4,200.99h1.57c.54,0,.94-.13,1.2-.39.27-.26.4-.62.4-1.06s-.13-.81-.4-1.08c-.27-.27-.67-.41-1.21-.41h-1.57v2.95Z"/>
  </g>
  <g>
    <path class="cls-2" d="M180.9,362.67v-6.91h2.25c.73,0,1.29.2,1.67.58.38.39.57.89.57,1.5,0,.46-.11.86-.33,1.19-.22.34-.54.58-.97.72l1.59,2.92h-.76l-1.5-2.79c-.08,0-.17,0-.25,0h-1.6v2.78h-.66ZM181.56,359.3h1.57c.54,0,.94-.13,1.2-.39.27-.26.4-.62.4-1.06s-.13-.81-.4-1.08c-.27-.27-.67-.41-1.21-.41h-1.57v2.95Z"/>
    <path class="cls-2" d="M186.27,362.67l2.53-6.91h.78l2.56,6.91h-.7l-.75-2.05h-2.99l-.73,2.05h-.7ZM187.92,360.03h2.57l-.68-1.88c-.08-.23-.17-.49-.27-.79-.1-.3-.21-.66-.34-1.07-.12.41-.24.77-.34,1.08-.1.3-.19.56-.27.78l-.67,1.88Z"/>
    <path class="cls-2" d="M195.36,362.67h-2.04v-6.91h2.16c.66,0,1.22.14,1.69.41s.83.67,1.08,1.18c.25.51.38,1.13.38,1.84,0,1.09-.28,1.94-.85,2.55-.57.61-1.37.92-2.42.92ZM193.98,362.08h1.35c.88,0,1.55-.25,1.99-.77s.67-1.22.67-2.12-.22-1.58-.65-2.09c-.43-.5-1.07-.76-1.9-.76h-1.46v5.73Z"/>
    <path class="cls-2" d="M200.81,355.76v6.91h-.66v-6.91h.66Z"/>
    <path class="cls-2" d="M205.34,362.76c-.58,0-1.1-.15-1.55-.44-.45-.29-.81-.7-1.06-1.23-.26-.53-.38-1.16-.38-1.88s.13-1.35.38-1.88c.26-.53.61-.94,1.06-1.23.45-.29.97-.44,1.55-.44s1.1.14,1.55.44.8.7,1.06,1.23c.26.53.38,1.16.38,1.88s-.13,1.35-.38,1.88c-.25.53-.61.94-1.06,1.23-.45.29-.97.44-1.55.44ZM205.34,362.15c.45,0,.85-.12,1.2-.35s.63-.57.84-1c.21-.44.31-.96.31-1.58s-.1-1.14-.31-1.58c-.21-.44-.49-.77-.84-1.01-.35-.23-.75-.35-1.2-.35s-.86.12-1.21.35c-.36.23-.64.57-.84,1.01-.21.44-.31.97-.31,1.58s.1,1.13.31,1.57c.21.44.49.77.84,1.01s.76.35,1.21.35Z"/>
  </g>
</svg>