<?xml version="1.0" encoding="UTF-8"?>
<svg id="Layer_1" data-name="Layer 1" xmlns="http://www.w3.org/2000/svg" viewBox="0 0 342 236.62">
  <defs>
    <style>
      .cls-1, .cls-2 {
        fill: none;
      }

      .cls-1, .cls-2, .cls-3, .cls-4 {
        stroke: #000;
        stroke-miterlimit: 10;
      }

      .cls-2, .cls-4 {
        stroke-width: .75px;
      }

      .cls-3 {
        fill: #fff;
      }

      .cls-4 {
        fill: #eee;
      }
    </style>
  </defs>
  <g>
    <g>
      <path d="M131.05,102.17h-2.2l-.53,1.39h-.73l1.97-4.96h.79l1.97,4.96h-.74l-.54-1.39ZM129.1,101.53h1.71l-.86-2.23-.85,2.23Z"/>
      <path d="M134.36,99.23v4.33h-.69v-4.33h-1.66v-.64h4v.64h-1.66Z"/>
      <path d="M138.65,99.23v4.33h-.69v-4.33h-1.66v-.64h4v.64h-1.66Z"/>
      <path d="M140.48,104.11v-.55h3.58v.55h-3.58Z"/>
      <path d="M148.02,103.55v-2.21h-2.53v2.21h-.69v-4.96h.69v2.12h2.53v-2.12h.69v4.96h-.69Z"/>
      <path d="M152.86,102.17h-2.2l-.53,1.39h-.73l1.97-4.96h.79l1.97,4.96h-.74l-.54-1.39ZM150.91,101.53h1.71l-.86-2.23-.85,2.23Z"/>
      <path d="M158.21,103.55l-2.68-4.04v4.04h-.69v-4.96h.92l2.48,3.81v-3.81h.69v4.96h-.71Z"/>
      <path d="M160.18,103.55v-4.96h1.74c.31,0,.61.05.9.16.29.11.54.27.75.47.21.21.39.47.51.78.13.31.19.67.19,1.07s-.06.76-.19,1.07c-.13.31-.3.57-.52.77-.22.21-.47.36-.76.47-.29.1-.59.16-.9.16h-1.72ZM161.89,102.94c.23,0,.45-.04.65-.12.21-.08.38-.19.54-.35.15-.15.27-.35.36-.58s.13-.51.13-.82-.04-.59-.13-.82-.21-.43-.36-.59-.33-.27-.53-.35c-.2-.08-.42-.12-.65-.12h-1.03v3.75h1.01Z"/>
      <path d="M165.22,103.55v-4.96h.69v4.32h2.34v.64h-3.03Z"/>
      <path d="M169.06,103.55v-4.96h3.02v.64h-2.33v1.53h2.11v.64h-2.11v1.52h2.33v.64h-3.02Z"/>
      <path d="M172.6,104.11v-.55h3.58v.55h-3.58Z"/>
      <path d="M180.1,98.59h.72l-1.91,4.96h-.68l-1.87-4.96h.73l1.5,4.08,1.51-4.08Z"/>
      <path d="M184.03,102.17h-2.2l-.53,1.39h-.73l1.97-4.96h.79l1.97,4.96h-.74l-.54-1.39ZM182.08,101.53h1.71l-.86-2.23-.85,2.23Z"/>
      <path d="M186.01,103.55v-4.96h.69v4.32h2.34v.64h-3.03Z"/>
      <path d="M191.56,103.66c-.25,0-.49-.04-.7-.12-.22-.08-.41-.19-.57-.34-.16-.15-.29-.34-.38-.56-.09-.22-.14-.48-.14-.78v-3.27h.68v3.25c0,.38.1.67.29.88s.47.31.82.31.62-.1.81-.31.29-.5.29-.88v-3.25h.69v3.27c0,.29-.04.55-.14.78-.09.22-.22.41-.38.56-.16.15-.35.27-.57.34-.22.08-.45.12-.7.12Z"/>
      <path d="M194.54,103.55v-4.96h3.02v.64h-2.33v1.53h2.11v.64h-2.11v1.52h2.33v.64h-3.02Z"/>
      <path d="M198.08,104.11v-.55h3.58v.55h-3.58Z"/>
      <path d="M202.4,103.55v-4.96h.7v4.96h-.7Z"/>
      <path d="M207.73,103.55l-2.68-4.04v4.04h-.69v-4.96h.92l2.48,3.81v-3.81h.69v4.96h-.71Z"/>
      <path d="M209.7,103.55v-4.96h1.74c.31,0,.61.05.9.16.29.11.54.27.75.47.21.21.39.47.51.78.13.31.19.67.19,1.07s-.06.76-.19,1.07c-.13.31-.3.57-.52.77-.22.21-.47.36-.76.47-.29.1-.59.16-.9.16h-1.72ZM211.4,102.94c.23,0,.45-.04.65-.12.21-.08.38-.19.54-.35.15-.15.27-.35.36-.58s.13-.51.13-.82-.04-.59-.13-.82-.21-.43-.36-.59-.33-.27-.53-.35c-.2-.08-.42-.12-.65-.12h-1.03v3.75h1.01Z"/>
    </g>
    <g>
      <line class="cls-2" x1="290.69" y1="108.55" x2="46.91" y2="108.55"/>
      <polygon points="289.87 105.75 294.72 108.55 289.87 111.36 289.87 105.75"/>
    </g>
  </g>
  <g>
    <g>
      <path d="M129.36,123.12h-2.2l-.53,1.39h-.73l1.97-4.96h.79l1.97,4.96h-.74l-.54-1.39ZM127.4,122.48h1.71l-.86-2.23-.85,2.23Z"/>
      <path d="M132.67,120.18v4.33h-.69v-4.33h-1.66v-.64h4v.64h-1.66Z"/>
      <path d="M136.95,120.18v4.33h-.69v-4.33h-1.66v-.64h4v.64h-1.66Z"/>
      <path d="M138.79,125.06v-.55h3.58v.55h-3.58Z"/>
      <path d="M146.32,124.51v-2.21h-2.53v2.21h-.69v-4.96h.69v2.12h2.53v-2.12h.69v4.96h-.69Z"/>
      <path d="M151.17,123.12h-2.2l-.53,1.39h-.73l1.97-4.96h.79l1.97,4.96h-.74l-.54-1.39ZM149.22,122.48h1.71l-.86-2.23-.85,2.23Z"/>
      <path d="M156.52,124.51l-2.68-4.05v4.05h-.69v-4.96h.92l2.48,3.81v-3.81h.69v4.96h-.71Z"/>
      <path d="M158.49,124.51v-4.96h1.74c.31,0,.61.05.9.16s.54.27.75.48c.21.21.39.47.51.78.13.31.19.67.19,1.07s-.06.76-.19,1.07c-.13.31-.3.57-.52.77-.22.21-.47.36-.76.47-.29.1-.59.16-.9.16h-1.72ZM160.19,123.9c.23,0,.45-.04.65-.12.21-.08.38-.19.54-.35.15-.15.27-.35.36-.58.09-.23.13-.51.13-.82s-.04-.59-.13-.82c-.09-.24-.21-.43-.36-.59s-.33-.27-.53-.35c-.2-.08-.42-.12-.65-.12h-1.03v3.75h1.01Z"/>
      <path d="M163.53,124.51v-4.96h.69v4.32h2.34v.64h-3.03Z"/>
      <path d="M167.37,124.51v-4.96h3.02v.64h-2.33v1.53h2.11v.64h-2.11v1.52h2.33v.64h-3.02Z"/>
      <path d="M170.91,125.06v-.55h3.58v.55h-3.58Z"/>
      <path d="M178.4,119.54h.72l-1.91,4.96h-.68l-1.87-4.96h.73l1.5,4.08,1.51-4.08Z"/>
      <path d="M182.34,123.12h-2.2l-.53,1.39h-.73l1.97-4.96h.79l1.97,4.96h-.74l-.54-1.39ZM180.39,122.48h1.71l-.86-2.23-.85,2.23Z"/>
      <path d="M184.32,124.51v-4.96h.69v4.32h2.34v.64h-3.03Z"/>
      <path d="M189.87,124.61c-.25,0-.49-.04-.7-.12-.22-.08-.41-.19-.57-.34s-.29-.34-.38-.56-.14-.48-.14-.78v-3.27h.68v3.25c0,.38.1.67.29.88.19.21.47.31.82.31s.62-.1.81-.31c.19-.21.29-.5.29-.88v-3.25h.69v3.27c0,.29-.04.55-.14.78-.09.22-.22.41-.38.56s-.35.27-.57.34c-.22.08-.45.12-.7.12Z"/>
      <path d="M192.85,124.51v-4.96h3.02v.64h-2.33v1.53h2.11v.64h-2.11v1.52h2.33v.64h-3.02Z"/>
      <path d="M196.39,125.06v-.55h3.58v.55h-3.58Z"/>
      <path d="M202.86,124.61c-.32,0-.63-.06-.93-.17-.3-.11-.56-.28-.78-.5-.23-.22-.41-.49-.55-.81-.14-.32-.21-.69-.21-1.11s.07-.78.21-1.1c.14-.32.33-.59.56-.81.23-.22.5-.39.79-.5.3-.11.6-.17.91-.17.28,0,.55.04.78.11.24.07.45.18.64.31.19.14.34.3.47.5.13.2.22.41.29.65l-.64.22c-.09-.38-.27-.67-.54-.87-.26-.2-.6-.3-1.01-.3-.22,0-.44.04-.66.12-.21.08-.4.2-.57.37-.17.16-.3.37-.4.61-.1.24-.15.53-.15.85s.05.61.15.85c.1.24.23.45.4.62.17.17.35.29.57.37.21.08.43.12.66.12.21,0,.4-.03.57-.09.17-.06.33-.14.46-.25s.25-.23.34-.38c.09-.15.16-.3.21-.47l.61.22c-.07.23-.16.45-.29.64-.13.2-.29.36-.47.5-.18.14-.4.25-.64.33-.24.08-.5.12-.79.12Z"/>
      <path d="M205.96,124.51v-4.96h3.02v.64h-2.33v1.6h2.11v.64h-2.11v2.09h-.69Z"/>
      <path d="M214.5,124.51v-3.86l-1.69,3.86h-.63l-1.68-3.86v3.86h-.68v-4.96h.93l1.75,4.04,1.76-4.04h.92v4.96h-.68Z"/>
    </g>
    <g>
      <line class="cls-2" x1="294.72" y1="129.51" x2="50.95" y2="129.51"/>
      <polygon points="51.77 126.7 46.91 129.51 51.77 132.31 51.77 126.7"/>
    </g>
  </g>
  <g>
    <g>
      <path d="M146.46,190.98h-2.2l-.53,1.39h-.73l1.97-4.96h.79l1.97,4.96h-.74l-.54-1.39ZM144.5,190.34h1.71l-.86-2.23-.85,2.23Z"/>
      <path d="M149.77,188.04v4.33h-.69v-4.33h-1.66v-.64h4v.64h-1.66Z"/>
      <path d="M154.05,188.04v4.33h-.69v-4.33h-1.66v-.64h4v.64h-1.66Z"/>
      <path d="M155.88,192.92v-.55h3.58v.55h-3.58Z"/>
      <path d="M160.2,192.37v-4.96h3.02v.64h-2.33v1.53h2.11v.64h-2.11v1.52h2.33v.64h-3.02Z"/>
      <path d="M165.71,190.34h-.74v2.03h-.69v-4.96h1.87c.23,0,.44.04.63.12.19.08.35.18.48.32.13.13.23.29.3.47s.1.37.1.58c0,.36-.11.67-.32.92-.21.25-.51.42-.88.49l1.18,2.08h-.8l-1.13-2.03ZM166.01,189.72c.28,0,.51-.08.68-.23s.26-.36.26-.61-.09-.48-.26-.63c-.17-.15-.4-.23-.68-.23h-1.05v1.7h1.05Z"/>
      <path d="M170.04,190.34h-.74v2.03h-.69v-4.96h1.87c.23,0,.44.04.63.12.19.08.35.18.48.32.13.13.23.29.3.47s.1.37.1.58c0,.36-.11.67-.32.92-.21.25-.51.42-.88.49l1.18,2.08h-.8l-1.13-2.03ZM170.35,189.72c.28,0,.51-.08.68-.23s.26-.36.26-.61-.09-.48-.26-.63c-.17-.15-.4-.23-.68-.23h-1.05v1.7h1.05Z"/>
      <path d="M172.62,189.88c0-.42.07-.78.21-1.1.14-.32.33-.59.56-.81.23-.22.5-.39.8-.5s.6-.17.92-.17.62.06.92.17c.3.11.57.28.8.5.23.22.42.49.56.81.14.32.21.69.21,1.1s-.07.78-.21,1.11c-.14.32-.33.59-.56.81-.23.22-.5.39-.8.5-.3.11-.6.17-.92.17s-.62-.06-.92-.17-.56-.28-.8-.5c-.23-.22-.42-.49-.56-.81s-.21-.69-.21-1.11ZM173.32,189.88c0,.32.05.61.15.85.1.24.23.45.4.62.17.17.36.29.57.37.21.08.44.12.67.12s.45-.04.67-.12c.22-.08.41-.21.57-.37s.3-.37.4-.62c.1-.25.15-.53.15-.85s-.05-.61-.15-.85-.23-.45-.4-.61c-.17-.16-.36-.29-.57-.37-.22-.08-.44-.12-.67-.12s-.46.04-.67.12c-.21.08-.4.2-.57.37-.17.16-.3.37-.4.61-.1.25-.15.53-.15.85Z"/>
      <path d="M179.99,190.34h-.74v2.03h-.69v-4.96h1.87c.23,0,.44.04.63.12.19.08.35.18.48.32.13.13.23.29.3.47s.1.37.1.58c0,.36-.11.67-.32.92-.21.25-.51.42-.88.49l1.18,2.08h-.8l-1.13-2.03ZM180.29,189.72c.28,0,.51-.08.68-.23s.26-.36.26-.61-.09-.48-.26-.63c-.17-.15-.4-.23-.68-.23h-1.05v1.7h1.05Z"/>
      <path d="M182.36,192.92v-.55h3.58v.55h-3.58Z"/>
      <path d="M188.11,190.34h-.74v2.03h-.69v-4.96h1.87c.23,0,.44.04.63.12.19.08.35.18.48.32.13.13.23.29.3.47s.1.37.1.58c0,.36-.11.67-.32.92-.21.25-.51.42-.88.49l1.18,2.08h-.8l-1.13-2.03ZM188.42,189.72c.28,0,.51-.08.68-.23s.26-.36.26-.61-.09-.48-.26-.63c-.17-.15-.4-.23-.68-.23h-1.05v1.7h1.05Z"/>
      <path d="M193.56,188.75c-.01-.09-.04-.18-.09-.28s-.11-.19-.2-.28-.19-.15-.31-.21c-.13-.05-.28-.08-.45-.08-.14,0-.27.02-.38.06-.12.04-.22.1-.3.17-.09.07-.15.16-.2.26-.05.1-.07.21-.07.33,0,.18.05.33.16.46.11.13.27.22.48.26l.74.16c.42.09.73.26.96.5.22.24.33.54.33.89,0,.19-.04.38-.12.55-.08.18-.19.33-.34.47s-.33.24-.54.33c-.21.08-.45.12-.71.12-.3,0-.56-.04-.78-.13-.22-.09-.41-.2-.56-.34-.15-.14-.27-.3-.35-.47-.08-.18-.14-.35-.16-.53l.66-.21c.01.14.05.27.1.4.05.13.13.24.23.34.1.1.22.18.36.23.14.06.31.09.49.09.34,0,.6-.08.77-.23.17-.15.25-.34.25-.56,0-.18-.06-.34-.18-.48s-.31-.24-.56-.29l-.71-.15c-.35-.08-.64-.23-.87-.46s-.34-.53-.34-.9c0-.2.04-.38.13-.56.08-.18.2-.33.35-.47.15-.13.32-.24.52-.33.2-.08.42-.12.64-.12.28,0,.52.04.72.12.2.08.36.18.5.3.13.12.24.25.31.4.08.14.13.29.15.42l-.62.22Z"/>
      <path d="M195.85,190.34v2.03h-.69v-4.96h1.81c.23,0,.44.04.63.11.19.07.35.18.48.31.13.13.24.29.31.46.07.18.11.37.11.58s-.04.41-.11.58c-.08.18-.18.33-.31.46-.13.13-.29.23-.48.3-.19.07-.4.11-.63.11h-1.12ZM196.84,189.72c.3,0,.53-.08.7-.23.17-.15.25-.36.25-.61s-.08-.48-.25-.63c-.17-.15-.41-.23-.7-.23h-.99v1.7h.99Z"/>
    </g>
    <g>
      <line class="cls-2" x1="50.95" y1="197.37" x2="294.72" y2="197.37"/>
      <polygon points="51.77 200.17 46.91 197.37 51.77 194.56 51.77 200.17"/>
    </g>
  </g>
  <line class="cls-1" x1="46.91" y1="213.99" x2="46.91" y2="52.6"/>
  <line class="cls-1" x1="295.09" y1="52.6" x2="295.09" y2="213.99"/>
  <g>
    <rect class="cls-3" x="17.23" y="24.88" width="59.36" height="28.71"/>
    <g>
      <path d="M41.81,42.36v-3.09h-3.55v3.09h-.96v-6.95h.96v2.97h3.55v-2.97h.96v6.95h-.96Z"/>
      <path d="M46.51,37.5c.35,0,.68.06.97.19.29.13.55.3.76.52.22.22.38.49.5.79.12.3.18.64.18,1s-.06.69-.18,1c-.12.31-.28.57-.5.79-.21.22-.47.4-.76.53-.29.13-.62.19-.97.19s-.68-.06-.97-.19c-.29-.13-.55-.3-.76-.53-.22-.22-.38-.49-.5-.79-.12-.31-.18-.64-.18-1s.06-.69.18-1c.12-.3.28-.57.5-.79.22-.22.47-.4.76-.52.29-.13.62-.19.97-.19ZM46.51,41.69c.2,0,.38-.04.56-.11.18-.07.33-.18.47-.32.14-.14.25-.32.32-.53s.12-.45.12-.72-.04-.52-.12-.72c-.08-.21-.19-.38-.32-.53-.14-.14-.29-.25-.47-.32-.18-.07-.36-.11-.56-.11s-.38.04-.56.11c-.18.07-.33.18-.47.32-.14.14-.25.32-.32.53-.08.21-.12.45-.12.72s.04.52.12.72c.08.21.19.39.32.53.14.14.29.25.47.32.18.07.36.11.56.11Z"/>
      <path d="M50.54,40.84c.03.25.14.46.32.63.18.17.44.25.77.25.26,0,.46-.06.6-.19.14-.12.21-.27.21-.44,0-.15-.05-.28-.16-.38-.1-.1-.25-.18-.45-.22l-.8-.18c-.37-.08-.66-.23-.87-.47s-.31-.52-.31-.85c0-.2.04-.39.13-.57.09-.18.21-.34.36-.47.15-.14.33-.25.53-.32s.42-.12.65-.12c.32,0,.59.04.81.14.22.09.4.21.53.34.14.13.24.27.31.42.07.14.12.27.14.37l-.81.3c-.01-.06-.04-.13-.07-.23-.03-.09-.08-.18-.16-.26-.07-.08-.17-.15-.29-.21-.12-.06-.28-.09-.46-.09-.24,0-.42.06-.57.19-.14.13-.22.27-.22.44,0,.3.18.49.54.57l.76.17c.43.09.76.26.98.5s.33.54.33.9c0,.17-.04.34-.11.51-.07.17-.18.33-.32.47s-.32.26-.53.35c-.22.09-.47.13-.76.13-.33,0-.61-.05-.84-.14-.23-.09-.42-.21-.58-.34s-.27-.29-.35-.45c-.08-.16-.13-.31-.15-.45l.83-.29Z"/>
      <path d="M55.95,37.65h1.02v.83h-1.02v2.45c0,.22.05.38.15.49.1.11.27.16.51.16.06,0,.12,0,.2,0,.07,0,.13-.02.17-.03v.78s-.11.03-.23.05c-.11.02-.25.03-.4.03-.41,0-.73-.12-.96-.35-.24-.23-.35-.56-.35-.99v-2.59h-.9v-.83h.25c.25,0,.44-.07.55-.21.11-.14.17-.31.17-.52v-.77h.84v1.49Z"/>
    </g>
  </g>
  <g>
    <rect class="cls-3" x="17.23" y="24.88" width="59.36" height="28.71"/>
    <g>
      <path d="M28.25,40.42h-3.08l-.74,1.94h-1.03l2.76-6.95h1.11l2.76,6.95h-1.04l-.75-1.94ZM25.52,39.53h2.39l-1.21-3.12-1.19,3.12Z"/>
      <path d="M32.84,36.31v6.06h-.96v-6.06h-2.32v-.89h5.61v.89h-2.32Z"/>
      <path d="M39.06,36.31v6.06h-.96v-6.06h-2.32v-.89h5.61v.89h-2.32Z"/>
      <path d="M47.83,42.51c-.45,0-.88-.08-1.3-.24s-.78-.39-1.1-.7c-.32-.31-.57-.69-.76-1.14-.19-.45-.29-.97-.29-1.55s.1-1.1.29-1.54.46-.82.78-1.13.69-.54,1.11-.7.84-.24,1.27-.24c.4,0,.76.05,1.1.16s.63.25.89.44c.26.19.48.42.66.7s.32.58.41.91l-.89.31c-.13-.53-.38-.93-.75-1.22s-.84-.42-1.42-.42c-.31,0-.62.06-.92.17-.3.12-.56.29-.79.51-.23.23-.42.51-.55.86-.14.34-.21.74-.21,1.19s.07.85.21,1.19c.14.34.32.63.55.86.23.23.5.41.79.52.3.11.6.17.92.17.29,0,.56-.04.8-.13s.46-.2.64-.35c.19-.15.34-.32.47-.53.13-.21.23-.43.3-.66l.85.31c-.09.33-.23.63-.41.9s-.4.51-.66.71c-.26.2-.56.35-.89.46s-.7.17-1.1.17Z"/>
      <path d="M52.05,42.36v-7.1h.92v7.1h-.92Z"/>
      <path d="M54.28,35.87c0-.19.06-.35.19-.48s.28-.19.47-.19.35.06.48.19c.13.13.19.29.19.48s-.06.34-.19.46-.29.19-.48.19-.34-.06-.47-.19c-.13-.13-.19-.28-.19-.46ZM54.48,42.36v-4.71h.91v4.71h-.91Z"/>
      <path d="M61.07,41.02c-.07.21-.16.4-.29.58-.13.18-.28.34-.46.47-.18.13-.38.24-.61.32-.23.08-.48.12-.75.12-.31,0-.61-.06-.9-.17-.29-.11-.54-.27-.76-.49-.22-.21-.39-.48-.52-.79-.13-.31-.19-.67-.19-1.07,0-.37.06-.71.19-1.02.12-.3.29-.56.5-.78s.45-.39.72-.51.56-.18.85-.18c.36,0,.68.06.97.18s.52.29.71.5c.19.22.33.48.44.78.1.3.15.64.15,1.01,0,.06,0,.11,0,.17,0,.05,0,.09-.01.13h-3.55c0,.21.05.4.12.58.07.18.17.33.3.46s.28.22.45.29c.17.07.36.1.55.1.38,0,.68-.09.88-.27s.35-.41.44-.68l.79.28ZM60.14,39.52c-.01-.34-.13-.63-.34-.86-.22-.23-.53-.35-.95-.35-.2,0-.37.03-.52.1s-.28.16-.39.28c-.11.11-.19.24-.26.39s-.1.29-.11.44h2.58Z"/>
      <path d="M63.23,42.36h-.92v-4.71h.9v.68c.17-.29.39-.5.65-.63.26-.12.53-.19.8-.19s.53.05.74.14c.21.09.39.22.53.39s.25.36.31.59.1.47.1.74v2.99h-.92v-2.83c0-.16-.02-.32-.05-.46-.04-.14-.1-.27-.19-.38-.09-.11-.2-.19-.34-.26-.14-.06-.31-.09-.51-.09-.18,0-.34.03-.48.1-.14.07-.25.16-.34.28-.09.12-.16.26-.21.41s-.07.32-.07.5v2.72Z"/>
      <path d="M69.05,37.65h1.02v.83h-1.02v2.45c0,.22.05.38.15.49.1.11.27.16.51.16.06,0,.12,0,.2,0,.07,0,.13-.02.17-.03v.78s-.11.03-.23.05c-.11.02-.25.03-.4.03-.41,0-.73-.12-.96-.35-.24-.23-.35-.56-.35-.99v-2.59h-.9v-.83h.25c.25,0,.44-.07.55-.21.11-.14.17-.31.17-.52v-.77h.84v1.49Z"/>
    </g>
  </g>
  <g>
    <rect class="cls-3" x="265.41" y="24.88" width="59.36" height="28.71"/>
    <g>
      <path d="M275.24,40.42h-3.08l-.74,1.94h-1.03l2.76-6.95h1.11l2.76,6.95h-1.04l-.75-1.94ZM272.5,39.53h2.39l-1.21-3.12-1.19,3.12Z"/>
      <path d="M279.82,36.31v6.06h-.96v-6.06h-2.32v-.89h5.61v.89h-2.32Z"/>
      <path d="M286.05,36.31v6.06h-.96v-6.06h-2.32v-.89h5.61v.89h-2.32Z"/>
      <path d="M295.37,37.3c-.02-.12-.06-.26-.13-.4-.07-.14-.16-.27-.27-.39s-.26-.21-.44-.29-.39-.11-.63-.11c-.2,0-.38.03-.54.09-.16.06-.31.14-.43.24-.12.11-.21.23-.28.37-.07.14-.1.29-.1.46,0,.25.08.46.23.64s.37.3.67.37l1.04.22c.58.13,1.03.37,1.34.71s.47.75.47,1.25c0,.27-.06.53-.17.77s-.27.47-.48.66c-.21.19-.46.34-.75.46s-.63.17-1,.17c-.42,0-.78-.06-1.09-.19s-.57-.28-.78-.48c-.21-.2-.38-.42-.5-.66-.12-.25-.19-.49-.23-.74l.92-.29c.02.2.07.38.14.56.07.18.18.34.32.48.14.14.31.25.51.33s.43.12.69.12c.48,0,.83-.11,1.07-.32.24-.22.36-.48.36-.78,0-.25-.08-.47-.25-.67s-.43-.33-.78-.41l-.99-.22c-.5-.11-.9-.33-1.22-.64-.32-.32-.47-.74-.47-1.26,0-.27.06-.54.18-.78.12-.25.28-.47.49-.66.21-.19.45-.34.73-.46s.58-.17.9-.17c.39,0,.73.05,1,.16.28.11.51.25.7.42s.33.36.44.56c.1.2.18.4.21.59l-.86.3Z"/>
      <path d="M301.72,41.02c-.07.21-.16.4-.29.58-.13.18-.28.34-.46.47s-.38.24-.61.32c-.23.08-.48.12-.75.12-.31,0-.61-.06-.9-.17-.29-.11-.54-.27-.76-.49s-.39-.48-.52-.79c-.13-.31-.19-.67-.19-1.07,0-.37.06-.71.19-1.01s.29-.57.5-.78.45-.39.72-.51c.27-.12.56-.18.85-.18.36,0,.68.06.97.18.28.12.52.29.71.5.19.22.33.48.44.78.1.3.15.64.15,1,0,.06,0,.11,0,.17,0,.05,0,.09-.01.13h-3.55c0,.21.05.4.12.58.07.18.17.33.3.46.13.13.28.23.45.29.17.07.36.1.55.1.38,0,.68-.09.88-.27.2-.18.35-.41.44-.68l.79.27ZM300.79,39.52c-.01-.34-.13-.62-.34-.86-.22-.23-.53-.35-.95-.35-.2,0-.37.03-.52.1s-.28.16-.39.27c-.11.11-.19.24-.26.39s-.1.29-.11.44h2.58Z"/>
      <path d="M305.57,38.58c-.14-.02-.27-.03-.4-.03-.39,0-.7.11-.94.34s-.36.6-.36,1.11v2.36h-.92v-4.71h.9v.82c.08-.18.18-.33.3-.45.11-.11.23-.21.36-.27.12-.07.25-.12.38-.14.13-.03.25-.04.37-.04.07,0,.13,0,.18,0,.05,0,.1.01.12.02v.98Z"/>
      <path d="M309.03,42.36h-.93l-1.91-4.71h1.04l1.34,3.64,1.35-3.64h.99l-1.88,4.71Z"/>
      <path d="M315.83,41.02c-.07.21-.16.4-.29.58-.13.18-.28.34-.46.47s-.38.24-.61.32c-.23.08-.48.12-.75.12-.31,0-.61-.06-.9-.17-.29-.11-.54-.27-.76-.49s-.39-.48-.52-.79c-.13-.31-.19-.67-.19-1.07,0-.37.06-.71.19-1.01s.29-.57.5-.78.45-.39.72-.51c.27-.12.56-.18.85-.18.36,0,.68.06.97.18.28.12.52.29.71.5.19.22.33.48.44.78.1.3.15.64.15,1,0,.06,0,.11,0,.17,0,.05,0,.09-.01.13h-3.55c0,.21.05.4.12.58.07.18.17.33.3.46.13.13.28.23.45.29.17.07.36.1.55.1.38,0,.68-.09.88-.27.2-.18.35-.41.44-.68l.79.27ZM314.9,39.52c-.01-.34-.13-.62-.34-.86-.22-.23-.53-.35-.95-.35-.2,0-.37.03-.52.1s-.28.16-.39.27c-.11.11-.19.24-.26.39s-.1.29-.11.44h2.58Z"/>
      <path d="M319.68,38.58c-.14-.02-.27-.03-.4-.03-.39,0-.7.11-.94.34s-.36.6-.36,1.11v2.36h-.92v-4.71h.9v.82c.08-.18.18-.33.3-.45.11-.11.23-.21.36-.27.12-.07.25-.12.38-.14.13-.03.25-.04.37-.04.07,0,.13,0,.18,0,.05,0,.1.01.12.02v.98Z"/>
    </g>
  </g>
  <line class="cls-2" x1="33.79" y1="213.99" x2="60.3" y2="213.99"/>
  <line class="cls-2" x1="281.83" y1="213.99" x2="308.35" y2="213.99"/>
  <g>
    <g>
      <path d="M131.05,170.03h-2.2l-.53,1.39h-.73l1.97-4.96h.79l1.97,4.96h-.74l-.54-1.39ZM129.1,169.39h1.71l-.86-2.23-.85,2.23Z"/>
      <path d="M134.36,167.09v4.33h-.69v-4.33h-1.66v-.64h4v.64h-1.66Z"/>
      <path d="M138.65,167.09v4.33h-.69v-4.33h-1.66v-.64h4v.64h-1.66Z"/>
      <path d="M140.48,171.97v-.55h3.58v.55h-3.58Z"/>
      <path d="M148.02,171.41v-2.21h-2.53v2.21h-.69v-4.96h.69v2.12h2.53v-2.12h.69v4.96h-.69Z"/>
      <path d="M152.86,170.03h-2.2l-.53,1.39h-.73l1.97-4.96h.79l1.97,4.96h-.74l-.54-1.39ZM150.91,169.39h1.71l-.86-2.23-.85,2.23Z"/>
      <path d="M158.21,171.41l-2.68-4.05v4.05h-.69v-4.96h.92l2.48,3.81v-3.81h.69v4.96h-.71Z"/>
      <path d="M160.18,171.41v-4.96h1.74c.31,0,.61.05.9.16.29.11.54.27.75.48.21.21.39.47.51.78.13.31.19.67.19,1.07s-.06.76-.19,1.07c-.13.31-.3.57-.52.77-.22.21-.47.36-.76.47-.29.11-.59.16-.9.16h-1.72ZM161.88,170.8c.23,0,.45-.04.65-.12.21-.08.38-.19.54-.35.15-.15.27-.35.36-.58s.13-.51.13-.82-.04-.59-.13-.82c-.09-.24-.21-.43-.36-.59s-.33-.27-.53-.35-.42-.12-.65-.12h-1.03v3.75h1.01Z"/>
      <path d="M165.22,171.41v-4.96h.69v4.32h2.34v.64h-3.03Z"/>
      <path d="M169.06,171.41v-4.96h3.02v.64h-2.33v1.53h2.11v.64h-2.11v1.52h2.33v.64h-3.02Z"/>
      <path d="M172.6,171.97v-.55h3.58v.55h-3.58Z"/>
      <path d="M180.1,166.45h.72l-1.91,4.96h-.68l-1.87-4.96h.73l1.5,4.08,1.51-4.08Z"/>
      <path d="M184.03,170.03h-2.2l-.53,1.39h-.73l1.97-4.96h.79l1.97,4.96h-.74l-.54-1.39ZM182.08,169.39h1.71l-.86-2.23-.85,2.23Z"/>
      <path d="M186.01,171.41v-4.96h.69v4.32h2.34v.64h-3.03Z"/>
      <path d="M191.56,171.52c-.25,0-.49-.04-.7-.12s-.41-.19-.57-.34-.29-.34-.38-.56c-.09-.22-.14-.48-.14-.78v-3.27h.68v3.25c0,.38.1.67.29.88.19.21.47.31.82.31s.62-.1.81-.31c.19-.21.29-.5.29-.88v-3.25h.69v3.27c0,.29-.04.55-.14.78-.09.22-.22.41-.38.56s-.35.27-.57.34c-.22.08-.45.12-.7.12Z"/>
      <path d="M194.54,171.41v-4.96h3.02v.64h-2.33v1.53h2.11v.64h-2.11v1.52h2.33v.64h-3.02Z"/>
      <path d="M198.08,171.97v-.55h3.58v.55h-3.58Z"/>
      <path d="M202.4,171.41v-4.96h.7v4.96h-.7Z"/>
      <path d="M207.73,171.41l-2.68-4.05v4.05h-.69v-4.96h.92l2.48,3.81v-3.81h.69v4.96h-.71Z"/>
      <path d="M209.7,171.41v-4.96h1.74c.31,0,.61.05.9.16.29.11.54.27.75.48.21.21.39.47.51.78.13.31.19.67.19,1.07s-.06.76-.19,1.07c-.13.31-.3.57-.52.77-.22.21-.47.36-.76.47-.29.11-.59.16-.9.16h-1.72ZM211.4,170.8c.23,0,.45-.04.65-.12.21-.08.38-.19.54-.35.15-.15.27-.35.36-.58s.13-.51.13-.82-.04-.59-.13-.82c-.09-.24-.21-.43-.36-.59s-.33-.27-.53-.35-.42-.12-.65-.12h-1.03v3.75h1.01Z"/>
    </g>
    <g>
      <line class="cls-2" x1="46.91" y1="176.41" x2="290.69" y2="176.41"/>
      <polygon points="289.87 179.22 294.72 176.41 289.87 173.61 289.87 179.22"/>
    </g>
    <rect class="cls-4" x="18.28" y="66.86" width="306.49" height="22.85" rx="11.42" ry="11.42"/>
  </g>
  <rect class="cls-4" x="18.28" y="137.95" width="306.49" height="22.85" rx="11.42" ry="11.42"/>
  <g>
    <path d="M138.98,80.02c.02.18.1.33.23.45.13.12.31.18.55.18.19,0,.33-.04.43-.13.1-.09.15-.19.15-.32,0-.11-.04-.2-.11-.27-.07-.08-.18-.13-.32-.16l-.57-.13c-.27-.06-.47-.17-.62-.34-.15-.17-.22-.37-.22-.61,0-.14.03-.28.09-.41.06-.13.15-.24.26-.34s.23-.17.38-.23c.15-.06.3-.08.47-.08.23,0,.42.03.58.1.16.07.28.15.38.24s.17.2.22.3.08.19.1.27l-.58.22s-.03-.1-.05-.16c-.02-.06-.06-.13-.11-.19-.05-.06-.12-.11-.21-.15s-.2-.06-.33-.06c-.17,0-.3.04-.41.14-.1.09-.15.19-.15.31,0,.21.13.35.38.41l.55.12c.31.07.54.19.7.36.16.18.23.39.23.64,0,.12-.03.24-.08.36-.05.12-.13.23-.23.34-.1.1-.23.19-.38.25-.15.06-.34.09-.55.09-.23,0-.43-.03-.6-.1s-.3-.15-.41-.25-.19-.2-.25-.32-.09-.22-.11-.32l.59-.21Z"/>
    <path d="M144.09,80.7c-.09.18-.23.31-.42.39-.19.08-.38.12-.57.12s-.37-.04-.53-.1c-.16-.07-.29-.17-.4-.29s-.19-.26-.25-.43c-.06-.16-.09-.34-.09-.53v-2.12h.66v2.02c0,.12.01.23.04.33.03.1.07.2.13.28.06.08.14.14.23.19.1.05.21.07.35.07.27,0,.46-.08.6-.24.13-.16.2-.37.2-.62v-2.03h.66v2.74c0,.13,0,.26,0,.37,0,.11.02.2.02.26h-.63s-.02-.1-.02-.18,0-.16,0-.23Z"/>
    <path d="M147.24,78.24c-.13,0-.26.02-.38.07s-.23.12-.33.22-.17.22-.23.37c-.06.15-.08.32-.08.51s.03.36.08.51c.06.15.13.27.22.37.09.1.2.18.33.23.13.05.26.08.39.08.16,0,.29-.02.4-.07.11-.05.2-.11.27-.17.07-.07.13-.15.17-.23.04-.08.07-.16.09-.22l.58.25c-.04.12-.1.24-.18.37-.08.12-.18.24-.31.34s-.27.19-.44.25c-.17.06-.37.09-.58.09-.25,0-.48-.04-.68-.14-.21-.09-.39-.22-.54-.38-.15-.16-.27-.35-.35-.57-.09-.22-.13-.45-.13-.71s.04-.5.13-.72c.09-.22.21-.41.36-.56s.33-.28.54-.37c.21-.09.43-.13.67-.13.22,0,.42.03.59.09.17.06.32.15.44.25.12.1.22.22.3.35.08.13.13.26.17.38l-.59.25c-.02-.08-.06-.17-.1-.25s-.1-.16-.17-.23-.16-.12-.26-.17c-.1-.04-.23-.07-.37-.07Z"/>
    <path d="M150.95,78.24c-.13,0-.26.02-.38.07s-.23.12-.33.22-.17.22-.23.37c-.06.15-.08.32-.08.51s.03.36.08.51c.06.15.13.27.22.37.09.1.2.18.33.23.13.05.26.08.39.08.16,0,.29-.02.4-.07.11-.05.2-.11.27-.17.07-.07.13-.15.17-.23.04-.08.07-.16.09-.22l.58.25c-.04.12-.1.24-.18.37-.08.12-.18.24-.31.34s-.27.19-.44.25c-.17.06-.37.09-.58.09-.25,0-.48-.04-.68-.14-.21-.09-.39-.22-.54-.38-.15-.16-.27-.35-.35-.57-.09-.22-.13-.45-.13-.71s.04-.5.13-.72c.09-.22.21-.41.36-.56s.33-.28.54-.37c.21-.09.43-.13.67-.13.22,0,.42.03.59.09.17.06.32.15.44.25.12.1.22.22.3.35.08.13.13.26.17.38l-.59.25c-.02-.08-.06-.17-.1-.25s-.1-.16-.17-.23-.16-.12-.26-.17c-.1-.04-.23-.07-.37-.07Z"/>
    <path d="M156.18,80.14c-.05.15-.12.29-.21.42-.09.13-.2.24-.33.34-.13.1-.27.17-.44.23-.16.06-.34.08-.54.08-.22,0-.44-.04-.64-.12-.21-.08-.39-.2-.54-.35-.16-.15-.28-.34-.37-.57-.09-.22-.14-.48-.14-.76,0-.27.04-.51.13-.72s.21-.4.35-.56c.15-.16.32-.28.51-.36.2-.09.4-.13.61-.13.26,0,.49.04.69.13.2.09.37.21.51.36.14.15.24.34.31.56s.11.46.11.72c0,.04,0,.08,0,.12,0,.04,0,.07-.01.09h-2.53c0,.15.03.29.08.41.05.13.12.23.21.33s.2.16.32.21c.12.05.25.07.4.07.27,0,.48-.07.63-.2.14-.13.25-.29.31-.48l.57.2ZM155.52,79.07c0-.24-.09-.45-.25-.61s-.38-.25-.68-.25c-.14,0-.27.02-.38.07-.11.05-.2.11-.28.2-.08.08-.14.17-.18.28-.05.1-.07.21-.08.32h1.84Z"/>
    <path d="M157.32,80.02c.02.18.1.33.23.45.13.12.31.18.55.18.19,0,.33-.04.43-.13.1-.09.15-.19.15-.32,0-.11-.04-.2-.11-.27-.07-.08-.18-.13-.32-.16l-.57-.13c-.27-.06-.47-.17-.62-.34-.15-.17-.22-.37-.22-.61,0-.14.03-.28.09-.41.06-.13.15-.24.26-.34s.23-.17.38-.23c.15-.06.3-.08.47-.08.23,0,.42.03.58.1.16.07.28.15.38.24s.17.2.22.3.08.19.1.27l-.58.22s-.03-.1-.05-.16c-.02-.06-.06-.13-.11-.19-.05-.06-.12-.11-.21-.15s-.2-.06-.33-.06c-.17,0-.3.04-.41.14-.1.09-.15.19-.15.31,0,.21.13.35.38.41l.55.12c.31.07.54.19.7.36.16.18.23.39.23.64,0,.12-.03.24-.08.36-.05.12-.13.23-.23.34-.1.1-.23.19-.38.25-.15.06-.34.09-.55.09-.23,0-.43-.03-.6-.1s-.3-.15-.41-.25-.19-.2-.25-.32-.09-.22-.11-.32l.59-.21Z"/>
    <path d="M160.49,80.02c.02.18.1.33.23.45.13.12.31.18.55.18.19,0,.33-.04.43-.13.1-.09.15-.19.15-.32,0-.11-.04-.2-.11-.27-.07-.08-.18-.13-.32-.16l-.57-.13c-.27-.06-.47-.17-.62-.34-.15-.17-.22-.37-.22-.61,0-.14.03-.28.09-.41.06-.13.15-.24.26-.34s.23-.17.38-.23c.15-.06.3-.08.47-.08.23,0,.42.03.58.1.16.07.28.15.38.24s.17.2.22.3.08.19.1.27l-.58.22s-.03-.1-.05-.16c-.02-.06-.06-.13-.11-.19-.05-.06-.12-.11-.21-.15s-.2-.06-.33-.06c-.17,0-.3.04-.41.14-.1.09-.15.19-.15.31,0,.21.13.35.38.41l.55.12c.31.07.54.19.7.36.16.18.23.39.23.64,0,.12-.03.24-.08.36-.05.12-.13.23-.23.34-.1.1-.23.19-.38.25-.15.06-.34.09-.55.09-.23,0-.43-.03-.6-.1s-.3-.15-.41-.25-.19-.2-.25-.32-.09-.22-.11-.32l.59-.21Z"/>
    <path d="M164.25,78.33v2.77h-.68v-2.77h-.62v-.59h.62v-.57c0-.19.03-.35.09-.5.06-.14.14-.27.24-.36.1-.1.22-.17.35-.22s.28-.07.43-.07c.11,0,.2,0,.27.03.07.02.11.03.12.04v.59s-.05-.02-.09-.03c-.04,0-.11-.01-.19-.01-.06,0-.12,0-.18.02-.06.02-.12.05-.18.09s-.1.1-.13.17c-.03.08-.05.17-.05.29v.53h.81v.59h-.81Z"/>
    <path d="M167.99,80.7c-.09.18-.23.31-.42.39-.19.08-.38.12-.57.12s-.37-.04-.53-.1c-.16-.07-.29-.17-.4-.29s-.19-.26-.25-.43c-.06-.16-.09-.34-.09-.53v-2.12h.66v2.02c0,.12.01.23.04.33.03.1.07.2.13.28.06.08.14.14.23.19.1.05.21.07.35.07.27,0,.46-.08.6-.24.13-.16.2-.37.2-.62v-2.03h.66v2.74c0,.13,0,.26,0,.37,0,.11.02.2.02.26h-.63s-.02-.1-.02-.18,0-.16,0-.23Z"/>
    <path d="M169.73,81.1v-5.07h.66v5.07h-.66Z"/>
    <path d="M173.11,76.46c0-.13.05-.25.14-.34s.2-.14.33-.14.25.05.34.14.14.2.14.34-.05.24-.14.33-.2.14-.34.14-.24-.05-.33-.14-.14-.2-.14-.33ZM173.26,81.1v-3.37h.65v3.37h-.65Z"/>
    <path d="M175.69,81.1h-.66v-3.37h.64v.48c.12-.21.28-.36.46-.45s.38-.13.57-.13.38.03.53.1c.15.07.28.16.38.28s.17.26.22.42c.05.16.07.34.07.53v2.13h-.66v-2.02c0-.12-.01-.23-.04-.33-.03-.1-.07-.19-.13-.27-.06-.08-.14-.14-.25-.18-.1-.04-.22-.07-.37-.07-.13,0-.25.02-.34.07-.1.05-.18.12-.25.2s-.11.18-.15.29c-.03.11-.05.23-.05.36v1.95Z"/>
    <path d="M181.32,80.59c-.08.16-.21.3-.38.42-.17.12-.4.18-.66.18-.25,0-.47-.05-.67-.14s-.36-.22-.5-.38c-.14-.16-.24-.35-.32-.57-.07-.22-.11-.45-.11-.7,0-.24.04-.46.12-.68.08-.21.19-.4.33-.56.14-.16.31-.29.5-.38.2-.1.41-.14.65-.14.15,0,.28.02.4.05s.21.08.3.13.15.11.21.18c.06.07.1.14.13.21v-2.18h.65v4.45c0,.16,0,.3.01.41,0,.11.02.18.02.21h-.64s-.02-.1-.02-.18-.01-.17-.01-.28v-.06ZM179.36,79.41c0,.17.02.33.07.48.04.15.11.27.19.38s.19.19.31.25c.12.06.26.09.42.09.15,0,.28-.03.41-.09.12-.06.22-.15.31-.25s.15-.24.19-.39c.04-.15.07-.31.07-.48,0-.35-.08-.63-.26-.85-.17-.21-.41-.32-.71-.32-.15,0-.29.03-.41.09-.12.06-.23.14-.31.25-.09.11-.15.23-.2.38-.05.14-.07.3-.07.48Z"/>
    <path d="M182.94,76.46c0-.13.05-.25.14-.34s.2-.14.33-.14.25.05.34.14.14.2.14.34-.05.24-.14.33-.2.14-.34.14-.24-.05-.33-.14-.14-.2-.14-.33ZM183.08,81.1v-3.37h.65v3.37h-.65Z"/>
    <path d="M186.27,78.24c-.13,0-.26.02-.38.07s-.23.12-.33.22-.17.22-.23.37c-.06.15-.08.32-.08.51s.03.36.08.51c.06.15.13.27.22.37.09.1.2.18.33.23.13.05.26.08.39.08.16,0,.29-.02.4-.07.11-.05.2-.11.27-.17.07-.07.13-.15.17-.23.04-.08.07-.16.09-.22l.58.25c-.04.12-.1.24-.18.37-.08.12-.18.24-.31.34s-.27.19-.44.25c-.17.06-.37.09-.58.09-.25,0-.48-.04-.68-.14-.21-.09-.39-.22-.54-.38-.15-.16-.27-.35-.35-.57-.09-.22-.13-.45-.13-.71s.04-.5.13-.72c.09-.22.21-.41.36-.56s.33-.28.54-.37c.21-.09.43-.13.67-.13.22,0,.42.03.59.09.17.06.32.15.44.25.12.1.22.22.3.35.08.13.13.26.17.38l-.59.25c-.02-.08-.06-.17-.1-.25s-.1-.16-.17-.23-.16-.12-.26-.17c-.1-.04-.23-.07-.37-.07Z"/>
    <path d="M188.35,80.2c0-.15.03-.28.08-.4.05-.12.12-.22.21-.3s.2-.15.33-.2c.13-.05.26-.09.41-.11l.91-.13c.1-.01.17-.04.21-.09s.05-.1.05-.16c0-.16-.06-.3-.17-.42s-.3-.18-.56-.18c-.23,0-.41.06-.54.19s-.2.29-.22.49l-.63-.15c.02-.16.07-.31.14-.44.08-.13.18-.25.3-.35.12-.1.26-.17.42-.22s.33-.08.51-.08c.25,0,.47.03.64.1.18.07.32.16.43.27.11.11.19.24.25.39.05.15.08.31.08.47v1.69c0,.15,0,.27.01.36s.02.15.03.2h-.64s-.02-.1-.02-.17c0-.07-.01-.17-.01-.29-.04.06-.09.12-.15.19-.06.07-.14.13-.22.18-.09.06-.19.1-.31.14-.12.03-.25.05-.4.05-.17,0-.33-.03-.46-.08-.14-.06-.26-.13-.35-.22-.1-.09-.17-.2-.23-.32-.05-.12-.08-.25-.08-.38ZM189.57,80.66c.13,0,.26-.02.38-.05s.22-.09.31-.17c.09-.08.15-.18.21-.31.05-.13.08-.28.08-.47v-.15l-1.03.15c-.14.02-.26.08-.35.16-.09.08-.14.2-.14.35,0,.13.05.24.15.34s.23.15.4.15Z"/>
    <path d="M193.11,77.74h.73v.59h-.73v1.75c0,.15.03.27.1.35s.19.12.36.12c.04,0,.09,0,.14,0,.05,0,.09-.01.12-.02v.56s-.08.02-.16.04c-.08.02-.17.02-.29.02-.29,0-.52-.08-.69-.25-.17-.17-.25-.4-.25-.71v-1.85h-.64v-.59h.18c.18,0,.31-.05.4-.15.08-.1.12-.22.12-.37v-.55h.6v1.06Z"/>
    <path d="M194.56,76.46c0-.13.05-.25.14-.34s.2-.14.33-.14.25.05.34.14.14.2.14.34-.05.24-.14.33-.2.14-.34.14-.24-.05-.33-.14-.14-.2-.14-.33ZM194.71,81.1v-3.37h.65v3.37h-.65Z"/>
    <path d="M197.92,77.63c.25,0,.48.05.69.14s.39.22.55.38c.15.16.27.35.36.56s.13.45.13.71-.04.5-.13.71c-.08.22-.2.41-.36.57-.15.16-.34.28-.55.37-.21.09-.44.14-.69.14s-.48-.04-.69-.14c-.21-.09-.39-.21-.55-.37-.15-.16-.27-.35-.36-.57-.08-.22-.13-.46-.13-.71s.04-.49.13-.71.2-.41.36-.56c.15-.16.34-.28.55-.38s.44-.14.69-.14ZM197.92,80.62c.14,0,.27-.03.4-.08.13-.05.24-.13.34-.23.1-.1.17-.23.23-.38.06-.15.08-.32.08-.52s-.03-.37-.08-.51c-.06-.15-.13-.27-.23-.37-.1-.1-.21-.18-.34-.23-.13-.05-.26-.08-.4-.08s-.27.03-.4.08c-.13.05-.24.13-.34.23-.1.1-.17.23-.23.37-.06.15-.08.32-.08.51s.03.37.08.52.13.28.23.38c.1.1.21.18.34.23.13.05.26.08.4.08Z"/>
    <path d="M201.14,81.1h-.66v-3.37h.64v.48c.12-.21.28-.36.46-.45s.38-.13.57-.13.38.03.53.1c.15.07.28.16.38.28s.17.26.22.42c.05.16.07.34.07.53v2.13h-.66v-2.02c0-.12-.01-.23-.04-.33-.03-.1-.07-.19-.13-.27-.06-.08-.14-.14-.25-.18-.1-.04-.22-.07-.37-.07-.13,0-.25.02-.34.07-.1.05-.18.12-.25.2s-.11.18-.15.29c-.03.11-.05.23-.05.36v1.95Z"/>
  </g>
  <g>
    <path d="M147.23,149.68v2.77h-.68v-2.77h-.62v-.6h.62v-.57c0-.19.03-.35.09-.5.06-.14.14-.27.24-.36.1-.1.22-.17.35-.22.13-.05.28-.07.43-.07.11,0,.2,0,.27.03.07.02.11.03.12.04v.59s-.05-.02-.09-.03c-.04,0-.11-.01-.19-.01-.06,0-.12,0-.18.02-.06.02-.12.05-.18.09s-.1.1-.13.17c-.03.07-.05.17-.05.29v.53h.81v.6h-.81Z"/>
    <path d="M148.54,151.55c0-.15.03-.28.08-.4.05-.12.12-.22.21-.3s.2-.15.33-.2.26-.09.41-.11l.91-.13c.1-.01.17-.04.21-.09s.05-.1.05-.16c0-.16-.06-.3-.17-.42s-.3-.18-.56-.18c-.23,0-.41.06-.54.19-.13.13-.2.29-.22.49l-.63-.15c.02-.16.07-.31.14-.44s.18-.25.3-.35c.12-.1.26-.17.42-.22.16-.05.33-.08.51-.08.25,0,.47.03.64.1.18.07.32.16.43.27s.19.24.25.39c.05.15.08.31.08.47v1.69c0,.15,0,.27.01.36,0,.09.02.15.03.2h-.64s-.02-.1-.02-.17c0-.07-.01-.17-.01-.29-.04.06-.09.12-.15.19-.06.07-.14.13-.22.18-.09.06-.19.1-.31.14-.12.04-.25.05-.4.05-.17,0-.33-.03-.46-.08s-.26-.13-.35-.22c-.1-.09-.17-.2-.23-.32s-.08-.25-.08-.38ZM149.76,152.01c.13,0,.26-.02.38-.05s.22-.09.31-.17c.09-.08.15-.18.21-.31.05-.13.08-.28.08-.46v-.15l-1.03.15c-.14.02-.26.08-.35.16-.09.08-.14.2-.14.35,0,.13.05.24.15.34.1.1.23.15.4.15Z"/>
    <path d="M152.26,147.82c0-.13.05-.25.14-.34.09-.09.2-.14.33-.14s.25.05.34.14c.09.09.14.21.14.34s-.05.24-.14.33c-.09.09-.2.14-.34.14s-.24-.04-.33-.14c-.09-.09-.14-.2-.14-.33ZM152.41,152.46v-3.37h.65v3.37h-.65Z"/>
    <path d="M154.18,152.46v-5.07h.66v5.07h-.66Z"/>
    <path d="M158.89,151.5c-.05.15-.12.29-.21.42-.09.13-.2.24-.33.34-.13.1-.27.17-.44.23-.16.06-.34.08-.54.08-.22,0-.44-.04-.64-.12-.21-.08-.39-.2-.54-.35-.16-.15-.28-.34-.37-.57-.09-.22-.14-.48-.14-.76,0-.27.04-.51.13-.72s.21-.4.35-.56c.15-.16.32-.28.51-.36s.4-.13.61-.13c.26,0,.49.04.69.13.2.09.37.21.51.36.14.15.24.34.31.56.07.22.11.46.11.72,0,.04,0,.08,0,.12,0,.04,0,.07-.01.09h-2.53c0,.15.03.29.08.41.05.12.12.23.21.33s.2.16.32.21c.12.05.25.07.4.07.27,0,.48-.07.63-.2.14-.13.25-.29.31-.48l.57.2ZM158.23,150.43c0-.24-.09-.45-.25-.61-.15-.17-.38-.25-.68-.25-.14,0-.27.02-.38.07-.11.05-.2.11-.28.2-.08.08-.14.17-.18.28-.05.1-.07.21-.08.32h1.84Z"/>
    <path d="M162.11,151.95c-.08.16-.21.3-.38.42-.17.12-.4.18-.66.18-.25,0-.47-.05-.67-.14-.2-.09-.36-.22-.5-.38-.14-.16-.24-.35-.32-.57-.07-.22-.11-.45-.11-.7,0-.24.04-.46.12-.68s.19-.4.33-.56c.14-.16.31-.29.5-.38.2-.1.41-.14.65-.14.15,0,.28.02.4.05.11.03.21.08.3.13.08.05.15.12.21.18.06.07.1.14.13.21v-2.18h.65v4.44c0,.16,0,.3.01.41,0,.11.02.18.02.21h-.64s-.02-.1-.02-.18-.01-.17-.01-.28v-.06ZM160.14,150.76c0,.17.02.33.07.48.04.15.11.27.19.38s.19.19.31.25c.12.06.26.09.42.09.15,0,.28-.03.41-.09s.22-.15.31-.26.15-.24.19-.38c.04-.15.07-.31.07-.48,0-.35-.08-.63-.26-.85-.17-.21-.41-.32-.71-.32-.15,0-.29.03-.41.09-.12.06-.23.14-.31.25-.09.1-.15.23-.2.37-.05.14-.07.3-.07.48Z"/>
    <path d="M165.47,147.82c0-.13.05-.25.14-.34.09-.09.2-.14.33-.14s.25.05.34.14c.09.09.14.21.14.34s-.05.24-.14.33c-.09.09-.2.14-.34.14s-.24-.04-.33-.14c-.09-.09-.14-.2-.14-.33ZM165.62,152.46v-3.37h.65v3.37h-.65Z"/>
    <path d="M168.05,152.46h-.66v-3.37h.64v.48c.12-.21.28-.36.46-.45.19-.09.38-.13.57-.13s.38.03.53.1c.15.07.28.16.38.28s.17.26.22.42c.05.16.07.34.07.53v2.13h-.66v-2.02c0-.12-.01-.23-.04-.33-.03-.1-.07-.19-.13-.27-.06-.08-.14-.14-.25-.18-.1-.04-.22-.07-.37-.07-.13,0-.25.02-.34.07-.1.05-.18.12-.25.2s-.11.18-.15.29c-.03.11-.05.23-.05.36v1.95Z"/>
    <path d="M173.68,151.95c-.08.16-.21.3-.38.42-.17.12-.4.18-.66.18-.25,0-.47-.05-.67-.14-.2-.09-.36-.22-.5-.38-.14-.16-.24-.35-.32-.57-.07-.22-.11-.45-.11-.7,0-.24.04-.46.12-.68s.19-.4.33-.56c.14-.16.31-.29.5-.38.2-.1.41-.14.65-.14.15,0,.28.02.4.05.11.03.21.08.3.13.08.05.15.12.21.18.06.07.1.14.13.21v-2.18h.65v4.44c0,.16,0,.3.01.41,0,.11.02.18.02.21h-.64s-.02-.1-.02-.18-.01-.17-.01-.28v-.06ZM171.71,150.76c0,.17.02.33.07.48.04.15.11.27.19.38s.19.19.31.25c.12.06.26.09.42.09.15,0,.28-.03.41-.09s.22-.15.31-.26.15-.24.19-.38c.04-.15.07-.31.07-.48,0-.35-.08-.63-.26-.85-.17-.21-.41-.32-.71-.32-.15,0-.29.03-.41.09-.12.06-.23.14-.31.25-.09.1-.15.23-.2.37-.05.14-.07.3-.07.48Z"/>
    <path d="M175.29,147.82c0-.13.05-.25.14-.34.09-.09.2-.14.33-.14s.25.05.34.14c.09.09.14.21.14.34s-.05.24-.14.33c-.09.09-.2.14-.34.14s-.24-.04-.33-.14c-.09-.09-.14-.2-.14-.33ZM175.44,152.46v-3.37h.65v3.37h-.65Z"/>
    <path d="M178.62,149.59c-.13,0-.26.02-.38.07s-.23.12-.33.22-.17.22-.23.37-.08.32-.08.51.03.36.08.51c.06.15.13.27.22.37.09.1.2.18.33.23.13.05.26.08.39.08.16,0,.29-.02.4-.07.11-.05.2-.1.27-.17.07-.07.13-.15.17-.23.04-.08.07-.15.09-.22l.58.25c-.04.12-.1.24-.18.37-.08.12-.18.24-.31.34s-.27.18-.44.25c-.17.06-.37.09-.58.09-.25,0-.48-.04-.68-.14-.21-.09-.39-.22-.54-.38s-.27-.35-.35-.57c-.09-.22-.13-.45-.13-.71s.04-.5.13-.72c.09-.22.21-.41.36-.56s.33-.28.54-.37c.21-.09.43-.13.67-.13.22,0,.42.03.59.09s.32.15.44.25c.12.1.22.22.3.35.08.13.13.26.17.38l-.59.25c-.02-.08-.06-.17-.1-.25s-.1-.16-.17-.23-.16-.12-.26-.17-.23-.07-.37-.07Z"/>
    <path d="M180.71,151.55c0-.15.03-.28.08-.4.05-.12.12-.22.21-.3s.2-.15.33-.2.26-.09.41-.11l.91-.13c.1-.01.17-.04.21-.09s.05-.1.05-.16c0-.16-.06-.3-.17-.42s-.3-.18-.56-.18c-.23,0-.41.06-.54.19-.13.13-.2.29-.22.49l-.63-.15c.02-.16.07-.31.14-.44s.18-.25.3-.35c.12-.1.26-.17.42-.22.16-.05.33-.08.51-.08.25,0,.47.03.64.1.18.07.32.16.43.27s.19.24.25.39c.05.15.08.31.08.47v1.69c0,.15,0,.27.01.36,0,.09.02.15.03.2h-.64s-.02-.1-.02-.17c0-.07-.01-.17-.01-.29-.04.06-.09.12-.15.19-.06.07-.14.13-.22.18-.09.06-.19.1-.31.14-.12.04-.25.05-.4.05-.17,0-.33-.03-.46-.08s-.26-.13-.35-.22c-.1-.09-.17-.2-.23-.32s-.08-.25-.08-.38ZM181.93,152.01c.13,0,.26-.02.38-.05s.22-.09.31-.17c.09-.08.15-.18.21-.31.05-.13.08-.28.08-.46v-.15l-1.03.15c-.14.02-.26.08-.35.16-.09.08-.14.2-.14.35,0,.13.05.24.15.34.1.1.23.15.4.15Z"/>
    <path d="M185.46,149.09h.73v.6h-.73v1.75c0,.15.03.27.1.35s.19.12.36.12c.04,0,.09,0,.14,0,.05,0,.09-.01.12-.02v.56s-.08.02-.16.04c-.08.02-.17.02-.29.02-.29,0-.52-.08-.69-.25s-.25-.4-.25-.71v-1.85h-.64v-.6h.18c.18,0,.31-.05.4-.15.08-.1.12-.22.12-.37v-.55h.6v1.06Z"/>
    <path d="M186.92,147.82c0-.13.05-.25.14-.34.09-.09.2-.14.33-.14s.25.05.34.14c.09.09.14.21.14.34s-.05.24-.14.33c-.09.09-.2.14-.34.14s-.24-.04-.33-.14c-.09-.09-.14-.2-.14-.33ZM187.06,152.46v-3.37h.65v3.37h-.65Z"/>
    <path d="M190.28,148.98c.25,0,.48.05.69.14s.39.22.55.37c.15.16.27.35.36.56s.13.45.13.71-.04.5-.13.71c-.08.22-.2.41-.36.57-.15.16-.34.28-.55.37-.21.09-.44.14-.69.14s-.48-.04-.69-.14c-.21-.09-.39-.21-.55-.37-.15-.16-.27-.35-.36-.57-.08-.22-.13-.46-.13-.71s.04-.49.13-.71.2-.41.36-.56c.15-.16.34-.28.55-.37s.44-.14.69-.14ZM190.28,151.97c.14,0,.27-.03.4-.08s.24-.13.34-.23c.1-.1.17-.23.23-.38.06-.15.08-.32.08-.52s-.03-.37-.08-.51c-.06-.15-.13-.27-.23-.38-.1-.1-.21-.18-.34-.23-.13-.05-.26-.08-.4-.08s-.27.03-.4.08c-.13.05-.24.13-.34.23-.1.1-.17.23-.23.38s-.08.32-.08.51.03.37.08.52c.06.15.13.28.23.38.1.1.21.18.34.23s.26.08.4.08Z"/>
    <path d="M193.5,152.46h-.66v-3.37h.64v.48c.12-.21.28-.36.46-.45.19-.09.38-.13.57-.13s.38.03.53.1c.15.07.28.16.38.28s.17.26.22.42c.05.16.07.34.07.53v2.13h-.66v-2.02c0-.12-.01-.23-.04-.33-.03-.1-.07-.19-.13-.27-.06-.08-.14-.14-.25-.18-.1-.04-.22-.07-.37-.07-.13,0-.25.02-.34.07-.1.05-.18.12-.25.2s-.11.18-.15.29c-.03.11-.05.23-.05.36v1.95Z"/>
  </g>
</svg>