<?xml version="1.0" encoding="UTF-8"?>
<svg id="Layer_1" data-name="Layer 1" xmlns="http://www.w3.org/2000/svg" viewBox="0 0 684 205.05">
  <defs>
    <style>
      .cls-1, .cls-2, .cls-3 {
        fill: none;
      }

      .cls-1, .cls-2, .cls-3, .cls-4, .cls-5 {
        stroke-miterlimit: 10;
      }

      .cls-1, .cls-3 {
        stroke: #000;
      }

      .cls-6 {
        fill: #fff;
      }

      .cls-2, .cls-3 {
        stroke-linecap: square;
      }

      .cls-2, .cls-5 {
        stroke: #d90000;
      }

      .cls-7, .cls-5 {
        fill: #d90000;
      }

      .cls-8 {
        fill: #7fb842;
      }

      .cls-4 {
        fill: #0082fc;
        opacity: .5;
        stroke: #0082fc;
      }
    </style>
  </defs>
  <rect class="cls-8" x="320.48" y="140.99" width="14.49" height="14.49"/>
  <rect class="cls-8" x="630.47" y="140.99" width="14.49" height="14.49"/>
  <rect class="cls-8" x="9.44" y="140.99" width="14.49" height="14.49"/>
  <g>
    <line class="cls-2" x1="9.44" y1="45.21" x2="313.14" y2="45.21"/>
    <polygon class="cls-7" points="311.68 50.19 320.32 45.21 311.68 40.22 311.68 50.19"/>
  </g>
  <g>
    <line class="cls-3" x1="9.28" y1="72" x2="66.51" y2="72"/>
    <polygon points="65.05 76.99 73.69 72 65.05 67.02 65.05 76.99"/>
  </g>
  <line class="cls-4" x1="133.65" y1="155.5" x2="133.65" y2="30.46"/>
  <line class="cls-5" x1="9.44" y1="155.5" x2="9.44" y2="9.72"/>
  <line class="cls-4" x1="71.55" y1="155.5" x2="71.55" y2="30.46"/>
  <line class="cls-4" x1="195.75" y1="155.5" x2="195.75" y2="30.46"/>
  <line class="cls-4" x1="257.85" y1="155.5" x2="257.85" y2="30.46"/>
  <line class="cls-4" x1="568.37" y1="155.5" x2="568.37" y2="30.46"/>
  <line class="cls-4" x1="444.16" y1="155.5" x2="444.16" y2="30.46"/>
  <line class="cls-5" x1="319.96" y1="155.5" x2="319.96" y2="9.72"/>
  <line class="cls-4" x1="382.06" y1="155.5" x2="382.06" y2="30.46"/>
  <line class="cls-4" x1="506.27" y1="155.5" x2="506.27" y2="30.46"/>
  <rect class="cls-6" x="96.74" y="48.45" width="152.43" height="20.89"/>
  <line class="cls-5" x1="630.47" y1="155.5" x2="630.47" y2="9.72"/>
  <rect x="71.55" y="140.99" width="14.49" height="14.49"/>
  <rect x="133.65" y="140.99" width="14.49" height="14.49"/>
  <rect x="195.75" y="140.99" width="14.49" height="14.49"/>
  <rect x="257.85" y="140.99" width="14.49" height="14.49"/>
  <rect x="382.32" y="140.99" width="14.49" height="14.49"/>
  <rect x="444.29" y="140.99" width="14.49" height="14.49"/>
  <rect x="506.33" y="140.99" width="14.49" height="14.49"/>
  <rect x="568.4" y="140.99" width="14.49" height="14.49"/>
  <g>
    <path d="M16.33,83.78c-.45,0-.89-.08-1.31-.24-.42-.16-.79-.4-1.11-.71s-.58-.69-.77-1.15-.29-.97-.29-1.56.1-1.1.3-1.56c.2-.45.46-.83.79-1.14.33-.31.7-.54,1.12-.71.42-.16.84-.24,1.28-.24.4,0,.77.05,1.11.16s.64.25.9.44c.26.19.49.42.67.7.18.28.32.58.41.92l-.9.32c-.13-.53-.38-.94-.76-1.23s-.85-.42-1.43-.42c-.32,0-.62.06-.92.17s-.57.29-.8.52c-.23.23-.42.52-.56.86-.14.35-.21.75-.21,1.2s.07.85.21,1.2c.14.35.32.64.56.87.23.23.5.41.8.52.3.12.61.17.92.17.3,0,.57-.04.81-.13.24-.09.46-.2.65-.35.19-.15.35-.33.47-.53.13-.21.23-.43.3-.67l.86.32c-.09.33-.23.63-.42.91-.18.28-.41.51-.67.71-.26.2-.56.35-.9.46-.34.11-.71.17-1.11.17Z"/>
    <path d="M22.45,78.73c.36,0,.68.06.98.19.3.13.55.3.77.53.22.22.39.49.5.8s.18.64.18,1-.06.7-.18,1.01-.29.58-.5.8c-.22.22-.47.4-.77.53-.3.13-.62.19-.98.19s-.68-.06-.98-.19c-.3-.13-.55-.3-.77-.53-.22-.22-.39-.49-.5-.8-.12-.31-.18-.65-.18-1.01s.06-.7.18-1c.12-.31.29-.57.5-.8.22-.22.47-.4.77-.53.3-.13.62-.19.98-.19ZM22.45,82.95c.2,0,.39-.04.56-.11.18-.07.34-.18.47-.33.14-.15.25-.32.33-.53.08-.21.12-.45.12-.73s-.04-.52-.12-.73c-.08-.21-.19-.38-.33-.53-.14-.14-.3-.25-.47-.33-.18-.07-.37-.11-.56-.11s-.38.04-.56.11c-.18.07-.34.18-.47.33-.14.15-.25.32-.33.53-.08.21-.12.45-.12.73s.04.52.12.73.19.39.33.53c.14.14.3.25.47.33.18.07.37.11.56.11Z"/>
    <path d="M27,83.63h-.93v-4.75h.91v.68c.17-.3.39-.51.65-.63.26-.12.53-.19.81-.19s.53.05.75.14.39.23.53.4.25.37.32.6c.07.23.1.48.1.74v3.01h-.93v-2.85c0-.16-.02-.32-.05-.46-.04-.15-.1-.27-.19-.38-.09-.11-.21-.19-.35-.26-.14-.06-.32-.09-.52-.09-.18,0-.35.03-.48.1-.14.07-.25.16-.35.28-.09.12-.16.26-.21.42s-.07.33-.07.5v2.75Z"/>
    <path d="M32.55,83.63h-.93v-4.75h.91v.68c.17-.3.39-.51.65-.63.26-.12.53-.19.81-.19s.53.05.75.14.39.23.53.4.25.37.32.6c.07.23.1.48.1.74v3.01h-.93v-2.85c0-.16-.02-.32-.05-.46-.04-.15-.1-.27-.19-.38-.09-.11-.21-.19-.35-.26-.14-.06-.32-.09-.52-.09-.18,0-.35.03-.48.1-.14.07-.25.16-.35.28-.09.12-.16.26-.21.42s-.07.33-.07.5v2.75Z"/>
    <path d="M41.31,82.28c-.07.21-.16.41-.29.59-.13.18-.28.34-.46.47-.18.14-.39.24-.62.32s-.48.12-.76.12c-.32,0-.62-.06-.91-.17-.29-.11-.54-.28-.77-.49s-.39-.48-.52-.8c-.13-.32-.19-.68-.19-1.08,0-.38.06-.72.19-1.02.12-.31.29-.57.5-.79.21-.22.45-.39.73-.51.28-.12.56-.18.86-.18.36,0,.69.06.97.18.29.12.53.29.72.51.19.22.34.48.44.79.1.31.15.64.15,1.01,0,.06,0,.12,0,.17,0,.05,0,.1-.02.13h-3.58c0,.21.05.41.12.58.07.18.17.33.3.46.13.13.28.23.45.3.17.07.36.1.56.1.39,0,.68-.09.89-.28.2-.18.35-.41.44-.68l.8.28ZM40.37,80.77c-.01-.34-.13-.63-.35-.86s-.54-.35-.96-.35c-.2,0-.37.03-.53.1-.16.07-.29.16-.4.28s-.2.25-.26.39c-.07.15-.1.29-.11.44h2.6Z"/>
    <path d="M44.52,79.59c-.19,0-.37.03-.54.1-.17.07-.32.17-.46.31-.13.14-.24.31-.32.52-.08.21-.12.45-.12.73s.04.51.12.72.18.38.32.52.29.25.46.32c.18.07.36.11.55.11.22,0,.41-.03.57-.1.15-.07.28-.15.38-.25.1-.1.18-.21.24-.32.06-.11.1-.22.13-.31l.82.36c-.06.17-.14.34-.26.52-.11.17-.26.33-.43.48-.18.15-.39.26-.63.35-.24.09-.52.13-.83.13-.35,0-.67-.06-.96-.19-.29-.13-.55-.31-.76-.53-.21-.23-.38-.49-.5-.8-.12-.31-.18-.64-.18-1s.06-.71.18-1.02.29-.57.5-.8.47-.39.76-.52.61-.19.94-.19c.32,0,.59.04.83.13.24.09.45.21.62.35s.31.31.42.49.18.36.24.54l-.84.36c-.03-.12-.08-.24-.14-.36-.06-.12-.14-.23-.24-.32-.1-.1-.23-.17-.37-.24s-.32-.09-.52-.09Z"/>
    <path d="M49.01,78.88h1.03v.84h-1.03v2.47c0,.22.05.38.15.49.1.11.27.16.51.16.06,0,.12,0,.2,0,.07,0,.13-.02.17-.03v.79s-.12.03-.23.05c-.11.02-.25.03-.4.03-.41,0-.73-.12-.97-.35s-.36-.57-.36-1v-2.61h-.91v-.84h.26c.26,0,.44-.07.56-.21s.17-.31.17-.52v-.77h.85v1.5Z"/>
    <path d="M51.06,77.08c0-.19.06-.35.19-.48.13-.13.29-.19.47-.19s.35.06.48.19c.13.13.19.29.19.48s-.06.34-.19.47c-.13.13-.29.19-.48.19s-.34-.06-.47-.19c-.13-.13-.19-.28-.19-.47ZM51.27,83.63v-4.75h.92v4.75h-.92Z"/>
    <path d="M55.8,78.73c.36,0,.68.06.98.19.3.13.55.3.77.53.22.22.39.49.5.8s.18.64.18,1-.06.7-.18,1.01-.29.58-.5.8c-.22.22-.47.4-.77.53-.3.13-.62.19-.98.19s-.68-.06-.98-.19c-.3-.13-.55-.3-.77-.53-.22-.22-.39-.49-.5-.8-.12-.31-.18-.65-.18-1.01s.06-.7.18-1c.12-.31.29-.57.5-.8.22-.22.47-.4.77-.53.3-.13.62-.19.98-.19ZM55.8,82.95c.2,0,.39-.04.56-.11.18-.07.34-.18.47-.33.14-.15.25-.32.33-.53.08-.21.12-.45.12-.73s-.04-.52-.12-.73c-.08-.21-.19-.38-.33-.53-.14-.14-.3-.25-.47-.33-.18-.07-.37-.11-.56-.11s-.38.04-.56.11c-.18.07-.34.18-.47.33-.14.15-.25.32-.33.53-.08.21-.12.45-.12.73s.04.52.12.73.19.39.33.53c.14.14.3.25.47.33.18.07.37.11.56.11Z"/>
    <path d="M60.35,83.63h-.93v-4.75h.91v.68c.17-.3.39-.51.65-.63.26-.12.53-.19.81-.19s.53.05.75.14.39.23.53.4.25.37.32.6c.07.23.1.48.1.74v3.01h-.93v-2.85c0-.16-.02-.32-.05-.46-.04-.15-.1-.27-.19-.38-.09-.11-.21-.19-.35-.26-.14-.06-.32-.09-.52-.09-.18,0-.35.03-.48.1-.14.07-.25.16-.35.28-.09.12-.16.26-.21.42s-.07.33-.07.5v2.75Z"/>
    <path d="M22.47,95.49v-7h.99v7h-.99Z"/>
    <path d="M26.06,95.49h-.93v-4.75h.91v.68c.17-.3.39-.51.65-.63.26-.12.53-.19.81-.19s.53.05.75.14.39.23.53.4.25.37.32.6c.07.23.1.48.1.74v3.01h-.93v-2.85c0-.16-.02-.32-.05-.46-.04-.15-.1-.27-.19-.38-.09-.11-.21-.19-.35-.26-.14-.06-.32-.09-.52-.09-.18,0-.35.03-.48.1-.14.07-.25.16-.35.28-.09.12-.16.26-.21.42s-.07.33-.07.5v2.75Z"/>
    <path d="M31.93,90.74h1.03v.84h-1.03v2.47c0,.22.05.38.15.49.1.11.27.16.51.16.06,0,.12,0,.2,0,.07,0,.13-.02.17-.03v.79s-.12.03-.23.05c-.11.02-.25.03-.4.03-.41,0-.73-.12-.97-.35s-.36-.57-.36-1v-2.61h-.91v-.84h.26c.26,0,.44-.07.56-.21s.17-.31.17-.52v-.77h.85v1.5Z"/>
    <path d="M38.33,94.14c-.07.21-.16.41-.29.59-.13.18-.28.34-.46.47-.18.14-.39.24-.62.32s-.48.12-.76.12c-.32,0-.62-.06-.91-.17-.29-.11-.54-.28-.77-.49s-.39-.48-.52-.8c-.13-.32-.19-.68-.19-1.08,0-.38.06-.72.19-1.02.12-.31.29-.57.5-.79.21-.22.45-.39.73-.51.28-.12.56-.18.86-.18.36,0,.69.06.97.18.29.12.53.29.72.51.19.22.34.48.44.79.1.31.15.64.15,1.01,0,.06,0,.12,0,.17,0,.05,0,.1-.02.13h-3.58c0,.21.05.41.12.58.07.18.17.33.3.46.13.13.28.23.45.3.17.07.36.1.56.1.39,0,.68-.09.89-.28.2-.18.35-.41.44-.68l.8.28ZM37.39,92.62c-.01-.34-.13-.63-.35-.86s-.54-.35-.96-.35c-.2,0-.37.03-.53.1-.16.07-.29.16-.4.28s-.2.25-.26.39c-.07.15-.1.29-.11.44h2.6Z"/>
    <path d="M42.19,91.68c-.14-.02-.27-.03-.4-.03-.39,0-.7.11-.94.34-.24.23-.36.6-.36,1.12v2.38h-.93v-4.75h.91v.83c.09-.18.19-.33.3-.45s.24-.21.36-.28c.12-.07.25-.12.38-.14s.26-.04.38-.04c.07,0,.13,0,.18,0,.06,0,.1.01.12.02v.99Z"/>
    <path d="M45.35,95.49h-.94l-1.93-4.75h1.05l1.35,3.67,1.36-3.67h1l-1.9,4.75Z"/>
    <path d="M47.84,94.21c0-.21.04-.4.11-.57s.17-.31.3-.43c.13-.12.28-.21.46-.29.18-.07.37-.13.57-.16l1.28-.19c.14-.02.24-.06.29-.13.05-.07.07-.14.07-.23,0-.23-.08-.43-.24-.6-.16-.17-.42-.25-.79-.25-.33,0-.58.09-.76.27s-.28.41-.32.69l-.89-.21c.03-.22.09-.43.2-.62.11-.19.25-.35.42-.49.17-.13.37-.24.6-.32.23-.08.47-.11.73-.11.36,0,.66.05.91.14.25.1.45.22.61.38.16.16.27.34.35.55s.11.43.11.66v2.38c0,.21,0,.38.02.5.01.13.03.22.04.28h-.91c-.01-.06-.02-.14-.03-.24,0-.1-.01-.23-.01-.4-.05.09-.12.17-.21.27-.08.09-.19.18-.32.26-.13.08-.27.14-.44.19s-.36.07-.57.07c-.24,0-.46-.04-.66-.12s-.36-.18-.5-.31-.25-.28-.32-.45c-.08-.17-.11-.35-.11-.54ZM49.56,94.86c.19,0,.37-.02.54-.07.17-.05.31-.13.43-.24.12-.11.22-.25.29-.44.07-.18.11-.4.11-.66v-.22l-1.45.22c-.2.03-.36.11-.49.22s-.2.28-.2.49c0,.18.07.34.21.48.14.14.33.21.56.21Z"/>
    <path d="M53.3,95.49v-7.15h.93v7.15h-.93Z"/>
  </g>
  <g>
    <path d="M128.37,56.35c-.02-.12-.06-.26-.13-.4-.07-.14-.16-.27-.28-.39-.12-.12-.27-.22-.44-.29s-.39-.11-.63-.11c-.2,0-.38.03-.54.09-.17.06-.31.14-.43.25s-.22.23-.28.37c-.07.14-.1.29-.1.46,0,.25.08.47.23.65s.38.3.67.37l1.05.23c.59.13,1.04.37,1.35.71.31.34.47.76.47,1.25,0,.27-.06.53-.17.78s-.27.47-.48.66c-.21.19-.46.34-.76.46-.3.12-.63.17-1.01.17-.42,0-.79-.06-1.1-.19-.31-.12-.58-.29-.79-.48-.21-.2-.38-.42-.5-.67-.12-.25-.19-.5-.23-.75l.93-.3c.02.2.07.39.14.57s.18.34.33.48.31.25.51.33.43.12.7.12c.48,0,.84-.11,1.08-.33s.36-.48.36-.79c0-.25-.08-.48-.26-.68-.17-.2-.43-.34-.79-.41l-1-.22c-.5-.11-.91-.33-1.23-.65-.32-.32-.48-.74-.48-1.27,0-.28.06-.54.18-.79.12-.25.28-.47.49-.66.21-.19.45-.34.74-.46.28-.12.59-.17.91-.17.4,0,.73.05,1.01.16.28.11.51.25.7.42.19.17.33.36.44.56.1.2.18.4.22.59l-.87.31Z"/>
    <path d="M133.42,60.88c-.13.25-.33.43-.59.55-.26.12-.53.17-.81.17s-.53-.05-.75-.15-.41-.23-.56-.41c-.15-.17-.27-.37-.35-.6-.08-.23-.12-.48-.12-.75v-2.99h.93v2.85c0,.17.02.32.06.47.04.15.1.28.19.39.08.11.2.2.33.27.13.07.3.1.5.1.38,0,.66-.11.84-.34.19-.22.28-.52.28-.88v-2.86h.93v3.87c0,.19,0,.36.01.52,0,.16.02.28.03.36h-.89c-.01-.05-.02-.14-.03-.25,0-.12,0-.22,0-.32Z"/>
    <path d="M135.88,61.45v-7.15h.92v3.07c.11-.21.3-.4.57-.56.27-.16.6-.25,1-.25.36,0,.68.06.95.19.27.13.5.31.68.53.18.23.32.49.42.79.09.3.14.63.14.97s-.05.69-.15.99-.24.57-.43.8c-.19.23-.42.41-.69.54-.27.13-.59.2-.94.2s-.66-.07-.92-.22c-.26-.15-.47-.35-.62-.6v.69h-.92ZM139.6,59.05c0-.51-.12-.92-.38-1.22-.25-.3-.59-.45-1.03-.45-.2,0-.39.04-.57.12-.17.08-.32.19-.45.33-.12.14-.22.32-.29.52s-.1.44-.1.7.03.49.1.7.17.39.29.54c.12.15.27.26.45.34.17.08.36.12.57.12.43,0,.77-.15,1.02-.46.25-.31.38-.72.38-1.23Z"/>
    <path d="M144.37,57.64c-.14-.02-.27-.03-.4-.03-.39,0-.7.11-.94.34-.24.23-.36.6-.36,1.12v2.38h-.93v-4.75h.91v.83c.09-.18.19-.33.3-.45s.24-.21.36-.28c.12-.07.25-.12.38-.14s.26-.04.38-.04c.07,0,.13,0,.18,0,.06,0,.1.01.12.02v.99Z"/>
    <path d="M145.06,60.18c0-.21.04-.4.11-.57s.17-.31.3-.43c.13-.12.28-.21.46-.29.18-.07.37-.13.57-.16l1.28-.19c.14-.02.24-.06.29-.13.05-.07.07-.14.07-.23,0-.23-.08-.43-.24-.6-.16-.17-.42-.25-.79-.25-.33,0-.58.09-.76.27s-.28.41-.32.69l-.89-.21c.03-.22.09-.43.2-.62.11-.19.25-.35.42-.49.17-.13.37-.24.6-.32.23-.08.47-.11.73-.11.36,0,.66.05.91.14.25.1.45.22.61.38.16.16.27.34.35.55s.11.43.11.66v2.38c0,.21,0,.38.02.5.01.13.03.22.04.28h-.91c-.01-.06-.02-.14-.03-.24,0-.1-.01-.23-.01-.4-.05.09-.12.17-.21.27-.08.09-.19.18-.32.26-.13.08-.27.14-.44.19s-.36.07-.57.07c-.24,0-.46-.04-.66-.12s-.36-.18-.5-.31-.25-.28-.32-.45c-.08-.17-.11-.35-.11-.54ZM146.78,60.82c.19,0,.37-.02.54-.07.17-.05.31-.13.43-.24.12-.11.22-.25.29-.44.07-.18.11-.4.11-.66v-.22l-1.45.22c-.2.03-.36.11-.49.22s-.2.28-.2.49c0,.18.07.34.21.48.14.14.33.21.56.21Z"/>
    <path d="M151.77,56.7h1.03v.84h-1.03v2.47c0,.22.05.38.15.49.1.11.27.16.51.16.06,0,.12,0,.2,0,.07,0,.13-.02.17-.03v.79s-.12.03-.23.05c-.11.02-.25.03-.4.03-.41,0-.73-.12-.97-.35s-.36-.57-.36-1v-2.61h-.91v-.84h.26c.26,0,.44-.07.56-.21s.17-.31.17-.52v-.77h.85v1.5Z"/>
    <path d="M158.17,60.1c-.07.21-.16.41-.29.59-.13.18-.28.34-.46.47-.18.14-.39.24-.62.32s-.48.12-.76.12c-.32,0-.62-.06-.91-.17-.29-.11-.54-.28-.77-.49s-.39-.48-.52-.8c-.13-.32-.19-.68-.19-1.08,0-.38.06-.72.19-1.02.12-.31.29-.57.5-.79.21-.22.45-.39.73-.51.28-.12.56-.18.86-.18.36,0,.69.06.97.18.29.12.53.29.72.51.19.22.34.48.44.79.1.31.15.64.15,1.01,0,.06,0,.12,0,.17,0,.05,0,.1-.02.13h-3.58c0,.21.05.41.12.58.07.18.17.33.3.46.13.13.28.23.45.3.17.07.36.1.56.1.39,0,.68-.09.89-.28.2-.18.35-.41.44-.68l.8.28ZM157.23,58.59c-.01-.34-.13-.63-.35-.86s-.54-.35-.96-.35c-.2,0-.37.03-.53.1-.16.07-.29.16-.4.28s-.2.25-.26.39c-.07.15-.1.29-.11.44h2.6Z"/>
    <path d="M161.96,61.45v-7h4.26v.9h-3.29v2.25h2.98v.91h-2.98v2.94h-.97Z"/>
    <path d="M166.66,60.18c0-.21.04-.4.11-.57s.17-.31.3-.43c.13-.12.28-.21.46-.29.18-.07.37-.13.57-.16l1.28-.19c.14-.02.24-.06.29-.13.05-.07.07-.14.07-.23,0-.23-.08-.43-.24-.6-.16-.17-.42-.25-.79-.25-.33,0-.58.09-.76.27s-.28.41-.32.69l-.89-.21c.03-.22.09-.43.2-.62.11-.19.25-.35.42-.49.17-.13.37-.24.6-.32.23-.08.47-.11.73-.11.36,0,.66.05.91.14.25.1.45.22.61.38.16.16.27.34.35.55s.11.43.11.66v2.38c0,.21,0,.38.02.5.01.13.03.22.04.28h-.91c-.01-.06-.02-.14-.03-.24,0-.1-.01-.23-.01-.4-.05.09-.12.17-.21.27-.08.09-.19.18-.32.26-.13.08-.27.14-.44.19s-.36.07-.57.07c-.24,0-.46-.04-.66-.12s-.36-.18-.5-.31-.25-.28-.32-.45c-.08-.17-.11-.35-.11-.54ZM168.38,60.82c.19,0,.37-.02.54-.07.17-.05.31-.13.43-.24.12-.11.22-.25.29-.44.07-.18.11-.4.11-.66v-.22l-1.45.22c-.2.03-.36.11-.49.22s-.2.28-.2.49c0,.18.07.34.21.48.14.14.33.21.56.21Z"/>
    <path d="M174.12,57.41c-.19,0-.37.03-.54.1-.17.07-.32.17-.46.31-.13.14-.24.31-.32.52-.08.21-.12.45-.12.73s.04.51.12.72.18.38.32.52.29.25.46.32c.18.07.36.11.55.11.22,0,.41-.03.57-.1.15-.07.28-.15.38-.25.1-.1.18-.21.24-.32.06-.11.1-.22.13-.31l.82.36c-.06.17-.14.34-.26.52-.11.17-.26.33-.43.48-.18.15-.39.26-.63.35-.24.09-.52.13-.83.13-.35,0-.67-.06-.96-.19-.29-.13-.55-.31-.76-.53-.21-.23-.38-.49-.5-.8-.12-.31-.18-.64-.18-1s.06-.71.18-1.02.29-.57.5-.8.47-.39.76-.52.61-.19.94-.19c.32,0,.59.04.83.13.24.09.45.21.62.35s.31.31.42.49.18.36.24.54l-.84.36c-.03-.12-.08-.24-.14-.36-.06-.12-.14-.23-.24-.32-.1-.1-.23-.17-.37-.24s-.32-.09-.52-.09Z"/>
    <path d="M178.6,56.7h1.03v.84h-1.03v2.47c0,.22.05.38.15.49.1.11.27.16.51.16.06,0,.12,0,.2,0,.07,0,.13-.02.17-.03v.79s-.12.03-.23.05c-.11.02-.25.03-.4.03-.41,0-.73-.12-.97-.35s-.36-.57-.36-1v-2.61h-.91v-.84h.26c.26,0,.44-.07.56-.21s.17-.31.17-.52v-.77h.85v1.5Z"/>
    <path d="M182.9,56.55c.36,0,.68.06.98.19.3.13.55.3.77.53.22.22.39.49.5.8s.18.64.18,1-.06.7-.18,1.01-.29.58-.5.8c-.22.22-.47.4-.77.53-.3.13-.62.19-.98.19s-.68-.06-.98-.19c-.3-.13-.55-.3-.77-.53-.22-.22-.39-.49-.5-.8-.12-.31-.18-.65-.18-1.01s.06-.7.18-1c.12-.31.29-.57.5-.8.22-.22.47-.4.77-.53.3-.13.62-.19.98-.19ZM182.9,60.77c.2,0,.39-.04.56-.11.18-.07.34-.18.47-.33.14-.15.25-.32.33-.53.08-.21.12-.45.12-.73s-.04-.52-.12-.73c-.08-.21-.19-.38-.33-.53-.14-.14-.3-.25-.47-.33-.18-.07-.37-.11-.56-.11s-.38.04-.56.11c-.18.07-.34.18-.47.33-.14.15-.25.32-.33.53-.08.21-.12.45-.12.73s.04.52.12.73.19.39.33.53c.14.14.3.25.47.33.18.07.37.11.56.11Z"/>
    <path d="M189.15,57.64c-.14-.02-.27-.03-.4-.03-.39,0-.7.11-.94.34-.24.23-.36.6-.36,1.12v2.38h-.93v-4.75h.91v.83c.09-.18.19-.33.3-.45s.24-.21.36-.28c.12-.07.25-.12.38-.14s.26-.04.38-.04c.07,0,.13,0,.18,0,.06,0,.1.01.12.02v.99Z"/>
    <path d="M192.46,58.04v-.76h4.57v.76h-4.57ZM192.46,59.96v-.78h4.57v.78h-4.57Z"/>
    <path d="M201.42,59.44c.03.4.18.71.44.96s.6.37,1,.37c.19,0,.37-.03.54-.09.17-.06.31-.15.44-.26.12-.11.22-.25.29-.41.07-.16.11-.34.11-.53,0-.22-.04-.41-.11-.58-.08-.17-.18-.31-.3-.41-.12-.11-.27-.19-.44-.25s-.34-.08-.53-.08c-.23,0-.45.04-.65.12s-.38.2-.51.34c-.17-.07-.33-.13-.48-.19-.15-.06-.3-.12-.47-.18l.83-3.18h3.38v.89h-2.74l-.47,1.84c.14-.16.34-.28.57-.36.24-.08.48-.12.73-.12.32,0,.61.05.87.15.26.1.49.24.69.42.19.18.35.4.45.67.11.26.16.56.16.89,0,.3-.06.59-.17.85-.11.26-.27.49-.47.69-.2.2-.45.35-.74.47-.29.11-.61.17-.97.17s-.65-.05-.93-.15-.52-.24-.73-.42c-.21-.17-.37-.38-.49-.61-.12-.23-.19-.47-.21-.72l.93-.28Z"/>
  </g>
  <g>
    <line class="cls-3" x1="9.28" y1="30.46" x2="670.68" y2="30.46"/>
    <polygon points="669.22 35.45 677.86 30.46 669.22 25.48 669.22 35.45"/>
  </g>
  <g>
    <line class="cls-1" x1="670.68" y1="155.5" x2="9.44" y2="155.5"/>
    <polygon points="669.22 150.51 677.86 155.5 669.22 160.49 669.22 150.51"/>
  </g>
  <g>
    <path class="cls-6" d="M634.67,151.79v-4.62h-1.59v-.7c.46-.01.83-.13,1.13-.36.3-.23.48-.52.56-.87h.87v6.55h-.97Z"/>
    <path class="cls-6" d="M636.9,148.51c0-.45.04-.88.13-1.28s.24-.77.46-1.09c.22-.32.49-.58.82-.77.33-.19.73-.28,1.19-.28s.86.09,1.19.28c.33.19.6.44.82.77.22.32.37.69.46,1.09s.13.83.13,1.28-.04.88-.13,1.28-.24.77-.46,1.09c-.21.32-.49.58-.82.77s-.73.28-1.19.28-.86-.09-1.19-.28-.6-.44-.82-.77c-.22-.32-.37-.69-.46-1.09s-.13-.83-.13-1.28ZM637.88,148.51c0,1.01.19,1.72.58,2.12.13.13.27.24.44.31s.37.11.6.11.44-.04.6-.11c.17-.07.31-.18.44-.31.38-.4.58-1.11.58-2.12s-.19-1.72-.58-2.12c-.13-.13-.27-.24-.44-.31-.17-.07-.37-.11-.6-.11s-.44.04-.6.11-.31.18-.44.31c-.38.4-.58,1.11-.58,2.12Z"/>
  </g>
  <path class="cls-6" d="M573.61,150.74c.14.09.32.16.54.22.22.06.44.09.65.09.4,0,.74-.06,1.02-.18.28-.12.52-.29.7-.5.18-.21.32-.46.4-.74.09-.28.14-.58.15-.9-.11.22-.31.41-.6.58-.29.17-.65.26-1.1.26-.28,0-.56-.05-.83-.14-.27-.09-.52-.24-.73-.42-.21-.19-.38-.42-.51-.69s-.19-.59-.19-.96c0-.34.07-.65.2-.92.13-.28.31-.52.53-.72.22-.2.48-.35.77-.46.29-.11.6-.16.92-.16s.64.06.94.18c.3.12.58.3.81.55.24.25.43.56.58.94.14.38.22.83.22,1.35,0,.6-.07,1.14-.2,1.61s-.34.88-.61,1.21-.61.58-1.02.76c-.41.18-.89.26-1.44.26-.13,0-.26-.01-.4-.03-.14-.02-.28-.05-.42-.08-.14-.03-.27-.07-.39-.12-.12-.05-.22-.1-.3-.15l.32-.82ZM576.95,147.33c0-.21-.04-.4-.12-.57s-.19-.32-.32-.43c-.13-.12-.28-.21-.45-.27s-.34-.1-.53-.1-.36.03-.53.1-.32.16-.45.27c-.13.12-.24.26-.31.43-.08.17-.12.36-.12.58s.04.42.12.59c.08.17.18.32.31.43.13.12.28.21.45.27.17.06.35.09.54.09s.36-.03.53-.1.32-.15.45-.27c.13-.12.24-.26.32-.43s.12-.37.12-.58Z"/>
  <path class="cls-6" d="M513.21,151.94c-.38,0-.71-.05-1.01-.15s-.54-.23-.74-.4-.36-.37-.47-.6c-.11-.23-.16-.48-.16-.74,0-.4.12-.75.36-1.03s.53-.48.88-.59c-.15-.05-.29-.13-.42-.23-.13-.1-.24-.22-.34-.35-.09-.13-.17-.28-.23-.44-.06-.16-.09-.33-.09-.52,0-.27.06-.52.17-.74.11-.22.27-.41.46-.58.2-.16.43-.29.7-.37.27-.09.56-.13.87-.13s.6.04.87.13c.27.09.5.21.7.37.2.16.35.35.46.58s.17.47.17.74c0,.36-.1.67-.31.95-.21.28-.46.47-.76.59.35.11.65.31.88.59s.36.62.36,1.03c0,.26-.05.51-.16.74-.11.23-.26.43-.46.6s-.45.3-.74.4-.63.15-1.01.15ZM513.21,151.08c.45,0,.79-.11,1.02-.32.24-.21.35-.47.35-.78s-.12-.58-.36-.8c-.24-.22-.58-.32-1.02-.32s-.78.11-1.02.32c-.24.22-.36.48-.36.8s.12.57.35.78c.24.21.58.32,1.02.32ZM513.21,148.03c.35,0,.64-.11.87-.3.23-.19.34-.45.34-.77,0-.3-.11-.55-.33-.75s-.51-.3-.88-.3-.67.1-.88.3c-.22.2-.33.45-.33.75,0,.32.11.58.34.77.23.19.52.29.87.3Z"/>
  <path class="cls-6" d="M453.93,146.19c-.16.12-.37.32-.65.59-.28.27-.56.64-.85,1.09-.29.46-.55,1-.79,1.65s-.4,1.4-.48,2.27h-1.02c.03-.47.1-.91.2-1.33s.21-.8.34-1.15c.13-.35.28-.68.43-.97.16-.29.32-.56.48-.79.37-.55.78-1.01,1.24-1.39h-3.69v-.91h4.78v.95Z"/>
  <path class="cls-6" d="M391.64,146.26c-.12-.07-.29-.14-.49-.2-.21-.06-.43-.09-.68-.09-.34,0-.65.06-.92.18-.27.12-.51.28-.71.49-.2.21-.36.46-.47.74-.11.29-.18.6-.2.93.13-.22.35-.41.64-.59s.65-.26,1.09-.26c.32,0,.62.05.89.15.27.1.51.24.71.43s.36.43.47.7.17.59.17.95-.07.66-.2.94c-.13.28-.31.51-.53.7-.22.19-.48.34-.77.44s-.6.15-.92.15-.63-.06-.93-.17c-.3-.11-.58-.29-.82-.54-.24-.24-.44-.56-.59-.94-.15-.38-.22-.85-.22-1.38,0-.61.09-1.15.26-1.62s.41-.88.71-1.2c.3-.33.66-.57,1.07-.74s.86-.25,1.33-.25c.3,0,.58.03.82.1.24.07.44.16.6.26l-.3.81ZM388.3,149.71c0,.22.04.41.12.58.08.17.19.31.32.43.13.12.28.21.45.27.17.06.34.1.53.1s.37-.03.54-.09c.17-.06.32-.15.46-.27.13-.12.23-.26.31-.43s.11-.37.11-.58-.04-.42-.12-.59c-.08-.17-.18-.32-.31-.43-.13-.12-.28-.21-.45-.27s-.35-.09-.54-.09-.37.03-.54.09-.32.15-.45.27c-.13.12-.23.26-.31.43-.08.17-.12.37-.12.59Z"/>
  <path class="cls-6" d="M326.26,149.73c.03.4.19.73.46.98.27.25.61.37,1.02.37.2,0,.38-.03.55-.09.17-.06.32-.15.44-.27.12-.12.22-.26.3-.42s.11-.34.11-.55c0-.22-.04-.42-.12-.59s-.18-.31-.31-.42c-.13-.11-.28-.2-.45-.25s-.35-.09-.54-.09c-.24,0-.46.04-.67.13s-.38.2-.53.35c-.18-.07-.34-.13-.49-.2-.15-.06-.31-.13-.48-.19l.85-3.25h3.46v.91h-2.8l-.49,1.88c.15-.16.34-.28.59-.36.24-.08.49-.12.75-.12.32,0,.62.05.89.15s.5.24.7.43c.2.19.35.41.46.68s.17.57.17.91c0,.31-.06.6-.17.87s-.28.51-.49.71-.46.36-.76.48c-.3.12-.63.18-.99.18s-.67-.05-.96-.16c-.29-.1-.54-.25-.75-.42-.21-.18-.38-.39-.5-.62-.12-.24-.2-.48-.22-.74l.95-.28Z"/>
  <path class="cls-6" d="M262.55,149.17l2.81-3.93h1.36v4.15h1.12v.92h-1.12v1.48h-.96v-1.48h-3.21v-1.14ZM265.77,146.19l-2.3,3.2h2.3v-3.2Z"/>
  <path class="cls-6" d="M201.99,147.93l1.93-1.78h-3.13v-.91h4.45v.89l-1.87,1.73c.24,0,.48.04.72.12.24.08.46.2.65.37.19.17.35.37.47.62.12.25.18.54.18.88,0,.28-.05.54-.16.79-.1.25-.26.48-.46.67-.2.2-.45.35-.74.46-.29.11-.63.17-1.02.17s-.71-.06-1.01-.17c-.3-.11-.55-.27-.75-.46-.21-.19-.37-.41-.48-.66-.12-.25-.18-.5-.19-.77l.97-.22c0,.22.05.41.13.59.08.18.19.32.32.44.13.12.28.22.46.28s.36.1.55.1c.22,0,.42-.03.6-.1.17-.06.32-.15.43-.26.11-.11.2-.24.26-.39.06-.15.09-.3.09-.46,0-.22-.04-.4-.12-.56-.08-.15-.18-.28-.31-.38s-.27-.17-.43-.22c-.16-.05-.32-.07-.48-.07-.2,0-.39.03-.58.1l-.49-.82Z"/>
  <path class="cls-6" d="M138.65,147.47s0-.09,0-.14v-.13c0-.28.05-.55.15-.81.1-.26.25-.48.44-.68.19-.2.43-.35.71-.46s.6-.17.96-.17.66.05.94.16c.28.11.51.25.7.43.19.18.33.4.43.64s.15.5.15.77c0,.43-.11.82-.33,1.16-.22.34-.52.63-.9.86l-1.29.83c-.19.12-.36.25-.5.4s-.25.32-.29.52h3.37v.92h-4.59c0-.27.04-.52.1-.76.06-.24.15-.46.27-.68.12-.22.29-.42.48-.61s.43-.38.71-.56l1.09-.71c.31-.2.54-.41.68-.64.14-.23.22-.47.22-.73,0-.15-.03-.29-.08-.43-.05-.14-.13-.26-.23-.37-.1-.11-.23-.19-.38-.26-.16-.06-.34-.1-.55-.1s-.4.04-.56.11-.29.17-.39.29c-.1.12-.18.26-.23.42-.05.16-.08.34-.08.53,0,.05,0,.09,0,.14,0,.05,0,.1.01.15l-.99-.12Z"/>
  <path class="cls-6" d="M79.34,151.79v-4.62h-1.59v-.7c.46-.01.83-.13,1.13-.36.3-.23.48-.52.56-.87h.87v6.55h-.97Z"/>
  <path class="cls-6" d="M14.09,148.51c0-.45.04-.88.13-1.28s.24-.77.46-1.09c.22-.32.49-.58.82-.77.33-.19.73-.28,1.19-.28s.86.09,1.19.28c.33.19.6.44.82.77.22.32.37.69.46,1.09s.13.83.13,1.28-.04.88-.13,1.28-.24.77-.46,1.09c-.21.32-.49.58-.82.77s-.73.28-1.19.28-.86-.09-1.19-.28-.6-.44-.82-.77c-.22-.32-.37-.69-.46-1.09s-.13-.83-.13-1.28ZM15.07,148.51c0,1.01.19,1.72.58,2.12.13.13.27.24.44.31s.37.11.6.11.44-.04.6-.11c.17-.07.31-.18.44-.31.38-.4.58-1.11.58-2.12s-.19-1.72-.58-2.12c-.13-.13-.27-.24-.44-.31-.17-.07-.37-.11-.6-.11s-.44.04-.6.11-.31.18-.44.31c-.38.4-.58,1.11-.58,2.12Z"/>
  <g>
    <g>
      <rect class="cls-8" x="10.18" y="174.24" width="7.25" height="7.25"/>
      <path class="cls-6" d="M13.28,179.57h-.46v-2.38h.45v.34c.09-.15.19-.25.33-.32.13-.06.27-.09.41-.09s.27.02.37.07c.11.05.2.11.27.2.07.08.12.18.16.3.03.12.05.24.05.37v1.51h-.46v-1.43c0-.08,0-.16-.03-.23-.02-.07-.05-.14-.09-.19-.04-.05-.1-.1-.17-.13-.07-.03-.16-.05-.26-.05-.09,0-.17.02-.24.05-.07.03-.13.08-.17.14-.05.06-.08.13-.1.21-.02.08-.04.16-.04.25v1.37Z"/>
    </g>
    <g>
      <path d="M25.81,179.66c-.3,0-.59-.05-.87-.16-.28-.11-.52-.26-.74-.47-.21-.21-.38-.46-.51-.76-.13-.3-.19-.65-.19-1.04s.07-.74.2-1.04.31-.55.52-.76.47-.36.74-.47c.28-.11.56-.16.85-.16.27,0,.51.04.74.11s.42.17.6.3c.17.13.32.28.44.47.12.18.21.39.27.61l-.6.21c-.09-.36-.26-.63-.5-.82s-.57-.28-.95-.28c-.21,0-.42.04-.62.12-.2.08-.38.19-.53.35-.16.15-.28.35-.37.58-.09.23-.14.5-.14.8s.05.57.14.8c.09.23.22.42.37.58.16.16.33.27.53.35.2.08.41.12.62.12.2,0,.38-.03.54-.09.16-.06.31-.14.43-.23.13-.1.23-.22.32-.36.09-.14.15-.29.2-.44l.57.21c-.06.22-.15.42-.28.61s-.27.34-.44.47-.37.23-.6.31c-.23.07-.47.11-.74.11Z"/>
      <path d="M29.88,176.3c.24,0,.45.04.65.13.2.09.37.2.51.35.14.15.26.33.34.53s.12.43.12.67-.04.47-.12.67-.19.38-.34.53c-.15.15-.32.27-.51.35-.2.09-.42.13-.65.13s-.45-.04-.65-.13c-.2-.09-.37-.2-.51-.35-.14-.15-.26-.33-.34-.53s-.12-.43-.12-.67.04-.46.12-.67.19-.38.34-.53c.15-.15.32-.27.51-.35.2-.09.42-.13.65-.13ZM29.88,179.11c.13,0,.26-.02.38-.07.12-.05.22-.12.32-.22.09-.1.17-.22.22-.36.05-.14.08-.3.08-.49s-.03-.35-.08-.48c-.05-.14-.12-.26-.22-.35-.09-.1-.2-.17-.32-.22-.12-.05-.24-.07-.38-.07s-.26.02-.38.07c-.12.05-.22.12-.32.22-.09.1-.17.21-.22.35-.05.14-.08.3-.08.48s.03.35.08.49c.05.14.12.26.22.36.09.1.2.17.32.22.12.05.24.07.38.07Z"/>
      <path d="M32.91,179.57h-.62v-3.17h.61v.45c.11-.2.26-.34.43-.42.18-.08.36-.12.54-.12s.35.03.5.1c.14.06.26.15.36.26.09.11.16.25.21.4.05.15.07.32.07.49v2.01h-.62v-1.9c0-.11-.01-.21-.04-.31s-.07-.18-.12-.25c-.06-.07-.14-.13-.23-.17-.09-.04-.21-.06-.35-.06-.12,0-.23.02-.32.07-.09.05-.17.11-.23.19-.06.08-.11.17-.14.28-.03.11-.05.22-.05.34v1.83Z"/>
      <path d="M36.62,179.57h-.62v-3.17h.61v.45c.11-.2.26-.34.43-.42.18-.08.36-.12.54-.12s.35.03.5.1c.14.06.26.15.36.26.09.11.16.25.21.4.05.15.07.32.07.49v2.01h-.62v-1.9c0-.11-.01-.21-.04-.31s-.07-.18-.12-.25c-.06-.07-.14-.13-.23-.17-.09-.04-.21-.06-.35-.06-.12,0-.23.02-.32.07-.09.05-.17.11-.23.19-.06.08-.11.17-.14.28-.03.11-.05.22-.05.34v1.83Z"/>
      <path d="M42.46,178.66c-.04.14-.11.27-.19.39-.09.12-.19.23-.31.32-.12.09-.26.16-.41.21-.15.05-.32.08-.51.08-.21,0-.41-.04-.61-.11s-.36-.18-.51-.33c-.15-.15-.26-.32-.35-.53s-.13-.45-.13-.72c0-.25.04-.48.12-.68.08-.2.19-.38.33-.53.14-.15.3-.26.48-.34.18-.08.38-.12.57-.12.24,0,.46.04.65.12.19.08.35.19.48.34.13.14.22.32.29.52s.1.43.1.68c0,.04,0,.08,0,.11,0,.04,0,.06,0,.09h-2.38c0,.14.03.27.08.39.05.12.12.22.2.31.09.09.19.15.3.2.12.05.24.07.37.07.26,0,.46-.06.59-.18.14-.12.23-.27.3-.45l.53.18ZM41.83,177.66c0-.23-.09-.42-.23-.58-.15-.16-.36-.23-.64-.23-.13,0-.25.02-.35.07-.1.05-.19.11-.26.18-.07.08-.13.16-.17.26-.04.1-.07.2-.07.3h1.73Z"/>
      <path d="M44.6,176.87c-.13,0-.25.02-.36.07-.11.05-.22.12-.31.21-.09.09-.16.21-.21.35-.05.14-.08.3-.08.48s.03.34.08.48.12.25.21.35c.09.09.19.17.31.21.12.05.24.07.37.07.15,0,.28-.02.38-.07.1-.04.19-.1.26-.16.07-.07.12-.14.16-.21.04-.08.07-.15.08-.21l.55.24c-.04.11-.1.23-.17.35-.08.12-.17.22-.29.32-.12.1-.26.17-.42.23-.16.06-.34.09-.55.09-.23,0-.45-.04-.64-.13-.2-.09-.36-.2-.5-.36s-.25-.33-.33-.53c-.08-.2-.12-.43-.12-.67s.04-.47.12-.68c.08-.21.19-.38.34-.53.14-.15.31-.26.51-.35s.41-.13.63-.13c.21,0,.4.03.56.09.16.06.3.14.42.23.12.1.21.21.28.33.07.12.12.24.16.36l-.56.24c-.02-.08-.05-.16-.09-.24-.04-.08-.09-.15-.16-.21-.07-.06-.15-.12-.25-.16-.1-.04-.21-.06-.35-.06Z"/>
      <path d="M47.59,176.4h.69v.56h-.69v1.65c0,.14.03.25.1.33.07.07.18.11.34.11.04,0,.08,0,.13,0,.05,0,.09-.01.11-.02v.53s-.08.02-.15.04c-.08.02-.17.02-.27.02-.27,0-.49-.08-.65-.23-.16-.16-.24-.38-.24-.67v-1.74h-.61v-.56h.17c.17,0,.3-.05.37-.14.08-.09.12-.21.12-.35v-.51h.57v1Z"/>
      <path d="M48.96,175.2c0-.13.04-.23.13-.32.09-.09.19-.13.31-.13s.23.04.32.13c.09.09.13.19.13.32s-.04.23-.13.31c-.09.09-.19.13-.32.13s-.23-.04-.31-.13c-.08-.09-.13-.19-.13-.31ZM49.1,179.57v-3.17h.61v3.17h-.61Z"/>
      <path d="M52.12,176.3c.24,0,.45.04.65.13.2.09.37.2.51.35.14.15.26.33.34.53s.12.43.12.67-.04.47-.12.67-.19.38-.34.53c-.15.15-.32.27-.51.35-.2.09-.42.13-.65.13s-.45-.04-.65-.13c-.2-.09-.37-.2-.51-.35-.14-.15-.26-.33-.34-.53s-.12-.43-.12-.67.04-.46.12-.67.19-.38.34-.53c.15-.15.32-.27.51-.35.2-.09.42-.13.65-.13ZM52.12,179.11c.13,0,.26-.02.38-.07.12-.05.22-.12.32-.22.09-.1.17-.22.22-.36.05-.14.08-.3.08-.49s-.03-.35-.08-.48c-.05-.14-.12-.26-.22-.35-.09-.1-.2-.17-.32-.22-.12-.05-.24-.07-.38-.07s-.26.02-.38.07c-.12.05-.22.12-.32.22-.09.1-.17.21-.22.35-.05.14-.08.3-.08.48s.03.35.08.49c.05.14.12.26.22.36.09.1.2.17.32.22.12.05.24.07.38.07Z"/>
      <path d="M55.15,179.57h-.62v-3.17h.61v.45c.11-.2.26-.34.43-.42.18-.08.36-.12.54-.12s.35.03.5.1c.14.06.26.15.36.26.09.11.16.25.21.4.05.15.07.32.07.49v2.01h-.62v-1.9c0-.11-.01-.21-.04-.31s-.07-.18-.12-.25c-.06-.07-.14-.13-.23-.17-.09-.04-.21-.06-.35-.06-.12,0-.23.02-.32.07-.09.05-.17.11-.23.19-.06.08-.11.17-.14.28-.03.11-.05.22-.05.34v1.83Z"/>
      <path d="M62.64,178.66c-.04.14-.11.27-.19.39-.09.12-.19.23-.31.32-.12.09-.26.16-.41.21-.15.05-.32.08-.51.08-.21,0-.41-.04-.61-.11s-.36-.18-.51-.33c-.15-.15-.26-.32-.35-.53s-.13-.45-.13-.72c0-.25.04-.48.12-.68.08-.2.19-.38.33-.53.14-.15.3-.26.48-.34.18-.08.38-.12.57-.12.24,0,.46.04.65.12.19.08.35.19.48.34.13.14.22.32.29.52s.1.43.1.68c0,.04,0,.08,0,.11,0,.04,0,.06,0,.09h-2.38c0,.14.03.27.08.39.05.12.12.22.2.31.09.09.19.15.3.2.12.05.24.07.37.07.26,0,.46-.06.59-.18.14-.12.23-.27.3-.45l.53.18ZM62.01,177.66c0-.23-.09-.42-.23-.58-.15-.16-.36-.23-.64-.23-.13,0-.25.02-.35.07-.1.05-.19.11-.26.18-.07.08-.13.16-.17.26-.04.1-.07.2-.07.3h1.73Z"/>
      <path d="M64.89,179.57h-.62l-1.29-3.17h.7l.9,2.44.91-2.44h.67l-1.26,3.17Z"/>
      <path d="M69.51,178.66c-.04.14-.11.27-.19.39-.09.12-.19.23-.31.32-.12.09-.26.16-.41.21-.15.05-.32.08-.51.08-.21,0-.41-.04-.61-.11s-.36-.18-.51-.33c-.15-.15-.26-.32-.35-.53s-.13-.45-.13-.72c0-.25.04-.48.12-.68.08-.2.19-.38.33-.53.14-.15.3-.26.48-.34.18-.08.38-.12.57-.12.24,0,.46.04.65.12.19.08.35.19.48.34.13.14.22.32.29.52s.1.43.1.68c0,.04,0,.08,0,.11,0,.04,0,.06,0,.09h-2.38c0,.14.03.27.08.39.05.12.12.22.2.31.09.09.19.15.3.2.12.05.24.07.37.07.26,0,.46-.06.59-.18.14-.12.23-.27.3-.45l.53.18ZM68.89,177.66c0-.23-.09-.42-.23-.58-.15-.16-.36-.23-.64-.23-.13,0-.25.02-.35.07-.1.05-.19.11-.26.18-.07.08-.13.16-.17.26-.04.1-.07.2-.07.3h1.73Z"/>
      <path d="M70.94,179.57h-.62v-3.17h.61v.45c.11-.2.26-.34.43-.42.18-.08.36-.12.54-.12s.35.03.5.1c.14.06.26.15.36.26.09.11.16.25.21.4.05.15.07.32.07.49v2.01h-.62v-1.9c0-.11-.01-.21-.04-.31s-.07-.18-.12-.25c-.06-.07-.14-.13-.23-.17-.09-.04-.21-.06-.35-.06-.12,0-.23.02-.32.07-.09.05-.17.11-.23.19-.06.08-.11.17-.14.28-.03.11-.05.22-.05.34v1.83Z"/>
      <path d="M74.85,176.4h.69v.56h-.69v1.65c0,.14.03.25.1.33.07.07.18.11.34.11.04,0,.08,0,.13,0,.05,0,.09-.01.11-.02v.53s-.08.02-.15.04c-.08.02-.17.02-.27.02-.27,0-.49-.08-.65-.23-.16-.16-.24-.38-.24-.67v-1.74h-.61v-.56h.17c.17,0,.3-.05.37-.14.08-.09.12-.21.12-.35v-.51h.57v1Z"/>
      <path d="M78.63,179.57h-.62v-3.17h.61v.45c.11-.2.26-.34.43-.42.18-.08.36-.12.54-.12s.35.03.5.1c.14.06.26.15.36.26.09.11.16.25.21.4.05.15.07.32.07.49v2.01h-.62v-1.9c0-.11-.01-.21-.04-.31s-.07-.18-.12-.25c-.06-.07-.14-.13-.23-.17-.09-.04-.21-.06-.35-.06-.12,0-.23.02-.32.07-.09.05-.17.11-.23.19-.06.08-.11.17-.14.28-.03.11-.05.22-.05.34v1.83Z"/>
      <path d="M81.64,179.14c0-.12.04-.22.13-.31s.21-.13.35-.13.26.05.37.15c.11.1.16.26.16.47s-.03.41-.1.56c-.06.16-.14.28-.24.39-.1.1-.2.18-.32.23-.11.05-.22.09-.32.1v-.34c.08-.02.15-.05.22-.09.07-.05.12-.1.17-.17.05-.07.08-.14.11-.21.03-.08.04-.15.04-.23,0,0-.03.02-.05.02-.03,0-.06,0-.09,0-.12,0-.23-.04-.31-.12-.09-.08-.13-.19-.13-.33Z"/>
      <path d="M87.38,179.18c-.09.17-.22.29-.4.37-.18.08-.36.12-.54.12s-.35-.03-.5-.1c-.15-.07-.27-.16-.37-.27-.1-.11-.18-.25-.23-.4s-.08-.32-.08-.5v-2h.62v1.9c0,.11.01.21.04.31s.07.19.12.26c.06.07.13.13.22.18s.2.07.33.07c.25,0,.44-.07.56-.22.12-.15.19-.34.19-.59v-1.91h.62v2.58c0,.13,0,.24,0,.35,0,.1.01.18.02.24h-.59s-.02-.09-.02-.17c0-.08,0-.15,0-.21Z"/>
      <path d="M89.28,178.54c.02.17.09.31.22.42.12.11.3.17.52.17.18,0,.31-.04.4-.12.09-.08.14-.18.14-.3,0-.1-.04-.19-.11-.26s-.17-.12-.3-.15l-.54-.12c-.25-.05-.45-.16-.58-.32-.14-.16-.21-.35-.21-.57,0-.14.03-.26.09-.39.06-.12.14-.23.24-.32.1-.09.22-.16.36-.22s.28-.08.44-.08c.21,0,.4.03.54.09.15.06.27.14.36.23.09.09.16.18.21.28s.08.18.1.25l-.55.2s-.02-.09-.05-.15c-.02-.06-.06-.12-.11-.17-.05-.05-.11-.1-.2-.14-.08-.04-.19-.06-.31-.06-.16,0-.29.04-.38.13-.1.09-.14.18-.14.29,0,.2.12.33.36.38l.51.11c.29.06.51.17.66.34s.22.37.22.6c0,.11-.02.23-.07.34-.05.11-.12.22-.21.32-.09.1-.21.17-.36.23-.14.06-.32.09-.51.09-.22,0-.41-.03-.56-.09-.16-.06-.29-.14-.39-.23-.1-.09-.18-.19-.24-.3-.06-.11-.09-.21-.1-.3l.56-.2Z"/>
      <path d="M94.75,178.66c-.04.14-.11.27-.19.39-.09.12-.19.23-.31.32-.12.09-.26.16-.41.21-.15.05-.32.08-.51.08-.21,0-.41-.04-.61-.11s-.36-.18-.51-.33c-.15-.15-.26-.32-.35-.53s-.13-.45-.13-.72c0-.25.04-.48.12-.68.08-.2.19-.38.33-.53.14-.15.3-.26.48-.34.18-.08.38-.12.57-.12.24,0,.46.04.65.12.19.08.35.19.48.34.13.14.22.32.29.52s.1.43.1.68c0,.04,0,.08,0,.11,0,.04,0,.06,0,.09h-2.38c0,.14.03.27.08.39.05.12.12.22.2.31.09.09.19.15.3.2.12.05.24.07.37.07.26,0,.46-.06.59-.18.14-.12.23-.27.3-.45l.53.18ZM94.13,177.66c0-.23-.09-.42-.23-.58-.15-.16-.36-.23-.64-.23-.13,0-.25.02-.35.07-.1.05-.19.11-.26.18-.07.08-.13.16-.17.26-.04.1-.07.2-.07.3h1.73Z"/>
      <path d="M97.78,179.08c-.07.15-.19.29-.36.4-.17.11-.37.17-.62.17-.23,0-.44-.04-.63-.13-.18-.09-.34-.2-.47-.36-.13-.15-.23-.33-.3-.53s-.11-.42-.11-.66c0-.22.04-.44.11-.64s.17-.38.31-.53.29-.27.47-.36.39-.14.61-.14c.14,0,.26.02.37.05.11.03.2.07.28.12.08.05.15.11.2.17.05.06.09.13.12.19v-2.05h.61v4.18c0,.15,0,.28.01.39,0,.11.01.17.02.2h-.6s-.02-.09-.02-.17c0-.08-.01-.16-.01-.26v-.05ZM95.93,177.97c0,.16.02.31.06.45.04.14.1.26.18.36s.18.18.29.24c.11.06.25.09.39.09.14,0,.27-.03.38-.09.11-.06.21-.14.29-.24.08-.1.14-.22.18-.36.04-.14.06-.29.06-.45,0-.33-.08-.6-.24-.8-.16-.2-.38-.3-.67-.3-.14,0-.27.03-.39.08-.12.05-.21.13-.3.23-.08.1-.14.22-.19.35-.04.14-.07.29-.07.45Z"/>
      <path d="M101.08,179.57v-4.77h.61v2.05c.07-.14.2-.27.38-.38.18-.11.4-.16.67-.16.24,0,.45.04.63.13.18.09.33.2.45.36.12.15.21.33.28.53.06.2.09.42.09.65s-.03.46-.1.66c-.07.2-.16.38-.29.53-.12.15-.28.27-.46.36-.18.09-.39.13-.63.13s-.44-.05-.62-.14c-.17-.1-.31-.23-.41-.4v.46h-.61ZM103.57,177.97c0-.34-.08-.61-.25-.81-.17-.2-.4-.3-.68-.3-.14,0-.26.03-.38.08-.12.05-.22.13-.3.22-.08.09-.15.21-.19.35s-.07.29-.07.46.02.33.07.47.11.26.19.36c.08.1.18.17.3.23.12.05.24.08.38.08.29,0,.51-.1.68-.31.17-.21.25-.48.25-.82Z"/>
      <path d="M104.97,180.89l.79-1.67-1.36-2.82h.71l.99,2.19.95-2.19h.67l-2.06,4.49h-.68Z"/>
      <path d="M109.95,179.57v-4.77h.61v2.05c.07-.14.2-.27.38-.38.18-.11.4-.16.67-.16.24,0,.45.04.63.13.18.09.33.2.45.36.12.15.21.33.28.53.06.2.09.42.09.65s-.03.46-.1.66c-.07.2-.16.38-.29.53-.12.15-.28.27-.46.36-.18.09-.39.13-.63.13s-.44-.05-.62-.14c-.17-.1-.31-.23-.41-.4v.46h-.61ZM112.43,177.97c0-.34-.08-.61-.25-.81-.17-.2-.4-.3-.68-.3-.14,0-.26.03-.38.08-.12.05-.22.13-.3.22-.08.09-.15.21-.19.35s-.07.29-.07.46.02.33.07.47.11.26.19.36c.08.1.18.17.3.23.12.05.24.08.38.08.29,0,.51-.1.68-.31.17-.21.25-.48.25-.82Z"/>
      <path d="M115.21,176.3c.24,0,.45.04.65.13.2.09.37.2.51.35.14.15.26.33.34.53s.12.43.12.67-.04.47-.12.67-.19.38-.34.53c-.15.15-.32.27-.51.35-.2.09-.42.13-.65.13s-.45-.04-.65-.13c-.2-.09-.37-.2-.51-.35-.14-.15-.26-.33-.34-.53s-.12-.43-.12-.67.04-.46.12-.67.19-.38.34-.53c.15-.15.32-.27.51-.35.2-.09.42-.13.65-.13ZM115.21,179.11c.13,0,.26-.02.38-.07.12-.05.22-.12.32-.22.09-.1.17-.22.22-.36.05-.14.08-.3.08-.49s-.03-.35-.08-.48c-.05-.14-.12-.26-.22-.35-.09-.1-.2-.17-.32-.22-.12-.05-.24-.07-.38-.07s-.26.02-.38.07c-.12.05-.22.12-.32.22-.09.1-.17.21-.22.35-.05.14-.08.3-.08.48s.03.35.08.49c.05.14.12.26.22.36.09.1.2.17.32.22.12.05.24.07.38.07Z"/>
      <path d="M118.45,176.4h.69v.56h-.69v1.65c0,.14.03.25.1.33.07.07.18.11.34.11.04,0,.08,0,.13,0,.05,0,.09-.01.11-.02v.53s-.08.02-.15.04c-.08.02-.17.02-.27.02-.27,0-.49-.08-.65-.23-.16-.16-.24-.38-.24-.67v-1.74h-.61v-.56h.17c.17,0,.3-.05.37-.14.08-.09.12-.21.12-.35v-.51h.57v1Z"/>
      <path d="M120.58,179.57h-.62v-4.77h.62v1.97c.11-.17.26-.29.43-.36s.35-.11.53-.11.35.03.5.1c.14.06.26.15.36.26.09.11.16.25.21.4.05.15.07.32.07.49v2.01h-.62v-1.9c0-.11-.01-.21-.04-.31s-.07-.18-.12-.25c-.06-.07-.14-.13-.23-.17-.09-.04-.21-.06-.35-.06-.12,0-.22.02-.31.07-.09.04-.17.1-.23.18s-.11.16-.14.26-.05.21-.06.33v1.86Z"/>
      <path d="M127.4,179.66c-.3,0-.59-.05-.87-.16-.28-.11-.52-.26-.74-.47-.21-.21-.38-.46-.51-.76-.13-.3-.19-.65-.19-1.04s.07-.74.2-1.04.31-.55.52-.76.47-.36.74-.47c.28-.11.56-.16.85-.16.27,0,.51.04.74.11s.42.17.6.3c.17.13.32.28.44.47.12.18.21.39.27.61l-.6.21c-.09-.36-.26-.63-.5-.82s-.57-.28-.95-.28c-.21,0-.42.04-.62.12-.2.08-.38.19-.53.35-.16.15-.28.35-.37.58-.09.23-.14.5-.14.8s.05.57.14.8c.09.23.22.42.37.58.16.16.33.27.53.35.2.08.41.12.62.12.2,0,.38-.03.54-.09.16-.06.31-.14.43-.23.13-.1.23-.22.32-.36.09-.14.15-.29.2-.44l.57.21c-.06.22-.15.42-.28.61s-.27.34-.44.47-.37.23-.6.31c-.23.07-.47.11-.74.11Z"/>
      <path d="M132.88,178.66c-.04.14-.11.27-.19.39-.09.12-.19.23-.31.32-.12.09-.26.16-.41.21-.15.05-.32.08-.51.08-.21,0-.41-.04-.61-.11s-.36-.18-.51-.33c-.15-.15-.26-.32-.35-.53s-.13-.45-.13-.72c0-.25.04-.48.12-.68.08-.2.19-.38.33-.53.14-.15.3-.26.48-.34.18-.08.38-.12.57-.12.24,0,.46.04.65.12.19.08.35.19.48.34.13.14.22.32.29.52s.1.43.1.68c0,.04,0,.08,0,.11,0,.04,0,.06,0,.09h-2.38c0,.14.03.27.08.39.05.12.12.22.2.31.09.09.19.15.3.2.12.05.24.07.37.07.26,0,.46-.06.59-.18.14-.12.23-.27.3-.45l.53.18ZM132.25,177.66c0-.23-.09-.42-.23-.58-.15-.16-.36-.23-.64-.23-.13,0-.25.02-.35.07-.1.05-.19.11-.26.18-.07.08-.13.16-.17.26-.04.1-.07.2-.07.3h1.73Z"/>
      <path d="M134.3,179.57h-.62v-3.17h.61v.45c.11-.2.26-.34.43-.42.18-.08.36-.12.54-.12s.35.03.5.1c.14.06.26.15.36.26.09.11.16.25.21.4.05.15.07.32.07.49v2.01h-.62v-1.9c0-.11-.01-.21-.04-.31s-.07-.18-.12-.25c-.06-.07-.14-.13-.23-.17-.09-.04-.21-.06-.35-.06-.12,0-.23.02-.32.07-.09.05-.17.11-.23.19-.06.08-.11.17-.14.28-.03.11-.05.22-.05.34v1.83Z"/>
      <path d="M138.22,176.4h.69v.56h-.69v1.65c0,.14.03.25.1.33.07.07.18.11.34.11.04,0,.08,0,.13,0,.05,0,.09-.01.11-.02v.53s-.08.02-.15.04c-.08.02-.17.02-.27.02-.27,0-.49-.08-.65-.23-.16-.16-.24-.38-.24-.67v-1.74h-.61v-.56h.17c.17,0,.3-.05.37-.14.08-.09.12-.21.12-.35v-.51h.57v1Z"/>
      <path d="M141.48,177.02c-.09-.01-.18-.02-.27-.02-.26,0-.47.08-.63.23s-.24.4-.24.75v1.59h-.62v-3.17h.61v.55c.06-.12.12-.22.2-.3.08-.08.16-.14.24-.18.08-.05.17-.08.26-.1s.17-.03.25-.03c.04,0,.08,0,.12,0,.04,0,.06,0,.08.01v.66Z"/>
      <path d="M141.94,178.72c0-.14.02-.27.07-.38.05-.11.12-.21.2-.29.09-.08.19-.14.31-.19.12-.05.25-.08.38-.1l.86-.13c.1-.01.16-.04.19-.09.03-.04.05-.09.05-.15,0-.15-.05-.29-.16-.4-.11-.11-.28-.17-.52-.17-.22,0-.39.06-.51.18-.12.12-.19.27-.21.46l-.59-.14c.02-.15.06-.29.13-.42s.17-.24.28-.33c.11-.09.25-.16.4-.21.15-.05.31-.08.48-.08.24,0,.44.03.61.1.17.06.3.15.41.25.11.11.18.23.23.37s.07.29.07.44v1.59c0,.14,0,.25.01.34,0,.08.02.15.03.18h-.61s-.02-.09-.02-.16c0-.07-.01-.16-.01-.27-.04.06-.08.12-.14.18-.06.06-.13.12-.21.17s-.18.1-.29.13c-.11.03-.24.05-.38.05-.16,0-.31-.03-.44-.08-.13-.05-.24-.12-.33-.21-.09-.09-.16-.19-.21-.3-.05-.11-.08-.23-.08-.36ZM143.09,179.14c.13,0,.25-.02.36-.05.11-.03.21-.09.29-.16.08-.07.15-.17.19-.29.05-.12.07-.27.07-.44v-.14l-.97.14c-.13.02-.24.07-.33.15-.09.08-.13.19-.13.33,0,.12.05.23.14.32.09.09.22.14.38.14Z"/>
      <path d="M145.59,179.57v-4.77h.62v4.77h-.62Z"/>
      <path d="M148.71,178.72c0-.14.02-.27.07-.38.05-.11.12-.21.2-.29.09-.08.19-.14.31-.19.12-.05.25-.08.38-.1l.86-.13c.1-.01.16-.04.19-.09.03-.04.05-.09.05-.15,0-.15-.05-.29-.16-.4-.11-.11-.28-.17-.52-.17-.22,0-.39.06-.51.18-.12.12-.19.27-.21.46l-.59-.14c.02-.15.06-.29.13-.42s.17-.24.28-.33c.11-.09.25-.16.4-.21.15-.05.31-.08.48-.08.24,0,.44.03.61.1.17.06.3.15.41.25.11.11.18.23.23.37s.07.29.07.44v1.59c0,.14,0,.25.01.34,0,.08.02.15.03.18h-.61s-.02-.09-.02-.16c0-.07-.01-.16-.01-.27-.04.06-.08.12-.14.18-.06.06-.13.12-.21.17s-.18.1-.29.13c-.11.03-.24.05-.38.05-.16,0-.31-.03-.44-.08-.13-.05-.24-.12-.33-.21-.09-.09-.16-.19-.21-.3-.05-.11-.08-.23-.08-.36ZM149.85,179.14c.13,0,.25-.02.36-.05.11-.03.21-.09.29-.16.08-.07.15-.17.19-.29.05-.12.07-.27.07-.44v-.14l-.97.14c-.13.02-.24.07-.33.15-.09.08-.13.19-.13.33,0,.12.05.23.14.32.09.09.22.14.38.14Z"/>
      <path d="M152.97,179.57h-.62v-3.17h.61v.45c.11-.2.26-.34.43-.42.18-.08.36-.12.54-.12s.35.03.5.1c.14.06.26.15.36.26.09.11.16.25.21.4.05.15.07.32.07.49v2.01h-.62v-1.9c0-.11-.01-.21-.04-.31s-.07-.18-.12-.25c-.06-.07-.14-.13-.23-.17-.09-.04-.21-.06-.35-.06-.12,0-.23.02-.32.07-.09.05-.17.11-.23.19-.06.08-.11.17-.14.28-.03.11-.05.22-.05.34v1.83Z"/>
      <path d="M158.27,179.08c-.07.15-.19.29-.36.4-.17.11-.37.17-.62.17-.23,0-.44-.04-.63-.13-.18-.09-.34-.2-.47-.36-.13-.15-.23-.33-.3-.53s-.11-.42-.11-.66c0-.22.04-.44.11-.64s.17-.38.31-.53.29-.27.47-.36.39-.14.61-.14c.14,0,.26.02.37.05.11.03.2.07.28.12.08.05.15.11.2.17.05.06.09.13.12.19v-2.05h.61v4.18c0,.15,0,.28.01.39,0,.11.01.17.02.2h-.6s-.02-.09-.02-.17c0-.08-.01-.16-.01-.26v-.05ZM156.42,177.97c0,.16.02.31.06.45.04.14.1.26.18.36s.18.18.29.24c.11.06.25.09.39.09.14,0,.27-.03.38-.09.11-.06.21-.14.29-.24.08-.1.14-.22.18-.36.04-.14.06-.29.06-.45,0-.33-.08-.6-.24-.8-.16-.2-.38-.3-.67-.3-.14,0-.27.03-.39.08-.12.05-.21.13-.3.23-.08.1-.14.22-.19.35-.04.14-.07.29-.07.45Z"/>
      <path d="M162.28,177.66v1.91h-.65v-4.67h1.7c.21,0,.41.04.59.11s.33.17.45.29c.12.13.22.27.29.44.07.17.11.35.11.55s-.04.38-.11.55c-.07.17-.17.31-.29.44-.12.12-.28.22-.45.29-.18.07-.38.11-.59.11h-1.05ZM163.22,177.08c.28,0,.5-.07.66-.21.16-.14.24-.33.24-.58s-.08-.45-.24-.59c-.16-.14-.38-.22-.66-.22h-.94v1.6h.94Z"/>
      <path d="M168,178.66c-.04.14-.11.27-.19.39-.09.12-.19.23-.31.32-.12.09-.26.16-.41.21-.15.05-.32.08-.51.08-.21,0-.41-.04-.61-.11s-.36-.18-.51-.33c-.15-.15-.26-.32-.35-.53s-.13-.45-.13-.72c0-.25.04-.48.12-.68.08-.2.19-.38.33-.53.14-.15.3-.26.48-.34.18-.08.38-.12.57-.12.24,0,.46.04.65.12.19.08.35.19.48.34.13.14.22.32.29.52s.1.43.1.68c0,.04,0,.08,0,.11,0,.04,0,.06,0,.09h-2.38c0,.14.03.27.08.39.05.12.12.22.2.31.09.09.19.15.3.2.12.05.24.07.37.07.26,0,.46-.06.59-.18.14-.12.23-.27.3-.45l.53.18ZM167.37,177.66c0-.23-.09-.42-.23-.58-.15-.16-.36-.23-.64-.23-.13,0-.25.02-.35.07-.1.05-.19.11-.26.18-.07.08-.13.16-.17.26-.04.1-.07.2-.07.3h1.73Z"/>
      <path d="M170.57,177.02c-.09-.01-.18-.02-.27-.02-.26,0-.47.08-.63.23s-.24.4-.24.75v1.59h-.62v-3.17h.61v.55c.06-.12.12-.22.2-.3.08-.08.16-.14.24-.18.08-.05.17-.08.26-.1s.17-.03.25-.03c.04,0,.08,0,.12,0,.04,0,.06,0,.08.01v.66Z"/>
      <path d="M171.09,175.2c0-.13.04-.23.13-.32.09-.09.19-.13.31-.13s.23.04.32.13c.09.09.13.19.13.32s-.04.23-.13.31c-.09.09-.19.13-.32.13s-.23-.04-.31-.13c-.08-.09-.13-.19-.13-.31ZM171.22,179.57v-3.17h.61v3.17h-.61Z"/>
      <path d="M172.89,180.82v-4.42h.6v.49c.09-.16.22-.29.4-.4.18-.11.4-.17.66-.17.24,0,.45.04.63.13.18.09.33.2.46.35.12.15.21.33.28.53.06.2.1.42.1.65s-.03.46-.1.66c-.07.2-.16.38-.29.53-.13.15-.28.27-.46.36-.18.09-.39.13-.62.13-.25,0-.46-.05-.63-.15-.17-.1-.31-.22-.39-.36v1.68h-.61ZM175.37,177.98c0-.16-.02-.3-.07-.44-.04-.13-.11-.25-.18-.35-.08-.1-.18-.18-.29-.23-.12-.06-.25-.09-.39-.09s-.27.03-.39.09c-.12.06-.22.14-.3.23-.08.1-.15.22-.19.35-.04.13-.07.28-.07.44s.02.31.07.45.11.26.19.36c.08.1.18.18.3.23.12.05.25.08.39.08s.27-.03.39-.08c.11-.06.21-.13.29-.23.08-.1.14-.22.19-.36s.07-.29.07-.45Z"/>
      <path d="M177.42,179.57h-.62v-4.77h.62v1.97c.11-.17.26-.29.43-.36s.35-.11.53-.11.35.03.5.1c.14.06.26.15.36.26.09.11.16.25.21.4.05.15.07.32.07.49v2.01h-.62v-1.9c0-.11-.01-.21-.04-.31s-.07-.18-.12-.25c-.06-.07-.14-.13-.23-.17-.09-.04-.21-.06-.35-.06-.12,0-.22.02-.31.07-.09.04-.17.1-.23.18s-.11.16-.14.26-.05.21-.06.33v1.86Z"/>
      <path d="M183.26,178.66c-.04.14-.11.27-.19.39-.09.12-.19.23-.31.32-.12.09-.26.16-.41.21-.15.05-.32.08-.51.08-.21,0-.41-.04-.61-.11s-.36-.18-.51-.33c-.15-.15-.26-.32-.35-.53s-.13-.45-.13-.72c0-.25.04-.48.12-.68.08-.2.19-.38.33-.53.14-.15.3-.26.48-.34.18-.08.38-.12.57-.12.24,0,.46.04.65.12.19.08.35.19.48.34.13.14.22.32.29.52s.1.43.1.68c0,.04,0,.08,0,.11,0,.04,0,.06,0,.09h-2.38c0,.14.03.27.08.39.05.12.12.22.2.31.09.09.19.15.3.2.12.05.24.07.37.07.26,0,.46-.06.59-.18.14-.12.23-.27.3-.45l.53.18ZM182.63,177.66c0-.23-.09-.42-.23-.58-.15-.16-.36-.23-.64-.23-.13,0-.25.02-.35.07-.1.05-.19.11-.26.18-.07.08-.13.16-.17.26-.04.1-.07.2-.07.3h1.73Z"/>
      <path d="M185.82,177.02c-.09-.01-.18-.02-.27-.02-.26,0-.47.08-.63.23s-.24.4-.24.75v1.59h-.62v-3.17h.61v.55c.06-.12.12-.22.2-.3.08-.08.16-.14.24-.18.08-.05.17-.08.26-.1s.17-.03.25-.03c.04,0,.08,0,.12,0,.04,0,.06,0,.08.01v.66Z"/>
      <path d="M186.29,178.72c0-.14.02-.27.07-.38.05-.11.12-.21.2-.29.09-.08.19-.14.31-.19.12-.05.25-.08.38-.1l.86-.13c.1-.01.16-.04.19-.09.03-.04.05-.09.05-.15,0-.15-.05-.29-.16-.4-.11-.11-.28-.17-.52-.17-.22,0-.39.06-.51.18-.12.12-.19.27-.21.46l-.59-.14c.02-.15.06-.29.13-.42s.17-.24.28-.33c.11-.09.25-.16.4-.21.15-.05.31-.08.48-.08.24,0,.44.03.61.1.17.06.3.15.41.25.11.11.18.23.23.37s.07.29.07.44v1.59c0,.14,0,.25.01.34,0,.08.02.15.03.18h-.61s-.02-.09-.02-.16c0-.07-.01-.16-.01-.27-.04.06-.08.12-.14.18-.06.06-.13.12-.21.17s-.18.1-.29.13c-.11.03-.24.05-.38.05-.16,0-.31-.03-.44-.08-.13-.05-.24-.12-.33-.21-.09-.09-.16-.19-.21-.3-.05-.11-.08-.23-.08-.36ZM187.43,179.14c.13,0,.25-.02.36-.05.11-.03.21-.09.29-.16.08-.07.15-.17.19-.29.05-.12.07-.27.07-.44v-.14l-.97.14c-.13.02-.24.07-.33.15-.09.08-.13.19-.13.33,0,.12.05.23.14.32.09.09.22.14.38.14Z"/>
      <path d="M189.93,179.57v-4.77h.62v4.77h-.62Z"/>
    </g>
  </g>
  <g>
    <g>
      <rect x="319.96" y="174.24" width="7.25" height="7.25"/>
      <path class="cls-6" d="M323.05,179.57h-.46v-2.38h.45v.34c.09-.15.19-.25.33-.32.13-.06.27-.09.41-.09s.27.02.37.07c.11.05.2.11.27.2.07.08.12.18.16.3.03.12.05.24.05.37v1.51h-.46v-1.43c0-.08,0-.16-.03-.23-.02-.07-.05-.14-.09-.19-.04-.05-.1-.1-.17-.13-.07-.03-.16-.05-.26-.05-.09,0-.17.02-.24.05-.07.03-.13.08-.17.14-.05.06-.08.13-.1.21-.02.08-.04.16-.04.25v1.37Z"/>
    </g>
    <g>
      <path d="M335.58,179.66c-.3,0-.59-.05-.87-.16-.28-.11-.52-.26-.74-.47-.21-.21-.38-.46-.51-.76-.13-.3-.19-.65-.19-1.04s.07-.74.2-1.04.31-.55.52-.76.47-.36.74-.47c.28-.11.56-.16.85-.16.27,0,.51.04.74.11s.42.17.6.3c.17.13.32.28.44.47.12.18.21.39.27.61l-.6.21c-.09-.36-.26-.63-.5-.82s-.57-.28-.95-.28c-.21,0-.42.04-.62.12-.2.08-.38.19-.53.35-.16.15-.28.35-.37.58-.09.23-.14.5-.14.8s.05.57.14.8c.09.23.22.42.37.58.16.16.33.27.53.35.2.08.41.12.62.12.2,0,.38-.03.54-.09.16-.06.31-.14.43-.23.13-.1.23-.22.32-.36.09-.14.15-.29.2-.44l.57.21c-.06.22-.15.42-.28.61s-.27.34-.44.47-.37.23-.6.31c-.23.07-.47.11-.74.11Z"/>
      <path d="M339.66,176.3c.24,0,.45.04.65.13.2.09.37.2.51.35.14.15.26.33.34.53s.12.43.12.67-.04.47-.12.67-.19.38-.34.53c-.15.15-.32.27-.51.35-.2.09-.42.13-.65.13s-.45-.04-.65-.13c-.2-.09-.37-.2-.51-.35-.14-.15-.26-.33-.34-.53s-.12-.43-.12-.67.04-.46.12-.67.19-.38.34-.53c.15-.15.32-.27.51-.35.2-.09.42-.13.65-.13ZM339.66,179.11c.13,0,.26-.02.38-.07.12-.05.22-.12.32-.22.09-.1.17-.22.22-.36.05-.14.08-.3.08-.49s-.03-.35-.08-.48c-.05-.14-.12-.26-.22-.35-.09-.1-.2-.17-.32-.22-.12-.05-.24-.07-.38-.07s-.26.02-.38.07c-.12.05-.22.12-.32.22-.09.1-.17.21-.22.35-.05.14-.08.3-.08.48s.03.35.08.49c.05.14.12.26.22.36.09.1.2.17.32.22.12.05.24.07.38.07Z"/>
      <path d="M342.69,179.57h-.62v-3.17h.61v.45c.11-.2.26-.34.43-.42.18-.08.36-.12.54-.12s.35.03.5.1c.14.06.26.15.36.26.09.11.16.25.21.4.05.15.07.32.07.49v2.01h-.62v-1.9c0-.11-.01-.21-.04-.31s-.07-.18-.12-.25c-.06-.07-.14-.13-.23-.17-.09-.04-.21-.06-.35-.06-.12,0-.23.02-.32.07-.09.05-.17.11-.23.19-.06.08-.11.17-.14.28-.03.11-.05.22-.05.34v1.83Z"/>
      <path d="M346.39,179.57h-.62v-3.17h.61v.45c.11-.2.26-.34.43-.42.18-.08.36-.12.54-.12s.35.03.5.1c.14.06.26.15.36.26.09.11.16.25.21.4.05.15.07.32.07.49v2.01h-.62v-1.9c0-.11-.01-.21-.04-.31s-.07-.18-.12-.25c-.06-.07-.14-.13-.23-.17-.09-.04-.21-.06-.35-.06-.12,0-.23.02-.32.07-.09.05-.17.11-.23.19-.06.08-.11.17-.14.28-.03.11-.05.22-.05.34v1.83Z"/>
      <path d="M352.23,178.66c-.04.14-.11.27-.19.39-.09.12-.19.23-.31.32-.12.09-.26.16-.41.21-.15.05-.32.08-.51.08-.21,0-.41-.04-.61-.11s-.36-.18-.51-.33c-.15-.15-.26-.32-.35-.53s-.13-.45-.13-.72c0-.25.04-.48.12-.68.08-.2.19-.38.33-.53.14-.15.3-.26.48-.34.18-.08.38-.12.57-.12.24,0,.46.04.65.12.19.08.35.19.48.34.13.14.22.32.29.52s.1.43.1.68c0,.04,0,.08,0,.11,0,.04,0,.06,0,.09h-2.38c0,.14.03.27.08.39.05.12.12.22.2.31.09.09.19.15.3.2.12.05.24.07.37.07.26,0,.46-.06.59-.18.14-.12.23-.27.3-.45l.53.18ZM351.6,177.66c0-.23-.09-.42-.23-.58-.15-.16-.36-.23-.64-.23-.13,0-.25.02-.35.07-.1.05-.19.11-.26.18-.07.08-.13.16-.17.26-.04.1-.07.2-.07.3h1.73Z"/>
      <path d="M354.37,176.87c-.13,0-.25.02-.36.07-.11.05-.22.12-.31.21-.09.09-.16.21-.21.35-.05.14-.08.3-.08.48s.03.34.08.48.12.25.21.35c.09.09.19.17.31.21.12.05.24.07.37.07.15,0,.28-.02.38-.07.1-.04.19-.1.26-.16.07-.07.12-.14.16-.21.04-.08.07-.15.08-.21l.55.24c-.04.11-.1.23-.17.35-.08.12-.17.22-.29.32-.12.1-.26.17-.42.23-.16.06-.34.09-.55.09-.23,0-.45-.04-.64-.13-.2-.09-.36-.2-.5-.36s-.25-.33-.33-.53c-.08-.2-.12-.43-.12-.67s.04-.47.12-.68c.08-.21.19-.38.34-.53.14-.15.31-.26.51-.35s.41-.13.63-.13c.21,0,.4.03.56.09.16.06.3.14.42.23.12.1.21.21.28.33.07.12.12.24.16.36l-.56.24c-.02-.08-.05-.16-.09-.24-.04-.08-.09-.15-.16-.21-.07-.06-.15-.12-.25-.16-.1-.04-.21-.06-.35-.06Z"/>
      <path d="M357.36,176.4h.69v.56h-.69v1.65c0,.14.03.25.1.33.07.07.18.11.34.11.04,0,.08,0,.13,0,.05,0,.09-.01.11-.02v.53s-.08.02-.15.04c-.08.02-.17.02-.27.02-.27,0-.49-.08-.65-.23-.16-.16-.24-.38-.24-.67v-1.74h-.61v-.56h.17c.17,0,.3-.05.37-.14.08-.09.12-.21.12-.35v-.51h.57v1Z"/>
      <path d="M358.73,175.2c0-.13.04-.23.13-.32.09-.09.19-.13.31-.13s.23.04.32.13c.09.09.13.19.13.32s-.04.23-.13.31c-.09.09-.19.13-.32.13s-.23-.04-.31-.13c-.08-.09-.13-.19-.13-.31ZM358.87,179.57v-3.17h.61v3.17h-.61Z"/>
      <path d="M361.89,176.3c.24,0,.45.04.65.13.2.09.37.2.51.35.14.15.26.33.34.53s.12.43.12.67-.04.47-.12.67-.19.38-.34.53c-.15.15-.32.27-.51.35-.2.09-.42.13-.65.13s-.45-.04-.65-.13c-.2-.09-.37-.2-.51-.35-.14-.15-.26-.33-.34-.53s-.12-.43-.12-.67.04-.46.12-.67.19-.38.34-.53c.15-.15.32-.27.51-.35.2-.09.42-.13.65-.13ZM361.89,179.11c.13,0,.26-.02.38-.07.12-.05.22-.12.32-.22.09-.1.17-.22.22-.36.05-.14.08-.3.08-.49s-.03-.35-.08-.48c-.05-.14-.12-.26-.22-.35-.09-.1-.2-.17-.32-.22-.12-.05-.24-.07-.38-.07s-.26.02-.38.07c-.12.05-.22.12-.32.22-.09.1-.17.21-.22.35-.05.14-.08.3-.08.48s.03.35.08.49c.05.14.12.26.22.36.09.1.2.17.32.22.12.05.24.07.38.07Z"/>
      <path d="M364.92,179.57h-.62v-3.17h.61v.45c.11-.2.26-.34.43-.42.18-.08.36-.12.54-.12s.35.03.5.1c.14.06.26.15.36.26.09.11.16.25.21.4.05.15.07.32.07.49v2.01h-.62v-1.9c0-.11-.01-.21-.04-.31s-.07-.18-.12-.25c-.06-.07-.14-.13-.23-.17-.09-.04-.21-.06-.35-.06-.12,0-.23.02-.32.07-.09.05-.17.11-.23.19-.06.08-.11.17-.14.28-.03.11-.05.22-.05.34v1.83Z"/>
      <path d="M372.41,178.66c-.04.14-.11.27-.19.39-.09.12-.19.23-.31.32-.12.09-.26.16-.41.21-.15.05-.32.08-.51.08-.21,0-.41-.04-.61-.11s-.36-.18-.51-.33c-.15-.15-.26-.32-.35-.53s-.13-.45-.13-.72c0-.25.04-.48.12-.68.08-.2.19-.38.33-.53.14-.15.3-.26.48-.34.18-.08.38-.12.57-.12.24,0,.46.04.65.12.19.08.35.19.48.34.13.14.22.32.29.52s.1.43.1.68c0,.04,0,.08,0,.11,0,.04,0,.06,0,.09h-2.38c0,.14.03.27.08.39.05.12.12.22.2.31.09.09.19.15.3.2.12.05.24.07.37.07.26,0,.46-.06.59-.18.14-.12.23-.27.3-.45l.53.18ZM371.78,177.66c0-.23-.09-.42-.23-.58-.15-.16-.36-.23-.64-.23-.13,0-.25.02-.35.07-.1.05-.19.11-.26.18-.07.08-.13.16-.17.26-.04.1-.07.2-.07.3h1.73Z"/>
      <path d="M374.67,179.57h-.62l-1.29-3.17h.7l.9,2.44.91-2.44h.67l-1.26,3.17Z"/>
      <path d="M379.28,178.66c-.04.14-.11.27-.19.39-.09.12-.19.23-.31.32-.12.09-.26.16-.41.21-.15.05-.32.08-.51.08-.21,0-.41-.04-.61-.11s-.36-.18-.51-.33c-.15-.15-.26-.32-.35-.53s-.13-.45-.13-.72c0-.25.04-.48.12-.68.08-.2.19-.38.33-.53.14-.15.3-.26.48-.34.18-.08.38-.12.57-.12.24,0,.46.04.65.12.19.08.35.19.48.34.13.14.22.32.29.52s.1.43.1.68c0,.04,0,.08,0,.11,0,.04,0,.06,0,.09h-2.38c0,.14.03.27.08.39.05.12.12.22.2.31.09.09.19.15.3.2.12.05.24.07.37.07.26,0,.46-.06.59-.18.14-.12.23-.27.3-.45l.53.18ZM378.66,177.66c0-.23-.09-.42-.23-.58-.15-.16-.36-.23-.64-.23-.13,0-.25.02-.35.07-.1.05-.19.11-.26.18-.07.08-.13.16-.17.26-.04.1-.07.2-.07.3h1.73Z"/>
      <path d="M380.71,179.57h-.62v-3.17h.61v.45c.11-.2.26-.34.43-.42.18-.08.36-.12.54-.12s.35.03.5.1c.14.06.26.15.36.26.09.11.16.25.21.4.05.15.07.32.07.49v2.01h-.62v-1.9c0-.11-.01-.21-.04-.31s-.07-.18-.12-.25c-.06-.07-.14-.13-.23-.17-.09-.04-.21-.06-.35-.06-.12,0-.23.02-.32.07-.09.05-.17.11-.23.19-.06.08-.11.17-.14.28-.03.11-.05.22-.05.34v1.83Z"/>
      <path d="M384.62,176.4h.69v.56h-.69v1.65c0,.14.03.25.1.33.07.07.18.11.34.11.04,0,.08,0,.13,0,.05,0,.09-.01.11-.02v.53s-.08.02-.15.04c-.08.02-.17.02-.27.02-.27,0-.49-.08-.65-.23-.16-.16-.24-.38-.24-.67v-1.74h-.61v-.56h.17c.17,0,.3-.05.37-.14.08-.09.12-.21.12-.35v-.51h.57v1Z"/>
      <path d="M388.4,179.57h-.62v-3.17h.61v.45c.11-.2.26-.34.43-.42.18-.08.36-.12.54-.12s.35.03.5.1c.14.06.26.15.36.26.09.11.16.25.21.4.05.15.07.32.07.49v2.01h-.62v-1.9c0-.11-.01-.21-.04-.31s-.07-.18-.12-.25c-.06-.07-.14-.13-.23-.17-.09-.04-.21-.06-.35-.06-.12,0-.23.02-.32.07-.09.05-.17.11-.23.19-.06.08-.11.17-.14.28-.03.11-.05.22-.05.34v1.83Z"/>
      <path d="M391.42,179.14c0-.12.04-.22.13-.31s.21-.13.35-.13.26.05.37.15c.11.1.16.26.16.47s-.03.41-.1.56c-.06.16-.14.28-.24.39-.1.1-.2.18-.32.23-.11.05-.22.09-.32.1v-.34c.08-.02.15-.05.22-.09.07-.05.12-.1.17-.17.05-.07.08-.14.11-.21.03-.08.04-.15.04-.23,0,0-.03.02-.05.02-.03,0-.06,0-.09,0-.12,0-.23-.04-.31-.12-.09-.08-.13-.19-.13-.33Z"/>
      <path d="M397.15,179.18c-.09.17-.22.29-.4.37-.18.08-.36.12-.54.12s-.35-.03-.5-.1c-.15-.07-.27-.16-.37-.27-.1-.11-.18-.25-.23-.4s-.08-.32-.08-.5v-2h.62v1.9c0,.11.01.21.04.31s.07.19.12.26c.06.07.13.13.22.18s.2.07.33.07c.25,0,.44-.07.56-.22.12-.15.19-.34.19-.59v-1.91h.62v2.58c0,.13,0,.24,0,.35,0,.1.01.18.02.24h-.59s-.02-.09-.02-.17c0-.08,0-.15,0-.21Z"/>
      <path d="M399.05,178.54c.02.17.09.31.22.42.12.11.3.17.52.17.18,0,.31-.04.4-.12.09-.08.14-.18.14-.3,0-.1-.04-.19-.11-.26s-.17-.12-.3-.15l-.54-.12c-.25-.05-.45-.16-.58-.32-.14-.16-.21-.35-.21-.57,0-.14.03-.26.09-.39.06-.12.14-.23.24-.32.1-.09.22-.16.36-.22s.28-.08.44-.08c.21,0,.4.03.54.09.15.06.27.14.36.23.09.09.16.18.21.28s.08.18.1.25l-.55.2s-.02-.09-.05-.15c-.02-.06-.06-.12-.11-.17-.05-.05-.11-.1-.2-.14-.08-.04-.19-.06-.31-.06-.16,0-.29.04-.38.13-.1.09-.14.18-.14.29,0,.2.12.33.36.38l.51.11c.29.06.51.17.66.34s.22.37.22.6c0,.11-.02.23-.07.34-.05.11-.12.22-.21.32-.09.1-.21.17-.36.23-.14.06-.32.09-.51.09-.22,0-.41-.03-.56-.09-.16-.06-.29-.14-.39-.23-.1-.09-.18-.19-.24-.3-.06-.11-.09-.21-.1-.3l.56-.2Z"/>
      <path d="M404.53,178.66c-.04.14-.11.27-.19.39-.09.12-.19.23-.31.32-.12.09-.26.16-.41.21-.15.05-.32.08-.51.08-.21,0-.41-.04-.61-.11s-.36-.18-.51-.33c-.15-.15-.26-.32-.35-.53s-.13-.45-.13-.72c0-.25.04-.48.12-.68.08-.2.19-.38.33-.53.14-.15.3-.26.48-.34.18-.08.38-.12.57-.12.24,0,.46.04.65.12.19.08.35.19.48.34.13.14.22.32.29.52s.1.43.1.68c0,.04,0,.08,0,.11,0,.04,0,.06,0,.09h-2.38c0,.14.03.27.08.39.05.12.12.22.2.31.09.09.19.15.3.2.12.05.24.07.37.07.26,0,.46-.06.59-.18.14-.12.23-.27.3-.45l.53.18ZM403.9,177.66c0-.23-.09-.42-.23-.58-.15-.16-.36-.23-.64-.23-.13,0-.25.02-.35.07-.1.05-.19.11-.26.18-.07.08-.13.16-.17.26-.04.1-.07.2-.07.3h1.73Z"/>
      <path d="M407.56,179.08c-.07.15-.19.29-.36.4-.17.11-.37.17-.62.17-.23,0-.44-.04-.63-.13-.18-.09-.34-.2-.47-.36-.13-.15-.23-.33-.3-.53s-.11-.42-.11-.66c0-.22.04-.44.11-.64s.17-.38.31-.53.29-.27.47-.36.39-.14.61-.14c.14,0,.26.02.37.05.11.03.2.07.28.12.08.05.15.11.2.17.05.06.09.13.12.19v-2.05h.61v4.18c0,.15,0,.28.01.39,0,.11.01.17.02.2h-.6s-.02-.09-.02-.17c0-.08-.01-.16-.01-.26v-.05ZM405.71,177.97c0,.16.02.31.06.45.04.14.1.26.18.36s.18.18.29.24c.11.06.25.09.39.09.14,0,.27-.03.38-.09.11-.06.21-.14.29-.24.08-.1.14-.22.18-.36.04-.14.06-.29.06-.45,0-.33-.08-.6-.24-.8-.16-.2-.38-.3-.67-.3-.14,0-.27.03-.39.08-.12.05-.21.13-.3.23-.08.1-.14.22-.19.35-.04.14-.07.29-.07.45Z"/>
      <path d="M410.86,179.57v-4.77h.61v2.05c.07-.14.2-.27.38-.38.18-.11.4-.16.67-.16.24,0,.45.04.63.13.18.09.33.2.45.36.12.15.21.33.28.53.06.2.09.42.09.65s-.03.46-.1.66c-.07.2-.16.38-.29.53-.12.15-.28.27-.46.36-.18.09-.39.13-.63.13s-.44-.05-.62-.14c-.17-.1-.31-.23-.41-.4v.46h-.61ZM413.34,177.97c0-.34-.08-.61-.25-.81-.17-.2-.4-.3-.68-.3-.14,0-.26.03-.38.08-.12.05-.22.13-.3.22-.08.09-.15.21-.19.35s-.07.29-.07.46.02.33.07.47.11.26.19.36c.08.1.18.17.3.23.12.05.24.08.38.08.29,0,.51-.1.68-.31.17-.21.25-.48.25-.82Z"/>
      <path d="M414.74,180.89l.79-1.67-1.36-2.82h.71l.99,2.19.95-2.19h.67l-2.06,4.49h-.68Z"/>
      <path d="M420.34,179.57h-.62v-3.17h.61v.45c.11-.2.26-.34.43-.42.18-.08.36-.12.54-.12s.35.03.5.1c.14.06.26.15.36.26.09.11.16.25.21.4.05.15.07.32.07.49v2.01h-.62v-1.9c0-.11-.01-.21-.04-.31s-.07-.18-.12-.25c-.06-.07-.14-.13-.23-.17-.09-.04-.21-.06-.35-.06-.12,0-.23.02-.32.07-.09.05-.17.11-.23.19-.06.08-.11.17-.14.28-.03.11-.05.22-.05.34v1.83Z"/>
      <path d="M426.18,178.66c-.04.14-.11.27-.19.39-.09.12-.19.23-.31.32-.12.09-.26.16-.41.21-.15.05-.32.08-.51.08-.21,0-.41-.04-.61-.11s-.36-.18-.51-.33c-.15-.15-.26-.32-.35-.53s-.13-.45-.13-.72c0-.25.04-.48.12-.68.08-.2.19-.38.33-.53.14-.15.3-.26.48-.34.18-.08.38-.12.57-.12.24,0,.46.04.65.12.19.08.35.19.48.34.13.14.22.32.29.52s.1.43.1.68c0,.04,0,.08,0,.11,0,.04,0,.06,0,.09h-2.38c0,.14.03.27.08.39.05.12.12.22.2.31.09.09.19.15.3.2.12.05.24.07.37.07.26,0,.46-.06.59-.18.14-.12.23-.27.3-.45l.53.18ZM425.56,177.66c0-.23-.09-.42-.23-.58-.15-.16-.36-.23-.64-.23-.13,0-.25.02-.35.07-.1.05-.19.11-.26.18-.07.08-.13.16-.17.26-.04.1-.07.2-.07.3h1.73Z"/>
      <path d="M426.85,175.2c0-.13.04-.23.13-.32.09-.09.19-.13.31-.13s.23.04.32.13c.09.09.13.19.13.32s-.04.23-.13.31c-.09.09-.19.13-.32.13s-.23-.04-.31-.13c-.08-.09-.13-.19-.13-.31ZM426.99,179.57v-3.17h.61v3.17h-.61Z"/>
      <path d="M429.49,176.4h.69v.56h-.69v1.65c0,.14.03.25.1.33.07.07.18.11.34.11.04,0,.08,0,.13,0,.05,0,.09-.01.11-.02v.53s-.08.02-.15.04c-.08.02-.17.02-.27.02-.27,0-.49-.08-.65-.23-.16-.16-.24-.38-.24-.67v-1.74h-.61v-.56h.17c.17,0,.3-.05.37-.14.08-.09.12-.21.12-.35v-.51h.57v1Z"/>
      <path d="M431.62,179.57h-.62v-4.77h.62v1.97c.11-.17.26-.29.43-.36s.35-.11.53-.11.35.03.5.1c.14.06.26.15.36.26.09.11.16.25.21.4.05.15.07.32.07.49v2.01h-.62v-1.9c0-.11-.01-.21-.04-.31s-.07-.18-.12-.25c-.06-.07-.14-.13-.23-.17-.09-.04-.21-.06-.35-.06-.12,0-.22.02-.31.07-.09.04-.17.1-.23.18s-.11.16-.14.26-.05.21-.06.33v1.86Z"/>
      <path d="M437.46,178.66c-.04.14-.11.27-.19.39-.09.12-.19.23-.31.32-.12.09-.26.16-.41.21-.15.05-.32.08-.51.08-.21,0-.41-.04-.61-.11s-.36-.18-.51-.33c-.15-.15-.26-.32-.35-.53s-.13-.45-.13-.72c0-.25.04-.48.12-.68.08-.2.19-.38.33-.53.14-.15.3-.26.48-.34.18-.08.38-.12.57-.12.24,0,.46.04.65.12.19.08.35.19.48.34.13.14.22.32.29.52s.1.43.1.68c0,.04,0,.08,0,.11,0,.04,0,.06,0,.09h-2.38c0,.14.03.27.08.39.05.12.12.22.2.31.09.09.19.15.3.2.12.05.24.07.37.07.26,0,.46-.06.59-.18.14-.12.23-.27.3-.45l.53.18ZM436.83,177.66c0-.23-.09-.42-.23-.58-.15-.16-.36-.23-.64-.23-.13,0-.25.02-.35.07-.1.05-.19.11-.26.18-.07.08-.13.16-.17.26-.04.1-.07.2-.07.3h1.73Z"/>
      <path d="M440.02,177.02c-.09-.01-.18-.02-.27-.02-.26,0-.47.08-.63.23s-.24.4-.24.75v1.59h-.62v-3.17h.61v.55c.06-.12.12-.22.2-.3.08-.08.16-.14.24-.18.08-.05.17-.08.26-.1s.17-.03.25-.03c.04,0,.08,0,.12,0,.04,0,.06,0,.08.01v.66Z"/>
      <path d="M444.42,179.66c-.3,0-.59-.05-.87-.16-.28-.11-.52-.26-.74-.47-.21-.21-.38-.46-.51-.76-.13-.3-.19-.65-.19-1.04s.07-.74.2-1.04.31-.55.52-.76.47-.36.74-.47c.28-.11.56-.16.85-.16.27,0,.51.04.74.11s.42.17.6.3c.17.13.32.28.44.47.12.18.21.39.27.61l-.6.21c-.09-.36-.26-.63-.5-.82s-.57-.28-.95-.28c-.21,0-.42.04-.62.12-.2.08-.38.19-.53.35-.16.15-.28.35-.37.58-.09.23-.14.5-.14.8s.05.57.14.8c.09.23.22.42.37.58.16.16.33.27.53.35.2.08.41.12.62.12.2,0,.38-.03.54-.09.16-.06.31-.14.43-.23.13-.1.23-.22.32-.36.09-.14.15-.29.2-.44l.57.21c-.06.22-.15.42-.28.61s-.27.34-.44.47-.37.23-.6.31c-.23.07-.47.11-.74.11Z"/>
      <path d="M449.9,178.66c-.04.14-.11.27-.19.39-.09.12-.19.23-.31.32-.12.09-.26.16-.41.21-.15.05-.32.08-.51.08-.21,0-.41-.04-.61-.11s-.36-.18-.51-.33c-.15-.15-.26-.32-.35-.53s-.13-.45-.13-.72c0-.25.04-.48.12-.68.08-.2.19-.38.33-.53.14-.15.3-.26.48-.34.18-.08.38-.12.57-.12.24,0,.46.04.65.12.19.08.35.19.48.34.13.14.22.32.29.52s.1.43.1.68c0,.04,0,.08,0,.11,0,.04,0,.06,0,.09h-2.38c0,.14.03.27.08.39.05.12.12.22.2.31.09.09.19.15.3.2.12.05.24.07.37.07.26,0,.46-.06.59-.18.14-.12.23-.27.3-.45l.53.18ZM449.27,177.66c0-.23-.09-.42-.23-.58-.15-.16-.36-.23-.64-.23-.13,0-.25.02-.35.07-.1.05-.19.11-.26.18-.07.08-.13.16-.17.26-.04.1-.07.2-.07.3h1.73Z"/>
      <path d="M451.33,179.57h-.62v-3.17h.61v.45c.11-.2.26-.34.43-.42.18-.08.36-.12.54-.12s.35.03.5.1c.14.06.26.15.36.26.09.11.16.25.21.4.05.15.07.32.07.49v2.01h-.62v-1.9c0-.11-.01-.21-.04-.31s-.07-.18-.12-.25c-.06-.07-.14-.13-.23-.17-.09-.04-.21-.06-.35-.06-.12,0-.23.02-.32.07-.09.05-.17.11-.23.19-.06.08-.11.17-.14.28-.03.11-.05.22-.05.34v1.83Z"/>
      <path d="M455.24,176.4h.69v.56h-.69v1.65c0,.14.03.25.1.33.07.07.18.11.34.11.04,0,.08,0,.13,0,.05,0,.09-.01.11-.02v.53s-.08.02-.15.04c-.08.02-.17.02-.27.02-.27,0-.49-.08-.65-.23-.16-.16-.24-.38-.24-.67v-1.74h-.61v-.56h.17c.17,0,.3-.05.37-.14.08-.09.12-.21.12-.35v-.51h.57v1Z"/>
      <path d="M458.5,177.02c-.09-.01-.18-.02-.27-.02-.26,0-.47.08-.63.23s-.24.4-.24.75v1.59h-.62v-3.17h.61v.55c.06-.12.12-.22.2-.3.08-.08.16-.14.24-.18.08-.05.17-.08.26-.1s.17-.03.25-.03c.04,0,.08,0,.12,0,.04,0,.06,0,.08.01v.66Z"/>
      <path d="M458.97,178.72c0-.14.02-.27.07-.38.05-.11.12-.21.2-.29.09-.08.19-.14.31-.19.12-.05.25-.08.38-.1l.86-.13c.1-.01.16-.04.19-.09.03-.04.05-.09.05-.15,0-.15-.05-.29-.16-.4-.11-.11-.28-.17-.52-.17-.22,0-.39.06-.51.18-.12.12-.19.27-.21.46l-.59-.14c.02-.15.06-.29.13-.42s.17-.24.28-.33c.11-.09.25-.16.4-.21.15-.05.31-.08.48-.08.24,0,.44.03.61.1.17.06.3.15.41.25.11.11.18.23.23.37s.07.29.07.44v1.59c0,.14,0,.25.01.34,0,.08.02.15.03.18h-.61s-.02-.09-.02-.16c0-.07-.01-.16-.01-.27-.04.06-.08.12-.14.18-.06.06-.13.12-.21.17s-.18.1-.29.13c-.11.03-.24.05-.38.05-.16,0-.31-.03-.44-.08-.13-.05-.24-.12-.33-.21-.09-.09-.16-.19-.21-.3-.05-.11-.08-.23-.08-.36ZM460.11,179.14c.13,0,.25-.02.36-.05.11-.03.21-.09.29-.16.08-.07.15-.17.19-.29.05-.12.07-.27.07-.44v-.14l-.97.14c-.13.02-.24.07-.33.15-.09.08-.13.19-.13.33,0,.12.05.23.14.32.09.09.22.14.38.14Z"/>
      <path d="M462.61,179.57v-4.77h.62v4.77h-.62Z"/>
      <path d="M466.55,179.57h-.62v-3.17h.61v.45c.11-.2.26-.34.43-.42.18-.08.36-.12.54-.12s.35.03.5.1c.14.06.26.15.36.26.09.11.16.25.21.4.05.15.07.32.07.49v2.01h-.62v-1.9c0-.11-.01-.21-.04-.31s-.07-.18-.12-.25c-.06-.07-.14-.13-.23-.17-.09-.04-.21-.06-.35-.06-.12,0-.23.02-.32.07-.09.05-.17.11-.23.19-.06.08-.11.17-.14.28-.03.11-.05.22-.05.34v1.83Z"/>
      <path d="M470.99,176.3c.24,0,.45.04.65.13.2.09.37.2.51.35.14.15.26.33.34.53s.12.43.12.67-.04.47-.12.67-.19.38-.34.53c-.15.15-.32.27-.51.35-.2.09-.42.13-.65.13s-.45-.04-.65-.13c-.2-.09-.37-.2-.51-.35-.14-.15-.26-.33-.34-.53s-.12-.43-.12-.67.04-.46.12-.67.19-.38.34-.53c.15-.15.32-.27.51-.35.2-.09.42-.13.65-.13ZM470.99,179.11c.13,0,.26-.02.38-.07.12-.05.22-.12.32-.22.09-.1.17-.22.22-.36.05-.14.08-.3.08-.49s-.03-.35-.08-.48c-.05-.14-.12-.26-.22-.35-.09-.1-.2-.17-.32-.22-.12-.05-.24-.07-.38-.07s-.26.02-.38.07c-.12.05-.22.12-.32.22-.09.1-.17.21-.22.35-.05.14-.08.3-.08.48s.03.35.08.49c.05.14.12.26.22.36.09.1.2.17.32.22.12.05.24.07.38.07Z"/>
      <path d="M475.15,177.02c-.09-.01-.18-.02-.27-.02-.26,0-.47.08-.63.23s-.24.4-.24.75v1.59h-.62v-3.17h.61v.55c.06-.12.12-.22.2-.3.08-.08.16-.14.24-.18.08-.05.17-.08.26-.1s.17-.03.25-.03c.04,0,.08,0,.12,0,.04,0,.06,0,.08.01v.66Z"/>
      <path d="M478.17,177.66v1.91h-.65v-4.67h1.7c.21,0,.41.04.59.11s.33.17.45.29c.12.13.22.27.29.44.07.17.11.35.11.55s-.04.38-.11.55c-.07.17-.17.31-.29.44-.12.12-.28.22-.45.29-.18.07-.38.11-.59.11h-1.05ZM479.11,177.08c.28,0,.5-.07.66-.21.16-.14.24-.33.24-.58s-.08-.45-.24-.59c-.16-.14-.38-.22-.66-.22h-.94v1.6h.94Z"/>
      <path d="M483.89,178.66c-.04.14-.11.27-.19.39-.09.12-.19.23-.31.32-.12.09-.26.16-.41.21-.15.05-.32.08-.51.08-.21,0-.41-.04-.61-.11s-.36-.18-.51-.33c-.15-.15-.26-.32-.35-.53s-.13-.45-.13-.72c0-.25.04-.48.12-.68.08-.2.19-.38.33-.53.14-.15.3-.26.48-.34.18-.08.38-.12.57-.12.24,0,.46.04.65.12.19.08.35.19.48.34.13.14.22.32.29.52s.1.43.1.68c0,.04,0,.08,0,.11,0,.04,0,.06,0,.09h-2.38c0,.14.03.27.08.39.05.12.12.22.2.31.09.09.19.15.3.2.12.05.24.07.37.07.26,0,.46-.06.59-.18.14-.12.23-.27.3-.45l.53.18ZM483.26,177.66c0-.23-.09-.42-.23-.58-.15-.16-.36-.23-.64-.23-.13,0-.25.02-.35.07-.1.05-.19.11-.26.18-.07.08-.13.16-.17.26-.04.1-.07.2-.07.3h1.73Z"/>
      <path d="M486.46,177.02c-.09-.01-.18-.02-.27-.02-.26,0-.47.08-.63.23s-.24.4-.24.75v1.59h-.62v-3.17h.61v.55c.06-.12.12-.22.2-.3.08-.08.16-.14.24-.18.08-.05.17-.08.26-.1s.17-.03.25-.03c.04,0,.08,0,.12,0,.04,0,.06,0,.08.01v.66Z"/>
      <path d="M486.98,175.2c0-.13.04-.23.13-.32.09-.09.19-.13.31-.13s.23.04.32.13c.09.09.13.19.13.32s-.04.23-.13.31c-.09.09-.19.13-.32.13s-.23-.04-.31-.13c-.08-.09-.13-.19-.13-.31ZM487.11,179.57v-3.17h.61v3.17h-.61Z"/>
      <path d="M488.78,180.82v-4.42h.6v.49c.09-.16.22-.29.4-.4.18-.11.4-.17.66-.17.24,0,.45.04.63.13.18.09.33.2.46.35.12.15.21.33.28.53.06.2.1.42.1.65s-.03.46-.1.66c-.07.2-.16.38-.29.53-.13.15-.28.27-.46.36-.18.09-.39.13-.62.13-.25,0-.46-.05-.63-.15-.17-.1-.31-.22-.39-.36v1.68h-.61ZM491.26,177.98c0-.16-.02-.3-.07-.44-.04-.13-.11-.25-.18-.35-.08-.1-.18-.18-.29-.23-.12-.06-.25-.09-.39-.09s-.27.03-.39.09c-.12.06-.22.14-.3.23-.08.1-.15.22-.19.35-.04.13-.07.28-.07.44s.02.31.07.45.11.26.19.36c.08.1.18.18.3.23.12.05.25.08.39.08s.27-.03.39-.08c.11-.06.21-.13.29-.23.08-.1.14-.22.19-.36s.07-.29.07-.45Z"/>
      <path d="M493.3,179.57h-.62v-4.77h.62v1.97c.11-.17.26-.29.43-.36s.35-.11.53-.11.35.03.5.1c.14.06.26.15.36.26.09.11.16.25.21.4.05.15.07.32.07.49v2.01h-.62v-1.9c0-.11-.01-.21-.04-.31s-.07-.18-.12-.25c-.06-.07-.14-.13-.23-.17-.09-.04-.21-.06-.35-.06-.12,0-.22.02-.31.07-.09.04-.17.1-.23.18s-.11.16-.14.26-.05.21-.06.33v1.86Z"/>
      <path d="M499.15,178.66c-.04.14-.11.27-.19.39-.09.12-.19.23-.31.32-.12.09-.26.16-.41.21-.15.05-.32.08-.51.08-.21,0-.41-.04-.61-.11s-.36-.18-.51-.33c-.15-.15-.26-.32-.35-.53s-.13-.45-.13-.72c0-.25.04-.48.12-.68.08-.2.19-.38.33-.53.14-.15.3-.26.48-.34.18-.08.38-.12.57-.12.24,0,.46.04.65.12.19.08.35.19.48.34.13.14.22.32.29.52s.1.43.1.68c0,.04,0,.08,0,.11,0,.04,0,.06,0,.09h-2.38c0,.14.03.27.08.39.05.12.12.22.2.31.09.09.19.15.3.2.12.05.24.07.37.07.26,0,.46-.06.59-.18.14-.12.23-.27.3-.45l.53.18ZM498.52,177.66c0-.23-.09-.42-.23-.58-.15-.16-.36-.23-.64-.23-.13,0-.25.02-.35.07-.1.05-.19.11-.26.18-.07.08-.13.16-.17.26-.04.1-.07.2-.07.3h1.73Z"/>
      <path d="M501.71,177.02c-.09-.01-.18-.02-.27-.02-.26,0-.47.08-.63.23s-.24.4-.24.75v1.59h-.62v-3.17h.61v.55c.06-.12.12-.22.2-.3.08-.08.16-.14.24-.18.08-.05.17-.08.26-.1s.17-.03.25-.03c.04,0,.08,0,.12,0,.04,0,.06,0,.08.01v.66Z"/>
      <path d="M502.17,178.72c0-.14.02-.27.07-.38.05-.11.12-.21.2-.29.09-.08.19-.14.31-.19.12-.05.25-.08.38-.1l.86-.13c.1-.01.16-.04.19-.09.03-.04.05-.09.05-.15,0-.15-.05-.29-.16-.4-.11-.11-.28-.17-.52-.17-.22,0-.39.06-.51.18-.12.12-.19.27-.21.46l-.59-.14c.02-.15.06-.29.13-.42s.17-.24.28-.33c.11-.09.25-.16.4-.21.15-.05.31-.08.48-.08.24,0,.44.03.61.1.17.06.3.15.41.25.11.11.18.23.23.37s.07.29.07.44v1.59c0,.14,0,.25.01.34,0,.08.02.15.03.18h-.61s-.02-.09-.02-.16c0-.07-.01-.16-.01-.27-.04.06-.08.12-.14.18-.06.06-.13.12-.21.17s-.18.1-.29.13c-.11.03-.24.05-.38.05-.16,0-.31-.03-.44-.08-.13-.05-.24-.12-.33-.21-.09-.09-.16-.19-.21-.3-.05-.11-.08-.23-.08-.36ZM503.32,179.14c.13,0,.25-.02.36-.05.11-.03.21-.09.29-.16.08-.07.15-.17.19-.29.05-.12.07-.27.07-.44v-.14l-.97.14c-.13.02-.24.07-.33.15-.09.08-.13.19-.13.33,0,.12.05.23.14.32.09.09.22.14.38.14Z"/>
      <path d="M505.82,179.57v-4.77h.62v4.77h-.62Z"/>
      <path d="M508.97,177.48c0-.36.03-.69.1-1,.06-.3.15-.59.26-.84.11-.26.24-.49.4-.71.15-.22.32-.41.49-.59l.38.33c-.34.38-.61.8-.8,1.25s-.29.98-.29,1.56.1,1.1.29,1.56.46.88.8,1.25l-.38.33c-.17-.18-.34-.38-.49-.59-.15-.22-.29-.45-.4-.71-.11-.26-.2-.54-.26-.84s-.1-.64-.1-1Z"/>
      <path d="M511.39,178.54c.02.17.09.31.22.42.12.11.3.17.52.17.18,0,.31-.04.4-.12.09-.08.14-.18.14-.3,0-.1-.04-.19-.11-.26s-.17-.12-.3-.15l-.54-.12c-.25-.05-.45-.16-.58-.32-.14-.16-.21-.35-.21-.57,0-.14.03-.26.09-.39.06-.12.14-.23.24-.32.1-.09.22-.16.36-.22s.28-.08.44-.08c.21,0,.4.03.54.09.15.06.27.14.36.23.09.09.16.18.21.28s.08.18.1.25l-.55.2s-.02-.09-.05-.15c-.02-.06-.06-.12-.11-.17-.05-.05-.11-.1-.2-.14-.08-.04-.19-.06-.31-.06-.16,0-.29.04-.38.13-.1.09-.14.18-.14.29,0,.2.12.33.36.38l.51.11c.29.06.51.17.66.34s.22.37.22.6c0,.11-.02.23-.07.34-.05.11-.12.22-.21.32-.09.1-.21.17-.36.23-.14.06-.32.09-.51.09-.22,0-.41-.03-.56-.09-.16-.06-.29-.14-.39-.23-.1-.09-.18-.19-.24-.3-.06-.11-.09-.21-.1-.3l.56-.2Z"/>
      <path d="M515.59,177.73l1.38,1.83h-.78l-1.03-1.4-.44.44v.96h-.61v-4.77h.61v3l1.37-1.4h.86l-1.35,1.34Z"/>
      <path d="M517.42,175.2c0-.13.04-.23.13-.32.09-.09.19-.13.31-.13s.23.04.32.13c.09.09.13.19.13.32s-.04.23-.13.31c-.09.09-.19.13-.32.13s-.23-.04-.31-.13c-.08-.09-.13-.19-.13-.31ZM517.56,179.57v-3.17h.61v3.17h-.61Z"/>
      <path d="M519.23,180.82v-4.42h.6v.49c.09-.16.22-.29.4-.4.18-.11.4-.17.66-.17.24,0,.45.04.63.13.18.09.33.2.46.35.12.15.21.33.28.53.06.2.1.42.1.65s-.03.46-.1.66c-.07.2-.16.38-.29.53-.13.15-.28.27-.46.36-.18.09-.39.13-.62.13-.25,0-.46-.05-.63-.15-.17-.1-.31-.22-.39-.36v1.68h-.61ZM521.71,177.98c0-.16-.02-.3-.07-.44-.04-.13-.11-.25-.18-.35-.08-.1-.18-.18-.29-.23-.12-.06-.25-.09-.39-.09s-.27.03-.39.09c-.12.06-.22.14-.3.23-.08.1-.15.22-.19.35-.04.13-.07.28-.07.44s.02.31.07.45.11.26.19.36c.08.1.18.18.3.23.12.05.25.08.39.08s.27-.03.39-.08c.11-.06.21-.13.29-.23.08-.1.14-.22.19-.36s.07-.29.07-.45Z"/>
      <path d="M523.13,180.82v-4.42h.6v.49c.09-.16.22-.29.4-.4.18-.11.4-.17.66-.17.24,0,.45.04.63.13.18.09.33.2.46.35.12.15.21.33.28.53.06.2.1.42.1.65s-.03.46-.1.66c-.07.2-.16.38-.29.53-.13.15-.28.27-.46.36-.18.09-.39.13-.62.13-.25,0-.46-.05-.63-.15-.17-.1-.31-.22-.39-.36v1.68h-.61ZM525.61,177.98c0-.16-.02-.3-.07-.44-.04-.13-.11-.25-.18-.35-.08-.1-.18-.18-.29-.23-.12-.06-.25-.09-.39-.09s-.27.03-.39.09c-.12.06-.22.14-.3.23-.08.1-.15.22-.19.35-.04.13-.07.28-.07.44s.02.31.07.45.11.26.19.36c.08.1.18.18.3.23.12.05.25.08.39.08s.27-.03.39-.08c.11-.06.21-.13.29-.23.08-.1.14-.22.19-.36s.07-.29.07-.45Z"/>
      <path d="M529.8,178.66c-.04.14-.11.27-.19.39-.09.12-.19.23-.31.32-.12.09-.26.16-.41.21-.15.05-.32.08-.51.08-.21,0-.41-.04-.61-.11s-.36-.18-.51-.33c-.15-.15-.26-.32-.35-.53s-.13-.45-.13-.72c0-.25.04-.48.12-.68.08-.2.19-.38.33-.53.14-.15.3-.26.48-.34.18-.08.38-.12.57-.12.24,0,.46.04.65.12.19.08.35.19.48.34.13.14.22.32.29.52s.1.43.1.68c0,.04,0,.08,0,.11,0,.04,0,.06,0,.09h-2.38c0,.14.03.27.08.39.05.12.12.22.2.31.09.09.19.15.3.2.12.05.24.07.37.07.26,0,.46-.06.59-.18.14-.12.23-.27.3-.45l.53.18ZM529.17,177.66c0-.23-.09-.42-.23-.58-.15-.16-.36-.23-.64-.23-.13,0-.25.02-.35.07-.1.05-.19.11-.26.18-.07.08-.13.16-.17.26-.04.1-.07.2-.07.3h1.73Z"/>
      <path d="M532.83,179.08c-.07.15-.19.29-.36.4-.17.11-.37.17-.62.17-.23,0-.44-.04-.63-.13-.18-.09-.34-.2-.47-.36-.13-.15-.23-.33-.3-.53s-.11-.42-.11-.66c0-.22.04-.44.11-.64s.17-.38.31-.53.29-.27.47-.36.39-.14.61-.14c.14,0,.26.02.37.05.11.03.2.07.28.12.08.05.15.11.2.17.05.06.09.13.12.19v-2.05h.61v4.18c0,.15,0,.28.01.39,0,.11.01.17.02.2h-.6s-.02-.09-.02-.17c0-.08-.01-.16-.01-.26v-.05ZM530.97,177.97c0,.16.02.31.06.45.04.14.1.26.18.36s.18.18.29.24c.11.06.25.09.39.09.14,0,.27-.03.38-.09.11-.06.21-.14.29-.24.08-.1.14-.22.18-.36.04-.14.06-.29.06-.45,0-.33-.08-.6-.24-.8-.16-.2-.38-.3-.67-.3-.14,0-.27.03-.39.08-.12.05-.21.13-.3.23-.08.1-.14.22-.19.35-.04.14-.07.29-.07.45Z"/>
      <path d="M535.58,177.48c0,.36-.03.69-.1,1s-.15.59-.26.84c-.11.26-.24.49-.4.71-.15.21-.32.41-.49.59l-.38-.33c.33-.37.6-.79.8-1.25s.3-.98.3-1.56c0-.29-.03-.56-.08-.82s-.12-.5-.22-.74c-.09-.23-.21-.45-.35-.66-.14-.21-.29-.4-.45-.59l.38-.33c.18.18.34.38.49.59.15.21.29.45.4.71.11.26.2.54.26.84.06.31.1.64.1,1Z"/>
    </g>
  </g>
</svg>