<?xml version="1.0" encoding="UTF-8"?>
<svg id="Layer_1" data-name="Layer 1" xmlns="http://www.w3.org/2000/svg" viewBox="0 0 911.96 458.06">
  <defs>
    <style>
      .cls-1 {
        fill: #c00000;
      }

      .cls-2 {
        fill: #fff;
      }

      .cls-3 {
        fill: #92d050;
      }

      .cls-4 {
        fill: #cce6fe;
      }

      .cls-5 {
        fill: #0082fc;
      }

      .cls-6 {
        fill: #80c1fe;
      }
    </style>
  </defs>
  <g>
    <path d="M11.25,65.73v-14.55h4.75c1.03,0,1.89.2,2.59.6.7.4,1.22.94,1.58,1.62.36.68.53,1.44.53,2.29s-.18,1.63-.53,2.31c-.35.68-.88,1.22-1.58,1.62-.7.4-1.56.6-2.58.6h-3.37v5.53h-1.39ZM12.63,58.96h3.31c1.13,0,1.97-.31,2.53-.93.56-.62.84-1.4.84-2.35s-.28-1.72-.84-2.33c-.56-.62-1.41-.93-2.54-.93h-3.3v6.54Z"/>
    <path d="M23.55,65.73v-10.92h1.29v1.7h.1c.21-.56.59-1.01,1.14-1.34.54-.34,1.15-.5,1.83-.5.1,0,.22,0,.35,0,.13,0,.24,0,.32.01v1.33s-.14-.02-.29-.04c-.15-.02-.31-.03-.49-.03-.85,0-1.54.26-2.09.79-.55.52-.83,1.19-.83,2v7h-1.33Z"/>
    <path d="M34.66,65.96c-.95,0-1.79-.24-2.51-.72s-1.29-1.14-1.7-1.99-.62-1.82-.62-2.93.21-2.1.62-2.95.98-1.51,1.7-1.99,1.56-.72,2.51-.72,1.78.24,2.5.72c.73.48,1.29,1.14,1.7,1.99s.62,1.83.62,2.95-.21,2.08-.62,2.93-.98,1.51-1.7,1.99c-.73.48-1.56.72-2.5.72ZM34.66,64.76c.75,0,1.38-.2,1.9-.61s.91-.94,1.19-1.61.41-1.41.41-2.22-.14-1.56-.41-2.23-.67-1.21-1.19-1.62c-.52-.41-1.15-.61-1.89-.61s-1.37.2-1.89.61-.91.95-1.19,1.62-.41,1.42-.41,2.23.14,1.55.41,2.22c.27.67.67,1.21,1.19,1.61.52.4,1.15.61,1.89.61Z"/>
    <path d="M46.52,65.93c-.95,0-1.79-.24-2.51-.71s-1.29-1.13-1.7-1.98-.62-1.82-.62-2.92.21-2.1.62-2.95.98-1.51,1.7-1.99,1.56-.72,2.51-.72c.74,0,1.39.14,1.96.42.57.28,1.05.63,1.43,1.05.38.42.64.86.78,1.31l-1.26.39c-.08-.27-.25-.56-.49-.87s-.57-.57-.98-.78c-.41-.21-.89-.32-1.44-.32-.74,0-1.37.2-1.89.6s-.91.94-1.19,1.61-.41,1.42-.41,2.24.14,1.55.41,2.22.67,1.21,1.19,1.61,1.15.6,1.89.6c.57,0,1.05-.11,1.46-.33s.74-.49,1-.81.42-.61.5-.89l1.25.39c-.14.45-.4.89-.78,1.33s-.86.8-1.45,1.08c-.58.28-1.25.42-1.99.42Z"/>
    <path d="M57.87,65.96c-1.02,0-1.91-.24-2.65-.72-.75-.48-1.32-1.14-1.73-1.99-.41-.85-.61-1.82-.61-2.92s.2-2.08.6-2.93.96-1.52,1.68-2.01c.72-.49,1.55-.73,2.5-.73.79,0,1.55.2,2.26.59.71.39,1.29.99,1.73,1.79.44.8.66,1.82.66,3.06v.58h-8.1c.03,1.24.37,2.24,1.03,2.98.66.75,1.54,1.12,2.64,1.12.76,0,1.39-.18,1.88-.53s.83-.77,1.04-1.25l1.26.4c-.25.68-.73,1.28-1.45,1.8-.72.51-1.63.77-2.73.77ZM54.21,59.52h6.76c-.07-1.06-.4-1.94-.98-2.63-.58-.69-1.36-1.04-2.33-1.04-.66,0-1.24.17-1.74.5-.5.33-.9.78-1.2,1.33-.3.56-.47,1.17-.51,1.84Z"/>
    <path d="M68.94,65.96c-.89,0-1.67-.24-2.34-.71-.67-.47-1.19-1.13-1.57-1.98-.37-.85-.56-1.84-.56-2.97s.19-2.11.57-2.95c.38-.84.9-1.5,1.58-1.97s1.45-.71,2.34-.71c.66,0,1.22.12,1.66.36.44.24.8.53,1.07.87.27.35.48.68.62,1.02h.11v-5.73h1.32v14.55h-1.28v-2.04h-.15c-.14.34-.35.68-.62,1.04s-.63.65-1.08.88c-.45.24-1,.36-1.66.36ZM69.12,64.76c.7,0,1.3-.19,1.79-.58.49-.38.87-.91,1.12-1.59.26-.67.39-1.44.39-2.31s-.13-1.63-.39-2.29c-.26-.66-.63-1.19-1.12-1.56-.49-.38-1.09-.57-1.79-.57s-1.32.2-1.81.59c-.49.39-.86.92-1.12,1.59s-.38,1.42-.38,2.25.13,1.6.39,2.27c.26.67.63,1.21,1.12,1.61.49.4,1.09.6,1.8.6Z"/>
    <path d="M80.82,65.87c-1.11,0-2.01-.34-2.7-1.03s-1.04-1.68-1.04-2.97v-7.06h1.33v6.96c0,.89.25,1.6.75,2.11.5.52,1.17.78,2.01.78s1.58-.27,2.15-.82.86-1.29.86-2.23v-6.81h1.33v10.92h-1.29v-2.02c-.34.77-.81,1.32-1.41,1.66-.6.34-1.27.51-2,.51Z"/>
    <path d="M88.85,65.73v-10.92h1.29v1.7h.1c.21-.56.59-1.01,1.14-1.34.54-.34,1.15-.5,1.83-.5.1,0,.22,0,.35,0,.13,0,.24,0,.32.01v1.33s-.14-.02-.29-.04c-.15-.02-.31-.03-.49-.03-.85,0-1.54.26-2.09.79-.55.52-.83,1.19-.83,2v7h-1.33Z"/>
    <path d="M100.13,65.96c-1.02,0-1.91-.24-2.65-.72-.75-.48-1.32-1.14-1.73-1.99-.41-.85-.61-1.82-.61-2.92s.2-2.08.6-2.93.96-1.52,1.68-2.01c.72-.49,1.55-.73,2.5-.73.79,0,1.55.2,2.26.59.71.39,1.29.99,1.73,1.79.44.8.66,1.82.66,3.06v.58h-8.1c.03,1.24.37,2.24,1.03,2.98.66.75,1.54,1.12,2.64,1.12.76,0,1.39-.18,1.88-.53s.83-.77,1.04-1.25l1.26.4c-.25.68-.73,1.28-1.45,1.8-.72.51-1.63.77-2.73.77ZM96.48,59.52h6.76c-.07-1.06-.4-1.94-.98-2.63-.58-.69-1.36-1.04-2.33-1.04-.66,0-1.24.17-1.74.5-.5.33-.9.78-1.2,1.33-.3.56-.47,1.17-.51,1.84Z"/>
    <path d="M110.78,65.96c-1.07,0-1.96-.24-2.66-.73-.7-.48-1.15-1.19-1.34-2.1l1.27-.3c.16.66.47,1.15.93,1.47.47.32,1.06.48,1.78.48.83,0,1.49-.19,1.99-.56s.75-.83.75-1.39c0-.89-.59-1.47-1.78-1.76l-1.78-.43c-1.87-.45-2.8-1.42-2.8-2.9,0-.61.17-1.15.49-1.61.33-.46.78-.82,1.36-1.08s1.23-.39,1.97-.39c1.03,0,1.84.23,2.45.7.6.47,1.03,1.09,1.28,1.88l-1.21.31c-.17-.5-.45-.92-.84-1.25-.39-.33-.95-.49-1.67-.49s-1.32.17-1.79.52-.7.79-.7,1.33c0,.9.65,1.5,1.95,1.82l1.67.4c1.84.44,2.76,1.4,2.76,2.87,0,.62-.17,1.18-.52,1.66-.34.48-.83.86-1.44,1.13s-1.32.41-2.12.41Z"/>
  </g>
  <g>
    <path d="M55.79,173.3v-14.55h8.5v1.24h-7.11v5.37h6.66v1.24h-6.66v5.46h7.25v1.24h-8.63Z"/>
    <path d="M70.61,173.3l-4.17-10.92h1.45l2.52,6.87c.18.48.35.97.49,1.45s.29.97.44,1.44c.14-.48.29-.96.43-1.44s.31-.97.49-1.45l2.52-6.87h1.44l-4.17,10.92h-1.43Z"/>
    <path d="M82.59,173.53c-1.02,0-1.91-.24-2.65-.72s-1.32-1.14-1.73-1.99-.61-1.82-.61-2.92.2-2.08.6-2.93.96-1.52,1.68-2.01,1.55-.73,2.5-.73c.79,0,1.55.2,2.26.59s1.29.99,1.73,1.79.66,1.82.66,3.06v.58h-8.1c.03,1.24.37,2.24,1.03,2.98s1.54,1.12,2.64,1.12c.76,0,1.39-.18,1.88-.53s.83-.77,1.04-1.25l1.26.4c-.25.68-.73,1.28-1.45,1.8s-1.63.77-2.73.77ZM78.94,167.1h6.76c-.07-1.06-.4-1.94-.98-2.63s-1.36-1.04-2.33-1.04c-.66,0-1.24.17-1.74.5s-.9.78-1.2,1.33-.47,1.17-.51,1.84Z"/>
    <path d="M91.09,166.49v6.81h-1.33v-10.92h1.28v2.01c.34-.76.81-1.3,1.41-1.65s1.27-.51,2.01-.51c1.11,0,2.01.34,2.7,1.03s1.04,1.68,1.04,2.97v7.06h-1.32v-6.96c0-.89-.25-1.6-.75-2.11s-1.17-.78-2.01-.78-1.58.27-2.15.82-.86,1.29-.86,2.23Z"/>
    <path d="M105.22,162.38v1.15h-2.25v7.19c0,1.09.49,1.59,1.46,1.49.09,0,.2-.01.34-.03s.26-.05.38-.07l.27,1.14c-.28.09-.61.14-1,.16-.87.06-1.55-.15-2.04-.62s-.74-1.13-.74-1.98v-7.28h-1.62v-1.15h1.62v-2.6h1.33v2.6h2.25Z"/>
    <path d="M110.78,173.53c-1.07,0-1.96-.24-2.66-.73s-1.15-1.19-1.34-2.1l1.27-.3c.16.66.47,1.15.93,1.47s1.06.48,1.78.48c.83,0,1.49-.19,1.99-.56s.75-.83.75-1.39c0-.89-.59-1.47-1.78-1.76l-1.78-.43c-1.87-.45-2.8-1.42-2.8-2.9,0-.61.16-1.15.49-1.61s.78-.82,1.36-1.08,1.23-.39,1.97-.39c1.03,0,1.84.23,2.45.7s1.03,1.09,1.28,1.88l-1.21.31c-.17-.5-.45-.92-.84-1.25s-.95-.49-1.67-.49-1.32.17-1.79.52-.7.79-.7,1.33c0,.9.65,1.5,1.95,1.82l1.67.4c1.84.44,2.76,1.4,2.76,2.87,0,.62-.17,1.18-.52,1.66s-.83.86-1.44,1.13-1.32.41-2.12.41Z"/>
  </g>
  <g>
    <path d="M24.41,281.11c-1.49,0-2.68-.36-3.57-1.08s-1.38-1.67-1.46-2.84h1.42c.07.87.45,1.53,1.14,1.98.69.46,1.51.68,2.48.68.72,0,1.36-.12,1.92-.36.56-.24.99-.58,1.31-1.01s.48-.93.48-1.51c0-.73-.28-1.29-.83-1.67-.55-.38-1.29-.71-2.2-.99l-1.72-.5c-1.16-.34-2.05-.81-2.68-1.42-.62-.61-.94-1.38-.94-2.3,0-.79.21-1.48.63-2.08.42-.6.99-1.07,1.71-1.4.72-.33,1.53-.5,2.43-.5s1.73.17,2.43.51c.7.34,1.25.8,1.66,1.38.41.58.63,1.24.66,1.98h-1.36c-.08-.81-.44-1.45-1.06-1.91s-1.41-.7-2.36-.7-1.81.25-2.44.76c-.63.5-.94,1.14-.94,1.92,0,.5.14.92.42,1.25.28.34.64.61,1.08.83s.89.39,1.36.53l1.52.44c.62.18,1.24.42,1.85.72.61.31,1.11.71,1.51,1.22s.6,1.16.6,1.96-.2,1.49-.61,2.11c-.4.62-.98,1.11-1.74,1.47s-1.67.54-2.72.54Z"/>
    <path d="M36.16,281.02c-1.11,0-2.01-.34-2.7-1.03-.69-.69-1.04-1.68-1.04-2.97v-7.06h1.33v6.96c0,.89.25,1.6.75,2.11s1.17.78,2.01.78,1.58-.27,2.15-.82.86-1.29.86-2.23v-6.81h1.33v10.92h-1.29v-2.02c-.34.77-.81,1.32-1.41,1.66-.6.34-1.27.51-2,.51Z"/>
    <path d="M48.98,281.1c-.66,0-1.21-.12-1.65-.36-.44-.24-.8-.53-1.07-.88s-.48-.7-.62-1.04h-.15v2.04h-1.29v-14.55h1.33v5.73h.11c.14-.33.35-.67.62-1.02.27-.34.62-.64,1.06-.87.44-.24,1-.36,1.67-.36.89,0,1.67.24,2.34.71.67.47,1.2,1.13,1.58,1.97.38.84.57,1.83.57,2.95s-.19,2.12-.56,2.97-.9,1.51-1.57,1.98c-.67.47-1.46.71-2.35.71ZM48.8,279.9c.71,0,1.31-.2,1.81-.6.49-.4.87-.93,1.13-1.61s.39-1.43.39-2.27-.13-1.58-.38-2.25c-.25-.67-.63-1.2-1.12-1.59s-1.1-.59-1.82-.59-1.3.19-1.79.57c-.49.38-.87.9-1.12,1.56s-.39,1.43-.39,2.29.13,1.64.39,2.31.64,1.2,1.13,1.59c.49.38,1.09.58,1.78.58Z"/>
    <path d="M60.66,281.1c-1.02,0-1.91-.24-2.65-.72s-1.32-1.14-1.73-1.99c-.41-.85-.61-1.82-.61-2.92s.2-2.08.6-2.93c.4-.85.96-1.52,1.68-2.01s1.55-.73,2.5-.73c.79,0,1.55.2,2.26.59s1.29.99,1.73,1.79.66,1.82.66,3.06v.58h-8.1c.03,1.24.37,2.24,1.03,2.98.66.75,1.54,1.12,2.64,1.12.76,0,1.39-.18,1.88-.53s.83-.77,1.04-1.25l1.26.4c-.25.68-.73,1.28-1.45,1.8-.72.51-1.63.77-2.73.77ZM57.01,274.67h6.76c-.07-1.06-.4-1.94-.98-2.63s-1.36-1.04-2.33-1.04c-.66,0-1.24.17-1.74.5s-.9.78-1.2,1.33-.47,1.17-.51,1.84Z"/>
    <path d="M70.61,280.87l-4.17-10.92h1.45l2.52,6.87c.18.48.35.97.49,1.45.14.49.29.97.44,1.44.14-.47.29-.96.43-1.44.14-.48.31-.97.49-1.45l2.52-6.87h1.44l-4.17,10.92h-1.43Z"/>
    <path d="M82.59,281.1c-1.02,0-1.91-.24-2.65-.72s-1.32-1.14-1.73-1.99c-.41-.85-.61-1.82-.61-2.92s.2-2.08.6-2.93c.4-.85.96-1.52,1.68-2.01s1.55-.73,2.5-.73c.79,0,1.55.2,2.26.59s1.29.99,1.73,1.79.66,1.82.66,3.06v.58h-8.1c.03,1.24.37,2.24,1.03,2.98.66.75,1.54,1.12,2.64,1.12.76,0,1.39-.18,1.88-.53s.83-.77,1.04-1.25l1.26.4c-.25.68-.73,1.28-1.45,1.8-.72.51-1.63.77-2.73.77ZM78.94,274.67h6.76c-.07-1.06-.4-1.94-.98-2.63s-1.36-1.04-2.33-1.04c-.66,0-1.24.17-1.74.5s-.9.78-1.2,1.33-.47,1.17-.51,1.84Z"/>
    <path d="M91.09,274.06v6.81h-1.33v-10.92h1.28v2.01c.34-.75.81-1.3,1.41-1.65s1.27-.51,2.01-.51c1.11,0,2.01.34,2.7,1.03.69.69,1.04,1.68,1.04,2.97v7.06h-1.32v-6.96c0-.89-.25-1.6-.75-2.11s-1.17-.78-2.01-.78-1.58.27-2.15.82-.86,1.29-.86,2.23Z"/>
    <path d="M105.22,269.95v1.15h-2.25v7.19c0,1.09.49,1.59,1.46,1.49.09,0,.2-.01.34-.03.13-.02.26-.05.38-.07l.27,1.14c-.28.09-.61.14-1,.16-.87.06-1.55-.15-2.04-.62-.49-.47-.74-1.13-.74-1.98v-7.28h-1.62v-1.15h1.62v-2.6h1.33v2.6h2.25Z"/>
    <path d="M110.78,281.1c-1.07,0-1.96-.24-2.66-.73-.7-.48-1.15-1.19-1.34-2.1l1.27-.3c.16.66.47,1.15.93,1.47s1.06.48,1.78.48c.83,0,1.49-.19,1.99-.56s.75-.83.75-1.39c0-.88-.59-1.47-1.78-1.76l-1.78-.43c-1.87-.45-2.8-1.42-2.8-2.9,0-.61.16-1.15.49-1.61.33-.46.78-.82,1.36-1.08.58-.26,1.23-.39,1.97-.39,1.03,0,1.84.23,2.45.7.6.47,1.03,1.09,1.28,1.88l-1.21.31c-.17-.5-.45-.92-.84-1.25-.39-.33-.95-.49-1.67-.49s-1.32.17-1.79.52c-.47.35-.7.79-.7,1.33,0,.9.65,1.5,1.95,1.82l1.67.4c1.84.44,2.76,1.4,2.76,2.87,0,.62-.17,1.18-.52,1.66-.35.48-.83.86-1.44,1.13s-1.32.41-2.12.41Z"/>
  </g>
  <g>
    <path d="M69.86,365.31c-1.49,0-2.68-.36-3.57-1.08s-1.38-1.67-1.46-2.84h1.42c.07.87.45,1.53,1.14,1.98.69.46,1.51.68,2.48.68.72,0,1.36-.12,1.92-.36.56-.24.99-.58,1.31-1.01s.48-.93.48-1.51c0-.73-.28-1.29-.83-1.67-.55-.38-1.29-.71-2.2-.99l-1.72-.5c-1.16-.34-2.05-.81-2.68-1.42-.62-.61-.94-1.38-.94-2.3,0-.79.21-1.48.63-2.08.42-.6.99-1.07,1.71-1.4.72-.33,1.53-.5,2.43-.5s1.73.17,2.43.51c.7.34,1.25.8,1.66,1.38.41.58.63,1.24.66,1.98h-1.36c-.08-.81-.44-1.45-1.06-1.91s-1.41-.7-2.36-.7-1.81.25-2.44.76c-.63.5-.94,1.14-.94,1.92,0,.5.14.92.42,1.25.28.34.64.61,1.08.83s.89.39,1.36.53l1.52.44c.62.18,1.24.42,1.85.72.61.31,1.11.71,1.51,1.22s.6,1.16.6,1.96-.2,1.49-.61,2.11c-.4.62-.98,1.11-1.74,1.47s-1.67.54-2.72.54Z"/>
    <path d="M81.56,354.14v1.15h-2.25v7.19c0,1.09.49,1.59,1.46,1.49.09,0,.2-.01.34-.03.13-.02.26-.05.38-.07l.27,1.14c-.28.09-.61.14-1,.16-.87.06-1.55-.15-2.04-.62-.49-.47-.74-1.13-.74-1.98v-7.28h-1.62v-1.15h1.62v-2.6h1.33v2.6h2.25Z"/>
    <path d="M88.09,365.3c-1.02,0-1.91-.24-2.65-.72s-1.32-1.14-1.73-1.99c-.41-.85-.61-1.82-.61-2.92s.2-2.08.6-2.93c.4-.85.96-1.52,1.68-2.01s1.55-.73,2.5-.73c.79,0,1.55.2,2.26.59s1.29.99,1.73,1.79.66,1.82.66,3.06v.58h-8.1c.03,1.24.37,2.24,1.03,2.98.66.75,1.54,1.12,2.64,1.12.76,0,1.39-.18,1.88-.53s.83-.77,1.04-1.25l1.26.4c-.25.68-.73,1.28-1.45,1.8-.72.51-1.63.77-2.73.77ZM84.44,358.86h6.76c-.07-1.06-.4-1.94-.98-2.63s-1.36-1.04-2.33-1.04c-.66,0-1.24.17-1.74.5s-.9.78-1.2,1.33-.47,1.17-.51,1.84Z"/>
    <path d="M95.26,369.14v-15h1.29v2.1h.15c.14-.33.35-.67.62-1.02.27-.34.62-.64,1.06-.87.44-.24,1-.36,1.67-.36.89,0,1.67.24,2.34.71.67.47,1.2,1.13,1.58,1.97.38.84.57,1.83.57,2.95s-.19,2.12-.56,2.97-.9,1.51-1.57,1.98c-.67.47-1.46.71-2.35.71-.66,0-1.21-.12-1.65-.36-.44-.24-.8-.53-1.07-.88s-.48-.7-.62-1.04h-.11v6.12h-1.33ZM99.87,364.09c.71,0,1.31-.2,1.81-.6.49-.4.87-.93,1.13-1.61s.39-1.43.39-2.27-.13-1.58-.38-2.25c-.25-.67-.63-1.2-1.12-1.59s-1.1-.59-1.82-.59-1.3.19-1.79.57c-.49.38-.87.9-1.12,1.56s-.39,1.43-.39,2.29.13,1.64.39,2.31.64,1.2,1.13,1.59c.49.38,1.09.58,1.78.58Z"/>
    <path d="M110.78,365.3c-1.07,0-1.96-.24-2.66-.73-.7-.48-1.15-1.19-1.34-2.1l1.27-.3c.16.66.47,1.15.93,1.47s1.06.48,1.78.48c.83,0,1.49-.19,1.99-.56s.75-.83.75-1.39c0-.88-.59-1.47-1.78-1.76l-1.78-.43c-1.87-.45-2.8-1.42-2.8-2.9,0-.61.16-1.15.49-1.61.33-.46.78-.82,1.36-1.08.58-.26,1.23-.39,1.97-.39,1.03,0,1.84.23,2.45.7.6.47,1.03,1.09,1.28,1.88l-1.21.31c-.17-.5-.45-.92-.84-1.25-.39-.33-.95-.49-1.67-.49s-1.32.17-1.79.52c-.47.35-.7.79-.7,1.33,0,.9.65,1.5,1.95,1.82l1.67.4c1.84.44,2.76,1.4,2.76,2.87,0,.62-.17,1.18-.52,1.66-.35.48-.83.86-1.44,1.13s-1.32.41-2.12.41Z"/>
  </g>
  <g>
    <path d="M58.18,412.57v-1.24h10.61v1.24h-4.6v13.31h-1.39v-13.31h-4.62Z"/>
    <path d="M70.43,425.88l5.23-7.43-4.97-7.12h1.62l2.48,3.57c.38.55.69,1.01.92,1.38s.49.79.76,1.27c.26-.48.51-.9.75-1.27.24-.38.55-.83.93-1.37l2.52-3.57h1.58l-4.97,7.08,5.21,7.47h-1.61l-2.85-4.07c-.34-.48-.62-.9-.85-1.25s-.47-.75-.71-1.2c-.25.44-.49.83-.72,1.19-.23.36-.52.78-.85,1.26l-2.87,4.07h-1.59Z"/>
    <path d="M89.52,410.64l-4.69,17.42h-1.24l4.69-17.42h1.24Z"/>
    <path d="M91.96,425.88v-14.55h4.75c1.54,0,2.71.41,3.51,1.23s1.19,1.87,1.19,3.15c0,.97-.23,1.81-.69,2.51-.46.71-1.14,1.21-2.04,1.51l3.34,6.14h-1.6l-3.15-5.87c-.18.01-.35.02-.54.02h-3.37v5.85h-1.39ZM93.35,418.78h3.31c1.13,0,1.97-.28,2.53-.83.56-.55.84-1.3.84-2.24s-.28-1.71-.84-2.29c-.56-.57-1.41-.86-2.54-.86h-3.3v6.21Z"/>
    <path d="M103.31,425.88l5.23-7.43-4.97-7.12h1.62l2.48,3.57c.38.55.69,1.01.92,1.38s.49.79.76,1.27c.26-.48.51-.9.75-1.27.24-.38.55-.83.93-1.37l2.52-3.57h1.58l-4.97,7.08,5.21,7.47h-1.61l-2.85-4.07c-.34-.48-.62-.9-.85-1.25s-.47-.75-.71-1.2c-.25.44-.49.83-.72,1.19-.23.36-.52.78-.85,1.26l-2.87,4.07h-1.59Z"/>
  </g>
  <rect x="147.68" y="12.74" width="746.12" height="93.51"/>
  <rect class="cls-5" x="147.68" y="120.31" width="340.87" height="93.51"/>
  <rect class="cls-6" x="147.67" y="227.89" width="139.95" height="93.51"/>
  <rect class="cls-6" x="318.11" y="227.89" width="139.95" height="93.51"/>
  <rect class="cls-4" x="147.68" y="335.46" width="39.88" height="46.76"/>
  <rect class="cls-4" x="197.4" y="335.46" width="39.88" height="46.76"/>
  <rect class="cls-4" x="318.43" y="335.46" width="39.88" height="46.76"/>
  <rect class="cls-4" x="417.86" y="335.46" width="39.88" height="46.76"/>
  <rect class="cls-4" x="368.14" y="335.46" width="39.88" height="46.76"/>
  <rect class="cls-3" x="149.46" y="396.27" width="9.05" height="46.76"/>
  <rect class="cls-1" x="162.17" y="396.27" width="9.05" height="46.76"/>
  <rect class="cls-3" x="197.4" y="396.27" width="9.05" height="46.76"/>
  <rect class="cls-1" x="210.11" y="396.27" width="9.05" height="46.76"/>
  <rect class="cls-3" x="318.11" y="396.27" width="9.05" height="46.76"/>
  <rect class="cls-1" x="330.82" y="396.27" width="9.05" height="46.76"/>
  <rect class="cls-3" x="368.88" y="395.36" width="9.05" height="46.76"/>
  <rect class="cls-1" x="381.59" y="395.36" width="9.05" height="46.76"/>
  <rect class="cls-3" x="417.86" y="395.36" width="9.05" height="46.76"/>
  <rect class="cls-1" x="430.58" y="395.36" width="9.05" height="46.76"/>
  <g>
    <path class="cls-2" d="M179.72,280.51c-1.12,0-2.01-.27-2.68-.81s-1.03-1.25-1.09-2.13h1.06c.05.65.34,1.15.85,1.49s1.13.51,1.86.51c.54,0,1.02-.09,1.44-.27.42-.18.75-.43.99-.75s.36-.7.36-1.13c0-.55-.21-.96-.62-1.25s-.96-.53-1.65-.74l-1.29-.37c-.87-.25-1.54-.61-2.01-1.07-.47-.46-.7-1.03-.7-1.72,0-.59.16-1.11.47-1.56.32-.45.74-.8,1.29-1.05.54-.25,1.15-.38,1.82-.38s1.29.13,1.82.38c.52.25.94.6,1.25,1.03.3.43.47.93.49,1.49h-1.02c-.06-.61-.33-1.08-.8-1.44s-1.06-.53-1.77-.53-1.36.19-1.83.57c-.47.38-.71.86-.71,1.44,0,.38.11.69.32.94.21.25.48.46.81.62.33.16.67.29,1.02.4l1.14.33c.47.13.93.31,1.39.54s.83.53,1.14.92c.3.38.45.87.45,1.47s-.15,1.12-.45,1.58c-.3.46-.74.83-1.31,1.1-.57.27-1.25.41-2.04.41Z"/>
    <path class="cls-2" d="M188.53,280.44c-.83,0-1.5-.26-2.03-.77-.52-.51-.78-1.26-.78-2.23v-5.3h1v5.22c0,.67.19,1.2.56,1.59.38.39.88.58,1.51.58s1.18-.21,1.62-.62c.43-.41.65-.97.65-1.67v-5.1h1v8.19h-.97v-1.52c-.25.58-.61.99-1.05,1.24-.45.25-.95.38-1.5.38Z"/>
    <path class="cls-2" d="M198.15,280.5c-.49,0-.91-.09-1.24-.27-.33-.18-.6-.4-.81-.66s-.36-.52-.47-.78h-.11v1.53h-.97v-10.91h1v4.3h.08c.11-.25.26-.5.46-.76s.47-.48.8-.66c.33-.18.75-.27,1.25-.27.66,0,1.25.18,1.75.53.5.35.9.85,1.18,1.48.28.63.42,1.37.42,2.22s-.14,1.59-.42,2.23c-.28.64-.67,1.13-1.18,1.49-.5.35-1.09.53-1.76.53ZM198.02,279.6c.53,0,.98-.15,1.35-.45s.65-.7.85-1.21c.19-.5.29-1.07.29-1.7s-.1-1.19-.29-1.69c-.19-.5-.47-.9-.84-1.19s-.83-.44-1.36-.44-.98.14-1.34.42-.65.67-.84,1.17c-.19.5-.29,1.07-.29,1.72s.1,1.23.29,1.73c.2.51.48.9.85,1.19.37.29.81.43,1.34.43Z"/>
    <path class="cls-2" d="M206.91,280.5c-.77,0-1.43-.18-1.99-.54-.56-.36-.99-.86-1.3-1.49-.31-.63-.46-1.36-.46-2.19s.15-1.56.45-2.2c.3-.64.72-1.14,1.26-1.51.54-.37,1.17-.55,1.88-.55.6,0,1.16.15,1.69.44s.96.74,1.3,1.34.5,1.37.5,2.29v.43h-6.07c.02.93.28,1.68.77,2.24.49.56,1.15.84,1.98.84.57,0,1.04-.13,1.41-.4s.62-.58.78-.94l.94.3c-.19.51-.55.96-1.09,1.35s-1.22.58-2.05.58ZM204.17,275.68h5.07c-.05-.8-.3-1.45-.73-1.97-.43-.52-1.02-.78-1.75-.78-.49,0-.93.12-1.3.37s-.68.58-.9,1c-.22.42-.35.88-.38,1.38Z"/>
    <path class="cls-2" d="M214.37,280.33l-3.13-8.19h1.08l1.89,5.15c.14.36.26.72.37,1.09.11.36.22.72.33,1.08.11-.36.21-.72.32-1.08.11-.36.23-.73.37-1.09l1.89-5.15h1.08l-3.13,8.19h-1.07Z"/>
    <path class="cls-2" d="M223.36,280.5c-.77,0-1.43-.18-1.99-.54-.56-.36-.99-.86-1.3-1.49-.31-.63-.46-1.36-.46-2.19s.15-1.56.45-2.2c.3-.64.72-1.14,1.26-1.51.54-.37,1.17-.55,1.88-.55.6,0,1.16.15,1.69.44s.96.74,1.3,1.34.5,1.37.5,2.29v.43h-6.07c.02.93.28,1.68.77,2.24.49.56,1.15.84,1.98.84.57,0,1.04-.13,1.41-.4s.62-.58.78-.94l.94.3c-.19.51-.55.96-1.09,1.35s-1.22.58-2.05.58ZM220.62,275.68h5.07c-.05-.8-.3-1.45-.73-1.97-.43-.52-1.02-.78-1.75-.78-.49,0-.93.12-1.3.37s-.68.58-.9,1c-.22.42-.35.88-.38,1.38Z"/>
    <path class="cls-2" d="M229.73,275.22v5.11h-1v-8.19h.96v1.51c.26-.57.61-.98,1.05-1.23.45-.26.95-.38,1.51-.38.83,0,1.5.26,2.02.77.52.51.78,1.26.78,2.23v5.29h-.99v-5.22c0-.67-.19-1.2-.56-1.58-.38-.39-.88-.58-1.51-.58s-1.18.21-1.62.62c-.43.41-.65.97-.65,1.67Z"/>
    <path class="cls-2" d="M240.33,272.14v.86h-1.68v5.39c0,.82.37,1.19,1.1,1.12.07,0,.15,0,.25-.03.1-.02.19-.04.28-.05l.21.86c-.21.07-.46.11-.75.12-.65.04-1.16-.11-1.53-.46-.37-.35-.56-.85-.56-1.48v-5.46h-1.22v-.86h1.22v-1.95h1v1.95h1.68Z"/>
    <path class="cls-2" d="M249.64,280.47c-1.16,0-2.07-.49-2.71-1.48-.64-.98-.97-2.36-.97-4.12s.32-3.13.97-4.12,1.55-1.49,2.71-1.49,2.05.5,2.7,1.49.97,2.37.97,4.12-.32,3.14-.97,4.12c-.64.98-1.55,1.48-2.7,1.48ZM249.64,279.55c.84,0,1.49-.41,1.96-1.23.47-.82.7-1.97.7-3.44s-.23-2.63-.7-3.45c-.47-.83-1.12-1.24-1.96-1.24s-1.5.41-1.97,1.24c-.47.83-.7,1.98-.7,3.45s.23,2.62.7,3.44c.47.82,1.13,1.23,1.97,1.23Z"/>
  </g>
  <g>
    <path class="cls-2" d="M285.26,173.44c-.92,0-1.73-.23-2.45-.69s-1.27-1.11-1.68-1.94c-.41-.84-.61-1.83-.61-2.96s.2-2.13.61-2.97.96-1.49,1.68-1.95,1.53-.69,2.45-.69c.78,0,1.47.16,2.08.47.61.31,1.11.74,1.49,1.28.39.54.64,1.15.76,1.82h-1.04c-.1-.5-.31-.94-.61-1.34-.3-.39-.68-.7-1.14-.93s-.97-.34-1.54-.34c-.68,0-1.31.18-1.87.54-.56.36-1.01.88-1.35,1.57s-.5,1.53-.5,2.53.17,1.85.51,2.53.79,1.21,1.35,1.56,1.18.53,1.87.53c.57,0,1.08-.11,1.54-.34.46-.23.84-.54,1.14-.93.3-.39.51-.84.61-1.33h1.04c-.11.66-.36,1.27-.75,1.81-.39.54-.89.97-1.49,1.29-.61.32-1.3.48-2.08.48Z"/>
    <path class="cls-2" d="M295.22,173.48c-1.12,0-2.01-.27-2.68-.81s-1.03-1.25-1.09-2.13h1.06c.05.65.34,1.15.85,1.49s1.13.51,1.86.51c.54,0,1.02-.09,1.44-.27.42-.18.75-.43.99-.75s.36-.7.36-1.13c0-.55-.21-.96-.62-1.25s-.96-.53-1.65-.74l-1.29-.37c-.87-.25-1.54-.61-2.01-1.07-.47-.46-.7-1.03-.7-1.72,0-.59.16-1.11.47-1.56.32-.45.74-.8,1.29-1.05.54-.25,1.15-.38,1.82-.38s1.29.13,1.82.38c.52.25.94.6,1.25,1.03.3.43.47.93.49,1.49h-1.02c-.06-.61-.33-1.08-.8-1.44s-1.06-.53-1.77-.53-1.36.19-1.83.57c-.47.38-.71.86-.71,1.44,0,.38.11.69.32.94.21.25.48.46.81.62.33.16.67.29,1.02.4l1.14.33c.47.13.93.31,1.39.54s.83.53,1.14.92c.3.38.45.87.45,1.47s-.15,1.12-.45,1.58c-.3.46-.74.83-1.31,1.1-.57.27-1.25.41-2.04.41Z"/>
    <path class="cls-2" d="M305.63,173.3v-10.91h6.37v.93h-5.33v4.03h5v.93h-5v4.09h5.43v.93h-6.47Z"/>
    <path class="cls-2" d="M316.75,173.3l-3.13-8.19h1.08l1.89,5.15c.14.36.26.72.37,1.09.11.36.22.72.33,1.08.11-.36.21-.72.32-1.08.11-.36.23-.73.37-1.09l1.89-5.15h1.08l-3.13,8.19h-1.07Z"/>
    <path class="cls-2" d="M325.74,173.47c-.77,0-1.43-.18-1.99-.54-.56-.36-.99-.86-1.3-1.49-.31-.63-.46-1.36-.46-2.19s.15-1.56.45-2.2c.3-.64.72-1.14,1.26-1.51.54-.37,1.17-.55,1.88-.55.6,0,1.16.15,1.69.44s.96.74,1.3,1.34.5,1.37.5,2.29v.43h-6.07c.02.93.28,1.68.77,2.24.49.56,1.15.84,1.98.84.57,0,1.04-.13,1.41-.4s.62-.58.78-.94l.94.3c-.19.51-.55.96-1.09,1.35s-1.22.58-2.05.58ZM323,168.65h5.07c-.05-.8-.3-1.45-.73-1.97-.43-.52-1.02-.78-1.75-.78-.49,0-.93.12-1.3.37s-.68.58-.9,1c-.22.42-.35.88-.38,1.38Z"/>
    <path class="cls-2" d="M332.11,168.19v5.11h-1v-8.19h.96v1.51c.26-.57.61-.98,1.05-1.23.45-.26.95-.38,1.51-.38.83,0,1.5.26,2.02.77.52.51.78,1.26.78,2.23v5.29h-.99v-5.22c0-.67-.19-1.2-.56-1.58-.38-.39-.88-.58-1.51-.58s-1.18.21-1.62.62c-.43.41-.65.97-.65,1.67Z"/>
    <path class="cls-2" d="M342.71,165.11v.86h-1.68v5.39c0,.82.37,1.19,1.1,1.12.07,0,.15,0,.25-.03.1-.02.19-.04.28-.05l.21.86c-.21.07-.46.11-.75.12-.65.04-1.16-.11-1.53-.46-.37-.35-.56-.85-.56-1.48v-5.46h-1.22v-.86h1.22v-1.95h1v1.95h1.68Z"/>
    <path class="cls-2" d="M352.02,173.44c-1.16,0-2.07-.49-2.71-1.48-.64-.98-.97-2.36-.97-4.12s.32-3.13.97-4.12,1.55-1.49,2.71-1.49,2.05.5,2.7,1.49.97,2.37.97,4.12-.32,3.14-.97,4.12c-.64.98-1.55,1.48-2.7,1.48ZM352.02,172.52c.84,0,1.49-.41,1.96-1.23.47-.82.7-1.97.7-3.44s-.23-2.63-.7-3.45c-.47-.83-1.12-1.24-1.96-1.24s-1.5.41-1.97,1.24c-.47.83-.7,1.98-.7,3.45s.23,2.62.7,3.44c.47.82,1.13,1.23,1.97,1.23Z"/>
  </g>
  <g>
    <path class="cls-2" d="M357.41,280.51c-1.12,0-2.01-.27-2.68-.81s-1.03-1.25-1.09-2.13h1.06c.05.65.34,1.15.85,1.49s1.13.51,1.86.51c.54,0,1.02-.09,1.44-.27.42-.18.75-.43.99-.75s.36-.7.36-1.13c0-.55-.21-.96-.62-1.25s-.96-.53-1.65-.74l-1.29-.37c-.87-.25-1.54-.61-2.01-1.07-.47-.46-.7-1.03-.7-1.72,0-.59.16-1.11.47-1.56.32-.45.74-.8,1.29-1.05.54-.25,1.15-.38,1.82-.38s1.29.13,1.82.38c.52.25.94.6,1.25,1.03.3.43.47.93.49,1.49h-1.02c-.06-.61-.33-1.08-.8-1.44s-1.06-.53-1.77-.53-1.36.19-1.83.57c-.47.38-.71.86-.71,1.44,0,.38.11.69.32.94.21.25.48.46.81.62.33.16.67.29,1.02.4l1.14.33c.47.13.93.31,1.39.54s.83.53,1.14.92c.3.38.45.87.45,1.47s-.15,1.12-.45,1.58c-.3.46-.74.83-1.31,1.1-.57.27-1.25.41-2.04.41Z"/>
    <path class="cls-2" d="M366.22,280.44c-.83,0-1.5-.26-2.03-.77-.52-.51-.78-1.26-.78-2.23v-5.3h1v5.22c0,.67.19,1.2.56,1.59.38.39.88.58,1.51.58s1.18-.21,1.62-.62c.43-.41.65-.97.65-1.67v-5.1h1v8.19h-.97v-1.52c-.25.58-.61.99-1.05,1.24-.45.25-.95.38-1.5.38Z"/>
    <path class="cls-2" d="M375.83,280.5c-.49,0-.91-.09-1.24-.27-.33-.18-.6-.4-.81-.66s-.36-.52-.47-.78h-.11v1.53h-.97v-10.91h1v4.3h.08c.11-.25.26-.5.46-.76s.47-.48.8-.66c.33-.18.75-.27,1.25-.27.66,0,1.25.18,1.75.53.5.35.9.85,1.18,1.48.28.63.42,1.37.42,2.22s-.14,1.59-.42,2.23c-.28.64-.67,1.13-1.18,1.49-.5.35-1.09.53-1.76.53ZM375.7,279.6c.53,0,.98-.15,1.35-.45s.65-.7.85-1.21c.19-.5.29-1.07.29-1.7s-.1-1.19-.29-1.69c-.19-.5-.47-.9-.84-1.19s-.83-.44-1.36-.44-.98.14-1.34.42-.65.67-.84,1.17c-.19.5-.29,1.07-.29,1.72s.1,1.23.29,1.73c.2.51.48.9.85,1.19.37.29.81.43,1.34.43Z"/>
    <path class="cls-2" d="M384.59,280.5c-.77,0-1.43-.18-1.99-.54-.56-.36-.99-.86-1.3-1.49-.31-.63-.46-1.36-.46-2.19s.15-1.56.45-2.2c.3-.64.72-1.14,1.26-1.51.54-.37,1.17-.55,1.88-.55.6,0,1.16.15,1.69.44s.96.74,1.3,1.34.5,1.37.5,2.29v.43h-6.07c.02.93.28,1.68.77,2.24.49.56,1.15.84,1.98.84.57,0,1.04-.13,1.41-.4s.62-.58.78-.94l.94.3c-.19.51-.55.96-1.09,1.35s-1.22.58-2.05.58ZM381.85,275.68h5.07c-.05-.8-.3-1.45-.73-1.97-.43-.52-1.02-.78-1.75-.78-.49,0-.93.12-1.3.37s-.68.58-.9,1c-.22.42-.35.88-.38,1.38Z"/>
    <path class="cls-2" d="M392.06,280.33l-3.13-8.19h1.08l1.89,5.15c.14.36.26.72.37,1.09.11.36.22.72.33,1.08.11-.36.21-.72.32-1.08.11-.36.23-.73.37-1.09l1.89-5.15h1.08l-3.13,8.19h-1.07Z"/>
    <path class="cls-2" d="M401.04,280.5c-.77,0-1.43-.18-1.99-.54-.56-.36-.99-.86-1.3-1.49-.31-.63-.46-1.36-.46-2.19s.15-1.56.45-2.2c.3-.64.72-1.14,1.26-1.51.54-.37,1.17-.55,1.88-.55.6,0,1.16.15,1.69.44s.96.74,1.3,1.34.5,1.37.5,2.29v.43h-6.07c.02.93.28,1.68.77,2.24.49.56,1.15.84,1.98.84.57,0,1.04-.13,1.41-.4s.62-.58.78-.94l.94.3c-.19.51-.55.96-1.09,1.35s-1.22.58-2.05.58ZM398.31,275.68h5.07c-.05-.8-.3-1.45-.73-1.97-.43-.52-1.02-.78-1.75-.78-.49,0-.93.12-1.3.37s-.68.58-.9,1c-.22.42-.35.88-.38,1.38Z"/>
    <path class="cls-2" d="M407.42,275.22v5.11h-1v-8.19h.96v1.51c.26-.57.61-.98,1.05-1.23.45-.26.95-.38,1.51-.38.83,0,1.5.26,2.02.77.52.51.78,1.26.78,2.23v5.29h-.99v-5.22c0-.67-.19-1.2-.56-1.58-.38-.39-.88-.58-1.51-.58s-1.18.21-1.62.62c-.43.41-.65.97-.65,1.67Z"/>
    <path class="cls-2" d="M418.01,272.14v.86h-1.68v5.39c0,.82.37,1.19,1.1,1.12.07,0,.15,0,.25-.03.1-.02.19-.04.28-.05l.21.86c-.21.07-.46.11-.75.12-.65.04-1.16-.11-1.53-.46-.37-.35-.56-.85-.56-1.48v-5.46h-1.22v-.86h1.22v-1.95h1v1.95h1.68Z"/>
    <path class="cls-2" d="M427.15,269.41v10.91h-1.03v-9.93h-.07l-2.53,1.88v-1.13l2.34-1.74h1.3Z"/>
  </g>
  <rect class="cls-5" x="520.66" y="120.31" width="340.87" height="93.51"/>
  <rect class="cls-6" x="520.66" y="227.89" width="139.95" height="93.51"/>
  <rect class="cls-6" x="691.09" y="227.89" width="139.95" height="93.51"/>
  <rect class="cls-4" x="520.66" y="335.46" width="39.88" height="46.76"/>
  <rect class="cls-4" x="570.38" y="335.46" width="39.88" height="46.76"/>
  <rect class="cls-4" x="691.41" y="335.46" width="39.88" height="46.76"/>
  <rect class="cls-4" x="790.84" y="335.46" width="39.88" height="46.76"/>
  <rect class="cls-4" x="741.13" y="335.46" width="39.88" height="46.76"/>
  <rect class="cls-3" x="522.44" y="396.27" width="9.05" height="46.76"/>
  <rect class="cls-1" x="535.15" y="396.27" width="9.05" height="46.76"/>
  <rect class="cls-3" x="570.38" y="396.27" width="9.05" height="46.76"/>
  <rect class="cls-1" x="583.09" y="396.27" width="9.05" height="46.76"/>
  <rect class="cls-3" x="691.09" y="396.27" width="9.05" height="46.76"/>
  <rect class="cls-1" x="703.81" y="396.27" width="9.05" height="46.76"/>
  <rect class="cls-3" x="741.86" y="395.36" width="9.05" height="46.76"/>
  <rect class="cls-1" x="754.57" y="395.36" width="9.05" height="46.76"/>
  <rect class="cls-3" x="790.84" y="395.36" width="9.05" height="46.76"/>
  <rect class="cls-1" x="803.56" y="395.36" width="9.05" height="46.76"/>
  <g>
    <path class="cls-2" d="M550.62,280.51c-1.12,0-2.01-.27-2.68-.81s-1.03-1.25-1.09-2.13h1.06c.05.65.34,1.15.85,1.49.52.34,1.13.51,1.86.51.54,0,1.02-.09,1.44-.27.42-.18.75-.43.98-.75.24-.32.36-.7.36-1.13,0-.55-.21-.96-.62-1.25-.41-.29-.96-.53-1.65-.74l-1.29-.37c-.87-.25-1.54-.61-2.01-1.07-.47-.46-.7-1.03-.7-1.72,0-.59.16-1.11.47-1.56s.74-.8,1.29-1.05c.54-.25,1.15-.38,1.82-.38s1.29.13,1.82.38c.52.25.94.6,1.24,1.03s.47.93.49,1.49h-1.02c-.06-.61-.33-1.08-.8-1.44s-1.06-.53-1.77-.53c-.75,0-1.36.19-1.83.57-.47.38-.71.86-.71,1.44,0,.38.11.69.32.94.21.25.48.46.81.62.33.16.67.29,1.02.4l1.14.33c.47.13.93.31,1.39.54.46.23.84.53,1.14.92.3.38.45.87.45,1.47s-.15,1.12-.45,1.58c-.3.46-.74.83-1.31,1.1-.57.27-1.25.41-2.04.41Z"/>
    <path class="cls-2" d="M559.43,280.44c-.83,0-1.5-.26-2.03-.77-.52-.51-.78-1.26-.78-2.23v-5.3h1v5.22c0,.67.19,1.2.56,1.59.38.39.88.58,1.51.58s1.18-.21,1.62-.62.65-.97.65-1.67v-5.1h1v8.19h-.97v-1.52c-.25.58-.61.99-1.05,1.24-.45.25-.95.38-1.5.38Z"/>
    <path class="cls-2" d="M569.05,280.5c-.49,0-.91-.09-1.24-.27-.33-.18-.6-.4-.8-.66s-.36-.52-.47-.78h-.11v1.53h-.97v-10.91h1v4.3h.08c.11-.25.26-.5.46-.76s.47-.48.8-.66c.33-.18.75-.27,1.25-.27.66,0,1.25.18,1.75.53.51.35.9.85,1.18,1.48.28.63.42,1.37.42,2.22s-.14,1.59-.42,2.23c-.28.64-.67,1.13-1.18,1.49-.51.35-1.09.53-1.76.53ZM568.92,279.6c.53,0,.98-.15,1.35-.45s.65-.7.85-1.21c.19-.5.29-1.07.29-1.7s-.09-1.19-.29-1.69c-.19-.5-.47-.9-.84-1.19s-.83-.44-1.36-.44-.98.14-1.34.42c-.37.28-.65.67-.84,1.17s-.29,1.07-.29,1.72.1,1.23.29,1.73c.2.51.48.9.85,1.19s.81.43,1.34.43Z"/>
    <path class="cls-2" d="M577.81,280.5c-.77,0-1.43-.18-1.99-.54-.56-.36-.99-.86-1.3-1.49-.3-.63-.46-1.36-.46-2.19s.15-1.56.45-2.2c.3-.64.72-1.14,1.26-1.51.54-.37,1.17-.55,1.88-.55.6,0,1.16.15,1.69.44s.96.74,1.3,1.34.5,1.37.5,2.29v.43h-6.07c.02.93.28,1.68.77,2.24.49.56,1.15.84,1.98.84.57,0,1.04-.13,1.41-.4.37-.26.62-.58.78-.94l.95.3c-.19.51-.55.96-1.09,1.35s-1.22.58-2.05.58ZM575.07,275.68h5.07c-.05-.8-.3-1.45-.73-1.97-.43-.52-1.02-.78-1.75-.78-.49,0-.93.12-1.3.37-.38.25-.68.58-.9,1-.22.42-.35.88-.38,1.38Z"/>
    <path class="cls-2" d="M585.27,280.33l-3.13-8.19h1.08l1.89,5.15c.14.36.26.72.37,1.09.11.36.22.72.33,1.08.11-.36.21-.72.32-1.08.11-.36.23-.73.37-1.09l1.89-5.15h1.08l-3.13,8.19h-1.07Z"/>
    <path class="cls-2" d="M594.26,280.5c-.77,0-1.43-.18-1.99-.54-.56-.36-.99-.86-1.3-1.49-.31-.63-.46-1.36-.46-2.19s.15-1.56.45-2.2c.3-.64.72-1.14,1.26-1.51.54-.37,1.17-.55,1.88-.55.6,0,1.16.15,1.69.44s.96.74,1.3,1.34.5,1.37.5,2.29v.43h-6.07c.02.93.28,1.68.77,2.24.49.56,1.15.84,1.98.84.57,0,1.04-.13,1.41-.4.37-.26.62-.58.78-.94l.94.3c-.19.51-.55.96-1.09,1.35s-1.22.58-2.05.58ZM591.52,275.68h5.07c-.05-.8-.3-1.45-.73-1.97-.43-.52-1.02-.78-1.75-.78-.49,0-.93.12-1.3.37-.38.25-.68.58-.9,1-.22.42-.35.88-.38,1.38Z"/>
    <path class="cls-2" d="M600.63,275.22v5.11h-1v-8.19h.96v1.51c.26-.57.61-.98,1.05-1.23.45-.26.95-.38,1.51-.38.83,0,1.5.26,2.02.77.52.51.78,1.26.78,2.23v5.29h-.99v-5.22c0-.67-.19-1.2-.56-1.58-.38-.39-.88-.58-1.51-.58s-1.18.21-1.62.62-.65.97-.65,1.67Z"/>
    <path class="cls-2" d="M611.23,272.14v.86h-1.68v5.39c0,.82.37,1.19,1.1,1.12.07,0,.15,0,.25-.03.1-.02.19-.04.28-.05l.21.86c-.21.07-.46.11-.75.12-.65.04-1.16-.11-1.53-.46-.37-.35-.56-.85-.56-1.48v-5.46h-1.22v-.86h1.22v-1.95h1v1.95h1.68Z"/>
    <path class="cls-2" d="M621.34,280.33v-.76l3.58-4c.45-.51.82-.94,1.1-1.31.28-.37.49-.71.62-1.02.13-.31.2-.64.2-.98,0-.62-.21-1.12-.63-1.5-.42-.38-.95-.57-1.58-.57s-1.2.21-1.6.62c-.4.42-.61.94-.61,1.58h-1c0-.61.14-1.14.42-1.61s.67-.84,1.15-1.11,1.04-.4,1.66-.4,1.16.13,1.64.39c.48.26.85.62,1.12,1.07s.41.95.41,1.51c0,.4-.07.79-.21,1.16s-.38.79-.72,1.26c-.35.47-.82,1.04-1.43,1.71l-2.67,2.97v.07h5.37v.93h-6.83Z"/>
  </g>
  <g>
    <path class="cls-2" d="M659.93,173.44c-.92,0-1.73-.23-2.45-.69s-1.27-1.11-1.68-1.94c-.41-.84-.61-1.83-.61-2.96s.2-2.13.61-2.97.96-1.49,1.68-1.95,1.53-.69,2.45-.69c.78,0,1.47.16,2.08.47.61.31,1.11.74,1.49,1.28.39.54.64,1.15.76,1.82h-1.04c-.1-.5-.31-.94-.61-1.34-.3-.39-.68-.7-1.14-.93-.46-.22-.97-.34-1.54-.34-.68,0-1.31.18-1.87.54-.56.36-1.01.88-1.35,1.57-.33.69-.5,1.53-.5,2.53s.17,1.85.51,2.53.79,1.21,1.35,1.56,1.18.53,1.87.53c.57,0,1.08-.11,1.54-.34.46-.23.84-.54,1.14-.93.3-.39.51-.84.61-1.33h1.04c-.11.66-.36,1.27-.75,1.81-.39.54-.89.97-1.49,1.29-.61.32-1.3.48-2.08.48Z"/>
    <path class="cls-2" d="M669.88,173.48c-1.12,0-2.01-.27-2.68-.81s-1.03-1.25-1.09-2.13h1.06c.05.65.34,1.15.85,1.49.52.34,1.13.51,1.86.51.54,0,1.02-.09,1.44-.27.42-.18.75-.43.99-.75s.36-.7.36-1.13c0-.55-.21-.96-.62-1.25s-.96-.53-1.65-.74l-1.29-.37c-.87-.25-1.54-.61-2.01-1.07-.47-.46-.7-1.03-.7-1.72,0-.59.16-1.11.47-1.56.32-.45.74-.8,1.29-1.05.54-.25,1.15-.38,1.82-.38s1.29.13,1.82.38c.52.25.94.6,1.25,1.03.3.43.47.93.49,1.49h-1.02c-.06-.61-.33-1.08-.8-1.44s-1.06-.53-1.77-.53-1.36.19-1.83.57c-.47.38-.71.86-.71,1.44,0,.38.11.69.32.94.21.25.48.46.81.62.33.16.67.29,1.02.4l1.14.33c.47.13.93.31,1.39.54.46.23.83.53,1.14.92.3.38.45.87.45,1.47s-.15,1.12-.45,1.58c-.3.46-.74.83-1.31,1.1-.57.27-1.25.41-2.04.41Z"/>
    <path class="cls-2" d="M680.29,173.3v-10.91h6.37v.93h-5.33v4.03h5v.93h-5v4.09h5.43v.93h-6.47Z"/>
    <path class="cls-2" d="M691.41,173.3l-3.13-8.19h1.08l1.89,5.15c.14.36.26.72.37,1.09.11.36.22.72.33,1.08.11-.36.21-.72.32-1.08.11-.36.23-.73.37-1.09l1.89-5.15h1.08l-3.13,8.19h-1.07Z"/>
    <path class="cls-2" d="M700.4,173.47c-.77,0-1.43-.18-1.99-.54-.56-.36-.99-.86-1.3-1.49-.3-.63-.46-1.36-.46-2.19s.15-1.56.45-2.2c.3-.64.72-1.14,1.26-1.51.54-.37,1.17-.55,1.88-.55.6,0,1.16.15,1.69.44s.96.74,1.3,1.34.5,1.37.5,2.29v.43h-6.07c.02.93.28,1.68.77,2.24.49.56,1.15.84,1.98.84.57,0,1.04-.13,1.41-.4s.62-.58.78-.94l.94.3c-.19.51-.55.96-1.09,1.35-.54.39-1.22.58-2.05.58ZM697.66,168.65h5.07c-.05-.8-.3-1.45-.73-1.97-.43-.52-1.02-.78-1.75-.78-.49,0-.93.12-1.3.37s-.68.58-.9,1c-.22.42-.35.88-.38,1.38Z"/>
    <path class="cls-2" d="M706.77,168.19v5.11h-1v-8.19h.96v1.51c.26-.57.61-.98,1.05-1.23.45-.26.95-.38,1.51-.38.83,0,1.5.26,2.02.77.52.51.78,1.26.78,2.23v5.29h-.99v-5.22c0-.67-.19-1.2-.56-1.58-.38-.39-.88-.58-1.51-.58s-1.18.21-1.62.62c-.43.41-.65.97-.65,1.67Z"/>
    <path class="cls-2" d="M717.37,165.11v.86h-1.68v5.39c0,.82.37,1.19,1.1,1.12.07,0,.15,0,.25-.03.1-.02.19-.04.28-.05l.21.86c-.21.07-.46.11-.75.12-.65.04-1.16-.11-1.53-.46-.37-.35-.56-.85-.56-1.48v-5.46h-1.22v-.86h1.22v-1.95h1v1.95h1.68Z"/>
    <path class="cls-2" d="M726.5,162.38v10.91h-1.03v-9.93h-.07l-2.53,1.88v-1.13l2.34-1.74h1.3Z"/>
  </g>
  <g>
    <path class="cls-2" d="M728.79,280.51c-1.12,0-2.01-.27-2.68-.81s-1.03-1.25-1.09-2.13h1.06c.05.65.34,1.15.85,1.49.52.34,1.13.51,1.86.51.54,0,1.02-.09,1.44-.27.42-.18.75-.43.99-.75s.36-.7.36-1.13c0-.55-.21-.96-.62-1.25s-.96-.53-1.65-.74l-1.29-.37c-.87-.25-1.54-.61-2.01-1.07-.47-.46-.7-1.03-.7-1.72,0-.59.16-1.11.47-1.56.32-.45.74-.8,1.29-1.05.54-.25,1.15-.38,1.82-.38s1.29.13,1.82.38c.52.25.94.6,1.25,1.03.3.43.47.93.49,1.49h-1.02c-.06-.61-.33-1.08-.8-1.44s-1.06-.53-1.77-.53-1.36.19-1.83.57c-.47.38-.71.86-.71,1.44,0,.38.11.69.32.94.21.25.48.46.81.62.33.16.67.29,1.02.4l1.14.33c.47.13.93.31,1.39.54.46.23.83.53,1.14.92.3.38.45.87.45,1.47s-.15,1.12-.45,1.58c-.3.46-.74.83-1.31,1.1-.57.27-1.25.41-2.04.41Z"/>
    <path class="cls-2" d="M737.61,280.44c-.83,0-1.5-.26-2.03-.77-.52-.51-.78-1.26-.78-2.23v-5.3h1v5.22c0,.67.19,1.2.56,1.59.38.39.88.58,1.51.58s1.18-.21,1.62-.62c.43-.41.65-.97.65-1.67v-5.1h1v8.19h-.97v-1.52c-.25.58-.61.99-1.05,1.24-.45.25-.95.38-1.5.38Z"/>
    <path class="cls-2" d="M747.22,280.5c-.49,0-.91-.09-1.24-.27-.33-.18-.6-.4-.81-.66s-.36-.52-.47-.78h-.11v1.53h-.97v-10.91h1v4.3h.08c.11-.25.26-.5.46-.76s.47-.48.8-.66c.33-.18.75-.27,1.25-.27.66,0,1.25.18,1.75.53.5.35.9.85,1.18,1.48.28.63.42,1.37.42,2.22s-.14,1.59-.42,2.23c-.28.64-.67,1.13-1.18,1.49-.5.35-1.09.53-1.76.53ZM747.09,279.6c.53,0,.98-.15,1.35-.45s.65-.7.85-1.21c.19-.5.29-1.07.29-1.7s-.1-1.19-.29-1.69c-.19-.5-.47-.9-.84-1.19s-.83-.44-1.36-.44-.98.14-1.34.42c-.37.28-.65.67-.84,1.17-.19.5-.29,1.07-.29,1.72s.1,1.23.29,1.73c.2.51.48.9.85,1.19.37.29.81.43,1.34.43Z"/>
    <path class="cls-2" d="M755.98,280.5c-.77,0-1.43-.18-1.99-.54-.56-.36-.99-.86-1.3-1.49-.31-.63-.46-1.36-.46-2.19s.15-1.56.45-2.2c.3-.64.72-1.14,1.26-1.51.54-.37,1.17-.55,1.88-.55.6,0,1.16.15,1.69.44s.96.74,1.3,1.34.5,1.37.5,2.29v.43h-6.07c.02.93.28,1.68.77,2.24.49.56,1.15.84,1.98.84.57,0,1.04-.13,1.41-.4s.62-.58.78-.94l.95.3c-.19.51-.55.96-1.09,1.35-.54.39-1.22.58-2.05.58ZM753.24,275.68h5.07c-.05-.8-.3-1.45-.73-1.97-.43-.52-1.02-.78-1.75-.78-.49,0-.93.12-1.3.37s-.68.58-.9,1c-.22.42-.35.88-.38,1.38Z"/>
    <path class="cls-2" d="M763.45,280.33l-3.13-8.19h1.08l1.89,5.15c.14.36.26.72.37,1.09.11.36.22.72.33,1.08.11-.36.21-.72.32-1.08.11-.36.23-.73.37-1.09l1.89-5.15h1.08l-3.13,8.19h-1.07Z"/>
    <path class="cls-2" d="M772.43,280.5c-.77,0-1.43-.18-1.99-.54-.56-.36-.99-.86-1.3-1.49-.31-.63-.46-1.36-.46-2.19s.15-1.56.45-2.2c.3-.64.72-1.14,1.26-1.51.54-.37,1.17-.55,1.88-.55.6,0,1.16.15,1.69.44s.96.74,1.3,1.34.5,1.37.5,2.29v.43h-6.07c.02.93.28,1.68.77,2.24.49.56,1.15.84,1.98.84.57,0,1.04-.13,1.41-.4s.62-.58.78-.94l.95.3c-.19.51-.55.96-1.09,1.35-.54.39-1.22.58-2.05.58ZM769.69,275.68h5.07c-.05-.8-.3-1.45-.73-1.97-.43-.52-1.02-.78-1.75-.78-.49,0-.93.12-1.3.37s-.68.58-.9,1c-.22.42-.35.88-.38,1.38Z"/>
    <path class="cls-2" d="M778.8,275.22v5.11h-1v-8.19h.96v1.51c.26-.57.61-.98,1.05-1.23.45-.26.95-.38,1.51-.38.83,0,1.5.26,2.02.77.52.51.78,1.26.78,2.23v5.29h-.99v-5.22c0-.67-.19-1.2-.56-1.58-.38-.39-.88-.58-1.51-.58s-1.18.21-1.62.62c-.43.41-.65.97-.65,1.67Z"/>
    <path class="cls-2" d="M789.4,272.14v.86h-1.68v5.39c0,.82.37,1.19,1.1,1.12.07,0,.15,0,.25-.03.1-.02.19-.04.28-.05l.21.86c-.21.07-.46.11-.75.12-.65.04-1.16-.11-1.53-.46-.37-.35-.56-.85-.56-1.48v-5.46h-1.22v-.86h1.22v-1.95h1v1.95h1.68Z"/>
    <path class="cls-2" d="M798.65,280.47c-.68,0-1.28-.12-1.82-.37s-.95-.58-1.26-1.02c-.31-.43-.47-.94-.49-1.51h1.05c.02.39.14.74.37,1.04.22.29.52.52.89.68s.79.24,1.25.24c.5,0,.94-.09,1.32-.28.38-.18.68-.44.9-.76s.32-.69.32-1.11c0-.65-.25-1.19-.74-1.6-.5-.41-1.17-.62-2.02-.62h-.64v-.92h.64c.7,0,1.27-.19,1.72-.56.45-.37.68-.87.68-1.5s-.2-1.08-.59-1.46-.92-.56-1.57-.56c-.42,0-.8.08-1.15.24-.35.16-.63.39-.84.68-.21.3-.32.64-.33,1.04h-1.01c.01-.57.17-1.07.47-1.5.3-.43.7-.77,1.21-1.02s1.06-.37,1.68-.37,1.2.13,1.68.4.84.61,1.1,1.05c.26.44.39.92.39,1.44,0,.62-.17,1.15-.51,1.59s-.79.74-1.37.92v.07c.7.14,1.25.44,1.65.92s.6,1.06.6,1.75c0,.59-.15,1.11-.46,1.57-.31.46-.73.83-1.26,1.1-.54.27-1.15.4-1.83.4Z"/>
  </g>
  <g>
    <path class="cls-2" d="M471.26,64.32c-.92,0-1.73-.23-2.45-.69s-1.27-1.11-1.68-1.94c-.41-.84-.61-1.83-.61-2.96s.2-2.13.61-2.97.96-1.49,1.68-1.95,1.53-.69,2.45-.69c.78,0,1.47.16,2.08.47.61.31,1.11.74,1.49,1.28.39.54.64,1.15.76,1.82h-1.04c-.1-.5-.31-.94-.61-1.34-.3-.39-.68-.7-1.14-.93-.46-.22-.97-.34-1.54-.34-.68,0-1.31.18-1.87.54-.56.36-1.01.88-1.35,1.57-.33.69-.5,1.53-.5,2.53s.17,1.85.51,2.53.79,1.21,1.35,1.56,1.18.53,1.87.53c.57,0,1.08-.11,1.54-.34.46-.23.84-.54,1.14-.93.3-.39.51-.84.61-1.33h1.04c-.11.66-.36,1.27-.75,1.81-.39.54-.89.97-1.49,1.29-.61.32-1.3.48-2.08.48Z"/>
    <path class="cls-2" d="M481.22,64.35c-1.12,0-2.01-.27-2.68-.81s-1.03-1.25-1.09-2.13h1.06c.05.65.34,1.15.85,1.49.52.34,1.13.51,1.86.51.54,0,1.02-.09,1.44-.27.42-.18.75-.43.99-.75s.36-.7.36-1.13c0-.55-.21-.96-.62-1.25s-.96-.53-1.65-.74l-1.29-.37c-.87-.25-1.54-.61-2.01-1.07-.47-.46-.7-1.03-.7-1.72,0-.59.16-1.11.47-1.56.32-.45.74-.8,1.29-1.05.54-.25,1.15-.38,1.82-.38s1.29.13,1.82.38c.52.25.94.6,1.25,1.03.3.43.47.93.49,1.49h-1.02c-.06-.61-.33-1.08-.8-1.44s-1.06-.53-1.77-.53-1.36.19-1.83.57c-.47.38-.71.86-.71,1.44,0,.38.11.69.32.94.21.25.48.46.81.62.33.16.67.29,1.02.4l1.14.33c.47.13.93.31,1.39.54.46.23.83.53,1.14.92.3.38.45.87.45,1.47s-.15,1.12-.45,1.58c-.3.46-.74.83-1.31,1.1-.57.27-1.25.41-2.04.41Z"/>
    <path class="cls-2" d="M491.63,64.17v-10.91h3.56c.77,0,1.42.15,1.94.45.52.3.92.7,1.18,1.21.27.51.4,1.08.4,1.72s-.13,1.22-.4,1.73c-.27.51-.66.92-1.18,1.21s-1.17.45-1.93.45h-2.53v4.15h-1.04ZM492.67,59.09h2.48c.84,0,1.48-.23,1.9-.7s.63-1.05.63-1.77-.21-1.29-.63-1.75-1.05-.7-1.9-.7h-2.48v4.91Z"/>
    <path class="cls-2" d="M500.86,64.17v-8.19h.97v1.27h.07c.16-.42.45-.76.85-1.01.41-.25.87-.38,1.37-.38.08,0,.17,0,.26,0,.1,0,.18,0,.24.01v1s-.11-.02-.22-.03c-.11-.02-.23-.02-.37-.02-.63,0-1.16.2-1.57.59-.41.39-.62.89-.62,1.5v5.25h-1Z"/>
    <path class="cls-2" d="M509.2,64.34c-.71,0-1.34-.18-1.88-.54-.54-.36-.97-.86-1.27-1.49-.31-.63-.46-1.37-.46-2.2s.15-1.58.46-2.21c.31-.64.73-1.14,1.27-1.49.54-.36,1.17-.54,1.88-.54s1.33.18,1.88.54c.54.36.97.86,1.28,1.49.31.64.46,1.38.46,2.21s-.15,1.56-.46,2.2c-.31.64-.73,1.13-1.28,1.49-.54.36-1.17.54-1.88.54ZM509.2,63.44c.56,0,1.04-.15,1.42-.46.39-.3.69-.71.89-1.21s.31-1.06.31-1.66-.1-1.17-.31-1.67c-.21-.51-.5-.91-.89-1.22-.39-.31-.86-.46-1.42-.46s-1.03.15-1.42.46c-.39.3-.68.71-.89,1.22-.21.5-.31,1.06-.31,1.67s.1,1.16.3,1.66c.2.5.5.91.89,1.21.39.3.86.46,1.42.46Z"/>
    <path class="cls-2" d="M518.09,64.32c-.71,0-1.34-.18-1.88-.54s-.97-.85-1.27-1.48c-.31-.63-.46-1.36-.46-2.19s.15-1.58.46-2.21.73-1.13,1.27-1.49c.54-.36,1.17-.54,1.88-.54.55,0,1.04.11,1.47.32s.79.47,1.07.79.48.64.59.98l-.94.29c-.06-.21-.19-.42-.37-.65-.18-.23-.43-.42-.73-.59-.31-.16-.67-.24-1.08-.24-.56,0-1.03.15-1.42.45-.39.3-.68.7-.89,1.21-.21.5-.31,1.07-.31,1.68s.1,1.16.31,1.66.5.9.89,1.2c.39.3.86.45,1.42.45.42,0,.79-.08,1.1-.25s.56-.37.75-.6c.19-.24.31-.46.37-.67l.94.29c-.1.34-.3.67-.58,1-.29.33-.65.6-1.08.81-.44.21-.93.32-1.49.32Z"/>
    <path class="cls-2" d="M526.6,64.34c-.77,0-1.43-.18-1.99-.54-.56-.36-.99-.86-1.3-1.49-.31-.63-.46-1.36-.46-2.19s.15-1.56.45-2.2c.3-.64.72-1.14,1.26-1.51.54-.37,1.17-.55,1.88-.55.6,0,1.16.15,1.69.44s.96.74,1.3,1.34.5,1.37.5,2.29v.43h-6.07c.02.93.28,1.68.77,2.24.49.56,1.15.84,1.98.84.57,0,1.04-.13,1.41-.4s.62-.58.78-.94l.95.3c-.19.51-.55.96-1.09,1.35-.54.39-1.22.58-2.05.58ZM523.86,59.52h5.07c-.05-.8-.3-1.45-.73-1.97-.43-.52-1.02-.78-1.75-.78-.49,0-.93.12-1.3.37s-.68.58-.9,1c-.22.42-.35.88-.38,1.38Z"/>
    <path class="cls-2" d="M534.9,64.34c-.67,0-1.25-.18-1.76-.53-.5-.35-.9-.85-1.18-1.49-.28-.64-.42-1.38-.42-2.23s.14-1.58.42-2.22c.28-.63.68-1.12,1.18-1.48.5-.35,1.09-.53,1.75-.53.5,0,.91.09,1.25.27.33.18.6.4.8.66.2.26.36.51.47.76h.08v-4.3h.99v10.91h-.96v-1.53h-.11c-.11.25-.26.51-.47.78s-.48.48-.81.66c-.33.18-.75.27-1.24.27ZM535.04,63.44c.53,0,.97-.14,1.34-.43.37-.29.65-.68.84-1.19.19-.5.29-1.08.29-1.73s-.1-1.22-.29-1.72c-.19-.5-.47-.89-.84-1.17-.37-.28-.82-.42-1.34-.42s-.99.15-1.36.44c-.37.29-.65.69-.84,1.19-.19.5-.29,1.06-.29,1.69s.1,1.2.29,1.7c.19.51.47.91.84,1.21.37.3.82.45,1.35.45Z"/>
    <path class="cls-2" d="M543.81,64.28c-.83,0-1.5-.26-2.03-.77-.52-.51-.78-1.26-.78-2.23v-5.3h1v5.22c0,.67.19,1.2.56,1.59.38.39.88.58,1.51.58s1.18-.21,1.62-.62c.43-.41.65-.97.65-1.67v-5.1h1v8.19h-.97v-1.52c-.25.58-.61.99-1.05,1.24-.45.25-.95.38-1.5.38Z"/>
    <path class="cls-2" d="M549.84,64.17v-8.19h.97v1.27h.07c.16-.42.45-.76.85-1.01.41-.25.87-.38,1.37-.38.08,0,.17,0,.26,0,.1,0,.18,0,.24.01v1s-.11-.02-.22-.03c-.11-.02-.23-.02-.37-.02-.63,0-1.16.2-1.57.59-.41.39-.62.89-.62,1.5v5.25h-1Z"/>
    <path class="cls-2" d="M558.3,64.34c-.77,0-1.43-.18-1.99-.54-.56-.36-.99-.86-1.3-1.49-.31-.63-.46-1.36-.46-2.19s.15-1.56.45-2.2c.3-.64.72-1.14,1.26-1.51.54-.37,1.17-.55,1.88-.55.6,0,1.16.15,1.69.44s.96.74,1.3,1.34.5,1.37.5,2.29v.43h-6.07c.02.93.28,1.68.77,2.24.49.56,1.15.84,1.98.84.57,0,1.04-.13,1.41-.4s.62-.58.78-.94l.95.3c-.19.51-.55.96-1.09,1.35-.54.39-1.22.58-2.05.58ZM555.56,59.52h5.07c-.05-.8-.3-1.45-.73-1.97-.43-.52-1.02-.78-1.75-.78-.49,0-.93.12-1.3.37s-.68.58-.9,1c-.22.42-.35.88-.38,1.38Z"/>
    <path class="cls-2" d="M571.28,64.32c-1.16,0-2.07-.49-2.71-1.48-.64-.98-.97-2.36-.97-4.12s.32-3.13.97-4.12c.65-.99,1.55-1.49,2.71-1.49s2.05.5,2.7,1.49.97,2.37.97,4.12-.32,3.14-.97,4.12c-.64.98-1.54,1.48-2.7,1.48ZM571.28,63.39c.84,0,1.49-.41,1.96-1.23.47-.82.7-1.97.7-3.44s-.23-2.63-.7-3.45c-.47-.83-1.12-1.24-1.96-1.24s-1.5.41-1.97,1.24c-.47.83-.7,1.98-.7,3.45s.23,2.62.7,3.44c.47.82,1.13,1.23,1.97,1.23Z"/>
  </g>
</svg>