<?xml version="1.0" encoding="UTF-8"?>
<svg id="Layer_1" data-name="Layer 1" xmlns="http://www.w3.org/2000/svg" viewBox="0 0 684 150.16">
  <defs>
    <style>
      .cls-1 {
        fill: none;
        stroke: #000;
        stroke-miterlimit: 10;
        stroke-width: .75px;
      }

      .cls-2 {
        fill: #fff;
      }

      .cls-3 {
        fill: #0082fc;
      }
    </style>
  </defs>
  <rect class="cls-3" x="46.82" y="13.59" width="98.55" height="52.98"/>
  <rect class="cls-3" x="292.73" y="13.59" width="98.55" height="52.98"/>
  <rect class="cls-3" x="538.63" y="13.59" width="98.55" height="52.98"/>
  <g>
    <rect class="cls-3" x="538.63" y="83.59" width="98.55" height="52.98" transform="translate(1175.81 220.17) rotate(-180)"/>
    <rect class="cls-3" x="292.73" y="83.59" width="98.55" height="52.98" transform="translate(684 220.17) rotate(-180)"/>
    <rect class="cls-3" x="46.82" y="83.59" width="98.55" height="52.98" transform="translate(192.19 220.17) rotate(-180)"/>
  </g>
  <g>
    <path class="cls-2" d="M79.7,41.8c.04.28.16.51.36.7.21.19.49.29.87.29.29,0,.52-.07.67-.21.15-.14.23-.3.23-.5,0-.17-.06-.31-.18-.43-.12-.12-.29-.2-.51-.25l-.9-.2c-.42-.09-.74-.26-.97-.53-.23-.26-.35-.58-.35-.96,0-.23.05-.44.15-.64.1-.2.23-.38.4-.53.17-.15.37-.27.6-.36.23-.09.47-.13.73-.13.36,0,.66.05.91.15.24.1.45.23.6.38.15.15.27.31.35.47.08.16.13.3.16.42l-.91.34c-.01-.07-.04-.15-.08-.25-.04-.1-.1-.2-.18-.29-.08-.09-.19-.17-.33-.24-.14-.07-.31-.1-.52-.1-.26,0-.48.07-.64.21-.16.14-.24.31-.24.49,0,.34.2.55.61.64l.86.19c.48.1.85.29,1.1.57.25.28.37.61.37,1.01,0,.19-.04.38-.12.57-.08.19-.2.37-.36.53-.16.16-.36.29-.6.39-.24.1-.53.15-.86.15-.37,0-.68-.05-.94-.15-.26-.1-.48-.23-.65-.39-.17-.15-.3-.32-.39-.5s-.15-.35-.17-.5l.94-.33Z"/>
    <path class="cls-2" d="M83.9,42.09c0-.23.04-.45.12-.63.08-.19.19-.35.34-.48.14-.13.31-.24.51-.32s.41-.14.64-.18l1.43-.21c.16-.02.27-.07.32-.14s.08-.16.08-.25c0-.26-.09-.48-.27-.67-.18-.19-.47-.28-.88-.28-.37,0-.65.1-.85.3-.2.2-.32.46-.35.76l-.99-.23c.03-.25.1-.48.22-.69s.28-.39.47-.54c.19-.15.41-.27.67-.35.25-.08.52-.13.81-.13.4,0,.73.05,1.01.16.28.11.51.25.68.42.18.18.3.38.38.62.08.23.12.48.12.74v2.65c0,.24,0,.42.02.56.01.14.03.24.04.31h-1.01c-.01-.07-.03-.15-.04-.26-.01-.11-.02-.26-.02-.45-.06.1-.13.19-.23.3s-.21.2-.35.29c-.14.09-.3.16-.49.21-.19.05-.4.08-.63.08-.27,0-.52-.04-.73-.13-.22-.09-.4-.2-.56-.35-.15-.14-.27-.31-.36-.5s-.13-.39-.13-.61ZM85.81,42.8c.21,0,.41-.03.6-.08.19-.05.35-.14.48-.26.14-.12.24-.28.32-.48s.12-.45.12-.73v-.24l-1.62.24c-.22.04-.4.12-.55.25-.15.13-.22.31-.22.54,0,.2.08.38.23.53.15.16.36.24.63.24Z"/>
    <path class="cls-2" d="M89.98,43.51v-5.29h.99v.7c.17-.29.4-.51.7-.65.3-.14.6-.21.91-.21.33,0,.64.08.93.24.29.16.51.42.65.76.21-.38.48-.64.79-.79.32-.14.64-.21.98-.21.23,0,.45.04.67.12.22.08.42.2.59.37.17.17.31.37.41.63.1.25.15.55.15.9v3.43h-1.02v-3.32c0-.34-.09-.63-.27-.86-.18-.23-.46-.35-.85-.35-.37,0-.66.13-.88.38s-.34.57-.34.95v3.2h-1.03v-3.32c0-.34-.09-.63-.26-.86-.18-.23-.46-.35-.86-.35-.37,0-.67.12-.9.37-.22.25-.33.57-.33.97v3.19h-1.02Z"/>
    <path class="cls-2" d="M99.41,45.6v-7.38h1v.83c.15-.26.37-.49.67-.67s.67-.28,1.1-.28c.39,0,.75.07,1.05.21.3.14.56.34.76.59.2.25.36.54.46.88.11.34.16.7.16,1.08s-.05.76-.16,1.1c-.11.34-.27.63-.48.89s-.47.45-.78.59-.65.21-1.04.21c-.41,0-.76-.08-1.06-.25-.29-.17-.51-.37-.66-.61v2.8h-1.02ZM103.56,40.86c0-.26-.04-.51-.11-.73-.07-.22-.18-.42-.31-.58-.13-.17-.3-.3-.49-.39-.2-.1-.41-.14-.65-.14s-.45.05-.64.14c-.19.09-.36.23-.5.39s-.25.36-.32.58c-.07.22-.11.47-.11.73s.04.52.11.75c.07.23.18.43.32.59.14.17.31.29.5.39.2.09.41.14.64.14s.46-.05.65-.14.35-.22.49-.39c.13-.16.24-.36.31-.59.07-.23.11-.48.11-.75Z"/>
    <path class="cls-2" d="M105.93,43.51v-7.96h1.03v7.96h-1.03Z"/>
    <path class="cls-2" d="M113.34,42c-.07.23-.18.45-.32.65-.14.2-.32.38-.52.53s-.43.27-.69.36c-.26.09-.54.13-.85.13-.35,0-.69-.06-1.01-.19-.32-.12-.61-.31-.85-.55-.25-.24-.44-.54-.58-.89-.14-.35-.21-.75-.21-1.2,0-.42.07-.8.21-1.14.14-.34.32-.63.55-.88.23-.25.5-.44.81-.57s.63-.2.96-.2c.4,0,.76.07,1.08.2.32.14.58.32.8.57s.38.53.49.87c.11.34.17.72.17,1.13,0,.07,0,.13,0,.19,0,.06,0,.11-.02.14h-3.98c0,.23.05.45.13.65.08.2.19.37.33.51.14.14.31.25.51.33.2.08.4.12.62.12.43,0,.76-.1.99-.31.23-.21.39-.46.5-.76l.89.31ZM112.29,40.32c-.01-.38-.14-.7-.38-.96-.24-.26-.6-.39-1.07-.39-.22,0-.42.04-.59.12-.17.08-.32.18-.44.31s-.22.27-.29.43c-.07.16-.11.33-.12.5h2.89Z"/>
  </g>
  <g>
    <path class="cls-2" d="M329.91,39.01c-.21,0-.41.04-.61.12-.19.08-.36.19-.51.35-.15.15-.27.35-.36.58-.09.23-.13.5-.13.81s.04.57.13.8c.09.23.21.43.35.58.15.16.32.28.52.36.2.08.4.12.62.12.25,0,.46-.04.63-.11.17-.07.32-.17.43-.28s.2-.23.27-.36.11-.24.14-.35l.91.4c-.07.19-.16.38-.29.58s-.29.37-.48.53c-.2.16-.43.29-.7.39-.27.1-.57.15-.92.15-.39,0-.75-.07-1.07-.21-.33-.14-.61-.34-.84-.59-.24-.25-.42-.55-.56-.89-.13-.34-.2-.71-.2-1.12s.07-.79.2-1.13c.14-.34.32-.64.56-.88.24-.25.52-.44.85-.58.33-.14.68-.21,1.05-.21.35,0,.66.05.93.15.27.1.5.23.69.39.19.16.35.34.47.54.12.2.21.4.26.6l-.93.4c-.04-.13-.09-.26-.15-.4-.07-.13-.16-.25-.27-.36-.12-.11-.25-.19-.41-.26-.16-.07-.36-.1-.58-.1Z"/>
    <path class="cls-2" d="M335.79,38.05c.39,0,.76.07,1.09.21s.62.34.86.59c.24.25.43.54.56.88.13.34.2.71.2,1.12s-.07.78-.2,1.12c-.13.34-.32.64-.56.89s-.53.45-.86.59c-.33.14-.69.21-1.09.21s-.76-.07-1.09-.21c-.33-.14-.62-.34-.86-.59s-.43-.55-.56-.89c-.13-.34-.2-.72-.2-1.12s.07-.78.2-1.12c.13-.34.32-.64.56-.88.24-.25.53-.45.86-.59s.69-.21,1.09-.21ZM335.79,42.75c.22,0,.43-.04.63-.12.2-.08.37-.2.53-.36.15-.16.28-.36.36-.59.09-.23.13-.51.13-.81s-.04-.58-.13-.81c-.09-.23-.21-.43-.36-.59s-.33-.28-.53-.36c-.2-.08-.41-.12-.63-.12s-.43.04-.63.12c-.2.08-.37.2-.53.36s-.28.36-.36.59c-.09.23-.13.5-.13.81s.04.58.13.81c.09.24.21.43.36.59.15.16.33.28.53.36.2.08.41.12.63.12Z"/>
    <path class="cls-2" d="M343.52,42.7c-.12.26-.32.48-.6.67-.28.19-.62.28-1.04.28-.39,0-.74-.07-1.04-.21-.31-.14-.57-.34-.79-.59s-.38-.55-.5-.89c-.12-.34-.18-.71-.18-1.11,0-.37.06-.73.18-1.06.12-.33.29-.63.51-.88.22-.25.48-.45.79-.6s.65-.23,1.02-.23c.23,0,.44.03.62.08.18.05.34.12.47.2.13.08.24.18.33.29s.15.21.2.32v-3.42h1.02v6.99c0,.26,0,.47.02.65.01.18.03.29.03.33h-1c-.02-.06-.03-.15-.04-.28,0-.13-.02-.27-.02-.43v-.09ZM340.43,40.84c0,.27.04.52.11.75.07.23.17.43.3.6.13.17.29.3.48.4s.41.14.66.14c.23,0,.45-.05.64-.15.19-.1.35-.23.48-.4.13-.17.23-.37.3-.61.07-.23.1-.49.1-.76,0-.55-.13-.99-.4-1.33-.27-.34-.64-.51-1.12-.51-.23,0-.45.05-.64.14-.19.09-.36.22-.49.38s-.24.36-.31.59c-.07.23-.11.48-.11.75Z"/>
    <path class="cls-2" d="M350.89,42c-.07.23-.18.45-.32.65-.14.2-.32.38-.52.53s-.43.27-.69.36c-.26.09-.54.13-.85.13-.35,0-.69-.06-1.01-.19-.32-.12-.61-.31-.85-.55-.25-.24-.44-.54-.58-.89-.14-.35-.21-.75-.21-1.2,0-.42.07-.8.21-1.14.14-.34.32-.63.55-.88.23-.25.5-.44.81-.57s.63-.2.96-.2c.4,0,.76.07,1.08.2.32.14.58.32.8.57s.38.53.49.87c.11.34.17.72.17,1.13,0,.07,0,.13,0,.19,0,.06,0,.11-.02.14h-3.98c0,.23.05.45.13.65.08.2.19.37.33.51.14.14.31.25.51.33.2.08.4.12.62.12.43,0,.76-.1.99-.31.23-.21.39-.46.5-.76l.89.31ZM349.84,40.32c-.01-.38-.14-.7-.38-.96-.24-.26-.6-.39-1.07-.39-.22,0-.42.04-.59.12-.17.08-.32.18-.44.31s-.22.27-.29.43c-.07.16-.11.33-.12.5h2.89Z"/>
    <path class="cls-2" d="M354.46,39.01c-.21,0-.41.04-.6.12-.19.08-.36.19-.51.35-.15.15-.27.35-.36.58-.09.23-.13.5-.13.81s.04.57.13.8c.09.23.21.43.35.58.15.16.32.28.52.36.2.08.4.12.62.12.25,0,.46-.04.63-.11s.31-.17.43-.28c.11-.11.2-.23.27-.36.06-.13.11-.24.14-.35l.91.4c-.07.19-.16.38-.29.58s-.29.37-.48.53c-.2.16-.43.29-.7.39-.27.1-.57.15-.92.15-.39,0-.75-.07-1.07-.21-.33-.14-.61-.34-.84-.59s-.42-.55-.55-.89c-.14-.34-.2-.71-.2-1.12s.07-.79.2-1.13c.13-.34.32-.64.56-.88.24-.25.52-.44.85-.58.33-.14.68-.21,1.05-.21.35,0,.66.05.93.15.27.1.5.23.69.39.2.16.35.34.47.54.12.2.21.4.26.6l-.94.4c-.04-.13-.09-.26-.15-.4s-.16-.25-.27-.36-.25-.19-.41-.26c-.16-.07-.36-.1-.58-.1Z"/>
  </g>
  <g>
    <path class="cls-2" d="M569.69,38.21h1.14v.94h-1.14v2.75c0,.24.06.42.17.54s.3.18.57.18c.07,0,.14,0,.22-.01.08,0,.14-.02.19-.03v.88s-.13.04-.25.06c-.12.03-.28.04-.45.04-.46,0-.81-.13-1.08-.39-.26-.26-.4-.63-.4-1.12v-2.9h-1.01v-.94h.29c.29,0,.49-.08.62-.23.13-.15.19-.35.19-.58v-.86h.95v1.67Z"/>
    <path class="cls-2" d="M575.15,39.26c-.15-.02-.3-.03-.45-.03-.43,0-.78.13-1.05.38s-.4.67-.4,1.25v2.65h-1.04v-5.29h1.01v.92c.1-.21.21-.37.34-.5s.26-.23.4-.31c.14-.08.28-.13.43-.16.15-.03.29-.04.42-.04.07,0,.14,0,.21.01.06,0,.11.02.14.02v1.1Z"/>
    <path class="cls-2" d="M575.92,42.09c0-.23.04-.45.12-.63.08-.19.19-.35.34-.48.14-.13.31-.24.51-.32s.41-.14.64-.18l1.43-.21c.16-.02.27-.07.32-.14s.08-.16.08-.25c0-.26-.09-.48-.27-.67-.18-.19-.47-.28-.88-.28-.37,0-.65.1-.85.3-.2.2-.32.46-.35.76l-.99-.23c.03-.25.1-.48.22-.69s.28-.39.47-.54c.19-.15.41-.27.67-.35.25-.08.52-.13.81-.13.4,0,.73.05,1.01.16.28.11.51.25.68.42.18.18.3.38.38.62.08.23.12.48.12.74v2.65c0,.24,0,.42.02.56.01.14.03.24.04.31h-1.01c-.01-.07-.03-.15-.04-.26-.01-.11-.02-.26-.02-.45-.06.1-.13.19-.23.3s-.21.2-.35.29c-.14.09-.3.16-.49.21-.19.05-.4.08-.63.08-.27,0-.52-.04-.73-.13-.22-.09-.4-.2-.56-.35-.15-.14-.27-.31-.36-.5s-.13-.39-.13-.61ZM577.83,42.8c.21,0,.41-.03.6-.08.19-.05.35-.14.48-.26.14-.12.24-.28.32-.48s.12-.45.12-.73v-.24l-1.62.24c-.22.04-.4.12-.55.25-.15.13-.22.31-.22.54,0,.2.08.38.23.53.15.16.36.24.63.24Z"/>
    <path class="cls-2" d="M583.03,43.51h-1.03v-5.29h1.01v.76c.19-.33.43-.56.73-.7.29-.14.59-.21.9-.21s.59.05.83.16.44.25.59.44c.16.19.28.41.35.67s.12.53.12.83v3.35h-1.03v-3.18c0-.18-.02-.36-.06-.52-.04-.16-.11-.3-.21-.42-.1-.12-.23-.22-.38-.29-.16-.07-.35-.1-.58-.1-.21,0-.38.04-.54.12s-.28.18-.38.31c-.1.13-.18.29-.23.46-.05.18-.08.36-.08.56v3.06Z"/>
    <path class="cls-2" d="M588.62,41.8c.04.28.16.51.36.7.21.19.49.29.87.29.29,0,.52-.07.67-.21.15-.14.23-.3.23-.5,0-.17-.06-.31-.18-.43-.12-.12-.29-.2-.51-.25l-.9-.2c-.42-.09-.74-.26-.97-.53-.23-.26-.35-.58-.35-.96,0-.23.05-.44.15-.64.1-.2.23-.38.4-.53.17-.15.37-.27.6-.36.23-.09.47-.13.73-.13.36,0,.66.05.91.15.24.1.45.23.6.38.15.15.27.31.35.47.08.16.13.3.16.42l-.91.34c-.01-.07-.04-.15-.08-.25-.04-.1-.1-.2-.18-.29-.08-.09-.19-.17-.33-.24-.14-.07-.31-.1-.52-.1-.26,0-.48.07-.64.21-.16.14-.24.31-.24.49,0,.34.2.55.61.64l.86.19c.48.1.85.29,1.1.57.25.28.37.61.37,1.01,0,.19-.04.38-.12.57-.08.19-.2.37-.36.53-.16.16-.36.29-.6.39-.24.1-.53.15-.86.15-.37,0-.68-.05-.94-.15-.26-.1-.48-.23-.65-.39-.17-.15-.3-.32-.39-.5s-.15-.35-.17-.5l.94-.33Z"/>
    <path class="cls-2" d="M593.15,43.51v-5.29h.99v.7c.17-.29.4-.51.7-.65.3-.14.6-.21.91-.21.33,0,.64.08.93.24.29.16.51.42.65.76.21-.38.48-.64.79-.79.31-.14.64-.21.98-.21.23,0,.45.04.67.12.22.08.42.2.59.37s.31.37.41.63c.1.25.15.55.15.9v3.43h-1.02v-3.32c0-.34-.09-.63-.27-.86-.18-.23-.46-.35-.85-.35-.37,0-.66.13-.88.38-.22.25-.34.57-.34.95v3.2h-1.04v-3.32c0-.34-.09-.63-.26-.86-.18-.23-.46-.35-.86-.35-.38,0-.67.12-.9.37-.22.25-.34.57-.34.97v3.19h-1.02Z"/>
    <path class="cls-2" d="M602.35,36.21c0-.21.07-.39.21-.53.14-.14.32-.21.52-.21s.39.07.53.21c.14.14.21.32.21.53s-.07.38-.21.52c-.14.14-.32.21-.53.21s-.38-.07-.52-.21c-.14-.14-.21-.32-.21-.52ZM602.58,43.51v-5.29h1.02v5.29h-1.02Z"/>
    <path class="cls-2" d="M606.75,38.21h1.14v.94h-1.14v2.75c0,.24.06.42.17.54s.3.18.57.18c.07,0,.14,0,.22-.01.08,0,.14-.02.19-.03v.88s-.13.04-.25.06c-.12.03-.28.04-.45.04-.46,0-.81-.13-1.08-.39-.26-.26-.4-.63-.4-1.12v-2.9h-1.01v-.94h.29c.29,0,.49-.08.62-.23.13-.15.19-.35.19-.58v-.86h.95v1.67Z"/>
  </g>
  <g>
    <path class="cls-2" d="M83.59,109.99c-.15-.02-.3-.03-.45-.03-.43,0-.78.13-1.05.38s-.4.67-.4,1.25v2.65h-1.03v-5.29h1.01v.92c.1-.21.21-.37.34-.5.13-.13.26-.23.4-.31.14-.08.28-.13.43-.16s.29-.04.42-.04c.07,0,.14,0,.2.01.06,0,.11.02.14.02v1.1Z"/>
    <path class="cls-2" d="M89.3,112.73c-.07.23-.18.45-.33.65-.14.2-.31.38-.52.53-.2.15-.43.27-.69.36-.26.09-.54.13-.85.13-.35,0-.69-.06-1.01-.19-.32-.12-.61-.31-.85-.55-.24-.24-.44-.54-.58-.89-.14-.35-.21-.75-.21-1.2,0-.42.07-.8.21-1.14.14-.34.32-.63.56-.88.23-.25.5-.44.81-.57.31-.14.63-.2.96-.2.4,0,.76.07,1.08.2.32.14.59.32.8.57.21.24.38.53.49.87s.17.72.17,1.13c0,.07,0,.13,0,.19,0,.06,0,.11-.02.14h-3.98c0,.23.05.45.13.65.08.2.19.37.34.51.14.14.31.25.51.33.19.08.4.12.62.12.43,0,.76-.1.99-.31s.39-.46.49-.76l.89.31ZM88.25,111.05c-.02-.38-.14-.7-.39-.96-.24-.26-.6-.39-1.07-.39-.22,0-.42.04-.59.12-.17.08-.32.18-.44.31s-.22.27-.29.43c-.07.16-.11.33-.12.5h2.89Z"/>
    <path class="cls-2" d="M91.68,114.24h-1.04v-5.29h1.01v.76c.19-.33.43-.56.73-.7.29-.14.59-.21.9-.21s.59.05.83.16.44.25.59.44c.16.19.28.41.35.67.08.26.12.53.12.83v3.35h-1.04v-3.18c0-.18-.02-.36-.06-.52-.04-.16-.11-.3-.21-.42-.1-.12-.23-.22-.38-.29s-.35-.1-.58-.1c-.21,0-.39.04-.54.12-.15.08-.28.18-.39.31-.1.13-.18.29-.23.46-.05.18-.08.36-.08.56v3.06Z"/>
    <path class="cls-2" d="M100.54,113.44c-.12.26-.32.48-.6.67-.27.19-.62.28-1.04.28-.39,0-.74-.07-1.04-.21s-.57-.34-.79-.59c-.21-.25-.38-.55-.5-.89-.12-.34-.18-.71-.18-1.11,0-.37.06-.73.18-1.06.12-.33.29-.63.51-.88.22-.25.48-.45.79-.6.31-.15.65-.23,1.02-.23.23,0,.44.03.62.08.18.05.34.12.47.2.13.08.24.18.33.29s.15.21.2.32v-3.42h1.02v6.99c0,.26,0,.47.02.65.02.18.03.29.03.33h-1c-.01-.06-.03-.15-.04-.28-.01-.13-.02-.27-.02-.43v-.09ZM97.45,111.58c0,.27.03.52.1.75.07.23.17.43.3.6.13.17.29.3.48.4.19.1.41.14.66.14.23,0,.45-.05.64-.15.19-.1.35-.23.48-.4.13-.17.23-.37.3-.61s.11-.49.11-.76c0-.55-.13-.99-.4-1.33s-.64-.51-1.12-.51c-.23,0-.45.05-.64.14-.2.09-.36.22-.49.38-.14.17-.24.36-.31.59-.07.23-.11.48-.11.75Z"/>
    <path class="cls-2" d="M107.91,112.73c-.07.23-.18.45-.33.65-.14.2-.31.38-.52.53-.2.15-.43.27-.69.36-.26.09-.54.13-.85.13-.35,0-.69-.06-1.01-.19-.32-.12-.61-.31-.85-.55-.24-.24-.44-.54-.58-.89-.14-.35-.21-.75-.21-1.2,0-.42.07-.8.21-1.14.14-.34.32-.63.56-.88.23-.25.5-.44.81-.57.31-.14.63-.2.96-.2.4,0,.76.07,1.08.2.32.14.59.32.8.57.21.24.38.53.49.87s.17.72.17,1.13c0,.07,0,.13,0,.19,0,.06,0,.11-.02.14h-3.98c0,.23.05.45.13.65.08.2.19.37.34.51.14.14.31.25.51.33.19.08.4.12.62.12.43,0,.76-.1.99-.31s.39-.46.49-.76l.89.31ZM106.86,111.05c-.02-.38-.14-.7-.39-.96-.24-.26-.6-.39-1.07-.39-.22,0-.42.04-.59.12-.17.08-.32.18-.44.31s-.22.27-.29.43c-.07.16-.11.33-.12.5h2.89Z"/>
    <path class="cls-2" d="M112.2,109.99c-.15-.02-.3-.03-.45-.03-.43,0-.78.13-1.05.38s-.4.67-.4,1.25v2.65h-1.04v-5.29h1.01v.92c.1-.21.21-.37.34-.5s.26-.23.4-.31c.14-.08.28-.13.43-.16.15-.03.29-.04.42-.04.07,0,.14,0,.21.01.06,0,.11.02.14.02v1.1Z"/>
  </g>
  <g>
    <path class="cls-2" d="M329.91,109.74c-.21,0-.41.04-.61.12-.19.08-.36.19-.51.35-.15.15-.27.35-.36.58-.09.23-.13.5-.13.81s.04.57.13.8c.09.23.21.43.35.58.15.16.32.28.52.36.2.08.4.12.62.12.25,0,.46-.04.63-.11.17-.07.32-.17.43-.28s.2-.23.27-.36.11-.24.14-.35l.91.4c-.07.19-.16.38-.29.58s-.29.37-.48.53c-.2.16-.43.29-.7.39-.27.1-.57.15-.92.15-.39,0-.75-.07-1.07-.21-.33-.14-.61-.34-.84-.59-.24-.25-.42-.55-.56-.89-.13-.34-.2-.71-.2-1.12s.07-.79.2-1.13c.14-.34.32-.64.56-.88.24-.25.52-.44.85-.58.33-.14.68-.21,1.05-.21.35,0,.66.05.93.15.27.1.5.23.69.39.19.16.35.34.47.54.12.2.21.4.26.6l-.93.4c-.04-.13-.09-.26-.15-.4-.07-.13-.16-.25-.27-.36-.12-.11-.25-.19-.41-.26-.16-.07-.36-.1-.58-.1Z"/>
    <path class="cls-2" d="M335.79,108.78c.39,0,.76.07,1.09.21s.62.34.86.59c.24.25.43.54.56.88.13.34.2.71.2,1.12s-.07.78-.2,1.12c-.13.34-.32.64-.56.89s-.53.45-.86.59c-.33.14-.69.21-1.09.21s-.76-.07-1.09-.21c-.33-.14-.62-.34-.86-.59s-.43-.55-.56-.89c-.13-.34-.2-.72-.2-1.12s.07-.78.2-1.12c.13-.34.32-.64.56-.88.24-.25.53-.45.86-.59s.69-.21,1.09-.21ZM335.79,113.48c.22,0,.43-.04.63-.12.2-.08.37-.2.53-.36.15-.16.28-.36.36-.59.09-.23.13-.51.13-.81s-.04-.58-.13-.81c-.09-.23-.21-.43-.36-.59s-.33-.28-.53-.36c-.2-.08-.41-.12-.63-.12s-.43.04-.63.12c-.2.08-.37.2-.53.36s-.28.36-.36.59c-.09.23-.13.5-.13.81s.04.58.13.81c.09.24.21.43.36.59.15.16.33.28.53.36.2.08.41.12.63.12Z"/>
    <path class="cls-2" d="M343.52,113.44c-.12.26-.32.48-.6.67-.28.19-.62.28-1.04.28-.39,0-.74-.07-1.04-.21-.31-.14-.57-.34-.79-.59s-.38-.55-.5-.89c-.12-.34-.18-.71-.18-1.11,0-.37.06-.73.18-1.06.12-.33.29-.63.51-.88.22-.25.48-.45.79-.6s.65-.23,1.02-.23c.23,0,.44.03.62.08.18.05.34.12.47.2.13.08.24.18.33.29s.15.21.2.32v-3.42h1.02v6.99c0,.26,0,.47.02.65.01.18.03.29.03.33h-1c-.02-.06-.03-.15-.04-.28,0-.13-.02-.27-.02-.43v-.09ZM340.43,111.58c0,.27.04.52.11.75.07.23.17.43.3.6.13.17.29.3.48.4s.41.14.66.14c.23,0,.45-.05.64-.15.19-.1.35-.23.48-.4.13-.17.23-.37.3-.61.07-.23.1-.49.1-.76,0-.55-.13-.99-.4-1.33-.27-.34-.64-.51-1.12-.51-.23,0-.45.05-.64.14-.19.09-.36.22-.49.38s-.24.36-.31.59c-.07.23-.11.48-.11.75Z"/>
    <path class="cls-2" d="M350.89,112.73c-.07.23-.18.45-.32.65-.14.2-.32.38-.52.53s-.43.27-.69.36c-.26.09-.54.13-.85.13-.35,0-.69-.06-1.01-.19-.32-.12-.61-.31-.85-.55-.25-.24-.44-.54-.58-.89-.14-.35-.21-.75-.21-1.2,0-.42.07-.8.21-1.14.14-.34.32-.63.55-.88.23-.25.5-.44.81-.57s.63-.2.96-.2c.4,0,.76.07,1.08.2.32.14.58.32.8.57s.38.53.49.87c.11.34.17.72.17,1.13,0,.07,0,.13,0,.19,0,.06,0,.11-.02.14h-3.98c0,.23.05.45.13.65.08.2.19.37.33.51.14.14.31.25.51.33.2.08.4.12.62.12.43,0,.76-.1.99-.31.23-.21.39-.46.5-.76l.89.31ZM349.84,111.05c-.01-.38-.14-.7-.38-.96-.24-.26-.6-.39-1.07-.39-.22,0-.42.04-.59.12-.17.08-.32.18-.44.31s-.22.27-.29.43c-.07.16-.11.33-.12.5h2.89Z"/>
    <path class="cls-2" d="M354.46,109.74c-.21,0-.41.04-.6.12-.19.08-.36.19-.51.35-.15.15-.27.35-.36.58-.09.23-.13.5-.13.81s.04.57.13.8c.09.23.21.43.35.58.15.16.32.28.52.36.2.08.4.12.62.12.25,0,.46-.04.63-.11s.31-.17.43-.28c.11-.11.2-.23.27-.36.06-.13.11-.24.14-.35l.91.4c-.07.19-.16.38-.29.58s-.29.37-.48.53c-.2.16-.43.29-.7.39-.27.1-.57.15-.92.15-.39,0-.75-.07-1.07-.21-.33-.14-.61-.34-.84-.59s-.42-.55-.55-.89c-.14-.34-.2-.71-.2-1.12s.07-.79.2-1.13c.13-.34.32-.64.56-.88.24-.25.52-.44.85-.58.33-.14.68-.21,1.05-.21.35,0,.66.05.93.15.27.1.5.23.69.39.2.16.35.34.47.54.12.2.21.4.26.6l-.94.4c-.04-.13-.09-.26-.15-.4s-.16-.25-.27-.36-.25-.19-.41-.26c-.16-.07-.36-.1-.58-.1Z"/>
  </g>
  <g>
    <path class="cls-2" d="M573.7,109.99c-.15-.02-.3-.03-.45-.03-.43,0-.78.13-1.05.38s-.4.67-.4,1.25v2.65h-1.03v-5.29h1.01v.92c.1-.21.21-.37.34-.5.13-.13.26-.23.4-.31.14-.08.28-.13.43-.16s.29-.04.42-.04c.07,0,.14,0,.2.01.06,0,.11.02.14.02v1.1Z"/>
    <path class="cls-2" d="M579.4,112.73c-.07.23-.18.45-.33.65-.14.2-.31.38-.52.53-.2.15-.43.27-.69.36-.26.09-.54.13-.85.13-.35,0-.69-.06-1.01-.19-.32-.12-.61-.31-.85-.55-.24-.24-.44-.54-.58-.89-.14-.35-.21-.75-.21-1.2,0-.42.07-.8.21-1.14.14-.34.32-.63.56-.88.23-.25.5-.44.81-.57.31-.14.63-.2.96-.2.4,0,.76.07,1.08.2.32.14.59.32.8.57.21.24.38.53.49.87s.17.72.17,1.13c0,.07,0,.13,0,.19,0,.06,0,.11-.02.14h-3.98c0,.23.05.45.13.65.08.2.19.37.34.51.14.14.31.25.51.33.19.08.4.12.62.12.43,0,.76-.1.99-.31s.39-.46.49-.76l.89.31ZM578.36,111.05c-.02-.38-.14-.7-.39-.96-.24-.26-.6-.39-1.07-.39-.22,0-.42.04-.59.12-.17.08-.32.18-.44.31s-.22.27-.29.43c-.07.16-.11.33-.12.5h2.89Z"/>
    <path class="cls-2" d="M582.98,109.74c-.21,0-.41.04-.61.12-.19.08-.36.19-.51.35-.15.15-.27.35-.36.58-.09.23-.13.5-.13.81s.04.57.13.8c.09.23.21.43.35.58.15.16.32.28.52.36.2.08.4.12.62.12.25,0,.46-.04.63-.11.17-.07.32-.17.43-.28s.2-.23.27-.36.11-.24.14-.35l.91.4c-.07.19-.16.38-.29.58s-.29.37-.48.53c-.2.16-.43.29-.7.39-.27.1-.57.15-.92.15-.39,0-.75-.07-1.07-.21-.33-.14-.61-.34-.84-.59-.24-.25-.42-.55-.56-.89-.13-.34-.2-.71-.2-1.12s.07-.79.2-1.13c.14-.34.32-.64.56-.88.24-.25.52-.44.85-.58.33-.14.68-.21,1.05-.21.35,0,.66.05.93.15.27.1.5.23.69.39.19.16.35.34.47.54.12.2.21.4.26.6l-.93.4c-.04-.13-.09-.26-.15-.4-.07-.13-.16-.25-.27-.36-.12-.11-.25-.19-.41-.26-.16-.07-.36-.1-.58-.1Z"/>
    <path class="cls-2" d="M591.2,112.73c-.07.23-.18.45-.32.65-.14.2-.32.38-.52.53s-.43.27-.69.36c-.26.09-.54.13-.85.13-.35,0-.69-.06-1.01-.19-.32-.12-.61-.31-.85-.55-.25-.24-.44-.54-.58-.89-.14-.35-.21-.75-.21-1.2,0-.42.07-.8.21-1.14.14-.34.32-.63.55-.88.23-.25.5-.44.81-.57s.63-.2.96-.2c.4,0,.76.07,1.08.2.32.14.58.32.8.57s.38.53.49.87c.11.34.17.72.17,1.13,0,.07,0,.13,0,.19,0,.06,0,.11-.02.14h-3.98c0,.23.05.45.13.65.08.2.19.37.33.51.14.14.31.25.51.33.2.08.4.12.62.12.43,0,.76-.1.99-.31.23-.21.39-.46.5-.76l.89.31ZM590.15,111.05c-.01-.38-.14-.7-.38-.96-.24-.26-.6-.39-1.07-.39-.22,0-.42.04-.59.12-.17.08-.32.18-.44.31s-.22.27-.29.43c-.07.16-.11.33-.12.5h2.89Z"/>
    <path class="cls-2" d="M592.32,106.95c0-.21.07-.39.21-.53.14-.14.32-.21.52-.21s.39.07.53.21c.14.14.21.32.21.53s-.07.38-.21.52c-.14.14-.32.21-.53.21s-.38-.07-.52-.21c-.14-.14-.21-.32-.21-.52ZM592.55,114.24v-5.29h1.02v5.29h-1.02Z"/>
    <path class="cls-2" d="M597.75,114.24h-1.04l-2.14-5.29h1.17l1.51,4.08,1.52-4.08h1.11l-2.11,5.29Z"/>
    <path class="cls-2" d="M605.46,112.73c-.07.23-.18.45-.32.65-.14.2-.32.38-.52.53s-.43.27-.69.36c-.26.09-.54.13-.85.13-.35,0-.69-.06-1.01-.19-.32-.12-.61-.31-.85-.55-.25-.24-.44-.54-.58-.89-.14-.35-.21-.75-.21-1.2,0-.42.07-.8.21-1.14.14-.34.32-.63.55-.88.23-.25.5-.44.81-.57s.63-.2.96-.2c.4,0,.76.07,1.08.2.32.14.58.32.8.57s.38.53.49.87c.11.34.17.72.17,1.13,0,.07,0,.13,0,.19,0,.06,0,.11-.02.14h-3.98c0,.23.05.45.13.65.08.2.19.37.33.51.14.14.31.25.51.33.2.08.4.12.62.12.43,0,.76-.1.99-.31.23-.21.39-.46.5-.76l.89.31ZM604.42,111.05c-.01-.38-.14-.7-.38-.96-.24-.26-.6-.39-1.07-.39-.22,0-.42.04-.59.12-.17.08-.32.18-.44.31s-.22.27-.29.43c-.07.16-.11.33-.12.5h2.89Z"/>
  </g>
  <g>
    <line class="cls-1" x1="7.6" y1="40.08" x2="44.13" y2="40.08"/>
    <polygon points="43.58 41.95 46.82 40.08 43.58 38.21 43.58 41.95"/>
  </g>
  <g>
    <line class="cls-1" x1="637.18" y1="40.08" x2="673.71" y2="40.08"/>
    <polygon points="673.16 41.95 676.4 40.08 673.16 38.21 673.16 41.95"/>
  </g>
  <g>
    <line class="cls-1" x1="145.37" y1="40.08" x2="290.03" y2="40.08"/>
    <polygon points="289.49 41.95 292.73 40.08 289.49 38.21 289.49 41.95"/>
  </g>
  <g>
    <line class="cls-1" x1="391.27" y1="40.08" x2="535.94" y2="40.08"/>
    <polygon points="535.39 41.95 538.63 40.08 535.39 38.21 535.39 41.95"/>
  </g>
  <g>
    <line class="cls-1" x1="676.4" y1="110.08" x2="639.87" y2="110.08"/>
    <polygon points="640.42 108.21 637.18 110.08 640.42 111.95 640.42 108.21"/>
  </g>
  <g>
    <line class="cls-1" x1="46.82" y1="110.08" x2="10.29" y2="110.08"/>
    <polygon points="10.84 108.21 7.6 110.08 10.84 111.95 10.84 108.21"/>
  </g>
  <g>
    <line class="cls-1" x1="538.63" y1="110.08" x2="393.97" y2="110.08"/>
    <polygon points="394.51 108.21 391.27 110.08 394.51 111.95 394.51 108.21"/>
  </g>
  <g>
    <line class="cls-1" x1="292.73" y1="110.08" x2="148.06" y2="110.08"/>
    <polygon points="148.61 108.21 145.37 110.08 148.61 111.95 148.61 108.21"/>
  </g>
  <g>
    <path d="M18.8,33.53c0-.15.03-.28.08-.4.05-.12.12-.22.21-.3.09-.08.2-.15.33-.2.12-.05.26-.09.41-.11l.91-.13c.1-.01.17-.04.21-.09.04-.05.05-.1.05-.16,0-.16-.06-.3-.17-.42-.11-.12-.3-.18-.55-.18-.23,0-.41.06-.54.19-.13.13-.2.29-.22.49l-.63-.15c.02-.16.07-.31.14-.44.08-.14.18-.25.3-.35s.26-.17.42-.22c.16-.05.33-.08.51-.08.25,0,.47.03.64.1s.32.16.43.27c.11.11.19.24.25.39.05.15.08.31.08.47v1.69c0,.15,0,.27.01.36,0,.09.02.15.03.2h-.64s-.02-.1-.03-.17c0-.07,0-.17,0-.29-.04.06-.09.12-.15.19s-.14.13-.22.18c-.09.06-.19.1-.31.14-.12.04-.25.05-.4.05-.17,0-.33-.03-.46-.08-.14-.06-.26-.13-.35-.22s-.17-.2-.23-.32c-.05-.12-.08-.25-.08-.38ZM20.02,33.99c.13,0,.26-.02.38-.05s.22-.09.31-.17.15-.18.21-.31c.05-.13.08-.28.08-.46v-.15l-1.03.15c-.14.02-.26.08-.35.16s-.14.2-.14.35c0,.13.05.24.15.34.1.1.23.15.4.15Z"/>
    <path d="M24.89,34.03c-.09.18-.23.31-.42.39-.19.08-.38.12-.57.12s-.37-.04-.53-.11c-.16-.07-.29-.17-.39-.29-.11-.12-.19-.26-.25-.43s-.09-.34-.09-.53v-2.12h.66v2.02c0,.12.02.23.04.33.03.11.07.2.13.28.06.08.14.14.23.19s.21.07.35.07c.27,0,.46-.08.6-.24.13-.16.2-.37.2-.62v-2.03h.66v2.74c0,.14,0,.26,0,.37,0,.11.02.19.02.25h-.63s-.02-.1-.02-.18c0-.08,0-.16,0-.23Z"/>
    <path d="M29,33.92c-.08.16-.21.3-.38.42-.17.12-.39.18-.66.18-.25,0-.47-.04-.67-.14-.2-.09-.36-.22-.5-.38-.14-.16-.24-.35-.32-.57s-.11-.45-.11-.7c0-.24.04-.46.12-.68.08-.21.19-.4.32-.56.14-.16.31-.29.5-.38.2-.1.41-.14.65-.14.15,0,.28.02.39.05.12.03.21.08.3.13s.15.11.21.18c.06.07.1.14.13.21v-2.18h.65v4.44c0,.16,0,.3.01.41,0,.11.02.18.02.21h-.64s-.02-.1-.03-.18c0-.08,0-.17,0-.28v-.06ZM27.03,32.74c0,.17.02.33.07.48.04.15.11.27.19.38s.19.19.31.25.26.09.42.09c.15,0,.29-.03.41-.09.12-.06.22-.15.31-.26s.15-.24.19-.38.07-.31.07-.48c0-.35-.08-.63-.26-.85-.17-.21-.41-.32-.71-.32-.15,0-.29.03-.41.09s-.23.14-.31.25c-.09.1-.15.23-.2.37-.05.14-.07.3-.07.48Z"/>
    <path d="M30.61,29.79c0-.14.05-.25.14-.34.09-.09.2-.14.33-.14s.25.05.34.14c.09.09.14.2.14.34s-.04.24-.14.33c-.09.09-.2.14-.34.14s-.24-.04-.33-.14c-.09-.09-.14-.2-.14-.33ZM30.75,34.43v-3.37h.65v3.37h-.65Z"/>
    <path d="M33.96,30.96c.25,0,.48.05.69.14.21.09.39.22.55.37.15.16.27.35.36.56s.13.45.13.71-.04.49-.13.71-.2.41-.36.57c-.15.16-.34.28-.55.37-.21.09-.44.14-.69.14s-.48-.05-.69-.14c-.21-.09-.39-.22-.54-.37-.15-.16-.27-.35-.36-.57s-.12-.46-.12-.71.04-.49.12-.71.2-.4.36-.56c.15-.16.34-.28.54-.37.21-.09.44-.14.69-.14ZM33.96,33.95c.14,0,.27-.03.4-.08.12-.05.24-.13.34-.23.1-.1.17-.23.23-.38s.08-.32.08-.52-.03-.37-.08-.51c-.06-.15-.13-.27-.23-.38-.1-.1-.21-.18-.34-.23-.13-.05-.26-.08-.4-.08s-.27.03-.4.08c-.13.05-.24.13-.34.23-.1.1-.18.23-.23.38-.06.15-.08.32-.08.51s.03.37.08.52c.05.15.13.28.23.38s.21.18.34.23c.12.05.26.08.4.08Z"/>
  </g>
  <g>
    <path d="M179.64,17.87v3.56h-.87v-3.56h-.8v-.77h.8v-.73c0-.24.04-.45.11-.64.07-.19.18-.34.31-.47s.28-.22.45-.28c.17-.06.36-.09.55-.09.14,0,.26.01.35.04.09.02.14.04.16.05v.76s-.06-.02-.12-.04c-.06-.01-.14-.02-.25-.02-.07,0-.15.01-.23.03-.08.02-.16.06-.22.11-.07.05-.12.13-.17.22s-.06.22-.06.37v.68h1.04v.77h-1.04Z"/>
    <path d="M183.91,17.96c-.13-.02-.25-.03-.37-.03-.35,0-.64.1-.86.31s-.33.55-.33,1.02v2.17h-.85v-4.33h.83v.76c.08-.17.17-.3.27-.41.11-.1.21-.19.33-.25.11-.06.23-.11.35-.13.12-.02.23-.04.34-.04.06,0,.12,0,.17,0,.05,0,.09.01.11.02v.9Z"/>
    <path d="M184.45,20.27c0-.19.03-.36.1-.52.07-.15.16-.28.27-.39.12-.11.26-.2.42-.26.16-.07.34-.11.52-.14l1.17-.17c.13-.02.22-.06.27-.12s.07-.13.07-.21c0-.21-.07-.39-.22-.54-.15-.15-.39-.23-.72-.23-.3,0-.53.08-.69.25s-.26.37-.29.62l-.81-.19c.02-.2.09-.39.18-.57s.23-.32.38-.45c.16-.12.34-.22.54-.29.21-.07.43-.1.66-.1.32,0,.6.04.83.13.23.09.41.2.56.35s.25.31.31.5c.07.19.1.39.1.6v2.17c0,.19,0,.35.02.46.01.11.02.2.04.25h-.83c-.01-.05-.02-.13-.03-.22s-.01-.21-.01-.37c-.05.08-.11.16-.19.24-.08.08-.17.16-.29.23-.11.07-.25.13-.4.17-.15.04-.33.07-.52.07-.22,0-.42-.04-.6-.11-.18-.07-.33-.17-.46-.28-.13-.12-.22-.25-.29-.41-.07-.16-.1-.32-.1-.5ZM186.01,20.86c.17,0,.34-.02.49-.07.15-.04.28-.12.4-.22s.2-.23.27-.4.1-.37.1-.6v-.2l-1.32.2c-.18.03-.33.1-.45.2-.12.11-.18.25-.18.45,0,.16.06.31.19.44s.3.19.51.19Z"/>
    <path d="M189.33,21.43v-4.33h.81v.58c.14-.24.33-.42.57-.53.24-.11.49-.17.74-.17.27,0,.52.07.76.2s.42.34.54.62c.17-.31.39-.53.65-.64s.52-.18.8-.18c.19,0,.37.03.55.1.18.07.34.17.48.3.14.14.25.31.34.51s.13.45.13.73v2.81h-.84v-2.72c0-.28-.07-.52-.22-.71-.15-.19-.38-.28-.7-.28-.3,0-.54.1-.72.31-.18.21-.27.47-.27.78v2.62h-.85v-2.72c0-.28-.07-.52-.22-.71-.14-.19-.38-.28-.7-.28-.31,0-.55.1-.73.31-.18.2-.27.47-.27.79v2.61h-.84Z"/>
    <path d="M200.73,20.2c-.06.19-.15.37-.27.54s-.26.31-.42.43c-.17.12-.35.22-.56.29s-.44.11-.69.11c-.29,0-.56-.05-.83-.15-.26-.1-.5-.25-.7-.45s-.36-.44-.48-.73c-.12-.29-.18-.62-.18-.98,0-.34.06-.65.17-.93s.27-.52.45-.72c.19-.2.41-.36.66-.47.25-.11.51-.17.78-.17.33,0,.62.06.89.17.26.11.48.26.65.46.17.2.31.44.4.72.09.28.14.59.14.92,0,.05,0,.1,0,.15s0,.09-.01.12h-3.26c0,.19.04.37.11.53.07.16.16.3.27.42s.26.21.41.27c.16.06.33.09.51.09.35,0,.62-.08.81-.25.19-.17.32-.38.4-.62l.73.25ZM199.87,18.83c-.01-.31-.12-.58-.31-.79-.2-.21-.49-.32-.87-.32-.18,0-.34.03-.48.09-.14.06-.26.15-.36.25-.1.1-.18.22-.24.36-.06.13-.09.27-.1.41h2.37Z"/>
    <path d="M205.76,16.97c.32,0,.62.06.89.18.27.12.5.28.7.48s.35.45.46.72c.11.28.16.58.16.91s-.05.64-.16.92c-.11.28-.26.53-.46.73s-.43.36-.7.48c-.27.12-.57.17-.89.17s-.62-.06-.89-.17c-.27-.12-.5-.28-.7-.48-.2-.2-.35-.45-.46-.73-.11-.28-.16-.59-.16-.92s.05-.63.16-.91c.11-.28.26-.52.46-.72.2-.2.43-.36.7-.48.27-.12.57-.18.89-.18ZM205.76,20.81c.18,0,.35-.03.51-.1s.31-.17.43-.3.23-.29.3-.49c.07-.19.11-.41.11-.67s-.04-.47-.11-.66c-.07-.19-.17-.35-.3-.48s-.27-.23-.43-.3c-.16-.07-.33-.1-.51-.1s-.35.03-.51.1c-.16.07-.31.17-.43.3s-.22.29-.3.48c-.07.19-.11.41-.11.66s.04.47.11.67c.07.19.17.35.3.49s.27.23.43.3c.16.07.33.1.51.1Z"/>
    <path d="M210.1,17.87v3.56h-.87v-3.56h-.8v-.77h.8v-.73c0-.24.04-.45.11-.64.07-.19.18-.34.31-.47s.28-.22.45-.28c.17-.06.36-.09.55-.09.14,0,.26.01.35.04.09.02.14.04.16.05v.76s-.06-.02-.12-.04c-.06-.01-.14-.02-.25-.02-.07,0-.15.01-.23.03-.08.02-.16.06-.22.11-.07.05-.12.13-.17.22s-.06.22-.06.37v.68h1.04v.77h-1.04Z"/>
    <path d="M216.97,20.91c-.12.23-.3.39-.54.5-.24.11-.49.16-.74.16s-.48-.04-.68-.13-.37-.21-.51-.37c-.14-.16-.25-.34-.32-.55-.07-.21-.11-.44-.11-.68v-2.73h.85v2.6c0,.15.02.29.05.43.04.13.09.25.17.36.08.1.18.18.3.24.12.06.27.09.45.09.34,0,.6-.1.77-.31s.26-.47.26-.8v-2.61h.85v3.53c0,.17,0,.33.01.47s.02.25.03.33h-.81s-.02-.12-.03-.23c0-.1,0-.2,0-.29Z"/>
    <path d="M219.97,21.43h-.85v-4.33h.83v.62c.16-.27.35-.46.59-.58.24-.11.49-.17.74-.17s.48.04.68.13.36.21.49.36c.13.15.22.33.29.54.06.21.09.44.09.67v2.75h-.85v-2.6c0-.15-.02-.29-.05-.42s-.09-.25-.17-.35c-.08-.1-.19-.18-.31-.23-.13-.06-.29-.08-.47-.08-.17,0-.32.03-.44.09-.13.06-.23.15-.31.26-.08.11-.15.23-.19.38-.04.14-.06.3-.06.46v2.5Z"/>
    <path d="M227.86,20.2c-.06.19-.15.37-.27.54s-.26.31-.42.43c-.17.12-.35.22-.56.29s-.44.11-.69.11c-.29,0-.56-.05-.83-.15-.26-.1-.5-.25-.7-.45s-.36-.44-.48-.73c-.12-.29-.18-.62-.18-.98,0-.34.06-.65.17-.93s.27-.52.45-.72c.19-.2.41-.36.66-.47.25-.11.51-.17.78-.17.33,0,.62.06.89.17.26.11.48.26.65.46.17.2.31.44.4.72.09.28.14.59.14.92,0,.05,0,.1,0,.15s0,.09-.01.12h-3.26c0,.19.04.37.11.53.07.16.16.3.27.42s.26.21.41.27c.16.06.33.09.51.09.35,0,.62-.08.81-.25.19-.17.32-.38.4-.62l.73.25ZM227.01,18.83c-.01-.31-.12-.58-.31-.79-.2-.21-.49-.32-.87-.32-.18,0-.34.03-.48.09-.14.06-.26.15-.36.25-.1.1-.18.22-.24.36-.06.13-.09.27-.1.41h2.37Z"/>
    <path d="M229.72,21.43h-.85v-4.33h.83v.62c.16-.27.35-.46.59-.58.24-.11.49-.17.74-.17s.48.04.68.13.36.21.49.36c.13.15.22.33.29.54.06.21.09.44.09.67v2.75h-.85v-2.6c0-.15-.02-.29-.05-.42s-.09-.25-.17-.35c-.08-.1-.19-.18-.31-.23-.13-.06-.29-.08-.47-.08-.17,0-.32.03-.44.09-.13.06-.23.15-.31.26-.08.11-.15.23-.19.38-.04.14-.06.3-.06.46v2.5Z"/>
    <path d="M235.66,17.75c-.17,0-.34.03-.5.09-.16.06-.3.16-.42.28s-.22.28-.29.47c-.07.19-.11.41-.11.66s.04.46.11.65c.07.19.17.35.29.48s.26.23.42.29c.16.07.33.1.5.1.2,0,.38-.03.52-.09.14-.06.26-.14.35-.23.09-.09.17-.19.22-.29.05-.11.09-.2.12-.28l.75.32c-.05.16-.13.31-.23.47-.1.16-.23.3-.4.44s-.35.24-.57.32c-.22.08-.47.12-.75.12-.32,0-.61-.06-.88-.17-.27-.12-.5-.28-.69-.49-.19-.21-.34-.45-.46-.73-.11-.28-.17-.58-.17-.91s.05-.64.17-.93.26-.52.46-.72.43-.36.69-.47c.27-.11.55-.17.86-.17.29,0,.54.04.76.12.22.08.41.19.57.32s.29.28.38.45.17.33.22.49l-.76.32c-.03-.11-.07-.22-.13-.32-.05-.11-.13-.21-.22-.29s-.21-.16-.34-.22c-.13-.06-.29-.08-.48-.08Z"/>
    <path d="M240.38,16.97c.32,0,.62.06.89.18.27.12.5.28.7.48s.35.45.46.72c.11.28.16.58.16.91s-.05.64-.16.92c-.11.28-.26.53-.46.73s-.43.36-.7.48c-.27.12-.57.17-.89.17s-.62-.06-.89-.17c-.27-.12-.5-.28-.7-.48-.2-.2-.35-.45-.46-.73-.11-.28-.16-.59-.16-.92s.05-.63.16-.91c.11-.28.26-.52.46-.72.2-.2.43-.36.7-.48.27-.12.57-.18.89-.18ZM240.38,20.81c.18,0,.35-.03.51-.1s.31-.17.43-.3.23-.29.3-.49c.07-.19.11-.41.11-.67s-.04-.47-.11-.66c-.07-.19-.17-.35-.3-.48s-.27-.23-.43-.3c-.16-.07-.33-.1-.51-.1s-.35.03-.51.1c-.16.07-.31.17-.43.3s-.22.29-.3.48c-.07.19-.11.41-.11.66s.04.47.11.67c.07.19.17.35.3.49s.27.23.43.3c.16.07.33.1.51.1Z"/>
    <path d="M246.62,20.78c-.1.21-.27.39-.49.54-.23.15-.51.23-.85.23-.32,0-.6-.06-.86-.18-.25-.12-.47-.28-.64-.49-.18-.21-.31-.45-.41-.73s-.14-.58-.14-.9c0-.31.05-.6.15-.87.1-.27.24-.51.42-.72.18-.21.4-.37.65-.5.25-.12.53-.18.84-.18.19,0,.36.02.51.06.15.04.27.1.38.17.11.07.2.15.27.23.07.09.13.18.16.27v-2.8h.84v5.71c0,.21,0,.39.02.53.01.14.02.23.03.27h-.82s-.02-.12-.03-.23c0-.1-.01-.22-.01-.36v-.07ZM244.09,19.26c0,.22.03.43.09.62.06.19.14.35.25.49.11.14.24.25.4.32.16.08.34.12.54.12.19,0,.37-.04.52-.12.16-.08.29-.19.4-.33.11-.14.19-.3.25-.5.06-.19.09-.4.09-.62,0-.45-.11-.81-.33-1.09-.22-.28-.52-.41-.91-.41-.19,0-.37.04-.53.11s-.29.18-.41.31-.2.3-.26.48c-.06.19-.09.39-.09.61Z"/>
    <path d="M252.56,20.2c-.06.19-.15.37-.27.54s-.26.31-.42.43c-.17.12-.35.22-.56.29s-.44.11-.69.11c-.29,0-.56-.05-.83-.15-.26-.1-.5-.25-.7-.45s-.36-.44-.48-.73c-.12-.29-.18-.62-.18-.98,0-.34.06-.65.17-.93s.27-.52.45-.72c.19-.2.41-.36.66-.47.25-.11.51-.17.78-.17.33,0,.62.06.89.17.26.11.48.26.65.46.17.2.31.44.4.72.09.28.14.59.14.92,0,.05,0,.1,0,.15s0,.09-.01.12h-3.26c0,.19.04.37.11.53.07.16.16.3.27.42s.26.21.41.27c.16.06.33.09.51.09.35,0,.62-.08.81-.25.19-.17.32-.38.4-.62l.73.25ZM251.7,18.83c-.01-.31-.12-.58-.31-.79-.2-.21-.49-.32-.87-.32-.18,0-.34.03-.48.09-.14.06-.26.15-.36.25-.1.1-.18.22-.24.36-.06.13-.09.27-.1.41h2.37Z"/>
    <path d="M256.61,20.78c-.1.21-.27.39-.49.54-.23.15-.51.23-.85.23-.32,0-.6-.06-.86-.18-.25-.12-.47-.28-.64-.49-.18-.21-.31-.45-.41-.73s-.14-.58-.14-.9c0-.31.05-.6.15-.87.1-.27.24-.51.42-.72.18-.21.4-.37.65-.5.25-.12.53-.18.84-.18.19,0,.36.02.51.06.15.04.27.1.38.17.11.07.2.15.27.23.07.09.13.18.16.27v-2.8h.84v5.71c0,.21,0,.39.02.53.01.14.02.23.03.27h-.82s-.02-.12-.03-.23c0-.1-.01-.22-.01-.36v-.07ZM254.08,19.26c0,.22.03.43.09.62.06.19.14.35.25.49.11.14.24.25.4.32.16.08.34.12.54.12.19,0,.37-.04.52-.12.16-.08.29-.19.4-.33.11-.14.19-.3.25-.5.06-.19.09-.4.09-.62,0-.45-.11-.81-.33-1.09-.22-.28-.52-.41-.91-.41-.19,0-.37.04-.53.11s-.29.18-.41.31-.2.3-.26.48c-.06.19-.09.39-.09.61Z"/>
    <path d="M193.22,29.62v2.61h-.88v-6.38h2.32c.29,0,.56.05.81.14.24.1.45.23.62.4s.3.37.4.6c.1.23.14.48.14.75s-.05.52-.14.75c-.1.23-.23.43-.4.59s-.38.3-.62.39c-.24.1-.51.14-.81.14h-1.44ZM194.5,28.83c.38,0,.69-.1.9-.29.22-.2.33-.46.33-.79s-.11-.61-.33-.81c-.22-.2-.52-.3-.9-.3h-1.28v2.19h1.28Z"/>
    <path d="M200.38,32.37c-.41,0-.81-.07-1.19-.22-.38-.15-.72-.36-1.01-.64s-.52-.63-.7-1.04c-.18-.41-.27-.89-.27-1.42s.09-1.01.27-1.42c.18-.41.42-.76.72-1.04.3-.28.64-.5,1.02-.64.38-.15.77-.22,1.17-.22.37,0,.7.05,1.01.14.31.1.58.23.82.41.24.17.44.39.61.64s.29.53.37.84l-.82.29c-.12-.49-.35-.86-.69-1.12-.34-.26-.77-.39-1.3-.39-.29,0-.57.05-.84.16-.27.1-.52.26-.73.47-.21.21-.38.47-.51.79-.13.31-.19.68-.19,1.09s.06.78.19,1.09c.13.32.29.58.51.79.21.21.46.37.73.48.27.1.55.16.84.16.27,0,.52-.04.74-.12.22-.08.42-.18.59-.32s.32-.3.43-.49c.12-.19.21-.39.28-.61l.78.29c-.08.3-.21.58-.38.83s-.37.47-.61.65c-.24.18-.51.32-.82.42-.31.1-.65.15-1.01.15Z"/>
    <path d="M210.3,32.23v-4.97l-2.18,4.97h-.81l-2.16-4.97v4.97h-.87v-6.38h1.2l2.25,5.19,2.27-5.19h1.18v6.38h-.87Z"/>
    <path d="M215.13,30.84c.03.23.13.42.3.58.17.16.41.23.71.23.24,0,.42-.06.55-.17s.19-.25.19-.41c0-.14-.05-.25-.14-.35-.1-.1-.23-.17-.41-.21l-.74-.16c-.34-.07-.61-.22-.8-.43-.19-.22-.28-.48-.28-.78,0-.19.04-.36.12-.53s.19-.31.33-.44c.14-.13.3-.23.49-.3.19-.07.39-.11.6-.11.29,0,.54.04.74.13s.36.19.49.31.22.25.28.38c.06.13.11.25.13.34l-.75.28c-.01-.05-.03-.12-.06-.21-.03-.08-.08-.16-.14-.24-.07-.07-.16-.14-.27-.19-.11-.05-.25-.08-.42-.08-.22,0-.39.06-.52.18s-.2.25-.2.4c0,.28.17.45.5.52l.7.15c.4.08.69.24.9.46s.3.5.3.82c0,.16-.03.31-.1.47-.07.16-.16.3-.29.43s-.29.24-.49.32c-.2.08-.43.12-.7.12-.3,0-.56-.04-.77-.13s-.39-.19-.53-.31-.25-.26-.32-.41c-.07-.15-.12-.28-.14-.41l.76-.27Z"/>
    <path d="M218.48,31.07c0-.19.03-.36.1-.52.07-.15.16-.28.27-.39.12-.11.26-.2.42-.26.16-.07.34-.11.52-.14l1.17-.17c.13-.02.22-.06.27-.12s.07-.13.07-.21c0-.21-.07-.39-.22-.54-.15-.15-.39-.23-.72-.23-.3,0-.53.08-.69.25s-.26.37-.29.62l-.81-.19c.02-.2.09-.39.18-.57s.23-.32.38-.45c.16-.12.34-.22.54-.29.21-.07.43-.1.66-.1.32,0,.6.04.83.13.23.09.41.2.56.35s.25.31.31.5c.07.19.1.39.1.6v2.17c0,.19,0,.35.02.46.01.11.02.2.04.25h-.83c-.01-.05-.02-.13-.03-.22s-.01-.21-.01-.37c-.05.08-.11.16-.19.24-.08.08-.17.16-.29.23-.11.07-.25.13-.4.17-.15.04-.33.07-.52.07-.22,0-.42-.04-.6-.11-.18-.07-.33-.17-.46-.28-.13-.12-.22-.25-.29-.41-.07-.16-.1-.32-.1-.5ZM220.05,31.66c.17,0,.34-.02.49-.07.15-.04.28-.12.4-.22s.2-.23.27-.4.1-.37.1-.6v-.2l-1.32.2c-.18.03-.33.1-.45.2-.12.11-.18.25-.18.45,0,.16.06.31.19.44s.3.19.51.19Z"/>
    <path d="M223.37,32.23v-4.33h.81v.58c.14-.24.33-.42.57-.53.24-.11.49-.17.74-.17.27,0,.52.07.76.2s.42.34.54.62c.17-.31.39-.53.65-.64s.52-.18.8-.18c.19,0,.37.03.55.1.18.07.34.17.48.3.14.14.25.31.34.51s.13.45.13.73v2.81h-.84v-2.72c0-.28-.07-.52-.22-.71-.15-.19-.38-.28-.7-.28-.3,0-.54.1-.72.31-.18.21-.27.47-.27.78v2.62h-.85v-2.72c0-.28-.07-.52-.22-.71-.14-.19-.38-.28-.7-.28-.31,0-.55.1-.73.31-.18.2-.27.47-.27.79v2.61h-.84Z"/>
    <path d="M230.99,33.94v-6.04h.82v.68c.12-.22.3-.4.55-.55.25-.15.55-.22.9-.22.32,0,.61.06.86.18.25.12.46.28.62.48s.29.44.38.72.13.57.13.88-.04.62-.13.9c-.09.28-.22.52-.4.72-.17.21-.39.37-.63.49-.25.12-.53.18-.85.18-.34,0-.62-.07-.86-.21-.24-.14-.42-.3-.54-.5v2.29h-.84ZM234.38,30.07c0-.22-.03-.42-.09-.6-.06-.18-.14-.34-.25-.48-.11-.13-.24-.24-.4-.32-.16-.08-.34-.12-.54-.12s-.37.04-.53.12-.3.18-.41.32c-.11.13-.2.29-.26.48-.06.18-.09.38-.09.6s.03.43.09.62c.06.19.15.35.26.49.11.13.25.24.41.32s.33.11.53.11.38-.04.53-.11c.16-.08.29-.18.4-.32s.2-.3.26-.49c.06-.19.09-.39.09-.62Z"/>
    <path d="M236.24,32.23v-6.52h.85v6.52h-.85Z"/>
    <path d="M242.21,31c-.06.19-.15.37-.27.54s-.26.31-.42.43c-.17.12-.35.22-.56.29s-.44.11-.69.11c-.29,0-.56-.05-.83-.15-.26-.1-.5-.25-.7-.45s-.36-.44-.48-.73c-.12-.29-.18-.62-.18-.98,0-.34.06-.65.17-.93s.27-.52.45-.72c.19-.2.41-.36.66-.47.25-.11.51-.17.78-.17.33,0,.62.06.89.17.26.11.48.26.65.46.17.2.31.44.4.72.09.28.14.59.14.92,0,.05,0,.1,0,.15s0,.09-.01.12h-3.26c0,.19.04.37.11.53.07.16.16.3.27.42s.26.21.41.27c.16.06.33.09.51.09.35,0,.62-.08.81-.25.19-.17.32-.38.4-.62l.73.25ZM241.35,29.62c-.01-.31-.12-.58-.31-.79-.2-.21-.49-.32-.87-.32-.18,0-.34.03-.48.09-.14.06-.26.15-.36.25-.1.1-.18.22-.24.36-.06.13-.09.27-.1.41h2.37Z"/>
    <path d="M243.58,30.84c.03.23.13.42.3.58.17.16.41.23.71.23.24,0,.42-.06.55-.17s.19-.25.19-.41c0-.14-.05-.25-.14-.35-.1-.1-.23-.17-.41-.21l-.74-.16c-.34-.07-.61-.22-.8-.43-.19-.22-.28-.48-.28-.78,0-.19.04-.36.12-.53s.19-.31.33-.44c.14-.13.3-.23.49-.3.19-.07.39-.11.6-.11.29,0,.54.04.74.13s.36.19.49.31.22.25.28.38c.06.13.11.25.13.34l-.75.28c-.01-.05-.03-.12-.06-.21-.03-.08-.08-.16-.14-.24-.07-.07-.16-.14-.27-.19-.11-.05-.25-.08-.42-.08-.22,0-.39.06-.52.18s-.2.25-.2.4c0,.28.17.45.5.52l.7.15c.4.08.69.24.9.46s.3.5.3.82c0,.16-.03.31-.1.47-.07.16-.16.3-.29.43s-.29.24-.49.32c-.2.08-.43.12-.7.12-.3,0-.56-.04-.77-.13s-.39-.19-.53-.31-.25-.26-.32-.41c-.07-.15-.12-.28-.14-.41l.76-.27Z"/>
  </g>
  <g>
    <path d="M185.59,89.19v3.56h-.87v-3.56h-.8v-.77h.8v-.73c0-.24.04-.45.11-.64.07-.19.18-.34.31-.47s.28-.22.45-.28c.17-.06.36-.09.55-.09.14,0,.26.01.35.04.09.02.14.04.16.05v.76s-.06-.02-.12-.04c-.06-.01-.14-.02-.25-.02-.07,0-.15.01-.23.03-.08.02-.16.06-.22.11-.07.05-.12.13-.17.22s-.06.22-.06.37v.68h1.04v.77h-1.04Z"/>
    <path d="M189.86,89.28c-.13-.02-.25-.03-.37-.03-.35,0-.64.1-.86.31s-.33.55-.33,1.02v2.17h-.85v-4.33h.83v.76c.08-.17.17-.3.27-.41.11-.1.21-.19.33-.25.11-.06.23-.11.35-.13.12-.02.23-.04.34-.04.06,0,.12,0,.17,0,.05,0,.09.01.11.02v.9Z"/>
    <path d="M190.4,91.59c0-.19.03-.36.1-.52.07-.15.16-.28.27-.39.12-.11.26-.2.42-.26.16-.07.34-.11.52-.14l1.17-.17c.13-.02.22-.06.27-.12s.07-.13.07-.21c0-.21-.07-.39-.22-.54-.15-.15-.39-.23-.72-.23-.3,0-.53.08-.69.25s-.26.37-.29.62l-.81-.19c.02-.2.09-.39.18-.57s.23-.32.38-.45c.16-.12.34-.22.54-.29.21-.07.43-.1.66-.1.32,0,.6.04.83.13.23.09.41.2.56.35s.25.31.31.5c.07.19.1.39.1.6v2.17c0,.19,0,.35.02.46.01.11.02.2.04.25h-.83c-.01-.05-.02-.13-.03-.22s-.01-.21-.01-.37c-.05.08-.11.16-.19.24-.08.08-.17.16-.29.23-.11.07-.25.13-.4.17-.15.04-.33.07-.52.07-.22,0-.42-.04-.6-.11-.18-.07-.33-.17-.46-.28-.13-.12-.22-.25-.29-.41-.07-.16-.1-.32-.1-.5ZM191.96,92.17c.17,0,.34-.02.49-.07.15-.04.28-.12.4-.22s.2-.23.27-.4.1-.37.1-.6v-.2l-1.32.2c-.18.03-.33.1-.45.2-.12.11-.18.25-.18.45,0,.16.06.31.19.44s.3.19.51.19Z"/>
    <path d="M195.28,92.75v-4.33h.81v.58c.14-.24.33-.42.57-.53.24-.11.49-.17.74-.17.27,0,.52.07.76.2s.42.34.54.62c.17-.31.39-.53.65-.64s.52-.18.8-.18c.19,0,.37.03.55.1.18.07.34.17.48.3.14.14.25.31.34.51s.13.45.13.73v2.81h-.84v-2.72c0-.28-.07-.52-.22-.71-.15-.19-.38-.28-.7-.28-.3,0-.54.1-.72.31-.18.21-.27.47-.27.78v2.62h-.85v-2.72c0-.28-.07-.52-.22-.71-.14-.19-.38-.28-.7-.28-.31,0-.55.1-.73.31-.18.2-.27.47-.27.79v2.61h-.84Z"/>
    <path d="M206.68,91.52c-.06.19-.15.37-.27.54s-.26.31-.42.43c-.17.12-.35.22-.56.29s-.44.11-.69.11c-.29,0-.56-.05-.83-.15-.26-.1-.5-.25-.7-.45s-.36-.44-.48-.73c-.12-.29-.18-.62-.18-.98,0-.34.06-.65.17-.93s.27-.52.45-.72c.19-.2.41-.36.66-.47.25-.11.51-.17.78-.17.33,0,.62.06.89.17.26.11.48.26.65.46.17.2.31.44.4.72.09.28.14.59.14.92,0,.05,0,.1,0,.15s0,.09-.01.12h-3.26c0,.19.04.37.11.53.07.16.16.3.27.42s.26.21.41.27c.16.06.33.09.51.09.35,0,.62-.08.81-.25.19-.17.32-.38.4-.62l.73.25ZM205.82,90.14c-.01-.31-.12-.58-.31-.79-.2-.21-.49-.32-.87-.32-.18,0-.34.03-.48.09-.14.06-.26.15-.36.25-.1.1-.18.22-.24.36-.06.13-.09.27-.1.41h2.37Z"/>
    <path d="M211.71,88.29c.32,0,.62.06.89.18.27.12.5.28.7.48s.35.45.46.72c.11.28.16.58.16.91s-.05.64-.16.92c-.11.28-.26.53-.46.73s-.43.36-.7.48c-.27.12-.57.17-.89.17s-.62-.06-.89-.17c-.27-.12-.5-.28-.7-.48-.2-.2-.35-.45-.46-.73-.11-.28-.16-.59-.16-.92s.05-.63.16-.91c.11-.28.26-.52.46-.72.2-.2.43-.36.7-.48.27-.12.57-.18.89-.18ZM211.71,92.13c.18,0,.35-.03.51-.1s.31-.17.43-.3.23-.29.3-.49c.07-.19.11-.41.11-.67s-.04-.47-.11-.66c-.07-.19-.17-.35-.3-.48s-.27-.23-.43-.3c-.16-.07-.33-.1-.51-.1s-.35.03-.51.1c-.16.07-.31.17-.43.3s-.22.29-.3.48c-.07.19-.11.41-.11.66s.04.47.11.67c.07.19.17.35.3.49s.27.23.43.3c.16.07.33.1.51.1Z"/>
    <path d="M216.04,89.19v3.56h-.87v-3.56h-.8v-.77h.8v-.73c0-.24.04-.45.11-.64.07-.19.18-.34.31-.47s.28-.22.45-.28c.17-.06.36-.09.55-.09.14,0,.26.01.35.04.09.02.14.04.16.05v.76s-.06-.02-.12-.04c-.06-.01-.14-.02-.25-.02-.07,0-.15.01-.23.03-.08.02-.16.06-.22.11-.07.05-.12.13-.17.22s-.06.22-.06.37v.68h1.04v.77h-1.04Z"/>
    <path d="M223.1,92.09c-.1.21-.27.39-.49.54-.23.15-.51.23-.85.23-.32,0-.6-.06-.86-.18-.25-.12-.47-.28-.64-.49-.18-.21-.31-.45-.41-.73s-.14-.58-.14-.9c0-.31.05-.6.15-.87.1-.27.24-.51.42-.72.18-.21.4-.37.65-.5.25-.12.53-.18.84-.18.19,0,.36.02.51.06.15.04.27.1.38.17.11.07.2.15.27.23.07.09.13.18.16.27v-2.8h.84v5.71c0,.21,0,.39.02.53.01.14.02.23.03.27h-.82s-.02-.12-.03-.23c0-.1-.01-.22-.01-.36v-.07ZM220.57,90.57c0,.22.03.43.09.62.06.19.14.35.25.49.11.14.24.25.4.32.16.08.34.12.54.12.19,0,.37-.04.52-.12.16-.08.29-.19.4-.33.11-.14.19-.3.25-.5.06-.19.09-.4.09-.62,0-.45-.11-.81-.33-1.09-.22-.28-.52-.41-.91-.41-.19,0-.37.04-.53.11s-.29.18-.41.31-.2.3-.26.48c-.06.19-.09.39-.09.61Z"/>
    <path d="M229.04,91.52c-.06.19-.15.37-.27.54s-.26.31-.42.43c-.17.12-.35.22-.56.29s-.44.11-.69.11c-.29,0-.56-.05-.83-.15-.26-.1-.5-.25-.7-.45s-.36-.44-.48-.73c-.12-.29-.18-.62-.18-.98,0-.34.06-.65.17-.93s.27-.52.45-.72c.19-.2.41-.36.66-.47.25-.11.51-.17.78-.17.33,0,.62.06.89.17.26.11.48.26.65.46.17.2.31.44.4.72.09.28.14.59.14.92,0,.05,0,.1,0,.15s0,.09-.01.12h-3.26c0,.19.04.37.11.53.07.16.16.3.27.42s.26.21.41.27c.16.06.33.09.51.09.35,0,.62-.08.81-.25.19-.17.32-.38.4-.62l.73.25ZM228.18,90.14c-.01-.31-.12-.58-.31-.79-.2-.21-.49-.32-.87-.32-.18,0-.34.03-.48.09-.14.06-.26.15-.36.25-.1.1-.18.22-.24.36-.06.13-.09.27-.1.41h2.37Z"/>
    <path d="M231.88,89.07c-.17,0-.34.03-.5.09-.16.06-.3.16-.42.28s-.22.28-.29.47c-.07.19-.11.41-.11.66s.04.46.11.65c.07.19.17.35.29.48s.26.23.42.29c.16.07.33.1.5.1.2,0,.38-.03.52-.09.14-.06.26-.14.35-.23.09-.09.17-.19.22-.29.05-.11.09-.2.12-.28l.75.32c-.05.16-.13.31-.23.47-.1.16-.23.3-.4.44s-.35.24-.57.32c-.22.08-.47.12-.75.12-.32,0-.61-.06-.88-.17-.27-.12-.5-.28-.69-.49-.19-.21-.34-.45-.46-.73-.11-.28-.17-.58-.17-.91s.05-.64.17-.93.26-.52.46-.72.43-.36.69-.47c.27-.11.55-.17.86-.17.29,0,.54.04.76.12.22.08.41.19.57.32s.29.28.38.45.17.33.22.49l-.76.32c-.03-.11-.07-.22-.13-.32-.05-.11-.13-.21-.22-.29s-.21-.16-.34-.22c-.13-.06-.29-.08-.48-.08Z"/>
    <path d="M236.59,88.29c.32,0,.62.06.89.18.27.12.5.28.7.48s.35.45.46.72c.11.28.16.58.16.91s-.05.64-.16.92c-.11.28-.26.53-.46.73s-.43.36-.7.48c-.27.12-.57.17-.89.17s-.62-.06-.89-.17c-.27-.12-.5-.28-.7-.48-.2-.2-.35-.45-.46-.73-.11-.28-.16-.59-.16-.92s.05-.63.16-.91c.11-.28.26-.52.46-.72.2-.2.43-.36.7-.48.27-.12.57-.18.89-.18ZM236.59,92.13c.18,0,.35-.03.51-.1s.31-.17.43-.3.23-.29.3-.49c.07-.19.11-.41.11-.67s-.04-.47-.11-.66c-.07-.19-.17-.35-.3-.48s-.27-.23-.43-.3c-.16-.07-.33-.1-.51-.1s-.35.03-.51.1c-.16.07-.31.17-.43.3s-.22.29-.3.48c-.07.19-.11.41-.11.66s.04.47.11.67c.07.19.17.35.3.49s.27.23.43.3c.16.07.33.1.51.1Z"/>
    <path d="M242.83,92.09c-.1.21-.27.39-.49.54-.23.15-.51.23-.85.23-.32,0-.6-.06-.86-.18-.25-.12-.47-.28-.64-.49-.18-.21-.31-.45-.41-.73s-.14-.58-.14-.9c0-.31.05-.6.15-.87.1-.27.24-.51.42-.72.18-.21.4-.37.65-.5.25-.12.53-.18.84-.18.19,0,.36.02.51.06.15.04.27.1.38.17.11.07.2.15.27.23.07.09.13.18.16.27v-2.8h.84v5.71c0,.21,0,.39.02.53.01.14.02.23.03.27h-.82s-.02-.12-.03-.23c0-.1-.01-.22-.01-.36v-.07ZM240.3,90.57c0,.22.03.43.09.62.06.19.14.35.25.49.11.14.24.25.4.32.16.08.34.12.54.12.19,0,.37-.04.52-.12.16-.08.29-.19.4-.33.11-.14.19-.3.25-.5.06-.19.09-.4.09-.62,0-.45-.11-.81-.33-1.09-.22-.28-.52-.41-.91-.41-.19,0-.37.04-.53.11s-.29.18-.41.31-.2.3-.26.48c-.06.19-.09.39-.09.61Z"/>
    <path d="M248.77,91.52c-.06.19-.15.37-.27.54s-.26.31-.42.43c-.17.12-.35.22-.56.29s-.44.11-.69.11c-.29,0-.56-.05-.83-.15-.26-.1-.5-.25-.7-.45s-.36-.44-.48-.73c-.12-.29-.18-.62-.18-.98,0-.34.06-.65.17-.93s.27-.52.45-.72c.19-.2.41-.36.66-.47.25-.11.51-.17.78-.17.33,0,.62.06.89.17.26.11.48.26.65.46.17.2.31.44.4.72.09.28.14.59.14.92,0,.05,0,.1,0,.15s0,.09-.01.12h-3.26c0,.19.04.37.11.53.07.16.16.3.27.42s.26.21.41.27c.16.06.33.09.51.09.35,0,.62-.08.81-.25.19-.17.32-.38.4-.62l.73.25ZM247.91,90.14c-.01-.31-.12-.58-.31-.79-.2-.21-.49-.32-.87-.32-.18,0-.34.03-.48.09-.14.06-.26.15-.36.25-.1.1-.18.22-.24.36-.06.13-.09.27-.1.41h2.37Z"/>
    <path d="M252.82,92.09c-.1.21-.27.39-.49.54-.23.15-.51.23-.85.23-.32,0-.6-.06-.86-.18-.25-.12-.47-.28-.64-.49-.18-.21-.31-.45-.41-.73s-.14-.58-.14-.9c0-.31.05-.6.15-.87.1-.27.24-.51.42-.72.18-.21.4-.37.65-.5.25-.12.53-.18.84-.18.19,0,.36.02.51.06.15.04.27.1.38.17.11.07.2.15.27.23.07.09.13.18.16.27v-2.8h.84v5.71c0,.21,0,.39.02.53.01.14.02.23.03.27h-.82s-.02-.12-.03-.23c0-.1-.01-.22-.01-.36v-.07ZM250.29,90.57c0,.22.03.43.09.62.06.19.14.35.25.49.11.14.24.25.4.32.16.08.34.12.54.12.19,0,.37-.04.52-.12.16-.08.29-.19.4-.33.11-.14.19-.3.25-.5.06-.19.09-.4.09-.62,0-.45-.11-.81-.33-1.09-.22-.28-.52-.41-.91-.41-.19,0-.37.04-.53.11s-.29.18-.41.31-.2.3-.26.48c-.06.19-.09.39-.09.61Z"/>
    <path d="M193.22,100.94v2.61h-.88v-6.38h2.32c.29,0,.56.05.81.14.24.1.45.23.62.4s.3.37.4.6c.1.23.14.48.14.75s-.05.52-.14.75c-.1.23-.23.43-.4.59s-.38.3-.62.39c-.24.1-.51.14-.81.14h-1.44ZM194.5,100.15c.38,0,.69-.1.9-.29.22-.2.33-.46.33-.79s-.11-.61-.33-.81c-.22-.2-.52-.3-.9-.3h-1.28v2.19h1.28Z"/>
    <path d="M200.38,103.68c-.41,0-.81-.07-1.19-.22-.38-.15-.72-.36-1.01-.64s-.52-.63-.7-1.04c-.18-.41-.27-.89-.27-1.42s.09-1.01.27-1.42c.18-.41.42-.76.72-1.04.3-.28.64-.5,1.02-.64.38-.15.77-.22,1.17-.22.37,0,.7.05,1.01.14.31.1.58.23.82.41.24.17.44.39.61.64s.29.53.37.84l-.82.29c-.12-.49-.35-.86-.69-1.12-.34-.26-.77-.39-1.3-.39-.29,0-.57.05-.84.16-.27.1-.52.26-.73.47-.21.21-.38.47-.51.79-.13.31-.19.68-.19,1.09s.06.78.19,1.09c.13.32.29.58.51.79.21.21.46.37.73.48.27.1.55.16.84.16.27,0,.52-.04.74-.12.22-.08.42-.18.59-.32s.32-.3.43-.49c.12-.19.21-.39.28-.61l.78.29c-.08.3-.21.58-.38.83s-.37.47-.61.65c-.24.18-.51.32-.82.42-.31.1-.65.15-1.01.15Z"/>
    <path d="M210.3,103.55v-4.97l-2.18,4.97h-.81l-2.16-4.97v4.97h-.87v-6.38h1.2l2.25,5.19,2.27-5.19h1.18v6.38h-.87Z"/>
    <path d="M215.13,102.15c.03.23.13.42.3.58.17.16.41.23.71.23.24,0,.42-.06.55-.17s.19-.25.19-.41c0-.14-.05-.25-.14-.35-.1-.1-.23-.17-.41-.21l-.74-.16c-.34-.07-.61-.22-.8-.43-.19-.22-.28-.48-.28-.78,0-.19.04-.36.12-.53s.19-.31.33-.44c.14-.13.3-.23.49-.3.19-.07.39-.11.6-.11.29,0,.54.04.74.13s.36.19.49.31.22.25.28.38c.06.13.11.25.13.34l-.75.28c-.01-.05-.03-.12-.06-.21-.03-.08-.08-.16-.14-.24-.07-.07-.16-.14-.27-.19-.11-.05-.25-.08-.42-.08-.22,0-.39.06-.52.18s-.2.25-.2.4c0,.28.17.45.5.52l.7.15c.4.08.69.24.9.46s.3.5.3.82c0,.16-.03.31-.1.47-.07.16-.16.3-.29.43s-.29.24-.49.32c-.2.08-.43.12-.7.12-.3,0-.56-.04-.77-.13s-.39-.19-.53-.31-.25-.26-.32-.41c-.07-.15-.12-.28-.14-.41l.76-.27Z"/>
    <path d="M218.48,102.39c0-.19.03-.36.1-.52.07-.15.16-.28.27-.39.12-.11.26-.2.42-.26.16-.07.34-.11.52-.14l1.17-.17c.13-.02.22-.06.27-.12s.07-.13.07-.21c0-.21-.07-.39-.22-.54-.15-.15-.39-.23-.72-.23-.3,0-.53.08-.69.25s-.26.37-.29.62l-.81-.19c.02-.2.09-.39.18-.57s.23-.32.38-.45c.16-.12.34-.22.54-.29.21-.07.43-.1.66-.1.32,0,.6.04.83.13.23.09.41.2.56.35s.25.31.31.5c.07.19.1.39.1.6v2.17c0,.19,0,.35.02.46.01.11.02.2.04.25h-.83c-.01-.05-.02-.13-.03-.22s-.01-.21-.01-.37c-.05.08-.11.16-.19.24-.08.08-.17.16-.29.23-.11.07-.25.13-.4.17-.15.04-.33.07-.52.07-.22,0-.42-.04-.6-.11-.18-.07-.33-.17-.46-.28-.13-.12-.22-.25-.29-.41-.07-.16-.1-.32-.1-.5ZM220.05,102.97c.17,0,.34-.02.49-.07.15-.04.28-.12.4-.22s.2-.23.27-.4.1-.37.1-.6v-.2l-1.32.2c-.18.03-.33.1-.45.2-.12.11-.18.25-.18.45,0,.16.06.31.19.44s.3.19.51.19Z"/>
    <path d="M223.37,103.55v-4.33h.81v.58c.14-.24.33-.42.57-.53.24-.11.49-.17.74-.17.27,0,.52.07.76.2s.42.34.54.62c.17-.31.39-.53.65-.64s.52-.18.8-.18c.19,0,.37.03.55.1.18.07.34.17.48.3.14.14.25.31.34.51s.13.45.13.73v2.81h-.84v-2.72c0-.28-.07-.52-.22-.71-.15-.19-.38-.28-.7-.28-.3,0-.54.1-.72.31-.18.21-.27.47-.27.78v2.62h-.85v-2.72c0-.28-.07-.52-.22-.71-.14-.19-.38-.28-.7-.28-.31,0-.55.1-.73.31-.18.2-.27.47-.27.79v2.61h-.84Z"/>
    <path d="M230.99,105.26v-6.04h.82v.68c.12-.22.3-.4.55-.55.25-.15.55-.22.9-.22.32,0,.61.06.86.18.25.12.46.28.62.48s.29.44.38.72.13.57.13.88-.04.62-.13.9c-.09.28-.22.52-.4.72-.17.21-.39.37-.63.49-.25.12-.53.18-.85.18-.34,0-.62-.07-.86-.21-.24-.14-.42-.3-.54-.5v2.29h-.84ZM234.38,101.38c0-.22-.03-.42-.09-.6-.06-.18-.14-.34-.25-.48-.11-.13-.24-.24-.4-.32-.16-.08-.34-.12-.54-.12s-.37.04-.53.12-.3.18-.41.32c-.11.13-.2.29-.26.48-.06.18-.09.38-.09.6s.03.43.09.62c.06.19.15.35.26.49.11.13.25.24.41.32s.33.11.53.11.38-.04.53-.11c.16-.08.29-.18.4-.32s.2-.3.26-.49c.06-.19.09-.39.09-.62Z"/>
    <path d="M236.24,103.55v-6.52h.85v6.52h-.85Z"/>
    <path d="M242.21,102.32c-.06.19-.15.37-.27.54s-.26.31-.42.43c-.17.12-.35.22-.56.29s-.44.11-.69.11c-.29,0-.56-.05-.83-.15-.26-.1-.5-.25-.7-.45s-.36-.44-.48-.73c-.12-.29-.18-.62-.18-.98,0-.34.06-.65.17-.93s.27-.52.45-.72c.19-.2.41-.36.66-.47.25-.11.51-.17.78-.17.33,0,.62.06.89.17.26.11.48.26.65.46.17.2.31.44.4.72.09.28.14.59.14.92,0,.05,0,.1,0,.15s0,.09-.01.12h-3.26c0,.19.04.37.11.53.07.16.16.3.27.42s.26.21.41.27c.16.06.33.09.51.09.35,0,.62-.08.81-.25.19-.17.32-.38.4-.62l.73.25ZM241.35,100.94c-.01-.31-.12-.58-.31-.79-.2-.21-.49-.32-.87-.32-.18,0-.34.03-.48.09-.14.06-.26.15-.36.25-.1.1-.18.22-.24.36-.06.13-.09.27-.1.41h2.37Z"/>
    <path d="M243.58,102.15c.03.23.13.42.3.58.17.16.41.23.71.23.24,0,.42-.06.55-.17s.19-.25.19-.41c0-.14-.05-.25-.14-.35-.1-.1-.23-.17-.41-.21l-.74-.16c-.34-.07-.61-.22-.8-.43-.19-.22-.28-.48-.28-.78,0-.19.04-.36.12-.53s.19-.31.33-.44c.14-.13.3-.23.49-.3.19-.07.39-.11.6-.11.29,0,.54.04.74.13s.36.19.49.31.22.25.28.38c.06.13.11.25.13.34l-.75.28c-.01-.05-.03-.12-.06-.21-.03-.08-.08-.16-.14-.24-.07-.07-.16-.14-.27-.19-.11-.05-.25-.08-.42-.08-.22,0-.39.06-.52.18s-.2.25-.2.4c0,.28.17.45.5.52l.7.15c.4.08.69.24.9.46s.3.5.3.82c0,.16-.03.31-.1.47-.07.16-.16.3-.29.43s-.29.24-.49.32c-.2.08-.43.12-.7.12-.3,0-.56-.04-.77-.13s-.39-.19-.53-.31-.25-.26-.32-.41c-.07-.15-.12-.28-.14-.41l.76-.27Z"/>
  </g>
  <g>
    <path d="M422.06,17.87v3.56h-.87v-3.56h-.8v-.77h.8v-.73c0-.24.04-.45.11-.64.07-.19.18-.34.31-.47s.28-.22.45-.28c.17-.06.36-.09.55-.09.14,0,.26.01.35.04.09.02.14.04.16.05v.76s-.06-.02-.12-.04c-.06-.01-.14-.02-.25-.02-.07,0-.15.01-.23.03-.08.02-.16.06-.22.11-.07.05-.12.13-.17.22-.04.1-.06.22-.06.37v.68h1.04v.77h-1.04Z"/>
    <path d="M426.33,17.96c-.13-.02-.25-.03-.37-.03-.35,0-.64.1-.86.31s-.33.55-.33,1.02v2.17h-.85v-4.33h.83v.76c.08-.17.17-.3.28-.41.11-.1.21-.19.33-.25.11-.06.23-.11.35-.13.12-.02.23-.04.34-.04.06,0,.12,0,.17,0s.09.01.11.02v.9Z"/>
    <path d="M426.87,20.27c0-.19.03-.36.1-.52.07-.15.16-.28.27-.39.12-.11.26-.2.42-.26.16-.07.34-.11.52-.14l1.17-.17c.13-.02.22-.06.27-.12s.07-.13.07-.21c0-.21-.07-.39-.22-.54-.15-.15-.39-.23-.72-.23-.3,0-.53.08-.69.25s-.26.37-.29.62l-.81-.19c.02-.2.09-.39.19-.57.1-.17.23-.32.38-.45.15-.12.34-.22.54-.29.21-.07.43-.1.66-.1.32,0,.6.04.83.13s.41.2.56.35c.14.14.25.31.31.5.07.19.1.39.1.6v2.17c0,.19,0,.35.02.46.01.11.02.2.04.25h-.83c-.01-.05-.02-.13-.03-.22,0-.09-.01-.21-.01-.37-.05.08-.11.16-.19.24-.08.08-.18.16-.29.23-.11.07-.25.13-.4.17s-.33.07-.52.07c-.22,0-.42-.04-.6-.11-.18-.07-.33-.17-.46-.28-.13-.12-.22-.25-.29-.41-.07-.16-.1-.32-.1-.5ZM428.43,20.86c.17,0,.34-.02.49-.07s.29-.12.4-.22.2-.23.27-.4.1-.37.1-.6v-.2l-1.32.2c-.18.03-.33.1-.45.2-.12.11-.18.25-.18.45,0,.16.06.31.19.44.13.13.3.19.51.19Z"/>
    <path d="M431.75,21.43v-4.33h.81v.58c.14-.24.33-.42.57-.53.24-.11.49-.17.74-.17.27,0,.52.07.76.2.24.13.42.34.54.62.17-.31.39-.53.65-.64s.53-.18.8-.18c.19,0,.37.03.55.1.18.07.34.17.48.3.14.14.25.31.34.51s.12.45.12.73v2.81h-.84v-2.72c0-.28-.07-.52-.22-.71-.15-.19-.38-.28-.7-.28s-.54.1-.72.31c-.18.21-.28.47-.28.78v2.62h-.85v-2.72c0-.28-.07-.52-.22-.71-.14-.19-.38-.28-.7-.28-.31,0-.55.1-.73.31-.18.2-.27.47-.27.79v2.61h-.84Z"/>
    <path d="M443.15,20.2c-.06.19-.15.37-.27.54s-.26.31-.42.43c-.16.12-.35.22-.56.29-.21.07-.44.11-.69.11-.29,0-.56-.05-.83-.15-.26-.1-.5-.25-.7-.45s-.36-.44-.48-.73c-.12-.29-.18-.62-.18-.98,0-.34.06-.65.17-.93.11-.28.27-.52.45-.72.19-.2.41-.36.66-.47.25-.11.51-.17.78-.17.33,0,.62.06.89.17.26.11.48.26.65.46s.31.44.4.72.14.59.14.92c0,.05,0,.1,0,.15,0,.05,0,.09-.01.12h-3.26c0,.19.04.37.11.53.07.16.16.3.28.42.12.12.26.21.41.27.16.06.33.09.51.09.36,0,.62-.08.81-.25s.32-.38.4-.62l.73.25ZM442.29,18.83c-.01-.31-.12-.58-.31-.79-.2-.21-.49-.32-.87-.32-.18,0-.34.03-.48.09-.14.06-.26.15-.36.25-.1.1-.18.22-.24.36-.06.13-.09.27-.1.41h2.37Z"/>
    <path d="M448.18,16.97c.32,0,.62.06.89.18s.5.28.7.48c.2.2.35.45.46.72.11.28.16.58.16.91s-.05.64-.16.92c-.11.28-.26.53-.46.73-.2.2-.43.36-.7.48s-.57.17-.89.17-.62-.06-.89-.17c-.27-.12-.5-.28-.7-.48s-.35-.45-.46-.73c-.11-.28-.16-.59-.16-.92s.05-.63.16-.91c.11-.28.26-.52.46-.72s.43-.36.7-.48c.27-.12.57-.18.89-.18ZM448.18,20.81c.18,0,.35-.03.51-.1s.31-.17.43-.3c.13-.13.23-.29.3-.49.07-.19.11-.41.11-.67s-.04-.47-.11-.66c-.07-.19-.17-.35-.3-.48-.12-.13-.27-.23-.43-.3-.16-.07-.33-.1-.51-.1s-.35.03-.51.1c-.16.07-.31.17-.43.3-.13.13-.22.29-.3.48-.07.19-.11.41-.11.66s.04.47.11.67c.07.19.17.35.3.49.12.13.27.23.43.3s.33.1.51.1Z"/>
    <path d="M452.51,17.87v3.56h-.87v-3.56h-.8v-.77h.8v-.73c0-.24.04-.45.11-.64.07-.19.18-.34.31-.47s.28-.22.45-.28c.17-.06.36-.09.55-.09.14,0,.26.01.35.04.09.02.14.04.16.05v.76s-.06-.02-.12-.04c-.06-.01-.14-.02-.25-.02-.07,0-.15.01-.23.03-.08.02-.16.06-.22.11-.07.05-.12.13-.17.22-.04.1-.06.22-.06.37v.68h1.04v.77h-1.04Z"/>
    <path d="M460.31,20.2c-.06.19-.15.37-.27.54s-.26.31-.42.43c-.17.12-.35.22-.56.29-.21.07-.44.11-.69.11-.29,0-.56-.05-.83-.15-.26-.1-.5-.25-.7-.45s-.36-.44-.48-.73c-.12-.29-.18-.62-.18-.98,0-.34.06-.65.17-.93.12-.28.27-.52.46-.72s.41-.36.66-.47c.25-.11.51-.17.78-.17.33,0,.62.06.88.17.26.11.48.26.65.46.18.2.31.44.4.72.09.28.14.59.14.92,0,.05,0,.1,0,.15,0,.05,0,.09-.01.12h-3.26c0,.19.04.37.11.53s.16.3.27.42c.12.12.26.21.41.27.16.06.33.09.51.09.35,0,.62-.08.81-.25.19-.17.32-.38.4-.62l.73.25ZM459.45,18.83c-.01-.31-.12-.58-.31-.79s-.49-.32-.87-.32c-.18,0-.34.03-.48.09-.14.06-.26.15-.36.25-.1.1-.18.22-.24.36s-.09.27-.1.41h2.37Z"/>
    <path d="M462.17,21.43h-.85v-4.33h.83v.62c.16-.27.36-.46.59-.58.24-.11.49-.17.74-.17s.48.04.68.13.36.21.49.36c.13.15.22.33.29.54.06.21.09.44.09.67v2.75h-.85v-2.6c0-.15-.02-.29-.05-.42s-.09-.25-.17-.35c-.08-.1-.19-.18-.31-.23-.13-.06-.29-.08-.47-.08-.17,0-.32.03-.44.09s-.23.15-.31.26c-.08.11-.15.23-.19.38-.04.14-.06.3-.06.46v2.5Z"/>
    <path d="M468.11,17.75c-.17,0-.34.03-.5.09-.16.06-.29.16-.42.28s-.22.28-.29.47c-.07.19-.11.41-.11.66s.04.46.11.65c.07.19.17.35.29.48.12.13.26.23.42.29.16.07.33.1.5.1.21,0,.38-.03.52-.09.14-.06.26-.14.35-.23s.17-.19.22-.29c.05-.11.09-.2.12-.28l.75.32c-.05.16-.13.31-.23.47-.1.16-.23.3-.39.44s-.35.24-.57.32-.47.12-.75.12c-.32,0-.61-.06-.88-.17s-.5-.28-.69-.49c-.19-.21-.34-.45-.46-.73-.11-.28-.17-.58-.17-.91s.05-.64.17-.93.26-.52.46-.72.43-.36.69-.47c.27-.11.55-.17.86-.17.29,0,.54.04.76.12.22.08.41.19.57.32.16.13.29.28.38.45s.17.33.22.49l-.77.32c-.03-.11-.07-.22-.12-.32-.05-.11-.13-.21-.22-.29-.09-.09-.21-.16-.34-.22-.13-.06-.29-.08-.48-.08Z"/>
    <path d="M472.83,16.97c.32,0,.62.06.89.18.27.12.5.28.7.48.2.2.35.45.46.72.11.28.16.58.16.91s-.05.64-.16.92c-.11.28-.26.53-.46.73-.2.2-.43.36-.7.48-.27.12-.57.17-.89.17s-.62-.06-.89-.17-.5-.28-.7-.48c-.2-.2-.35-.45-.46-.73-.11-.28-.16-.59-.16-.92s.05-.63.16-.91c.11-.28.26-.52.46-.72.2-.2.43-.36.7-.48s.57-.18.89-.18ZM472.83,20.81c.18,0,.35-.03.51-.1s.3-.17.43-.3c.12-.13.22-.29.3-.49.07-.19.11-.41.11-.67s-.04-.47-.11-.66c-.07-.19-.17-.35-.3-.48-.13-.13-.27-.23-.43-.3-.16-.07-.33-.1-.51-.1s-.35.03-.51.1c-.16.07-.3.17-.43.3-.12.13-.22.29-.3.48-.07.19-.11.41-.11.66s.04.47.11.67c.07.19.17.35.3.49.13.13.27.23.43.3.16.07.33.1.51.1Z"/>
    <path d="M479.06,20.78c-.1.21-.27.39-.49.54s-.51.23-.85.23c-.32,0-.6-.06-.86-.18-.25-.12-.47-.28-.64-.49-.18-.21-.31-.45-.41-.73s-.14-.58-.14-.9c0-.31.05-.6.15-.87.1-.27.24-.51.42-.72.18-.21.4-.37.65-.5.25-.12.53-.18.84-.18.19,0,.36.02.51.06s.28.1.38.17c.11.07.2.15.27.23s.13.18.16.27v-2.8h.84v5.71c0,.21,0,.39.02.53.01.14.02.23.03.27h-.82s-.02-.12-.03-.23c0-.1-.01-.22-.01-.36v-.07ZM476.53,19.26c0,.22.03.43.09.62.06.19.14.35.25.49.11.14.24.25.4.32.16.08.34.12.54.12.19,0,.37-.04.52-.12.16-.08.29-.19.4-.33.11-.14.19-.3.25-.5.06-.19.09-.4.09-.62,0-.45-.11-.81-.33-1.09-.22-.28-.52-.41-.91-.41-.19,0-.37.04-.53.11-.16.08-.29.18-.4.31s-.2.3-.26.48c-.06.19-.09.39-.09.61Z"/>
    <path d="M485,20.2c-.06.19-.15.37-.27.54s-.26.31-.42.43c-.16.12-.35.22-.56.29-.21.07-.44.11-.69.11-.29,0-.56-.05-.83-.15-.26-.1-.5-.25-.7-.45s-.36-.44-.48-.73c-.12-.29-.18-.62-.18-.98,0-.34.06-.65.17-.93.11-.28.27-.52.45-.72.19-.2.41-.36.66-.47.25-.11.51-.17.78-.17.33,0,.62.06.89.17.26.11.48.26.65.46s.31.44.4.72.14.59.14.92c0,.05,0,.1,0,.15,0,.05,0,.09-.01.12h-3.26c0,.19.04.37.11.53.07.16.16.3.28.42.12.12.26.21.41.27.16.06.33.09.51.09.36,0,.62-.08.81-.25s.32-.38.4-.62l.73.25ZM484.15,18.83c-.01-.31-.12-.58-.31-.79-.2-.21-.49-.32-.87-.32-.18,0-.34.03-.48.09-.14.06-.26.15-.36.25-.1.1-.18.22-.24.36-.06.13-.09.27-.1.41h2.37Z"/>
    <path d="M489.05,20.78c-.1.21-.27.39-.49.54s-.51.23-.85.23c-.32,0-.6-.06-.86-.18-.25-.12-.47-.28-.64-.49-.18-.21-.31-.45-.41-.73s-.14-.58-.14-.9c0-.31.05-.6.15-.87.1-.27.24-.51.42-.72.18-.21.4-.37.65-.5.25-.12.53-.18.84-.18.19,0,.36.02.51.06s.28.1.38.17c.11.07.2.15.27.23s.13.18.16.27v-2.8h.84v5.71c0,.21,0,.39.02.53.01.14.02.23.03.27h-.82s-.02-.12-.03-.23c0-.1-.01-.22-.01-.36v-.07ZM486.52,19.26c0,.22.03.43.09.62.06.19.14.35.25.49.11.14.24.25.4.32.16.08.34.12.54.12.19,0,.37-.04.52-.12.16-.08.29-.19.4-.33.11-.14.19-.3.25-.5.06-.19.09-.4.09-.62,0-.45-.11-.81-.33-1.09-.22-.28-.52-.41-.91-.41-.19,0-.37.04-.53.11-.16.08-.29.18-.4.31s-.2.3-.26.48c-.06.19-.09.39-.09.61Z"/>
    <path d="M493.11,20.27c0-.19.03-.36.1-.52.07-.15.16-.28.27-.39.12-.11.26-.2.42-.26.16-.07.34-.11.52-.14l1.17-.17c.13-.02.22-.06.27-.12s.07-.13.07-.21c0-.21-.07-.39-.22-.54-.15-.15-.39-.23-.72-.23-.3,0-.53.08-.69.25s-.26.37-.29.62l-.81-.19c.02-.2.09-.39.19-.57.1-.17.23-.32.38-.45.15-.12.34-.22.54-.29.21-.07.43-.1.66-.1.32,0,.6.04.83.13s.41.2.56.35c.14.14.25.31.31.5.07.19.1.39.1.6v2.17c0,.19,0,.35.02.46.01.11.02.2.04.25h-.83c-.01-.05-.02-.13-.03-.22,0-.09-.01-.21-.01-.37-.05.08-.11.16-.19.24-.08.08-.18.16-.29.23-.11.07-.25.13-.4.17s-.33.07-.52.07c-.22,0-.42-.04-.6-.11-.18-.07-.33-.17-.46-.28-.13-.12-.22-.25-.29-.41-.07-.16-.1-.32-.1-.5ZM494.68,20.86c.17,0,.34-.02.49-.07s.29-.12.4-.22.2-.23.27-.4.1-.37.1-.6v-.2l-1.32.2c-.18.03-.33.1-.45.2-.12.11-.18.25-.18.45,0,.16.06.31.19.44.13.13.3.19.51.19Z"/>
    <path d="M498.85,21.43h-.85v-4.33h.83v.62c.16-.27.36-.46.59-.58.24-.11.49-.17.74-.17s.48.04.68.13.36.21.49.36c.13.15.22.33.29.54.06.21.09.44.09.67v2.75h-.85v-2.6c0-.15-.02-.29-.05-.42s-.09-.25-.17-.35c-.08-.1-.19-.18-.31-.23-.13-.06-.29-.08-.47-.08-.17,0-.32.03-.44.09s-.23.15-.31.26c-.08.11-.15.23-.19.38-.04.14-.06.3-.06.46v2.5Z"/>
    <path d="M506,20.78c-.1.21-.27.39-.49.54-.23.15-.51.23-.85.23-.32,0-.6-.06-.86-.18-.25-.12-.46-.28-.64-.49s-.31-.45-.41-.73-.14-.58-.14-.9c0-.31.05-.6.15-.87.1-.27.24-.51.42-.72s.4-.37.65-.5c.25-.12.53-.18.84-.18.19,0,.36.02.51.06.15.04.27.1.38.17.11.07.2.15.27.23.07.09.12.18.16.27v-2.8h.84v5.71c0,.21,0,.39.02.53.01.14.02.23.03.27h-.82s-.02-.12-.03-.23c0-.1-.01-.22-.01-.36v-.07ZM503.47,19.26c0,.22.03.43.09.62.06.19.14.35.25.49.11.14.24.25.4.32.16.08.34.12.54.12.19,0,.37-.04.52-.12s.29-.19.4-.33c.11-.14.19-.3.25-.5.06-.19.09-.4.09-.62,0-.45-.11-.81-.33-1.09-.22-.28-.52-.41-.91-.41-.19,0-.37.04-.53.11-.16.08-.29.18-.41.31s-.2.3-.26.48c-.06.19-.09.39-.09.61Z"/>
    <path d="M414.61,28.55c-.17,0-.34.03-.49.09-.16.06-.3.16-.42.28s-.22.28-.29.47c-.07.19-.11.41-.11.66s.04.46.11.65c.07.19.17.35.29.48.12.13.26.23.42.29.16.07.33.1.5.1.2,0,.38-.03.52-.09.14-.06.26-.14.35-.23.09-.09.17-.19.22-.29.05-.11.09-.2.12-.28l.75.32c-.05.16-.13.31-.23.47s-.23.3-.4.44-.35.24-.57.32c-.22.08-.47.12-.75.12-.32,0-.61-.06-.88-.17-.27-.12-.5-.28-.69-.49s-.34-.45-.46-.73c-.11-.28-.17-.58-.17-.91s.05-.64.17-.93.26-.52.46-.72.43-.36.69-.47c.27-.11.55-.17.86-.17s.54.04.76.12c.22.08.41.19.57.32.16.13.29.28.38.45s.17.33.21.49l-.76.32c-.03-.11-.07-.22-.13-.32-.05-.11-.13-.21-.22-.29-.09-.09-.21-.16-.34-.22-.13-.06-.29-.08-.48-.08Z"/>
    <path d="M419.33,27.77c.32,0,.62.06.89.18s.5.28.7.48c.2.2.35.45.46.72.11.28.16.58.16.91s-.05.64-.16.92c-.11.28-.26.53-.46.73-.2.2-.43.36-.7.48s-.57.17-.89.17-.62-.06-.89-.17c-.27-.12-.5-.28-.7-.48s-.35-.45-.46-.73c-.11-.28-.16-.59-.16-.92s.05-.63.16-.91c.11-.28.26-.52.46-.72s.43-.36.7-.48c.27-.12.57-.18.89-.18ZM419.33,31.61c.18,0,.35-.03.51-.1s.31-.17.43-.3c.13-.13.23-.29.3-.49.07-.19.11-.41.11-.67s-.04-.47-.11-.66c-.07-.19-.17-.35-.3-.48-.12-.13-.27-.23-.43-.3-.16-.07-.33-.1-.51-.1s-.35.03-.51.1c-.16.07-.31.17-.43.3-.13.13-.22.29-.3.48-.07.19-.11.41-.11.66s.04.47.11.67c.07.19.17.35.3.49.12.13.27.23.43.3s.33.1.51.1Z"/>
    <path d="M422.53,32.23v-4.33h.81v.58c.14-.24.33-.42.57-.53.24-.11.49-.17.74-.17.27,0,.52.07.76.2.24.13.41.34.54.62.17-.31.39-.53.65-.64s.52-.18.8-.18c.19,0,.37.03.55.1.18.07.34.17.48.3.14.14.25.31.34.51s.13.45.13.73v2.81h-.84v-2.72c0-.28-.07-.52-.22-.71-.15-.19-.38-.28-.7-.28-.3,0-.54.1-.72.31s-.27.47-.27.78v2.62h-.85v-2.72c0-.28-.07-.52-.22-.71-.14-.19-.38-.28-.7-.28s-.55.1-.73.31-.28.47-.28.79v2.61h-.84Z"/>
    <path d="M430.15,33.94v-6.04h.82v.68c.12-.22.3-.4.55-.55.25-.15.55-.22.9-.22.32,0,.61.06.86.18.25.12.46.28.62.48.17.2.29.44.38.72.09.28.13.57.13.88s-.04.62-.13.9c-.09.28-.22.52-.39.72-.18.21-.39.37-.63.49-.25.12-.53.18-.85.18-.34,0-.62-.07-.86-.21s-.42-.3-.54-.5v2.29h-.84ZM433.55,30.07c0-.22-.03-.42-.09-.6-.06-.18-.14-.34-.25-.48s-.24-.24-.4-.32-.34-.12-.54-.12-.37.04-.53.12c-.16.08-.29.18-.41.32-.12.13-.2.29-.26.48-.06.18-.09.38-.09.6s.03.43.09.62c.06.19.15.35.26.49.11.13.25.24.41.32.16.08.33.11.53.11s.38-.04.53-.11c.15-.08.29-.18.4-.32s.2-.3.26-.49c.06-.19.09-.39.09-.62Z"/>
    <path d="M437.8,28.76c-.12-.02-.25-.03-.37-.03-.35,0-.64.1-.86.31s-.33.55-.33,1.02v2.17h-.85v-4.33h.83v.76c.08-.17.17-.3.27-.41.11-.1.21-.19.33-.25.11-.06.23-.11.35-.13.12-.02.23-.04.34-.04.06,0,.12,0,.17,0,.05,0,.09.01.11.02v.9Z"/>
    <path d="M442.38,31c-.06.19-.15.37-.27.54s-.26.31-.42.43c-.16.12-.35.22-.56.29-.21.07-.44.11-.69.11-.29,0-.56-.05-.83-.15-.26-.1-.5-.25-.7-.45s-.36-.44-.48-.73c-.12-.29-.18-.62-.18-.98,0-.34.06-.65.17-.93.11-.28.27-.52.45-.72.19-.2.41-.36.66-.47.25-.11.51-.17.78-.17.33,0,.62.06.89.17.26.11.48.26.65.46s.31.44.4.72.14.59.14.92c0,.05,0,.1,0,.15,0,.05,0,.09-.01.12h-3.26c0,.19.04.37.11.53.07.16.16.3.28.42.12.12.26.21.41.27.16.06.33.09.51.09.36,0,.62-.08.81-.25s.32-.38.4-.62l.73.25ZM441.53,29.62c-.01-.31-.12-.58-.31-.79-.2-.21-.49-.32-.87-.32-.18,0-.34.03-.48.09-.14.06-.26.15-.36.25-.1.1-.18.22-.24.36-.06.13-.09.27-.1.41h2.37Z"/>
    <path d="M443.76,30.84c.03.23.13.42.3.58.17.16.4.23.71.23.24,0,.42-.06.55-.17.12-.11.19-.25.19-.41,0-.14-.05-.25-.14-.35s-.23-.17-.41-.21l-.74-.16c-.34-.07-.61-.22-.8-.43-.19-.22-.28-.48-.28-.78,0-.19.04-.36.12-.53.08-.17.19-.31.33-.44.14-.13.3-.23.49-.3.19-.07.39-.11.6-.11.29,0,.54.04.74.13s.37.19.49.31c.13.12.22.25.29.38.06.13.11.25.13.34l-.75.28c-.01-.05-.03-.12-.06-.21-.03-.08-.08-.16-.14-.24-.07-.07-.16-.14-.27-.19-.12-.05-.26-.08-.42-.08-.21,0-.39.06-.52.18-.13.12-.2.25-.2.4,0,.28.17.45.5.52l.7.15c.4.08.7.24.9.46s.3.5.3.82c0,.16-.03.31-.1.47-.07.16-.16.3-.29.43s-.29.24-.49.32c-.2.08-.43.12-.7.12-.3,0-.56-.04-.77-.13s-.39-.19-.53-.31-.25-.26-.32-.41c-.07-.15-.12-.28-.14-.41l.77-.27Z"/>
    <path d="M447.74,30.84c.03.23.13.42.3.58.17.16.4.23.71.23.24,0,.42-.06.55-.17.12-.11.19-.25.19-.41,0-.14-.05-.25-.14-.35s-.23-.17-.41-.21l-.74-.16c-.34-.07-.61-.22-.8-.43-.19-.22-.28-.48-.28-.78,0-.19.04-.36.12-.53.08-.17.19-.31.33-.44.14-.13.3-.23.49-.3.19-.07.39-.11.6-.11.29,0,.54.04.74.13s.37.19.49.31c.13.12.22.25.29.38.06.13.11.25.13.34l-.75.28c-.01-.05-.03-.12-.06-.21-.03-.08-.08-.16-.14-.24-.07-.07-.16-.14-.27-.19-.12-.05-.26-.08-.42-.08-.21,0-.39.06-.52.18-.13.12-.2.25-.2.4,0,.28.17.45.5.52l.7.15c.4.08.7.24.9.46s.3.5.3.82c0,.16-.03.31-.1.47-.07.16-.16.3-.29.43s-.29.24-.49.32c-.2.08-.43.12-.7.12-.3,0-.56-.04-.77-.13s-.39-.19-.53-.31-.25-.26-.32-.41c-.07-.15-.12-.28-.14-.41l.77-.27Z"/>
    <path d="M455.13,31c-.06.19-.15.37-.27.54s-.26.31-.42.43c-.17.12-.35.22-.56.29-.21.07-.44.11-.69.11-.29,0-.56-.05-.83-.15-.26-.1-.5-.25-.7-.45s-.36-.44-.48-.73c-.12-.29-.18-.62-.18-.98,0-.34.06-.65.17-.93.12-.28.27-.52.46-.72s.41-.36.66-.47c.25-.11.51-.17.78-.17.33,0,.62.06.88.17.26.11.48.26.65.46.18.2.31.44.4.72.09.28.14.59.14.92,0,.05,0,.1,0,.15,0,.05,0,.09-.01.12h-3.26c0,.19.04.37.11.53s.16.3.27.42c.12.12.26.21.41.27.16.06.33.09.51.09.35,0,.62-.08.81-.25.19-.17.32-.38.4-.62l.73.25ZM454.27,29.62c-.01-.31-.12-.58-.31-.79s-.49-.32-.87-.32c-.18,0-.34.03-.48.09-.14.06-.26.15-.36.25-.1.1-.18.22-.24.36s-.09.27-.1.41h2.37Z"/>
    <path d="M459.18,31.58c-.1.21-.27.39-.49.54-.23.15-.51.23-.85.23-.32,0-.6-.06-.86-.18-.25-.12-.46-.28-.64-.49s-.31-.45-.41-.73-.14-.58-.14-.9c0-.31.05-.6.15-.87.1-.27.24-.51.42-.72s.4-.37.65-.5c.25-.12.53-.18.84-.18.19,0,.36.02.51.06.15.04.27.1.38.17.11.07.2.15.27.23.07.09.12.18.16.27v-2.8h.84v5.71c0,.21,0,.39.02.53.01.14.02.23.03.27h-.82s-.02-.12-.03-.23c0-.1-.01-.22-.01-.36v-.07ZM456.65,30.06c0,.22.03.43.09.62.06.19.14.35.25.49.11.14.24.25.4.32.16.08.34.12.54.12.19,0,.37-.04.52-.12s.29-.19.4-.33c.11-.14.19-.3.25-.5.06-.19.09-.4.09-.62,0-.45-.11-.81-.33-1.09-.22-.28-.52-.41-.91-.41-.19,0-.37.04-.53.11-.16.08-.29.18-.41.31s-.2.3-.26.48c-.06.19-.09.39-.09.61Z"/>
    <path d="M464.48,29.62v2.61h-.88v-6.38h2.32c.29,0,.56.05.8.14.24.1.45.23.62.4.17.17.3.37.4.6.1.23.14.48.14.75s-.05.52-.14.75c-.1.23-.23.43-.4.59-.17.17-.38.3-.62.39-.24.1-.51.14-.8.14h-1.44ZM465.76,28.83c.38,0,.69-.1.9-.29s.33-.46.33-.79-.11-.61-.33-.81-.52-.3-.9-.3h-1.28v2.19h1.28Z"/>
    <path d="M471.64,32.37c-.41,0-.81-.07-1.19-.22-.38-.15-.72-.36-1.01-.64s-.53-.63-.7-1.04c-.18-.41-.27-.89-.27-1.42s.09-1.01.27-1.42.42-.76.71-1.04c.3-.28.64-.5,1.02-.64.38-.15.77-.22,1.17-.22.37,0,.7.05,1.01.14.3.1.58.23.82.41s.44.39.61.64c.17.25.29.53.37.84l-.82.29c-.12-.49-.35-.86-.69-1.12-.34-.26-.77-.39-1.3-.39-.29,0-.57.05-.84.16-.27.1-.52.26-.73.47-.21.21-.38.47-.51.79-.12.31-.19.68-.19,1.09s.06.78.19,1.09c.13.32.29.58.51.79.21.21.46.37.73.48.27.1.55.16.84.16.27,0,.52-.04.74-.12.22-.08.42-.18.59-.32.17-.13.32-.3.43-.49.12-.19.21-.39.28-.61l.78.29c-.08.3-.21.58-.38.83s-.37.47-.61.65c-.24.18-.51.32-.82.42-.31.1-.65.15-1.01.15Z"/>
    <path d="M481.56,32.23v-4.97l-2.18,4.97h-.81l-2.16-4.97v4.97h-.87v-6.38h1.2l2.25,5.19,2.27-5.19h1.18v6.38h-.87Z"/>
    <path d="M486.39,30.84c.03.23.13.42.3.58.17.16.41.23.71.23.24,0,.42-.06.55-.17.13-.11.19-.25.19-.41,0-.14-.05-.25-.14-.35-.1-.1-.23-.17-.41-.21l-.74-.16c-.34-.07-.61-.22-.8-.43s-.28-.48-.28-.78c0-.19.04-.36.12-.53.08-.17.19-.31.33-.44s.3-.23.49-.3c.19-.07.39-.11.6-.11.29,0,.54.04.74.13s.36.19.49.31c.12.12.22.25.28.38s.11.25.13.34l-.75.28c-.01-.05-.03-.12-.06-.21s-.08-.16-.14-.24c-.06-.07-.15-.14-.27-.19-.11-.05-.25-.08-.42-.08-.22,0-.39.06-.52.18-.13.12-.2.25-.2.4,0,.28.16.45.49.52l.7.15c.4.08.69.24.89.46s.3.5.3.82c0,.16-.03.31-.1.47-.07.16-.16.3-.29.43s-.29.24-.49.32-.43.12-.7.12c-.3,0-.56-.04-.77-.13s-.39-.19-.53-.31-.25-.26-.32-.41c-.07-.15-.12-.28-.14-.41l.76-.27Z"/>
    <path d="M489.74,31.07c0-.19.03-.36.1-.52.07-.15.16-.28.27-.39.12-.11.26-.2.42-.26.16-.07.34-.11.52-.14l1.17-.17c.13-.02.22-.06.27-.12s.07-.13.07-.21c0-.21-.07-.39-.22-.54-.15-.15-.39-.23-.72-.23-.3,0-.53.08-.69.25s-.26.37-.29.62l-.81-.19c.02-.2.09-.39.19-.57.1-.17.23-.32.38-.45.15-.12.34-.22.54-.29.21-.07.43-.1.66-.1.32,0,.6.04.83.13s.41.2.56.35c.14.14.25.31.31.5.07.19.1.39.1.6v2.17c0,.19,0,.35.02.46.01.11.02.2.04.25h-.83c-.01-.05-.02-.13-.03-.22,0-.09-.01-.21-.01-.37-.05.08-.11.16-.19.24-.08.08-.18.16-.29.23-.11.07-.25.13-.4.17s-.33.07-.52.07c-.22,0-.42-.04-.6-.11-.18-.07-.33-.17-.46-.28-.13-.12-.22-.25-.29-.41-.07-.16-.1-.32-.1-.5ZM491.31,31.66c.17,0,.34-.02.49-.07s.29-.12.4-.22.2-.23.27-.4.1-.37.1-.6v-.2l-1.32.2c-.18.03-.33.1-.45.2-.12.11-.18.25-.18.45,0,.16.06.31.19.44.13.13.3.19.51.19Z"/>
    <path d="M494.63,32.23v-4.33h.81v.58c.14-.24.33-.42.57-.53.24-.11.49-.17.74-.17.27,0,.52.07.76.2.24.13.42.34.54.62.17-.31.39-.53.65-.64s.53-.18.8-.18c.19,0,.37.03.55.1.18.07.34.17.48.3.14.14.25.31.34.51s.12.45.12.73v2.81h-.84v-2.72c0-.28-.07-.52-.22-.71-.15-.19-.38-.28-.7-.28s-.54.1-.72.31c-.18.21-.28.47-.28.78v2.62h-.85v-2.72c0-.28-.07-.52-.22-.71-.14-.19-.38-.28-.7-.28-.31,0-.55.1-.73.31-.18.2-.27.47-.27.79v2.61h-.84Z"/>
    <path d="M502.25,33.94v-6.04h.82v.68c.12-.22.3-.4.55-.55.25-.15.54-.22.9-.22.32,0,.61.06.86.18.25.12.46.28.62.48.16.2.29.44.38.72.09.28.13.57.13.88s-.04.62-.13.9c-.09.28-.22.52-.4.72s-.38.37-.63.49c-.25.12-.53.18-.85.18-.34,0-.62-.07-.87-.21-.24-.14-.42-.3-.54-.5v2.29h-.84ZM505.65,30.07c0-.22-.03-.42-.09-.6-.06-.18-.14-.34-.25-.48-.11-.13-.24-.24-.4-.32-.16-.08-.34-.12-.54-.12s-.37.04-.53.12c-.16.08-.3.18-.41.32s-.2.29-.26.48c-.06.18-.09.38-.09.6s.03.43.09.62c.06.19.15.35.26.49s.25.24.41.32c.16.08.33.11.53.11s.38-.04.53-.11.29-.18.4-.32.2-.3.26-.49c.06-.19.09-.39.09-.62Z"/>
    <path d="M507.5,32.23v-6.52h.85v6.52h-.85Z"/>
    <path d="M513.47,31c-.06.19-.15.37-.27.54s-.26.31-.42.43c-.17.12-.35.22-.56.29-.21.07-.44.11-.69.11-.29,0-.56-.05-.83-.15-.26-.1-.5-.25-.7-.45s-.36-.44-.48-.73c-.12-.29-.18-.62-.18-.98,0-.34.06-.65.17-.93.12-.28.27-.52.46-.72s.41-.36.66-.47c.25-.11.51-.17.78-.17.33,0,.62.06.88.17.26.11.48.26.65.46.18.2.31.44.4.72.09.28.14.59.14.92,0,.05,0,.1,0,.15,0,.05,0,.09-.01.12h-3.26c0,.19.04.37.11.53s.16.3.27.42c.12.12.26.21.41.27.16.06.33.09.51.09.35,0,.62-.08.81-.25.19-.17.32-.38.4-.62l.73.25ZM512.61,29.62c-.01-.31-.12-.58-.31-.79s-.49-.32-.87-.32c-.18,0-.34.03-.48.09-.14.06-.26.15-.36.25-.1.1-.18.22-.24.36s-.09.27-.1.41h2.37Z"/>
    <path d="M514.84,30.84c.03.23.13.42.3.58.17.16.41.23.71.23.24,0,.42-.06.55-.17.13-.11.19-.25.19-.41,0-.14-.05-.25-.14-.35-.1-.1-.23-.17-.41-.21l-.74-.16c-.34-.07-.61-.22-.8-.43s-.28-.48-.28-.78c0-.19.04-.36.12-.53.08-.17.19-.31.33-.44s.3-.23.49-.3c.19-.07.39-.11.6-.11.29,0,.54.04.74.13s.36.19.49.31c.12.12.22.25.28.38s.11.25.13.34l-.75.28c-.01-.05-.03-.12-.06-.21s-.08-.16-.14-.24c-.06-.07-.15-.14-.27-.19-.11-.05-.25-.08-.42-.08-.22,0-.39.06-.52.18-.13.12-.2.25-.2.4,0,.28.16.45.49.52l.7.15c.4.08.69.24.89.46s.3.5.3.82c0,.16-.03.31-.1.47-.07.16-.16.3-.29.43s-.29.24-.49.32-.43.12-.7.12c-.3,0-.56-.04-.77-.13s-.39-.19-.53-.31-.25-.26-.32-.41c-.07-.15-.12-.28-.14-.41l.76-.27Z"/>
  </g>
  <g>
    <path d="M422.06,89.19v3.56h-.87v-3.56h-.8v-.77h.8v-.73c0-.24.04-.45.11-.64.07-.19.18-.34.31-.47s.28-.22.45-.28c.17-.06.36-.09.55-.09.14,0,.26.01.35.04.09.02.14.04.16.05v.76s-.06-.02-.12-.04c-.06-.01-.14-.02-.25-.02-.07,0-.15.01-.23.03-.08.02-.16.06-.22.11-.07.05-.12.13-.17.22s-.06.22-.06.37v.68h1.04v.77h-1.04Z"/>
    <path d="M426.33,89.28c-.13-.02-.25-.03-.37-.03-.35,0-.64.1-.86.31s-.33.55-.33,1.02v2.17h-.85v-4.33h.83v.76c.08-.17.17-.3.27-.41.11-.1.21-.19.33-.25.11-.06.23-.11.35-.13.12-.02.23-.04.34-.04.06,0,.12,0,.17,0,.05,0,.09.01.11.02v.9Z"/>
    <path d="M426.87,91.59c0-.19.03-.36.1-.52.07-.15.16-.28.27-.39.12-.11.26-.2.42-.26.16-.07.34-.11.52-.14l1.17-.17c.13-.02.22-.06.27-.12s.07-.13.07-.21c0-.21-.07-.39-.22-.54-.15-.15-.39-.23-.72-.23-.3,0-.53.08-.69.25s-.26.37-.29.62l-.81-.19c.02-.2.09-.39.18-.57s.23-.32.38-.45c.16-.12.34-.22.54-.29.21-.07.43-.1.66-.1.32,0,.6.04.83.13.23.09.41.2.56.35s.25.31.31.5c.07.19.1.39.1.6v2.17c0,.19,0,.35.02.46.01.11.02.2.04.25h-.83c-.01-.05-.02-.13-.03-.22s-.01-.21-.01-.37c-.05.08-.11.16-.19.24-.08.08-.17.16-.29.23-.11.07-.25.13-.4.17-.15.04-.33.07-.52.07-.22,0-.42-.04-.6-.11-.18-.07-.33-.17-.46-.28-.13-.12-.22-.25-.29-.41-.07-.16-.1-.32-.1-.5ZM428.43,92.17c.17,0,.34-.02.49-.07.15-.04.28-.12.4-.22s.2-.23.27-.4.1-.37.1-.6v-.2l-1.32.2c-.18.03-.33.1-.45.2-.12.11-.18.25-.18.45,0,.16.06.31.19.44s.3.19.51.19Z"/>
    <path d="M431.75,92.75v-4.33h.81v.58c.14-.24.33-.42.57-.53.24-.11.49-.17.74-.17.27,0,.52.07.76.2s.42.34.54.62c.17-.31.39-.53.65-.64s.52-.18.8-.18c.19,0,.37.03.55.1.18.07.34.17.48.3.14.14.25.31.34.51s.13.45.13.73v2.81h-.84v-2.72c0-.28-.07-.52-.22-.71-.15-.19-.38-.28-.7-.28-.3,0-.54.1-.72.31-.18.21-.27.47-.27.78v2.62h-.85v-2.72c0-.28-.07-.52-.22-.71-.14-.19-.38-.28-.7-.28-.31,0-.55.1-.73.31-.18.2-.27.47-.27.79v2.61h-.84Z"/>
    <path d="M443.15,91.52c-.06.19-.15.37-.27.54s-.26.31-.42.43c-.17.12-.35.22-.56.29s-.44.11-.69.11c-.29,0-.56-.05-.83-.15-.26-.1-.5-.25-.7-.45s-.36-.44-.48-.73c-.12-.29-.18-.62-.18-.98,0-.34.06-.65.17-.93s.27-.52.45-.72c.19-.2.41-.36.66-.47.25-.11.51-.17.78-.17.33,0,.62.06.89.17.26.11.48.26.65.46.17.2.31.44.4.72.09.28.14.59.14.92,0,.05,0,.1,0,.15s0,.09-.01.12h-3.26c0,.19.04.37.11.53.07.16.16.3.27.42s.26.21.41.27c.16.06.33.09.51.09.35,0,.62-.08.81-.25.19-.17.32-.38.4-.62l.73.25ZM442.29,90.14c-.01-.31-.12-.58-.31-.79-.2-.21-.49-.32-.87-.32-.18,0-.34.03-.48.09-.14.06-.26.15-.36.25-.1.1-.18.22-.24.36-.06.13-.09.27-.1.41h2.37Z"/>
    <path d="M448.18,88.29c.32,0,.62.06.89.18.27.12.5.28.7.48s.35.45.46.72c.11.28.16.58.16.91s-.05.64-.16.92c-.11.28-.26.53-.46.73s-.43.36-.7.48c-.27.12-.57.17-.89.17s-.62-.06-.89-.17c-.27-.12-.5-.28-.7-.48-.2-.2-.35-.45-.46-.73-.11-.28-.16-.59-.16-.92s.05-.63.16-.91c.11-.28.26-.52.46-.72.2-.2.43-.36.7-.48.27-.12.57-.18.89-.18ZM448.18,92.13c.18,0,.35-.03.51-.1s.31-.17.43-.3.23-.29.3-.49c.07-.19.11-.41.11-.67s-.04-.47-.11-.66c-.07-.19-.17-.35-.3-.48s-.27-.23-.43-.3c-.16-.07-.33-.1-.51-.1s-.35.03-.51.1c-.16.07-.31.17-.43.3s-.22.29-.3.48c-.07.19-.11.41-.11.66s.04.47.11.67c.07.19.17.35.3.49s.27.23.43.3c.16.07.33.1.51.1Z"/>
    <path d="M452.51,89.19v3.56h-.87v-3.56h-.8v-.77h.8v-.73c0-.24.04-.45.11-.64.07-.19.18-.34.31-.47s.28-.22.45-.28c.17-.06.36-.09.55-.09.14,0,.26.01.35.04.09.02.14.04.16.05v.76s-.06-.02-.12-.04c-.06-.01-.14-.02-.25-.02-.07,0-.15.01-.23.03-.08.02-.16.06-.22.11-.07.05-.12.13-.17.22s-.06.22-.06.37v.68h1.04v.77h-1.04Z"/>
    <path d="M460.31,91.52c-.06.19-.15.37-.27.54s-.26.31-.42.43c-.17.12-.35.22-.56.29s-.44.11-.69.11c-.29,0-.56-.05-.83-.15-.26-.1-.5-.25-.7-.45s-.36-.44-.48-.73c-.12-.29-.18-.62-.18-.98,0-.34.06-.65.17-.93s.27-.52.45-.72c.19-.2.41-.36.66-.47.25-.11.51-.17.78-.17.33,0,.62.06.89.17.26.11.48.26.65.46.17.2.31.44.4.72.09.28.14.59.14.92,0,.05,0,.1,0,.15s0,.09-.01.12h-3.26c0,.19.04.37.11.53.07.16.16.3.27.42s.26.21.41.27c.16.06.33.09.51.09.35,0,.62-.08.81-.25.19-.17.32-.38.4-.62l.73.25ZM459.45,90.14c-.01-.31-.12-.58-.31-.79-.2-.21-.49-.32-.87-.32-.18,0-.34.03-.48.09-.14.06-.26.15-.36.25-.1.1-.18.22-.24.36-.06.13-.09.27-.1.41h2.37Z"/>
    <path d="M462.17,92.75h-.85v-4.33h.83v.62c.16-.27.35-.46.59-.58.24-.11.49-.17.74-.17s.48.04.68.13.36.21.49.36c.13.15.22.33.29.54.06.21.09.44.09.67v2.75h-.85v-2.6c0-.15-.02-.29-.05-.42s-.09-.25-.17-.35c-.08-.1-.19-.18-.31-.23-.13-.06-.29-.08-.47-.08-.17,0-.32.03-.44.09-.13.06-.23.15-.31.26-.08.11-.15.23-.19.38-.04.14-.06.3-.06.46v2.5Z"/>
    <path d="M468.11,89.07c-.17,0-.34.03-.5.09-.16.06-.3.16-.42.28s-.22.28-.29.47c-.07.19-.11.41-.11.66s.04.46.11.65c.07.19.17.35.29.48s.26.23.42.29c.16.07.33.1.5.1.2,0,.38-.03.52-.09.14-.06.26-.14.35-.23.09-.09.17-.19.22-.29.05-.11.09-.2.12-.28l.75.32c-.05.16-.13.31-.23.47-.1.16-.23.3-.4.44s-.35.24-.57.32c-.22.08-.47.12-.75.12-.32,0-.61-.06-.88-.17-.27-.12-.5-.28-.69-.49-.19-.21-.34-.45-.46-.73-.11-.28-.17-.58-.17-.91s.05-.64.17-.93.26-.52.46-.72.43-.36.69-.47c.27-.11.55-.17.86-.17.29,0,.54.04.76.12.22.08.41.19.57.32s.29.28.38.45.17.33.22.49l-.76.32c-.03-.11-.07-.22-.13-.32-.05-.11-.13-.21-.22-.29s-.21-.16-.34-.22c-.13-.06-.29-.08-.48-.08Z"/>
    <path d="M472.83,88.29c.32,0,.62.06.89.18.27.12.5.28.7.48s.35.45.46.72c.11.28.16.58.16.91s-.05.64-.16.92c-.11.28-.26.53-.46.73s-.43.36-.7.48c-.27.12-.57.17-.89.17s-.62-.06-.89-.17c-.27-.12-.5-.28-.7-.48-.2-.2-.35-.45-.46-.73-.11-.28-.16-.59-.16-.92s.05-.63.16-.91c.11-.28.26-.52.46-.72.2-.2.43-.36.7-.48.27-.12.57-.18.89-.18ZM472.83,92.13c.18,0,.35-.03.51-.1s.31-.17.43-.3.23-.29.3-.49c.07-.19.11-.41.11-.67s-.04-.47-.11-.66c-.07-.19-.17-.35-.3-.48s-.27-.23-.43-.3c-.16-.07-.33-.1-.51-.1s-.35.03-.51.1c-.16.07-.31.17-.43.3s-.22.29-.3.48c-.07.19-.11.41-.11.66s.04.47.11.67c.07.19.17.35.3.49s.27.23.43.3c.16.07.33.1.51.1Z"/>
    <path d="M479.06,92.09c-.1.21-.27.39-.49.54-.23.15-.51.23-.85.23-.32,0-.6-.06-.86-.18-.25-.12-.47-.28-.64-.49-.18-.21-.31-.45-.41-.73s-.14-.58-.14-.9c0-.31.05-.6.15-.87.1-.27.24-.51.42-.72.18-.21.4-.37.65-.5.25-.12.53-.18.84-.18.19,0,.36.02.51.06.15.04.27.1.38.17.11.07.2.15.27.23.07.09.13.18.16.27v-2.8h.84v5.71c0,.21,0,.39.02.53.01.14.02.23.03.27h-.82s-.02-.12-.03-.23c0-.1-.01-.22-.01-.36v-.07ZM476.53,90.57c0,.22.03.43.09.62.06.19.14.35.25.49.11.14.24.25.4.32.16.08.34.12.54.12.19,0,.37-.04.52-.12.16-.08.29-.19.4-.33.11-.14.19-.3.25-.5.06-.19.09-.4.09-.62,0-.45-.11-.81-.33-1.09-.22-.28-.52-.41-.91-.41-.19,0-.37.04-.53.11s-.29.18-.41.31-.2.3-.26.48c-.06.19-.09.39-.09.61Z"/>
    <path d="M485,91.52c-.06.19-.15.37-.27.54s-.26.31-.42.43c-.17.12-.35.22-.56.29s-.44.11-.69.11c-.29,0-.56-.05-.83-.15-.26-.1-.5-.25-.7-.45s-.36-.44-.48-.73c-.12-.29-.18-.62-.18-.98,0-.34.06-.65.17-.93s.27-.52.45-.72c.19-.2.41-.36.66-.47.25-.11.51-.17.78-.17.33,0,.62.06.89.17.26.11.48.26.65.46.17.2.31.44.4.72.09.28.14.59.14.92,0,.05,0,.1,0,.15s0,.09-.01.12h-3.26c0,.19.04.37.11.53.07.16.16.3.27.42s.26.21.41.27c.16.06.33.09.51.09.35,0,.62-.08.81-.25.19-.17.32-.38.4-.62l.73.25ZM484.15,90.14c-.01-.31-.12-.58-.31-.79-.2-.21-.49-.32-.87-.32-.18,0-.34.03-.48.09-.14.06-.26.15-.36.25-.1.1-.18.22-.24.36-.06.13-.09.27-.1.41h2.37Z"/>
    <path d="M489.05,92.09c-.1.21-.27.39-.49.54-.23.15-.51.23-.85.23-.32,0-.6-.06-.86-.18-.25-.12-.47-.28-.64-.49-.18-.21-.31-.45-.41-.73s-.14-.58-.14-.9c0-.31.05-.6.15-.87.1-.27.24-.51.42-.72.18-.21.4-.37.65-.5.25-.12.53-.18.84-.18.19,0,.36.02.51.06.15.04.27.1.38.17.11.07.2.15.27.23.07.09.13.18.16.27v-2.8h.84v5.71c0,.21,0,.39.02.53.01.14.02.23.03.27h-.82s-.02-.12-.03-.23c0-.1-.01-.22-.01-.36v-.07ZM486.52,90.57c0,.22.03.43.09.62.06.19.14.35.25.49.11.14.24.25.4.32.16.08.34.12.54.12.19,0,.37-.04.52-.12.16-.08.29-.19.4-.33.11-.14.19-.3.25-.5.06-.19.09-.4.09-.62,0-.45-.11-.81-.33-1.09-.22-.28-.52-.41-.91-.41-.19,0-.37.04-.53.11s-.29.18-.41.31-.2.3-.26.48c-.06.19-.09.39-.09.61Z"/>
    <path d="M493.11,91.59c0-.19.03-.36.1-.52.07-.15.16-.28.27-.39.12-.11.26-.2.42-.26.16-.07.34-.11.52-.14l1.17-.17c.13-.02.22-.06.27-.12s.07-.13.07-.21c0-.21-.07-.39-.22-.54-.15-.15-.39-.23-.72-.23-.3,0-.53.08-.69.25s-.26.37-.29.62l-.81-.19c.02-.2.09-.39.18-.57s.23-.32.38-.45c.16-.12.34-.22.54-.29.21-.07.43-.1.66-.1.32,0,.6.04.83.13.23.09.41.2.56.35s.25.31.31.5c.07.19.1.39.1.6v2.17c0,.19,0,.35.02.46.01.11.02.2.04.25h-.83c-.01-.05-.02-.13-.03-.22s-.01-.21-.01-.37c-.05.08-.11.16-.19.24-.08.08-.17.16-.29.23-.11.07-.25.13-.4.17-.15.04-.33.07-.52.07-.22,0-.42-.04-.6-.11-.18-.07-.33-.17-.46-.28-.13-.12-.22-.25-.29-.41-.07-.16-.1-.32-.1-.5ZM494.68,92.17c.17,0,.34-.02.49-.07.15-.04.28-.12.4-.22s.2-.23.27-.4.1-.37.1-.6v-.2l-1.32.2c-.18.03-.33.1-.45.2-.12.11-.18.25-.18.45,0,.16.06.31.19.44s.3.19.51.19Z"/>
    <path d="M498.85,92.75h-.85v-4.33h.83v.62c.16-.27.35-.46.59-.58.24-.11.49-.17.74-.17s.48.04.68.13.36.21.49.36c.13.15.22.33.29.54.06.21.09.44.09.67v2.75h-.85v-2.6c0-.15-.02-.29-.05-.42s-.09-.25-.17-.35c-.08-.1-.19-.18-.31-.23-.13-.06-.29-.08-.47-.08-.17,0-.32.03-.44.09-.13.06-.23.15-.31.26-.08.11-.15.23-.19.38-.04.14-.06.3-.06.46v2.5Z"/>
    <path d="M506,92.09c-.1.21-.27.39-.49.54-.23.15-.51.23-.85.23-.32,0-.6-.06-.86-.18-.25-.12-.47-.28-.64-.49-.18-.21-.31-.45-.41-.73s-.14-.58-.14-.9c0-.31.05-.6.15-.87.1-.27.24-.51.42-.72.18-.21.4-.37.65-.5.25-.12.53-.18.84-.18.19,0,.36.02.51.06.15.04.27.1.38.17.11.07.2.15.27.23.07.09.13.18.16.27v-2.8h.84v5.71c0,.21,0,.39.02.53.01.14.02.23.03.27h-.82s-.02-.12-.03-.23c0-.1-.01-.22-.01-.36v-.07ZM503.47,90.57c0,.22.03.43.09.62.06.19.14.35.25.49.11.14.24.25.4.32.16.08.34.12.54.12.19,0,.37-.04.52-.12.16-.08.29-.19.4-.33.11-.14.19-.3.25-.5.06-.19.09-.4.09-.62,0-.45-.11-.81-.33-1.09-.22-.28-.52-.41-.91-.41-.19,0-.37.04-.53.11s-.29.18-.41.31-.2.3-.26.48c-.06.19-.09.39-.09.61Z"/>
    <path d="M414.61,99.87c-.17,0-.34.03-.5.09-.16.06-.3.16-.42.28s-.22.28-.29.47c-.07.19-.11.41-.11.66s.04.46.11.65c.07.19.17.35.29.48s.26.23.42.29c.16.07.33.1.5.1.2,0,.38-.03.52-.09.14-.06.26-.14.35-.23.09-.09.17-.19.22-.29.05-.11.09-.2.12-.28l.75.32c-.05.16-.13.31-.23.47-.1.16-.23.3-.4.44s-.35.24-.57.32c-.22.08-.47.12-.75.12-.32,0-.61-.06-.88-.17-.27-.12-.5-.28-.69-.49-.19-.21-.34-.45-.46-.73-.11-.28-.17-.58-.17-.91s.05-.64.17-.93.26-.52.46-.72.43-.36.69-.47c.27-.11.55-.17.86-.17.29,0,.54.04.76.12.22.08.41.19.57.32s.29.28.38.45.17.33.22.49l-.76.32c-.03-.11-.07-.22-.13-.32-.05-.11-.13-.21-.22-.29s-.21-.16-.34-.22c-.13-.06-.29-.08-.48-.08Z"/>
    <path d="M419.33,99.08c.32,0,.62.06.89.18.27.12.5.28.7.48s.35.45.46.72c.11.28.16.58.16.91s-.05.64-.16.92c-.11.28-.26.53-.46.73s-.43.36-.7.48c-.27.12-.57.17-.89.17s-.62-.06-.89-.17c-.27-.12-.5-.28-.7-.48-.2-.2-.35-.45-.46-.73-.11-.28-.16-.59-.16-.92s.05-.63.16-.91c.11-.28.26-.52.46-.72.2-.2.43-.36.7-.48.27-.12.57-.18.89-.18ZM419.33,102.93c.18,0,.35-.03.51-.1s.31-.17.43-.3.23-.29.3-.49c.07-.19.11-.41.11-.67s-.04-.47-.11-.66c-.07-.19-.17-.35-.3-.48s-.27-.23-.43-.3c-.16-.07-.33-.1-.51-.1s-.35.03-.51.1c-.16.07-.31.17-.43.3s-.22.29-.3.48c-.07.19-.11.41-.11.66s.04.47.11.67c.07.19.17.35.3.49s.27.23.43.3c.16.07.33.1.51.1Z"/>
    <path d="M422.53,103.55v-4.33h.81v.58c.14-.24.33-.42.57-.53.24-.11.49-.17.74-.17.27,0,.52.07.76.2s.42.34.54.62c.17-.31.39-.53.65-.64s.52-.18.8-.18c.19,0,.37.03.55.1.18.07.34.17.48.3.14.14.25.31.34.51s.13.45.13.73v2.81h-.84v-2.72c0-.28-.07-.52-.22-.71-.15-.19-.38-.28-.7-.28-.3,0-.54.1-.72.31-.18.21-.27.47-.27.78v2.62h-.85v-2.72c0-.28-.07-.52-.22-.71-.14-.19-.38-.28-.7-.28-.31,0-.55.1-.73.31-.18.2-.27.47-.27.79v2.61h-.84Z"/>
    <path d="M430.15,105.26v-6.04h.82v.68c.12-.22.3-.4.55-.55.25-.15.55-.22.9-.22.32,0,.61.06.86.18.25.12.46.28.62.48s.29.44.38.72.13.57.13.88-.04.62-.13.9c-.09.28-.22.52-.4.72-.17.21-.39.37-.63.49-.25.12-.53.18-.85.18-.34,0-.62-.07-.86-.21-.24-.14-.42-.3-.54-.5v2.29h-.84ZM433.55,101.38c0-.22-.03-.42-.09-.6-.06-.18-.14-.34-.25-.48-.11-.13-.24-.24-.4-.32-.16-.08-.34-.12-.54-.12s-.37.04-.53.12-.3.18-.41.32c-.11.13-.2.29-.26.48-.06.18-.09.38-.09.6s.03.43.09.62c.06.19.15.35.26.49.11.13.25.24.41.32s.33.11.53.11.38-.04.53-.11c.16-.08.29-.18.4-.32s.2-.3.26-.49c.06-.19.09-.39.09-.62Z"/>
    <path d="M437.8,100.08c-.13-.02-.25-.03-.37-.03-.35,0-.64.1-.86.31s-.33.55-.33,1.02v2.17h-.85v-4.33h.83v.76c.08-.17.17-.3.27-.41.11-.1.21-.19.33-.25.11-.06.23-.11.35-.13.12-.02.23-.04.34-.04.06,0,.12,0,.17,0,.05,0,.09.01.11.02v.9Z"/>
    <path d="M442.38,102.32c-.06.19-.15.37-.27.54s-.26.31-.42.43c-.17.12-.35.22-.56.29s-.44.11-.69.11c-.29,0-.56-.05-.83-.15-.26-.1-.5-.25-.7-.45s-.36-.44-.48-.73c-.12-.29-.18-.62-.18-.98,0-.34.06-.65.17-.93s.27-.52.45-.72c.19-.2.41-.36.66-.47.25-.11.51-.17.78-.17.33,0,.62.06.89.17.26.11.48.26.65.46.17.2.31.44.4.72.09.28.14.59.14.92,0,.05,0,.1,0,.15s0,.09-.01.12h-3.26c0,.19.04.37.11.53.07.16.16.3.27.42s.26.21.41.27c.16.06.33.09.51.09.35,0,.62-.08.81-.25.19-.17.32-.38.4-.62l.73.25ZM441.53,100.94c-.01-.31-.12-.58-.31-.79-.2-.21-.49-.32-.87-.32-.18,0-.34.03-.48.09-.14.06-.26.15-.36.25-.1.1-.18.22-.24.36-.06.13-.09.27-.1.41h2.37Z"/>
    <path d="M443.76,102.15c.03.23.13.42.3.58.17.16.41.23.71.23.24,0,.42-.06.55-.17s.19-.25.19-.41c0-.14-.05-.25-.14-.35-.1-.1-.23-.17-.41-.21l-.74-.16c-.34-.07-.61-.22-.8-.43-.19-.22-.28-.48-.28-.78,0-.19.04-.36.12-.53s.19-.31.33-.44c.14-.13.3-.23.49-.3.19-.07.39-.11.6-.11.29,0,.54.04.74.13s.36.19.49.31.22.25.28.38c.06.13.11.25.13.34l-.75.28c-.01-.05-.03-.12-.06-.21-.03-.08-.08-.16-.14-.24-.07-.07-.16-.14-.27-.19-.11-.05-.25-.08-.42-.08-.22,0-.39.06-.52.18s-.2.25-.2.4c0,.28.17.45.5.52l.7.15c.4.08.69.24.9.46s.3.5.3.82c0,.16-.03.31-.1.47-.07.16-.16.3-.29.43s-.29.24-.49.32c-.2.08-.43.12-.7.12-.3,0-.56-.04-.77-.13s-.39-.19-.53-.31-.25-.26-.32-.41c-.07-.15-.12-.28-.14-.41l.76-.27Z"/>
    <path d="M447.74,102.15c.03.23.13.42.3.58.17.16.41.23.71.23.24,0,.42-.06.55-.17s.19-.25.19-.41c0-.14-.05-.25-.14-.35-.1-.1-.23-.17-.41-.21l-.74-.16c-.34-.07-.61-.22-.8-.43-.19-.22-.28-.48-.28-.78,0-.19.04-.36.12-.53s.19-.31.33-.44c.14-.13.3-.23.49-.3.19-.07.39-.11.6-.11.29,0,.54.04.74.13s.36.19.49.31.22.25.28.38c.06.13.11.25.13.34l-.75.28c-.01-.05-.03-.12-.06-.21-.03-.08-.08-.16-.14-.24-.07-.07-.16-.14-.27-.19-.11-.05-.25-.08-.42-.08-.22,0-.39.06-.52.18s-.2.25-.2.4c0,.28.17.45.5.52l.7.15c.4.08.69.24.9.46s.3.5.3.82c0,.16-.03.31-.1.47-.07.16-.16.3-.29.43s-.29.24-.49.32c-.2.08-.43.12-.7.12-.3,0-.56-.04-.77-.13s-.39-.19-.53-.31-.25-.26-.32-.41c-.07-.15-.12-.28-.14-.41l.76-.27Z"/>
    <path d="M455.13,102.32c-.06.19-.15.37-.27.54s-.26.31-.42.43c-.17.12-.35.22-.56.29s-.44.11-.69.11c-.29,0-.56-.05-.83-.15-.26-.1-.5-.25-.7-.45s-.36-.44-.48-.73c-.12-.29-.18-.62-.18-.98,0-.34.06-.65.17-.93s.27-.52.45-.72c.19-.2.41-.36.66-.47.25-.11.51-.17.78-.17.33,0,.62.06.89.17.26.11.48.26.65.46.17.2.31.44.4.72.09.28.14.59.14.92,0,.05,0,.1,0,.15s0,.09-.01.12h-3.26c0,.19.04.37.11.53.07.16.16.3.27.42s.26.21.41.27c.16.06.33.09.51.09.35,0,.62-.08.81-.25.19-.17.32-.38.4-.62l.73.25ZM454.27,100.94c-.01-.31-.12-.58-.31-.79-.2-.21-.49-.32-.87-.32-.18,0-.34.03-.48.09-.14.06-.26.15-.36.25-.1.1-.18.22-.24.36-.06.13-.09.27-.1.41h2.37Z"/>
    <path d="M459.18,102.89c-.1.21-.27.39-.49.54-.23.15-.51.23-.85.23-.32,0-.6-.06-.86-.18-.25-.12-.47-.28-.64-.49-.18-.21-.31-.45-.41-.73s-.14-.58-.14-.9c0-.31.05-.6.15-.87.1-.27.24-.51.42-.72.18-.21.4-.37.65-.5.25-.12.53-.18.84-.18.19,0,.36.02.51.06.15.04.27.1.38.17.11.07.2.15.27.23.07.09.13.18.16.27v-2.8h.84v5.71c0,.21,0,.39.02.53.01.14.02.23.03.27h-.82s-.02-.12-.03-.23c0-.1-.01-.22-.01-.36v-.07ZM456.65,101.37c0,.22.03.43.09.62.06.19.14.35.25.49.11.14.24.25.4.32.16.08.34.12.54.12.19,0,.37-.04.52-.12.16-.08.29-.19.4-.33.11-.14.19-.3.25-.5.06-.19.09-.4.09-.62,0-.45-.11-.81-.33-1.09-.22-.28-.52-.41-.91-.41-.19,0-.37.04-.53.11s-.29.18-.41.31-.2.3-.26.48c-.06.19-.09.39-.09.61Z"/>
    <path d="M464.48,100.94v2.61h-.88v-6.38h2.32c.29,0,.56.05.81.14.24.1.45.23.62.4s.3.37.4.6c.1.23.14.48.14.75s-.05.52-.14.75c-.1.23-.23.43-.4.59s-.38.3-.62.39c-.24.1-.51.14-.81.14h-1.44ZM465.76,100.15c.38,0,.69-.1.9-.29.22-.2.33-.46.33-.79s-.11-.61-.33-.81c-.22-.2-.52-.3-.9-.3h-1.28v2.19h1.28Z"/>
    <path d="M471.64,103.68c-.41,0-.81-.07-1.19-.22-.38-.15-.72-.36-1.01-.64s-.52-.63-.7-1.04c-.18-.41-.27-.89-.27-1.42s.09-1.01.27-1.42c.18-.41.42-.76.72-1.04.3-.28.64-.5,1.02-.64.38-.15.77-.22,1.17-.22.37,0,.7.05,1.01.14.31.1.58.23.82.41.24.17.44.39.61.64s.29.53.37.84l-.82.29c-.12-.49-.35-.86-.69-1.12-.34-.26-.77-.39-1.3-.39-.29,0-.57.05-.84.16-.27.1-.52.26-.73.47-.21.21-.38.47-.51.79-.13.31-.19.68-.19,1.09s.06.78.19,1.09c.13.32.29.58.51.79.21.21.46.37.73.48.27.1.55.16.84.16.27,0,.52-.04.74-.12.22-.08.42-.18.59-.32s.32-.3.43-.49c.12-.19.21-.39.28-.61l.78.29c-.08.3-.21.58-.38.83s-.37.47-.61.65c-.24.18-.51.32-.82.42-.31.1-.65.15-1.01.15Z"/>
    <path d="M481.56,103.55v-4.97l-2.18,4.97h-.81l-2.16-4.97v4.97h-.87v-6.38h1.2l2.25,5.19,2.27-5.19h1.18v6.38h-.87Z"/>
    <path d="M486.4,102.15c.03.23.13.42.3.58.17.16.41.23.71.23.24,0,.42-.06.55-.17s.19-.25.19-.41c0-.14-.05-.25-.14-.35-.1-.1-.23-.17-.41-.21l-.74-.16c-.34-.07-.61-.22-.8-.43-.19-.22-.28-.48-.28-.78,0-.19.04-.36.12-.53s.19-.31.33-.44c.14-.13.3-.23.49-.3.19-.07.39-.11.6-.11.29,0,.54.04.74.13s.36.19.49.31.22.25.28.38c.06.13.11.25.13.34l-.75.28c-.01-.05-.03-.12-.06-.21-.03-.08-.08-.16-.14-.24-.07-.07-.16-.14-.27-.19-.11-.05-.25-.08-.42-.08-.22,0-.39.06-.52.18s-.2.25-.2.4c0,.28.17.45.5.52l.7.15c.4.08.69.24.9.46s.3.5.3.82c0,.16-.03.31-.1.47-.07.16-.16.3-.29.43s-.29.24-.49.32c-.2.08-.43.12-.7.12-.3,0-.56-.04-.77-.13s-.39-.19-.53-.31-.25-.26-.32-.41c-.07-.15-.12-.28-.14-.41l.76-.27Z"/>
    <path d="M489.74,102.39c0-.19.03-.36.1-.52.07-.15.16-.28.27-.39.12-.11.26-.2.42-.26.16-.07.34-.11.52-.14l1.17-.17c.13-.02.22-.06.27-.12s.07-.13.07-.21c0-.21-.07-.39-.22-.54-.15-.15-.39-.23-.72-.23-.3,0-.53.08-.69.25s-.26.37-.29.62l-.81-.19c.02-.2.09-.39.18-.57s.23-.32.38-.45c.16-.12.34-.22.54-.29.21-.07.43-.1.66-.1.32,0,.6.04.83.13.23.09.41.2.56.35s.25.31.31.5c.07.19.1.39.1.6v2.17c0,.19,0,.35.02.46.01.11.02.2.04.25h-.83c-.01-.05-.02-.13-.03-.22s-.01-.21-.01-.37c-.05.08-.11.16-.19.24-.08.08-.17.16-.29.23-.11.07-.25.13-.4.17-.15.04-.33.07-.52.07-.22,0-.42-.04-.6-.11-.18-.07-.33-.17-.46-.28-.13-.12-.22-.25-.29-.41-.07-.16-.1-.32-.1-.5ZM491.31,102.97c.17,0,.34-.02.49-.07.15-.04.28-.12.4-.22s.2-.23.27-.4.1-.37.1-.6v-.2l-1.32.2c-.18.03-.33.1-.45.2-.12.11-.18.25-.18.45,0,.16.06.31.19.44s.3.19.51.19Z"/>
    <path d="M494.63,103.55v-4.33h.81v.58c.14-.24.33-.42.57-.53.24-.11.49-.17.74-.17.27,0,.52.07.76.2s.42.34.54.62c.17-.31.39-.53.65-.64s.52-.18.8-.18c.19,0,.37.03.55.1.18.07.34.17.48.3.14.14.25.31.34.51s.13.45.13.73v2.81h-.84v-2.72c0-.28-.07-.52-.22-.71-.15-.19-.38-.28-.7-.28-.3,0-.54.1-.72.31-.18.21-.27.47-.27.78v2.62h-.85v-2.72c0-.28-.07-.52-.22-.71-.14-.19-.38-.28-.7-.28-.31,0-.55.1-.73.31-.18.2-.27.47-.27.79v2.61h-.84Z"/>
    <path d="M502.25,105.26v-6.04h.82v.68c.12-.22.3-.4.55-.55.25-.15.55-.22.9-.22.32,0,.61.06.86.18.25.12.46.28.62.48s.29.44.38.72.13.57.13.88-.04.62-.13.9c-.09.28-.22.52-.4.72-.17.21-.39.37-.63.49-.25.12-.53.18-.85.18-.34,0-.62-.07-.86-.21-.24-.14-.42-.3-.54-.5v2.29h-.84ZM505.65,101.38c0-.22-.03-.42-.09-.6-.06-.18-.14-.34-.25-.48-.11-.13-.24-.24-.4-.32-.16-.08-.34-.12-.54-.12s-.37.04-.53.12-.3.18-.41.32c-.11.13-.2.29-.26.48-.06.18-.09.38-.09.6s.03.43.09.62c.06.19.15.35.26.49.11.13.25.24.41.32s.33.11.53.11.38-.04.53-.11c.16-.08.29-.18.4-.32s.2-.3.26-.49c.06-.19.09-.39.09-.62Z"/>
    <path d="M507.5,103.55v-6.52h.85v6.52h-.85Z"/>
    <path d="M513.47,102.32c-.06.19-.15.37-.27.54s-.26.31-.42.43c-.17.12-.35.22-.56.29s-.44.11-.69.11c-.29,0-.56-.05-.83-.15-.26-.1-.5-.25-.7-.45s-.36-.44-.48-.73c-.12-.29-.18-.62-.18-.98,0-.34.06-.65.17-.93s.27-.52.45-.72c.19-.2.41-.36.66-.47.25-.11.51-.17.78-.17.33,0,.62.06.89.17.26.11.48.26.65.46.17.2.31.44.4.72.09.28.14.59.14.92,0,.05,0,.1,0,.15s0,.09-.01.12h-3.26c0,.19.04.37.11.53.07.16.16.3.27.42s.26.21.41.27c.16.06.33.09.51.09.35,0,.62-.08.81-.25.19-.17.32-.38.4-.62l.73.25ZM512.61,100.94c-.01-.31-.12-.58-.31-.79-.2-.21-.49-.32-.87-.32-.18,0-.34.03-.48.09-.14.06-.26.15-.36.25-.1.1-.18.22-.24.36-.06.13-.09.27-.1.41h2.37Z"/>
    <path d="M514.84,102.15c.03.23.13.42.3.58.17.16.41.23.71.23.24,0,.42-.06.55-.17s.19-.25.19-.41c0-.14-.05-.25-.14-.35-.1-.1-.23-.17-.41-.21l-.74-.16c-.34-.07-.61-.22-.8-.43-.19-.22-.28-.48-.28-.78,0-.19.04-.36.12-.53s.19-.31.33-.44c.14-.13.3-.23.49-.3.19-.07.39-.11.6-.11.29,0,.54.04.74.13s.36.19.49.31.22.25.28.38c.06.13.11.25.13.34l-.75.28c-.01-.05-.03-.12-.06-.21-.03-.08-.08-.16-.14-.24-.07-.07-.16-.14-.27-.19-.11-.05-.25-.08-.42-.08-.22,0-.39.06-.52.18s-.2.25-.2.4c0,.28.17.45.5.52l.7.15c.4.08.69.24.9.46s.3.5.3.82c0,.16-.03.31-.1.47-.07.16-.16.3-.29.43s-.29.24-.49.32c-.2.08-.43.12-.7.12-.3,0-.56-.04-.77-.13s-.39-.19-.53-.31-.25-.26-.32-.41c-.07-.15-.12-.28-.14-.41l.76-.27Z"/>
  </g>
  <g>
    <path d="M18.8,104.85c0-.15.03-.28.08-.4.05-.12.12-.22.21-.3.09-.08.2-.15.33-.2.12-.05.26-.09.41-.11l.91-.13c.1-.01.17-.04.21-.09.04-.05.05-.1.05-.16,0-.16-.06-.3-.17-.42-.11-.12-.3-.18-.55-.18-.23,0-.41.06-.54.19-.13.13-.2.29-.22.49l-.63-.15c.02-.16.07-.31.14-.44.08-.14.18-.25.3-.35s.26-.17.42-.22c.16-.05.33-.08.51-.08.25,0,.47.03.64.1s.32.16.43.27c.11.11.19.24.25.39.05.15.08.31.08.47v1.69c0,.15,0,.27.01.36,0,.09.02.15.03.2h-.64s-.02-.1-.03-.17c0-.07,0-.17,0-.29-.04.06-.09.12-.15.19s-.14.13-.22.18c-.09.06-.19.1-.31.14-.12.04-.25.05-.4.05-.17,0-.33-.03-.46-.08-.14-.06-.26-.13-.35-.22s-.17-.2-.23-.32c-.05-.12-.08-.25-.08-.38ZM20.02,105.3c.13,0,.26-.02.38-.05s.22-.09.31-.17.15-.18.21-.31c.05-.13.08-.28.08-.46v-.15l-1.03.15c-.14.02-.26.08-.35.16s-.14.2-.14.35c0,.13.05.24.15.34.1.1.23.15.4.15Z"/>
    <path d="M24.89,105.34c-.09.18-.23.31-.42.39-.19.08-.38.12-.57.12s-.37-.04-.53-.11c-.16-.07-.29-.17-.39-.29-.11-.12-.19-.26-.25-.43s-.09-.34-.09-.53v-2.12h.66v2.02c0,.12.02.23.04.33.03.11.07.2.13.28.06.08.14.14.23.19s.21.07.35.07c.27,0,.46-.08.6-.24.13-.16.2-.37.2-.62v-2.03h.66v2.74c0,.14,0,.26,0,.37,0,.11.02.19.02.25h-.63s-.02-.1-.02-.18c0-.08,0-.16,0-.23Z"/>
    <path d="M29,105.24c-.08.16-.21.3-.38.42-.17.12-.39.18-.66.18-.25,0-.47-.04-.67-.14-.2-.09-.36-.22-.5-.38-.14-.16-.24-.35-.32-.57s-.11-.45-.11-.7c0-.24.04-.46.12-.68.08-.21.19-.4.32-.56.14-.16.31-.29.5-.38.2-.1.41-.14.65-.14.15,0,.28.02.39.05.12.03.21.08.3.13s.15.11.21.18c.06.07.1.14.13.21v-2.18h.65v4.44c0,.16,0,.3.01.41,0,.11.02.18.02.21h-.64s-.02-.1-.03-.18c0-.08,0-.17,0-.28v-.06ZM27.03,104.06c0,.17.02.33.07.48.04.15.11.27.19.38s.19.19.31.25.26.09.42.09c.15,0,.29-.03.41-.09.12-.06.22-.15.31-.26s.15-.24.19-.38.07-.31.07-.48c0-.35-.08-.63-.26-.85-.17-.21-.41-.32-.71-.32-.15,0-.29.03-.41.09s-.23.14-.31.25c-.09.1-.15.23-.2.37-.05.14-.07.3-.07.48Z"/>
    <path d="M30.61,101.11c0-.14.05-.25.14-.34.09-.09.2-.14.33-.14s.25.05.34.14c.09.09.14.2.14.34s-.04.24-.14.33c-.09.09-.2.14-.34.14s-.24-.04-.33-.14c-.09-.09-.14-.2-.14-.33ZM30.75,105.75v-3.37h.65v3.37h-.65Z"/>
    <path d="M33.96,102.28c.25,0,.48.05.69.14.21.09.39.22.55.37.15.16.27.35.36.56s.13.45.13.71-.04.49-.13.71-.2.41-.36.57c-.15.16-.34.28-.55.37-.21.09-.44.14-.69.14s-.48-.05-.69-.14c-.21-.09-.39-.22-.54-.37-.15-.16-.27-.35-.36-.57s-.12-.46-.12-.71.04-.49.12-.71.2-.4.36-.56c.15-.16.34-.28.54-.37.21-.09.44-.14.69-.14ZM33.96,105.27c.14,0,.27-.03.4-.08.12-.05.24-.13.34-.23.1-.1.17-.23.23-.38s.08-.32.08-.52-.03-.37-.08-.51c-.06-.15-.13-.27-.23-.38-.1-.1-.21-.18-.34-.23-.13-.05-.26-.08-.4-.08s-.27.03-.4.08c-.13.05-.24.13-.34.23-.1.1-.18.23-.23.38-.06.15-.08.32-.08.51s.03.37.08.52c.05.15.13.28.23.38s.21.18.34.23c.12.05.26.08.4.08Z"/>
  </g>
</svg>