<?xml version="1.0" encoding="UTF-8"?>
<svg id="Layer_1" data-name="Layer 1" xmlns="http://www.w3.org/2000/svg" viewBox="0 0 684 235.53">
  <defs>
    <style>
      .cls-1 {
        fill: #fff;
      }

      .cls-2, .cls-3 {
        stroke: #0082fc;
        stroke-miterlimit: 10;
      }

      .cls-2, .cls-4 {
        fill: #0082fc;
      }

      .cls-3 {
        fill: none;
      }

      .cls-5 {
        fill: #d90000;
      }
    </style>
  </defs>
  <g>
    <line class="cls-3" x1="157.65" y1="82.41" x2="436.03" y2="82.41"/>
    <polygon class="cls-4" points="434.57 87.39 443.21 82.41 434.57 77.42 434.57 87.39"/>
  </g>
  <g>
    <line class="cls-3" x1="157.65" y1="163.77" x2="436.03" y2="163.77"/>
    <polygon class="cls-4" points="434.57 168.76 443.21 163.77 434.57 158.79 434.57 168.76"/>
  </g>
  <g>
    <line class="cls-4" x1="443.21" y1="203.64" x2="157.65" y2="203.64"/>
    <g>
      <line class="cls-3" x1="443.21" y1="203.64" x2="164.82" y2="203.64"/>
      <polygon class="cls-4" points="166.28 198.66 157.65 203.64 166.28 208.63 166.28 198.66"/>
    </g>
  </g>
  <g>
    <path d="M27.74,87.99v-5.95h-2.04v-.9c.59-.02,1.08-.17,1.46-.46.38-.29.62-.67.72-1.13h1.12v8.44h-1.25Z"/>
    <path d="M30.95,87.16c0-.25.09-.47.26-.64s.39-.27.64-.27.47.09.64.27.27.39.27.64-.09.46-.27.64c-.18.17-.39.26-.64.26s-.46-.09-.64-.26c-.17-.17-.26-.39-.26-.64Z"/>
    <path d="M44.09,84.22v3.78h-1.28v-9.23h3.36c.43,0,.81.07,1.17.21.35.14.65.33.9.58.25.25.44.54.58.87.14.33.21.69.21,1.08s-.07.75-.21,1.09-.33.62-.58.86c-.25.24-.55.43-.9.57-.35.14-.74.21-1.17.21h-2.08ZM45.94,83.07c.56,0,.99-.14,1.31-.42.32-.28.48-.66.48-1.14s-.16-.89-.48-1.17c-.32-.29-.75-.43-1.31-.43h-1.85v3.16h1.85Z"/>
    <path d="M49.83,86.31c0-.28.05-.53.14-.75.1-.22.23-.41.4-.57.17-.16.37-.28.61-.38.23-.1.48-.17.75-.21l1.69-.25c.19-.03.32-.08.38-.17.07-.09.1-.19.1-.3,0-.3-.11-.57-.32-.79-.21-.22-.56-.33-1.04-.33-.43,0-.77.12-1,.36s-.37.54-.42.9l-1.17-.27c.03-.29.12-.57.27-.82.14-.25.33-.47.55-.64.22-.18.49-.32.79-.42.3-.1.62-.15.96-.15.47,0,.87.06,1.2.19.33.13.6.29.81.5.21.21.36.45.46.73.09.28.14.57.14.87v3.14c0,.28,0,.5.03.66.02.17.04.29.05.36h-1.2c-.02-.08-.03-.18-.05-.31-.01-.13-.02-.31-.02-.53-.07.11-.16.23-.27.35-.11.12-.25.23-.42.34s-.36.19-.58.25c-.22.06-.47.1-.75.1-.32,0-.61-.05-.87-.16s-.47-.24-.66-.41c-.18-.17-.32-.37-.42-.59s-.15-.46-.15-.72ZM52.09,87.16c.25,0,.49-.03.71-.1.22-.07.41-.17.57-.31.16-.14.29-.33.38-.57s.14-.53.14-.87v-.29l-1.91.29c-.26.04-.48.14-.65.29s-.26.37-.26.64c0,.23.09.44.27.63.18.19.43.28.74.28Z"/>
    <path d="M59.61,82.67c-.25,0-.49.05-.71.14-.23.09-.43.23-.61.41s-.32.41-.42.68c-.1.27-.16.59-.16.96s.05.67.16.94c.11.27.24.5.42.69.17.19.38.33.61.42.23.1.48.14.73.14.29,0,.54-.04.75-.13.21-.09.37-.2.51-.33.13-.13.24-.27.32-.42s.13-.29.17-.41l1.08.47c-.08.23-.19.45-.34.68-.15.23-.34.44-.57.63-.23.19-.51.35-.83.46-.32.12-.68.18-1.09.18-.46,0-.88-.08-1.27-.25s-.72-.4-1-.7c-.28-.3-.5-.65-.66-1.05-.16-.4-.24-.84-.24-1.32s.08-.93.24-1.34c.16-.41.38-.76.66-1.05.28-.29.62-.52,1-.68.39-.16.8-.25,1.24-.25.42,0,.78.06,1.1.18.32.12.59.27.82.46.23.19.41.41.55.64s.24.48.31.71l-1.11.47c-.04-.16-.1-.31-.18-.47s-.19-.3-.32-.42c-.13-.13-.3-.23-.49-.31-.19-.08-.42-.12-.69-.12Z"/>
    <path d="M66.7,84.37l2.72,3.62h-1.54l-2.04-2.76-.87.87v1.89h-1.21v-9.43h1.21v5.94l2.71-2.77h1.69l-2.67,2.64Z"/>
    <path d="M75.71,86.21c-.09.28-.21.54-.38.77-.17.24-.37.45-.61.62-.24.18-.51.32-.81.42-.3.1-.64.16-1,.16-.42,0-.82-.07-1.2-.22-.38-.15-.72-.36-1.01-.65-.29-.29-.52-.64-.69-1.05s-.25-.89-.25-1.42c0-.49.08-.94.25-1.35.16-.4.38-.75.66-1.04.27-.29.59-.52.96-.68.37-.16.74-.24,1.13-.24.48,0,.9.08,1.28.24.38.16.69.38.94.67s.45.63.58,1.04c.13.4.2.85.2,1.33,0,.08,0,.15,0,.22,0,.07,0,.13-.02.17h-4.71c0,.28.06.53.16.77.09.23.23.44.4.61.17.17.37.3.6.39.23.09.48.14.74.14.51,0,.9-.12,1.17-.36.27-.24.46-.54.59-.9l1.05.36ZM74.47,84.22c-.02-.45-.17-.83-.46-1.14-.29-.31-.71-.46-1.26-.46-.26,0-.49.05-.7.14-.2.09-.38.21-.52.36-.14.15-.26.32-.35.51-.09.19-.13.39-.14.59h3.42Z"/>
    <path d="M78.89,81.73h1.36v1.11h-1.36v3.25c0,.29.07.5.2.64.13.14.36.21.68.21.08,0,.16,0,.26-.01.1,0,.17-.02.22-.04v1.04c-.05.02-.15.04-.3.07-.15.03-.32.05-.53.05-.54,0-.96-.15-1.28-.46s-.47-.75-.47-1.32v-3.44h-1.2v-1.11h.34c.34,0,.58-.09.73-.27.15-.18.23-.41.23-.69v-1.02h1.12v1.98Z"/>
    <path d="M85.65,85.98c.04.33.19.61.43.83.24.23.59.34,1.03.34.35,0,.61-.08.79-.25.18-.16.27-.36.27-.59,0-.2-.07-.37-.21-.51s-.34-.24-.6-.3l-1.07-.23c-.49-.1-.88-.31-1.15-.62s-.41-.69-.41-1.13c0-.27.06-.52.18-.76s.28-.45.47-.63c.2-.18.44-.33.71-.43.27-.1.56-.16.87-.16.42,0,.78.06,1.07.18s.53.27.71.45.32.36.41.55.15.36.19.49l-1.08.4c-.02-.08-.05-.18-.09-.3-.04-.12-.11-.24-.21-.34s-.23-.2-.39-.28-.37-.12-.61-.12c-.31,0-.56.08-.76.25-.19.17-.29.36-.29.58,0,.4.24.65.71.75l1.02.22c.57.12,1,.34,1.29.67.29.33.44.72.44,1.19,0,.23-.05.45-.14.68s-.24.43-.42.62c-.19.19-.42.35-.71.46-.29.12-.62.18-1.02.18-.43,0-.8-.06-1.11-.18-.31-.12-.56-.27-.77-.46-.2-.18-.36-.38-.47-.59-.11-.21-.18-.41-.2-.59l1.11-.39Z"/>
    <path d="M96.38,86.21c-.09.28-.21.54-.38.77-.17.24-.37.45-.61.62-.24.18-.51.32-.81.42-.3.1-.64.16-1,.16-.42,0-.82-.07-1.2-.22-.38-.15-.72-.36-1.01-.65-.29-.29-.52-.64-.69-1.05-.17-.42-.25-.89-.25-1.42,0-.49.08-.94.25-1.35.17-.4.38-.75.66-1.04.27-.29.59-.52.96-.68.36-.16.74-.24,1.13-.24.48,0,.9.08,1.28.24s.69.38.94.67.45.63.58,1.04c.13.4.2.85.2,1.33,0,.08,0,.15,0,.22s-.01.13-.02.17h-4.71c0,.28.06.53.16.77.1.23.23.44.4.61.17.17.37.3.6.39s.47.14.74.14c.51,0,.9-.12,1.17-.36.27-.24.46-.54.59-.9l1.05.36ZM95.14,84.22c-.02-.45-.17-.83-.46-1.14-.29-.31-.71-.46-1.26-.46-.26,0-.49.05-.7.14-.21.09-.38.21-.52.36s-.26.32-.35.51c-.09.19-.13.39-.14.59h3.42Z"/>
    <path d="M99.11,87.99h-1.22v-6.26h1.2v.9c.23-.39.51-.67.86-.83.35-.16.7-.25,1.07-.25s.7.06.98.19c.28.13.52.3.7.52.19.22.33.48.42.79.09.3.14.63.14.98v3.97h-1.22v-3.76c0-.22-.03-.42-.07-.61-.05-.19-.13-.36-.25-.5s-.27-.26-.46-.34-.41-.12-.68-.12c-.24,0-.46.05-.64.14-.18.09-.33.21-.46.37-.12.16-.21.34-.27.55-.06.21-.09.43-.09.66v3.62Z"/>
    <path d="M106.71,81.73h1.35v1.11h-1.35v3.25c0,.29.06.5.2.64.13.14.36.21.68.21.08,0,.17,0,.26-.01.1,0,.17-.02.22-.04v1.04c-.05.02-.15.04-.3.07-.15.03-.33.05-.54.05-.54,0-.96-.15-1.28-.46s-.47-.75-.47-1.32v-3.44h-1.2v-1.11h.34c.34,0,.58-.09.74-.27.15-.18.23-.41.23-.69v-1.02h1.12v1.98Z"/>
  </g>
  <g>
    <path d="M27.67,109.16l2.49-2.29h-4.04v-1.17h5.73v1.15l-2.41,2.23c.31,0,.62.05.93.16.31.1.59.26.83.48.25.21.45.48.61.8.16.32.23.7.23,1.13,0,.36-.07.7-.2,1.02-.13.33-.33.61-.59.87-.26.25-.58.45-.96.6s-.81.22-1.31.22-.92-.07-1.3-.22c-.38-.15-.71-.34-.97-.59-.26-.25-.47-.53-.62-.85-.15-.32-.23-.65-.25-1l1.25-.29c0,.28.06.53.17.75.11.23.24.42.41.57.17.16.37.28.59.36.22.09.46.13.71.13.29,0,.54-.04.77-.12.22-.08.41-.2.56-.34.15-.14.26-.31.34-.5s.12-.39.12-.6c0-.28-.05-.52-.15-.72s-.23-.36-.4-.49c-.17-.13-.35-.22-.55-.28-.21-.06-.41-.09-.62-.09-.25,0-.5.04-.74.13l-.62-1.05Z"/>
    <path d="M33.51,113.3c0-.25.09-.47.26-.64.17-.18.38-.27.64-.27s.47.09.64.27.27.39.27.64-.09.46-.27.64c-.18.17-.39.26-.64.26s-.46-.09-.64-.26c-.17-.17-.26-.39-.26-.64Z"/>
    <path d="M48.2,111.55h-4.09l-.98,2.58h-1.37l3.67-9.23h1.47l3.67,9.23h-1.38l-1-2.58ZM44.57,110.37h3.18l-1.6-4.14-1.57,4.14Z"/>
    <path d="M54.23,108.8c-.25,0-.49.05-.72.14-.22.09-.43.23-.61.41s-.32.41-.42.68c-.11.27-.16.59-.16.96s.05.67.16.94c.1.27.24.5.42.69s.38.33.61.42c.23.1.48.14.73.14.29,0,.54-.04.75-.13.2-.09.37-.2.51-.33.13-.13.24-.27.32-.42s.13-.29.17-.41l1.08.47c-.08.23-.19.45-.34.68-.15.23-.34.44-.57.63-.23.19-.51.35-.83.46s-.68.18-1.09.18c-.46,0-.88-.08-1.27-.25-.39-.17-.72-.4-1-.7-.28-.3-.5-.65-.66-1.05-.16-.4-.24-.84-.24-1.32s.08-.93.24-1.34c.16-.41.38-.76.66-1.05.28-.29.62-.52,1-.68.39-.16.8-.25,1.24-.25.42,0,.78.06,1.1.18s.59.27.82.46.41.41.55.64.24.48.31.71l-1.11.47c-.04-.16-.11-.31-.18-.47s-.18-.3-.32-.42c-.13-.13-.3-.23-.49-.31s-.42-.12-.69-.12Z"/>
    <path d="M61.32,110.51l2.72,3.62h-1.54l-2.04-2.76-.87.87v1.89h-1.21v-9.43h1.21v5.94l2.71-2.77h1.69l-2.67,2.64Z"/>
    <path d="M66.38,114.13h-1.22v-6.26h1.2v.9c.22-.39.51-.67.86-.83.35-.16.7-.25,1.07-.25s.7.06.98.19c.28.13.52.3.7.52.19.22.33.48.42.79.09.3.14.63.14.98v3.97h-1.22v-3.76c0-.22-.02-.42-.07-.61-.05-.19-.13-.36-.25-.5s-.27-.26-.46-.34c-.19-.08-.42-.12-.68-.12-.24,0-.46.05-.64.14-.18.09-.33.21-.46.37-.12.16-.21.34-.27.55-.06.21-.09.43-.09.66v3.62Z"/>
    <path d="M75.08,107.67c.47,0,.9.08,1.29.25.39.17.73.4,1.02.7.29.3.51.64.66,1.05.16.4.23.84.23,1.32s-.08.92-.23,1.33c-.16.41-.38.76-.66,1.05-.29.29-.62.53-1.02.7s-.82.25-1.29.25-.9-.08-1.29-.25-.73-.4-1.02-.7c-.29-.29-.51-.65-.66-1.05-.16-.41-.23-.85-.23-1.33s.08-.92.23-1.32c.16-.4.38-.75.66-1.05.29-.29.62-.53,1.02-.7.39-.17.82-.25,1.29-.25ZM75.08,113.23c.26,0,.51-.05.74-.14.23-.1.44-.24.62-.43s.33-.42.43-.7c.1-.28.16-.6.16-.96s-.05-.68-.16-.96-.25-.51-.43-.7c-.18-.19-.39-.33-.62-.43-.23-.1-.48-.14-.74-.14s-.51.05-.74.14c-.23.1-.44.24-.62.43-.18.19-.32.42-.43.7-.1.27-.16.59-.16.96s.05.69.16.96c.11.28.25.51.43.7.18.19.39.33.62.43.23.1.48.14.74.14Z"/>
    <path d="M84.43,107.87l1.63,4.71,1.38-4.71h1.29l-2.03,6.26h-1.26l-1.67-4.76-1.63,4.76h-1.29l-2.06-6.26h1.34l1.41,4.71,1.63-4.71h1.26Z"/>
    <path d="M89.87,114.13v-9.43h1.22v9.43h-1.22Z"/>
    <path d="M98.54,112.34c-.09.28-.21.54-.38.77-.17.24-.37.45-.61.62-.24.18-.51.32-.81.42-.3.1-.64.16-1,.16-.42,0-.82-.07-1.2-.22-.38-.15-.72-.36-1.01-.65-.29-.29-.52-.64-.69-1.05-.17-.42-.25-.89-.25-1.42,0-.49.08-.94.25-1.35.17-.4.38-.75.66-1.04.27-.29.59-.52.96-.68.36-.16.74-.24,1.13-.24.48,0,.9.08,1.28.24s.69.38.94.67.45.63.58,1.04c.13.4.2.85.2,1.33,0,.08,0,.15,0,.22s-.01.13-.02.17h-4.71c0,.28.06.53.16.77.1.23.23.44.4.61.17.17.37.3.6.39s.47.14.74.14c.51,0,.9-.12,1.17-.36.27-.24.46-.54.59-.9l1.05.36ZM97.31,110.35c-.02-.45-.17-.83-.46-1.14-.29-.31-.71-.46-1.26-.46-.26,0-.49.05-.7.14-.21.09-.38.21-.52.36s-.26.32-.35.51c-.09.19-.13.39-.14.59h3.42Z"/>
    <path d="M104.53,113.18c-.15.3-.38.57-.71.79-.33.22-.74.33-1.23.33-.46,0-.87-.08-1.24-.25-.37-.17-.68-.4-.93-.7s-.45-.65-.59-1.05c-.14-.4-.21-.84-.21-1.31,0-.44.07-.86.21-1.26.14-.4.35-.74.61-1.04.26-.3.57-.54.94-.72.37-.18.77-.27,1.21-.27.28,0,.52.03.74.09s.4.14.55.24.29.21.39.34c.1.13.18.25.23.38v-4.05h1.21v8.27c0,.3,0,.56.03.77.02.21.03.34.04.39h-1.18c-.02-.07-.03-.18-.05-.33-.01-.15-.02-.32-.02-.51v-.1ZM100.87,110.98c0,.32.04.62.12.89.08.27.2.51.36.71.16.2.35.36.57.47.23.11.49.17.78.17.28,0,.53-.06.76-.18.22-.12.42-.28.57-.48s.28-.44.36-.72c.08-.28.12-.58.12-.9,0-.65-.16-1.18-.48-1.58-.32-.4-.76-.6-1.32-.6-.28,0-.53.05-.76.16-.23.11-.43.26-.59.46s-.29.43-.37.7c-.09.27-.13.56-.13.89Z"/>
    <path d="M108.37,114.19c.04.44.22.81.53,1.1.31.29.7.44,1.18.44.66,0,1.14-.17,1.45-.51.31-.34.46-.85.46-1.52v-.9c-.15.29-.39.53-.71.73-.33.2-.73.3-1.2.3-.42,0-.8-.08-1.15-.23s-.66-.36-.91-.62c-.26-.26-.46-.58-.6-.96-.14-.37-.21-.78-.21-1.22s.07-.82.21-1.19c.14-.37.33-.69.59-.96s.55-.49.9-.65.74-.24,1.18-.24c.49,0,.89.09,1.21.26.32.17.56.42.72.73v-.87h1.21v5.79c0,.4-.05.79-.16,1.17-.11.38-.28.71-.53,1-.25.29-.57.53-.97.7-.4.18-.89.27-1.48.27-.39,0-.75-.06-1.09-.18s-.63-.28-.88-.49c-.26-.21-.46-.45-.62-.74-.16-.28-.26-.59-.29-.93l1.18-.27ZM110.26,112.8c.53,0,.96-.18,1.29-.55.33-.36.49-.85.49-1.46s-.17-1.09-.49-1.46c-.33-.36-.76-.55-1.29-.55s-.99.18-1.31.55c-.33.36-.5.85-.5,1.46s.16,1.1.49,1.46c.33.36.77.54,1.32.54Z"/>
    <path d="M115.02,114.13v-6.26h1.17v.83c.2-.35.47-.6.83-.77.35-.16.71-.25,1.07-.25.39,0,.76.1,1.1.29.34.19.6.49.78.9.25-.45.56-.76.94-.93.37-.17.76-.25,1.16-.25.27,0,.53.05.79.14.26.1.49.24.7.44.21.2.37.44.49.74.12.3.18.65.18,1.06v4.06h-1.21v-3.93c0-.41-.11-.75-.32-1.02s-.55-.41-1.01-.41-.78.15-1.05.45c-.26.3-.4.67-.4,1.13v3.79h-1.22v-3.93c0-.41-.1-.75-.31-1.02-.21-.27-.55-.41-1.02-.41-.44,0-.79.15-1.06.44-.26.29-.4.68-.4,1.15v3.78h-1.21Z"/>
    <path d="M131.56,112.34c-.09.28-.21.54-.38.77-.17.24-.37.45-.61.62-.24.18-.51.32-.81.42-.3.1-.64.16-1,.16-.42,0-.82-.07-1.2-.22-.38-.15-.72-.36-1.01-.65-.29-.29-.52-.64-.69-1.05s-.25-.89-.25-1.42c0-.49.08-.94.25-1.35.16-.4.38-.75.66-1.04.27-.29.59-.52.96-.68.37-.16.74-.24,1.13-.24.48,0,.9.08,1.28.24.38.16.69.38.94.67s.45.63.58,1.04c.13.4.2.85.2,1.33,0,.08,0,.15,0,.22,0,.07,0,.13-.02.17h-4.71c0,.28.06.53.16.77.09.23.23.44.4.61.17.17.37.3.6.39.23.09.48.14.74.14.51,0,.9-.12,1.17-.36.27-.24.46-.54.59-.9l1.05.36ZM130.33,110.35c-.02-.45-.17-.83-.46-1.14-.29-.31-.71-.46-1.26-.46-.26,0-.49.05-.7.14-.2.09-.38.21-.52.36-.14.15-.26.32-.35.51-.09.19-.13.39-.14.59h3.42Z"/>
    <path d="M134.3,114.13h-1.22v-6.26h1.2v.9c.22-.39.51-.67.86-.83.35-.16.7-.25,1.07-.25s.7.06.98.19c.28.13.52.3.7.52.19.22.33.48.42.79.09.3.14.63.14.98v3.97h-1.22v-3.76c0-.22-.02-.42-.07-.61-.05-.19-.13-.36-.25-.5s-.27-.26-.46-.34c-.19-.08-.42-.12-.68-.12-.24,0-.46.05-.64.14-.18.09-.33.21-.46.37-.12.16-.21.34-.27.55-.06.21-.09.43-.09.66v3.62Z"/>
    <path d="M141.9,107.87h1.35v1.11h-1.35v3.25c0,.29.06.5.2.64.13.14.36.21.68.21.08,0,.17,0,.26-.01.1,0,.17-.02.22-.04v1.04c-.05.02-.15.04-.3.07-.15.03-.33.05-.54.05-.54,0-.96-.15-1.28-.46s-.47-.75-.47-1.32v-3.44h-1.2v-1.11h.34c.34,0,.58-.09.74-.27.15-.18.23-.41.23-.69v-1.02h1.12v1.98Z"/>
    <path d="M43.91,127.15h-1.22v-6.26h1.2v.9c.22-.39.51-.67.86-.83.35-.16.7-.25,1.07-.25s.7.06.98.19c.28.13.52.3.7.52.19.22.33.48.42.79.09.3.14.63.14.98v3.97h-1.22v-3.76c0-.22-.02-.42-.07-.61-.05-.19-.13-.36-.25-.5s-.27-.26-.46-.34c-.19-.08-.42-.12-.68-.12-.24,0-.46.05-.64.14-.18.09-.33.21-.46.37-.12.16-.21.34-.27.55-.06.21-.09.43-.09.66v3.62Z"/>
    <path d="M52.61,120.69c.47,0,.9.08,1.29.25.39.17.73.4,1.02.7.29.3.51.64.66,1.05.16.4.23.84.23,1.32s-.08.92-.23,1.33c-.16.41-.38.76-.66,1.05-.29.29-.62.53-1.02.7s-.82.25-1.29.25-.9-.08-1.29-.25-.73-.4-1.02-.7c-.29-.29-.51-.65-.66-1.05-.16-.41-.23-.85-.23-1.33s.08-.92.23-1.32c.16-.4.38-.75.66-1.05.29-.29.62-.53,1.02-.7.39-.17.82-.25,1.29-.25ZM52.61,126.25c.26,0,.51-.05.74-.14.23-.1.44-.24.62-.43.18-.19.33-.42.43-.7.11-.28.16-.6.16-.96s-.05-.68-.16-.96c-.1-.27-.25-.51-.43-.7-.18-.19-.39-.33-.62-.43-.23-.1-.48-.14-.74-.14s-.51.05-.74.14c-.23.1-.44.24-.62.43-.18.19-.33.42-.43.7-.11.27-.16.59-.16.96s.05.69.16.96c.1.28.25.51.43.7.18.19.39.33.62.43.23.1.48.14.74.14Z"/>
    <path d="M58.91,120.89h1.35v1.11h-1.35v3.25c0,.29.06.5.2.64.13.14.36.21.68.21.08,0,.17,0,.26-.01.1,0,.17-.02.22-.04v1.04c-.05.02-.15.04-.3.07-.15.03-.33.05-.54.05-.54,0-.96-.15-1.28-.46s-.47-.75-.47-1.32v-3.44h-1.2v-1.11h.34c.34,0,.58-.09.74-.27.15-.18.23-.41.23-.69v-1.02h1.12v1.98Z"/>
    <path d="M68.62,122.12c-.18-.03-.36-.04-.53-.04-.51,0-.93.15-1.24.45-.32.3-.47.79-.47,1.48v3.14h-1.22v-6.26h1.2v1.09c.11-.24.24-.44.4-.59s.31-.27.47-.36c.17-.09.33-.15.51-.19s.34-.05.5-.05c.09,0,.17,0,.24.01.07,0,.13.02.16.03v1.3Z"/>
    <path d="M75.3,125.36c-.09.28-.21.54-.38.77-.17.24-.37.45-.61.62-.24.18-.51.32-.81.42-.3.1-.64.16-1,.16-.42,0-.82-.07-1.2-.22-.38-.15-.72-.36-1.01-.65-.29-.29-.52-.64-.69-1.05-.17-.42-.25-.89-.25-1.42,0-.49.08-.94.25-1.35.17-.4.38-.75.66-1.04.27-.29.59-.52.96-.68.36-.16.74-.24,1.13-.24.48,0,.9.08,1.28.24s.69.38.94.67.45.63.58,1.04c.13.4.2.85.2,1.33,0,.08,0,.15,0,.22s-.01.13-.02.17h-4.71c0,.28.06.53.16.77.1.23.23.44.4.61.17.17.37.3.6.39s.47.14.74.14c.51,0,.9-.12,1.17-.36.27-.24.46-.54.59-.9l1.05.36ZM74.06,123.37c-.02-.45-.17-.83-.46-1.14-.29-.31-.71-.46-1.26-.46-.26,0-.49.05-.7.14-.21.09-.38.21-.52.36s-.26.32-.35.51c-.09.19-.13.39-.14.59h3.42Z"/>
    <path d="M79.53,121.82c-.25,0-.49.05-.71.14-.23.09-.43.23-.61.41s-.32.41-.42.68c-.1.27-.16.59-.16.96s.05.67.16.94c.11.27.24.5.42.69.17.19.38.33.61.42.23.1.48.14.73.14.29,0,.54-.04.75-.13.21-.09.37-.2.51-.33.13-.13.24-.27.32-.42s.13-.29.17-.41l1.08.47c-.08.23-.19.45-.34.68-.15.23-.34.44-.57.63-.23.19-.51.35-.83.46-.32.12-.68.18-1.09.18-.46,0-.88-.08-1.27-.25s-.72-.4-1-.7c-.28-.3-.5-.65-.66-1.05-.16-.4-.24-.84-.24-1.32s.08-.93.24-1.34c.16-.41.38-.76.66-1.05.28-.29.62-.52,1-.68.39-.16.8-.25,1.24-.25.42,0,.78.06,1.1.18.32.12.59.27.82.46.23.19.41.41.55.64s.24.48.31.71l-1.11.47c-.04-.16-.1-.31-.18-.47s-.19-.3-.32-.42c-.13-.13-.3-.23-.49-.31-.19-.08-.42-.12-.69-.12Z"/>
    <path d="M89.22,125.36c-.09.28-.21.54-.38.77-.17.24-.37.45-.61.62-.24.18-.51.32-.81.42-.3.1-.64.16-1,.16-.42,0-.82-.07-1.2-.22-.38-.15-.72-.36-1.01-.65-.29-.29-.52-.64-.69-1.05-.17-.42-.25-.89-.25-1.42,0-.49.08-.94.25-1.35.17-.4.38-.75.66-1.04.27-.29.59-.52.96-.68.36-.16.74-.24,1.13-.24.48,0,.9.08,1.28.24s.69.38.94.67.45.63.58,1.04c.13.4.2.85.2,1.33,0,.08,0,.15,0,.22s-.01.13-.02.17h-4.71c0,.28.06.53.16.77.1.23.23.44.4.61.17.17.37.3.6.39s.47.14.74.14c.51,0,.9-.12,1.17-.36.27-.24.46-.54.59-.9l1.05.36ZM87.99,123.37c-.02-.45-.17-.83-.46-1.14-.29-.31-.71-.46-1.26-.46-.26,0-.49.05-.7.14-.21.09-.38.21-.52.36s-.26.32-.35.51c-.09.19-.13.39-.14.59h3.42Z"/>
    <path d="M90.43,118.52c0-.25.08-.46.25-.63s.38-.25.62-.25.46.08.63.25.25.38.25.63-.08.45-.25.62c-.17.17-.38.25-.63.25s-.45-.08-.62-.25c-.17-.17-.25-.38-.25-.62ZM90.7,127.15v-6.26h1.21v6.26h-1.21Z"/>
    <path d="M96.8,127.15h-1.24l-2.54-6.26h1.38l1.79,4.83,1.79-4.83h1.32l-2.5,6.26Z"/>
    <path d="M105.69,125.36c-.09.28-.21.54-.38.77-.17.24-.37.45-.61.62-.24.18-.51.32-.81.42-.3.1-.64.16-1,.16-.42,0-.82-.07-1.2-.22-.38-.15-.72-.36-1.01-.65-.29-.29-.52-.64-.69-1.05s-.25-.89-.25-1.42c0-.49.08-.94.25-1.35.16-.4.38-.75.66-1.04.27-.29.59-.52.96-.68.37-.16.74-.24,1.13-.24.48,0,.9.08,1.28.24.38.16.69.38.94.67s.45.63.58,1.04c.13.4.2.85.2,1.33,0,.08,0,.15,0,.22,0,.07,0,.13-.02.17h-4.71c0,.28.06.53.16.77.09.23.23.44.4.61.17.17.37.3.6.39.23.09.48.14.74.14.51,0,.9-.12,1.17-.36.27-.24.46-.54.59-.9l1.05.36ZM104.46,123.37c-.02-.45-.17-.83-.46-1.14-.29-.31-.71-.46-1.26-.46-.26,0-.49.05-.7.14-.2.09-.38.21-.52.36-.14.15-.26.32-.35.51-.09.19-.13.39-.14.59h3.42Z"/>
    <path d="M111.68,126.2c-.15.3-.38.57-.71.79-.32.22-.73.33-1.23.33-.46,0-.87-.08-1.24-.25-.36-.17-.67-.4-.93-.7s-.45-.65-.59-1.05c-.14-.4-.21-.84-.21-1.31,0-.44.07-.86.21-1.26s.34-.74.61-1.04c.26-.3.57-.54.94-.72.36-.18.77-.27,1.21-.27.28,0,.52.03.73.09s.4.14.55.24.29.21.39.34c.11.13.18.25.23.38v-4.05h1.21v8.27c0,.3,0,.56.03.77.02.21.03.34.04.39h-1.19c-.02-.07-.03-.18-.04-.33-.01-.15-.02-.32-.02-.51v-.1ZM108.02,124c0,.32.04.62.12.89s.2.51.36.71c.16.2.35.36.57.47.22.11.48.17.78.17.28,0,.53-.06.75-.18.23-.12.42-.28.57-.48s.28-.44.36-.72c.08-.28.12-.58.12-.9,0-.65-.16-1.18-.47-1.58-.32-.4-.76-.6-1.32-.6-.28,0-.53.05-.76.16-.23.11-.42.26-.59.46-.16.2-.28.43-.37.7-.09.27-.13.56-.13.89Z"/>
  </g>
  <g>
    <path d="M31.59,195.41c-.2.16-.48.41-.83.76-.36.35-.72.82-1.09,1.41s-.71,1.29-1.02,2.12c-.31.83-.52,1.8-.62,2.92h-1.31c.04-.61.13-1.18.25-1.71.12-.53.27-1.03.44-1.48.17-.46.36-.87.56-1.25.2-.38.41-.72.62-1.02.48-.7,1.01-1.3,1.6-1.8h-4.75v-1.17h6.16v1.22Z"/>
    <path d="M31.34,201.79c0-.25.09-.47.26-.64s.39-.27.64-.27.47.09.64.27.27.39.27.64-.09.46-.27.64-.39.26-.64.26-.46-.09-.64-.26-.26-.39-.26-.64Z"/>
    <path d="M48.2,200.04h-4.09l-.98,2.58h-1.37l3.67-9.23h1.47l3.67,9.23h-1.38l-1-2.58ZM44.57,198.86h3.18l-1.6-4.14-1.57,4.14Z"/>
    <path d="M54.23,197.3c-.25,0-.49.04-.72.14-.22.09-.43.23-.61.41-.18.18-.32.41-.42.68-.11.27-.16.59-.16.96s.05.67.16.94c.1.27.24.5.42.69s.38.33.61.42c.23.09.48.14.73.14.29,0,.54-.04.75-.13.2-.09.37-.2.51-.33.13-.13.24-.27.32-.42.08-.15.13-.29.17-.41l1.08.47c-.08.23-.19.45-.34.68-.15.23-.34.44-.57.63-.23.19-.51.34-.83.46s-.68.18-1.09.18c-.46,0-.88-.08-1.27-.25-.39-.17-.72-.4-1-.7-.28-.3-.5-.65-.66-1.05-.16-.4-.24-.84-.24-1.32s.08-.93.24-1.34c.16-.41.38-.76.66-1.05s.62-.52,1-.68c.39-.17.8-.25,1.24-.25.42,0,.78.06,1.1.18s.59.27.82.46c.23.19.41.41.55.64s.24.48.31.71l-1.11.47c-.04-.16-.11-.31-.18-.47-.08-.16-.18-.3-.32-.42-.13-.12-.3-.23-.49-.31-.19-.08-.42-.12-.69-.12Z"/>
    <path d="M61.32,199l2.72,3.62h-1.54l-2.04-2.76-.87.87v1.89h-1.21v-9.43h1.21v5.94l2.71-2.77h1.69l-2.67,2.64Z"/>
    <path d="M66.38,202.62h-1.22v-6.26h1.2v.9c.23-.39.51-.67.86-.83.35-.16.7-.25,1.07-.25s.7.06.98.19c.28.13.52.3.7.52.19.22.33.48.42.79.09.3.14.63.14.98v3.97h-1.22v-3.76c0-.22-.03-.42-.07-.61-.05-.19-.13-.36-.25-.5-.12-.14-.27-.26-.46-.34-.19-.08-.41-.12-.68-.12-.24,0-.46.05-.64.14-.18.09-.33.21-.46.37s-.21.34-.27.55-.09.43-.09.66v3.62Z"/>
    <path d="M75.08,196.16c.47,0,.9.08,1.29.25s.73.4,1.02.7c.29.29.51.64.66,1.05s.23.84.23,1.32-.08.92-.23,1.33-.38.76-.66,1.05c-.29.29-.62.53-1.02.7s-.82.25-1.29.25-.9-.08-1.29-.25-.73-.4-1.02-.7c-.29-.29-.51-.65-.66-1.05s-.23-.85-.23-1.33.08-.92.23-1.32.38-.75.66-1.05c.29-.29.62-.53,1.02-.7s.82-.25,1.29-.25ZM75.08,201.72c.26,0,.51-.05.74-.14.23-.1.44-.24.62-.43.18-.19.33-.43.43-.7.1-.28.16-.6.16-.96s-.05-.68-.16-.96-.25-.5-.43-.7c-.18-.19-.39-.33-.62-.43-.23-.09-.48-.14-.74-.14s-.51.05-.74.14c-.23.1-.44.24-.62.43-.18.19-.32.42-.43.7-.1.27-.16.59-.16.96s.05.69.16.96c.11.28.25.51.43.7.18.19.39.33.62.43.23.09.48.14.74.14Z"/>
    <path d="M84.43,196.36l1.63,4.71,1.38-4.71h1.29l-2.03,6.26h-1.26l-1.67-4.76-1.63,4.76h-1.29l-2.06-6.26h1.34l1.41,4.71,1.63-4.71h1.26Z"/>
    <path d="M89.87,202.62v-9.43h1.22v9.43h-1.22Z"/>
    <path d="M98.54,200.84c-.09.28-.21.54-.38.77-.17.24-.37.45-.61.62s-.51.32-.81.42c-.3.1-.64.16-1,.16-.42,0-.82-.07-1.2-.22-.38-.15-.72-.36-1.01-.65s-.52-.64-.69-1.05-.25-.89-.25-1.42c0-.5.08-.94.25-1.35.16-.4.38-.75.66-1.04s.59-.52.96-.68c.37-.16.74-.24,1.13-.24.48,0,.9.08,1.28.24.38.16.69.38.94.67s.45.63.58,1.04c.13.4.2.85.2,1.33,0,.08,0,.15,0,.22,0,.07,0,.13-.02.17h-4.71c0,.28.06.53.16.77.09.23.23.44.4.61.17.17.37.3.6.39.23.09.48.14.74.14.51,0,.9-.12,1.17-.36.27-.24.46-.54.59-.9l1.05.37ZM97.31,198.84c-.02-.45-.17-.83-.46-1.14-.29-.31-.71-.46-1.26-.46-.26,0-.49.05-.7.14-.2.09-.38.21-.52.37-.14.15-.26.32-.35.51-.09.19-.13.39-.14.59h3.42Z"/>
    <path d="M104.53,201.67c-.15.3-.38.57-.71.79-.32.22-.73.33-1.23.33-.46,0-.87-.08-1.24-.25-.36-.17-.67-.4-.93-.7-.26-.3-.45-.65-.59-1.05-.14-.4-.21-.84-.21-1.31,0-.44.07-.86.21-1.26.14-.39.34-.74.61-1.04.26-.3.57-.54.94-.72.36-.18.77-.27,1.21-.27.28,0,.52.03.73.09s.4.14.55.24c.16.1.29.21.39.34.11.13.18.25.23.38v-4.05h1.21v8.27c0,.3,0,.56.03.77.02.21.03.34.04.39h-1.19c-.02-.07-.03-.18-.04-.33-.01-.15-.02-.32-.02-.51v-.1ZM100.88,199.47c0,.32.04.62.12.89s.2.51.36.71c.16.2.35.36.57.47s.48.17.78.17c.28,0,.53-.06.75-.18.23-.12.42-.28.57-.48.16-.2.28-.44.36-.72.08-.28.12-.58.12-.9,0-.65-.16-1.18-.47-1.58-.32-.4-.76-.6-1.32-.6-.28,0-.53.05-.76.16-.23.11-.42.26-.59.46-.16.2-.28.43-.37.7-.09.27-.13.56-.13.89Z"/>
    <path d="M108.37,202.69c.04.44.22.81.53,1.1s.7.44,1.18.44c.66,0,1.14-.17,1.45-.51.31-.34.46-.85.46-1.52v-.9c-.15.29-.39.53-.71.73-.33.2-.73.3-1.2.3-.42,0-.8-.08-1.15-.23-.35-.15-.66-.36-.91-.62s-.46-.58-.6-.96c-.14-.37-.21-.78-.21-1.22s.07-.82.21-1.19c.14-.37.33-.69.59-.96s.55-.49.9-.65c.35-.16.74-.24,1.18-.24.49,0,.89.09,1.21.26.32.17.56.42.72.73v-.87h1.21v5.79c0,.4-.05.79-.16,1.17-.11.38-.28.71-.53,1-.25.29-.57.52-.97.7-.4.18-.89.27-1.48.27-.39,0-.75-.06-1.09-.18s-.63-.28-.88-.49c-.26-.21-.46-.45-.62-.74-.16-.28-.26-.59-.29-.93l1.18-.27ZM110.26,201.29c.53,0,.96-.18,1.29-.55.33-.36.49-.85.49-1.46s-.17-1.09-.49-1.46c-.33-.36-.76-.55-1.29-.55s-.99.18-1.31.55c-.33.36-.5.85-.5,1.46s.16,1.1.49,1.46c.33.36.77.54,1.32.54Z"/>
    <path d="M115.02,202.62v-6.26h1.17v.83c.2-.35.48-.6.83-.77.35-.16.71-.25,1.07-.25.39,0,.76.1,1.1.29.34.19.6.49.77.9.25-.45.56-.76.94-.93s.76-.25,1.16-.25c.27,0,.53.05.79.14s.49.24.7.44c.2.2.37.44.49.74.12.3.18.65.18,1.06v4.06h-1.21v-3.93c0-.41-.11-.75-.32-1.02s-.55-.41-1.01-.41c-.43,0-.78.15-1.05.45-.27.3-.4.67-.4,1.13v3.79h-1.22v-3.93c0-.41-.11-.75-.31-1.02-.21-.27-.55-.41-1.02-.41-.44,0-.8.15-1.06.44-.27.29-.4.68-.4,1.15v3.78h-1.21Z"/>
    <path d="M131.56,200.84c-.09.28-.21.54-.38.77-.17.24-.37.45-.61.62s-.51.32-.81.42c-.3.1-.64.16-1,.16-.42,0-.82-.07-1.2-.22-.38-.15-.72-.36-1.01-.65s-.52-.64-.69-1.05-.25-.89-.25-1.42c0-.5.08-.94.25-1.35.16-.4.38-.75.66-1.04s.59-.52.96-.68c.37-.16.74-.24,1.13-.24.48,0,.9.08,1.28.24.38.16.69.38.94.67s.45.63.58,1.04c.13.4.2.85.2,1.33,0,.08,0,.15,0,.22,0,.07,0,.13-.02.17h-4.71c0,.28.06.53.16.77.09.23.23.44.4.61.17.17.37.3.6.39.23.09.48.14.74.14.51,0,.9-.12,1.17-.36.27-.24.46-.54.59-.9l1.05.37ZM130.33,198.84c-.02-.45-.17-.83-.46-1.14-.29-.31-.71-.46-1.26-.46-.26,0-.49.05-.7.14-.2.09-.38.21-.52.37-.14.15-.26.32-.35.51-.09.19-.13.39-.14.59h3.42Z"/>
    <path d="M134.3,202.62h-1.22v-6.26h1.2v.9c.22-.39.51-.67.86-.83.35-.16.7-.25,1.07-.25s.7.06.98.19c.28.13.52.3.7.52.19.22.33.48.42.79.09.3.14.63.14.98v3.97h-1.22v-3.76c0-.22-.02-.42-.07-.61-.05-.19-.13-.36-.25-.5-.12-.14-.27-.26-.46-.34-.19-.08-.42-.12-.68-.12-.24,0-.46.05-.64.14-.18.09-.33.21-.46.37-.12.16-.21.34-.27.55s-.09.43-.09.66v3.62Z"/>
    <path d="M141.9,196.36h1.35v1.11h-1.35v3.25c0,.29.06.5.2.64.13.14.36.21.68.21.08,0,.17,0,.26-.01s.17-.02.22-.04v1.04c-.05.02-.15.04-.3.07-.15.03-.33.05-.54.05-.54,0-.96-.15-1.28-.46-.31-.31-.47-.75-.47-1.32v-3.44h-1.2v-1.11h.34c.34,0,.58-.09.74-.27s.23-.41.23-.69v-1.01h1.12v1.98Z"/>
    <path d="M46.16,210.61c-.18-.03-.36-.04-.53-.04-.51,0-.93.15-1.24.45-.32.3-.47.79-.47,1.48v3.14h-1.22v-6.26h1.2v1.09c.11-.24.24-.44.4-.59.15-.15.31-.27.47-.36.17-.09.33-.15.51-.19.17-.04.34-.05.5-.05.09,0,.17,0,.24.01.07,0,.13.02.16.03v1.3Z"/>
    <path d="M52.84,213.86c-.09.28-.21.54-.38.77-.17.24-.37.45-.61.62-.24.18-.51.32-.81.42-.3.1-.64.16-1,.16-.42,0-.82-.07-1.2-.22-.38-.15-.72-.36-1.01-.65s-.52-.64-.69-1.05c-.17-.42-.25-.89-.25-1.42,0-.5.08-.94.25-1.35.17-.4.38-.75.66-1.04s.59-.52.96-.68c.36-.16.74-.24,1.13-.24.48,0,.9.08,1.28.24.38.16.69.38.94.67s.45.63.58,1.04.2.85.2,1.33c0,.08,0,.15,0,.22s-.01.13-.02.17h-4.71c0,.28.06.53.16.77s.23.44.4.61c.17.17.37.3.6.39.23.09.47.14.74.14.51,0,.9-.12,1.17-.36.27-.24.46-.54.59-.9l1.05.37ZM51.6,211.86c-.02-.45-.17-.83-.46-1.14-.29-.31-.71-.46-1.26-.46-.26,0-.49.05-.7.14-.21.09-.38.21-.52.37-.14.15-.26.32-.35.51-.09.19-.13.39-.14.59h3.42Z"/>
    <path d="M57.07,210.31c-.25,0-.49.04-.71.14-.23.09-.43.23-.61.41-.18.18-.32.41-.42.68-.1.27-.16.59-.16.96s.05.67.16.94c.11.27.24.5.42.69.17.19.38.33.61.42.23.09.48.14.73.14.29,0,.54-.04.75-.13.21-.09.37-.2.51-.33.13-.13.24-.27.32-.42.08-.15.13-.29.17-.41l1.08.47c-.08.23-.19.45-.34.68-.15.23-.34.44-.57.63-.23.19-.51.34-.83.46-.32.12-.68.18-1.09.18-.46,0-.88-.08-1.27-.25s-.72-.4-1-.7c-.28-.3-.5-.65-.66-1.05-.16-.4-.24-.84-.24-1.32s.08-.93.24-1.34c.16-.41.38-.76.66-1.05.28-.29.62-.52,1-.68s.8-.25,1.24-.25c.42,0,.78.06,1.1.18.32.12.59.27.82.46.23.19.41.41.55.64s.24.48.31.71l-1.11.47c-.04-.16-.1-.31-.18-.47-.08-.16-.19-.3-.32-.42-.13-.12-.3-.23-.49-.31-.19-.08-.42-.12-.69-.12Z"/>
    <path d="M66.76,213.86c-.09.28-.21.54-.38.77-.17.24-.37.45-.61.62-.24.18-.51.32-.81.42-.3.1-.64.16-1,.16-.42,0-.82-.07-1.2-.22-.38-.15-.72-.36-1.01-.65s-.52-.64-.69-1.05c-.17-.42-.25-.89-.25-1.42,0-.5.08-.94.25-1.35.17-.4.38-.75.66-1.04s.59-.52.96-.68c.36-.16.74-.24,1.13-.24.48,0,.9.08,1.28.24.38.16.69.38.94.67s.45.63.58,1.04.2.85.2,1.33c0,.08,0,.15,0,.22s-.01.13-.02.17h-4.71c0,.28.06.53.16.77s.23.44.4.61c.17.17.37.3.6.39.23.09.47.14.74.14.51,0,.9-.12,1.17-.36.27-.24.46-.54.59-.9l1.05.37ZM65.53,211.86c-.02-.45-.17-.83-.46-1.14-.29-.31-.71-.46-1.26-.46-.26,0-.49.05-.7.14-.21.09-.38.21-.52.37-.14.15-.26.32-.35.51-.09.19-.13.39-.14.59h3.42Z"/>
    <path d="M67.97,207.01c0-.25.08-.46.25-.63s.38-.25.62-.25.46.08.63.25.25.38.25.63-.08.45-.25.62-.38.25-.63.25-.45-.08-.62-.25-.25-.38-.25-.62ZM68.24,215.64v-6.26h1.21v6.26h-1.21Z"/>
    <path d="M74.34,215.64h-1.24l-2.54-6.26h1.38l1.79,4.83,1.79-4.83h1.32l-2.5,6.26Z"/>
    <path d="M83.23,213.86c-.09.28-.21.54-.38.77-.17.24-.37.45-.61.62s-.51.32-.81.42c-.3.1-.64.16-1,.16-.42,0-.82-.07-1.2-.22-.38-.15-.72-.36-1.01-.65s-.52-.64-.69-1.05-.25-.89-.25-1.42c0-.5.08-.94.25-1.35.16-.4.38-.75.66-1.04s.59-.52.96-.68c.37-.16.74-.24,1.13-.24.48,0,.9.08,1.28.24.38.16.69.38.94.67s.45.63.58,1.04c.13.4.2.85.2,1.33,0,.08,0,.15,0,.22,0,.07,0,.13-.02.17h-4.71c0,.28.06.53.16.77.09.23.23.44.4.61.17.17.37.3.6.39.23.09.48.14.74.14.51,0,.9-.12,1.17-.36.27-.24.46-.54.59-.9l1.05.37ZM82,211.86c-.02-.45-.17-.83-.46-1.14-.29-.31-.71-.46-1.26-.46-.26,0-.49.05-.7.14-.2.09-.38.21-.52.37-.14.15-.26.32-.35.51-.09.19-.13.39-.14.59h3.42Z"/>
    <path d="M89.22,214.69c-.15.3-.38.57-.71.79-.32.22-.73.33-1.23.33-.46,0-.87-.08-1.24-.25-.36-.17-.67-.4-.93-.7-.26-.3-.45-.65-.59-1.05-.14-.4-.21-.84-.21-1.31,0-.44.07-.86.21-1.26.14-.39.34-.74.61-1.04.26-.3.57-.54.94-.72.36-.18.77-.27,1.21-.27.28,0,.52.03.73.09s.4.14.55.24c.16.1.29.21.39.34.11.13.18.25.23.38v-4.05h1.21v8.27c0,.3,0,.56.03.77.02.21.03.34.04.39h-1.19c-.02-.07-.03-.18-.04-.33-.01-.15-.02-.32-.02-.51v-.1ZM85.56,212.49c0,.32.04.62.12.89s.2.51.36.71c.16.2.35.36.57.47s.48.17.78.17c.28,0,.53-.06.75-.18.23-.12.42-.28.57-.48.16-.2.28-.44.36-.72.08-.28.12-.58.12-.9,0-.65-.16-1.18-.47-1.58-.32-.4-.76-.6-1.32-.6-.28,0-.53.05-.76.16-.23.11-.42.26-.59.46-.16.2-.28.43-.37.7-.09.27-.13.56-.13.89Z"/>
  </g>
  <g>
    <path d="M25.82,164.31l3.62-5.06h1.76v5.35h1.45v1.18h-1.45v1.9h-1.24v-1.9h-4.14v-1.47ZM29.96,160.47l-2.97,4.13h2.97v-4.13Z"/>
    <path d="M33.85,166.85c0-.25.09-.47.26-.64.17-.18.38-.27.64-.27s.47.09.64.27.27.39.27.64-.09.46-.27.64c-.18.17-.39.26-.64.26s-.46-.09-.64-.26c-.17-.17-.26-.39-.26-.64Z"/>
    <path d="M44.09,163.9v3.78h-1.28v-9.23h3.36c.42,0,.81.07,1.16.21.35.14.65.33.9.58.25.25.44.54.58.87.14.33.21.69.21,1.08s-.07.75-.21,1.09-.33.62-.58.86c-.25.24-.55.43-.9.57-.35.14-.74.21-1.16.21h-2.08ZM45.94,162.76c.55,0,.99-.14,1.31-.42.32-.28.47-.66.47-1.14s-.16-.89-.47-1.17c-.32-.29-.75-.43-1.31-.43h-1.85v3.16h1.85Z"/>
    <path d="M49.83,166c0-.28.05-.53.14-.75.1-.22.23-.41.4-.57s.37-.28.61-.38c.23-.1.49-.17.76-.21l1.69-.25c.19-.03.32-.08.38-.17.06-.09.1-.19.1-.3,0-.3-.11-.57-.32-.79-.21-.22-.56-.33-1.04-.33-.44,0-.77.12-1,.36s-.37.54-.42.9l-1.17-.27c.04-.29.12-.57.27-.82.14-.25.33-.47.55-.64.23-.18.49-.32.79-.42.3-.1.62-.15.96-.15.47,0,.87.06,1.2.19.33.13.6.29.81.5.21.21.36.45.46.73s.14.57.14.87v3.14c0,.28,0,.5.03.66.02.17.03.29.05.36h-1.2c-.02-.08-.03-.18-.04-.31-.01-.13-.02-.31-.02-.53-.07.11-.16.23-.27.35s-.25.23-.42.34c-.17.1-.36.19-.58.25s-.47.1-.75.1c-.32,0-.61-.05-.87-.16s-.47-.24-.66-.41c-.18-.17-.32-.37-.42-.59s-.15-.46-.15-.72ZM52.09,166.85c.25,0,.49-.03.71-.1.22-.07.41-.17.57-.31s.29-.33.38-.57c.1-.24.14-.53.14-.87v-.29l-1.91.29c-.26.04-.48.14-.65.29s-.26.37-.26.64c0,.23.09.44.27.63.18.19.43.28.74.28Z"/>
    <path d="M59.61,162.36c-.25,0-.49.05-.72.14-.22.09-.43.23-.61.41s-.32.41-.42.68c-.11.27-.16.59-.16.96s.05.67.16.94c.1.27.24.5.42.69s.38.33.61.42c.23.1.48.14.73.14.29,0,.54-.04.75-.13.2-.09.37-.2.51-.33.13-.13.24-.27.32-.42s.13-.29.17-.41l1.08.47c-.08.23-.19.45-.34.68-.15.23-.34.44-.57.63-.23.19-.51.35-.83.46s-.68.18-1.09.18c-.46,0-.88-.08-1.27-.25-.39-.17-.72-.4-1-.7-.28-.3-.5-.65-.66-1.05-.16-.4-.24-.84-.24-1.32s.08-.93.24-1.34c.16-.41.38-.76.66-1.05.28-.29.62-.52,1-.68.39-.16.8-.25,1.24-.25.42,0,.78.06,1.1.18s.59.27.82.46.41.41.55.64.24.48.31.71l-1.11.47c-.04-.16-.11-.31-.18-.47s-.18-.3-.32-.42c-.13-.13-.3-.23-.49-.31s-.42-.12-.69-.12Z"/>
    <path d="M66.7,164.06l2.72,3.62h-1.54l-2.04-2.76-.87.87v1.89h-1.21v-9.43h1.21v5.94l2.71-2.77h1.69l-2.67,2.64Z"/>
    <path d="M75.71,165.9c-.09.28-.21.54-.38.77-.17.24-.37.45-.61.62-.24.18-.51.32-.81.42-.3.1-.64.16-1,.16-.42,0-.82-.07-1.2-.22-.38-.15-.72-.36-1.01-.65-.29-.29-.52-.64-.69-1.05-.17-.42-.25-.89-.25-1.42,0-.49.08-.94.25-1.35.17-.4.38-.75.66-1.04.27-.29.59-.52.96-.68.36-.16.74-.24,1.13-.24.48,0,.9.08,1.28.24s.69.38.94.67.45.63.58,1.04c.13.4.2.85.2,1.33,0,.08,0,.15,0,.22s-.01.13-.02.17h-4.71c0,.28.06.53.16.77.1.23.23.44.4.61.17.17.37.3.6.39s.47.14.74.14c.51,0,.9-.12,1.17-.36.27-.24.46-.54.59-.9l1.05.36ZM74.47,163.9c-.02-.45-.17-.83-.46-1.14-.29-.31-.71-.46-1.26-.46-.26,0-.49.05-.7.14-.21.09-.38.21-.52.36s-.26.32-.35.51c-.09.19-.13.39-.14.59h3.42Z"/>
    <path d="M78.89,161.42h1.35v1.11h-1.35v3.25c0,.29.06.5.2.64.13.14.36.21.68.21.08,0,.17,0,.26-.01.1,0,.17-.02.22-.04v1.04c-.05.02-.15.04-.3.07-.15.03-.33.05-.54.05-.54,0-.96-.15-1.28-.46s-.47-.75-.47-1.32v-3.44h-1.2v-1.11h.34c.34,0,.58-.09.74-.27.15-.18.23-.41.23-.69v-1.02h1.12v1.98Z"/>
    <path d="M88.6,162.66c-.18-.03-.36-.04-.53-.04-.51,0-.93.15-1.24.45-.32.3-.47.79-.47,1.48v3.14h-1.22v-6.26h1.2v1.09c.11-.24.24-.44.4-.59s.31-.27.47-.36c.17-.09.33-.15.51-.19s.34-.05.5-.05c.09,0,.17,0,.24.01.07,0,.13.02.16.03v1.3Z"/>
    <path d="M95.28,165.9c-.09.28-.21.54-.38.77-.17.24-.37.45-.61.62-.24.18-.51.32-.81.42-.3.1-.64.16-1,.16-.42,0-.82-.07-1.2-.22-.38-.15-.72-.36-1.01-.65-.29-.29-.52-.64-.69-1.05-.17-.42-.25-.89-.25-1.42,0-.49.08-.94.25-1.35.17-.4.38-.75.66-1.04.27-.29.59-.52.96-.68.36-.16.74-.24,1.13-.24.48,0,.9.08,1.28.24s.69.38.94.67.45.63.58,1.04c.13.4.2.85.2,1.33,0,.08,0,.15,0,.22s-.01.13-.02.17h-4.71c0,.28.06.53.16.77.1.23.23.44.4.61.17.17.37.3.6.39s.47.14.74.14c.51,0,.9-.12,1.17-.36.27-.24.46-.54.59-.9l1.05.36ZM94.04,163.9c-.02-.45-.17-.83-.46-1.14-.29-.31-.71-.46-1.26-.46-.26,0-.49.05-.7.14-.21.09-.38.21-.52.36s-.26.32-.35.51c-.09.19-.13.39-.14.59h3.42Z"/>
    <path d="M97.41,165.66c.04.33.19.61.43.83.24.23.59.34,1.03.34.35,0,.61-.08.79-.25.18-.16.27-.36.27-.59,0-.2-.07-.37-.21-.51s-.34-.24-.6-.3l-1.07-.23c-.49-.1-.88-.31-1.15-.62s-.41-.69-.41-1.13c0-.27.06-.52.18-.76s.28-.45.47-.63c.2-.18.44-.33.71-.43.27-.1.56-.16.87-.16.42,0,.78.06,1.07.18s.53.27.71.45.32.36.41.55.15.36.19.49l-1.08.4c-.02-.08-.05-.18-.09-.3-.04-.12-.11-.24-.21-.34s-.23-.2-.39-.28-.37-.12-.61-.12c-.31,0-.56.08-.76.25-.19.17-.29.36-.29.58,0,.4.24.65.71.75l1.02.22c.57.12,1,.34,1.29.67.29.33.44.72.44,1.19,0,.23-.05.45-.14.68s-.24.43-.42.62c-.19.19-.42.35-.71.46-.29.12-.62.18-1.02.18-.43,0-.8-.06-1.11-.18-.31-.12-.56-.27-.77-.46-.2-.18-.36-.38-.47-.59-.11-.21-.18-.41-.2-.59l1.11-.39Z"/>
    <path d="M108.14,165.9c-.09.28-.21.54-.38.77-.17.24-.37.45-.61.62-.24.18-.51.32-.81.42-.3.1-.64.16-1,.16-.42,0-.82-.07-1.2-.22-.38-.15-.72-.36-1.01-.65-.29-.29-.52-.64-.69-1.05-.17-.42-.25-.89-.25-1.42,0-.49.08-.94.25-1.35.17-.4.38-.75.66-1.04.27-.29.59-.52.96-.68.36-.16.74-.24,1.13-.24.48,0,.9.08,1.28.24s.69.38.94.67.45.63.58,1.04c.13.4.2.85.2,1.33,0,.08,0,.15,0,.22s-.01.13-.02.17h-4.71c0,.28.06.53.16.77.1.23.23.44.4.61.17.17.37.3.6.39s.47.14.74.14c.51,0,.9-.12,1.17-.36.27-.24.46-.54.59-.9l1.05.36ZM106.9,163.9c-.02-.45-.17-.83-.46-1.14-.29-.31-.71-.46-1.26-.46-.26,0-.49.05-.7.14-.21.09-.38.21-.52.36s-.26.32-.35.51c-.09.19-.13.39-.14.59h3.42Z"/>
    <path d="M110.88,167.68h-1.22v-6.26h1.2v.9c.22-.39.51-.67.86-.83.35-.16.7-.25,1.07-.25s.7.06.98.19c.28.13.52.3.7.52.19.22.33.48.42.79.09.3.14.63.14.98v3.97h-1.22v-3.76c0-.22-.02-.42-.07-.61-.05-.19-.13-.36-.25-.5s-.27-.26-.46-.34c-.19-.08-.42-.12-.68-.12-.24,0-.46.05-.64.14-.18.09-.33.21-.46.37-.12.16-.21.34-.27.55-.06.21-.09.43-.09.66v3.62Z"/>
    <path d="M118.48,161.42h1.35v1.11h-1.35v3.25c0,.29.06.5.2.64.13.14.36.21.68.21.08,0,.17,0,.26-.01.1,0,.17-.02.22-.04v1.04c-.05.02-.15.04-.3.07-.15.03-.33.05-.54.05-.54,0-.96-.15-1.28-.46s-.47-.75-.47-1.32v-3.44h-1.2v-1.11h.34c.34,0,.58-.09.74-.27.15-.18.23-.41.23-.69v-1.02h1.12v1.98Z"/>
  </g>
  <g>
    <path d="M451.07,81.62c0-.06-.01-.12-.01-.18v-.16c0-.36.06-.71.2-1.04.13-.33.32-.62.57-.87.25-.25.55-.45.92-.6.36-.15.78-.22,1.24-.22s.85.07,1.21.21c.36.14.65.33.9.56.24.23.43.51.55.83.12.32.19.65.19,1,0,.56-.14,1.05-.43,1.49-.29.44-.67.81-1.16,1.11l-1.67,1.07c-.24.16-.46.33-.65.51s-.32.41-.38.67h4.33v1.18h-5.91c0-.35.05-.67.12-.98.07-.3.19-.59.35-.87.16-.28.37-.54.62-.79s.55-.49.91-.72l1.4-.91c.4-.25.69-.52.88-.82.19-.29.28-.61.28-.94,0-.19-.03-.38-.1-.55-.07-.18-.16-.34-.29-.48-.13-.14-.29-.25-.5-.33-.2-.08-.43-.12-.7-.12s-.52.05-.72.14c-.2.09-.37.21-.51.37-.13.16-.23.34-.3.55-.06.21-.1.43-.1.68,0,.06,0,.12,0,.18,0,.06,0,.13.02.2l-1.28-.16Z"/>
    <path d="M458.43,86.35c0-.25.09-.47.26-.64s.39-.27.64-.27.47.09.64.27.27.39.27.64-.09.46-.27.64c-.18.17-.39.26-.64.26s-.46-.09-.64-.26c-.17-.17-.26-.39-.26-.64Z"/>
    <path d="M469.23,83.41v3.78h-1.28v-9.23h3.36c.43,0,.81.07,1.17.21.35.14.65.33.9.58.25.25.44.54.58.87.14.33.21.69.21,1.08s-.07.75-.21,1.09-.33.62-.58.86c-.25.24-.55.43-.9.57-.35.14-.74.21-1.17.21h-2.08ZM471.08,82.26c.56,0,.99-.14,1.31-.42.32-.28.48-.66.48-1.14s-.16-.89-.48-1.17c-.32-.29-.75-.43-1.31-.43h-1.85v3.16h1.85Z"/>
    <path d="M474.96,85.5c0-.28.05-.53.14-.75.1-.22.23-.41.4-.57.17-.16.37-.28.61-.38.23-.1.48-.17.75-.21l1.69-.25c.19-.03.32-.08.38-.17.07-.09.1-.19.1-.3,0-.3-.11-.57-.32-.79-.21-.22-.56-.33-1.04-.33-.43,0-.77.12-1,.36s-.37.54-.42.9l-1.17-.27c.03-.29.12-.57.27-.82.14-.25.33-.47.55-.64.22-.18.49-.32.79-.42.3-.1.62-.15.96-.15.47,0,.87.06,1.2.19.33.13.6.29.81.5.21.21.36.45.46.73.09.28.14.57.14.87v3.14c0,.28,0,.5.03.66.02.17.04.29.05.36h-1.2c-.02-.08-.03-.18-.05-.31-.01-.13-.02-.31-.02-.53-.07.11-.16.23-.27.35-.11.12-.25.23-.42.34s-.36.19-.58.25c-.22.06-.47.1-.75.1-.32,0-.61-.05-.87-.16s-.47-.24-.66-.41c-.18-.17-.32-.37-.42-.59s-.15-.46-.15-.72ZM477.23,86.35c.25,0,.49-.03.71-.1.22-.07.41-.17.57-.31.16-.14.29-.33.38-.57s.14-.53.14-.87v-.29l-1.91.29c-.26.04-.48.14-.65.29s-.26.37-.26.64c0,.23.09.44.27.63.18.19.43.28.74.28Z"/>
    <path d="M484.75,81.86c-.25,0-.49.05-.71.14-.23.09-.43.23-.61.41s-.32.41-.42.68c-.1.27-.16.59-.16.96s.05.67.16.94c.11.27.24.5.42.69.17.19.38.33.61.42.23.1.48.14.73.14.29,0,.54-.04.75-.13.21-.09.37-.2.51-.33.13-.13.24-.27.32-.42s.13-.29.17-.41l1.08.47c-.08.23-.19.45-.34.68-.15.23-.34.44-.57.63-.23.19-.51.35-.83.46-.32.12-.68.18-1.09.18-.46,0-.88-.08-1.27-.25s-.72-.4-1-.7c-.28-.3-.5-.65-.66-1.05-.16-.4-.24-.84-.24-1.32s.08-.93.24-1.34c.16-.41.38-.76.66-1.05.28-.29.62-.52,1-.68.39-.16.8-.25,1.24-.25.42,0,.78.06,1.1.18.32.12.59.27.82.46.23.19.41.41.55.64s.24.48.31.71l-1.11.47c-.04-.16-.1-.31-.18-.47s-.19-.3-.32-.42c-.13-.13-.3-.23-.49-.31-.19-.08-.42-.12-.69-.12Z"/>
    <path d="M491.84,83.56l2.72,3.62h-1.54l-2.04-2.76-.87.87v1.89h-1.21v-9.43h1.21v5.94l2.71-2.77h1.69l-2.67,2.64Z"/>
    <path d="M500.85,85.4c-.09.28-.21.54-.38.77-.17.24-.37.45-.61.62-.24.18-.51.32-.81.42-.3.1-.64.16-1,.16-.42,0-.82-.07-1.2-.22-.38-.15-.72-.36-1.01-.65-.29-.29-.52-.64-.69-1.05s-.25-.89-.25-1.42c0-.49.08-.94.25-1.35.16-.4.38-.75.66-1.04.27-.29.59-.52.96-.68.37-.16.74-.24,1.13-.24.48,0,.9.08,1.28.24.38.16.69.38.94.67s.45.63.58,1.04c.13.4.2.85.2,1.33,0,.08,0,.15,0,.22,0,.07,0,.13-.02.17h-4.71c0,.28.06.53.16.77.09.23.23.44.4.61.17.17.37.3.6.39.23.09.48.14.74.14.51,0,.9-.12,1.17-.36.27-.24.46-.54.59-.9l1.05.36ZM499.61,83.41c-.02-.45-.17-.83-.46-1.14-.29-.31-.71-.46-1.26-.46-.26,0-.49.05-.7.14-.2.09-.38.21-.52.36-.14.15-.26.32-.35.51-.09.19-.13.39-.14.59h3.42Z"/>
    <path d="M504.03,80.92h1.36v1.11h-1.36v3.25c0,.29.07.5.2.64.13.14.36.21.68.21.08,0,.16,0,.26-.01.1,0,.17-.02.22-.04v1.04c-.05.02-.15.04-.3.07-.15.03-.32.05-.53.05-.54,0-.96-.15-1.28-.46s-.47-.75-.47-1.32v-3.44h-1.2v-1.11h.34c.34,0,.58-.09.73-.27.15-.18.23-.41.23-.69v-1.02h1.12v1.98Z"/>
    <path d="M513.74,82.16c-.18-.03-.36-.04-.54-.04-.51,0-.93.15-1.24.45-.32.3-.47.79-.47,1.48v3.14h-1.22v-6.26h1.2v1.09c.11-.24.25-.44.4-.59.15-.15.31-.27.47-.36.16-.09.33-.15.51-.19s.34-.05.49-.05c.09,0,.17,0,.24.01.07,0,.13.02.16.03v1.3Z"/>
    <path d="M520.42,85.4c-.09.28-.21.54-.38.77-.17.24-.37.45-.61.62-.24.18-.51.32-.81.42-.3.1-.64.16-1,.16-.42,0-.82-.07-1.2-.22-.38-.15-.72-.36-1.01-.65-.29-.29-.52-.64-.69-1.05s-.25-.89-.25-1.42c0-.49.08-.94.25-1.35.16-.4.38-.75.66-1.04.27-.29.59-.52.96-.68.37-.16.74-.24,1.13-.24.48,0,.9.08,1.28.24.38.16.69.38.94.67s.45.63.58,1.04c.13.4.2.85.2,1.33,0,.08,0,.15,0,.22,0,.07,0,.13-.02.17h-4.71c0,.28.06.53.16.77.09.23.23.44.4.61.17.17.37.3.6.39.23.09.48.14.74.14.51,0,.9-.12,1.17-.36.27-.24.46-.54.59-.9l1.05.36ZM519.18,83.41c-.02-.45-.17-.83-.46-1.14-.29-.31-.71-.46-1.26-.46-.26,0-.49.05-.7.14-.2.09-.38.21-.52.36-.14.15-.26.32-.35.51-.09.19-.13.39-.14.59h3.42Z"/>
    <path d="M524.65,81.86c-.25,0-.49.05-.72.14-.22.09-.43.23-.61.41s-.32.41-.42.68c-.11.27-.16.59-.16.96s.05.67.16.94c.1.27.24.5.42.69s.38.33.61.42c.23.1.48.14.73.14.29,0,.54-.04.75-.13.2-.09.37-.2.51-.33.13-.13.24-.27.32-.42s.13-.29.17-.41l1.08.47c-.08.23-.19.45-.34.68-.15.23-.34.44-.57.63-.23.19-.51.35-.83.46s-.68.18-1.09.18c-.46,0-.88-.08-1.27-.25-.39-.17-.72-.4-1-.7-.28-.3-.5-.65-.66-1.05-.16-.4-.24-.84-.24-1.32s.08-.93.24-1.34c.16-.41.38-.76.66-1.05.28-.29.62-.52,1-.68.39-.16.8-.25,1.24-.25.42,0,.78.06,1.1.18s.59.27.82.46.41.41.55.64.24.48.31.71l-1.11.47c-.04-.16-.11-.31-.18-.47s-.18-.3-.32-.42c-.13-.13-.3-.23-.49-.31s-.42-.12-.69-.12Z"/>
    <path d="M534.35,85.4c-.09.28-.21.54-.38.77-.17.24-.37.45-.61.62-.24.18-.51.32-.81.42-.3.1-.64.16-1,.16-.42,0-.82-.07-1.2-.22-.38-.15-.72-.36-1.01-.65-.29-.29-.52-.64-.69-1.05s-.25-.89-.25-1.42c0-.49.08-.94.25-1.35.16-.4.38-.75.66-1.04.27-.29.59-.52.96-.68.37-.16.74-.24,1.13-.24.48,0,.9.08,1.28.24.38.16.69.38.94.67s.45.63.58,1.04c.13.4.2.85.2,1.33,0,.08,0,.15,0,.22,0,.07,0,.13-.02.17h-4.71c0,.28.06.53.16.77.09.23.23.44.4.61.17.17.37.3.6.39.23.09.48.14.74.14.51,0,.9-.12,1.17-.36.27-.24.46-.54.59-.9l1.05.36ZM533.11,83.41c-.02-.45-.17-.83-.46-1.14-.29-.31-.71-.46-1.26-.46-.26,0-.49.05-.7.14-.2.09-.38.21-.52.36-.14.15-.26.32-.35.51-.09.19-.13.39-.14.59h3.42Z"/>
    <path d="M535.55,78.55c0-.25.08-.46.25-.63.17-.17.38-.25.62-.25s.46.08.63.25c.17.17.25.38.25.63s-.08.45-.25.62c-.17.17-.38.25-.63.25s-.45-.08-.62-.25c-.17-.17-.25-.38-.25-.62ZM535.82,87.18v-6.26h1.21v6.26h-1.21Z"/>
    <path d="M541.92,87.18h-1.24l-2.54-6.26h1.38l1.78,4.83,1.8-4.83h1.31l-2.5,6.26Z"/>
    <path d="M550.81,85.4c-.09.28-.21.54-.38.77-.17.24-.37.45-.61.62-.24.18-.51.32-.81.42-.3.1-.64.16-1,.16-.42,0-.82-.07-1.2-.22-.38-.15-.72-.36-1.01-.65-.29-.29-.52-.64-.69-1.05-.17-.42-.25-.89-.25-1.42,0-.49.08-.94.25-1.35.17-.4.38-.75.66-1.04.27-.29.59-.52.96-.68.36-.16.74-.24,1.13-.24.48,0,.9.08,1.28.24s.69.38.94.67.45.63.58,1.04c.13.4.2.85.2,1.33,0,.08,0,.15,0,.22s-.01.13-.02.17h-4.71c0,.28.06.53.16.77.1.23.23.44.4.61.17.17.37.3.6.39s.47.14.74.14c.51,0,.9-.12,1.17-.36.27-.24.46-.54.59-.9l1.05.36ZM549.58,83.41c-.02-.45-.17-.83-.46-1.14-.29-.31-.71-.46-1.26-.46-.26,0-.49.05-.7.14-.21.09-.38.21-.52.36s-.26.32-.35.51c-.09.19-.13.39-.14.59h3.42Z"/>
    <path d="M556.8,86.23c-.15.3-.38.57-.71.79-.33.22-.74.33-1.23.33-.46,0-.87-.08-1.24-.25-.37-.17-.68-.4-.93-.7s-.45-.65-.59-1.05c-.14-.4-.21-.84-.21-1.31,0-.44.07-.86.21-1.26.14-.4.35-.74.61-1.04.26-.3.57-.54.94-.72.37-.18.77-.27,1.21-.27.28,0,.52.03.74.09s.4.14.55.24.29.21.39.34c.1.13.18.25.23.38v-4.05h1.21v8.27c0,.3,0,.56.03.77.02.21.03.34.04.39h-1.18c-.02-.07-.03-.18-.05-.33-.01-.15-.02-.32-.02-.51v-.1ZM553.14,84.03c0,.32.04.62.12.89.08.27.2.51.36.71.16.2.35.36.57.47.23.11.49.17.78.17.28,0,.53-.06.76-.18.22-.12.42-.28.57-.48s.28-.44.36-.72c.08-.28.12-.58.12-.9,0-.65-.16-1.18-.48-1.58-.32-.4-.76-.6-1.32-.6-.28,0-.53.05-.76.16-.23.11-.43.26-.59.46s-.29.43-.37.7c-.09.27-.13.56-.13.89Z"/>
    <path d="M559.75,86.35c0-.23.09-.44.27-.61.18-.17.41-.26.68-.26s.52.1.74.31c.21.2.32.51.32.93s-.06.81-.19,1.11c-.12.31-.28.56-.47.76s-.4.35-.62.46c-.23.11-.44.18-.64.2v-.68c.16-.03.3-.1.44-.19.13-.09.25-.2.34-.33.09-.13.16-.27.22-.42s.09-.31.09-.46c-.02.02-.05.03-.11.05s-.11.02-.18.02c-.24,0-.45-.08-.62-.23-.17-.16-.25-.37-.25-.65Z"/>
    <path class="cls-5" d="M571.09,87.38c-.6,0-1.17-.11-1.72-.32-.55-.21-1.04-.52-1.46-.93-.42-.41-.76-.91-1.02-1.51-.26-.6-.38-1.28-.38-2.06s.13-1.46.39-2.05c.26-.59.61-1.1,1.04-1.5.43-.41.92-.72,1.47-.93.55-.21,1.11-.32,1.69-.32.53,0,1.02.07,1.46.21.44.14.84.33,1.19.59.35.25.64.56.88.92.24.36.42.77.54,1.21l-1.19.42c-.17-.7-.51-1.24-1-1.61s-1.12-.56-1.88-.56c-.42,0-.82.08-1.22.23-.4.15-.75.38-1.05.68-.31.3-.55.68-.74,1.14-.18.46-.27.98-.27,1.58s.09,1.13.27,1.58c.18.46.43.84.74,1.15.31.31.66.54,1.05.69.39.15.8.23,1.22.23.39,0,.75-.06,1.07-.17.32-.11.6-.27.85-.46s.46-.43.62-.7c.17-.27.3-.57.4-.88l1.13.42c-.12.43-.3.83-.55,1.2-.24.36-.54.68-.88.94-.34.26-.74.46-1.18.61s-.94.22-1.46.22Z"/>
    <path class="cls-5" d="M579.46,83.41h-1.38v3.78h-1.29v-9.23h3.48c.43,0,.83.07,1.18.21.35.14.65.34.89.59.24.25.43.54.56.87.13.33.2.69.2,1.07,0,.67-.2,1.24-.59,1.71-.39.47-.94.77-1.65.9l2.2,3.87h-1.48l-2.11-3.78ZM580.03,82.26c.52,0,.94-.14,1.26-.42.32-.28.48-.66.48-1.14s-.16-.89-.48-1.17c-.32-.29-.74-.43-1.26-.43h-1.95v3.16h1.95Z"/>
    <path class="cls-5" d="M588.78,87.38c-.6,0-1.17-.11-1.72-.32-.55-.21-1.04-.52-1.46-.93-.42-.41-.76-.91-1.02-1.51-.26-.6-.38-1.28-.38-2.06s.13-1.46.39-2.05c.26-.59.61-1.1,1.04-1.5.43-.41.92-.72,1.47-.93.55-.21,1.11-.32,1.69-.32.53,0,1.02.07,1.46.21.44.14.84.33,1.19.59.35.25.64.56.88.92.24.36.42.77.54,1.21l-1.19.42c-.17-.7-.51-1.24-1-1.61s-1.12-.56-1.88-.56c-.42,0-.82.08-1.22.23-.4.15-.75.38-1.05.68-.31.3-.55.68-.74,1.14-.18.46-.27.98-.27,1.58s.09,1.13.27,1.58c.18.46.43.84.74,1.15.31.31.66.54,1.05.69.39.15.8.23,1.22.23.39,0,.75-.06,1.07-.17.32-.11.6-.27.85-.46s.46-.43.62-.7c.17-.27.3-.57.4-.88l1.13.42c-.12.43-.3.83-.55,1.2-.24.36-.54.68-.88.94-.34.26-.74.46-1.18.61s-.94.22-1.46.22Z"/>
    <path class="cls-5" d="M599.31,82.03v5.16h-1.26v-5.16h-1.16v-1.11h1.16v-1.05c0-.35.05-.66.16-.92s.26-.49.44-.68c.19-.18.4-.32.65-.41.25-.09.51-.14.8-.14.21,0,.38.02.5.05.12.04.2.06.23.08v1.09s-.09-.03-.18-.05c-.08-.02-.2-.03-.36-.03-.1,0-.21.02-.33.05-.12.03-.23.08-.33.16s-.18.19-.24.33c-.06.14-.09.32-.09.53v.99h1.51v1.11h-1.51Z"/>
    <path class="cls-5" d="M601.69,85.5c0-.28.05-.53.14-.75.1-.22.23-.41.4-.57s.37-.28.61-.38c.23-.1.49-.17.76-.21l1.69-.25c.19-.03.32-.08.38-.17.06-.09.1-.19.1-.3,0-.3-.11-.57-.32-.79-.21-.22-.56-.33-1.04-.33-.44,0-.77.12-1,.36s-.37.54-.42.9l-1.17-.27c.04-.29.12-.57.27-.82.14-.25.33-.47.55-.64.23-.18.49-.32.79-.42.3-.1.62-.15.96-.15.47,0,.87.06,1.2.19.33.13.6.29.81.5.21.21.36.45.46.73s.14.57.14.87v3.14c0,.28,0,.5.03.66.02.17.03.29.05.36h-1.2c-.02-.08-.03-.18-.04-.31-.01-.13-.02-.31-.02-.53-.07.11-.16.23-.27.35s-.25.23-.42.34c-.17.1-.36.19-.58.25s-.47.1-.75.1c-.32,0-.61-.05-.87-.16s-.47-.24-.66-.41c-.18-.17-.32-.37-.42-.59s-.15-.46-.15-.72ZM603.95,86.35c.25,0,.49-.03.71-.1.22-.07.41-.17.57-.31s.29-.33.38-.57c.1-.24.14-.53.14-.87v-.29l-1.91.29c-.26.04-.48.14-.65.29s-.26.37-.26.64c0,.23.09.44.27.63.18.19.43.28.74.28Z"/>
    <path class="cls-5" d="M608.46,78.55c0-.25.08-.46.25-.63s.38-.25.62-.25.46.08.63.25.25.38.25.63-.08.45-.25.62c-.17.17-.38.25-.63.25s-.45-.08-.62-.25c-.17-.17-.25-.38-.25-.62ZM608.74,87.18v-6.26h1.21v6.26h-1.21Z"/>
    <path class="cls-5" d="M611.84,87.18v-9.43h1.22v9.43h-1.22Z"/>
    <path class="cls-5" d="M620.52,85.4c-.09.28-.21.54-.38.77-.17.24-.37.45-.61.62-.24.18-.51.32-.81.42-.3.1-.64.16-1,.16-.42,0-.82-.07-1.2-.22-.38-.15-.72-.36-1.01-.65-.29-.29-.52-.64-.69-1.05s-.25-.89-.25-1.42c0-.49.08-.94.25-1.35.16-.4.38-.75.66-1.04.27-.29.59-.52.96-.68.37-.16.74-.24,1.13-.24.48,0,.9.08,1.28.24.38.16.69.38.94.67s.45.63.58,1.04c.13.4.2.85.2,1.33,0,.08,0,.15,0,.22,0,.07,0,.13-.02.17h-4.71c0,.28.06.53.16.77.09.23.23.44.4.61.17.17.37.3.6.39.23.09.48.14.74.14.51,0,.9-.12,1.17-.36.27-.24.46-.54.59-.9l1.05.36ZM619.28,83.41c-.02-.45-.17-.83-.46-1.14-.29-.31-.71-.46-1.26-.46-.26,0-.49.05-.7.14-.2.09-.38.21-.52.36-.14.15-.26.32-.35.51-.09.19-.13.39-.14.59h3.42Z"/>
    <path class="cls-5" d="M626.51,86.23c-.15.3-.38.57-.71.79-.32.22-.73.33-1.23.33-.46,0-.87-.08-1.24-.25-.36-.17-.67-.4-.93-.7s-.45-.65-.59-1.05c-.14-.4-.21-.84-.21-1.31,0-.44.07-.86.21-1.26s.34-.74.61-1.04c.26-.3.57-.54.94-.72.36-.18.77-.27,1.21-.27.28,0,.52.03.73.09s.4.14.55.24.29.21.39.34c.11.13.18.25.23.38v-4.05h1.21v8.27c0,.3,0,.56.03.77.02.21.03.34.04.39h-1.19c-.02-.07-.03-.18-.04-.33-.01-.15-.02-.32-.02-.51v-.1ZM622.85,84.03c0,.32.04.62.12.89s.2.51.36.71c.16.2.35.36.57.47.22.11.48.17.78.17.28,0,.53-.06.75-.18.23-.12.42-.28.57-.48s.28-.44.36-.72c.08-.28.12-.58.12-.9,0-.65-.16-1.18-.47-1.58-.32-.4-.76-.6-1.32-.6-.28,0-.53.05-.76.16-.23.11-.42.26-.59.46-.16.2-.28.43-.37.7-.09.27-.13.56-.13.89Z"/>
    <path class="cls-5" d="M629.46,86.35c0-.25.09-.47.26-.64s.39-.27.64-.27.47.09.64.27.27.39.27.64-.09.46-.27.64c-.18.17-.39.26-.64.26s-.46-.09-.64-.26c-.17-.17-.26-.39-.26-.64Z"/>
    <path class="cls-5" d="M642.86,87.18l-4.99-7.52v7.52h-1.28v-9.23h1.71l4.61,7.08v-7.08h1.28v9.23h-1.33Z"/>
    <path class="cls-5" d="M649.04,80.72c.47,0,.9.08,1.29.25.39.17.73.4,1.02.7.29.3.51.64.66,1.05.16.4.23.84.23,1.32s-.08.92-.23,1.33c-.16.41-.38.76-.66,1.05-.29.29-.62.53-1.02.7s-.82.25-1.29.25-.9-.08-1.29-.25-.73-.4-1.02-.7c-.29-.29-.51-.65-.66-1.05-.16-.41-.23-.85-.23-1.33s.08-.92.23-1.32c.16-.4.38-.75.66-1.05.29-.29.62-.53,1.02-.7.39-.17.82-.25,1.29-.25ZM649.04,86.28c.26,0,.51-.05.74-.14.23-.1.44-.24.62-.43s.33-.42.43-.7c.1-.28.16-.6.16-.96s-.05-.68-.16-.96-.25-.51-.43-.7c-.18-.19-.39-.33-.62-.43-.23-.1-.48-.14-.74-.14s-.51.05-.74.14c-.23.1-.44.24-.62.43-.18.19-.32.42-.43.7-.1.27-.16.59-.16.96s.05.69.16.96c.11.28.25.51.43.7.18.19.39.33.62.43.23.1.48.14.74.14Z"/>
    <path class="cls-5" d="M467.43,98.52c0-.28.05-.53.14-.75.1-.22.23-.41.4-.57.17-.16.37-.28.61-.38.23-.1.48-.17.75-.21l1.69-.25c.19-.03.32-.08.38-.17.07-.09.1-.19.1-.3,0-.3-.11-.57-.32-.79-.21-.22-.56-.33-1.04-.33-.43,0-.77.12-1,.36s-.37.54-.42.9l-1.17-.27c.03-.29.12-.57.27-.82.14-.25.33-.47.55-.64.22-.18.49-.32.79-.42.3-.1.62-.15.96-.15.47,0,.87.06,1.2.19.33.13.6.29.81.5.21.21.36.45.46.73.09.28.14.57.14.87v3.14c0,.28,0,.5.03.66.02.17.04.29.05.36h-1.2c-.02-.08-.03-.18-.05-.31-.01-.13-.02-.31-.02-.53-.07.11-.16.23-.27.35-.11.12-.25.23-.42.34s-.36.19-.58.25c-.22.06-.47.1-.75.1-.32,0-.61-.05-.87-.16s-.47-.24-.66-.41c-.18-.17-.32-.37-.42-.59s-.15-.46-.15-.72ZM469.7,99.37c.25,0,.49-.03.71-.1.22-.07.41-.17.57-.31.16-.14.29-.33.38-.57s.14-.53.14-.87v-.29l-1.91.29c-.26.04-.48.14-.65.29s-.26.37-.26.64c0,.23.09.44.27.63.18.19.43.28.74.28Z"/>
    <path class="cls-5" d="M477.21,94.87c-.25,0-.49.05-.71.14-.23.09-.43.23-.61.41s-.32.41-.42.68c-.1.27-.16.59-.16.96s.05.67.16.94c.11.27.24.5.42.69.17.19.38.33.61.42.23.1.48.14.73.14.29,0,.54-.04.75-.13.21-.09.37-.2.51-.33.13-.13.24-.27.32-.42s.13-.29.17-.41l1.08.47c-.08.23-.19.45-.34.68-.15.23-.34.44-.57.63-.23.19-.51.35-.83.46-.32.12-.68.18-1.09.18-.46,0-.88-.08-1.27-.25s-.72-.4-1-.7c-.28-.3-.5-.65-.66-1.05-.16-.4-.24-.84-.24-1.32s.08-.93.24-1.34c.16-.41.38-.76.66-1.05.28-.29.62-.52,1-.68.39-.16.8-.25,1.24-.25.42,0,.78.06,1.1.18.32.12.59.27.82.46.23.19.41.41.55.64s.24.48.31.71l-1.11.47c-.04-.16-.1-.31-.18-.47s-.19-.3-.32-.42c-.13-.13-.3-.23-.49-.31-.19-.08-.42-.12-.69-.12Z"/>
    <path class="cls-5" d="M484.31,96.58l2.72,3.62h-1.54l-2.04-2.76-.87.87v1.89h-1.21v-9.43h1.21v5.94l2.71-2.77h1.69l-2.67,2.64Z"/>
    <path class="cls-5" d="M489.36,100.2h-1.22v-6.26h1.2v.9c.23-.39.51-.67.86-.83.35-.16.7-.25,1.07-.25s.7.06.98.19c.28.13.52.3.7.52.19.22.33.48.42.79.09.3.14.63.14.98v3.97h-1.22v-3.76c0-.22-.03-.42-.07-.61-.05-.19-.13-.36-.25-.5s-.27-.26-.46-.34-.41-.12-.68-.12c-.24,0-.46.05-.64.14-.18.09-.33.21-.46.37-.12.16-.21.34-.27.55-.06.21-.09.43-.09.66v3.62Z"/>
    <path class="cls-5" d="M498.06,93.74c.47,0,.9.08,1.29.25.39.17.73.4,1.02.7.29.3.51.64.66,1.05.16.4.23.84.23,1.32s-.08.92-.23,1.33c-.16.41-.38.76-.66,1.05-.29.29-.62.53-1.02.7s-.82.25-1.29.25-.9-.08-1.29-.25-.73-.4-1.02-.7c-.29-.29-.51-.65-.66-1.05-.16-.41-.23-.85-.23-1.33s.08-.92.23-1.32c.16-.4.38-.75.66-1.05.29-.29.62-.53,1.02-.7.39-.17.82-.25,1.29-.25ZM498.06,99.3c.26,0,.51-.05.74-.14.23-.1.44-.24.62-.43.18-.19.33-.42.43-.7.11-.28.16-.6.16-.96s-.05-.68-.16-.96c-.1-.27-.25-.51-.43-.7-.18-.19-.39-.33-.62-.43-.23-.1-.48-.14-.74-.14s-.51.05-.74.14c-.23.1-.44.24-.62.43-.18.19-.33.42-.43.7-.11.27-.16.59-.16.96s.05.69.16.96c.1.28.25.51.43.7.18.19.39.33.62.43.23.1.48.14.74.14Z"/>
    <path class="cls-5" d="M507.41,93.94l1.63,4.71,1.38-4.71h1.29l-2.03,6.26h-1.26l-1.67-4.76-1.63,4.76h-1.29l-2.06-6.26h1.34l1.41,4.71,1.63-4.71h1.26Z"/>
    <path class="cls-5" d="M512.85,100.2v-9.43h1.22v9.43h-1.22Z"/>
    <path class="cls-5" d="M521.53,98.42c-.09.28-.21.54-.38.77-.17.24-.37.45-.61.62-.24.18-.51.32-.81.42-.3.1-.64.16-1,.16-.42,0-.82-.07-1.2-.22-.38-.15-.72-.36-1.01-.65-.29-.29-.52-.64-.69-1.05s-.25-.89-.25-1.42c0-.49.08-.94.25-1.35.16-.4.38-.75.66-1.04.27-.29.59-.52.96-.68.37-.16.74-.24,1.13-.24.48,0,.9.08,1.28.24.38.16.69.38.94.67s.45.63.58,1.04c.13.4.2.85.2,1.33,0,.08,0,.15,0,.22,0,.07,0,.13-.02.17h-4.71c0,.28.06.53.16.77.09.23.23.44.4.61.17.17.37.3.6.39.23.09.48.14.74.14.51,0,.9-.12,1.17-.36.27-.24.46-.54.59-.9l1.05.36ZM520.29,96.42c-.02-.45-.17-.83-.46-1.14-.29-.31-.71-.46-1.26-.46-.26,0-.49.05-.7.14-.2.09-.38.21-.52.36-.14.15-.26.32-.35.51-.09.19-.13.39-.14.59h3.42Z"/>
    <path class="cls-5" d="M527.52,99.25c-.15.3-.38.57-.71.79-.32.22-.73.33-1.23.33-.46,0-.87-.08-1.24-.25-.36-.17-.67-.4-.93-.7s-.45-.65-.59-1.05c-.14-.4-.21-.84-.21-1.31,0-.44.07-.86.21-1.26s.34-.74.61-1.04c.26-.3.57-.54.94-.72.36-.18.77-.27,1.21-.27.28,0,.52.03.73.09s.4.14.55.24.29.21.39.34c.11.13.18.25.23.38v-4.05h1.21v8.27c0,.3,0,.56.03.77.02.21.03.34.04.39h-1.19c-.02-.07-.03-.18-.04-.33-.01-.15-.02-.32-.02-.51v-.1ZM523.86,97.05c0,.32.04.62.12.89s.2.51.36.71c.16.2.35.36.57.47.22.11.48.17.78.17.28,0,.53-.06.75-.18.23-.12.42-.28.57-.48s.28-.44.36-.72c.08-.28.12-.58.12-.9,0-.65-.16-1.18-.47-1.58-.32-.4-.76-.6-1.32-.6-.28,0-.53.05-.76.16-.23.11-.42.26-.59.46-.16.2-.28.43-.37.7-.09.27-.13.56-.13.89Z"/>
    <path class="cls-5" d="M531.35,100.26c.04.44.22.81.53,1.1.31.29.7.44,1.18.44.66,0,1.14-.17,1.45-.51.31-.34.46-.85.46-1.52v-.9c-.15.29-.39.53-.72.73s-.73.3-1.2.3c-.42,0-.8-.08-1.15-.23s-.66-.36-.91-.62c-.26-.26-.46-.58-.6-.96s-.21-.78-.21-1.22.07-.82.21-1.19c.14-.37.33-.69.58-.96.25-.27.55-.49.91-.65s.74-.24,1.18-.24c.49,0,.89.09,1.21.26.32.17.56.42.71.73v-.87h1.21v5.79c0,.4-.05.79-.16,1.17-.1.38-.28.71-.53,1-.25.29-.57.53-.97.7-.4.18-.89.27-1.48.27-.39,0-.75-.06-1.09-.18s-.63-.28-.88-.49-.46-.45-.62-.74c-.16-.28-.26-.59-.29-.93l1.19-.27ZM533.24,98.87c.53,0,.96-.18,1.29-.55.33-.36.49-.85.49-1.46s-.16-1.09-.49-1.46c-.33-.36-.76-.55-1.29-.55s-.98.18-1.31.55c-.33.36-.49.85-.49,1.46s.16,1.1.49,1.46c.32.36.77.54,1.32.54Z"/>
    <path class="cls-5" d="M543.57,98.42c-.09.28-.21.54-.38.77-.17.24-.37.45-.61.62-.24.18-.51.32-.81.42-.3.1-.64.16-1,.16-.42,0-.82-.07-1.2-.22-.38-.15-.72-.36-1.01-.65-.29-.29-.52-.64-.69-1.05-.17-.42-.25-.89-.25-1.42,0-.49.08-.94.25-1.35.17-.4.38-.75.66-1.04.27-.29.59-.52.96-.68.36-.16.74-.24,1.13-.24.48,0,.9.08,1.28.24s.69.38.94.67.45.63.58,1.04c.13.4.2.85.2,1.33,0,.08,0,.15,0,.22s-.01.13-.02.17h-4.71c0,.28.06.53.16.77.1.23.23.44.4.61.17.17.37.3.6.39s.47.14.74.14c.51,0,.9-.12,1.17-.36.27-.24.46-.54.59-.9l1.05.36ZM542.33,96.42c-.02-.45-.17-.83-.46-1.14-.29-.31-.71-.46-1.26-.46-.26,0-.49.05-.7.14-.21.09-.38.21-.52.36s-.26.32-.35.51c-.09.19-.13.39-.14.59h3.42Z"/>
    <path class="cls-5" d="M545.08,100.2v-6.26h1.17v.83c.2-.35.48-.6.83-.77.35-.16.71-.25,1.07-.25.39,0,.76.1,1.1.29.34.19.6.49.77.9.25-.45.56-.76.94-.93.37-.17.76-.25,1.16-.25.27,0,.53.05.79.14.26.1.49.24.7.44.2.2.37.44.49.74.12.3.18.65.18,1.06v4.06h-1.21v-3.93c0-.41-.11-.75-.32-1.02s-.55-.41-1.01-.41c-.43,0-.78.15-1.05.45-.27.3-.4.67-.4,1.13v3.79h-1.22v-3.93c0-.41-.11-.75-.31-1.02-.21-.27-.55-.41-1.02-.41-.44,0-.8.15-1.06.44-.27.29-.4.68-.4,1.15v3.78h-1.21Z"/>
    <path class="cls-5" d="M561.62,98.42c-.09.28-.21.54-.38.77-.17.24-.37.45-.61.62-.24.18-.51.32-.81.42-.3.1-.64.16-1,.16-.42,0-.82-.07-1.2-.22-.38-.15-.72-.36-1.01-.65-.29-.29-.52-.64-.69-1.05s-.25-.89-.25-1.42c0-.49.08-.94.25-1.35.16-.4.38-.75.66-1.04.27-.29.59-.52.96-.68.37-.16.74-.24,1.13-.24.48,0,.9.08,1.28.24.38.16.69.38.94.67s.45.63.58,1.04c.13.4.2.85.2,1.33,0,.08,0,.15,0,.22,0,.07,0,.13-.02.17h-4.71c0,.28.06.53.16.77.09.23.23.44.4.61.17.17.37.3.6.39.23.09.48.14.74.14.51,0,.9-.12,1.17-.36.27-.24.46-.54.59-.9l1.05.36ZM560.39,96.42c-.02-.45-.17-.83-.46-1.14-.29-.31-.71-.46-1.26-.46-.26,0-.49.05-.7.14-.2.09-.38.21-.52.36-.14.15-.26.32-.35.51-.09.19-.13.39-.14.59h3.42Z"/>
    <path class="cls-5" d="M564.36,100.2h-1.22v-6.26h1.2v.9c.22-.39.51-.67.86-.83.35-.16.7-.25,1.07-.25s.7.06.98.19c.28.13.52.3.7.52.19.22.33.48.42.79.09.3.14.63.14.98v3.97h-1.22v-3.76c0-.22-.02-.42-.07-.61-.05-.19-.13-.36-.25-.5s-.27-.26-.46-.34c-.19-.08-.42-.12-.68-.12-.24,0-.46.05-.64.14-.18.09-.33.21-.46.37-.12.16-.21.34-.27.55-.06.21-.09.43-.09.66v3.62Z"/>
    <path class="cls-5" d="M571.96,93.94h1.35v1.11h-1.35v3.25c0,.29.06.5.2.64.13.14.36.21.68.21.08,0,.17,0,.26-.01.1,0,.17-.02.22-.04v1.04c-.05.02-.15.04-.3.07-.15.03-.33.05-.54.05-.54,0-.96-.15-1.28-.46s-.47-.75-.47-1.32v-3.44h-1.2v-1.11h.34c.34,0,.58-.09.74-.27.15-.18.23-.41.23-.69v-1.02h1.12v1.98Z"/>
    <path class="cls-5" d="M578.71,98.18c.04.33.19.61.43.83s.59.34,1.03.34c.35,0,.61-.08.79-.25.18-.16.27-.36.27-.59,0-.2-.07-.37-.21-.51-.14-.14-.34-.24-.6-.3l-1.07-.23c-.49-.1-.88-.31-1.15-.62-.27-.31-.41-.69-.41-1.13,0-.27.06-.52.18-.76.12-.24.28-.45.47-.63.2-.18.44-.33.71-.43.27-.1.56-.16.87-.16.43,0,.78.06,1.07.18s.53.27.71.45c.18.18.32.36.41.55.09.19.15.36.19.49l-1.08.4c-.02-.08-.05-.18-.09-.3-.04-.12-.11-.24-.21-.34-.1-.11-.23-.2-.39-.28-.17-.08-.37-.12-.61-.12-.31,0-.56.08-.75.25-.19.17-.29.36-.29.58,0,.4.24.65.72.75l1.02.22c.57.12,1,.34,1.29.67.29.33.44.72.44,1.19,0,.23-.05.45-.14.68s-.24.43-.42.62c-.19.19-.42.35-.71.46s-.62.18-1.02.18c-.43,0-.8-.06-1.11-.18-.31-.12-.56-.27-.77-.46-.21-.18-.36-.38-.47-.59-.11-.21-.18-.41-.2-.59l1.11-.39Z"/>
    <path class="cls-5" d="M589.44,98.42c-.09.28-.21.54-.38.77-.17.24-.37.45-.61.62-.24.18-.51.32-.81.42-.3.1-.64.16-1,.16-.42,0-.82-.07-1.2-.22-.38-.15-.72-.36-1.01-.65-.29-.29-.52-.64-.69-1.05s-.25-.89-.25-1.42c0-.49.08-.94.25-1.35.16-.4.38-.75.66-1.04.27-.29.59-.52.96-.68.37-.16.74-.24,1.13-.24.48,0,.9.08,1.28.24.38.16.69.38.94.67s.45.63.58,1.04c.13.4.2.85.2,1.33,0,.08,0,.15,0,.22,0,.07,0,.13-.02.17h-4.71c0,.28.06.53.16.77.09.23.23.44.4.61.17.17.37.3.6.39.23.09.48.14.74.14.51,0,.9-.12,1.17-.36.27-.24.46-.54.59-.9l1.05.36ZM588.21,96.42c-.02-.45-.17-.83-.46-1.14-.29-.31-.71-.46-1.26-.46-.26,0-.49.05-.7.14-.2.09-.38.21-.52.36-.14.15-.26.32-.35.51-.09.19-.13.39-.14.59h3.42Z"/>
    <path class="cls-5" d="M592.18,100.2h-1.22v-6.26h1.2v.9c.22-.39.51-.67.86-.83.35-.16.7-.25,1.07-.25s.7.06.98.19c.28.13.52.3.7.52.19.22.33.48.42.79.09.3.14.63.14.98v3.97h-1.22v-3.76c0-.22-.02-.42-.07-.61-.05-.19-.13-.36-.25-.5s-.27-.26-.46-.34c-.19-.08-.42-.12-.68-.12-.24,0-.46.05-.64.14-.18.09-.33.21-.46.37-.12.16-.21.34-.27.55-.06.21-.09.43-.09.66v3.62Z"/>
    <path class="cls-5" d="M599.78,93.94h1.36v1.11h-1.36v3.25c0,.29.07.5.2.64.13.14.36.21.68.21.08,0,.16,0,.26-.01.1,0,.17-.02.22-.04v1.04c-.05.02-.15.04-.3.07-.15.03-.32.05-.53.05-.54,0-.96-.15-1.28-.46s-.47-.75-.47-1.32v-3.44h-1.2v-1.11h.34c.34,0,.58-.09.73-.27.15-.18.23-.41.23-.69v-1.02h1.12v1.98Z"/>
    <path class="cls-5" d="M602.51,99.37c0-.25.09-.47.26-.64.17-.18.38-.27.64-.27s.47.09.64.27.27.39.27.64-.09.46-.27.64c-.18.17-.39.26-.64.26s-.46-.09-.64-.26c-.17-.17-.26-.39-.26-.64Z"/>
  </g>
  <g>
    <path d="M452.19,167.63c.04.52.24.94.59,1.26.35.32.79.48,1.31.48.25,0,.49-.04.71-.12s.41-.19.57-.35.29-.33.38-.54c.1-.21.14-.44.14-.7,0-.29-.05-.54-.15-.76-.1-.22-.23-.4-.4-.55-.16-.14-.36-.25-.58-.33-.22-.07-.46-.11-.7-.11-.3,0-.59.05-.86.16s-.49.26-.68.45c-.23-.09-.44-.17-.63-.25-.2-.08-.4-.16-.62-.24l1.09-4.19h4.45v1.17h-3.61l-.62,2.42c.19-.21.44-.36.75-.47.31-.1.63-.16.96-.16.42,0,.8.06,1.14.2.35.13.65.31.91.55.26.24.46.53.6.88s.21.74.21,1.17c0,.4-.07.77-.22,1.12-.15.35-.36.65-.62.91-.27.26-.6.47-.98.62-.38.15-.81.23-1.28.23s-.86-.07-1.23-.2c-.37-.13-.69-.32-.96-.55s-.49-.5-.65-.8c-.16-.3-.25-.62-.28-.95l1.22-.36Z"/>
    <path d="M458.59,169.45c0-.25.09-.47.26-.64.17-.18.38-.27.64-.27s.47.09.64.27.27.39.27.64-.09.46-.27.64c-.18.17-.39.26-.64.26s-.46-.09-.64-.26c-.17-.17-.26-.39-.26-.64Z"/>
    <path d="M469.23,166.51v3.78h-1.28v-9.23h3.36c.42,0,.81.07,1.16.21.35.14.65.33.9.58.25.25.44.54.58.87.14.33.21.69.21,1.08s-.07.75-.21,1.09-.33.62-.58.86c-.25.24-.55.43-.9.57-.35.14-.74.21-1.16.21h-2.08ZM471.08,165.36c.55,0,.99-.14,1.31-.42.32-.28.47-.66.47-1.14s-.16-.89-.47-1.17c-.32-.29-.75-.43-1.31-.43h-1.85v3.16h1.85Z"/>
    <path d="M474.96,168.6c0-.28.05-.53.14-.75.1-.22.23-.41.4-.57s.37-.28.61-.38c.23-.1.49-.17.76-.21l1.69-.25c.19-.03.32-.08.38-.17.06-.09.1-.19.1-.3,0-.3-.11-.57-.32-.79-.21-.22-.56-.33-1.04-.33-.44,0-.77.12-1,.36s-.37.54-.42.9l-1.17-.27c.04-.29.12-.57.27-.82.14-.25.33-.47.55-.64.23-.18.49-.32.79-.42.3-.1.62-.15.96-.15.47,0,.87.06,1.2.19.33.13.6.29.81.5.21.21.36.45.46.73s.14.57.14.87v3.14c0,.28,0,.5.03.66.02.17.03.29.05.36h-1.2c-.02-.08-.03-.18-.04-.31-.01-.13-.02-.31-.02-.53-.07.11-.16.23-.27.35s-.25.23-.42.34c-.17.1-.36.19-.58.25s-.47.1-.75.1c-.32,0-.61-.05-.87-.16s-.47-.24-.66-.41c-.18-.17-.32-.37-.42-.59s-.15-.46-.15-.72ZM477.23,169.45c.25,0,.49-.03.71-.1.22-.07.41-.17.57-.31s.29-.33.38-.57c.1-.24.14-.53.14-.87v-.29l-1.91.29c-.26.04-.48.14-.65.29s-.26.37-.26.64c0,.23.09.44.27.63.18.19.43.28.74.28Z"/>
    <path d="M484.75,164.96c-.25,0-.49.05-.72.14-.22.09-.43.23-.61.41s-.32.41-.42.68c-.11.27-.16.59-.16.96s.05.67.16.94c.1.27.24.5.42.69s.38.33.61.42c.23.1.48.14.73.14.29,0,.54-.04.75-.13.2-.09.37-.2.51-.33.13-.13.24-.27.32-.42s.13-.29.17-.41l1.08.47c-.08.23-.19.45-.34.68-.15.23-.34.44-.57.63-.23.19-.51.35-.83.46s-.68.18-1.09.18c-.46,0-.88-.08-1.27-.25-.39-.17-.72-.4-1-.7-.28-.3-.5-.65-.66-1.05-.16-.4-.24-.84-.24-1.32s.08-.93.24-1.34c.16-.41.38-.76.66-1.05.28-.29.62-.52,1-.68.39-.16.8-.25,1.24-.25.42,0,.78.06,1.1.18s.59.27.82.46.41.41.55.64.24.48.31.71l-1.11.47c-.04-.16-.11-.31-.18-.47s-.18-.3-.32-.42c-.13-.13-.3-.23-.49-.31s-.42-.12-.69-.12Z"/>
    <path d="M491.84,166.66l2.72,3.62h-1.54l-2.04-2.76-.87.87v1.89h-1.21v-9.43h1.21v5.94l2.71-2.77h1.69l-2.67,2.64Z"/>
    <path d="M500.85,168.5c-.09.28-.21.54-.38.77-.17.24-.37.45-.61.62-.24.18-.51.32-.81.42-.3.1-.64.16-1,.16-.42,0-.82-.07-1.2-.22-.38-.15-.72-.36-1.01-.65-.29-.29-.52-.64-.69-1.05-.17-.42-.25-.89-.25-1.42,0-.49.08-.94.25-1.35.17-.4.38-.75.66-1.04.27-.29.59-.52.96-.68.36-.16.74-.24,1.13-.24.48,0,.9.08,1.28.24s.69.38.94.67.45.63.58,1.04c.13.4.2.85.2,1.33,0,.08,0,.15,0,.22s-.01.13-.02.17h-4.71c0,.28.06.53.16.77.1.23.23.44.4.61.17.17.37.3.6.39s.47.14.74.14c.51,0,.9-.12,1.17-.36.27-.24.46-.54.59-.9l1.05.36ZM499.61,166.51c-.02-.45-.17-.83-.46-1.14-.29-.31-.71-.46-1.26-.46-.26,0-.49.05-.7.14-.21.09-.38.21-.52.36s-.26.32-.35.51c-.09.19-.13.39-.14.59h3.42Z"/>
    <path d="M504.03,164.02h1.35v1.11h-1.35v3.25c0,.29.06.5.2.64.13.14.36.21.68.21.08,0,.17,0,.26-.01.1,0,.17-.02.22-.04v1.04c-.05.02-.15.04-.3.07-.15.03-.33.05-.54.05-.54,0-.96-.15-1.28-.46s-.47-.75-.47-1.32v-3.44h-1.2v-1.11h.34c.34,0,.58-.09.74-.27.15-.18.23-.41.23-.69v-1.02h1.12v1.98Z"/>
    <path d="M513.74,165.26c-.18-.03-.36-.04-.53-.04-.51,0-.93.15-1.24.45-.32.3-.47.79-.47,1.48v3.14h-1.22v-6.26h1.2v1.09c.11-.24.24-.44.4-.59s.31-.27.47-.36c.17-.09.33-.15.51-.19s.34-.05.5-.05c.09,0,.17,0,.24.01.07,0,.13.02.16.03v1.3Z"/>
    <path d="M520.42,168.5c-.09.28-.21.54-.38.77-.17.24-.37.45-.61.62-.24.18-.51.32-.81.42-.3.1-.64.16-1,.16-.42,0-.82-.07-1.2-.22-.38-.15-.72-.36-1.01-.65-.29-.29-.52-.64-.69-1.05s-.25-.89-.25-1.42c0-.49.08-.94.25-1.35.16-.4.38-.75.66-1.04.27-.29.59-.52.96-.68.37-.16.74-.24,1.13-.24.48,0,.9.08,1.28.24.38.16.69.38.94.67s.45.63.58,1.04c.13.4.2.85.2,1.33,0,.08,0,.15,0,.22,0,.07,0,.13-.02.17h-4.71c0,.28.06.53.16.77.09.23.23.44.4.61.17.17.37.3.6.39.23.09.48.14.74.14.51,0,.9-.12,1.17-.36.27-.24.46-.54.59-.9l1.05.36ZM519.18,166.51c-.02-.45-.17-.83-.46-1.14-.29-.31-.71-.46-1.26-.46-.26,0-.49.05-.7.14-.2.09-.38.21-.52.36-.14.15-.26.32-.35.51-.09.19-.13.39-.14.59h3.42Z"/>
    <path d="M524.65,164.96c-.25,0-.49.05-.72.14-.22.09-.43.23-.61.41s-.32.41-.42.68c-.11.27-.16.59-.16.96s.05.67.16.94c.1.27.24.5.42.69s.38.33.61.42c.23.1.48.14.73.14.29,0,.54-.04.75-.13.2-.09.37-.2.51-.33.13-.13.24-.27.32-.42s.13-.29.17-.41l1.08.47c-.08.23-.19.45-.34.68-.15.23-.34.44-.57.63-.23.19-.51.35-.83.46s-.68.18-1.09.18c-.46,0-.88-.08-1.27-.25-.39-.17-.72-.4-1-.7-.28-.3-.5-.65-.66-1.05-.16-.4-.24-.84-.24-1.32s.08-.93.24-1.34c.16-.41.38-.76.66-1.05.28-.29.62-.52,1-.68.39-.16.8-.25,1.24-.25.42,0,.78.06,1.1.18s.59.27.82.46.41.41.55.64.24.48.31.71l-1.11.47c-.04-.16-.11-.31-.18-.47s-.18-.3-.32-.42c-.13-.13-.3-.23-.49-.31s-.42-.12-.69-.12Z"/>
    <path d="M534.34,168.5c-.09.28-.21.54-.38.77-.17.24-.37.45-.61.62-.24.18-.51.32-.81.42-.3.1-.64.16-1,.16-.42,0-.82-.07-1.2-.22-.38-.15-.72-.36-1.01-.65-.29-.29-.52-.64-.69-1.05-.17-.42-.25-.89-.25-1.42,0-.49.08-.94.25-1.35.17-.4.38-.75.66-1.04.27-.29.59-.52.96-.68.36-.16.74-.24,1.13-.24.48,0,.9.08,1.28.24s.69.38.94.67.45.63.58,1.04c.13.4.2.85.2,1.33,0,.08,0,.15,0,.22s-.01.13-.02.17h-4.71c0,.28.06.53.16.77.1.23.23.44.4.61.17.17.37.3.6.39s.47.14.74.14c.51,0,.9-.12,1.17-.36.27-.24.46-.54.59-.9l1.05.36ZM533.11,166.51c-.02-.45-.17-.83-.46-1.14-.29-.31-.71-.46-1.26-.46-.26,0-.49.05-.7.14-.21.09-.38.21-.52.36s-.26.32-.35.51c-.09.19-.13.39-.14.59h3.42Z"/>
    <path d="M535.55,161.65c0-.25.08-.46.25-.63s.38-.25.62-.25.46.08.63.25.25.38.25.63-.08.45-.25.62c-.17.17-.38.25-.63.25s-.45-.08-.62-.25c-.17-.17-.25-.38-.25-.62ZM535.82,170.28v-6.26h1.21v6.26h-1.21Z"/>
    <path d="M541.92,170.28h-1.24l-2.54-6.26h1.38l1.79,4.83,1.79-4.83h1.32l-2.5,6.26Z"/>
    <path d="M550.81,168.5c-.09.28-.21.54-.38.77-.17.24-.37.45-.61.62-.24.18-.51.32-.81.42-.3.1-.64.16-1,.16-.42,0-.82-.07-1.2-.22-.38-.15-.72-.36-1.01-.65-.29-.29-.52-.64-.69-1.05-.17-.42-.25-.89-.25-1.42,0-.49.08-.94.25-1.35.17-.4.38-.75.66-1.04.27-.29.59-.52.96-.68.36-.16.74-.24,1.13-.24.48,0,.9.08,1.28.24s.69.38.94.67.45.63.58,1.04c.13.4.2.85.2,1.33,0,.08,0,.15,0,.22s-.01.13-.02.17h-4.71c0,.28.06.53.16.77.1.23.23.44.4.61.17.17.37.3.6.39s.47.14.74.14c.51,0,.9-.12,1.17-.36.27-.24.46-.54.59-.9l1.05.36ZM549.58,166.51c-.02-.45-.17-.83-.46-1.14-.29-.31-.71-.46-1.26-.46-.26,0-.49.05-.7.14-.21.09-.38.21-.52.36s-.26.32-.35.51c-.09.19-.13.39-.14.59h3.42Z"/>
    <path d="M556.8,169.33c-.15.3-.38.57-.71.79-.33.22-.74.33-1.23.33-.46,0-.87-.08-1.24-.25-.37-.17-.68-.4-.93-.7s-.45-.65-.59-1.05c-.14-.4-.21-.84-.21-1.31,0-.44.07-.86.21-1.26.14-.4.35-.74.61-1.04.26-.3.57-.54.94-.72.37-.18.77-.27,1.21-.27.28,0,.52.03.74.09s.4.14.55.24.29.21.39.34c.1.13.18.25.23.38v-4.05h1.21v8.27c0,.3,0,.56.03.77.02.21.03.34.04.39h-1.18c-.02-.07-.03-.18-.05-.33-.01-.15-.02-.32-.02-.51v-.1ZM553.14,167.13c0,.32.04.62.12.89.08.27.2.51.36.71.16.2.35.36.57.47.23.11.49.17.78.17.28,0,.53-.06.76-.18.22-.12.42-.28.57-.48s.28-.44.36-.72c.08-.28.12-.58.12-.9,0-.65-.16-1.18-.48-1.58-.32-.4-.76-.6-1.32-.6-.28,0-.53.05-.76.16-.23.11-.43.26-.59.46s-.29.43-.37.7c-.09.27-.13.56-.13.89Z"/>
    <path d="M559.75,169.45c0-.23.09-.44.27-.61.18-.17.41-.26.68-.26s.52.1.74.31c.21.2.32.51.32.93s-.06.81-.19,1.11c-.12.31-.28.56-.47.76s-.4.35-.62.46c-.23.11-.44.18-.64.2v-.68c.16-.03.3-.1.44-.19.13-.09.25-.2.34-.33.09-.13.16-.27.22-.42s.09-.31.09-.46c-.02.02-.05.03-.11.05s-.11.02-.18.02c-.24,0-.45-.08-.62-.23-.17-.16-.25-.37-.25-.65Z"/>
    <path d="M571.09,170.48c-.6,0-1.17-.11-1.72-.32-.55-.21-1.04-.52-1.46-.93-.42-.41-.76-.91-1.02-1.51-.26-.6-.38-1.28-.38-2.06s.13-1.46.39-2.05c.26-.59.61-1.1,1.04-1.5.43-.41.92-.72,1.47-.93.55-.21,1.11-.32,1.69-.32.53,0,1.02.07,1.46.21.44.14.84.33,1.19.59.35.25.64.56.88.92.24.36.42.77.54,1.21l-1.19.42c-.17-.7-.51-1.24-1-1.61s-1.12-.56-1.88-.56c-.42,0-.82.08-1.22.23-.4.15-.75.38-1.05.68-.31.3-.55.68-.74,1.14-.18.46-.27.98-.27,1.58s.09,1.13.27,1.58c.18.46.43.84.74,1.15.31.31.66.54,1.05.69.39.15.8.23,1.22.23.39,0,.75-.06,1.07-.17.32-.11.6-.27.85-.46s.46-.43.62-.7c.17-.27.3-.57.4-.88l1.13.42c-.12.43-.3.83-.55,1.2-.24.36-.54.68-.88.94-.34.26-.74.46-1.18.61s-.94.22-1.46.22Z"/>
    <path d="M579.46,166.51h-1.38v3.78h-1.29v-9.23h3.48c.43,0,.83.07,1.18.21.35.14.65.34.89.59.24.25.43.54.56.87.13.33.2.69.2,1.07,0,.67-.2,1.24-.59,1.71-.39.47-.94.77-1.65.9l2.2,3.87h-1.48l-2.11-3.78ZM580.03,165.36c.52,0,.94-.14,1.26-.42.32-.28.48-.66.48-1.14s-.16-.89-.48-1.17c-.32-.29-.74-.43-1.26-.43h-1.95v3.16h1.95Z"/>
    <path d="M588.78,170.48c-.6,0-1.17-.11-1.72-.32-.55-.21-1.04-.52-1.46-.93-.42-.41-.76-.91-1.02-1.51-.26-.6-.38-1.28-.38-2.06s.13-1.46.39-2.05c.26-.59.61-1.1,1.04-1.5.43-.41.92-.72,1.47-.93.55-.21,1.11-.32,1.69-.32.53,0,1.02.07,1.46.21.44.14.84.33,1.19.59.35.25.64.56.88.92.24.36.42.77.54,1.21l-1.19.42c-.17-.7-.51-1.24-1-1.61s-1.12-.56-1.88-.56c-.42,0-.82.08-1.22.23-.4.15-.75.38-1.05.68-.31.3-.55.68-.74,1.14-.18.46-.27.98-.27,1.58s.09,1.13.27,1.58c.18.46.43.84.74,1.15.31.31.66.54,1.05.69.39.15.8.23,1.22.23.39,0,.75-.06,1.07-.17.32-.11.6-.27.85-.46s.46-.43.62-.7c.17-.27.3-.57.4-.88l1.13.42c-.12.43-.3.83-.55,1.2-.24.36-.54.68-.88.94-.34.26-.74.46-1.18.61s-.94.22-1.46.22Z"/>
    <path d="M470.45,177.98c-.25,0-.49.05-.71.14-.23.09-.43.23-.61.41s-.32.41-.42.68c-.1.27-.16.59-.16.96s.05.67.16.94c.11.27.24.5.42.69.17.19.38.33.61.42.23.1.48.14.73.14.29,0,.54-.04.75-.13.21-.09.37-.2.51-.33.13-.13.24-.27.32-.42s.13-.29.17-.41l1.08.47c-.08.23-.19.45-.34.68-.15.23-.34.44-.57.63-.23.19-.51.35-.83.46-.32.12-.68.18-1.09.18-.46,0-.88-.08-1.27-.25s-.72-.4-1-.7c-.28-.3-.5-.65-.66-1.05-.16-.4-.24-.84-.24-1.32s.08-.93.24-1.34c.16-.41.38-.76.66-1.05.28-.29.62-.52,1-.68.39-.16.8-.25,1.24-.25.42,0,.78.06,1.1.18.32.12.59.27.82.46.23.19.41.41.55.64s.24.48.31.71l-1.11.47c-.04-.16-.1-.31-.18-.47s-.19-.3-.32-.42c-.13-.13-.3-.23-.49-.31-.19-.08-.42-.12-.69-.12Z"/>
    <path d="M475.83,183.3h-1.22v-9.43h1.22v3.89c.23-.33.51-.56.85-.7.34-.14.69-.21,1.05-.21s.7.06.98.19c.28.13.52.3.7.52.19.22.33.48.42.79.09.3.14.63.14.98v3.97h-1.22v-3.76c0-.22-.02-.42-.07-.61-.05-.19-.13-.36-.25-.5s-.27-.26-.46-.34c-.19-.08-.42-.12-.68-.12-.23,0-.44.04-.62.13-.18.09-.33.2-.45.35-.12.15-.21.32-.28.52-.07.2-.1.42-.11.65v3.68Z"/>
    <path d="M487.29,181.52c-.09.28-.21.54-.38.77-.17.24-.37.45-.61.62-.24.18-.51.32-.81.42-.3.1-.64.16-1,.16-.42,0-.82-.07-1.2-.22-.38-.15-.72-.36-1.01-.65-.29-.29-.52-.64-.69-1.05-.17-.42-.25-.89-.25-1.42,0-.49.08-.94.25-1.35.17-.4.38-.75.66-1.04.27-.29.59-.52.96-.68.36-.16.74-.24,1.13-.24.48,0,.9.08,1.28.24s.69.38.94.67.45.63.58,1.04c.13.4.2.85.2,1.33,0,.08,0,.15,0,.22s-.01.13-.02.17h-4.71c0,.28.06.53.16.77.1.23.23.44.4.61.17.17.37.3.6.39s.47.14.74.14c.51,0,.9-.12,1.17-.36.27-.24.46-.54.59-.9l1.05.36ZM486.06,179.53c-.02-.45-.17-.83-.46-1.14-.29-.31-.71-.46-1.26-.46-.26,0-.49.05-.7.14-.21.09-.38.21-.52.36s-.26.32-.35.51c-.09.19-.13.39-.14.59h3.42Z"/>
    <path d="M491.53,177.98c-.25,0-.49.05-.71.14-.23.09-.43.23-.61.41s-.32.41-.42.68c-.1.27-.16.59-.16.96s.05.67.16.94c.11.27.24.5.42.69.17.19.38.33.61.42.23.1.48.14.73.14.29,0,.54-.04.75-.13.21-.09.37-.2.51-.33.13-.13.24-.27.32-.42s.13-.29.17-.41l1.08.47c-.08.23-.19.45-.34.68-.15.23-.34.44-.57.63-.23.19-.51.35-.83.46-.32.12-.68.18-1.09.18-.46,0-.88-.08-1.27-.25s-.72-.4-1-.7c-.28-.3-.5-.65-.66-1.05-.16-.4-.24-.84-.24-1.32s.08-.93.24-1.34c.16-.41.38-.76.66-1.05.28-.29.62-.52,1-.68.39-.16.8-.25,1.24-.25.42,0,.78.06,1.1.18.32.12.59.27.82.46.23.19.41.41.55.64s.24.48.31.71l-1.11.47c-.04-.16-.1-.31-.18-.47s-.19-.3-.32-.42c-.13-.13-.3-.23-.49-.31-.19-.08-.42-.12-.69-.12Z"/>
    <path d="M498.62,179.68l2.72,3.62h-1.54l-2.04-2.76-.87.87v1.89h-1.21v-9.43h1.21v5.94l2.71-2.77h1.69l-2.67,2.64Z"/>
    <path d="M505.77,185.78v-8.74h1.19v.98c.17-.31.44-.58.79-.79s.79-.33,1.3-.33c.47,0,.88.08,1.24.25.36.17.66.4.9.7s.42.64.55,1.04c.12.4.19.82.19,1.28s-.07.9-.2,1.3c-.13.4-.32.75-.57,1.05-.25.3-.56.53-.92.7-.36.17-.77.25-1.23.25-.49,0-.9-.1-1.25-.3-.35-.2-.61-.44-.78-.72v3.32h-1.21ZM510.68,180.16c0-.31-.04-.6-.13-.87-.09-.26-.21-.49-.36-.69s-.35-.35-.58-.46-.49-.17-.78-.17-.53.06-.76.17c-.23.11-.43.27-.59.46-.16.2-.29.43-.38.69-.09.27-.13.55-.13.87s.04.62.13.89c.09.27.21.51.38.7.17.19.36.35.59.46.23.11.48.16.76.16s.54-.05.77-.16c.22-.11.42-.26.58-.46.16-.2.29-.43.37-.7.09-.27.13-.57.13-.89Z"/>
    <path d="M513,181.62c0-.28.05-.53.14-.75.1-.22.23-.41.4-.57.17-.16.37-.28.61-.38.23-.1.48-.17.75-.21l1.69-.25c.19-.03.32-.08.38-.17.07-.09.1-.19.1-.3,0-.3-.11-.57-.32-.79-.21-.22-.56-.33-1.04-.33-.43,0-.77.12-1,.36s-.37.54-.42.9l-1.17-.27c.03-.29.12-.57.27-.82.14-.25.33-.47.55-.64.22-.18.49-.32.79-.42.3-.1.62-.15.96-.15.47,0,.87.06,1.2.19.33.13.6.29.81.5.21.21.36.45.46.73.09.28.14.57.14.87v3.14c0,.28,0,.5.03.66.02.17.04.29.05.36h-1.2c-.02-.08-.03-.18-.05-.31-.01-.13-.02-.31-.02-.53-.07.11-.16.23-.27.35-.11.12-.25.23-.42.34s-.36.19-.58.25c-.22.06-.47.1-.75.1-.32,0-.61-.05-.87-.16s-.47-.24-.66-.41c-.18-.17-.32-.37-.42-.59s-.15-.46-.15-.72ZM515.27,182.47c.25,0,.49-.03.71-.1.22-.07.41-.17.57-.31.16-.14.29-.33.38-.57s.14-.53.14-.87v-.29l-1.91.29c-.26.04-.48.14-.65.29s-.26.37-.26.64c0,.23.09.44.27.63.18.19.43.28.74.28Z"/>
    <path d="M520.68,181.28c.04.33.19.61.43.83s.59.34,1.03.34c.35,0,.61-.08.79-.25.18-.16.27-.36.27-.59,0-.2-.07-.37-.21-.51-.14-.14-.34-.24-.6-.3l-1.07-.23c-.49-.1-.88-.31-1.15-.62-.27-.31-.41-.69-.41-1.13,0-.27.06-.52.18-.76.12-.24.28-.45.47-.63.2-.18.44-.33.71-.43.27-.1.56-.16.87-.16.43,0,.78.06,1.07.18s.53.27.71.45c.18.18.32.36.41.55.09.19.15.36.19.49l-1.08.4c-.02-.08-.05-.18-.09-.3-.04-.12-.11-.24-.21-.34-.1-.11-.23-.2-.39-.28-.17-.08-.37-.12-.61-.12-.31,0-.56.08-.75.25-.19.17-.29.36-.29.58,0,.4.24.65.72.75l1.02.22c.57.12,1,.34,1.29.67.29.33.44.72.44,1.19,0,.23-.05.45-.14.68s-.24.43-.42.62c-.19.19-.42.35-.71.46s-.62.18-1.02.18c-.43,0-.8-.06-1.11-.18-.31-.12-.56-.27-.77-.46-.21-.18-.36-.38-.47-.59-.11-.21-.18-.41-.2-.59l1.11-.39Z"/>
    <path d="M526.57,181.28c.04.33.19.61.43.83s.59.34,1.03.34c.35,0,.61-.08.79-.25.18-.16.27-.36.27-.59,0-.2-.07-.37-.21-.51-.14-.14-.34-.24-.6-.3l-1.07-.23c-.49-.1-.88-.31-1.15-.62-.27-.31-.41-.69-.41-1.13,0-.27.06-.52.18-.76.12-.24.28-.45.47-.63.2-.18.44-.33.71-.43.27-.1.56-.16.87-.16.43,0,.78.06,1.07.18s.53.27.71.45c.18.18.32.36.41.55.09.19.15.36.19.49l-1.08.4c-.02-.08-.05-.18-.09-.3-.04-.12-.11-.24-.21-.34-.1-.11-.23-.2-.39-.28-.17-.08-.37-.12-.61-.12-.31,0-.56.08-.75.25-.19.17-.29.36-.29.58,0,.4.24.65.72.75l1.02.22c.57.12,1,.34,1.29.67.29.33.44.72.44,1.19,0,.23-.05.45-.14.68s-.24.43-.42.62c-.19.19-.42.35-.71.46s-.62.18-1.02.18c-.43,0-.8-.06-1.11-.18-.31-.12-.56-.27-.77-.46-.21-.18-.36-.38-.47-.59-.11-.21-.18-.41-.2-.59l1.11-.39Z"/>
    <path d="M537.3,181.52c-.09.28-.21.54-.38.77-.17.24-.37.45-.61.62-.24.18-.51.32-.81.42-.3.1-.64.16-1,.16-.42,0-.82-.07-1.2-.22-.38-.15-.72-.36-1.01-.65-.29-.29-.52-.64-.69-1.05s-.25-.89-.25-1.42c0-.49.08-.94.25-1.35.16-.4.38-.75.66-1.04.27-.29.59-.52.96-.68.37-.16.74-.24,1.13-.24.48,0,.9.08,1.28.24.38.16.69.38.94.67s.45.63.58,1.04c.13.4.2.85.2,1.33,0,.08,0,.15,0,.22,0,.07,0,.13-.02.17h-4.71c0,.28.06.53.16.77.09.23.23.44.4.61.17.17.37.3.6.39.23.09.48.14.74.14.51,0,.9-.12,1.17-.36.27-.24.46-.54.59-.9l1.05.36ZM536.06,179.53c-.02-.45-.17-.83-.46-1.14-.29-.31-.71-.46-1.26-.46-.26,0-.49.05-.7.14-.2.09-.38.21-.52.36-.14.15-.26.32-.35.51-.09.19-.13.39-.14.59h3.42Z"/>
    <path d="M543.29,182.35c-.15.3-.38.57-.71.79-.32.22-.73.33-1.23.33-.46,0-.87-.08-1.24-.25-.36-.17-.67-.4-.93-.7s-.45-.65-.59-1.05c-.14-.4-.21-.84-.21-1.31,0-.44.07-.86.21-1.26s.34-.74.61-1.04c.26-.3.57-.54.94-.72.36-.18.77-.27,1.21-.27.28,0,.52.03.73.09s.4.14.55.24.29.21.39.34c.11.13.18.25.23.38v-4.05h1.21v8.27c0,.3,0,.56.03.77.02.21.03.34.04.39h-1.19c-.02-.07-.03-.18-.04-.33-.01-.15-.02-.32-.02-.51v-.1ZM539.63,180.15c0,.32.04.62.12.89s.2.51.36.71c.16.2.35.36.57.47.22.11.48.17.78.17.28,0,.53-.06.75-.18.23-.12.42-.28.57-.48s.28-.44.36-.72c.08-.28.12-.58.12-.9,0-.65-.16-1.18-.47-1.58-.32-.4-.76-.6-1.32-.6-.28,0-.53.05-.76.16-.23.11-.42.26-.59.46-.16.2-.28.43-.37.7-.09.27-.13.56-.13.89Z"/>
  </g>
  <g>
    <path d="M456.95,198.03c-.16-.1-.37-.18-.63-.25-.27-.07-.56-.11-.88-.11-.44,0-.84.08-1.19.23-.35.15-.65.36-.91.63-.26.27-.46.59-.6.96-.15.37-.23.77-.26,1.2.17-.28.45-.53.82-.75.37-.23.84-.34,1.41-.34.42,0,.8.06,1.15.19s.66.31.92.56c.26.25.46.55.61.91.14.36.21.76.21,1.22s-.09.85-.25,1.21c-.17.36-.4.66-.68.9-.29.25-.62.44-1,.57s-.78.2-1.19.2-.81-.07-1.2-.22-.74-.38-1.05-.69-.56-.72-.76-1.21c-.19-.5-.29-1.09-.29-1.78,0-.78.11-1.48.33-2.09.22-.61.53-1.13.92-1.55s.85-.74,1.38-.96,1.1-.33,1.72-.33c.39,0,.74.04,1.05.13s.57.2.77.34l-.39,1.04ZM452.66,202.47c0,.28.05.53.16.74.1.22.24.4.41.55.17.15.36.27.58.35.22.08.44.12.68.12s.47-.04.7-.12c.22-.08.42-.19.59-.34.17-.15.3-.34.4-.56.09-.22.14-.47.14-.75s-.05-.54-.15-.76-.23-.41-.4-.56c-.17-.15-.36-.27-.58-.35-.22-.08-.45-.12-.7-.12s-.48.04-.7.12-.41.19-.58.35c-.17.15-.3.34-.4.56s-.15.48-.15.76Z"/>
    <path d="M459,204.32c0-.25.09-.47.26-.64.17-.18.38-.27.64-.27s.47.09.64.27.27.39.27.64-.09.46-.27.64-.39.26-.64.26-.46-.09-.64-.26c-.17-.17-.26-.39-.26-.64Z"/>
    <path d="M469.23,201.38v3.78h-1.28v-9.23h3.36c.43,0,.81.07,1.17.21s.65.33.9.58c.25.25.44.54.58.87.14.33.21.69.21,1.08s-.07.75-.21,1.09-.33.62-.58.86c-.25.24-.55.43-.9.57s-.74.21-1.17.21h-2.08ZM471.08,200.23c.56,0,.99-.14,1.31-.42s.48-.66.48-1.14-.16-.88-.48-1.17c-.32-.29-.75-.43-1.31-.43h-1.85v3.16h1.85Z"/>
    <path d="M474.96,203.47c0-.28.05-.53.14-.75.1-.22.23-.41.4-.57.17-.16.37-.28.61-.38.23-.09.48-.16.75-.21l1.69-.25c.19-.03.32-.08.38-.17.07-.09.1-.19.1-.3,0-.3-.11-.57-.32-.79-.21-.22-.56-.33-1.04-.33-.43,0-.77.12-1,.36s-.37.54-.42.9l-1.17-.27c.03-.29.12-.57.27-.82.14-.25.33-.47.55-.64.22-.18.49-.32.79-.42s.62-.15.96-.15c.47,0,.87.06,1.2.19s.6.29.81.5c.21.21.36.45.46.73.09.28.14.57.14.87v3.14c0,.28,0,.5.03.66s.04.29.05.36h-1.2c-.02-.08-.03-.18-.05-.31-.01-.13-.02-.31-.02-.53-.07.11-.16.23-.27.35-.11.12-.25.23-.42.34s-.36.19-.58.25c-.22.07-.47.1-.75.1-.32,0-.61-.05-.87-.16s-.47-.24-.66-.41c-.18-.17-.32-.37-.42-.59s-.15-.46-.15-.72ZM477.23,204.32c.25,0,.49-.03.71-.1.22-.07.41-.17.57-.31.16-.14.29-.33.38-.57.1-.24.14-.53.14-.87v-.29l-1.91.29c-.26.04-.48.14-.65.29-.17.15-.26.37-.26.64,0,.23.09.44.27.63s.43.28.74.28Z"/>
    <path d="M484.75,199.83c-.25,0-.49.04-.71.14-.23.09-.43.23-.61.41-.18.18-.32.41-.42.68-.1.27-.16.59-.16.96s.05.67.16.94c.11.27.24.5.42.69.17.19.38.33.61.42.23.09.48.14.73.14.29,0,.54-.04.75-.13.21-.09.37-.2.51-.33.13-.13.24-.27.32-.42.08-.15.13-.29.17-.41l1.08.47c-.08.23-.19.45-.34.68-.15.23-.34.44-.57.63-.23.19-.51.34-.83.46-.32.12-.68.18-1.09.18-.46,0-.88-.08-1.27-.25s-.72-.4-1-.7c-.28-.3-.5-.65-.66-1.05-.16-.4-.24-.84-.24-1.32s.08-.93.24-1.34c.16-.41.38-.76.66-1.05.28-.29.62-.52,1-.68s.8-.25,1.24-.25c.42,0,.78.06,1.1.18.32.12.59.27.82.46.23.19.41.41.55.64s.24.48.31.71l-1.11.47c-.04-.16-.1-.31-.18-.47-.08-.16-.19-.3-.32-.42-.13-.12-.3-.23-.49-.31-.19-.08-.42-.12-.69-.12Z"/>
    <path d="M491.84,201.53l2.72,3.62h-1.54l-2.04-2.76-.87.87v1.89h-1.21v-9.43h1.21v5.94l2.71-2.77h1.69l-2.67,2.64Z"/>
    <path d="M500.85,203.37c-.09.28-.21.54-.38.77-.17.24-.37.45-.61.62s-.51.32-.81.42c-.3.1-.64.16-1,.16-.42,0-.82-.07-1.2-.22-.38-.15-.72-.36-1.01-.65s-.52-.64-.69-1.05-.25-.89-.25-1.42c0-.5.08-.94.25-1.35.16-.4.38-.75.66-1.04s.59-.52.96-.68c.37-.16.74-.24,1.13-.24.48,0,.9.08,1.28.24.38.16.69.38.94.67s.45.63.58,1.04c.13.4.2.85.2,1.33,0,.08,0,.15,0,.22,0,.07,0,.13-.02.17h-4.71c0,.28.06.53.16.77.09.23.23.44.4.61.17.17.37.3.6.39.23.09.48.14.74.14.51,0,.9-.12,1.17-.36.27-.24.46-.54.59-.9l1.05.37ZM499.61,201.38c-.02-.45-.17-.83-.46-1.14-.29-.31-.71-.46-1.26-.46-.26,0-.49.05-.7.14-.2.09-.38.21-.52.37-.14.15-.26.32-.35.51-.09.19-.13.39-.14.59h3.42Z"/>
    <path d="M504.03,198.89h1.36v1.11h-1.36v3.25c0,.29.07.5.2.64.13.14.36.21.68.21.08,0,.16,0,.26-.01s.17-.02.22-.04v1.04c-.05.02-.15.04-.3.07-.15.03-.32.05-.53.05-.54,0-.96-.15-1.28-.46-.31-.31-.47-.75-.47-1.32v-3.44h-1.2v-1.11h.34c.34,0,.58-.09.73-.27.15-.18.23-.41.23-.69v-1.01h1.12v1.98Z"/>
    <path d="M509.87,203.47c0-.28.05-.53.14-.75.1-.22.23-.41.4-.57.17-.16.37-.28.61-.38.23-.09.48-.16.75-.21l1.69-.25c.19-.03.32-.08.38-.17.07-.09.1-.19.1-.3,0-.3-.11-.57-.32-.79-.21-.22-.56-.33-1.04-.33-.43,0-.77.12-1,.36s-.37.54-.42.9l-1.17-.27c.03-.29.12-.57.27-.82.14-.25.33-.47.55-.64.22-.18.49-.32.79-.42s.62-.15.96-.15c.47,0,.87.06,1.2.19s.6.29.81.5c.21.21.36.45.46.73.09.28.14.57.14.87v3.14c0,.28,0,.5.03.66s.04.29.05.36h-1.2c-.02-.08-.03-.18-.05-.31-.01-.13-.02-.31-.02-.53-.07.11-.16.23-.27.35-.11.12-.25.23-.42.34s-.36.19-.58.25c-.22.07-.47.1-.75.1-.32,0-.61-.05-.87-.16s-.47-.24-.66-.41c-.18-.17-.32-.37-.42-.59s-.15-.46-.15-.72ZM512.14,204.32c.25,0,.49-.03.71-.1.22-.07.41-.17.57-.31.16-.14.29-.33.38-.57.1-.24.14-.53.14-.87v-.29l-1.91.29c-.26.04-.48.14-.65.29-.17.15-.26.37-.26.64,0,.23.09.44.27.63s.43.28.74.28Z"/>
    <path d="M519.65,199.83c-.25,0-.49.04-.71.14-.23.09-.43.23-.61.41-.18.18-.32.41-.42.68-.1.27-.16.59-.16.96s.05.67.16.94c.11.27.24.5.42.69.17.19.38.33.61.42.23.09.48.14.73.14.29,0,.54-.04.75-.13.21-.09.37-.2.51-.33.13-.13.24-.27.32-.42.08-.15.13-.29.17-.41l1.08.47c-.08.23-.19.45-.34.68-.15.23-.34.44-.57.63-.23.19-.51.34-.83.46-.32.12-.68.18-1.09.18-.46,0-.88-.08-1.27-.25s-.72-.4-1-.7c-.28-.3-.5-.65-.66-1.05-.16-.4-.24-.84-.24-1.32s.08-.93.24-1.34c.16-.41.38-.76.66-1.05.28-.29.62-.52,1-.68s.8-.25,1.24-.25c.42,0,.78.06,1.1.18.32.12.59.27.82.46.23.19.41.41.55.64s.24.48.31.71l-1.11.47c-.04-.16-.1-.31-.18-.47-.08-.16-.19-.3-.32-.42-.13-.12-.3-.23-.49-.31-.19-.08-.42-.12-.69-.12Z"/>
    <path d="M526.75,201.53l2.72,3.62h-1.54l-2.04-2.76-.87.87v1.89h-1.21v-9.43h1.21v5.94l2.71-2.77h1.69l-2.67,2.64Z"/>
    <path d="M531.8,205.15h-1.22v-6.26h1.2v.9c.22-.39.51-.67.86-.83.35-.16.7-.25,1.07-.25s.7.06.98.19c.28.13.52.3.7.52.19.22.33.48.42.79.09.3.14.63.14.98v3.97h-1.22v-3.76c0-.22-.02-.42-.07-.61-.05-.19-.13-.36-.25-.5-.12-.14-.27-.26-.46-.34-.19-.08-.42-.12-.68-.12-.24,0-.46.05-.64.14-.18.09-.33.21-.46.37-.12.16-.21.34-.27.55s-.09.43-.09.66v3.62Z"/>
    <path d="M540.51,198.69c.47,0,.9.08,1.29.25s.73.4,1.02.7c.29.29.51.64.66,1.05s.23.84.23,1.32-.08.92-.23,1.33-.38.76-.66,1.05c-.29.29-.62.53-1.02.7s-.82.25-1.29.25-.9-.08-1.29-.25-.73-.4-1.02-.7c-.29-.29-.51-.65-.66-1.05s-.23-.85-.23-1.33.08-.92.23-1.32.38-.75.66-1.05c.29-.29.62-.53,1.02-.7s.82-.25,1.29-.25ZM540.51,204.25c.26,0,.51-.05.74-.14.23-.1.44-.24.62-.43.18-.19.33-.43.43-.7.11-.28.16-.6.16-.96s-.05-.68-.16-.96c-.1-.27-.25-.5-.43-.7-.18-.19-.39-.33-.62-.43-.23-.09-.48-.14-.74-.14s-.51.05-.74.14c-.23.1-.44.24-.62.43-.18.19-.33.42-.43.7-.11.27-.16.59-.16.96s.05.69.16.96c.1.28.25.51.43.7.18.19.39.33.62.43.23.09.48.14.74.14Z"/>
    <path d="M549.86,198.89l1.63,4.71,1.38-4.71h1.29l-2.03,6.26h-1.26l-1.67-4.76-1.63,4.76h-1.29l-2.06-6.26h1.34l1.41,4.71,1.63-4.71h1.26Z"/>
    <path d="M555.29,205.15v-9.43h1.22v9.43h-1.22Z"/>
    <path d="M563.97,203.37c-.09.28-.21.54-.38.77-.17.24-.37.45-.61.62-.24.18-.51.32-.81.42-.3.1-.64.16-1,.16-.42,0-.82-.07-1.2-.22-.38-.15-.72-.36-1.01-.65s-.52-.64-.69-1.05c-.17-.42-.25-.89-.25-1.42,0-.5.08-.94.25-1.35.17-.4.38-.75.66-1.04s.59-.52.96-.68c.36-.16.74-.24,1.13-.24.48,0,.9.08,1.28.24.38.16.69.38.94.67s.45.63.58,1.04.2.85.2,1.33c0,.08,0,.15,0,.22s-.01.13-.02.17h-4.71c0,.28.06.53.16.77s.23.44.4.61c.17.17.37.3.6.39.23.09.47.14.74.14.51,0,.9-.12,1.17-.36.27-.24.46-.54.59-.9l1.05.37ZM562.73,201.38c-.02-.45-.17-.83-.46-1.14-.29-.31-.71-.46-1.26-.46-.26,0-.49.05-.7.14-.21.09-.38.21-.52.37-.14.15-.26.32-.35.51-.09.19-.13.39-.14.59h3.42Z"/>
    <path d="M569.96,204.2c-.15.3-.38.57-.71.79-.33.22-.74.33-1.23.33-.46,0-.87-.08-1.24-.25-.37-.17-.68-.4-.93-.7-.26-.3-.45-.65-.59-1.05-.14-.4-.21-.84-.21-1.31,0-.44.07-.86.21-1.26.14-.39.35-.74.61-1.04.26-.3.57-.54.94-.72.37-.18.77-.27,1.21-.27.28,0,.52.03.74.09s.4.14.55.24c.16.1.29.21.39.34s.18.25.23.38v-4.05h1.21v8.27c0,.3,0,.56.03.77s.03.34.04.39h-1.18c-.02-.07-.03-.18-.05-.33-.01-.15-.02-.32-.02-.51v-.1ZM566.3,202c0,.32.04.62.12.89.08.27.2.51.36.71.16.2.35.36.57.47.23.11.49.17.78.17.28,0,.53-.06.76-.18.22-.12.42-.28.57-.48.16-.2.28-.44.36-.72.08-.28.12-.58.12-.9,0-.65-.16-1.18-.48-1.58-.32-.4-.76-.6-1.32-.6-.28,0-.53.05-.76.16s-.43.26-.59.46-.29.43-.37.7c-.09.27-.13.56-.13.89Z"/>
    <path d="M573.79,205.22c.04.44.22.81.53,1.1.31.29.7.44,1.18.44.66,0,1.14-.17,1.45-.51.31-.34.46-.85.46-1.52v-.9c-.15.29-.39.53-.72.73-.33.2-.73.3-1.2.3-.42,0-.8-.08-1.15-.23-.35-.15-.66-.36-.91-.62s-.46-.58-.6-.96c-.14-.37-.21-.78-.21-1.22s.07-.82.21-1.19c.14-.37.33-.69.58-.96.25-.27.55-.49.91-.65.35-.16.74-.24,1.18-.24.49,0,.89.09,1.21.26.32.17.56.42.71.73v-.87h1.21v5.79c0,.4-.05.79-.16,1.17-.1.38-.28.71-.53,1-.25.29-.57.52-.97.7-.4.18-.89.27-1.48.27-.39,0-.75-.06-1.09-.18s-.63-.28-.88-.49-.46-.45-.62-.74c-.16-.28-.26-.59-.29-.93l1.19-.27ZM575.68,203.82c.53,0,.96-.18,1.29-.55.33-.36.49-.85.49-1.46s-.16-1.09-.49-1.46-.76-.55-1.29-.55-.98.18-1.31.55-.49.85-.49,1.46.16,1.1.49,1.46c.32.36.77.54,1.32.54Z"/>
    <path d="M586.01,203.37c-.09.28-.21.54-.38.77-.17.24-.37.45-.61.62s-.51.32-.81.42c-.3.1-.64.16-1,.16-.42,0-.82-.07-1.2-.22-.38-.15-.72-.36-1.01-.65s-.52-.64-.69-1.05-.25-.89-.25-1.42c0-.5.08-.94.25-1.35.16-.4.38-.75.66-1.04s.59-.52.96-.68c.37-.16.74-.24,1.13-.24.48,0,.9.08,1.28.24.38.16.69.38.94.67s.45.63.58,1.04c.13.4.2.85.2,1.33,0,.08,0,.15,0,.22,0,.07,0,.13-.02.17h-4.71c0,.28.06.53.16.77.09.23.23.44.4.61.17.17.37.3.6.39.23.09.48.14.74.14.51,0,.9-.12,1.17-.36.27-.24.46-.54.59-.9l1.05.37ZM584.78,201.38c-.02-.45-.17-.83-.46-1.14-.29-.31-.71-.46-1.26-.46-.26,0-.49.05-.7.14-.2.09-.38.21-.52.37-.14.15-.26.32-.35.51-.09.19-.13.39-.14.59h3.42Z"/>
    <path d="M592,204.2c-.15.3-.38.57-.71.79-.32.22-.73.33-1.23.33-.46,0-.87-.08-1.24-.25-.36-.17-.67-.4-.93-.7-.26-.3-.45-.65-.59-1.05-.14-.4-.21-.84-.21-1.31,0-.44.07-.86.21-1.26.14-.39.34-.74.61-1.04.26-.3.57-.54.94-.72.36-.18.77-.27,1.21-.27.28,0,.52.03.73.09s.4.14.55.24c.16.1.29.21.39.34.11.13.18.25.23.38v-4.05h1.21v8.27c0,.3,0,.56.03.77.02.21.03.34.04.39h-1.19c-.02-.07-.03-.18-.04-.33-.01-.15-.02-.32-.02-.51v-.1ZM588.34,202c0,.32.04.62.12.89s.2.51.36.71c.16.2.35.36.57.47s.48.17.78.17c.28,0,.53-.06.75-.18.23-.12.42-.28.57-.48.16-.2.28-.44.36-.72.08-.28.12-.58.12-.9,0-.65-.16-1.18-.47-1.58-.32-.4-.76-.6-1.32-.6-.28,0-.53.05-.76.16-.23.11-.42.26-.59.46-.16.2-.28.43-.37.7-.09.27-.13.56-.13.89Z"/>
  </g>
  <rect class="cls-4" x="116.64" y="15.87" width="82.43" height="35.15"/>
  <rect class="cls-4" x="401.19" y="15.87" width="81.18" height="33.48"/>
  <line class="cls-2" x1="157.65" y1="46" x2="157.65" y2="218"/>
  <line class="cls-2" x1="442.43" y1="46" x2="442.43" y2="218"/>
  <g>
    <path d="M255.24,70.13c-.03-.21-.1-.43-.21-.66-.11-.23-.26-.45-.46-.64s-.44-.36-.73-.48c-.29-.12-.64-.19-1.04-.19-.33,0-.62.05-.9.15s-.51.23-.71.41c-.2.17-.36.38-.46.61-.11.23-.16.49-.16.76,0,.41.12.77.38,1.07s.62.5,1.11.61l1.73.37c.96.22,1.71.61,2.22,1.17s.77,1.25.77,2.07c0,.44-.09.87-.28,1.29-.19.41-.45.78-.8,1.09-.35.31-.77.57-1.25.76-.49.19-1.04.28-1.66.28-.69,0-1.3-.1-1.81-.31-.52-.21-.95-.47-1.3-.8-.35-.33-.63-.69-.82-1.1s-.32-.82-.38-1.23l1.53-.49c.03.33.11.64.23.94.12.3.3.56.54.79.23.23.52.41.85.54.33.14.71.2,1.15.2.79,0,1.38-.18,1.78-.54s.59-.79.59-1.3c0-.41-.14-.78-.42-1.11-.28-.33-.72-.56-1.3-.68l-1.64-.36c-.82-.18-1.5-.54-2.03-1.07-.53-.53-.79-1.22-.79-2.09,0-.46.1-.89.29-1.3.2-.41.46-.78.81-1.09.34-.31.75-.57,1.21-.76.47-.19.97-.28,1.5-.28.65,0,1.21.09,1.67.27s.85.41,1.16.69c.31.28.55.59.72.93.17.34.29.66.36.98l-1.43.5Z"/>
    <path d="M266.79,78.54l-6.23-9.41v9.41h-1.6v-11.54h2.13l5.76,8.85v-8.85h1.6v11.54h-1.66Z"/>
    <path d="M271.04,72.91v-1.25h7.53v1.25h-7.53ZM271.04,76.08v-1.29h7.53v1.29h-7.53Z"/>
    <path d="M280.79,73.27c0-.73.07-1.42.21-2.07s.38-1.24.73-1.76c.35-.52.79-.93,1.32-1.24s1.17-.46,1.92-.46,1.39.15,1.92.46.97.72,1.32,1.24c.35.52.59,1.11.73,1.76s.21,1.34.21,2.07-.07,1.42-.21,2.07c-.14.65-.38,1.24-.73,1.76-.35.52-.79.93-1.32,1.24s-1.17.46-1.92.46-1.39-.15-1.92-.46-.97-.72-1.32-1.24c-.35-.52-.59-1.11-.73-1.76-.14-.65-.21-1.34-.21-2.07ZM282.36,73.27c0,1.63.31,2.77.93,3.42.21.22.44.39.71.5.27.12.59.18.97.18s.7-.06.97-.18c.27-.12.5-.29.71-.5.62-.65.93-1.79.93-3.42s-.31-2.77-.93-3.42c-.21-.22-.44-.38-.71-.5-.27-.12-.59-.18-.97-.18s-.7.06-.97.18c-.27.12-.5.29-.71.5-.62.65-.93,1.79-.93,3.42Z"/>
  </g>
  <g>
    <path d="M255.86,151.07c-.03-.21-.1-.43-.21-.66-.11-.23-.26-.45-.46-.64s-.44-.36-.73-.48c-.29-.12-.64-.19-1.04-.19-.33,0-.62.05-.9.15s-.51.23-.71.41c-.2.17-.36.38-.46.61-.11.23-.16.49-.16.76,0,.41.12.77.38,1.07s.62.5,1.11.61l1.73.37c.96.22,1.71.61,2.22,1.17s.77,1.25.77,2.07c0,.44-.09.87-.28,1.29-.19.41-.45.78-.8,1.09-.35.31-.77.57-1.25.76-.49.19-1.04.28-1.66.28-.69,0-1.3-.1-1.81-.31-.52-.21-.95-.47-1.3-.8-.35-.33-.63-.69-.82-1.1s-.32-.82-.38-1.23l1.53-.49c.03.33.11.64.23.94.12.3.3.56.54.79.23.23.52.41.85.54.33.14.71.2,1.15.2.79,0,1.38-.18,1.78-.54s.59-.79.59-1.3c0-.41-.14-.78-.42-1.11-.28-.33-.72-.56-1.3-.68l-1.64-.36c-.82-.18-1.5-.54-2.03-1.07-.53-.53-.79-1.22-.79-2.09,0-.46.1-.89.29-1.3.2-.41.46-.78.81-1.09.34-.31.75-.57,1.21-.76.47-.19.97-.28,1.5-.28.65,0,1.21.09,1.67.27s.85.41,1.16.69c.31.28.55.59.72.93.17.34.29.66.36.98l-1.43.5Z"/>
    <path d="M267.4,159.49l-6.23-9.41v9.41h-1.6v-11.54h2.13l5.76,8.85v-8.85h1.6v11.54h-1.66Z"/>
    <path d="M271.66,153.86v-1.25h7.53v1.25h-7.53ZM271.66,157.03v-1.29h7.53v1.29h-7.53Z"/>
    <path d="M281.4,154.21c0-.73.07-1.42.21-2.07s.38-1.24.73-1.76c.35-.52.79-.93,1.32-1.24s1.17-.46,1.92-.46,1.39.15,1.92.46.97.72,1.32,1.24c.35.52.59,1.11.73,1.76s.21,1.34.21,2.07-.07,1.42-.21,2.07c-.14.65-.38,1.24-.73,1.76-.35.52-.79.93-1.32,1.24s-1.17.46-1.92.46-1.39-.15-1.92-.46-.97-.72-1.32-1.24c-.35-.52-.59-1.11-.73-1.76-.14-.65-.21-1.34-.21-2.07ZM282.98,154.21c0,1.63.31,2.77.93,3.42.21.22.44.39.71.5.27.12.59.18.97.18s.7-.06.97-.18c.27-.12.5-.29.71-.5.62-.65.93-1.79.93-3.42s-.31-2.77-.93-3.42c-.21-.22-.44-.38-.71-.5-.27-.12-.59-.18-.97-.18s-.7.06-.97.18c-.27.12-.5.29-.71.5-.62.65-.93,1.79-.93,3.42Z"/>
  </g>
  <g>
    <path d="M323.92,198.89l-6.23-9.41v9.41h-1.6v-11.54h2.13l5.76,8.85v-8.85h1.6v11.54h-1.66Z"/>
    <path d="M328.4,198.89v-11.54h7.01v1.48h-5.42v3.55h4.91v1.5h-4.91v3.53h5.42v1.48h-7.01Z"/>
    <path d="M343.45,190.48c-.03-.21-.1-.43-.21-.66-.11-.23-.26-.45-.46-.64s-.44-.36-.73-.48c-.29-.12-.64-.19-1.04-.19-.33,0-.62.05-.89.15s-.51.23-.71.41c-.2.17-.36.38-.46.61-.11.23-.16.49-.16.76,0,.41.12.77.37,1.07s.62.5,1.11.61l1.72.37c.96.22,1.71.61,2.22,1.17.52.56.77,1.25.77,2.07,0,.44-.09.87-.28,1.29-.18.41-.45.78-.8,1.09-.35.32-.76.57-1.25.76-.49.19-1.04.29-1.66.29-.7,0-1.3-.1-1.81-.31s-.95-.47-1.3-.8c-.35-.33-.63-.69-.82-1.1-.19-.41-.32-.82-.37-1.23l1.53-.49c.03.33.11.64.24.94.12.3.3.56.54.79.23.23.52.41.85.55s.71.2,1.15.2c.79,0,1.39-.18,1.78-.54.39-.36.59-.79.59-1.3,0-.41-.14-.78-.42-1.12-.28-.33-.71-.56-1.3-.67l-1.64-.36c-.82-.18-1.5-.54-2.03-1.07-.53-.53-.79-1.22-.79-2.09,0-.46.1-.89.29-1.3.2-.41.46-.78.8-1.09.34-.31.75-.57,1.21-.76.47-.19.96-.28,1.5-.28.65,0,1.21.09,1.67.27s.85.41,1.16.69c.31.28.55.59.72.93.17.34.29.66.36.98l-1.43.5Z"/>
    <path d="M355,198.89l-6.23-9.41v9.41h-1.6v-11.54h2.13l5.76,8.85v-8.85h1.6v11.54h-1.66Z"/>
    <path d="M359.26,193.26v-1.25h7.54v1.25h-7.54ZM359.26,196.43v-1.29h7.54v1.29h-7.54Z"/>
    <path d="M370.56,198.89v-7.44h-2.55v-1.12c.74-.02,1.34-.21,1.82-.58.48-.36.78-.83.89-1.41h1.4v10.54h-1.56Z"/>
  </g>
  <g>
    <path class="cls-1" d="M127.23,38.38v-11.54h4.04c.73,0,1.42.12,2.09.37.67.25,1.25.62,1.75,1.11.5.49.9,1.09,1.2,1.81s.45,1.55.45,2.5-.15,1.77-.45,2.49c-.3.72-.7,1.32-1.21,1.8-.51.48-1.1.85-1.77,1.09-.67.24-1.36.37-2.09.37h-4ZM131.19,36.96c.53,0,1.04-.09,1.51-.27.48-.18.89-.45,1.25-.81s.64-.81.85-1.35c.21-.54.31-1.18.31-1.9s-.1-1.36-.31-1.91c-.21-.55-.48-1-.84-1.37-.35-.36-.76-.64-1.24-.82s-.97-.28-1.51-.28h-2.39v8.71h2.36Z"/>
    <path class="cls-1" d="M145.62,36.15c-.11.35-.27.67-.48.97-.21.3-.47.56-.77.78s-.64.4-1.02.53c-.38.13-.8.2-1.25.2-.52,0-1.02-.09-1.5-.28-.48-.18-.9-.46-1.26-.81s-.65-.8-.86-1.32c-.21-.52-.32-1.11-.32-1.77,0-.62.1-1.18.31-1.68.21-.5.48-.94.82-1.3.34-.36.74-.65,1.2-.85.46-.2.93-.3,1.42-.3.6,0,1.13.1,1.6.3.47.2.87.48,1.18.84.31.36.56.79.72,1.29s.25,1.06.25,1.67c0,.1,0,.19,0,.28s-.01.16-.02.21h-5.89c0,.35.07.67.2.96.12.29.28.55.5.76.21.21.46.37.75.49s.59.17.92.17c.64,0,1.13-.15,1.46-.46.34-.3.58-.68.73-1.12l1.32.46ZM144.07,33.66c-.02-.56-.21-1.04-.57-1.42-.36-.38-.88-.58-1.58-.58-.33,0-.62.06-.87.17-.25.11-.47.27-.65.46s-.32.4-.43.64c-.11.24-.17.48-.18.73h4.28Z"/>
    <path class="cls-1" d="M150.94,38.38h-1.55l-3.17-7.83h1.72l2.23,6.04,2.25-6.04h1.64l-3.12,7.83Z"/>
    <path class="cls-1" d="M155.08,27.59c0-.31.11-.58.32-.79.21-.21.47-.32.77-.32s.58.11.79.32c.21.21.32.47.32.79s-.11.56-.32.77-.47.32-.79.32-.56-.11-.77-.32c-.21-.21-.32-.47-.32-.77ZM155.42,38.38v-7.83h1.51v7.83h-1.51Z"/>
    <path class="cls-1" d="M162.65,31.72c-.31,0-.61.06-.89.17-.28.11-.54.28-.76.51-.22.23-.4.51-.53.85-.13.34-.2.74-.2,1.2s.07.84.2,1.18c.13.34.3.63.52.86s.47.41.77.53c.29.12.6.18.91.18.37,0,.68-.05.94-.16.26-.11.47-.24.63-.41s.3-.34.4-.53.17-.36.21-.51l1.35.59c-.1.28-.24.57-.42.85-.19.29-.42.55-.72.79s-.64.43-1.03.58-.85.22-1.36.22c-.57,0-1.1-.11-1.59-.32s-.9-.5-1.25-.88c-.35-.37-.62-.81-.82-1.32-.2-.5-.3-1.06-.3-1.65s.1-1.17.3-1.68c.2-.51.48-.95.83-1.31.35-.36.77-.65,1.25-.85s1-.31,1.55-.31c.52,0,.98.07,1.38.22s.74.34,1.03.58.52.51.69.81c.17.3.3.59.39.89l-1.38.59c-.05-.2-.13-.39-.23-.59s-.23-.37-.4-.53-.37-.29-.61-.39c-.24-.1-.53-.15-.86-.15Z"/>
    <path class="cls-1" d="M174.75,36.15c-.11.35-.27.67-.48.97-.21.3-.47.56-.77.78s-.64.4-1.02.53c-.38.13-.8.2-1.25.2-.52,0-1.02-.09-1.5-.28-.48-.18-.9-.46-1.26-.81s-.65-.8-.86-1.32c-.21-.52-.32-1.11-.32-1.77,0-.62.1-1.18.31-1.68.21-.5.48-.94.82-1.3.34-.36.74-.65,1.2-.85.46-.2.93-.3,1.42-.3.6,0,1.13.1,1.6.3.47.2.87.48,1.18.84.31.36.56.79.72,1.29s.25,1.06.25,1.67c0,.1,0,.19,0,.28s-.01.16-.02.21h-5.89c0,.35.07.67.2.96.12.29.28.55.5.76.21.21.46.37.75.49s.59.17.92.17c.64,0,1.13-.15,1.46-.46.34-.3.58-.68.73-1.12l1.32.46ZM173.2,33.66c-.02-.56-.21-1.04-.57-1.42-.36-.38-.88-.58-1.58-.58-.33,0-.62.06-.87.17-.25.11-.47.27-.65.46s-.32.4-.43.64c-.11.24-.17.48-.18.73h4.28Z"/>
    <path class="cls-1" d="M187.72,35.16h-5.11l-1.22,3.22h-1.71l4.59-11.54h1.84l4.59,11.54h-1.72l-1.25-3.22ZM183.18,33.67h3.97l-2-5.17-1.97,5.17Z"/>
  </g>
  <g>
    <path class="cls-1" d="M410.55,38.38v-11.54h4.04c.73,0,1.42.12,2.09.37.67.25,1.25.62,1.75,1.11.5.49.9,1.09,1.2,1.81s.45,1.55.45,2.5-.15,1.77-.45,2.49c-.3.72-.7,1.32-1.21,1.8-.51.48-1.1.85-1.77,1.09-.67.24-1.36.37-2.09.37h-4ZM414.51,36.96c.53,0,1.04-.09,1.51-.27.48-.18.89-.45,1.25-.81s.64-.81.85-1.35c.21-.54.31-1.18.31-1.9s-.1-1.36-.31-1.91c-.21-.55-.48-1-.84-1.37-.35-.36-.76-.64-1.24-.82s-.97-.28-1.51-.28h-2.39v8.71h2.36Z"/>
    <path class="cls-1" d="M428.94,36.15c-.11.35-.27.67-.48.97-.21.3-.47.56-.77.78s-.64.4-1.02.53c-.38.13-.8.2-1.25.2-.52,0-1.02-.09-1.5-.28-.48-.18-.9-.46-1.26-.81s-.65-.8-.86-1.32c-.21-.52-.32-1.11-.32-1.77,0-.62.1-1.18.31-1.68.21-.5.48-.94.82-1.3.34-.36.74-.65,1.2-.85.46-.2.93-.3,1.42-.3.6,0,1.13.1,1.6.3.47.2.87.48,1.18.84.31.36.56.79.72,1.29s.25,1.06.25,1.67c0,.1,0,.19,0,.28s-.01.16-.02.21h-5.89c0,.35.07.67.2.96.12.29.28.55.5.76.21.21.46.37.75.49s.59.17.92.17c.64,0,1.13-.15,1.46-.46.34-.3.58-.68.73-1.12l1.32.46ZM427.39,33.66c-.02-.56-.21-1.04-.57-1.42-.36-.38-.88-.58-1.58-.58-.33,0-.62.06-.87.17-.25.11-.47.27-.65.46s-.32.4-.43.64c-.11.24-.17.48-.18.73h4.28Z"/>
    <path class="cls-1" d="M434.25,38.38h-1.55l-3.17-7.83h1.72l2.23,6.04,2.25-6.04h1.64l-3.12,7.83Z"/>
    <path class="cls-1" d="M438.4,27.59c0-.31.11-.58.32-.79.21-.21.47-.32.77-.32s.58.11.79.32c.21.21.32.47.32.79s-.11.56-.32.77-.47.32-.79.32-.56-.11-.77-.32c-.21-.21-.32-.47-.32-.77ZM438.74,38.38v-7.83h1.51v7.83h-1.51Z"/>
    <path class="cls-1" d="M445.96,31.72c-.31,0-.61.06-.89.17-.28.11-.54.28-.76.51-.22.23-.4.51-.53.85-.13.34-.2.74-.2,1.2s.07.84.2,1.18c.13.34.3.63.52.86s.47.41.77.53c.29.12.6.18.91.18.37,0,.68-.05.94-.16.26-.11.47-.24.63-.41s.3-.34.4-.53.17-.36.21-.51l1.35.59c-.1.28-.24.57-.42.85-.19.29-.42.55-.72.79s-.64.43-1.03.58-.85.22-1.36.22c-.57,0-1.1-.11-1.59-.32s-.9-.5-1.25-.88c-.35-.37-.62-.81-.82-1.32-.2-.5-.3-1.06-.3-1.65s.1-1.17.3-1.68c.2-.51.48-.95.83-1.31.35-.36.77-.65,1.25-.85s1-.31,1.55-.31c.52,0,.98.07,1.38.22s.74.34,1.03.58.52.51.69.81c.17.3.3.59.39.89l-1.38.59c-.05-.2-.13-.39-.23-.59s-.23-.37-.4-.53-.37-.29-.61-.39c-.24-.1-.53-.15-.86-.15Z"/>
    <path class="cls-1" d="M458.07,36.15c-.11.35-.27.67-.48.97-.21.3-.47.56-.77.78s-.64.4-1.02.53c-.38.13-.8.2-1.25.2-.52,0-1.02-.09-1.5-.28-.48-.18-.9-.46-1.26-.81s-.65-.8-.86-1.32c-.21-.52-.32-1.11-.32-1.77,0-.62.1-1.18.31-1.68.21-.5.48-.94.82-1.3.34-.36.74-.65,1.2-.85.46-.2.93-.3,1.42-.3.6,0,1.13.1,1.6.3.47.2.87.48,1.18.84.31.36.56.79.72,1.29s.25,1.06.25,1.67c0,.1,0,.19,0,.28s-.01.16-.02.21h-5.89c0,.35.07.67.2.96.12.29.28.55.5.76.21.21.46.37.75.49s.59.17.92.17c.64,0,1.13-.15,1.46-.46.34-.3.58-.68.73-1.12l1.32.46ZM456.52,33.66c-.02-.56-.21-1.04-.57-1.42-.36-.38-.88-.58-1.58-.58-.33,0-.62.06-.87.17-.25.11-.47.27-.65.46s-.32.4-.43.64c-.11.24-.17.48-.18.73h4.28Z"/>
    <path class="cls-1" d="M468.06,26.84c.55,0,1.04.08,1.47.24.43.16.79.37,1.09.65.3.28.53.6.68.98.16.38.24.8.24,1.25,0,.62-.16,1.14-.48,1.57-.32.43-.73.73-1.24.92.33.09.62.22.88.4.26.18.48.39.66.63.18.24.32.52.41.81s.14.61.14.94c0,.46-.09.88-.26,1.26s-.42.72-.73.99c-.31.28-.69.49-1.12.65-.43.16-.92.24-1.45.24h-4.04v-11.54h3.76ZM467.88,31.88c.65,0,1.15-.17,1.51-.51.36-.34.54-.78.54-1.33s-.19-.99-.56-1.32c-.38-.33-.89-.49-1.55-.49h-1.92v3.65h1.99ZM468.11,36.98c.65,0,1.17-.17,1.57-.5.4-.33.59-.78.59-1.34s-.17-1.01-.52-1.36c-.35-.35-.87-.53-1.58-.53h-2.28v3.73h2.21Z"/>
  </g>
</svg>