<?xml version="1.0" encoding="UTF-8"?>
<svg id="Layer_1" data-name="Layer 1" xmlns="http://www.w3.org/2000/svg" viewBox="0 0 856.07 232.55">
  <defs>
    <style>
      .cls-1 {
        fill: none;
        stroke: #000;
        stroke-dasharray: 3 6 3 6 3 6;
      }

      .cls-1, .cls-2, .cls-3, .cls-4, .cls-5 {
        stroke-miterlimit: 10;
      }

      .cls-2 {
        fill: #cce6fe;
        stroke: #80c1fe;
      }

      .cls-3 {
        fill: #333;
        opacity: .59;
        stroke-linecap: square;
      }

      .cls-3, .cls-6 {
        stroke: #333;
      }

      .cls-4 {
        stroke: #0082fc;
      }

      .cls-4, .cls-5 {
        opacity: .5;
      }

      .cls-4, .cls-7 {
        fill: #0082fc;
      }

      .cls-5 {
        fill: #999;
        stroke: #999;
      }

      .cls-6 {
        fill: #d2d0cd;
      }
    </style>
  </defs>
  <line class="cls-5" x1="124.45" y1="225.17" x2="124.45" y2="10.6"/>
  <line class="cls-5" x1="351.48" y1="225.17" x2="351.48" y2="10.6"/>
  <line class="cls-5" x1="420.94" y1="225.17" x2="420.94" y2="10.6"/>
  <line class="cls-5" x1="466.63" y1="225.17" x2="466.63" y2="10.6"/>
  <line class="cls-5" x1="748.45" y1="225.17" x2="748.45" y2="10.6"/>
  <line class="cls-3" x1="124.45" y1="44.94" x2="816.72" y2="44.94"/>
  <g>
    <line class="cls-1" x1="842.64" y1="10.6" x2="2.51" y2="10.6"/>
    <polygon points="841.18 5.61 849.81 10.6 841.18 15.59 841.18 5.61"/>
  </g>
  <rect class="cls-2" x="124.45" y="72.67" width="227.03" height="28.62"/>
  <g>
    <path d="M220.79,89.92c-.41,0-.81-.07-1.19-.22s-.72-.36-1.01-.64c-.29-.28-.53-.63-.7-1.04s-.27-.89-.27-1.42.09-1.01.27-1.42c.18-.41.42-.76.72-1.04.3-.28.64-.5,1.02-.64.38-.15.77-.22,1.17-.22.37,0,.7.05,1.01.14.31.1.58.23.82.41.24.17.44.39.61.64s.29.53.37.84l-.82.29c-.12-.49-.35-.86-.69-1.12-.34-.26-.77-.39-1.3-.39-.29,0-.57.05-.84.16s-.52.26-.73.47c-.21.21-.38.47-.51.79s-.19.68-.19,1.09.06.78.19,1.09.3.58.51.79.46.37.73.48.55.16.84.16c.27,0,.52-.04.74-.12.22-.08.42-.18.59-.32.17-.14.31-.3.43-.49s.21-.39.27-.61l.78.29c-.08.3-.21.58-.38.83-.17.25-.37.47-.61.65-.24.18-.51.32-.82.42s-.65.15-1.01.15Z"/>
    <path d="M228.06,85.13c-.02-.11-.06-.24-.12-.36-.06-.13-.14-.25-.25-.36-.11-.11-.24-.2-.4-.27-.16-.07-.35-.1-.58-.1-.18,0-.34.03-.49.08-.15.05-.28.13-.39.23-.11.1-.2.21-.26.34-.06.13-.09.27-.09.42,0,.23.07.42.21.59s.34.28.61.34l.95.21c.53.12.94.34,1.23.65s.43.69.43,1.14c0,.25-.05.48-.15.71s-.25.43-.44.6-.42.31-.69.42-.58.16-.92.16c-.38,0-.72-.06-1-.17-.29-.11-.53-.26-.72-.44s-.35-.38-.45-.61c-.11-.23-.18-.45-.21-.68l.85-.27c.02.18.06.35.13.52s.17.31.3.44c.13.13.28.23.47.3.18.07.39.11.63.11.44,0,.77-.1.99-.3.22-.2.33-.44.33-.72,0-.23-.08-.43-.23-.62-.16-.18-.4-.31-.72-.37l-.91-.2c-.46-.1-.83-.3-1.12-.59s-.44-.68-.44-1.16c0-.25.05-.49.16-.72s.26-.43.45-.6c.19-.17.41-.31.67-.42.26-.1.53-.16.83-.16.36,0,.67.05.92.15.25.1.47.23.64.38.17.16.3.33.4.51.1.19.16.37.2.54l-.79.28Z"/>
    <path d="M229.44,90.49v-.71h4.61v.71h-4.61Z"/>
    <path d="M238.27,85.13c-.02-.11-.06-.24-.12-.36-.06-.13-.14-.25-.25-.36-.11-.11-.24-.2-.4-.27-.16-.07-.35-.1-.58-.1-.18,0-.34.03-.49.08-.15.05-.28.13-.39.23-.11.1-.2.21-.26.34-.06.13-.09.27-.09.42,0,.23.07.42.21.59s.34.28.61.34l.95.21c.53.12.94.34,1.23.65s.43.69.43,1.14c0,.25-.05.48-.15.71s-.25.43-.44.6-.42.31-.69.42-.58.16-.92.16c-.38,0-.72-.06-1-.17-.29-.11-.53-.26-.72-.44s-.35-.38-.45-.61c-.11-.23-.18-.45-.21-.68l.85-.27c.02.18.06.35.13.52s.17.31.3.44c.13.13.28.23.47.3.18.07.39.11.63.11.44,0,.77-.1.99-.3.22-.2.33-.44.33-.72,0-.23-.08-.43-.23-.62-.16-.18-.4-.31-.72-.37l-.91-.2c-.46-.1-.83-.3-1.12-.59s-.44-.68-.44-1.16c0-.25.05-.49.16-.72s.26-.43.45-.6c.19-.17.41-.31.67-.42.26-.1.53-.16.83-.16.36,0,.67.05.92.15.25.1.47.23.64.38.17.16.3.33.4.51.1.19.16.37.2.54l-.79.28Z"/>
    <path d="M239.61,83.4h1.06l1.66,2.84,1.66-2.84h1.01l-2.25,3.65v2.73h-.88v-2.73l-2.25-3.65Z"/>
    <path d="M250.22,89.78l-3.45-5.2v5.2h-.88v-6.38h1.18l3.19,4.9v-4.9h.88v6.38h-.92Z"/>
    <path d="M255.52,89.92c-.41,0-.81-.07-1.19-.22s-.72-.36-1.01-.64c-.29-.28-.53-.63-.7-1.04s-.27-.89-.27-1.42.09-1.01.27-1.42c.18-.41.42-.76.72-1.04.3-.28.64-.5,1.02-.64.38-.15.77-.22,1.17-.22.37,0,.7.05,1.01.14.31.1.58.23.82.41.24.17.44.39.61.64s.29.53.37.84l-.82.29c-.12-.49-.35-.86-.69-1.12-.34-.26-.77-.39-1.3-.39-.29,0-.57.05-.84.16s-.52.26-.73.47c-.21.21-.38.47-.51.79s-.19.68-.19,1.09.06.78.19,1.09.3.58.51.79.46.37.73.48.55.16.84.16c.27,0,.52-.04.74-.12.22-.08.42-.18.59-.32.17-.14.31-.3.43-.49s.21-.39.27-.61l.78.29c-.08.3-.21.58-.38.83-.17.25-.37.47-.61.65-.24.18-.51.32-.82.42s-.65.15-1.01.15Z"/>
  </g>
  <g>
    <path d="M363.88,87.14h-1.13l-.56,2.65h-.88l1.35-6.38h2.07c.28,0,.52.04.74.12.22.08.4.19.55.34s.26.31.34.51c.08.2.12.41.12.65,0,.27-.04.52-.13.75s-.2.43-.36.61c-.15.18-.33.32-.54.44-.21.12-.44.2-.69.26l1.04,2.71h-.94l-1-2.65ZM364.15,86.35c.42,0,.76-.11,1.03-.33.27-.22.4-.54.4-.94,0-.27-.08-.49-.25-.65s-.42-.24-.76-.24h-1.21l-.47,2.17h1.25Z"/>
    <path d="M371.35,85.45l-.67,3.2c-.05.23-.08.43-.09.59,0,.17-.01.3-.01.39v.05s0,.05,0,.09h-.8c-.01-.06-.02-.14-.02-.25v-.12c0-.05,0-.11.02-.18-.15.18-.33.33-.55.45-.22.12-.46.18-.73.18s-.53-.05-.74-.15c-.21-.1-.39-.23-.54-.4s-.25-.37-.32-.6c-.07-.23-.11-.48-.11-.74,0-.35.06-.68.17-1,.11-.32.27-.6.46-.85.2-.24.43-.44.71-.58.28-.14.58-.22.92-.22.37,0,.66.07.88.21.22.14.38.29.47.47l.12-.55h.84ZM369.1,86.06c-.23,0-.44.06-.63.18-.18.12-.33.27-.45.45s-.21.39-.27.62-.09.45-.09.67c0,.34.08.62.25.85.17.22.43.33.77.33.2,0,.39-.05.57-.15.18-.1.33-.24.45-.41.13-.17.23-.38.3-.62.07-.24.11-.5.11-.78,0-.31-.08-.58-.24-.79-.16-.22-.42-.32-.77-.32Z"/>
    <path d="M374.47,89.78l.58-2.72s.02-.1.03-.14c0-.05,0-.1,0-.14,0-.2-.06-.37-.18-.51-.12-.13-.31-.2-.57-.2-.31,0-.55.1-.72.31-.18.21-.3.47-.36.8l-.56,2.61h-.84l.76-3.56c.04-.18.07-.35.09-.5.01-.15.02-.24.02-.27h.83s0,.06,0,.15c0,.09-.02.19-.04.3.16-.19.33-.34.53-.43.2-.1.44-.14.72-.14.26,0,.49.06.68.19.19.13.32.29.4.5.22-.28.46-.47.72-.56.26-.09.51-.14.77-.14.17,0,.33.03.48.08.15.05.29.13.4.24.11.11.21.23.27.39.07.15.1.33.1.54,0,.07,0,.13-.01.2,0,.07-.02.14-.03.21l-.6,2.81h-.84l.58-2.72s.02-.1.03-.15c0-.05,0-.1,0-.15,0-.19-.06-.36-.18-.49-.12-.14-.31-.21-.57-.21-.3,0-.54.1-.72.31-.18.21-.3.47-.36.78l-.56,2.62h-.85Z"/>
    <path d="M380.81,85.95c.16-.2.36-.36.61-.46s.5-.15.77-.15.53.05.73.14c.21.1.38.23.51.4.13.17.24.36.3.59s.1.47.1.72c0,.38-.05.74-.16,1.07s-.26.62-.46.86c-.2.24-.44.43-.72.57-.28.14-.59.21-.93.21-.3,0-.58-.07-.84-.21-.26-.14-.45-.33-.58-.58l-.5,2.38h-.84l1.12-5.27c.04-.19.07-.36.09-.5.01-.14.02-.23.02-.27h.83s0,.09,0,.19c0,.1-.02.2-.04.31ZM381.88,86.1c-.19,0-.36.04-.54.12s-.32.2-.46.36c-.14.16-.24.35-.32.58-.08.23-.12.49-.12.78,0,.38.1.68.29.89.19.21.46.31.79.31.18,0,.36-.04.54-.13.18-.08.33-.2.47-.36.13-.16.24-.35.33-.58s.13-.49.13-.79c0-.38-.09-.68-.28-.88s-.46-.31-.81-.31Z"/>
    <path d="M386.83,89.78l1.35-6.38h1.74c.41,0,.78.06,1.11.18.33.12.61.29.84.51.23.22.41.49.54.81s.19.66.19,1.05c0,.63-.1,1.18-.3,1.66-.2.48-.46.88-.77,1.2-.32.32-.68.57-1.09.73-.41.16-.83.24-1.25.24h-2.35ZM389.17,89c.29,0,.59-.06.9-.19.3-.13.57-.31.81-.57.24-.25.44-.56.59-.94.15-.37.23-.81.23-1.3,0-.6-.18-1.05-.53-1.36-.35-.31-.83-.46-1.43-.46h-.85l-1.03,4.81h1.3Z"/>
    <path d="M397.51,87.31c0,.37-.06.71-.18,1.03-.12.32-.28.59-.49.83-.21.23-.46.42-.75.55-.29.13-.6.2-.94.2-.31,0-.58-.05-.82-.16-.24-.1-.44-.25-.6-.43-.16-.18-.29-.4-.37-.64-.09-.24-.13-.5-.13-.77,0-.37.06-.72.18-1.04s.28-.59.5-.82c.21-.23.46-.41.75-.54.29-.13.6-.2.94-.2.31,0,.59.05.83.16.24.1.44.25.6.43.16.18.28.39.36.63.08.24.12.5.12.77ZM395.54,86.07c-.19,0-.37.04-.54.12-.17.08-.33.2-.46.35-.13.15-.24.34-.32.57s-.12.49-.12.78c0,.38.1.69.3.92.2.23.46.34.8.34.19,0,.37-.04.54-.12.18-.08.33-.2.47-.36.14-.16.24-.35.32-.58s.12-.49.12-.78c0-.38-.1-.68-.29-.91-.19-.23-.47-.34-.81-.34Z"/>
    <path d="M402.04,85.45l.41,3.23,1.63-3.23h.93l-2.29,4.33h-.87l-.43-3.28-1.71,3.28h-.89l-.44-4.33h.81l.28,3.22,1.69-3.22h.89Z"/>
    <path d="M407.75,89.78l.56-2.62s.02-.1.03-.15,0-.11,0-.18c0-.24-.07-.43-.2-.56-.13-.13-.33-.2-.59-.2-.17,0-.33.03-.46.1-.13.07-.25.16-.35.27-.1.11-.18.24-.25.38-.07.14-.11.29-.14.43l-.54,2.52h-.85l.76-3.56c.05-.2.08-.38.09-.53.01-.15.02-.23.02-.24h.83s0,.08-.01.18c0,.1-.02.2-.04.3.17-.23.37-.39.6-.47.23-.09.48-.13.74-.13.38,0,.69.12.93.35.24.23.36.55.36.94,0,.07,0,.13-.01.2,0,.07-.02.14-.03.21l-.58,2.75h-.85Z"/>
  </g>
  <line class="cls-4" x1="849.81" y1="225.17" x2="2.51" y2="225.17"/>
  <line class="cls-5" x1="816.72" y1="225.17" x2="816.72" y2="10.6"/>
  <rect class="cls-6" x="469.09" y="154.78" width="279.35" height="28.62"/>
  <g>
    <path d="M545.51,172.02c-.41,0-.81-.07-1.19-.22s-.72-.36-1.01-.64c-.29-.28-.53-.63-.7-1.04s-.27-.89-.27-1.42.09-1.01.27-1.42c.18-.41.42-.76.72-1.04.3-.28.64-.5,1.02-.64.38-.15.77-.22,1.17-.22.37,0,.7.05,1.01.14.31.1.58.23.82.41.24.17.44.39.61.64s.29.53.37.84l-.82.29c-.12-.49-.35-.86-.69-1.12-.34-.26-.77-.39-1.3-.39-.29,0-.57.05-.84.16s-.52.26-.73.47c-.21.21-.38.47-.51.79s-.19.68-.19,1.09.06.78.19,1.09.3.58.51.79.46.37.73.48.55.16.84.16c.27,0,.52-.04.74-.12.22-.08.42-.18.59-.32.17-.14.31-.3.43-.49s.21-.39.27-.61l.78.29c-.08.3-.21.58-.38.83-.17.25-.37.47-.61.65-.24.18-.51.32-.82.42s-.65.15-1.01.15Z"/>
    <path d="M552.77,167.24c-.02-.11-.06-.24-.12-.36-.06-.13-.14-.25-.25-.36-.11-.11-.24-.2-.4-.27-.16-.07-.35-.1-.58-.1-.18,0-.34.03-.49.08-.15.05-.28.13-.39.23-.11.1-.2.21-.26.34-.06.13-.09.27-.09.42,0,.23.07.42.21.59s.34.28.61.34l.95.21c.53.12.94.34,1.23.65s.43.69.43,1.14c0,.25-.05.48-.15.71s-.25.43-.44.6-.42.31-.69.42-.58.16-.92.16c-.38,0-.72-.06-1-.17-.29-.11-.53-.26-.72-.44s-.35-.38-.45-.61c-.11-.23-.18-.45-.21-.68l.85-.27c.02.18.06.35.13.52s.17.31.3.44c.13.13.28.23.47.3.18.07.39.11.63.11.44,0,.77-.1.99-.3.22-.2.33-.44.33-.72,0-.23-.08-.43-.23-.62-.16-.18-.4-.31-.72-.37l-.91-.2c-.46-.1-.83-.3-1.12-.59s-.44-.68-.44-1.16c0-.25.05-.49.16-.72s.26-.43.45-.6c.19-.17.41-.31.67-.42.26-.1.53-.16.83-.16.36,0,.67.05.92.15.25.1.47.23.64.38.17.16.3.33.4.51.1.19.16.37.2.54l-.79.28Z"/>
    <path d="M554.16,172.6v-.71h4.61v.71h-4.61Z"/>
    <path d="M562.99,167.24c-.02-.11-.06-.24-.12-.36-.06-.13-.14-.25-.25-.36-.11-.11-.24-.2-.4-.27-.16-.07-.35-.1-.58-.1-.18,0-.34.03-.49.08-.15.05-.28.13-.39.23-.11.1-.2.21-.26.34-.06.13-.09.27-.09.42,0,.23.07.42.21.59s.34.28.61.34l.95.21c.53.12.94.34,1.23.65s.43.69.43,1.14c0,.25-.05.48-.15.71s-.25.43-.44.6-.42.31-.69.42-.58.16-.92.16c-.38,0-.72-.06-1-.17-.29-.11-.53-.26-.72-.44s-.35-.38-.45-.61c-.11-.23-.18-.45-.21-.68l.85-.27c.02.18.06.35.13.52s.17.31.3.44c.13.13.28.23.47.3.18.07.39.11.63.11.44,0,.77-.1.99-.3.22-.2.33-.44.33-.72,0-.23-.08-.43-.23-.62-.16-.18-.4-.31-.72-.37l-.91-.2c-.46-.1-.83-.3-1.12-.59s-.44-.68-.44-1.16c0-.25.05-.49.16-.72s.26-.43.45-.6c.19-.17.41-.31.67-.42.26-.1.53-.16.83-.16.36,0,.67.05.92.15.25.1.47.23.64.38.17.16.3.33.4.51.1.19.16.37.2.54l-.79.28Z"/>
    <path d="M564.33,165.51h1.06l1.66,2.84,1.66-2.84h1.01l-2.25,3.65v2.73h-.88v-2.73l-2.25-3.65Z"/>
    <path d="M574.94,171.89l-3.45-5.2v5.2h-.88v-6.38h1.18l3.19,4.9v-4.9h.88v6.38h-.92Z"/>
    <path d="M580.24,172.02c-.41,0-.81-.07-1.19-.22s-.72-.36-1.01-.64c-.29-.28-.53-.63-.7-1.04s-.27-.89-.27-1.42.09-1.01.27-1.42c.18-.41.42-.76.72-1.04.3-.28.64-.5,1.02-.64.38-.15.77-.22,1.17-.22.37,0,.7.05,1.01.14.31.1.58.23.82.41.24.17.44.39.61.64s.29.53.37.84l-.82.29c-.12-.49-.35-.86-.69-1.12-.34-.26-.77-.39-1.3-.39-.29,0-.57.05-.84.16s-.52.26-.73.47c-.21.21-.38.47-.51.79s-.19.68-.19,1.09.06.78.19,1.09.3.58.51.79.46.37.73.48.55.16.84.16c.27,0,.52-.04.74-.12.22-.08.42-.18.59-.32.17-.14.31-.3.43-.49s.21-.39.27-.61l.78.29c-.08.3-.21.58-.38.83-.17.25-.37.47-.61.65-.24.18-.51.32-.82.42s-.65.15-1.01.15Z"/>
    <path d="M586.48,171.89v-6.38h3.88v.82h-3v2.05h2.72v.83h-2.72v2.68h-.88Z"/>
    <path d="M592.89,167.42c.32,0,.62.06.89.18.27.12.5.28.7.48.2.2.35.45.46.72.11.28.16.58.16.91s-.05.64-.16.92c-.11.28-.26.52-.46.73-.2.2-.43.36-.7.48-.27.12-.57.18-.89.18s-.62-.06-.89-.18c-.27-.12-.5-.28-.7-.48s-.35-.45-.46-.73c-.11-.28-.16-.59-.16-.92s.05-.63.16-.91c.11-.28.26-.52.46-.72.2-.2.43-.36.7-.48.27-.12.57-.18.89-.18ZM592.89,171.27c.18,0,.35-.03.51-.1.16-.07.31-.16.43-.3.13-.13.22-.29.3-.49s.11-.41.11-.67-.04-.47-.11-.66-.17-.35-.3-.48-.27-.23-.43-.3-.33-.1-.51-.1-.35.03-.51.1-.31.17-.43.3-.22.29-.3.48-.11.41-.11.66.04.47.11.67.17.35.3.49c.13.13.27.23.43.3.16.07.33.1.51.1Z"/>
    <path d="M596.18,171.89v-6.52h.85v6.52h-.85Z"/>
    <path d="M598.47,171.89v-6.52h.85v6.52h-.85Z"/>
    <path d="M602.6,167.42c.32,0,.62.06.89.18.27.12.5.28.7.48.2.2.35.45.46.72.11.28.16.58.16.91s-.05.64-.16.92c-.11.28-.26.52-.46.73-.2.2-.43.36-.7.48-.27.12-.57.18-.89.18s-.62-.06-.89-.18c-.27-.12-.5-.28-.7-.48s-.35-.45-.46-.73c-.11-.28-.16-.59-.16-.92s.05-.63.16-.91c.11-.28.26-.52.46-.72.2-.2.43-.36.7-.48.27-.12.57-.18.89-.18ZM602.6,171.27c.18,0,.35-.03.51-.1.16-.07.31-.16.43-.3.13-.13.22-.29.3-.49s.11-.41.11-.67-.04-.47-.11-.66-.17-.35-.3-.48-.27-.23-.43-.3-.33-.1-.51-.1-.35.03-.51.1-.31.17-.43.3-.22.29-.3.48-.11.41-.11.66.04.47.11.67.17.35.3.49c.13.13.27.23.43.3.16.07.33.1.51.1Z"/>
    <path d="M609.21,167.56l1.12,3.26.95-3.26h.89l-1.4,4.33h-.87l-1.15-3.29-1.12,3.29h-.89l-1.42-4.33h.93l.97,3.26,1.12-3.26h.87Z"/>
    <path d="M616.81,170.66c-.06.19-.15.37-.27.54s-.26.31-.42.43c-.17.12-.35.22-.56.29-.21.07-.44.11-.69.11-.29,0-.56-.05-.83-.15-.26-.1-.5-.25-.7-.45-.2-.2-.36-.44-.48-.73-.12-.29-.18-.62-.18-.98,0-.34.06-.65.17-.93.11-.28.27-.52.46-.72.19-.2.41-.36.66-.47.25-.11.51-.17.78-.17.33,0,.62.06.89.17.26.11.48.27.65.46.17.2.31.44.4.72.09.28.14.59.14.92,0,.05,0,.1,0,.15s0,.09-.01.12h-3.26c0,.19.04.37.11.53.07.16.16.3.27.42.12.12.25.21.41.27.16.06.33.09.51.09.35,0,.62-.08.81-.25.19-.17.32-.38.41-.62l.73.25ZM615.95,169.28c-.01-.31-.12-.57-.32-.79s-.49-.32-.87-.32c-.18,0-.34.03-.48.09s-.26.15-.36.25c-.1.1-.18.22-.24.36-.06.13-.09.27-.1.41h2.37Z"/>
    <path d="M620.95,171.23c-.1.21-.27.39-.49.54-.22.15-.51.23-.85.23-.32,0-.6-.06-.85-.18-.25-.12-.47-.28-.64-.49-.18-.21-.31-.45-.41-.73-.1-.28-.14-.58-.14-.9,0-.31.05-.6.15-.87s.24-.51.42-.72c.18-.21.4-.37.65-.5.25-.12.53-.18.84-.18.19,0,.36.02.51.06.15.04.27.1.38.17.11.07.2.15.27.23s.13.18.16.27v-2.8h.84v5.72c0,.21,0,.39.02.53.01.14.02.23.03.27h-.82s-.02-.12-.03-.23-.01-.22-.01-.36v-.07ZM618.42,169.71c0,.22.03.43.08.62s.14.35.25.49c.11.14.24.25.4.32.16.08.34.12.54.12.19,0,.37-.04.52-.12.16-.08.29-.19.4-.33.11-.14.19-.3.25-.5.06-.19.08-.4.08-.62,0-.45-.11-.81-.33-1.09-.22-.28-.52-.41-.91-.41-.19,0-.37.04-.53.11s-.29.18-.41.31c-.11.13-.2.3-.26.48-.06.19-.09.39-.09.61Z"/>
    <path d="M625.46,171.89v-6.52h.84v2.8c.1-.19.28-.36.52-.51s.55-.23.91-.23c.33,0,.62.06.86.18.25.12.45.28.62.49s.29.45.38.72.13.57.13.88-.04.63-.14.9c-.09.28-.22.52-.39.73-.17.21-.38.37-.63.49s-.54.18-.86.18-.6-.07-.84-.2c-.24-.13-.42-.31-.56-.55v.63h-.84ZM628.85,169.7c0-.47-.11-.84-.34-1.11-.23-.27-.54-.41-.94-.41-.19,0-.36.04-.52.11-.16.07-.29.17-.41.3s-.2.29-.27.48c-.06.19-.09.4-.09.63s.03.45.09.64c.06.19.15.36.27.49.11.14.25.24.41.31.16.07.33.11.52.11.39,0,.7-.14.93-.42.23-.28.35-.66.35-1.12Z"/>
    <path d="M630.77,173.7l1.08-2.29-1.86-3.85h.97l1.35,2.99,1.3-2.99h.91l-2.82,6.14h-.93Z"/>
    <path d="M640.42,172.02c-.41,0-.81-.07-1.19-.22s-.72-.36-1.01-.64c-.29-.28-.53-.63-.7-1.04s-.27-.89-.27-1.42.09-1.01.27-1.42c.18-.41.42-.76.72-1.04.3-.28.64-.5,1.02-.64s.77-.22,1.17-.22c.37,0,.7.05,1.01.14.31.1.58.23.82.41.24.17.44.39.61.64s.29.53.37.84l-.82.29c-.12-.49-.35-.86-.69-1.12-.34-.26-.77-.39-1.3-.39-.29,0-.57.05-.84.16-.27.1-.52.26-.73.47-.21.21-.38.47-.51.79s-.19.68-.19,1.09.06.78.19,1.09.29.58.51.79.46.37.73.48c.27.1.55.16.84.16.27,0,.52-.04.74-.12s.42-.18.59-.32c.17-.14.31-.3.43-.49s.21-.39.27-.61l.78.29c-.08.3-.21.58-.38.83s-.37.47-.61.65c-.24.18-.51.32-.82.42-.31.1-.65.15-1.01.15Z"/>
    <path d="M647.69,167.24c-.02-.11-.06-.24-.12-.36-.06-.13-.14-.25-.25-.36s-.24-.2-.41-.27c-.16-.07-.35-.1-.58-.1-.18,0-.34.03-.49.08-.15.05-.28.13-.39.23-.11.1-.2.21-.26.34-.06.13-.09.27-.09.42,0,.23.07.42.21.59.14.17.34.28.61.34l.95.21c.53.12.94.34,1.23.65s.43.69.43,1.14c0,.25-.05.48-.15.71-.1.23-.25.43-.44.6-.19.17-.42.31-.69.42-.27.1-.58.16-.92.16-.38,0-.72-.06-1-.17-.29-.11-.53-.26-.72-.44-.19-.18-.35-.38-.45-.61s-.18-.45-.21-.68l.85-.27c.02.18.06.35.13.52.07.17.17.31.3.44s.29.23.47.3c.18.07.39.11.63.11.44,0,.77-.1.99-.3.22-.2.33-.44.33-.72,0-.23-.08-.43-.23-.62s-.4-.31-.72-.37l-.91-.2c-.46-.1-.83-.3-1.12-.59s-.44-.68-.44-1.16c0-.25.05-.49.16-.72.11-.23.26-.43.45-.6.19-.17.41-.31.67-.42s.53-.16.83-.16c.36,0,.67.05.92.15.25.1.47.23.64.38.17.16.3.33.4.51.1.19.16.37.2.54l-.79.28Z"/>
    <path d="M654.29,166.33v5.56h-.88v-5.56h-2.13v-.82h5.15v.82h-2.13Z"/>
    <path d="M656.69,168.69c0-.53.09-1.01.27-1.42.18-.41.42-.76.72-1.04.3-.28.64-.5,1.03-.64.38-.15.78-.22,1.18-.22s.79.07,1.18.22.73.36,1.03.64c.3.28.54.63.72,1.04.18.41.27.88.27,1.42s-.09,1.01-.27,1.42c-.18.41-.42.76-.72,1.04-.3.28-.64.5-1.03.64s-.78.22-1.18.22-.79-.07-1.18-.22c-.38-.15-.73-.36-1.03-.64-.3-.28-.54-.63-.72-1.04s-.27-.89-.27-1.42ZM657.6,168.69c0,.41.06.78.19,1.09s.3.58.51.79.46.37.73.48.56.16.86.16.58-.05.86-.16.53-.26.74-.48.38-.48.51-.79.19-.68.19-1.09-.06-.78-.19-1.09-.3-.58-.51-.79c-.21-.21-.46-.37-.74-.47s-.57-.16-.86-.16-.59.05-.86.16-.52.26-.73.47c-.21.21-.38.47-.51.79s-.19.68-.19,1.09Z"/>
    <path d="M668.65,171.89l-3.45-5.2v5.2h-.88v-6.38h1.18l3.19,4.9v-4.9h.88v6.38h-.92Z"/>
    <path d="M671.19,171.89v-6.38h3.88v.82h-3v1.96h2.72v.83h-2.72v1.95h3v.82h-3.88Z"/>
  </g>
  <g>
    <path d="M760.92,169.98h-1.13l-.56,2.65h-.88l1.35-6.38h2.07c.28,0,.52.04.74.12.22.08.4.19.55.34.15.14.26.31.34.51.08.2.12.41.12.65,0,.27-.04.52-.13.75s-.2.43-.36.61c-.15.18-.33.32-.54.44-.21.12-.44.2-.69.26l1.04,2.71h-.94l-1-2.65ZM761.2,169.2c.42,0,.76-.11,1.03-.33.27-.22.4-.54.4-.94,0-.27-.08-.49-.25-.65s-.42-.24-.76-.24h-1.21l-.47,2.17h1.25Z"/>
    <path d="M768.4,168.3l-.67,3.2c-.05.23-.08.43-.09.59,0,.17-.01.3-.01.39v.05s0,.05,0,.09h-.8c-.01-.06-.02-.14-.02-.25v-.12c0-.05,0-.11.02-.18-.15.18-.33.33-.55.45-.22.12-.46.18-.73.18s-.53-.05-.74-.15c-.21-.1-.39-.23-.54-.4-.14-.17-.25-.37-.32-.6-.07-.23-.11-.48-.11-.74,0-.35.06-.68.17-1,.11-.32.27-.6.46-.85.2-.24.43-.44.71-.58.28-.14.58-.22.92-.22.37,0,.66.07.88.21.22.14.38.29.47.47l.12-.55h.84ZM766.14,168.9c-.23,0-.44.06-.63.18-.18.12-.33.27-.45.45-.12.18-.21.39-.28.62-.06.23-.09.45-.09.67,0,.34.08.62.25.85.17.22.43.33.77.33.2,0,.39-.05.57-.15.18-.1.33-.24.45-.41.13-.17.23-.38.3-.62.07-.24.11-.5.11-.78,0-.31-.08-.58-.24-.79-.16-.22-.42-.32-.76-.32Z"/>
    <path d="M771.51,172.63l.58-2.72s.02-.1.03-.14c0-.05,0-.1,0-.14,0-.2-.06-.37-.18-.51-.12-.13-.31-.2-.57-.2-.3,0-.55.1-.72.31-.18.21-.3.47-.36.8l-.56,2.61h-.84l.76-3.56c.04-.18.07-.35.09-.5s.02-.24.02-.27h.83s0,.06,0,.15c0,.09-.02.19-.04.3.16-.19.33-.34.53-.43.2-.1.44-.14.72-.14.26,0,.49.06.68.19s.32.29.4.5c.22-.28.46-.47.72-.56.25-.09.51-.14.77-.14.17,0,.33.03.48.08.15.05.29.13.4.24.11.11.21.23.28.39.07.15.1.33.1.54,0,.07,0,.13-.01.2,0,.07-.02.14-.03.21l-.6,2.81h-.84l.58-2.72s.02-.1.03-.15c0-.05,0-.1,0-.15,0-.19-.06-.36-.18-.49-.12-.14-.31-.21-.57-.21-.3,0-.54.1-.71.31-.18.21-.3.47-.37.78l-.56,2.62h-.85Z"/>
    <path d="M777.86,168.8c.16-.2.37-.36.61-.46.24-.1.5-.15.77-.15s.53.05.73.14c.21.1.38.23.51.4.13.17.24.36.3.59.07.23.1.47.1.72,0,.38-.05.74-.16,1.07s-.26.62-.46.86c-.2.24-.44.43-.72.57-.28.14-.59.21-.93.21-.3,0-.58-.07-.84-.21-.26-.14-.45-.33-.58-.58l-.5,2.38h-.84l1.12-5.27c.04-.19.07-.36.09-.5s.02-.23.02-.27h.83s0,.09,0,.19c0,.1-.02.2-.04.31ZM778.92,168.95c-.19,0-.37.04-.54.12-.17.08-.32.2-.46.36-.14.16-.24.35-.32.58-.08.23-.12.49-.12.78,0,.38.1.68.29.89.19.21.46.31.79.31.18,0,.36-.04.54-.13.18-.08.33-.2.47-.36.13-.16.24-.35.33-.58s.13-.49.13-.79c0-.38-.09-.68-.28-.88s-.46-.31-.81-.31Z"/>
    <path d="M783.87,172.63l1.35-6.38h1.74c.41,0,.78.06,1.11.18.33.12.61.29.84.51.23.22.41.49.54.81s.19.66.19,1.05c0,.63-.1,1.18-.3,1.66-.2.48-.46.88-.77,1.2-.32.32-.68.57-1.09.73-.41.16-.83.24-1.25.24h-2.35ZM786.22,171.85c.29,0,.59-.06.89-.19.3-.13.58-.31.81-.57.24-.25.44-.56.59-.94.15-.37.23-.81.23-1.3,0-.6-.18-1.05-.53-1.36-.35-.31-.83-.46-1.43-.46h-.86l-1.03,4.81h1.3Z"/>
    <path d="M794.55,170.15c0,.37-.06.71-.18,1.03-.12.32-.28.59-.5.83-.21.23-.46.42-.75.55-.29.13-.6.2-.94.2-.31,0-.58-.05-.82-.16s-.44-.25-.6-.43c-.16-.18-.29-.4-.37-.64-.09-.24-.13-.5-.13-.77,0-.37.06-.72.18-1.04s.28-.59.5-.82c.21-.23.46-.41.75-.54.29-.13.6-.2.94-.2.31,0,.59.05.83.16s.44.25.6.43c.16.18.28.39.36.63.08.24.12.5.12.77ZM792.58,168.92c-.19,0-.37.04-.54.12s-.33.2-.46.35c-.13.15-.24.34-.32.57s-.12.49-.12.78c0,.38.1.69.3.92.2.23.46.34.8.34.19,0,.37-.04.54-.12.18-.08.33-.2.47-.36.14-.16.24-.35.32-.58.08-.23.12-.49.12-.78,0-.38-.1-.68-.29-.91-.19-.23-.47-.34-.81-.34Z"/>
    <path d="M799.08,168.3l.41,3.23,1.63-3.23h.93l-2.29,4.33h-.87l-.43-3.28-1.71,3.28h-.89l-.44-4.33h.81l.28,3.22,1.69-3.22h.89Z"/>
    <path d="M804.8,172.63l.56-2.62s.02-.1.03-.15,0-.11,0-.18c0-.24-.07-.43-.2-.56-.13-.13-.33-.2-.59-.2-.17,0-.33.03-.46.1s-.25.16-.35.27c-.1.11-.18.24-.25.38-.07.14-.11.29-.14.43l-.54,2.52h-.85l.76-3.56c.05-.2.08-.38.09-.53s.02-.23.02-.24h.83s0,.08-.01.18c0,.1-.02.2-.04.3.17-.23.37-.39.6-.47.23-.09.48-.13.74-.13.38,0,.69.12.93.35s.36.55.36.94c0,.07,0,.13-.01.2,0,.07-.02.14-.03.21l-.58,2.75h-.85Z"/>
  </g>
  <rect class="cls-6" x="11.75" y="72.67" width="103.48" height="28.62" rx=".28" ry=".28"/>
  <rect class="cls-6" x="11.75" y="154.78" width="103.48" height="28.62" rx=".28" ry=".28"/>
  <g>
    <path class="cls-7" d="M47.59,89.78v-6.38h1.26v6.38h-1.26Z"/>
    <path class="cls-7" d="M51.41,89.78h-1.2v-4.43h1.16v.55c.14-.23.33-.4.56-.5.24-.11.48-.16.72-.16.28,0,.51.05.72.14.2.09.37.22.5.37.13.16.23.34.29.56.06.22.09.44.09.68v2.79h-1.2v-2.58c0-.25-.06-.46-.19-.63s-.34-.25-.63-.25c-.26,0-.47.09-.61.27-.14.18-.22.4-.22.65v2.55Z"/>
    <path class="cls-7" d="M55.33,83.91c0-.21.07-.39.22-.53.14-.14.32-.22.52-.22s.39.07.53.22c.14.14.21.32.21.53,0,.2-.07.37-.21.51-.14.14-.32.22-.53.22s-.38-.07-.52-.22c-.14-.14-.22-.32-.22-.51ZM55.47,89.78v-4.43h1.2v4.43h-1.2Z"/>
    <path class="cls-7" d="M59.42,85.35h.89v1.06h-.89v1.85c0,.19.04.33.13.4.09.07.22.11.39.11.07,0,.14,0,.22,0,.07,0,.12-.02.15-.03v.99c-.05.02-.14.05-.25.07-.11.02-.25.04-.43.04-.43,0-.77-.12-1.03-.36-.25-.24-.38-.58-.38-1.01v-2.06h-.8v-1.06h.23c.23,0,.41-.07.52-.2.11-.14.17-.3.17-.5v-.62h1.08v1.32Z"/>
    <path class="cls-7" d="M61.16,83.91c0-.21.07-.39.22-.53.14-.14.32-.22.52-.22s.39.07.53.22c.14.14.21.32.21.53,0,.2-.07.37-.21.51-.14.14-.32.22-.53.22s-.38-.07-.52-.22c-.14-.14-.22-.32-.22-.51ZM61.3,89.78v-4.43h1.2v4.43h-1.2Z"/>
    <path class="cls-7" d="M63.51,88.58c0-.2.03-.37.1-.53.07-.15.16-.29.28-.4.12-.11.26-.2.42-.27.16-.07.33-.11.52-.14l1.09-.16c.13-.02.21-.06.26-.11.05-.06.07-.12.07-.2,0-.16-.06-.29-.18-.41-.12-.11-.31-.17-.56-.17s-.47.07-.61.22c-.14.14-.22.31-.24.5l-1.06-.23c.02-.17.07-.35.16-.52.09-.17.21-.33.37-.47.16-.14.35-.25.58-.34.23-.09.49-.13.79-.13.35,0,.65.05.89.14.25.09.45.22.6.37.15.15.26.33.33.54.07.2.1.42.1.64v2.18c0,.12,0,.25.02.38.01.13.02.24.04.32h-1.1c-.01-.06-.02-.14-.03-.25s-.01-.2-.01-.28c-.11.17-.28.33-.49.46-.21.13-.48.2-.81.2-.23,0-.45-.04-.63-.11-.19-.08-.35-.17-.48-.3-.13-.12-.23-.26-.3-.42-.07-.16-.1-.33-.1-.5ZM65.28,89.02c.13,0,.25-.02.36-.05.12-.03.22-.09.31-.17.09-.08.16-.19.22-.31.05-.13.08-.29.08-.49v-.2l-1,.15c-.16.02-.29.08-.39.17s-.16.22-.16.39c0,.13.05.25.14.36.1.1.24.16.43.16Z"/>
    <path class="cls-7" d="M70.11,85.35h.89v1.06h-.89v1.85c0,.19.04.33.13.4.09.07.22.11.39.11.07,0,.14,0,.22,0,.07,0,.12-.02.15-.03v.99c-.05.02-.14.05-.25.07-.11.02-.25.04-.43.04-.43,0-.77-.12-1.03-.36-.25-.24-.38-.58-.38-1.01v-2.06h-.8v-1.06h.23c.23,0,.41-.07.52-.2.11-.14.17-.3.17-.5v-.62h1.08v1.32Z"/>
    <path class="cls-7" d="M73.98,85.22c.33,0,.64.06.92.18.29.12.53.28.74.49s.37.45.49.74c.12.29.18.6.18.95s-.06.66-.18.94c-.12.29-.28.53-.49.74s-.45.37-.74.49c-.28.12-.59.18-.92.18s-.64-.06-.92-.18c-.29-.12-.53-.28-.74-.49-.21-.21-.37-.46-.49-.74s-.18-.6-.18-.94.06-.66.18-.95c.12-.29.28-.54.49-.74.21-.21.45-.37.74-.49.28-.12.59-.18.92-.18ZM73.98,88.83c.14,0,.29-.03.42-.08.14-.05.26-.13.36-.24s.18-.24.25-.39c.06-.16.09-.34.09-.55s-.03-.39-.09-.55c-.06-.16-.15-.29-.25-.39s-.22-.18-.36-.24c-.14-.05-.28-.08-.42-.08s-.29.03-.42.08c-.14.05-.26.13-.36.24-.1.1-.18.24-.25.39-.06.16-.09.34-.09.55s.03.39.09.55c.06.16.15.29.25.39.1.1.22.18.36.24.14.05.28.08.42.08Z"/>
    <path class="cls-7" d="M79.94,86.54c-.12-.02-.24-.04-.36-.04-.16,0-.3.02-.44.06-.14.04-.26.11-.36.21-.1.1-.18.22-.25.38-.06.16-.09.36-.09.6v2.02h-1.2v-4.43h1.16v.66c.07-.14.15-.26.26-.36.1-.09.22-.16.33-.21.12-.05.23-.08.35-.1.12-.02.22-.03.32-.03.05,0,.09,0,.14,0,.04,0,.09,0,.14.01v1.21Z"/>
  </g>
  <g>
    <path d="M46.95,169.01h-.65v2.46h-1.25v-6.38h2.49c.31,0,.59.05.84.15s.46.24.64.41c.18.17.31.38.41.62.1.24.14.5.14.77,0,.45-.12.83-.36,1.15-.24.32-.57.54-.99.66l1.37,2.61h-1.39l-1.25-2.46ZM47.31,167.94c.32,0,.56-.08.74-.24.17-.16.26-.38.26-.64s-.09-.49-.26-.65c-.17-.16-.42-.24-.74-.24h-1.01v1.77h1.01Z"/>
    <path d="M54.56,170.19c-.05.19-.14.37-.26.54-.12.17-.26.32-.43.45s-.36.23-.59.3c-.23.08-.47.11-.74.11-.31,0-.6-.05-.87-.16-.28-.1-.52-.26-.73-.46-.21-.2-.38-.45-.5-.75-.12-.29-.18-.63-.18-1s.06-.68.18-.96c.12-.29.28-.53.48-.73.2-.2.43-.36.7-.47.26-.11.54-.17.82-.17.69,0,1.23.2,1.61.61.38.41.58.97.58,1.68,0,.08,0,.16,0,.24,0,.07,0,.12,0,.13h-3.17c0,.14.04.28.1.4s.14.23.24.32c.1.09.21.16.35.21.13.05.27.08.42.08.28,0,.5-.06.66-.19.16-.13.27-.29.35-.49l1,.3ZM53.44,168.75c0-.11-.03-.21-.07-.32s-.1-.2-.18-.28-.18-.15-.31-.2c-.12-.05-.27-.08-.44-.08-.16,0-.29.03-.41.08-.12.05-.22.12-.31.21s-.15.18-.19.28-.07.2-.08.31h1.98Z"/>
    <path d="M57.62,165.94c-.07,0-.13,0-.21.03-.07.02-.14.05-.2.09-.06.04-.11.11-.15.18-.04.08-.06.18-.06.31v.49h1.76v-2.09h1.2v6.52h-1.2v-3.4h-1.76v3.4h-1.21v-3.4h-.74v-1.03h.74v-.5c0-.25.04-.48.11-.68.07-.2.18-.37.32-.52.14-.14.31-.25.51-.33.2-.08.42-.12.67-.12.13,0,.24,0,.36.03.11.02.19.04.24.06v1.01s-.07-.02-.13-.03c-.06,0-.14-.01-.24-.01Z"/>
    <path d="M65.21,170.19c-.05.19-.14.37-.26.54-.12.17-.26.32-.43.45s-.36.23-.59.3c-.23.08-.47.11-.74.11-.31,0-.6-.05-.87-.16-.28-.1-.52-.26-.73-.46-.21-.2-.38-.45-.5-.75-.12-.29-.18-.63-.18-1s.06-.68.18-.96c.12-.29.28-.53.48-.73.2-.2.43-.36.7-.47.26-.11.54-.17.82-.17.69,0,1.23.2,1.61.61.38.41.58.97.58,1.68,0,.08,0,.16,0,.24,0,.07,0,.12,0,.13h-3.17c0,.14.04.28.1.4s.14.23.24.32c.1.09.21.16.35.21.13.05.27.08.42.08.28,0,.5-.06.66-.19.16-.13.27-.29.35-.49l1,.3ZM64.09,168.75c0-.11-.03-.21-.07-.32s-.1-.2-.18-.28-.18-.15-.31-.2c-.12-.05-.27-.08-.44-.08-.16,0-.29.03-.41.08-.12.05-.22.12-.31.21s-.15.18-.19.28-.07.2-.08.31h1.98Z"/>
    <path d="M68.2,168.01c-.16,0-.3.03-.44.08-.13.05-.25.13-.36.24-.1.11-.18.24-.24.39-.06.16-.09.33-.09.53s.03.38.09.53c.06.16.14.29.25.4s.23.19.36.24c.13.05.28.08.44.08s.28-.02.4-.07c.12-.05.22-.1.3-.18.08-.07.15-.15.2-.24.05-.09.09-.18.11-.26l1.05.35c-.05.19-.13.37-.24.54-.11.18-.25.34-.43.48-.17.14-.38.25-.61.34-.23.09-.5.13-.79.13-.32,0-.63-.06-.91-.18-.29-.12-.53-.28-.74-.49s-.38-.46-.5-.74-.18-.6-.18-.94.06-.66.18-.95c.12-.29.28-.54.49-.74.21-.21.45-.37.73-.49.28-.12.58-.18.9-.18.3,0,.57.04.81.13.24.09.44.2.62.34.17.14.31.3.42.48.11.18.19.36.23.55l-1.07.36c-.05-.19-.16-.36-.31-.51-.15-.16-.38-.23-.67-.23Z"/>
    <path d="M72.64,167.03h.89v1.06h-.89v1.85c0,.19.04.33.13.4.09.07.22.11.39.11.07,0,.14,0,.22,0,.07,0,.12-.02.15-.03v.99c-.05.02-.14.05-.25.07-.11.02-.25.04-.43.04-.43,0-.77-.12-1.03-.36-.25-.24-.38-.58-.38-1.01v-2.06h-.8v-1.06h.23c.23,0,.41-.07.52-.2.11-.14.17-.3.17-.5v-.62h1.08v1.32Z"/>
    <path d="M76.51,166.9c.33,0,.64.06.92.18.29.12.53.28.74.49s.37.45.49.74c.12.29.18.6.18.95s-.06.66-.18.94c-.12.29-.28.53-.49.74s-.45.37-.74.49c-.28.12-.59.18-.92.18s-.64-.06-.92-.18c-.29-.12-.53-.28-.74-.49-.21-.21-.37-.46-.49-.74s-.18-.6-.18-.94.06-.66.18-.95c.12-.29.28-.54.49-.74.21-.21.45-.37.74-.49.28-.12.59-.18.92-.18ZM76.51,170.51c.14,0,.29-.03.42-.08.14-.05.26-.13.36-.24s.18-.24.25-.39c.06-.16.09-.34.09-.55s-.03-.39-.09-.55c-.06-.16-.15-.29-.25-.39s-.22-.18-.36-.24c-.14-.05-.28-.08-.42-.08s-.29.03-.42.08c-.14.05-.26.13-.36.24-.1.1-.18.24-.25.39-.06.16-.09.34-.09.55s.03.39.09.55c.06.16.15.29.25.39.1.1.22.18.36.24.14.05.28.08.42.08Z"/>
    <path d="M82.48,168.22c-.12-.02-.24-.04-.36-.04-.16,0-.3.02-.44.06-.14.04-.26.11-.36.21-.1.1-.18.22-.25.38-.06.16-.09.36-.09.6v2.02h-1.2v-4.43h1.16v.66c.07-.14.15-.26.26-.36.1-.09.22-.16.33-.21.12-.05.23-.08.35-.1.12-.02.22-.03.32-.03.05,0,.09,0,.14,0,.04,0,.09,0,.14.01v1.21Z"/>
  </g>
  <g>
    <path class="cls-7" d="M225.33,25.45v6.97h-1.68v-6.97h-2.7v-1.58h7.08v1.58h-2.7Z"/>
    <path class="cls-7" d="M228.3,33.74v-1.31h6.17v1.31h-6.17Z"/>
    <path class="cls-7" d="M239.77,26.36c-.02-.12-.07-.25-.13-.39-.06-.14-.15-.27-.27-.39s-.28-.22-.46-.3c-.19-.08-.42-.12-.69-.12-.2,0-.38.03-.55.09-.17.06-.31.14-.42.24s-.21.22-.27.34c-.06.13-.1.27-.1.41,0,.23.08.44.23.61s.39.29.7.36l1.19.23c.39.07.73.19,1.03.35.3.16.55.35.75.57s.35.47.46.74.16.56.16.86c0,.33-.07.65-.21.97-.14.32-.34.6-.6.84-.26.25-.58.44-.96.6-.38.15-.82.23-1.32.23-.57,0-1.06-.08-1.47-.25-.41-.16-.75-.38-1.03-.63s-.49-.54-.63-.86c-.15-.32-.23-.63-.27-.94l1.54-.41c.02.21.07.41.15.6.08.19.2.36.36.51.15.15.34.27.57.36s.49.13.8.13c.45,0,.79-.1,1.03-.3.24-.2.36-.45.36-.75,0-.25-.09-.46-.27-.65-.18-.18-.43-.3-.77-.37l-1.19-.24c-.68-.14-1.23-.42-1.63-.84s-.61-.96-.61-1.61c0-.38.08-.73.24-1.06s.37-.61.65-.85.59-.43.95-.57.74-.21,1.15-.21c.51,0,.96.07,1.32.21.37.14.67.32.91.54.24.22.43.46.56.72.13.26.22.51.27.75l-1.5.46Z"/>
    <path class="cls-7" d="M241.72,23.87h1.95l1.92,3.39,1.92-3.39h1.87l-3.02,4.96v3.6h-1.67v-3.6l-2.98-4.96Z"/>
  </g>
  <g>
    <path class="cls-7" d="M375.08,25.45v6.97h-1.68v-6.97h-2.7v-1.58h7.08v1.58h-2.7Z"/>
    <path class="cls-7" d="M378.05,33.74v-1.31h6.17v1.31h-6.17Z"/>
    <path class="cls-7" d="M387.81,29.13h-.87v3.29h-1.68v-8.55h3.34c.42,0,.79.07,1.13.21.33.14.62.32.86.55.24.23.42.51.55.83.13.32.19.67.19,1.04,0,.6-.16,1.12-.49,1.54s-.77.72-1.33.88l1.83,3.5h-1.86l-1.68-3.29ZM388.3,27.69c.43,0,.76-.11.99-.33s.35-.5.35-.86-.12-.65-.35-.87c-.23-.22-.56-.33-.99-.33h-1.35v2.38h1.35Z"/>
    <path class="cls-7" d="M392.81,32.42v-8.55h3.06c.61,0,1.17.1,1.69.29.51.19.96.47,1.33.84s.67.81.88,1.35c.21.53.32,1.13.32,1.81s-.11,1.28-.32,1.81c-.21.53-.51.98-.89,1.34-.38.36-.82.64-1.34.83s-1.08.29-1.69.29h-3.05ZM395.8,30.88c.35,0,.68-.05.99-.16.31-.11.59-.28.82-.5.23-.23.42-.51.56-.85.14-.34.21-.75.21-1.21s-.07-.87-.21-1.21-.32-.63-.55-.85c-.23-.23-.5-.39-.81-.51-.31-.11-.64-.17-.99-.17h-1.34v5.47h1.33Z"/>
  </g>
  <g>
    <path class="cls-7" d="M432.38,25.45v6.97h-1.68v-6.97h-2.7v-1.58h7.08v1.58h-2.7Z"/>
    <path class="cls-7" d="M435.34,33.74v-1.31h6.17v1.31h-6.17Z"/>
    <path class="cls-7" d="M442.56,32.42v-8.55h1.69v8.55h-1.69Z"/>
    <path class="cls-7" d="M447.87,29.2v3.22h-1.67v-8.55h3.2c.42,0,.8.07,1.15.2.35.13.64.32.89.56.25.24.44.52.57.84.13.33.2.68.2,1.07s-.07.74-.2,1.07c-.13.33-.32.61-.57.84-.25.23-.55.42-.89.55-.35.13-.73.2-1.15.2h-1.53ZM449.19,27.76c.42,0,.75-.11.98-.33s.36-.52.36-.89-.12-.69-.36-.9c-.24-.22-.57-.33-.98-.33h-1.31v2.45h1.31Z"/>
    <path class="cls-7" d="M454.79,32.42v-5.24h-1.88v-1.12c.57,0,1.04-.15,1.42-.43.37-.28.6-.63.68-1.04h1.44v7.83h-1.65Z"/>
  </g>
  <g>
    <path class="cls-7" d="M553.83,25.45v6.97h-1.68v-6.97h-2.7v-1.58h7.08v1.58h-2.7Z"/>
    <path class="cls-7" d="M556.8,33.74v-1.31h6.17v1.31h-6.17Z"/>
    <path class="cls-7" d="M568.27,26.36c-.02-.12-.07-.25-.13-.39-.06-.14-.15-.27-.27-.39s-.28-.22-.46-.3c-.19-.08-.42-.12-.69-.12-.2,0-.38.03-.55.09-.17.06-.31.14-.42.24s-.21.22-.27.34c-.06.13-.1.27-.1.41,0,.23.08.44.23.61s.39.29.7.36l1.19.23c.39.07.73.19,1.03.35.3.16.55.35.75.57s.35.47.46.74.16.56.16.86c0,.33-.07.65-.21.97-.14.32-.34.6-.6.84-.26.25-.58.44-.96.6-.38.15-.82.23-1.32.23-.57,0-1.06-.08-1.47-.25-.41-.16-.75-.38-1.03-.63s-.49-.54-.63-.86c-.15-.32-.23-.63-.27-.94l1.54-.41c.02.21.07.41.15.6.08.19.2.36.36.51.15.15.34.27.57.36s.49.13.8.13c.45,0,.79-.1,1.03-.3.24-.2.36-.45.36-.75,0-.25-.09-.46-.27-.65-.18-.18-.43-.3-.77-.37l-1.19-.24c-.68-.14-1.23-.42-1.63-.84s-.61-.96-.61-1.61c0-.38.08-.73.24-1.06s.37-.61.65-.85.59-.43.95-.57.74-.21,1.15-.21c.51,0,.96.07,1.32.21.37.14.67.32.91.54.24.22.43.46.56.72.13.26.22.51.27.75l-1.5.46Z"/>
    <path class="cls-7" d="M570.21,23.87h1.95l1.92,3.39,1.92-3.39h1.87l-3.02,4.96v3.6h-1.67v-3.6l-2.98-4.96Z"/>
    <path class="cls-7" d="M581.69,28.31v-1.29h5.85v1.29h-5.85ZM581.69,30.71v-1.3h5.85v1.3h-5.85Z"/>
    <path class="cls-7" d="M595.8,25.45v6.97h-1.68v-6.97h-2.7v-1.58h7.08v1.58h-2.7Z"/>
    <path class="cls-7" d="M598.77,33.74v-1.31h6.17v1.31h-6.17Z"/>
    <path class="cls-7" d="M612.38,32.42l-.11-.98c-.1.14-.22.29-.37.43s-.34.27-.55.37c-.21.11-.45.19-.72.26s-.56.1-.88.1c-.58,0-1.13-.1-1.64-.31s-.97-.5-1.36-.88c-.39-.38-.7-.85-.93-1.4-.23-.55-.34-1.17-.34-1.86s.12-1.31.36-1.86.56-1.02.96-1.41.87-.68,1.4-.89c.53-.21,1.08-.31,1.66-.31s1.06.07,1.5.22.82.35,1.14.6c.32.25.59.53.8.84.21.31.37.64.47.96l-1.59.57c-.06-.19-.14-.39-.26-.58-.12-.19-.27-.37-.46-.52-.19-.16-.42-.29-.68-.39s-.57-.15-.92-.15c-.32,0-.64.06-.96.17-.32.11-.61.29-.86.52-.25.24-.46.54-.62.9-.16.37-.24.8-.24,1.31s.07.91.22,1.27c.15.37.35.67.59.92.25.25.53.43.86.55.33.12.67.19,1.03.19.39,0,.73-.06,1.01-.17.28-.12.51-.26.69-.43.18-.17.32-.35.41-.54.09-.19.15-.37.17-.52h-2.7v-1.45h4.27v4.45h-1.35Z"/>
    <path class="cls-7" d="M615.41,32.42v-8.55h3.06c.61,0,1.17.1,1.69.29.51.19.96.47,1.33.84s.67.81.88,1.35.32,1.13.32,1.81-.11,1.28-.32,1.81c-.21.53-.51.98-.89,1.34s-.82.64-1.34.83-1.08.29-1.69.29h-3.05ZM618.4,30.88c.35,0,.68-.05.99-.16.31-.11.59-.28.82-.5.23-.23.42-.51.56-.85.14-.34.21-.75.21-1.21s-.07-.87-.21-1.21-.32-.63-.55-.85c-.23-.23-.5-.39-.81-.51-.31-.11-.64-.17-.99-.17h-1.34v5.47h1.33Z"/>
    <path class="cls-7" d="M629.02,28.21v-2.35h1.35v2.35h2.29v1.31h-2.29v2.36h-1.35v-2.36h-2.28v-1.31h2.28Z"/>
    <path class="cls-7" d="M640.8,25.45v6.97h-1.68v-6.97h-2.7v-1.58h7.08v1.58h-2.7Z"/>
    <path class="cls-7" d="M643.77,33.74v-1.31h6.17v1.31h-6.17Z"/>
    <path class="cls-7" d="M650.98,32.42v-8.55h5.41v1.58h-3.74v2.11h3.33v1.53h-3.32v3.33h-1.68Z"/>
    <path class="cls-7" d="M665.67,32.42v-6l-2.46,6h-1.39l-2.46-5.95v5.95h-1.59v-8.55h2.2l2.57,6.18,2.51-6.18h2.27v8.55h-1.64Z"/>
  </g>
  <g>
    <path class="cls-7" d="M772.13,25.45v6.97h-1.68v-6.97h-2.7v-1.58h7.08v1.58h-2.7Z"/>
    <path class="cls-7" d="M775.1,33.74v-1.31h6.17v1.31h-6.17Z"/>
    <path class="cls-7" d="M784.86,29.13h-.87v3.29h-1.68v-8.55h3.34c.42,0,.79.07,1.13.21s.62.32.86.55c.24.23.42.51.55.83.13.32.19.67.19,1.04,0,.6-.16,1.12-.49,1.54-.33.43-.77.72-1.33.88l1.83,3.5h-1.86l-1.68-3.29ZM785.34,27.69c.43,0,.76-.11.99-.33s.35-.5.35-.86-.12-.65-.35-.87c-.23-.22-.56-.33-.99-.33h-1.35v2.38h1.35Z"/>
    <path class="cls-7" d="M789.85,32.42v-8.55h3.06c.61,0,1.17.1,1.69.29.51.19.96.47,1.33.84s.67.81.88,1.35.32,1.13.32,1.81-.11,1.28-.32,1.81c-.21.53-.51.98-.89,1.34s-.82.64-1.34.83-1.08.29-1.69.29h-3.05ZM792.85,30.88c.35,0,.68-.05.99-.16.31-.11.59-.28.82-.5.23-.23.42-.51.56-.85.14-.34.21-.75.21-1.21s-.07-.87-.21-1.21-.32-.63-.55-.85c-.23-.23-.5-.39-.81-.51-.31-.11-.64-.17-.99-.17h-1.34v5.47h1.33Z"/>
  </g>
</svg>