<?xml version="1.0" encoding="UTF-8"?>
<svg id="Layer_1" data-name="Layer 1" xmlns="http://www.w3.org/2000/svg" viewBox="0 0 684 134.91">
  <defs>
    <style>
      .cls-1 {
        stroke-dasharray: 5.7 5.7 5.7 5.7 5.7 5.7;
      }

      .cls-1, .cls-2, .cls-3, .cls-4, .cls-5 {
        fill: none;
        stroke: #646569;
        stroke-miterlimit: 10;
      }

      .cls-2 {
        stroke-dasharray: 4.8 4.8 4.8 4.8;
      }

      .cls-3 {
        stroke-dasharray: 4.8 4.8 4.8 4.8 4.8 4.8;
      }

      .cls-5 {
        stroke-dasharray: 5.7 5.7 5.7 5.7;
      }
    </style>
  </defs>
  <rect class="cls-4" x="21.42" y="43.58" width="497.63" height="67.73"/>
  <g>
    <polyline class="cls-4" points="519.19 108.8 519.19 111.3 521.69 111.3"/>
    <line class="cls-2" x1="526.49" y1="111.3" x2="543.29" y2="111.3"/>
    <line class="cls-3" x1="545.69" y1="111.3" x2="658.47" y2="111.3"/>
    <polyline class="cls-4" points="660.87 111.3 663.37 111.3 663.37 108.8"/>
    <line class="cls-5" x1="663.37" y1="103.1" x2="663.37" y2="83.14"/>
    <line class="cls-1" x1="663.37" y1="80.29" x2="663.37" y2="48.93"/>
    <polyline class="cls-4" points="663.37 46.08 663.37 43.58 660.87 43.58"/>
    <line class="cls-2" x1="656.07" y1="43.58" x2="639.27" y2="43.58"/>
    <line class="cls-3" x1="636.88" y1="43.58" x2="524.09" y2="43.58"/>
    <polyline class="cls-4" points="521.69 43.58 519.19 43.58 519.19 46.08"/>
    <line class="cls-5" x1="519.19" y1="51.78" x2="519.19" y2="71.74"/>
    <line class="cls-1" x1="519.19" y1="74.59" x2="519.19" y2="105.95"/>
  </g>
  <g>
    <line class="cls-4" x1="270.23" y1="43.58" x2="270.23" y2="111.3"/>
    <line class="cls-4" x1="142.91" y1="43.58" x2="142.91" y2="111.3"/>
    <line class="cls-4" x1="397.56" y1="43.58" x2="397.56" y2="111.3"/>
  </g>
  <g>
    <path d="M33.67,67.88v4.58h-1.55v-11.2h4.07c.52,0,.99.08,1.41.25.43.17.79.4,1.09.7.3.3.53.65.7,1.05.17.4.25.84.25,1.31s-.08.91-.25,1.32c-.17.41-.4.75-.7,1.04-.3.29-.66.52-1.09.69-.43.17-.9.25-1.41.25h-2.53ZM35.91,66.49c.67,0,1.2-.17,1.59-.51.38-.34.58-.8.58-1.38s-.19-1.07-.58-1.42c-.38-.35-.91-.52-1.59-.52h-2.24v3.84h2.24Z"/>
    <path d="M45.61,66.36c-.22-.03-.44-.05-.65-.05-.62,0-1.12.18-1.51.54-.38.36-.58.96-.58,1.79v3.81h-1.48v-7.6h1.45v1.33c.14-.29.3-.53.48-.72.18-.18.38-.33.58-.44s.41-.19.62-.23.41-.06.6-.06c.1,0,.2,0,.29.02.09.01.16.02.2.03v1.58Z"/>
    <path d="M53.8,70.29c-.1.34-.26.65-.47.94-.21.29-.45.54-.74.76-.29.22-.62.39-.99.51-.37.13-.77.19-1.22.19-.51,0-.99-.09-1.45-.27-.46-.18-.87-.44-1.22-.79-.35-.35-.63-.77-.84-1.28-.21-.51-.31-1.08-.31-1.72,0-.6.1-1.15.3-1.63s.47-.91.8-1.26c.33-.35.72-.63,1.16-.82.44-.19.9-.29,1.37-.29.58,0,1.1.1,1.56.29.46.2.84.47,1.15.81.3.35.54.77.7,1.26.16.49.25,1.03.25,1.62,0,.1,0,.18,0,.27,0,.08-.01.15-.02.21h-5.72c.01.34.07.65.19.93s.28.53.48.73c.21.21.45.36.73.47s.58.17.89.17c.62,0,1.09-.15,1.42-.44.33-.29.56-.66.71-1.09l1.28.44ZM52.3,67.88c-.02-.55-.21-1.01-.55-1.38-.35-.37-.86-.56-1.53-.56-.32,0-.6.06-.84.17-.25.11-.46.26-.63.44s-.31.39-.42.62-.16.47-.17.71h4.15Z"/>
    <path d="M55.27,70.42c0-.34.06-.64.17-.91.12-.27.28-.5.48-.69s.45-.34.73-.46.59-.2.92-.25l2.05-.3c.23-.03.39-.1.47-.21.08-.11.12-.23.12-.36,0-.37-.13-.69-.39-.96-.26-.27-.68-.4-1.26-.4-.53,0-.93.14-1.22.43-.29.29-.45.66-.51,1.1l-1.42-.33c.04-.36.15-.69.32-1s.4-.57.67-.78c.27-.22.59-.38.96-.5s.75-.18,1.16-.18c.57,0,1.05.08,1.45.23.4.15.73.36.98.61s.44.55.55.88c.12.34.17.69.17,1.06v3.81c0,.34.01.61.03.81.02.2.04.35.06.44h-1.45c-.02-.09-.04-.22-.05-.38-.02-.16-.02-.37-.02-.65-.08.14-.19.28-.33.43s-.31.28-.51.41c-.2.13-.43.23-.7.31-.27.08-.57.12-.91.12-.39,0-.74-.06-1.05-.19-.31-.13-.58-.29-.8-.5-.22-.21-.39-.45-.51-.72-.12-.27-.18-.56-.18-.87ZM58.02,71.45c.3,0,.59-.04.86-.12s.5-.21.7-.38c.19-.17.35-.41.47-.69.12-.29.17-.64.17-1.05v-.35l-2.32.35c-.32.05-.58.17-.79.36-.21.18-.32.45-.32.78,0,.28.11.54.33.77s.52.34.9.34Z"/>
    <path d="M64.01,72.46v-7.6h1.42v1.01c.24-.42.58-.73,1-.93.43-.2.86-.3,1.3-.3.47,0,.92.12,1.33.35s.73.59.94,1.09c.3-.55.68-.92,1.14-1.13.45-.21.92-.31,1.41-.31.33,0,.65.06.96.17.32.12.6.29.84.53.25.24.45.54.59.9s.22.79.22,1.29v4.93h-1.47v-4.77c0-.49-.13-.91-.39-1.24-.26-.33-.67-.5-1.22-.5-.53,0-.95.18-1.27.54-.32.36-.48.82-.48,1.37v4.6h-1.48v-4.77c0-.49-.13-.91-.38-1.24-.25-.33-.66-.5-1.23-.5-.54,0-.97.18-1.29.54-.32.36-.48.82-.48,1.39v4.58h-1.47Z"/>
    <path d="M77.54,72.46v-11.44h1.47v4.91c.18-.34.48-.64.92-.9.43-.26.96-.39,1.6-.39.58,0,1.08.1,1.52.31.43.21.79.49,1.09.85s.52.79.66,1.27.22,1,.22,1.55-.08,1.1-.24,1.59-.39.92-.69,1.28c-.3.36-.67.65-1.11.86-.44.21-.94.32-1.51.32s-1.06-.12-1.48-.35-.75-.55-.99-.96v1.11h-1.47ZM83.5,68.62c0-.82-.2-1.47-.6-1.95-.4-.48-.95-.72-1.64-.72-.33,0-.63.06-.91.19-.28.13-.52.3-.72.53-.2.23-.36.51-.47.84-.11.33-.17.7-.17,1.11s.05.78.17,1.12c.11.34.27.62.47.86.2.24.44.42.72.54.28.13.58.19.91.19.68,0,1.23-.25,1.63-.74.4-.49.61-1.15.61-1.97Z"/>
    <path d="M86.91,72.46v-11.44h1.48v11.44h-1.48Z"/>
    <path d="M97.54,70.29c-.1.34-.26.65-.47.94-.21.29-.45.54-.74.76-.29.22-.62.39-.99.51-.37.13-.77.19-1.22.19-.51,0-.99-.09-1.45-.27-.46-.18-.87-.44-1.22-.79-.35-.35-.63-.77-.84-1.28-.21-.51-.31-1.08-.31-1.72,0-.6.1-1.15.3-1.63s.47-.91.8-1.26c.33-.35.72-.63,1.16-.82.44-.19.9-.29,1.37-.29.58,0,1.1.1,1.56.29.46.2.84.47,1.15.81.3.35.54.77.7,1.26.16.49.25,1.03.25,1.62,0,.1,0,.18,0,.27,0,.08-.01.15-.02.21h-5.72c.01.34.07.65.19.93s.28.53.48.73c.21.21.45.36.73.47s.58.17.89.17c.62,0,1.09-.15,1.42-.44.33-.29.56-.66.71-1.09l1.28.44ZM96.04,67.88c-.02-.55-.21-1.01-.55-1.38-.35-.37-.86-.56-1.53-.56-.32,0-.6.06-.84.17-.25.11-.46.26-.63.44s-.31.39-.42.62-.16.47-.17.71h4.15Z"/>
    <path d="M31.57,85.88c0-.86.08-1.66.23-2.39.15-.73.36-1.41.63-2.02.27-.62.59-1.18.96-1.7.37-.52.76-.99,1.18-1.42l.9.79c-.81.91-1.45,1.91-1.92,3.01s-.7,2.35-.7,3.74.23,2.64.7,3.74,1.11,2.11,1.92,3l-.9.79c-.42-.43-.82-.91-1.18-1.42-.37-.52-.69-1.08-.96-1.7s-.48-1.29-.63-2.02c-.15-.73-.23-1.53-.23-2.39Z"/>
    <path d="M38.34,90.88v-7.22h-2.48v-1.09c.72-.02,1.31-.21,1.77-.56.46-.35.75-.81.87-1.37h1.36v10.24h-1.52Z"/>
    <path d="M49.51,83.05c.57,0,1.09.1,1.56.31s.88.49,1.23.84c.35.36.62.78.81,1.27.19.49.28,1.02.28,1.6s-.09,1.12-.28,1.61-.46.92-.81,1.28c-.35.36-.76.64-1.23.84s-1,.31-1.56.31-1.09-.1-1.56-.31c-.47-.21-.88-.49-1.23-.84-.35-.36-.62-.78-.81-1.28s-.28-1.03-.28-1.61.09-1.11.28-1.6c.19-.49.46-.91.81-1.27.35-.36.76-.64,1.23-.84.47-.21,1-.31,1.56-.31ZM49.51,89.79c.32,0,.62-.06.9-.17.29-.12.54-.29.76-.52.22-.23.39-.52.52-.85.13-.34.19-.73.19-1.17s-.06-.83-.19-1.16c-.13-.33-.3-.61-.52-.84-.22-.23-.47-.41-.76-.52-.28-.12-.58-.17-.9-.17s-.62.06-.9.17c-.28.12-.54.29-.76.52-.22.23-.39.51-.52.84-.13.33-.19.72-.19,1.16s.06.83.19,1.17c.13.34.3.62.52.85.22.23.47.41.76.52s.58.17.9.17Z"/>
    <path d="M59.51,84.79c-.22-.03-.44-.05-.65-.05-.62,0-1.12.18-1.51.54-.38.36-.58.96-.58,1.79v3.81h-1.48v-7.6h1.45v1.33c.14-.29.3-.53.48-.72.18-.18.38-.33.58-.44s.41-.19.62-.23.41-.06.6-.06c.1,0,.2,0,.29.02.09.01.16.02.2.03v1.58Z"/>
    <path d="M64.45,84.14c0-.07-.02-.14-.02-.21v-.2c0-.44.08-.86.24-1.26.16-.4.39-.75.69-1.06.3-.31.67-.55,1.11-.73.44-.18.94-.27,1.5-.27s1.04.08,1.47.25c.43.17.79.39,1.09.68s.52.62.67,1c.15.38.23.79.23,1.21,0,.67-.17,1.28-.52,1.81-.35.53-.82.98-1.41,1.35l-2.02,1.29c-.29.19-.56.4-.79.62s-.38.5-.46.81h5.26v1.44h-7.17c.01-.42.06-.82.15-1.18.09-.37.23-.72.43-1.06.2-.34.45-.66.75-.96.3-.3.67-.59,1.11-.88l1.71-1.11c.48-.31.84-.64,1.07-1,.23-.36.34-.74.34-1.14,0-.23-.04-.46-.12-.67-.08-.22-.2-.41-.36-.58-.16-.17-.36-.3-.6-.4-.24-.1-.53-.15-.85-.15s-.63.05-.88.17c-.25.11-.45.26-.62.45-.16.19-.28.41-.36.66-.08.25-.12.53-.12.82,0,.07,0,.15,0,.22,0,.07.01.15.02.24l-1.55-.19Z"/>
    <path d="M80.59,83.05c.57,0,1.09.1,1.56.31s.88.49,1.23.84c.35.36.62.78.81,1.27.19.49.28,1.02.28,1.6s-.09,1.12-.28,1.61-.46.92-.81,1.28c-.35.36-.76.64-1.23.84s-1,.31-1.56.31-1.09-.1-1.56-.31c-.47-.21-.88-.49-1.23-.84-.35-.36-.62-.78-.81-1.28s-.28-1.03-.28-1.61.09-1.11.28-1.6c.19-.49.46-.91.81-1.27.35-.36.76-.64,1.23-.84.47-.21,1-.31,1.56-.31ZM80.59,89.79c.32,0,.62-.06.9-.17.29-.12.54-.29.76-.52.22-.23.39-.52.52-.85.13-.34.19-.73.19-1.17s-.06-.83-.19-1.16c-.13-.33-.3-.61-.52-.84-.22-.23-.47-.41-.76-.52-.28-.12-.58-.17-.9-.17s-.62.06-.9.17c-.28.12-.54.29-.76.52-.22.23-.39.51-.52.84-.13.33-.19.72-.19,1.16s.06.83.19,1.17c.13.34.3.62.52.85.22.23.47.41.76.52s.58.17.9.17Z"/>
    <path d="M89.56,84.42c-.31,0-.59.05-.87.17-.27.11-.52.28-.73.5-.22.22-.39.5-.51.83-.13.33-.19.72-.19,1.16s.06.81.19,1.15c.13.33.29.61.5.84s.46.4.74.51c.28.12.58.17.88.17.36,0,.66-.05.91-.16.25-.11.45-.24.62-.4.16-.16.29-.33.39-.51.09-.18.16-.35.21-.5l1.31.57c-.09.27-.23.55-.41.83-.18.28-.41.54-.69.77-.29.23-.62.42-1,.56-.38.14-.82.21-1.32.21-.56,0-1.07-.1-1.54-.31s-.87-.49-1.21-.85-.6-.79-.8-1.28c-.2-.49-.29-1.02-.29-1.6s.1-1.13.29-1.63.46-.92.81-1.27c.34-.35.75-.63,1.22-.83s.97-.3,1.51-.3c.5,0,.95.07,1.33.21.38.14.72.33.99.56.28.23.5.49.67.78.17.29.29.58.38.86l-1.34.57c-.05-.19-.13-.38-.22-.57s-.22-.36-.39-.51c-.16-.15-.36-.28-.59-.38-.23-.1-.51-.15-.84-.15Z"/>
    <path d="M96.73,83.29h1.64v1.34h-1.64v3.95c0,.35.08.61.24.78.16.17.43.26.82.26.09,0,.2,0,.32-.02.12-.01.21-.03.27-.05v1.26c-.06.02-.18.05-.36.09-.18.04-.4.06-.65.06-.65,0-1.17-.19-1.55-.56-.38-.37-.57-.91-.57-1.6v-4.17h-1.45v-1.34h.41c.41,0,.71-.11.89-.33.18-.22.28-.5.28-.84v-1.23h1.36v2.4Z"/>
    <path d="M106.97,88.72c-.1.34-.26.65-.47.94-.21.29-.45.54-.74.76-.29.22-.62.39-.99.51-.37.13-.77.19-1.22.19-.51,0-.99-.09-1.45-.27-.46-.18-.87-.44-1.22-.79-.35-.35-.63-.77-.84-1.28-.21-.51-.31-1.08-.31-1.72,0-.6.1-1.15.3-1.63s.47-.91.8-1.26c.33-.35.72-.63,1.16-.82.44-.19.9-.29,1.37-.29.58,0,1.1.1,1.56.29.46.2.84.47,1.15.81.3.35.54.77.7,1.26.16.49.25,1.03.25,1.62,0,.1,0,.18,0,.27,0,.08-.01.15-.02.21h-5.72c.01.34.07.65.19.93s.28.53.48.73c.21.21.45.36.73.47s.58.17.89.17c.62,0,1.09-.15,1.42-.44.33-.29.56-.66.71-1.09l1.28.44ZM105.47,86.3c-.02-.55-.21-1.01-.55-1.38-.35-.37-.86-.56-1.53-.56-.32,0-.6.06-.84.17-.25.11-.46.26-.63.44s-.31.39-.42.62-.16.47-.17.71h4.15Z"/>
    <path d="M110.9,83.29h1.64v1.34h-1.64v3.95c0,.35.08.61.24.78.16.17.43.26.82.26.09,0,.2,0,.32-.02.12-.01.21-.03.27-.05v1.26c-.06.02-.18.05-.36.09-.18.04-.4.06-.65.06-.65,0-1.17-.19-1.55-.56-.38-.37-.57-.91-.57-1.6v-4.17h-1.45v-1.34h.41c.41,0,.71-.11.89-.33.18-.22.28-.5.28-.84v-1.23h1.36v2.4Z"/>
    <path d="M115.15,88.43c.05.4.23.74.52,1.01.29.27.71.41,1.25.41.42,0,.74-.1.96-.3.22-.2.33-.44.33-.71,0-.24-.08-.45-.25-.62s-.41-.29-.73-.36l-1.3-.28c-.6-.13-1.07-.38-1.4-.76s-.5-.84-.5-1.37c0-.33.07-.63.21-.92.14-.29.33-.54.58-.77.24-.22.53-.4.86-.52.33-.13.68-.19,1.05-.19.52,0,.95.07,1.3.22.35.15.64.33.86.54s.39.44.5.67c.11.23.19.43.23.6l-1.31.49c-.02-.1-.06-.22-.11-.36s-.14-.29-.25-.42c-.12-.13-.27-.25-.47-.34s-.45-.14-.74-.14c-.38,0-.68.1-.92.31s-.35.44-.35.7c0,.48.29.79.87.92l1.23.27c.7.15,1.22.42,1.57.81.35.39.53.88.53,1.45,0,.27-.06.55-.17.82-.12.27-.29.53-.51.76s-.51.42-.86.56c-.35.14-.76.21-1.23.21-.53,0-.98-.07-1.35-.22s-.68-.33-.93-.55c-.25-.22-.44-.46-.57-.72-.13-.26-.21-.5-.25-.72l1.34-.47Z"/>
    <path d="M124.29,85.88c0,.86-.08,1.66-.23,2.39-.15.73-.36,1.41-.63,2.02s-.59,1.18-.96,1.7c-.37.52-.76.99-1.18,1.42l-.9-.79c.8-.9,1.44-1.9,1.91-3s.71-2.35.71-3.74c0-.7-.06-1.35-.18-1.97s-.29-1.21-.52-1.77c-.23-.56-.5-1.08-.83-1.58-.33-.49-.69-.97-1.09-1.42l.9-.79c.42.43.82.91,1.18,1.42.37.52.69,1.08.96,1.7.27.62.48,1.29.63,2.02.15.73.23,1.53.23,2.39Z"/>
  </g>
  <g>
    <path d="M158.66,69.33h-4.96l-1.18,3.13h-1.66l4.45-11.2h1.78l4.45,11.2h-1.67l-1.22-3.13ZM154.25,67.89h3.85l-1.94-5.02-1.91,5.02Z"/>
    <path d="M166.16,66c-.31,0-.59.05-.87.17-.27.11-.52.28-.73.5-.22.22-.39.5-.51.83-.13.33-.19.72-.19,1.16s.06.81.19,1.15c.13.33.29.61.5.84s.46.4.74.51c.28.12.58.17.88.17.36,0,.66-.05.91-.16.25-.11.45-.24.62-.4.16-.16.29-.33.39-.51.09-.18.16-.35.21-.5l1.31.57c-.09.27-.23.55-.41.83-.18.28-.41.54-.69.77-.29.23-.62.42-1,.56-.38.14-.82.21-1.32.21-.56,0-1.07-.1-1.54-.31s-.87-.49-1.21-.85-.6-.79-.8-1.28c-.2-.49-.29-1.02-.29-1.6s.1-1.13.29-1.63.46-.92.81-1.27c.34-.35.75-.63,1.22-.83s.97-.3,1.51-.3c.5,0,.95.07,1.33.21.38.14.72.33.99.56.28.23.5.49.67.78.17.29.29.58.38.86l-1.34.57c-.05-.19-.13-.38-.22-.57s-.22-.36-.39-.51c-.16-.15-.36-.28-.59-.38-.23-.1-.51-.15-.84-.15Z"/>
    <path d="M174.53,66c-.31,0-.59.05-.87.17-.27.11-.52.28-.73.5-.22.22-.39.5-.51.83-.13.33-.19.72-.19,1.16s.06.81.19,1.15c.13.33.29.61.5.84s.46.4.74.51c.28.12.58.17.88.17.36,0,.66-.05.91-.16.25-.11.45-.24.62-.4.16-.16.29-.33.39-.51.09-.18.16-.35.21-.5l1.31.57c-.09.27-.23.55-.41.83-.18.28-.41.54-.69.77-.29.23-.62.42-1,.56-.38.14-.82.21-1.32.21-.56,0-1.07-.1-1.54-.31s-.87-.49-1.21-.85-.6-.79-.8-1.28c-.2-.49-.29-1.02-.29-1.6s.1-1.13.29-1.63.46-.92.81-1.27c.34-.35.75-.63,1.22-.83s.97-.3,1.51-.3c.5,0,.95.07,1.33.21.38.14.72.33.99.56.28.23.5.49.67.78.17.29.29.58.38.86l-1.34.57c-.05-.19-.13-.38-.22-.57s-.22-.36-.39-.51c-.16-.15-.36-.28-.59-.38-.23-.1-.51-.15-.84-.15Z"/>
    <path d="M186.33,70.29c-.1.34-.26.65-.47.94-.21.29-.45.54-.74.76-.29.22-.62.39-.99.51-.37.13-.77.19-1.22.19-.51,0-.99-.09-1.45-.27-.46-.18-.87-.44-1.22-.79-.35-.35-.63-.77-.84-1.28-.21-.51-.31-1.08-.31-1.72,0-.6.1-1.15.3-1.63s.47-.91.8-1.26c.33-.35.72-.63,1.16-.82.44-.19.9-.29,1.37-.29.58,0,1.1.1,1.56.29.46.2.84.47,1.15.81.3.35.54.77.7,1.26.16.49.25,1.03.25,1.62,0,.1,0,.18,0,.27,0,.08-.01.15-.02.21h-5.72c.01.34.07.65.19.93s.28.53.48.73c.21.21.45.36.73.47s.58.17.89.17c.62,0,1.09-.15,1.42-.44.33-.29.56-.66.71-1.09l1.28.44ZM184.83,67.88c-.02-.55-.21-1.01-.55-1.38-.35-.37-.86-.56-1.53-.56-.32,0-.6.06-.84.17-.25.11-.46.26-.63.44s-.31.39-.42.62-.16.47-.17.71h4.15Z"/>
    <path d="M188.9,70.01c.05.4.23.74.52,1.01.29.27.71.41,1.25.41.42,0,.74-.1.96-.3.22-.2.33-.44.33-.71,0-.24-.08-.45-.25-.62s-.41-.29-.73-.36l-1.3-.28c-.6-.13-1.07-.38-1.4-.76s-.5-.84-.5-1.37c0-.33.07-.63.21-.92.14-.29.33-.54.58-.77.24-.22.53-.4.86-.52.33-.13.68-.19,1.05-.19.52,0,.95.07,1.3.22.35.15.64.33.86.54s.39.44.5.67c.11.23.19.43.23.6l-1.31.49c-.02-.1-.06-.22-.11-.36s-.14-.29-.25-.42c-.12-.13-.27-.25-.47-.34s-.45-.14-.74-.14c-.38,0-.68.1-.92.31s-.35.44-.35.7c0,.48.29.79.87.92l1.23.27c.7.15,1.22.42,1.57.81.35.39.53.88.53,1.45,0,.27-.06.55-.17.82-.12.27-.29.53-.51.76s-.51.42-.86.56c-.35.14-.76.21-1.23.21-.53,0-.98-.07-1.35-.22s-.68-.33-.93-.55c-.25-.22-.44-.46-.57-.72-.13-.26-.21-.5-.25-.72l1.34-.47Z"/>
    <path d="M196.04,70.01c.05.4.23.74.52,1.01.29.27.71.41,1.25.41.42,0,.74-.1.96-.3.22-.2.33-.44.33-.71,0-.24-.08-.45-.25-.62s-.41-.29-.73-.36l-1.3-.28c-.6-.13-1.07-.38-1.4-.76s-.5-.84-.5-1.37c0-.33.07-.63.21-.92.14-.29.33-.54.58-.77.24-.22.53-.4.86-.52.33-.13.68-.19,1.05-.19.52,0,.95.07,1.3.22.35.15.64.33.86.54s.39.44.5.67c.11.23.19.43.23.6l-1.31.49c-.02-.1-.06-.22-.11-.36s-.14-.29-.25-.42c-.12-.13-.27-.25-.47-.34s-.45-.14-.74-.14c-.38,0-.68.1-.92.31s-.35.44-.35.7c0,.48.29.79.87.92l1.23.27c.7.15,1.22.42,1.57.81.35.39.53.88.53,1.45,0,.27-.06.55-.17.82-.12.27-.29.53-.51.76s-.51.42-.86.56c-.35.14-.76.21-1.23.21-.53,0-.98-.07-1.35-.22s-.68-.33-.93-.55c-.25-.22-.44-.46-.57-.72-.13-.26-.21-.5-.25-.72l1.34-.47Z"/>
    <path d="M202,68.57v-1.29h4.28v1.29h-4.28Z"/>
    <path d="M214.63,69.33h-4.96l-1.18,3.13h-1.66l4.45-11.2h1.78l4.45,11.2h-1.67l-1.22-3.13ZM210.23,67.89h3.85l-1.94-5.02-1.91,5.02Z"/>
    <path d="M224.27,71.3c-.18.37-.47.69-.86.96-.4.27-.89.4-1.49.4-.56,0-1.06-.1-1.5-.31-.44-.21-.82-.49-1.13-.85-.31-.36-.55-.79-.72-1.28-.17-.49-.25-1.02-.25-1.59,0-.54.09-1.04.26-1.52.17-.48.42-.9.73-1.26.32-.36.69-.65,1.14-.87s.93-.32,1.47-.32c.34,0,.63.04.89.11.26.07.48.17.67.29s.35.26.47.41c.13.15.22.31.28.47v-4.91h1.47v10.03c0,.37.01.68.03.93.02.25.04.41.05.47h-1.44c-.02-.08-.04-.22-.05-.4-.02-.18-.02-.39-.02-.62v-.13ZM219.83,68.63c0,.39.05.75.15,1.08.1.33.25.62.43.86s.42.43.7.57c.27.14.59.21.95.21.34,0,.64-.07.92-.21.27-.14.51-.33.7-.58s.33-.53.43-.87c.1-.34.15-.7.15-1.09,0-.79-.19-1.43-.58-1.91-.38-.48-.92-.73-1.6-.73-.34,0-.64.07-.92.2s-.52.32-.71.55c-.19.24-.34.52-.45.84s-.16.68-.16,1.07Z"/>
    <path d="M233.55,71.3c-.18.37-.47.69-.86.96-.4.27-.89.4-1.49.4-.56,0-1.06-.1-1.5-.31-.44-.21-.82-.49-1.13-.85-.31-.36-.55-.79-.72-1.28-.17-.49-.25-1.02-.25-1.59,0-.54.09-1.04.26-1.52.17-.48.42-.9.73-1.26.32-.36.69-.65,1.14-.87s.93-.32,1.47-.32c.34,0,.63.04.89.11.26.07.48.17.67.29s.35.26.47.41c.13.15.22.31.28.47v-4.91h1.47v10.03c0,.37.01.68.03.93.02.25.04.41.05.47h-1.44c-.02-.08-.04-.22-.05-.4-.02-.18-.02-.39-.02-.62v-.13ZM229.12,68.63c0,.39.05.75.15,1.08.1.33.25.62.43.86s.42.43.7.57c.27.14.59.21.95.21.34,0,.64-.07.92-.21.27-.14.51-.33.7-.58s.33-.53.43-.87c.1-.34.15-.7.15-1.09,0-.79-.19-1.43-.58-1.91-.38-.48-.92-.73-1.6-.73-.34,0-.64.07-.92.2s-.52.32-.71.55c-.19.24-.34.52-.45.84s-.16.68-.16,1.07Z"/>
    <path d="M241.74,66.36c-.22-.03-.44-.05-.65-.05-.62,0-1.12.18-1.51.54-.38.36-.58.96-.58,1.79v3.81h-1.48v-7.6h1.45v1.33c.14-.29.3-.53.48-.72.18-.18.38-.33.58-.44s.41-.19.62-.23.41-.06.6-.06c.1,0,.2,0,.29.02.09.01.16.02.2.03v1.58Z"/>
    <path d="M249.93,70.29c-.1.34-.26.65-.47.94-.21.29-.45.54-.74.76-.29.22-.62.39-.99.51-.37.13-.77.19-1.22.19-.51,0-.99-.09-1.45-.27-.46-.18-.87-.44-1.22-.79-.35-.35-.63-.77-.84-1.28-.21-.51-.31-1.08-.31-1.72,0-.6.1-1.15.3-1.63s.47-.91.8-1.26c.33-.35.72-.63,1.16-.82.44-.19.9-.29,1.37-.29.58,0,1.1.1,1.56.29.46.2.84.47,1.15.81.3.35.54.77.7,1.26.16.49.25,1.03.25,1.62,0,.1,0,.18,0,.27,0,.08-.01.15-.02.21h-5.72c.01.34.07.65.19.93s.28.53.48.73c.21.21.45.36.73.47s.58.17.89.17c.62,0,1.09-.15,1.42-.44.33-.29.56-.66.71-1.09l1.28.44ZM248.43,67.88c-.02-.55-.21-1.01-.55-1.38-.35-.37-.86-.56-1.53-.56-.32,0-.6.06-.84.17-.25.11-.46.26-.63.44s-.31.39-.42.62-.16.47-.17.71h4.15Z"/>
    <path d="M252.51,70.01c.05.4.23.74.52,1.01.29.27.71.41,1.25.41.42,0,.74-.1.96-.3.22-.2.33-.44.33-.71,0-.24-.08-.45-.25-.62s-.41-.29-.73-.36l-1.3-.28c-.6-.13-1.07-.38-1.4-.76s-.5-.84-.5-1.37c0-.33.07-.63.21-.92.14-.29.33-.54.58-.77.24-.22.53-.4.86-.52.33-.13.68-.19,1.05-.19.52,0,.95.07,1.3.22.35.15.64.33.86.54s.39.44.5.67c.11.23.19.43.23.6l-1.31.49c-.02-.1-.06-.22-.11-.36s-.14-.29-.25-.42c-.12-.13-.27-.25-.47-.34s-.45-.14-.74-.14c-.38,0-.68.1-.92.31s-.35.44-.35.7c0,.48.29.79.87.92l1.23.27c.7.15,1.22.42,1.57.81.35.39.53.88.53,1.45,0,.27-.06.55-.17.82-.12.27-.29.53-.51.76s-.51.42-.86.56c-.35.14-.76.21-1.23.21-.53,0-.98-.07-1.35-.22s-.68-.33-.93-.55c-.25-.22-.44-.46-.57-.72-.13-.26-.21-.5-.25-.72l1.34-.47Z"/>
    <path d="M259.65,70.01c.05.4.23.74.52,1.01.29.27.71.41,1.25.41.42,0,.74-.1.96-.3.22-.2.33-.44.33-.71,0-.24-.08-.45-.25-.62s-.41-.29-.73-.36l-1.3-.28c-.6-.13-1.07-.38-1.4-.76s-.5-.84-.5-1.37c0-.33.07-.63.21-.92.14-.29.33-.54.58-.77.24-.22.53-.4.86-.52.33-.13.68-.19,1.05-.19.52,0,.95.07,1.3.22.35.15.64.33.86.54s.39.44.5.67c.11.23.19.43.23.6l-1.31.49c-.02-.1-.06-.22-.11-.36s-.14-.29-.25-.42c-.12-.13-.27-.25-.47-.34s-.45-.14-.74-.14c-.38,0-.68.1-.92.31s-.35.44-.35.7c0,.48.29.79.87.92l1.23.27c.7.15,1.22.42,1.57.81.35.39.53.88.53,1.45,0,.27-.06.55-.17.82-.12.27-.29.53-.51.76s-.51.42-.86.56c-.35.14-.76.21-1.23.21-.53,0-.98-.07-1.35-.22s-.68-.33-.93-.55c-.25-.22-.44-.46-.57-.72-.13-.26-.21-.5-.25-.72l1.34-.47Z"/>
    <path d="M151.57,85.88c0-.86.08-1.66.23-2.39.15-.73.36-1.41.63-2.02.27-.62.59-1.18.96-1.7.37-.52.76-.99,1.18-1.42l.9.79c-.81.91-1.45,1.91-1.92,3.01s-.7,2.35-.7,3.74.23,2.64.7,3.74,1.11,2.11,1.92,3l-.9.79c-.42-.43-.82-.91-1.18-1.42-.37-.52-.69-1.08-.96-1.7s-.48-1.29-.63-2.02c-.15-.73-.23-1.53-.23-2.39Z"/>
    <path d="M155.7,86.79l4.39-6.14h2.13v6.49h1.75v1.44h-1.75v2.31h-1.5v-2.31h-5.02v-1.78ZM160.73,82.13l-3.6,5.01h3.6v-5.01Z"/>
    <path d="M172.68,83.05c.57,0,1.09.1,1.56.31s.88.49,1.23.84c.35.36.62.78.81,1.27.19.49.28,1.02.28,1.6s-.09,1.12-.28,1.61-.46.92-.81,1.28c-.35.36-.76.64-1.23.84s-1,.31-1.56.31-1.09-.1-1.56-.31c-.47-.21-.88-.49-1.23-.84-.35-.36-.62-.78-.81-1.28s-.28-1.03-.28-1.61.09-1.11.28-1.6c.19-.49.46-.91.81-1.27.35-.36.76-.64,1.23-.84.47-.21,1-.31,1.56-.31ZM172.68,89.79c.32,0,.62-.06.9-.17.29-.12.54-.29.76-.52.22-.23.39-.52.52-.85.13-.34.19-.73.19-1.17s-.06-.83-.19-1.16c-.13-.33-.3-.61-.52-.84-.22-.23-.47-.41-.76-.52-.28-.12-.58-.17-.9-.17s-.62.06-.9.17c-.28.12-.54.29-.76.52-.22.23-.39.51-.52.84-.13.33-.19.72-.19,1.16s.06.83.19,1.17c.13.34.3.62.52.85.22.23.47.41.76.52s.58.17.9.17Z"/>
    <path d="M181.65,84.42c-.31,0-.59.05-.87.17-.27.11-.52.28-.73.5-.22.22-.39.5-.51.83-.13.33-.19.72-.19,1.16s.06.81.19,1.15c.13.33.29.61.5.84s.46.4.74.51c.28.12.58.17.88.17.36,0,.66-.05.91-.16.25-.11.45-.24.62-.4.16-.16.29-.33.39-.51.09-.18.16-.35.21-.5l1.31.57c-.09.27-.23.55-.41.83-.18.28-.41.54-.69.77-.29.23-.62.42-1,.56-.38.14-.82.21-1.32.21-.56,0-1.07-.1-1.54-.31s-.87-.49-1.21-.85-.6-.79-.8-1.28c-.2-.49-.29-1.02-.29-1.6s.1-1.13.29-1.63.46-.92.81-1.27c.34-.35.75-.63,1.22-.83s.97-.3,1.51-.3c.5,0,.95.07,1.33.21.38.14.72.33.99.56.28.23.5.49.67.78.17.29.29.58.38.86l-1.34.57c-.05-.19-.13-.38-.22-.57s-.22-.36-.39-.51c-.16-.15-.36-.28-.59-.38-.23-.1-.51-.15-.84-.15Z"/>
    <path d="M188.82,83.29h1.64v1.34h-1.64v3.95c0,.35.08.61.24.78.16.17.43.26.82.26.09,0,.2,0,.32-.02.12-.01.21-.03.27-.05v1.26c-.06.02-.18.05-.36.09-.18.04-.4.06-.65.06-.65,0-1.17-.19-1.55-.56-.38-.37-.57-.91-.57-1.6v-4.17h-1.45v-1.34h.41c.41,0,.71-.11.89-.33.18-.22.28-.5.28-.84v-1.23h1.36v2.4Z"/>
    <path d="M199.06,88.72c-.1.34-.26.65-.47.94-.21.29-.45.54-.74.76-.29.22-.62.39-.99.51-.37.13-.77.19-1.22.19-.51,0-.99-.09-1.45-.27-.46-.18-.87-.44-1.22-.79-.35-.35-.63-.77-.84-1.28-.21-.51-.31-1.08-.31-1.72,0-.6.1-1.15.3-1.63s.47-.91.8-1.26c.33-.35.72-.63,1.16-.82.44-.19.9-.29,1.37-.29.58,0,1.1.1,1.56.29.46.2.84.47,1.15.81.3.35.54.77.7,1.26.16.49.25,1.03.25,1.62,0,.1,0,.18,0,.27,0,.08-.01.15-.02.21h-5.72c.01.34.07.65.19.93s.28.53.48.73c.21.21.45.36.73.47s.58.17.89.17c.62,0,1.09-.15,1.42-.44.33-.29.56-.66.71-1.09l1.28.44ZM197.56,86.3c-.02-.55-.21-1.01-.55-1.38-.35-.37-.86-.56-1.53-.56-.32,0-.6.06-.84.17-.25.11-.46.26-.63.44s-.31.39-.42.62-.16.47-.17.71h4.15Z"/>
    <path d="M202.99,83.29h1.64v1.34h-1.64v3.95c0,.35.08.61.24.78.16.17.43.26.82.26.09,0,.2,0,.32-.02.12-.01.21-.03.27-.05v1.26c-.06.02-.18.05-.36.09-.18.04-.4.06-.65.06-.65,0-1.17-.19-1.55-.56-.38-.37-.57-.91-.57-1.6v-4.17h-1.45v-1.34h.41c.41,0,.71-.11.89-.33.18-.22.28-.5.28-.84v-1.23h1.36v2.4Z"/>
    <path d="M207.24,88.43c.05.4.23.74.52,1.01.29.27.71.41,1.25.41.42,0,.74-.1.96-.3.22-.2.33-.44.33-.71,0-.24-.08-.45-.25-.62s-.41-.29-.73-.36l-1.3-.28c-.6-.13-1.07-.38-1.4-.76s-.5-.84-.5-1.37c0-.33.07-.63.21-.92.14-.29.33-.54.58-.77.24-.22.53-.4.86-.52.33-.13.68-.19,1.05-.19.52,0,.95.07,1.3.22.35.15.64.33.86.54s.39.44.5.67c.11.23.19.43.23.6l-1.31.49c-.02-.1-.06-.22-.11-.36s-.14-.29-.25-.42c-.12-.13-.27-.25-.47-.34s-.45-.14-.74-.14c-.38,0-.68.1-.92.31s-.35.44-.35.7c0,.48.29.79.87.92l1.23.27c.7.15,1.22.42,1.57.81.35.39.53.88.53,1.45,0,.27-.06.55-.17.82-.12.27-.29.53-.51.76s-.51.42-.86.56c-.35.14-.76.21-1.23.21-.53,0-.98-.07-1.35-.22s-.68-.33-.93-.55c-.25-.22-.44-.46-.57-.72-.13-.26-.21-.5-.25-.72l1.34-.47Z"/>
    <path d="M216.38,85.88c0,.86-.08,1.66-.23,2.39-.15.73-.36,1.41-.63,2.02s-.59,1.18-.96,1.7c-.37.52-.76.99-1.18,1.42l-.9-.79c.8-.9,1.44-1.9,1.91-3s.71-2.35.71-3.74c0-.7-.06-1.35-.18-1.97s-.29-1.21-.52-1.77c-.23-.56-.5-1.08-.83-1.58-.33-.49-.69-.97-1.09-1.42l.9-.79c.42.43.82.91,1.18,1.42.37.52.69,1.08.96,1.7.27.62.48,1.29.63,2.02.15.73.23,1.53.23,2.39Z"/>
  </g>
  <g>
    <path d="M286.83,67.88v4.58h-1.55v-11.2h4.07c.52,0,.99.08,1.41.25.43.17.79.4,1.09.7.3.3.53.65.7,1.05.17.4.25.84.25,1.31s-.08.91-.25,1.32c-.17.41-.4.75-.7,1.04-.3.29-.66.52-1.09.69-.43.17-.9.25-1.41.25h-2.53ZM289.07,66.49c.67,0,1.2-.17,1.59-.51.38-.34.58-.8.58-1.38s-.19-1.07-.58-1.42c-.38-.35-.91-.52-1.59-.52h-2.24v3.84h2.24Z"/>
    <path d="M294.71,72.46v-11.2h3.92c.71,0,1.38.12,2.03.36s1.21.6,1.7,1.07c.48.47.87,1.06,1.16,1.76.29.7.43,1.51.43,2.42s-.14,1.72-.43,2.42c-.29.7-.68,1.28-1.18,1.75-.5.47-1.07.82-1.71,1.06-.65.24-1.32.36-2.03.36h-3.88ZM298.55,71.08c.52,0,1-.09,1.47-.26.46-.17.87-.43,1.22-.78s.62-.78.82-1.31.3-1.14.3-1.85-.1-1.32-.3-1.86c-.2-.53-.47-.97-.81-1.33s-.74-.62-1.2-.8-.95-.27-1.46-.27h-2.32v8.45h2.29Z"/>
    <path d="M309.95,72.69c-.57,0-1.1-.09-1.59-.26-.49-.17-.92-.43-1.28-.77-.36-.34-.65-.77-.85-1.27-.21-.5-.31-1.09-.31-1.75v-7.38h1.53v7.33c0,.85.22,1.51.66,1.97.44.46,1.05.7,1.84.7s1.4-.23,1.83-.7c.43-.46.65-1.12.65-1.97v-7.33h1.55v7.38c0,.66-.1,1.25-.31,1.75-.21.51-.49.93-.85,1.27-.36.34-.79.6-1.28.77-.49.17-1.02.26-1.59.26Z"/>
    <path d="M284.73,85.88c0-.86.08-1.66.23-2.39.15-.73.36-1.41.63-2.02.27-.62.59-1.18.96-1.7.37-.52.76-.99,1.18-1.42l.9.79c-.81.91-1.45,1.91-1.92,3.01s-.7,2.35-.7,3.74.23,2.64.7,3.74,1.11,2.11,1.92,3l-.9.79c-.42-.43-.82-.91-1.18-1.42-.37-.52-.69-1.08-.96-1.7s-.48-1.29-.63-2.02c-.15-.73-.23-1.53-.23-2.39Z"/>
    <path d="M289.31,84.14c0-.07-.02-.14-.02-.21v-.2c0-.44.08-.86.24-1.26.16-.4.39-.75.69-1.06.3-.31.67-.55,1.11-.73.44-.18.94-.27,1.5-.27s1.04.08,1.47.25c.43.17.79.39,1.09.68s.52.62.67,1c.15.38.23.79.23,1.21,0,.67-.17,1.28-.52,1.81-.35.53-.82.98-1.41,1.35l-2.02,1.29c-.29.19-.56.4-.79.62s-.38.5-.46.81h5.26v1.44h-7.17c.01-.42.06-.82.15-1.18.09-.37.23-.72.43-1.06.2-.34.45-.66.75-.96.3-.3.67-.59,1.11-.88l1.71-1.11c.48-.31.84-.64,1.07-1,.23-.36.34-.74.34-1.14,0-.23-.04-.46-.12-.67-.08-.22-.2-.41-.36-.58-.16-.17-.36-.3-.6-.4-.24-.1-.53-.15-.85-.15s-.63.05-.88.17c-.25.11-.45.26-.62.45-.16.19-.28.41-.36.66-.08.25-.12.53-.12.82,0,.07,0,.15,0,.22,0,.07.01.15.02.24l-1.55-.19Z"/>
    <path d="M297.69,87v-1.29h4.28v1.29h-4.28Z"/>
    <path d="M303.36,84.14c0-.07-.02-.14-.02-.21v-.2c0-.44.08-.86.24-1.26.16-.4.39-.75.69-1.06.3-.31.67-.55,1.11-.73.44-.18.94-.27,1.5-.27s1.04.08,1.47.25c.43.17.79.39,1.09.68s.52.62.67,1c.15.38.23.79.23,1.21,0,.67-.17,1.28-.52,1.81-.35.53-.82.98-1.41,1.35l-2.02,1.29c-.29.19-.56.4-.79.62s-.38.5-.46.81h5.26v1.44h-7.17c.01-.42.06-.82.15-1.18.09-.37.23-.72.43-1.06.2-.34.45-.66.75-.96.3-.3.67-.59,1.11-.88l1.71-1.11c.48-.31.84-.64,1.07-1,.23-.36.34-.74.34-1.14,0-.23-.04-.46-.12-.67-.08-.22-.2-.41-.36-.58-.16-.17-.36-.3-.6-.4-.24-.1-.53-.15-.85-.15s-.63.05-.88.17c-.25.11-.45.26-.62.45-.16.19-.28.41-.36.66-.08.25-.12.53-.12.82,0,.07,0,.15,0,.22,0,.07.01.15.02.24l-1.55-.19Z"/>
    <path d="M313.08,87.66c.05.63.29,1.14.71,1.53s.95.58,1.6.58c.3,0,.59-.05.86-.14s.5-.23.7-.42c.19-.18.35-.4.47-.66.12-.25.17-.54.17-.85,0-.35-.06-.66-.18-.92s-.28-.49-.48-.66c-.2-.17-.43-.31-.7-.4-.27-.09-.55-.13-.85-.13-.37,0-.72.07-1.04.2s-.6.31-.82.54c-.27-.11-.53-.21-.77-.31-.24-.1-.49-.2-.75-.29l1.33-5.09h5.4v1.42h-4.38l-.76,2.94c.23-.25.54-.44.92-.57s.77-.19,1.17-.19c.5,0,.97.08,1.39.24.42.16.79.38,1.1.67.31.29.55.65.73,1.07s.26.89.26,1.42c0,.48-.09.94-.27,1.36-.18.42-.43.79-.76,1.11-.33.32-.72.57-1.18.75-.46.18-.98.28-1.55.28s-1.05-.08-1.49-.25-.84-.38-1.17-.66c-.33-.28-.59-.6-.79-.97-.2-.37-.31-.75-.34-1.15l1.48-.44Z"/>
    <path d="M324.12,91.12c-.59,0-1.11-.08-1.57-.23s-.84-.36-1.16-.62c-.32-.26-.56-.57-.73-.93-.17-.36-.25-.74-.25-1.15,0-.63.19-1.17.56-1.6.37-.44.83-.75,1.38-.92-.23-.08-.45-.21-.66-.36-.21-.16-.38-.34-.53-.54-.15-.21-.27-.43-.36-.69s-.13-.52-.13-.81c0-.42.09-.81.26-1.15.17-.35.42-.65.73-.9.31-.25.67-.45,1.09-.58.42-.14.87-.21,1.37-.21s.94.07,1.36.21c.42.14.79.33,1.1.58.31.25.55.55.73.9.17.35.26.73.26,1.15,0,.56-.16,1.05-.48,1.48-.32.43-.72.74-1.19.92.55.18,1.01.49,1.38.92.37.44.56.97.56,1.6,0,.41-.08.79-.25,1.15-.17.36-.41.67-.73.93-.32.26-.7.47-1.16.62s-.98.23-1.57.23ZM324.12,89.78c.69,0,1.23-.17,1.59-.5.37-.33.55-.74.55-1.22s-.19-.91-.56-1.25-.9-.51-1.59-.51-1.21.17-1.59.51-.56.75-.56,1.25.18.89.55,1.22c.37.33.9.5,1.6.5ZM324.12,85.01c.55,0,1-.17,1.36-.47.36-.3.54-.7.54-1.21,0-.46-.17-.85-.51-1.17-.34-.32-.8-.47-1.38-.47s-1.04.16-1.38.47c-.34.32-.51.71-.51,1.17,0,.5.18.91.54,1.21.36.3.81.46,1.36.47Z"/>
    <path d="M337.01,83.05c.57,0,1.09.1,1.56.31s.88.49,1.23.84c.35.36.62.78.81,1.27.19.49.28,1.02.28,1.6s-.09,1.12-.28,1.61-.46.92-.81,1.28c-.35.36-.76.64-1.23.84s-1,.31-1.56.31-1.09-.1-1.56-.31c-.47-.21-.88-.49-1.23-.84-.35-.36-.62-.78-.81-1.28s-.28-1.03-.28-1.61.09-1.11.28-1.6c.19-.49.46-.91.81-1.27.35-.36.76-.64,1.23-.84.47-.21,1-.31,1.56-.31ZM337.01,89.79c.32,0,.62-.06.9-.17.29-.12.54-.29.76-.52.22-.23.39-.52.52-.85.13-.34.19-.73.19-1.17s-.06-.83-.19-1.16c-.13-.33-.3-.61-.52-.84-.22-.23-.47-.41-.76-.52-.28-.12-.58-.17-.9-.17s-.62.06-.9.17c-.28.12-.54.29-.76.52-.22.23-.39.51-.52.84-.13.33-.19.72-.19,1.16s.06.83.19,1.17c.13.34.3.62.52.85.22.23.47.41.76.52s.58.17.9.17Z"/>
    <path d="M345.98,84.42c-.31,0-.59.05-.87.17-.27.11-.52.28-.73.5-.22.22-.39.5-.51.83-.13.33-.19.72-.19,1.16s.06.81.19,1.15c.13.33.29.61.5.84s.46.4.74.51c.28.12.58.17.88.17.36,0,.66-.05.91-.16.25-.11.45-.24.62-.4.16-.16.29-.33.39-.51.09-.18.16-.35.21-.5l1.31.57c-.09.27-.23.55-.41.83-.18.28-.41.54-.69.77-.29.23-.62.42-1,.56-.38.14-.82.21-1.32.21-.56,0-1.07-.1-1.54-.31s-.87-.49-1.21-.85-.6-.79-.8-1.28c-.2-.49-.29-1.02-.29-1.6s.1-1.13.29-1.63.46-.92.81-1.27c.34-.35.75-.63,1.22-.83s.97-.3,1.51-.3c.5,0,.95.07,1.33.21.38.14.72.33.99.56.28.23.5.49.67.78.17.29.29.58.38.86l-1.34.57c-.05-.19-.13-.38-.22-.57s-.22-.36-.39-.51c-.16-.15-.36-.28-.59-.38-.23-.1-.51-.15-.84-.15Z"/>
    <path d="M353.15,83.29h1.64v1.34h-1.64v3.95c0,.35.08.61.24.78.16.17.43.26.82.26.09,0,.2,0,.32-.02.12-.01.21-.03.27-.05v1.26c-.06.02-.18.05-.36.09-.18.04-.4.06-.65.06-.65,0-1.17-.19-1.55-.56-.38-.37-.57-.91-.57-1.6v-4.17h-1.45v-1.34h.41c.41,0,.71-.11.89-.33.18-.22.28-.5.28-.84v-1.23h1.36v2.4Z"/>
    <path d="M363.38,88.72c-.1.34-.26.65-.47.94-.21.29-.45.54-.74.76-.29.22-.62.39-.99.51-.37.13-.77.19-1.22.19-.51,0-.99-.09-1.45-.27-.46-.18-.87-.44-1.22-.79-.35-.35-.63-.77-.84-1.28-.21-.51-.31-1.08-.31-1.72,0-.6.1-1.15.3-1.63s.47-.91.8-1.26c.33-.35.72-.63,1.16-.82.44-.19.9-.29,1.37-.29.58,0,1.1.1,1.56.29.46.2.84.47,1.15.81.3.35.54.77.7,1.26.16.49.25,1.03.25,1.62,0,.1,0,.18,0,.27,0,.08-.01.15-.02.21h-5.72c.01.34.07.65.19.93s.28.53.48.73c.21.21.45.36.73.47s.58.17.89.17c.62,0,1.09-.15,1.42-.44.33-.29.56-.66.71-1.09l1.28.44ZM361.88,86.3c-.02-.55-.21-1.01-.55-1.38-.35-.37-.86-.56-1.53-.56-.32,0-.6.06-.84.17-.25.11-.46.26-.63.44s-.31.39-.42.62-.16.47-.17.71h4.15Z"/>
    <path d="M367.31,83.29h1.64v1.34h-1.64v3.95c0,.35.08.61.24.78.16.17.43.26.82.26.09,0,.2,0,.32-.02.12-.01.21-.03.27-.05v1.26c-.06.02-.18.05-.36.09-.18.04-.4.06-.65.06-.65,0-1.17-.19-1.55-.56-.38-.37-.57-.91-.57-1.6v-4.17h-1.45v-1.34h.41c.41,0,.71-.11.89-.33.18-.22.28-.5.28-.84v-1.23h1.36v2.4Z"/>
    <path d="M371.56,88.43c.05.4.23.74.52,1.01.29.27.71.41,1.25.41.42,0,.74-.1.96-.3.22-.2.33-.44.33-.71,0-.24-.08-.45-.25-.62s-.41-.29-.73-.36l-1.3-.28c-.6-.13-1.07-.38-1.4-.76s-.5-.84-.5-1.37c0-.33.07-.63.21-.92.14-.29.33-.54.58-.77.24-.22.53-.4.86-.52.33-.13.68-.19,1.05-.19.52,0,.95.07,1.3.22.35.15.64.33.86.54s.39.44.5.67c.11.23.19.43.23.6l-1.31.49c-.02-.1-.06-.22-.11-.36s-.14-.29-.25-.42c-.12-.13-.27-.25-.47-.34s-.45-.14-.74-.14c-.38,0-.68.1-.92.31s-.35.44-.35.7c0,.48.29.79.87.92l1.23.27c.7.15,1.22.42,1.57.81.35.39.53.88.53,1.45,0,.27-.06.55-.17.82-.12.27-.29.53-.51.76s-.51.42-.86.56c-.35.14-.76.21-1.23.21-.53,0-.98-.07-1.35-.22s-.68-.33-.93-.55c-.25-.22-.44-.46-.57-.72-.13-.26-.21-.5-.25-.72l1.34-.47Z"/>
    <path d="M380.71,85.88c0,.86-.08,1.66-.23,2.39-.15.73-.36,1.41-.63,2.02s-.59,1.18-.96,1.7c-.37.52-.76.99-1.18,1.42l-.9-.79c.8-.9,1.44-1.9,1.91-3s.71-2.35.71-3.74c0-.7-.06-1.35-.18-1.97s-.29-1.21-.52-1.77c-.23-.56-.5-1.08-.83-1.58-.33-.49-.69-.97-1.09-1.42l.9-.79c.42.43.82.91,1.18,1.42.37.52.69,1.08.96,1.7.27.62.48,1.29.63,2.02.15.73.23,1.53.23,2.39Z"/>
  </g>
  <g>
    <path d="M415.58,72.69c-.73,0-1.42-.13-2.09-.39-.67-.26-1.26-.63-1.77-1.13s-.92-1.11-1.23-1.83-.47-1.56-.47-2.5.16-1.77.47-2.49c.32-.72.73-1.33,1.26-1.82.52-.5,1.12-.87,1.78-1.13.67-.26,1.35-.39,2.05-.39.64,0,1.23.08,1.77.25.54.17,1.02.41,1.44.71s.78.68,1.07,1.12c.29.44.51.93.66,1.47l-1.44.51c-.21-.85-.61-1.51-1.21-1.96-.59-.45-1.36-.68-2.28-.68-.51,0-1,.09-1.48.28-.48.18-.91.46-1.28.83-.37.37-.67.83-.89,1.38-.22.55-.33,1.19-.33,1.92s.11,1.37.33,1.92c.22.55.52,1.02.89,1.39s.8.65,1.28.84c.48.18.97.28,1.48.28.47,0,.91-.07,1.29-.21s.73-.32,1.03-.56c.3-.24.55-.52.76-.85.21-.33.37-.69.48-1.07l1.37.51c-.15.53-.37,1.01-.66,1.45-.29.44-.65.82-1.07,1.14-.42.32-.9.56-1.44.74-.54.18-1.13.27-1.78.27Z"/>
    <path d="M425.81,67.88h-1.67v4.58h-1.56v-11.2h4.22c.53,0,1,.09,1.43.26.43.17.79.41,1.08.71.29.3.52.65.68,1.06s.24.84.24,1.3c0,.81-.24,1.5-.72,2.08-.48.57-1.15.94-2,1.1l2.67,4.69h-1.8l-2.56-4.58ZM426.51,66.49c.63,0,1.14-.17,1.53-.51.39-.34.58-.8.58-1.38s-.2-1.07-.58-1.42c-.39-.35-.9-.52-1.53-.52h-2.37v3.84h2.37Z"/>
    <path d="M437.2,72.69c-.73,0-1.42-.13-2.09-.39-.67-.26-1.26-.63-1.77-1.13s-.92-1.11-1.23-1.83-.47-1.56-.47-2.5.16-1.77.47-2.49c.32-.72.73-1.33,1.26-1.82.52-.5,1.12-.87,1.78-1.13.67-.26,1.35-.39,2.05-.39.64,0,1.23.08,1.77.25.54.17,1.02.41,1.44.71s.78.68,1.07,1.12c.29.44.51.93.66,1.47l-1.44.51c-.21-.85-.61-1.51-1.21-1.96-.59-.45-1.36-.68-2.28-.68-.51,0-1,.09-1.48.28-.48.18-.91.46-1.28.83-.37.37-.67.83-.89,1.38-.22.55-.33,1.19-.33,1.92s.11,1.37.33,1.92c.22.55.52,1.02.89,1.39s.8.65,1.28.84c.48.18.97.28,1.48.28.47,0,.91-.07,1.29-.21s.73-.32,1.03-.56c.3-.24.55-.52.76-.85.21-.33.37-.69.48-1.07l1.37.51c-.15.53-.37,1.01-.66,1.45-.29.44-.65.82-1.07,1.14-.42.32-.9.56-1.44.74-.54.18-1.13.27-1.78.27Z"/>
    <path d="M410.18,85.88c0-.86.08-1.66.23-2.39.15-.73.36-1.41.63-2.02.27-.62.59-1.18.96-1.7.37-.52.76-.99,1.18-1.42l.9.79c-.81.91-1.45,1.91-1.92,3.01s-.7,2.35-.7,3.74.23,2.64.7,3.74,1.11,2.11,1.92,3l-.9.79c-.42-.43-.82-.91-1.18-1.42-.37-.52-.69-1.08-.96-1.7s-.48-1.29-.63-2.02c-.15-.73-.23-1.53-.23-2.39Z"/>
    <path d="M416.88,84.85l3.02-2.78h-4.9v-1.42h6.95v1.39l-2.92,2.7c.38,0,.76.06,1.13.19.37.13.71.32,1.01.58.3.26.54.58.73.97.19.39.28.85.28,1.37,0,.43-.08.85-.25,1.24s-.4.75-.72,1.05c-.32.3-.7.55-1.16.73-.46.18-.99.27-1.59.27s-1.12-.09-1.58-.27c-.46-.18-.86-.42-1.18-.72-.32-.3-.57-.64-.75-1.03-.18-.38-.28-.79-.3-1.21l1.52-.35c.01.34.08.64.21.92.13.27.29.51.5.7s.44.34.71.44.55.16.86.16c.35,0,.66-.05.93-.15.27-.1.5-.24.68-.41.18-.17.32-.38.41-.61s.14-.47.14-.73c0-.34-.06-.63-.18-.87s-.28-.44-.48-.59c-.2-.15-.42-.27-.67-.34-.25-.07-.5-.11-.75-.11-.31,0-.61.05-.9.16l-.76-1.28Z"/>
    <path d="M431.28,83.05c.57,0,1.09.1,1.56.31s.88.49,1.23.84c.35.36.62.78.81,1.27.19.49.28,1.02.28,1.6s-.09,1.12-.28,1.61-.46.92-.81,1.28c-.35.36-.76.64-1.23.84s-1,.31-1.56.31-1.09-.1-1.56-.31c-.47-.21-.88-.49-1.23-.84-.35-.36-.62-.78-.81-1.28s-.28-1.03-.28-1.61.09-1.11.28-1.6c.19-.49.46-.91.81-1.27.35-.36.76-.64,1.23-.84.47-.21,1-.31,1.56-.31ZM431.28,89.79c.32,0,.62-.06.9-.17.29-.12.54-.29.76-.52.22-.23.39-.52.52-.85.13-.34.19-.73.19-1.17s-.06-.83-.19-1.16c-.13-.33-.3-.61-.52-.84-.22-.23-.47-.41-.76-.52-.28-.12-.58-.17-.9-.17s-.62.06-.9.17c-.28.12-.54.29-.76.52-.22.23-.39.51-.52.84-.13.33-.19.72-.19,1.16s.06.83.19,1.17c.13.34.3.62.52.85.22.23.47.41.76.52s.58.17.9.17Z"/>
    <path d="M440.25,84.42c-.31,0-.59.05-.87.17-.27.11-.52.28-.73.5-.22.22-.39.5-.51.83-.13.33-.19.72-.19,1.16s.06.81.19,1.15c.13.33.29.61.5.84s.46.4.74.51c.28.12.58.17.88.17.36,0,.66-.05.91-.16.25-.11.45-.24.62-.4.16-.16.29-.33.39-.51.09-.18.16-.35.21-.5l1.31.57c-.09.27-.23.55-.41.83-.18.28-.41.54-.69.77-.29.23-.62.42-1,.56-.38.14-.82.21-1.32.21-.56,0-1.07-.1-1.54-.31s-.87-.49-1.21-.85-.6-.79-.8-1.28c-.2-.49-.29-1.02-.29-1.6s.1-1.13.29-1.63.46-.92.81-1.27c.34-.35.75-.63,1.22-.83s.97-.3,1.51-.3c.5,0,.95.07,1.33.21.38.14.72.33.99.56.28.23.5.49.67.78.17.29.29.58.38.86l-1.34.57c-.05-.19-.13-.38-.22-.57s-.22-.36-.39-.51c-.16-.15-.36-.28-.59-.38-.23-.1-.51-.15-.84-.15Z"/>
    <path d="M447.42,83.29h1.64v1.34h-1.64v3.95c0,.35.08.61.24.78.16.17.43.26.82.26.09,0,.2,0,.32-.02.12-.01.21-.03.27-.05v1.26c-.06.02-.18.05-.36.09-.18.04-.4.06-.65.06-.65,0-1.17-.19-1.55-.56-.38-.37-.57-.91-.57-1.6v-4.17h-1.45v-1.34h.41c.41,0,.71-.11.89-.33.18-.22.28-.5.28-.84v-1.23h1.36v2.4Z"/>
    <path d="M457.65,88.72c-.1.34-.26.65-.47.94-.21.29-.45.54-.74.76-.29.22-.62.39-.99.51-.37.13-.77.19-1.22.19-.51,0-.99-.09-1.45-.27-.46-.18-.87-.44-1.22-.79-.35-.35-.63-.77-.84-1.28-.21-.51-.31-1.08-.31-1.72,0-.6.1-1.15.3-1.63s.47-.91.8-1.26c.33-.35.72-.63,1.16-.82.44-.19.9-.29,1.37-.29.58,0,1.1.1,1.56.29.46.2.84.47,1.15.81.3.35.54.77.7,1.26.16.49.25,1.03.25,1.62,0,.1,0,.18,0,.27,0,.08-.01.15-.02.21h-5.72c.01.34.07.65.19.93s.28.53.48.73c.21.21.45.36.73.47s.58.17.89.17c.62,0,1.09-.15,1.42-.44.33-.29.56-.66.71-1.09l1.28.44ZM456.15,86.3c-.02-.55-.21-1.01-.55-1.38-.35-.37-.86-.56-1.53-.56-.32,0-.6.06-.84.17-.25.11-.46.26-.63.44s-.31.39-.42.62-.16.47-.17.71h4.15Z"/>
    <path d="M461.59,83.29h1.64v1.34h-1.64v3.95c0,.35.08.61.24.78.16.17.43.26.82.26.09,0,.2,0,.32-.02.12-.01.21-.03.27-.05v1.26c-.06.02-.18.05-.36.09-.18.04-.4.06-.65.06-.65,0-1.17-.19-1.55-.56-.38-.37-.57-.91-.57-1.6v-4.17h-1.45v-1.34h.41c.41,0,.71-.11.89-.33.18-.22.28-.5.28-.84v-1.23h1.36v2.4Z"/>
    <path d="M465.84,88.43c.05.4.23.74.52,1.01.29.27.71.41,1.25.41.42,0,.74-.1.96-.3.22-.2.33-.44.33-.71,0-.24-.08-.45-.25-.62s-.41-.29-.73-.36l-1.3-.28c-.6-.13-1.07-.38-1.4-.76s-.5-.84-.5-1.37c0-.33.07-.63.21-.92.14-.29.33-.54.58-.77.24-.22.53-.4.86-.52.33-.13.68-.19,1.05-.19.52,0,.95.07,1.3.22.35.15.64.33.86.54s.39.44.5.67c.11.23.19.43.23.6l-1.31.49c-.02-.1-.06-.22-.11-.36s-.14-.29-.25-.42c-.12-.13-.27-.25-.47-.34s-.45-.14-.74-.14c-.38,0-.68.1-.92.31s-.35.44-.35.7c0,.48.29.79.87.92l1.23.27c.7.15,1.22.42,1.57.81.35.39.53.88.53,1.45,0,.27-.06.55-.17.82-.12.27-.29.53-.51.76s-.51.42-.86.56c-.35.14-.76.21-1.23.21-.53,0-.98-.07-1.35-.22s-.68-.33-.93-.55c-.25-.22-.44-.46-.57-.72-.13-.26-.21-.5-.25-.72l1.34-.47Z"/>
    <path d="M474.98,85.88c0,.86-.08,1.66-.23,2.39-.15.73-.36,1.41-.63,2.02s-.59,1.18-.96,1.7c-.37.52-.76.99-1.18,1.42l-.9-.79c.8-.9,1.44-1.9,1.91-3s.71-2.35.71-3.74c0-.7-.06-1.35-.18-1.97s-.29-1.21-.52-1.77c-.23-.56-.5-1.08-.83-1.58-.33-.49-.69-.97-1.09-1.42l.9-.79c.42.43.82.91,1.18,1.42.37.52.69,1.08.96,1.7.27.62.48,1.29.63,2.02.15.73.23,1.53.23,2.39Z"/>
  </g>
  <g>
    <path d="M535.69,63.48c-.73,0-1.42-.13-2.09-.39-.67-.26-1.26-.63-1.77-1.13-.51-.49-.92-1.11-1.23-1.83s-.47-1.56-.47-2.5.16-1.77.47-2.49c.32-.72.73-1.33,1.26-1.82.52-.49,1.12-.87,1.78-1.13.67-.26,1.35-.39,2.05-.39.64,0,1.23.08,1.77.25.54.17,1.02.41,1.44.71.42.31.78.68,1.07,1.12.29.44.51.93.66,1.47l-1.44.5c-.21-.85-.61-1.5-1.21-1.96s-1.36-.68-2.28-.68c-.51,0-1,.09-1.48.28-.48.18-.91.46-1.28.83-.37.37-.67.83-.89,1.38-.22.55-.33,1.19-.33,1.92s.11,1.37.33,1.92c.22.55.52,1.02.89,1.39.37.37.8.65,1.28.84.48.18.97.28,1.48.28.47,0,.91-.07,1.29-.21s.73-.32,1.03-.56c.3-.24.55-.52.76-.85.21-.33.37-.69.48-1.07l1.37.5c-.15.53-.37,1.01-.66,1.45-.29.44-.65.82-1.07,1.14-.42.32-.9.56-1.44.74s-1.13.27-1.78.27Z"/>
    <path d="M545.47,55.41c.57,0,1.09.1,1.56.31.47.21.88.49,1.23.84.35.36.62.78.81,1.27s.28,1.02.28,1.6-.09,1.12-.28,1.61-.46.92-.81,1.28c-.35.36-.76.64-1.23.84-.47.21-1,.31-1.56.31s-1.09-.1-1.56-.31c-.47-.21-.88-.49-1.23-.84-.35-.36-.62-.78-.81-1.28s-.28-1.03-.28-1.61.09-1.11.28-1.6.46-.91.81-1.27c.35-.36.76-.64,1.23-.84.47-.21,1-.31,1.56-.31ZM545.47,62.15c.32,0,.62-.06.9-.17.29-.12.54-.29.76-.52.22-.23.39-.52.52-.85.13-.34.19-.73.19-1.17s-.06-.83-.19-1.16c-.13-.33-.3-.61-.52-.85-.22-.23-.47-.4-.76-.52-.28-.12-.58-.17-.9-.17s-.62.06-.9.17-.54.29-.76.52c-.22.23-.39.51-.52.85-.13.33-.19.72-.19,1.16s.06.83.19,1.17c.13.34.3.62.52.85.22.23.47.41.76.52.28.12.58.17.9.17Z"/>
    <path d="M552.73,63.24h-1.48v-7.6h1.45v1.09c.27-.47.62-.81,1.04-1.01s.85-.3,1.29-.3.85.08,1.19.23c.34.15.63.36.85.63s.39.59.5.96c.11.37.17.76.17,1.18v4.82h-1.48v-4.56c0-.26-.03-.51-.09-.74s-.16-.43-.3-.61c-.14-.17-.33-.31-.55-.41-.23-.1-.5-.15-.83-.15-.29,0-.55.06-.77.17s-.41.26-.55.45-.26.41-.33.66c-.07.25-.11.52-.11.81v4.39Z"/>
    <path d="M560.76,60.79c.05.4.23.74.52,1.01.29.27.71.41,1.25.41.42,0,.74-.1.96-.3.22-.2.33-.44.33-.71,0-.24-.08-.45-.25-.62-.17-.17-.41-.29-.73-.36l-1.3-.28c-.6-.13-1.07-.38-1.4-.76s-.5-.84-.5-1.37c0-.33.07-.63.21-.92.14-.29.33-.54.58-.77.24-.22.53-.39.86-.52.33-.13.68-.19,1.05-.19.52,0,.95.07,1.3.22.35.15.64.33.86.54s.39.44.5.67c.11.23.19.43.23.6l-1.31.49c-.02-.09-.06-.22-.11-.36s-.14-.29-.25-.42c-.12-.13-.27-.24-.47-.34s-.45-.14-.74-.14c-.38,0-.68.1-.92.31-.23.21-.35.44-.35.7,0,.48.29.79.87.92l1.23.27c.7.15,1.22.42,1.57.81.35.4.53.88.53,1.45,0,.27-.06.55-.17.82-.12.27-.29.53-.51.76-.23.23-.51.42-.86.56-.35.14-.76.21-1.23.21-.53,0-.98-.07-1.35-.22-.37-.15-.68-.33-.93-.55-.25-.22-.44-.46-.57-.72-.13-.26-.21-.5-.25-.72l1.34-.47Z"/>
    <path d="M569.25,55.65h1.64v1.34h-1.64v3.95c0,.35.08.61.24.78.16.17.43.26.82.26.09,0,.2,0,.32-.02.12,0,.21-.03.27-.05v1.26c-.06.02-.18.05-.36.09-.18.04-.4.05-.65.05-.65,0-1.17-.19-1.55-.56-.38-.37-.57-.91-.57-1.6v-4.17h-1.45v-1.34h.41c.41,0,.71-.11.89-.33.18-.22.28-.5.28-.84v-1.23h1.36v2.4Z"/>
    <path d="M572.4,61.21c0-.34.06-.64.17-.91.12-.27.28-.5.48-.69s.45-.34.73-.46c.28-.12.59-.2.92-.25l2.05-.3c.23-.03.39-.1.47-.21.08-.11.12-.23.12-.36,0-.37-.13-.69-.39-.96-.26-.27-.68-.4-1.26-.4-.53,0-.93.15-1.22.43-.29.29-.45.66-.51,1.1l-1.42-.33c.04-.36.15-.69.32-1,.17-.3.4-.57.67-.78.27-.22.59-.38.96-.51s.75-.18,1.16-.18c.57,0,1.05.08,1.45.23.4.15.73.36.98.61.25.25.44.55.55.88.12.34.17.69.17,1.06v3.81c0,.34.01.61.03.8.02.2.04.35.06.44h-1.45c-.02-.09-.04-.22-.05-.38s-.02-.37-.02-.65c-.08.14-.19.28-.33.43s-.31.28-.51.41c-.2.13-.43.23-.7.31-.27.08-.57.12-.91.12-.39,0-.74-.06-1.05-.19-.31-.13-.58-.29-.8-.5-.22-.21-.39-.44-.51-.72-.12-.27-.18-.56-.18-.87ZM575.14,62.23c.3,0,.59-.04.86-.12s.5-.21.7-.38c.19-.17.35-.41.47-.7.12-.29.17-.64.17-1.05v-.35l-2.32.35c-.32.05-.58.17-.79.35-.21.18-.32.45-.32.78,0,.28.11.54.33.77.22.23.52.34.9.34Z"/>
    <path d="M582.62,63.24h-1.48v-7.6h1.45v1.09c.27-.47.62-.81,1.04-1.01s.85-.3,1.29-.3.85.08,1.19.23c.34.15.63.36.85.63s.39.59.5.96c.11.37.17.76.17,1.18v4.82h-1.48v-4.56c0-.26-.03-.51-.09-.74s-.16-.43-.3-.61c-.14-.17-.33-.31-.55-.41-.23-.1-.5-.15-.83-.15-.29,0-.55.06-.77.17s-.41.26-.55.45-.26.41-.33.66c-.07.25-.11.52-.11.81v4.39Z"/>
    <path d="M592,55.65h1.64v1.34h-1.64v3.95c0,.35.08.61.24.78.16.17.43.26.82.26.09,0,.2,0,.32-.02.12,0,.21-.03.27-.05v1.26c-.06.02-.18.05-.36.09-.18.04-.4.05-.65.05-.65,0-1.17-.19-1.55-.56-.38-.37-.57-.91-.57-1.6v-4.17h-1.45v-1.34h.41c.41,0,.71-.11.89-.33.18-.22.28-.5.28-.84v-1.23h1.36v2.4Z"/>
    <path d="M534.87,71.91v9.76h-1.55v-9.76h-3.74v-1.44h9.03v1.44h-3.74Z"/>
    <path d="M541.79,73.83c.57,0,1.09.1,1.56.31.47.21.88.49,1.23.84.35.36.62.78.81,1.27s.28,1.02.28,1.6-.09,1.12-.28,1.61-.46.92-.81,1.28c-.35.36-.76.64-1.23.84-.47.21-1,.31-1.56.31s-1.09-.1-1.56-.31c-.47-.21-.88-.49-1.23-.84-.35-.36-.62-.78-.81-1.28s-.28-1.03-.28-1.61.09-1.11.28-1.6.46-.91.81-1.27c.35-.36.76-.64,1.23-.84.47-.21,1-.31,1.56-.31ZM541.79,80.58c.32,0,.62-.06.9-.17.29-.12.54-.29.76-.52.22-.23.39-.52.52-.85.13-.34.19-.73.19-1.17s-.06-.83-.19-1.16c-.13-.33-.3-.61-.52-.85-.22-.23-.47-.4-.76-.52-.28-.12-.58-.17-.9-.17s-.62.06-.9.17-.54.29-.76.52c-.22.23-.39.51-.52.85-.13.33-.19.72-.19,1.16s.06.83.19,1.17c.13.34.3.62.52.85.22.23.47.41.76.52.28.12.58.17.9.17Z"/>
    <path d="M549.05,81.67h-1.48v-7.6h1.45v1.09c.27-.47.62-.81,1.04-1.01s.85-.3,1.29-.3.85.08,1.19.23c.34.15.63.36.85.63s.39.59.5.96c.11.37.17.76.17,1.18v4.82h-1.48v-4.56c0-.26-.03-.51-.09-.74s-.16-.43-.3-.61c-.14-.17-.33-.31-.55-.41-.23-.1-.5-.15-.83-.15-.29,0-.55.06-.77.17s-.41.26-.55.45-.26.41-.33.66c-.07.25-.11.52-.11.81v4.39Z"/>
    <path d="M563.06,79.51c-.1.34-.26.65-.47.94-.21.29-.45.54-.74.76-.29.22-.62.39-.99.51-.37.13-.77.19-1.22.19-.51,0-.99-.09-1.45-.27s-.87-.44-1.22-.79c-.35-.35-.63-.77-.84-1.28-.21-.5-.31-1.08-.31-1.72,0-.6.1-1.14.3-1.63.2-.49.47-.91.8-1.26.33-.35.72-.63,1.16-.82.44-.2.9-.29,1.37-.29.58,0,1.1.1,1.56.29.46.19.84.47,1.15.81.3.35.54.77.7,1.26.16.49.25,1.03.25,1.62,0,.09,0,.18,0,.27,0,.08-.01.15-.02.21h-5.72c.01.34.07.65.19.93.12.29.28.53.48.73s.45.36.73.47c.28.11.58.17.89.17.62,0,1.09-.15,1.42-.44.33-.29.56-.66.71-1.09l1.28.44ZM561.56,77.09c-.02-.55-.21-1.01-.55-1.38s-.86-.56-1.53-.56c-.32,0-.6.05-.84.17-.25.11-.46.26-.63.44-.17.18-.31.39-.42.62s-.16.47-.17.71h4.15Z"/>
    <path d="M569.11,81.67v-11.2h6.81v1.44h-5.26v3.44h4.77v1.45h-4.77v3.43h5.26v1.44h-6.81Z"/>
    <path d="M579.85,77.8l-2.73-3.73h1.8l1.86,2.67,1.83-2.67h1.75l-2.7,3.73c.07.11.18.26.33.46s.31.43.5.68c.18.25.37.52.57.8.19.28.38.54.57.8s.35.48.5.68c.15.2.26.35.33.46h-1.78l-1.96-2.79-1.93,2.79h-1.77l2.83-3.87Z"/>
    <path d="M587.88,74.07h1.64v1.34h-1.64v3.95c0,.35.08.61.24.78.16.17.43.26.82.26.09,0,.2,0,.32-.02.12,0,.21-.03.27-.05v1.26c-.06.02-.18.05-.36.09-.18.04-.4.05-.65.05-.65,0-1.17-.19-1.55-.56-.38-.37-.57-.91-.57-1.6v-4.17h-1.45v-1.34h.41c.41,0,.71-.11.89-.33.18-.22.28-.5.28-.84v-1.23h1.36v2.4Z"/>
    <path d="M598.11,79.51c-.1.34-.26.65-.47.94-.21.29-.45.54-.74.76-.29.22-.62.39-.99.51-.37.13-.77.19-1.22.19-.51,0-.99-.09-1.45-.27s-.87-.44-1.22-.79c-.35-.35-.63-.77-.84-1.28-.21-.5-.31-1.08-.31-1.72,0-.6.1-1.14.3-1.63.2-.49.47-.91.8-1.26.33-.35.72-.63,1.16-.82.44-.2.9-.29,1.37-.29.58,0,1.1.1,1.56.29.46.19.84.47,1.15.81.3.35.54.77.7,1.26.16.49.25,1.03.25,1.62,0,.09,0,.18,0,.27,0,.08-.01.15-.02.21h-5.72c.01.34.07.65.19.93.12.29.28.53.48.73s.45.36.73.47c.28.11.58.17.89.17.62,0,1.09-.15,1.42-.44.33-.29.56-.66.71-1.09l1.28.44ZM596.61,77.09c-.02-.55-.21-1.01-.55-1.38s-.86-.56-1.53-.56c-.32,0-.6.05-.84.17-.25.11-.46.26-.63.44-.17.18-.31.39-.42.62s-.16.47-.17.71h4.15Z"/>
    <path d="M601.54,81.67h-1.48v-7.6h1.45v1.09c.27-.47.62-.81,1.04-1.01s.85-.3,1.29-.3.85.08,1.19.23c.34.15.63.36.85.63s.39.59.5.96c.11.37.17.76.17,1.18v4.82h-1.48v-4.56c0-.26-.03-.51-.09-.74s-.16-.43-.3-.61c-.14-.17-.33-.31-.55-.41-.23-.1-.5-.15-.83-.15-.29,0-.55.06-.77.17s-.41.26-.55.45-.26.41-.33.66c-.07.25-.11.52-.11.81v4.39Z"/>
    <path d="M609.56,79.22c.05.4.23.74.52,1.01.29.27.71.41,1.25.41.42,0,.74-.1.96-.3.22-.2.33-.44.33-.71,0-.24-.08-.45-.25-.62-.17-.17-.41-.29-.73-.36l-1.3-.28c-.6-.13-1.07-.38-1.4-.76s-.5-.84-.5-1.37c0-.33.07-.63.21-.92.14-.29.33-.54.58-.77.24-.22.53-.39.86-.52.33-.13.68-.19,1.05-.19.52,0,.95.07,1.3.22.35.15.64.33.86.54s.39.44.5.67c.11.23.19.43.23.6l-1.31.49c-.02-.09-.06-.22-.11-.36s-.14-.29-.25-.42c-.12-.13-.27-.24-.47-.34s-.45-.14-.74-.14c-.38,0-.68.1-.92.31-.23.21-.35.44-.35.7,0,.48.29.79.87.92l1.23.27c.7.15,1.22.42,1.57.81.35.4.53.88.53,1.45,0,.27-.06.55-.17.82-.12.27-.29.53-.51.76-.23.23-.51.42-.86.56-.35.14-.76.21-1.23.21-.53,0-.98-.07-1.35-.22-.37-.15-.68-.33-.93-.55-.25-.22-.44-.46-.57-.72-.13-.26-.21-.5-.25-.72l1.34-.47Z"/>
    <path d="M615.74,71.2c0-.3.1-.56.31-.77.21-.21.46-.31.75-.31s.56.1.77.31.31.46.31.77-.1.54-.31.75c-.21.21-.46.31-.77.31s-.54-.1-.75-.31-.31-.46-.31-.75ZM616.07,81.67v-7.6h1.47v7.6h-1.47Z"/>
    <path d="M623.32,73.83c.57,0,1.09.1,1.56.31.47.21.88.49,1.23.84.35.36.62.78.81,1.27s.28,1.02.28,1.6-.09,1.12-.28,1.61-.46.92-.81,1.28c-.35.36-.76.64-1.23.84-.47.21-1,.31-1.56.31s-1.09-.1-1.56-.31c-.47-.21-.88-.49-1.23-.84-.35-.36-.62-.78-.81-1.28s-.28-1.03-.28-1.61.09-1.11.28-1.6.46-.91.81-1.27c.35-.36.76-.64,1.23-.84.47-.21,1-.31,1.56-.31ZM623.32,80.58c.32,0,.62-.06.9-.17.29-.12.54-.29.76-.52.22-.23.39-.52.52-.85.13-.34.19-.73.19-1.17s-.06-.83-.19-1.16c-.13-.33-.3-.61-.52-.85-.22-.23-.47-.4-.76-.52-.28-.12-.58-.17-.9-.17s-.62.06-.9.17-.54.29-.76.52c-.22.23-.39.51-.52.85-.13.33-.19.72-.19,1.16s.06.83.19,1.17c.13.34.3.62.52.85.22.23.47.41.76.52.28.12.58.17.9.17Z"/>
    <path d="M630.58,81.67h-1.48v-7.6h1.45v1.09c.27-.47.62-.81,1.04-1.01s.85-.3,1.29-.3.85.08,1.19.23c.34.15.63.36.85.63s.39.59.5.96c.11.37.17.76.17,1.18v4.82h-1.48v-4.56c0-.26-.03-.51-.09-.74s-.16-.43-.3-.61c-.14-.17-.33-.31-.55-.41-.23-.1-.5-.15-.83-.15-.29,0-.55.06-.77.17s-.41.26-.55.45-.26.41-.33.66c-.07.25-.11.52-.11.81v4.39Z"/>
    <path d="M530.29,95.09c0-.86.08-1.66.23-2.39.15-.73.36-1.41.63-2.02.27-.62.59-1.18.96-1.7.37-.52.76-.99,1.18-1.42l.9.79c-.81.91-1.45,1.91-1.92,3.01s-.7,2.35-.7,3.74.23,2.64.7,3.74,1.11,2.11,1.92,3l-.9.79c-.42-.43-.82-.91-1.18-1.42-.37-.52-.69-1.08-.96-1.7s-.48-1.29-.63-2.02c-.15-.73-.23-1.53-.23-2.39Z"/>
    <path d="M537.07,100.1v-7.22h-2.48v-1.09c.72-.02,1.31-.21,1.77-.56.46-.35.75-.81.87-1.37h1.36v10.24h-1.52Z"/>
    <path d="M547.58,91.46c-.19-.12-.45-.22-.77-.31-.32-.09-.68-.13-1.07-.13-.54,0-1.02.09-1.45.28-.43.18-.79.44-1.11.77-.31.33-.56.71-.73,1.16-.18.45-.28.93-.32,1.46.21-.34.54-.64,1-.92.45-.27,1.02-.41,1.71-.41.5,0,.97.08,1.4.23.43.15.8.38,1.11.68.32.3.56.67.73,1.1s.26.93.26,1.48-.1,1.04-.31,1.47-.48.8-.83,1.1c-.35.3-.75.53-1.21.69-.46.16-.94.24-1.45.24s-.98-.09-1.45-.27c-.47-.18-.9-.46-1.28-.84s-.68-.87-.92-1.47c-.23-.6-.35-1.32-.35-2.16,0-.95.13-1.79.4-2.53.27-.74.64-1.37,1.11-1.88.47-.51,1.03-.9,1.67-1.16.64-.26,1.34-.39,2.08-.39.47,0,.9.05,1.28.16s.69.24.93.41l-.47,1.26ZM542.37,96.84c0,.34.06.64.19.9.13.26.29.49.5.67.21.18.44.33.7.43.26.1.54.15.82.15s.58-.05.84-.14.51-.23.71-.42c.21-.18.37-.41.48-.68s.17-.57.17-.91-.06-.66-.18-.92-.28-.5-.48-.68c-.2-.18-.43-.32-.7-.42s-.55-.14-.84-.14-.58.05-.84.14-.5.23-.7.42c-.2.18-.36.41-.48.68-.12.27-.18.58-.18.92Z"/>
    <path d="M556.13,92.5h1.64v1.34h-1.64v3.95c0,.35.08.61.24.78.16.17.43.26.82.26.09,0,.2,0,.32-.02.12-.01.21-.03.27-.05v1.26c-.06.02-.18.05-.36.09-.18.04-.4.06-.65.06-.65,0-1.17-.19-1.55-.56-.38-.37-.57-.91-.57-1.6v-4.17h-1.45v-1.34h.41c.41,0,.71-.11.89-.33.18-.22.28-.5.28-.84v-1.23h1.36v2.4Z"/>
    <path d="M563,92.26c.57,0,1.09.1,1.56.31s.88.49,1.23.84c.35.36.62.78.81,1.27.19.49.28,1.02.28,1.6s-.09,1.12-.28,1.61-.46.92-.81,1.28c-.35.36-.76.64-1.23.84s-1,.31-1.56.31-1.09-.1-1.56-.31c-.47-.21-.88-.49-1.23-.84-.35-.36-.62-.78-.81-1.28s-.28-1.03-.28-1.61.09-1.11.28-1.6c.19-.49.46-.91.81-1.27.35-.36.76-.64,1.23-.84.47-.21,1-.31,1.56-.31ZM563,99.01c.32,0,.62-.06.9-.17.29-.12.54-.29.76-.52.22-.23.39-.52.52-.85.13-.34.19-.73.19-1.17s-.06-.83-.19-1.16c-.13-.33-.3-.61-.52-.84-.22-.23-.47-.41-.76-.52-.28-.12-.58-.17-.9-.17s-.62.06-.9.17c-.28.12-.54.29-.76.52-.22.23-.39.51-.52.84-.13.33-.19.72-.19,1.16s.06.83.19,1.17c.13.34.3.62.52.85.22.23.47.41.76.52s.58.17.9.17Z"/>
    <path d="M574.34,100.1v-7.22h-2.48v-1.09c.72-.02,1.31-.21,1.77-.56.46-.35.75-.81.87-1.37h1.36v10.24h-1.52Z"/>
    <path d="M584.86,91.46c-.19-.12-.45-.22-.77-.31-.32-.09-.68-.13-1.07-.13-.54,0-1.02.09-1.45.28-.43.18-.79.44-1.11.77-.31.33-.56.71-.73,1.16-.18.45-.28.93-.32,1.46.21-.34.54-.64,1-.92.45-.27,1.02-.41,1.71-.41.5,0,.97.08,1.4.23.43.15.8.38,1.11.68.32.3.56.67.73,1.1s.26.93.26,1.48-.1,1.04-.31,1.47-.48.8-.83,1.1c-.35.3-.75.53-1.21.69-.46.16-.94.24-1.45.24s-.98-.09-1.45-.27c-.47-.18-.9-.46-1.28-.84s-.68-.87-.92-1.47c-.23-.6-.35-1.32-.35-2.16,0-.95.13-1.79.4-2.53.27-.74.64-1.37,1.11-1.88.47-.51,1.03-.9,1.67-1.16.64-.26,1.34-.39,2.08-.39.47,0,.9.05,1.28.16s.69.24.93.41l-.47,1.26ZM579.64,96.84c0,.34.06.64.19.9.13.26.29.49.5.67.21.18.44.33.7.43.26.1.54.15.82.15s.58-.05.84-.14.51-.23.71-.42c.21-.18.37-.41.48-.68s.17-.57.17-.91-.06-.66-.18-.92-.28-.5-.48-.68c-.2-.18-.43-.32-.7-.42s-.55-.14-.84-.14-.58.05-.84.14-.5.23-.7.42c-.2.18-.36.41-.48.68-.12.27-.18.58-.18.92Z"/>
    <path d="M586.99,94.98c0-.71.07-1.37.21-2.01s.37-1.2.71-1.71c.34-.51.76-.91,1.28-1.2.52-.29,1.14-.44,1.86-.44s1.35.15,1.86.44c.52.29.94.69,1.28,1.2.34.5.57,1.07.71,1.71s.21,1.3.21,2.01-.07,1.37-.21,2.01-.37,1.2-.71,1.71c-.34.51-.76.91-1.28,1.2-.52.29-1.14.44-1.86.44s-1.35-.15-1.86-.44c-.52-.29-.94-.69-1.28-1.2-.34-.5-.57-1.07-.71-1.71s-.21-1.3-.21-2.01ZM588.52,94.98c0,1.58.3,2.68.9,3.32.2.21.43.37.69.49.26.12.57.17.94.17s.68-.06.94-.17c.26-.12.49-.28.69-.49.6-.63.9-1.74.9-3.32s-.3-2.69-.9-3.32c-.2-.21-.43-.37-.69-.49-.26-.12-.57-.17-.94-.17s-.68.06-.94.17-.49.28-.69.49c-.6.63-.9,1.74-.9,3.32Z"/>
    <path d="M606.19,99.18c-.21.4-.53.69-.95.88-.42.18-.85.28-1.29.28-.28,0-.53-.03-.75-.09-.22-.06-.42-.13-.61-.23v3.08h-1.48v-10.6h1.48v4.56c0,.26.03.51.09.75.06.24.16.44.3.62.14.18.31.32.53.43.22.11.48.16.8.16.6,0,1.05-.18,1.35-.54.3-.36.45-.83.45-1.41v-4.58h1.48v6.19c0,.31,0,.59.02.85.02.26.03.45.06.55h-1.42c-.02-.08-.04-.22-.05-.4-.01-.18-.02-.36-.02-.51Z"/>
    <path d="M610.76,97.65c.05.4.23.74.52,1.01.29.27.71.41,1.25.41.42,0,.74-.1.96-.3.22-.2.33-.44.33-.71,0-.24-.08-.45-.25-.62s-.41-.29-.73-.36l-1.3-.28c-.6-.13-1.07-.38-1.4-.76s-.5-.84-.5-1.37c0-.33.07-.63.21-.92.14-.29.33-.54.58-.77.24-.22.53-.4.86-.52.33-.13.68-.19,1.05-.19.52,0,.95.07,1.3.22.35.15.64.33.86.54s.39.44.5.67c.11.23.19.43.23.6l-1.31.49c-.02-.1-.06-.22-.11-.36s-.14-.29-.25-.42c-.12-.13-.27-.25-.47-.34s-.45-.14-.74-.14c-.38,0-.68.1-.92.31s-.35.44-.35.7c0,.48.29.79.87.92l1.23.27c.7.15,1.22.42,1.57.81.35.39.53.88.53,1.45,0,.27-.06.55-.17.82-.12.27-.29.53-.51.76s-.51.42-.86.56c-.35.14-.76.21-1.23.21-.53,0-.98-.07-1.35-.22s-.68-.33-.93-.55c-.25-.22-.44-.46-.57-.72-.13-.26-.21-.5-.25-.72l1.34-.47Z"/>
    <path d="M619.9,95.09c0,.86-.08,1.66-.23,2.39-.15.73-.36,1.41-.63,2.02s-.59,1.18-.96,1.7c-.37.52-.76.99-1.18,1.42l-.9-.79c.8-.9,1.44-1.9,1.91-3s.71-2.35.71-3.74c0-.7-.06-1.35-.18-1.97s-.29-1.21-.52-1.77c-.23-.56-.5-1.08-.83-1.58-.33-.49-.69-.97-1.09-1.42l.9-.79c.42.43.82.91,1.18,1.42.37.52.69,1.08.96,1.7.27.62.48,1.29.63,2.02.15.73.23,1.53.23,2.39Z"/>
  </g>
  <g>
    <path d="M32.12,36.21v-11.2h1.55v9.75h5.29v1.45h-6.84Z"/>
    <path d="M46.53,28.04c-.03-.2-.1-.41-.21-.64-.1-.23-.25-.43-.44-.62-.19-.19-.43-.34-.71-.47s-.62-.18-1.01-.18c-.32,0-.61.05-.87.14-.26.09-.49.23-.69.39-.2.17-.35.37-.45.59-.11.23-.16.47-.16.73,0,.4.12.75.36,1.03.24.29.6.49,1.07.59l1.67.36c.94.21,1.66.59,2.16,1.14.5.55.75,1.22.75,2.01,0,.43-.09.85-.27,1.25s-.44.75-.77,1.06c-.34.31-.74.55-1.22.73-.47.18-1.01.28-1.61.28-.67,0-1.26-.1-1.76-.3s-.92-.46-1.26-.77c-.34-.32-.61-.67-.8-1.07-.19-.39-.31-.79-.36-1.19l1.48-.47c.03.32.11.62.23.91.12.29.29.54.52.77s.5.4.82.53.69.2,1.11.2c.77,0,1.35-.17,1.73-.52.38-.35.58-.77.58-1.26,0-.4-.14-.76-.41-1.08-.27-.32-.69-.54-1.26-.66l-1.59-.35c-.8-.18-1.46-.52-1.97-1.03s-.77-1.19-.77-2.03c0-.44.09-.86.28-1.26s.45-.75.78-1.06c.33-.3.72-.55,1.18-.73.45-.18.94-.28,1.45-.28.63,0,1.17.09,1.62.26s.82.4,1.12.67c.3.27.54.57.7.9.17.33.28.64.35.95l-1.39.49Z"/>
    <path d="M53.79,25.01c.54,0,1.01.08,1.43.23.42.15.77.36,1.06.63.29.27.51.59.66.96s.23.77.23,1.22c0,.6-.16,1.11-.47,1.52-.31.42-.71.71-1.21.89.32.08.6.21.85.39.25.17.47.38.64.62.17.24.3.5.39.79.09.29.13.59.13.91,0,.44-.08.85-.25,1.22-.17.37-.41.69-.71.96s-.67.48-1.09.63c-.42.15-.89.23-1.41.23h-3.92v-11.2h3.65ZM53.62,29.9c.63,0,1.12-.17,1.47-.5.35-.33.52-.76.52-1.29s-.18-.96-.54-1.28-.87-.47-1.51-.47h-1.86v3.54h1.93ZM53.84,34.85c.63,0,1.14-.16,1.52-.48.38-.32.58-.76.58-1.3s-.17-.98-.5-1.32c-.34-.34-.85-.51-1.53-.51h-2.21v3.62h2.15Z"/>
  </g>
  <g>
    <path d="M633.43,36.21v-8.72l-3.82,8.72h-1.42l-3.79-8.72v8.72h-1.53v-11.2h2.1l3.95,9.11,3.98-9.11h2.07v11.2h-1.53Z"/>
    <path d="M643.55,28.04c-.03-.2-.1-.41-.21-.64-.1-.23-.25-.43-.44-.62-.19-.19-.43-.34-.71-.47s-.62-.18-1.01-.18c-.32,0-.61.05-.87.14-.26.09-.49.23-.69.39-.2.17-.35.37-.45.59-.11.23-.16.47-.16.73,0,.4.12.75.36,1.03.24.29.6.49,1.07.59l1.67.36c.94.21,1.66.59,2.16,1.14.5.55.75,1.22.75,2.01,0,.43-.09.85-.27,1.25s-.44.75-.77,1.06c-.34.31-.74.55-1.22.73-.47.18-1.01.28-1.61.28-.67,0-1.26-.1-1.76-.3s-.92-.46-1.26-.77c-.34-.32-.61-.67-.8-1.07-.19-.39-.31-.79-.36-1.19l1.48-.47c.03.32.11.62.23.91.12.29.29.54.52.77s.5.4.82.53.69.2,1.11.2c.77,0,1.35-.17,1.73-.52.38-.35.58-.77.58-1.26,0-.4-.14-.76-.41-1.08-.27-.32-.69-.54-1.26-.66l-1.59-.35c-.8-.18-1.46-.52-1.97-1.03s-.77-1.19-.77-2.03c0-.44.09-.86.28-1.26s.45-.75.78-1.06c.33-.3.72-.55,1.18-.73.45-.18.94-.28,1.45-.28.63,0,1.17.09,1.62.26s.82.4,1.12.67c.3.27.54.57.7.9.17.33.28.64.35.95l-1.39.49Z"/>
    <path d="M650.82,25.01c.54,0,1.01.08,1.43.23.42.15.77.36,1.06.63.29.27.51.59.66.96s.23.77.23,1.22c0,.6-.16,1.11-.47,1.52-.31.42-.71.71-1.21.89.32.08.6.21.85.39.25.17.47.38.64.62.17.24.3.5.39.79.09.29.13.59.13.91,0,.44-.08.85-.25,1.22-.17.37-.41.69-.71.96s-.67.48-1.09.63c-.42.15-.89.23-1.41.23h-3.92v-11.2h3.65ZM650.65,29.9c.63,0,1.12-.17,1.47-.5.35-.33.52-.76.52-1.29s-.18-.96-.54-1.28-.87-.47-1.51-.47h-1.86v3.54h1.93ZM650.87,34.85c.63,0,1.14-.16,1.52-.48.38-.32.58-.76.58-1.3s-.17-.98-.5-1.32c-.34-.34-.85-.51-1.53-.51h-2.21v3.62h2.15Z"/>
  </g>
</svg>